<?xml version="1.0" encoding="utf-8" standalone="no"?>
<!DOCTYPE svg PUBLIC "-//W3C//DTD SVG 1.1//EN"
  "http://www.w3.org/Graphics/SVG/1.1/DTD/svg11.dtd">
<svg xmlns:xlink="http://www.w3.org/1999/xlink" width="576.1675pt" height="418.303033pt" viewBox="0 0 576.1675 418.303033" xmlns="http://www.w3.org/2000/svg" version="1.1">
 <metadata>
  <rdf:RDF xmlns:dc="http://purl.org/dc/elements/1.1/" xmlns:cc="http://creativecommons.org/ns#" xmlns:rdf="http://www.w3.org/1999/02/22-rdf-syntax-ns#">
   <cc:Work>
    <dc:type rdf:resource="http://purl.org/dc/dcmitype/StillImage"/>
    <dc:date>2025-12-09T02:33:23.296534</dc:date>
    <dc:format>image/svg+xml</dc:format>
    <dc:creator>
     <cc:Agent>
      <dc:title>Matplotlib v3.6.3, https://matplotlib.org/</dc:title>
     </cc:Agent>
    </dc:creator>
   </cc:Work>
  </rdf:RDF>
 </metadata>
 <defs>
  <style type="text/css">*{stroke-linejoin: round; stroke-linecap: butt}</style>
 </defs>
 <g id="figure_1">
  <g id="patch_1">
   <path d="M -0 418.303033 
L 576.1675 418.303033 
L 576.1675 0 
L -0 0 
z
" style="fill: #ffffff"/>
  </g>
  <g id="axes_1">
   <g id="patch_2">
    <path d="M 33.2875 374.830125 
L 568.9675 374.830125 
L 568.9675 22.318125 
L 33.2875 22.318125 
z
" style="fill: #ffffff"/>
   </g>
   <g id="matplotlib.axis_1">
    <g id="xtick_1">
     <g id="line2d_1">
      <defs>
       <path id="m23c61f4c60" d="M 0 0 
L 0 3.5 
" style="stroke: #000000; stroke-width: 0.8"/>
      </defs>
      <g>
       <use xlink:href="#m23c61f4c60" x="60.688238" y="374.830125" style="stroke: #000000; stroke-width: 0.8"/>
      </g>
     </g>
     <g id="text_1">
      <!-- 2021-07 -->
      <g transform="translate(23.463417 409.301971) rotate(-30) scale(0.1 -0.1)">
       <defs>
        <path id="DejaVuSans-32" d="M 1228 531 
L 3431 531 
L 3431 0 
L 469 0 
L 469 531 
Q 828 903 1448 1529 
Q 2069 2156 2228 2338 
Q 2531 2678 2651 2914 
Q 2772 3150 2772 3378 
Q 2772 3750 2511 3984 
Q 2250 4219 1831 4219 
Q 1534 4219 1204 4116 
Q 875 4013 500 3803 
L 500 4441 
Q 881 4594 1212 4672 
Q 1544 4750 1819 4750 
Q 2544 4750 2975 4387 
Q 3406 4025 3406 3419 
Q 3406 3131 3298 2873 
Q 3191 2616 2906 2266 
Q 2828 2175 2409 1742 
Q 1991 1309 1228 531 
z
" transform="scale(0.015625)"/>
        <path id="DejaVuSans-30" d="M 2034 4250 
Q 1547 4250 1301 3770 
Q 1056 3291 1056 2328 
Q 1056 1369 1301 889 
Q 1547 409 2034 409 
Q 2525 409 2770 889 
Q 3016 1369 3016 2328 
Q 3016 3291 2770 3770 
Q 2525 4250 2034 4250 
z
M 2034 4750 
Q 2819 4750 3233 4129 
Q 3647 3509 3647 2328 
Q 3647 1150 3233 529 
Q 2819 -91 2034 -91 
Q 1250 -91 836 529 
Q 422 1150 422 2328 
Q 422 3509 836 4129 
Q 1250 4750 2034 4750 
z
" transform="scale(0.015625)"/>
        <path id="DejaVuSans-31" d="M 794 531 
L 1825 531 
L 1825 4091 
L 703 3866 
L 703 4441 
L 1819 4666 
L 2450 4666 
L 2450 531 
L 3481 531 
L 3481 0 
L 794 0 
L 794 531 
z
" transform="scale(0.015625)"/>
        <path id="DejaVuSans-2d" d="M 313 2009 
L 1997 2009 
L 1997 1497 
L 313 1497 
L 313 2009 
z
" transform="scale(0.015625)"/>
        <path id="DejaVuSans-37" d="M 525 4666 
L 3525 4666 
L 3525 4397 
L 1831 0 
L 1172 0 
L 2766 4134 
L 525 4134 
L 525 4666 
z
" transform="scale(0.015625)"/>
       </defs>
       <use xlink:href="#DejaVuSans-32"/>
       <use xlink:href="#DejaVuSans-30" x="63.623047"/>
       <use xlink:href="#DejaVuSans-32" x="127.246094"/>
       <use xlink:href="#DejaVuSans-31" x="190.869141"/>
       <use xlink:href="#DejaVuSans-2d" x="254.492188"/>
       <use xlink:href="#DejaVuSans-30" x="290.576172"/>
       <use xlink:href="#DejaVuSans-37" x="354.199219"/>
      </g>
     </g>
    </g>
    <g id="xtick_2">
     <g id="line2d_2">
      <g>
       <use xlink:href="#m23c61f4c60" x="117.756953" y="374.830125" style="stroke: #000000; stroke-width: 0.8"/>
      </g>
     </g>
     <g id="text_2">
      <!-- 2022-01 -->
      <g transform="translate(80.532132 409.301971) rotate(-30) scale(0.1 -0.1)">
       <use xlink:href="#DejaVuSans-32"/>
       <use xlink:href="#DejaVuSans-30" x="63.623047"/>
       <use xlink:href="#DejaVuSans-32" x="127.246094"/>
       <use xlink:href="#DejaVuSans-32" x="190.869141"/>
       <use xlink:href="#DejaVuSans-2d" x="254.492188"/>
       <use xlink:href="#DejaVuSans-30" x="290.576172"/>
       <use xlink:href="#DejaVuSans-31" x="354.199219"/>
      </g>
     </g>
    </g>
    <g id="xtick_3">
     <g id="line2d_3">
      <g>
       <use xlink:href="#m23c61f4c60" x="173.8952" y="374.830125" style="stroke: #000000; stroke-width: 0.8"/>
      </g>
     </g>
     <g id="text_3">
      <!-- 2022-07 -->
      <g transform="translate(136.670379 409.301971) rotate(-30) scale(0.1 -0.1)">
       <use xlink:href="#DejaVuSans-32"/>
       <use xlink:href="#DejaVuSans-30" x="63.623047"/>
       <use xlink:href="#DejaVuSans-32" x="127.246094"/>
       <use xlink:href="#DejaVuSans-32" x="190.869141"/>
       <use xlink:href="#DejaVuSans-2d" x="254.492188"/>
       <use xlink:href="#DejaVuSans-30" x="290.576172"/>
       <use xlink:href="#DejaVuSans-37" x="354.199219"/>
      </g>
     </g>
    </g>
    <g id="xtick_4">
     <g id="line2d_4">
      <g>
       <use xlink:href="#m23c61f4c60" x="230.963915" y="374.830125" style="stroke: #000000; stroke-width: 0.8"/>
      </g>
     </g>
     <g id="text_4">
      <!-- 2023-01 -->
      <g transform="translate(193.739094 409.301971) rotate(-30) scale(0.1 -0.1)">
       <defs>
        <path id="DejaVuSans-33" d="M 2597 2516 
Q 3050 2419 3304 2112 
Q 3559 1806 3559 1356 
Q 3559 666 3084 287 
Q 2609 -91 1734 -91 
Q 1441 -91 1130 -33 
Q 819 25 488 141 
L 488 750 
Q 750 597 1062 519 
Q 1375 441 1716 441 
Q 2309 441 2620 675 
Q 2931 909 2931 1356 
Q 2931 1769 2642 2001 
Q 2353 2234 1838 2234 
L 1294 2234 
L 1294 2753 
L 1863 2753 
Q 2328 2753 2575 2939 
Q 2822 3125 2822 3475 
Q 2822 3834 2567 4026 
Q 2313 4219 1838 4219 
Q 1578 4219 1281 4162 
Q 984 4106 628 3988 
L 628 4550 
Q 988 4650 1302 4700 
Q 1616 4750 1894 4750 
Q 2613 4750 3031 4423 
Q 3450 4097 3450 3541 
Q 3450 3153 3228 2886 
Q 3006 2619 2597 2516 
z
" transform="scale(0.015625)"/>
       </defs>
       <use xlink:href="#DejaVuSans-32"/>
       <use xlink:href="#DejaVuSans-30" x="63.623047"/>
       <use xlink:href="#DejaVuSans-32" x="127.246094"/>
       <use xlink:href="#DejaVuSans-33" x="190.869141"/>
       <use xlink:href="#DejaVuSans-2d" x="254.492188"/>
       <use xlink:href="#DejaVuSans-30" x="290.576172"/>
       <use xlink:href="#DejaVuSans-31" x="354.199219"/>
      </g>
     </g>
    </g>
    <g id="xtick_5">
     <g id="line2d_5">
      <g>
       <use xlink:href="#m23c61f4c60" x="287.102162" y="374.830125" style="stroke: #000000; stroke-width: 0.8"/>
      </g>
     </g>
     <g id="text_5">
      <!-- 2023-07 -->
      <g transform="translate(249.877341 409.301971) rotate(-30) scale(0.1 -0.1)">
       <use xlink:href="#DejaVuSans-32"/>
       <use xlink:href="#DejaVuSans-30" x="63.623047"/>
       <use xlink:href="#DejaVuSans-32" x="127.246094"/>
       <use xlink:href="#DejaVuSans-33" x="190.869141"/>
       <use xlink:href="#DejaVuSans-2d" x="254.492188"/>
       <use xlink:href="#DejaVuSans-30" x="290.576172"/>
       <use xlink:href="#DejaVuSans-37" x="354.199219"/>
      </g>
     </g>
    </g>
    <g id="xtick_6">
     <g id="line2d_6">
      <g>
       <use xlink:href="#m23c61f4c60" x="344.170877" y="374.830125" style="stroke: #000000; stroke-width: 0.8"/>
      </g>
     </g>
     <g id="text_6">
      <!-- 2024-01 -->
      <g transform="translate(306.946057 409.301971) rotate(-30) scale(0.1 -0.1)">
       <defs>
        <path id="DejaVuSans-34" d="M 2419 4116 
L 825 1625 
L 2419 1625 
L 2419 4116 
z
M 2253 4666 
L 3047 4666 
L 3047 1625 
L 3713 1625 
L 3713 1100 
L 3047 1100 
L 3047 0 
L 2419 0 
L 2419 1100 
L 313 1100 
L 313 1709 
L 2253 4666 
z
" transform="scale(0.015625)"/>
       </defs>
       <use xlink:href="#DejaVuSans-32"/>
       <use xlink:href="#DejaVuSans-30" x="63.623047"/>
       <use xlink:href="#DejaVuSans-32" x="127.246094"/>
       <use xlink:href="#DejaVuSans-34" x="190.869141"/>
       <use xlink:href="#DejaVuSans-2d" x="254.492188"/>
       <use xlink:href="#DejaVuSans-30" x="290.576172"/>
       <use xlink:href="#DejaVuSans-31" x="354.199219"/>
      </g>
     </g>
    </g>
    <g id="xtick_7">
     <g id="line2d_7">
      <g>
       <use xlink:href="#m23c61f4c60" x="400.61928" y="374.830125" style="stroke: #000000; stroke-width: 0.8"/>
      </g>
     </g>
     <g id="text_7">
      <!-- 2024-07 -->
      <g transform="translate(363.39446 409.301971) rotate(-30) scale(0.1 -0.1)">
       <use xlink:href="#DejaVuSans-32"/>
       <use xlink:href="#DejaVuSans-30" x="63.623047"/>
       <use xlink:href="#DejaVuSans-32" x="127.246094"/>
       <use xlink:href="#DejaVuSans-34" x="190.869141"/>
       <use xlink:href="#DejaVuSans-2d" x="254.492188"/>
       <use xlink:href="#DejaVuSans-30" x="290.576172"/>
       <use xlink:href="#DejaVuSans-37" x="354.199219"/>
      </g>
     </g>
    </g>
    <g id="xtick_8">
     <g id="line2d_8">
      <g>
       <use xlink:href="#m23c61f4c60" x="457.687996" y="374.830125" style="stroke: #000000; stroke-width: 0.8"/>
      </g>
     </g>
     <g id="text_8">
      <!-- 2025-01 -->
      <g transform="translate(420.463175 409.301971) rotate(-30) scale(0.1 -0.1)">
       <defs>
        <path id="DejaVuSans-35" d="M 691 4666 
L 3169 4666 
L 3169 4134 
L 1269 4134 
L 1269 2991 
Q 1406 3038 1543 3061 
Q 1681 3084 1819 3084 
Q 2600 3084 3056 2656 
Q 3513 2228 3513 1497 
Q 3513 744 3044 326 
Q 2575 -91 1722 -91 
Q 1428 -91 1123 -41 
Q 819 9 494 109 
L 494 744 
Q 775 591 1075 516 
Q 1375 441 1709 441 
Q 2250 441 2565 725 
Q 2881 1009 2881 1497 
Q 2881 1984 2565 2268 
Q 2250 2553 1709 2553 
Q 1456 2553 1204 2497 
Q 953 2441 691 2322 
L 691 4666 
z
" transform="scale(0.015625)"/>
       </defs>
       <use xlink:href="#DejaVuSans-32"/>
       <use xlink:href="#DejaVuSans-30" x="63.623047"/>
       <use xlink:href="#DejaVuSans-32" x="127.246094"/>
       <use xlink:href="#DejaVuSans-35" x="190.869141"/>
       <use xlink:href="#DejaVuSans-2d" x="254.492188"/>
       <use xlink:href="#DejaVuSans-30" x="290.576172"/>
       <use xlink:href="#DejaVuSans-31" x="354.199219"/>
      </g>
     </g>
    </g>
    <g id="xtick_9">
     <g id="line2d_9">
      <g>
       <use xlink:href="#m23c61f4c60" x="513.826243" y="374.830125" style="stroke: #000000; stroke-width: 0.8"/>
      </g>
     </g>
     <g id="text_9">
      <!-- 2025-07 -->
      <g transform="translate(476.601422 409.301971) rotate(-30) scale(0.1 -0.1)">
       <use xlink:href="#DejaVuSans-32"/>
       <use xlink:href="#DejaVuSans-30" x="63.623047"/>
       <use xlink:href="#DejaVuSans-32" x="127.246094"/>
       <use xlink:href="#DejaVuSans-35" x="190.869141"/>
       <use xlink:href="#DejaVuSans-2d" x="254.492188"/>
       <use xlink:href="#DejaVuSans-30" x="290.576172"/>
       <use xlink:href="#DejaVuSans-37" x="354.199219"/>
      </g>
     </g>
    </g>
   </g>
   <g id="matplotlib.axis_2">
    <g id="ytick_1">
     <g id="line2d_10">
      <defs>
       <path id="m0844555e70" d="M 0 0 
L -3.5 0 
" style="stroke: #000000; stroke-width: 0.8"/>
      </defs>
      <g>
       <use xlink:href="#m0844555e70" x="33.2875" y="374.830125" style="stroke: #000000; stroke-width: 0.8"/>
      </g>
     </g>
     <g id="text_10">
      <!-- 0 -->
      <g transform="translate(19.925 378.629344) scale(0.1 -0.1)">
       <use xlink:href="#DejaVuSans-30"/>
      </g>
     </g>
    </g>
    <g id="ytick_2">
     <g id="line2d_11">
      <g>
       <use xlink:href="#m0844555e70" x="33.2875" y="320.718221" style="stroke: #000000; stroke-width: 0.8"/>
      </g>
     </g>
     <g id="text_11">
      <!-- 100 -->
      <g transform="translate(7.2 324.51744) scale(0.1 -0.1)">
       <use xlink:href="#DejaVuSans-31"/>
       <use xlink:href="#DejaVuSans-30" x="63.623047"/>
       <use xlink:href="#DejaVuSans-30" x="127.246094"/>
      </g>
     </g>
    </g>
    <g id="ytick_3">
     <g id="line2d_12">
      <g>
       <use xlink:href="#m0844555e70" x="33.2875" y="266.606317" style="stroke: #000000; stroke-width: 0.8"/>
      </g>
     </g>
     <g id="text_12">
      <!-- 200 -->
      <g transform="translate(7.2 270.405535) scale(0.1 -0.1)">
       <use xlink:href="#DejaVuSans-32"/>
       <use xlink:href="#DejaVuSans-30" x="63.623047"/>
       <use xlink:href="#DejaVuSans-30" x="127.246094"/>
      </g>
     </g>
    </g>
    <g id="ytick_4">
     <g id="line2d_13">
      <g>
       <use xlink:href="#m0844555e70" x="33.2875" y="212.494412" style="stroke: #000000; stroke-width: 0.8"/>
      </g>
     </g>
     <g id="text_13">
      <!-- 300 -->
      <g transform="translate(7.2 216.293631) scale(0.1 -0.1)">
       <use xlink:href="#DejaVuSans-33"/>
       <use xlink:href="#DejaVuSans-30" x="63.623047"/>
       <use xlink:href="#DejaVuSans-30" x="127.246094"/>
      </g>
     </g>
    </g>
    <g id="ytick_5">
     <g id="line2d_14">
      <g>
       <use xlink:href="#m0844555e70" x="33.2875" y="158.382508" style="stroke: #000000; stroke-width: 0.8"/>
      </g>
     </g>
     <g id="text_14">
      <!-- 400 -->
      <g transform="translate(7.2 162.181727) scale(0.1 -0.1)">
       <use xlink:href="#DejaVuSans-34"/>
       <use xlink:href="#DejaVuSans-30" x="63.623047"/>
       <use xlink:href="#DejaVuSans-30" x="127.246094"/>
      </g>
     </g>
    </g>
    <g id="ytick_6">
     <g id="line2d_15">
      <g>
       <use xlink:href="#m0844555e70" x="33.2875" y="104.270604" style="stroke: #000000; stroke-width: 0.8"/>
      </g>
     </g>
     <g id="text_15">
      <!-- 500 -->
      <g transform="translate(7.2 108.069823) scale(0.1 -0.1)">
       <use xlink:href="#DejaVuSans-35"/>
       <use xlink:href="#DejaVuSans-30" x="63.623047"/>
       <use xlink:href="#DejaVuSans-30" x="127.246094"/>
      </g>
     </g>
    </g>
    <g id="ytick_7">
     <g id="line2d_16">
      <g>
       <use xlink:href="#m0844555e70" x="33.2875" y="50.1587" style="stroke: #000000; stroke-width: 0.8"/>
      </g>
     </g>
     <g id="text_16">
      <!-- 600 -->
      <g transform="translate(7.2 53.957918) scale(0.1 -0.1)">
       <defs>
        <path id="DejaVuSans-36" d="M 2113 2584 
Q 1688 2584 1439 2293 
Q 1191 2003 1191 1497 
Q 1191 994 1439 701 
Q 1688 409 2113 409 
Q 2538 409 2786 701 
Q 3034 994 3034 1497 
Q 3034 2003 2786 2293 
Q 2538 2584 2113 2584 
z
M 3366 4563 
L 3366 3988 
Q 3128 4100 2886 4159 
Q 2644 4219 2406 4219 
Q 1781 4219 1451 3797 
Q 1122 3375 1075 2522 
Q 1259 2794 1537 2939 
Q 1816 3084 2150 3084 
Q 2853 3084 3261 2657 
Q 3669 2231 3669 1497 
Q 3669 778 3244 343 
Q 2819 -91 2113 -91 
Q 1303 -91 875 529 
Q 447 1150 447 2328 
Q 447 3434 972 4092 
Q 1497 4750 2381 4750 
Q 2619 4750 2861 4703 
Q 3103 4656 3366 4563 
z
" transform="scale(0.015625)"/>
       </defs>
       <use xlink:href="#DejaVuSans-36"/>
       <use xlink:href="#DejaVuSans-30" x="63.623047"/>
       <use xlink:href="#DejaVuSans-30" x="127.246094"/>
      </g>
     </g>
    </g>
   </g>
   <g id="line2d_17">
    <path d="M 38.539265 37.171843 
L 47.761791 37.171843 
L 47.866192 40.418557 
L 49.157404 40.418557 
L 49.630061 49.617581 
L 125.821517 49.617581 
L 126.200858 44.20639 
L 138.879582 44.20639 
L 139.624366 44.747509 
L 145.570363 44.747509 
L 145.7783 55.56989 
L 151.808219 55.56989 
L 153.057857 53.946533 
L 256.361899 53.946533 
L 256.65612 50.1587 
L 264.752632 50.1587 
L 265.041609 49.076462 
L 305.679792 49.076462 
L 305.882169 47.994224 
L 371.552 47.994224 
L 371.740129 43.665271 
L 421.526089 43.665271 
L 421.611716 43.124152 
L 459.639362 43.124152 
L 459.988833 42.583033 
L 463.447949 42.583033 
L 463.562725 40.418557 
L 464.950917 40.418557 
L 465.31161 40.959676 
L 489.307448 40.959676 
L 489.603686 40.418557 
L 540.12837 40.418557 
L 540.300848 31.760652 
L 554.752767 31.760652 
L 555.028447 25.808343 
L 563.715735 25.808343 
L 563.715735 25.808343 
" clip-path="url(#p56e97e889a)" style="fill: none; stroke: #0000ff; stroke-width: 1.5; stroke-linecap: square"/>
   </g>
   <g id="line2d_18">
    <path d="M 38.539265 175.698317 
L 39.807243 174.616079 
L 41.071129 175.698317 
L 44.064135 175.698317 
L 47.364282 176.780556 
L 47.609104 176.239437 
L 47.761791 176.239437 
L 47.866192 179.486151 
L 48.107148 178.945032 
L 48.46353 179.486151 
L 49.157404 179.486151 
L 49.543857 191.39077 
L 49.630061 188.685175 
L 49.83065 191.931889 
L 49.894441 191.39077 
L 50.119218 191.39077 
L 50.478776 191.931889 
L 51.344147 191.931889 
L 51.369979 192.473008 
L 51.839065 192.473008 
L 52.037623 191.931889 
L 52.618139 195.719722 
L 52.685192 195.178603 
L 52.970245 195.719722 
L 53.521648 197.343079 
L 53.895651 196.260841 
L 54.486811 196.260841 
L 54.817181 197.343079 
L 55.040515 197.343079 
L 55.713352 197.884198 
L 56.015274 197.884198 
L 56.343583 198.966436 
L 56.637158 198.425317 
L 56.963159 199.507555 
L 57.30189 201.672032 
L 58.611646 202.75427 
L 59.167816 202.75427 
L 59.406055 203.295389 
L 59.785641 203.295389 
L 60.065093 203.836508 
L 60.349755 203.295389 
L 60.667137 203.295389 
L 60.852997 203.836508 
L 64.068354 203.836508 
L 64.392869 204.377627 
L 64.70384 204.377627 
L 64.824585 203.836508 
L 65.592606 204.377627 
L 65.914497 203.836508 
L 66.801981 203.836508 
L 67.086915 204.377627 
L 67.437226 203.836508 
L 69.05254 203.836508 
L 69.383495 204.377627 
L 69.565155 206.000984 
L 70.007297 204.918746 
L 71.035396 204.918746 
L 71.54548 205.459865 
L 71.853903 205.459865 
L 72.153447 206.000984 
L 72.487788 206.000984 
L 72.794767 205.459865 
L 73.088101 207.083222 
L 73.348525 207.083222 
L 74.056556 208.16546 
L 77.773935 208.16546 
L 78.069441 209.247698 
L 78.699241 209.247698 
L 78.978776 209.788817 
L 79.91633 209.788817 
L 80.81378 211.953293 
L 81.767679 211.953293 
L 82.109335 212.494412 
L 87.872494 212.494412 
L 88.56439 213.57665 
L 88.721126 212.494412 
L 89.830946 212.494412 
L 90.132322 213.035531 
L 90.464828 212.494412 
L 91.255945 212.494412 
L 91.69292 213.035531 
L 92.017317 212.494412 
L 96.916505 212.494412 
L 97.184233 217.364484 
L 97.369853 212.494412 
L 99.145324 212.494412 
L 99.467632 213.035531 
L 99.6516 217.905603 
L 100.086174 213.035531 
L 100.393103 213.035531 
L 100.596847 212.494412 
L 103.811486 212.494412 
L 103.974278 213.035531 
L 104.266421 213.035531 
L 104.747547 214.658889 
L 109.596801 214.658889 
L 110.655133 215.200008 
L 117.16822 215.200008 
L 117.439431 217.364484 
L 117.785987 217.364484 
L 118.093296 215.200008 
L 118.409469 215.200008 
L 118.627328 217.364484 
L 118.863445 215.200008 
L 119.255836 217.364484 
L 119.603415 218.446722 
L 123.633735 218.446722 
L 123.981602 218.987841 
L 125.821517 218.987841 
L 126.200858 213.035531 
L 126.471836 213.57665 
L 126.778126 215.200008 
L 127.156261 215.200008 
L 127.663276 216.282246 
L 128.013186 216.282246 
L 128.271107 216.823365 
L 128.617556 214.658889 
L 131.154194 220.070079 
L 131.413203 218.446722 
L 131.847494 217.905603 
L 133.226844 217.905603 
L 133.580674 217.364484 
L 133.892689 216.282246 
L 135.141792 216.282246 
L 135.370174 215.200008 
L 135.771876 216.282246 
L 136.679054 216.282246 
L 136.987792 217.364484 
L 137.285595 217.364484 
L 137.638294 217.905603 
L 137.780617 217.905603 
L 137.93968 219.52896 
L 138.155303 219.52896 
L 138.879582 220.070079 
L 139.478029 218.987841 
L 139.624366 218.987841 
L 140.093499 219.52896 
L 140.394497 220.611198 
L 141.950005 220.611198 
L 142.250336 221.152317 
L 142.572848 221.152317 
L 142.871438 221.693436 
L 143.151149 221.693436 
L 143.801102 222.234555 
L 144.136774 222.234555 
L 144.471506 223.857912 
L 144.669417 223.857912 
L 145.017312 223.316793 
L 145.570363 223.316793 
L 145.7783 224.94015 
L 146.291242 224.94015 
L 146.595145 226.022388 
L 147.001011 226.022388 
L 147.210072 226.563507 
L 147.669811 226.563507 
L 147.715559 227.104626 
L 147.94842 227.104626 
L 148.439791 227.645746 
L 149.557254 230.89246 
L 150.950131 230.89246 
L 151.234096 231.974698 
L 151.341021 231.433579 
L 151.464843 231.433579 
L 151.808219 230.89246 
L 153.057857 229.269103 
L 156.184298 229.269103 
L 156.546574 228.727984 
L 158.059759 228.727984 
L 158.27512 228.186865 
L 161.108833 228.186865 
L 161.603062 228.727984 
L 161.983692 228.727984 
L 162.396925 229.269103 
L 162.604852 228.727984 
L 164.59685 228.727984 
L 165.225512 229.810222 
L 166.563445 229.810222 
L 166.788703 237.385888 
L 167.042639 237.385888 
L 169.206714 239.009245 
L 169.339697 238.468126 
L 169.47843 239.009245 
L 169.838535 238.468126 
L 170.140596 238.468126 
L 170.458516 239.009245 
L 170.697258 239.009245 
L 171.080548 240.091484 
L 171.238182 240.091484 
L 171.384067 239.550364 
L 171.711048 240.632603 
L 173.884958 240.632603 
L 174.096446 241.173722 
L 175.265892 241.173722 
L 175.73151 240.632603 
L 176.080361 243.338198 
L 176.328712 241.714841 
L 176.652617 241.714841 
L 176.912239 244.961555 
L 177.093893 244.420436 
L 177.28727 244.961555 
L 177.384667 244.420436 
L 177.503876 246.043793 
L 177.81293 246.043793 
L 178.20451 246.584912 
L 178.971442 246.043793 
L 179.146074 247.126031 
L 179.431471 247.126031 
L 179.633579 245.502674 
L 180.31963 247.126031 
L 181.001801 247.66715 
L 181.600905 247.66715 
L 181.91519 249.290507 
L 182.204073 249.290507 
L 182.37519 248.749388 
L 182.675524 248.749388 
L 183.837116 250.913864 
L 184.030842 249.831626 
L 184.403743 249.290507 
L 184.841113 250.913864 
L 186.016741 250.913864 
L 186.117384 251.454983 
L 186.585824 251.996102 
L 187.834572 251.996102 
L 188.406164 254.701698 
L 191.618228 254.701698 
L 191.871867 255.242817 
L 192.205457 254.160579 
L 192.399667 255.242817 
L 195.901465 255.242817 
L 196.194046 255.783936 
L 196.899611 259.03065 
L 197.164317 257.407293 
L 197.479776 257.948412 
L 197.829078 257.407293 
L 198.074884 257.407293 
L 198.447337 255.783936 
L 198.64705 255.783936 
L 198.685812 256.325055 
L 199.31427 256.325055 
L 199.667998 253.078341 
L 199.97986 253.078341 
L 200.917999 253.61946 
L 200.977359 253.078341 
L 201.486726 252.537221 
L 201.562381 253.078341 
L 204.016745 253.078341 
L 204.187525 253.61946 
L 204.645562 254.160579 
L 205.257197 255.242817 
L 205.416281 256.325055 
L 205.631255 256.325055 
L 205.872078 257.407293 
L 206.162031 256.866174 
L 206.486697 256.866174 
L 206.731332 256.325055 
L 207.076209 256.866174 
L 207.383952 256.866174 
L 207.678906 257.407293 
L 207.917672 257.407293 
L 208.367118 256.866174 
L 208.600773 257.407293 
L 208.842605 256.866174 
L 209.544871 252.537221 
L 210.220401 253.61946 
L 210.319167 257.407293 
L 210.469747 257.407293 
L 210.745272 257.948412 
L 211.065368 257.407293 
L 211.357615 257.407293 
L 211.717622 256.866174 
L 212.029444 257.948412 
L 213.154844 257.948412 
L 213.602097 258.489531 
L 213.857696 258.489531 
L 213.877529 259.03065 
L 215.152755 259.03065 
L 215.515806 260.112888 
L 217.300083 260.112888 
L 217.655772 261.195126 
L 218.866989 261.195126 
L 221.073494 260.654007 
L 221.278186 261.195126 
L 221.830246 261.195126 
L 222.294773 261.736245 
L 222.605945 262.818483 
L 222.698992 262.277364 
L 223.037213 263.359602 
L 223.789614 263.359602 
L 226.836966 264.44184 
L 234.3695 264.44184 
L 234.676325 263.900721 
L 236.149014 263.900721 
L 236.454273 264.44184 
L 237.465856 264.44184 
L 237.814993 264.982959 
L 238.066044 264.44184 
L 238.357404 264.982959 
L 238.679787 264.44184 
L 238.944381 265.524078 
L 239.349627 264.982959 
L 239.645316 265.524078 
L 246.072726 265.524078 
L 246.40474 264.44184 
L 246.756473 264.982959 
L 247.07458 264.44184 
L 247.430894 264.44184 
L 247.716647 263.900721 
L 248.909229 263.900721 
L 249.212047 264.44184 
L 249.554095 263.900721 
L 249.97959 262.818483 
L 250.48363 262.818483 
L 250.832254 262.277364 
L 251.093133 263.359602 
L 251.428726 263.359602 
L 251.688001 262.818483 
L 252.506325 263.900721 
L 252.985049 263.359602 
L 253.26947 263.900721 
L 253.874576 263.900721 
L 254.216096 263.359602 
L 254.551449 264.982959 
L 254.874223 264.44184 
L 255.493896 264.44184 
L 255.73011 263.900721 
L 256.032211 264.44184 
L 256.361899 264.44184 
L 256.65612 259.571769 
L 256.77301 260.112888 
L 257.00422 260.112888 
L 257.165285 260.654007 
L 257.30566 260.654007 
L 257.490475 261.195126 
L 257.615722 260.112888 
L 258.234057 261.195126 
L 258.765314 261.195126 
L 259.023669 262.277364 
L 259.279717 261.195126 
L 259.446419 261.736245 
L 260.386292 261.736245 
L 260.666089 261.195126 
L 260.931441 261.195126 
L 261.264884 261.736245 
L 261.573217 261.736245 
L 261.93872 261.195126 
L 262.291436 261.736245 
L 262.56511 261.736245 
L 262.995785 262.818483 
L 264.752632 262.818483 
L 265.041609 261.195126 
L 266.403215 261.195126 
L 266.715927 261.736245 
L 266.961913 262.277364 
L 267.443531 262.277364 
L 267.593787 263.359602 
L 267.662715 262.818483 
L 267.825679 263.359602 
L 268.284064 263.359602 
L 268.508773 264.44184 
L 269.120606 264.44184 
L 269.406201 265.524078 
L 270.350702 265.524078 
L 270.577209 267.147436 
L 270.786219 267.688555 
L 270.906839 267.688555 
L 271.313722 268.229674 
L 271.456928 267.688555 
L 271.526329 268.229674 
L 271.973701 268.229674 
L 272.499099 268.770793 
L 273.677822 268.770793 
L 273.981821 268.229674 
L 274.273106 268.770793 
L 274.601459 268.770793 
L 274.758823 269.311912 
L 274.796674 268.770793 
L 274.983449 269.311912 
L 275.129532 269.311912 
L 275.273794 270.39415 
L 275.829292 271.476388 
L 276.233795 270.935269 
L 276.541334 271.476388 
L 277.145926 271.476388 
L 277.474067 272.558626 
L 277.594195 272.017507 
L 277.78935 273.640864 
L 278.065887 273.099745 
L 278.245236 273.640864 
L 278.387046 273.099745 
L 278.543754 274.181983 
L 278.863161 274.181983 
L 278.957762 274.723102 
L 279.332498 274.181983 
L 279.622325 275.264221 
L 280.276216 275.264221 
L 280.511604 276.346459 
L 280.845482 275.264221 
L 281.072308 275.264221 
L 281.155469 275.80534 
L 281.76573 275.80534 
L 282.051188 277.969816 
L 282.461721 275.80534 
L 282.525372 276.346459 
L 283.065923 275.80534 
L 283.117109 276.887578 
L 283.303027 276.887578 
L 283.677662 277.428697 
L 283.981698 276.887578 
L 284.211389 276.887578 
L 284.551287 277.969816 
L 284.921069 277.969816 
L 285.279665 277.428697 
L 285.54767 277.969816 
L 285.710513 277.428697 
L 285.872476 278.510935 
L 287.307619 278.510935 
L 287.748708 279.052055 
L 288.649306 279.052055 
L 288.968853 277.969816 
L 289.571109 277.969816 
L 289.872534 278.510935 
L 292.614673 278.510935 
L 292.984742 277.969816 
L 293.331636 279.052055 
L 297.539926 279.052055 
L 298.46311 279.593174 
L 299.01143 279.593174 
L 299.456741 280.134293 
L 299.808656 280.134293 
L 300.015452 280.675412 
L 304.699699 280.675412 
L 305.080161 280.134293 
L 305.381798 280.675412 
L 305.679792 280.134293 
L 305.882169 276.887578 
L 307.732717 276.887578 
L 307.897828 277.428697 
L 308.217881 277.428697 
L 308.323722 276.887578 
L 310.239298 276.887578 
L 310.505042 277.428697 
L 310.605473 276.887578 
L 311.060659 276.887578 
L 311.271066 277.969816 
L 311.536293 276.887578 
L 311.734311 277.969816 
L 311.874858 277.969816 
L 312.056131 276.887578 
L 312.214669 277.969816 
L 312.316267 276.887578 
L 312.357187 277.969816 
L 313.447547 277.969816 
L 313.620627 278.510935 
L 313.646011 279.052055 
L 314.201247 279.052055 
L 314.233972 279.593174 
L 314.553888 279.593174 
L 314.719542 280.134293 
L 314.860778 279.593174 
L 315.034289 280.134293 
L 315.151628 279.593174 
L 315.426831 280.134293 
L 315.543218 279.593174 
L 315.559178 280.134293 
L 315.908018 280.134293 
L 316.126588 280.675412 
L 316.264442 280.675412 
L 316.470883 281.75765 
L 316.699946 282.298769 
L 316.858147 281.75765 
L 318.620217 281.75765 
L 318.872162 282.298769 
L 320.222594 282.298769 
L 320.438012 282.839888 
L 320.722756 282.839888 
L 320.93405 283.381007 
L 321.162765 282.839888 
L 321.609235 282.839888 
L 321.797788 283.922126 
L 322.310999 283.922126 
L 322.360283 284.463245 
L 322.542683 283.922126 
L 322.741445 285.004364 
L 322.948438 285.545483 
L 323.006291 285.004364 
L 323.240929 287.16884 
L 324.191213 287.16884 
L 324.286747 287.709959 
L 324.494929 287.709959 
L 324.61688 288.792197 
L 324.760004 287.709959 
L 326.021543 287.709959 
L 326.094541 288.251078 
L 326.336516 287.709959 
L 326.452372 288.251078 
L 326.666577 287.709959 
L 326.944821 287.709959 
L 327.115449 288.792197 
L 327.426485 288.792197 
L 327.554069 288.251078 
L 327.663381 289.333316 
L 327.986213 287.709959 
L 328.324516 288.792197 
L 328.569586 287.709959 
L 329.143274 287.709959 
L 329.589748 289.333316 
L 329.728676 288.792197 
L 329.88253 289.333316 
L 330.297676 288.251078 
L 330.430608 289.333316 
L 331.415839 289.333316 
L 331.574646 289.874435 
L 331.851392 289.874435 
L 331.998921 289.333316 
L 332.185115 289.874435 
L 332.302849 289.333316 
L 332.778005 290.415554 
L 333.151158 290.415554 
L 333.496498 291.497793 
L 334.992236 291.497793 
L 335.155771 292.038912 
L 335.355808 291.497793 
L 335.454781 292.038912 
L 335.658727 291.497793 
L 335.929589 291.497793 
L 336.104296 292.038912 
L 336.332376 291.497793 
L 336.584884 291.497793 
L 336.698001 292.038912 
L 337.210742 292.038912 
L 337.245304 293.12115 
L 339.438269 293.12115 
L 339.65461 293.662269 
L 339.796611 293.12115 
L 339.916915 293.662269 
L 340.008296 293.12115 
L 340.028736 293.662269 
L 340.117909 294.203388 
L 340.622947 294.203388 
L 340.861182 294.744507 
L 340.909464 294.203388 
L 340.958931 294.744507 
L 341.230978 294.203388 
L 341.301288 294.744507 
L 341.567333 295.285626 
L 341.671536 295.826745 
L 341.870467 295.826745 
L 341.916208 296.367864 
L 342.193184 297.991221 
L 342.317849 297.450102 
L 342.486105 297.450102 
L 342.516417 298.53234 
L 343.698564 298.53234 
L 343.845393 299.073459 
L 344.076983 298.53234 
L 344.47814 299.073459 
L 344.585356 298.53234 
L 344.760874 299.073459 
L 344.976583 299.073459 
L 345.10495 299.614578 
L 345.403942 299.614578 
L 345.411272 300.155697 
L 345.503439 299.614578 
L 345.591791 300.696816 
L 345.722376 300.696816 
L 345.903138 301.237935 
L 347.143145 301.237935 
L 347.17587 300.696816 
L 347.253933 301.779054 
L 347.580946 301.779054 
L 347.747953 301.237935 
L 347.87651 301.779054 
L 348.07006 301.237935 
L 348.215075 301.779054 
L 348.378004 301.779054 
L 348.518005 301.237935 
L 348.656822 302.861292 
L 350.318601 302.861292 
L 350.818333 303.94353 
L 351.081384 303.402411 
L 357.358853 303.402411 
L 357.465433 303.94353 
L 357.656061 303.402411 
L 357.711002 303.94353 
L 358.280612 303.94353 
L 358.43834 304.48465 
L 359.237789 304.48465 
L 359.344606 305.025769 
L 359.495171 304.48465 
L 360.719807 304.48465 
L 360.889671 305.025769 
L 361.2217 304.48465 
L 361.409929 305.566888 
L 361.513476 305.025769 
L 361.972432 305.025769 
L 362.172407 305.566888 
L 363.113698 305.566888 
L 363.267032 304.48465 
L 363.577726 305.566888 
L 365.249424 305.566888 
L 365.535008 306.108007 
L 365.573943 306.108007 
L 365.73885 306.649126 
L 365.862108 306.649126 
L 366.014684 307.190245 
L 366.371669 307.190245 
L 366.43491 307.731364 
L 366.732509 307.731364 
L 366.920491 306.649126 
L 367.067276 307.190245 
L 367.291963 307.190245 
L 367.383582 307.731364 
L 367.727316 307.731364 
L 368.034755 308.272483 
L 368.37 309.89584 
L 368.479761 309.354721 
L 368.581961 309.89584 
L 368.816542 310.436959 
L 368.927778 309.89584 
L 369.226357 310.436959 
L 369.423823 309.89584 
L 369.585097 309.89584 
L 369.901051 311.519197 
L 370.205557 310.978078 
L 370.520911 312.060316 
L 370.582834 311.519197 
L 370.787796 312.060316 
L 370.929721 311.519197 
L 371.046726 312.060316 
L 371.552 312.060316 
L 371.740129 304.48465 
L 372.242575 305.566888 
L 372.574323 305.566888 
L 372.690363 306.108007 
L 373.124394 305.025769 
L 373.282237 305.566888 
L 373.499051 305.566888 
L 373.605732 305.025769 
L 373.741271 305.566888 
L 373.926126 305.025769 
L 373.998783 305.566888 
L 374.383014 306.108007 
L 374.665357 305.025769 
L 374.921142 305.566888 
L 376.057527 305.566888 
L 376.327165 306.108007 
L 376.610276 305.566888 
L 377.11952 305.566888 
L 377.509933 306.649126 
L 377.643846 305.025769 
L 377.869236 305.566888 
L 378.156562 305.025769 
L 378.287997 306.649126 
L 378.446687 305.566888 
L 378.59666 305.566888 
L 378.696538 306.108007 
L 378.771076 308.272483 
L 378.784455 307.731364 
L 379.115109 308.272483 
L 379.931221 308.272483 
L 380.317276 309.354721 
L 380.476529 308.813602 
L 381.04825 308.813602 
L 381.204024 308.272483 
L 381.370514 308.813602 
L 381.553133 308.813602 
L 381.660417 308.272483 
L 381.986802 308.813602 
L 382.178543 308.813602 
L 382.304246 309.354721 
L 382.457985 308.813602 
L 382.62315 308.813602 
L 382.777934 308.272483 
L 382.873813 308.813602 
L 383.736025 308.813602 
L 383.951734 310.436959 
L 384.212538 309.89584 
L 384.42824 309.89584 
L 384.602868 309.354721 
L 384.682267 309.89584 
L 384.952763 309.354721 
L 385.053887 309.89584 
L 385.292183 309.89584 
L 385.385409 310.436959 
L 385.670185 309.89584 
L 386.257009 309.89584 
L 386.47457 310.436959 
L 386.83699 310.436959 
L 386.928371 310.978078 
L 387.082817 310.436959 
L 387.710617 312.060316 
L 387.857489 312.060316 
L 388.133841 312.601435 
L 390.381797 312.601435 
L 390.621281 313.142554 
L 390.845839 313.142554 
L 390.891559 312.060316 
L 390.94818 312.601435 
L 391.314545 312.601435 
L 391.398168 313.142554 
L 391.880231 313.142554 
L 392.110454 313.683673 
L 392.419662 313.683673 
L 392.429947 313.142554 
L 392.532737 313.683673 
L 392.627266 313.142554 
L 393.973691 313.142554 
L 394.226153 312.601435 
L 394.930404 313.142554 
L 396.390845 313.142554 
L 396.454039 313.683673 
L 397.986544 313.683673 
L 398.124588 314.224792 
L 399.541844 316.930387 
L 399.676165 316.930387 
L 399.816303 317.471507 
L 399.878711 316.930387 
L 400.180514 317.471507 
L 400.460907 318.012626 
L 400.796242 318.012626 
L 400.908853 318.553745 
L 401.332636 318.553745 
L 401.946436 318.012626 
L 401.977358 319.635983 
L 402.471354 319.635983 
L 402.624461 319.094864 
L 402.735668 319.635983 
L 403.870585 319.635983 
L 404.134045 319.094864 
L 405.35116 319.094864 
L 406.102707 319.635983 
L 407.620878 319.635983 
L 408.368451 320.177102 
L 408.468433 320.718221 
L 410.716738 320.718221 
L 410.927956 320.177102 
L 412.069327 320.177102 
L 412.902728 319.635983 
L 413.510038 319.635983 
L 413.81142 320.177102 
L 414.078991 321.25934 
L 414.238298 321.25934 
L 414.244515 320.718221 
L 416.031452 320.718221 
L 416.223235 321.25934 
L 420.737528 321.25934 
L 421.306729 321.800459 
L 421.526089 321.800459 
L 421.611716 322.341578 
L 421.890702 322.341578 
L 422.007865 321.800459 
L 422.189486 322.341578 
L 423.209235 322.341578 
L 423.663786 322.882697 
L 423.979535 323.964935 
L 426.744903 323.964935 
L 427.231633 323.423816 
L 427.372459 323.964935 
L 427.514919 323.423816 
L 427.675066 323.964935 
L 428.433516 323.964935 
L 428.783199 323.423816 
L 428.960645 323.964935 
L 429.44993 322.882697 
L 429.640626 323.964935 
L 430.824672 323.964935 
L 430.838679 324.506054 
L 432.715134 324.506054 
L 433.627488 325.047173 
L 433.901284 324.506054 
L 434.409979 324.506054 
L 434.533295 325.047173 
L 434.967948 323.423816 
L 435.254921 323.964935 
L 435.775804 323.423816 
L 435.926484 323.423816 
L 436.056265 323.964935 
L 436.844123 323.964935 
L 437.78023 323.423816 
L 437.921132 323.964935 
L 438.852609 323.964935 
L 439.155033 323.423816 
L 443.895934 323.964935 
L 444.250915 323.423816 
L 444.557704 323.964935 
L 444.832608 323.423816 
L 444.863366 323.964935 
L 445.102696 324.506054 
L 445.2413 324.506054 
L 445.368087 325.047173 
L 447.572295 325.047173 
L 447.619264 325.588292 
L 447.893249 325.588292 
L 448.62483 325.047173 
L 448.648102 325.588292 
L 448.929181 325.047173 
L 448.997498 326.129411 
L 449.178415 326.129411 
L 449.545455 326.67053 
L 450.160544 326.67053 
L 450.534031 326.129411 
L 450.953965 327.211649 
L 450.971189 327.752768 
L 451.379127 328.293887 
L 451.67916 327.752768 
L 452.101044 327.752768 
L 452.188746 328.293887 
L 453.149314 328.293887 
L 453.281644 327.752768 
L 453.443646 328.835006 
L 453.577171 328.835006 
L 453.830591 328.293887 
L 454.061065 328.835006 
L 454.575027 328.835006 
L 454.80138 329.917245 
L 456.41572 329.917245 
L 456.608721 330.458364 
L 456.7269 330.458364 
L 456.921361 329.917245 
L 456.971514 330.458364 
L 457.486624 330.458364 
L 457.590228 330.999483 
L 457.87162 330.999483 
L 457.951991 332.081721 
L 458.39102 332.081721 
L 458.555973 333.705078 
L 458.899439 333.705078 
L 459.100315 333.163959 
L 459.208837 333.705078 
L 459.354923 333.705078 
L 459.36608 335.328435 
L 459.639362 335.328435 
L 459.988833 334.787316 
L 460.147375 334.787316 
L 460.28281 335.328435 
L 460.619617 335.328435 
L 460.968628 334.787316 
L 461.004526 335.869554 
L 461.313548 335.869554 
L 461.37051 336.410673 
L 461.585828 336.951792 
L 462.154631 336.951792 
L 462.238233 338.03403 
L 462.482333 338.03403 
L 462.625443 338.575149 
L 462.762766 338.575149 
L 463.255218 339.116268 
L 463.447949 338.575149 
L 463.562725 330.999483 
L 463.687204 330.458364 
L 463.771509 332.62284 
L 464.378769 332.62284 
L 464.628366 332.081721 
L 464.810223 333.163959 
L 464.950917 333.163959 
L 465.31161 333.705078 
L 465.708326 333.705078 
L 465.889344 333.163959 
L 466.031075 333.705078 
L 466.987627 333.705078 
L 467.105407 334.246197 
L 467.541507 333.163959 
L 467.896122 333.705078 
L 468.099332 333.705078 
L 468.17738 334.246197 
L 468.356786 333.163959 
L 468.531181 334.246197 
L 469.254778 334.246197 
L 469.366933 333.705078 
L 469.624685 333.705078 
L 469.665232 334.246197 
L 469.95708 334.787316 
L 469.96847 334.246197 
L 470.517325 334.246197 
L 470.799818 334.787316 
L 472.265758 334.787316 
L 472.375676 335.328435 
L 472.666394 334.787316 
L 472.676101 335.328435 
L 473.093548 335.869554 
L 473.350044 335.869554 
L 473.645209 336.410673 
L 473.905266 336.951792 
L 474.259839 335.869554 
L 474.329882 336.951792 
L 474.568311 336.410673 
L 474.768997 336.951792 
L 475.664648 336.951792 
L 475.765 337.492911 
L 475.890071 336.951792 
L 476.323489 337.492911 
L 476.532841 336.951792 
L 476.745011 337.492911 
L 476.872487 336.951792 
L 477.169368 338.03403 
L 477.374491 337.492911 
L 478.076086 337.492911 
L 478.355209 338.03403 
L 478.76277 338.03403 
L 479.087034 336.951792 
L 479.173461 337.492911 
L 479.519931 337.492911 
L 479.607859 338.575149 
L 480.044834 337.492911 
L 480.197435 338.03403 
L 480.549516 337.492911 
L 480.806519 337.492911 
L 480.938184 338.03403 
L 481.121919 338.03403 
L 481.252899 334.787316 
L 481.665048 335.328435 
L 481.718442 334.246197 
L 481.86642 335.328435 
L 482.002084 334.787316 
L 482.083511 335.328435 
L 482.406536 334.787316 
L 482.79412 335.328435 
L 482.989353 335.328435 
L 483.257351 334.787316 
L 483.63829 334.787316 
L 484.028868 335.869554 
L 484.23346 335.328435 
L 484.647166 335.328435 
L 484.84063 334.787316 
L 484.869111 334.246197 
L 485.110121 335.328435 
L 485.237934 334.787316 
L 485.388274 335.328435 
L 485.611665 334.787316 
L 485.864503 334.787316 
L 486.02693 334.246197 
L 486.334968 334.246197 
L 486.655674 335.328435 
L 486.87329 334.787316 
L 487.138301 335.869554 
L 487.276313 335.869554 
L 487.362941 335.328435 
L 487.632468 335.328435 
L 487.655091 335.869554 
L 488.548585 335.869554 
L 488.694961 336.410673 
L 488.820337 336.410673 
L 489.013611 336.951792 
L 489.180312 336.410673 
L 489.307448 336.951792 
L 489.496987 336.410673 
L 489.603686 336.951792 
L 489.7414 336.410673 
L 489.78577 336.951792 
L 489.938224 338.03403 
L 490.124483 337.492911 
L 490.1831 336.951792 
L 490.379532 337.492911 
L 490.540059 336.951792 
L 490.847972 337.492911 
L 491.050618 337.492911 
L 491.138905 338.03403 
L 491.357949 337.492911 
L 491.933217 339.116268 
L 492.087964 339.116268 
L 492.248029 338.03403 
L 492.323701 338.575149 
L 492.550004 338.575149 
L 492.652965 338.03403 
L 492.838011 338.03403 
L 493.006482 338.575149 
L 493.223067 338.575149 
L 493.586689 340.198506 
L 493.780146 339.657387 
L 496.323163 339.657387 
L 496.441504 340.198506 
L 496.591574 340.198506 
L 496.712258 339.657387 
L 496.954396 340.198506 
L 497.557649 338.03403 
L 497.658565 339.116268 
L 498.296872 338.03403 
L 498.743755 338.03403 
L 499.355251 339.116268 
L 500.436256 338.575149 
L 500.710784 339.116268 
L 501.013222 338.575149 
L 501.229222 339.657387 
L 501.315854 338.575149 
L 501.600591 339.657387 
L 501.910822 338.575149 
L 502.013518 339.657387 
L 502.212456 339.657387 
L 502.321815 339.116268 
L 502.520035 339.657387 
L 502.638993 339.657387 
L 502.749798 339.116268 
L 502.884429 340.739625 
L 503.237511 339.657387 
L 503.567752 339.657387 
L 503.76954 340.198506 
L 504.150361 340.198506 
L 504.460061 339.657387 
L 504.641114 339.657387 
L 504.777985 340.739625 
L 504.948715 340.198506 
L 505.044034 340.739625 
L 505.274188 341.280744 
L 505.415309 341.280744 
L 505.662038 340.198506 
L 505.897968 341.821863 
L 506.194508 341.821863 
L 506.217016 342.904102 
L 506.237725 342.362982 
L 506.392814 341.821863 
L 506.555844 342.904102 
L 506.623845 341.821863 
L 506.8696 341.821863 
L 506.903086 342.362982 
L 507.179968 342.904102 
L 507.345679 342.904102 
L 507.423351 341.821863 
L 507.794928 342.904102 
L 507.855103 341.821863 
L 508.057491 342.904102 
L 508.213179 341.280744 
L 508.686454 342.362982 
L 509.042986 340.739625 
L 509.070556 341.280744 
L 509.296388 340.739625 
L 509.439161 340.739625 
L 509.587379 341.821863 
L 509.764383 340.739625 
L 510.104686 341.821863 
L 510.233795 340.739625 
L 510.373588 341.280744 
L 510.658458 341.280744 
L 510.846583 340.739625 
L 511.206705 340.739625 
L 511.217697 341.280744 
L 511.784486 340.198506 
L 512.085083 341.821863 
L 512.244619 341.821863 
L 512.430558 341.280744 
L 512.483116 342.362982 
L 512.747075 341.280744 
L 512.909609 342.362982 
L 513.073461 341.280744 
L 513.141175 341.821863 
L 513.477217 341.821863 
L 513.678599 342.362982 
L 513.770705 343.445221 
L 513.958213 342.362982 
L 514.266707 342.904102 
L 514.403172 343.445221 
L 514.571787 342.904102 
L 514.715752 345.068578 
L 514.941724 345.068578 
L 515.240561 345.609697 
L 515.276614 344.527459 
L 515.57073 345.609697 
L 515.989391 344.527459 
L 516.102515 346.150816 
L 516.441985 346.691935 
L 516.811724 345.609697 
L 517.046065 345.068578 
L 517.697471 345.609697 
L 517.775495 346.150816 
L 518.019197 346.150816 
L 518.468446 346.691935 
L 518.691019 346.691935 
L 518.968361 347.233054 
L 519.248898 348.856411 
L 519.969153 348.315292 
L 520.201163 348.315292 
L 520.522882 346.691935 
L 520.828705 346.691935 
L 520.907536 346.150816 
L 521.139888 347.233054 
L 521.191652 346.150816 
L 521.445955 346.691935 
L 521.907262 346.691935 
L 522.143989 347.774173 
L 522.361271 346.691935 
L 522.658033 347.774173 
L 522.773728 347.233054 
L 522.932224 347.774173 
L 523.346027 346.691935 
L 523.585195 347.233054 
L 524.284748 347.233054 
L 524.451723 346.691935 
L 524.856889 347.774173 
L 525.021577 346.691935 
L 525.163628 346.691935 
L 525.218863 347.233054 
L 525.420246 347.233054 
L 525.637441 347.774173 
L 525.786061 346.691935 
L 526.016815 347.774173 
L 526.118155 346.691935 
L 526.401114 347.774173 
L 526.575107 347.774173 
L 526.687388 347.233054 
L 526.871385 347.233054 
L 526.923379 346.691935 
L 526.934055 347.233054 
L 527.248167 347.233054 
L 527.354446 346.691935 
L 527.642586 347.774173 
L 527.907927 346.691935 
L 528.362658 347.233054 
L 529.334412 347.233054 
L 529.567452 346.691935 
L 529.815208 347.233054 
L 529.974687 346.691935 
L 530.073201 347.233054 
L 530.763352 347.233054 
L 530.97406 346.691935 
L 531.457861 347.774173 
L 531.575494 347.233054 
L 531.962468 347.774173 
L 532.385095 347.233054 
L 532.609559 347.774173 
L 533.137657 346.691935 
L 533.276223 346.150816 
L 533.505803 346.150816 
L 533.94798 347.774173 
L 534.068255 347.774173 
L 534.220946 346.691935 
L 534.579571 346.691935 
L 534.78072 347.233054 
L 534.93326 347.233054 
L 535.090977 346.691935 
L 535.388759 346.691935 
L 535.795365 347.233054 
L 536.021075 347.233054 
L 536.113476 347.774173 
L 536.330416 346.691935 
L 536.444714 347.774173 
L 536.586819 347.233054 
L 536.676567 347.774173 
L 537.246339 347.774173 
L 537.266962 348.856411 
L 537.358971 348.315292 
L 537.531111 348.315292 
L 537.633976 347.774173 
L 537.795778 348.315292 
L 537.974182 347.774173 
L 538.429132 348.315292 
L 538.815549 348.315292 
L 538.962316 349.39753 
L 539.020198 348.856411 
L 539.193131 349.39753 
L 539.425052 348.856411 
L 539.533625 348.315292 
L 539.695466 348.856411 
L 539.855067 348.315292 
L 540.047037 349.39753 
L 540.12837 348.315292 
L 540.300848 334.787316 
L 540.771772 334.787316 
L 540.901571 334.246197 
L 541.02494 336.410673 
L 541.712342 335.869554 
L 542.223083 335.869554 
L 542.322409 336.410673 
L 542.45014 336.410673 
L 542.850442 335.328435 
L 543.153239 335.328435 
L 543.166148 335.869554 
L 543.54522 336.410673 
L 543.813696 335.869554 
L 544.083395 334.787316 
L 544.117871 335.869554 
L 544.323917 334.787316 
L 544.404058 335.328435 
L 545.019593 335.328435 
L 545.052859 335.869554 
L 545.304907 335.869554 
L 545.476602 335.328435 
L 545.642062 335.328435 
L 545.694972 334.787316 
L 546.050739 335.869554 
L 546.367461 334.787316 
L 546.532325 334.787316 
L 547.038971 335.328435 
L 547.137445 334.787316 
L 547.218506 335.869554 
L 547.546686 336.951792 
L 547.767468 335.869554 
L 548.09465 336.951792 
L 548.419345 335.869554 
L 548.537523 336.951792 
L 548.830007 335.869554 
L 548.951894 335.869554 
L 549.000945 336.951792 
L 549.146589 336.410673 
L 549.316478 336.951792 
L 549.591533 336.951792 
L 549.62471 338.03403 
L 549.836711 337.492911 
L 549.957719 337.492911 
L 550.046389 336.951792 
L 550.295602 337.492911 
L 550.553857 338.575149 
L 550.567287 340.198506 
L 550.716 339.116268 
L 550.720458 340.739625 
L 550.898285 340.739625 
L 551.022419 341.280744 
L 551.265098 340.739625 
L 551.64034 341.280744 
L 551.844666 340.739625 
L 552.082492 340.739625 
L 552.181889 341.280744 
L 552.458933 341.821863 
L 552.609233 340.739625 
L 552.727875 340.739625 
L 553.021845 342.362982 
L 553.205569 342.904102 
L 553.781455 342.362982 
L 554.000448 342.362982 
L 554.141354 341.821863 
L 554.448954 344.527459 
L 554.61146 344.527459 
L 554.752767 345.068578 
L 555.028447 341.821863 
L 555.243047 341.280744 
L 555.506432 342.362982 
L 555.600796 341.280744 
L 555.845493 342.904102 
L 555.881121 343.445221 
L 556.134778 343.98634 
L 556.319292 343.445221 
L 556.50027 343.98634 
L 556.810085 342.904102 
L 556.841586 343.445221 
L 557.071457 343.445221 
L 557.184017 342.904102 
L 557.387812 342.904102 
L 558.347573 345.068578 
L 558.47464 344.527459 
L 558.753073 344.527459 
L 559.287446 342.904102 
L 559.545278 343.445221 
L 559.881345 343.445221 
L 560.025054 342.362982 
L 560.299628 342.362982 
L 560.620751 342.904102 
L 560.760892 342.362982 
L 560.933539 342.904102 
L 561.148049 342.904102 
L 561.502506 344.527459 
L 561.771046 344.527459 
L 561.883837 343.445221 
L 562.014562 343.98634 
L 562.784334 343.98634 
L 562.810083 344.527459 
L 563.010349 344.527459 
L 563.041329 345.609697 
L 563.319321 345.609697 
L 563.41646 343.445221 
L 563.629075 343.98634 
L 563.715735 344.527459 
L 563.715735 344.527459 
" clip-path="url(#p56e97e889a)" style="fill: none; stroke-dasharray: 3,1.5; stroke-dashoffset: 0; stroke: #808080; stroke-width: 1.5"/>
   </g>
   <g id="line2d_19">
    <path d="M 38.539265 299.614578 
L 39.807243 299.073459 
L 41.071129 297.991221 
L 44.064135 297.991221 
L 47.364282 297.450102 
L 47.609104 297.991221 
L 47.761791 297.991221 
L 47.866192 296.908983 
L 48.107148 297.450102 
L 48.46353 296.908983 
L 49.157404 296.908983 
L 49.543857 294.203388 
L 49.630061 296.908983 
L 49.83065 293.662269 
L 49.894441 294.203388 
L 50.119218 294.203388 
L 50.478776 293.662269 
L 51.068209 293.662269 
L 51.369979 291.497793 
L 51.839065 291.497793 
L 52.315227 292.580031 
L 52.618139 288.251078 
L 52.685192 288.792197 
L 52.970245 288.251078 
L 53.521648 286.627721 
L 53.895651 287.709959 
L 54.486811 287.709959 
L 54.817181 288.792197 
L 55.040515 288.251078 
L 55.713352 287.709959 
L 56.015274 287.709959 
L 56.343583 286.627721 
L 56.814672 286.627721 
L 57.30189 283.381007 
L 58.611646 281.75765 
L 58.790011 281.216531 
L 59.167816 281.216531 
L 59.406055 280.675412 
L 59.785641 280.675412 
L 60.065093 281.75765 
L 60.349755 282.298769 
L 60.667137 282.298769 
L 60.852997 281.75765 
L 63.119646 281.75765 
L 63.481947 281.216531 
L 64.068354 281.216531 
L 64.392869 280.675412 
L 64.70384 280.675412 
L 64.824585 281.216531 
L 65.592606 280.675412 
L 65.914497 281.216531 
L 66.801981 281.216531 
L 67.086915 280.675412 
L 67.437226 281.216531 
L 69.05254 281.216531 
L 69.383495 280.675412 
L 69.565155 279.052055 
L 70.007297 280.134293 
L 70.629982 280.134293 
L 70.920911 279.052055 
L 71.035396 280.134293 
L 71.54548 278.510935 
L 71.853903 278.510935 
L 72.153447 277.969816 
L 72.487788 277.969816 
L 72.794767 278.510935 
L 73.088101 277.428697 
L 73.348525 277.428697 
L 74.056556 276.346459 
L 77.773935 276.346459 
L 78.069441 275.264221 
L 78.699241 275.264221 
L 78.978776 272.558626 
L 79.91633 272.558626 
L 80.81378 270.39415 
L 81.767679 270.39415 
L 82.109335 269.853031 
L 87.872494 269.853031 
L 88.56439 268.229674 
L 88.721126 269.853031 
L 89.830946 269.853031 
L 90.132322 268.770793 
L 90.464828 269.853031 
L 91.255945 269.853031 
L 91.69292 268.770793 
L 92.017317 269.853031 
L 96.916505 269.853031 
L 97.184233 264.982959 
L 97.369853 269.853031 
L 99.145324 269.853031 
L 99.467632 269.311912 
L 99.6516 264.44184 
L 100.086174 269.311912 
L 100.393103 269.311912 
L 100.596847 269.853031 
L 103.811486 269.853031 
L 103.974278 269.311912 
L 104.266421 269.311912 
L 104.747547 267.688555 
L 109.596801 267.688555 
L 110.655133 267.147436 
L 117.16822 267.147436 
L 117.439431 264.44184 
L 117.785987 264.44184 
L 118.093296 267.147436 
L 118.409469 267.147436 
L 118.627328 264.44184 
L 118.863445 267.147436 
L 119.255836 264.44184 
L 119.603415 263.359602 
L 123.633735 263.359602 
L 123.981602 262.818483 
L 125.507778 262.818483 
L 125.821517 261.736245 
L 126.200858 259.571769 
L 126.471836 259.03065 
L 126.778126 255.783936 
L 127.156261 255.783936 
L 127.663276 254.701698 
L 128.013186 254.701698 
L 128.617556 253.61946 
L 131.154194 248.749388 
L 131.413203 249.831626 
L 133.226844 249.831626 
L 133.580674 247.66715 
L 133.892689 248.208269 
L 135.141792 248.208269 
L 135.370174 249.290507 
L 135.771876 248.208269 
L 136.679054 248.208269 
L 136.987792 247.126031 
L 137.285595 247.126031 
L 137.638294 246.584912 
L 137.780617 246.584912 
L 137.93968 244.961555 
L 138.155303 244.961555 
L 138.879582 244.420436 
L 139.478029 246.043793 
L 139.624366 246.043793 
L 140.093499 245.502674 
L 140.394497 244.420436 
L 141.950005 244.420436 
L 142.250336 243.879317 
L 142.572848 243.879317 
L 142.871438 243.338198 
L 143.151149 243.338198 
L 143.801102 242.797079 
L 144.136774 242.797079 
L 144.471506 241.173722 
L 145.017312 241.173722 
L 145.358412 240.632603 
L 145.570363 240.632603 
L 145.688692 250.372745 
L 145.7783 249.831626 
L 146.291242 249.831626 
L 146.595145 248.749388 
L 147.001011 248.749388 
L 147.210072 248.208269 
L 147.669811 248.208269 
L 147.715559 247.66715 
L 148.439791 247.66715 
L 148.828631 246.043793 
L 149.636699 244.420436 
L 150.950131 244.420436 
L 151.234096 243.338198 
L 151.341021 243.879317 
L 151.464843 243.879317 
L 151.808219 244.420436 
L 153.057857 243.879317 
L 156.184298 243.879317 
L 156.546574 244.420436 
L 158.059759 244.420436 
L 158.27512 244.961555 
L 158.66961 244.420436 
L 161.108833 244.420436 
L 161.603062 243.879317 
L 161.983692 243.879317 
L 162.396925 243.338198 
L 162.604852 243.879317 
L 164.59685 243.879317 
L 165.225512 242.797079 
L 166.563445 242.797079 
L 166.788703 235.221412 
L 167.042639 235.221412 
L 169.206714 233.598055 
L 169.339697 234.139174 
L 169.47843 233.598055 
L 169.838535 234.139174 
L 170.140596 234.139174 
L 170.458516 233.598055 
L 170.697258 233.598055 
L 171.080548 232.515817 
L 171.238182 232.515817 
L 171.384067 233.056936 
L 171.711048 231.974698 
L 173.884958 231.974698 
L 174.096446 231.433579 
L 174.44904 231.433579 
L 174.776269 230.89246 
L 175.115991 231.433579 
L 175.265892 231.433579 
L 175.73151 231.974698 
L 176.080361 229.269103 
L 176.328712 230.89246 
L 176.652617 230.89246 
L 176.912239 227.645746 
L 177.093893 228.186865 
L 177.28727 227.104626 
L 177.384667 227.645746 
L 177.503876 226.022388 
L 177.81293 226.022388 
L 178.20451 225.481269 
L 178.971442 226.022388 
L 179.146074 224.94015 
L 179.431471 224.94015 
L 179.633579 226.563507 
L 180.31963 224.94015 
L 181.001801 224.399031 
L 181.600905 224.399031 
L 181.91519 222.775674 
L 182.204073 222.775674 
L 182.37519 223.316793 
L 182.675524 223.316793 
L 183.837116 220.070079 
L 184.030842 222.234555 
L 184.403743 222.775674 
L 184.841113 220.070079 
L 186.016741 220.070079 
L 186.117384 219.52896 
L 186.585824 218.987841 
L 187.834572 218.987841 
L 188.406164 216.282246 
L 191.618228 216.282246 
L 191.871867 215.200008 
L 192.205457 217.364484 
L 192.399667 215.741127 
L 195.901465 215.741127 
L 196.194046 215.200008 
L 196.899611 211.953293 
L 197.164317 213.57665 
L 197.479776 213.035531 
L 197.829078 213.57665 
L 198.074884 213.57665 
L 198.447337 208.16546 
L 198.64705 208.16546 
L 198.685812 207.624341 
L 199.31427 207.624341 
L 199.667998 206.542103 
L 199.97986 204.918746 
L 200.917999 204.377627 
L 200.977359 204.918746 
L 201.486726 205.459865 
L 201.562381 204.918746 
L 204.016745 204.918746 
L 204.187525 204.377627 
L 204.645562 203.836508 
L 205.257197 202.75427 
L 205.416281 201.672032 
L 205.631255 201.672032 
L 205.872078 200.589793 
L 206.162031 201.130912 
L 206.486697 201.130912 
L 206.731332 201.672032 
L 207.076209 201.130912 
L 207.383952 201.130912 
L 207.678906 200.589793 
L 207.917672 200.589793 
L 208.367118 201.130912 
L 208.600773 200.589793 
L 208.842605 201.130912 
L 209.250561 203.836508 
L 209.544871 204.377627 
L 210.220401 203.295389 
L 210.319167 199.507555 
L 210.469747 199.507555 
L 210.745272 198.966436 
L 211.065368 199.507555 
L 211.357615 199.507555 
L 211.717622 200.048674 
L 212.029444 198.966436 
L 213.154844 198.966436 
L 213.602097 198.425317 
L 213.857696 198.425317 
L 213.877529 197.884198 
L 215.152755 197.884198 
L 215.515806 196.80196 
L 217.300083 196.80196 
L 217.655772 195.719722 
L 221.073494 195.719722 
L 221.278186 195.178603 
L 221.830246 195.178603 
L 222.294773 194.637484 
L 222.605945 193.555246 
L 222.698992 194.096365 
L 223.037213 193.014127 
L 223.789614 193.014127 
L 226.836966 191.931889 
L 234.3695 191.931889 
L 234.676325 192.473008 
L 236.149014 192.473008 
L 236.454273 191.931889 
L 237.465856 191.931889 
L 237.814993 191.39077 
L 238.066044 191.931889 
L 238.357404 191.39077 
L 238.679787 191.931889 
L 238.944381 190.849651 
L 239.349627 191.39077 
L 239.645316 190.849651 
L 246.072726 190.849651 
L 246.40474 191.931889 
L 246.756473 191.39077 
L 247.07458 191.931889 
L 247.430894 191.39077 
L 247.716647 191.931889 
L 248.909229 191.931889 
L 249.212047 191.39077 
L 249.554095 191.931889 
L 249.97959 190.849651 
L 250.48363 190.849651 
L 250.832254 191.39077 
L 251.093133 190.308532 
L 251.428726 190.308532 
L 251.688001 190.849651 
L 252.506325 189.767413 
L 252.985049 190.308532 
L 253.26947 189.767413 
L 253.874576 189.767413 
L 254.216096 190.308532 
L 254.551449 188.685175 
L 254.874223 189.226294 
L 255.493896 189.226294 
L 255.73011 189.767413 
L 256.032211 189.226294 
L 256.361899 189.226294 
L 256.65612 193.555246 
L 256.77301 193.014127 
L 257.00422 193.014127 
L 257.165285 192.473008 
L 257.30566 192.473008 
L 257.490475 191.931889 
L 257.615722 193.014127 
L 258.234057 191.931889 
L 258.765314 191.931889 
L 259.023669 190.849651 
L 259.279717 191.931889 
L 259.446419 191.39077 
L 260.386292 191.39077 
L 260.666089 191.931889 
L 260.931441 191.931889 
L 261.264884 191.39077 
L 261.573217 191.39077 
L 261.93872 191.931889 
L 262.291436 191.39077 
L 262.56511 191.39077 
L 262.995785 190.308532 
L 264.752632 190.308532 
L 265.041609 190.849651 
L 266.403215 190.849651 
L 266.715927 190.308532 
L 266.961913 189.767413 
L 267.443531 189.767413 
L 267.593787 188.685175 
L 267.662715 189.226294 
L 267.825679 188.685175 
L 268.284064 188.685175 
L 268.508773 187.602936 
L 269.120606 187.602936 
L 269.406201 186.520698 
L 270.350702 186.520698 
L 270.577209 184.897341 
L 270.786219 184.356222 
L 270.906839 184.356222 
L 271.313722 183.815103 
L 271.456928 184.356222 
L 271.526329 183.815103 
L 271.673165 183.815103 
L 271.845058 183.273984 
L 271.973701 183.273984 
L 272.499099 182.732865 
L 273.677822 182.732865 
L 273.981821 183.273984 
L 274.273106 182.732865 
L 274.601459 182.732865 
L 274.758823 182.191746 
L 274.796674 182.732865 
L 274.983449 182.191746 
L 275.129532 182.191746 
L 275.273794 181.109508 
L 275.829292 180.02727 
L 276.233795 180.568389 
L 276.541334 180.02727 
L 277.145926 180.02727 
L 277.474067 178.945032 
L 277.594195 179.486151 
L 277.78935 177.862794 
L 278.065887 178.403913 
L 278.245236 177.862794 
L 278.387046 178.403913 
L 278.543754 177.321675 
L 278.863161 177.321675 
L 278.957762 176.780556 
L 279.332498 177.321675 
L 279.622325 176.239437 
L 280.276216 176.239437 
L 280.511604 175.157198 
L 280.845482 176.239437 
L 281.072308 176.239437 
L 281.155469 175.698317 
L 281.76573 175.698317 
L 282.051188 173.533841 
L 282.461721 175.698317 
L 282.525372 175.157198 
L 283.065923 175.698317 
L 283.117109 174.616079 
L 283.303027 174.616079 
L 283.677662 174.07496 
L 283.981698 174.616079 
L 284.211389 174.616079 
L 284.551287 173.533841 
L 284.921069 173.533841 
L 285.279665 174.07496 
L 285.54767 173.533841 
L 285.710513 174.07496 
L 285.872476 172.992722 
L 287.307619 172.992722 
L 287.748708 172.451603 
L 288.649306 172.451603 
L 288.968853 173.533841 
L 289.571109 173.533841 
L 289.872534 172.992722 
L 292.614673 172.992722 
L 292.984742 173.533841 
L 293.331636 172.451603 
L 297.539926 172.451603 
L 298.46311 171.910484 
L 299.01143 171.910484 
L 299.456741 171.369365 
L 299.808656 171.369365 
L 300.015452 170.287127 
L 300.343313 170.828246 
L 304.699699 170.828246 
L 305.080161 171.369365 
L 305.381798 170.828246 
L 305.679792 171.369365 
L 305.882169 173.533841 
L 307.732717 173.533841 
L 308.037908 172.451603 
L 308.466254 173.533841 
L 310.239298 173.533841 
L 310.505042 172.451603 
L 310.605473 173.533841 
L 311.060659 173.533841 
L 311.271066 172.451603 
L 311.536293 173.533841 
L 311.734311 172.451603 
L 311.874858 172.451603 
L 312.056131 173.533841 
L 312.214669 172.451603 
L 312.316267 173.533841 
L 312.357187 172.451603 
L 313.447547 172.451603 
L 313.804485 170.828246 
L 314.201247 170.828246 
L 314.233972 170.287127 
L 314.553888 170.287127 
L 314.719542 169.746008 
L 314.860778 170.287127 
L 315.034289 169.746008 
L 315.151628 170.287127 
L 315.426831 169.746008 
L 315.543218 170.287127 
L 315.559178 169.746008 
L 315.908018 169.746008 
L 316.126588 169.204889 
L 316.264442 169.204889 
L 316.470883 168.122651 
L 316.699946 167.581532 
L 316.858147 168.122651 
L 318.620217 168.122651 
L 318.872162 167.581532 
L 320.222594 167.581532 
L 320.438012 167.040413 
L 320.722756 167.040413 
L 320.93405 166.499294 
L 321.162765 167.040413 
L 321.609235 167.040413 
L 321.797788 165.958175 
L 322.310999 165.958175 
L 322.360283 165.417056 
L 322.542683 165.958175 
L 322.716657 165.958175 
L 322.741445 165.417056 
L 322.948438 164.875937 
L 323.006291 165.417056 
L 323.240929 163.25258 
L 324.191213 163.25258 
L 324.286747 162.71146 
L 324.494929 162.71146 
L 324.61688 161.629222 
L 324.760004 162.71146 
L 326.021543 162.71146 
L 326.094541 162.170341 
L 326.336516 162.71146 
L 326.452372 162.170341 
L 326.666577 162.71146 
L 326.944821 162.71146 
L 327.115449 161.629222 
L 327.426485 161.629222 
L 327.554069 162.170341 
L 327.663381 161.088103 
L 327.986213 162.71146 
L 328.324516 161.629222 
L 328.569586 162.71146 
L 329.143274 162.71146 
L 329.589748 161.088103 
L 329.728676 161.629222 
L 329.88253 161.088103 
L 330.297676 162.170341 
L 330.430608 161.088103 
L 331.415839 161.088103 
L 331.574646 160.546984 
L 331.851392 160.546984 
L 331.998921 161.088103 
L 332.185115 160.546984 
L 332.302849 161.088103 
L 332.778005 160.005865 
L 333.151158 160.005865 
L 333.496498 158.923627 
L 334.096438 160.005865 
L 334.22465 159.464746 
L 334.382381 160.005865 
L 334.482406 159.464746 
L 334.683085 159.464746 
L 334.76719 160.005865 
L 335.155771 158.923627 
L 335.355808 159.464746 
L 335.454781 158.923627 
L 335.658727 159.464746 
L 335.929589 159.464746 
L 336.104296 158.923627 
L 336.332376 159.464746 
L 336.584884 160.005865 
L 336.698001 158.923627 
L 337.210742 158.923627 
L 337.245304 157.841389 
L 339.438269 157.841389 
L 339.65461 157.30027 
L 339.796611 157.841389 
L 339.916915 157.30027 
L 340.008296 157.841389 
L 340.028736 157.30027 
L 340.117909 156.759151 
L 340.622947 156.759151 
L 340.861182 156.218032 
L 340.909464 156.759151 
L 340.958931 156.218032 
L 341.230978 156.759151 
L 341.301288 156.218032 
L 341.567333 155.676913 
L 341.671536 155.135794 
L 341.870467 155.135794 
L 341.916208 154.594675 
L 342.193184 152.971318 
L 342.317849 153.512437 
L 342.486105 153.512437 
L 342.516417 152.430199 
L 343.698564 152.430199 
L 343.845393 151.88908 
L 344.076983 152.430199 
L 344.760874 150.806842 
L 344.976583 150.806842 
L 345.10495 150.265723 
L 345.403942 150.265723 
L 345.411272 149.724603 
L 345.503439 150.265723 
L 345.591791 149.183484 
L 345.722376 149.183484 
L 345.903138 148.642365 
L 347.143145 148.642365 
L 347.17587 149.183484 
L 347.253933 148.101246 
L 347.580946 148.101246 
L 347.747953 148.642365 
L 347.87651 148.101246 
L 348.07006 148.642365 
L 348.215075 148.101246 
L 348.378004 148.101246 
L 348.518005 148.642365 
L 348.656822 147.019008 
L 350.318601 147.019008 
L 350.818333 145.93677 
L 351.081384 146.477889 
L 357.358853 146.477889 
L 357.465433 145.93677 
L 357.656061 146.477889 
L 357.711002 145.93677 
L 358.280612 145.93677 
L 358.43834 145.395651 
L 359.237789 145.395651 
L 359.344606 144.854532 
L 359.495171 145.395651 
L 360.719807 145.395651 
L 360.889671 144.854532 
L 361.2217 145.395651 
L 361.409929 144.313413 
L 361.513476 144.854532 
L 361.972432 144.854532 
L 362.172407 144.313413 
L 363.113698 144.313413 
L 363.267032 145.395651 
L 363.577726 144.313413 
L 365.249424 144.313413 
L 365.535008 143.772294 
L 365.573943 143.772294 
L 365.73885 143.231175 
L 365.862108 143.231175 
L 366.014684 142.690056 
L 366.371669 142.690056 
L 366.43491 142.148937 
L 366.732509 142.148937 
L 366.920491 143.231175 
L 367.067276 142.690056 
L 367.291963 142.690056 
L 367.383582 142.148937 
L 367.727316 142.148937 
L 368.034755 141.607818 
L 368.37 139.984461 
L 368.479761 140.52558 
L 368.581961 139.984461 
L 368.816542 139.443342 
L 368.927778 139.984461 
L 369.226357 139.443342 
L 369.423823 139.984461 
L 369.585097 139.984461 
L 369.901051 138.361104 
L 370.205557 138.902223 
L 370.520911 137.819985 
L 370.582834 138.361104 
L 370.787796 137.819985 
L 370.929721 138.361104 
L 371.046726 137.819985 
L 371.552 137.819985 
L 371.740129 141.066699 
L 372.242575 139.984461 
L 372.574323 139.984461 
L 372.690363 139.443342 
L 373.124394 140.52558 
L 373.282237 139.984461 
L 373.499051 139.984461 
L 373.605732 140.52558 
L 373.741271 139.984461 
L 373.926126 140.52558 
L 373.998783 139.984461 
L 374.383014 139.443342 
L 374.53064 139.443342 
L 374.665357 139.984461 
L 374.921142 139.443342 
L 375.965542 139.443342 
L 376.057527 136.737746 
L 376.327165 138.902223 
L 376.610276 139.443342 
L 377.11952 139.443342 
L 377.509933 138.361104 
L 377.643846 139.984461 
L 377.869236 139.443342 
L 378.156562 139.984461 
L 378.287997 138.361104 
L 378.446687 139.443342 
L 378.59666 139.443342 
L 378.696538 138.902223 
L 378.784455 134.57327 
L 379.08978 136.737746 
L 379.115109 134.032151 
L 379.931221 134.032151 
L 380.317276 132.949913 
L 380.476529 133.491032 
L 381.04825 133.491032 
L 381.204024 134.032151 
L 381.370514 133.491032 
L 381.553133 133.491032 
L 381.660417 134.032151 
L 381.986802 133.491032 
L 382.178543 133.491032 
L 382.304246 132.949913 
L 382.457985 133.491032 
L 382.62315 133.491032 
L 382.777934 134.032151 
L 382.873813 133.491032 
L 383.736025 133.491032 
L 383.951734 131.867675 
L 384.212538 132.408794 
L 384.42824 132.408794 
L 384.602868 132.949913 
L 384.682267 132.408794 
L 384.952763 132.949913 
L 385.053887 132.408794 
L 385.292183 132.408794 
L 385.385409 131.867675 
L 385.670185 132.408794 
L 386.257009 132.408794 
L 386.47457 131.867675 
L 386.83699 131.867675 
L 386.928371 131.326556 
L 387.082817 131.867675 
L 387.710617 130.244318 
L 387.857489 130.244318 
L 388.133841 129.703199 
L 390.381797 129.703199 
L 390.621281 129.16208 
L 390.845839 129.16208 
L 390.891559 130.244318 
L 390.94818 129.703199 
L 391.314545 129.703199 
L 391.398168 129.16208 
L 391.880231 129.16208 
L 392.110454 128.620961 
L 392.419662 128.620961 
L 392.429947 129.16208 
L 392.532737 128.620961 
L 392.627266 129.16208 
L 393.973691 129.16208 
L 394.226153 129.703199 
L 394.930404 129.16208 
L 396.390845 129.16208 
L 396.454039 128.620961 
L 397.986544 128.620961 
L 398.124588 128.079842 
L 399.541844 125.374247 
L 399.676165 125.374247 
L 399.816303 124.833128 
L 399.878711 125.374247 
L 400.180514 124.833128 
L 400.460907 124.292008 
L 400.796242 124.292008 
L 400.908853 123.750889 
L 401.332636 123.750889 
L 401.946436 124.292008 
L 401.977358 122.668651 
L 402.471354 122.668651 
L 402.624461 123.20977 
L 402.735668 122.668651 
L 403.563904 122.668651 
L 403.870585 123.20977 
L 405.35116 123.20977 
L 406.102707 122.668651 
L 407.620878 122.668651 
L 408.368451 122.127532 
L 408.468433 121.586413 
L 410.716738 121.586413 
L 410.927956 122.127532 
L 412.069327 122.127532 
L 412.902728 122.668651 
L 413.510038 122.668651 
L 413.81142 122.127532 
L 414.078991 121.045294 
L 414.238298 121.045294 
L 414.244515 121.586413 
L 416.031452 121.586413 
L 416.223235 121.045294 
L 420.737528 121.045294 
L 421.306729 120.504175 
L 421.526089 120.504175 
L 421.611716 119.421937 
L 421.890702 119.421937 
L 422.007865 119.963056 
L 422.189486 119.421937 
L 423.209235 119.421937 
L 423.663786 118.880818 
L 423.979535 117.79858 
L 426.744903 117.79858 
L 427.231633 118.339699 
L 427.372459 117.79858 
L 427.514919 118.339699 
L 427.675066 117.79858 
L 428.433516 117.79858 
L 428.783199 118.339699 
L 428.960645 117.79858 
L 429.44993 118.880818 
L 429.640626 117.79858 
L 430.824672 117.79858 
L 430.838679 117.257461 
L 432.715134 117.257461 
L 433.627488 116.716342 
L 433.901284 117.257461 
L 434.100677 116.716342 
L 434.229719 117.257461 
L 434.409979 117.257461 
L 434.533295 116.716342 
L 434.967948 117.79858 
L 435.254921 117.257461 
L 435.775804 117.79858 
L 435.926484 117.79858 
L 436.056265 117.257461 
L 436.844123 117.257461 
L 437.78023 117.79858 
L 437.921132 117.257461 
L 438.852609 117.257461 
L 439.155033 117.79858 
L 443.895934 117.257461 
L 444.250915 117.79858 
L 444.557704 117.257461 
L 444.832608 117.79858 
L 444.863366 117.257461 
L 445.102696 116.716342 
L 445.2413 116.716342 
L 445.368087 116.175223 
L 447.572295 116.175223 
L 447.619264 115.634104 
L 447.893249 115.634104 
L 448.62483 116.175223 
L 448.648102 115.634104 
L 448.929181 116.175223 
L 448.997498 115.092985 
L 449.178415 115.092985 
L 449.545455 114.551866 
L 450.160544 114.551866 
L 450.534031 115.092985 
L 450.953965 114.010747 
L 450.971189 113.469628 
L 451.379127 112.928509 
L 451.67916 113.469628 
L 452.101044 113.469628 
L 452.188746 112.928509 
L 453.149314 112.928509 
L 453.281644 113.469628 
L 453.443646 112.38739 
L 453.577171 112.38739 
L 453.830591 112.928509 
L 454.061065 112.38739 
L 454.575027 112.38739 
L 454.80138 110.764032 
L 456.41572 110.764032 
L 456.608721 110.222913 
L 456.7269 110.222913 
L 456.921361 110.764032 
L 456.971514 110.222913 
L 457.486624 110.222913 
L 457.590228 109.681794 
L 457.87162 109.140675 
L 457.951991 108.058437 
L 458.39102 108.058437 
L 458.555973 106.43508 
L 458.899439 106.43508 
L 459.100315 106.976199 
L 459.208837 106.43508 
L 459.354923 106.43508 
L 459.36608 104.811723 
L 460.147375 104.811723 
L 460.28281 104.270604 
L 460.619617 104.270604 
L 460.968628 104.811723 
L 461.004526 103.729485 
L 461.313548 103.729485 
L 461.37051 103.188366 
L 461.585828 102.647247 
L 462.154631 102.647247 
L 462.238233 101.565009 
L 462.482333 101.565009 
L 462.625443 101.02389 
L 462.762766 101.02389 
L 463.255218 100.482771 
L 463.447949 101.02389 
L 463.562725 106.976199 
L 463.687204 107.517318 
L 463.771509 105.352842 
L 464.378769 105.352842 
L 464.628366 105.893961 
L 464.810223 104.811723 
L 465.708326 104.811723 
L 465.889344 105.352842 
L 466.031075 104.811723 
L 466.987627 104.811723 
L 467.105407 104.270604 
L 467.541507 105.352842 
L 467.896122 104.811723 
L 468.099332 104.811723 
L 468.17738 104.270604 
L 468.356786 105.352842 
L 468.531181 104.270604 
L 469.254778 104.270604 
L 469.366933 104.811723 
L 469.624685 104.811723 
L 469.665232 104.270604 
L 469.95708 103.729485 
L 469.96847 104.270604 
L 470.203611 103.729485 
L 470.517325 103.729485 
L 470.799818 103.188366 
L 472.265758 103.188366 
L 472.375676 102.647247 
L 472.666394 103.188366 
L 472.676101 102.647247 
L 473.093548 102.106128 
L 473.350044 102.106128 
L 473.645209 101.565009 
L 473.905266 101.02389 
L 474.259839 102.106128 
L 474.329882 101.02389 
L 474.568311 101.565009 
L 474.768997 101.02389 
L 475.664648 101.02389 
L 475.765 100.482771 
L 475.890071 101.02389 
L 476.323489 100.482771 
L 476.532841 101.02389 
L 476.745011 100.482771 
L 476.872487 101.02389 
L 477.169368 99.941652 
L 477.374491 100.482771 
L 478.076086 100.482771 
L 478.355209 99.941652 
L 478.76277 99.941652 
L 479.087034 101.02389 
L 479.173461 100.482771 
L 479.519931 100.482771 
L 479.607859 99.400533 
L 480.044834 100.482771 
L 480.197435 99.941652 
L 480.549516 100.482771 
L 480.806519 100.482771 
L 480.938184 99.941652 
L 481.252899 99.941652 
L 481.665048 99.400533 
L 481.718442 100.482771 
L 481.86642 99.400533 
L 482.002084 99.941652 
L 482.083511 99.400533 
L 482.406536 99.941652 
L 482.79412 99.400533 
L 482.989353 99.400533 
L 483.257351 99.941652 
L 483.63829 99.941652 
L 484.028868 98.859414 
L 484.23346 99.400533 
L 484.647166 99.400533 
L 484.84063 99.941652 
L 484.869111 100.482771 
L 485.110121 99.400533 
L 485.237934 99.941652 
L 485.388274 99.400533 
L 485.611665 99.941652 
L 485.864503 99.941652 
L 486.02693 100.482771 
L 486.334968 100.482771 
L 486.655674 99.400533 
L 486.87329 99.941652 
L 487.138301 98.859414 
L 487.276313 98.859414 
L 487.362941 99.400533 
L 487.632468 99.400533 
L 487.655091 98.859414 
L 488.548585 98.859414 
L 488.694961 98.318294 
L 488.820337 98.318294 
L 489.013611 97.777175 
L 489.180312 98.318294 
L 489.307448 97.777175 
L 489.496987 97.777175 
L 489.603686 97.236056 
L 489.7414 97.777175 
L 489.78577 97.236056 
L 489.938224 96.153818 
L 490.124483 96.694937 
L 490.1831 97.236056 
L 490.379532 96.694937 
L 490.540059 97.236056 
L 490.847972 96.694937 
L 491.050618 96.694937 
L 491.138905 96.153818 
L 491.357949 96.694937 
L 491.933217 95.07158 
L 492.087964 95.07158 
L 492.248029 96.153818 
L 492.323701 95.612699 
L 492.550004 95.612699 
L 492.652965 96.153818 
L 492.838011 96.153818 
L 493.006482 95.612699 
L 493.223067 95.612699 
L 493.586689 93.989342 
L 493.780146 94.530461 
L 496.323163 94.530461 
L 496.441504 93.989342 
L 496.591574 93.989342 
L 496.712258 94.530461 
L 496.954396 93.989342 
L 497.557649 93.989342 
L 497.658565 92.907104 
L 498.296872 93.989342 
L 498.743755 93.989342 
L 499.355251 92.907104 
L 500.436256 93.448223 
L 500.710784 92.907104 
L 501.013222 93.448223 
L 501.229222 92.365985 
L 501.315854 93.448223 
L 501.600591 92.365985 
L 501.910822 93.448223 
L 502.013518 92.365985 
L 502.212456 92.365985 
L 502.321815 92.907104 
L 502.520035 92.365985 
L 502.638993 92.365985 
L 502.749798 92.907104 
L 502.884429 91.283747 
L 503.237511 92.365985 
L 503.567752 92.365985 
L 503.76954 91.824866 
L 504.150361 91.824866 
L 504.460061 92.365985 
L 504.641114 92.365985 
L 504.777985 91.283747 
L 504.948715 92.365985 
L 505.044034 91.824866 
L 505.274188 91.283747 
L 505.415309 91.283747 
L 505.662038 92.365985 
L 505.897968 90.742628 
L 506.194508 90.742628 
L 506.217016 89.66039 
L 506.237725 90.201509 
L 506.392814 90.742628 
L 506.555844 89.66039 
L 506.623845 90.742628 
L 506.8696 90.742628 
L 506.903086 90.201509 
L 507.179968 89.66039 
L 507.345679 89.66039 
L 507.423351 90.742628 
L 507.794928 89.66039 
L 507.855103 90.742628 
L 508.057491 89.66039 
L 508.213179 91.283747 
L 508.686454 90.201509 
L 509.042986 91.824866 
L 509.070556 91.283747 
L 509.296388 91.824866 
L 509.439161 91.824866 
L 509.587379 90.742628 
L 509.764383 91.824866 
L 510.104686 90.742628 
L 510.233795 91.824866 
L 510.373588 91.283747 
L 510.658458 91.283747 
L 510.846583 91.824866 
L 511.206705 91.824866 
L 511.217697 91.283747 
L 511.784486 92.365985 
L 512.085083 90.742628 
L 512.244619 90.742628 
L 512.430558 91.283747 
L 512.483116 90.201509 
L 512.747075 91.283747 
L 512.909609 90.201509 
L 513.073461 91.283747 
L 513.141175 90.742628 
L 513.477217 90.742628 
L 513.678599 90.201509 
L 513.770705 89.119271 
L 513.958213 90.201509 
L 514.266707 89.66039 
L 514.403172 89.119271 
L 514.571787 89.66039 
L 514.715752 87.495914 
L 514.941724 87.495914 
L 515.240561 86.954795 
L 515.276614 88.037033 
L 515.57073 86.954795 
L 515.989391 88.037033 
L 516.102515 86.413676 
L 516.441985 85.872556 
L 516.811724 86.954795 
L 517.046065 87.495914 
L 517.697471 86.954795 
L 517.775495 86.413676 
L 518.691019 86.413676 
L 518.968361 85.872556 
L 519.248898 84.249199 
L 519.969153 84.790318 
L 520.522882 84.790318 
L 520.828705 84.249199 
L 520.907536 84.790318 
L 521.139888 83.70808 
L 521.191652 84.790318 
L 521.445955 84.249199 
L 521.907262 84.249199 
L 522.143989 83.166961 
L 522.361271 84.249199 
L 522.658033 83.166961 
L 522.773728 83.70808 
L 522.932224 83.166961 
L 523.346027 83.70808 
L 523.585195 83.166961 
L 524.284748 83.166961 
L 524.451723 83.70808 
L 524.856889 82.625842 
L 525.021577 83.70808 
L 525.163628 83.70808 
L 525.218863 83.166961 
L 525.420246 83.166961 
L 525.637441 82.625842 
L 525.786061 83.70808 
L 526.016815 82.625842 
L 526.118155 83.70808 
L 526.401114 82.625842 
L 526.575107 82.625842 
L 526.687388 83.166961 
L 526.871385 83.166961 
L 526.923379 83.70808 
L 526.934055 83.166961 
L 527.248167 83.166961 
L 527.354446 83.70808 
L 527.642586 82.625842 
L 527.907927 83.70808 
L 528.362658 83.166961 
L 529.334412 83.166961 
L 529.567452 83.70808 
L 529.815208 83.166961 
L 529.974687 83.70808 
L 530.073201 83.166961 
L 530.763352 83.166961 
L 530.97406 83.70808 
L 531.457861 82.625842 
L 531.575494 83.166961 
L 531.962468 82.625842 
L 532.385095 83.166961 
L 532.609559 82.625842 
L 533.137657 83.70808 
L 533.276223 84.249199 
L 533.505803 84.249199 
L 533.94798 82.625842 
L 534.068255 82.625842 
L 534.220946 83.70808 
L 534.579571 83.70808 
L 534.78072 83.166961 
L 534.93326 83.166961 
L 535.090977 83.70808 
L 535.388759 83.70808 
L 535.795365 83.166961 
L 536.021075 83.166961 
L 536.113476 82.625842 
L 536.330416 83.70808 
L 536.444714 82.625842 
L 536.586819 83.166961 
L 536.676567 82.625842 
L 537.246339 82.625842 
L 537.266962 81.543604 
L 537.358971 82.084723 
L 537.531111 82.084723 
L 537.633976 82.625842 
L 537.795778 82.084723 
L 537.974182 82.625842 
L 538.429132 82.084723 
L 538.815549 82.084723 
L 538.962316 81.002485 
L 539.020198 81.543604 
L 539.193131 81.002485 
L 539.425052 81.543604 
L 539.533625 82.084723 
L 539.695466 81.543604 
L 539.855067 82.084723 
L 540.047037 81.002485 
L 540.12837 82.084723 
L 540.300848 90.201509 
L 540.771772 90.201509 
L 540.901571 90.742628 
L 541.02494 88.578152 
L 541.712342 89.119271 
L 542.223083 89.119271 
L 542.322409 88.578152 
L 542.45014 88.578152 
L 542.850442 89.66039 
L 543.153239 89.66039 
L 543.166148 89.119271 
L 543.54522 88.578152 
L 543.813696 89.119271 
L 544.083395 90.201509 
L 544.117871 89.119271 
L 544.323917 90.201509 
L 544.404058 89.66039 
L 545.019593 89.66039 
L 545.052859 89.119271 
L 545.304907 89.119271 
L 545.476602 89.66039 
L 545.642062 89.66039 
L 545.694972 90.201509 
L 546.050739 89.119271 
L 546.367461 90.201509 
L 546.532325 90.201509 
L 547.038971 89.66039 
L 547.137445 90.201509 
L 547.218506 89.119271 
L 547.546686 88.037033 
L 547.767468 89.119271 
L 548.09465 88.037033 
L 548.419345 89.119271 
L 548.537523 88.037033 
L 548.830007 89.119271 
L 548.951894 89.119271 
L 549.000945 88.037033 
L 549.146589 88.578152 
L 549.316478 88.037033 
L 549.591533 88.037033 
L 549.62471 86.954795 
L 549.836711 87.495914 
L 549.957719 87.495914 
L 550.046389 88.037033 
L 550.295602 87.495914 
L 550.553857 86.413676 
L 550.567287 84.790318 
L 550.716 85.872556 
L 550.720458 84.249199 
L 550.898285 84.249199 
L 551.022419 83.70808 
L 551.265098 84.249199 
L 551.64034 83.70808 
L 551.844666 84.249199 
L 552.082492 84.249199 
L 552.181889 83.70808 
L 552.458933 83.166961 
L 552.609233 84.249199 
L 552.727875 84.249199 
L 553.021845 82.625842 
L 553.205569 82.084723 
L 553.781455 82.625842 
L 554.000448 82.625842 
L 554.141354 83.166961 
L 554.448954 80.461366 
L 554.61146 80.461366 
L 554.752767 79.920247 
L 555.028447 77.214652 
L 555.243047 77.755771 
L 555.506432 76.673533 
L 555.600796 77.755771 
L 555.845493 76.132414 
L 555.881121 75.591295 
L 556.134778 75.050176 
L 556.319292 75.591295 
L 556.50027 75.050176 
L 556.810085 76.132414 
L 556.841586 75.591295 
L 557.071457 75.591295 
L 557.184017 76.132414 
L 557.387812 76.132414 
L 558.347573 73.967938 
L 558.47464 74.509057 
L 558.753073 74.509057 
L 558.959119 75.050176 
L 559.065318 73.967938 
L 559.287446 74.509057 
L 559.545278 73.967938 
L 559.881345 73.967938 
L 560.025054 74.509057 
L 560.620751 73.426819 
L 560.760892 73.967938 
L 560.933539 73.426819 
L 561.148049 73.426819 
L 561.502506 71.803461 
L 561.771046 71.803461 
L 561.883837 72.885699 
L 562.014562 72.34458 
L 562.784334 72.34458 
L 562.810083 71.803461 
L 563.010349 71.803461 
L 563.041329 70.721223 
L 563.319321 70.721223 
L 563.35925 71.262342 
L 563.41646 70.180104 
L 563.629075 69.638985 
L 563.715735 69.097866 
L 563.715735 69.097866 
" clip-path="url(#p56e97e889a)" style="fill: none; stroke-dasharray: 6,1.5; stroke-dashoffset: 0; stroke: #008000; stroke-width: 1.5"/>
   </g>
   <g id="line2d_20">
    <path d="M 38.539265 362.384387 
L 39.807243 363.466625 
L 41.071129 363.466625 
L 42.293661 362.925506 
L 44.064135 362.925506 
L 47.761791 362.384387 
L 47.866192 362.925506 
L 51.068209 362.925506 
L 51.369979 364.007744 
L 52.037623 364.007744 
L 52.315227 360.76103 
L 52.685192 364.007744 
L 54.486811 364.007744 
L 54.817181 360.76103 
L 57.30189 360.76103 
L 58.611646 361.302149 
L 58.790011 361.843268 
L 59.785641 361.843268 
L 60.065093 360.219911 
L 63.119646 360.219911 
L 63.481947 360.76103 
L 72.794767 360.76103 
L 73.088101 360.219911 
L 78.699241 360.219911 
L 78.978776 362.384387 
L 125.507778 362.384387 
L 125.821517 363.466625 
L 126.200858 366.713339 
L 126.471836 366.713339 
L 126.778126 367.254458 
L 128.617556 367.254458 
L 131.154194 368.877816 
L 131.413203 368.877816 
L 131.847494 369.418935 
L 144.669417 369.418935 
L 145.358412 370.501173 
L 174.44904 370.501173 
L 174.776269 371.042292 
L 175.115991 370.501173 
L 177.093893 370.501173 
L 177.384667 371.042292 
L 182.675524 371.042292 
L 183.837116 372.12453 
L 184.030842 371.042292 
L 184.403743 371.042292 
L 184.711114 372.12453 
L 191.871867 372.12453 
L 192.205457 371.583411 
L 192.399667 372.12453 
L 209.250561 372.12453 
L 209.544871 373.206768 
L 247.07458 373.206768 
L 247.430894 373.747887 
L 333.496498 373.747887 
L 333.840681 373.206768 
L 344.076983 373.206768 
L 344.47814 373.747887 
L 344.585356 374.830125 
L 371.552 374.830125 
L 371.740129 374.289006 
L 374.383014 374.289006 
L 374.53064 374.830125 
L 481.121919 374.830125 
L 481.252899 374.289006 
L 489.307448 374.289006 
L 489.603686 374.830125 
L 520.201163 374.830125 
L 520.522882 374.289006 
L 559.881345 374.289006 
L 560.025054 374.830125 
L 563.319321 374.830125 
L 563.41646 374.289006 
L 563.715735 374.289006 
L 563.715735 374.289006 
" clip-path="url(#p56e97e889a)" style="fill: none; stroke-dasharray: 9,3; stroke-dashoffset: 0; stroke: #ffa500; stroke-width: 1.5"/>
   </g>
   <g id="line2d_21">
    <path d="M 38.539265 325.047173 
L 47.761791 325.047173 
L 47.866192 325.588292 
L 51.068209 325.588292 
L 51.369979 326.129411 
L 52.037623 326.129411 
L 52.315227 327.211649 
L 52.685192 326.129411 
L 54.486811 326.129411 
L 55.040515 327.752768 
L 56.343583 327.752768 
L 56.637158 328.293887 
L 56.814672 327.752768 
L 56.963159 328.293887 
L 70.629982 328.293887 
L 70.920911 329.376125 
L 71.035396 328.293887 
L 71.54548 329.376125 
L 87.872494 329.376125 
L 88.56439 329.917245 
L 88.721126 329.376125 
L 89.830946 329.376125 
L 90.132322 329.917245 
L 90.464828 329.376125 
L 91.255945 329.376125 
L 91.69292 329.917245 
L 92.017317 329.376125 
L 117.16822 329.376125 
L 117.439431 329.917245 
L 117.785987 329.917245 
L 118.093296 329.376125 
L 118.409469 329.376125 
L 118.627328 329.917245 
L 118.863445 329.376125 
L 119.255836 329.917245 
L 125.821517 329.917245 
L 126.200858 329.376125 
L 126.471836 329.376125 
L 126.778126 330.458364 
L 128.271107 330.458364 
L 128.617556 333.163959 
L 131.154194 330.999483 
L 131.413203 331.540602 
L 133.226844 331.540602 
L 133.580674 334.246197 
L 133.892689 334.787316 
L 147.94842 334.787316 
L 148.439791 334.246197 
L 148.828631 334.787316 
L 149.695916 334.246197 
L 151.808219 334.246197 
L 153.057857 334.787316 
L 158.27512 334.787316 
L 158.66961 335.328435 
L 191.618228 335.328435 
L 191.871867 335.869554 
L 192.205457 335.328435 
L 198.074884 335.328435 
L 198.447337 342.362982 
L 199.31427 342.362982 
L 199.667998 346.691935 
L 199.97986 348.315292 
L 218.866989 348.315292 
L 221.523436 348.856411 
L 249.554095 348.856411 
L 249.865719 351.020887 
L 256.361899 351.020887 
L 256.65612 347.774173 
L 271.673165 347.774173 
L 271.845058 348.315292 
L 299.808656 348.315292 
L 300.015452 348.856411 
L 300.343313 348.315292 
L 307.897828 348.315292 
L 308.037908 348.856411 
L 308.323722 348.315292 
L 310.239298 348.315292 
L 310.505042 348.856411 
L 310.605473 348.315292 
L 313.447547 348.315292 
L 313.646011 348.856411 
L 322.542683 348.856411 
L 322.741445 348.315292 
L 333.840681 348.315292 
L 334.096438 347.774173 
L 334.22465 348.315292 
L 334.382381 347.774173 
L 334.482406 348.315292 
L 334.683085 348.315292 
L 334.76719 347.774173 
L 334.992236 348.315292 
L 336.332376 348.315292 
L 336.584884 347.774173 
L 336.698001 348.315292 
L 344.47814 348.315292 
L 344.585356 347.774173 
L 371.552 347.774173 
L 371.740129 348.315292 
L 375.965542 348.315292 
L 376.057527 351.020887 
L 376.327165 348.315292 
L 378.771076 348.315292 
L 378.784455 351.020887 
L 379.08978 348.315292 
L 379.115109 351.020887 
L 403.563904 351.020887 
L 403.870585 350.479768 
L 404.134045 351.020887 
L 433.901284 351.020887 
L 434.100677 351.562006 
L 434.229719 351.020887 
L 434.533295 351.020887 
L 434.967948 351.562006 
L 454.575027 351.562006 
L 454.80138 352.103125 
L 457.590228 352.103125 
L 457.87162 352.644244 
L 463.447949 352.644244 
L 463.562725 352.103125 
L 469.96847 352.103125 
L 470.203611 352.644244 
L 481.121919 352.644244 
L 481.252899 356.432078 
L 489.307448 356.432078 
L 489.603686 355.890959 
L 496.954396 355.890959 
L 497.658565 358.055435 
L 504.777985 358.055435 
L 505.044034 357.514316 
L 518.019197 357.514316 
L 518.468446 356.973197 
L 520.201163 356.973197 
L 520.522882 359.137673 
L 520.907536 359.678792 
L 522.932224 359.678792 
L 523.346027 360.219911 
L 540.12837 360.219911 
L 540.300848 356.973197 
L 558.959119 356.973197 
L 559.065318 358.596554 
L 560.025054 358.596554 
L 560.299628 359.137673 
L 563.319321 359.137673 
L 563.35925 359.678792 
L 563.41646 362.384387 
L 563.715735 362.384387 
L 563.715735 362.384387 
" clip-path="url(#p56e97e889a)" style="fill: none; stroke-dasharray: 12,4.5; stroke-dashoffset: 0; stroke: #ee82ee; stroke-width: 1.5"/>
   </g>
   <g id="patch_3">
    <path d="M 33.2875 374.830125 
L 33.2875 22.318125 
" style="fill: none; stroke: #000000; stroke-width: 0.8; stroke-linejoin: miter; stroke-linecap: square"/>
   </g>
   <g id="patch_4">
    <path d="M 568.9675 374.830125 
L 568.9675 22.318125 
" style="fill: none; stroke: #000000; stroke-width: 0.8; stroke-linejoin: miter; stroke-linecap: square"/>
   </g>
   <g id="patch_5">
    <path d="M 33.2875 374.830125 
L 568.9675 374.830125 
" style="fill: none; stroke: #000000; stroke-width: 0.8; stroke-linejoin: miter; stroke-linecap: square"/>
   </g>
   <g id="patch_6">
    <path d="M 33.2875 22.318125 
L 568.9675 22.318125 
" style="fill: none; stroke: #000000; stroke-width: 0.8; stroke-linejoin: miter; stroke-linecap: square"/>
   </g>
   <g id="text_17">
    <!-- Rust/Coreutils running GNU's testsuite -->
    <g transform="translate(186.090625 16.318125) scale(0.12 -0.12)">
     <defs>
      <path id="DejaVuSans-52" d="M 2841 2188 
Q 3044 2119 3236 1894 
Q 3428 1669 3622 1275 
L 4263 0 
L 3584 0 
L 2988 1197 
Q 2756 1666 2539 1819 
Q 2322 1972 1947 1972 
L 1259 1972 
L 1259 0 
L 628 0 
L 628 4666 
L 2053 4666 
Q 2853 4666 3247 4331 
Q 3641 3997 3641 3322 
Q 3641 2881 3436 2590 
Q 3231 2300 2841 2188 
z
M 1259 4147 
L 1259 2491 
L 2053 2491 
Q 2509 2491 2742 2702 
Q 2975 2913 2975 3322 
Q 2975 3731 2742 3939 
Q 2509 4147 2053 4147 
L 1259 4147 
z
" transform="scale(0.015625)"/>
      <path id="DejaVuSans-75" d="M 544 1381 
L 544 3500 
L 1119 3500 
L 1119 1403 
Q 1119 906 1312 657 
Q 1506 409 1894 409 
Q 2359 409 2629 706 
Q 2900 1003 2900 1516 
L 2900 3500 
L 3475 3500 
L 3475 0 
L 2900 0 
L 2900 538 
Q 2691 219 2414 64 
Q 2138 -91 1772 -91 
Q 1169 -91 856 284 
Q 544 659 544 1381 
z
M 1991 3584 
L 1991 3584 
z
" transform="scale(0.015625)"/>
      <path id="DejaVuSans-73" d="M 2834 3397 
L 2834 2853 
Q 2591 2978 2328 3040 
Q 2066 3103 1784 3103 
Q 1356 3103 1142 2972 
Q 928 2841 928 2578 
Q 928 2378 1081 2264 
Q 1234 2150 1697 2047 
L 1894 2003 
Q 2506 1872 2764 1633 
Q 3022 1394 3022 966 
Q 3022 478 2636 193 
Q 2250 -91 1575 -91 
Q 1294 -91 989 -36 
Q 684 19 347 128 
L 347 722 
Q 666 556 975 473 
Q 1284 391 1588 391 
Q 1994 391 2212 530 
Q 2431 669 2431 922 
Q 2431 1156 2273 1281 
Q 2116 1406 1581 1522 
L 1381 1569 
Q 847 1681 609 1914 
Q 372 2147 372 2553 
Q 372 3047 722 3315 
Q 1072 3584 1716 3584 
Q 2034 3584 2315 3537 
Q 2597 3491 2834 3397 
z
" transform="scale(0.015625)"/>
      <path id="DejaVuSans-74" d="M 1172 4494 
L 1172 3500 
L 2356 3500 
L 2356 3053 
L 1172 3053 
L 1172 1153 
Q 1172 725 1289 603 
Q 1406 481 1766 481 
L 2356 481 
L 2356 0 
L 1766 0 
Q 1100 0 847 248 
Q 594 497 594 1153 
L 594 3053 
L 172 3053 
L 172 3500 
L 594 3500 
L 594 4494 
L 1172 4494 
z
" transform="scale(0.015625)"/>
      <path id="DejaVuSans-2f" d="M 1625 4666 
L 2156 4666 
L 531 -594 
L 0 -594 
L 1625 4666 
z
" transform="scale(0.015625)"/>
      <path id="DejaVuSans-43" d="M 4122 4306 
L 4122 3641 
Q 3803 3938 3442 4084 
Q 3081 4231 2675 4231 
Q 1875 4231 1450 3742 
Q 1025 3253 1025 2328 
Q 1025 1406 1450 917 
Q 1875 428 2675 428 
Q 3081 428 3442 575 
Q 3803 722 4122 1019 
L 4122 359 
Q 3791 134 3420 21 
Q 3050 -91 2638 -91 
Q 1578 -91 968 557 
Q 359 1206 359 2328 
Q 359 3453 968 4101 
Q 1578 4750 2638 4750 
Q 3056 4750 3426 4639 
Q 3797 4528 4122 4306 
z
" transform="scale(0.015625)"/>
      <path id="DejaVuSans-6f" d="M 1959 3097 
Q 1497 3097 1228 2736 
Q 959 2375 959 1747 
Q 959 1119 1226 758 
Q 1494 397 1959 397 
Q 2419 397 2687 759 
Q 2956 1122 2956 1747 
Q 2956 2369 2687 2733 
Q 2419 3097 1959 3097 
z
M 1959 3584 
Q 2709 3584 3137 3096 
Q 3566 2609 3566 1747 
Q 3566 888 3137 398 
Q 2709 -91 1959 -91 
Q 1206 -91 779 398 
Q 353 888 353 1747 
Q 353 2609 779 3096 
Q 1206 3584 1959 3584 
z
" transform="scale(0.015625)"/>
      <path id="DejaVuSans-72" d="M 2631 2963 
Q 2534 3019 2420 3045 
Q 2306 3072 2169 3072 
Q 1681 3072 1420 2755 
Q 1159 2438 1159 1844 
L 1159 0 
L 581 0 
L 581 3500 
L 1159 3500 
L 1159 2956 
Q 1341 3275 1631 3429 
Q 1922 3584 2338 3584 
Q 2397 3584 2469 3576 
Q 2541 3569 2628 3553 
L 2631 2963 
z
" transform="scale(0.015625)"/>
      <path id="DejaVuSans-65" d="M 3597 1894 
L 3597 1613 
L 953 1613 
Q 991 1019 1311 708 
Q 1631 397 2203 397 
Q 2534 397 2845 478 
Q 3156 559 3463 722 
L 3463 178 
Q 3153 47 2828 -22 
Q 2503 -91 2169 -91 
Q 1331 -91 842 396 
Q 353 884 353 1716 
Q 353 2575 817 3079 
Q 1281 3584 2069 3584 
Q 2775 3584 3186 3129 
Q 3597 2675 3597 1894 
z
M 3022 2063 
Q 3016 2534 2758 2815 
Q 2500 3097 2075 3097 
Q 1594 3097 1305 2825 
Q 1016 2553 972 2059 
L 3022 2063 
z
" transform="scale(0.015625)"/>
      <path id="DejaVuSans-69" d="M 603 3500 
L 1178 3500 
L 1178 0 
L 603 0 
L 603 3500 
z
M 603 4863 
L 1178 4863 
L 1178 4134 
L 603 4134 
L 603 4863 
z
" transform="scale(0.015625)"/>
      <path id="DejaVuSans-6c" d="M 603 4863 
L 1178 4863 
L 1178 0 
L 603 0 
L 603 4863 
z
" transform="scale(0.015625)"/>
      <path id="DejaVuSans-20" transform="scale(0.015625)"/>
      <path id="DejaVuSans-6e" d="M 3513 2113 
L 3513 0 
L 2938 0 
L 2938 2094 
Q 2938 2591 2744 2837 
Q 2550 3084 2163 3084 
Q 1697 3084 1428 2787 
Q 1159 2491 1159 1978 
L 1159 0 
L 581 0 
L 581 3500 
L 1159 3500 
L 1159 2956 
Q 1366 3272 1645 3428 
Q 1925 3584 2291 3584 
Q 2894 3584 3203 3211 
Q 3513 2838 3513 2113 
z
" transform="scale(0.015625)"/>
      <path id="DejaVuSans-67" d="M 2906 1791 
Q 2906 2416 2648 2759 
Q 2391 3103 1925 3103 
Q 1463 3103 1205 2759 
Q 947 2416 947 1791 
Q 947 1169 1205 825 
Q 1463 481 1925 481 
Q 2391 481 2648 825 
Q 2906 1169 2906 1791 
z
M 3481 434 
Q 3481 -459 3084 -895 
Q 2688 -1331 1869 -1331 
Q 1566 -1331 1297 -1286 
Q 1028 -1241 775 -1147 
L 775 -588 
Q 1028 -725 1275 -790 
Q 1522 -856 1778 -856 
Q 2344 -856 2625 -561 
Q 2906 -266 2906 331 
L 2906 616 
Q 2728 306 2450 153 
Q 2172 0 1784 0 
Q 1141 0 747 490 
Q 353 981 353 1791 
Q 353 2603 747 3093 
Q 1141 3584 1784 3584 
Q 2172 3584 2450 3431 
Q 2728 3278 2906 2969 
L 2906 3500 
L 3481 3500 
L 3481 434 
z
" transform="scale(0.015625)"/>
      <path id="DejaVuSans-47" d="M 3809 666 
L 3809 1919 
L 2778 1919 
L 2778 2438 
L 4434 2438 
L 4434 434 
Q 4069 175 3628 42 
Q 3188 -91 2688 -91 
Q 1594 -91 976 548 
Q 359 1188 359 2328 
Q 359 3472 976 4111 
Q 1594 4750 2688 4750 
Q 3144 4750 3555 4637 
Q 3966 4525 4313 4306 
L 4313 3634 
Q 3963 3931 3569 4081 
Q 3175 4231 2741 4231 
Q 1884 4231 1454 3753 
Q 1025 3275 1025 2328 
Q 1025 1384 1454 906 
Q 1884 428 2741 428 
Q 3075 428 3337 486 
Q 3600 544 3809 666 
z
" transform="scale(0.015625)"/>
      <path id="DejaVuSans-4e" d="M 628 4666 
L 1478 4666 
L 3547 763 
L 3547 4666 
L 4159 4666 
L 4159 0 
L 3309 0 
L 1241 3903 
L 1241 0 
L 628 0 
L 628 4666 
z
" transform="scale(0.015625)"/>
      <path id="DejaVuSans-55" d="M 556 4666 
L 1191 4666 
L 1191 1831 
Q 1191 1081 1462 751 
Q 1734 422 2344 422 
Q 2950 422 3222 751 
Q 3494 1081 3494 1831 
L 3494 4666 
L 4128 4666 
L 4128 1753 
Q 4128 841 3676 375 
Q 3225 -91 2344 -91 
Q 1459 -91 1007 375 
Q 556 841 556 1753 
L 556 4666 
z
" transform="scale(0.015625)"/>
      <path id="DejaVuSans-27" d="M 1147 4666 
L 1147 2931 
L 616 2931 
L 616 4666 
L 1147 4666 
z
" transform="scale(0.015625)"/>
     </defs>
     <use xlink:href="#DejaVuSans-52"/>
     <use xlink:href="#DejaVuSans-75" x="64.982422"/>
     <use xlink:href="#DejaVuSans-73" x="128.361328"/>
     <use xlink:href="#DejaVuSans-74" x="180.460938"/>
     <use xlink:href="#DejaVuSans-2f" x="219.669922"/>
     <use xlink:href="#DejaVuSans-43" x="253.361328"/>
     <use xlink:href="#DejaVuSans-6f" x="323.185547"/>
     <use xlink:href="#DejaVuSans-72" x="384.367188"/>
     <use xlink:href="#DejaVuSans-65" x="423.230469"/>
     <use xlink:href="#DejaVuSans-75" x="484.753906"/>
     <use xlink:href="#DejaVuSans-74" x="548.132812"/>
     <use xlink:href="#DejaVuSans-69" x="587.341797"/>
     <use xlink:href="#DejaVuSans-6c" x="615.125"/>
     <use xlink:href="#DejaVuSans-73" x="642.908203"/>
     <use xlink:href="#DejaVuSans-20" x="695.007812"/>
     <use xlink:href="#DejaVuSans-72" x="726.794922"/>
     <use xlink:href="#DejaVuSans-75" x="767.908203"/>
     <use xlink:href="#DejaVuSans-6e" x="831.287109"/>
     <use xlink:href="#DejaVuSans-6e" x="894.666016"/>
     <use xlink:href="#DejaVuSans-69" x="958.044922"/>
     <use xlink:href="#DejaVuSans-6e" x="985.828125"/>
     <use xlink:href="#DejaVuSans-67" x="1049.207031"/>
     <use xlink:href="#DejaVuSans-20" x="1112.683594"/>
     <use xlink:href="#DejaVuSans-47" x="1144.470703"/>
     <use xlink:href="#DejaVuSans-4e" x="1221.960938"/>
     <use xlink:href="#DejaVuSans-55" x="1296.765625"/>
     <use xlink:href="#DejaVuSans-27" x="1369.958984"/>
     <use xlink:href="#DejaVuSans-73" x="1397.449219"/>
     <use xlink:href="#DejaVuSans-20" x="1449.548828"/>
     <use xlink:href="#DejaVuSans-74" x="1481.335938"/>
     <use xlink:href="#DejaVuSans-65" x="1520.544922"/>
     <use xlink:href="#DejaVuSans-73" x="1582.068359"/>
     <use xlink:href="#DejaVuSans-74" x="1634.167969"/>
     <use xlink:href="#DejaVuSans-73" x="1673.376953"/>
     <use xlink:href="#DejaVuSans-75" x="1725.476562"/>
     <use xlink:href="#DejaVuSans-69" x="1788.855469"/>
     <use xlink:href="#DejaVuSans-74" x="1816.638672"/>
     <use xlink:href="#DejaVuSans-65" x="1855.847656"/>
    </g>
   </g>
   <g id="legend_1">
    <g id="patch_7">
     <path d="M 505.762812 236.769437 
L 561.9675 236.769437 
Q 563.9675 236.769437 563.9675 234.769437 
L 563.9675 162.378812 
Q 563.9675 160.378812 561.9675 160.378812 
L 505.762812 160.378812 
Q 503.762812 160.378812 503.762812 162.378812 
L 503.762812 234.769437 
Q 503.762812 236.769437 505.762812 236.769437 
z
" style="fill: #ffffff; opacity: 0.8; stroke: #cccccc; stroke-linejoin: miter"/>
    </g>
    <g id="line2d_22">
     <path d="M 507.762812 168.47725 
L 517.762812 168.47725 
L 527.762812 168.47725 
" style="fill: none; stroke: #0000ff; stroke-width: 1.5; stroke-linecap: square"/>
    </g>
    <g id="text_18">
     <!-- total -->
     <g transform="translate(535.762812 171.97725) scale(0.1 -0.1)">
      <defs>
       <path id="DejaVuSans-61" d="M 2194 1759 
Q 1497 1759 1228 1600 
Q 959 1441 959 1056 
Q 959 750 1161 570 
Q 1363 391 1709 391 
Q 2188 391 2477 730 
Q 2766 1069 2766 1631 
L 2766 1759 
L 2194 1759 
z
M 3341 1997 
L 3341 0 
L 2766 0 
L 2766 531 
Q 2569 213 2275 61 
Q 1981 -91 1556 -91 
Q 1019 -91 701 211 
Q 384 513 384 1019 
Q 384 1609 779 1909 
Q 1175 2209 1959 2209 
L 2766 2209 
L 2766 2266 
Q 2766 2663 2505 2880 
Q 2244 3097 1772 3097 
Q 1472 3097 1187 3025 
Q 903 2953 641 2809 
L 641 3341 
Q 956 3463 1253 3523 
Q 1550 3584 1831 3584 
Q 2591 3584 2966 3190 
Q 3341 2797 3341 1997 
z
" transform="scale(0.015625)"/>
      </defs>
      <use xlink:href="#DejaVuSans-74"/>
      <use xlink:href="#DejaVuSans-6f" x="39.208984"/>
      <use xlink:href="#DejaVuSans-74" x="100.390625"/>
      <use xlink:href="#DejaVuSans-61" x="139.599609"/>
      <use xlink:href="#DejaVuSans-6c" x="200.878906"/>
     </g>
    </g>
    <g id="line2d_23">
     <path d="M 507.762812 183.155375 
L 517.762812 183.155375 
L 527.762812 183.155375 
" style="fill: none; stroke-dasharray: 3,1.5; stroke-dashoffset: 0; stroke: #808080; stroke-width: 1.5"/>
    </g>
    <g id="text_19">
     <!-- fail -->
     <g transform="translate(535.762812 186.655375) scale(0.1 -0.1)">
      <defs>
       <path id="DejaVuSans-66" d="M 2375 4863 
L 2375 4384 
L 1825 4384 
Q 1516 4384 1395 4259 
Q 1275 4134 1275 3809 
L 1275 3500 
L 2222 3500 
L 2222 3053 
L 1275 3053 
L 1275 0 
L 697 0 
L 697 3053 
L 147 3053 
L 147 3500 
L 697 3500 
L 697 3744 
Q 697 4328 969 4595 
Q 1241 4863 1831 4863 
L 2375 4863 
z
" transform="scale(0.015625)"/>
      </defs>
      <use xlink:href="#DejaVuSans-66"/>
      <use xlink:href="#DejaVuSans-61" x="35.205078"/>
      <use xlink:href="#DejaVuSans-69" x="96.484375"/>
      <use xlink:href="#DejaVuSans-6c" x="124.267578"/>
     </g>
    </g>
    <g id="line2d_24">
     <path d="M 507.762812 197.8335 
L 517.762812 197.8335 
L 527.762812 197.8335 
" style="fill: none; stroke-dasharray: 6,1.5; stroke-dashoffset: 0; stroke: #008000; stroke-width: 1.5"/>
    </g>
    <g id="text_20">
     <!-- pass -->
     <g transform="translate(535.762812 201.3335) scale(0.1 -0.1)">
      <defs>
       <path id="DejaVuSans-70" d="M 1159 525 
L 1159 -1331 
L 581 -1331 
L 581 3500 
L 1159 3500 
L 1159 2969 
Q 1341 3281 1617 3432 
Q 1894 3584 2278 3584 
Q 2916 3584 3314 3078 
Q 3713 2572 3713 1747 
Q 3713 922 3314 415 
Q 2916 -91 2278 -91 
Q 1894 -91 1617 61 
Q 1341 213 1159 525 
z
M 3116 1747 
Q 3116 2381 2855 2742 
Q 2594 3103 2138 3103 
Q 1681 3103 1420 2742 
Q 1159 2381 1159 1747 
Q 1159 1113 1420 752 
Q 1681 391 2138 391 
Q 2594 391 2855 752 
Q 3116 1113 3116 1747 
z
" transform="scale(0.015625)"/>
      </defs>
      <use xlink:href="#DejaVuSans-70"/>
      <use xlink:href="#DejaVuSans-61" x="63.476562"/>
      <use xlink:href="#DejaVuSans-73" x="124.755859"/>
      <use xlink:href="#DejaVuSans-73" x="176.855469"/>
     </g>
    </g>
    <g id="line2d_25">
     <path d="M 507.762812 212.511625 
L 517.762812 212.511625 
L 527.762812 212.511625 
" style="fill: none; stroke-dasharray: 9,3; stroke-dashoffset: 0; stroke: #ffa500; stroke-width: 1.5"/>
    </g>
    <g id="text_21">
     <!-- error -->
     <g transform="translate(535.762812 216.011625) scale(0.1 -0.1)">
      <use xlink:href="#DejaVuSans-65"/>
      <use xlink:href="#DejaVuSans-72" x="61.523438"/>
      <use xlink:href="#DejaVuSans-72" x="100.886719"/>
      <use xlink:href="#DejaVuSans-6f" x="139.75"/>
      <use xlink:href="#DejaVuSans-72" x="200.931641"/>
     </g>
    </g>
    <g id="line2d_26">
     <path d="M 507.762812 227.18975 
L 517.762812 227.18975 
L 527.762812 227.18975 
" style="fill: none; stroke-dasharray: 12,4.5; stroke-dashoffset: 0; stroke: #ee82ee; stroke-width: 1.5"/>
    </g>
    <g id="text_22">
     <!-- skip -->
     <g transform="translate(535.762812 230.68975) scale(0.1 -0.1)">
      <defs>
       <path id="DejaVuSans-6b" d="M 581 4863 
L 1159 4863 
L 1159 1991 
L 2875 3500 
L 3609 3500 
L 1753 1863 
L 3688 0 
L 2938 0 
L 1159 1709 
L 1159 0 
L 581 0 
L 581 4863 
z
" transform="scale(0.015625)"/>
      </defs>
      <use xlink:href="#DejaVuSans-73"/>
      <use xlink:href="#DejaVuSans-6b" x="52.099609"/>
      <use xlink:href="#DejaVuSans-69" x="110.009766"/>
      <use xlink:href="#DejaVuSans-70" x="137.792969"/>
     </g>
    </g>
   </g>
  </g>
 </g>
 <defs>
  <clipPath id="p56e97e889a">
   <rect x="33.2875" y="22.318125" width="535.68" height="352.512"/>
  </clipPath>
 </defs>
</svg>
