<?xml version="1.0" encoding="utf-8" standalone="no"?>
<!DOCTYPE svg PUBLIC "-//W3C//DTD SVG 1.1//EN"
  "http://www.w3.org/Graphics/SVG/1.1/DTD/svg11.dtd">
<svg xmlns:xlink="http://www.w3.org/1999/xlink" width="576.1675pt" height="418.303033pt" viewBox="0 0 576.1675 418.303033" xmlns="http://www.w3.org/2000/svg" version="1.1">
 <metadata>
  <rdf:RDF xmlns:dc="http://purl.org/dc/elements/1.1/" xmlns:cc="http://creativecommons.org/ns#" xmlns:rdf="http://www.w3.org/1999/02/22-rdf-syntax-ns#">
   <cc:Work>
    <dc:type rdf:resource="http://purl.org/dc/dcmitype/StillImage"/>
    <dc:date>2025-11-14T02:32:03.137501</dc:date>
    <dc:format>image/svg+xml</dc:format>
    <dc:creator>
     <cc:Agent>
      <dc:title>Matplotlib v3.6.3, https://matplotlib.org/</dc:title>
     </cc:Agent>
    </dc:creator>
   </cc:Work>
  </rdf:RDF>
 </metadata>
 <defs>
  <style type="text/css">*{stroke-linejoin: round; stroke-linecap: butt}</style>
 </defs>
 <g id="figure_1">
  <g id="patch_1">
   <path d="M -0 418.303033 
L 576.1675 418.303033 
L 576.1675 0 
L -0 0 
z
" style="fill: #ffffff"/>
  </g>
  <g id="axes_1">
   <g id="patch_2">
    <path d="M 33.2875 374.830125 
L 568.9675 374.830125 
L 568.9675 22.318125 
L 33.2875 22.318125 
z
" style="fill: #ffffff"/>
   </g>
   <g id="matplotlib.axis_1">
    <g id="xtick_1">
     <g id="line2d_1">
      <defs>
       <path id="m719596fe58" d="M 0 0 
L 0 3.5 
" style="stroke: #000000; stroke-width: 0.8"/>
      </defs>
      <g>
       <use xlink:href="#m719596fe58" x="61.023661" y="374.830125" style="stroke: #000000; stroke-width: 0.8"/>
      </g>
     </g>
     <g id="text_1">
      <!-- 2021-07 -->
      <g transform="translate(23.79884 409.301971) rotate(-30) scale(0.1 -0.1)">
       <defs>
        <path id="DejaVuSans-32" d="M 1228 531 
L 3431 531 
L 3431 0 
L 469 0 
L 469 531 
Q 828 903 1448 1529 
Q 2069 2156 2228 2338 
Q 2531 2678 2651 2914 
Q 2772 3150 2772 3378 
Q 2772 3750 2511 3984 
Q 2250 4219 1831 4219 
Q 1534 4219 1204 4116 
Q 875 4013 500 3803 
L 500 4441 
Q 881 4594 1212 4672 
Q 1544 4750 1819 4750 
Q 2544 4750 2975 4387 
Q 3406 4025 3406 3419 
Q 3406 3131 3298 2873 
Q 3191 2616 2906 2266 
Q 2828 2175 2409 1742 
Q 1991 1309 1228 531 
z
" transform="scale(0.015625)"/>
        <path id="DejaVuSans-30" d="M 2034 4250 
Q 1547 4250 1301 3770 
Q 1056 3291 1056 2328 
Q 1056 1369 1301 889 
Q 1547 409 2034 409 
Q 2525 409 2770 889 
Q 3016 1369 3016 2328 
Q 3016 3291 2770 3770 
Q 2525 4250 2034 4250 
z
M 2034 4750 
Q 2819 4750 3233 4129 
Q 3647 3509 3647 2328 
Q 3647 1150 3233 529 
Q 2819 -91 2034 -91 
Q 1250 -91 836 529 
Q 422 1150 422 2328 
Q 422 3509 836 4129 
Q 1250 4750 2034 4750 
z
" transform="scale(0.015625)"/>
        <path id="DejaVuSans-31" d="M 794 531 
L 1825 531 
L 1825 4091 
L 703 3866 
L 703 4441 
L 1819 4666 
L 2450 4666 
L 2450 531 
L 3481 531 
L 3481 0 
L 794 0 
L 794 531 
z
" transform="scale(0.015625)"/>
        <path id="DejaVuSans-2d" d="M 313 2009 
L 1997 2009 
L 1997 1497 
L 313 1497 
L 313 2009 
z
" transform="scale(0.015625)"/>
        <path id="DejaVuSans-37" d="M 525 4666 
L 3525 4666 
L 3525 4397 
L 1831 0 
L 1172 0 
L 2766 4134 
L 525 4134 
L 525 4666 
z
" transform="scale(0.015625)"/>
       </defs>
       <use xlink:href="#DejaVuSans-32"/>
       <use xlink:href="#DejaVuSans-30" x="63.623047"/>
       <use xlink:href="#DejaVuSans-32" x="127.246094"/>
       <use xlink:href="#DejaVuSans-31" x="190.869141"/>
       <use xlink:href="#DejaVuSans-2d" x="254.492188"/>
       <use xlink:href="#DejaVuSans-30" x="290.576172"/>
       <use xlink:href="#DejaVuSans-37" x="354.199219"/>
      </g>
     </g>
    </g>
    <g id="xtick_2">
     <g id="line2d_2">
      <g>
       <use xlink:href="#m719596fe58" x="118.956624" y="374.830125" style="stroke: #000000; stroke-width: 0.8"/>
      </g>
     </g>
     <g id="text_2">
      <!-- 2022-01 -->
      <g transform="translate(81.731803 409.301971) rotate(-30) scale(0.1 -0.1)">
       <use xlink:href="#DejaVuSans-32"/>
       <use xlink:href="#DejaVuSans-30" x="63.623047"/>
       <use xlink:href="#DejaVuSans-32" x="127.246094"/>
       <use xlink:href="#DejaVuSans-32" x="190.869141"/>
       <use xlink:href="#DejaVuSans-2d" x="254.492188"/>
       <use xlink:href="#DejaVuSans-30" x="290.576172"/>
       <use xlink:href="#DejaVuSans-31" x="354.199219"/>
      </g>
     </g>
    </g>
    <g id="xtick_3">
     <g id="line2d_3">
      <g>
       <use xlink:href="#m719596fe58" x="175.945027" y="374.830125" style="stroke: #000000; stroke-width: 0.8"/>
      </g>
     </g>
     <g id="text_3">
      <!-- 2022-07 -->
      <g transform="translate(138.720206 409.301971) rotate(-30) scale(0.1 -0.1)">
       <use xlink:href="#DejaVuSans-32"/>
       <use xlink:href="#DejaVuSans-30" x="63.623047"/>
       <use xlink:href="#DejaVuSans-32" x="127.246094"/>
       <use xlink:href="#DejaVuSans-32" x="190.869141"/>
       <use xlink:href="#DejaVuSans-2d" x="254.492188"/>
       <use xlink:href="#DejaVuSans-30" x="290.576172"/>
       <use xlink:href="#DejaVuSans-37" x="354.199219"/>
      </g>
     </g>
    </g>
    <g id="xtick_4">
     <g id="line2d_4">
      <g>
       <use xlink:href="#m719596fe58" x="233.87799" y="374.830125" style="stroke: #000000; stroke-width: 0.8"/>
      </g>
     </g>
     <g id="text_4">
      <!-- 2023-01 -->
      <g transform="translate(196.653169 409.301971) rotate(-30) scale(0.1 -0.1)">
       <defs>
        <path id="DejaVuSans-33" d="M 2597 2516 
Q 3050 2419 3304 2112 
Q 3559 1806 3559 1356 
Q 3559 666 3084 287 
Q 2609 -91 1734 -91 
Q 1441 -91 1130 -33 
Q 819 25 488 141 
L 488 750 
Q 750 597 1062 519 
Q 1375 441 1716 441 
Q 2309 441 2620 675 
Q 2931 909 2931 1356 
Q 2931 1769 2642 2001 
Q 2353 2234 1838 2234 
L 1294 2234 
L 1294 2753 
L 1863 2753 
Q 2328 2753 2575 2939 
Q 2822 3125 2822 3475 
Q 2822 3834 2567 4026 
Q 2313 4219 1838 4219 
Q 1578 4219 1281 4162 
Q 984 4106 628 3988 
L 628 4550 
Q 988 4650 1302 4700 
Q 1616 4750 1894 4750 
Q 2613 4750 3031 4423 
Q 3450 4097 3450 3541 
Q 3450 3153 3228 2886 
Q 3006 2619 2597 2516 
z
" transform="scale(0.015625)"/>
       </defs>
       <use xlink:href="#DejaVuSans-32"/>
       <use xlink:href="#DejaVuSans-30" x="63.623047"/>
       <use xlink:href="#DejaVuSans-32" x="127.246094"/>
       <use xlink:href="#DejaVuSans-33" x="190.869141"/>
       <use xlink:href="#DejaVuSans-2d" x="254.492188"/>
       <use xlink:href="#DejaVuSans-30" x="290.576172"/>
       <use xlink:href="#DejaVuSans-31" x="354.199219"/>
      </g>
     </g>
    </g>
    <g id="xtick_5">
     <g id="line2d_5">
      <g>
       <use xlink:href="#m719596fe58" x="290.866393" y="374.830125" style="stroke: #000000; stroke-width: 0.8"/>
      </g>
     </g>
     <g id="text_5">
      <!-- 2023-07 -->
      <g transform="translate(253.641572 409.301971) rotate(-30) scale(0.1 -0.1)">
       <use xlink:href="#DejaVuSans-32"/>
       <use xlink:href="#DejaVuSans-30" x="63.623047"/>
       <use xlink:href="#DejaVuSans-32" x="127.246094"/>
       <use xlink:href="#DejaVuSans-33" x="190.869141"/>
       <use xlink:href="#DejaVuSans-2d" x="254.492188"/>
       <use xlink:href="#DejaVuSans-30" x="290.576172"/>
       <use xlink:href="#DejaVuSans-37" x="354.199219"/>
      </g>
     </g>
    </g>
    <g id="xtick_6">
     <g id="line2d_6">
      <g>
       <use xlink:href="#m719596fe58" x="348.799356" y="374.830125" style="stroke: #000000; stroke-width: 0.8"/>
      </g>
     </g>
     <g id="text_6">
      <!-- 2024-01 -->
      <g transform="translate(311.574535 409.301971) rotate(-30) scale(0.1 -0.1)">
       <defs>
        <path id="DejaVuSans-34" d="M 2419 4116 
L 825 1625 
L 2419 1625 
L 2419 4116 
z
M 2253 4666 
L 3047 4666 
L 3047 1625 
L 3713 1625 
L 3713 1100 
L 3047 1100 
L 3047 0 
L 2419 0 
L 2419 1100 
L 313 1100 
L 313 1709 
L 2253 4666 
z
" transform="scale(0.015625)"/>
       </defs>
       <use xlink:href="#DejaVuSans-32"/>
       <use xlink:href="#DejaVuSans-30" x="63.623047"/>
       <use xlink:href="#DejaVuSans-32" x="127.246094"/>
       <use xlink:href="#DejaVuSans-34" x="190.869141"/>
       <use xlink:href="#DejaVuSans-2d" x="254.492188"/>
       <use xlink:href="#DejaVuSans-30" x="290.576172"/>
       <use xlink:href="#DejaVuSans-31" x="354.199219"/>
      </g>
     </g>
    </g>
    <g id="xtick_7">
     <g id="line2d_7">
      <g>
       <use xlink:href="#m719596fe58" x="406.102612" y="374.830125" style="stroke: #000000; stroke-width: 0.8"/>
      </g>
     </g>
     <g id="text_7">
      <!-- 2024-07 -->
      <g transform="translate(368.877792 409.301971) rotate(-30) scale(0.1 -0.1)">
       <use xlink:href="#DejaVuSans-32"/>
       <use xlink:href="#DejaVuSans-30" x="63.623047"/>
       <use xlink:href="#DejaVuSans-32" x="127.246094"/>
       <use xlink:href="#DejaVuSans-34" x="190.869141"/>
       <use xlink:href="#DejaVuSans-2d" x="254.492188"/>
       <use xlink:href="#DejaVuSans-30" x="290.576172"/>
       <use xlink:href="#DejaVuSans-37" x="354.199219"/>
      </g>
     </g>
    </g>
    <g id="xtick_8">
     <g id="line2d_8">
      <g>
       <use xlink:href="#m719596fe58" x="464.035575" y="374.830125" style="stroke: #000000; stroke-width: 0.8"/>
      </g>
     </g>
     <g id="text_8">
      <!-- 2025-01 -->
      <g transform="translate(426.810754 409.301971) rotate(-30) scale(0.1 -0.1)">
       <defs>
        <path id="DejaVuSans-35" d="M 691 4666 
L 3169 4666 
L 3169 4134 
L 1269 4134 
L 1269 2991 
Q 1406 3038 1543 3061 
Q 1681 3084 1819 3084 
Q 2600 3084 3056 2656 
Q 3513 2228 3513 1497 
Q 3513 744 3044 326 
Q 2575 -91 1722 -91 
Q 1428 -91 1123 -41 
Q 819 9 494 109 
L 494 744 
Q 775 591 1075 516 
Q 1375 441 1709 441 
Q 2250 441 2565 725 
Q 2881 1009 2881 1497 
Q 2881 1984 2565 2268 
Q 2250 2553 1709 2553 
Q 1456 2553 1204 2497 
Q 953 2441 691 2322 
L 691 4666 
z
" transform="scale(0.015625)"/>
       </defs>
       <use xlink:href="#DejaVuSans-32"/>
       <use xlink:href="#DejaVuSans-30" x="63.623047"/>
       <use xlink:href="#DejaVuSans-32" x="127.246094"/>
       <use xlink:href="#DejaVuSans-35" x="190.869141"/>
       <use xlink:href="#DejaVuSans-2d" x="254.492188"/>
       <use xlink:href="#DejaVuSans-30" x="290.576172"/>
       <use xlink:href="#DejaVuSans-31" x="354.199219"/>
      </g>
     </g>
    </g>
    <g id="xtick_9">
     <g id="line2d_9">
      <g>
       <use xlink:href="#m719596fe58" x="521.023978" y="374.830125" style="stroke: #000000; stroke-width: 0.8"/>
      </g>
     </g>
     <g id="text_9">
      <!-- 2025-07 -->
      <g transform="translate(483.799158 409.301971) rotate(-30) scale(0.1 -0.1)">
       <use xlink:href="#DejaVuSans-32"/>
       <use xlink:href="#DejaVuSans-30" x="63.623047"/>
       <use xlink:href="#DejaVuSans-32" x="127.246094"/>
       <use xlink:href="#DejaVuSans-35" x="190.869141"/>
       <use xlink:href="#DejaVuSans-2d" x="254.492188"/>
       <use xlink:href="#DejaVuSans-30" x="290.576172"/>
       <use xlink:href="#DejaVuSans-37" x="354.199219"/>
      </g>
     </g>
    </g>
   </g>
   <g id="matplotlib.axis_2">
    <g id="ytick_1">
     <g id="line2d_10">
      <defs>
       <path id="mef84fdb8b9" d="M 0 0 
L -3.5 0 
" style="stroke: #000000; stroke-width: 0.8"/>
      </defs>
      <g>
       <use xlink:href="#mef84fdb8b9" x="33.2875" y="374.830125" style="stroke: #000000; stroke-width: 0.8"/>
      </g>
     </g>
     <g id="text_10">
      <!-- 0 -->
      <g transform="translate(19.925 378.629344) scale(0.1 -0.1)">
       <use xlink:href="#DejaVuSans-30"/>
      </g>
     </g>
    </g>
    <g id="ytick_2">
     <g id="line2d_11">
      <g>
       <use xlink:href="#mef84fdb8b9" x="33.2875" y="320.718221" style="stroke: #000000; stroke-width: 0.8"/>
      </g>
     </g>
     <g id="text_11">
      <!-- 100 -->
      <g transform="translate(7.2 324.51744) scale(0.1 -0.1)">
       <use xlink:href="#DejaVuSans-31"/>
       <use xlink:href="#DejaVuSans-30" x="63.623047"/>
       <use xlink:href="#DejaVuSans-30" x="127.246094"/>
      </g>
     </g>
    </g>
    <g id="ytick_3">
     <g id="line2d_12">
      <g>
       <use xlink:href="#mef84fdb8b9" x="33.2875" y="266.606317" style="stroke: #000000; stroke-width: 0.8"/>
      </g>
     </g>
     <g id="text_12">
      <!-- 200 -->
      <g transform="translate(7.2 270.405535) scale(0.1 -0.1)">
       <use xlink:href="#DejaVuSans-32"/>
       <use xlink:href="#DejaVuSans-30" x="63.623047"/>
       <use xlink:href="#DejaVuSans-30" x="127.246094"/>
      </g>
     </g>
    </g>
    <g id="ytick_4">
     <g id="line2d_13">
      <g>
       <use xlink:href="#mef84fdb8b9" x="33.2875" y="212.494412" style="stroke: #000000; stroke-width: 0.8"/>
      </g>
     </g>
     <g id="text_13">
      <!-- 300 -->
      <g transform="translate(7.2 216.293631) scale(0.1 -0.1)">
       <use xlink:href="#DejaVuSans-33"/>
       <use xlink:href="#DejaVuSans-30" x="63.623047"/>
       <use xlink:href="#DejaVuSans-30" x="127.246094"/>
      </g>
     </g>
    </g>
    <g id="ytick_5">
     <g id="line2d_14">
      <g>
       <use xlink:href="#mef84fdb8b9" x="33.2875" y="158.382508" style="stroke: #000000; stroke-width: 0.8"/>
      </g>
     </g>
     <g id="text_14">
      <!-- 400 -->
      <g transform="translate(7.2 162.181727) scale(0.1 -0.1)">
       <use xlink:href="#DejaVuSans-34"/>
       <use xlink:href="#DejaVuSans-30" x="63.623047"/>
       <use xlink:href="#DejaVuSans-30" x="127.246094"/>
      </g>
     </g>
    </g>
    <g id="ytick_6">
     <g id="line2d_15">
      <g>
       <use xlink:href="#mef84fdb8b9" x="33.2875" y="104.270604" style="stroke: #000000; stroke-width: 0.8"/>
      </g>
     </g>
     <g id="text_15">
      <!-- 500 -->
      <g transform="translate(7.2 108.069823) scale(0.1 -0.1)">
       <use xlink:href="#DejaVuSans-35"/>
       <use xlink:href="#DejaVuSans-30" x="63.623047"/>
       <use xlink:href="#DejaVuSans-30" x="127.246094"/>
      </g>
     </g>
    </g>
    <g id="ytick_7">
     <g id="line2d_16">
      <g>
       <use xlink:href="#mef84fdb8b9" x="33.2875" y="50.1587" style="stroke: #000000; stroke-width: 0.8"/>
      </g>
     </g>
     <g id="text_16">
      <!-- 600 -->
      <g transform="translate(7.2 53.957918) scale(0.1 -0.1)">
       <defs>
        <path id="DejaVuSans-36" d="M 2113 2584 
Q 1688 2584 1439 2293 
Q 1191 2003 1191 1497 
Q 1191 994 1439 701 
Q 1688 409 2113 409 
Q 2538 409 2786 701 
Q 3034 994 3034 1497 
Q 3034 2003 2786 2293 
Q 2538 2584 2113 2584 
z
M 3366 4563 
L 3366 3988 
Q 3128 4100 2886 4159 
Q 2644 4219 2406 4219 
Q 1781 4219 1451 3797 
Q 1122 3375 1075 2522 
Q 1259 2794 1537 2939 
Q 1816 3084 2150 3084 
Q 2853 3084 3261 2657 
Q 3669 2231 3669 1497 
Q 3669 778 3244 343 
Q 2819 -91 2113 -91 
Q 1303 -91 875 529 
Q 447 1150 447 2328 
Q 447 3434 972 4092 
Q 1497 4750 2381 4750 
Q 2619 4750 2861 4703 
Q 3103 4656 3366 4563 
z
" transform="scale(0.015625)"/>
       </defs>
       <use xlink:href="#DejaVuSans-36"/>
       <use xlink:href="#DejaVuSans-30" x="63.623047"/>
       <use xlink:href="#DejaVuSans-30" x="127.246094"/>
      </g>
     </g>
    </g>
   </g>
   <g id="line2d_17">
    <path d="M 38.539265 37.171843 
L 47.901457 37.171843 
L 48.007439 40.418557 
L 49.318204 40.418557 
L 49.79802 49.617581 
L 127.143317 49.617581 
L 127.528404 44.20639 
L 140.399134 44.20639 
L 141.155197 44.747509 
L 147.191239 44.747509 
L 147.402326 55.56989 
L 153.523561 55.56989 
L 154.792124 53.946533 
L 259.6606 53.946533 
L 259.959277 50.1587 
L 268.178403 50.1587 
L 268.471755 49.076462 
L 309.725363 49.076462 
L 309.930804 47.994224 
L 376.595138 47.994224 
L 376.786116 43.665271 
L 427.326033 43.665271 
L 427.412957 43.124152 
L 466.016493 43.124152 
L 466.371256 42.583033 
L 469.882757 42.583033 
L 469.999271 40.418557 
L 471.408486 40.418557 
L 471.774641 40.959676 
L 496.133871 40.959676 
L 496.434596 40.418557 
L 547.724425 40.418557 
L 547.899515 31.760652 
L 562.570293 31.760652 
L 562.850148 25.808343 
L 563.715735 25.808343 
L 563.715735 25.808343 
" clip-path="url(#pa214ce7cdd)" style="fill: none; stroke: #0000ff; stroke-width: 1.5; stroke-linecap: square"/>
   </g>
   <g id="line2d_18">
    <path d="M 38.539265 175.698317 
L 39.826445 174.616079 
L 41.109471 175.698317 
L 44.147803 175.698317 
L 47.497927 176.780556 
L 47.746457 176.239437 
L 47.901457 176.239437 
L 48.007439 179.486151 
L 48.252044 178.945032 
L 48.613823 179.486151 
L 49.318204 179.486151 
L 49.71051 191.39077 
L 49.79802 188.685175 
L 50.001647 191.931889 
L 50.066403 191.39077 
L 50.294584 191.39077 
L 50.659588 191.931889 
L 51.538064 191.931889 
L 51.564287 192.473008 
L 52.040477 192.473008 
L 52.242041 191.931889 
L 52.831349 195.719722 
L 52.899417 195.178603 
L 53.188787 195.719722 
L 53.74854 197.343079 
L 54.128208 196.260841 
L 54.72832 196.260841 
L 55.063693 197.343079 
L 55.290409 197.343079 
L 55.973436 197.884198 
L 56.27993 197.884198 
L 56.613211 198.966436 
L 56.911232 198.425317 
L 57.24217 199.507555 
L 57.586031 201.672032 
L 58.915622 202.75427 
L 59.480214 202.75427 
L 59.722061 203.295389 
L 60.107395 203.295389 
L 60.39108 203.836508 
L 60.680052 203.295389 
L 61.002241 203.295389 
L 61.190916 203.836508 
L 64.454966 203.836508 
L 64.784395 204.377627 
L 65.100076 204.377627 
L 65.22265 203.836508 
L 66.002301 204.377627 
L 66.329067 203.836508 
L 67.229991 203.836508 
L 67.51924 204.377627 
L 67.874857 203.836508 
L 69.514632 203.836508 
L 69.8506 204.377627 
L 70.035011 206.000984 
L 70.483848 204.918746 
L 71.527516 204.918746 
L 72.045326 205.459865 
L 72.358419 205.459865 
L 72.6625 206.000984 
L 73.001903 206.000984 
L 73.313531 205.459865 
L 73.611308 207.083222 
L 73.875675 207.083222 
L 74.594429 208.16546 
L 78.368104 208.16546 
L 78.668085 209.247698 
L 79.307423 209.247698 
L 79.591191 209.788817 
L 80.542944 209.788817 
L 81.453984 211.953293 
L 82.422329 211.953293 
L 82.769159 212.494412 
L 88.619595 212.494412 
L 89.321969 213.57665 
L 89.481079 212.494412 
L 90.607706 212.494412 
L 90.913646 213.035531 
L 91.251187 212.494412 
L 92.054285 212.494412 
L 92.497878 213.035531 
L 92.827187 212.494412 
L 97.800568 212.494412 
L 98.072351 217.364484 
L 98.260782 212.494412 
L 100.063141 212.494412 
L 100.390329 213.035531 
L 100.577084 217.905603 
L 101.018239 213.035531 
L 101.329816 213.035531 
L 101.536646 212.494412 
L 104.799967 212.494412 
L 104.965225 213.035531 
L 105.261791 213.035531 
L 105.750203 214.658889 
L 110.672895 214.658889 
L 111.747254 215.200008 
L 118.358975 215.200008 
L 118.634293 217.364484 
L 118.986098 217.364484 
L 119.298061 215.200008 
L 119.619022 215.200008 
L 119.84018 217.364484 
L 120.079873 215.200008 
L 120.478206 217.364484 
L 120.831049 218.446722 
L 124.922404 218.446722 
L 125.275539 218.987841 
L 127.143317 218.987841 
L 127.528404 213.035531 
L 127.803485 213.57665 
L 128.114413 215.200008 
L 128.498275 215.200008 
L 129.012969 216.282246 
L 129.368177 216.282246 
L 129.630004 216.823365 
L 129.981699 214.658889 
L 132.556753 220.070079 
L 132.819684 218.446722 
L 133.260551 217.905603 
L 134.660791 217.905603 
L 135.019979 217.364484 
L 135.336719 216.282246 
L 136.604739 216.282246 
L 136.836579 215.200008 
L 137.244364 216.282246 
L 138.165281 216.282246 
L 138.478694 217.364484 
L 138.781008 217.364484 
L 139.139047 217.905603 
L 139.283526 217.905603 
L 139.444998 219.52896 
L 139.663886 219.52896 
L 140.399134 220.070079 
L 141.006644 218.987841 
L 141.155197 218.987841 
L 141.631434 219.52896 
L 141.936991 220.611198 
L 143.516055 220.611198 
L 143.820934 221.152317 
L 144.14833 221.152317 
L 144.451442 221.693436 
L 144.735389 221.693436 
L 145.395185 222.234555 
L 145.735941 222.234555 
L 146.075741 223.857912 
L 146.27665 223.857912 
L 146.629813 223.316793 
L 147.191239 223.316793 
L 147.402326 224.94015 
L 147.923036 224.94015 
L 148.231541 226.022388 
L 148.643554 226.022388 
L 148.855781 226.563507 
L 149.322481 226.563507 
L 149.368922 227.104626 
L 149.60531 227.104626 
L 150.104122 227.645746 
L 151.238508 230.89246 
L 152.652479 230.89246 
L 152.940744 231.974698 
L 153.049288 231.433579 
L 153.174985 231.433579 
L 153.523561 230.89246 
L 154.792124 229.269103 
L 157.965912 229.269103 
L 158.333674 228.727984 
L 159.869774 228.727984 
L 160.088397 228.186865 
L 162.965024 228.186865 
L 163.466737 228.727984 
L 163.853132 228.727984 
L 164.272623 229.269103 
L 164.483698 228.727984 
L 166.505864 228.727984 
L 167.144046 229.810222 
L 168.50224 229.810222 
L 168.730909 237.385888 
L 168.988692 237.385888 
L 171.185539 239.009245 
L 171.320536 238.468126 
L 171.46137 239.009245 
L 171.826928 238.468126 
L 172.133563 238.468126 
L 172.456299 239.009245 
L 172.698655 239.009245 
L 173.08775 240.091484 
L 173.247772 240.091484 
L 173.395865 239.550364 
L 173.727799 240.632603 
L 175.934631 240.632603 
L 176.149321 241.173722 
L 177.336477 241.173722 
L 177.809147 240.632603 
L 178.16328 243.338198 
L 178.415392 241.714841 
L 178.744202 241.714841 
L 179.007757 244.961555 
L 179.192161 244.420436 
L 179.388467 244.961555 
L 179.487339 244.420436 
L 179.608354 246.043793 
L 179.922088 246.043793 
L 180.319597 246.584912 
L 181.098144 246.043793 
L 181.27542 247.126031 
L 181.56514 247.126031 
L 181.770308 245.502674 
L 182.466749 247.126031 
L 183.159251 247.66715 
L 183.767428 247.66715 
L 184.086471 249.290507 
L 184.379729 249.290507 
L 184.553438 248.749388 
L 184.858321 248.749388 
L 186.037504 250.913864 
L 186.234163 249.831626 
L 186.612712 249.290507 
L 187.056706 250.913864 
L 188.250137 250.913864 
L 188.352304 251.454983 
L 188.827838 251.996102 
L 190.095497 251.996102 
L 190.675745 254.701698 
L 193.936453 254.701698 
L 194.193932 255.242817 
L 194.532574 254.160579 
L 194.729726 255.242817 
L 198.284555 255.242817 
L 198.581566 255.783936 
L 199.297817 259.03065 
L 199.566532 257.407293 
L 199.886767 257.948412 
L 200.24136 257.407293 
L 200.490888 257.407293 
L 200.868981 255.783936 
L 201.071719 255.783936 
L 201.111068 256.325055 
L 201.749043 256.325055 
L 202.108128 253.078341 
L 202.424712 253.078341 
L 203.377059 253.61946 
L 203.437318 253.078341 
L 203.954399 252.537221 
L 204.031199 253.078341 
L 206.522733 253.078341 
L 206.696099 253.61946 
L 207.161072 254.160579 
L 207.78197 255.242817 
L 207.943463 256.325055 
L 208.161692 256.325055 
L 208.406163 257.407293 
L 208.700506 256.866174 
L 209.030089 256.866174 
L 209.278429 256.325055 
L 209.628529 256.866174 
L 209.940933 256.866174 
L 210.240353 257.407293 
L 210.482735 257.407293 
L 210.938988 256.866174 
L 211.176181 257.407293 
L 211.421675 256.866174 
L 212.134577 252.537221 
L 212.820337 253.61946 
L 212.920598 257.407293 
L 213.073458 257.407293 
L 213.353156 257.948412 
L 213.6781 257.407293 
L 213.974773 257.407293 
L 214.340232 256.866174 
L 214.656776 257.948412 
L 215.799218 257.948412 
L 216.253245 258.489531 
L 216.512714 258.489531 
L 216.532848 259.03065 
L 217.827386 259.03065 
L 218.195935 260.112888 
L 220.007233 260.112888 
L 220.368308 261.195126 
L 221.597868 261.195126 
L 223.837789 260.654007 
L 224.045581 261.195126 
L 224.606001 261.195126 
L 225.077563 261.736245 
L 225.393447 262.818483 
L 225.487903 262.277364 
L 225.831246 263.359602 
L 226.595041 263.359602 
L 229.688542 264.44184 
L 237.335149 264.44184 
L 237.646621 263.900721 
L 239.141611 263.900721 
L 239.451494 264.44184 
L 240.478396 264.44184 
L 240.832821 264.982959 
L 241.087673 264.44184 
L 241.383445 264.982959 
L 241.71071 264.44184 
L 241.979312 265.524078 
L 242.390695 264.982959 
L 242.690862 265.524078 
L 249.215608 265.524078 
L 249.552651 264.44184 
L 249.90971 264.982959 
L 250.232635 264.44184 
L 250.594344 264.44184 
L 250.884424 263.900721 
L 252.095067 263.900721 
L 252.402472 264.44184 
L 252.749699 263.900721 
L 253.181638 262.818483 
L 253.693311 262.818483 
L 254.047214 262.277364 
L 254.312044 263.359602 
L 254.65272 263.359602 
L 254.915921 262.818483 
L 255.746637 263.900721 
L 256.232612 263.359602 
L 256.52134 263.900721 
L 257.135609 263.900721 
L 257.482301 263.359602 
L 257.822733 264.982959 
L 258.150395 264.44184 
L 258.779452 264.44184 
L 259.019243 263.900721 
L 259.325919 264.44184 
L 259.6606 264.44184 
L 259.959277 259.571769 
L 260.077937 260.112888 
L 260.312648 260.112888 
L 260.476153 260.654007 
L 260.618653 260.654007 
L 260.806268 261.195126 
L 260.933412 260.112888 
L 261.56111 261.195126 
L 262.100412 261.195126 
L 262.36268 262.277364 
L 262.622605 261.195126 
L 262.791832 261.736245 
L 263.745938 261.736245 
L 264.029973 261.195126 
L 264.299344 261.195126 
L 264.637836 261.736245 
L 264.950838 261.736245 
L 265.321876 261.195126 
L 265.679934 261.736245 
L 265.957752 261.736245 
L 266.39495 262.818483 
L 268.178403 262.818483 
L 268.471755 261.195126 
L 269.853982 261.195126 
L 270.17143 261.736245 
L 270.42114 262.277364 
L 270.910052 262.277364 
L 271.062584 263.359602 
L 271.132555 262.818483 
L 271.297988 263.359602 
L 271.763314 263.359602 
L 271.991426 264.44184 
L 272.612525 264.44184 
L 272.902445 265.524078 
L 273.861249 265.524078 
L 274.091186 267.147436 
L 274.303362 267.688555 
L 274.425809 267.688555 
L 274.838853 268.229674 
L 274.984228 267.688555 
L 275.05468 268.229674 
L 275.508827 268.229674 
L 276.042182 268.770793 
L 277.238755 268.770793 
L 277.547358 268.229674 
L 277.843054 268.770793 
L 278.176379 268.770793 
L 278.336127 269.311912 
L 278.374551 268.770793 
L 278.564155 269.311912 
L 278.712449 269.311912 
L 278.858896 270.39415 
L 279.422807 271.476388 
L 279.833436 270.935269 
L 280.145632 271.476388 
L 280.759381 271.476388 
L 281.092491 272.558626 
L 281.214438 272.017507 
L 281.412548 273.640864 
L 281.693273 273.099745 
L 281.875338 273.640864 
L 282.019296 273.099745 
L 282.178377 274.181983 
L 282.502621 274.181983 
L 282.598654 274.723102 
L 282.979065 274.181983 
L 283.273282 275.264221 
L 283.937075 275.264221 
L 284.176028 276.346459 
L 284.514962 275.264221 
L 284.745224 275.264221 
L 284.829643 275.80534 
L 285.449146 275.80534 
L 285.738927 277.969816 
L 286.155678 275.80534 
L 286.220292 276.346459 
L 286.769029 275.80534 
L 286.820991 276.887578 
L 287.009724 276.887578 
L 287.390033 277.428697 
L 287.698673 276.887578 
L 287.931843 276.887578 
L 288.276887 277.969816 
L 288.652269 277.969816 
L 289.016296 277.428697 
L 289.28836 277.969816 
L 289.453669 277.428697 
L 289.618085 278.510935 
L 291.074962 278.510935 
L 291.522731 279.052055 
L 292.436967 279.052055 
L 292.761353 277.969816 
L 293.372729 277.969816 
L 293.67872 278.510935 
L 296.462385 278.510935 
L 296.838059 277.969816 
L 297.190206 279.052055 
L 301.462226 279.052055 
L 302.399392 279.593174 
L 302.956015 279.593174 
L 303.408069 280.134293 
L 303.765315 280.134293 
L 303.975242 280.675412 
L 308.730427 280.675412 
L 309.11665 280.134293 
L 309.422856 280.675412 
L 309.725363 280.134293 
L 309.930804 276.887578 
L 311.809376 276.887578 
L 311.976988 277.428697 
L 312.301888 277.428697 
L 312.409332 276.887578 
L 314.353918 276.887578 
L 314.623685 277.428697 
L 314.725637 276.887578 
L 315.187717 276.887578 
L 315.401311 277.969816 
L 315.670554 276.887578 
L 315.871571 277.969816 
L 316.014246 277.969816 
L 316.198264 276.887578 
L 316.359204 277.969816 
L 316.46234 276.887578 
L 316.503879 277.969816 
L 317.610752 277.969816 
L 317.786454 278.510935 
L 317.812221 279.052055 
L 318.375867 279.052055 
L 318.409086 279.593174 
L 318.733848 279.593174 
L 318.90201 280.134293 
L 319.045385 279.593174 
L 319.221524 280.134293 
L 319.34064 279.593174 
L 319.62001 280.134293 
L 319.73816 279.593174 
L 319.754362 280.134293 
L 320.108484 280.134293 
L 320.330364 280.675412 
L 320.470306 280.675412 
L 320.679873 281.75765 
L 320.912405 282.298769 
L 321.073002 281.75765 
L 322.861757 281.75765 
L 323.117517 282.298769 
L 324.4884 282.298769 
L 324.707081 282.839888 
L 324.996137 282.839888 
L 325.21063 283.381007 
L 325.328853 282.839888 
L 325.896041 282.839888 
L 326.087449 283.922126 
L 326.608432 283.922126 
L 326.658463 284.463245 
L 326.731159 283.922126 
L 326.843625 283.922126 
L 327.045397 285.004364 
L 327.255524 285.545483 
L 327.314253 285.004364 
L 327.552445 287.16884 
L 328.51712 287.16884 
L 328.614101 287.709959 
L 328.825435 287.709959 
L 328.949234 288.792197 
L 329.094525 287.709959 
L 330.375168 287.709959 
L 330.449271 288.251078 
L 330.694912 287.709959 
L 330.812522 288.251078 
L 331.029971 287.709959 
L 331.312428 287.709959 
L 331.485641 288.792197 
L 331.801387 288.792197 
L 331.930903 288.251078 
L 332.04187 289.333316 
L 332.369591 287.709959 
L 332.713018 288.792197 
L 332.961799 287.709959 
L 333.544175 287.709959 
L 333.99741 289.333316 
L 334.138442 288.792197 
L 334.294626 289.333316 
L 334.716059 288.251078 
L 334.851005 289.333316 
L 335.851155 289.333316 
L 336.012368 289.874435 
L 336.293305 289.874435 
L 336.443068 289.333316 
L 336.632082 289.874435 
L 336.751598 289.333316 
L 337.11568 290.415554 
L 337.612754 290.415554 
L 337.963324 291.497793 
L 339.481713 291.497793 
L 339.647725 292.038912 
L 339.850791 291.497793 
L 339.951263 292.038912 
L 340.158298 291.497793 
L 340.433262 291.497793 
L 340.610615 292.038912 
L 340.727227 291.497793 
L 341.09848 291.497793 
L 341.21331 292.038912 
L 341.733816 292.038912 
L 341.768902 293.12115 
L 343.995077 293.12115 
L 344.214695 293.662269 
L 344.358845 293.12115 
L 344.480971 293.662269 
L 344.573736 293.12115 
L 344.68501 294.203388 
L 345.197696 294.203388 
L 345.439539 294.744507 
L 345.488552 294.203388 
L 345.538768 294.744507 
L 345.814935 294.203388 
L 345.886309 294.744507 
L 346.156383 295.285626 
L 346.262165 295.826745 
L 346.464108 295.826745 
L 346.510542 296.367864 
L 346.791712 297.991221 
L 346.918266 297.450102 
L 347.08907 297.450102 
L 347.119841 298.53234 
L 348.31989 298.53234 
L 348.468942 299.073459 
L 348.70404 298.53234 
L 349.111272 299.073459 
L 349.220111 298.53234 
L 349.398287 299.073459 
L 349.617263 299.073459 
L 349.747574 299.614578 
L 350.051094 299.614578 
L 350.058535 300.155697 
L 350.152098 299.614578 
L 350.241787 300.696816 
L 350.37435 300.696816 
L 350.55785 301.237935 
L 351.816636 301.237935 
L 351.849856 300.696816 
L 351.929101 301.779054 
L 352.261067 301.779054 
L 352.430603 301.237935 
L 352.561107 301.779054 
L 352.757587 301.237935 
L 352.904799 301.779054 
L 353.070195 301.779054 
L 353.212317 301.237935 
L 353.353235 302.861292 
L 355.040181 302.861292 
L 355.54748 303.94353 
L 355.814515 303.402411 
L 362.18705 303.402411 
L 362.295244 303.94353 
L 362.488759 303.402411 
L 362.544532 303.94353 
L 363.122769 303.94353 
L 363.282884 304.48465 
L 364.09444 304.48465 
L 364.202875 305.025769 
L 364.355721 304.48465 
L 365.598902 304.48465 
L 365.771339 305.025769 
L 365.988493 304.48465 
L 366.108395 304.48465 
L 366.299476 305.566888 
L 366.404591 305.025769 
L 366.870497 305.025769 
L 367.0735 305.566888 
L 368.029046 305.566888 
L 368.184702 304.48465 
L 368.500102 305.566888 
L 370.197116 305.566888 
L 370.487025 306.108007 
L 370.526549 306.108007 
L 370.693953 306.649126 
L 370.819078 306.649126 
L 370.973965 307.190245 
L 371.336356 307.190245 
L 371.400554 307.731364 
L 371.70266 307.731364 
L 371.893489 306.649126 
L 372.042497 307.190245 
L 372.270587 307.190245 
L 372.363593 307.731364 
L 372.712533 307.731364 
L 373.024628 308.272483 
L 373.364949 309.89584 
L 373.476372 309.354721 
L 373.580121 309.89584 
L 373.818254 310.436959 
L 373.931175 309.89584 
L 374.234275 310.436959 
L 374.434732 309.89584 
L 374.598448 309.89584 
L 374.919187 311.519197 
L 375.228304 310.978078 
L 375.548434 312.060316 
L 375.611295 311.519197 
L 375.81936 312.060316 
L 375.963435 311.519197 
L 376.082211 312.060316 
L 376.595138 312.060316 
L 376.786116 304.48465 
L 377.29617 305.566888 
L 377.632943 305.566888 
L 377.75074 306.108007 
L 377.934218 305.566888 
L 378.051989 305.566888 
L 378.191344 305.025769 
L 378.351577 305.566888 
L 378.571675 305.566888 
L 378.679971 305.025769 
L 378.817563 305.566888 
L 379.005218 305.025769 
L 379.078975 305.566888 
L 379.469025 306.108007 
L 379.755643 305.025769 
L 380.015302 305.566888 
L 381.168896 305.566888 
L 381.442618 306.108007 
L 381.730016 305.566888 
L 382.246972 305.566888 
L 382.643297 306.649126 
L 382.779238 305.025769 
L 383.008042 305.566888 
L 383.299719 305.025769 
L 383.433145 306.649126 
L 383.594237 305.566888 
L 383.746482 305.566888 
L 383.847873 306.108007 
L 383.923539 308.272483 
L 383.937121 307.731364 
L 384.272782 308.272483 
L 385.101254 308.272483 
L 385.493155 309.354721 
L 385.654819 308.813602 
L 386.235199 308.813602 
L 386.393332 308.272483 
L 386.562343 308.813602 
L 386.747728 308.813602 
L 386.856636 308.272483 
L 387.187964 308.813602 
L 387.382608 308.813602 
L 387.510215 309.354721 
L 387.666282 308.813602 
L 387.833949 308.813602 
L 387.991077 308.272483 
L 388.088408 308.813602 
L 388.963677 308.813602 
L 389.182653 310.436959 
L 389.447407 309.89584 
L 389.666375 309.89584 
L 389.843648 309.354721 
L 389.924249 309.89584 
L 390.198841 309.354721 
L 390.301497 309.89584 
L 390.543401 309.89584 
L 390.63804 310.436959 
L 390.927129 309.89584 
L 391.522839 309.89584 
L 391.743695 310.436959 
L 392.111603 310.436959 
L 392.204368 310.978078 
L 392.361153 310.436959 
L 392.998461 312.060316 
L 393.147557 312.060316 
L 393.428093 312.601435 
L 395.710093 312.601435 
L 395.953204 313.142554 
L 396.181163 313.142554 
L 396.227574 312.060316 
L 396.285053 312.601435 
L 396.656966 312.601435 
L 396.741856 313.142554 
L 397.231219 313.142554 
L 397.464928 313.683673 
L 397.778819 313.683673 
L 397.78926 313.142554 
L 397.893606 313.683673 
L 397.989567 313.142554 
L 399.356383 313.142554 
L 399.612667 312.601435 
L 400.327584 313.142554 
L 401.810141 313.142554 
L 401.874292 313.683673 
L 403.430006 313.683673 
L 403.570141 314.224792 
L 405.008859 316.930387 
L 405.145215 316.930387 
L 405.287475 317.471507 
L 405.350828 316.930387 
L 405.657201 317.471507 
L 405.941841 318.012626 
L 406.282254 318.012626 
L 406.39657 318.553745 
L 406.826771 318.553745 
L 407.449866 318.012626 
L 407.481257 319.635983 
L 407.982733 319.635983 
L 408.138159 319.094864 
L 408.251051 319.635983 
L 409.403154 319.635983 
L 409.670604 319.094864 
L 410.906151 319.094864 
L 411.66908 319.635983 
L 413.210242 319.635983 
L 413.969136 320.177102 
L 414.070632 320.718221 
L 416.352985 320.718221 
L 416.567402 320.177102 
L 417.726058 320.177102 
L 418.57208 319.635983 
L 419.188587 319.635983 
L 419.494534 320.177102 
L 419.766156 321.25934 
L 419.927876 321.25934 
L 419.934187 320.718221 
L 421.748186 320.718221 
L 421.942873 321.25934 
L 426.52553 321.25934 
L 427.103351 321.800459 
L 427.326033 321.800459 
L 427.412957 322.341578 
L 427.696168 322.341578 
L 427.815105 321.800459 
L 427.999476 322.341578 
L 429.034669 322.341578 
L 429.496103 322.882697 
L 429.816634 323.964935 
L 432.623881 323.964935 
L 433.117981 323.423816 
L 433.260941 323.964935 
L 433.405558 323.423816 
L 433.56813 323.964935 
L 434.338066 323.964935 
L 434.693045 323.423816 
L 434.873178 323.964935 
L 435.369873 322.882697 
L 435.563457 323.964935 
L 436.765434 323.964935 
L 436.779653 324.506054 
L 438.684525 324.506054 
L 439.610696 325.047173 
L 439.888638 324.506054 
L 440.405037 324.506054 
L 440.53022 325.047173 
L 440.971455 323.423816 
L 441.262774 323.964935 
L 441.791545 323.423816 
L 441.944508 323.423816 
L 442.076254 323.964935 
L 442.876043 323.964935 
L 443.826327 323.423816 
L 443.969363 323.964935 
L 444.914946 323.964935 
L 445.22195 323.423816 
L 450.034646 323.964935 
L 450.395004 323.423816 
L 450.706438 323.964935 
L 450.985506 323.423816 
L 451.016729 323.964935 
L 451.259683 324.506054 
L 451.400387 324.506054 
L 451.529094 325.047173 
L 453.766683 325.047173 
L 453.814362 325.588292 
L 454.092497 325.588292 
L 454.835157 325.047173 
L 454.858782 325.588292 
L 455.144117 325.047173 
L 455.213469 326.129411 
L 455.397126 326.129411 
L 455.769724 326.67053 
L 456.394128 326.67053 
L 456.773271 326.129411 
L 457.199565 327.211649 
L 457.217049 327.752768 
L 457.631165 328.293887 
L 457.935742 327.752768 
L 458.364015 327.752768 
L 458.453044 328.293887 
L 459.42816 328.293887 
L 459.562493 327.752768 
L 459.726949 328.835006 
L 459.862496 328.835006 
L 460.119754 328.293887 
L 460.353718 328.835006 
L 460.875463 328.835006 
L 461.105244 329.917245 
L 462.744032 329.917245 
L 462.939956 330.458364 
L 463.059924 330.458364 
L 463.25733 329.917245 
L 463.308243 330.458364 
L 463.831154 330.458364 
L 463.936327 330.999483 
L 464.22198 330.999483 
L 464.303568 332.081721 
L 464.749246 332.081721 
L 464.916697 333.705078 
L 465.265364 333.705078 
L 465.469282 333.163959 
L 465.579448 333.705078 
L 465.727746 333.705078 
L 465.739072 335.328435 
L 466.016493 335.328435 
L 466.371256 334.787316 
L 466.532199 334.787316 
L 466.669685 335.328435 
L 467.011592 335.328435 
L 467.365889 334.787316 
L 467.402331 335.869554 
L 467.716032 335.869554 
L 467.773857 336.410673 
L 467.992436 336.951792 
L 468.569853 336.951792 
L 468.654721 338.03403 
L 468.902518 338.03403 
L 469.047795 338.575149 
L 469.187198 338.575149 
L 469.687107 339.116268 
L 469.882757 338.575149 
L 469.999271 330.999483 
L 470.125635 330.458364 
L 470.211217 332.62284 
L 470.827673 332.62284 
L 471.08105 332.081721 
L 471.265662 333.163959 
L 471.408486 333.163959 
L 471.774641 333.705078 
L 472.177365 333.705078 
L 472.361124 333.163959 
L 472.505002 333.705078 
L 473.476039 333.705078 
L 473.595603 334.246197 
L 474.038307 333.163959 
L 474.398293 333.705078 
L 474.60458 333.705078 
L 474.683811 334.246197 
L 474.865933 333.163959 
L 475.042969 334.246197 
L 475.777524 334.246197 
L 475.891378 333.705078 
L 476.153034 333.705078 
L 476.194194 334.246197 
L 476.490462 334.787316 
L 476.502025 334.246197 
L 477.059191 334.246197 
L 477.345962 334.787316 
L 478.834102 334.787316 
L 478.945686 335.328435 
L 479.240806 334.787316 
L 479.250659 335.328435 
L 479.674428 335.869554 
L 479.934809 335.869554 
L 480.234444 336.410673 
L 480.49844 336.951792 
L 480.858382 335.869554 
L 480.929486 336.951792 
L 481.171525 336.410673 
L 481.375251 336.951792 
L 482.284465 336.951792 
L 482.386337 337.492911 
L 482.513302 336.951792 
L 482.953284 337.492911 
L 483.165806 336.951792 
L 483.381189 337.492911 
L 483.510596 336.951792 
L 483.811973 338.03403 
L 484.020202 337.492911 
L 484.732422 337.492911 
L 485.015772 338.03403 
L 485.429505 338.03403 
L 485.758679 336.951792 
L 485.846416 337.492911 
L 486.198133 337.492911 
L 486.287392 338.575149 
L 486.730985 337.492911 
L 486.885897 338.03403 
L 487.24331 337.492911 
L 487.504204 337.492911 
L 487.637864 338.03403 
L 487.824382 338.03403 
L 487.957345 334.787316 
L 488.375735 335.328435 
L 488.429938 334.246197 
L 488.580156 335.328435 
L 488.717875 334.787316 
L 488.800535 335.328435 
L 489.128453 334.787316 
L 489.521906 335.328435 
L 489.720096 335.328435 
L 489.992152 334.787316 
L 490.37886 334.787316 
L 490.775353 335.869554 
L 490.983043 335.328435 
L 491.403014 335.328435 
L 491.599408 334.787316 
L 491.62832 334.246197 
L 491.87298 335.328435 
L 492.002729 334.787316 
L 492.155346 335.328435 
L 492.38212 334.787316 
L 492.638787 334.787316 
L 492.803673 334.246197 
L 493.116376 334.246197 
L 493.441939 335.328435 
L 493.66285 334.787316 
L 493.931875 335.869554 
L 494.071977 335.869554 
L 494.159917 335.328435 
L 494.433526 335.328435 
L 494.456492 335.869554 
L 495.363516 335.869554 
L 495.512109 336.410673 
L 495.639384 336.410673 
L 495.835584 336.951792 
L 496.004811 336.410673 
L 496.133871 336.951792 
L 496.326281 336.410673 
L 496.434596 336.951792 
L 496.574396 336.410673 
L 496.619437 336.951792 
L 496.7742 338.03403 
L 496.963279 337.492911 
L 497.022784 336.951792 
L 497.222191 337.492911 
L 497.38515 336.951792 
L 497.697725 337.492911 
L 497.90344 337.492911 
L 497.993064 338.03403 
L 498.215425 337.492911 
L 498.799405 339.116268 
L 498.956496 339.116268 
L 499.118984 338.03403 
L 499.195803 338.575149 
L 499.425532 338.575149 
L 499.530053 338.03403 
L 499.717901 338.03403 
L 499.888924 338.575149 
L 500.108789 338.575149 
L 500.477918 340.198506 
L 500.674304 339.657387 
L 503.255833 339.657387 
L 503.375965 340.198506 
L 503.528308 340.198506 
L 503.65082 339.657387 
L 503.896624 340.198506 
L 504.509014 338.03403 
L 504.611457 339.116268 
L 505.259432 338.03403 
L 505.713082 338.03403 
L 506.333838 339.116268 
L 507.431214 338.575149 
L 507.709899 339.116268 
L 508.016918 338.575149 
L 508.236189 339.657387 
L 508.324132 338.575149 
L 508.613181 339.657387 
L 508.928111 338.575149 
L 509.032362 339.657387 
L 509.234313 339.657387 
L 509.345328 339.116268 
L 509.546549 339.657387 
L 509.667309 339.657387 
L 509.779792 339.116268 
L 509.916462 340.739625 
L 510.274891 339.657387 
L 510.610133 339.657387 
L 510.814977 340.198506 
L 511.201565 340.198506 
L 511.515955 339.657387 
L 511.699751 339.657387 
L 511.838694 340.739625 
L 512.012009 340.198506 
L 512.108772 340.739625 
L 512.342412 341.280744 
L 512.48567 341.280744 
L 512.736135 340.198506 
L 512.975638 341.821863 
L 513.276669 341.821863 
L 513.299518 342.904102 
L 513.320541 342.362982 
L 513.477978 341.821863 
L 513.643476 342.904102 
L 513.712507 341.821863 
L 513.961985 341.821863 
L 513.995977 342.362982 
L 514.277053 342.904102 
L 514.445273 342.904102 
L 514.524121 341.821863 
L 514.901325 342.904102 
L 514.962412 341.821863 
L 515.167865 342.904102 
L 515.325911 341.280744 
L 515.806353 342.362982 
L 516.168285 340.739625 
L 516.196272 341.280744 
L 516.425524 340.739625 
L 516.570458 340.739625 
L 516.720921 341.821863 
L 516.900606 340.739625 
L 517.246062 341.821863 
L 517.377127 340.739625 
L 517.519037 341.280744 
L 517.808221 341.280744 
L 517.999195 340.739625 
L 518.364771 340.739625 
L 518.375929 341.280744 
L 518.951301 340.198506 
L 519.25645 341.821863 
L 519.418403 341.821863 
L 519.607158 341.280744 
L 519.660512 342.362982 
L 519.928468 341.280744 
L 520.093464 342.362982 
L 520.259796 341.280744 
L 520.328536 341.821863 
L 520.669667 341.821863 
L 520.874099 342.362982 
L 520.9676 343.445221 
L 521.157948 342.362982 
L 521.471113 342.904102 
L 521.609645 343.445221 
L 521.780814 342.904102 
L 521.926958 345.068578 
L 522.156352 345.068578 
L 522.459716 345.609697 
L 522.496314 344.527459 
L 522.794885 345.609697 
L 523.219885 344.527459 
L 523.334723 346.150816 
L 523.679334 346.691935 
L 524.054672 345.609697 
L 524.292561 345.068578 
L 524.953833 345.609697 
L 525.033038 346.150816 
L 525.280431 346.150816 
L 525.736483 346.691935 
L 525.962427 346.691935 
L 526.243969 347.233054 
L 526.528754 348.856411 
L 527.259916 348.315292 
L 527.49544 348.315292 
L 527.822031 346.691935 
L 528.132486 346.691935 
L 528.212511 346.150816 
L 528.448381 347.233054 
L 528.500929 346.150816 
L 528.759083 346.691935 
L 529.227376 346.691935 
L 529.467689 347.774173 
L 529.688261 346.691935 
L 529.989518 347.774173 
L 530.106964 347.233054 
L 530.26786 347.774173 
L 530.68793 346.691935 
L 530.93072 347.233054 
L 531.640867 347.233054 
L 531.81037 346.691935 
L 532.221673 347.774173 
L 532.388855 346.691935 
L 532.533057 346.691935 
L 532.589129 347.233054 
L 532.793561 347.233054 
L 533.014046 347.774173 
L 533.164916 346.691935 
L 533.399165 347.774173 
L 533.502039 346.691935 
L 533.789284 347.774173 
L 533.965911 347.774173 
L 534.079892 347.233054 
L 534.266676 347.233054 
L 534.319458 346.691935 
L 534.330295 347.233054 
L 534.649164 347.233054 
L 534.757052 346.691935 
L 535.049556 347.774173 
L 535.318916 346.691935 
L 535.780533 347.233054 
L 536.767003 347.233054 
L 537.003573 346.691935 
L 537.25508 347.233054 
L 537.416974 346.691935 
L 537.51698 347.233054 
L 538.217583 347.233054 
L 538.431482 346.691935 
L 538.922609 347.774173 
L 539.042024 347.233054 
L 539.434858 347.774173 
L 539.863885 347.233054 
L 540.091749 347.774173 
L 540.627845 346.691935 
L 540.768508 346.150816 
L 541.001565 346.150816 
L 541.450439 347.774173 
L 541.572535 347.774173 
L 541.727538 346.691935 
L 542.091595 346.691935 
L 542.29579 347.233054 
L 542.45064 347.233054 
L 542.610745 346.691935 
L 542.913037 346.691935 
L 543.3258 347.233054 
L 543.554929 347.233054 
L 543.648729 347.774173 
L 543.868955 346.691935 
L 543.984984 347.774173 
L 544.12924 347.233054 
L 544.220347 347.774173 
L 544.798748 347.774173 
L 544.819683 348.856411 
L 544.913086 348.315292 
L 545.087833 348.315292 
L 545.192256 347.774173 
L 545.356508 348.315292 
L 545.537614 347.774173 
L 545.999453 348.315292 
L 546.391722 348.315292 
L 546.540712 349.39753 
L 546.59947 348.856411 
L 546.775023 349.39753 
L 547.010456 348.856411 
L 547.120672 348.315292 
L 547.284965 348.856411 
L 547.446983 348.315292 
L 547.64186 349.39753 
L 547.724425 348.315292 
L 547.899515 334.787316 
L 548.37757 334.787316 
L 548.509335 334.246197 
L 548.634573 336.410673 
L 549.332384 335.869554 
L 549.85086 335.869554 
L 549.95169 336.410673 
L 550.081355 336.410673 
L 550.48772 335.328435 
L 550.795102 335.328435 
L 550.808207 335.869554 
L 551.19302 336.410673 
L 551.465561 335.869554 
L 551.739344 334.787316 
L 551.774343 335.869554 
L 551.983509 334.787316 
L 552.064864 335.328435 
L 552.68972 335.328435 
L 552.72349 335.869554 
L 552.979355 335.869554 
L 553.153651 335.328435 
L 553.321616 335.328435 
L 553.375327 334.787316 
L 553.736482 335.869554 
L 554.058 334.787316 
L 554.225361 334.787316 
L 554.739679 335.328435 
L 554.839645 334.787316 
L 554.921933 335.869554 
L 555.255083 336.951792 
L 555.479208 335.869554 
L 555.811346 336.951792 
L 556.140957 335.869554 
L 556.260926 336.951792 
L 556.557839 335.869554 
L 556.681572 335.869554 
L 556.731365 336.951792 
L 556.879215 336.410673 
L 557.051677 336.951792 
L 557.330898 336.951792 
L 557.364577 338.03403 
L 557.579789 337.492911 
L 557.702629 337.492911 
L 557.792642 336.951792 
L 558.045629 337.492911 
L 558.307795 338.575149 
L 558.321428 340.198506 
L 558.472393 339.116268 
L 558.476919 340.739625 
L 558.657439 340.739625 
L 558.783453 341.280744 
L 559.029807 340.739625 
L 559.410732 341.280744 
L 559.618152 340.739625 
L 559.85958 340.739625 
L 559.960482 341.280744 
L 560.241722 341.821863 
L 560.394298 340.739625 
L 560.514736 340.739625 
L 560.813158 342.362982 
L 560.999665 342.904102 
L 561.584271 342.362982 
L 561.806582 342.362982 
L 561.949621 341.821863 
L 562.261879 344.527459 
L 562.426846 344.527459 
L 562.570293 345.068578 
L 562.850148 341.821863 
L 563.067998 341.280744 
L 563.335372 342.362982 
L 563.431165 341.280744 
L 563.679567 342.904102 
L 563.715735 343.445221 
L 563.715735 343.445221 
" clip-path="url(#pa214ce7cdd)" style="fill: none; stroke-dasharray: 3,1.5; stroke-dashoffset: 0; stroke: #808080; stroke-width: 1.5"/>
   </g>
   <g id="line2d_19">
    <path d="M 38.539265 299.614578 
L 39.826445 299.073459 
L 41.109471 297.991221 
L 44.147803 297.991221 
L 47.497927 297.450102 
L 47.746457 297.991221 
L 47.901457 297.991221 
L 48.007439 296.908983 
L 48.252044 297.450102 
L 48.613823 296.908983 
L 49.318204 296.908983 
L 49.71051 294.203388 
L 49.79802 296.908983 
L 50.001647 293.662269 
L 50.066403 294.203388 
L 50.294584 294.203388 
L 50.659588 293.662269 
L 51.257947 293.662269 
L 51.564287 291.497793 
L 52.040477 291.497793 
L 52.52385 292.580031 
L 52.831349 288.251078 
L 52.899417 288.792197 
L 53.188787 288.251078 
L 53.74854 286.627721 
L 54.128208 287.709959 
L 54.72832 287.709959 
L 55.063693 288.792197 
L 55.290409 288.251078 
L 55.973436 287.709959 
L 56.27993 287.709959 
L 56.613211 286.627721 
L 57.091435 286.627721 
L 57.586031 283.381007 
L 58.915622 281.75765 
L 59.096688 281.216531 
L 59.480214 281.216531 
L 59.722061 280.675412 
L 60.107395 280.675412 
L 60.39108 281.75765 
L 60.680052 282.298769 
L 61.002241 282.298769 
L 61.190916 281.75765 
L 63.491891 281.75765 
L 63.859678 281.216531 
L 64.454966 281.216531 
L 64.784395 280.675412 
L 65.100076 280.675412 
L 65.22265 281.216531 
L 66.002301 280.675412 
L 66.329067 281.216531 
L 67.229991 281.216531 
L 67.51924 280.675412 
L 67.874857 281.216531 
L 69.514632 281.216531 
L 69.8506 280.675412 
L 70.035011 279.052055 
L 70.483848 280.134293 
L 71.115963 280.134293 
L 71.411298 279.052055 
L 71.527516 280.134293 
L 72.045326 278.510935 
L 72.358419 278.510935 
L 72.6625 277.969816 
L 73.001903 277.969816 
L 73.313531 278.510935 
L 73.611308 277.428697 
L 73.875675 277.428697 
L 74.594429 276.346459 
L 78.368104 276.346459 
L 78.668085 275.264221 
L 79.307423 275.264221 
L 79.591191 272.558626 
L 80.542944 272.558626 
L 81.453984 270.39415 
L 82.422329 270.39415 
L 82.769159 269.853031 
L 88.619595 269.853031 
L 89.321969 268.229674 
L 89.481079 269.853031 
L 90.607706 269.853031 
L 90.913646 268.770793 
L 91.251187 269.853031 
L 92.054285 269.853031 
L 92.497878 268.770793 
L 92.827187 269.853031 
L 97.800568 269.853031 
L 98.072351 264.982959 
L 98.260782 269.853031 
L 100.063141 269.853031 
L 100.390329 269.311912 
L 100.577084 264.44184 
L 101.018239 269.311912 
L 101.329816 269.311912 
L 101.536646 269.853031 
L 104.799967 269.853031 
L 104.965225 269.311912 
L 105.261791 269.311912 
L 105.750203 267.688555 
L 110.672895 267.688555 
L 111.747254 267.147436 
L 118.358975 267.147436 
L 118.634293 264.44184 
L 118.986098 264.44184 
L 119.298061 267.147436 
L 119.619022 267.147436 
L 119.84018 264.44184 
L 120.079873 267.147436 
L 120.478206 264.44184 
L 120.831049 263.359602 
L 124.922404 263.359602 
L 125.275539 262.818483 
L 126.824827 262.818483 
L 127.143317 261.736245 
L 127.528404 259.571769 
L 127.803485 259.03065 
L 128.114413 255.783936 
L 128.498275 255.783936 
L 129.012969 254.701698 
L 129.368177 254.701698 
L 129.981699 253.61946 
L 132.556753 248.749388 
L 132.819684 249.831626 
L 134.660791 249.831626 
L 135.019979 247.66715 
L 135.336719 248.208269 
L 136.604739 248.208269 
L 136.836579 249.290507 
L 137.244364 248.208269 
L 138.165281 248.208269 
L 138.478694 247.126031 
L 138.781008 247.126031 
L 139.139047 246.584912 
L 139.283526 246.584912 
L 139.444998 244.961555 
L 139.663886 244.961555 
L 140.399134 244.420436 
L 141.006644 246.043793 
L 141.155197 246.043793 
L 141.631434 245.502674 
L 141.936991 244.420436 
L 143.516055 244.420436 
L 143.820934 243.879317 
L 144.14833 243.879317 
L 144.451442 243.338198 
L 144.735389 243.338198 
L 145.395185 242.797079 
L 145.735941 242.797079 
L 146.075741 241.173722 
L 146.629813 241.173722 
L 146.976079 240.632603 
L 147.191239 240.632603 
L 147.311361 250.372745 
L 147.402326 249.831626 
L 147.923036 249.831626 
L 148.231541 248.749388 
L 148.643554 248.749388 
L 148.855781 248.208269 
L 149.322481 248.208269 
L 149.368922 247.66715 
L 150.104122 247.66715 
L 150.498851 246.043793 
L 151.319156 244.420436 
L 152.652479 244.420436 
L 152.940744 243.338198 
L 153.049288 243.879317 
L 153.174985 243.879317 
L 153.523561 244.420436 
L 154.792124 243.879317 
L 157.965912 243.879317 
L 158.333674 244.420436 
L 159.869774 244.420436 
L 160.088397 244.961555 
L 160.488862 244.420436 
L 162.965024 244.420436 
L 163.466737 243.879317 
L 163.853132 243.879317 
L 164.272623 243.338198 
L 164.483698 243.879317 
L 166.505864 243.879317 
L 167.144046 242.797079 
L 168.50224 242.797079 
L 168.730909 235.221412 
L 168.988692 235.221412 
L 171.185539 233.598055 
L 171.320536 234.139174 
L 171.46137 233.598055 
L 171.826928 234.139174 
L 172.133563 234.139174 
L 172.456299 233.598055 
L 172.698655 233.598055 
L 173.08775 232.515817 
L 173.247772 232.515817 
L 173.395865 233.056936 
L 173.727799 231.974698 
L 175.934631 231.974698 
L 176.149321 231.433579 
L 176.507255 231.433579 
L 176.83944 230.89246 
L 177.184306 231.433579 
L 177.336477 231.433579 
L 177.809147 231.974698 
L 178.16328 229.269103 
L 178.415392 230.89246 
L 178.744202 230.89246 
L 179.007757 227.645746 
L 179.192161 228.186865 
L 179.388467 227.104626 
L 179.487339 227.645746 
L 179.608354 226.022388 
L 179.922088 226.022388 
L 180.319597 225.481269 
L 181.098144 226.022388 
L 181.27542 224.94015 
L 181.56514 224.94015 
L 181.770308 226.563507 
L 182.466749 224.94015 
L 183.159251 224.399031 
L 183.767428 224.399031 
L 184.086471 222.775674 
L 184.379729 222.775674 
L 184.553438 223.316793 
L 184.858321 223.316793 
L 186.037504 220.070079 
L 186.234163 222.234555 
L 186.612712 222.775674 
L 187.056706 220.070079 
L 188.250137 220.070079 
L 188.352304 219.52896 
L 188.827838 218.987841 
L 190.095497 218.987841 
L 190.675745 216.282246 
L 193.936453 216.282246 
L 194.193932 215.200008 
L 194.532574 217.364484 
L 194.729726 215.741127 
L 198.284555 215.741127 
L 198.581566 215.200008 
L 199.297817 211.953293 
L 199.566532 213.57665 
L 199.886767 213.035531 
L 200.24136 213.57665 
L 200.490888 213.57665 
L 200.868981 208.16546 
L 201.071719 208.16546 
L 201.111068 207.624341 
L 201.749043 207.624341 
L 202.108128 206.542103 
L 202.424712 204.918746 
L 203.377059 204.377627 
L 203.437318 204.918746 
L 203.954399 205.459865 
L 204.031199 204.918746 
L 206.522733 204.918746 
L 206.696099 204.377627 
L 207.161072 203.836508 
L 207.78197 202.75427 
L 207.943463 201.672032 
L 208.161692 201.672032 
L 208.406163 200.589793 
L 208.700506 201.130912 
L 209.030089 201.130912 
L 209.278429 201.672032 
L 209.628529 201.130912 
L 209.940933 201.130912 
L 210.240353 200.589793 
L 210.482735 200.589793 
L 210.938988 201.130912 
L 211.176181 200.589793 
L 211.421675 201.130912 
L 211.835809 203.836508 
L 212.134577 204.377627 
L 212.820337 203.295389 
L 212.920598 199.507555 
L 213.073458 199.507555 
L 213.353156 198.966436 
L 213.6781 199.507555 
L 213.974773 199.507555 
L 214.340232 200.048674 
L 214.656776 198.966436 
L 215.799218 198.966436 
L 216.253245 198.425317 
L 216.512714 198.425317 
L 216.532848 197.884198 
L 217.827386 197.884198 
L 218.195935 196.80196 
L 220.007233 196.80196 
L 220.368308 195.719722 
L 223.837789 195.719722 
L 224.045581 195.178603 
L 224.606001 195.178603 
L 225.077563 194.637484 
L 225.393447 193.555246 
L 225.487903 194.096365 
L 225.831246 193.014127 
L 226.595041 193.014127 
L 229.688542 191.931889 
L 237.335149 191.931889 
L 237.646621 192.473008 
L 239.141611 192.473008 
L 239.451494 191.931889 
L 240.478396 191.931889 
L 240.832821 191.39077 
L 241.087673 191.931889 
L 241.383445 191.39077 
L 241.71071 191.931889 
L 241.979312 190.849651 
L 242.390695 191.39077 
L 242.690862 190.849651 
L 249.215608 190.849651 
L 249.552651 191.931889 
L 249.90971 191.39077 
L 250.232635 191.931889 
L 250.594344 191.39077 
L 250.884424 191.931889 
L 252.095067 191.931889 
L 252.402472 191.39077 
L 252.749699 191.931889 
L 253.181638 190.849651 
L 253.693311 190.849651 
L 254.047214 191.39077 
L 254.312044 190.308532 
L 254.65272 190.308532 
L 254.915921 190.849651 
L 255.746637 189.767413 
L 256.232612 190.308532 
L 256.52134 189.767413 
L 257.135609 189.767413 
L 257.482301 190.308532 
L 257.822733 188.685175 
L 258.150395 189.226294 
L 258.779452 189.226294 
L 259.019243 189.767413 
L 259.325919 189.226294 
L 259.6606 189.226294 
L 259.959277 193.555246 
L 260.077937 193.014127 
L 260.312648 193.014127 
L 260.476153 192.473008 
L 260.618653 192.473008 
L 260.806268 191.931889 
L 260.933412 193.014127 
L 261.56111 191.931889 
L 262.100412 191.931889 
L 262.36268 190.849651 
L 262.622605 191.931889 
L 262.791832 191.39077 
L 263.745938 191.39077 
L 264.029973 191.931889 
L 264.299344 191.931889 
L 264.637836 191.39077 
L 264.950838 191.39077 
L 265.321876 191.931889 
L 265.679934 191.39077 
L 265.957752 191.39077 
L 266.39495 190.308532 
L 268.178403 190.308532 
L 268.471755 190.849651 
L 269.853982 190.849651 
L 270.17143 190.308532 
L 270.42114 189.767413 
L 270.910052 189.767413 
L 271.062584 188.685175 
L 271.132555 189.226294 
L 271.297988 188.685175 
L 271.763314 188.685175 
L 271.991426 187.602936 
L 272.612525 187.602936 
L 272.902445 186.520698 
L 273.861249 186.520698 
L 274.091186 184.897341 
L 274.303362 184.356222 
L 274.425809 184.356222 
L 274.838853 183.815103 
L 274.984228 184.356222 
L 275.05468 183.815103 
L 275.20374 183.815103 
L 275.378236 183.273984 
L 275.508827 183.273984 
L 276.042182 182.732865 
L 277.238755 182.732865 
L 277.547358 183.273984 
L 277.843054 182.732865 
L 278.176379 182.732865 
L 278.336127 182.191746 
L 278.374551 182.732865 
L 278.564155 182.191746 
L 278.712449 182.191746 
L 278.858896 181.109508 
L 279.422807 180.02727 
L 279.833436 180.568389 
L 280.145632 180.02727 
L 280.759381 180.02727 
L 281.092491 178.945032 
L 281.214438 179.486151 
L 281.412548 177.862794 
L 281.693273 178.403913 
L 281.875338 177.862794 
L 282.019296 178.403913 
L 282.178377 177.321675 
L 282.502621 177.321675 
L 282.598654 176.780556 
L 282.979065 177.321675 
L 283.273282 176.239437 
L 283.937075 176.239437 
L 284.176028 175.157198 
L 284.514962 176.239437 
L 284.745224 176.239437 
L 284.829643 175.698317 
L 285.449146 175.698317 
L 285.738927 173.533841 
L 286.155678 175.698317 
L 286.220292 175.157198 
L 286.769029 175.698317 
L 286.820991 174.616079 
L 287.009724 174.616079 
L 287.390033 174.07496 
L 287.698673 174.616079 
L 287.931843 174.616079 
L 288.276887 173.533841 
L 288.652269 173.533841 
L 289.016296 174.07496 
L 289.28836 173.533841 
L 289.453669 174.07496 
L 289.618085 172.992722 
L 291.074962 172.992722 
L 291.522731 172.451603 
L 292.436967 172.451603 
L 292.761353 173.533841 
L 293.372729 173.533841 
L 293.67872 172.992722 
L 296.462385 172.992722 
L 296.838059 173.533841 
L 297.190206 172.451603 
L 301.462226 172.451603 
L 302.399392 171.910484 
L 302.956015 171.910484 
L 303.408069 171.369365 
L 303.765315 171.369365 
L 303.975242 170.287127 
L 304.308068 170.828246 
L 308.730427 170.828246 
L 309.11665 171.369365 
L 309.422856 170.828246 
L 309.725363 171.369365 
L 309.930804 173.533841 
L 311.809376 173.533841 
L 312.11919 172.451603 
L 312.554022 173.533841 
L 314.353918 173.533841 
L 314.623685 172.451603 
L 314.725637 173.533841 
L 315.187717 173.533841 
L 315.401311 172.451603 
L 315.670554 173.533841 
L 315.871571 172.451603 
L 316.014246 172.451603 
L 316.198264 173.533841 
L 316.359204 172.451603 
L 316.46234 173.533841 
L 316.503879 172.451603 
L 317.610752 172.451603 
L 317.973095 170.828246 
L 318.375867 170.828246 
L 318.409086 170.287127 
L 318.733848 170.287127 
L 318.90201 169.746008 
L 319.045385 170.287127 
L 319.221524 169.746008 
L 319.34064 170.287127 
L 319.62001 169.746008 
L 319.73816 170.287127 
L 319.754362 169.746008 
L 320.108484 169.746008 
L 320.330364 169.204889 
L 320.470306 169.204889 
L 320.679873 168.122651 
L 320.912405 167.581532 
L 321.073002 168.122651 
L 322.861757 168.122651 
L 323.117517 167.581532 
L 324.4884 167.581532 
L 324.707081 167.040413 
L 324.996137 167.040413 
L 325.21063 166.499294 
L 325.328853 167.040413 
L 325.896041 167.040413 
L 326.087449 165.958175 
L 326.608432 165.958175 
L 326.658463 165.417056 
L 326.731159 165.958175 
L 327.020234 165.958175 
L 327.045397 165.417056 
L 327.255524 164.875937 
L 327.314253 165.417056 
L 327.552445 163.25258 
L 328.51712 163.25258 
L 328.614101 162.71146 
L 328.825435 162.71146 
L 328.949234 161.629222 
L 329.094525 162.71146 
L 330.375168 162.71146 
L 330.449271 162.170341 
L 330.694912 162.71146 
L 330.812522 162.170341 
L 331.029971 162.71146 
L 331.312428 162.71146 
L 331.485641 161.629222 
L 331.801387 161.629222 
L 331.930903 162.170341 
L 332.04187 161.088103 
L 332.369591 162.71146 
L 332.713018 161.629222 
L 332.961799 162.71146 
L 333.544175 162.71146 
L 333.99741 161.088103 
L 334.138442 161.629222 
L 334.294626 161.088103 
L 334.716059 162.170341 
L 334.851005 161.088103 
L 335.851155 161.088103 
L 336.012368 160.546984 
L 336.293305 160.546984 
L 336.443068 161.088103 
L 336.632082 160.546984 
L 336.751598 161.088103 
L 337.11568 160.005865 
L 337.612754 160.005865 
L 337.963324 158.923627 
L 338.572349 160.005865 
L 338.702503 159.464746 
L 338.862623 160.005865 
L 338.964163 159.464746 
L 339.167881 159.464746 
L 339.253259 160.005865 
L 339.647725 158.923627 
L 339.850791 159.464746 
L 339.951263 158.923627 
L 340.158298 159.464746 
L 340.433262 159.464746 
L 340.610615 158.923627 
L 340.727227 159.464746 
L 340.842148 159.464746 
L 341.09848 160.005865 
L 341.21331 158.923627 
L 341.733816 158.923627 
L 341.768902 157.841389 
L 343.995077 157.841389 
L 344.214695 157.30027 
L 344.358845 157.841389 
L 344.480971 157.30027 
L 344.573736 157.841389 
L 344.68501 156.759151 
L 345.197696 156.759151 
L 345.439539 156.218032 
L 345.488552 156.759151 
L 345.538768 156.218032 
L 345.814935 156.759151 
L 345.886309 156.218032 
L 346.156383 155.676913 
L 346.262165 155.135794 
L 346.464108 155.135794 
L 346.510542 154.594675 
L 346.791712 152.971318 
L 346.918266 153.512437 
L 347.08907 153.512437 
L 347.119841 152.430199 
L 348.31989 152.430199 
L 348.468942 151.88908 
L 348.70404 152.430199 
L 349.398287 150.806842 
L 349.617263 150.806842 
L 349.747574 150.265723 
L 350.051094 150.265723 
L 350.058535 149.724603 
L 350.152098 150.265723 
L 350.241787 149.183484 
L 350.37435 149.183484 
L 350.55785 148.642365 
L 351.816636 148.642365 
L 351.849856 149.183484 
L 351.929101 148.101246 
L 352.261067 148.101246 
L 352.430603 148.642365 
L 352.561107 148.101246 
L 352.757587 148.642365 
L 352.904799 148.101246 
L 353.070195 148.101246 
L 353.212317 148.642365 
L 353.353235 147.019008 
L 355.040181 147.019008 
L 355.54748 145.93677 
L 355.814515 146.477889 
L 362.18705 146.477889 
L 362.295244 145.93677 
L 362.488759 146.477889 
L 362.544532 145.93677 
L 363.122769 145.93677 
L 363.282884 145.395651 
L 364.09444 145.395651 
L 364.202875 144.854532 
L 364.355721 145.395651 
L 365.598902 145.395651 
L 365.771339 144.854532 
L 365.988493 145.395651 
L 366.108395 145.395651 
L 366.299476 144.313413 
L 366.404591 144.854532 
L 366.870497 144.854532 
L 367.0735 144.313413 
L 368.029046 144.313413 
L 368.184702 145.395651 
L 368.500102 144.313413 
L 370.197116 144.313413 
L 370.487025 143.772294 
L 370.526549 143.772294 
L 370.693953 143.231175 
L 370.819078 143.231175 
L 370.973965 142.690056 
L 371.336356 142.690056 
L 371.400554 142.148937 
L 371.70266 142.148937 
L 371.893489 143.231175 
L 372.042497 142.690056 
L 372.270587 142.690056 
L 372.363593 142.148937 
L 372.712533 142.148937 
L 373.024628 141.607818 
L 373.364949 139.984461 
L 373.476372 140.52558 
L 373.580121 139.984461 
L 373.818254 139.443342 
L 373.931175 139.984461 
L 374.234275 139.443342 
L 374.434732 139.984461 
L 374.598448 139.984461 
L 374.919187 138.361104 
L 375.228304 138.902223 
L 375.548434 137.819985 
L 375.611295 138.361104 
L 375.81936 137.819985 
L 375.963435 138.361104 
L 376.082211 137.819985 
L 376.595138 137.819985 
L 376.786116 141.066699 
L 377.29617 139.984461 
L 377.632943 139.984461 
L 377.75074 139.443342 
L 377.934218 139.984461 
L 378.051989 139.984461 
L 378.191344 140.52558 
L 378.351577 139.984461 
L 378.571675 139.984461 
L 378.679971 140.52558 
L 378.817563 139.984461 
L 379.005218 140.52558 
L 379.078975 139.984461 
L 379.469025 139.443342 
L 379.618886 139.443342 
L 379.755643 139.984461 
L 380.015302 139.443342 
L 381.075519 139.443342 
L 381.168896 136.737746 
L 381.442618 138.902223 
L 381.730016 139.443342 
L 382.246972 139.443342 
L 382.643297 138.361104 
L 382.779238 139.984461 
L 383.008042 139.443342 
L 383.299719 139.984461 
L 383.433145 138.361104 
L 383.594237 139.443342 
L 383.746482 139.443342 
L 383.847873 138.902223 
L 383.937121 134.57327 
L 384.247069 136.737746 
L 384.272782 134.032151 
L 385.101254 134.032151 
L 385.493155 132.949913 
L 385.654819 133.491032 
L 386.235199 133.491032 
L 386.393332 134.032151 
L 386.562343 133.491032 
L 386.747728 133.491032 
L 386.856636 134.032151 
L 387.187964 133.491032 
L 387.382608 133.491032 
L 387.510215 132.949913 
L 387.666282 133.491032 
L 387.833949 133.491032 
L 387.991077 134.032151 
L 388.088408 133.491032 
L 388.963677 133.491032 
L 389.182653 131.867675 
L 389.447407 132.408794 
L 389.666375 132.408794 
L 389.843648 132.949913 
L 389.924249 132.408794 
L 390.198841 132.949913 
L 390.301497 132.408794 
L 390.543401 132.408794 
L 390.63804 131.867675 
L 390.927129 132.408794 
L 391.522839 132.408794 
L 391.743695 131.867675 
L 392.111603 131.867675 
L 392.204368 131.326556 
L 392.361153 131.867675 
L 392.998461 130.244318 
L 393.147557 130.244318 
L 393.428093 129.703199 
L 395.710093 129.703199 
L 395.953204 129.16208 
L 396.181163 129.16208 
L 396.227574 130.244318 
L 396.285053 129.703199 
L 396.656966 129.703199 
L 396.741856 129.16208 
L 397.231219 129.16208 
L 397.464928 128.620961 
L 397.778819 128.620961 
L 397.78926 129.16208 
L 397.893606 128.620961 
L 397.989567 129.16208 
L 399.356383 129.16208 
L 399.612667 129.703199 
L 400.327584 129.16208 
L 401.810141 129.16208 
L 401.874292 128.620961 
L 403.430006 128.620961 
L 403.570141 128.079842 
L 405.008859 125.374247 
L 405.145215 125.374247 
L 405.287475 124.833128 
L 405.350828 125.374247 
L 405.657201 124.833128 
L 405.941841 124.292008 
L 406.282254 124.292008 
L 406.39657 123.750889 
L 406.826771 123.750889 
L 407.449866 124.292008 
L 407.481257 122.668651 
L 407.982733 122.668651 
L 408.138159 123.20977 
L 408.251051 122.668651 
L 409.091829 122.668651 
L 409.403154 123.20977 
L 410.906151 123.20977 
L 411.66908 122.668651 
L 413.210242 122.668651 
L 413.969136 122.127532 
L 414.070632 121.586413 
L 416.352985 121.586413 
L 416.567402 122.127532 
L 417.726058 122.127532 
L 418.57208 122.668651 
L 419.188587 122.668651 
L 419.494534 122.127532 
L 419.766156 121.045294 
L 419.927876 121.045294 
L 419.934187 121.586413 
L 421.748186 121.586413 
L 421.942873 121.045294 
L 426.52553 121.045294 
L 427.103351 120.504175 
L 427.326033 120.504175 
L 427.412957 119.421937 
L 427.696168 119.421937 
L 427.815105 119.963056 
L 427.999476 119.421937 
L 429.034669 119.421937 
L 429.496103 118.880818 
L 429.816634 117.79858 
L 432.623881 117.79858 
L 433.117981 118.339699 
L 433.260941 117.79858 
L 433.405558 118.339699 
L 433.56813 117.79858 
L 434.338066 117.79858 
L 434.693045 118.339699 
L 434.873178 117.79858 
L 435.369873 118.880818 
L 435.563457 117.79858 
L 436.765434 117.79858 
L 436.779653 117.257461 
L 438.684525 117.257461 
L 439.610696 116.716342 
L 439.888638 117.257461 
L 440.091051 116.716342 
L 440.222047 117.257461 
L 440.405037 117.257461 
L 440.53022 116.716342 
L 440.971455 117.79858 
L 441.262774 117.257461 
L 441.791545 117.79858 
L 441.944508 117.79858 
L 442.076254 117.257461 
L 442.876043 117.257461 
L 443.826327 117.79858 
L 443.969363 117.257461 
L 444.914946 117.257461 
L 445.22195 117.79858 
L 450.034646 117.257461 
L 450.395004 117.79858 
L 450.706438 117.257461 
L 450.985506 117.79858 
L 451.016729 117.257461 
L 451.259683 116.716342 
L 451.400387 116.716342 
L 451.529094 116.175223 
L 453.766683 116.175223 
L 453.814362 115.634104 
L 454.092497 115.634104 
L 454.835157 116.175223 
L 454.858782 115.634104 
L 455.144117 116.175223 
L 455.213469 115.092985 
L 455.397126 115.092985 
L 455.769724 114.551866 
L 456.394128 114.551866 
L 456.773271 115.092985 
L 457.199565 114.010747 
L 457.217049 113.469628 
L 457.631165 112.928509 
L 457.935742 113.469628 
L 458.364015 113.469628 
L 458.453044 112.928509 
L 459.42816 112.928509 
L 459.562493 113.469628 
L 459.726949 112.38739 
L 459.862496 112.38739 
L 460.119754 112.928509 
L 460.353718 112.38739 
L 460.875463 112.38739 
L 461.105244 110.764032 
L 462.744032 110.764032 
L 462.939956 110.222913 
L 463.059924 110.222913 
L 463.25733 110.764032 
L 463.308243 110.222913 
L 463.831154 110.222913 
L 463.936327 109.681794 
L 464.22198 109.140675 
L 464.303568 108.058437 
L 464.749246 108.058437 
L 464.916697 106.43508 
L 465.265364 106.43508 
L 465.469282 106.976199 
L 465.579448 106.43508 
L 465.727746 106.43508 
L 465.739072 104.811723 
L 466.532199 104.811723 
L 466.669685 104.270604 
L 467.011592 104.270604 
L 467.365889 104.811723 
L 467.402331 103.729485 
L 467.716032 103.729485 
L 467.773857 103.188366 
L 467.992436 102.647247 
L 468.569853 102.647247 
L 468.654721 101.565009 
L 468.902518 101.565009 
L 469.047795 101.02389 
L 469.187198 101.02389 
L 469.687107 100.482771 
L 469.882757 101.02389 
L 469.999271 106.976199 
L 470.125635 107.517318 
L 470.211217 105.352842 
L 470.827673 105.352842 
L 471.08105 105.893961 
L 471.265662 104.811723 
L 472.177365 104.811723 
L 472.361124 105.352842 
L 472.505002 104.811723 
L 473.476039 104.811723 
L 473.595603 104.270604 
L 474.038307 105.352842 
L 474.398293 104.811723 
L 474.60458 104.811723 
L 474.683811 104.270604 
L 474.865933 105.352842 
L 475.042969 104.270604 
L 475.777524 104.270604 
L 475.891378 104.811723 
L 476.153034 104.811723 
L 476.194194 104.270604 
L 476.490462 103.729485 
L 476.502025 104.270604 
L 476.740727 103.729485 
L 477.059191 103.729485 
L 477.345962 103.188366 
L 478.834102 103.188366 
L 478.945686 102.647247 
L 479.240806 103.188366 
L 479.250659 102.647247 
L 479.674428 102.106128 
L 479.934809 102.106128 
L 480.234444 101.565009 
L 480.49844 101.02389 
L 480.858382 102.106128 
L 480.929486 101.02389 
L 481.171525 101.565009 
L 481.375251 101.02389 
L 482.284465 101.02389 
L 482.386337 100.482771 
L 482.513302 101.02389 
L 482.953284 100.482771 
L 483.165806 101.02389 
L 483.381189 100.482771 
L 483.510596 101.02389 
L 483.811973 99.941652 
L 484.020202 100.482771 
L 484.732422 100.482771 
L 485.015772 99.941652 
L 485.429505 99.941652 
L 485.758679 101.02389 
L 485.846416 100.482771 
L 486.198133 100.482771 
L 486.287392 99.400533 
L 486.730985 100.482771 
L 486.885897 99.941652 
L 487.24331 100.482771 
L 487.504204 100.482771 
L 487.637864 99.941652 
L 487.957345 99.941652 
L 488.375735 99.400533 
L 488.429938 100.482771 
L 488.580156 99.400533 
L 488.717875 99.941652 
L 488.800535 99.400533 
L 489.128453 99.941652 
L 489.521906 99.400533 
L 489.720096 99.400533 
L 489.992152 99.941652 
L 490.37886 99.941652 
L 490.775353 98.859414 
L 490.983043 99.400533 
L 491.403014 99.400533 
L 491.599408 99.941652 
L 491.62832 100.482771 
L 491.87298 99.400533 
L 492.002729 99.941652 
L 492.155346 99.400533 
L 492.38212 99.941652 
L 492.638787 99.941652 
L 492.803673 100.482771 
L 493.116376 100.482771 
L 493.441939 99.400533 
L 493.66285 99.941652 
L 493.931875 98.859414 
L 494.071977 98.859414 
L 494.159917 99.400533 
L 494.433526 99.400533 
L 494.456492 98.859414 
L 495.363516 98.859414 
L 495.512109 98.318294 
L 495.639384 98.318294 
L 495.835584 97.777175 
L 496.004811 98.318294 
L 496.133871 97.777175 
L 496.326281 97.777175 
L 496.434596 97.236056 
L 496.574396 97.777175 
L 496.619437 97.236056 
L 496.7742 96.153818 
L 496.963279 96.694937 
L 497.022784 97.236056 
L 497.222191 96.694937 
L 497.38515 97.236056 
L 497.697725 96.694937 
L 497.90344 96.694937 
L 497.993064 96.153818 
L 498.215425 96.694937 
L 498.799405 95.07158 
L 498.956496 95.07158 
L 499.118984 96.153818 
L 499.195803 95.612699 
L 499.425532 95.612699 
L 499.530053 96.153818 
L 499.717901 96.153818 
L 499.888924 95.612699 
L 500.108789 95.612699 
L 500.477918 93.989342 
L 500.674304 94.530461 
L 503.255833 94.530461 
L 503.375965 93.989342 
L 503.528308 93.989342 
L 503.65082 94.530461 
L 503.896624 93.989342 
L 504.509014 93.989342 
L 504.611457 92.907104 
L 505.259432 93.989342 
L 505.713082 93.989342 
L 506.333838 92.907104 
L 507.431214 93.448223 
L 507.709899 92.907104 
L 508.016918 93.448223 
L 508.236189 92.365985 
L 508.324132 93.448223 
L 508.613181 92.365985 
L 508.928111 93.448223 
L 509.032362 92.365985 
L 509.234313 92.365985 
L 509.345328 92.907104 
L 509.546549 92.365985 
L 509.667309 92.365985 
L 509.779792 92.907104 
L 509.916462 91.283747 
L 510.274891 92.365985 
L 510.610133 92.365985 
L 510.814977 91.824866 
L 511.201565 91.824866 
L 511.515955 92.365985 
L 511.699751 92.365985 
L 511.838694 91.283747 
L 512.012009 92.365985 
L 512.108772 91.824866 
L 512.342412 91.283747 
L 512.48567 91.283747 
L 512.736135 92.365985 
L 512.975638 90.742628 
L 513.276669 90.742628 
L 513.299518 89.66039 
L 513.320541 90.201509 
L 513.477978 90.742628 
L 513.643476 89.66039 
L 513.712507 90.742628 
L 513.961985 90.742628 
L 513.995977 90.201509 
L 514.277053 89.66039 
L 514.445273 89.66039 
L 514.524121 90.742628 
L 514.901325 89.66039 
L 514.962412 90.742628 
L 515.167865 89.66039 
L 515.325911 91.283747 
L 515.806353 90.201509 
L 516.168285 91.824866 
L 516.196272 91.283747 
L 516.425524 91.824866 
L 516.570458 91.824866 
L 516.720921 90.742628 
L 516.900606 91.824866 
L 517.246062 90.742628 
L 517.377127 91.824866 
L 517.519037 91.283747 
L 517.808221 91.283747 
L 517.999195 91.824866 
L 518.364771 91.824866 
L 518.375929 91.283747 
L 518.951301 92.365985 
L 519.25645 90.742628 
L 519.418403 90.742628 
L 519.607158 91.283747 
L 519.660512 90.201509 
L 519.928468 91.283747 
L 520.093464 90.201509 
L 520.259796 91.283747 
L 520.328536 90.742628 
L 520.669667 90.742628 
L 520.874099 90.201509 
L 520.9676 89.119271 
L 521.157948 90.201509 
L 521.471113 89.66039 
L 521.609645 89.119271 
L 521.780814 89.66039 
L 521.926958 87.495914 
L 522.156352 87.495914 
L 522.459716 86.954795 
L 522.496314 88.037033 
L 522.794885 86.954795 
L 523.219885 88.037033 
L 523.334723 86.413676 
L 523.679334 85.872556 
L 524.054672 86.954795 
L 524.292561 87.495914 
L 524.953833 86.954795 
L 525.033038 86.413676 
L 525.962427 86.413676 
L 526.243969 85.872556 
L 526.528754 84.249199 
L 527.259916 84.790318 
L 527.822031 84.790318 
L 528.132486 84.249199 
L 528.212511 84.790318 
L 528.448381 83.70808 
L 528.500929 84.790318 
L 528.759083 84.249199 
L 529.227376 84.249199 
L 529.467689 83.166961 
L 529.688261 84.249199 
L 529.989518 83.166961 
L 530.106964 83.70808 
L 530.26786 83.166961 
L 530.68793 83.70808 
L 530.93072 83.166961 
L 531.640867 83.166961 
L 531.81037 83.70808 
L 532.221673 82.625842 
L 532.388855 83.70808 
L 532.533057 83.70808 
L 532.589129 83.166961 
L 532.793561 83.166961 
L 533.014046 82.625842 
L 533.164916 83.70808 
L 533.399165 82.625842 
L 533.502039 83.70808 
L 533.789284 82.625842 
L 533.965911 82.625842 
L 534.079892 83.166961 
L 534.266676 83.166961 
L 534.319458 83.70808 
L 534.330295 83.166961 
L 534.649164 83.166961 
L 534.757052 83.70808 
L 535.049556 82.625842 
L 535.318916 83.70808 
L 535.780533 83.166961 
L 536.767003 83.166961 
L 537.003573 83.70808 
L 537.25508 83.166961 
L 537.416974 83.70808 
L 537.51698 83.166961 
L 538.217583 83.166961 
L 538.431482 83.70808 
L 538.922609 82.625842 
L 539.042024 83.166961 
L 539.434858 82.625842 
L 539.863885 83.166961 
L 540.091749 82.625842 
L 540.627845 83.70808 
L 540.768508 84.249199 
L 541.001565 84.249199 
L 541.450439 82.625842 
L 541.572535 82.625842 
L 541.727538 83.70808 
L 542.091595 83.70808 
L 542.29579 83.166961 
L 542.45064 83.166961 
L 542.610745 83.70808 
L 542.913037 83.70808 
L 543.3258 83.166961 
L 543.554929 83.166961 
L 543.648729 82.625842 
L 543.868955 83.70808 
L 543.984984 82.625842 
L 544.12924 83.166961 
L 544.220347 82.625842 
L 544.798748 82.625842 
L 544.819683 81.543604 
L 544.913086 82.084723 
L 545.087833 82.084723 
L 545.192256 82.625842 
L 545.356508 82.084723 
L 545.537614 82.625842 
L 545.999453 82.084723 
L 546.391722 82.084723 
L 546.540712 81.002485 
L 546.59947 81.543604 
L 546.775023 81.002485 
L 547.010456 81.543604 
L 547.120672 82.084723 
L 547.284965 81.543604 
L 547.446983 82.084723 
L 547.64186 81.002485 
L 547.724425 82.084723 
L 547.899515 90.201509 
L 548.37757 90.201509 
L 548.509335 90.742628 
L 548.634573 88.578152 
L 549.332384 89.119271 
L 549.85086 89.119271 
L 549.95169 88.578152 
L 550.081355 88.578152 
L 550.48772 89.66039 
L 550.795102 89.66039 
L 550.808207 89.119271 
L 551.19302 88.578152 
L 551.465561 89.119271 
L 551.739344 90.201509 
L 551.774343 89.119271 
L 551.983509 90.201509 
L 552.064864 89.66039 
L 552.68972 89.66039 
L 552.72349 89.119271 
L 552.979355 89.119271 
L 553.153651 89.66039 
L 553.321616 89.66039 
L 553.375327 90.201509 
L 553.736482 89.119271 
L 554.058 90.201509 
L 554.225361 90.201509 
L 554.739679 89.66039 
L 554.839645 90.201509 
L 554.921933 89.119271 
L 555.255083 88.037033 
L 555.479208 89.119271 
L 555.811346 88.037033 
L 556.140957 89.119271 
L 556.260926 88.037033 
L 556.557839 89.119271 
L 556.681572 89.119271 
L 556.731365 88.037033 
L 556.879215 88.578152 
L 557.051677 88.037033 
L 557.330898 88.037033 
L 557.364577 86.954795 
L 557.579789 87.495914 
L 557.702629 87.495914 
L 557.792642 88.037033 
L 558.045629 87.495914 
L 558.307795 86.413676 
L 558.321428 84.790318 
L 558.472393 85.872556 
L 558.476919 84.249199 
L 558.657439 84.249199 
L 558.783453 83.70808 
L 559.029807 84.249199 
L 559.410732 83.70808 
L 559.618152 84.249199 
L 559.85958 84.249199 
L 559.960482 83.70808 
L 560.241722 83.166961 
L 560.394298 84.249199 
L 560.514736 84.249199 
L 560.813158 82.625842 
L 560.999665 82.084723 
L 561.584271 82.625842 
L 561.806582 82.625842 
L 561.949621 83.166961 
L 562.261879 80.461366 
L 562.426846 80.461366 
L 562.570293 79.920247 
L 562.850148 77.214652 
L 563.067998 77.755771 
L 563.335372 76.673533 
L 563.431165 77.755771 
L 563.679567 76.132414 
L 563.715735 75.591295 
L 563.715735 75.591295 
" clip-path="url(#pa214ce7cdd)" style="fill: none; stroke-dasharray: 6,1.5; stroke-dashoffset: 0; stroke: #008000; stroke-width: 1.5"/>
   </g>
   <g id="line2d_20">
    <path d="M 38.539265 362.384387 
L 39.826445 363.466625 
L 41.109471 363.466625 
L 42.350517 362.925506 
L 44.147803 362.925506 
L 47.901457 362.384387 
L 48.007439 362.925506 
L 51.257947 362.925506 
L 51.564287 364.007744 
L 52.242041 364.007744 
L 52.52385 360.76103 
L 52.899417 364.007744 
L 54.72832 364.007744 
L 55.063693 360.76103 
L 57.586031 360.76103 
L 58.915622 361.302149 
L 59.096688 361.843268 
L 60.107395 361.843268 
L 60.39108 360.219911 
L 63.491891 360.219911 
L 63.859678 360.76103 
L 73.313531 360.76103 
L 73.611308 360.219911 
L 79.307423 360.219911 
L 79.591191 362.384387 
L 126.824827 362.384387 
L 127.143317 363.466625 
L 127.528404 366.713339 
L 127.803485 366.713339 
L 128.114413 367.254458 
L 129.981699 367.254458 
L 132.556753 368.877816 
L 132.819684 368.877816 
L 133.260551 369.418935 
L 146.27665 369.418935 
L 146.976079 370.501173 
L 176.507255 370.501173 
L 176.83944 371.042292 
L 177.184306 370.501173 
L 179.192161 370.501173 
L 179.487339 371.042292 
L 184.858321 371.042292 
L 186.037504 372.12453 
L 186.234163 371.042292 
L 186.612712 371.042292 
L 186.924737 372.12453 
L 194.193932 372.12453 
L 194.532574 371.583411 
L 194.729726 372.12453 
L 211.835809 372.12453 
L 212.134577 373.206768 
L 250.232635 373.206768 
L 250.594344 373.747887 
L 337.963324 373.747887 
L 338.312719 373.206768 
L 348.70404 373.206768 
L 349.111272 373.747887 
L 349.220111 374.830125 
L 376.595138 374.830125 
L 376.786116 374.289006 
L 379.469025 374.289006 
L 379.618886 374.830125 
L 487.824382 374.830125 
L 487.957345 374.289006 
L 496.133871 374.289006 
L 496.434596 374.830125 
L 527.49544 374.830125 
L 527.822031 374.289006 
L 563.715735 374.289006 
L 563.715735 374.289006 
" clip-path="url(#pa214ce7cdd)" style="fill: none; stroke-dasharray: 9,3; stroke-dashoffset: 0; stroke: #ffa500; stroke-width: 1.5"/>
   </g>
   <g id="line2d_21">
    <path d="M 38.539265 325.047173 
L 47.901457 325.047173 
L 48.007439 325.588292 
L 51.257947 325.588292 
L 51.564287 326.129411 
L 52.242041 326.129411 
L 52.52385 327.211649 
L 52.899417 326.129411 
L 54.72832 326.129411 
L 55.290409 327.752768 
L 56.613211 327.752768 
L 56.911232 328.293887 
L 57.091435 327.752768 
L 57.24217 328.293887 
L 71.115963 328.293887 
L 71.411298 329.376125 
L 71.527516 328.293887 
L 72.045326 329.376125 
L 88.619595 329.376125 
L 89.321969 329.917245 
L 89.481079 329.376125 
L 90.607706 329.376125 
L 90.913646 329.917245 
L 91.251187 329.376125 
L 92.054285 329.376125 
L 92.497878 329.917245 
L 92.827187 329.376125 
L 118.358975 329.376125 
L 118.634293 329.917245 
L 118.986098 329.917245 
L 119.298061 329.376125 
L 119.619022 329.376125 
L 119.84018 329.917245 
L 120.079873 329.376125 
L 120.478206 329.917245 
L 127.143317 329.917245 
L 127.528404 329.376125 
L 127.803485 329.376125 
L 128.114413 330.458364 
L 129.630004 330.458364 
L 129.981699 333.163959 
L 132.556753 330.999483 
L 132.819684 331.540602 
L 134.660791 331.540602 
L 135.019979 334.246197 
L 135.336719 334.787316 
L 149.60531 334.787316 
L 150.104122 334.246197 
L 150.498851 334.787316 
L 151.37927 334.246197 
L 153.523561 334.246197 
L 154.792124 334.787316 
L 160.088397 334.787316 
L 160.488862 335.328435 
L 193.936453 335.328435 
L 194.193932 335.869554 
L 194.532574 335.328435 
L 200.490888 335.328435 
L 200.868981 342.362982 
L 201.749043 342.362982 
L 202.108128 346.691935 
L 202.424712 348.315292 
L 221.597868 348.315292 
L 224.294544 348.856411 
L 252.749699 348.856411 
L 253.066043 351.020887 
L 259.6606 351.020887 
L 259.959277 347.774173 
L 275.20374 347.774173 
L 275.378236 348.315292 
L 303.765315 348.315292 
L 303.975242 348.856411 
L 304.308068 348.315292 
L 311.976988 348.315292 
L 312.11919 348.856411 
L 312.409332 348.315292 
L 314.353918 348.315292 
L 314.623685 348.856411 
L 314.725637 348.315292 
L 317.610752 348.315292 
L 317.812221 348.856411 
L 326.843625 348.856411 
L 327.045397 348.315292 
L 338.312719 348.315292 
L 338.572349 347.774173 
L 338.702503 348.315292 
L 338.862623 347.774173 
L 338.964163 348.315292 
L 339.167881 348.315292 
L 339.253259 347.774173 
L 339.481713 348.315292 
L 340.842148 348.315292 
L 341.09848 347.774173 
L 341.21331 348.315292 
L 349.111272 348.315292 
L 349.220111 347.774173 
L 376.595138 347.774173 
L 376.786116 348.315292 
L 381.075519 348.315292 
L 381.168896 351.020887 
L 381.442618 348.315292 
L 383.923539 348.315292 
L 383.937121 351.020887 
L 384.247069 348.315292 
L 384.272782 351.020887 
L 409.091829 351.020887 
L 409.403154 350.479768 
L 409.670604 351.020887 
L 439.888638 351.020887 
L 440.091051 351.562006 
L 440.222047 351.020887 
L 440.53022 351.020887 
L 440.971455 351.562006 
L 460.875463 351.562006 
L 461.105244 352.103125 
L 463.936327 352.103125 
L 464.22198 352.644244 
L 469.882757 352.644244 
L 469.999271 352.103125 
L 476.502025 352.103125 
L 476.740727 352.644244 
L 487.824382 352.644244 
L 487.957345 356.432078 
L 496.133871 356.432078 
L 496.434596 355.890959 
L 503.896624 355.890959 
L 504.611457 358.055435 
L 511.838694 358.055435 
L 512.108772 357.514316 
L 525.280431 357.514316 
L 525.736483 356.973197 
L 527.49544 356.973197 
L 527.822031 359.137673 
L 528.212511 359.678792 
L 530.26786 359.678792 
L 530.68793 360.219911 
L 547.724425 360.219911 
L 547.899515 356.973197 
L 563.715735 356.973197 
L 563.715735 356.973197 
" clip-path="url(#pa214ce7cdd)" style="fill: none; stroke-dasharray: 12,4.5; stroke-dashoffset: 0; stroke: #ee82ee; stroke-width: 1.5"/>
   </g>
   <g id="patch_3">
    <path d="M 33.2875 374.830125 
L 33.2875 22.318125 
" style="fill: none; stroke: #000000; stroke-width: 0.8; stroke-linejoin: miter; stroke-linecap: square"/>
   </g>
   <g id="patch_4">
    <path d="M 568.9675 374.830125 
L 568.9675 22.318125 
" style="fill: none; stroke: #000000; stroke-width: 0.8; stroke-linejoin: miter; stroke-linecap: square"/>
   </g>
   <g id="patch_5">
    <path d="M 33.2875 374.830125 
L 568.9675 374.830125 
" style="fill: none; stroke: #000000; stroke-width: 0.8; stroke-linejoin: miter; stroke-linecap: square"/>
   </g>
   <g id="patch_6">
    <path d="M 33.2875 22.318125 
L 568.9675 22.318125 
" style="fill: none; stroke: #000000; stroke-width: 0.8; stroke-linejoin: miter; stroke-linecap: square"/>
   </g>
   <g id="text_17">
    <!-- Rust/Coreutils running GNU's testsuite -->
    <g transform="translate(186.090625 16.318125) scale(0.12 -0.12)">
     <defs>
      <path id="DejaVuSans-52" d="M 2841 2188 
Q 3044 2119 3236 1894 
Q 3428 1669 3622 1275 
L 4263 0 
L 3584 0 
L 2988 1197 
Q 2756 1666 2539 1819 
Q 2322 1972 1947 1972 
L 1259 1972 
L 1259 0 
L 628 0 
L 628 4666 
L 2053 4666 
Q 2853 4666 3247 4331 
Q 3641 3997 3641 3322 
Q 3641 2881 3436 2590 
Q 3231 2300 2841 2188 
z
M 1259 4147 
L 1259 2491 
L 2053 2491 
Q 2509 2491 2742 2702 
Q 2975 2913 2975 3322 
Q 2975 3731 2742 3939 
Q 2509 4147 2053 4147 
L 1259 4147 
z
" transform="scale(0.015625)"/>
      <path id="DejaVuSans-75" d="M 544 1381 
L 544 3500 
L 1119 3500 
L 1119 1403 
Q 1119 906 1312 657 
Q 1506 409 1894 409 
Q 2359 409 2629 706 
Q 2900 1003 2900 1516 
L 2900 3500 
L 3475 3500 
L 3475 0 
L 2900 0 
L 2900 538 
Q 2691 219 2414 64 
Q 2138 -91 1772 -91 
Q 1169 -91 856 284 
Q 544 659 544 1381 
z
M 1991 3584 
L 1991 3584 
z
" transform="scale(0.015625)"/>
      <path id="DejaVuSans-73" d="M 2834 3397 
L 2834 2853 
Q 2591 2978 2328 3040 
Q 2066 3103 1784 3103 
Q 1356 3103 1142 2972 
Q 928 2841 928 2578 
Q 928 2378 1081 2264 
Q 1234 2150 1697 2047 
L 1894 2003 
Q 2506 1872 2764 1633 
Q 3022 1394 3022 966 
Q 3022 478 2636 193 
Q 2250 -91 1575 -91 
Q 1294 -91 989 -36 
Q 684 19 347 128 
L 347 722 
Q 666 556 975 473 
Q 1284 391 1588 391 
Q 1994 391 2212 530 
Q 2431 669 2431 922 
Q 2431 1156 2273 1281 
Q 2116 1406 1581 1522 
L 1381 1569 
Q 847 1681 609 1914 
Q 372 2147 372 2553 
Q 372 3047 722 3315 
Q 1072 3584 1716 3584 
Q 2034 3584 2315 3537 
Q 2597 3491 2834 3397 
z
" transform="scale(0.015625)"/>
      <path id="DejaVuSans-74" d="M 1172 4494 
L 1172 3500 
L 2356 3500 
L 2356 3053 
L 1172 3053 
L 1172 1153 
Q 1172 725 1289 603 
Q 1406 481 1766 481 
L 2356 481 
L 2356 0 
L 1766 0 
Q 1100 0 847 248 
Q 594 497 594 1153 
L 594 3053 
L 172 3053 
L 172 3500 
L 594 3500 
L 594 4494 
L 1172 4494 
z
" transform="scale(0.015625)"/>
      <path id="DejaVuSans-2f" d="M 1625 4666 
L 2156 4666 
L 531 -594 
L 0 -594 
L 1625 4666 
z
" transform="scale(0.015625)"/>
      <path id="DejaVuSans-43" d="M 4122 4306 
L 4122 3641 
Q 3803 3938 3442 4084 
Q 3081 4231 2675 4231 
Q 1875 4231 1450 3742 
Q 1025 3253 1025 2328 
Q 1025 1406 1450 917 
Q 1875 428 2675 428 
Q 3081 428 3442 575 
Q 3803 722 4122 1019 
L 4122 359 
Q 3791 134 3420 21 
Q 3050 -91 2638 -91 
Q 1578 -91 968 557 
Q 359 1206 359 2328 
Q 359 3453 968 4101 
Q 1578 4750 2638 4750 
Q 3056 4750 3426 4639 
Q 3797 4528 4122 4306 
z
" transform="scale(0.015625)"/>
      <path id="DejaVuSans-6f" d="M 1959 3097 
Q 1497 3097 1228 2736 
Q 959 2375 959 1747 
Q 959 1119 1226 758 
Q 1494 397 1959 397 
Q 2419 397 2687 759 
Q 2956 1122 2956 1747 
Q 2956 2369 2687 2733 
Q 2419 3097 1959 3097 
z
M 1959 3584 
Q 2709 3584 3137 3096 
Q 3566 2609 3566 1747 
Q 3566 888 3137 398 
Q 2709 -91 1959 -91 
Q 1206 -91 779 398 
Q 353 888 353 1747 
Q 353 2609 779 3096 
Q 1206 3584 1959 3584 
z
" transform="scale(0.015625)"/>
      <path id="DejaVuSans-72" d="M 2631 2963 
Q 2534 3019 2420 3045 
Q 2306 3072 2169 3072 
Q 1681 3072 1420 2755 
Q 1159 2438 1159 1844 
L 1159 0 
L 581 0 
L 581 3500 
L 1159 3500 
L 1159 2956 
Q 1341 3275 1631 3429 
Q 1922 3584 2338 3584 
Q 2397 3584 2469 3576 
Q 2541 3569 2628 3553 
L 2631 2963 
z
" transform="scale(0.015625)"/>
      <path id="DejaVuSans-65" d="M 3597 1894 
L 3597 1613 
L 953 1613 
Q 991 1019 1311 708 
Q 1631 397 2203 397 
Q 2534 397 2845 478 
Q 3156 559 3463 722 
L 3463 178 
Q 3153 47 2828 -22 
Q 2503 -91 2169 -91 
Q 1331 -91 842 396 
Q 353 884 353 1716 
Q 353 2575 817 3079 
Q 1281 3584 2069 3584 
Q 2775 3584 3186 3129 
Q 3597 2675 3597 1894 
z
M 3022 2063 
Q 3016 2534 2758 2815 
Q 2500 3097 2075 3097 
Q 1594 3097 1305 2825 
Q 1016 2553 972 2059 
L 3022 2063 
z
" transform="scale(0.015625)"/>
      <path id="DejaVuSans-69" d="M 603 3500 
L 1178 3500 
L 1178 0 
L 603 0 
L 603 3500 
z
M 603 4863 
L 1178 4863 
L 1178 4134 
L 603 4134 
L 603 4863 
z
" transform="scale(0.015625)"/>
      <path id="DejaVuSans-6c" d="M 603 4863 
L 1178 4863 
L 1178 0 
L 603 0 
L 603 4863 
z
" transform="scale(0.015625)"/>
      <path id="DejaVuSans-20" transform="scale(0.015625)"/>
      <path id="DejaVuSans-6e" d="M 3513 2113 
L 3513 0 
L 2938 0 
L 2938 2094 
Q 2938 2591 2744 2837 
Q 2550 3084 2163 3084 
Q 1697 3084 1428 2787 
Q 1159 2491 1159 1978 
L 1159 0 
L 581 0 
L 581 3500 
L 1159 3500 
L 1159 2956 
Q 1366 3272 1645 3428 
Q 1925 3584 2291 3584 
Q 2894 3584 3203 3211 
Q 3513 2838 3513 2113 
z
" transform="scale(0.015625)"/>
      <path id="DejaVuSans-67" d="M 2906 1791 
Q 2906 2416 2648 2759 
Q 2391 3103 1925 3103 
Q 1463 3103 1205 2759 
Q 947 2416 947 1791 
Q 947 1169 1205 825 
Q 1463 481 1925 481 
Q 2391 481 2648 825 
Q 2906 1169 2906 1791 
z
M 3481 434 
Q 3481 -459 3084 -895 
Q 2688 -1331 1869 -1331 
Q 1566 -1331 1297 -1286 
Q 1028 -1241 775 -1147 
L 775 -588 
Q 1028 -725 1275 -790 
Q 1522 -856 1778 -856 
Q 2344 -856 2625 -561 
Q 2906 -266 2906 331 
L 2906 616 
Q 2728 306 2450 153 
Q 2172 0 1784 0 
Q 1141 0 747 490 
Q 353 981 353 1791 
Q 353 2603 747 3093 
Q 1141 3584 1784 3584 
Q 2172 3584 2450 3431 
Q 2728 3278 2906 2969 
L 2906 3500 
L 3481 3500 
L 3481 434 
z
" transform="scale(0.015625)"/>
      <path id="DejaVuSans-47" d="M 3809 666 
L 3809 1919 
L 2778 1919 
L 2778 2438 
L 4434 2438 
L 4434 434 
Q 4069 175 3628 42 
Q 3188 -91 2688 -91 
Q 1594 -91 976 548 
Q 359 1188 359 2328 
Q 359 3472 976 4111 
Q 1594 4750 2688 4750 
Q 3144 4750 3555 4637 
Q 3966 4525 4313 4306 
L 4313 3634 
Q 3963 3931 3569 4081 
Q 3175 4231 2741 4231 
Q 1884 4231 1454 3753 
Q 1025 3275 1025 2328 
Q 1025 1384 1454 906 
Q 1884 428 2741 428 
Q 3075 428 3337 486 
Q 3600 544 3809 666 
z
" transform="scale(0.015625)"/>
      <path id="DejaVuSans-4e" d="M 628 4666 
L 1478 4666 
L 3547 763 
L 3547 4666 
L 4159 4666 
L 4159 0 
L 3309 0 
L 1241 3903 
L 1241 0 
L 628 0 
L 628 4666 
z
" transform="scale(0.015625)"/>
      <path id="DejaVuSans-55" d="M 556 4666 
L 1191 4666 
L 1191 1831 
Q 1191 1081 1462 751 
Q 1734 422 2344 422 
Q 2950 422 3222 751 
Q 3494 1081 3494 1831 
L 3494 4666 
L 4128 4666 
L 4128 1753 
Q 4128 841 3676 375 
Q 3225 -91 2344 -91 
Q 1459 -91 1007 375 
Q 556 841 556 1753 
L 556 4666 
z
" transform="scale(0.015625)"/>
      <path id="DejaVuSans-27" d="M 1147 4666 
L 1147 2931 
L 616 2931 
L 616 4666 
L 1147 4666 
z
" transform="scale(0.015625)"/>
     </defs>
     <use xlink:href="#DejaVuSans-52"/>
     <use xlink:href="#DejaVuSans-75" x="64.982422"/>
     <use xlink:href="#DejaVuSans-73" x="128.361328"/>
     <use xlink:href="#DejaVuSans-74" x="180.460938"/>
     <use xlink:href="#DejaVuSans-2f" x="219.669922"/>
     <use xlink:href="#DejaVuSans-43" x="253.361328"/>
     <use xlink:href="#DejaVuSans-6f" x="323.185547"/>
     <use xlink:href="#DejaVuSans-72" x="384.367188"/>
     <use xlink:href="#DejaVuSans-65" x="423.230469"/>
     <use xlink:href="#DejaVuSans-75" x="484.753906"/>
     <use xlink:href="#DejaVuSans-74" x="548.132812"/>
     <use xlink:href="#DejaVuSans-69" x="587.341797"/>
     <use xlink:href="#DejaVuSans-6c" x="615.125"/>
     <use xlink:href="#DejaVuSans-73" x="642.908203"/>
     <use xlink:href="#DejaVuSans-20" x="695.007812"/>
     <use xlink:href="#DejaVuSans-72" x="726.794922"/>
     <use xlink:href="#DejaVuSans-75" x="767.908203"/>
     <use xlink:href="#DejaVuSans-6e" x="831.287109"/>
     <use xlink:href="#DejaVuSans-6e" x="894.666016"/>
     <use xlink:href="#DejaVuSans-69" x="958.044922"/>
     <use xlink:href="#DejaVuSans-6e" x="985.828125"/>
     <use xlink:href="#DejaVuSans-67" x="1049.207031"/>
     <use xlink:href="#DejaVuSans-20" x="1112.683594"/>
     <use xlink:href="#DejaVuSans-47" x="1144.470703"/>
     <use xlink:href="#DejaVuSans-4e" x="1221.960938"/>
     <use xlink:href="#DejaVuSans-55" x="1296.765625"/>
     <use xlink:href="#DejaVuSans-27" x="1369.958984"/>
     <use xlink:href="#DejaVuSans-73" x="1397.449219"/>
     <use xlink:href="#DejaVuSans-20" x="1449.548828"/>
     <use xlink:href="#DejaVuSans-74" x="1481.335938"/>
     <use xlink:href="#DejaVuSans-65" x="1520.544922"/>
     <use xlink:href="#DejaVuSans-73" x="1582.068359"/>
     <use xlink:href="#DejaVuSans-74" x="1634.167969"/>
     <use xlink:href="#DejaVuSans-73" x="1673.376953"/>
     <use xlink:href="#DejaVuSans-75" x="1725.476562"/>
     <use xlink:href="#DejaVuSans-69" x="1788.855469"/>
     <use xlink:href="#DejaVuSans-74" x="1816.638672"/>
     <use xlink:href="#DejaVuSans-65" x="1855.847656"/>
    </g>
   </g>
   <g id="legend_1">
    <g id="patch_7">
     <path d="M 505.762812 236.769437 
L 561.9675 236.769437 
Q 563.9675 236.769437 563.9675 234.769437 
L 563.9675 162.378812 
Q 563.9675 160.378812 561.9675 160.378812 
L 505.762812 160.378812 
Q 503.762812 160.378812 503.762812 162.378812 
L 503.762812 234.769437 
Q 503.762812 236.769437 505.762812 236.769437 
z
" style="fill: #ffffff; opacity: 0.8; stroke: #cccccc; stroke-linejoin: miter"/>
    </g>
    <g id="line2d_22">
     <path d="M 507.762812 168.47725 
L 517.762812 168.47725 
L 527.762812 168.47725 
" style="fill: none; stroke: #0000ff; stroke-width: 1.5; stroke-linecap: square"/>
    </g>
    <g id="text_18">
     <!-- total -->
     <g transform="translate(535.762812 171.97725) scale(0.1 -0.1)">
      <defs>
       <path id="DejaVuSans-61" d="M 2194 1759 
Q 1497 1759 1228 1600 
Q 959 1441 959 1056 
Q 959 750 1161 570 
Q 1363 391 1709 391 
Q 2188 391 2477 730 
Q 2766 1069 2766 1631 
L 2766 1759 
L 2194 1759 
z
M 3341 1997 
L 3341 0 
L 2766 0 
L 2766 531 
Q 2569 213 2275 61 
Q 1981 -91 1556 -91 
Q 1019 -91 701 211 
Q 384 513 384 1019 
Q 384 1609 779 1909 
Q 1175 2209 1959 2209 
L 2766 2209 
L 2766 2266 
Q 2766 2663 2505 2880 
Q 2244 3097 1772 3097 
Q 1472 3097 1187 3025 
Q 903 2953 641 2809 
L 641 3341 
Q 956 3463 1253 3523 
Q 1550 3584 1831 3584 
Q 2591 3584 2966 3190 
Q 3341 2797 3341 1997 
z
" transform="scale(0.015625)"/>
      </defs>
      <use xlink:href="#DejaVuSans-74"/>
      <use xlink:href="#DejaVuSans-6f" x="39.208984"/>
      <use xlink:href="#DejaVuSans-74" x="100.390625"/>
      <use xlink:href="#DejaVuSans-61" x="139.599609"/>
      <use xlink:href="#DejaVuSans-6c" x="200.878906"/>
     </g>
    </g>
    <g id="line2d_23">
     <path d="M 507.762812 183.155375 
L 517.762812 183.155375 
L 527.762812 183.155375 
" style="fill: none; stroke-dasharray: 3,1.5; stroke-dashoffset: 0; stroke: #808080; stroke-width: 1.5"/>
    </g>
    <g id="text_19">
     <!-- fail -->
     <g transform="translate(535.762812 186.655375) scale(0.1 -0.1)">
      <defs>
       <path id="DejaVuSans-66" d="M 2375 4863 
L 2375 4384 
L 1825 4384 
Q 1516 4384 1395 4259 
Q 1275 4134 1275 3809 
L 1275 3500 
L 2222 3500 
L 2222 3053 
L 1275 3053 
L 1275 0 
L 697 0 
L 697 3053 
L 147 3053 
L 147 3500 
L 697 3500 
L 697 3744 
Q 697 4328 969 4595 
Q 1241 4863 1831 4863 
L 2375 4863 
z
" transform="scale(0.015625)"/>
      </defs>
      <use xlink:href="#DejaVuSans-66"/>
      <use xlink:href="#DejaVuSans-61" x="35.205078"/>
      <use xlink:href="#DejaVuSans-69" x="96.484375"/>
      <use xlink:href="#DejaVuSans-6c" x="124.267578"/>
     </g>
    </g>
    <g id="line2d_24">
     <path d="M 507.762812 197.8335 
L 517.762812 197.8335 
L 527.762812 197.8335 
" style="fill: none; stroke-dasharray: 6,1.5; stroke-dashoffset: 0; stroke: #008000; stroke-width: 1.5"/>
    </g>
    <g id="text_20">
     <!-- pass -->
     <g transform="translate(535.762812 201.3335) scale(0.1 -0.1)">
      <defs>
       <path id="DejaVuSans-70" d="M 1159 525 
L 1159 -1331 
L 581 -1331 
L 581 3500 
L 1159 3500 
L 1159 2969 
Q 1341 3281 1617 3432 
Q 1894 3584 2278 3584 
Q 2916 3584 3314 3078 
Q 3713 2572 3713 1747 
Q 3713 922 3314 415 
Q 2916 -91 2278 -91 
Q 1894 -91 1617 61 
Q 1341 213 1159 525 
z
M 3116 1747 
Q 3116 2381 2855 2742 
Q 2594 3103 2138 3103 
Q 1681 3103 1420 2742 
Q 1159 2381 1159 1747 
Q 1159 1113 1420 752 
Q 1681 391 2138 391 
Q 2594 391 2855 752 
Q 3116 1113 3116 1747 
z
" transform="scale(0.015625)"/>
      </defs>
      <use xlink:href="#DejaVuSans-70"/>
      <use xlink:href="#DejaVuSans-61" x="63.476562"/>
      <use xlink:href="#DejaVuSans-73" x="124.755859"/>
      <use xlink:href="#DejaVuSans-73" x="176.855469"/>
     </g>
    </g>
    <g id="line2d_25">
     <path d="M 507.762812 212.511625 
L 517.762812 212.511625 
L 527.762812 212.511625 
" style="fill: none; stroke-dasharray: 9,3; stroke-dashoffset: 0; stroke: #ffa500; stroke-width: 1.5"/>
    </g>
    <g id="text_21">
     <!-- error -->
     <g transform="translate(535.762812 216.011625) scale(0.1 -0.1)">
      <use xlink:href="#DejaVuSans-65"/>
      <use xlink:href="#DejaVuSans-72" x="61.523438"/>
      <use xlink:href="#DejaVuSans-72" x="100.886719"/>
      <use xlink:href="#DejaVuSans-6f" x="139.75"/>
      <use xlink:href="#DejaVuSans-72" x="200.931641"/>
     </g>
    </g>
    <g id="line2d_26">
     <path d="M 507.762812 227.18975 
L 517.762812 227.18975 
L 527.762812 227.18975 
" style="fill: none; stroke-dasharray: 12,4.5; stroke-dashoffset: 0; stroke: #ee82ee; stroke-width: 1.5"/>
    </g>
    <g id="text_22">
     <!-- skip -->
     <g transform="translate(535.762812 230.68975) scale(0.1 -0.1)">
      <defs>
       <path id="DejaVuSans-6b" d="M 581 4863 
L 1159 4863 
L 1159 1991 
L 2875 3500 
L 3609 3500 
L 1753 1863 
L 3688 0 
L 2938 0 
L 1159 1709 
L 1159 0 
L 581 0 
L 581 4863 
z
" transform="scale(0.015625)"/>
      </defs>
      <use xlink:href="#DejaVuSans-73"/>
      <use xlink:href="#DejaVuSans-6b" x="52.099609"/>
      <use xlink:href="#DejaVuSans-69" x="110.009766"/>
      <use xlink:href="#DejaVuSans-70" x="137.792969"/>
     </g>
    </g>
   </g>
  </g>
 </g>
 <defs>
  <clipPath id="pa214ce7cdd">
   <rect x="33.2875" y="22.318125" width="535.68" height="352.512"/>
  </clipPath>
 </defs>
</svg>
