<?xml version="1.0" encoding="utf-8" standalone="no"?>
<!DOCTYPE svg PUBLIC "-//W3C//DTD SVG 1.1//EN"
  "http://www.w3.org/Graphics/SVG/1.1/DTD/svg11.dtd">
<svg xmlns:xlink="http://www.w3.org/1999/xlink" width="576.1675pt" height="418.303033pt" viewBox="0 0 576.1675 418.303033" xmlns="http://www.w3.org/2000/svg" version="1.1">
 <metadata>
  <rdf:RDF xmlns:dc="http://purl.org/dc/elements/1.1/" xmlns:cc="http://creativecommons.org/ns#" xmlns:rdf="http://www.w3.org/1999/02/22-rdf-syntax-ns#">
   <cc:Work>
    <dc:type rdf:resource="http://purl.org/dc/dcmitype/StillImage"/>
    <dc:date>2025-10-03T02:26:51.836543</dc:date>
    <dc:format>image/svg+xml</dc:format>
    <dc:creator>
     <cc:Agent>
      <dc:title>Matplotlib v3.6.3, https://matplotlib.org/</dc:title>
     </cc:Agent>
    </dc:creator>
   </cc:Work>
  </rdf:RDF>
 </metadata>
 <defs>
  <style type="text/css">*{stroke-linejoin: round; stroke-linecap: butt}</style>
 </defs>
 <g id="figure_1">
  <g id="patch_1">
   <path d="M -0 418.303033 
L 576.1675 418.303033 
L 576.1675 0 
L -0 0 
z
" style="fill: #ffffff"/>
  </g>
  <g id="axes_1">
   <g id="patch_2">
    <path d="M 33.2875 374.830125 
L 568.9675 374.830125 
L 568.9675 22.318125 
L 33.2875 22.318125 
z
" style="fill: #ffffff"/>
   </g>
   <g id="matplotlib.axis_1">
    <g id="xtick_1">
     <g id="line2d_1">
      <defs>
       <path id="m84edac76d5" d="M 0 0 
L 0 3.5 
" style="stroke: #000000; stroke-width: 0.8"/>
      </defs>
      <g>
       <use xlink:href="#m84edac76d5" x="61.604626" y="374.830125" style="stroke: #000000; stroke-width: 0.8"/>
      </g>
     </g>
     <g id="text_1">
      <!-- 2021-07 -->
      <g transform="translate(24.379805 409.301971) rotate(-30) scale(0.1 -0.1)">
       <defs>
        <path id="DejaVuSans-32" d="M 1228 531 
L 3431 531 
L 3431 0 
L 469 0 
L 469 531 
Q 828 903 1448 1529 
Q 2069 2156 2228 2338 
Q 2531 2678 2651 2914 
Q 2772 3150 2772 3378 
Q 2772 3750 2511 3984 
Q 2250 4219 1831 4219 
Q 1534 4219 1204 4116 
Q 875 4013 500 3803 
L 500 4441 
Q 881 4594 1212 4672 
Q 1544 4750 1819 4750 
Q 2544 4750 2975 4387 
Q 3406 4025 3406 3419 
Q 3406 3131 3298 2873 
Q 3191 2616 2906 2266 
Q 2828 2175 2409 1742 
Q 1991 1309 1228 531 
z
" transform="scale(0.015625)"/>
        <path id="DejaVuSans-30" d="M 2034 4250 
Q 1547 4250 1301 3770 
Q 1056 3291 1056 2328 
Q 1056 1369 1301 889 
Q 1547 409 2034 409 
Q 2525 409 2770 889 
Q 3016 1369 3016 2328 
Q 3016 3291 2770 3770 
Q 2525 4250 2034 4250 
z
M 2034 4750 
Q 2819 4750 3233 4129 
Q 3647 3509 3647 2328 
Q 3647 1150 3233 529 
Q 2819 -91 2034 -91 
Q 1250 -91 836 529 
Q 422 1150 422 2328 
Q 422 3509 836 4129 
Q 1250 4750 2034 4750 
z
" transform="scale(0.015625)"/>
        <path id="DejaVuSans-31" d="M 794 531 
L 1825 531 
L 1825 4091 
L 703 3866 
L 703 4441 
L 1819 4666 
L 2450 4666 
L 2450 531 
L 3481 531 
L 3481 0 
L 794 0 
L 794 531 
z
" transform="scale(0.015625)"/>
        <path id="DejaVuSans-2d" d="M 313 2009 
L 1997 2009 
L 1997 1497 
L 313 1497 
L 313 2009 
z
" transform="scale(0.015625)"/>
        <path id="DejaVuSans-37" d="M 525 4666 
L 3525 4666 
L 3525 4397 
L 1831 0 
L 1172 0 
L 2766 4134 
L 525 4134 
L 525 4666 
z
" transform="scale(0.015625)"/>
       </defs>
       <use xlink:href="#DejaVuSans-32"/>
       <use xlink:href="#DejaVuSans-30" x="63.623047"/>
       <use xlink:href="#DejaVuSans-32" x="127.246094"/>
       <use xlink:href="#DejaVuSans-31" x="190.869141"/>
       <use xlink:href="#DejaVuSans-2d" x="254.492188"/>
       <use xlink:href="#DejaVuSans-30" x="290.576172"/>
       <use xlink:href="#DejaVuSans-37" x="354.199219"/>
      </g>
     </g>
    </g>
    <g id="xtick_2">
     <g id="line2d_2">
      <g>
       <use xlink:href="#m84edac76d5" x="121.034493" y="374.830125" style="stroke: #000000; stroke-width: 0.8"/>
      </g>
     </g>
     <g id="text_2">
      <!-- 2022-01 -->
      <g transform="translate(83.809673 409.301971) rotate(-30) scale(0.1 -0.1)">
       <use xlink:href="#DejaVuSans-32"/>
       <use xlink:href="#DejaVuSans-30" x="63.623047"/>
       <use xlink:href="#DejaVuSans-32" x="127.246094"/>
       <use xlink:href="#DejaVuSans-32" x="190.869141"/>
       <use xlink:href="#DejaVuSans-2d" x="254.492188"/>
       <use xlink:href="#DejaVuSans-30" x="290.576172"/>
       <use xlink:href="#DejaVuSans-31" x="354.199219"/>
      </g>
     </g>
    </g>
    <g id="xtick_3">
     <g id="line2d_3">
      <g>
       <use xlink:href="#m84edac76d5" x="179.495396" y="374.830125" style="stroke: #000000; stroke-width: 0.8"/>
      </g>
     </g>
     <g id="text_3">
      <!-- 2022-07 -->
      <g transform="translate(142.270575 409.301971) rotate(-30) scale(0.1 -0.1)">
       <use xlink:href="#DejaVuSans-32"/>
       <use xlink:href="#DejaVuSans-30" x="63.623047"/>
       <use xlink:href="#DejaVuSans-32" x="127.246094"/>
       <use xlink:href="#DejaVuSans-32" x="190.869141"/>
       <use xlink:href="#DejaVuSans-2d" x="254.492188"/>
       <use xlink:href="#DejaVuSans-30" x="290.576172"/>
       <use xlink:href="#DejaVuSans-37" x="354.199219"/>
      </g>
     </g>
    </g>
    <g id="xtick_4">
     <g id="line2d_4">
      <g>
       <use xlink:href="#m84edac76d5" x="238.925263" y="374.830125" style="stroke: #000000; stroke-width: 0.8"/>
      </g>
     </g>
     <g id="text_4">
      <!-- 2023-01 -->
      <g transform="translate(201.700442 409.301971) rotate(-30) scale(0.1 -0.1)">
       <defs>
        <path id="DejaVuSans-33" d="M 2597 2516 
Q 3050 2419 3304 2112 
Q 3559 1806 3559 1356 
Q 3559 666 3084 287 
Q 2609 -91 1734 -91 
Q 1441 -91 1130 -33 
Q 819 25 488 141 
L 488 750 
Q 750 597 1062 519 
Q 1375 441 1716 441 
Q 2309 441 2620 675 
Q 2931 909 2931 1356 
Q 2931 1769 2642 2001 
Q 2353 2234 1838 2234 
L 1294 2234 
L 1294 2753 
L 1863 2753 
Q 2328 2753 2575 2939 
Q 2822 3125 2822 3475 
Q 2822 3834 2567 4026 
Q 2313 4219 1838 4219 
Q 1578 4219 1281 4162 
Q 984 4106 628 3988 
L 628 4550 
Q 988 4650 1302 4700 
Q 1616 4750 1894 4750 
Q 2613 4750 3031 4423 
Q 3450 4097 3450 3541 
Q 3450 3153 3228 2886 
Q 3006 2619 2597 2516 
z
" transform="scale(0.015625)"/>
       </defs>
       <use xlink:href="#DejaVuSans-32"/>
       <use xlink:href="#DejaVuSans-30" x="63.623047"/>
       <use xlink:href="#DejaVuSans-32" x="127.246094"/>
       <use xlink:href="#DejaVuSans-33" x="190.869141"/>
       <use xlink:href="#DejaVuSans-2d" x="254.492188"/>
       <use xlink:href="#DejaVuSans-30" x="290.576172"/>
       <use xlink:href="#DejaVuSans-31" x="354.199219"/>
      </g>
     </g>
    </g>
    <g id="xtick_5">
     <g id="line2d_5">
      <g>
       <use xlink:href="#m84edac76d5" x="297.386165" y="374.830125" style="stroke: #000000; stroke-width: 0.8"/>
      </g>
     </g>
     <g id="text_5">
      <!-- 2023-07 -->
      <g transform="translate(260.161344 409.301971) rotate(-30) scale(0.1 -0.1)">
       <use xlink:href="#DejaVuSans-32"/>
       <use xlink:href="#DejaVuSans-30" x="63.623047"/>
       <use xlink:href="#DejaVuSans-32" x="127.246094"/>
       <use xlink:href="#DejaVuSans-33" x="190.869141"/>
       <use xlink:href="#DejaVuSans-2d" x="254.492188"/>
       <use xlink:href="#DejaVuSans-30" x="290.576172"/>
       <use xlink:href="#DejaVuSans-37" x="354.199219"/>
      </g>
     </g>
    </g>
    <g id="xtick_6">
     <g id="line2d_6">
      <g>
       <use xlink:href="#m84edac76d5" x="356.816033" y="374.830125" style="stroke: #000000; stroke-width: 0.8"/>
      </g>
     </g>
     <g id="text_6">
      <!-- 2024-01 -->
      <g transform="translate(319.591212 409.301971) rotate(-30) scale(0.1 -0.1)">
       <defs>
        <path id="DejaVuSans-34" d="M 2419 4116 
L 825 1625 
L 2419 1625 
L 2419 4116 
z
M 2253 4666 
L 3047 4666 
L 3047 1625 
L 3713 1625 
L 3713 1100 
L 3047 1100 
L 3047 0 
L 2419 0 
L 2419 1100 
L 313 1100 
L 313 1709 
L 2253 4666 
z
" transform="scale(0.015625)"/>
       </defs>
       <use xlink:href="#DejaVuSans-32"/>
       <use xlink:href="#DejaVuSans-30" x="63.623047"/>
       <use xlink:href="#DejaVuSans-32" x="127.246094"/>
       <use xlink:href="#DejaVuSans-34" x="190.869141"/>
       <use xlink:href="#DejaVuSans-2d" x="254.492188"/>
       <use xlink:href="#DejaVuSans-30" x="290.576172"/>
       <use xlink:href="#DejaVuSans-31" x="354.199219"/>
      </g>
     </g>
    </g>
    <g id="xtick_7">
     <g id="line2d_7">
      <g>
       <use xlink:href="#m84edac76d5" x="415.599923" y="374.830125" style="stroke: #000000; stroke-width: 0.8"/>
      </g>
     </g>
     <g id="text_7">
      <!-- 2024-07 -->
      <g transform="translate(378.375102 409.301971) rotate(-30) scale(0.1 -0.1)">
       <use xlink:href="#DejaVuSans-32"/>
       <use xlink:href="#DejaVuSans-30" x="63.623047"/>
       <use xlink:href="#DejaVuSans-32" x="127.246094"/>
       <use xlink:href="#DejaVuSans-34" x="190.869141"/>
       <use xlink:href="#DejaVuSans-2d" x="254.492188"/>
       <use xlink:href="#DejaVuSans-30" x="290.576172"/>
       <use xlink:href="#DejaVuSans-37" x="354.199219"/>
      </g>
     </g>
    </g>
    <g id="xtick_8">
     <g id="line2d_8">
      <g>
       <use xlink:href="#m84edac76d5" x="475.029791" y="374.830125" style="stroke: #000000; stroke-width: 0.8"/>
      </g>
     </g>
     <g id="text_8">
      <!-- 2025-01 -->
      <g transform="translate(437.80497 409.301971) rotate(-30) scale(0.1 -0.1)">
       <defs>
        <path id="DejaVuSans-35" d="M 691 4666 
L 3169 4666 
L 3169 4134 
L 1269 4134 
L 1269 2991 
Q 1406 3038 1543 3061 
Q 1681 3084 1819 3084 
Q 2600 3084 3056 2656 
Q 3513 2228 3513 1497 
Q 3513 744 3044 326 
Q 2575 -91 1722 -91 
Q 1428 -91 1123 -41 
Q 819 9 494 109 
L 494 744 
Q 775 591 1075 516 
Q 1375 441 1709 441 
Q 2250 441 2565 725 
Q 2881 1009 2881 1497 
Q 2881 1984 2565 2268 
Q 2250 2553 1709 2553 
Q 1456 2553 1204 2497 
Q 953 2441 691 2322 
L 691 4666 
z
" transform="scale(0.015625)"/>
       </defs>
       <use xlink:href="#DejaVuSans-32"/>
       <use xlink:href="#DejaVuSans-30" x="63.623047"/>
       <use xlink:href="#DejaVuSans-32" x="127.246094"/>
       <use xlink:href="#DejaVuSans-35" x="190.869141"/>
       <use xlink:href="#DejaVuSans-2d" x="254.492188"/>
       <use xlink:href="#DejaVuSans-30" x="290.576172"/>
       <use xlink:href="#DejaVuSans-31" x="354.199219"/>
      </g>
     </g>
    </g>
    <g id="xtick_9">
     <g id="line2d_9">
      <g>
       <use xlink:href="#m84edac76d5" x="533.490693" y="374.830125" style="stroke: #000000; stroke-width: 0.8"/>
      </g>
     </g>
     <g id="text_9">
      <!-- 2025-07 -->
      <g transform="translate(496.265872 409.301971) rotate(-30) scale(0.1 -0.1)">
       <use xlink:href="#DejaVuSans-32"/>
       <use xlink:href="#DejaVuSans-30" x="63.623047"/>
       <use xlink:href="#DejaVuSans-32" x="127.246094"/>
       <use xlink:href="#DejaVuSans-35" x="190.869141"/>
       <use xlink:href="#DejaVuSans-2d" x="254.492188"/>
       <use xlink:href="#DejaVuSans-30" x="290.576172"/>
       <use xlink:href="#DejaVuSans-37" x="354.199219"/>
      </g>
     </g>
    </g>
   </g>
   <g id="matplotlib.axis_2">
    <g id="ytick_1">
     <g id="line2d_10">
      <defs>
       <path id="m05f0b27e5d" d="M 0 0 
L -3.5 0 
" style="stroke: #000000; stroke-width: 0.8"/>
      </defs>
      <g>
       <use xlink:href="#m05f0b27e5d" x="33.2875" y="374.830125" style="stroke: #000000; stroke-width: 0.8"/>
      </g>
     </g>
     <g id="text_10">
      <!-- 0 -->
      <g transform="translate(19.925 378.629344) scale(0.1 -0.1)">
       <use xlink:href="#DejaVuSans-30"/>
      </g>
     </g>
    </g>
    <g id="ytick_2">
     <g id="line2d_11">
      <g>
       <use xlink:href="#m05f0b27e5d" x="33.2875" y="319.779371" style="stroke: #000000; stroke-width: 0.8"/>
      </g>
     </g>
     <g id="text_11">
      <!-- 100 -->
      <g transform="translate(7.2 323.578589) scale(0.1 -0.1)">
       <use xlink:href="#DejaVuSans-31"/>
       <use xlink:href="#DejaVuSans-30" x="63.623047"/>
       <use xlink:href="#DejaVuSans-30" x="127.246094"/>
      </g>
     </g>
    </g>
    <g id="ytick_3">
     <g id="line2d_12">
      <g>
       <use xlink:href="#m05f0b27e5d" x="33.2875" y="264.728616" style="stroke: #000000; stroke-width: 0.8"/>
      </g>
     </g>
     <g id="text_12">
      <!-- 200 -->
      <g transform="translate(7.2 268.527835) scale(0.1 -0.1)">
       <use xlink:href="#DejaVuSans-32"/>
       <use xlink:href="#DejaVuSans-30" x="63.623047"/>
       <use xlink:href="#DejaVuSans-30" x="127.246094"/>
      </g>
     </g>
    </g>
    <g id="ytick_4">
     <g id="line2d_13">
      <g>
       <use xlink:href="#m05f0b27e5d" x="33.2875" y="209.677862" style="stroke: #000000; stroke-width: 0.8"/>
      </g>
     </g>
     <g id="text_13">
      <!-- 300 -->
      <g transform="translate(7.2 213.477081) scale(0.1 -0.1)">
       <use xlink:href="#DejaVuSans-33"/>
       <use xlink:href="#DejaVuSans-30" x="63.623047"/>
       <use xlink:href="#DejaVuSans-30" x="127.246094"/>
      </g>
     </g>
    </g>
    <g id="ytick_5">
     <g id="line2d_14">
      <g>
       <use xlink:href="#m05f0b27e5d" x="33.2875" y="154.627108" style="stroke: #000000; stroke-width: 0.8"/>
      </g>
     </g>
     <g id="text_14">
      <!-- 400 -->
      <g transform="translate(7.2 158.426327) scale(0.1 -0.1)">
       <use xlink:href="#DejaVuSans-34"/>
       <use xlink:href="#DejaVuSans-30" x="63.623047"/>
       <use xlink:href="#DejaVuSans-30" x="127.246094"/>
      </g>
     </g>
    </g>
    <g id="ytick_6">
     <g id="line2d_15">
      <g>
       <use xlink:href="#m05f0b27e5d" x="33.2875" y="99.576354" style="stroke: #000000; stroke-width: 0.8"/>
      </g>
     </g>
     <g id="text_15">
      <!-- 500 -->
      <g transform="translate(7.2 103.375572) scale(0.1 -0.1)">
       <use xlink:href="#DejaVuSans-35"/>
       <use xlink:href="#DejaVuSans-30" x="63.623047"/>
       <use xlink:href="#DejaVuSans-30" x="127.246094"/>
      </g>
     </g>
    </g>
    <g id="ytick_7">
     <g id="line2d_16">
      <g>
       <use xlink:href="#m05f0b27e5d" x="33.2875" y="44.525599" style="stroke: #000000; stroke-width: 0.8"/>
      </g>
     </g>
     <g id="text_16">
      <!-- 600 -->
      <g transform="translate(7.2 48.324818) scale(0.1 -0.1)">
       <defs>
        <path id="DejaVuSans-36" d="M 2113 2584 
Q 1688 2584 1439 2293 
Q 1191 2003 1191 1497 
Q 1191 994 1439 701 
Q 1688 409 2113 409 
Q 2538 409 2786 701 
Q 3034 994 3034 1497 
Q 3034 2003 2786 2293 
Q 2538 2584 2113 2584 
z
M 3366 4563 
L 3366 3988 
Q 3128 4100 2886 4159 
Q 2644 4219 2406 4219 
Q 1781 4219 1451 3797 
Q 1122 3375 1075 2522 
Q 1259 2794 1537 2939 
Q 1816 3084 2150 3084 
Q 2853 3084 3261 2657 
Q 3669 2231 3669 1497 
Q 3669 778 3244 343 
Q 2819 -91 2113 -91 
Q 1303 -91 875 529 
Q 447 1150 447 2328 
Q 447 3434 972 4092 
Q 1497 4750 2381 4750 
Q 2619 4750 2861 4703 
Q 3103 4656 3366 4563 
z
" transform="scale(0.015625)"/>
       </defs>
       <use xlink:href="#DejaVuSans-36"/>
       <use xlink:href="#DejaVuSans-30" x="63.623047"/>
       <use xlink:href="#DejaVuSans-30" x="127.246094"/>
      </g>
     </g>
    </g>
   </g>
   <g id="line2d_17">
    <path d="M 38.539265 31.313418 
L 48.143362 31.313418 
L 48.252083 34.616464 
L 49.596717 34.616464 
L 50.08893 43.975092 
L 129.432719 43.975092 
L 129.827756 38.470016 
L 143.031047 38.470016 
L 143.806645 39.020524 
L 149.998651 39.020524 
L 150.215192 50.030675 
L 156.494591 50.030675 
L 157.795931 48.379152 
L 265.374059 48.379152 
L 265.680453 44.525599 
L 274.111949 44.525599 
L 274.412882 43.424584 
L 316.732423 43.424584 
L 316.943173 42.323569 
L 385.330018 42.323569 
L 385.52593 37.919509 
L 437.371727 37.919509 
L 437.460897 37.369001 
L 477.061893 37.369001 
L 477.425823 36.818494 
L 481.028056 36.818494 
L 481.14758 34.616464 
L 482.593207 34.616464 
L 482.968823 35.166971 
L 507.957461 35.166971 
L 508.265956 34.616464 
L 560.881041 34.616464 
L 561.060655 25.808343 
L 563.715735 25.808343 
L 563.715735 25.808343 
" clip-path="url(#p8f42038db0)" style="fill: none; stroke: #0000ff; stroke-width: 1.5; stroke-linecap: square"/>
   </g>
   <g id="line2d_18">
    <path d="M 38.539265 172.243349 
L 39.859704 171.142334 
L 41.175882 172.243349 
L 44.29272 172.243349 
L 47.729406 173.344364 
L 47.984358 172.793857 
L 48.143362 172.793857 
L 48.252083 176.096902 
L 48.503009 175.546394 
L 48.874135 176.096902 
L 49.596717 176.096902 
L 49.999159 188.208068 
L 50.08893 185.45553 
L 50.297819 188.758576 
L 50.364248 188.208068 
L 50.598325 188.208068 
L 50.97276 188.758576 
L 51.873935 188.758576 
L 51.900835 189.309083 
L 52.389329 189.309083 
L 52.596102 188.758576 
L 53.200636 192.612128 
L 53.270463 192.061621 
L 53.56731 192.612128 
L 54.141526 194.263651 
L 54.531004 193.162636 
L 55.146622 193.162636 
L 55.490661 194.263651 
L 55.723235 194.263651 
L 56.423911 194.814158 
L 56.738323 194.814158 
L 57.080216 195.915174 
L 57.385937 195.364666 
L 57.725427 196.465681 
L 58.078172 198.667711 
L 59.442118 199.768726 
L 60.021299 199.768726 
L 60.269394 200.319234 
L 60.664685 200.319234 
L 60.9557 200.869741 
L 61.252139 200.319234 
L 61.582652 200.319234 
L 61.776202 200.869741 
L 65.12459 200.869741 
L 65.462532 201.420249 
L 65.786369 201.420249 
L 65.91211 200.869741 
L 66.711906 201.420249 
L 67.047115 200.869741 
L 67.971318 200.869741 
L 68.268041 201.420249 
L 68.632846 200.869741 
L 70.314992 200.869741 
L 70.65964 201.420249 
L 70.848816 203.071772 
L 71.30925 201.970757 
L 72.379886 201.970757 
L 72.911074 202.521264 
L 73.232257 202.521264 
L 73.544195 203.071772 
L 73.892369 203.071772 
L 74.212049 202.521264 
L 74.517519 204.172787 
L 74.788718 204.172787 
L 75.526043 205.273802 
L 79.397224 205.273802 
L 79.704956 206.374817 
L 80.360813 206.374817 
L 80.651914 206.925324 
L 81.628259 206.925324 
L 82.562839 209.127355 
L 83.556204 209.127355 
L 83.911996 209.677862 
L 89.913599 209.677862 
L 90.634121 210.778877 
L 90.797343 209.677862 
L 91.95308 209.677862 
L 92.266925 210.22837 
L 92.613188 209.677862 
L 93.437037 209.677862 
L 93.892091 210.22837 
L 94.22991 209.677862 
L 99.331796 209.677862 
L 99.610601 214.63243 
L 99.803901 209.677862 
L 101.65283 209.677862 
L 101.988472 210.22837 
L 102.180052 215.182938 
L 102.632606 210.22837 
L 102.952234 210.22837 
L 103.164408 209.677862 
L 106.512048 209.677862 
L 106.681576 210.22837 
L 106.985806 210.22837 
L 107.486838 211.879892 
L 112.536724 211.879892 
L 113.638844 212.4304 
L 120.421402 212.4304 
L 120.703834 214.63243 
L 121.064729 214.63243 
L 121.384753 212.4304 
L 121.714006 212.4304 
L 121.94088 214.63243 
L 122.186766 212.4304 
L 122.595391 214.63243 
L 122.957351 215.733445 
L 127.154421 215.733445 
L 127.51668 216.283953 
L 129.432719 216.283953 
L 129.827756 210.22837 
L 130.109944 210.778877 
L 130.428907 212.4304 
L 130.822687 212.4304 
L 131.35068 213.531415 
L 131.715066 213.531415 
L 131.983658 214.081922 
L 132.344441 211.879892 
L 134.98603 217.384968 
L 135.255755 215.733445 
L 135.708014 215.182938 
L 137.144434 215.182938 
L 137.512902 214.63243 
L 137.837827 213.531415 
L 139.138611 213.531415 
L 139.376441 212.4304 
L 139.794763 213.531415 
L 140.739474 213.531415 
L 141.060986 214.63243 
L 141.371111 214.63243 
L 141.738402 215.182938 
L 141.886614 215.182938 
L 142.052258 216.83446 
L 142.276802 216.83446 
L 143.031047 217.384968 
L 143.654254 216.283953 
L 143.806645 216.283953 
L 144.295188 216.83446 
L 144.60864 217.935475 
L 146.228505 217.935475 
L 146.541262 218.485983 
L 146.877118 218.485983 
L 147.188061 219.03649 
L 147.479345 219.03649 
L 148.156189 219.586998 
L 148.505749 219.586998 
L 148.85433 221.238521 
L 149.060429 221.238521 
L 149.422719 220.688013 
L 149.998651 220.688013 
L 150.215192 222.339536 
L 150.749356 222.339536 
L 151.065832 223.440551 
L 151.488491 223.440551 
L 151.706202 223.991058 
L 152.184961 223.991058 
L 152.232602 224.541566 
L 152.475097 224.541566 
L 152.986798 225.092073 
L 154.150495 228.395119 
L 155.601001 228.395119 
L 155.896715 229.496134 
L 156.008063 228.945626 
L 156.137008 228.945626 
L 156.494591 228.395119 
L 157.795931 226.743596 
L 161.051726 226.743596 
L 161.42899 226.193088 
L 163.004781 226.193088 
L 163.229053 225.642581 
L 166.180008 225.642581 
L 166.694685 226.193088 
L 167.091063 226.193088 
L 167.521393 226.743596 
L 167.737922 226.193088 
L 169.812338 226.193088 
L 170.46701 227.294104 
L 171.860297 227.294104 
L 172.094875 235.001209 
L 172.359318 235.001209 
L 174.612929 236.652732 
L 174.751414 236.102224 
L 174.895887 236.652732 
L 175.27089 236.102224 
L 175.585449 236.102224 
L 175.916523 236.652732 
L 176.165142 236.652732 
L 176.564291 237.753747 
L 176.728447 237.753747 
L 176.880367 237.203239 
L 177.220877 238.304254 
L 179.48473 238.304254 
L 179.704968 238.854762 
L 180.922799 238.854762 
L 181.407681 238.304254 
L 181.770965 241.056792 
L 182.029591 239.405269 
L 182.366897 239.405269 
L 182.637262 242.708315 
L 182.82643 242.157807 
L 183.027808 242.708315 
L 183.129236 242.157807 
L 183.253377 243.80933 
L 183.575218 243.80933 
L 183.982998 244.359837 
L 184.781662 243.80933 
L 184.963518 244.910345 
L 185.260724 244.910345 
L 185.471193 243.258822 
L 186.185629 244.910345 
L 186.896025 245.460852 
L 187.519916 245.460852 
L 187.847203 247.112375 
L 188.148038 247.112375 
L 188.326235 246.561868 
L 188.638996 246.561868 
L 189.848647 248.763898 
L 190.050388 247.662883 
L 190.438718 247.112375 
L 190.894184 248.763898 
L 192.118452 248.763898 
L 192.223259 249.314405 
L 192.711079 249.864913 
L 194.011493 249.864913 
L 194.606734 252.61745 
L 197.951694 252.61745 
L 198.215826 253.167958 
L 198.563218 252.066943 
L 198.765464 253.167958 
L 202.412145 253.167958 
L 202.716831 253.718466 
L 203.451588 257.021511 
L 203.727246 255.369988 
L 204.055756 255.920496 
L 204.41951 255.369988 
L 204.675486 255.369988 
L 205.063349 253.718466 
L 205.271325 253.718466 
L 205.311691 254.268973 
L 205.96615 254.268973 
L 206.334514 250.965928 
L 206.659278 250.965928 
L 207.636232 251.516435 
L 207.698048 250.965928 
L 208.228489 250.41542 
L 208.307274 250.965928 
L 210.863185 250.965928 
L 211.041031 251.516435 
L 211.518018 252.066943 
L 212.154959 253.167958 
L 212.320625 254.268973 
L 212.544493 254.268973 
L 212.79528 255.369988 
L 213.097229 254.819481 
L 213.435328 254.819481 
L 213.690085 254.268973 
L 214.04923 254.819481 
L 214.369707 254.819481 
L 214.676863 255.369988 
L 214.925508 255.369988 
L 215.39355 254.819481 
L 215.636872 255.369988 
L 215.888709 254.819481 
L 216.620031 250.41542 
L 217.32351 251.516435 
L 217.426362 255.369988 
L 217.583172 255.369988 
L 217.870097 255.920496 
L 218.203437 255.369988 
L 218.507775 255.369988 
L 218.882677 254.819481 
L 219.2074 255.920496 
L 220.379362 255.920496 
L 220.84512 256.471003 
L 221.111293 256.471003 
L 221.131947 257.021511 
L 222.459934 257.021511 
L 222.838007 258.122526 
L 224.696106 258.122526 
L 225.066511 259.223541 
L 226.32784 259.223541 
L 228.625637 258.673033 
L 228.838799 259.223541 
L 229.413699 259.223541 
L 229.897445 259.774049 
L 230.221492 260.875064 
L 230.318388 260.324556 
L 230.670603 261.425571 
L 231.454134 261.425571 
L 234.627566 262.526586 
L 242.471751 262.526586 
L 242.79127 261.976079 
L 244.324889 261.976079 
L 244.642778 262.526586 
L 245.696214 262.526586 
L 246.059797 263.077094 
L 246.321234 262.526586 
L 246.624649 263.077094 
L 246.96037 262.526586 
L 247.235912 263.627601 
L 247.657924 263.077094 
L 247.965847 263.627601 
L 254.659184 263.627601 
L 255.004934 262.526586 
L 255.37122 263.077094 
L 255.702489 262.526586 
L 256.073544 262.526586 
L 256.371119 261.976079 
L 257.613043 261.976079 
L 257.928391 262.526586 
L 258.28459 261.976079 
L 258.609108 260.875064 
L 259.252583 260.875064 
L 259.615631 260.324556 
L 259.887304 261.425571 
L 260.236782 261.425571 
L 260.506784 260.875064 
L 261.358965 261.976079 
L 261.857496 261.425571 
L 262.153685 261.976079 
L 262.783826 261.976079 
L 263.139476 261.425571 
L 263.488704 263.077094 
L 263.824832 262.526586 
L 264.470143 262.526586 
L 264.716131 261.976079 
L 265.03073 262.526586 
L 265.374059 262.526586 
L 265.680453 257.572018 
L 265.802179 258.122526 
L 266.042955 258.122526 
L 266.210685 258.673033 
L 266.356867 258.673033 
L 266.549329 259.223541 
L 266.679758 258.122526 
L 267.323675 259.223541 
L 267.876912 259.223541 
L 268.145957 260.324556 
L 268.412598 259.223541 
L 268.586197 259.774049 
L 269.564957 259.774049 
L 269.85633 259.223541 
L 270.132661 259.223541 
L 270.4799 259.774049 
L 270.800989 259.774049 
L 271.181615 259.223541 
L 271.548924 259.774049 
L 271.83392 259.774049 
L 272.282414 260.875064 
L 274.111949 260.875064 
L 274.412882 259.223541 
L 275.830823 259.223541 
L 276.156474 259.774049 
L 276.412636 260.324556 
L 276.91418 260.324556 
L 277.070654 261.425571 
L 277.142433 260.875064 
L 277.31214 261.425571 
L 277.78949 261.425571 
L 278.023496 262.526586 
L 278.660643 262.526586 
L 278.958054 263.627601 
L 279.941632 263.627601 
L 280.177511 265.279124 
L 280.395169 265.829632 
L 280.52078 265.829632 
L 280.944496 266.380139 
L 281.093628 265.829632 
L 281.1659 266.380139 
L 281.631781 266.380139 
L 282.178918 266.930647 
L 283.406408 266.930647 
L 283.722985 266.380139 
L 284.026322 266.930647 
L 284.368259 266.930647 
L 284.532135 267.481154 
L 284.571551 266.930647 
L 284.766055 267.481154 
L 284.918181 267.481154 
L 285.068412 268.582169 
L 285.646894 269.683184 
L 286.068132 269.132677 
L 286.388395 269.683184 
L 287.018002 269.683184 
L 287.359719 270.784199 
L 287.484817 270.233692 
L 287.688046 271.885214 
L 287.976025 271.334707 
L 288.162794 271.885214 
L 288.310471 271.334707 
L 288.473663 272.435722 
L 288.806285 272.435722 
L 288.9048 272.98623 
L 289.29504 272.435722 
L 289.596859 273.536737 
L 290.277803 273.536737 
L 290.522931 274.637752 
L 290.870622 273.536737 
L 291.106833 273.536737 
L 291.193434 274.087245 
L 291.828944 274.087245 
L 292.126213 276.289275 
L 292.553732 274.087245 
L 292.620015 274.637752 
L 293.182931 274.087245 
L 293.236235 275.18826 
L 293.429845 275.18826 
L 293.819981 275.738767 
L 294.136595 275.18826 
L 294.37579 275.18826 
L 294.72975 276.289275 
L 295.114831 276.289275 
L 295.488264 275.738767 
L 295.767358 276.289275 
L 295.936938 275.738767 
L 296.105602 276.839782 
L 297.600123 276.839782 
L 298.059462 277.39029 
L 298.99732 277.39029 
L 299.330088 276.289275 
L 299.957261 276.289275 
L 300.271158 276.839782 
L 303.12675 276.839782 
L 303.51213 276.289275 
L 303.873376 277.39029 
L 308.255779 277.39029 
L 309.21716 277.940797 
L 309.788165 277.940797 
L 310.2519 278.491305 
L 310.618376 278.491305 
L 310.833728 279.041813 
L 315.71178 279.041813 
L 316.107983 278.491305 
L 316.4221 279.041813 
L 316.732423 278.491305 
L 316.943173 275.18826 
L 318.870285 275.18826 
L 319.042228 275.738767 
L 319.375523 275.738767 
L 319.485743 275.18826 
L 321.480574 275.18826 
L 321.757312 275.738767 
L 321.861898 275.18826 
L 322.335917 275.18826 
L 322.55503 276.289275 
L 322.83123 275.18826 
L 323.037441 276.289275 
L 323.183803 276.289275 
L 323.372575 275.18826 
L 323.537673 276.289275 
L 323.643474 275.18826 
L 323.686087 276.289275 
L 324.82156 276.289275 
L 325.001801 276.839782 
L 325.028235 277.39029 
L 325.606444 277.39029 
L 325.640522 277.940797 
L 325.973675 277.940797 
L 326.146182 278.491305 
L 326.293262 277.940797 
L 326.473952 278.491305 
L 326.596145 277.940797 
L 326.882734 278.491305 
L 327.003937 277.940797 
L 327.020557 278.491305 
L 327.38383 278.491305 
L 327.611443 279.041813 
L 327.755001 279.041813 
L 327.969983 280.142828 
L 328.208523 280.693335 
L 328.37327 280.142828 
L 330.208244 280.142828 
L 330.470612 280.693335 
L 331.876916 280.693335 
L 332.101247 281.243843 
L 332.397772 281.243843 
L 332.617808 281.79435 
L 332.739086 281.243843 
L 333.320929 281.243843 
L 333.517282 282.344858 
L 334.051727 282.344858 
L 334.10305 282.895365 
L 334.177626 282.344858 
L 334.292997 282.344858 
L 334.499982 283.445873 
L 334.71554 283.99638 
L 334.775786 283.445873 
L 335.020132 285.647903 
L 336.009732 285.647903 
L 336.10922 286.198411 
L 336.326014 286.198411 
L 336.453012 287.299426 
L 336.602057 286.198411 
L 337.91579 286.198411 
L 337.991808 286.748918 
L 338.243795 286.198411 
L 338.364445 286.748918 
L 338.587513 286.198411 
L 338.877268 286.198411 
L 339.054956 287.299426 
L 339.37886 287.299426 
L 339.511723 286.748918 
L 339.625558 287.849933 
L 339.961746 286.198411 
L 340.314046 287.299426 
L 340.569256 286.198411 
L 341.16668 286.198411 
L 341.631626 287.849933 
L 341.776302 287.299426 
L 341.936521 287.849933 
L 342.368843 286.748918 
L 342.507276 287.849933 
L 343.533269 287.849933 
L 343.698647 288.400441 
L 343.986843 288.400441 
L 344.140476 287.849933 
L 344.334374 288.400441 
L 344.456978 287.849933 
L 344.830467 288.950948 
L 345.340385 288.950948 
L 345.700013 290.051963 
L 347.257636 290.051963 
L 347.427937 290.602471 
L 347.63625 290.051963 
L 347.739318 290.602471 
L 347.951702 290.051963 
L 348.233771 290.051963 
L 348.415706 290.602471 
L 348.535331 290.051963 
L 348.916177 290.051963 
L 349.033975 290.602471 
L 349.56793 290.602471 
L 349.603922 291.703486 
L 351.887618 291.703486 
L 352.11291 292.253994 
L 352.260786 291.703486 
L 352.386067 292.253994 
L 352.481229 291.703486 
L 352.595378 292.804501 
L 353.121311 292.804501 
L 353.369402 293.355009 
L 353.419682 292.804501 
L 353.471196 293.355009 
L 353.754499 292.804501 
L 353.827717 293.355009 
L 354.104769 293.905516 
L 354.213284 294.456024 
L 354.420446 294.456024 
L 354.468079 295.006531 
L 354.756514 296.658054 
L 354.886338 296.107546 
L 355.061555 296.107546 
L 355.093121 297.208561 
L 356.324178 297.208561 
L 356.477082 297.759069 
L 356.718254 297.208561 
L 357.136008 297.759069 
L 357.24766 297.208561 
L 357.43044 297.759069 
L 357.655074 297.759069 
L 357.788751 298.309577 
L 358.100113 298.309577 
L 358.107747 298.860084 
L 358.203728 298.309577 
L 358.295735 299.410592 
L 358.431722 299.410592 
L 358.619964 299.961099 
L 359.911275 299.961099 
L 359.945353 299.410592 
L 360.026646 300.511607 
L 360.367189 300.511607 
L 360.541106 299.961099 
L 360.674982 300.511607 
L 360.876539 299.961099 
L 361.027555 300.511607 
L 361.197225 300.511607 
L 361.343018 299.961099 
L 361.487578 301.612622 
L 363.218112 301.612622 
L 363.738519 302.713637 
L 364.012454 302.163129 
L 370.549646 302.163129 
L 370.660636 302.713637 
L 370.85915 302.163129 
L 370.916365 302.713637 
L 371.509542 302.713637 
L 371.673795 303.264144 
L 372.50632 303.264144 
L 372.617557 303.814652 
L 372.774352 303.264144 
L 374.049655 303.264144 
L 374.226547 303.814652 
L 374.449312 303.264144 
L 374.572313 303.264144 
L 374.76833 304.36516 
L 374.876161 303.814652 
L 375.354106 303.814652 
L 375.562355 304.36516 
L 376.542591 304.36516 
L 376.702268 303.264144 
L 377.025818 304.36516 
L 378.76668 304.36516 
L 378.945169 304.915667 
L 379.104625 304.915667 
L 379.276355 305.466175 
L 379.404713 305.466175 
L 379.563602 306.016682 
L 379.935356 306.016682 
L 380.001214 306.56719 
L 380.311126 306.56719 
L 380.506885 305.466175 
L 380.659744 306.016682 
L 380.893727 306.016682 
L 380.989136 306.56719 
L 381.347092 306.56719 
L 381.667251 307.117697 
L 382.016366 308.76922 
L 382.130668 308.218712 
L 382.237097 308.76922 
L 382.481383 309.319727 
L 382.597222 308.76922 
L 382.908154 309.319727 
L 383.11379 308.76922 
L 383.281737 308.76922 
L 383.610762 310.420742 
L 383.80949 309.870235 
L 383.927867 309.870235 
L 384.256268 310.97125 
L 384.320754 310.420742 
L 384.534195 310.97125 
L 384.681992 310.420742 
L 384.803838 310.97125 
L 385.330018 310.97125 
L 385.52593 303.264144 
L 386.049164 304.36516 
L 386.394638 304.36516 
L 386.515479 304.915667 
L 386.703698 304.36516 
L 386.824512 304.36516 
L 386.967468 303.814652 
L 387.131841 304.36516 
L 387.357626 304.36516 
L 387.468721 303.814652 
L 387.609867 304.36516 
L 387.802371 303.814652 
L 387.878034 304.36516 
L 388.278162 304.915667 
L 388.572186 303.814652 
L 388.838554 304.36516 
L 390.021955 304.36516 
L 390.30275 304.915667 
L 390.597574 304.36516 
L 391.127888 304.36516 
L 391.534453 305.466175 
L 391.673906 303.814652 
L 391.908623 304.36516 
L 392.207835 303.814652 
L 392.344709 305.466175 
L 392.509964 304.36516 
L 392.666142 304.36516 
L 392.770153 304.915667 
L 392.847775 307.117697 
L 392.861707 306.56719 
L 393.206042 307.117697 
L 394.05592 307.117697 
L 394.457947 308.218712 
L 394.623789 307.668205 
L 395.219164 307.668205 
L 395.381383 307.117697 
L 395.554762 307.668205 
L 395.744936 307.668205 
L 395.856659 307.117697 
L 396.196548 307.668205 
L 396.396221 307.668205 
L 396.527125 308.218712 
L 396.687225 307.668205 
L 396.859224 307.668205 
L 397.020411 307.117697 
L 397.120257 307.668205 
L 398.018143 307.668205 
L 398.242777 309.319727 
L 398.514371 308.76922 
L 398.738997 308.76922 
L 398.92085 308.218712 
L 399.003534 308.76922 
L 399.285222 308.218712 
L 399.390529 308.76922 
L 399.638685 308.76922 
L 399.735768 309.319727 
L 400.032327 308.76922 
L 400.643429 308.76922 
L 400.869992 309.319727 
L 401.247406 309.319727 
L 401.342568 309.870235 
L 401.503404 309.319727 
L 401.879387 310.420742 
L 401.991259 310.420742 
L 402.157179 310.97125 
L 402.310128 310.97125 
L 402.597913 311.521758 
L 404.938876 311.521758 
L 405.188269 312.072265 
L 405.422117 312.072265 
L 405.469728 310.97125 
L 405.528692 311.521758 
L 405.910215 311.521758 
L 405.997298 312.072265 
L 406.499306 312.072265 
L 406.739054 312.622773 
L 407.061056 312.622773 
L 407.071766 312.072265 
L 407.178808 312.622773 
L 407.277248 312.072265 
L 408.679381 312.072265 
L 408.942287 311.521758 
L 409.675677 312.072265 
L 411.196541 312.072265 
L 411.26235 312.622773 
L 412.85826 312.622773 
L 413.002016 313.17328 
L 414.477909 315.925818 
L 414.617788 315.925818 
L 414.763724 316.476325 
L 414.828714 315.925818 
L 415.143003 316.476325 
L 415.434997 317.026833 
L 415.784206 317.026833 
L 415.901476 317.577341 
L 416.342793 317.577341 
L 416.981988 317.026833 
L 417.01419 318.678356 
L 417.528624 318.678356 
L 417.688066 318.127848 
L 417.803874 318.678356 
L 418.985747 318.678356 
L 419.260107 318.127848 
L 420.527579 318.127848 
L 421.31022 318.678356 
L 422.891203 318.678356 
L 423.669706 319.228863 
L 423.773825 319.779371 
L 426.115151 319.779371 
L 426.335109 319.228863 
L 427.523702 319.228863 
L 428.391584 318.678356 
L 429.024021 318.678356 
L 429.337873 319.228863 
L 429.616514 320.329878 
L 429.782412 320.329878 
L 429.788886 319.779371 
L 431.649756 319.779371 
L 431.849474 320.329878 
L 436.55054 320.329878 
L 437.143291 320.880386 
L 437.371727 320.880386 
L 437.460897 321.430893 
L 437.751425 321.430893 
L 437.873436 320.880386 
L 438.062571 321.430893 
L 439.124511 321.430893 
L 439.597869 321.981401 
L 439.926681 323.082416 
L 442.806463 323.082416 
L 443.313331 322.531908 
L 443.459984 323.082416 
L 443.608338 322.531908 
L 443.775111 323.082416 
L 444.564941 323.082416 
L 444.929091 322.531908 
L 445.113879 323.082416 
L 445.623408 321.981401 
L 445.821994 323.082416 
L 447.055028 323.082416 
L 447.069615 323.632924 
L 449.023706 323.632924 
L 449.973808 324.183431 
L 450.258931 323.632924 
L 450.788673 323.632924 
L 450.917091 324.183431 
L 451.369727 322.531908 
L 451.668574 323.082416 
L 452.070335 322.531908 
L 452.367922 322.531908 
L 452.503073 323.082416 
L 453.323527 323.082416 
L 454.298365 322.531908 
L 454.445096 323.082416 
L 455.415112 323.082416 
L 455.730048 322.531908 
L 460.667098 323.082416 
L 461.036766 322.531908 
L 461.356248 323.082416 
L 461.642527 322.531908 
L 461.674556 323.082416 
L 461.923788 323.632924 
L 462.068128 323.632924 
L 462.20016 324.183431 
L 464.495565 324.183431 
L 464.544477 324.733939 
L 464.829798 324.733939 
L 465.591647 324.183431 
L 465.615882 324.733939 
L 465.908591 324.183431 
L 465.979734 325.284446 
L 466.168136 325.284446 
L 466.550362 325.834954 
L 467.190899 325.834954 
L 467.579839 325.284446 
L 468.017148 326.385461 
L 468.035084 326.935969 
L 468.4599 327.486476 
L 468.772346 326.935969 
L 469.211685 326.935969 
L 469.303016 327.486476 
L 470.303326 327.486476 
L 470.441131 326.935969 
L 470.609836 328.036984 
L 470.748886 328.036984 
L 471.012791 327.486476 
L 471.2528 328.036984 
L 471.788026 328.036984 
L 472.023744 329.137999 
L 473.704877 329.137999 
L 473.905862 329.688506 
L 474.02893 329.688506 
L 474.231437 329.137999 
L 474.283665 329.688506 
L 474.820088 329.688506 
L 474.927978 330.239014 
L 475.221012 330.239014 
L 475.304708 331.340029 
L 475.761902 331.340029 
L 475.93368 332.991552 
L 476.291356 332.991552 
L 476.500543 332.441044 
L 476.613555 332.991552 
L 476.765685 332.991552 
L 476.777304 334.643074 
L 477.061893 334.643074 
L 477.425823 334.092567 
L 477.590924 334.092567 
L 477.731963 334.643074 
L 478.082704 334.643074 
L 478.446156 334.092567 
L 478.483539 335.193582 
L 478.805346 335.193582 
L 478.864665 335.744089 
L 479.088892 336.294597 
L 479.681228 336.294597 
L 479.768289 337.395612 
L 480.022489 337.395612 
L 480.17152 337.94612 
L 480.314524 337.94612 
L 480.82735 338.496627 
L 481.028056 337.94612 
L 481.14758 330.239014 
L 481.277209 329.688506 
L 481.365003 331.890537 
L 481.997387 331.890537 
L 482.257311 331.340029 
L 482.446692 332.441044 
L 482.593207 332.441044 
L 482.968823 332.991552 
L 483.381953 332.991552 
L 483.57046 332.441044 
L 483.718056 332.991552 
L 484.714183 332.991552 
L 484.836837 333.542059 
L 485.290979 332.441044 
L 485.660266 332.991552 
L 485.871884 332.991552 
L 485.953162 333.542059 
L 486.13999 332.441044 
L 486.3216 333.542059 
L 487.075135 333.542059 
L 487.191931 332.991552 
L 487.460347 332.991552 
L 487.502571 333.542059 
L 487.806495 334.092567 
L 487.818356 333.542059 
L 488.389918 333.542059 
L 488.6841 334.092567 
L 490.210691 334.092567 
L 490.325157 334.643074 
L 490.627903 334.092567 
L 490.638011 334.643074 
L 491.07273 335.193582 
L 491.339838 335.193582 
L 491.647215 335.744089 
L 491.800691 336.294597 
L 491.918032 336.294597 
L 492.287275 335.193582 
L 492.360216 336.294597 
L 492.60851 335.744089 
L 492.817499 336.294597 
L 493.750206 336.294597 
L 493.85471 336.845105 
L 493.984956 336.294597 
L 494.436306 336.845105 
L 494.65432 336.294597 
L 494.875268 336.845105 
L 495.008018 336.294597 
L 495.317183 337.395612 
L 495.530792 336.845105 
L 496.261415 336.845105 
L 496.552086 337.395612 
L 496.976509 337.395612 
L 497.314189 336.294597 
L 497.404192 336.845105 
L 497.764997 336.845105 
L 497.856563 337.94612 
L 498.311618 336.845105 
L 498.470533 337.395612 
L 498.83718 336.845105 
L 499.104816 336.845105 
L 499.241929 337.395612 
L 499.433266 337.395612 
L 499.569665 334.092567 
L 499.998866 334.643074 
L 500.054469 333.542059 
L 500.208569 334.643074 
L 500.349847 334.092567 
L 500.434642 334.643074 
L 500.771032 334.092567 
L 501.174652 334.643074 
L 501.377963 334.643074 
L 501.657049 334.092567 
L 502.053749 334.092567 
L 502.460486 335.193582 
L 502.673543 334.643074 
L 503.104366 334.643074 
L 503.305834 334.092567 
L 503.335493 333.542059 
L 503.586475 334.643074 
L 503.719576 334.092567 
L 503.876136 334.643074 
L 504.10877 334.092567 
L 504.372069 334.092567 
L 504.541216 333.542059 
L 504.861998 333.542059 
L 505.195974 334.643074 
L 505.422593 334.092567 
L 505.698568 335.193582 
L 505.842291 335.193582 
L 505.932503 334.643074 
L 506.213182 334.643074 
L 506.23674 335.193582 
L 507.167201 335.193582 
L 507.319634 335.744089 
L 507.450197 335.744089 
L 507.651467 336.294597 
L 507.825066 335.744089 
L 507.957461 336.294597 
L 508.154843 335.744089 
L 508.265956 336.294597 
L 508.409368 335.744089 
L 508.455573 336.294597 
L 508.614335 337.395612 
L 508.8083 336.845105 
L 508.869343 336.294597 
L 509.073902 336.845105 
L 509.241071 336.294597 
L 509.442561 336.845105 
L 509.772753 336.845105 
L 509.864693 337.395612 
L 510.092799 336.845105 
L 510.691868 338.496627 
L 510.853018 338.496627 
L 511.019705 337.395612 
L 511.098508 337.94612 
L 511.334174 337.94612 
L 511.441396 337.395612 
L 511.634097 337.395612 
L 511.809539 337.94612 
L 512.035085 337.94612 
L 512.413752 339.597642 
L 512.615212 339.047135 
L 515.263444 339.047135 
L 515.38668 339.597642 
L 515.54296 339.597642 
L 515.668637 339.047135 
L 515.920793 339.597642 
L 516.549005 337.395612 
L 516.654096 338.496627 
L 517.318813 337.395612 
L 517.784185 337.395612 
L 518.420981 338.496627 
L 519.546711 337.94612 
L 519.832597 338.496627 
L 520.147548 337.94612 
L 520.372485 339.047135 
L 520.462701 337.94612 
L 520.759219 339.047135 
L 521.082286 337.94612 
L 521.189231 339.047135 
L 521.396399 339.047135 
L 521.510283 338.496627 
L 521.716704 339.047135 
L 521.840583 339.047135 
L 521.955973 338.496627 
L 522.096174 340.14815 
L 522.463865 339.047135 
L 522.807769 339.047135 
L 523.017906 339.597642 
L 523.414483 339.597642 
L 523.736996 339.047135 
L 523.925541 339.047135 
L 524.068074 340.14815 
L 524.245867 339.597642 
L 524.34513 340.14815 
L 524.584807 340.698657 
L 524.731767 340.698657 
L 524.988703 339.597642 
L 525.234395 341.249165 
L 525.543204 341.249165 
L 525.566643 342.35018 
L 525.58821 341.799672 
L 525.749715 341.249165 
L 525.919489 342.35018 
L 525.990304 341.249165 
L 526.246227 341.249165 
L 526.281098 341.799672 
L 526.569436 342.35018 
L 526.742003 342.35018 
L 526.822889 341.249165 
L 527.209839 342.35018 
L 527.272504 341.249165 
L 527.483266 342.35018 
L 527.645395 340.698657 
L 528.138252 341.799672 
L 528.509535 340.14815 
L 528.538245 340.698657 
L 528.773421 340.14815 
L 528.9221 340.14815 
L 529.076451 341.249165 
L 529.260778 340.14815 
L 529.615161 341.249165 
L 529.749612 340.14815 
L 529.895189 340.698657 
L 530.191845 340.698657 
L 530.387754 340.14815 
L 530.762775 340.14815 
L 530.774222 340.698657 
L 531.364461 339.597642 
L 531.677494 341.249165 
L 531.843632 341.249165 
L 532.037264 340.698657 
L 532.091996 341.799672 
L 532.366876 340.698657 
L 532.536135 341.799672 
L 532.706766 340.698657 
L 532.777281 341.249165 
L 533.127226 341.249165 
L 533.336941 341.799672 
L 533.432858 342.900688 
L 533.628124 341.799672 
L 533.949381 342.35018 
L 534.091493 342.900688 
L 534.267084 342.35018 
L 534.417004 344.55221 
L 534.652326 344.55221 
L 534.963528 345.102718 
L 535.001071 344.001703 
L 535.307357 345.102718 
L 535.743339 344.001703 
L 535.861144 345.653225 
L 536.214659 346.203733 
L 536.599696 345.102718 
L 536.843731 344.55221 
L 537.522089 345.102718 
L 537.603341 345.653225 
L 537.857126 345.653225 
L 538.324962 346.203733 
L 538.556744 346.203733 
L 538.84556 346.75424 
L 539.137704 348.405763 
L 539.887759 347.855255 
L 540.129368 347.855255 
L 540.464398 346.203733 
L 540.782874 346.203733 
L 540.864967 345.653225 
L 541.106932 346.75424 
L 541.160838 345.653225 
L 541.425662 346.203733 
L 541.906055 346.203733 
L 542.152577 347.304748 
L 542.378848 346.203733 
L 542.687889 347.304748 
L 542.80837 346.75424 
L 542.973423 347.304748 
L 543.404347 346.203733 
L 543.653411 346.75424 
L 544.381907 346.75424 
L 544.55579 346.203733 
L 544.97772 347.304748 
L 545.149221 346.203733 
L 545.297149 346.203733 
L 545.35467 346.75424 
L 545.564385 346.75424 
L 545.790566 347.304748 
L 545.945335 346.203733 
L 546.185637 347.304748 
L 546.291169 346.203733 
L 546.585836 347.304748 
L 546.767027 347.304748 
L 546.883953 346.75424 
L 547.075563 346.75424 
L 547.129708 346.203733 
L 547.140826 346.75424 
L 547.467934 346.75424 
L 547.57861 346.203733 
L 547.878672 347.304748 
L 548.154991 346.203733 
L 548.628535 346.75424 
L 549.640495 346.75424 
L 549.883177 346.203733 
L 550.141183 346.75424 
L 550.30726 346.203733 
L 550.40985 346.75424 
L 551.128555 346.75424 
L 551.347982 346.203733 
L 551.851799 347.304748 
L 551.974299 346.75424 
L 552.377283 347.304748 
L 552.817396 346.75424 
L 553.051148 347.304748 
L 553.601095 346.203733 
L 553.745393 345.653225 
L 553.984472 345.653225 
L 554.444944 347.304748 
L 554.570195 347.304748 
L 554.729203 346.203733 
L 555.102666 346.203733 
L 555.312138 346.75424 
L 555.470989 346.75424 
L 555.635231 346.203733 
L 555.945333 346.203733 
L 556.368762 346.75424 
L 556.603811 346.75424 
L 556.700035 347.304748 
L 556.925951 346.203733 
L 557.044978 347.304748 
L 557.192962 346.75424 
L 557.286423 347.304748 
L 557.879768 347.304748 
L 557.901245 348.405763 
L 557.997061 347.855255 
L 558.176323 347.855255 
L 558.283444 347.304748 
L 558.45194 347.855255 
L 558.637726 347.304748 
L 559.111498 347.855255 
L 559.513903 347.855255 
L 559.666743 348.95627 
L 559.727019 348.405763 
L 559.907108 348.95627 
L 560.148624 348.405763 
L 560.261688 347.855255 
L 560.430225 348.405763 
L 560.59643 347.855255 
L 560.796342 348.95627 
L 560.881041 347.855255 
L 561.060655 334.092567 
L 561.551062 334.092567 
L 561.686232 333.542059 
L 561.814706 335.744089 
L 562.530547 335.193582 
L 563.06242 335.193582 
L 563.165855 335.744089 
L 563.298871 335.744089 
L 563.715735 334.643074 
L 563.715735 334.643074 
" clip-path="url(#p8f42038db0)" style="fill: none; stroke-dasharray: 3,1.5; stroke-dashoffset: 0; stroke: #808080; stroke-width: 1.5"/>
   </g>
   <g id="line2d_19">
    <path d="M 38.539265 298.309577 
L 39.859704 297.759069 
L 41.175882 296.658054 
L 44.29272 296.658054 
L 47.729406 296.107546 
L 47.984358 296.658054 
L 48.143362 296.658054 
L 48.252083 295.557039 
L 48.503009 296.107546 
L 48.874135 295.557039 
L 49.596717 295.557039 
L 49.999159 292.804501 
L 50.08893 295.557039 
L 50.297819 292.253994 
L 50.364248 292.804501 
L 50.598325 292.804501 
L 50.97276 292.253994 
L 51.58658 292.253994 
L 51.900835 290.051963 
L 52.389329 290.051963 
L 52.885191 291.152978 
L 53.200636 286.748918 
L 53.270463 287.299426 
L 53.56731 286.748918 
L 54.141526 285.097396 
L 54.531004 286.198411 
L 55.146622 286.198411 
L 55.490661 287.299426 
L 55.723235 286.748918 
L 56.423911 286.198411 
L 56.738323 286.198411 
L 57.080216 285.097396 
L 57.570796 285.097396 
L 58.078172 281.79435 
L 59.442118 280.142828 
L 59.627862 279.59232 
L 60.021299 279.59232 
L 60.269394 279.041813 
L 60.664685 279.041813 
L 60.9557 280.142828 
L 61.252139 280.693335 
L 61.582652 280.693335 
L 61.776202 280.142828 
L 64.136631 280.142828 
L 64.513922 279.59232 
L 65.12459 279.59232 
L 65.462532 279.041813 
L 65.786369 279.041813 
L 65.91211 279.59232 
L 66.711906 279.041813 
L 67.047115 279.59232 
L 67.971318 279.59232 
L 68.268041 279.041813 
L 68.632846 279.59232 
L 70.314992 279.59232 
L 70.65964 279.041813 
L 70.848816 277.39029 
L 71.30925 278.491305 
L 71.957698 278.491305 
L 72.260664 277.39029 
L 72.379886 278.491305 
L 72.911074 276.839782 
L 73.232257 276.839782 
L 73.544195 276.289275 
L 73.892369 276.289275 
L 74.212049 276.839782 
L 74.517519 275.738767 
L 74.788718 275.738767 
L 75.526043 274.637752 
L 79.397224 274.637752 
L 79.704956 273.536737 
L 80.360813 273.536737 
L 80.651914 270.784199 
L 81.628259 270.784199 
L 82.562839 268.582169 
L 83.556204 268.582169 
L 83.911996 268.031662 
L 89.913599 268.031662 
L 90.634121 266.380139 
L 90.797343 268.031662 
L 91.95308 268.031662 
L 92.266925 266.930647 
L 92.613188 268.031662 
L 93.437037 268.031662 
L 93.892091 266.930647 
L 94.22991 268.031662 
L 99.331796 268.031662 
L 99.610601 263.077094 
L 99.803901 268.031662 
L 101.65283 268.031662 
L 101.988472 267.481154 
L 102.180052 262.526586 
L 102.632606 267.481154 
L 102.952234 267.481154 
L 103.164408 268.031662 
L 106.512048 268.031662 
L 106.681576 267.481154 
L 106.985806 267.481154 
L 107.486838 265.829632 
L 112.536724 265.829632 
L 113.638844 265.279124 
L 120.421402 265.279124 
L 120.703834 262.526586 
L 121.064729 262.526586 
L 121.384753 265.279124 
L 121.714006 265.279124 
L 121.94088 262.526586 
L 122.186766 265.279124 
L 122.595391 262.526586 
L 122.957351 261.425571 
L 127.154421 261.425571 
L 127.51668 260.875064 
L 129.106 260.875064 
L 129.432719 259.774049 
L 129.827756 257.572018 
L 130.109944 257.021511 
L 130.428907 253.718466 
L 130.822687 253.718466 
L 131.35068 252.61745 
L 131.715066 252.61745 
L 132.344441 251.516435 
L 134.98603 246.561868 
L 135.255755 247.662883 
L 137.144434 247.662883 
L 137.512902 245.460852 
L 137.837827 246.01136 
L 139.138611 246.01136 
L 139.376441 247.112375 
L 139.794763 246.01136 
L 140.739474 246.01136 
L 141.060986 244.910345 
L 141.371111 244.910345 
L 141.738402 244.359837 
L 141.886614 244.359837 
L 142.052258 242.708315 
L 142.276802 242.708315 
L 143.031047 242.157807 
L 143.654254 243.80933 
L 143.806645 243.80933 
L 144.295188 243.258822 
L 144.60864 242.157807 
L 146.228505 242.157807 
L 146.541262 241.6073 
L 146.877118 241.6073 
L 147.188061 241.056792 
L 147.479345 241.056792 
L 148.156189 240.506285 
L 148.505749 240.506285 
L 148.85433 238.854762 
L 149.422719 238.854762 
L 149.777931 238.304254 
L 149.998651 238.304254 
L 150.121876 248.21339 
L 150.215192 247.662883 
L 150.749356 247.662883 
L 151.065832 246.561868 
L 151.488491 246.561868 
L 151.706202 246.01136 
L 152.184961 246.01136 
L 152.232602 245.460852 
L 152.986798 245.460852 
L 153.391726 243.80933 
L 154.233227 242.157807 
L 155.601001 242.157807 
L 155.896715 241.056792 
L 156.008063 241.6073 
L 156.137008 241.6073 
L 156.494591 242.157807 
L 157.795931 241.6073 
L 161.051726 241.6073 
L 161.42899 242.157807 
L 163.004781 242.157807 
L 163.229053 242.708315 
L 163.639865 242.157807 
L 166.180008 242.157807 
L 166.694685 241.6073 
L 167.091063 241.6073 
L 167.521393 241.056792 
L 167.737922 241.6073 
L 169.812338 241.6073 
L 170.46701 240.506285 
L 171.860297 240.506285 
L 172.094875 232.799179 
L 172.359318 232.799179 
L 174.612929 231.147656 
L 174.751414 231.698164 
L 174.895887 231.147656 
L 175.27089 231.698164 
L 175.585449 231.698164 
L 175.916523 231.147656 
L 176.165142 231.147656 
L 176.564291 230.046641 
L 176.728447 230.046641 
L 176.880367 230.597149 
L 177.220877 229.496134 
L 179.48473 229.496134 
L 179.704968 228.945626 
L 180.07215 228.945626 
L 180.412918 228.395119 
L 180.766695 228.945626 
L 180.922799 228.945626 
L 181.407681 229.496134 
L 181.770965 226.743596 
L 182.029591 228.395119 
L 182.366897 228.395119 
L 182.637262 225.092073 
L 182.82643 225.642581 
L 183.027808 224.541566 
L 183.129236 225.092073 
L 183.253377 223.440551 
L 183.575218 223.440551 
L 183.982998 222.890043 
L 184.781662 223.440551 
L 184.963518 222.339536 
L 185.260724 222.339536 
L 185.471193 223.991058 
L 186.185629 222.339536 
L 186.896025 221.789028 
L 187.519916 221.789028 
L 187.847203 220.137505 
L 188.148038 220.137505 
L 188.326235 220.688013 
L 188.638996 220.688013 
L 189.848647 217.384968 
L 190.050388 219.586998 
L 190.438718 220.137505 
L 190.894184 217.384968 
L 192.118452 217.384968 
L 192.223259 216.83446 
L 192.711079 216.283953 
L 194.011493 216.283953 
L 194.606734 213.531415 
L 197.951694 213.531415 
L 198.215826 212.4304 
L 198.563218 214.63243 
L 198.765464 212.980907 
L 202.412145 212.980907 
L 202.716831 212.4304 
L 203.451588 209.127355 
L 203.727246 210.778877 
L 204.055756 210.22837 
L 204.41951 210.778877 
L 204.675486 210.778877 
L 205.063349 205.273802 
L 205.271325 205.273802 
L 205.311691 204.723294 
L 205.96615 204.723294 
L 206.334514 203.622279 
L 206.659278 201.970757 
L 207.636232 201.420249 
L 207.698048 201.970757 
L 208.228489 202.521264 
L 208.307274 201.970757 
L 210.863185 201.970757 
L 211.041031 201.420249 
L 211.518018 200.869741 
L 212.154959 199.768726 
L 212.320625 198.667711 
L 212.544493 198.667711 
L 212.79528 197.566696 
L 213.097229 198.117204 
L 213.435328 198.117204 
L 213.690085 198.667711 
L 214.04923 198.117204 
L 214.369707 198.117204 
L 214.676863 197.566696 
L 214.925508 197.566696 
L 215.39355 198.117204 
L 215.636872 197.566696 
L 215.888709 198.117204 
L 216.313544 200.869741 
L 216.620031 201.420249 
L 217.32351 200.319234 
L 217.426362 196.465681 
L 217.583172 196.465681 
L 217.870097 195.915174 
L 218.203437 196.465681 
L 218.507775 196.465681 
L 218.882677 197.016189 
L 219.2074 195.915174 
L 220.379362 195.915174 
L 220.84512 195.364666 
L 221.111293 195.364666 
L 221.131947 194.814158 
L 222.459934 194.814158 
L 222.838007 193.713143 
L 224.696106 193.713143 
L 225.066511 192.612128 
L 228.625637 192.612128 
L 228.838799 192.061621 
L 229.413699 192.061621 
L 229.897445 191.511113 
L 230.221492 190.410098 
L 230.318388 190.960606 
L 230.670603 189.859591 
L 231.454134 189.859591 
L 234.627566 188.758576 
L 242.471751 188.758576 
L 242.79127 189.309083 
L 244.324889 189.309083 
L 244.642778 188.758576 
L 245.696214 188.758576 
L 246.059797 188.208068 
L 246.321234 188.758576 
L 246.624649 188.208068 
L 246.96037 188.758576 
L 247.235912 187.65756 
L 247.657924 188.208068 
L 247.965847 187.65756 
L 254.659184 187.65756 
L 255.004934 188.758576 
L 255.37122 188.208068 
L 255.702489 188.758576 
L 256.073544 188.208068 
L 256.371119 188.758576 
L 257.613043 188.758576 
L 257.928391 188.208068 
L 258.28459 188.758576 
L 258.609108 187.65756 
L 259.252583 187.65756 
L 259.615631 188.208068 
L 259.887304 187.107053 
L 260.236782 187.107053 
L 260.506784 187.65756 
L 261.358965 186.556545 
L 261.857496 187.107053 
L 262.153685 186.556545 
L 262.783826 186.556545 
L 263.139476 187.107053 
L 263.488704 185.45553 
L 263.824832 186.006038 
L 264.470143 186.006038 
L 264.716131 186.556545 
L 265.03073 186.006038 
L 265.374059 186.006038 
L 265.680453 190.410098 
L 265.802179 189.859591 
L 266.042955 189.859591 
L 266.210685 189.309083 
L 266.356867 189.309083 
L 266.549329 188.758576 
L 266.679758 189.859591 
L 267.323675 188.758576 
L 267.876912 188.758576 
L 268.145957 187.65756 
L 268.412598 188.758576 
L 268.586197 188.208068 
L 269.564957 188.208068 
L 269.85633 188.758576 
L 270.132661 188.758576 
L 270.4799 188.208068 
L 270.800989 188.208068 
L 271.181615 188.758576 
L 271.548924 188.208068 
L 271.83392 188.208068 
L 272.282414 187.107053 
L 274.111949 187.107053 
L 274.412882 187.65756 
L 275.830823 187.65756 
L 276.156474 187.107053 
L 276.412636 186.556545 
L 276.91418 186.556545 
L 277.070654 185.45553 
L 277.142433 186.006038 
L 277.31214 185.45553 
L 277.78949 185.45553 
L 278.023496 184.354515 
L 278.660643 184.354515 
L 278.958054 183.2535 
L 279.941632 183.2535 
L 280.177511 181.601977 
L 280.395169 181.05147 
L 280.52078 181.05147 
L 280.944496 180.500962 
L 281.093628 181.05147 
L 281.1659 180.500962 
L 281.318811 180.500962 
L 281.497816 179.950455 
L 281.631781 179.950455 
L 282.178918 179.399947 
L 283.406408 179.399947 
L 283.722985 179.950455 
L 284.026322 179.399947 
L 284.368259 179.399947 
L 284.532135 178.84944 
L 284.571551 179.399947 
L 284.766055 178.84944 
L 284.918181 178.84944 
L 285.068412 177.748425 
L 285.646894 176.64741 
L 286.068132 177.197917 
L 286.388395 176.64741 
L 287.018002 176.64741 
L 287.359719 175.546394 
L 287.484817 176.096902 
L 287.688046 174.445379 
L 287.976025 174.995887 
L 288.162794 174.445379 
L 288.310471 174.995887 
L 288.473663 173.894872 
L 288.806285 173.894872 
L 288.9048 173.344364 
L 289.29504 173.894872 
L 289.596859 172.793857 
L 290.277803 172.793857 
L 290.522931 171.692842 
L 290.870622 172.793857 
L 291.106833 172.793857 
L 291.193434 172.243349 
L 291.828944 172.243349 
L 292.126213 170.041319 
L 292.553732 172.243349 
L 292.620015 171.692842 
L 293.182931 172.243349 
L 293.236235 171.142334 
L 293.429845 171.142334 
L 293.819981 170.591827 
L 294.136595 171.142334 
L 294.37579 171.142334 
L 294.72975 170.041319 
L 295.114831 170.041319 
L 295.488264 170.591827 
L 295.767358 170.041319 
L 295.936938 170.591827 
L 296.105602 169.490812 
L 297.600123 169.490812 
L 298.059462 168.940304 
L 298.99732 168.940304 
L 299.330088 170.041319 
L 299.957261 170.041319 
L 300.271158 169.490812 
L 303.12675 169.490812 
L 303.51213 170.041319 
L 303.873376 168.940304 
L 308.255779 168.940304 
L 309.21716 168.389796 
L 309.788165 168.389796 
L 310.2519 167.839289 
L 310.618376 167.839289 
L 310.833728 166.738274 
L 311.175154 167.288781 
L 315.71178 167.288781 
L 316.107983 167.839289 
L 316.4221 167.288781 
L 316.732423 167.839289 
L 316.943173 170.041319 
L 318.870285 170.041319 
L 319.188103 168.940304 
L 319.634171 170.041319 
L 321.480574 170.041319 
L 321.757312 168.940304 
L 321.861898 170.041319 
L 322.335917 170.041319 
L 322.55503 168.940304 
L 322.83123 170.041319 
L 323.037441 168.940304 
L 323.183803 168.940304 
L 323.372575 170.041319 
L 323.537673 168.940304 
L 323.643474 170.041319 
L 323.686087 168.940304 
L 324.82156 168.940304 
L 325.193265 167.288781 
L 325.606444 167.288781 
L 325.640522 166.738274 
L 325.973675 166.738274 
L 326.146182 166.187766 
L 326.293262 166.738274 
L 326.473952 166.187766 
L 326.596145 166.738274 
L 326.882734 166.187766 
L 327.003937 166.738274 
L 327.020557 166.187766 
L 327.38383 166.187766 
L 327.611443 165.637259 
L 327.755001 165.637259 
L 327.969983 164.536244 
L 328.208523 163.985736 
L 328.37327 164.536244 
L 330.208244 164.536244 
L 330.470612 163.985736 
L 331.876916 163.985736 
L 332.101247 163.435229 
L 332.397772 163.435229 
L 332.617808 162.884721 
L 332.739086 163.435229 
L 333.320929 163.435229 
L 333.517282 162.334213 
L 334.051727 162.334213 
L 334.10305 161.783706 
L 334.177626 162.334213 
L 334.474169 162.334213 
L 334.499982 161.783706 
L 334.71554 161.233198 
L 334.775786 161.783706 
L 335.020132 159.581676 
L 336.009732 159.581676 
L 336.10922 159.031168 
L 336.326014 159.031168 
L 336.453012 157.930153 
L 336.602057 159.031168 
L 337.91579 159.031168 
L 337.991808 158.480661 
L 338.243795 159.031168 
L 338.364445 158.480661 
L 338.587513 159.031168 
L 338.877268 159.031168 
L 339.054956 157.930153 
L 339.37886 157.930153 
L 339.511723 158.480661 
L 339.625558 157.379646 
L 339.961746 159.031168 
L 340.314046 157.930153 
L 340.569256 159.031168 
L 341.16668 159.031168 
L 341.631626 157.379646 
L 341.776302 157.930153 
L 341.936521 157.379646 
L 342.368843 158.480661 
L 342.507276 157.379646 
L 343.533269 157.379646 
L 343.698647 156.829138 
L 343.986843 156.829138 
L 344.140476 157.379646 
L 344.334374 156.829138 
L 344.456978 157.379646 
L 344.830467 156.27863 
L 345.340385 156.27863 
L 345.700013 155.177615 
L 346.324775 156.27863 
L 346.458292 155.728123 
L 346.622548 156.27863 
L 346.726712 155.728123 
L 346.935694 155.728123 
L 347.023278 156.27863 
L 347.427937 155.177615 
L 347.63625 155.728123 
L 347.739318 155.177615 
L 347.951702 155.728123 
L 348.233771 155.728123 
L 348.415706 155.177615 
L 348.535331 155.728123 
L 348.653222 155.728123 
L 348.916177 156.27863 
L 349.033975 155.177615 
L 349.56793 155.177615 
L 349.603922 154.0766 
L 351.887618 154.0766 
L 352.11291 153.526093 
L 352.260786 154.0766 
L 352.386067 153.526093 
L 352.481229 154.0766 
L 352.595378 152.975585 
L 353.121311 152.975585 
L 353.369402 152.425078 
L 353.419682 152.975585 
L 353.471196 152.425078 
L 353.754499 152.975585 
L 353.827717 152.425078 
L 354.104769 151.87457 
L 354.213284 151.324063 
L 354.420446 151.324063 
L 354.468079 150.773555 
L 354.756514 149.122032 
L 354.886338 149.67254 
L 355.061555 149.67254 
L 355.093121 148.571525 
L 356.324178 148.571525 
L 356.477082 148.021017 
L 356.718254 148.571525 
L 357.43044 146.920002 
L 357.655074 146.920002 
L 357.788751 146.369495 
L 358.100113 146.369495 
L 358.107747 145.818987 
L 358.203728 146.369495 
L 358.295735 145.26848 
L 358.431722 145.26848 
L 358.619964 144.717972 
L 359.911275 144.717972 
L 359.945353 145.26848 
L 360.026646 144.167465 
L 360.367189 144.167465 
L 360.541106 144.717972 
L 360.674982 144.167465 
L 360.876539 144.717972 
L 361.027555 144.167465 
L 361.197225 144.167465 
L 361.343018 144.717972 
L 361.487578 143.066449 
L 363.218112 143.066449 
L 363.738519 141.965434 
L 364.012454 142.515942 
L 370.549646 142.515942 
L 370.660636 141.965434 
L 370.85915 142.515942 
L 370.916365 141.965434 
L 371.509542 141.965434 
L 371.673795 141.414927 
L 372.50632 141.414927 
L 372.617557 140.864419 
L 372.774352 141.414927 
L 374.049655 141.414927 
L 374.226547 140.864419 
L 374.449312 141.414927 
L 374.572313 141.414927 
L 374.76833 140.313912 
L 374.876161 140.864419 
L 375.354106 140.864419 
L 375.562355 140.313912 
L 376.542591 140.313912 
L 376.702268 141.414927 
L 377.025818 140.313912 
L 378.76668 140.313912 
L 378.945169 139.763404 
L 379.104625 139.763404 
L 379.276355 139.212897 
L 379.404713 139.212897 
L 379.563602 138.662389 
L 379.935356 138.662389 
L 380.001214 138.111882 
L 380.311126 138.111882 
L 380.506885 139.212897 
L 380.659744 138.662389 
L 380.893727 138.662389 
L 380.989136 138.111882 
L 381.347092 138.111882 
L 381.667251 137.561374 
L 382.016366 135.909851 
L 382.130668 136.460359 
L 382.237097 135.909851 
L 382.481383 135.359344 
L 382.597222 135.909851 
L 382.908154 135.359344 
L 383.11379 135.909851 
L 383.281737 135.909851 
L 383.610762 134.258329 
L 383.80949 134.808836 
L 383.927867 134.808836 
L 384.256268 133.707821 
L 384.320754 134.258329 
L 384.534195 133.707821 
L 384.681992 134.258329 
L 384.803838 133.707821 
L 385.330018 133.707821 
L 385.52593 137.010866 
L 386.049164 135.909851 
L 386.394638 135.909851 
L 386.515479 135.359344 
L 386.703698 135.909851 
L 386.824512 135.909851 
L 386.967468 136.460359 
L 387.131841 135.909851 
L 387.357626 135.909851 
L 387.468721 136.460359 
L 387.609867 135.909851 
L 387.802371 136.460359 
L 387.878034 135.909851 
L 388.278162 135.359344 
L 388.431895 135.359344 
L 388.572186 135.909851 
L 388.838554 135.359344 
L 389.926165 135.359344 
L 390.021955 132.606806 
L 390.30275 134.808836 
L 390.597574 135.359344 
L 391.127888 135.359344 
L 391.534453 134.258329 
L 391.673906 135.909851 
L 391.908623 135.359344 
L 392.207835 135.909851 
L 392.344709 134.258329 
L 392.509964 135.359344 
L 392.666142 135.359344 
L 392.770153 134.808836 
L 392.861707 130.404776 
L 393.179664 132.606806 
L 393.206042 129.854268 
L 394.05592 129.854268 
L 394.457947 128.753253 
L 394.623789 129.303761 
L 395.219164 129.303761 
L 395.381383 129.854268 
L 395.554762 129.303761 
L 395.744936 129.303761 
L 395.856659 129.854268 
L 396.196548 129.303761 
L 396.396221 129.303761 
L 396.527125 128.753253 
L 396.687225 129.303761 
L 396.859224 129.303761 
L 397.020411 129.854268 
L 397.120257 129.303761 
L 398.018143 129.303761 
L 398.242777 127.652238 
L 398.514371 128.202746 
L 398.738997 128.202746 
L 398.92085 128.753253 
L 399.003534 128.202746 
L 399.285222 128.753253 
L 399.390529 128.202746 
L 399.638685 128.202746 
L 399.735768 127.652238 
L 400.032327 128.202746 
L 400.643429 128.202746 
L 400.869992 127.652238 
L 401.247406 127.652238 
L 401.342568 127.101731 
L 401.503404 127.652238 
L 401.879387 126.551223 
L 401.991259 126.551223 
L 402.157179 126.000716 
L 402.310128 126.000716 
L 402.597913 125.450208 
L 404.938876 125.450208 
L 405.188269 124.899701 
L 405.422117 124.899701 
L 405.469728 126.000716 
L 405.528692 125.450208 
L 405.910215 125.450208 
L 405.997298 124.899701 
L 406.499306 124.899701 
L 406.739054 124.349193 
L 407.061056 124.349193 
L 407.071766 124.899701 
L 407.178808 124.349193 
L 407.277248 124.899701 
L 408.679381 124.899701 
L 408.942287 125.450208 
L 409.675677 124.899701 
L 411.196541 124.899701 
L 411.26235 124.349193 
L 412.85826 124.349193 
L 413.002016 123.798685 
L 414.477909 121.046148 
L 414.617788 121.046148 
L 414.763724 120.49564 
L 414.828714 121.046148 
L 415.143003 120.49564 
L 415.434997 119.945133 
L 415.784206 119.945133 
L 415.901476 119.394625 
L 416.342793 119.394625 
L 416.981988 119.945133 
L 417.01419 118.29361 
L 417.528624 118.29361 
L 417.688066 118.844118 
L 417.803874 118.29361 
L 418.666377 118.29361 
L 418.985747 118.844118 
L 420.527579 118.844118 
L 421.31022 118.29361 
L 422.891203 118.29361 
L 423.669706 117.743102 
L 423.773825 117.192595 
L 426.115151 117.192595 
L 426.335109 117.743102 
L 427.523702 117.743102 
L 428.391584 118.29361 
L 429.024021 118.29361 
L 429.337873 117.743102 
L 429.616514 116.642087 
L 429.782412 116.642087 
L 429.788886 117.192595 
L 431.649756 117.192595 
L 431.849474 116.642087 
L 436.55054 116.642087 
L 437.143291 116.09158 
L 437.371727 116.09158 
L 437.460897 114.990565 
L 437.751425 114.990565 
L 437.873436 115.541072 
L 438.062571 114.990565 
L 439.124511 114.990565 
L 439.597869 114.440057 
L 439.926681 113.339042 
L 442.806463 113.339042 
L 443.313331 113.88955 
L 443.459984 113.339042 
L 443.608338 113.88955 
L 443.775111 113.339042 
L 444.564941 113.339042 
L 444.929091 113.88955 
L 445.113879 113.339042 
L 445.623408 114.440057 
L 445.821994 113.339042 
L 447.055028 113.339042 
L 447.069615 112.788535 
L 449.023706 112.788535 
L 449.973808 112.238027 
L 450.258931 112.788535 
L 450.466575 112.238027 
L 450.600955 112.788535 
L 450.788673 112.788535 
L 450.917091 112.238027 
L 451.369727 113.339042 
L 451.668574 112.788535 
L 452.070335 113.339042 
L 452.367922 113.339042 
L 452.503073 112.788535 
L 453.323527 112.788535 
L 454.298365 113.339042 
L 454.445096 112.788535 
L 455.415112 112.788535 
L 455.730048 113.339042 
L 460.667098 112.788535 
L 461.036766 113.339042 
L 461.356248 112.788535 
L 461.642527 113.339042 
L 461.674556 112.788535 
L 461.923788 112.238027 
L 462.068128 112.238027 
L 462.20016 111.68752 
L 464.495565 111.68752 
L 464.544477 111.137012 
L 464.829798 111.137012 
L 465.591647 111.68752 
L 465.615882 111.137012 
L 465.908591 111.68752 
L 465.979734 110.586504 
L 466.168136 110.586504 
L 466.550362 110.035997 
L 467.190899 110.035997 
L 467.579839 110.586504 
L 468.017148 109.485489 
L 468.035084 108.934982 
L 468.4599 108.384474 
L 468.772346 108.934982 
L 469.211685 108.934982 
L 469.303016 108.384474 
L 470.303326 108.384474 
L 470.441131 108.934982 
L 470.609836 107.833967 
L 470.748886 107.833967 
L 471.012791 108.384474 
L 471.2528 107.833967 
L 471.788026 107.833967 
L 472.023744 106.182444 
L 473.704877 106.182444 
L 473.905862 105.631937 
L 474.02893 105.631937 
L 474.231437 106.182444 
L 474.283665 105.631937 
L 474.820088 105.631937 
L 474.927978 105.081429 
L 475.221012 104.530921 
L 475.304708 103.429906 
L 475.761902 103.429906 
L 475.93368 101.778384 
L 476.291356 101.778384 
L 476.500543 102.328891 
L 476.613555 101.778384 
L 476.765685 101.778384 
L 476.777304 100.126861 
L 477.590924 100.126861 
L 477.731963 99.576354 
L 478.082704 99.576354 
L 478.446156 100.126861 
L 478.483539 99.025846 
L 478.805346 99.025846 
L 478.864665 98.475338 
L 479.088892 97.924831 
L 479.681228 97.924831 
L 479.768289 96.823816 
L 480.022489 96.823816 
L 480.17152 96.273308 
L 480.314524 96.273308 
L 480.82735 95.722801 
L 481.028056 96.273308 
L 481.14758 102.328891 
L 481.277209 102.879399 
L 481.365003 100.677369 
L 481.997387 100.677369 
L 482.257311 101.227876 
L 482.446692 100.126861 
L 483.381953 100.126861 
L 483.57046 100.677369 
L 483.718056 100.126861 
L 484.714183 100.126861 
L 484.836837 99.576354 
L 485.290979 100.677369 
L 485.660266 100.126861 
L 485.871884 100.126861 
L 485.953162 99.576354 
L 486.13999 100.677369 
L 486.3216 99.576354 
L 487.075135 99.576354 
L 487.191931 100.126861 
L 487.460347 100.126861 
L 487.502571 99.576354 
L 487.806495 99.025846 
L 487.818356 99.576354 
L 488.063225 99.025846 
L 488.389918 99.025846 
L 488.6841 98.475338 
L 490.210691 98.475338 
L 490.325157 97.924831 
L 490.627903 98.475338 
L 490.638011 97.924831 
L 491.07273 97.374323 
L 491.339838 97.374323 
L 491.647215 96.823816 
L 491.800691 96.273308 
L 491.918032 96.273308 
L 492.287275 97.374323 
L 492.360216 96.273308 
L 492.60851 96.823816 
L 492.817499 96.273308 
L 493.750206 96.273308 
L 493.85471 95.722801 
L 493.984956 96.273308 
L 494.436306 95.722801 
L 494.65432 96.273308 
L 494.875268 95.722801 
L 495.008018 96.273308 
L 495.317183 95.172293 
L 495.530792 95.722801 
L 496.261415 95.722801 
L 496.552086 95.172293 
L 496.976509 95.172293 
L 497.314189 96.273308 
L 497.404192 95.722801 
L 497.764997 95.722801 
L 497.856563 94.621786 
L 498.311618 95.722801 
L 498.470533 95.172293 
L 498.83718 95.722801 
L 499.104816 95.722801 
L 499.241929 95.172293 
L 499.569665 95.172293 
L 499.998866 94.621786 
L 500.054469 95.722801 
L 500.208569 94.621786 
L 500.349847 95.172293 
L 500.434642 94.621786 
L 500.771032 95.172293 
L 501.174652 94.621786 
L 501.377963 94.621786 
L 501.657049 95.172293 
L 502.053749 95.172293 
L 502.460486 94.071278 
L 502.673543 94.621786 
L 503.104366 94.621786 
L 503.305834 95.172293 
L 503.335493 95.722801 
L 503.586475 94.621786 
L 503.719576 95.172293 
L 503.876136 94.621786 
L 504.10877 95.172293 
L 504.372069 95.172293 
L 504.541216 95.722801 
L 504.861998 95.722801 
L 505.195974 94.621786 
L 505.422593 95.172293 
L 505.698568 94.071278 
L 505.842291 94.071278 
L 505.932503 94.621786 
L 506.213182 94.621786 
L 506.23674 94.071278 
L 507.167201 94.071278 
L 507.319634 93.520771 
L 507.450197 93.520771 
L 507.651467 92.970263 
L 507.825066 93.520771 
L 507.957461 92.970263 
L 508.154843 92.970263 
L 508.265956 92.419756 
L 508.409368 92.970263 
L 508.455573 92.419756 
L 508.614335 91.31874 
L 508.8083 91.869248 
L 508.869343 92.419756 
L 509.073902 91.869248 
L 509.241071 92.419756 
L 509.442561 91.869248 
L 509.772753 91.869248 
L 509.864693 91.31874 
L 510.092799 91.869248 
L 510.691868 90.217725 
L 510.853018 90.217725 
L 511.019705 91.31874 
L 511.098508 90.768233 
L 511.334174 90.768233 
L 511.441396 91.31874 
L 511.634097 91.31874 
L 511.809539 90.768233 
L 512.035085 90.768233 
L 512.413752 89.11671 
L 512.615212 89.667218 
L 515.263444 89.667218 
L 515.38668 89.11671 
L 515.54296 89.11671 
L 515.668637 89.667218 
L 515.920793 89.11671 
L 516.549005 89.11671 
L 516.654096 88.015695 
L 517.318813 89.11671 
L 517.784185 89.11671 
L 518.420981 88.015695 
L 519.546711 88.566203 
L 519.832597 88.015695 
L 520.147548 88.566203 
L 520.372485 87.465188 
L 520.462701 88.566203 
L 520.759219 87.465188 
L 521.082286 88.566203 
L 521.189231 87.465188 
L 521.396399 87.465188 
L 521.510283 88.015695 
L 521.716704 87.465188 
L 521.840583 87.465188 
L 521.955973 88.015695 
L 522.096174 86.364173 
L 522.463865 87.465188 
L 522.807769 87.465188 
L 523.017906 86.91468 
L 523.414483 86.91468 
L 523.736996 87.465188 
L 523.925541 87.465188 
L 524.068074 86.364173 
L 524.245867 87.465188 
L 524.34513 86.91468 
L 524.584807 86.364173 
L 524.731767 86.364173 
L 524.988703 87.465188 
L 525.234395 85.813665 
L 525.543204 85.813665 
L 525.566643 84.71265 
L 525.58821 85.263157 
L 525.749715 85.813665 
L 525.919489 84.71265 
L 525.990304 85.813665 
L 526.246227 85.813665 
L 526.281098 85.263157 
L 526.569436 84.71265 
L 526.742003 84.71265 
L 526.822889 85.813665 
L 527.209839 84.71265 
L 527.272504 85.813665 
L 527.483266 84.71265 
L 527.645395 86.364173 
L 528.138252 85.263157 
L 528.509535 86.91468 
L 528.538245 86.364173 
L 528.773421 86.91468 
L 528.9221 86.91468 
L 529.076451 85.813665 
L 529.260778 86.91468 
L 529.615161 85.813665 
L 529.749612 86.91468 
L 529.895189 86.364173 
L 530.191845 86.364173 
L 530.387754 86.91468 
L 530.762775 86.91468 
L 530.774222 86.364173 
L 531.364461 87.465188 
L 531.677494 85.813665 
L 531.843632 85.813665 
L 532.037264 86.364173 
L 532.091996 85.263157 
L 532.366876 86.364173 
L 532.536135 85.263157 
L 532.706766 86.364173 
L 532.777281 85.813665 
L 533.127226 85.813665 
L 533.336941 85.263157 
L 533.432858 84.162142 
L 533.628124 85.263157 
L 533.949381 84.71265 
L 534.091493 84.162142 
L 534.267084 84.71265 
L 534.417004 82.51062 
L 534.652326 82.51062 
L 534.963528 81.960112 
L 535.001071 83.061127 
L 535.307357 81.960112 
L 535.743339 83.061127 
L 535.861144 81.409605 
L 536.214659 80.859097 
L 536.599696 81.960112 
L 536.843731 82.51062 
L 537.522089 81.960112 
L 537.603341 81.409605 
L 538.556744 81.409605 
L 538.84556 80.859097 
L 539.137704 79.207574 
L 539.887759 79.758082 
L 540.464398 79.758082 
L 540.782874 79.207574 
L 540.864967 79.758082 
L 541.106932 78.657067 
L 541.160838 79.758082 
L 541.425662 79.207574 
L 541.906055 79.207574 
L 542.152577 78.106559 
L 542.378848 79.207574 
L 542.687889 78.106559 
L 542.80837 78.657067 
L 542.973423 78.106559 
L 543.404347 78.657067 
L 543.653411 78.106559 
L 544.381907 78.106559 
L 544.55579 78.657067 
L 544.97772 77.556052 
L 545.149221 78.657067 
L 545.297149 78.657067 
L 545.35467 78.106559 
L 545.564385 78.106559 
L 545.790566 77.556052 
L 545.945335 78.657067 
L 546.185637 77.556052 
L 546.291169 78.657067 
L 546.585836 77.556052 
L 546.767027 77.556052 
L 546.883953 78.106559 
L 547.075563 78.106559 
L 547.129708 78.657067 
L 547.140826 78.106559 
L 547.467934 78.106559 
L 547.57861 78.657067 
L 547.878672 77.556052 
L 548.154991 78.657067 
L 548.628535 78.106559 
L 549.640495 78.106559 
L 549.883177 78.657067 
L 550.141183 78.106559 
L 550.30726 78.657067 
L 550.40985 78.106559 
L 551.128555 78.106559 
L 551.347982 78.657067 
L 551.851799 77.556052 
L 551.974299 78.106559 
L 552.377283 77.556052 
L 552.817396 78.106559 
L 553.051148 77.556052 
L 553.601095 78.657067 
L 553.745393 79.207574 
L 553.984472 79.207574 
L 554.444944 77.556052 
L 554.570195 77.556052 
L 554.729203 78.657067 
L 555.102666 78.657067 
L 555.312138 78.106559 
L 555.470989 78.106559 
L 555.635231 78.657067 
L 555.945333 78.657067 
L 556.368762 78.106559 
L 556.603811 78.106559 
L 556.700035 77.556052 
L 556.925951 78.657067 
L 557.044978 77.556052 
L 557.192962 78.106559 
L 557.286423 77.556052 
L 557.879768 77.556052 
L 557.901245 76.455037 
L 557.997061 77.005544 
L 558.176323 77.005544 
L 558.283444 77.556052 
L 558.45194 77.005544 
L 558.637726 77.556052 
L 559.111498 77.005544 
L 559.513903 77.005544 
L 559.666743 75.904529 
L 559.727019 76.455037 
L 559.907108 75.904529 
L 560.148624 76.455037 
L 560.261688 77.005544 
L 560.430225 76.455037 
L 560.59643 77.005544 
L 560.796342 75.904529 
L 560.881041 77.005544 
L 561.060655 85.263157 
L 561.551062 85.263157 
L 561.686232 85.813665 
L 561.814706 83.611635 
L 562.530547 84.162142 
L 563.06242 84.162142 
L 563.165855 83.611635 
L 563.298871 83.611635 
L 563.715735 84.71265 
L 563.715735 84.71265 
" clip-path="url(#p8f42038db0)" style="fill: none; stroke-dasharray: 6,1.5; stroke-dashoffset: 0; stroke: #008000; stroke-width: 1.5"/>
   </g>
   <g id="line2d_20">
    <path d="M 38.539265 362.168452 
L 39.859704 363.269467 
L 41.175882 363.269467 
L 42.448995 362.718959 
L 44.29272 362.718959 
L 48.143362 362.168452 
L 48.252083 362.718959 
L 51.58658 362.718959 
L 51.900835 363.819974 
L 52.596102 363.819974 
L 52.885191 360.516929 
L 53.270463 363.819974 
L 55.146622 363.819974 
L 55.490661 360.516929 
L 58.078172 360.516929 
L 59.442118 361.067436 
L 59.627862 361.617944 
L 60.664685 361.617944 
L 60.9557 359.966421 
L 64.136631 359.966421 
L 64.513922 360.516929 
L 74.212049 360.516929 
L 74.517519 359.966421 
L 80.360813 359.966421 
L 80.651914 362.168452 
L 129.106 362.168452 
L 129.432719 363.269467 
L 129.827756 366.572512 
L 130.109944 366.572512 
L 130.428907 367.123019 
L 132.344441 367.123019 
L 134.98603 368.774542 
L 135.255755 368.774542 
L 135.708014 369.32505 
L 149.060429 369.32505 
L 149.777931 370.426065 
L 180.07215 370.426065 
L 180.412918 370.976572 
L 180.766695 370.426065 
L 182.82643 370.426065 
L 183.129236 370.976572 
L 188.638996 370.976572 
L 189.848647 372.077587 
L 190.050388 370.976572 
L 190.438718 370.976572 
L 190.758805 372.077587 
L 198.215826 372.077587 
L 198.563218 371.52708 
L 198.765464 372.077587 
L 216.313544 372.077587 
L 216.620031 373.178602 
L 255.702489 373.178602 
L 256.073544 373.72911 
L 345.700013 373.72911 
L 346.058436 373.178602 
L 356.718254 373.178602 
L 357.136008 373.72911 
L 357.24766 374.830125 
L 385.330018 374.830125 
L 385.52593 374.279617 
L 388.278162 374.279617 
L 388.431895 374.830125 
L 499.433266 374.830125 
L 499.569665 374.279617 
L 507.957461 374.279617 
L 508.265956 374.830125 
L 540.129368 374.830125 
L 540.464398 374.279617 
L 563.715735 374.279617 
L 563.715735 374.279617 
" clip-path="url(#p8f42038db0)" style="fill: none; stroke-dasharray: 9,3; stroke-dashoffset: 0; stroke: #ffa500; stroke-width: 1.5"/>
   </g>
   <g id="line2d_21">
    <path d="M 38.539265 324.183431 
L 48.143362 324.183431 
L 48.252083 324.733939 
L 51.58658 324.733939 
L 51.900835 325.284446 
L 52.596102 325.284446 
L 52.885191 326.385461 
L 53.270463 325.284446 
L 55.146622 325.284446 
L 55.723235 326.935969 
L 57.080216 326.935969 
L 57.385937 327.486476 
L 57.570796 326.935969 
L 57.725427 327.486476 
L 71.957698 327.486476 
L 72.260664 328.587491 
L 72.379886 327.486476 
L 72.911074 328.587491 
L 89.913599 328.587491 
L 90.634121 329.137999 
L 90.797343 328.587491 
L 91.95308 328.587491 
L 92.266925 329.137999 
L 92.613188 328.587491 
L 93.437037 328.587491 
L 93.892091 329.137999 
L 94.22991 328.587491 
L 120.421402 328.587491 
L 120.703834 329.137999 
L 121.064729 329.137999 
L 121.384753 328.587491 
L 121.714006 328.587491 
L 121.94088 329.137999 
L 122.186766 328.587491 
L 122.595391 329.137999 
L 129.432719 329.137999 
L 129.827756 328.587491 
L 130.109944 328.587491 
L 130.428907 329.688506 
L 131.983658 329.688506 
L 132.344441 332.441044 
L 134.98603 330.239014 
L 135.255755 330.789522 
L 137.144434 330.789522 
L 137.512902 333.542059 
L 137.837827 334.092567 
L 152.475097 334.092567 
L 152.986798 333.542059 
L 153.391726 334.092567 
L 154.294894 333.542059 
L 156.494591 333.542059 
L 157.795931 334.092567 
L 163.229053 334.092567 
L 163.639865 334.643074 
L 197.951694 334.643074 
L 198.215826 335.193582 
L 198.563218 334.643074 
L 204.675486 334.643074 
L 205.063349 341.799672 
L 205.96615 341.799672 
L 206.334514 346.203733 
L 206.659278 347.855255 
L 226.32784 347.855255 
L 229.094195 348.405763 
L 258.28459 348.405763 
L 258.609108 350.607793 
L 265.374059 350.607793 
L 265.680453 347.304748 
L 281.318811 347.304748 
L 281.497816 347.855255 
L 310.618376 347.855255 
L 310.833728 348.405763 
L 311.175154 347.855255 
L 319.042228 347.855255 
L 319.188103 348.405763 
L 319.485743 347.855255 
L 321.480574 347.855255 
L 321.757312 348.405763 
L 321.861898 347.855255 
L 324.82156 347.855255 
L 325.028235 348.405763 
L 334.292997 348.405763 
L 334.474169 347.855255 
L 346.058436 347.855255 
L 346.324775 347.304748 
L 346.458292 347.855255 
L 346.622548 347.304748 
L 346.726712 347.855255 
L 346.935694 347.855255 
L 347.023278 347.304748 
L 347.257636 347.855255 
L 348.653222 347.855255 
L 348.916177 347.304748 
L 349.033975 347.855255 
L 357.136008 347.855255 
L 357.24766 347.304748 
L 385.330018 347.304748 
L 385.52593 347.855255 
L 389.926165 347.855255 
L 390.021955 350.607793 
L 390.30275 347.855255 
L 392.847775 347.855255 
L 392.861707 350.607793 
L 393.179664 347.855255 
L 393.206042 350.607793 
L 418.666377 350.607793 
L 418.985747 350.057286 
L 419.260107 350.607793 
L 450.258931 350.607793 
L 450.466575 351.158301 
L 450.600955 350.607793 
L 450.917091 350.607793 
L 451.369727 351.158301 
L 471.788026 351.158301 
L 472.023744 351.708808 
L 474.927978 351.708808 
L 475.221012 352.259316 
L 481.028056 352.259316 
L 481.14758 351.708808 
L 487.818356 351.708808 
L 488.063225 352.259316 
L 499.433266 352.259316 
L 499.569665 356.112869 
L 507.957461 356.112869 
L 508.265956 355.562361 
L 515.920793 355.562361 
L 516.654096 357.764391 
L 524.068074 357.764391 
L 524.34513 357.213884 
L 537.857126 357.213884 
L 538.324962 356.663376 
L 540.129368 356.663376 
L 540.464398 358.865406 
L 540.864967 359.415914 
L 542.973423 359.415914 
L 543.404347 359.966421 
L 560.881041 359.966421 
L 561.060655 356.663376 
L 563.715735 356.663376 
L 563.715735 356.663376 
" clip-path="url(#p8f42038db0)" style="fill: none; stroke-dasharray: 12,4.5; stroke-dashoffset: 0; stroke: #ee82ee; stroke-width: 1.5"/>
   </g>
   <g id="patch_3">
    <path d="M 33.2875 374.830125 
L 33.2875 22.318125 
" style="fill: none; stroke: #000000; stroke-width: 0.8; stroke-linejoin: miter; stroke-linecap: square"/>
   </g>
   <g id="patch_4">
    <path d="M 568.9675 374.830125 
L 568.9675 22.318125 
" style="fill: none; stroke: #000000; stroke-width: 0.8; stroke-linejoin: miter; stroke-linecap: square"/>
   </g>
   <g id="patch_5">
    <path d="M 33.2875 374.830125 
L 568.9675 374.830125 
" style="fill: none; stroke: #000000; stroke-width: 0.8; stroke-linejoin: miter; stroke-linecap: square"/>
   </g>
   <g id="patch_6">
    <path d="M 33.2875 22.318125 
L 568.9675 22.318125 
" style="fill: none; stroke: #000000; stroke-width: 0.8; stroke-linejoin: miter; stroke-linecap: square"/>
   </g>
   <g id="text_17">
    <!-- Rust/Coreutils running GNU's testsuite -->
    <g transform="translate(186.090625 16.318125) scale(0.12 -0.12)">
     <defs>
      <path id="DejaVuSans-52" d="M 2841 2188 
Q 3044 2119 3236 1894 
Q 3428 1669 3622 1275 
L 4263 0 
L 3584 0 
L 2988 1197 
Q 2756 1666 2539 1819 
Q 2322 1972 1947 1972 
L 1259 1972 
L 1259 0 
L 628 0 
L 628 4666 
L 2053 4666 
Q 2853 4666 3247 4331 
Q 3641 3997 3641 3322 
Q 3641 2881 3436 2590 
Q 3231 2300 2841 2188 
z
M 1259 4147 
L 1259 2491 
L 2053 2491 
Q 2509 2491 2742 2702 
Q 2975 2913 2975 3322 
Q 2975 3731 2742 3939 
Q 2509 4147 2053 4147 
L 1259 4147 
z
" transform="scale(0.015625)"/>
      <path id="DejaVuSans-75" d="M 544 1381 
L 544 3500 
L 1119 3500 
L 1119 1403 
Q 1119 906 1312 657 
Q 1506 409 1894 409 
Q 2359 409 2629 706 
Q 2900 1003 2900 1516 
L 2900 3500 
L 3475 3500 
L 3475 0 
L 2900 0 
L 2900 538 
Q 2691 219 2414 64 
Q 2138 -91 1772 -91 
Q 1169 -91 856 284 
Q 544 659 544 1381 
z
M 1991 3584 
L 1991 3584 
z
" transform="scale(0.015625)"/>
      <path id="DejaVuSans-73" d="M 2834 3397 
L 2834 2853 
Q 2591 2978 2328 3040 
Q 2066 3103 1784 3103 
Q 1356 3103 1142 2972 
Q 928 2841 928 2578 
Q 928 2378 1081 2264 
Q 1234 2150 1697 2047 
L 1894 2003 
Q 2506 1872 2764 1633 
Q 3022 1394 3022 966 
Q 3022 478 2636 193 
Q 2250 -91 1575 -91 
Q 1294 -91 989 -36 
Q 684 19 347 128 
L 347 722 
Q 666 556 975 473 
Q 1284 391 1588 391 
Q 1994 391 2212 530 
Q 2431 669 2431 922 
Q 2431 1156 2273 1281 
Q 2116 1406 1581 1522 
L 1381 1569 
Q 847 1681 609 1914 
Q 372 2147 372 2553 
Q 372 3047 722 3315 
Q 1072 3584 1716 3584 
Q 2034 3584 2315 3537 
Q 2597 3491 2834 3397 
z
" transform="scale(0.015625)"/>
      <path id="DejaVuSans-74" d="M 1172 4494 
L 1172 3500 
L 2356 3500 
L 2356 3053 
L 1172 3053 
L 1172 1153 
Q 1172 725 1289 603 
Q 1406 481 1766 481 
L 2356 481 
L 2356 0 
L 1766 0 
Q 1100 0 847 248 
Q 594 497 594 1153 
L 594 3053 
L 172 3053 
L 172 3500 
L 594 3500 
L 594 4494 
L 1172 4494 
z
" transform="scale(0.015625)"/>
      <path id="DejaVuSans-2f" d="M 1625 4666 
L 2156 4666 
L 531 -594 
L 0 -594 
L 1625 4666 
z
" transform="scale(0.015625)"/>
      <path id="DejaVuSans-43" d="M 4122 4306 
L 4122 3641 
Q 3803 3938 3442 4084 
Q 3081 4231 2675 4231 
Q 1875 4231 1450 3742 
Q 1025 3253 1025 2328 
Q 1025 1406 1450 917 
Q 1875 428 2675 428 
Q 3081 428 3442 575 
Q 3803 722 4122 1019 
L 4122 359 
Q 3791 134 3420 21 
Q 3050 -91 2638 -91 
Q 1578 -91 968 557 
Q 359 1206 359 2328 
Q 359 3453 968 4101 
Q 1578 4750 2638 4750 
Q 3056 4750 3426 4639 
Q 3797 4528 4122 4306 
z
" transform="scale(0.015625)"/>
      <path id="DejaVuSans-6f" d="M 1959 3097 
Q 1497 3097 1228 2736 
Q 959 2375 959 1747 
Q 959 1119 1226 758 
Q 1494 397 1959 397 
Q 2419 397 2687 759 
Q 2956 1122 2956 1747 
Q 2956 2369 2687 2733 
Q 2419 3097 1959 3097 
z
M 1959 3584 
Q 2709 3584 3137 3096 
Q 3566 2609 3566 1747 
Q 3566 888 3137 398 
Q 2709 -91 1959 -91 
Q 1206 -91 779 398 
Q 353 888 353 1747 
Q 353 2609 779 3096 
Q 1206 3584 1959 3584 
z
" transform="scale(0.015625)"/>
      <path id="DejaVuSans-72" d="M 2631 2963 
Q 2534 3019 2420 3045 
Q 2306 3072 2169 3072 
Q 1681 3072 1420 2755 
Q 1159 2438 1159 1844 
L 1159 0 
L 581 0 
L 581 3500 
L 1159 3500 
L 1159 2956 
Q 1341 3275 1631 3429 
Q 1922 3584 2338 3584 
Q 2397 3584 2469 3576 
Q 2541 3569 2628 3553 
L 2631 2963 
z
" transform="scale(0.015625)"/>
      <path id="DejaVuSans-65" d="M 3597 1894 
L 3597 1613 
L 953 1613 
Q 991 1019 1311 708 
Q 1631 397 2203 397 
Q 2534 397 2845 478 
Q 3156 559 3463 722 
L 3463 178 
Q 3153 47 2828 -22 
Q 2503 -91 2169 -91 
Q 1331 -91 842 396 
Q 353 884 353 1716 
Q 353 2575 817 3079 
Q 1281 3584 2069 3584 
Q 2775 3584 3186 3129 
Q 3597 2675 3597 1894 
z
M 3022 2063 
Q 3016 2534 2758 2815 
Q 2500 3097 2075 3097 
Q 1594 3097 1305 2825 
Q 1016 2553 972 2059 
L 3022 2063 
z
" transform="scale(0.015625)"/>
      <path id="DejaVuSans-69" d="M 603 3500 
L 1178 3500 
L 1178 0 
L 603 0 
L 603 3500 
z
M 603 4863 
L 1178 4863 
L 1178 4134 
L 603 4134 
L 603 4863 
z
" transform="scale(0.015625)"/>
      <path id="DejaVuSans-6c" d="M 603 4863 
L 1178 4863 
L 1178 0 
L 603 0 
L 603 4863 
z
" transform="scale(0.015625)"/>
      <path id="DejaVuSans-20" transform="scale(0.015625)"/>
      <path id="DejaVuSans-6e" d="M 3513 2113 
L 3513 0 
L 2938 0 
L 2938 2094 
Q 2938 2591 2744 2837 
Q 2550 3084 2163 3084 
Q 1697 3084 1428 2787 
Q 1159 2491 1159 1978 
L 1159 0 
L 581 0 
L 581 3500 
L 1159 3500 
L 1159 2956 
Q 1366 3272 1645 3428 
Q 1925 3584 2291 3584 
Q 2894 3584 3203 3211 
Q 3513 2838 3513 2113 
z
" transform="scale(0.015625)"/>
      <path id="DejaVuSans-67" d="M 2906 1791 
Q 2906 2416 2648 2759 
Q 2391 3103 1925 3103 
Q 1463 3103 1205 2759 
Q 947 2416 947 1791 
Q 947 1169 1205 825 
Q 1463 481 1925 481 
Q 2391 481 2648 825 
Q 2906 1169 2906 1791 
z
M 3481 434 
Q 3481 -459 3084 -895 
Q 2688 -1331 1869 -1331 
Q 1566 -1331 1297 -1286 
Q 1028 -1241 775 -1147 
L 775 -588 
Q 1028 -725 1275 -790 
Q 1522 -856 1778 -856 
Q 2344 -856 2625 -561 
Q 2906 -266 2906 331 
L 2906 616 
Q 2728 306 2450 153 
Q 2172 0 1784 0 
Q 1141 0 747 490 
Q 353 981 353 1791 
Q 353 2603 747 3093 
Q 1141 3584 1784 3584 
Q 2172 3584 2450 3431 
Q 2728 3278 2906 2969 
L 2906 3500 
L 3481 3500 
L 3481 434 
z
" transform="scale(0.015625)"/>
      <path id="DejaVuSans-47" d="M 3809 666 
L 3809 1919 
L 2778 1919 
L 2778 2438 
L 4434 2438 
L 4434 434 
Q 4069 175 3628 42 
Q 3188 -91 2688 -91 
Q 1594 -91 976 548 
Q 359 1188 359 2328 
Q 359 3472 976 4111 
Q 1594 4750 2688 4750 
Q 3144 4750 3555 4637 
Q 3966 4525 4313 4306 
L 4313 3634 
Q 3963 3931 3569 4081 
Q 3175 4231 2741 4231 
Q 1884 4231 1454 3753 
Q 1025 3275 1025 2328 
Q 1025 1384 1454 906 
Q 1884 428 2741 428 
Q 3075 428 3337 486 
Q 3600 544 3809 666 
z
" transform="scale(0.015625)"/>
      <path id="DejaVuSans-4e" d="M 628 4666 
L 1478 4666 
L 3547 763 
L 3547 4666 
L 4159 4666 
L 4159 0 
L 3309 0 
L 1241 3903 
L 1241 0 
L 628 0 
L 628 4666 
z
" transform="scale(0.015625)"/>
      <path id="DejaVuSans-55" d="M 556 4666 
L 1191 4666 
L 1191 1831 
Q 1191 1081 1462 751 
Q 1734 422 2344 422 
Q 2950 422 3222 751 
Q 3494 1081 3494 1831 
L 3494 4666 
L 4128 4666 
L 4128 1753 
Q 4128 841 3676 375 
Q 3225 -91 2344 -91 
Q 1459 -91 1007 375 
Q 556 841 556 1753 
L 556 4666 
z
" transform="scale(0.015625)"/>
      <path id="DejaVuSans-27" d="M 1147 4666 
L 1147 2931 
L 616 2931 
L 616 4666 
L 1147 4666 
z
" transform="scale(0.015625)"/>
     </defs>
     <use xlink:href="#DejaVuSans-52"/>
     <use xlink:href="#DejaVuSans-75" x="64.982422"/>
     <use xlink:href="#DejaVuSans-73" x="128.361328"/>
     <use xlink:href="#DejaVuSans-74" x="180.460938"/>
     <use xlink:href="#DejaVuSans-2f" x="219.669922"/>
     <use xlink:href="#DejaVuSans-43" x="253.361328"/>
     <use xlink:href="#DejaVuSans-6f" x="323.185547"/>
     <use xlink:href="#DejaVuSans-72" x="384.367188"/>
     <use xlink:href="#DejaVuSans-65" x="423.230469"/>
     <use xlink:href="#DejaVuSans-75" x="484.753906"/>
     <use xlink:href="#DejaVuSans-74" x="548.132812"/>
     <use xlink:href="#DejaVuSans-69" x="587.341797"/>
     <use xlink:href="#DejaVuSans-6c" x="615.125"/>
     <use xlink:href="#DejaVuSans-73" x="642.908203"/>
     <use xlink:href="#DejaVuSans-20" x="695.007812"/>
     <use xlink:href="#DejaVuSans-72" x="726.794922"/>
     <use xlink:href="#DejaVuSans-75" x="767.908203"/>
     <use xlink:href="#DejaVuSans-6e" x="831.287109"/>
     <use xlink:href="#DejaVuSans-6e" x="894.666016"/>
     <use xlink:href="#DejaVuSans-69" x="958.044922"/>
     <use xlink:href="#DejaVuSans-6e" x="985.828125"/>
     <use xlink:href="#DejaVuSans-67" x="1049.207031"/>
     <use xlink:href="#DejaVuSans-20" x="1112.683594"/>
     <use xlink:href="#DejaVuSans-47" x="1144.470703"/>
     <use xlink:href="#DejaVuSans-4e" x="1221.960938"/>
     <use xlink:href="#DejaVuSans-55" x="1296.765625"/>
     <use xlink:href="#DejaVuSans-27" x="1369.958984"/>
     <use xlink:href="#DejaVuSans-73" x="1397.449219"/>
     <use xlink:href="#DejaVuSans-20" x="1449.548828"/>
     <use xlink:href="#DejaVuSans-74" x="1481.335938"/>
     <use xlink:href="#DejaVuSans-65" x="1520.544922"/>
     <use xlink:href="#DejaVuSans-73" x="1582.068359"/>
     <use xlink:href="#DejaVuSans-74" x="1634.167969"/>
     <use xlink:href="#DejaVuSans-73" x="1673.376953"/>
     <use xlink:href="#DejaVuSans-75" x="1725.476562"/>
     <use xlink:href="#DejaVuSans-69" x="1788.855469"/>
     <use xlink:href="#DejaVuSans-74" x="1816.638672"/>
     <use xlink:href="#DejaVuSans-65" x="1855.847656"/>
    </g>
   </g>
   <g id="legend_1">
    <g id="patch_7">
     <path d="M 505.762812 236.769437 
L 561.9675 236.769437 
Q 563.9675 236.769437 563.9675 234.769437 
L 563.9675 162.378812 
Q 563.9675 160.378812 561.9675 160.378812 
L 505.762812 160.378812 
Q 503.762812 160.378812 503.762812 162.378812 
L 503.762812 234.769437 
Q 503.762812 236.769437 505.762812 236.769437 
z
" style="fill: #ffffff; opacity: 0.8; stroke: #cccccc; stroke-linejoin: miter"/>
    </g>
    <g id="line2d_22">
     <path d="M 507.762812 168.47725 
L 517.762812 168.47725 
L 527.762812 168.47725 
" style="fill: none; stroke: #0000ff; stroke-width: 1.5; stroke-linecap: square"/>
    </g>
    <g id="text_18">
     <!-- total -->
     <g transform="translate(535.762812 171.97725) scale(0.1 -0.1)">
      <defs>
       <path id="DejaVuSans-61" d="M 2194 1759 
Q 1497 1759 1228 1600 
Q 959 1441 959 1056 
Q 959 750 1161 570 
Q 1363 391 1709 391 
Q 2188 391 2477 730 
Q 2766 1069 2766 1631 
L 2766 1759 
L 2194 1759 
z
M 3341 1997 
L 3341 0 
L 2766 0 
L 2766 531 
Q 2569 213 2275 61 
Q 1981 -91 1556 -91 
Q 1019 -91 701 211 
Q 384 513 384 1019 
Q 384 1609 779 1909 
Q 1175 2209 1959 2209 
L 2766 2209 
L 2766 2266 
Q 2766 2663 2505 2880 
Q 2244 3097 1772 3097 
Q 1472 3097 1187 3025 
Q 903 2953 641 2809 
L 641 3341 
Q 956 3463 1253 3523 
Q 1550 3584 1831 3584 
Q 2591 3584 2966 3190 
Q 3341 2797 3341 1997 
z
" transform="scale(0.015625)"/>
      </defs>
      <use xlink:href="#DejaVuSans-74"/>
      <use xlink:href="#DejaVuSans-6f" x="39.208984"/>
      <use xlink:href="#DejaVuSans-74" x="100.390625"/>
      <use xlink:href="#DejaVuSans-61" x="139.599609"/>
      <use xlink:href="#DejaVuSans-6c" x="200.878906"/>
     </g>
    </g>
    <g id="line2d_23">
     <path d="M 507.762812 183.155375 
L 517.762812 183.155375 
L 527.762812 183.155375 
" style="fill: none; stroke-dasharray: 3,1.5; stroke-dashoffset: 0; stroke: #808080; stroke-width: 1.5"/>
    </g>
    <g id="text_19">
     <!-- fail -->
     <g transform="translate(535.762812 186.655375) scale(0.1 -0.1)">
      <defs>
       <path id="DejaVuSans-66" d="M 2375 4863 
L 2375 4384 
L 1825 4384 
Q 1516 4384 1395 4259 
Q 1275 4134 1275 3809 
L 1275 3500 
L 2222 3500 
L 2222 3053 
L 1275 3053 
L 1275 0 
L 697 0 
L 697 3053 
L 147 3053 
L 147 3500 
L 697 3500 
L 697 3744 
Q 697 4328 969 4595 
Q 1241 4863 1831 4863 
L 2375 4863 
z
" transform="scale(0.015625)"/>
      </defs>
      <use xlink:href="#DejaVuSans-66"/>
      <use xlink:href="#DejaVuSans-61" x="35.205078"/>
      <use xlink:href="#DejaVuSans-69" x="96.484375"/>
      <use xlink:href="#DejaVuSans-6c" x="124.267578"/>
     </g>
    </g>
    <g id="line2d_24">
     <path d="M 507.762812 197.8335 
L 517.762812 197.8335 
L 527.762812 197.8335 
" style="fill: none; stroke-dasharray: 6,1.5; stroke-dashoffset: 0; stroke: #008000; stroke-width: 1.5"/>
    </g>
    <g id="text_20">
     <!-- pass -->
     <g transform="translate(535.762812 201.3335) scale(0.1 -0.1)">
      <defs>
       <path id="DejaVuSans-70" d="M 1159 525 
L 1159 -1331 
L 581 -1331 
L 581 3500 
L 1159 3500 
L 1159 2969 
Q 1341 3281 1617 3432 
Q 1894 3584 2278 3584 
Q 2916 3584 3314 3078 
Q 3713 2572 3713 1747 
Q 3713 922 3314 415 
Q 2916 -91 2278 -91 
Q 1894 -91 1617 61 
Q 1341 213 1159 525 
z
M 3116 1747 
Q 3116 2381 2855 2742 
Q 2594 3103 2138 3103 
Q 1681 3103 1420 2742 
Q 1159 2381 1159 1747 
Q 1159 1113 1420 752 
Q 1681 391 2138 391 
Q 2594 391 2855 752 
Q 3116 1113 3116 1747 
z
" transform="scale(0.015625)"/>
      </defs>
      <use xlink:href="#DejaVuSans-70"/>
      <use xlink:href="#DejaVuSans-61" x="63.476562"/>
      <use xlink:href="#DejaVuSans-73" x="124.755859"/>
      <use xlink:href="#DejaVuSans-73" x="176.855469"/>
     </g>
    </g>
    <g id="line2d_25">
     <path d="M 507.762812 212.511625 
L 517.762812 212.511625 
L 527.762812 212.511625 
" style="fill: none; stroke-dasharray: 9,3; stroke-dashoffset: 0; stroke: #ffa500; stroke-width: 1.5"/>
    </g>
    <g id="text_21">
     <!-- error -->
     <g transform="translate(535.762812 216.011625) scale(0.1 -0.1)">
      <use xlink:href="#DejaVuSans-65"/>
      <use xlink:href="#DejaVuSans-72" x="61.523438"/>
      <use xlink:href="#DejaVuSans-72" x="100.886719"/>
      <use xlink:href="#DejaVuSans-6f" x="139.75"/>
      <use xlink:href="#DejaVuSans-72" x="200.931641"/>
     </g>
    </g>
    <g id="line2d_26">
     <path d="M 507.762812 227.18975 
L 517.762812 227.18975 
L 527.762812 227.18975 
" style="fill: none; stroke-dasharray: 12,4.5; stroke-dashoffset: 0; stroke: #ee82ee; stroke-width: 1.5"/>
    </g>
    <g id="text_22">
     <!-- skip -->
     <g transform="translate(535.762812 230.68975) scale(0.1 -0.1)">
      <defs>
       <path id="DejaVuSans-6b" d="M 581 4863 
L 1159 4863 
L 1159 1991 
L 2875 3500 
L 3609 3500 
L 1753 1863 
L 3688 0 
L 2938 0 
L 1159 1709 
L 1159 0 
L 581 0 
L 581 4863 
z
" transform="scale(0.015625)"/>
      </defs>
      <use xlink:href="#DejaVuSans-73"/>
      <use xlink:href="#DejaVuSans-6b" x="52.099609"/>
      <use xlink:href="#DejaVuSans-69" x="110.009766"/>
      <use xlink:href="#DejaVuSans-70" x="137.792969"/>
     </g>
    </g>
   </g>
  </g>
 </g>
 <defs>
  <clipPath id="p8f42038db0">
   <rect x="33.2875" y="22.318125" width="535.68" height="352.512"/>
  </clipPath>
 </defs>
</svg>
