<?xml version="1.0" encoding="utf-8" standalone="no"?>
<!DOCTYPE svg PUBLIC "-//W3C//DTD SVG 1.1//EN"
  "http://www.w3.org/Graphics/SVG/1.1/DTD/svg11.dtd">
<svg xmlns:xlink="http://www.w3.org/1999/xlink" width="576.1675pt" height="418.303033pt" viewBox="0 0 576.1675 418.303033" xmlns="http://www.w3.org/2000/svg" version="1.1">
 <metadata>
  <rdf:RDF xmlns:dc="http://purl.org/dc/elements/1.1/" xmlns:cc="http://creativecommons.org/ns#" xmlns:rdf="http://www.w3.org/1999/02/22-rdf-syntax-ns#">
   <cc:Work>
    <dc:type rdf:resource="http://purl.org/dc/dcmitype/StillImage"/>
    <dc:date>2025-10-10T02:30:34.274249</dc:date>
    <dc:format>image/svg+xml</dc:format>
    <dc:creator>
     <cc:Agent>
      <dc:title>Matplotlib v3.6.3, https://matplotlib.org/</dc:title>
     </cc:Agent>
    </dc:creator>
   </cc:Work>
  </rdf:RDF>
 </metadata>
 <defs>
  <style type="text/css">*{stroke-linejoin: round; stroke-linecap: butt}</style>
 </defs>
 <g id="figure_1">
  <g id="patch_1">
   <path d="M -0 418.303033 
L 576.1675 418.303033 
L 576.1675 0 
L -0 0 
z
" style="fill: #ffffff"/>
  </g>
  <g id="axes_1">
   <g id="patch_2">
    <path d="M 33.2875 374.830125 
L 568.9675 374.830125 
L 568.9675 22.318125 
L 33.2875 22.318125 
z
" style="fill: #ffffff"/>
   </g>
   <g id="matplotlib.axis_1">
    <g id="xtick_1">
     <g id="line2d_1">
      <defs>
       <path id="mad842f0f85" d="M 0 0 
L 0 3.5 
" style="stroke: #000000; stroke-width: 0.8"/>
      </defs>
      <g>
       <use xlink:href="#mad842f0f85" x="61.504333" y="374.830125" style="stroke: #000000; stroke-width: 0.8"/>
      </g>
     </g>
     <g id="text_1">
      <!-- 2021-07 -->
      <g transform="translate(24.279513 409.301971) rotate(-30) scale(0.1 -0.1)">
       <defs>
        <path id="DejaVuSans-32" d="M 1228 531 
L 3431 531 
L 3431 0 
L 469 0 
L 469 531 
Q 828 903 1448 1529 
Q 2069 2156 2228 2338 
Q 2531 2678 2651 2914 
Q 2772 3150 2772 3378 
Q 2772 3750 2511 3984 
Q 2250 4219 1831 4219 
Q 1534 4219 1204 4116 
Q 875 4013 500 3803 
L 500 4441 
Q 881 4594 1212 4672 
Q 1544 4750 1819 4750 
Q 2544 4750 2975 4387 
Q 3406 4025 3406 3419 
Q 3406 3131 3298 2873 
Q 3191 2616 2906 2266 
Q 2828 2175 2409 1742 
Q 1991 1309 1228 531 
z
" transform="scale(0.015625)"/>
        <path id="DejaVuSans-30" d="M 2034 4250 
Q 1547 4250 1301 3770 
Q 1056 3291 1056 2328 
Q 1056 1369 1301 889 
Q 1547 409 2034 409 
Q 2525 409 2770 889 
Q 3016 1369 3016 2328 
Q 3016 3291 2770 3770 
Q 2525 4250 2034 4250 
z
M 2034 4750 
Q 2819 4750 3233 4129 
Q 3647 3509 3647 2328 
Q 3647 1150 3233 529 
Q 2819 -91 2034 -91 
Q 1250 -91 836 529 
Q 422 1150 422 2328 
Q 422 3509 836 4129 
Q 1250 4750 2034 4750 
z
" transform="scale(0.015625)"/>
        <path id="DejaVuSans-31" d="M 794 531 
L 1825 531 
L 1825 4091 
L 703 3866 
L 703 4441 
L 1819 4666 
L 2450 4666 
L 2450 531 
L 3481 531 
L 3481 0 
L 794 0 
L 794 531 
z
" transform="scale(0.015625)"/>
        <path id="DejaVuSans-2d" d="M 313 2009 
L 1997 2009 
L 1997 1497 
L 313 1497 
L 313 2009 
z
" transform="scale(0.015625)"/>
        <path id="DejaVuSans-37" d="M 525 4666 
L 3525 4666 
L 3525 4397 
L 1831 0 
L 1172 0 
L 2766 4134 
L 525 4134 
L 525 4666 
z
" transform="scale(0.015625)"/>
       </defs>
       <use xlink:href="#DejaVuSans-32"/>
       <use xlink:href="#DejaVuSans-30" x="63.623047"/>
       <use xlink:href="#DejaVuSans-32" x="127.246094"/>
       <use xlink:href="#DejaVuSans-31" x="190.869141"/>
       <use xlink:href="#DejaVuSans-2d" x="254.492188"/>
       <use xlink:href="#DejaVuSans-30" x="290.576172"/>
       <use xlink:href="#DejaVuSans-37" x="354.199219"/>
      </g>
     </g>
    </g>
    <g id="xtick_2">
     <g id="line2d_2">
      <g>
       <use xlink:href="#mad842f0f85" x="120.675789" y="374.830125" style="stroke: #000000; stroke-width: 0.8"/>
      </g>
     </g>
     <g id="text_2">
      <!-- 2022-01 -->
      <g transform="translate(83.450968 409.301971) rotate(-30) scale(0.1 -0.1)">
       <use xlink:href="#DejaVuSans-32"/>
       <use xlink:href="#DejaVuSans-30" x="63.623047"/>
       <use xlink:href="#DejaVuSans-32" x="127.246094"/>
       <use xlink:href="#DejaVuSans-32" x="190.869141"/>
       <use xlink:href="#DejaVuSans-2d" x="254.492188"/>
       <use xlink:href="#DejaVuSans-30" x="290.576172"/>
       <use xlink:href="#DejaVuSans-31" x="354.199219"/>
      </g>
     </g>
    </g>
    <g id="xtick_3">
     <g id="line2d_3">
      <g>
       <use xlink:href="#mad842f0f85" x="178.882492" y="374.830125" style="stroke: #000000; stroke-width: 0.8"/>
      </g>
     </g>
     <g id="text_3">
      <!-- 2022-07 -->
      <g transform="translate(141.657671 409.301971) rotate(-30) scale(0.1 -0.1)">
       <use xlink:href="#DejaVuSans-32"/>
       <use xlink:href="#DejaVuSans-30" x="63.623047"/>
       <use xlink:href="#DejaVuSans-32" x="127.246094"/>
       <use xlink:href="#DejaVuSans-32" x="190.869141"/>
       <use xlink:href="#DejaVuSans-2d" x="254.492188"/>
       <use xlink:href="#DejaVuSans-30" x="290.576172"/>
       <use xlink:href="#DejaVuSans-37" x="354.199219"/>
      </g>
     </g>
    </g>
    <g id="xtick_4">
     <g id="line2d_4">
      <g>
       <use xlink:href="#mad842f0f85" x="238.053947" y="374.830125" style="stroke: #000000; stroke-width: 0.8"/>
      </g>
     </g>
     <g id="text_4">
      <!-- 2023-01 -->
      <g transform="translate(200.829126 409.301971) rotate(-30) scale(0.1 -0.1)">
       <defs>
        <path id="DejaVuSans-33" d="M 2597 2516 
Q 3050 2419 3304 2112 
Q 3559 1806 3559 1356 
Q 3559 666 3084 287 
Q 2609 -91 1734 -91 
Q 1441 -91 1130 -33 
Q 819 25 488 141 
L 488 750 
Q 750 597 1062 519 
Q 1375 441 1716 441 
Q 2309 441 2620 675 
Q 2931 909 2931 1356 
Q 2931 1769 2642 2001 
Q 2353 2234 1838 2234 
L 1294 2234 
L 1294 2753 
L 1863 2753 
Q 2328 2753 2575 2939 
Q 2822 3125 2822 3475 
Q 2822 3834 2567 4026 
Q 2313 4219 1838 4219 
Q 1578 4219 1281 4162 
Q 984 4106 628 3988 
L 628 4550 
Q 988 4650 1302 4700 
Q 1616 4750 1894 4750 
Q 2613 4750 3031 4423 
Q 3450 4097 3450 3541 
Q 3450 3153 3228 2886 
Q 3006 2619 2597 2516 
z
" transform="scale(0.015625)"/>
       </defs>
       <use xlink:href="#DejaVuSans-32"/>
       <use xlink:href="#DejaVuSans-30" x="63.623047"/>
       <use xlink:href="#DejaVuSans-32" x="127.246094"/>
       <use xlink:href="#DejaVuSans-33" x="190.869141"/>
       <use xlink:href="#DejaVuSans-2d" x="254.492188"/>
       <use xlink:href="#DejaVuSans-30" x="290.576172"/>
       <use xlink:href="#DejaVuSans-31" x="354.199219"/>
      </g>
     </g>
    </g>
    <g id="xtick_5">
     <g id="line2d_5">
      <g>
       <use xlink:href="#mad842f0f85" x="296.26065" y="374.830125" style="stroke: #000000; stroke-width: 0.8"/>
      </g>
     </g>
     <g id="text_5">
      <!-- 2023-07 -->
      <g transform="translate(259.035829 409.301971) rotate(-30) scale(0.1 -0.1)">
       <use xlink:href="#DejaVuSans-32"/>
       <use xlink:href="#DejaVuSans-30" x="63.623047"/>
       <use xlink:href="#DejaVuSans-32" x="127.246094"/>
       <use xlink:href="#DejaVuSans-33" x="190.869141"/>
       <use xlink:href="#DejaVuSans-2d" x="254.492188"/>
       <use xlink:href="#DejaVuSans-30" x="290.576172"/>
       <use xlink:href="#DejaVuSans-37" x="354.199219"/>
      </g>
     </g>
    </g>
    <g id="xtick_6">
     <g id="line2d_6">
      <g>
       <use xlink:href="#mad842f0f85" x="355.432105" y="374.830125" style="stroke: #000000; stroke-width: 0.8"/>
      </g>
     </g>
     <g id="text_6">
      <!-- 2024-01 -->
      <g transform="translate(318.207284 409.301971) rotate(-30) scale(0.1 -0.1)">
       <defs>
        <path id="DejaVuSans-34" d="M 2419 4116 
L 825 1625 
L 2419 1625 
L 2419 4116 
z
M 2253 4666 
L 3047 4666 
L 3047 1625 
L 3713 1625 
L 3713 1100 
L 3047 1100 
L 3047 0 
L 2419 0 
L 2419 1100 
L 313 1100 
L 313 1709 
L 2253 4666 
z
" transform="scale(0.015625)"/>
       </defs>
       <use xlink:href="#DejaVuSans-32"/>
       <use xlink:href="#DejaVuSans-30" x="63.623047"/>
       <use xlink:href="#DejaVuSans-32" x="127.246094"/>
       <use xlink:href="#DejaVuSans-34" x="190.869141"/>
       <use xlink:href="#DejaVuSans-2d" x="254.492188"/>
       <use xlink:href="#DejaVuSans-30" x="290.576172"/>
       <use xlink:href="#DejaVuSans-31" x="354.199219"/>
      </g>
     </g>
    </g>
    <g id="xtick_7">
     <g id="line2d_7">
      <g>
       <use xlink:href="#mad842f0f85" x="413.960392" y="374.830125" style="stroke: #000000; stroke-width: 0.8"/>
      </g>
     </g>
     <g id="text_7">
      <!-- 2024-07 -->
      <g transform="translate(376.735572 409.301971) rotate(-30) scale(0.1 -0.1)">
       <use xlink:href="#DejaVuSans-32"/>
       <use xlink:href="#DejaVuSans-30" x="63.623047"/>
       <use xlink:href="#DejaVuSans-32" x="127.246094"/>
       <use xlink:href="#DejaVuSans-34" x="190.869141"/>
       <use xlink:href="#DejaVuSans-2d" x="254.492188"/>
       <use xlink:href="#DejaVuSans-30" x="290.576172"/>
       <use xlink:href="#DejaVuSans-37" x="354.199219"/>
      </g>
     </g>
    </g>
    <g id="xtick_8">
     <g id="line2d_8">
      <g>
       <use xlink:href="#mad842f0f85" x="473.131848" y="374.830125" style="stroke: #000000; stroke-width: 0.8"/>
      </g>
     </g>
     <g id="text_8">
      <!-- 2025-01 -->
      <g transform="translate(435.907027 409.301971) rotate(-30) scale(0.1 -0.1)">
       <defs>
        <path id="DejaVuSans-35" d="M 691 4666 
L 3169 4666 
L 3169 4134 
L 1269 4134 
L 1269 2991 
Q 1406 3038 1543 3061 
Q 1681 3084 1819 3084 
Q 2600 3084 3056 2656 
Q 3513 2228 3513 1497 
Q 3513 744 3044 326 
Q 2575 -91 1722 -91 
Q 1428 -91 1123 -41 
Q 819 9 494 109 
L 494 744 
Q 775 591 1075 516 
Q 1375 441 1709 441 
Q 2250 441 2565 725 
Q 2881 1009 2881 1497 
Q 2881 1984 2565 2268 
Q 2250 2553 1709 2553 
Q 1456 2553 1204 2497 
Q 953 2441 691 2322 
L 691 4666 
z
" transform="scale(0.015625)"/>
       </defs>
       <use xlink:href="#DejaVuSans-32"/>
       <use xlink:href="#DejaVuSans-30" x="63.623047"/>
       <use xlink:href="#DejaVuSans-32" x="127.246094"/>
       <use xlink:href="#DejaVuSans-35" x="190.869141"/>
       <use xlink:href="#DejaVuSans-2d" x="254.492188"/>
       <use xlink:href="#DejaVuSans-30" x="290.576172"/>
       <use xlink:href="#DejaVuSans-31" x="354.199219"/>
      </g>
     </g>
    </g>
    <g id="xtick_9">
     <g id="line2d_9">
      <g>
       <use xlink:href="#mad842f0f85" x="531.338551" y="374.830125" style="stroke: #000000; stroke-width: 0.8"/>
      </g>
     </g>
     <g id="text_9">
      <!-- 2025-07 -->
      <g transform="translate(494.11373 409.301971) rotate(-30) scale(0.1 -0.1)">
       <use xlink:href="#DejaVuSans-32"/>
       <use xlink:href="#DejaVuSans-30" x="63.623047"/>
       <use xlink:href="#DejaVuSans-32" x="127.246094"/>
       <use xlink:href="#DejaVuSans-35" x="190.869141"/>
       <use xlink:href="#DejaVuSans-2d" x="254.492188"/>
       <use xlink:href="#DejaVuSans-30" x="290.576172"/>
       <use xlink:href="#DejaVuSans-37" x="354.199219"/>
      </g>
     </g>
    </g>
   </g>
   <g id="matplotlib.axis_2">
    <g id="ytick_1">
     <g id="line2d_10">
      <defs>
       <path id="m36355b2aae" d="M 0 0 
L -3.5 0 
" style="stroke: #000000; stroke-width: 0.8"/>
      </defs>
      <g>
       <use xlink:href="#m36355b2aae" x="33.2875" y="374.830125" style="stroke: #000000; stroke-width: 0.8"/>
      </g>
     </g>
     <g id="text_10">
      <!-- 0 -->
      <g transform="translate(19.925 378.629344) scale(0.1 -0.1)">
       <use xlink:href="#DejaVuSans-30"/>
      </g>
     </g>
    </g>
    <g id="ytick_2">
     <g id="line2d_11">
      <g>
       <use xlink:href="#m36355b2aae" x="33.2875" y="319.779371" style="stroke: #000000; stroke-width: 0.8"/>
      </g>
     </g>
     <g id="text_11">
      <!-- 100 -->
      <g transform="translate(7.2 323.578589) scale(0.1 -0.1)">
       <use xlink:href="#DejaVuSans-31"/>
       <use xlink:href="#DejaVuSans-30" x="63.623047"/>
       <use xlink:href="#DejaVuSans-30" x="127.246094"/>
      </g>
     </g>
    </g>
    <g id="ytick_3">
     <g id="line2d_12">
      <g>
       <use xlink:href="#m36355b2aae" x="33.2875" y="264.728616" style="stroke: #000000; stroke-width: 0.8"/>
      </g>
     </g>
     <g id="text_12">
      <!-- 200 -->
      <g transform="translate(7.2 268.527835) scale(0.1 -0.1)">
       <use xlink:href="#DejaVuSans-32"/>
       <use xlink:href="#DejaVuSans-30" x="63.623047"/>
       <use xlink:href="#DejaVuSans-30" x="127.246094"/>
      </g>
     </g>
    </g>
    <g id="ytick_4">
     <g id="line2d_13">
      <g>
       <use xlink:href="#m36355b2aae" x="33.2875" y="209.677862" style="stroke: #000000; stroke-width: 0.8"/>
      </g>
     </g>
     <g id="text_13">
      <!-- 300 -->
      <g transform="translate(7.2 213.477081) scale(0.1 -0.1)">
       <use xlink:href="#DejaVuSans-33"/>
       <use xlink:href="#DejaVuSans-30" x="63.623047"/>
       <use xlink:href="#DejaVuSans-30" x="127.246094"/>
      </g>
     </g>
    </g>
    <g id="ytick_5">
     <g id="line2d_14">
      <g>
       <use xlink:href="#m36355b2aae" x="33.2875" y="154.627108" style="stroke: #000000; stroke-width: 0.8"/>
      </g>
     </g>
     <g id="text_14">
      <!-- 400 -->
      <g transform="translate(7.2 158.426327) scale(0.1 -0.1)">
       <use xlink:href="#DejaVuSans-34"/>
       <use xlink:href="#DejaVuSans-30" x="63.623047"/>
       <use xlink:href="#DejaVuSans-30" x="127.246094"/>
      </g>
     </g>
    </g>
    <g id="ytick_6">
     <g id="line2d_15">
      <g>
       <use xlink:href="#m36355b2aae" x="33.2875" y="99.576354" style="stroke: #000000; stroke-width: 0.8"/>
      </g>
     </g>
     <g id="text_15">
      <!-- 500 -->
      <g transform="translate(7.2 103.375572) scale(0.1 -0.1)">
       <use xlink:href="#DejaVuSans-35"/>
       <use xlink:href="#DejaVuSans-30" x="63.623047"/>
       <use xlink:href="#DejaVuSans-30" x="127.246094"/>
      </g>
     </g>
    </g>
    <g id="ytick_7">
     <g id="line2d_16">
      <g>
       <use xlink:href="#m36355b2aae" x="33.2875" y="44.525599" style="stroke: #000000; stroke-width: 0.8"/>
      </g>
     </g>
     <g id="text_16">
      <!-- 600 -->
      <g transform="translate(7.2 48.324818) scale(0.1 -0.1)">
       <defs>
        <path id="DejaVuSans-36" d="M 2113 2584 
Q 1688 2584 1439 2293 
Q 1191 2003 1191 1497 
Q 1191 994 1439 701 
Q 1688 409 2113 409 
Q 2538 409 2786 701 
Q 3034 994 3034 1497 
Q 3034 2003 2786 2293 
Q 2538 2584 2113 2584 
z
M 3366 4563 
L 3366 3988 
Q 3128 4100 2886 4159 
Q 2644 4219 2406 4219 
Q 1781 4219 1451 3797 
Q 1122 3375 1075 2522 
Q 1259 2794 1537 2939 
Q 1816 3084 2150 3084 
Q 2853 3084 3261 2657 
Q 3669 2231 3669 1497 
Q 3669 778 3244 343 
Q 2819 -91 2113 -91 
Q 1303 -91 875 529 
Q 447 1150 447 2328 
Q 447 3434 972 4092 
Q 1497 4750 2381 4750 
Q 2619 4750 2861 4703 
Q 3103 4656 3366 4563 
z
" transform="scale(0.015625)"/>
       </defs>
       <use xlink:href="#DejaVuSans-36"/>
       <use xlink:href="#DejaVuSans-30" x="63.623047"/>
       <use xlink:href="#DejaVuSans-30" x="127.246094"/>
      </g>
     </g>
    </g>
   </g>
   <g id="line2d_17">
    <path d="M 38.539265 31.313418 
L 48.101602 31.313418 
L 48.20985 34.616464 
L 49.548637 34.616464 
L 50.03871 43.975092 
L 129.037497 43.975092 
L 129.430816 38.470016 
L 142.576697 38.470016 
L 143.348923 39.020524 
L 149.514005 39.020524 
L 149.729604 50.030675 
L 155.981699 50.030675 
L 157.277381 48.379152 
L 264.387738 48.379152 
L 264.6928 44.525599 
L 273.087635 44.525599 
L 273.387259 43.424584 
L 315.522787 43.424584 
L 315.732621 42.323569 
L 383.822106 42.323569 
L 384.017167 37.919509 
L 435.637528 37.919509 
L 435.72631 37.369001 
L 475.155113 37.369001 
L 475.517461 36.818494 
L 479.104031 36.818494 
L 479.223035 34.616464 
L 480.662377 34.616464 
L 481.03636 35.166971 
L 505.916342 35.166971 
L 506.223496 34.616464 
L 558.6098 34.616464 
L 558.788633 25.808343 
L 563.715735 25.808343 
L 563.715735 25.808343 
" clip-path="url(#p9e5c535dea)" style="fill: none; stroke: #0000ff; stroke-width: 1.5; stroke-linecap: square"/>
   </g>
   <g id="line2d_18">
    <path d="M 38.539265 172.243349 
L 39.853963 171.142334 
L 41.164417 172.243349 
L 44.267703 172.243349 
L 47.689446 173.344364 
L 47.943289 172.793857 
L 48.101602 172.793857 
L 48.20985 176.096902 
L 48.459684 175.546394 
L 48.829197 176.096902 
L 49.548637 176.096902 
L 49.949329 188.208068 
L 50.03871 185.45553 
L 50.24669 188.758576 
L 50.312831 188.208068 
L 50.54589 188.208068 
L 50.918696 188.758576 
L 51.815953 188.758576 
L 51.842737 189.309083 
L 52.329107 189.309083 
L 52.53498 188.758576 
L 53.136885 192.612128 
L 53.206409 192.061621 
L 53.501965 192.612128 
L 54.073685 194.263651 
L 54.461469 193.162636 
L 55.07441 193.162636 
L 55.416953 194.263651 
L 55.648516 194.263651 
L 56.346145 194.814158 
L 56.65919 194.814158 
L 56.999597 195.915174 
L 57.303989 195.364666 
L 57.642002 196.465681 
L 57.993213 198.667711 
L 59.351228 199.768726 
L 59.927891 199.768726 
L 60.174907 200.319234 
L 60.568479 200.319234 
L 60.858229 200.869741 
L 61.153379 200.319234 
L 61.482455 200.319234 
L 61.675164 200.869741 
L 65.008992 200.869741 
L 65.345464 201.420249 
L 65.667893 201.420249 
L 65.793088 200.869741 
L 66.589406 201.420249 
L 66.923158 200.869741 
L 67.843342 200.869741 
L 68.138775 201.420249 
L 68.501994 200.869741 
L 70.176825 200.869741 
L 70.519974 201.420249 
L 70.708328 203.071772 
L 71.16676 201.970757 
L 72.23274 201.970757 
L 72.761619 202.521264 
L 73.081406 202.521264 
L 73.391987 203.071772 
L 73.738647 203.071772 
L 74.056937 202.521264 
L 74.361079 204.172787 
L 74.631098 204.172787 
L 75.365218 205.273802 
L 79.219566 205.273802 
L 79.52596 206.374817 
L 80.178965 206.374817 
L 80.4688 206.925324 
L 81.4409 206.925324 
L 82.371416 209.127355 
L 83.360462 209.127355 
L 83.714707 209.677862 
L 89.690214 209.677862 
L 90.407603 210.778877 
L 90.570115 209.677862 
L 91.720827 209.677862 
L 92.033307 210.22837 
L 92.378064 209.677862 
L 93.198331 209.677862 
L 93.651407 210.22837 
L 93.987756 209.677862 
L 99.067458 209.677862 
L 99.345051 214.63243 
L 99.537511 209.677862 
L 101.3784 209.677862 
L 101.712583 210.22837 
L 101.90333 215.182938 
L 102.353916 210.22837 
L 102.672154 210.22837 
L 102.883406 209.677862 
L 106.21649 209.677862 
L 106.385281 210.22837 
L 106.688187 210.22837 
L 107.187041 211.879892 
L 112.214969 211.879892 
L 113.312297 212.4304 
L 120.065363 212.4304 
L 120.346567 214.63243 
L 120.705892 214.63243 
L 121.024525 212.4304 
L 121.352347 212.4304 
L 121.578234 214.63243 
L 121.823051 212.4304 
L 122.229899 214.63243 
L 122.590285 215.733445 
L 126.769106 215.733445 
L 127.12979 216.283953 
L 129.037497 216.283953 
L 129.430816 210.22837 
L 129.711778 210.778877 
L 130.029353 212.4304 
L 130.421421 212.4304 
L 130.947118 213.531415 
L 131.30992 213.531415 
L 131.577345 214.081922 
L 131.936558 211.879892 
L 134.566661 217.384968 
L 134.835214 215.733445 
L 135.285506 215.182938 
L 136.71568 215.182938 
L 137.082546 214.63243 
L 137.406058 213.531415 
L 138.701186 213.531415 
L 138.937982 212.4304 
L 139.354485 213.531415 
L 140.295088 213.531415 
L 140.615202 214.63243 
L 140.923979 214.63243 
L 141.289673 215.182938 
L 141.43724 215.182938 
L 141.602164 216.83446 
L 141.825731 216.83446 
L 142.576697 217.384968 
L 143.197194 216.283953 
L 143.348923 216.283953 
L 143.835341 216.83446 
L 144.14743 217.935475 
L 145.760252 217.935475 
L 146.071649 218.485983 
L 146.406044 218.485983 
L 146.715636 219.03649 
L 147.005653 219.03649 
L 147.679554 219.586998 
L 148.027594 219.586998 
L 148.374659 221.238521 
L 148.579863 221.238521 
L 148.940576 220.688013 
L 149.514005 220.688013 
L 149.729604 222.339536 
L 150.261445 222.339536 
L 150.576546 223.440551 
L 150.997367 223.440551 
L 151.214131 223.991058 
L 151.690808 223.991058 
L 151.738242 224.541566 
L 151.979683 224.541566 
L 152.489159 225.092073 
L 153.647796 228.395119 
L 155.091994 228.395119 
L 155.386422 229.496134 
L 155.497287 228.945626 
L 155.625671 228.945626 
L 155.981699 228.395119 
L 157.277381 226.743596 
L 160.519018 226.743596 
L 160.894643 226.193088 
L 162.463582 226.193088 
L 162.686878 225.642581 
L 165.625002 225.642581 
L 166.137441 226.193088 
L 166.532096 226.193088 
L 166.960554 226.743596 
L 167.176142 226.193088 
L 169.241538 226.193088 
L 169.893363 227.294104 
L 171.280592 227.294104 
L 171.51415 235.001209 
L 171.777443 235.001209 
L 174.021255 236.652732 
L 174.159137 236.102224 
L 174.302983 236.652732 
L 174.676355 236.102224 
L 174.989546 236.102224 
L 175.319181 236.652732 
L 175.566719 236.652732 
L 175.964132 237.753747 
L 176.127574 237.753747 
L 176.278834 237.203239 
L 176.617863 238.304254 
L 178.871873 238.304254 
L 179.091153 238.854762 
L 180.303688 238.854762 
L 180.786463 238.304254 
L 181.148166 241.056792 
L 181.405668 239.405269 
L 181.741507 239.405269 
L 182.010696 242.708315 
L 182.199043 242.157807 
L 182.399545 242.708315 
L 182.500531 242.157807 
L 182.624133 243.80933 
L 182.944574 243.80933 
L 183.350581 244.359837 
L 184.145772 243.80933 
L 184.326838 244.910345 
L 184.622751 244.910345 
L 184.832306 243.258822 
L 185.543635 244.910345 
L 186.250941 245.460852 
L 186.87212 245.460852 
L 187.197984 247.112375 
L 187.497511 247.112375 
L 187.674933 246.561868 
L 187.986334 246.561868 
L 189.190725 248.763898 
L 189.391589 247.662883 
L 189.77823 247.112375 
L 190.231716 248.763898 
L 191.450661 248.763898 
L 191.555012 249.314405 
L 192.040711 249.864913 
L 193.33547 249.864913 
L 193.928123 252.61745 
L 197.258538 252.61745 
L 197.521522 253.167958 
L 197.867404 252.066943 
L 198.06877 253.167958 
L 201.699595 253.167958 
L 202.002955 253.718466 
L 202.734518 257.021511 
L 203.008977 255.369988 
L 203.336059 255.920496 
L 203.698232 255.369988 
L 203.953094 255.369988 
L 204.339271 253.718466 
L 204.546342 253.718466 
L 204.586533 254.268973 
L 205.238146 254.268973 
L 205.604908 250.965928 
L 205.92826 250.965928 
L 206.900966 251.516435 
L 206.962514 250.965928 
L 207.490649 250.41542 
L 207.569091 250.965928 
L 210.113888 250.965928 
L 210.29096 251.516435 
L 210.765874 252.066943 
L 211.400045 253.167958 
L 211.564991 254.268973 
L 211.787885 254.268973 
L 212.037582 255.369988 
L 212.338218 254.819481 
L 212.674847 254.819481 
L 212.928496 254.268973 
L 213.28608 254.819481 
L 213.605163 254.819481 
L 213.910984 255.369988 
L 214.158548 255.369988 
L 214.624554 254.819481 
L 214.866818 255.369988 
L 215.11756 254.819481 
L 215.845702 250.41542 
L 216.546123 251.516435 
L 216.648527 255.369988 
L 216.804655 255.369988 
L 217.090333 255.920496 
L 217.422223 255.369988 
L 217.725238 255.369988 
L 218.09851 254.819481 
L 218.421821 255.920496 
L 219.588687 255.920496 
L 220.052419 256.471003 
L 220.317436 256.471003 
L 220.338 257.021511 
L 221.660213 257.021511 
L 222.036641 258.122526 
L 223.886661 258.122526 
L 224.255455 259.223541 
L 225.5113 259.223541 
L 227.799106 258.673033 
L 228.01134 259.223541 
L 228.583741 259.223541 
L 229.065384 259.774049 
L 229.388021 260.875064 
L 229.484496 260.324556 
L 229.835179 261.425571 
L 230.615303 261.425571 
L 233.774937 262.526586 
L 241.585014 262.526586 
L 241.903144 261.976079 
L 243.430094 261.976079 
L 243.746601 262.526586 
L 244.795457 262.526586 
L 245.157458 263.077094 
L 245.417759 262.526586 
L 245.719854 263.077094 
L 246.054116 262.526586 
L 246.328459 263.627601 
L 246.748636 263.077094 
L 247.055221 263.627601 
L 253.719453 263.627601 
L 254.063701 262.526586 
L 254.428394 263.077094 
L 254.758222 262.526586 
L 255.127664 262.526586 
L 255.423945 261.976079 
L 256.660469 261.976079 
L 256.974445 262.526586 
L 257.329096 261.976079 
L 257.652202 260.875064 
L 258.29288 260.875064 
L 258.65435 260.324556 
L 258.924841 261.425571 
L 259.2728 261.425571 
L 259.541627 260.875064 
L 260.390103 261.976079 
L 260.886466 261.425571 
L 261.181367 261.976079 
L 261.808769 261.976079 
L 262.162872 261.425571 
L 262.510581 263.077094 
L 262.845248 262.526586 
L 263.487753 262.526586 
L 263.732671 261.976079 
L 264.045903 262.526586 
L 264.387738 262.526586 
L 264.6928 257.572018 
L 264.813997 258.122526 
L 265.053726 258.122526 
L 265.220726 258.673033 
L 265.366273 258.673033 
L 265.557898 259.223541 
L 265.68776 258.122526 
L 266.328877 259.223541 
L 266.879709 259.223541 
L 267.147584 260.324556 
L 267.413066 259.223541 
L 267.58591 259.774049 
L 268.560413 259.774049 
L 268.85052 259.223541 
L 269.125649 259.223541 
L 269.471378 259.774049 
L 269.791071 259.774049 
L 270.170042 259.223541 
L 270.535754 259.774049 
L 270.819511 259.774049 
L 271.266055 260.875064 
L 273.087635 260.875064 
L 273.387259 259.223541 
L 274.799035 259.223541 
L 275.123269 259.774049 
L 275.378318 260.324556 
L 275.877681 260.324556 
L 276.033475 261.425571 
L 276.104941 260.875064 
L 276.273911 261.425571 
L 276.749185 261.425571 
L 276.982173 262.526586 
L 277.61655 262.526586 
L 277.912668 263.627601 
L 278.891969 263.627601 
L 279.126822 265.279124 
L 279.343534 265.829632 
L 279.468598 265.829632 
L 279.890473 266.380139 
L 280.038956 265.829632 
L 280.110914 266.380139 
L 280.574769 266.380139 
L 281.119526 266.930647 
L 282.34168 266.930647 
L 282.65688 266.380139 
L 282.958898 266.930647 
L 283.299349 266.930647 
L 283.462511 267.481154 
L 283.501757 266.930647 
L 283.695414 267.481154 
L 283.846879 267.481154 
L 283.996456 268.582169 
L 284.572423 269.683184 
L 284.991829 269.132677 
L 285.3107 269.683184 
L 285.937569 269.683184 
L 286.277801 270.784199 
L 286.402355 270.233692 
L 286.6047 271.885214 
L 286.891427 271.334707 
L 287.077384 271.885214 
L 287.224419 271.334707 
L 287.386901 272.435722 
L 287.718076 272.435722 
L 287.816163 272.98623 
L 288.204707 272.435722 
L 288.505213 273.536737 
L 289.183197 273.536737 
L 289.427258 274.637752 
L 289.773437 273.536737 
L 290.008622 273.536737 
L 290.094846 274.087245 
L 290.727593 274.087245 
L 291.023569 276.289275 
L 291.449229 274.087245 
L 291.515224 274.637752 
L 292.075692 274.087245 
L 292.128765 275.18826 
L 292.321533 275.18826 
L 292.709972 275.738767 
L 293.02521 275.18826 
L 293.263364 275.18826 
L 293.615785 276.289275 
L 293.999192 276.289275 
L 294.371002 275.738767 
L 294.648881 276.289275 
L 294.817724 275.738767 
L 294.985655 276.839782 
L 296.473677 276.839782 
L 296.931019 277.39029 
L 297.8648 277.39029 
L 298.19612 276.289275 
L 298.820567 276.289275 
L 299.133099 276.839782 
L 301.976273 276.839782 
L 302.359978 276.289275 
L 302.719653 277.39029 
L 307.083001 277.39029 
L 308.040201 277.940797 
L 308.608724 277.940797 
L 309.070442 278.491305 
L 309.435325 278.491305 
L 309.64974 279.041813 
L 314.506582 279.041813 
L 314.901062 278.491305 
L 315.213813 279.041813 
L 315.522787 278.491305 
L 315.732621 275.18826 
L 317.651353 275.18826 
L 317.822548 275.738767 
L 318.154394 275.738767 
L 318.264134 275.18826 
L 320.250291 275.18826 
L 320.525826 275.738767 
L 320.629958 275.18826 
L 321.101916 275.18826 
L 321.320075 276.289275 
L 321.595074 275.18826 
L 321.800389 276.289275 
L 321.946115 276.289275 
L 322.134066 275.18826 
L 322.298446 276.289275 
L 322.403787 275.18826 
L 322.446215 276.289275 
L 323.57675 276.289275 
L 323.756208 276.839782 
L 323.782527 277.39029 
L 324.358222 277.39029 
L 324.392152 277.940797 
L 324.723856 277.940797 
L 324.895613 278.491305 
L 325.042053 277.940797 
L 325.221958 278.491305 
L 325.34362 277.940797 
L 325.628962 278.491305 
L 325.749638 277.940797 
L 325.766186 278.491305 
L 326.127879 278.491305 
L 326.354503 279.041813 
L 326.497436 279.041813 
L 326.711483 280.142828 
L 326.948986 280.693335 
L 327.113017 280.142828 
L 328.940012 280.142828 
L 329.201239 280.693335 
L 330.601429 280.693335 
L 330.824784 281.243843 
L 331.12002 281.243843 
L 331.339099 281.79435 
L 331.45985 281.243843 
L 332.039162 281.243843 
L 332.234662 282.344858 
L 332.766783 282.344858 
L 332.817883 282.895365 
L 332.892134 282.344858 
L 333.007004 282.344858 
L 333.213089 283.445873 
L 333.427709 283.99638 
L 333.487693 283.445873 
L 333.730977 285.647903 
L 334.716275 285.647903 
L 334.815329 286.198411 
L 335.031181 286.198411 
L 335.157626 287.299426 
L 335.306024 286.198411 
L 336.614045 286.198411 
L 336.689732 286.748918 
L 336.940623 286.198411 
L 337.060749 286.748918 
L 337.282846 286.198411 
L 337.571341 286.198411 
L 337.748257 287.299426 
L 338.070753 287.299426 
L 338.203038 286.748918 
L 338.316378 287.849933 
L 338.651104 286.198411 
L 339.001873 287.299426 
L 339.255972 286.198411 
L 339.850799 286.198411 
L 340.313723 287.849933 
L 340.45777 287.299426 
L 340.617293 287.849933 
L 341.047735 286.748918 
L 341.185566 287.849933 
L 342.207097 287.849933 
L 342.371757 288.400441 
L 342.6587 288.400441 
L 342.811664 287.849933 
L 343.004719 288.400441 
L 343.12679 287.849933 
L 343.498655 288.950948 
L 344.006356 288.950948 
L 344.36442 290.051963 
L 345.91527 290.051963 
L 346.084831 290.602471 
L 346.292238 290.051963 
L 346.394858 290.602471 
L 346.606318 290.051963 
L 346.887161 290.051963 
L 347.068305 290.602471 
L 347.18741 290.051963 
L 347.5666 290.051963 
L 347.683885 290.602471 
L 348.215518 290.602471 
L 348.251354 291.703486 
L 350.525121 291.703486 
L 350.749433 292.253994 
L 350.896665 291.703486 
L 351.021402 292.253994 
L 351.11615 291.703486 
L 351.229803 292.804501 
L 351.753449 292.804501 
L 352.000462 293.355009 
L 352.050523 292.804501 
L 352.101813 293.355009 
L 352.383883 292.804501 
L 352.456783 293.355009 
L 352.732631 293.905516 
L 352.840674 294.456024 
L 353.046935 294.456024 
L 353.094361 295.006531 
L 353.381542 296.658054 
L 353.510801 296.107546 
L 353.685256 296.107546 
L 353.716685 297.208561 
L 354.942389 297.208561 
L 355.094628 297.759069 
L 355.334752 297.208561 
L 355.750689 297.759069 
L 355.861855 297.208561 
L 356.043841 297.759069 
L 356.267498 297.759069 
L 356.400594 298.309577 
L 356.710603 298.309577 
L 356.718203 298.860084 
L 356.813766 298.309577 
L 356.905373 299.410592 
L 357.04077 299.410592 
L 357.228193 299.961099 
L 358.513889 299.961099 
L 358.547819 299.410592 
L 358.628758 300.511607 
L 358.967821 300.511607 
L 359.140981 299.961099 
L 359.274275 300.511607 
L 359.474956 299.961099 
L 359.625315 300.511607 
L 359.794247 300.511607 
L 359.939406 299.961099 
L 360.083338 301.612622 
L 361.806347 301.612622 
L 362.324491 302.713637 
L 362.597235 302.163129 
L 369.106002 302.163129 
L 369.216509 302.713637 
L 369.41416 302.163129 
L 369.471126 302.713637 
L 370.061724 302.713637 
L 370.225263 303.264144 
L 371.054168 303.264144 
L 371.164921 303.814652 
L 371.321034 303.264144 
L 372.590792 303.264144 
L 372.766916 303.814652 
L 372.988712 303.264144 
L 373.111178 303.264144 
L 373.306343 304.36516 
L 373.413705 303.814652 
L 373.889571 303.814652 
L 374.096915 304.36516 
L 375.072889 304.36516 
L 375.231872 303.264144 
L 375.554014 304.36516 
L 377.287307 304.36516 
L 377.46502 304.915667 
L 377.623783 304.915667 
L 377.794766 305.466175 
L 377.922566 305.466175 
L 378.080764 306.016682 
L 378.450901 306.016682 
L 378.516473 306.56719 
L 378.825037 306.56719 
L 379.019945 305.466175 
L 379.172139 306.016682 
L 379.405105 306.016682 
L 379.500099 306.56719 
L 379.856499 306.56719 
L 380.175265 307.117697 
L 380.522863 308.76922 
L 380.636668 308.218712 
L 380.742634 308.76922 
L 380.985858 309.319727 
L 381.101193 308.76922 
L 381.410773 309.319727 
L 381.615515 308.76922 
L 381.782731 308.76922 
L 382.110326 310.420742 
L 382.426052 309.870235 
L 382.753025 310.97125 
L 382.817231 310.420742 
L 383.029744 310.97125 
L 383.176898 310.420742 
L 383.298214 310.97125 
L 383.822106 310.97125 
L 384.017167 303.264144 
L 384.538125 304.36516 
L 384.882098 304.36516 
L 385.002412 304.915667 
L 385.189813 304.36516 
L 385.310102 304.36516 
L 385.452436 303.814652 
L 385.616094 304.36516 
L 385.840898 304.36516 
L 385.951509 303.814652 
L 386.092042 304.36516 
L 386.283709 303.814652 
L 386.359043 304.36516 
L 386.757431 304.915667 
L 387.050177 303.814652 
L 387.315387 304.36516 
L 388.493642 304.36516 
L 388.773215 304.915667 
L 389.066758 304.36516 
L 389.594766 304.36516 
L 389.999563 305.466175 
L 390.13841 303.814652 
L 390.372106 304.36516 
L 390.670018 303.814652 
L 390.806296 305.466175 
L 390.970833 304.36516 
L 391.126332 304.36516 
L 391.22989 304.915667 
L 391.307175 307.117697 
L 391.321047 306.56719 
L 391.663883 307.117697 
L 392.510066 307.117697 
L 392.910345 308.218712 
L 393.075466 307.668205 
L 393.668252 307.668205 
L 393.829767 307.117697 
L 394.002391 307.668205 
L 394.191738 307.668205 
L 394.302975 307.117697 
L 394.641386 307.668205 
L 394.840192 307.668205 
L 394.970526 308.218712 
L 395.12993 307.668205 
L 395.301181 307.668205 
L 395.461668 307.117697 
L 395.561079 307.668205 
L 396.455061 307.668205 
L 396.678718 309.319727 
L 396.949131 308.76922 
L 397.172781 308.76922 
L 397.353843 308.218712 
L 397.436167 308.76922 
L 397.71663 308.218712 
L 397.82148 308.76922 
L 398.068556 308.76922 
L 398.165218 309.319727 
L 398.460487 308.76922 
L 399.068932 308.76922 
L 399.29451 309.319727 
L 399.670283 309.319727 
L 399.765031 309.870235 
L 399.925168 309.319727 
L 400.299515 310.420742 
L 400.410901 310.420742 
L 400.5761 310.97125 
L 400.728383 310.97125 
L 401.014917 311.521758 
L 403.345701 311.521758 
L 403.594009 312.072265 
L 403.826841 312.072265 
L 403.874245 310.97125 
L 403.932953 311.521758 
L 404.312817 311.521758 
L 404.399522 312.072265 
L 404.899346 312.072265 
L 405.138052 312.622773 
L 405.458653 312.622773 
L 405.469317 312.072265 
L 405.575894 312.622773 
L 405.673906 312.072265 
L 407.069942 312.072265 
L 407.331705 311.521758 
L 408.061905 312.072265 
L 409.576157 312.072265 
L 409.641679 312.622773 
L 411.23065 312.622773 
L 411.373781 313.17328 
L 412.843256 315.925818 
L 412.982528 315.925818 
L 413.127829 316.476325 
L 413.192536 315.925818 
L 413.505459 316.476325 
L 413.796184 317.026833 
L 414.143874 317.026833 
L 414.260634 317.577341 
L 414.700032 317.577341 
L 415.336448 317.026833 
L 415.36851 318.678356 
L 415.880707 318.678356 
L 416.039455 318.127848 
L 416.15476 318.678356 
L 417.331493 318.678356 
L 417.604661 318.127848 
L 418.866621 318.127848 
L 419.64586 318.678356 
L 421.219969 318.678356 
L 421.995087 319.228863 
L 422.098753 319.779371 
L 424.429898 319.779371 
L 424.648899 319.228863 
L 425.832324 319.228863 
L 426.696432 318.678356 
L 427.326119 318.678356 
L 427.638607 319.228863 
L 427.916036 320.329878 
L 428.081213 320.329878 
L 428.087659 319.779371 
L 429.940437 319.779371 
L 430.139287 320.329878 
L 434.819912 320.329878 
L 435.410086 320.880386 
L 435.637528 320.880386 
L 435.72631 321.430893 
L 436.015576 321.430893 
L 436.137055 320.880386 
L 436.325368 321.430893 
L 437.382691 321.430893 
L 437.85399 321.981401 
L 438.181373 323.082416 
L 441.048633 323.082416 
L 441.553297 322.531908 
L 441.699312 323.082416 
L 441.847021 322.531908 
L 442.013069 323.082416 
L 442.799464 323.082416 
L 443.162032 322.531908 
L 443.346016 323.082416 
L 443.853329 321.981401 
L 444.051051 323.082416 
L 445.278724 323.082416 
L 445.293248 323.632924 
L 447.238842 323.632924 
L 448.184813 324.183431 
L 448.468696 323.632924 
L 448.996135 323.632924 
L 449.123994 324.183431 
L 449.574662 322.531908 
L 449.872209 323.082416 
L 450.272224 322.531908 
L 450.568517 322.531908 
L 450.70308 323.082416 
L 451.519966 323.082416 
L 452.490566 322.531908 
L 452.636659 323.082416 
L 453.602457 323.082416 
L 453.916024 322.531908 
L 458.831606 323.082416 
L 459.199668 322.531908 
L 459.51776 323.082416 
L 459.802794 322.531908 
L 459.834684 323.082416 
L 460.082833 323.632924 
L 460.226544 323.632924 
L 460.358003 324.183431 
L 462.643426 324.183431 
L 462.692126 324.733939 
L 462.976206 324.733939 
L 463.734743 324.183431 
L 463.758873 324.733939 
L 464.050308 324.183431 
L 464.121142 325.284446 
L 464.308725 325.284446 
L 464.689289 325.834954 
L 465.327041 325.834954 
L 465.714289 325.284446 
L 466.149697 326.385461 
L 466.167555 326.935969 
L 466.590524 327.486476 
L 466.901612 326.935969 
L 467.33904 326.935969 
L 467.429973 327.486476 
L 468.425935 327.486476 
L 468.56314 326.935969 
L 468.731112 328.036984 
L 468.869557 328.036984 
L 469.132314 327.486476 
L 469.37128 328.036984 
L 469.904179 328.036984 
L 470.138872 329.137999 
L 471.812694 329.137999 
L 472.012806 329.688506 
L 472.135339 329.688506 
L 472.336966 329.137999 
L 472.388966 329.688506 
L 472.923056 329.688506 
L 473.030478 330.239014 
L 473.322237 330.239014 
L 473.40557 331.340029 
L 473.860775 331.340029 
L 474.031806 332.991552 
L 474.387927 332.991552 
L 474.596205 332.441044 
L 474.708726 332.991552 
L 474.860194 332.991552 
L 474.871762 334.643074 
L 475.155113 334.643074 
L 475.517461 334.092567 
L 475.681845 334.092567 
L 475.82227 334.643074 
L 476.171486 334.643074 
L 476.533358 334.092567 
L 476.570578 335.193582 
L 476.890986 335.193582 
L 476.950047 335.744089 
L 477.173299 336.294597 
L 477.763059 336.294597 
L 477.849742 337.395612 
L 478.102836 337.395612 
L 478.251219 337.94612 
L 478.393602 337.94612 
L 478.904198 338.496627 
L 479.104031 337.94612 
L 479.223035 330.239014 
L 479.352101 329.688506 
L 479.439513 331.890537 
L 480.069148 331.890537 
L 480.327941 331.340029 
L 480.516499 332.441044 
L 480.662377 332.441044 
L 481.03636 332.991552 
L 481.447693 332.991552 
L 481.635381 332.441044 
L 481.782334 332.991552 
L 482.77413 332.991552 
L 482.896251 333.542059 
L 483.348418 332.441044 
L 483.7161 332.991552 
L 483.926797 332.991552 
L 484.007721 333.542059 
L 484.193738 332.441044 
L 484.374558 333.542059 
L 485.124816 333.542059 
L 485.241104 332.991552 
L 485.508354 332.991552 
L 485.550394 333.542059 
L 485.852996 334.092567 
L 485.864806 333.542059 
L 486.433883 333.542059 
L 486.726785 334.092567 
L 488.246738 334.092567 
L 488.360707 334.643074 
L 488.662136 334.092567 
L 488.672201 334.643074 
L 489.105029 335.193582 
L 489.370976 335.193582 
L 489.677017 335.744089 
L 489.829825 336.294597 
L 489.946656 336.294597 
L 490.314293 335.193582 
L 490.386917 336.294597 
L 490.634131 335.744089 
L 490.842211 336.294597 
L 491.770863 336.294597 
L 491.874913 336.845105 
L 492.004592 336.294597 
L 492.45398 336.845105 
L 492.671045 336.294597 
L 492.891033 336.845105 
L 493.023206 336.294597 
L 493.331026 337.395612 
L 493.543707 336.845105 
L 494.271153 336.845105 
L 494.56056 337.395612 
L 494.983138 337.395612 
L 495.319349 336.294597 
L 495.408961 336.845105 
L 495.768197 336.845105 
L 495.859365 337.94612 
L 496.312441 336.845105 
L 496.470665 337.395612 
L 496.835718 336.845105 
L 497.10219 336.845105 
L 497.238707 337.395612 
L 497.429212 337.395612 
L 497.565018 334.092567 
L 497.992352 334.643074 
L 498.047714 333.542059 
L 498.201144 334.643074 
L 498.341807 334.092567 
L 498.426234 334.643074 
L 498.761161 334.092567 
L 499.163026 334.643074 
L 499.365453 334.643074 
L 499.643325 334.092567 
L 500.0383 334.092567 
L 500.443269 335.193582 
L 500.655399 334.643074 
L 501.084349 334.643074 
L 501.284941 334.092567 
L 501.314471 333.542059 
L 501.564361 334.643074 
L 501.696885 334.092567 
L 501.852764 334.643074 
L 502.084386 334.092567 
L 502.34654 334.092567 
L 502.514951 333.542059 
L 502.834339 333.542059 
L 503.166862 334.643074 
L 503.392496 334.092567 
L 503.667271 335.193582 
L 503.810369 335.193582 
L 503.900189 334.643074 
L 504.179647 334.643074 
L 504.203103 335.193582 
L 505.129518 335.193582 
L 505.281288 335.744089 
L 505.411284 335.744089 
L 505.611678 336.294597 
L 505.784522 335.744089 
L 505.916342 336.294597 
L 506.112866 335.744089 
L 506.223496 336.294597 
L 506.366284 335.744089 
L 506.412289 336.294597 
L 506.57036 337.395612 
L 506.763481 336.845105 
L 506.824259 336.294597 
L 507.027928 336.845105 
L 507.19437 336.294597 
L 507.394985 336.845105 
L 507.723741 336.845105 
L 507.815281 337.395612 
L 508.042396 336.845105 
L 508.63886 338.496627 
L 508.799309 338.496627 
L 508.965271 337.395612 
L 509.043732 337.94612 
L 509.278372 337.94612 
L 509.385128 337.395612 
L 509.576992 337.395612 
L 509.75167 337.94612 
L 509.976236 337.94612 
L 510.353256 339.597642 
L 510.55384 339.047135 
L 513.190557 339.047135 
L 513.313258 339.597642 
L 513.468858 339.597642 
L 513.593989 339.047135 
L 513.845048 339.597642 
L 514.470528 337.395612 
L 514.575162 338.496627 
L 515.236989 337.395612 
L 515.700338 337.395612 
L 516.334365 338.496627 
L 517.4552 337.94612 
L 517.739843 338.496627 
L 518.053425 337.94612 
L 518.277383 339.047135 
L 518.367207 337.94612 
L 518.662435 339.047135 
L 518.984098 337.94612 
L 519.090578 339.047135 
L 519.296845 339.047135 
L 519.410234 338.496627 
L 519.615757 339.047135 
L 519.739098 339.047135 
L 519.853986 338.496627 
L 519.993577 340.14815 
L 520.359669 339.047135 
L 520.702078 339.047135 
L 520.911301 339.597642 
L 521.306154 339.597642 
L 521.627265 339.047135 
L 521.81499 339.047135 
L 521.956903 340.14815 
L 522.133923 339.597642 
L 522.232755 340.14815 
L 522.471389 340.698657 
L 522.61771 340.698657 
L 522.873529 339.597642 
L 523.118153 341.249165 
L 523.425619 341.249165 
L 523.448956 342.35018 
L 523.470429 341.799672 
L 523.631232 341.249165 
L 523.800268 342.35018 
L 523.870775 341.249165 
L 524.125585 341.249165 
L 524.160305 341.799672 
L 524.447389 342.35018 
L 524.619206 342.35018 
L 524.699739 341.249165 
L 525.085007 342.35018 
L 525.1474 341.249165 
L 525.357245 342.35018 
L 525.518669 340.698657 
L 526.009383 341.799672 
L 526.379052 340.14815 
L 526.407637 340.698657 
L 526.64179 340.14815 
L 526.789823 340.14815 
L 526.943502 341.249165 
L 527.127029 340.14815 
L 527.47987 341.249165 
L 527.613737 340.14815 
L 527.758681 340.698657 
L 528.054047 340.698657 
L 528.249104 340.14815 
L 528.622495 340.14815 
L 528.633892 340.698657 
L 529.221564 339.597642 
L 529.533236 341.249165 
L 529.698651 341.249165 
L 529.891441 340.698657 
L 529.945936 341.799672 
L 530.219621 340.698657 
L 530.388143 341.799672 
L 530.558032 340.698657 
L 530.628241 341.249165 
L 530.976664 341.249165 
L 531.185467 341.799672 
L 531.280967 342.900688 
L 531.475384 341.799672 
L 531.795245 342.35018 
L 531.936738 342.900688 
L 532.111566 342.35018 
L 532.260834 344.55221 
L 532.495133 344.55221 
L 532.804981 345.102718 
L 532.842362 344.001703 
L 533.147316 345.102718 
L 533.581402 344.001703 
L 533.698694 345.653225 
L 534.050672 346.203733 
L 534.434035 345.102718 
L 534.677009 344.55221 
L 535.352418 345.102718 
L 535.433316 345.653225 
L 535.685998 345.653225 
L 536.1518 346.203733 
L 536.382573 346.203733 
L 536.670134 346.75424 
L 536.961008 348.405763 
L 537.707801 347.855255 
L 537.94836 347.855255 
L 538.281933 346.203733 
L 538.599024 346.203733 
L 538.68076 345.653225 
L 538.921673 346.75424 
L 538.975344 345.653225 
L 539.239017 346.203733 
L 539.717321 346.203733 
L 539.962771 347.304748 
L 540.188058 346.203733 
L 540.495755 347.304748 
L 540.615713 346.75424 
L 540.780048 347.304748 
L 541.209099 346.203733 
L 541.457079 346.75424 
L 542.182408 346.75424 
L 542.355535 346.203733 
L 542.77563 347.304748 
L 542.946386 346.203733 
L 543.09367 346.203733 
L 543.150941 346.75424 
L 543.359744 346.75424 
L 543.584942 347.304748 
L 543.739038 346.203733 
L 543.978294 347.304748 
L 544.083367 346.203733 
L 544.376753 347.304748 
L 544.557157 347.304748 
L 544.673574 346.75424 
L 544.864351 346.75424 
L 544.918261 346.203733 
L 544.929331 346.75424 
L 545.255016 346.75424 
L 545.365211 346.203733 
L 545.663968 347.304748 
L 545.939086 346.203733 
L 546.410571 346.75424 
L 547.41813 346.75424 
L 547.659757 346.203733 
L 547.916641 346.75424 
L 548.081996 346.203733 
L 548.18414 346.75424 
L 548.89972 346.75424 
L 549.118193 346.203733 
L 549.619819 347.304748 
L 549.741787 346.75424 
L 550.143019 347.304748 
L 550.581218 346.75424 
L 550.813953 347.304748 
L 551.361509 346.203733 
L 551.50518 345.653225 
L 551.743219 345.653225 
L 552.201688 347.304748 
L 552.326395 347.304748 
L 552.484712 346.203733 
L 552.856551 346.203733 
L 553.065112 346.75424 
L 553.223272 346.75424 
L 553.3868 346.203733 
L 553.695554 346.203733 
L 554.117142 346.75424 
L 554.351168 346.75424 
L 554.446974 347.304748 
L 554.671907 346.203733 
L 554.790417 347.304748 
L 554.937758 346.75424 
L 555.030812 347.304748 
L 555.621578 347.304748 
L 555.642961 348.405763 
L 555.73836 347.855255 
L 555.916843 347.855255 
L 556.023498 347.304748 
L 556.191262 347.855255 
L 556.376239 347.304748 
L 556.847952 347.855255 
L 557.248607 347.855255 
L 557.400782 348.95627 
L 557.460796 348.405763 
L 557.640102 348.95627 
L 557.880568 348.405763 
L 557.993141 347.855255 
L 558.160945 348.405763 
L 558.326427 347.855255 
L 558.52547 348.95627 
L 558.6098 347.855255 
L 558.788633 334.092567 
L 559.276908 334.092567 
L 559.41149 333.542059 
L 559.539405 335.744089 
L 560.252134 335.193582 
L 560.781694 335.193582 
L 560.88468 335.744089 
L 561.017117 335.744089 
L 561.432169 334.643074 
L 561.746123 334.643074 
L 561.759507 335.193582 
L 562.152547 335.744089 
L 562.430914 335.193582 
L 562.710551 334.092567 
L 562.746297 335.193582 
L 562.959935 334.092567 
L 563.043029 334.643074 
L 563.681243 334.643074 
L 563.715735 335.193582 
L 563.715735 335.193582 
" clip-path="url(#p9e5c535dea)" style="fill: none; stroke-dasharray: 3,1.5; stroke-dashoffset: 0; stroke: #808080; stroke-width: 1.5"/>
   </g>
   <g id="line2d_19">
    <path d="M 38.539265 298.309577 
L 39.853963 297.759069 
L 41.164417 296.658054 
L 44.267703 296.658054 
L 47.689446 296.107546 
L 47.943289 296.658054 
L 48.101602 296.658054 
L 48.20985 295.557039 
L 48.459684 296.107546 
L 48.829197 295.557039 
L 49.548637 295.557039 
L 49.949329 292.804501 
L 50.03871 295.557039 
L 50.24669 292.253994 
L 50.312831 292.804501 
L 50.54589 292.804501 
L 50.918696 292.253994 
L 51.529847 292.253994 
L 51.842737 290.051963 
L 52.329107 290.051963 
L 52.822812 291.152978 
L 53.136885 286.748918 
L 53.206409 287.299426 
L 53.501965 286.748918 
L 54.073685 285.097396 
L 54.461469 286.198411 
L 55.07441 286.198411 
L 55.416953 287.299426 
L 55.648516 286.748918 
L 56.346145 286.198411 
L 56.65919 286.198411 
L 56.999597 285.097396 
L 57.488043 285.097396 
L 57.993213 281.79435 
L 59.351228 280.142828 
L 59.536165 279.59232 
L 59.927891 279.59232 
L 60.174907 279.041813 
L 60.568479 279.041813 
L 60.858229 280.142828 
L 61.153379 280.693335 
L 61.482455 280.693335 
L 61.675164 280.142828 
L 64.025329 280.142828 
L 64.400979 279.59232 
L 65.008992 279.59232 
L 65.345464 279.041813 
L 65.667893 279.041813 
L 65.793088 279.59232 
L 66.589406 279.041813 
L 66.923158 279.59232 
L 67.843342 279.59232 
L 68.138775 279.041813 
L 68.501994 279.59232 
L 70.176825 279.59232 
L 70.519974 279.041813 
L 70.708328 277.39029 
L 71.16676 278.491305 
L 71.812388 278.491305 
L 72.114037 277.39029 
L 72.23274 278.491305 
L 72.761619 276.839782 
L 73.081406 276.839782 
L 73.391987 276.289275 
L 73.738647 276.289275 
L 74.056937 276.839782 
L 74.361079 275.738767 
L 74.631098 275.738767 
L 75.365218 274.637752 
L 79.219566 274.637752 
L 79.52596 273.536737 
L 80.178965 273.536737 
L 80.4688 270.784199 
L 81.4409 270.784199 
L 82.371416 268.582169 
L 83.360462 268.582169 
L 83.714707 268.031662 
L 89.690214 268.031662 
L 90.407603 266.380139 
L 90.570115 268.031662 
L 91.720827 268.031662 
L 92.033307 266.930647 
L 92.378064 268.031662 
L 93.198331 268.031662 
L 93.651407 266.930647 
L 93.987756 268.031662 
L 99.067458 268.031662 
L 99.345051 263.077094 
L 99.537511 268.031662 
L 101.3784 268.031662 
L 101.712583 267.481154 
L 101.90333 262.526586 
L 102.353916 267.481154 
L 102.672154 267.481154 
L 102.883406 268.031662 
L 106.21649 268.031662 
L 106.385281 267.481154 
L 106.688187 267.481154 
L 107.187041 265.829632 
L 112.214969 265.829632 
L 113.312297 265.279124 
L 120.065363 265.279124 
L 120.346567 262.526586 
L 120.705892 262.526586 
L 121.024525 265.279124 
L 121.352347 265.279124 
L 121.578234 262.526586 
L 121.823051 265.279124 
L 122.229899 262.526586 
L 122.590285 261.425571 
L 126.769106 261.425571 
L 127.12979 260.875064 
L 128.712199 260.875064 
L 129.037497 259.774049 
L 129.430816 257.572018 
L 129.711778 257.021511 
L 130.029353 253.718466 
L 130.421421 253.718466 
L 130.947118 252.61745 
L 131.30992 252.61745 
L 131.936558 251.516435 
L 134.566661 246.561868 
L 134.835214 247.662883 
L 136.71568 247.662883 
L 137.082546 245.460852 
L 137.406058 246.01136 
L 138.701186 246.01136 
L 138.937982 247.112375 
L 139.354485 246.01136 
L 140.295088 246.01136 
L 140.615202 244.910345 
L 140.923979 244.910345 
L 141.289673 244.359837 
L 141.43724 244.359837 
L 141.602164 242.708315 
L 141.825731 242.708315 
L 142.576697 242.157807 
L 143.197194 243.80933 
L 143.348923 243.80933 
L 143.835341 243.258822 
L 144.14743 242.157807 
L 145.760252 242.157807 
L 146.071649 241.6073 
L 146.406044 241.6073 
L 146.715636 241.056792 
L 147.005653 241.056792 
L 147.679554 240.506285 
L 148.027594 240.506285 
L 148.374659 238.854762 
L 148.940576 238.854762 
L 149.294244 238.304254 
L 149.514005 238.304254 
L 149.636694 248.21339 
L 149.729604 247.662883 
L 150.261445 247.662883 
L 150.576546 246.561868 
L 150.997367 246.561868 
L 151.214131 246.01136 
L 151.690808 246.01136 
L 151.738242 245.460852 
L 152.489159 245.460852 
L 152.892326 243.80933 
L 153.730168 242.157807 
L 155.091994 242.157807 
L 155.386422 241.056792 
L 155.497287 241.6073 
L 155.625671 241.6073 
L 155.981699 242.157807 
L 157.277381 241.6073 
L 160.519018 241.6073 
L 160.894643 242.157807 
L 162.463582 242.157807 
L 162.686878 242.708315 
L 163.095904 242.157807 
L 165.625002 242.157807 
L 166.137441 241.6073 
L 166.532096 241.6073 
L 166.960554 241.056792 
L 167.176142 241.6073 
L 169.241538 241.6073 
L 169.893363 240.506285 
L 171.280592 240.506285 
L 171.51415 232.799179 
L 171.777443 232.799179 
L 174.021255 231.147656 
L 174.159137 231.698164 
L 174.302983 231.147656 
L 174.676355 231.698164 
L 174.989546 231.698164 
L 175.319181 231.147656 
L 175.566719 231.147656 
L 175.964132 230.046641 
L 176.127574 230.046641 
L 176.278834 230.597149 
L 176.617863 229.496134 
L 178.871873 229.496134 
L 179.091153 228.945626 
L 179.456739 228.945626 
L 179.796025 228.395119 
L 180.148263 228.945626 
L 180.303688 228.945626 
L 180.786463 229.496134 
L 181.148166 226.743596 
L 181.405668 228.395119 
L 181.741507 228.395119 
L 182.010696 225.092073 
L 182.199043 225.642581 
L 182.399545 224.541566 
L 182.500531 225.092073 
L 182.624133 223.440551 
L 182.944574 223.440551 
L 183.350581 222.890043 
L 184.145772 223.440551 
L 184.326838 222.339536 
L 184.622751 222.339536 
L 184.832306 223.991058 
L 185.543635 222.339536 
L 186.250941 221.789028 
L 186.87212 221.789028 
L 187.197984 220.137505 
L 187.497511 220.137505 
L 187.674933 220.688013 
L 187.986334 220.688013 
L 189.190725 217.384968 
L 189.391589 219.586998 
L 189.77823 220.137505 
L 190.231716 217.384968 
L 191.450661 217.384968 
L 191.555012 216.83446 
L 192.040711 216.283953 
L 193.33547 216.283953 
L 193.928123 213.531415 
L 197.258538 213.531415 
L 197.521522 212.4304 
L 197.867404 214.63243 
L 198.06877 212.980907 
L 201.699595 212.980907 
L 202.002955 212.4304 
L 202.734518 209.127355 
L 203.008977 210.778877 
L 203.336059 210.22837 
L 203.698232 210.778877 
L 203.953094 210.778877 
L 204.339271 205.273802 
L 204.546342 205.273802 
L 204.586533 204.723294 
L 205.238146 204.723294 
L 205.604908 203.622279 
L 205.92826 201.970757 
L 206.900966 201.420249 
L 206.962514 201.970757 
L 207.490649 202.521264 
L 207.569091 201.970757 
L 210.113888 201.970757 
L 210.29096 201.420249 
L 210.765874 200.869741 
L 211.400045 199.768726 
L 211.564991 198.667711 
L 211.787885 198.667711 
L 212.037582 197.566696 
L 212.338218 198.117204 
L 212.674847 198.117204 
L 212.928496 198.667711 
L 213.28608 198.117204 
L 213.605163 198.117204 
L 213.910984 197.566696 
L 214.158548 197.566696 
L 214.624554 198.117204 
L 214.866818 197.566696 
L 215.11756 198.117204 
L 215.540547 200.869741 
L 215.845702 201.420249 
L 216.546123 200.319234 
L 216.648527 196.465681 
L 216.804655 196.465681 
L 217.090333 195.915174 
L 217.422223 196.465681 
L 217.725238 196.465681 
L 218.09851 197.016189 
L 218.421821 195.915174 
L 219.588687 195.915174 
L 220.052419 195.364666 
L 220.317436 195.364666 
L 220.338 194.814158 
L 221.660213 194.814158 
L 222.036641 193.713143 
L 223.886661 193.713143 
L 224.255455 192.612128 
L 227.799106 192.612128 
L 228.01134 192.061621 
L 228.583741 192.061621 
L 229.065384 191.511113 
L 229.388021 190.410098 
L 229.484496 190.960606 
L 229.835179 189.859591 
L 230.615303 189.859591 
L 233.774937 188.758576 
L 241.585014 188.758576 
L 241.903144 189.309083 
L 243.430094 189.309083 
L 243.746601 188.758576 
L 244.795457 188.758576 
L 245.157458 188.208068 
L 245.417759 188.758576 
L 245.719854 188.208068 
L 246.054116 188.758576 
L 246.328459 187.65756 
L 246.748636 188.208068 
L 247.055221 187.65756 
L 253.719453 187.65756 
L 254.063701 188.758576 
L 254.428394 188.208068 
L 254.758222 188.758576 
L 255.127664 188.208068 
L 255.423945 188.758576 
L 256.660469 188.758576 
L 256.974445 188.208068 
L 257.329096 188.758576 
L 257.652202 187.65756 
L 258.29288 187.65756 
L 258.65435 188.208068 
L 258.924841 187.107053 
L 259.2728 187.107053 
L 259.541627 187.65756 
L 260.390103 186.556545 
L 260.886466 187.107053 
L 261.181367 186.556545 
L 261.808769 186.556545 
L 262.162872 187.107053 
L 262.510581 185.45553 
L 262.845248 186.006038 
L 263.487753 186.006038 
L 263.732671 186.556545 
L 264.045903 186.006038 
L 264.387738 186.006038 
L 264.6928 190.410098 
L 264.813997 189.859591 
L 265.053726 189.859591 
L 265.220726 189.309083 
L 265.366273 189.309083 
L 265.557898 188.758576 
L 265.68776 189.859591 
L 266.328877 188.758576 
L 266.879709 188.758576 
L 267.147584 187.65756 
L 267.413066 188.758576 
L 267.58591 188.208068 
L 268.560413 188.208068 
L 268.85052 188.758576 
L 269.125649 188.758576 
L 269.471378 188.208068 
L 269.791071 188.208068 
L 270.170042 188.758576 
L 270.535754 188.208068 
L 270.819511 188.208068 
L 271.266055 187.107053 
L 273.087635 187.107053 
L 273.387259 187.65756 
L 274.799035 187.65756 
L 275.123269 187.107053 
L 275.378318 186.556545 
L 275.877681 186.556545 
L 276.033475 185.45553 
L 276.104941 186.006038 
L 276.273911 185.45553 
L 276.749185 185.45553 
L 276.982173 184.354515 
L 277.61655 184.354515 
L 277.912668 183.2535 
L 278.891969 183.2535 
L 279.126822 181.601977 
L 279.343534 181.05147 
L 279.468598 181.05147 
L 279.890473 180.500962 
L 280.038956 181.05147 
L 280.110914 180.500962 
L 280.26316 180.500962 
L 280.441386 179.950455 
L 280.574769 179.950455 
L 281.119526 179.399947 
L 282.34168 179.399947 
L 282.65688 179.950455 
L 282.958898 179.399947 
L 283.299349 179.399947 
L 283.462511 178.84944 
L 283.501757 179.399947 
L 283.695414 178.84944 
L 283.846879 178.84944 
L 283.996456 177.748425 
L 284.572423 176.64741 
L 284.991829 177.197917 
L 285.3107 176.64741 
L 285.937569 176.64741 
L 286.277801 175.546394 
L 286.402355 176.096902 
L 286.6047 174.445379 
L 286.891427 174.995887 
L 287.077384 174.445379 
L 287.224419 174.995887 
L 287.386901 173.894872 
L 287.718076 173.894872 
L 287.816163 173.344364 
L 288.204707 173.894872 
L 288.505213 172.793857 
L 289.183197 172.793857 
L 289.427258 171.692842 
L 289.773437 172.793857 
L 290.008622 172.793857 
L 290.094846 172.243349 
L 290.727593 172.243349 
L 291.023569 170.041319 
L 291.449229 172.243349 
L 291.515224 171.692842 
L 292.075692 172.243349 
L 292.128765 171.142334 
L 292.321533 171.142334 
L 292.709972 170.591827 
L 293.02521 171.142334 
L 293.263364 171.142334 
L 293.615785 170.041319 
L 293.999192 170.041319 
L 294.371002 170.591827 
L 294.648881 170.041319 
L 294.817724 170.591827 
L 294.985655 169.490812 
L 296.473677 169.490812 
L 296.931019 168.940304 
L 297.8648 168.940304 
L 298.19612 170.041319 
L 298.820567 170.041319 
L 299.133099 169.490812 
L 301.976273 169.490812 
L 302.359978 170.041319 
L 302.719653 168.940304 
L 307.083001 168.940304 
L 308.040201 168.389796 
L 308.608724 168.389796 
L 309.070442 167.839289 
L 309.435325 167.839289 
L 309.64974 166.738274 
L 309.989681 167.288781 
L 314.506582 167.288781 
L 314.901062 167.839289 
L 315.213813 167.288781 
L 315.522787 167.839289 
L 315.732621 170.041319 
L 317.651353 170.041319 
L 317.967789 168.940304 
L 318.411918 170.041319 
L 320.250291 170.041319 
L 320.525826 168.940304 
L 320.629958 170.041319 
L 321.101916 170.041319 
L 321.320075 168.940304 
L 321.595074 170.041319 
L 321.800389 168.940304 
L 321.946115 168.940304 
L 322.134066 170.041319 
L 322.298446 168.940304 
L 322.403787 170.041319 
L 322.446215 168.940304 
L 323.57675 168.940304 
L 323.94684 167.288781 
L 324.358222 167.288781 
L 324.392152 166.738274 
L 324.723856 166.738274 
L 324.895613 166.187766 
L 325.042053 166.738274 
L 325.221958 166.187766 
L 325.34362 166.738274 
L 325.628962 166.187766 
L 325.749638 166.738274 
L 325.766186 166.187766 
L 326.127879 166.187766 
L 326.354503 165.637259 
L 326.497436 165.637259 
L 326.711483 164.536244 
L 326.948986 163.985736 
L 327.113017 164.536244 
L 328.940012 164.536244 
L 329.201239 163.985736 
L 330.601429 163.985736 
L 330.824784 163.435229 
L 331.12002 163.435229 
L 331.339099 162.884721 
L 331.45985 163.435229 
L 332.039162 163.435229 
L 332.234662 162.334213 
L 332.766783 162.334213 
L 332.817883 161.783706 
L 332.892134 162.334213 
L 333.187388 162.334213 
L 333.213089 161.783706 
L 333.427709 161.233198 
L 333.487693 161.783706 
L 333.730977 159.581676 
L 334.716275 159.581676 
L 334.815329 159.031168 
L 335.031181 159.031168 
L 335.157626 157.930153 
L 335.306024 159.031168 
L 336.614045 159.031168 
L 336.689732 158.480661 
L 336.940623 159.031168 
L 337.060749 158.480661 
L 337.282846 159.031168 
L 337.571341 159.031168 
L 337.748257 157.930153 
L 338.070753 157.930153 
L 338.203038 158.480661 
L 338.316378 157.379646 
L 338.651104 159.031168 
L 339.001873 157.930153 
L 339.255972 159.031168 
L 339.850799 159.031168 
L 340.313723 157.379646 
L 340.45777 157.930153 
L 340.617293 157.379646 
L 341.047735 158.480661 
L 341.185566 157.379646 
L 342.207097 157.379646 
L 342.371757 156.829138 
L 342.6587 156.829138 
L 342.811664 157.379646 
L 343.004719 156.829138 
L 343.12679 157.379646 
L 343.498655 156.27863 
L 344.006356 156.27863 
L 344.36442 155.177615 
L 344.986465 156.27863 
L 345.119402 155.728123 
L 345.282944 156.27863 
L 345.386655 155.728123 
L 345.594728 155.728123 
L 345.681932 156.27863 
L 346.084831 155.177615 
L 346.292238 155.728123 
L 346.394858 155.177615 
L 346.606318 155.728123 
L 346.887161 155.728123 
L 347.068305 155.177615 
L 347.18741 155.728123 
L 347.304788 155.728123 
L 347.5666 156.27863 
L 347.683885 155.177615 
L 348.215518 155.177615 
L 348.251354 154.0766 
L 350.525121 154.0766 
L 350.749433 153.526093 
L 350.896665 154.0766 
L 351.021402 153.526093 
L 351.11615 154.0766 
L 351.229803 152.975585 
L 351.753449 152.975585 
L 352.000462 152.425078 
L 352.050523 152.975585 
L 352.101813 152.425078 
L 352.383883 152.975585 
L 352.456783 152.425078 
L 352.732631 151.87457 
L 352.840674 151.324063 
L 353.046935 151.324063 
L 353.094361 150.773555 
L 353.381542 149.122032 
L 353.510801 149.67254 
L 353.685256 149.67254 
L 353.716685 148.571525 
L 354.942389 148.571525 
L 355.094628 148.021017 
L 355.334752 148.571525 
L 356.043841 146.920002 
L 356.267498 146.920002 
L 356.400594 146.369495 
L 356.710603 146.369495 
L 356.718203 145.818987 
L 356.813766 146.369495 
L 356.905373 145.26848 
L 357.04077 145.26848 
L 357.228193 144.717972 
L 358.513889 144.717972 
L 358.547819 145.26848 
L 358.628758 144.167465 
L 358.967821 144.167465 
L 359.140981 144.717972 
L 359.274275 144.167465 
L 359.474956 144.717972 
L 359.625315 144.167465 
L 359.794247 144.167465 
L 359.939406 144.717972 
L 360.083338 143.066449 
L 361.806347 143.066449 
L 362.324491 141.965434 
L 362.597235 142.515942 
L 369.106002 142.515942 
L 369.216509 141.965434 
L 369.41416 142.515942 
L 369.471126 141.965434 
L 370.061724 141.965434 
L 370.225263 141.414927 
L 371.054168 141.414927 
L 371.164921 140.864419 
L 371.321034 141.414927 
L 372.590792 141.414927 
L 372.766916 140.864419 
L 372.988712 141.414927 
L 373.111178 141.414927 
L 373.306343 140.313912 
L 373.413705 140.864419 
L 373.889571 140.864419 
L 374.096915 140.313912 
L 375.072889 140.313912 
L 375.231872 141.414927 
L 375.554014 140.313912 
L 377.287307 140.313912 
L 377.46502 139.763404 
L 377.623783 139.763404 
L 377.794766 139.212897 
L 377.922566 139.212897 
L 378.080764 138.662389 
L 378.450901 138.662389 
L 378.516473 138.111882 
L 378.825037 138.111882 
L 379.019945 139.212897 
L 379.172139 138.662389 
L 379.405105 138.662389 
L 379.500099 138.111882 
L 379.856499 138.111882 
L 380.175265 137.561374 
L 380.522863 135.909851 
L 380.636668 136.460359 
L 380.742634 135.909851 
L 380.985858 135.359344 
L 381.101193 135.909851 
L 381.410773 135.359344 
L 381.615515 135.909851 
L 381.782731 135.909851 
L 382.110326 134.258329 
L 382.426052 134.808836 
L 382.753025 133.707821 
L 382.817231 134.258329 
L 383.029744 133.707821 
L 383.176898 134.258329 
L 383.298214 133.707821 
L 383.822106 133.707821 
L 384.017167 137.010866 
L 384.538125 135.909851 
L 384.882098 135.909851 
L 385.002412 135.359344 
L 385.189813 135.909851 
L 385.310102 135.909851 
L 385.452436 136.460359 
L 385.616094 135.909851 
L 385.840898 135.909851 
L 385.951509 136.460359 
L 386.092042 135.909851 
L 386.283709 136.460359 
L 386.359043 135.909851 
L 386.757431 135.359344 
L 386.910496 135.359344 
L 387.050177 135.909851 
L 387.315387 135.359344 
L 388.398269 135.359344 
L 388.493642 132.606806 
L 388.773215 134.808836 
L 389.066758 135.359344 
L 389.594766 135.359344 
L 389.999563 134.258329 
L 390.13841 135.909851 
L 390.372106 135.359344 
L 390.670018 135.909851 
L 390.806296 134.258329 
L 390.970833 135.359344 
L 391.126332 135.359344 
L 391.22989 134.808836 
L 391.321047 130.404776 
L 391.637621 132.606806 
L 391.663883 129.854268 
L 392.510066 129.854268 
L 392.910345 128.753253 
L 393.075466 129.303761 
L 393.668252 129.303761 
L 393.829767 129.854268 
L 394.002391 129.303761 
L 394.191738 129.303761 
L 394.302975 129.854268 
L 394.641386 129.303761 
L 394.840192 129.303761 
L 394.970526 128.753253 
L 395.12993 129.303761 
L 395.301181 129.303761 
L 395.461668 129.854268 
L 395.561079 129.303761 
L 396.455061 129.303761 
L 396.678718 127.652238 
L 396.949131 128.202746 
L 397.172781 128.202746 
L 397.353843 128.753253 
L 397.436167 128.202746 
L 397.71663 128.753253 
L 397.82148 128.202746 
L 398.068556 128.202746 
L 398.165218 127.652238 
L 398.460487 128.202746 
L 399.068932 128.202746 
L 399.29451 127.652238 
L 399.670283 127.652238 
L 399.765031 127.101731 
L 399.925168 127.652238 
L 400.299515 126.551223 
L 400.410901 126.551223 
L 400.5761 126.000716 
L 400.728383 126.000716 
L 401.014917 125.450208 
L 403.345701 125.450208 
L 403.594009 124.899701 
L 403.826841 124.899701 
L 403.874245 126.000716 
L 403.932953 125.450208 
L 404.312817 125.450208 
L 404.399522 124.899701 
L 404.899346 124.899701 
L 405.138052 124.349193 
L 405.458653 124.349193 
L 405.469317 124.899701 
L 405.575894 124.349193 
L 405.673906 124.899701 
L 407.069942 124.899701 
L 407.331705 125.450208 
L 408.061905 124.899701 
L 409.576157 124.899701 
L 409.641679 124.349193 
L 411.23065 124.349193 
L 411.373781 123.798685 
L 412.843256 121.046148 
L 412.982528 121.046148 
L 413.127829 120.49564 
L 413.192536 121.046148 
L 413.505459 120.49564 
L 413.796184 119.945133 
L 414.143874 119.945133 
L 414.260634 119.394625 
L 414.700032 119.394625 
L 415.336448 119.945133 
L 415.36851 118.29361 
L 415.880707 118.29361 
L 416.039455 118.844118 
L 416.15476 118.29361 
L 417.013512 118.29361 
L 417.331493 118.844118 
L 418.866621 118.844118 
L 419.64586 118.29361 
L 421.219969 118.29361 
L 421.995087 117.743102 
L 422.098753 117.192595 
L 424.429898 117.192595 
L 424.648899 117.743102 
L 425.832324 117.743102 
L 426.696432 118.29361 
L 427.326119 118.29361 
L 427.638607 117.743102 
L 427.916036 116.642087 
L 428.081213 116.642087 
L 428.087659 117.192595 
L 429.940437 117.192595 
L 430.139287 116.642087 
L 434.819912 116.642087 
L 435.410086 116.09158 
L 435.637528 116.09158 
L 435.72631 114.990565 
L 436.015576 114.990565 
L 436.137055 115.541072 
L 436.325368 114.990565 
L 437.382691 114.990565 
L 437.85399 114.440057 
L 438.181373 113.339042 
L 441.048633 113.339042 
L 441.553297 113.88955 
L 441.699312 113.339042 
L 441.847021 113.88955 
L 442.013069 113.339042 
L 442.799464 113.339042 
L 443.162032 113.88955 
L 443.346016 113.339042 
L 443.853329 114.440057 
L 444.051051 113.339042 
L 445.278724 113.339042 
L 445.293248 112.788535 
L 447.238842 112.788535 
L 448.184813 112.238027 
L 448.468696 112.788535 
L 448.675437 112.238027 
L 448.809233 112.788535 
L 448.996135 112.788535 
L 449.123994 112.238027 
L 449.574662 113.339042 
L 449.872209 112.788535 
L 450.272224 113.339042 
L 450.568517 113.339042 
L 450.70308 112.788535 
L 451.519966 112.788535 
L 452.490566 113.339042 
L 452.636659 112.788535 
L 453.602457 112.788535 
L 453.916024 113.339042 
L 458.831606 112.788535 
L 459.199668 113.339042 
L 459.51776 112.788535 
L 459.802794 113.339042 
L 459.834684 112.788535 
L 460.082833 112.238027 
L 460.226544 112.238027 
L 460.358003 111.68752 
L 462.643426 111.68752 
L 462.692126 111.137012 
L 462.976206 111.137012 
L 463.734743 111.68752 
L 463.758873 111.137012 
L 464.050308 111.68752 
L 464.121142 110.586504 
L 464.308725 110.586504 
L 464.689289 110.035997 
L 465.327041 110.035997 
L 465.714289 110.586504 
L 466.149697 109.485489 
L 466.167555 108.934982 
L 466.590524 108.384474 
L 466.901612 108.934982 
L 467.33904 108.934982 
L 467.429973 108.384474 
L 468.425935 108.384474 
L 468.56314 108.934982 
L 468.731112 107.833967 
L 468.869557 107.833967 
L 469.132314 108.384474 
L 469.37128 107.833967 
L 469.904179 107.833967 
L 470.138872 106.182444 
L 471.812694 106.182444 
L 472.012806 105.631937 
L 472.135339 105.631937 
L 472.336966 106.182444 
L 472.388966 105.631937 
L 472.923056 105.631937 
L 473.030478 105.081429 
L 473.322237 104.530921 
L 473.40557 103.429906 
L 473.860775 103.429906 
L 474.031806 101.778384 
L 474.387927 101.778384 
L 474.596205 102.328891 
L 474.708726 101.778384 
L 474.860194 101.778384 
L 474.871762 100.126861 
L 475.681845 100.126861 
L 475.82227 99.576354 
L 476.171486 99.576354 
L 476.533358 100.126861 
L 476.570578 99.025846 
L 476.890986 99.025846 
L 476.950047 98.475338 
L 477.173299 97.924831 
L 477.763059 97.924831 
L 477.849742 96.823816 
L 478.102836 96.823816 
L 478.251219 96.273308 
L 478.393602 96.273308 
L 478.904198 95.722801 
L 479.104031 96.273308 
L 479.223035 102.328891 
L 479.352101 102.879399 
L 479.439513 100.677369 
L 480.069148 100.677369 
L 480.327941 101.227876 
L 480.516499 100.126861 
L 481.447693 100.126861 
L 481.635381 100.677369 
L 481.782334 100.126861 
L 482.77413 100.126861 
L 482.896251 99.576354 
L 483.348418 100.677369 
L 483.7161 100.126861 
L 483.926797 100.126861 
L 484.007721 99.576354 
L 484.193738 100.677369 
L 484.374558 99.576354 
L 485.124816 99.576354 
L 485.241104 100.126861 
L 485.508354 100.126861 
L 485.550394 99.576354 
L 485.852996 99.025846 
L 485.864806 99.576354 
L 486.10861 99.025846 
L 486.433883 99.025846 
L 486.726785 98.475338 
L 488.246738 98.475338 
L 488.360707 97.924831 
L 488.662136 98.475338 
L 488.672201 97.924831 
L 489.105029 97.374323 
L 489.370976 97.374323 
L 489.677017 96.823816 
L 489.829825 96.273308 
L 489.946656 96.273308 
L 490.314293 97.374323 
L 490.386917 96.273308 
L 490.634131 96.823816 
L 490.842211 96.273308 
L 491.770863 96.273308 
L 491.874913 95.722801 
L 492.004592 96.273308 
L 492.45398 95.722801 
L 492.671045 96.273308 
L 492.891033 95.722801 
L 493.023206 96.273308 
L 493.331026 95.172293 
L 493.543707 95.722801 
L 494.271153 95.722801 
L 494.56056 95.172293 
L 494.983138 95.172293 
L 495.319349 96.273308 
L 495.408961 95.722801 
L 495.768197 95.722801 
L 495.859365 94.621786 
L 496.312441 95.722801 
L 496.470665 95.172293 
L 496.835718 95.722801 
L 497.10219 95.722801 
L 497.238707 95.172293 
L 497.565018 95.172293 
L 497.992352 94.621786 
L 498.047714 95.722801 
L 498.201144 94.621786 
L 498.341807 95.172293 
L 498.426234 94.621786 
L 498.761161 95.172293 
L 499.163026 94.621786 
L 499.365453 94.621786 
L 499.643325 95.172293 
L 500.0383 95.172293 
L 500.443269 94.071278 
L 500.655399 94.621786 
L 501.084349 94.621786 
L 501.284941 95.172293 
L 501.314471 95.722801 
L 501.564361 94.621786 
L 501.696885 95.172293 
L 501.852764 94.621786 
L 502.084386 95.172293 
L 502.34654 95.172293 
L 502.514951 95.722801 
L 502.834339 95.722801 
L 503.166862 94.621786 
L 503.392496 95.172293 
L 503.667271 94.071278 
L 503.810369 94.071278 
L 503.900189 94.621786 
L 504.179647 94.621786 
L 504.203103 94.071278 
L 505.129518 94.071278 
L 505.281288 93.520771 
L 505.411284 93.520771 
L 505.611678 92.970263 
L 505.784522 93.520771 
L 505.916342 92.970263 
L 506.112866 92.970263 
L 506.223496 92.419756 
L 506.366284 92.970263 
L 506.412289 92.419756 
L 506.57036 91.31874 
L 506.763481 91.869248 
L 506.824259 92.419756 
L 507.027928 91.869248 
L 507.19437 92.419756 
L 507.394985 91.869248 
L 507.723741 91.869248 
L 507.815281 91.31874 
L 508.042396 91.869248 
L 508.63886 90.217725 
L 508.799309 90.217725 
L 508.965271 91.31874 
L 509.043732 90.768233 
L 509.278372 90.768233 
L 509.385128 91.31874 
L 509.576992 91.31874 
L 509.75167 90.768233 
L 509.976236 90.768233 
L 510.353256 89.11671 
L 510.55384 89.667218 
L 513.190557 89.667218 
L 513.313258 89.11671 
L 513.468858 89.11671 
L 513.593989 89.667218 
L 513.845048 89.11671 
L 514.470528 89.11671 
L 514.575162 88.015695 
L 515.236989 89.11671 
L 515.700338 89.11671 
L 516.334365 88.015695 
L 517.4552 88.566203 
L 517.739843 88.015695 
L 518.053425 88.566203 
L 518.277383 87.465188 
L 518.367207 88.566203 
L 518.662435 87.465188 
L 518.984098 88.566203 
L 519.090578 87.465188 
L 519.296845 87.465188 
L 519.410234 88.015695 
L 519.615757 87.465188 
L 519.739098 87.465188 
L 519.853986 88.015695 
L 519.993577 86.364173 
L 520.359669 87.465188 
L 520.702078 87.465188 
L 520.911301 86.91468 
L 521.306154 86.91468 
L 521.627265 87.465188 
L 521.81499 87.465188 
L 521.956903 86.364173 
L 522.133923 87.465188 
L 522.232755 86.91468 
L 522.471389 86.364173 
L 522.61771 86.364173 
L 522.873529 87.465188 
L 523.118153 85.813665 
L 523.425619 85.813665 
L 523.448956 84.71265 
L 523.470429 85.263157 
L 523.631232 85.813665 
L 523.800268 84.71265 
L 523.870775 85.813665 
L 524.125585 85.813665 
L 524.160305 85.263157 
L 524.447389 84.71265 
L 524.619206 84.71265 
L 524.699739 85.813665 
L 525.085007 84.71265 
L 525.1474 85.813665 
L 525.357245 84.71265 
L 525.518669 86.364173 
L 526.009383 85.263157 
L 526.379052 86.91468 
L 526.407637 86.364173 
L 526.64179 86.91468 
L 526.789823 86.91468 
L 526.943502 85.813665 
L 527.127029 86.91468 
L 527.47987 85.813665 
L 527.613737 86.91468 
L 527.758681 86.364173 
L 528.054047 86.364173 
L 528.249104 86.91468 
L 528.622495 86.91468 
L 528.633892 86.364173 
L 529.221564 87.465188 
L 529.533236 85.813665 
L 529.698651 85.813665 
L 529.891441 86.364173 
L 529.945936 85.263157 
L 530.219621 86.364173 
L 530.388143 85.263157 
L 530.558032 86.364173 
L 530.628241 85.813665 
L 530.976664 85.813665 
L 531.185467 85.263157 
L 531.280967 84.162142 
L 531.475384 85.263157 
L 531.795245 84.71265 
L 531.936738 84.162142 
L 532.111566 84.71265 
L 532.260834 82.51062 
L 532.495133 82.51062 
L 532.804981 81.960112 
L 532.842362 83.061127 
L 533.147316 81.960112 
L 533.581402 83.061127 
L 533.698694 81.409605 
L 534.050672 80.859097 
L 534.434035 81.960112 
L 534.677009 82.51062 
L 535.352418 81.960112 
L 535.433316 81.409605 
L 536.382573 81.409605 
L 536.670134 80.859097 
L 536.961008 79.207574 
L 537.707801 79.758082 
L 538.281933 79.758082 
L 538.599024 79.207574 
L 538.68076 79.758082 
L 538.921673 78.657067 
L 538.975344 79.758082 
L 539.239017 79.207574 
L 539.717321 79.207574 
L 539.962771 78.106559 
L 540.188058 79.207574 
L 540.495755 78.106559 
L 540.615713 78.657067 
L 540.780048 78.106559 
L 541.209099 78.657067 
L 541.457079 78.106559 
L 542.182408 78.106559 
L 542.355535 78.657067 
L 542.77563 77.556052 
L 542.946386 78.657067 
L 543.09367 78.657067 
L 543.150941 78.106559 
L 543.359744 78.106559 
L 543.584942 77.556052 
L 543.739038 78.657067 
L 543.978294 77.556052 
L 544.083367 78.657067 
L 544.376753 77.556052 
L 544.557157 77.556052 
L 544.673574 78.106559 
L 544.864351 78.106559 
L 544.918261 78.657067 
L 544.929331 78.106559 
L 545.255016 78.106559 
L 545.365211 78.657067 
L 545.663968 77.556052 
L 545.939086 78.657067 
L 546.410571 78.106559 
L 547.41813 78.106559 
L 547.659757 78.657067 
L 547.916641 78.106559 
L 548.081996 78.657067 
L 548.18414 78.106559 
L 548.89972 78.106559 
L 549.118193 78.657067 
L 549.619819 77.556052 
L 549.741787 78.106559 
L 550.143019 77.556052 
L 550.581218 78.106559 
L 550.813953 77.556052 
L 551.361509 78.657067 
L 551.50518 79.207574 
L 551.743219 79.207574 
L 552.201688 77.556052 
L 552.326395 77.556052 
L 552.484712 78.657067 
L 552.856551 78.657067 
L 553.065112 78.106559 
L 553.223272 78.106559 
L 553.3868 78.657067 
L 553.695554 78.657067 
L 554.117142 78.106559 
L 554.351168 78.106559 
L 554.446974 77.556052 
L 554.671907 78.657067 
L 554.790417 77.556052 
L 554.937758 78.106559 
L 555.030812 77.556052 
L 555.621578 77.556052 
L 555.642961 76.455037 
L 555.73836 77.005544 
L 555.916843 77.005544 
L 556.023498 77.556052 
L 556.191262 77.005544 
L 556.376239 77.556052 
L 556.847952 77.005544 
L 557.248607 77.005544 
L 557.400782 75.904529 
L 557.460796 76.455037 
L 557.640102 75.904529 
L 557.880568 76.455037 
L 557.993141 77.005544 
L 558.160945 76.455037 
L 558.326427 77.005544 
L 558.52547 75.904529 
L 558.6098 77.005544 
L 558.788633 85.263157 
L 559.276908 85.263157 
L 559.41149 85.813665 
L 559.539405 83.611635 
L 560.252134 84.162142 
L 560.781694 84.162142 
L 560.88468 83.611635 
L 561.017117 83.611635 
L 561.432169 84.71265 
L 561.746123 84.71265 
L 561.759507 84.162142 
L 562.152547 83.611635 
L 562.430914 84.162142 
L 562.710551 85.263157 
L 562.746297 84.162142 
L 562.959935 85.263157 
L 563.043029 84.71265 
L 563.681243 84.71265 
L 563.715735 84.162142 
L 563.715735 84.162142 
" clip-path="url(#p9e5c535dea)" style="fill: none; stroke-dasharray: 6,1.5; stroke-dashoffset: 0; stroke: #008000; stroke-width: 1.5"/>
   </g>
   <g id="line2d_20">
    <path d="M 38.539265 362.168452 
L 39.853963 363.269467 
L 41.164417 363.269467 
L 42.431994 362.718959 
L 44.267703 362.718959 
L 48.101602 362.168452 
L 48.20985 362.718959 
L 51.529847 362.718959 
L 51.842737 363.819974 
L 52.53498 363.819974 
L 52.822812 360.516929 
L 53.206409 363.819974 
L 55.07441 363.819974 
L 55.416953 360.516929 
L 57.993213 360.516929 
L 59.351228 361.067436 
L 59.536165 361.617944 
L 60.568479 361.617944 
L 60.858229 359.966421 
L 64.025329 359.966421 
L 64.400979 360.516929 
L 74.056937 360.516929 
L 74.361079 359.966421 
L 80.178965 359.966421 
L 80.4688 362.168452 
L 128.712199 362.168452 
L 129.037497 363.269467 
L 129.430816 366.572512 
L 129.711778 366.572512 
L 130.029353 367.123019 
L 131.936558 367.123019 
L 134.566661 368.774542 
L 134.835214 368.774542 
L 135.285506 369.32505 
L 148.579863 369.32505 
L 149.294244 370.426065 
L 179.456739 370.426065 
L 179.796025 370.976572 
L 180.148263 370.426065 
L 182.199043 370.426065 
L 182.500531 370.976572 
L 187.986334 370.976572 
L 189.190725 372.077587 
L 189.391589 370.976572 
L 189.77823 370.976572 
L 190.096926 372.077587 
L 197.521522 372.077587 
L 197.867404 371.52708 
L 198.06877 372.077587 
L 215.540547 372.077587 
L 215.845702 373.178602 
L 254.758222 373.178602 
L 255.127664 373.72911 
L 344.36442 373.72911 
L 344.721285 373.178602 
L 355.334752 373.178602 
L 355.750689 373.72911 
L 355.861855 374.830125 
L 383.822106 374.830125 
L 384.017167 374.279617 
L 386.757431 374.279617 
L 386.910496 374.830125 
L 497.429212 374.830125 
L 497.565018 374.279617 
L 505.916342 374.279617 
L 506.223496 374.830125 
L 537.94836 374.830125 
L 538.281933 374.279617 
L 563.715735 374.279617 
L 563.715735 374.279617 
" clip-path="url(#p9e5c535dea)" style="fill: none; stroke-dasharray: 9,3; stroke-dashoffset: 0; stroke: #ffa500; stroke-width: 1.5"/>
   </g>
   <g id="line2d_21">
    <path d="M 38.539265 324.183431 
L 48.101602 324.183431 
L 48.20985 324.733939 
L 51.529847 324.733939 
L 51.842737 325.284446 
L 52.53498 325.284446 
L 52.822812 326.385461 
L 53.206409 325.284446 
L 55.07441 325.284446 
L 55.648516 326.935969 
L 56.999597 326.935969 
L 57.303989 327.486476 
L 57.488043 326.935969 
L 57.642002 327.486476 
L 71.812388 327.486476 
L 72.114037 328.587491 
L 72.23274 327.486476 
L 72.761619 328.587491 
L 89.690214 328.587491 
L 90.407603 329.137999 
L 90.570115 328.587491 
L 91.720827 328.587491 
L 92.033307 329.137999 
L 92.378064 328.587491 
L 93.198331 328.587491 
L 93.651407 329.137999 
L 93.987756 328.587491 
L 120.065363 328.587491 
L 120.346567 329.137999 
L 120.705892 329.137999 
L 121.024525 328.587491 
L 121.352347 328.587491 
L 121.578234 329.137999 
L 121.823051 328.587491 
L 122.229899 329.137999 
L 129.037497 329.137999 
L 129.430816 328.587491 
L 129.711778 328.587491 
L 130.029353 329.688506 
L 131.577345 329.688506 
L 131.936558 332.441044 
L 134.566661 330.239014 
L 134.835214 330.789522 
L 136.71568 330.789522 
L 137.082546 333.542059 
L 137.406058 334.092567 
L 151.979683 334.092567 
L 152.489159 333.542059 
L 152.892326 334.092567 
L 153.791567 333.542059 
L 155.981699 333.542059 
L 157.277381 334.092567 
L 162.686878 334.092567 
L 163.095904 334.643074 
L 197.258538 334.643074 
L 197.521522 335.193582 
L 197.867404 334.643074 
L 203.953094 334.643074 
L 204.339271 341.799672 
L 205.238146 341.799672 
L 205.604908 346.203733 
L 205.92826 347.855255 
L 225.5113 347.855255 
L 228.265626 348.405763 
L 257.329096 348.405763 
L 257.652202 350.607793 
L 264.387738 350.607793 
L 264.6928 347.304748 
L 280.26316 347.304748 
L 280.441386 347.855255 
L 309.435325 347.855255 
L 309.64974 348.405763 
L 309.989681 347.855255 
L 317.822548 347.855255 
L 317.967789 348.405763 
L 318.264134 347.855255 
L 320.250291 347.855255 
L 320.525826 348.405763 
L 320.629958 347.855255 
L 323.57675 347.855255 
L 323.782527 348.405763 
L 333.007004 348.405763 
L 333.187388 347.855255 
L 344.721285 347.855255 
L 344.986465 347.304748 
L 345.119402 347.855255 
L 345.282944 347.304748 
L 345.386655 347.855255 
L 345.594728 347.855255 
L 345.681932 347.304748 
L 345.91527 347.855255 
L 347.304788 347.855255 
L 347.5666 347.304748 
L 347.683885 347.855255 
L 355.750689 347.855255 
L 355.861855 347.304748 
L 383.822106 347.304748 
L 384.017167 347.855255 
L 388.398269 347.855255 
L 388.493642 350.607793 
L 388.773215 347.855255 
L 391.307175 347.855255 
L 391.321047 350.607793 
L 391.637621 347.855255 
L 391.663883 350.607793 
L 417.013512 350.607793 
L 417.331493 350.057286 
L 417.604661 350.607793 
L 448.468696 350.607793 
L 448.675437 351.158301 
L 448.809233 350.607793 
L 449.123994 350.607793 
L 449.574662 351.158301 
L 469.904179 351.158301 
L 470.138872 351.708808 
L 473.030478 351.708808 
L 473.322237 352.259316 
L 479.104031 352.259316 
L 479.223035 351.708808 
L 485.864806 351.708808 
L 486.10861 352.259316 
L 497.429212 352.259316 
L 497.565018 356.112869 
L 505.916342 356.112869 
L 506.223496 355.562361 
L 513.845048 355.562361 
L 514.575162 357.764391 
L 521.956903 357.764391 
L 522.232755 357.213884 
L 535.685998 357.213884 
L 536.1518 356.663376 
L 537.94836 356.663376 
L 538.281933 358.865406 
L 538.68076 359.415914 
L 540.780048 359.415914 
L 541.209099 359.966421 
L 558.6098 359.966421 
L 558.788633 356.663376 
L 563.715735 356.663376 
L 563.715735 356.663376 
" clip-path="url(#p9e5c535dea)" style="fill: none; stroke-dasharray: 12,4.5; stroke-dashoffset: 0; stroke: #ee82ee; stroke-width: 1.5"/>
   </g>
   <g id="patch_3">
    <path d="M 33.2875 374.830125 
L 33.2875 22.318125 
" style="fill: none; stroke: #000000; stroke-width: 0.8; stroke-linejoin: miter; stroke-linecap: square"/>
   </g>
   <g id="patch_4">
    <path d="M 568.9675 374.830125 
L 568.9675 22.318125 
" style="fill: none; stroke: #000000; stroke-width: 0.8; stroke-linejoin: miter; stroke-linecap: square"/>
   </g>
   <g id="patch_5">
    <path d="M 33.2875 374.830125 
L 568.9675 374.830125 
" style="fill: none; stroke: #000000; stroke-width: 0.8; stroke-linejoin: miter; stroke-linecap: square"/>
   </g>
   <g id="patch_6">
    <path d="M 33.2875 22.318125 
L 568.9675 22.318125 
" style="fill: none; stroke: #000000; stroke-width: 0.8; stroke-linejoin: miter; stroke-linecap: square"/>
   </g>
   <g id="text_17">
    <!-- Rust/Coreutils running GNU's testsuite -->
    <g transform="translate(186.090625 16.318125) scale(0.12 -0.12)">
     <defs>
      <path id="DejaVuSans-52" d="M 2841 2188 
Q 3044 2119 3236 1894 
Q 3428 1669 3622 1275 
L 4263 0 
L 3584 0 
L 2988 1197 
Q 2756 1666 2539 1819 
Q 2322 1972 1947 1972 
L 1259 1972 
L 1259 0 
L 628 0 
L 628 4666 
L 2053 4666 
Q 2853 4666 3247 4331 
Q 3641 3997 3641 3322 
Q 3641 2881 3436 2590 
Q 3231 2300 2841 2188 
z
M 1259 4147 
L 1259 2491 
L 2053 2491 
Q 2509 2491 2742 2702 
Q 2975 2913 2975 3322 
Q 2975 3731 2742 3939 
Q 2509 4147 2053 4147 
L 1259 4147 
z
" transform="scale(0.015625)"/>
      <path id="DejaVuSans-75" d="M 544 1381 
L 544 3500 
L 1119 3500 
L 1119 1403 
Q 1119 906 1312 657 
Q 1506 409 1894 409 
Q 2359 409 2629 706 
Q 2900 1003 2900 1516 
L 2900 3500 
L 3475 3500 
L 3475 0 
L 2900 0 
L 2900 538 
Q 2691 219 2414 64 
Q 2138 -91 1772 -91 
Q 1169 -91 856 284 
Q 544 659 544 1381 
z
M 1991 3584 
L 1991 3584 
z
" transform="scale(0.015625)"/>
      <path id="DejaVuSans-73" d="M 2834 3397 
L 2834 2853 
Q 2591 2978 2328 3040 
Q 2066 3103 1784 3103 
Q 1356 3103 1142 2972 
Q 928 2841 928 2578 
Q 928 2378 1081 2264 
Q 1234 2150 1697 2047 
L 1894 2003 
Q 2506 1872 2764 1633 
Q 3022 1394 3022 966 
Q 3022 478 2636 193 
Q 2250 -91 1575 -91 
Q 1294 -91 989 -36 
Q 684 19 347 128 
L 347 722 
Q 666 556 975 473 
Q 1284 391 1588 391 
Q 1994 391 2212 530 
Q 2431 669 2431 922 
Q 2431 1156 2273 1281 
Q 2116 1406 1581 1522 
L 1381 1569 
Q 847 1681 609 1914 
Q 372 2147 372 2553 
Q 372 3047 722 3315 
Q 1072 3584 1716 3584 
Q 2034 3584 2315 3537 
Q 2597 3491 2834 3397 
z
" transform="scale(0.015625)"/>
      <path id="DejaVuSans-74" d="M 1172 4494 
L 1172 3500 
L 2356 3500 
L 2356 3053 
L 1172 3053 
L 1172 1153 
Q 1172 725 1289 603 
Q 1406 481 1766 481 
L 2356 481 
L 2356 0 
L 1766 0 
Q 1100 0 847 248 
Q 594 497 594 1153 
L 594 3053 
L 172 3053 
L 172 3500 
L 594 3500 
L 594 4494 
L 1172 4494 
z
" transform="scale(0.015625)"/>
      <path id="DejaVuSans-2f" d="M 1625 4666 
L 2156 4666 
L 531 -594 
L 0 -594 
L 1625 4666 
z
" transform="scale(0.015625)"/>
      <path id="DejaVuSans-43" d="M 4122 4306 
L 4122 3641 
Q 3803 3938 3442 4084 
Q 3081 4231 2675 4231 
Q 1875 4231 1450 3742 
Q 1025 3253 1025 2328 
Q 1025 1406 1450 917 
Q 1875 428 2675 428 
Q 3081 428 3442 575 
Q 3803 722 4122 1019 
L 4122 359 
Q 3791 134 3420 21 
Q 3050 -91 2638 -91 
Q 1578 -91 968 557 
Q 359 1206 359 2328 
Q 359 3453 968 4101 
Q 1578 4750 2638 4750 
Q 3056 4750 3426 4639 
Q 3797 4528 4122 4306 
z
" transform="scale(0.015625)"/>
      <path id="DejaVuSans-6f" d="M 1959 3097 
Q 1497 3097 1228 2736 
Q 959 2375 959 1747 
Q 959 1119 1226 758 
Q 1494 397 1959 397 
Q 2419 397 2687 759 
Q 2956 1122 2956 1747 
Q 2956 2369 2687 2733 
Q 2419 3097 1959 3097 
z
M 1959 3584 
Q 2709 3584 3137 3096 
Q 3566 2609 3566 1747 
Q 3566 888 3137 398 
Q 2709 -91 1959 -91 
Q 1206 -91 779 398 
Q 353 888 353 1747 
Q 353 2609 779 3096 
Q 1206 3584 1959 3584 
z
" transform="scale(0.015625)"/>
      <path id="DejaVuSans-72" d="M 2631 2963 
Q 2534 3019 2420 3045 
Q 2306 3072 2169 3072 
Q 1681 3072 1420 2755 
Q 1159 2438 1159 1844 
L 1159 0 
L 581 0 
L 581 3500 
L 1159 3500 
L 1159 2956 
Q 1341 3275 1631 3429 
Q 1922 3584 2338 3584 
Q 2397 3584 2469 3576 
Q 2541 3569 2628 3553 
L 2631 2963 
z
" transform="scale(0.015625)"/>
      <path id="DejaVuSans-65" d="M 3597 1894 
L 3597 1613 
L 953 1613 
Q 991 1019 1311 708 
Q 1631 397 2203 397 
Q 2534 397 2845 478 
Q 3156 559 3463 722 
L 3463 178 
Q 3153 47 2828 -22 
Q 2503 -91 2169 -91 
Q 1331 -91 842 396 
Q 353 884 353 1716 
Q 353 2575 817 3079 
Q 1281 3584 2069 3584 
Q 2775 3584 3186 3129 
Q 3597 2675 3597 1894 
z
M 3022 2063 
Q 3016 2534 2758 2815 
Q 2500 3097 2075 3097 
Q 1594 3097 1305 2825 
Q 1016 2553 972 2059 
L 3022 2063 
z
" transform="scale(0.015625)"/>
      <path id="DejaVuSans-69" d="M 603 3500 
L 1178 3500 
L 1178 0 
L 603 0 
L 603 3500 
z
M 603 4863 
L 1178 4863 
L 1178 4134 
L 603 4134 
L 603 4863 
z
" transform="scale(0.015625)"/>
      <path id="DejaVuSans-6c" d="M 603 4863 
L 1178 4863 
L 1178 0 
L 603 0 
L 603 4863 
z
" transform="scale(0.015625)"/>
      <path id="DejaVuSans-20" transform="scale(0.015625)"/>
      <path id="DejaVuSans-6e" d="M 3513 2113 
L 3513 0 
L 2938 0 
L 2938 2094 
Q 2938 2591 2744 2837 
Q 2550 3084 2163 3084 
Q 1697 3084 1428 2787 
Q 1159 2491 1159 1978 
L 1159 0 
L 581 0 
L 581 3500 
L 1159 3500 
L 1159 2956 
Q 1366 3272 1645 3428 
Q 1925 3584 2291 3584 
Q 2894 3584 3203 3211 
Q 3513 2838 3513 2113 
z
" transform="scale(0.015625)"/>
      <path id="DejaVuSans-67" d="M 2906 1791 
Q 2906 2416 2648 2759 
Q 2391 3103 1925 3103 
Q 1463 3103 1205 2759 
Q 947 2416 947 1791 
Q 947 1169 1205 825 
Q 1463 481 1925 481 
Q 2391 481 2648 825 
Q 2906 1169 2906 1791 
z
M 3481 434 
Q 3481 -459 3084 -895 
Q 2688 -1331 1869 -1331 
Q 1566 -1331 1297 -1286 
Q 1028 -1241 775 -1147 
L 775 -588 
Q 1028 -725 1275 -790 
Q 1522 -856 1778 -856 
Q 2344 -856 2625 -561 
Q 2906 -266 2906 331 
L 2906 616 
Q 2728 306 2450 153 
Q 2172 0 1784 0 
Q 1141 0 747 490 
Q 353 981 353 1791 
Q 353 2603 747 3093 
Q 1141 3584 1784 3584 
Q 2172 3584 2450 3431 
Q 2728 3278 2906 2969 
L 2906 3500 
L 3481 3500 
L 3481 434 
z
" transform="scale(0.015625)"/>
      <path id="DejaVuSans-47" d="M 3809 666 
L 3809 1919 
L 2778 1919 
L 2778 2438 
L 4434 2438 
L 4434 434 
Q 4069 175 3628 42 
Q 3188 -91 2688 -91 
Q 1594 -91 976 548 
Q 359 1188 359 2328 
Q 359 3472 976 4111 
Q 1594 4750 2688 4750 
Q 3144 4750 3555 4637 
Q 3966 4525 4313 4306 
L 4313 3634 
Q 3963 3931 3569 4081 
Q 3175 4231 2741 4231 
Q 1884 4231 1454 3753 
Q 1025 3275 1025 2328 
Q 1025 1384 1454 906 
Q 1884 428 2741 428 
Q 3075 428 3337 486 
Q 3600 544 3809 666 
z
" transform="scale(0.015625)"/>
      <path id="DejaVuSans-4e" d="M 628 4666 
L 1478 4666 
L 3547 763 
L 3547 4666 
L 4159 4666 
L 4159 0 
L 3309 0 
L 1241 3903 
L 1241 0 
L 628 0 
L 628 4666 
z
" transform="scale(0.015625)"/>
      <path id="DejaVuSans-55" d="M 556 4666 
L 1191 4666 
L 1191 1831 
Q 1191 1081 1462 751 
Q 1734 422 2344 422 
Q 2950 422 3222 751 
Q 3494 1081 3494 1831 
L 3494 4666 
L 4128 4666 
L 4128 1753 
Q 4128 841 3676 375 
Q 3225 -91 2344 -91 
Q 1459 -91 1007 375 
Q 556 841 556 1753 
L 556 4666 
z
" transform="scale(0.015625)"/>
      <path id="DejaVuSans-27" d="M 1147 4666 
L 1147 2931 
L 616 2931 
L 616 4666 
L 1147 4666 
z
" transform="scale(0.015625)"/>
     </defs>
     <use xlink:href="#DejaVuSans-52"/>
     <use xlink:href="#DejaVuSans-75" x="64.982422"/>
     <use xlink:href="#DejaVuSans-73" x="128.361328"/>
     <use xlink:href="#DejaVuSans-74" x="180.460938"/>
     <use xlink:href="#DejaVuSans-2f" x="219.669922"/>
     <use xlink:href="#DejaVuSans-43" x="253.361328"/>
     <use xlink:href="#DejaVuSans-6f" x="323.185547"/>
     <use xlink:href="#DejaVuSans-72" x="384.367188"/>
     <use xlink:href="#DejaVuSans-65" x="423.230469"/>
     <use xlink:href="#DejaVuSans-75" x="484.753906"/>
     <use xlink:href="#DejaVuSans-74" x="548.132812"/>
     <use xlink:href="#DejaVuSans-69" x="587.341797"/>
     <use xlink:href="#DejaVuSans-6c" x="615.125"/>
     <use xlink:href="#DejaVuSans-73" x="642.908203"/>
     <use xlink:href="#DejaVuSans-20" x="695.007812"/>
     <use xlink:href="#DejaVuSans-72" x="726.794922"/>
     <use xlink:href="#DejaVuSans-75" x="767.908203"/>
     <use xlink:href="#DejaVuSans-6e" x="831.287109"/>
     <use xlink:href="#DejaVuSans-6e" x="894.666016"/>
     <use xlink:href="#DejaVuSans-69" x="958.044922"/>
     <use xlink:href="#DejaVuSans-6e" x="985.828125"/>
     <use xlink:href="#DejaVuSans-67" x="1049.207031"/>
     <use xlink:href="#DejaVuSans-20" x="1112.683594"/>
     <use xlink:href="#DejaVuSans-47" x="1144.470703"/>
     <use xlink:href="#DejaVuSans-4e" x="1221.960938"/>
     <use xlink:href="#DejaVuSans-55" x="1296.765625"/>
     <use xlink:href="#DejaVuSans-27" x="1369.958984"/>
     <use xlink:href="#DejaVuSans-73" x="1397.449219"/>
     <use xlink:href="#DejaVuSans-20" x="1449.548828"/>
     <use xlink:href="#DejaVuSans-74" x="1481.335938"/>
     <use xlink:href="#DejaVuSans-65" x="1520.544922"/>
     <use xlink:href="#DejaVuSans-73" x="1582.068359"/>
     <use xlink:href="#DejaVuSans-74" x="1634.167969"/>
     <use xlink:href="#DejaVuSans-73" x="1673.376953"/>
     <use xlink:href="#DejaVuSans-75" x="1725.476562"/>
     <use xlink:href="#DejaVuSans-69" x="1788.855469"/>
     <use xlink:href="#DejaVuSans-74" x="1816.638672"/>
     <use xlink:href="#DejaVuSans-65" x="1855.847656"/>
    </g>
   </g>
   <g id="legend_1">
    <g id="patch_7">
     <path d="M 505.762812 236.769437 
L 561.9675 236.769437 
Q 563.9675 236.769437 563.9675 234.769437 
L 563.9675 162.378812 
Q 563.9675 160.378812 561.9675 160.378812 
L 505.762812 160.378812 
Q 503.762812 160.378812 503.762812 162.378812 
L 503.762812 234.769437 
Q 503.762812 236.769437 505.762812 236.769437 
z
" style="fill: #ffffff; opacity: 0.8; stroke: #cccccc; stroke-linejoin: miter"/>
    </g>
    <g id="line2d_22">
     <path d="M 507.762812 168.47725 
L 517.762812 168.47725 
L 527.762812 168.47725 
" style="fill: none; stroke: #0000ff; stroke-width: 1.5; stroke-linecap: square"/>
    </g>
    <g id="text_18">
     <!-- total -->
     <g transform="translate(535.762812 171.97725) scale(0.1 -0.1)">
      <defs>
       <path id="DejaVuSans-61" d="M 2194 1759 
Q 1497 1759 1228 1600 
Q 959 1441 959 1056 
Q 959 750 1161 570 
Q 1363 391 1709 391 
Q 2188 391 2477 730 
Q 2766 1069 2766 1631 
L 2766 1759 
L 2194 1759 
z
M 3341 1997 
L 3341 0 
L 2766 0 
L 2766 531 
Q 2569 213 2275 61 
Q 1981 -91 1556 -91 
Q 1019 -91 701 211 
Q 384 513 384 1019 
Q 384 1609 779 1909 
Q 1175 2209 1959 2209 
L 2766 2209 
L 2766 2266 
Q 2766 2663 2505 2880 
Q 2244 3097 1772 3097 
Q 1472 3097 1187 3025 
Q 903 2953 641 2809 
L 641 3341 
Q 956 3463 1253 3523 
Q 1550 3584 1831 3584 
Q 2591 3584 2966 3190 
Q 3341 2797 3341 1997 
z
" transform="scale(0.015625)"/>
      </defs>
      <use xlink:href="#DejaVuSans-74"/>
      <use xlink:href="#DejaVuSans-6f" x="39.208984"/>
      <use xlink:href="#DejaVuSans-74" x="100.390625"/>
      <use xlink:href="#DejaVuSans-61" x="139.599609"/>
      <use xlink:href="#DejaVuSans-6c" x="200.878906"/>
     </g>
    </g>
    <g id="line2d_23">
     <path d="M 507.762812 183.155375 
L 517.762812 183.155375 
L 527.762812 183.155375 
" style="fill: none; stroke-dasharray: 3,1.5; stroke-dashoffset: 0; stroke: #808080; stroke-width: 1.5"/>
    </g>
    <g id="text_19">
     <!-- fail -->
     <g transform="translate(535.762812 186.655375) scale(0.1 -0.1)">
      <defs>
       <path id="DejaVuSans-66" d="M 2375 4863 
L 2375 4384 
L 1825 4384 
Q 1516 4384 1395 4259 
Q 1275 4134 1275 3809 
L 1275 3500 
L 2222 3500 
L 2222 3053 
L 1275 3053 
L 1275 0 
L 697 0 
L 697 3053 
L 147 3053 
L 147 3500 
L 697 3500 
L 697 3744 
Q 697 4328 969 4595 
Q 1241 4863 1831 4863 
L 2375 4863 
z
" transform="scale(0.015625)"/>
      </defs>
      <use xlink:href="#DejaVuSans-66"/>
      <use xlink:href="#DejaVuSans-61" x="35.205078"/>
      <use xlink:href="#DejaVuSans-69" x="96.484375"/>
      <use xlink:href="#DejaVuSans-6c" x="124.267578"/>
     </g>
    </g>
    <g id="line2d_24">
     <path d="M 507.762812 197.8335 
L 517.762812 197.8335 
L 527.762812 197.8335 
" style="fill: none; stroke-dasharray: 6,1.5; stroke-dashoffset: 0; stroke: #008000; stroke-width: 1.5"/>
    </g>
    <g id="text_20">
     <!-- pass -->
     <g transform="translate(535.762812 201.3335) scale(0.1 -0.1)">
      <defs>
       <path id="DejaVuSans-70" d="M 1159 525 
L 1159 -1331 
L 581 -1331 
L 581 3500 
L 1159 3500 
L 1159 2969 
Q 1341 3281 1617 3432 
Q 1894 3584 2278 3584 
Q 2916 3584 3314 3078 
Q 3713 2572 3713 1747 
Q 3713 922 3314 415 
Q 2916 -91 2278 -91 
Q 1894 -91 1617 61 
Q 1341 213 1159 525 
z
M 3116 1747 
Q 3116 2381 2855 2742 
Q 2594 3103 2138 3103 
Q 1681 3103 1420 2742 
Q 1159 2381 1159 1747 
Q 1159 1113 1420 752 
Q 1681 391 2138 391 
Q 2594 391 2855 752 
Q 3116 1113 3116 1747 
z
" transform="scale(0.015625)"/>
      </defs>
      <use xlink:href="#DejaVuSans-70"/>
      <use xlink:href="#DejaVuSans-61" x="63.476562"/>
      <use xlink:href="#DejaVuSans-73" x="124.755859"/>
      <use xlink:href="#DejaVuSans-73" x="176.855469"/>
     </g>
    </g>
    <g id="line2d_25">
     <path d="M 507.762812 212.511625 
L 517.762812 212.511625 
L 527.762812 212.511625 
" style="fill: none; stroke-dasharray: 9,3; stroke-dashoffset: 0; stroke: #ffa500; stroke-width: 1.5"/>
    </g>
    <g id="text_21">
     <!-- error -->
     <g transform="translate(535.762812 216.011625) scale(0.1 -0.1)">
      <use xlink:href="#DejaVuSans-65"/>
      <use xlink:href="#DejaVuSans-72" x="61.523438"/>
      <use xlink:href="#DejaVuSans-72" x="100.886719"/>
      <use xlink:href="#DejaVuSans-6f" x="139.75"/>
      <use xlink:href="#DejaVuSans-72" x="200.931641"/>
     </g>
    </g>
    <g id="line2d_26">
     <path d="M 507.762812 227.18975 
L 517.762812 227.18975 
L 527.762812 227.18975 
" style="fill: none; stroke-dasharray: 12,4.5; stroke-dashoffset: 0; stroke: #ee82ee; stroke-width: 1.5"/>
    </g>
    <g id="text_22">
     <!-- skip -->
     <g transform="translate(535.762812 230.68975) scale(0.1 -0.1)">
      <defs>
       <path id="DejaVuSans-6b" d="M 581 4863 
L 1159 4863 
L 1159 1991 
L 2875 3500 
L 3609 3500 
L 1753 1863 
L 3688 0 
L 2938 0 
L 1159 1709 
L 1159 0 
L 581 0 
L 581 4863 
z
" transform="scale(0.015625)"/>
      </defs>
      <use xlink:href="#DejaVuSans-73"/>
      <use xlink:href="#DejaVuSans-6b" x="52.099609"/>
      <use xlink:href="#DejaVuSans-69" x="110.009766"/>
      <use xlink:href="#DejaVuSans-70" x="137.792969"/>
     </g>
    </g>
   </g>
  </g>
 </g>
 <defs>
  <clipPath id="p9e5c535dea">
   <rect x="33.2875" y="22.318125" width="535.68" height="352.512"/>
  </clipPath>
 </defs>
</svg>
