<?xml version="1.0" encoding="utf-8" standalone="no"?>
<!DOCTYPE svg PUBLIC "-//W3C//DTD SVG 1.1//EN"
  "http://www.w3.org/Graphics/SVG/1.1/DTD/svg11.dtd">
<svg xmlns:xlink="http://www.w3.org/1999/xlink" width="576.1675pt" height="418.303033pt" viewBox="0 0 576.1675 418.303033" xmlns="http://www.w3.org/2000/svg" version="1.1">
 <metadata>
  <rdf:RDF xmlns:dc="http://purl.org/dc/elements/1.1/" xmlns:cc="http://creativecommons.org/ns#" xmlns:rdf="http://www.w3.org/1999/02/22-rdf-syntax-ns#">
   <cc:Work>
    <dc:type rdf:resource="http://purl.org/dc/dcmitype/StillImage"/>
    <dc:date>2025-09-14T14:04:22.478478</dc:date>
    <dc:format>image/svg+xml</dc:format>
    <dc:creator>
     <cc:Agent>
      <dc:title>Matplotlib v3.6.3, https://matplotlib.org/</dc:title>
     </cc:Agent>
    </dc:creator>
   </cc:Work>
  </rdf:RDF>
 </metadata>
 <defs>
  <style type="text/css">*{stroke-linejoin: round; stroke-linecap: butt}</style>
 </defs>
 <g id="figure_1">
  <g id="patch_1">
   <path d="M -0 418.303033 
L 576.1675 418.303033 
L 576.1675 0 
L -0 0 
z
" style="fill: #ffffff"/>
  </g>
  <g id="axes_1">
   <g id="patch_2">
    <path d="M 33.2875 374.830125 
L 568.9675 374.830125 
L 568.9675 22.318125 
L 33.2875 22.318125 
z
" style="fill: #ffffff"/>
   </g>
   <g id="matplotlib.axis_1">
    <g id="xtick_1">
     <g id="line2d_1">
      <defs>
       <path id="m0842bfc57b" d="M 0 0 
L 0 3.5 
" style="stroke: #000000; stroke-width: 0.8"/>
      </defs>
      <g>
       <use xlink:href="#m0842bfc57b" x="61.862853" y="374.830125" style="stroke: #000000; stroke-width: 0.8"/>
      </g>
     </g>
     <g id="text_1">
      <!-- 2021-07 -->
      <g transform="translate(24.638032 409.301971) rotate(-30) scale(0.1 -0.1)">
       <defs>
        <path id="DejaVuSans-32" d="M 1228 531 
L 3431 531 
L 3431 0 
L 469 0 
L 469 531 
Q 828 903 1448 1529 
Q 2069 2156 2228 2338 
Q 2531 2678 2651 2914 
Q 2772 3150 2772 3378 
Q 2772 3750 2511 3984 
Q 2250 4219 1831 4219 
Q 1534 4219 1204 4116 
Q 875 4013 500 3803 
L 500 4441 
Q 881 4594 1212 4672 
Q 1544 4750 1819 4750 
Q 2544 4750 2975 4387 
Q 3406 4025 3406 3419 
Q 3406 3131 3298 2873 
Q 3191 2616 2906 2266 
Q 2828 2175 2409 1742 
Q 1991 1309 1228 531 
z
" transform="scale(0.015625)"/>
        <path id="DejaVuSans-30" d="M 2034 4250 
Q 1547 4250 1301 3770 
Q 1056 3291 1056 2328 
Q 1056 1369 1301 889 
Q 1547 409 2034 409 
Q 2525 409 2770 889 
Q 3016 1369 3016 2328 
Q 3016 3291 2770 3770 
Q 2525 4250 2034 4250 
z
M 2034 4750 
Q 2819 4750 3233 4129 
Q 3647 3509 3647 2328 
Q 3647 1150 3233 529 
Q 2819 -91 2034 -91 
Q 1250 -91 836 529 
Q 422 1150 422 2328 
Q 422 3509 836 4129 
Q 1250 4750 2034 4750 
z
" transform="scale(0.015625)"/>
        <path id="DejaVuSans-31" d="M 794 531 
L 1825 531 
L 1825 4091 
L 703 3866 
L 703 4441 
L 1819 4666 
L 2450 4666 
L 2450 531 
L 3481 531 
L 3481 0 
L 794 0 
L 794 531 
z
" transform="scale(0.015625)"/>
        <path id="DejaVuSans-2d" d="M 313 2009 
L 1997 2009 
L 1997 1497 
L 313 1497 
L 313 2009 
z
" transform="scale(0.015625)"/>
        <path id="DejaVuSans-37" d="M 525 4666 
L 3525 4666 
L 3525 4397 
L 1831 0 
L 1172 0 
L 2766 4134 
L 525 4134 
L 525 4666 
z
" transform="scale(0.015625)"/>
       </defs>
       <use xlink:href="#DejaVuSans-32"/>
       <use xlink:href="#DejaVuSans-30" x="63.623047"/>
       <use xlink:href="#DejaVuSans-32" x="127.246094"/>
       <use xlink:href="#DejaVuSans-31" x="190.869141"/>
       <use xlink:href="#DejaVuSans-2d" x="254.492188"/>
       <use xlink:href="#DejaVuSans-30" x="290.576172"/>
       <use xlink:href="#DejaVuSans-37" x="354.199219"/>
      </g>
     </g>
    </g>
    <g id="xtick_2">
     <g id="line2d_2">
      <g>
       <use xlink:href="#m0842bfc57b" x="121.958064" y="374.830125" style="stroke: #000000; stroke-width: 0.8"/>
      </g>
     </g>
     <g id="text_2">
      <!-- 2022-01 -->
      <g transform="translate(84.733244 409.301971) rotate(-30) scale(0.1 -0.1)">
       <use xlink:href="#DejaVuSans-32"/>
       <use xlink:href="#DejaVuSans-30" x="63.623047"/>
       <use xlink:href="#DejaVuSans-32" x="127.246094"/>
       <use xlink:href="#DejaVuSans-32" x="190.869141"/>
       <use xlink:href="#DejaVuSans-2d" x="254.492188"/>
       <use xlink:href="#DejaVuSans-30" x="290.576172"/>
       <use xlink:href="#DejaVuSans-31" x="354.199219"/>
      </g>
     </g>
    </g>
    <g id="xtick_3">
     <g id="line2d_3">
      <g>
       <use xlink:href="#m0842bfc57b" x="181.073463" y="374.830125" style="stroke: #000000; stroke-width: 0.8"/>
      </g>
     </g>
     <g id="text_3">
      <!-- 2022-07 -->
      <g transform="translate(143.848642 409.301971) rotate(-30) scale(0.1 -0.1)">
       <use xlink:href="#DejaVuSans-32"/>
       <use xlink:href="#DejaVuSans-30" x="63.623047"/>
       <use xlink:href="#DejaVuSans-32" x="127.246094"/>
       <use xlink:href="#DejaVuSans-32" x="190.869141"/>
       <use xlink:href="#DejaVuSans-2d" x="254.492188"/>
       <use xlink:href="#DejaVuSans-30" x="290.576172"/>
       <use xlink:href="#DejaVuSans-37" x="354.199219"/>
      </g>
     </g>
    </g>
    <g id="xtick_4">
     <g id="line2d_4">
      <g>
       <use xlink:href="#m0842bfc57b" x="241.168674" y="374.830125" style="stroke: #000000; stroke-width: 0.8"/>
      </g>
     </g>
     <g id="text_4">
      <!-- 2023-01 -->
      <g transform="translate(203.943853 409.301971) rotate(-30) scale(0.1 -0.1)">
       <defs>
        <path id="DejaVuSans-33" d="M 2597 2516 
Q 3050 2419 3304 2112 
Q 3559 1806 3559 1356 
Q 3559 666 3084 287 
Q 2609 -91 1734 -91 
Q 1441 -91 1130 -33 
Q 819 25 488 141 
L 488 750 
Q 750 597 1062 519 
Q 1375 441 1716 441 
Q 2309 441 2620 675 
Q 2931 909 2931 1356 
Q 2931 1769 2642 2001 
Q 2353 2234 1838 2234 
L 1294 2234 
L 1294 2753 
L 1863 2753 
Q 2328 2753 2575 2939 
Q 2822 3125 2822 3475 
Q 2822 3834 2567 4026 
Q 2313 4219 1838 4219 
Q 1578 4219 1281 4162 
Q 984 4106 628 3988 
L 628 4550 
Q 988 4650 1302 4700 
Q 1616 4750 1894 4750 
Q 2613 4750 3031 4423 
Q 3450 4097 3450 3541 
Q 3450 3153 3228 2886 
Q 3006 2619 2597 2516 
z
" transform="scale(0.015625)"/>
       </defs>
       <use xlink:href="#DejaVuSans-32"/>
       <use xlink:href="#DejaVuSans-30" x="63.623047"/>
       <use xlink:href="#DejaVuSans-32" x="127.246094"/>
       <use xlink:href="#DejaVuSans-33" x="190.869141"/>
       <use xlink:href="#DejaVuSans-2d" x="254.492188"/>
       <use xlink:href="#DejaVuSans-30" x="290.576172"/>
       <use xlink:href="#DejaVuSans-31" x="354.199219"/>
      </g>
     </g>
    </g>
    <g id="xtick_5">
     <g id="line2d_5">
      <g>
       <use xlink:href="#m0842bfc57b" x="300.284072" y="374.830125" style="stroke: #000000; stroke-width: 0.8"/>
      </g>
     </g>
     <g id="text_5">
      <!-- 2023-07 -->
      <g transform="translate(263.059252 409.301971) rotate(-30) scale(0.1 -0.1)">
       <use xlink:href="#DejaVuSans-32"/>
       <use xlink:href="#DejaVuSans-30" x="63.623047"/>
       <use xlink:href="#DejaVuSans-32" x="127.246094"/>
       <use xlink:href="#DejaVuSans-33" x="190.869141"/>
       <use xlink:href="#DejaVuSans-2d" x="254.492188"/>
       <use xlink:href="#DejaVuSans-30" x="290.576172"/>
       <use xlink:href="#DejaVuSans-37" x="354.199219"/>
      </g>
     </g>
    </g>
    <g id="xtick_6">
     <g id="line2d_6">
      <g>
       <use xlink:href="#m0842bfc57b" x="360.379284" y="374.830125" style="stroke: #000000; stroke-width: 0.8"/>
      </g>
     </g>
     <g id="text_6">
      <!-- 2024-01 -->
      <g transform="translate(323.154463 409.301971) rotate(-30) scale(0.1 -0.1)">
       <defs>
        <path id="DejaVuSans-34" d="M 2419 4116 
L 825 1625 
L 2419 1625 
L 2419 4116 
z
M 2253 4666 
L 3047 4666 
L 3047 1625 
L 3713 1625 
L 3713 1100 
L 3047 1100 
L 3047 0 
L 2419 0 
L 2419 1100 
L 313 1100 
L 313 1709 
L 2253 4666 
z
" transform="scale(0.015625)"/>
       </defs>
       <use xlink:href="#DejaVuSans-32"/>
       <use xlink:href="#DejaVuSans-30" x="63.623047"/>
       <use xlink:href="#DejaVuSans-32" x="127.246094"/>
       <use xlink:href="#DejaVuSans-34" x="190.869141"/>
       <use xlink:href="#DejaVuSans-2d" x="254.492188"/>
       <use xlink:href="#DejaVuSans-30" x="290.576172"/>
       <use xlink:href="#DejaVuSans-31" x="354.199219"/>
      </g>
     </g>
    </g>
    <g id="xtick_7">
     <g id="line2d_7">
      <g>
       <use xlink:href="#m0842bfc57b" x="419.821287" y="374.830125" style="stroke: #000000; stroke-width: 0.8"/>
      </g>
     </g>
     <g id="text_7">
      <!-- 2024-07 -->
      <g transform="translate(382.596466 409.301971) rotate(-30) scale(0.1 -0.1)">
       <use xlink:href="#DejaVuSans-32"/>
       <use xlink:href="#DejaVuSans-30" x="63.623047"/>
       <use xlink:href="#DejaVuSans-32" x="127.246094"/>
       <use xlink:href="#DejaVuSans-34" x="190.869141"/>
       <use xlink:href="#DejaVuSans-2d" x="254.492188"/>
       <use xlink:href="#DejaVuSans-30" x="290.576172"/>
       <use xlink:href="#DejaVuSans-37" x="354.199219"/>
      </g>
     </g>
    </g>
    <g id="xtick_8">
     <g id="line2d_8">
      <g>
       <use xlink:href="#m0842bfc57b" x="479.916498" y="374.830125" style="stroke: #000000; stroke-width: 0.8"/>
      </g>
     </g>
     <g id="text_8">
      <!-- 2025-01 -->
      <g transform="translate(442.691677 409.301971) rotate(-30) scale(0.1 -0.1)">
       <defs>
        <path id="DejaVuSans-35" d="M 691 4666 
L 3169 4666 
L 3169 4134 
L 1269 4134 
L 1269 2991 
Q 1406 3038 1543 3061 
Q 1681 3084 1819 3084 
Q 2600 3084 3056 2656 
Q 3513 2228 3513 1497 
Q 3513 744 3044 326 
Q 2575 -91 1722 -91 
Q 1428 -91 1123 -41 
Q 819 9 494 109 
L 494 744 
Q 775 591 1075 516 
Q 1375 441 1709 441 
Q 2250 441 2565 725 
Q 2881 1009 2881 1497 
Q 2881 1984 2565 2268 
Q 2250 2553 1709 2553 
Q 1456 2553 1204 2497 
Q 953 2441 691 2322 
L 691 4666 
z
" transform="scale(0.015625)"/>
       </defs>
       <use xlink:href="#DejaVuSans-32"/>
       <use xlink:href="#DejaVuSans-30" x="63.623047"/>
       <use xlink:href="#DejaVuSans-32" x="127.246094"/>
       <use xlink:href="#DejaVuSans-35" x="190.869141"/>
       <use xlink:href="#DejaVuSans-2d" x="254.492188"/>
       <use xlink:href="#DejaVuSans-30" x="290.576172"/>
       <use xlink:href="#DejaVuSans-31" x="354.199219"/>
      </g>
     </g>
    </g>
    <g id="xtick_9">
     <g id="line2d_9">
      <g>
       <use xlink:href="#m0842bfc57b" x="539.031896" y="374.830125" style="stroke: #000000; stroke-width: 0.8"/>
      </g>
     </g>
     <g id="text_9">
      <!-- 2025-07 -->
      <g transform="translate(501.807076 409.301971) rotate(-30) scale(0.1 -0.1)">
       <use xlink:href="#DejaVuSans-32"/>
       <use xlink:href="#DejaVuSans-30" x="63.623047"/>
       <use xlink:href="#DejaVuSans-32" x="127.246094"/>
       <use xlink:href="#DejaVuSans-35" x="190.869141"/>
       <use xlink:href="#DejaVuSans-2d" x="254.492188"/>
       <use xlink:href="#DejaVuSans-30" x="290.576172"/>
       <use xlink:href="#DejaVuSans-37" x="354.199219"/>
      </g>
     </g>
    </g>
   </g>
   <g id="matplotlib.axis_2">
    <g id="ytick_1">
     <g id="line2d_10">
      <defs>
       <path id="m6efe658a86" d="M 0 0 
L -3.5 0 
" style="stroke: #000000; stroke-width: 0.8"/>
      </defs>
      <g>
       <use xlink:href="#m6efe658a86" x="33.2875" y="374.830125" style="stroke: #000000; stroke-width: 0.8"/>
      </g>
     </g>
     <g id="text_10">
      <!-- 0 -->
      <g transform="translate(19.925 378.629344) scale(0.1 -0.1)">
       <use xlink:href="#DejaVuSans-30"/>
      </g>
     </g>
    </g>
    <g id="ytick_2">
     <g id="line2d_11">
      <g>
       <use xlink:href="#m6efe658a86" x="33.2875" y="318.897147" style="stroke: #000000; stroke-width: 0.8"/>
      </g>
     </g>
     <g id="text_11">
      <!-- 100 -->
      <g transform="translate(7.2 322.696366) scale(0.1 -0.1)">
       <use xlink:href="#DejaVuSans-31"/>
       <use xlink:href="#DejaVuSans-30" x="63.623047"/>
       <use xlink:href="#DejaVuSans-30" x="127.246094"/>
      </g>
     </g>
    </g>
    <g id="ytick_3">
     <g id="line2d_12">
      <g>
       <use xlink:href="#m6efe658a86" x="33.2875" y="262.964169" style="stroke: #000000; stroke-width: 0.8"/>
      </g>
     </g>
     <g id="text_12">
      <!-- 200 -->
      <g transform="translate(7.2 266.763388) scale(0.1 -0.1)">
       <use xlink:href="#DejaVuSans-32"/>
       <use xlink:href="#DejaVuSans-30" x="63.623047"/>
       <use xlink:href="#DejaVuSans-30" x="127.246094"/>
      </g>
     </g>
    </g>
    <g id="ytick_4">
     <g id="line2d_13">
      <g>
       <use xlink:href="#m6efe658a86" x="33.2875" y="207.031191" style="stroke: #000000; stroke-width: 0.8"/>
      </g>
     </g>
     <g id="text_13">
      <!-- 300 -->
      <g transform="translate(7.2 210.83041) scale(0.1 -0.1)">
       <use xlink:href="#DejaVuSans-33"/>
       <use xlink:href="#DejaVuSans-30" x="63.623047"/>
       <use xlink:href="#DejaVuSans-30" x="127.246094"/>
      </g>
     </g>
    </g>
    <g id="ytick_5">
     <g id="line2d_14">
      <g>
       <use xlink:href="#m6efe658a86" x="33.2875" y="151.098213" style="stroke: #000000; stroke-width: 0.8"/>
      </g>
     </g>
     <g id="text_14">
      <!-- 400 -->
      <g transform="translate(7.2 154.897432) scale(0.1 -0.1)">
       <use xlink:href="#DejaVuSans-34"/>
       <use xlink:href="#DejaVuSans-30" x="63.623047"/>
       <use xlink:href="#DejaVuSans-30" x="127.246094"/>
      </g>
     </g>
    </g>
    <g id="ytick_6">
     <g id="line2d_15">
      <g>
       <use xlink:href="#m6efe658a86" x="33.2875" y="95.165235" style="stroke: #000000; stroke-width: 0.8"/>
      </g>
     </g>
     <g id="text_15">
      <!-- 500 -->
      <g transform="translate(7.2 98.964454) scale(0.1 -0.1)">
       <use xlink:href="#DejaVuSans-35"/>
       <use xlink:href="#DejaVuSans-30" x="63.623047"/>
       <use xlink:href="#DejaVuSans-30" x="127.246094"/>
      </g>
     </g>
    </g>
    <g id="ytick_7">
     <g id="line2d_16">
      <g>
       <use xlink:href="#m6efe658a86" x="33.2875" y="39.232258" style="stroke: #000000; stroke-width: 0.8"/>
      </g>
     </g>
     <g id="text_16">
      <!-- 600 -->
      <g transform="translate(7.2 43.031476) scale(0.1 -0.1)">
       <defs>
        <path id="DejaVuSans-36" d="M 2113 2584 
Q 1688 2584 1439 2293 
Q 1191 2003 1191 1497 
Q 1191 994 1439 701 
Q 1688 409 2113 409 
Q 2538 409 2786 701 
Q 3034 994 3034 1497 
Q 3034 2003 2786 2293 
Q 2538 2584 2113 2584 
z
M 3366 4563 
L 3366 3988 
Q 3128 4100 2886 4159 
Q 2644 4219 2406 4219 
Q 1781 4219 1451 3797 
Q 1122 3375 1075 2522 
Q 1259 2794 1537 2939 
Q 1816 3084 2150 3084 
Q 2853 3084 3261 2657 
Q 3669 2231 3669 1497 
Q 3669 778 3244 343 
Q 2819 -91 2113 -91 
Q 1303 -91 875 529 
Q 447 1150 447 2328 
Q 447 3434 972 4092 
Q 1497 4750 2381 4750 
Q 2619 4750 2861 4703 
Q 3103 4656 3366 4563 
z
" transform="scale(0.015625)"/>
       </defs>
       <use xlink:href="#DejaVuSans-36"/>
       <use xlink:href="#DejaVuSans-30" x="63.623047"/>
       <use xlink:href="#DejaVuSans-30" x="127.246094"/>
      </g>
     </g>
    </g>
   </g>
   <g id="line2d_17">
    <path d="M 38.539265 25.808343 
L 48.250885 25.808343 
L 48.360823 29.164321 
L 49.72051 29.164321 
L 50.218234 38.672928 
L 130.450312 38.672928 
L 130.849771 33.07963 
L 144.200879 33.07963 
L 144.985161 33.63896 
L 151.246489 33.63896 
L 151.465454 44.825555 
L 157.815154 44.825555 
L 159.131063 43.147566 
L 267.913576 43.147566 
L 268.2234 39.232258 
L 276.749291 39.232258 
L 277.053593 38.113598 
L 319.846921 38.113598 
L 320.06003 36.994938 
L 389.212496 36.994938 
L 389.410602 32.5203 
L 441.836836 32.5203 
L 441.927003 31.96097 
L 481.97135 31.96097 
L 482.339355 31.401641 
L 485.981916 31.401641 
L 486.102779 29.164321 
L 487.564591 29.164321 
L 487.944412 29.723651 
L 513.212808 29.723651 
L 513.524757 29.164321 
L 563.715735 29.164321 
L 563.715735 29.164321 
" clip-path="url(#p1b81d03ac2)" style="fill: none; stroke: #0000ff; stroke-width: 1.5; stroke-linecap: square"/>
   </g>
   <g id="line2d_18">
    <path d="M 38.539265 168.996766 
L 39.874487 167.878107 
L 41.2054 168.996766 
L 44.357133 168.996766 
L 47.832294 170.115426 
L 48.0901 169.556096 
L 48.250885 169.556096 
L 48.360823 172.912075 
L 48.614557 172.352745 
L 48.989838 172.912075 
L 49.72051 172.912075 
L 50.127458 185.21733 
L 50.218234 182.420681 
L 50.429461 185.77666 
L 50.496634 185.21733 
L 50.733331 185.21733 
L 51.111958 185.77666 
L 52.023222 185.77666 
L 52.050424 186.335989 
L 52.544387 186.335989 
L 52.753474 185.77666 
L 53.364776 189.691968 
L 53.435386 189.132638 
L 53.735556 189.691968 
L 54.316201 191.369957 
L 54.710039 190.251298 
L 55.332549 190.251298 
L 55.680439 191.369957 
L 55.915617 191.369957 
L 56.624137 191.929287 
L 56.94207 191.929287 
L 57.287791 193.047947 
L 57.596934 192.488617 
L 57.940224 193.607277 
L 58.296919 195.844596 
L 59.676134 196.963255 
L 60.2618 196.963255 
L 60.512673 197.522585 
L 60.912389 197.522585 
L 61.206662 198.081915 
L 61.506419 197.522585 
L 61.840633 197.522585 
L 62.03635 198.081915 
L 65.422225 198.081915 
L 65.76395 198.641245 
L 66.091412 198.641245 
L 66.218561 198.081915 
L 67.027312 198.641245 
L 67.366273 198.081915 
L 68.300823 198.081915 
L 68.600868 198.641245 
L 68.969757 198.081915 
L 70.670735 198.081915 
L 71.019242 198.641245 
L 71.210536 200.319234 
L 71.676125 199.200574 
L 72.758747 199.200574 
L 73.295882 199.759904 
L 73.620661 199.759904 
L 73.936091 200.319234 
L 74.288162 200.319234 
L 74.611421 199.759904 
L 74.920312 201.437893 
L 75.194546 201.437893 
L 75.940127 202.556553 
L 79.854647 202.556553 
L 80.165825 203.675213 
L 80.829024 203.675213 
L 81.123384 204.234542 
L 82.110659 204.234542 
L 83.055703 206.471861 
L 84.060189 206.471861 
L 84.419964 207.031191 
L 90.488758 207.031191 
L 91.217347 208.149851 
L 91.382395 207.031191 
L 92.551072 207.031191 
L 92.86843 207.590521 
L 93.21857 207.031191 
L 94.051642 207.031191 
L 94.511791 207.590521 
L 94.853391 207.031191 
L 100.012395 207.031191 
L 100.294322 212.065159 
L 100.489786 207.031191 
L 102.359415 207.031191 
L 102.698815 207.590521 
L 102.89254 212.624489 
L 103.35016 207.590521 
L 103.673366 207.590521 
L 103.887916 207.031191 
L 107.273034 207.031191 
L 107.44446 207.590521 
L 107.752096 207.590521 
L 108.258737 209.26851 
L 113.365159 209.26851 
L 114.479617 209.82784 
L 121.33811 209.82784 
L 121.623703 212.065159 
L 121.988638 212.065159 
L 122.312245 209.82784 
L 122.645185 209.82784 
L 122.874598 212.065159 
L 123.123237 209.82784 
L 123.536437 212.065159 
L 123.902449 213.183819 
L 128.146507 213.183819 
L 128.512822 213.743149 
L 130.450312 213.743149 
L 130.849771 207.590521 
L 131.135119 208.149851 
L 131.457652 209.82784 
L 131.855841 209.82784 
L 132.389745 210.9465 
L 132.758211 210.9465 
L 133.02981 211.505829 
L 133.394632 209.26851 
L 136.065795 214.861808 
L 136.33854 213.183819 
L 136.795862 212.624489 
L 138.248363 212.624489 
L 138.620957 212.065159 
L 138.949519 210.9465 
L 140.264865 210.9465 
L 140.505358 209.82784 
L 140.928364 210.9465 
L 141.883651 210.9465 
L 142.208763 212.065159 
L 142.52236 212.065159 
L 142.893763 212.624489 
L 143.043634 212.624489 
L 143.211132 214.302478 
L 143.43819 214.302478 
L 144.200879 214.861808 
L 144.831063 213.743149 
L 144.985161 213.743149 
L 145.479173 214.302478 
L 145.796134 215.421138 
L 147.434135 215.421138 
L 147.750393 215.980468 
L 148.090008 215.980468 
L 148.404433 216.539798 
L 148.698978 216.539798 
L 149.3834 217.099127 
L 149.736873 217.099127 
L 150.089357 218.777117 
L 150.297764 218.777117 
L 150.664109 218.217787 
L 151.246489 218.217787 
L 151.465454 219.895776 
L 152.005598 219.895776 
L 152.325618 221.014436 
L 152.753008 221.014436 
L 152.973156 221.573766 
L 153.457276 221.573766 
L 153.50545 222.133095 
L 153.75066 222.133095 
L 154.26809 222.692425 
L 155.444815 226.048404 
L 156.91156 226.048404 
L 157.210584 227.167063 
L 157.323179 226.607734 
L 157.453568 226.607734 
L 157.815154 226.048404 
L 159.131063 224.370414 
L 162.423308 224.370414 
L 162.804796 223.811085 
L 164.398229 223.811085 
L 164.625011 223.251755 
L 167.609003 223.251755 
L 167.993194 223.811085 
L 168.530258 223.811085 
L 168.965406 224.370414 
L 169.184359 223.811085 
L 171.281999 223.811085 
L 171.944 224.929744 
L 173.352886 224.929744 
L 173.59009 232.760361 
L 173.857494 232.760361 
L 176.136334 234.43835 
L 176.27637 233.879021 
L 176.422461 234.43835 
L 176.801662 233.879021 
L 177.119742 233.879021 
L 177.454523 234.43835 
L 177.705926 234.43835 
L 178.109543 235.55701 
L 178.275537 235.55701 
L 178.429158 234.99768 
L 178.77348 236.11634 
L 181.062678 236.11634 
L 181.285381 236.67567 
L 182.516846 236.67567 
L 183.007157 236.11634 
L 183.374508 238.912989 
L 183.63603 237.234999 
L 183.977112 237.234999 
L 184.250503 240.590978 
L 184.44179 240.031648 
L 184.645423 240.590978 
L 184.747985 240.031648 
L 184.873516 241.709638 
L 185.19896 241.709638 
L 185.611306 242.268967 
L 186.418911 241.709638 
L 186.602804 242.828297 
L 186.903336 242.828297 
L 187.116162 241.150308 
L 187.838597 242.828297 
L 188.556945 243.387627 
L 189.187821 243.387627 
L 189.518772 245.065616 
L 189.822976 245.065616 
L 190.003168 244.506286 
L 190.319429 244.506286 
L 191.542623 246.743606 
L 191.746623 245.624946 
L 192.1393 245.065616 
L 192.599865 246.743606 
L 193.83784 246.743606 
L 193.94382 247.302935 
L 194.437102 247.862265 
L 195.752074 247.862265 
L 196.353979 250.658914 
L 199.736387 250.658914 
L 200.003477 251.218244 
L 200.354758 250.099584 
L 200.559268 251.218244 
L 204.246775 251.218244 
L 204.554872 251.777574 
L 205.297855 255.133552 
L 205.576599 253.455563 
L 205.908787 254.014893 
L 206.276614 253.455563 
L 206.535456 253.455563 
L 206.927661 251.777574 
L 207.137965 251.777574 
L 207.178783 252.336903 
L 207.840569 252.336903 
L 208.213057 248.980925 
L 208.541457 248.980925 
L 209.529348 249.540254 
L 209.591857 248.980925 
L 210.128236 248.421595 
L 210.207903 248.980925 
L 212.792429 248.980925 
L 212.972265 249.540254 
L 213.454593 250.099584 
L 214.098665 251.218244 
L 214.266186 252.336903 
L 214.49256 252.336903 
L 214.746154 253.455563 
L 215.051484 252.896233 
L 215.393368 252.896233 
L 215.650977 252.336903 
L 216.014143 252.896233 
L 216.338207 252.896233 
L 216.648803 253.455563 
L 216.900231 253.455563 
L 217.373513 252.896233 
L 217.619559 253.455563 
L 217.874216 252.896233 
L 218.613725 248.421595 
L 219.32508 249.540254 
L 219.429083 253.455563 
L 219.587649 253.455563 
L 219.877786 254.014893 
L 220.214858 253.455563 
L 220.522603 253.455563 
L 220.901702 252.896233 
L 221.230061 254.014893 
L 222.415143 254.014893 
L 222.886115 254.574222 
L 223.155269 254.574222 
L 223.176154 255.133552 
L 224.519009 255.133552 
L 224.901314 256.252212 
L 226.780215 256.252212 
L 227.154767 257.370871 
L 228.430218 257.370871 
L 230.75374 256.811542 
L 230.969287 257.370871 
L 231.550624 257.370871 
L 232.039786 257.930201 
L 232.36746 259.048861 
L 232.465442 258.489531 
L 232.821599 259.60819 
L 233.613902 259.60819 
L 236.822862 260.72685 
L 244.754866 260.72685 
L 245.077963 260.16752 
L 246.628751 260.16752 
L 246.9502 260.72685 
L 248.015429 260.72685 
L 248.383082 261.28618 
L 248.647446 260.72685 
L 248.954258 261.28618 
L 249.293738 260.72685 
L 249.572364 261.84551 
L 249.999101 261.28618 
L 250.310472 261.84551 
L 257.078743 261.84551 
L 257.428365 260.72685 
L 257.798751 261.28618 
L 258.133728 260.72685 
L 258.508938 260.72685 
L 258.809845 260.16752 
L 260.065673 260.16752 
L 260.384551 260.72685 
L 260.744738 260.16752 
L 261.072888 259.048861 
L 261.723568 259.048861 
L 262.090681 258.489531 
L 262.365395 259.60819 
L 262.718785 259.60819 
L 262.99181 259.048861 
L 263.853532 260.16752 
L 264.357644 259.60819 
L 264.657149 260.16752 
L 265.294345 260.16752 
L 265.653976 259.60819 
L 266.007113 261.28618 
L 266.347005 260.72685 
L 266.999541 260.72685 
L 267.248282 260.16752 
L 267.566404 260.72685 
L 267.913576 260.72685 
L 268.2234 255.692882 
L 268.346489 256.252212 
L 268.589961 256.252212 
L 268.759568 256.811542 
L 268.907387 256.811542 
L 269.102004 257.370871 
L 269.233893 256.252212 
L 269.885019 257.370871 
L 270.44445 257.370871 
L 270.716507 258.489531 
L 270.986133 257.370871 
L 271.161676 257.930201 
L 272.151393 257.930201 
L 272.446029 257.370871 
L 272.725453 257.370871 
L 273.076579 257.930201 
L 273.401263 257.930201 
L 273.78615 257.370871 
L 274.157572 257.930201 
L 274.445759 257.930201 
L 274.899274 259.048861 
L 276.749291 259.048861 
L 277.053593 257.370871 
L 278.487409 257.370871 
L 278.816705 257.930201 
L 279.075735 258.489531 
L 279.582895 258.489531 
L 279.74112 259.60819 
L 279.813703 259.048861 
L 279.98531 259.60819 
L 280.468004 259.60819 
L 280.704629 260.72685 
L 281.34891 260.72685 
L 281.64965 261.84551 
L 282.64424 261.84551 
L 282.88276 263.523499 
L 283.102855 264.082829 
L 283.229871 264.082829 
L 283.658332 264.642159 
L 283.809133 264.082829 
L 283.882214 264.642159 
L 284.353311 264.642159 
L 284.906573 265.201488 
L 286.147806 265.201488 
L 286.467927 264.642159 
L 286.774659 265.201488 
L 287.120425 265.201488 
L 287.286136 265.760818 
L 287.325993 265.201488 
L 287.522674 265.760818 
L 287.676503 265.760818 
L 287.828416 266.879478 
L 288.413374 267.998137 
L 288.839328 267.438807 
L 289.163177 267.998137 
L 289.799833 267.998137 
L 290.145376 269.116797 
L 290.271874 268.557467 
L 290.477378 270.235456 
L 290.768581 269.676127 
L 290.957441 270.235456 
L 291.106772 269.676127 
L 291.27179 270.794786 
L 291.608136 270.794786 
L 291.707754 271.354116 
L 292.102364 270.794786 
L 292.407561 271.913446 
L 293.096129 271.913446 
L 293.344001 273.032105 
L 293.695585 271.913446 
L 293.93444 271.913446 
L 294.022011 272.472775 
L 294.664636 272.472775 
L 294.965233 274.710095 
L 295.397537 272.472775 
L 295.464563 273.032105 
L 296.033781 272.472775 
L 296.087682 273.591435 
L 296.28346 273.591435 
L 296.677963 274.150765 
L 296.998122 273.591435 
L 297.239995 273.591435 
L 297.597918 274.710095 
L 297.98731 274.710095 
L 298.364924 274.150765 
L 298.647142 274.710095 
L 298.81862 274.150765 
L 298.989173 275.269424 
L 300.500425 275.269424 
L 300.964907 275.828754 
L 301.913265 275.828754 
L 302.249758 274.710095 
L 302.883953 274.710095 
L 303.201364 275.269424 
L 306.088925 275.269424 
L 306.47862 274.710095 
L 306.843911 275.828754 
L 311.275377 275.828754 
L 312.24752 276.388084 
L 312.824918 276.388084 
L 313.293845 276.947414 
L 313.664424 276.947414 
L 313.882187 277.506743 
L 318.814851 277.506743 
L 319.215489 276.947414 
L 319.533123 277.506743 
L 319.846921 276.947414 
L 320.06003 273.591435 
L 322.008717 273.591435 
L 322.182584 274.150765 
L 322.519611 274.150765 
L 322.631064 273.591435 
L 324.648228 273.591435 
L 324.928065 274.150765 
L 325.033822 273.591435 
L 325.513148 273.591435 
L 325.734714 274.710095 
L 326.014006 273.591435 
L 326.222526 274.710095 
L 326.370526 274.710095 
L 326.561412 273.591435 
L 326.728358 274.710095 
L 326.835344 273.591435 
L 326.878434 274.710095 
L 328.026618 274.710095 
L 328.208878 275.269424 
L 328.235607 275.828754 
L 328.82029 275.828754 
L 328.85475 276.388084 
L 329.191632 276.388084 
L 329.366071 276.947414 
L 329.514797 276.388084 
L 329.69751 276.947414 
L 329.821072 276.388084 
L 330.110869 276.947414 
L 330.233428 276.388084 
L 330.250235 276.947414 
L 330.617574 276.947414 
L 330.847736 277.506743 
L 330.992901 277.506743 
L 331.210289 278.625403 
L 331.4515 279.184733 
L 331.618091 278.625403 
L 333.473609 278.625403 
L 333.738914 279.184733 
L 335.160963 279.184733 
L 335.387806 279.744063 
L 335.68765 279.744063 
L 335.91015 280.303392 
L 336.032785 279.744063 
L 336.621142 279.744063 
L 336.819694 280.862722 
L 337.360122 280.862722 
L 337.41202 281.422052 
L 337.48743 280.862722 
L 337.604092 280.862722 
L 337.813395 281.981382 
L 338.031366 282.540711 
L 338.092287 281.981382 
L 338.339368 284.218701 
L 339.340048 284.218701 
L 339.440649 284.778031 
L 339.659871 284.778031 
L 339.78829 285.89669 
L 339.939004 284.778031 
L 341.267445 284.778031 
L 341.344314 285.33736 
L 341.599122 284.778031 
L 341.721122 285.33736 
L 341.946687 284.778031 
L 342.239686 284.778031 
L 342.419364 285.89669 
L 342.746895 285.89669 
L 342.881245 285.33736 
L 342.996354 286.45602 
L 343.336306 284.778031 
L 343.692551 285.89669 
L 343.950617 284.778031 
L 344.554729 284.778031 
L 345.024881 286.45602 
L 345.171176 285.89669 
L 345.33319 286.45602 
L 345.770352 285.33736 
L 345.910334 286.45602 
L 346.947814 286.45602 
L 347.115043 287.01535 
L 347.406466 287.01535 
L 347.561819 286.45602 
L 347.757887 287.01535 
L 347.881864 286.45602 
L 348.259535 287.574679 
L 348.775162 287.574679 
L 349.138815 288.693339 
L 350.713876 288.693339 
L 350.886084 289.252669 
L 351.096729 288.693339 
L 351.200952 289.252669 
L 351.415713 288.693339 
L 351.70094 288.693339 
L 351.884912 289.252669 
L 352.005876 288.693339 
L 352.390986 288.693339 
L 352.510102 289.252669 
L 353.050035 289.252669 
L 353.08643 290.371328 
L 355.395694 290.371328 
L 355.623508 290.930658 
L 355.773039 290.371328 
L 355.899723 290.930658 
L 355.99595 290.371328 
L 356.111377 291.489988 
L 356.643198 291.489988 
L 356.894067 292.049318 
L 356.94491 291.489988 
L 356.997 292.049318 
L 357.283475 291.489988 
L 357.357513 292.049318 
L 357.637667 292.608647 
L 357.747397 293.167977 
L 357.956877 293.167977 
L 358.005044 293.727307 
L 358.296708 295.405296 
L 358.427985 294.845967 
L 358.605164 294.845967 
L 358.637084 295.964626 
L 359.881923 295.964626 
L 360.036538 296.523956 
L 360.280411 295.964626 
L 360.702842 296.523956 
L 360.815743 295.964626 
L 361.000569 296.523956 
L 361.227718 296.523956 
L 361.362892 297.083286 
L 361.677741 297.083286 
L 361.68546 297.642615 
L 361.782515 297.083286 
L 361.875552 298.201945 
L 362.013062 298.201945 
L 362.203411 298.761275 
L 363.509179 298.761275 
L 363.543638 298.201945 
L 363.625841 299.320605 
L 363.970197 299.320605 
L 364.146061 298.761275 
L 364.281435 299.320605 
L 364.485249 298.761275 
L 364.637956 299.320605 
L 364.809525 299.320605 
L 364.956951 298.761275 
L 365.103129 300.439264 
L 366.853037 300.439264 
L 367.379271 301.557924 
L 367.656272 300.998594 
L 374.266651 300.998594 
L 374.378883 301.557924 
L 374.57962 300.998594 
L 374.637475 301.557924 
L 375.237293 301.557924 
L 375.403385 302.117254 
L 376.245231 302.117254 
L 376.357713 302.676583 
L 376.516264 302.117254 
L 377.805844 302.117254 
L 377.984717 302.676583 
L 378.209976 302.117254 
L 378.334354 302.117254 
L 378.532566 303.235913 
L 378.641604 302.676583 
L 379.124899 302.676583 
L 379.33548 303.235913 
L 380.32669 303.235913 
L 380.488155 302.117254 
L 380.815326 303.235913 
L 382.575679 303.235913 
L 382.756166 303.795243 
L 382.917408 303.795243 
L 383.09106 304.354573 
L 383.220855 304.354573 
L 383.381522 304.913903 
L 383.757439 304.913903 
L 383.824033 305.473232 
L 384.137415 305.473232 
L 384.335366 304.354573 
L 384.489936 304.913903 
L 384.726539 304.913903 
L 384.823016 305.473232 
L 385.18498 305.473232 
L 385.508722 306.032562 
L 385.861746 307.710552 
L 385.977328 307.151222 
L 386.084949 307.710552 
L 386.33197 308.269881 
L 386.449105 307.710552 
L 386.763518 308.269881 
L 386.971457 307.710552 
L 387.141283 307.710552 
L 387.473993 309.388541 
L 387.674945 308.829211 
L 387.794647 308.829211 
L 387.951788 309.388541 
L 387.993108 309.947871 
L 388.126725 309.947871 
L 388.191933 309.388541 
L 388.407764 309.947871 
L 388.557216 309.388541 
L 388.680426 309.947871 
L 389.212496 309.947871 
L 389.410602 302.117254 
L 389.939693 303.235913 
L 390.289035 303.235913 
L 390.411229 303.795243 
L 390.601555 303.235913 
L 390.723722 303.235913 
L 390.868278 302.676583 
L 391.034491 303.235913 
L 391.262804 303.235913 
L 391.375142 302.676583 
L 391.517869 303.235913 
L 391.712528 302.676583 
L 391.789038 303.235913 
L 392.193646 303.795243 
L 392.490962 302.676583 
L 392.760312 303.235913 
L 393.956962 303.235913 
L 394.2409 303.795243 
L 394.539024 303.235913 
L 395.075276 303.235913 
L 395.486393 304.354573 
L 395.627407 302.676583 
L 395.864751 303.235913 
L 396.167314 302.676583 
L 396.30572 304.354573 
L 396.472825 303.235913 
L 396.630752 303.235913 
L 396.735927 303.795243 
L 396.814418 306.032562 
L 396.828506 305.473232 
L 397.176695 306.032562 
L 398.036088 306.032562 
L 398.442616 307.151222 
L 398.610315 306.591892 
L 399.212356 306.591892 
L 399.376391 306.032562 
L 399.55171 306.591892 
L 399.744014 306.591892 
L 399.856987 306.032562 
L 400.200682 306.591892 
L 400.40259 306.591892 
L 400.53496 307.151222 
L 400.696852 306.591892 
L 400.870776 306.591892 
L 401.033769 306.032562 
L 401.134732 306.591892 
L 402.04267 306.591892 
L 402.269819 308.269881 
L 402.544454 307.710552 
L 402.771595 307.710552 
L 402.955484 307.151222 
L 403.039093 307.710552 
L 403.323935 307.151222 
L 403.430421 307.710552 
L 403.681355 307.710552 
L 403.779525 308.269881 
L 404.079404 307.710552 
L 404.697348 307.710552 
L 404.926447 308.269881 
L 405.308087 308.269881 
L 405.404314 308.829211 
L 405.566951 308.269881 
L 405.947143 309.388541 
L 406.060267 309.388541 
L 406.228045 309.947871 
L 406.382706 309.947871 
L 406.673713 310.5072 
L 409.040884 310.5072 
L 409.293069 311.06653 
L 409.529536 311.06653 
L 409.577679 309.947871 
L 409.637304 310.5072 
L 410.023098 310.5072 
L 410.111156 311.06653 
L 410.618784 311.06653 
L 410.861216 311.62586 
L 411.186822 311.62586 
L 411.197652 311.06653 
L 411.305893 311.62586 
L 411.405436 311.06653 
L 412.823265 311.06653 
L 413.089115 310.5072 
L 413.830715 311.06653 
L 415.368606 311.06653 
L 415.435152 311.62586 
L 417.048929 311.62586 
L 417.194295 312.18519 
L 418.686711 314.981839 
L 418.828156 314.981839 
L 418.975725 315.541168 
L 419.041443 314.981839 
L 419.359251 315.541168 
L 419.654514 316.100498 
L 420.007633 316.100498 
L 420.126216 316.659828 
L 420.572473 316.659828 
L 421.218825 316.100498 
L 421.251387 317.778488 
L 421.77158 317.778488 
L 421.932807 317.219158 
L 422.049912 317.778488 
L 423.245016 317.778488 
L 423.522448 317.219158 
L 424.804109 317.219158 
L 425.595513 317.778488 
L 427.194196 317.778488 
L 427.981415 318.337817 
L 428.086699 318.897147 
L 430.454237 318.897147 
L 430.676657 318.337817 
L 431.878557 318.337817 
L 432.756156 317.778488 
L 433.395673 317.778488 
L 433.713039 318.337817 
L 433.994799 319.456477 
L 434.162554 319.456477 
L 434.169102 318.897147 
L 436.050804 318.897147 
L 436.252758 319.456477 
L 441.006455 319.456477 
L 441.605842 320.015807 
L 441.836836 320.015807 
L 441.927003 320.575136 
L 442.220785 320.575136 
L 442.344161 320.015807 
L 442.535414 320.575136 
L 443.609243 320.575136 
L 444.0879 321.134466 
L 444.420394 322.253126 
L 447.332416 322.253126 
L 447.844958 321.693796 
L 447.993253 322.253126 
L 448.143268 321.693796 
L 448.311908 322.253126 
L 449.11058 322.253126 
L 449.478808 321.693796 
L 449.665664 322.253126 
L 450.180898 321.134466 
L 450.381707 322.253126 
L 451.628545 322.253126 
L 451.643296 322.812456 
L 453.619264 322.812456 
L 454.580002 323.371785 
L 454.868318 322.812456 
L 455.40399 322.812456 
L 455.533846 323.371785 
L 455.991549 321.693796 
L 456.293742 322.253126 
L 456.700001 321.693796 
L 457.00092 321.693796 
L 457.137583 322.253126 
L 457.967223 322.253126 
L 458.952974 321.693796 
L 459.101349 322.253126 
L 460.082224 322.253126 
L 460.400686 321.693796 
L 465.393009 322.253126 
L 465.766816 321.693796 
L 466.089874 322.253126 
L 466.379358 321.693796 
L 466.411746 322.253126 
L 466.663768 322.812456 
L 466.809723 322.812456 
L 466.943234 323.371785 
L 469.264337 323.371785 
L 469.313796 323.931115 
L 469.602312 323.931115 
L 470.37269 323.371785 
L 470.397197 323.931115 
L 470.693182 323.371785 
L 470.765122 324.490445 
L 470.955634 324.490445 
L 471.342138 325.049775 
L 471.989847 325.049775 
L 472.383141 324.490445 
L 472.825346 325.609104 
L 472.843483 326.168434 
L 473.273054 326.727764 
L 473.588999 326.168434 
L 474.033256 326.168434 
L 474.125609 326.727764 
L 475.137119 326.727764 
L 475.276466 326.168434 
L 475.44706 327.287094 
L 475.587667 327.287094 
L 475.854526 326.727764 
L 476.097222 327.287094 
L 476.638441 327.287094 
L 476.876798 328.405753 
L 478.576751 328.405753 
L 478.779987 328.965083 
L 478.904433 328.965083 
L 479.109207 328.405753 
L 479.162019 328.965083 
L 479.704447 328.965083 
L 479.813546 329.524413 
L 480.10986 329.524413 
L 480.194494 330.643072 
L 480.656805 330.643072 
L 480.830507 332.321062 
L 481.192187 332.321062 
L 481.403716 331.761732 
L 481.517994 332.321062 
L 481.671827 332.321062 
L 481.683575 333.999051 
L 481.97135 333.999051 
L 482.339355 333.439721 
L 482.506305 333.439721 
L 482.648922 333.999051 
L 483.00359 333.999051 
L 483.371111 333.439721 
L 483.408912 334.558381 
L 483.734322 334.558381 
L 483.794306 335.117711 
L 484.021042 335.67704 
L 484.62001 335.67704 
L 484.708046 336.7957 
L 484.965092 336.7957 
L 485.115791 337.35503 
L 485.260396 337.35503 
L 485.778964 337.91436 
L 485.981916 337.35503 
L 486.102779 329.524413 
L 486.233859 328.965083 
L 486.322636 331.202402 
L 486.9621 331.202402 
L 487.224933 330.643072 
L 487.416435 331.761732 
L 487.564591 331.761732 
L 487.944412 332.321062 
L 488.362167 332.321062 
L 488.552784 331.761732 
L 488.702032 332.321062 
L 489.709312 332.321062 
L 489.833338 332.880392 
L 490.292565 331.761732 
L 490.665987 332.321062 
L 490.879973 332.321062 
L 490.962161 332.880392 
L 491.151081 331.761732 
L 491.334724 332.880392 
L 492.096695 332.880392 
L 492.214798 332.321062 
L 492.48622 332.321062 
L 492.528917 332.880392 
L 492.836243 333.439721 
L 492.848237 332.880392 
L 493.426198 332.880392 
L 493.723673 333.439721 
L 495.267355 333.439721 
L 495.383103 333.999051 
L 495.689238 333.439721 
L 495.69946 333.999051 
L 496.139045 334.558381 
L 496.409144 334.558381 
L 496.719962 335.117711 
L 496.875156 335.67704 
L 496.993811 335.67704 
L 497.367187 334.558381 
L 497.440945 335.67704 
L 497.692019 335.117711 
L 497.903348 335.67704 
L 498.846497 335.67704 
L 498.952171 336.23637 
L 499.083875 335.67704 
L 499.540278 336.23637 
L 499.760733 335.67704 
L 499.984154 336.23637 
L 500.118391 335.67704 
L 500.431016 336.7957 
L 500.647017 336.23637 
L 501.38582 336.23637 
L 501.679745 336.7957 
L 502.10892 336.7957 
L 502.45038 335.67704 
L 502.541391 336.23637 
L 502.906235 336.23637 
L 502.998826 337.35503 
L 503.458976 336.23637 
L 503.61967 336.7957 
L 503.990422 336.23637 
L 504.261054 336.23637 
L 504.399702 336.7957 
L 504.593181 336.7957 
L 504.618958 333.439721 
L 504.731107 333.439721 
L 505.165113 333.999051 
L 505.221339 332.880392 
L 505.377164 333.999051 
L 505.520023 333.439721 
L 505.605768 333.999051 
L 505.945925 333.439721 
L 506.354063 333.999051 
L 506.55965 333.999051 
L 506.84186 333.439721 
L 507.243001 333.439721 
L 507.654292 334.558381 
L 507.869734 333.999051 
L 508.305381 333.999051 
L 508.509104 333.439721 
L 508.539096 332.880392 
L 508.792887 333.999051 
L 508.927479 333.439721 
L 509.085791 333.999051 
L 509.32103 333.439721 
L 509.587276 333.439721 
L 509.758317 332.880392 
L 510.082691 332.880392 
L 510.420405 333.999051 
L 510.649561 333.439721 
L 510.928626 334.558381 
L 511.073958 334.558381 
L 511.16518 333.999051 
L 511.449001 333.999051 
L 511.472823 334.558381 
L 512.413701 334.558381 
L 512.56784 335.117711 
L 512.699866 335.117711 
L 512.903389 335.67704 
L 513.078931 335.117711 
L 513.212808 335.67704 
L 513.4124 335.117711 
L 513.524757 335.67704 
L 513.669775 335.117711 
L 513.716497 335.67704 
L 513.877036 336.7957 
L 514.073173 336.23637 
L 514.134899 335.67704 
L 514.341748 336.23637 
L 514.510789 335.67704 
L 514.714535 336.23637 
L 515.048423 336.23637 
L 515.141392 336.7957 
L 515.372053 336.23637 
L 515.977828 337.91436 
L 516.140783 337.91436 
L 516.309336 336.7957 
L 516.389021 337.35503 
L 516.627325 337.35503 
L 516.735747 336.7957 
L 516.930606 336.7957 
L 517.108012 337.35503 
L 517.336083 337.35503 
L 517.718989 339.033019 
L 517.922705 338.473689 
L 520.600585 338.473689 
L 520.725201 339.033019 
L 520.88323 339.033019 
L 521.010315 338.473689 
L 521.265293 339.033019 
L 521.900539 336.7957 
L 522.006806 337.91436 
L 522.554927 336.7957 
L 523.149547 336.7957 
L 523.793472 337.91436 
L 524.931806 337.35503 
L 525.220892 337.91436 
L 525.539369 337.35503 
L 525.766824 338.473689 
L 525.85805 337.35503 
L 526.157888 338.473689 
L 526.484571 337.35503 
L 526.592714 338.473689 
L 526.802202 338.473689 
L 526.91736 337.91436 
L 527.126092 338.473689 
L 527.251358 338.473689 
L 527.36804 337.91436 
L 527.509811 339.592349 
L 527.881618 338.473689 
L 528.229372 338.473689 
L 528.441862 339.033019 
L 528.842878 339.033019 
L 529.169003 338.473689 
L 529.359658 338.473689 
L 529.503787 339.592349 
L 529.683571 339.033019 
L 529.783945 339.592349 
L 530.026305 340.151679 
L 530.17491 340.151679 
L 530.434723 339.033019 
L 530.683166 340.711008 
L 530.995432 340.711008 
L 531.019133 341.829668 
L 531.040941 341.270338 
L 531.204255 340.711008 
L 531.37593 341.829668 
L 531.447537 340.711008 
L 531.706326 340.711008 
L 531.741587 341.270338 
L 532.033153 341.829668 
L 532.207652 341.829668 
L 532.289443 340.711008 
L 532.680726 341.829668 
L 532.744092 340.711008 
L 532.957213 341.829668 
L 533.121158 340.151679 
L 533.619532 341.270338 
L 533.994972 339.592349 
L 534.024004 340.151679 
L 534.261812 339.592349 
L 534.412156 339.592349 
L 534.568235 340.711008 
L 534.754626 339.592349 
L 535.112976 340.711008 
L 535.248933 339.592349 
L 535.396139 340.151679 
L 535.696116 340.151679 
L 535.894218 339.592349 
L 536.273439 339.592349 
L 536.285013 340.151679 
L 536.88186 339.033019 
L 537.198398 340.711008 
L 537.366395 340.711008 
L 537.562195 340.151679 
L 537.61754 341.270338 
L 537.895498 340.151679 
L 538.066652 341.270338 
L 538.239193 340.151679 
L 538.310497 340.711008 
L 538.664361 340.711008 
L 538.876423 341.270338 
L 538.973414 342.388998 
L 539.170866 341.270338 
L 539.49572 341.829668 
L 539.639422 342.388998 
L 539.816979 341.829668 
L 539.968578 344.066987 
L 540.206534 344.066987 
L 540.52122 344.626317 
L 540.559184 343.507657 
L 540.868899 344.626317 
L 541.309762 343.507657 
L 541.428885 345.185647 
L 541.786358 345.744976 
L 542.175706 344.626317 
L 542.422473 344.066987 
L 543.108426 344.626317 
L 543.190587 345.185647 
L 543.447214 345.185647 
L 543.920287 345.744976 
L 544.154664 345.744976 
L 544.446714 346.304306 
L 544.742128 347.982296 
L 545.50058 347.422966 
L 545.744895 347.422966 
L 546.083675 345.744976 
L 546.405717 345.744976 
L 546.488729 345.185647 
L 546.733402 346.304306 
L 546.787912 345.185647 
L 547.055701 345.744976 
L 547.541472 345.744976 
L 547.790754 346.863636 
L 548.019558 345.744976 
L 548.332059 346.863636 
L 548.453889 346.304306 
L 548.62079 346.863636 
L 549.056539 345.744976 
L 549.308391 346.304306 
L 550.045042 346.304306 
L 550.220872 345.744976 
L 550.647525 346.863636 
L 550.820947 345.744976 
L 550.970531 345.744976 
L 551.028696 346.304306 
L 551.240759 346.304306 
L 551.469472 346.863636 
L 551.625974 345.744976 
L 551.868965 346.863636 
L 551.975679 345.744976 
L 552.273645 346.863636 
L 552.456865 346.863636 
L 552.5751 346.304306 
L 552.768855 346.304306 
L 552.823607 345.744976 
L 552.834849 346.304306 
L 553.165619 346.304306 
L 553.277534 345.744976 
L 553.580955 346.863636 
L 553.860368 345.744976 
L 554.339214 346.304306 
L 555.362502 346.304306 
L 555.607902 345.744976 
L 555.868796 346.304306 
L 556.036733 345.744976 
L 556.140471 346.304306 
L 556.867223 346.304306 
L 557.089106 345.744976 
L 557.598563 346.863636 
L 557.722435 346.304306 
L 558.12993 346.863636 
L 558.574971 346.304306 
L 558.811339 346.863636 
L 559.367444 345.744976 
L 559.513357 345.185647 
L 559.755112 345.185647 
L 560.220739 346.863636 
L 560.347393 346.863636 
L 560.508181 345.744976 
L 560.885825 345.744976 
L 561.097642 346.304306 
L 561.258271 346.304306 
L 561.424352 345.744976 
L 561.737926 345.744976 
L 562.166096 346.304306 
L 562.403776 346.304306 
L 562.501077 346.863636 
L 562.729522 345.744976 
L 562.849882 346.863636 
L 562.999523 346.304306 
L 563.09403 346.863636 
L 563.694018 346.863636 
L 563.715735 347.982296 
L 563.715735 347.982296 
" clip-path="url(#p1b81d03ac2)" style="fill: none; stroke-dasharray: 3,1.5; stroke-dashoffset: 0; stroke: #808080; stroke-width: 1.5"/>
   </g>
   <g id="line2d_19">
    <path d="M 38.539265 297.083286 
L 39.874487 296.523956 
L 41.2054 295.405296 
L 44.357133 295.405296 
L 47.832294 294.845967 
L 48.0901 295.405296 
L 48.250885 295.405296 
L 48.360823 294.286637 
L 48.614557 294.845967 
L 48.989838 294.286637 
L 49.72051 294.286637 
L 50.127458 291.489988 
L 50.218234 294.286637 
L 50.429461 290.930658 
L 50.496634 291.489988 
L 50.733331 291.489988 
L 51.111958 290.930658 
L 51.73265 290.930658 
L 52.050424 288.693339 
L 52.544387 288.693339 
L 53.0458 289.811999 
L 53.364776 285.33736 
L 53.435386 285.89669 
L 53.735556 285.33736 
L 54.316201 283.659371 
L 54.710039 284.778031 
L 55.332549 284.778031 
L 55.680439 285.89669 
L 55.915617 285.33736 
L 56.624137 284.778031 
L 56.94207 284.778031 
L 57.287791 283.659371 
L 57.783863 283.659371 
L 58.296919 280.303392 
L 59.676134 278.625403 
L 59.863958 278.066073 
L 60.2618 278.066073 
L 60.512673 277.506743 
L 60.912389 277.506743 
L 61.206662 278.625403 
L 61.506419 279.184733 
L 61.840633 279.184733 
L 62.03635 278.625403 
L 64.423205 278.625403 
L 64.80472 278.066073 
L 65.422225 278.066073 
L 65.76395 277.506743 
L 66.091412 277.506743 
L 66.218561 278.066073 
L 67.027312 277.506743 
L 67.366273 278.066073 
L 68.300823 278.066073 
L 68.600868 277.506743 
L 68.969757 278.066073 
L 70.670735 278.066073 
L 71.019242 277.506743 
L 71.210536 275.828754 
L 71.676125 276.947414 
L 72.331832 276.947414 
L 72.63819 275.828754 
L 72.758747 276.947414 
L 73.295882 275.269424 
L 73.620661 275.269424 
L 73.936091 274.710095 
L 74.288162 274.710095 
L 74.611421 275.269424 
L 74.920312 274.150765 
L 75.194546 274.150765 
L 75.940127 273.032105 
L 79.854647 273.032105 
L 80.165825 271.913446 
L 80.829024 271.913446 
L 81.123384 269.116797 
L 82.110659 269.116797 
L 83.055703 266.879478 
L 84.060189 266.879478 
L 84.419964 266.320148 
L 90.488758 266.320148 
L 91.217347 264.642159 
L 91.382395 266.320148 
L 92.551072 266.320148 
L 92.86843 265.201488 
L 93.21857 266.320148 
L 94.051642 266.320148 
L 94.511791 265.201488 
L 94.853391 266.320148 
L 100.012395 266.320148 
L 100.294322 261.28618 
L 100.489786 266.320148 
L 102.359415 266.320148 
L 102.698815 265.760818 
L 102.89254 260.72685 
L 103.35016 265.760818 
L 103.673366 265.760818 
L 103.887916 266.320148 
L 107.273034 266.320148 
L 107.44446 265.760818 
L 107.752096 265.760818 
L 108.258737 264.082829 
L 113.365159 264.082829 
L 114.479617 263.523499 
L 121.33811 263.523499 
L 121.623703 260.72685 
L 121.988638 260.72685 
L 122.312245 263.523499 
L 122.645185 263.523499 
L 122.874598 260.72685 
L 123.123237 263.523499 
L 123.536437 260.72685 
L 123.902449 259.60819 
L 128.146507 259.60819 
L 128.512822 259.048861 
L 130.119935 259.048861 
L 130.450312 257.930201 
L 130.849771 255.692882 
L 131.135119 255.133552 
L 131.457652 251.777574 
L 131.855841 251.777574 
L 132.389745 250.658914 
L 132.758211 250.658914 
L 133.394632 249.540254 
L 136.065795 244.506286 
L 136.33854 245.624946 
L 138.248363 245.624946 
L 138.620957 243.387627 
L 138.949519 243.946957 
L 140.264865 243.946957 
L 140.505358 245.065616 
L 140.928364 243.946957 
L 141.883651 243.946957 
L 142.208763 242.828297 
L 142.52236 242.828297 
L 142.893763 242.268967 
L 143.043634 242.268967 
L 143.211132 240.590978 
L 143.43819 240.590978 
L 144.200879 240.031648 
L 144.831063 241.709638 
L 144.985161 241.709638 
L 145.479173 241.150308 
L 145.796134 240.031648 
L 147.434135 240.031648 
L 147.750393 239.472318 
L 148.090008 239.472318 
L 148.404433 238.912989 
L 148.698978 238.912989 
L 149.3834 238.353659 
L 149.736873 238.353659 
L 150.089357 236.67567 
L 150.664109 236.67567 
L 151.023298 236.11634 
L 151.246489 236.11634 
L 151.371094 246.184276 
L 151.465454 245.624946 
L 152.005598 245.624946 
L 152.325618 244.506286 
L 152.753008 244.506286 
L 152.973156 243.946957 
L 153.457276 243.946957 
L 153.50545 243.387627 
L 154.26809 243.387627 
L 154.677551 241.709638 
L 155.528473 240.031648 
L 156.91156 240.031648 
L 157.210584 238.912989 
L 157.323179 239.472318 
L 157.453568 239.472318 
L 157.815154 240.031648 
L 159.131063 239.472318 
L 162.423308 239.472318 
L 162.804796 240.031648 
L 164.398229 240.031648 
L 164.625011 240.590978 
L 165.040422 240.031648 
L 167.609003 240.031648 
L 167.993194 239.472318 
L 168.530258 239.472318 
L 168.965406 238.912989 
L 169.184359 239.472318 
L 171.281999 239.472318 
L 171.944 238.353659 
L 173.352886 238.353659 
L 173.59009 230.523042 
L 173.857494 230.523042 
L 176.136334 228.845053 
L 176.27637 229.404382 
L 176.422461 228.845053 
L 176.801662 229.404382 
L 177.119742 229.404382 
L 177.454523 228.845053 
L 177.705926 228.845053 
L 178.109543 227.726393 
L 178.275537 227.726393 
L 178.429158 228.285723 
L 178.77348 227.167063 
L 181.062678 227.167063 
L 181.285381 226.607734 
L 181.656675 226.607734 
L 182.001257 226.048404 
L 182.358995 226.607734 
L 182.516846 226.607734 
L 183.007157 227.167063 
L 183.374508 224.370414 
L 183.63603 226.048404 
L 183.977112 226.048404 
L 184.250503 222.692425 
L 184.44179 223.251755 
L 184.645423 222.133095 
L 184.747985 222.692425 
L 184.873516 221.014436 
L 185.19896 221.014436 
L 185.611306 220.455106 
L 186.418911 221.014436 
L 186.602804 219.895776 
L 186.903336 219.895776 
L 187.116162 221.573766 
L 187.838597 219.895776 
L 188.556945 219.336446 
L 189.187821 219.336446 
L 189.518772 217.658457 
L 189.822976 217.658457 
L 190.003168 218.217787 
L 190.319429 218.217787 
L 191.542623 214.861808 
L 191.746623 217.099127 
L 192.1393 217.658457 
L 192.599865 214.861808 
L 193.83784 214.861808 
L 193.94382 214.302478 
L 194.437102 213.743149 
L 195.752074 213.743149 
L 196.353979 210.9465 
L 199.736387 210.9465 
L 200.003477 209.82784 
L 200.354758 212.065159 
L 200.559268 210.38717 
L 204.246775 210.38717 
L 204.554872 209.82784 
L 205.297855 206.471861 
L 205.576599 208.149851 
L 205.908787 207.590521 
L 206.276614 208.149851 
L 206.535456 208.149851 
L 206.927661 202.556553 
L 207.137965 202.556553 
L 207.178783 201.997223 
L 207.840569 201.997223 
L 208.213057 200.878564 
L 208.541457 199.200574 
L 209.529348 198.641245 
L 209.591857 199.200574 
L 210.128236 199.759904 
L 210.207903 199.200574 
L 212.792429 199.200574 
L 212.972265 198.641245 
L 213.454593 198.081915 
L 214.098665 196.963255 
L 214.266186 195.844596 
L 214.49256 195.844596 
L 214.746154 194.725936 
L 215.051484 195.285266 
L 215.393368 195.285266 
L 215.650977 195.844596 
L 216.014143 195.285266 
L 216.338207 195.285266 
L 216.648803 194.725936 
L 216.900231 194.725936 
L 217.373513 195.285266 
L 217.619559 194.725936 
L 217.874216 195.285266 
L 218.303806 198.081915 
L 218.613725 198.641245 
L 219.32508 197.522585 
L 219.429083 193.607277 
L 219.587649 193.607277 
L 219.877786 193.047947 
L 220.214858 193.607277 
L 220.522603 193.607277 
L 220.901702 194.166606 
L 221.230061 193.047947 
L 222.415143 193.047947 
L 222.886115 192.488617 
L 223.155269 192.488617 
L 223.176154 191.929287 
L 224.519009 191.929287 
L 224.901314 190.810628 
L 226.780215 190.810628 
L 227.154767 189.691968 
L 230.75374 189.691968 
L 230.969287 189.132638 
L 231.550624 189.132638 
L 232.039786 188.573309 
L 232.36746 187.454649 
L 232.465442 188.013979 
L 232.821599 186.895319 
L 233.613902 186.895319 
L 236.822862 185.77666 
L 244.754866 185.77666 
L 245.077963 186.335989 
L 246.628751 186.335989 
L 246.9502 185.77666 
L 248.015429 185.77666 
L 248.383082 185.21733 
L 248.647446 185.77666 
L 248.954258 185.21733 
L 249.293738 185.77666 
L 249.572364 184.658 
L 249.999101 185.21733 
L 250.310472 184.658 
L 257.078743 184.658 
L 257.428365 185.77666 
L 257.798751 185.21733 
L 258.133728 185.77666 
L 258.508938 185.21733 
L 258.809845 185.77666 
L 260.065673 185.77666 
L 260.384551 185.21733 
L 260.744738 185.77666 
L 261.072888 184.658 
L 261.723568 184.658 
L 262.090681 185.21733 
L 262.365395 184.09867 
L 262.718785 184.09867 
L 262.99181 184.658 
L 263.853532 183.539341 
L 264.357644 184.09867 
L 264.657149 183.539341 
L 265.294345 183.539341 
L 265.653976 184.09867 
L 266.007113 182.420681 
L 266.347005 182.980011 
L 266.999541 182.980011 
L 267.248282 183.539341 
L 267.566404 182.980011 
L 267.913576 182.980011 
L 268.2234 187.454649 
L 268.346489 186.895319 
L 268.589961 186.895319 
L 268.759568 186.335989 
L 268.907387 186.335989 
L 269.102004 185.77666 
L 269.233893 186.895319 
L 269.885019 185.77666 
L 270.44445 185.77666 
L 270.716507 184.658 
L 270.986133 185.77666 
L 271.161676 185.21733 
L 272.151393 185.21733 
L 272.446029 185.77666 
L 272.725453 185.77666 
L 273.076579 185.21733 
L 273.401263 185.21733 
L 273.78615 185.77666 
L 274.157572 185.21733 
L 274.445759 185.21733 
L 274.899274 184.09867 
L 276.749291 184.09867 
L 277.053593 184.658 
L 278.487409 184.658 
L 278.816705 184.09867 
L 279.075735 183.539341 
L 279.582895 183.539341 
L 279.74112 182.420681 
L 279.813703 182.980011 
L 279.98531 182.420681 
L 280.468004 182.420681 
L 280.704629 181.302021 
L 281.34891 181.302021 
L 281.64965 180.183362 
L 282.64424 180.183362 
L 282.88276 178.505373 
L 283.102855 177.946043 
L 283.229871 177.946043 
L 283.658332 177.386713 
L 283.809133 177.946043 
L 283.882214 177.386713 
L 284.036837 177.386713 
L 284.217846 176.827383 
L 284.353311 176.827383 
L 284.906573 176.268053 
L 286.147806 176.268053 
L 286.467927 176.827383 
L 286.774659 176.268053 
L 287.120425 176.268053 
L 287.286136 175.708724 
L 287.325993 176.268053 
L 287.522674 175.708724 
L 287.676503 175.708724 
L 287.828416 174.590064 
L 288.413374 173.471405 
L 288.839328 174.030734 
L 289.163177 173.471405 
L 289.799833 173.471405 
L 290.145376 172.352745 
L 290.271874 172.912075 
L 290.477378 171.234085 
L 290.768581 171.793415 
L 290.957441 171.234085 
L 291.106772 171.793415 
L 291.27179 170.674756 
L 291.608136 170.674756 
L 291.707754 170.115426 
L 292.102364 170.674756 
L 292.407561 169.556096 
L 293.096129 169.556096 
L 293.344001 168.437437 
L 293.695585 169.556096 
L 293.93444 169.556096 
L 294.022011 168.996766 
L 294.664636 168.996766 
L 294.965233 166.759447 
L 295.397537 168.996766 
L 295.464563 168.437437 
L 296.033781 168.996766 
L 296.087682 167.878107 
L 296.28346 167.878107 
L 296.677963 167.318777 
L 296.998122 167.878107 
L 297.239995 167.878107 
L 297.597918 166.759447 
L 297.98731 166.759447 
L 298.364924 167.318777 
L 298.647142 166.759447 
L 298.81862 167.318777 
L 298.989173 166.200117 
L 300.500425 166.200117 
L 300.964907 165.640788 
L 301.913265 165.640788 
L 302.249758 166.759447 
L 302.883953 166.759447 
L 303.201364 166.200117 
L 306.088925 166.200117 
L 306.47862 166.759447 
L 306.843911 165.640788 
L 311.275377 165.640788 
L 312.24752 165.081458 
L 312.824918 165.081458 
L 313.293845 164.522128 
L 313.664424 164.522128 
L 313.882187 163.403468 
L 314.227435 163.962798 
L 318.814851 163.962798 
L 319.215489 164.522128 
L 319.533123 163.962798 
L 319.846921 164.522128 
L 320.06003 166.759447 
L 322.008717 166.759447 
L 322.330093 165.640788 
L 322.781155 166.759447 
L 324.648228 166.759447 
L 324.928065 165.640788 
L 325.033822 166.759447 
L 325.513148 166.759447 
L 325.734714 165.640788 
L 326.014006 166.759447 
L 326.222526 165.640788 
L 326.370526 165.640788 
L 326.561412 166.759447 
L 326.728358 165.640788 
L 326.835344 166.759447 
L 326.878434 165.640788 
L 328.026618 165.640788 
L 328.402486 163.962798 
L 328.82029 163.962798 
L 328.85475 163.403468 
L 329.191632 163.403468 
L 329.366071 162.844139 
L 329.514797 163.403468 
L 329.69751 162.844139 
L 329.821072 163.403468 
L 330.110869 162.844139 
L 330.233428 163.403468 
L 330.250235 162.844139 
L 330.617574 162.844139 
L 330.847736 162.284809 
L 330.992901 162.284809 
L 331.210289 161.166149 
L 331.4515 160.60682 
L 331.618091 161.166149 
L 333.473609 161.166149 
L 333.738914 160.60682 
L 335.160963 160.60682 
L 335.387806 160.04749 
L 335.68765 160.04749 
L 335.91015 159.48816 
L 336.032785 160.04749 
L 336.621142 160.04749 
L 336.819694 158.92883 
L 337.360122 158.92883 
L 337.41202 158.3695 
L 337.48743 158.92883 
L 337.787293 158.92883 
L 337.813395 158.3695 
L 338.031366 157.810171 
L 338.092287 158.3695 
L 338.339368 156.132181 
L 339.340048 156.132181 
L 339.440649 155.572852 
L 339.659871 155.572852 
L 339.78829 154.454192 
L 339.939004 155.572852 
L 341.267445 155.572852 
L 341.344314 155.013522 
L 341.599122 155.572852 
L 341.721122 155.013522 
L 341.946687 155.572852 
L 342.239686 155.572852 
L 342.419364 154.454192 
L 342.746895 154.454192 
L 342.881245 155.013522 
L 342.996354 153.894862 
L 343.336306 155.572852 
L 343.692551 154.454192 
L 343.950617 155.572852 
L 344.554729 155.572852 
L 345.024881 153.894862 
L 345.171176 154.454192 
L 345.33319 153.894862 
L 345.770352 155.013522 
L 345.910334 153.894862 
L 346.947814 153.894862 
L 347.115043 153.335532 
L 347.406466 153.335532 
L 347.561819 153.894862 
L 347.757887 153.335532 
L 347.881864 153.894862 
L 348.259535 152.776203 
L 348.775162 152.776203 
L 349.138815 151.657543 
L 349.770572 152.776203 
L 349.905583 152.216873 
L 350.071679 152.776203 
L 350.177009 152.216873 
L 350.38833 152.216873 
L 350.476895 152.776203 
L 350.886084 151.657543 
L 351.096729 152.216873 
L 351.200952 151.657543 
L 351.415713 152.216873 
L 351.70094 152.216873 
L 351.884912 151.657543 
L 352.005876 152.216873 
L 352.125087 152.216873 
L 352.390986 152.776203 
L 352.510102 151.657543 
L 353.050035 151.657543 
L 353.08643 150.538884 
L 355.395694 150.538884 
L 355.623508 149.979554 
L 355.773039 150.538884 
L 355.899723 149.979554 
L 355.99595 150.538884 
L 356.111377 149.420224 
L 356.643198 149.420224 
L 356.894067 148.860894 
L 356.94491 149.420224 
L 356.997 148.860894 
L 357.283475 149.420224 
L 357.357513 148.860894 
L 357.637667 148.301564 
L 357.747397 147.742235 
L 357.956877 147.742235 
L 358.005044 147.182905 
L 358.296708 145.504916 
L 358.427985 146.064245 
L 358.605164 146.064245 
L 358.637084 144.945586 
L 359.881923 144.945586 
L 360.036538 144.386256 
L 360.280411 144.945586 
L 361.000569 143.267596 
L 361.227718 143.267596 
L 361.362892 142.708267 
L 361.677741 142.708267 
L 361.68546 142.148937 
L 361.782515 142.708267 
L 361.875552 141.589607 
L 362.013062 141.589607 
L 362.203411 141.030277 
L 363.509179 141.030277 
L 363.543638 141.589607 
L 363.625841 140.470948 
L 363.970197 140.470948 
L 364.146061 141.030277 
L 364.281435 140.470948 
L 364.485249 141.030277 
L 364.637956 140.470948 
L 364.809525 140.470948 
L 364.956951 141.030277 
L 365.103129 139.352288 
L 366.853037 139.352288 
L 367.379271 138.233628 
L 367.656272 138.792958 
L 374.266651 138.792958 
L 374.378883 138.233628 
L 374.57962 138.792958 
L 374.637475 138.233628 
L 375.237293 138.233628 
L 375.403385 137.674299 
L 376.245231 137.674299 
L 376.357713 137.114969 
L 376.516264 137.674299 
L 377.805844 137.674299 
L 377.984717 137.114969 
L 378.209976 137.674299 
L 378.334354 137.674299 
L 378.532566 136.555639 
L 378.641604 137.114969 
L 379.124899 137.114969 
L 379.33548 136.555639 
L 380.32669 136.555639 
L 380.488155 137.674299 
L 380.815326 136.555639 
L 382.575679 136.555639 
L 382.756166 135.996309 
L 382.917408 135.996309 
L 383.09106 135.43698 
L 383.220855 135.43698 
L 383.381522 134.87765 
L 383.757439 134.87765 
L 383.824033 134.31832 
L 384.137415 134.31832 
L 384.335366 135.43698 
L 384.489936 134.87765 
L 384.726539 134.87765 
L 384.823016 134.31832 
L 385.18498 134.31832 
L 385.508722 133.75899 
L 385.861746 132.081001 
L 385.977328 132.640331 
L 386.084949 132.081001 
L 386.33197 131.521671 
L 386.449105 132.081001 
L 386.763518 131.521671 
L 386.971457 132.081001 
L 387.141283 132.081001 
L 387.473993 130.403012 
L 387.674945 130.962341 
L 387.794647 130.962341 
L 387.951788 130.403012 
L 387.993108 129.843682 
L 388.126725 129.843682 
L 388.191933 130.403012 
L 388.407764 129.843682 
L 388.557216 130.403012 
L 388.680426 129.843682 
L 389.212496 129.843682 
L 389.410602 133.19966 
L 389.939693 132.081001 
L 390.289035 132.081001 
L 390.411229 131.521671 
L 390.601555 132.081001 
L 390.723722 132.081001 
L 390.868278 132.640331 
L 391.034491 132.081001 
L 391.262804 132.081001 
L 391.375142 132.640331 
L 391.517869 132.081001 
L 391.712528 132.640331 
L 391.789038 132.081001 
L 392.193646 131.521671 
L 392.3491 131.521671 
L 392.490962 132.081001 
L 392.760312 131.521671 
L 393.860099 131.521671 
L 393.956962 128.725022 
L 394.2409 130.962341 
L 394.539024 131.521671 
L 395.075276 131.521671 
L 395.486393 130.403012 
L 395.627407 132.081001 
L 395.864751 131.521671 
L 396.167314 132.081001 
L 396.30572 130.403012 
L 396.472825 131.521671 
L 396.630752 131.521671 
L 396.735927 130.962341 
L 396.828506 126.487703 
L 397.150023 128.725022 
L 397.176695 125.928373 
L 398.036088 125.928373 
L 398.442616 124.809714 
L 398.610315 125.369044 
L 399.212356 125.369044 
L 399.376391 125.928373 
L 399.55171 125.369044 
L 399.744014 125.369044 
L 399.856987 125.928373 
L 400.200682 125.369044 
L 400.40259 125.369044 
L 400.53496 124.809714 
L 400.696852 125.369044 
L 400.870776 125.369044 
L 401.033769 125.928373 
L 401.134732 125.369044 
L 402.04267 125.369044 
L 402.269819 123.691054 
L 402.544454 124.250384 
L 402.771595 124.250384 
L 402.955484 124.809714 
L 403.039093 124.250384 
L 403.323935 124.809714 
L 403.430421 124.250384 
L 403.681355 124.250384 
L 403.779525 123.691054 
L 404.079404 124.250384 
L 404.697348 124.250384 
L 404.926447 123.691054 
L 405.308087 123.691054 
L 405.404314 123.131724 
L 405.566951 123.691054 
L 405.947143 122.572395 
L 406.060267 122.572395 
L 406.228045 122.013065 
L 406.382706 122.013065 
L 406.673713 121.453735 
L 409.040884 121.453735 
L 409.293069 120.894405 
L 409.529536 120.894405 
L 409.577679 122.013065 
L 409.637304 121.453735 
L 410.023098 121.453735 
L 410.111156 120.894405 
L 410.618784 120.894405 
L 410.861216 120.335075 
L 411.186822 120.335075 
L 411.197652 120.894405 
L 411.305893 120.335075 
L 411.405436 120.894405 
L 412.823265 120.894405 
L 413.089115 121.453735 
L 413.830715 120.894405 
L 415.368606 120.894405 
L 415.435152 120.335075 
L 417.048929 120.335075 
L 417.194295 119.775746 
L 418.686711 116.979097 
L 418.828156 116.979097 
L 418.975725 116.419767 
L 419.041443 116.979097 
L 419.359251 116.419767 
L 419.654514 115.860437 
L 420.007633 115.860437 
L 420.126216 115.301107 
L 420.572473 115.301107 
L 421.218825 115.860437 
L 421.251387 114.182448 
L 421.77158 114.182448 
L 421.932807 114.741778 
L 422.049912 114.182448 
L 422.92207 114.182448 
L 423.245016 114.741778 
L 424.804109 114.741778 
L 425.595513 114.182448 
L 427.194196 114.182448 
L 427.981415 113.623118 
L 428.086699 113.063788 
L 430.454237 113.063788 
L 430.676657 113.623118 
L 431.878557 113.623118 
L 432.756156 114.182448 
L 433.395673 114.182448 
L 433.713039 113.623118 
L 433.994799 112.504459 
L 434.162554 112.504459 
L 434.169102 113.063788 
L 436.050804 113.063788 
L 436.252758 112.504459 
L 441.006455 112.504459 
L 441.605842 111.945129 
L 441.836836 111.945129 
L 441.927003 110.826469 
L 442.220785 110.826469 
L 442.344161 111.385799 
L 442.535414 110.826469 
L 443.609243 110.826469 
L 444.0879 110.267139 
L 444.420394 109.14848 
L 447.332416 109.14848 
L 447.844958 109.70781 
L 447.993253 109.14848 
L 448.143268 109.70781 
L 448.311908 109.14848 
L 449.11058 109.14848 
L 449.478808 109.70781 
L 449.665664 109.14848 
L 450.180898 110.267139 
L 450.381707 109.14848 
L 451.628545 109.14848 
L 451.643296 108.58915 
L 453.619264 108.58915 
L 454.580002 108.02982 
L 454.868318 108.58915 
L 455.078286 108.02982 
L 455.21417 108.58915 
L 455.40399 108.58915 
L 455.533846 108.02982 
L 455.991549 109.14848 
L 456.293742 108.58915 
L 456.700001 109.14848 
L 457.00092 109.14848 
L 457.137583 108.58915 
L 457.967223 108.58915 
L 458.952974 109.14848 
L 459.101349 108.58915 
L 460.082224 108.58915 
L 460.400686 109.14848 
L 465.393009 108.58915 
L 465.766816 109.14848 
L 466.089874 108.58915 
L 466.379358 109.14848 
L 466.411746 108.58915 
L 466.663768 108.02982 
L 466.809723 108.02982 
L 466.943234 107.470491 
L 469.264337 107.470491 
L 469.313796 106.911161 
L 469.602312 106.911161 
L 470.37269 107.470491 
L 470.397197 106.911161 
L 470.693182 107.470491 
L 470.765122 106.351831 
L 470.955634 106.351831 
L 471.342138 105.792501 
L 471.989847 105.792501 
L 472.383141 106.351831 
L 472.825346 105.233171 
L 472.843483 104.673842 
L 473.273054 104.114512 
L 473.588999 104.673842 
L 474.033256 104.673842 
L 474.125609 104.114512 
L 475.137119 104.114512 
L 475.276466 104.673842 
L 475.44706 103.555182 
L 475.587667 103.555182 
L 475.854526 104.114512 
L 476.097222 103.555182 
L 476.638441 103.555182 
L 476.876798 101.877193 
L 478.576751 101.877193 
L 478.779987 101.317863 
L 478.904433 101.317863 
L 479.109207 101.877193 
L 479.162019 101.317863 
L 479.704447 101.317863 
L 479.813546 100.758533 
L 480.10986 100.199203 
L 480.194494 99.080544 
L 480.656805 99.080544 
L 480.830507 97.402555 
L 481.192187 97.402555 
L 481.403716 97.961884 
L 481.517994 97.402555 
L 481.671827 97.402555 
L 481.683575 95.724565 
L 482.506305 95.724565 
L 482.648922 95.165235 
L 483.00359 95.165235 
L 483.371111 95.724565 
L 483.408912 94.605906 
L 483.734322 94.605906 
L 483.794306 94.046576 
L 484.021042 93.487246 
L 484.62001 93.487246 
L 484.708046 92.368587 
L 484.965092 92.368587 
L 485.115791 91.809257 
L 485.260396 91.809257 
L 485.778964 91.249927 
L 485.981916 91.809257 
L 486.102779 97.961884 
L 486.233859 98.521214 
L 486.322636 96.283895 
L 486.9621 96.283895 
L 487.224933 96.843225 
L 487.416435 95.724565 
L 488.362167 95.724565 
L 488.552784 96.283895 
L 488.702032 95.724565 
L 489.709312 95.724565 
L 489.833338 95.165235 
L 490.292565 96.283895 
L 490.665987 95.724565 
L 490.879973 95.724565 
L 490.962161 95.165235 
L 491.151081 96.283895 
L 491.334724 95.165235 
L 492.096695 95.165235 
L 492.214798 95.724565 
L 492.48622 95.724565 
L 492.528917 95.165235 
L 492.836243 94.605906 
L 492.848237 95.165235 
L 493.095848 94.605906 
L 493.426198 94.605906 
L 493.723673 94.046576 
L 495.267355 94.046576 
L 495.383103 93.487246 
L 495.689238 94.046576 
L 495.69946 93.487246 
L 496.139045 92.927916 
L 496.409144 92.927916 
L 496.719962 92.368587 
L 496.875156 91.809257 
L 496.993811 91.809257 
L 497.367187 92.927916 
L 497.440945 91.809257 
L 497.692019 92.368587 
L 497.903348 91.809257 
L 498.846497 91.809257 
L 498.952171 91.249927 
L 499.083875 91.809257 
L 499.540278 91.249927 
L 499.760733 91.809257 
L 499.984154 91.249927 
L 500.118391 91.809257 
L 500.431016 90.690597 
L 500.647017 91.249927 
L 501.38582 91.249927 
L 501.679745 90.690597 
L 502.10892 90.690597 
L 502.45038 91.809257 
L 502.541391 91.249927 
L 502.906235 91.249927 
L 502.998826 90.131267 
L 503.458976 91.249927 
L 503.61967 90.690597 
L 503.990422 91.249927 
L 504.261054 91.249927 
L 504.399702 90.690597 
L 504.731107 90.690597 
L 505.165113 90.131267 
L 505.221339 91.249927 
L 505.377164 90.131267 
L 505.520023 90.690597 
L 505.605768 90.131267 
L 505.945925 90.690597 
L 506.354063 90.131267 
L 506.55965 90.131267 
L 506.84186 90.690597 
L 507.243001 90.690597 
L 507.654292 89.571938 
L 507.869734 90.131267 
L 508.305381 90.131267 
L 508.509104 90.690597 
L 508.539096 91.249927 
L 508.792887 90.131267 
L 508.927479 90.690597 
L 509.085791 90.131267 
L 509.32103 90.690597 
L 509.587276 90.690597 
L 509.758317 91.249927 
L 510.082691 91.249927 
L 510.420405 90.131267 
L 510.649561 90.690597 
L 510.928626 89.571938 
L 511.073958 89.571938 
L 511.16518 90.131267 
L 511.449001 90.131267 
L 511.472823 89.571938 
L 512.413701 89.571938 
L 512.56784 89.012608 
L 512.699866 89.012608 
L 512.903389 88.453278 
L 513.078931 89.012608 
L 513.212808 88.453278 
L 513.4124 88.453278 
L 513.524757 87.893948 
L 513.669775 88.453278 
L 513.716497 87.893948 
L 513.877036 86.775289 
L 514.073173 87.334619 
L 514.134899 87.893948 
L 514.341748 87.334619 
L 514.510789 87.893948 
L 514.714535 87.334619 
L 515.048423 87.334619 
L 515.141392 86.775289 
L 515.372053 87.334619 
L 515.977828 85.656629 
L 516.140783 85.656629 
L 516.309336 86.775289 
L 516.389021 86.215959 
L 516.627325 86.215959 
L 516.735747 86.775289 
L 516.930606 86.775289 
L 517.108012 86.215959 
L 517.336083 86.215959 
L 517.718989 84.53797 
L 517.922705 85.097299 
L 520.600585 85.097299 
L 520.725201 84.53797 
L 520.88323 84.53797 
L 521.010315 85.097299 
L 521.265293 84.53797 
L 521.900539 84.53797 
L 522.006806 83.41931 
L 522.554927 84.53797 
L 523.149547 84.53797 
L 523.793472 83.41931 
L 524.931806 83.97864 
L 525.220892 83.41931 
L 525.539369 83.97864 
L 525.766824 82.85998 
L 525.85805 83.97864 
L 526.157888 82.85998 
L 526.484571 83.97864 
L 526.592714 82.85998 
L 526.802202 82.85998 
L 526.91736 83.41931 
L 527.126092 82.85998 
L 527.251358 82.85998 
L 527.36804 83.41931 
L 527.509811 81.741321 
L 527.881618 82.85998 
L 528.229372 82.85998 
L 528.441862 82.300651 
L 528.842878 82.300651 
L 529.169003 82.85998 
L 529.359658 82.85998 
L 529.503787 81.741321 
L 529.683571 82.85998 
L 529.783945 82.300651 
L 530.026305 81.741321 
L 530.17491 81.741321 
L 530.434723 82.85998 
L 530.683166 81.181991 
L 530.995432 81.181991 
L 531.019133 80.063331 
L 531.040941 80.622661 
L 531.204255 81.181991 
L 531.37593 80.063331 
L 531.447537 81.181991 
L 531.706326 81.181991 
L 531.741587 80.622661 
L 532.033153 80.063331 
L 532.207652 80.063331 
L 532.289443 81.181991 
L 532.680726 80.063331 
L 532.744092 81.181991 
L 532.957213 80.063331 
L 533.121158 81.741321 
L 533.619532 80.622661 
L 533.994972 82.300651 
L 534.024004 81.741321 
L 534.261812 82.300651 
L 534.412156 82.300651 
L 534.568235 81.181991 
L 534.754626 82.300651 
L 535.112976 81.181991 
L 535.248933 82.300651 
L 535.396139 81.741321 
L 535.696116 81.741321 
L 535.894218 82.300651 
L 536.273439 82.300651 
L 536.285013 81.741321 
L 536.88186 82.85998 
L 537.198398 81.181991 
L 537.366395 81.181991 
L 537.562195 81.741321 
L 537.61754 80.622661 
L 537.895498 81.741321 
L 538.066652 80.622661 
L 538.239193 81.741321 
L 538.310497 81.181991 
L 538.664361 81.181991 
L 538.876423 80.622661 
L 538.973414 79.504002 
L 539.170866 80.622661 
L 539.49572 80.063331 
L 539.639422 79.504002 
L 539.816979 80.063331 
L 539.968578 77.826012 
L 540.206534 77.826012 
L 540.52122 77.266683 
L 540.559184 78.385342 
L 540.868899 77.266683 
L 541.309762 78.385342 
L 541.428885 76.707353 
L 541.786358 76.148023 
L 542.175706 77.266683 
L 542.422473 77.826012 
L 543.108426 77.266683 
L 543.190587 76.707353 
L 544.154664 76.707353 
L 544.446714 76.148023 
L 544.742128 74.470034 
L 545.50058 75.029363 
L 546.083675 75.029363 
L 546.405717 74.470034 
L 546.488729 75.029363 
L 546.733402 73.910704 
L 546.787912 75.029363 
L 547.055701 74.470034 
L 547.541472 74.470034 
L 547.790754 73.351374 
L 548.019558 74.470034 
L 548.332059 73.351374 
L 548.453889 73.910704 
L 548.62079 73.351374 
L 549.056539 73.910704 
L 549.308391 73.351374 
L 550.045042 73.351374 
L 550.220872 73.910704 
L 550.647525 72.792044 
L 550.820947 73.910704 
L 550.970531 73.910704 
L 551.028696 73.351374 
L 551.240759 73.351374 
L 551.469472 72.792044 
L 551.625974 73.910704 
L 551.868965 72.792044 
L 551.975679 73.910704 
L 552.273645 72.792044 
L 552.456865 72.792044 
L 552.5751 73.351374 
L 552.768855 73.351374 
L 552.823607 73.910704 
L 552.834849 73.351374 
L 553.165619 73.351374 
L 553.277534 73.910704 
L 553.580955 72.792044 
L 553.860368 73.910704 
L 554.339214 73.351374 
L 555.362502 73.351374 
L 555.607902 73.910704 
L 555.868796 73.351374 
L 556.036733 73.910704 
L 556.140471 73.351374 
L 556.867223 73.351374 
L 557.089106 73.910704 
L 557.598563 72.792044 
L 557.722435 73.351374 
L 558.12993 72.792044 
L 558.574971 73.351374 
L 558.811339 72.792044 
L 559.367444 73.910704 
L 559.513357 74.470034 
L 559.755112 74.470034 
L 560.220739 72.792044 
L 560.347393 72.792044 
L 560.508181 73.910704 
L 560.885825 73.910704 
L 561.097642 73.351374 
L 561.258271 73.351374 
L 561.424352 73.910704 
L 561.737926 73.910704 
L 562.166096 73.351374 
L 562.403776 73.351374 
L 562.501077 72.792044 
L 562.729522 73.910704 
L 562.849882 72.792044 
L 562.999523 73.351374 
L 563.09403 72.792044 
L 563.694018 72.792044 
L 563.715735 71.673385 
L 563.715735 71.673385 
" clip-path="url(#p1b81d03ac2)" style="fill: none; stroke-dasharray: 6,1.5; stroke-dashoffset: 0; stroke: #008000; stroke-width: 1.5"/>
   </g>
   <g id="line2d_20">
    <path d="M 38.539265 361.96554 
L 39.874487 363.0842 
L 41.2054 363.0842 
L 42.492766 362.52487 
L 44.357133 362.52487 
L 48.250885 361.96554 
L 48.360823 362.52487 
L 51.73265 362.52487 
L 52.050424 363.643529 
L 52.753474 363.643529 
L 53.0458 360.287551 
L 53.435386 363.643529 
L 55.332549 363.643529 
L 55.680439 360.287551 
L 58.296919 360.287551 
L 59.676134 360.846881 
L 59.863958 361.40621 
L 60.912389 361.40621 
L 61.206662 359.728221 
L 64.423205 359.728221 
L 64.80472 360.287551 
L 74.611421 360.287551 
L 74.920312 359.728221 
L 80.829024 359.728221 
L 81.123384 361.96554 
L 130.119935 361.96554 
L 130.450312 363.0842 
L 130.849771 366.440178 
L 131.135119 366.440178 
L 131.457652 366.999508 
L 133.394632 366.999508 
L 136.065795 368.677497 
L 136.33854 368.677497 
L 136.795862 369.236827 
L 150.297764 369.236827 
L 151.023298 370.355487 
L 181.656675 370.355487 
L 182.001257 370.914817 
L 182.358995 370.355487 
L 184.44179 370.355487 
L 184.747985 370.914817 
L 190.319429 370.914817 
L 191.542623 372.033476 
L 191.746623 370.914817 
L 192.1393 370.914817 
L 192.462971 372.033476 
L 200.003477 372.033476 
L 200.354758 371.474146 
L 200.559268 372.033476 
L 218.303806 372.033476 
L 218.613725 373.152136 
L 258.133728 373.152136 
L 258.508938 373.711465 
L 349.138815 373.711465 
L 349.501252 373.152136 
L 360.280411 373.152136 
L 360.702842 373.711465 
L 360.815743 374.830125 
L 389.212496 374.830125 
L 389.410602 374.270795 
L 392.193646 374.270795 
L 392.3491 374.830125 
L 504.593181 374.830125 
L 504.618958 374.270795 
L 513.212808 374.270795 
L 513.524757 374.830125 
L 545.744895 374.830125 
L 546.083675 374.270795 
L 563.715735 374.270795 
L 563.715735 374.270795 
" clip-path="url(#p1b81d03ac2)" style="fill: none; stroke-dasharray: 9,3; stroke-dashoffset: 0; stroke: #ffa500; stroke-width: 1.5"/>
   </g>
   <g id="line2d_21">
    <path d="M 38.539265 323.371785 
L 48.250885 323.371785 
L 48.360823 323.931115 
L 51.73265 323.931115 
L 52.050424 324.490445 
L 52.753474 324.490445 
L 53.0458 325.609104 
L 53.435386 324.490445 
L 55.332549 324.490445 
L 55.915617 326.168434 
L 57.287791 326.168434 
L 57.596934 326.727764 
L 57.783863 326.168434 
L 57.940224 326.727764 
L 72.331832 326.727764 
L 72.63819 327.846424 
L 72.758747 326.727764 
L 73.295882 327.846424 
L 90.488758 327.846424 
L 91.217347 328.405753 
L 91.382395 327.846424 
L 92.551072 327.846424 
L 92.86843 328.405753 
L 93.21857 327.846424 
L 94.051642 327.846424 
L 94.511791 328.405753 
L 94.853391 327.846424 
L 121.33811 327.846424 
L 121.623703 328.405753 
L 121.988638 328.405753 
L 122.312245 327.846424 
L 122.645185 327.846424 
L 122.874598 328.405753 
L 123.123237 327.846424 
L 123.536437 328.405753 
L 130.450312 328.405753 
L 130.849771 327.846424 
L 131.135119 327.846424 
L 131.457652 328.965083 
L 133.02981 328.965083 
L 133.394632 331.761732 
L 136.065795 329.524413 
L 136.33854 330.083743 
L 138.248363 330.083743 
L 138.620957 332.880392 
L 138.949519 333.439721 
L 153.75066 333.439721 
L 154.26809 332.880392 
L 154.677551 333.439721 
L 155.59083 332.880392 
L 157.815154 332.880392 
L 159.131063 333.439721 
L 164.625011 333.439721 
L 165.040422 333.999051 
L 199.736387 333.999051 
L 200.003477 334.558381 
L 200.354758 333.999051 
L 206.535456 333.999051 
L 206.927661 341.270338 
L 207.840569 341.270338 
L 208.213057 345.744976 
L 208.541457 347.422966 
L 228.430218 347.422966 
L 231.227543 347.982296 
L 260.744738 347.982296 
L 261.072888 350.219615 
L 267.913576 350.219615 
L 268.2234 346.863636 
L 284.036837 346.863636 
L 284.217846 347.422966 
L 313.664424 347.422966 
L 313.882187 347.982296 
L 314.227435 347.422966 
L 322.182584 347.422966 
L 322.330093 347.982296 
L 322.631064 347.422966 
L 324.648228 347.422966 
L 324.928065 347.982296 
L 325.033822 347.422966 
L 328.026618 347.422966 
L 328.235607 347.982296 
L 337.604092 347.982296 
L 337.787293 347.422966 
L 349.501252 347.422966 
L 349.770572 346.863636 
L 349.905583 347.422966 
L 350.071679 346.863636 
L 350.177009 347.422966 
L 350.38833 347.422966 
L 350.476895 346.863636 
L 350.713876 347.422966 
L 352.125087 347.422966 
L 352.390986 346.863636 
L 352.510102 347.422966 
L 360.702842 347.422966 
L 360.815743 346.863636 
L 389.212496 346.863636 
L 389.410602 347.422966 
L 393.860099 347.422966 
L 393.956962 350.219615 
L 394.2409 347.422966 
L 396.814418 347.422966 
L 396.828506 350.219615 
L 397.150023 347.422966 
L 397.176695 350.219615 
L 422.92207 350.219615 
L 423.245016 349.660285 
L 423.522448 350.219615 
L 454.868318 350.219615 
L 455.078286 350.778944 
L 455.21417 350.219615 
L 455.533846 350.219615 
L 455.991549 350.778944 
L 476.638441 350.778944 
L 476.876798 351.338274 
L 479.813546 351.338274 
L 480.10986 351.897604 
L 485.981916 351.897604 
L 486.102779 351.338274 
L 492.848237 351.338274 
L 493.095848 351.897604 
L 504.593181 351.897604 
L 504.618958 355.812913 
L 513.212808 355.812913 
L 513.524757 355.253583 
L 521.265293 355.253583 
L 522.006806 357.490902 
L 529.503787 357.490902 
L 529.783945 356.931572 
L 543.447214 356.931572 
L 543.920287 356.372242 
L 545.744895 356.372242 
L 546.083675 358.609561 
L 546.488729 359.168891 
L 548.62079 359.168891 
L 549.056539 359.728221 
L 563.715735 359.728221 
L 563.715735 359.728221 
" clip-path="url(#p1b81d03ac2)" style="fill: none; stroke-dasharray: 12,4.5; stroke-dashoffset: 0; stroke: #ee82ee; stroke-width: 1.5"/>
   </g>
   <g id="patch_3">
    <path d="M 33.2875 374.830125 
L 33.2875 22.318125 
" style="fill: none; stroke: #000000; stroke-width: 0.8; stroke-linejoin: miter; stroke-linecap: square"/>
   </g>
   <g id="patch_4">
    <path d="M 568.9675 374.830125 
L 568.9675 22.318125 
" style="fill: none; stroke: #000000; stroke-width: 0.8; stroke-linejoin: miter; stroke-linecap: square"/>
   </g>
   <g id="patch_5">
    <path d="M 33.2875 374.830125 
L 568.9675 374.830125 
" style="fill: none; stroke: #000000; stroke-width: 0.8; stroke-linejoin: miter; stroke-linecap: square"/>
   </g>
   <g id="patch_6">
    <path d="M 33.2875 22.318125 
L 568.9675 22.318125 
" style="fill: none; stroke: #000000; stroke-width: 0.8; stroke-linejoin: miter; stroke-linecap: square"/>
   </g>
   <g id="text_17">
    <!-- Rust/Coreutils running GNU's testsuite -->
    <g transform="translate(186.090625 16.318125) scale(0.12 -0.12)">
     <defs>
      <path id="DejaVuSans-52" d="M 2841 2188 
Q 3044 2119 3236 1894 
Q 3428 1669 3622 1275 
L 4263 0 
L 3584 0 
L 2988 1197 
Q 2756 1666 2539 1819 
Q 2322 1972 1947 1972 
L 1259 1972 
L 1259 0 
L 628 0 
L 628 4666 
L 2053 4666 
Q 2853 4666 3247 4331 
Q 3641 3997 3641 3322 
Q 3641 2881 3436 2590 
Q 3231 2300 2841 2188 
z
M 1259 4147 
L 1259 2491 
L 2053 2491 
Q 2509 2491 2742 2702 
Q 2975 2913 2975 3322 
Q 2975 3731 2742 3939 
Q 2509 4147 2053 4147 
L 1259 4147 
z
" transform="scale(0.015625)"/>
      <path id="DejaVuSans-75" d="M 544 1381 
L 544 3500 
L 1119 3500 
L 1119 1403 
Q 1119 906 1312 657 
Q 1506 409 1894 409 
Q 2359 409 2629 706 
Q 2900 1003 2900 1516 
L 2900 3500 
L 3475 3500 
L 3475 0 
L 2900 0 
L 2900 538 
Q 2691 219 2414 64 
Q 2138 -91 1772 -91 
Q 1169 -91 856 284 
Q 544 659 544 1381 
z
M 1991 3584 
L 1991 3584 
z
" transform="scale(0.015625)"/>
      <path id="DejaVuSans-73" d="M 2834 3397 
L 2834 2853 
Q 2591 2978 2328 3040 
Q 2066 3103 1784 3103 
Q 1356 3103 1142 2972 
Q 928 2841 928 2578 
Q 928 2378 1081 2264 
Q 1234 2150 1697 2047 
L 1894 2003 
Q 2506 1872 2764 1633 
Q 3022 1394 3022 966 
Q 3022 478 2636 193 
Q 2250 -91 1575 -91 
Q 1294 -91 989 -36 
Q 684 19 347 128 
L 347 722 
Q 666 556 975 473 
Q 1284 391 1588 391 
Q 1994 391 2212 530 
Q 2431 669 2431 922 
Q 2431 1156 2273 1281 
Q 2116 1406 1581 1522 
L 1381 1569 
Q 847 1681 609 1914 
Q 372 2147 372 2553 
Q 372 3047 722 3315 
Q 1072 3584 1716 3584 
Q 2034 3584 2315 3537 
Q 2597 3491 2834 3397 
z
" transform="scale(0.015625)"/>
      <path id="DejaVuSans-74" d="M 1172 4494 
L 1172 3500 
L 2356 3500 
L 2356 3053 
L 1172 3053 
L 1172 1153 
Q 1172 725 1289 603 
Q 1406 481 1766 481 
L 2356 481 
L 2356 0 
L 1766 0 
Q 1100 0 847 248 
Q 594 497 594 1153 
L 594 3053 
L 172 3053 
L 172 3500 
L 594 3500 
L 594 4494 
L 1172 4494 
z
" transform="scale(0.015625)"/>
      <path id="DejaVuSans-2f" d="M 1625 4666 
L 2156 4666 
L 531 -594 
L 0 -594 
L 1625 4666 
z
" transform="scale(0.015625)"/>
      <path id="DejaVuSans-43" d="M 4122 4306 
L 4122 3641 
Q 3803 3938 3442 4084 
Q 3081 4231 2675 4231 
Q 1875 4231 1450 3742 
Q 1025 3253 1025 2328 
Q 1025 1406 1450 917 
Q 1875 428 2675 428 
Q 3081 428 3442 575 
Q 3803 722 4122 1019 
L 4122 359 
Q 3791 134 3420 21 
Q 3050 -91 2638 -91 
Q 1578 -91 968 557 
Q 359 1206 359 2328 
Q 359 3453 968 4101 
Q 1578 4750 2638 4750 
Q 3056 4750 3426 4639 
Q 3797 4528 4122 4306 
z
" transform="scale(0.015625)"/>
      <path id="DejaVuSans-6f" d="M 1959 3097 
Q 1497 3097 1228 2736 
Q 959 2375 959 1747 
Q 959 1119 1226 758 
Q 1494 397 1959 397 
Q 2419 397 2687 759 
Q 2956 1122 2956 1747 
Q 2956 2369 2687 2733 
Q 2419 3097 1959 3097 
z
M 1959 3584 
Q 2709 3584 3137 3096 
Q 3566 2609 3566 1747 
Q 3566 888 3137 398 
Q 2709 -91 1959 -91 
Q 1206 -91 779 398 
Q 353 888 353 1747 
Q 353 2609 779 3096 
Q 1206 3584 1959 3584 
z
" transform="scale(0.015625)"/>
      <path id="DejaVuSans-72" d="M 2631 2963 
Q 2534 3019 2420 3045 
Q 2306 3072 2169 3072 
Q 1681 3072 1420 2755 
Q 1159 2438 1159 1844 
L 1159 0 
L 581 0 
L 581 3500 
L 1159 3500 
L 1159 2956 
Q 1341 3275 1631 3429 
Q 1922 3584 2338 3584 
Q 2397 3584 2469 3576 
Q 2541 3569 2628 3553 
L 2631 2963 
z
" transform="scale(0.015625)"/>
      <path id="DejaVuSans-65" d="M 3597 1894 
L 3597 1613 
L 953 1613 
Q 991 1019 1311 708 
Q 1631 397 2203 397 
Q 2534 397 2845 478 
Q 3156 559 3463 722 
L 3463 178 
Q 3153 47 2828 -22 
Q 2503 -91 2169 -91 
Q 1331 -91 842 396 
Q 353 884 353 1716 
Q 353 2575 817 3079 
Q 1281 3584 2069 3584 
Q 2775 3584 3186 3129 
Q 3597 2675 3597 1894 
z
M 3022 2063 
Q 3016 2534 2758 2815 
Q 2500 3097 2075 3097 
Q 1594 3097 1305 2825 
Q 1016 2553 972 2059 
L 3022 2063 
z
" transform="scale(0.015625)"/>
      <path id="DejaVuSans-69" d="M 603 3500 
L 1178 3500 
L 1178 0 
L 603 0 
L 603 3500 
z
M 603 4863 
L 1178 4863 
L 1178 4134 
L 603 4134 
L 603 4863 
z
" transform="scale(0.015625)"/>
      <path id="DejaVuSans-6c" d="M 603 4863 
L 1178 4863 
L 1178 0 
L 603 0 
L 603 4863 
z
" transform="scale(0.015625)"/>
      <path id="DejaVuSans-20" transform="scale(0.015625)"/>
      <path id="DejaVuSans-6e" d="M 3513 2113 
L 3513 0 
L 2938 0 
L 2938 2094 
Q 2938 2591 2744 2837 
Q 2550 3084 2163 3084 
Q 1697 3084 1428 2787 
Q 1159 2491 1159 1978 
L 1159 0 
L 581 0 
L 581 3500 
L 1159 3500 
L 1159 2956 
Q 1366 3272 1645 3428 
Q 1925 3584 2291 3584 
Q 2894 3584 3203 3211 
Q 3513 2838 3513 2113 
z
" transform="scale(0.015625)"/>
      <path id="DejaVuSans-67" d="M 2906 1791 
Q 2906 2416 2648 2759 
Q 2391 3103 1925 3103 
Q 1463 3103 1205 2759 
Q 947 2416 947 1791 
Q 947 1169 1205 825 
Q 1463 481 1925 481 
Q 2391 481 2648 825 
Q 2906 1169 2906 1791 
z
M 3481 434 
Q 3481 -459 3084 -895 
Q 2688 -1331 1869 -1331 
Q 1566 -1331 1297 -1286 
Q 1028 -1241 775 -1147 
L 775 -588 
Q 1028 -725 1275 -790 
Q 1522 -856 1778 -856 
Q 2344 -856 2625 -561 
Q 2906 -266 2906 331 
L 2906 616 
Q 2728 306 2450 153 
Q 2172 0 1784 0 
Q 1141 0 747 490 
Q 353 981 353 1791 
Q 353 2603 747 3093 
Q 1141 3584 1784 3584 
Q 2172 3584 2450 3431 
Q 2728 3278 2906 2969 
L 2906 3500 
L 3481 3500 
L 3481 434 
z
" transform="scale(0.015625)"/>
      <path id="DejaVuSans-47" d="M 3809 666 
L 3809 1919 
L 2778 1919 
L 2778 2438 
L 4434 2438 
L 4434 434 
Q 4069 175 3628 42 
Q 3188 -91 2688 -91 
Q 1594 -91 976 548 
Q 359 1188 359 2328 
Q 359 3472 976 4111 
Q 1594 4750 2688 4750 
Q 3144 4750 3555 4637 
Q 3966 4525 4313 4306 
L 4313 3634 
Q 3963 3931 3569 4081 
Q 3175 4231 2741 4231 
Q 1884 4231 1454 3753 
Q 1025 3275 1025 2328 
Q 1025 1384 1454 906 
Q 1884 428 2741 428 
Q 3075 428 3337 486 
Q 3600 544 3809 666 
z
" transform="scale(0.015625)"/>
      <path id="DejaVuSans-4e" d="M 628 4666 
L 1478 4666 
L 3547 763 
L 3547 4666 
L 4159 4666 
L 4159 0 
L 3309 0 
L 1241 3903 
L 1241 0 
L 628 0 
L 628 4666 
z
" transform="scale(0.015625)"/>
      <path id="DejaVuSans-55" d="M 556 4666 
L 1191 4666 
L 1191 1831 
Q 1191 1081 1462 751 
Q 1734 422 2344 422 
Q 2950 422 3222 751 
Q 3494 1081 3494 1831 
L 3494 4666 
L 4128 4666 
L 4128 1753 
Q 4128 841 3676 375 
Q 3225 -91 2344 -91 
Q 1459 -91 1007 375 
Q 556 841 556 1753 
L 556 4666 
z
" transform="scale(0.015625)"/>
      <path id="DejaVuSans-27" d="M 1147 4666 
L 1147 2931 
L 616 2931 
L 616 4666 
L 1147 4666 
z
" transform="scale(0.015625)"/>
     </defs>
     <use xlink:href="#DejaVuSans-52"/>
     <use xlink:href="#DejaVuSans-75" x="64.982422"/>
     <use xlink:href="#DejaVuSans-73" x="128.361328"/>
     <use xlink:href="#DejaVuSans-74" x="180.460938"/>
     <use xlink:href="#DejaVuSans-2f" x="219.669922"/>
     <use xlink:href="#DejaVuSans-43" x="253.361328"/>
     <use xlink:href="#DejaVuSans-6f" x="323.185547"/>
     <use xlink:href="#DejaVuSans-72" x="384.367188"/>
     <use xlink:href="#DejaVuSans-65" x="423.230469"/>
     <use xlink:href="#DejaVuSans-75" x="484.753906"/>
     <use xlink:href="#DejaVuSans-74" x="548.132812"/>
     <use xlink:href="#DejaVuSans-69" x="587.341797"/>
     <use xlink:href="#DejaVuSans-6c" x="615.125"/>
     <use xlink:href="#DejaVuSans-73" x="642.908203"/>
     <use xlink:href="#DejaVuSans-20" x="695.007812"/>
     <use xlink:href="#DejaVuSans-72" x="726.794922"/>
     <use xlink:href="#DejaVuSans-75" x="767.908203"/>
     <use xlink:href="#DejaVuSans-6e" x="831.287109"/>
     <use xlink:href="#DejaVuSans-6e" x="894.666016"/>
     <use xlink:href="#DejaVuSans-69" x="958.044922"/>
     <use xlink:href="#DejaVuSans-6e" x="985.828125"/>
     <use xlink:href="#DejaVuSans-67" x="1049.207031"/>
     <use xlink:href="#DejaVuSans-20" x="1112.683594"/>
     <use xlink:href="#DejaVuSans-47" x="1144.470703"/>
     <use xlink:href="#DejaVuSans-4e" x="1221.960938"/>
     <use xlink:href="#DejaVuSans-55" x="1296.765625"/>
     <use xlink:href="#DejaVuSans-27" x="1369.958984"/>
     <use xlink:href="#DejaVuSans-73" x="1397.449219"/>
     <use xlink:href="#DejaVuSans-20" x="1449.548828"/>
     <use xlink:href="#DejaVuSans-74" x="1481.335938"/>
     <use xlink:href="#DejaVuSans-65" x="1520.544922"/>
     <use xlink:href="#DejaVuSans-73" x="1582.068359"/>
     <use xlink:href="#DejaVuSans-74" x="1634.167969"/>
     <use xlink:href="#DejaVuSans-73" x="1673.376953"/>
     <use xlink:href="#DejaVuSans-75" x="1725.476562"/>
     <use xlink:href="#DejaVuSans-69" x="1788.855469"/>
     <use xlink:href="#DejaVuSans-74" x="1816.638672"/>
     <use xlink:href="#DejaVuSans-65" x="1855.847656"/>
    </g>
   </g>
   <g id="legend_1">
    <g id="patch_7">
     <path d="M 505.762812 236.769437 
L 561.9675 236.769437 
Q 563.9675 236.769437 563.9675 234.769437 
L 563.9675 162.378812 
Q 563.9675 160.378812 561.9675 160.378812 
L 505.762812 160.378812 
Q 503.762812 160.378812 503.762812 162.378812 
L 503.762812 234.769437 
Q 503.762812 236.769437 505.762812 236.769437 
z
" style="fill: #ffffff; opacity: 0.8; stroke: #cccccc; stroke-linejoin: miter"/>
    </g>
    <g id="line2d_22">
     <path d="M 507.762812 168.47725 
L 517.762812 168.47725 
L 527.762812 168.47725 
" style="fill: none; stroke: #0000ff; stroke-width: 1.5; stroke-linecap: square"/>
    </g>
    <g id="text_18">
     <!-- total -->
     <g transform="translate(535.762812 171.97725) scale(0.1 -0.1)">
      <defs>
       <path id="DejaVuSans-61" d="M 2194 1759 
Q 1497 1759 1228 1600 
Q 959 1441 959 1056 
Q 959 750 1161 570 
Q 1363 391 1709 391 
Q 2188 391 2477 730 
Q 2766 1069 2766 1631 
L 2766 1759 
L 2194 1759 
z
M 3341 1997 
L 3341 0 
L 2766 0 
L 2766 531 
Q 2569 213 2275 61 
Q 1981 -91 1556 -91 
Q 1019 -91 701 211 
Q 384 513 384 1019 
Q 384 1609 779 1909 
Q 1175 2209 1959 2209 
L 2766 2209 
L 2766 2266 
Q 2766 2663 2505 2880 
Q 2244 3097 1772 3097 
Q 1472 3097 1187 3025 
Q 903 2953 641 2809 
L 641 3341 
Q 956 3463 1253 3523 
Q 1550 3584 1831 3584 
Q 2591 3584 2966 3190 
Q 3341 2797 3341 1997 
z
" transform="scale(0.015625)"/>
      </defs>
      <use xlink:href="#DejaVuSans-74"/>
      <use xlink:href="#DejaVuSans-6f" x="39.208984"/>
      <use xlink:href="#DejaVuSans-74" x="100.390625"/>
      <use xlink:href="#DejaVuSans-61" x="139.599609"/>
      <use xlink:href="#DejaVuSans-6c" x="200.878906"/>
     </g>
    </g>
    <g id="line2d_23">
     <path d="M 507.762812 183.155375 
L 517.762812 183.155375 
L 527.762812 183.155375 
" style="fill: none; stroke-dasharray: 3,1.5; stroke-dashoffset: 0; stroke: #808080; stroke-width: 1.5"/>
    </g>
    <g id="text_19">
     <!-- fail -->
     <g transform="translate(535.762812 186.655375) scale(0.1 -0.1)">
      <defs>
       <path id="DejaVuSans-66" d="M 2375 4863 
L 2375 4384 
L 1825 4384 
Q 1516 4384 1395 4259 
Q 1275 4134 1275 3809 
L 1275 3500 
L 2222 3500 
L 2222 3053 
L 1275 3053 
L 1275 0 
L 697 0 
L 697 3053 
L 147 3053 
L 147 3500 
L 697 3500 
L 697 3744 
Q 697 4328 969 4595 
Q 1241 4863 1831 4863 
L 2375 4863 
z
" transform="scale(0.015625)"/>
      </defs>
      <use xlink:href="#DejaVuSans-66"/>
      <use xlink:href="#DejaVuSans-61" x="35.205078"/>
      <use xlink:href="#DejaVuSans-69" x="96.484375"/>
      <use xlink:href="#DejaVuSans-6c" x="124.267578"/>
     </g>
    </g>
    <g id="line2d_24">
     <path d="M 507.762812 197.8335 
L 517.762812 197.8335 
L 527.762812 197.8335 
" style="fill: none; stroke-dasharray: 6,1.5; stroke-dashoffset: 0; stroke: #008000; stroke-width: 1.5"/>
    </g>
    <g id="text_20">
     <!-- pass -->
     <g transform="translate(535.762812 201.3335) scale(0.1 -0.1)">
      <defs>
       <path id="DejaVuSans-70" d="M 1159 525 
L 1159 -1331 
L 581 -1331 
L 581 3500 
L 1159 3500 
L 1159 2969 
Q 1341 3281 1617 3432 
Q 1894 3584 2278 3584 
Q 2916 3584 3314 3078 
Q 3713 2572 3713 1747 
Q 3713 922 3314 415 
Q 2916 -91 2278 -91 
Q 1894 -91 1617 61 
Q 1341 213 1159 525 
z
M 3116 1747 
Q 3116 2381 2855 2742 
Q 2594 3103 2138 3103 
Q 1681 3103 1420 2742 
Q 1159 2381 1159 1747 
Q 1159 1113 1420 752 
Q 1681 391 2138 391 
Q 2594 391 2855 752 
Q 3116 1113 3116 1747 
z
" transform="scale(0.015625)"/>
      </defs>
      <use xlink:href="#DejaVuSans-70"/>
      <use xlink:href="#DejaVuSans-61" x="63.476562"/>
      <use xlink:href="#DejaVuSans-73" x="124.755859"/>
      <use xlink:href="#DejaVuSans-73" x="176.855469"/>
     </g>
    </g>
    <g id="line2d_25">
     <path d="M 507.762812 212.511625 
L 517.762812 212.511625 
L 527.762812 212.511625 
" style="fill: none; stroke-dasharray: 9,3; stroke-dashoffset: 0; stroke: #ffa500; stroke-width: 1.5"/>
    </g>
    <g id="text_21">
     <!-- error -->
     <g transform="translate(535.762812 216.011625) scale(0.1 -0.1)">
      <use xlink:href="#DejaVuSans-65"/>
      <use xlink:href="#DejaVuSans-72" x="61.523438"/>
      <use xlink:href="#DejaVuSans-72" x="100.886719"/>
      <use xlink:href="#DejaVuSans-6f" x="139.75"/>
      <use xlink:href="#DejaVuSans-72" x="200.931641"/>
     </g>
    </g>
    <g id="line2d_26">
     <path d="M 507.762812 227.18975 
L 517.762812 227.18975 
L 527.762812 227.18975 
" style="fill: none; stroke-dasharray: 12,4.5; stroke-dashoffset: 0; stroke: #ee82ee; stroke-width: 1.5"/>
    </g>
    <g id="text_22">
     <!-- skip -->
     <g transform="translate(535.762812 230.68975) scale(0.1 -0.1)">
      <defs>
       <path id="DejaVuSans-6b" d="M 581 4863 
L 1159 4863 
L 1159 1991 
L 2875 3500 
L 3609 3500 
L 1753 1863 
L 3688 0 
L 2938 0 
L 1159 1709 
L 1159 0 
L 581 0 
L 581 4863 
z
" transform="scale(0.015625)"/>
      </defs>
      <use xlink:href="#DejaVuSans-73"/>
      <use xlink:href="#DejaVuSans-6b" x="52.099609"/>
      <use xlink:href="#DejaVuSans-69" x="110.009766"/>
      <use xlink:href="#DejaVuSans-70" x="137.792969"/>
     </g>
    </g>
   </g>
  </g>
 </g>
 <defs>
  <clipPath id="p1b81d03ac2">
   <rect x="33.2875" y="22.318125" width="535.68" height="352.512"/>
  </clipPath>
 </defs>
</svg>
