<?xml version="1.0" encoding="utf-8" standalone="no"?>
<!DOCTYPE svg PUBLIC "-//W3C//DTD SVG 1.1//EN"
  "http://www.w3.org/Graphics/SVG/1.1/DTD/svg11.dtd">
<svg xmlns:xlink="http://www.w3.org/1999/xlink" width="576.1675pt" height="418.303033pt" viewBox="0 0 576.1675 418.303033" xmlns="http://www.w3.org/2000/svg" version="1.1">
 <metadata>
  <rdf:RDF xmlns:dc="http://purl.org/dc/elements/1.1/" xmlns:cc="http://creativecommons.org/ns#" xmlns:rdf="http://www.w3.org/1999/02/22-rdf-syntax-ns#">
   <cc:Work>
    <dc:type rdf:resource="http://purl.org/dc/dcmitype/StillImage"/>
    <dc:date>2025-11-17T14:03:44.509366</dc:date>
    <dc:format>image/svg+xml</dc:format>
    <dc:creator>
     <cc:Agent>
      <dc:title>Matplotlib v3.6.3, https://matplotlib.org/</dc:title>
     </cc:Agent>
    </dc:creator>
   </cc:Work>
  </rdf:RDF>
 </metadata>
 <defs>
  <style type="text/css">*{stroke-linejoin: round; stroke-linecap: butt}</style>
 </defs>
 <g id="figure_1">
  <g id="patch_1">
   <path d="M -0 418.303033 
L 576.1675 418.303033 
L 576.1675 0 
L -0 0 
z
" style="fill: #ffffff"/>
  </g>
  <g id="axes_1">
   <g id="patch_2">
    <path d="M 33.2875 374.830125 
L 568.9675 374.830125 
L 568.9675 22.318125 
L 33.2875 22.318125 
z
" style="fill: #ffffff"/>
   </g>
   <g id="matplotlib.axis_1">
    <g id="xtick_1">
     <g id="line2d_1">
      <defs>
       <path id="mf26ef971ec" d="M 0 0 
L 0 3.5 
" style="stroke: #000000; stroke-width: 0.8"/>
      </defs>
      <g>
       <use xlink:href="#mf26ef971ec" x="60.972046" y="374.830125" style="stroke: #000000; stroke-width: 0.8"/>
      </g>
     </g>
     <g id="text_1">
      <!-- 2021-07 -->
      <g transform="translate(23.747226 409.301971) rotate(-30) scale(0.1 -0.1)">
       <defs>
        <path id="DejaVuSans-32" d="M 1228 531 
L 3431 531 
L 3431 0 
L 469 0 
L 469 531 
Q 828 903 1448 1529 
Q 2069 2156 2228 2338 
Q 2531 2678 2651 2914 
Q 2772 3150 2772 3378 
Q 2772 3750 2511 3984 
Q 2250 4219 1831 4219 
Q 1534 4219 1204 4116 
Q 875 4013 500 3803 
L 500 4441 
Q 881 4594 1212 4672 
Q 1544 4750 1819 4750 
Q 2544 4750 2975 4387 
Q 3406 4025 3406 3419 
Q 3406 3131 3298 2873 
Q 3191 2616 2906 2266 
Q 2828 2175 2409 1742 
Q 1991 1309 1228 531 
z
" transform="scale(0.015625)"/>
        <path id="DejaVuSans-30" d="M 2034 4250 
Q 1547 4250 1301 3770 
Q 1056 3291 1056 2328 
Q 1056 1369 1301 889 
Q 1547 409 2034 409 
Q 2525 409 2770 889 
Q 3016 1369 3016 2328 
Q 3016 3291 2770 3770 
Q 2525 4250 2034 4250 
z
M 2034 4750 
Q 2819 4750 3233 4129 
Q 3647 3509 3647 2328 
Q 3647 1150 3233 529 
Q 2819 -91 2034 -91 
Q 1250 -91 836 529 
Q 422 1150 422 2328 
Q 422 3509 836 4129 
Q 1250 4750 2034 4750 
z
" transform="scale(0.015625)"/>
        <path id="DejaVuSans-31" d="M 794 531 
L 1825 531 
L 1825 4091 
L 703 3866 
L 703 4441 
L 1819 4666 
L 2450 4666 
L 2450 531 
L 3481 531 
L 3481 0 
L 794 0 
L 794 531 
z
" transform="scale(0.015625)"/>
        <path id="DejaVuSans-2d" d="M 313 2009 
L 1997 2009 
L 1997 1497 
L 313 1497 
L 313 2009 
z
" transform="scale(0.015625)"/>
        <path id="DejaVuSans-37" d="M 525 4666 
L 3525 4666 
L 3525 4397 
L 1831 0 
L 1172 0 
L 2766 4134 
L 525 4134 
L 525 4666 
z
" transform="scale(0.015625)"/>
       </defs>
       <use xlink:href="#DejaVuSans-32"/>
       <use xlink:href="#DejaVuSans-30" x="63.623047"/>
       <use xlink:href="#DejaVuSans-32" x="127.246094"/>
       <use xlink:href="#DejaVuSans-31" x="190.869141"/>
       <use xlink:href="#DejaVuSans-2d" x="254.492188"/>
       <use xlink:href="#DejaVuSans-30" x="290.576172"/>
       <use xlink:href="#DejaVuSans-37" x="354.199219"/>
      </g>
     </g>
    </g>
    <g id="xtick_2">
     <g id="line2d_2">
      <g>
       <use xlink:href="#mf26ef971ec" x="118.772019" y="374.830125" style="stroke: #000000; stroke-width: 0.8"/>
      </g>
     </g>
     <g id="text_2">
      <!-- 2022-01 -->
      <g transform="translate(81.547198 409.301971) rotate(-30) scale(0.1 -0.1)">
       <use xlink:href="#DejaVuSans-32"/>
       <use xlink:href="#DejaVuSans-30" x="63.623047"/>
       <use xlink:href="#DejaVuSans-32" x="127.246094"/>
       <use xlink:href="#DejaVuSans-32" x="190.869141"/>
       <use xlink:href="#DejaVuSans-2d" x="254.492188"/>
       <use xlink:href="#DejaVuSans-30" x="290.576172"/>
       <use xlink:href="#DejaVuSans-31" x="354.199219"/>
      </g>
     </g>
    </g>
    <g id="xtick_3">
     <g id="line2d_3">
      <g>
       <use xlink:href="#mf26ef971ec" x="175.629601" y="374.830125" style="stroke: #000000; stroke-width: 0.8"/>
      </g>
     </g>
     <g id="text_3">
      <!-- 2022-07 -->
      <g transform="translate(138.40478 409.301971) rotate(-30) scale(0.1 -0.1)">
       <use xlink:href="#DejaVuSans-32"/>
       <use xlink:href="#DejaVuSans-30" x="63.623047"/>
       <use xlink:href="#DejaVuSans-32" x="127.246094"/>
       <use xlink:href="#DejaVuSans-32" x="190.869141"/>
       <use xlink:href="#DejaVuSans-2d" x="254.492188"/>
       <use xlink:href="#DejaVuSans-30" x="290.576172"/>
       <use xlink:href="#DejaVuSans-37" x="354.199219"/>
      </g>
     </g>
    </g>
    <g id="xtick_4">
     <g id="line2d_4">
      <g>
       <use xlink:href="#mf26ef971ec" x="233.429573" y="374.830125" style="stroke: #000000; stroke-width: 0.8"/>
      </g>
     </g>
     <g id="text_4">
      <!-- 2023-01 -->
      <g transform="translate(196.204752 409.301971) rotate(-30) scale(0.1 -0.1)">
       <defs>
        <path id="DejaVuSans-33" d="M 2597 2516 
Q 3050 2419 3304 2112 
Q 3559 1806 3559 1356 
Q 3559 666 3084 287 
Q 2609 -91 1734 -91 
Q 1441 -91 1130 -33 
Q 819 25 488 141 
L 488 750 
Q 750 597 1062 519 
Q 1375 441 1716 441 
Q 2309 441 2620 675 
Q 2931 909 2931 1356 
Q 2931 1769 2642 2001 
Q 2353 2234 1838 2234 
L 1294 2234 
L 1294 2753 
L 1863 2753 
Q 2328 2753 2575 2939 
Q 2822 3125 2822 3475 
Q 2822 3834 2567 4026 
Q 2313 4219 1838 4219 
Q 1578 4219 1281 4162 
Q 984 4106 628 3988 
L 628 4550 
Q 988 4650 1302 4700 
Q 1616 4750 1894 4750 
Q 2613 4750 3031 4423 
Q 3450 4097 3450 3541 
Q 3450 3153 3228 2886 
Q 3006 2619 2597 2516 
z
" transform="scale(0.015625)"/>
       </defs>
       <use xlink:href="#DejaVuSans-32"/>
       <use xlink:href="#DejaVuSans-30" x="63.623047"/>
       <use xlink:href="#DejaVuSans-32" x="127.246094"/>
       <use xlink:href="#DejaVuSans-33" x="190.869141"/>
       <use xlink:href="#DejaVuSans-2d" x="254.492188"/>
       <use xlink:href="#DejaVuSans-30" x="290.576172"/>
       <use xlink:href="#DejaVuSans-31" x="354.199219"/>
      </g>
     </g>
    </g>
    <g id="xtick_5">
     <g id="line2d_5">
      <g>
       <use xlink:href="#mf26ef971ec" x="290.287155" y="374.830125" style="stroke: #000000; stroke-width: 0.8"/>
      </g>
     </g>
     <g id="text_5">
      <!-- 2023-07 -->
      <g transform="translate(253.062334 409.301971) rotate(-30) scale(0.1 -0.1)">
       <use xlink:href="#DejaVuSans-32"/>
       <use xlink:href="#DejaVuSans-30" x="63.623047"/>
       <use xlink:href="#DejaVuSans-32" x="127.246094"/>
       <use xlink:href="#DejaVuSans-33" x="190.869141"/>
       <use xlink:href="#DejaVuSans-2d" x="254.492188"/>
       <use xlink:href="#DejaVuSans-30" x="290.576172"/>
       <use xlink:href="#DejaVuSans-37" x="354.199219"/>
      </g>
     </g>
    </g>
    <g id="xtick_6">
     <g id="line2d_6">
      <g>
       <use xlink:href="#mf26ef971ec" x="348.087127" y="374.830125" style="stroke: #000000; stroke-width: 0.8"/>
      </g>
     </g>
     <g id="text_6">
      <!-- 2024-01 -->
      <g transform="translate(310.862306 409.301971) rotate(-30) scale(0.1 -0.1)">
       <defs>
        <path id="DejaVuSans-34" d="M 2419 4116 
L 825 1625 
L 2419 1625 
L 2419 4116 
z
M 2253 4666 
L 3047 4666 
L 3047 1625 
L 3713 1625 
L 3713 1100 
L 3047 1100 
L 3047 0 
L 2419 0 
L 2419 1100 
L 313 1100 
L 313 1709 
L 2253 4666 
z
" transform="scale(0.015625)"/>
       </defs>
       <use xlink:href="#DejaVuSans-32"/>
       <use xlink:href="#DejaVuSans-30" x="63.623047"/>
       <use xlink:href="#DejaVuSans-32" x="127.246094"/>
       <use xlink:href="#DejaVuSans-34" x="190.869141"/>
       <use xlink:href="#DejaVuSans-2d" x="254.492188"/>
       <use xlink:href="#DejaVuSans-30" x="290.576172"/>
       <use xlink:href="#DejaVuSans-31" x="354.199219"/>
      </g>
     </g>
    </g>
    <g id="xtick_7">
     <g id="line2d_7">
      <g>
       <use xlink:href="#mf26ef971ec" x="405.258839" y="374.830125" style="stroke: #000000; stroke-width: 0.8"/>
      </g>
     </g>
     <g id="text_7">
      <!-- 2024-07 -->
      <g transform="translate(368.034018 409.301971) rotate(-30) scale(0.1 -0.1)">
       <use xlink:href="#DejaVuSans-32"/>
       <use xlink:href="#DejaVuSans-30" x="63.623047"/>
       <use xlink:href="#DejaVuSans-32" x="127.246094"/>
       <use xlink:href="#DejaVuSans-34" x="190.869141"/>
       <use xlink:href="#DejaVuSans-2d" x="254.492188"/>
       <use xlink:href="#DejaVuSans-30" x="290.576172"/>
       <use xlink:href="#DejaVuSans-37" x="354.199219"/>
      </g>
     </g>
    </g>
    <g id="xtick_8">
     <g id="line2d_8">
      <g>
       <use xlink:href="#mf26ef971ec" x="463.058812" y="374.830125" style="stroke: #000000; stroke-width: 0.8"/>
      </g>
     </g>
     <g id="text_8">
      <!-- 2025-01 -->
      <g transform="translate(425.833991 409.301971) rotate(-30) scale(0.1 -0.1)">
       <defs>
        <path id="DejaVuSans-35" d="M 691 4666 
L 3169 4666 
L 3169 4134 
L 1269 4134 
L 1269 2991 
Q 1406 3038 1543 3061 
Q 1681 3084 1819 3084 
Q 2600 3084 3056 2656 
Q 3513 2228 3513 1497 
Q 3513 744 3044 326 
Q 2575 -91 1722 -91 
Q 1428 -91 1123 -41 
Q 819 9 494 109 
L 494 744 
Q 775 591 1075 516 
Q 1375 441 1709 441 
Q 2250 441 2565 725 
Q 2881 1009 2881 1497 
Q 2881 1984 2565 2268 
Q 2250 2553 1709 2553 
Q 1456 2553 1204 2497 
Q 953 2441 691 2322 
L 691 4666 
z
" transform="scale(0.015625)"/>
       </defs>
       <use xlink:href="#DejaVuSans-32"/>
       <use xlink:href="#DejaVuSans-30" x="63.623047"/>
       <use xlink:href="#DejaVuSans-32" x="127.246094"/>
       <use xlink:href="#DejaVuSans-35" x="190.869141"/>
       <use xlink:href="#DejaVuSans-2d" x="254.492188"/>
       <use xlink:href="#DejaVuSans-30" x="290.576172"/>
       <use xlink:href="#DejaVuSans-31" x="354.199219"/>
      </g>
     </g>
    </g>
    <g id="xtick_9">
     <g id="line2d_9">
      <g>
       <use xlink:href="#mf26ef971ec" x="519.916393" y="374.830125" style="stroke: #000000; stroke-width: 0.8"/>
      </g>
     </g>
     <g id="text_9">
      <!-- 2025-07 -->
      <g transform="translate(482.691572 409.301971) rotate(-30) scale(0.1 -0.1)">
       <use xlink:href="#DejaVuSans-32"/>
       <use xlink:href="#DejaVuSans-30" x="63.623047"/>
       <use xlink:href="#DejaVuSans-32" x="127.246094"/>
       <use xlink:href="#DejaVuSans-35" x="190.869141"/>
       <use xlink:href="#DejaVuSans-2d" x="254.492188"/>
       <use xlink:href="#DejaVuSans-30" x="290.576172"/>
       <use xlink:href="#DejaVuSans-37" x="354.199219"/>
      </g>
     </g>
    </g>
   </g>
   <g id="matplotlib.axis_2">
    <g id="ytick_1">
     <g id="line2d_10">
      <defs>
       <path id="m1b335142a7" d="M 0 0 
L -3.5 0 
" style="stroke: #000000; stroke-width: 0.8"/>
      </defs>
      <g>
       <use xlink:href="#m1b335142a7" x="33.2875" y="374.830125" style="stroke: #000000; stroke-width: 0.8"/>
      </g>
     </g>
     <g id="text_10">
      <!-- 0 -->
      <g transform="translate(19.925 378.629344) scale(0.1 -0.1)">
       <use xlink:href="#DejaVuSans-30"/>
      </g>
     </g>
    </g>
    <g id="ytick_2">
     <g id="line2d_11">
      <g>
       <use xlink:href="#m1b335142a7" x="33.2875" y="320.718221" style="stroke: #000000; stroke-width: 0.8"/>
      </g>
     </g>
     <g id="text_11">
      <!-- 100 -->
      <g transform="translate(7.2 324.51744) scale(0.1 -0.1)">
       <use xlink:href="#DejaVuSans-31"/>
       <use xlink:href="#DejaVuSans-30" x="63.623047"/>
       <use xlink:href="#DejaVuSans-30" x="127.246094"/>
      </g>
     </g>
    </g>
    <g id="ytick_3">
     <g id="line2d_12">
      <g>
       <use xlink:href="#m1b335142a7" x="33.2875" y="266.606317" style="stroke: #000000; stroke-width: 0.8"/>
      </g>
     </g>
     <g id="text_12">
      <!-- 200 -->
      <g transform="translate(7.2 270.405535) scale(0.1 -0.1)">
       <use xlink:href="#DejaVuSans-32"/>
       <use xlink:href="#DejaVuSans-30" x="63.623047"/>
       <use xlink:href="#DejaVuSans-30" x="127.246094"/>
      </g>
     </g>
    </g>
    <g id="ytick_4">
     <g id="line2d_13">
      <g>
       <use xlink:href="#m1b335142a7" x="33.2875" y="212.494412" style="stroke: #000000; stroke-width: 0.8"/>
      </g>
     </g>
     <g id="text_13">
      <!-- 300 -->
      <g transform="translate(7.2 216.293631) scale(0.1 -0.1)">
       <use xlink:href="#DejaVuSans-33"/>
       <use xlink:href="#DejaVuSans-30" x="63.623047"/>
       <use xlink:href="#DejaVuSans-30" x="127.246094"/>
      </g>
     </g>
    </g>
    <g id="ytick_5">
     <g id="line2d_14">
      <g>
       <use xlink:href="#m1b335142a7" x="33.2875" y="158.382508" style="stroke: #000000; stroke-width: 0.8"/>
      </g>
     </g>
     <g id="text_14">
      <!-- 400 -->
      <g transform="translate(7.2 162.181727) scale(0.1 -0.1)">
       <use xlink:href="#DejaVuSans-34"/>
       <use xlink:href="#DejaVuSans-30" x="63.623047"/>
       <use xlink:href="#DejaVuSans-30" x="127.246094"/>
      </g>
     </g>
    </g>
    <g id="ytick_6">
     <g id="line2d_15">
      <g>
       <use xlink:href="#m1b335142a7" x="33.2875" y="104.270604" style="stroke: #000000; stroke-width: 0.8"/>
      </g>
     </g>
     <g id="text_15">
      <!-- 500 -->
      <g transform="translate(7.2 108.069823) scale(0.1 -0.1)">
       <use xlink:href="#DejaVuSans-35"/>
       <use xlink:href="#DejaVuSans-30" x="63.623047"/>
       <use xlink:href="#DejaVuSans-30" x="127.246094"/>
      </g>
     </g>
    </g>
    <g id="ytick_7">
     <g id="line2d_16">
      <g>
       <use xlink:href="#m1b335142a7" x="33.2875" y="50.1587" style="stroke: #000000; stroke-width: 0.8"/>
      </g>
     </g>
     <g id="text_16">
      <!-- 600 -->
      <g transform="translate(7.2 53.957918) scale(0.1 -0.1)">
       <defs>
        <path id="DejaVuSans-36" d="M 2113 2584 
Q 1688 2584 1439 2293 
Q 1191 2003 1191 1497 
Q 1191 994 1439 701 
Q 1688 409 2113 409 
Q 2538 409 2786 701 
Q 3034 994 3034 1497 
Q 3034 2003 2786 2293 
Q 2538 2584 2113 2584 
z
M 3366 4563 
L 3366 3988 
Q 3128 4100 2886 4159 
Q 2644 4219 2406 4219 
Q 1781 4219 1451 3797 
Q 1122 3375 1075 2522 
Q 1259 2794 1537 2939 
Q 1816 3084 2150 3084 
Q 2853 3084 3261 2657 
Q 3669 2231 3669 1497 
Q 3669 778 3244 343 
Q 2819 -91 2113 -91 
Q 1303 -91 875 529 
Q 447 1150 447 2328 
Q 447 3434 972 4092 
Q 1497 4750 2381 4750 
Q 2619 4750 2861 4703 
Q 3103 4656 3366 4563 
z
" transform="scale(0.015625)"/>
       </defs>
       <use xlink:href="#DejaVuSans-36"/>
       <use xlink:href="#DejaVuSans-30" x="63.623047"/>
       <use xlink:href="#DejaVuSans-30" x="127.246094"/>
      </g>
     </g>
    </g>
   </g>
   <g id="line2d_17">
    <path d="M 38.539265 37.171843 
L 47.879965 37.171843 
L 47.985704 40.418557 
L 49.29346 40.418557 
L 49.772175 49.617581 
L 126.939919 49.617581 
L 127.324121 44.20639 
L 140.165306 44.20639 
L 140.919633 44.747509 
L 146.94182 44.747509 
L 147.152421 55.56989 
L 153.259605 55.56989 
L 154.525255 53.946533 
L 259.152997 53.946533 
L 259.450988 50.1587 
L 267.651246 50.1587 
L 267.943926 49.076462 
L 309.102832 49.076462 
L 309.307802 47.994224 
L 375.819101 47.994224 
L 376.009641 43.665271 
L 426.43354 43.665271 
L 426.520264 43.124152 
L 465.035182 43.124152 
L 465.389131 42.583033 
L 468.892571 42.583033 
L 469.008817 40.418557 
L 470.414798 40.418557 
L 470.780112 40.959676 
L 495.083423 40.959676 
L 495.383458 40.418557 
L 546.555547 40.418557 
L 546.730234 31.760652 
L 561.367335 31.760652 
L 561.646547 25.808343 
L 563.715735 25.808343 
L 563.715735 25.808343 
" clip-path="url(#p4f176883be)" style="fill: none; stroke: #0000ff; stroke-width: 1.5; stroke-linecap: square"/>
   </g>
   <g id="line2d_18">
    <path d="M 38.539265 175.698317 
L 39.82349 174.616079 
L 41.103571 175.698317 
L 44.134929 175.698317 
L 47.477362 176.780556 
L 47.725321 176.239437 
L 47.879965 176.239437 
L 47.985704 179.486151 
L 48.229748 178.945032 
L 48.590696 179.486151 
L 49.29346 179.486151 
L 49.684865 191.39077 
L 49.772175 188.685175 
L 49.975334 191.931889 
L 50.039942 191.39077 
L 50.267599 191.39077 
L 50.631765 191.931889 
L 51.508224 191.931889 
L 51.534387 192.473008 
L 52.009484 192.473008 
L 52.210586 191.931889 
L 52.79854 195.719722 
L 52.866453 195.178603 
L 53.155158 195.719722 
L 53.713626 197.343079 
L 54.092422 196.260841 
L 54.691157 196.260841 
L 55.02576 197.343079 
L 55.251956 197.343079 
L 55.933415 197.884198 
L 56.239205 197.884198 
L 56.571721 198.966436 
L 56.869058 198.425317 
L 57.199236 199.507555 
L 57.542307 201.672032 
L 58.868846 202.75427 
L 59.432143 202.75427 
L 59.673434 203.295389 
L 60.057884 203.295389 
L 60.340917 203.836508 
L 60.629226 203.295389 
L 60.950675 203.295389 
L 61.138917 203.836508 
L 64.395474 203.836508 
L 64.724147 204.377627 
L 65.039103 204.377627 
L 65.161396 203.836508 
L 65.939257 204.377627 
L 66.265273 203.836508 
L 67.164129 203.836508 
L 67.452714 204.377627 
L 67.807514 203.836508 
L 69.443526 203.836508 
L 69.778722 204.377627 
L 69.96271 206.000984 
L 70.410516 204.918746 
L 71.451789 204.918746 
L 71.96841 205.459865 
L 72.280784 205.459865 
L 72.584167 206.000984 
L 72.922791 206.000984 
L 73.233704 205.459865 
L 73.530797 207.083222 
L 73.794557 207.083222 
L 74.511662 208.16546 
L 78.276673 208.16546 
L 78.575966 209.247698 
L 79.213836 209.247698 
L 79.496953 209.788817 
L 80.446521 209.788817 
L 81.35547 211.953293 
L 82.321591 211.953293 
L 82.667625 212.494412 
L 88.504632 212.494412 
L 89.205393 213.57665 
L 89.364138 212.494412 
L 90.488179 212.494412 
L 90.793416 213.035531 
L 91.130183 212.494412 
L 91.931437 212.494412 
L 92.374011 213.035531 
L 92.702565 212.494412 
L 97.664529 212.494412 
L 97.935688 217.364484 
L 98.123686 212.494412 
L 99.921908 212.494412 
L 100.248345 213.035531 
L 100.434671 217.905603 
L 100.874813 213.035531 
L 101.185675 213.035531 
L 101.39203 212.494412 
L 104.64786 212.494412 
L 104.812738 213.035531 
L 105.108624 213.035531 
L 105.595915 214.658889 
L 110.507306 214.658889 
L 111.579199 215.200008 
L 118.175742 215.200008 
L 118.450428 217.364484 
L 118.801425 217.364484 
L 119.112672 215.200008 
L 119.432896 215.200008 
L 119.653547 217.364484 
L 119.89269 215.200008 
L 120.290108 217.364484 
L 120.642141 218.446722 
L 124.724104 218.446722 
L 125.076428 218.987841 
L 126.939919 218.987841 
L 127.324121 213.035531 
L 127.598571 213.57665 
L 127.908786 215.200008 
L 128.291766 215.200008 
L 128.805278 216.282246 
L 129.159671 216.282246 
L 129.420897 216.823365 
L 129.771785 214.658889 
L 132.340928 220.070079 
L 132.603255 218.446722 
L 133.043111 217.905603 
L 134.440136 217.905603 
L 134.798499 217.364484 
L 135.114513 216.282246 
L 136.379621 216.282246 
L 136.610929 215.200008 
L 137.017778 216.282246 
L 137.93658 216.282246 
L 138.249275 217.364484 
L 138.550894 217.364484 
L 138.908112 217.905603 
L 139.052259 217.905603 
L 139.21336 219.52896 
L 139.431746 219.52896 
L 140.165306 220.070079 
L 140.771421 218.987841 
L 140.919633 218.987841 
L 141.394777 219.52896 
L 141.699632 220.611198 
L 143.275072 220.611198 
L 143.579251 221.152317 
L 143.905896 221.152317 
L 144.208312 221.693436 
L 144.491607 221.693436 
L 145.149888 222.234555 
L 145.489861 222.234555 
L 145.828882 223.857912 
L 146.029329 223.857912 
L 146.381682 223.316793 
L 146.94182 223.316793 
L 147.152421 224.94015 
L 147.671936 224.94015 
L 147.979733 226.022388 
L 148.3908 226.022388 
L 148.60254 226.563507 
L 149.068169 226.563507 
L 149.114503 227.104626 
L 149.350348 227.104626 
L 149.848015 227.645746 
L 150.979797 230.89246 
L 152.390522 230.89246 
L 152.678126 231.974698 
L 152.786421 231.433579 
L 152.911829 231.433579 
L 153.259605 230.89246 
L 154.525255 229.269103 
L 157.691758 229.269103 
L 158.058676 228.727984 
L 159.59125 228.727984 
L 159.80937 228.186865 
L 162.679394 228.186865 
L 163.179956 228.727984 
L 163.565463 228.727984 
L 163.983991 229.269103 
L 164.194582 228.727984 
L 166.212106 228.727984 
L 166.848823 229.810222 
L 168.203899 229.810222 
L 168.432043 237.385888 
L 168.689234 237.385888 
L 170.881038 239.009245 
L 171.015725 238.468126 
L 171.156236 239.009245 
L 171.520955 238.468126 
L 171.826886 238.468126 
L 172.148881 239.009245 
L 172.390681 239.009245 
L 172.778883 240.091484 
L 172.938537 240.091484 
L 173.086291 239.550364 
L 173.417462 240.632603 
L 175.619228 240.632603 
L 175.833425 241.173722 
L 177.017856 241.173722 
L 177.489441 240.632603 
L 177.842761 243.338198 
L 178.094294 241.714841 
L 178.42235 241.714841 
L 178.685299 244.961555 
L 178.86928 244.420436 
L 179.065135 244.961555 
L 179.163781 244.420436 
L 179.284517 246.043793 
L 179.597531 246.043793 
L 179.994128 246.584912 
L 180.770888 246.043793 
L 180.947757 247.126031 
L 181.236812 247.126031 
L 181.441509 245.502674 
L 182.136351 247.126031 
L 182.827263 247.66715 
L 183.434044 247.66715 
L 183.752355 249.290507 
L 184.04494 249.290507 
L 184.21825 248.749388 
L 184.522433 248.749388 
L 185.698909 250.913864 
L 185.895117 249.831626 
L 186.272796 249.290507 
L 186.715771 250.913864 
L 187.906463 250.913864 
L 188.008395 251.454983 
L 188.482837 251.996102 
L 189.747586 251.996102 
L 190.326502 254.701698 
L 193.579725 254.701698 
L 193.836614 255.242817 
L 194.174478 254.160579 
L 194.371177 255.242817 
L 197.917846 255.242817 
L 198.214176 255.783936 
L 198.928782 259.03065 
L 199.19688 257.407293 
L 199.51638 257.948412 
L 199.870158 257.407293 
L 200.119114 257.407293 
L 200.496339 255.783936 
L 200.698612 255.783936 
L 200.737871 256.325055 
L 201.374381 256.325055 
L 201.732642 253.078341 
L 202.048499 253.078341 
L 202.99866 253.61946 
L 203.058781 253.078341 
L 203.574674 252.537221 
L 203.651298 253.078341 
L 206.137112 253.078341 
L 206.31008 253.61946 
L 206.773986 254.160579 
L 207.393459 255.242817 
L 207.554581 256.325055 
L 207.772309 256.325055 
L 208.016218 257.407293 
L 208.309887 256.866174 
L 208.638713 256.866174 
L 208.886483 256.325055 
L 209.235778 256.866174 
L 209.547465 256.866174 
L 209.846198 257.407293 
L 210.088024 257.407293 
L 210.543229 256.866174 
L 210.779878 257.407293 
L 211.024809 256.866174 
L 211.736074 252.537221 
L 212.42026 253.61946 
L 212.520291 257.407293 
L 212.6728 257.407293 
L 212.951856 257.948412 
L 213.276054 257.407293 
L 213.572045 257.407293 
L 213.936665 256.866174 
L 214.252483 257.948412 
L 215.392303 257.948412 
L 215.845287 258.489531 
L 216.104161 258.489531 
L 216.124248 259.03065 
L 217.415815 259.03065 
L 217.783518 260.112888 
L 219.590658 260.112888 
L 219.950904 261.195126 
L 221.177641 261.195126 
L 223.41242 260.654007 
L 223.619735 261.195126 
L 224.178869 261.195126 
L 224.649348 261.736245 
L 224.964507 262.818483 
L 225.058746 262.277364 
L 225.401301 263.359602 
L 226.163343 263.359602 
L 229.249742 264.44184 
L 236.878796 264.44184 
L 237.189553 263.900721 
L 238.681112 263.900721 
L 238.990283 264.44184 
L 240.014827 264.44184 
L 240.368438 264.982959 
L 240.622706 264.44184 
L 240.917799 264.982959 
L 241.244313 264.44184 
L 241.512298 265.524078 
L 241.922736 264.982959 
L 242.222214 265.524078 
L 248.731983 265.524078 
L 249.068251 264.44184 
L 249.424491 264.982959 
L 249.746674 264.44184 
L 250.107553 264.44184 
L 250.396968 263.900721 
L 251.604831 263.900721 
L 251.91153 264.44184 
L 252.257961 263.900721 
L 252.688908 262.818483 
L 253.199406 262.818483 
L 253.552497 262.277364 
L 253.816719 263.359602 
L 254.156613 263.359602 
L 254.41921 262.818483 
L 255.248019 263.900721 
L 255.732878 263.359602 
L 256.020943 263.900721 
L 256.633803 263.900721 
L 256.979699 263.359602 
L 257.319349 264.982959 
L 257.646259 264.44184 
L 258.273872 264.44184 
L 258.513113 263.900721 
L 258.819084 264.44184 
L 259.152997 264.44184 
L 259.450988 259.571769 
L 259.569376 260.112888 
L 259.803548 260.112888 
L 259.966678 260.654007 
L 260.108851 260.654007 
L 260.296035 261.195126 
L 260.422887 260.112888 
L 261.049144 261.195126 
L 261.587208 261.195126 
L 261.848875 262.277364 
L 262.108203 261.195126 
L 262.277041 261.736245 
L 263.228957 261.736245 
L 263.51234 261.195126 
L 263.781092 261.195126 
L 264.118808 261.736245 
L 264.431091 261.736245 
L 264.801277 261.195126 
L 265.158513 261.736245 
L 265.435693 261.736245 
L 265.871887 262.818483 
L 267.651246 262.818483 
L 267.943926 261.195126 
L 269.322979 261.195126 
L 269.639698 261.736245 
L 269.888836 262.277364 
L 270.376625 262.277364 
L 270.528807 263.359602 
L 270.598617 262.818483 
L 270.76367 263.359602 
L 271.227929 263.359602 
L 271.455517 264.44184 
L 272.07519 264.44184 
L 272.364444 265.524078 
L 273.321047 265.524078 
L 273.550457 267.147436 
L 273.762146 267.688555 
L 273.884311 267.688555 
L 274.296407 268.229674 
L 274.441449 267.688555 
L 274.511739 268.229674 
L 274.964843 268.229674 
L 275.496974 268.770793 
L 276.6908 268.770793 
L 276.998695 268.229674 
L 277.293712 268.770793 
L 277.626272 268.770793 
L 277.785653 269.311912 
L 277.823988 268.770793 
L 278.013157 269.311912 
L 278.161111 269.311912 
L 278.307222 270.39415 
L 278.869839 271.476388 
L 279.279524 270.935269 
L 279.591004 271.476388 
L 280.203344 271.476388 
L 280.535689 272.558626 
L 280.657356 272.017507 
L 280.855011 273.640864 
L 281.135092 273.099745 
L 281.316739 273.640864 
L 281.460366 273.099745 
L 281.619082 274.181983 
L 281.942582 274.181983 
L 282.038395 274.723102 
L 282.417933 274.181983 
L 282.711474 275.264221 
L 283.373743 275.264221 
L 283.612148 276.346459 
L 283.950303 275.264221 
L 284.180037 275.264221 
L 284.264263 275.80534 
L 284.882343 275.80534 
L 285.171459 277.969816 
L 285.587253 275.80534 
L 285.651719 276.346459 
L 286.199196 275.80534 
L 286.251039 276.887578 
L 286.439339 276.887578 
L 286.818775 277.428697 
L 287.126706 276.887578 
L 287.35934 276.887578 
L 287.703593 277.969816 
L 288.078113 277.969816 
L 288.441305 277.428697 
L 288.712744 277.969816 
L 288.877673 277.428697 
L 289.041712 278.510935 
L 290.495244 278.510935 
L 290.941985 279.052055 
L 291.854123 279.052055 
L 292.177765 277.969816 
L 292.787737 277.969816 
L 293.093025 278.510935 
L 295.870301 278.510935 
L 296.245112 277.969816 
L 296.596451 279.052055 
L 300.858664 279.052055 
L 301.793678 279.593174 
L 302.349023 279.593174 
L 302.80004 280.134293 
L 303.156465 280.134293 
L 303.365911 280.675412 
L 308.11018 280.675412 
L 308.495517 280.134293 
L 308.801019 280.675412 
L 309.102832 280.134293 
L 309.307802 276.887578 
L 311.182061 276.887578 
L 311.349289 277.428697 
L 311.673443 277.428697 
L 311.78064 276.887578 
L 313.720761 276.887578 
L 313.98991 277.428697 
L 314.091628 276.887578 
L 314.552647 276.887578 
L 314.76575 277.969816 
L 315.034375 276.887578 
L 315.234931 277.969816 
L 315.377279 277.969816 
L 315.560874 276.887578 
L 315.721444 277.969816 
L 315.824344 276.887578 
L 315.865788 277.969816 
L 316.970119 277.969816 
L 317.145418 278.510935 
L 317.171126 279.052055 
L 317.733478 279.052055 
L 317.766621 279.593174 
L 318.090637 279.593174 
L 318.258413 280.134293 
L 318.401459 279.593174 
L 318.577194 280.134293 
L 318.696036 279.593174 
L 318.974765 280.134293 
L 319.092644 279.593174 
L 319.108808 280.134293 
L 319.462118 280.134293 
L 319.683489 280.675412 
L 319.823109 280.675412 
L 320.032195 281.75765 
L 320.264193 282.298769 
L 320.424422 281.75765 
L 322.209071 281.75765 
L 322.464243 282.298769 
L 323.831979 282.298769 
L 324.050158 282.839888 
L 324.33855 282.839888 
L 324.552552 283.381007 
L 324.784197 282.839888 
L 325.236389 282.839888 
L 325.427357 283.922126 
L 325.947145 283.922126 
L 325.99706 284.463245 
L 326.06959 283.922126 
L 326.181797 283.922126 
L 326.383106 285.004364 
L 326.592752 285.545483 
L 326.651346 285.004364 
L 326.88899 287.16884 
L 327.85145 287.16884 
L 327.948209 287.709959 
L 328.159058 287.709959 
L 328.282573 288.792197 
L 328.427531 287.709959 
L 329.705234 287.709959 
L 329.779167 288.251078 
L 330.024243 287.709959 
L 330.141584 288.251078 
L 330.358534 287.709959 
L 330.640342 287.709959 
L 330.813157 288.792197 
L 331.128178 288.792197 
L 331.257397 288.251078 
L 331.36811 289.333316 
L 331.695078 287.709959 
L 332.037716 288.792197 
L 332.285927 287.709959 
L 332.866966 287.709959 
L 333.319161 289.333316 
L 333.459869 288.792197 
L 333.615694 289.333316 
L 334.03616 288.251078 
L 334.170796 289.333316 
L 335.16865 289.333316 
L 335.329493 289.874435 
L 335.609785 289.874435 
L 335.759204 289.333316 
L 335.947784 289.874435 
L 336.067026 289.333316 
L 336.430272 290.415554 
L 336.926205 290.415554 
L 337.27597 291.497793 
L 338.790874 291.497793 
L 338.956505 292.038912 
L 339.159105 291.497793 
L 339.259346 292.038912 
L 339.465905 291.497793 
L 339.740238 291.497793 
L 339.917184 292.038912 
L 340.033528 291.497793 
L 340.403929 291.497793 
L 340.518496 292.038912 
L 341.037807 292.038912 
L 341.072812 293.12115 
L 343.293877 293.12115 
L 343.51299 293.662269 
L 343.65681 293.12115 
L 343.778656 293.662269 
L 343.871208 293.12115 
L 343.982226 294.203388 
L 344.493735 294.203388 
L 344.735023 294.744507 
L 344.783924 294.203388 
L 344.834025 294.744507 
L 345.109557 294.203388 
L 345.180768 294.744507 
L 345.450222 295.285626 
L 345.555761 295.826745 
L 345.75724 295.826745 
L 345.803567 296.367864 
L 346.084092 297.991221 
L 346.210355 297.450102 
L 346.380767 297.450102 
L 346.411468 298.53234 
L 347.608762 298.53234 
L 347.757472 299.073459 
L 347.99203 298.53234 
L 348.398327 299.073459 
L 348.506917 298.53234 
L 348.684684 299.073459 
L 348.903157 299.073459 
L 349.033168 299.614578 
L 349.335991 299.614578 
L 349.343416 300.155697 
L 349.436764 299.614578 
L 349.526247 300.696816 
L 349.658506 300.696816 
L 349.841585 301.237935 
L 351.097481 301.237935 
L 351.130624 300.696816 
L 351.209688 301.779054 
L 351.540892 301.779054 
L 351.710038 301.237935 
L 351.840242 301.779054 
L 352.036272 301.237935 
L 352.183146 301.779054 
L 352.348163 301.779054 
L 352.489958 301.237935 
L 352.630553 302.861292 
L 354.313626 302.861292 
L 354.819761 303.94353 
L 355.086183 303.402411 
L 361.444089 303.402411 
L 361.552035 303.94353 
L 361.745105 303.402411 
L 361.80075 303.94353 
L 362.377659 303.94353 
L 362.537408 304.48465 
L 363.3471 304.48465 
L 363.455286 305.025769 
L 363.607781 304.48465 
L 364.848108 304.48465 
L 365.020149 305.025769 
L 365.356432 304.48465 
L 365.547074 305.566888 
L 365.651948 305.025769 
L 366.116784 305.025769 
L 366.319322 305.566888 
L 367.272674 305.566888 
L 367.427973 304.48465 
L 367.742648 305.566888 
L 369.435767 305.566888 
L 369.72501 306.108007 
L 369.764444 306.108007 
L 369.931464 306.649126 
L 370.056301 306.649126 
L 370.210832 307.190245 
L 370.572391 307.190245 
L 370.636443 307.731364 
L 370.937855 307.731364 
L 371.128246 306.649126 
L 371.276912 307.190245 
L 371.504478 307.190245 
L 371.59727 307.731364 
L 371.94541 307.731364 
L 372.256788 308.272483 
L 372.596328 309.89584 
L 372.707496 309.354721 
L 372.811006 309.89584 
L 373.048592 310.436959 
L 373.161254 309.89584 
L 373.463659 310.436959 
L 373.663655 309.89584 
L 373.826996 309.89584 
L 374.146998 311.519197 
L 374.455405 310.978078 
L 374.7748 312.060316 
L 374.837517 311.519197 
L 375.045105 312.060316 
L 375.188848 311.519197 
L 375.307353 312.060316 
L 375.819101 312.060316 
L 376.009641 304.48465 
L 376.518525 305.566888 
L 376.854524 305.566888 
L 376.97205 306.108007 
L 377.155108 305.566888 
L 377.272608 305.566888 
L 377.411644 305.025769 
L 377.571508 305.566888 
L 377.791102 305.566888 
L 377.899149 305.025769 
L 378.036425 305.566888 
L 378.223649 305.025769 
L 378.297237 305.566888 
L 378.686391 306.108007 
L 378.972351 305.025769 
L 379.231414 305.566888 
L 380.38236 305.566888 
L 380.655453 306.108007 
L 380.942192 305.566888 
L 381.457962 305.566888 
L 381.853377 306.649126 
L 381.989006 305.025769 
L 382.217285 305.566888 
L 382.508291 305.025769 
L 382.641411 306.649126 
L 382.802134 305.566888 
L 382.954029 305.566888 
L 383.055187 306.108007 
L 383.13068 308.272483 
L 383.144231 307.731364 
L 383.479121 308.272483 
L 384.305691 308.272483 
L 384.696692 309.354721 
L 384.857986 308.813602 
L 385.437033 308.813602 
L 385.594803 308.272483 
L 385.763426 308.813602 
L 385.948385 308.813602 
L 386.057044 308.272483 
L 386.387611 308.813602 
L 386.581809 308.813602 
L 386.709122 309.354721 
L 386.864831 308.813602 
L 387.032113 308.813602 
L 387.18888 308.272483 
L 387.285988 308.813602 
L 388.159248 308.813602 
L 388.377721 310.436959 
L 388.641867 309.89584 
L 388.860333 309.89584 
L 389.037198 309.354721 
L 389.117614 309.89584 
L 389.391577 309.354721 
L 389.493996 309.89584 
L 389.735346 309.89584 
L 389.829767 310.436959 
L 390.118192 309.89584 
L 390.712535 309.89584 
L 390.932884 310.436959 
L 391.299947 310.436959 
L 391.392499 310.978078 
L 391.548925 310.436959 
L 392.184769 312.060316 
L 392.333523 312.060316 
L 392.613415 312.601435 
L 394.890176 312.601435 
L 395.132729 313.142554 
L 395.360165 313.142554 
L 395.40647 312.060316 
L 395.463817 312.601435 
L 395.834876 312.601435 
L 395.919571 313.142554 
L 396.407811 313.142554 
L 396.640984 313.683673 
L 396.954154 313.683673 
L 396.964571 313.142554 
L 397.068677 313.683673 
L 397.164418 313.142554 
L 398.528096 313.142554 
L 398.783792 312.601435 
L 399.497068 313.142554 
L 400.976222 313.142554 
L 401.040226 313.683673 
L 402.592367 313.683673 
L 402.732181 314.224792 
L 404.167596 316.930387 
L 404.303639 316.930387 
L 404.445573 317.471507 
L 404.50878 316.930387 
L 404.81445 317.471507 
L 405.098436 318.012626 
L 405.438068 318.012626 
L 405.552122 318.553745 
L 405.981335 318.553745 
L 406.603 318.012626 
L 406.634319 319.635983 
L 407.134644 319.635983 
L 407.289713 319.094864 
L 407.402346 319.635983 
L 408.551804 319.635983 
L 408.818641 319.094864 
L 410.051351 319.094864 
L 410.812528 319.635983 
L 412.350152 319.635983 
L 413.107304 320.177102 
L 413.208568 320.718221 
L 415.485681 320.718221 
L 415.699606 320.177102 
L 416.855602 320.177102 
L 417.699682 319.635983 
L 418.314774 319.635983 
L 418.620018 320.177102 
L 418.891017 321.25934 
L 419.052365 321.25934 
L 419.058663 320.718221 
L 420.868497 320.718221 
L 421.062737 321.25934 
L 425.634875 321.25934 
L 426.211369 321.800459 
L 426.43354 321.800459 
L 426.520264 322.341578 
L 426.802825 322.341578 
L 426.921489 321.800459 
L 427.105437 322.341578 
L 428.138253 322.341578 
L 428.598628 322.882697 
L 428.918423 323.964935 
L 431.719226 323.964935 
L 432.212192 323.423816 
L 432.354823 323.964935 
L 432.499109 323.423816 
L 432.661307 323.964935 
L 433.429476 323.964935 
L 433.78364 323.423816 
L 433.963359 323.964935 
L 434.458914 322.882697 
L 434.652054 323.964935 
L 435.851271 323.964935 
L 435.865458 324.506054 
L 437.765957 324.506054 
L 438.690002 325.047173 
L 438.967306 324.506054 
L 439.482519 324.506054 
L 439.607415 325.047173 
L 440.047638 323.423816 
L 440.338288 323.964935 
L 440.865845 323.423816 
L 441.018456 323.423816 
L 441.1499 323.964935 
L 441.947853 323.964935 
L 442.895956 323.423816 
L 443.038663 323.964935 
L 443.982076 323.964935 
L 444.288375 323.423816 
L 449.090023 323.964935 
L 449.449553 323.423816 
L 449.760273 323.964935 
L 450.0387 323.423816 
L 450.069852 323.964935 
L 450.312248 324.506054 
L 450.452629 324.506054 
L 450.58104 325.047173 
L 452.813492 325.047173 
L 452.861063 325.588292 
L 453.138559 325.588292 
L 453.879514 325.047173 
L 453.903085 325.588292 
L 454.187765 325.047173 
L 454.256957 326.129411 
L 454.440193 326.129411 
L 454.811935 326.67053 
L 455.434906 326.67053 
L 455.813178 326.129411 
L 456.238494 327.211649 
L 456.255939 327.752768 
L 456.669103 328.293887 
L 456.972981 327.752768 
L 457.400271 327.752768 
L 457.489096 328.293887 
L 458.461973 328.293887 
L 458.595998 327.752768 
L 458.760077 328.835006 
L 458.895313 328.835006 
L 459.15198 328.293887 
L 459.385407 328.835006 
L 459.905954 328.835006 
L 460.135208 329.917245 
L 461.770234 329.917245 
L 461.965707 330.458364 
L 462.0854 330.458364 
L 462.282354 329.917245 
L 462.333149 330.458364 
L 462.85486 330.458364 
L 462.959792 330.999483 
L 463.244788 330.999483 
L 463.32619 332.081721 
L 463.770844 332.081721 
L 463.937911 333.705078 
L 464.285778 333.705078 
L 464.489228 333.163959 
L 464.599141 333.705078 
L 464.747098 333.705078 
L 464.758398 335.328435 
L 465.035182 335.328435 
L 465.389131 334.787316 
L 465.549705 334.787316 
L 465.686875 335.328435 
L 466.027997 335.328435 
L 466.381481 334.787316 
L 466.417839 335.869554 
L 466.73082 335.869554 
L 466.788513 336.410673 
L 467.006589 336.951792 
L 467.58268 336.951792 
L 467.667354 338.03403 
L 467.914582 338.03403 
L 468.059526 338.575149 
L 468.198608 338.575149 
L 468.69737 339.116268 
L 468.892571 338.575149 
L 469.008817 330.999483 
L 469.134891 330.458364 
L 469.220277 332.62284 
L 469.835318 332.62284 
L 470.088113 332.081721 
L 470.272301 333.163959 
L 470.414798 333.163959 
L 470.780112 333.705078 
L 471.181912 333.705078 
L 471.365249 333.163959 
L 471.508796 333.705078 
L 472.477605 333.705078 
L 472.596894 334.246197 
L 473.038582 333.163959 
L 473.397741 333.705078 
L 473.603555 333.705078 
L 473.682603 334.246197 
L 473.864308 333.163959 
L 474.040937 334.246197 
L 474.773806 334.246197 
L 474.887398 333.705078 
L 475.148454 333.705078 
L 475.18952 334.246197 
L 475.485108 334.787316 
L 475.496644 334.246197 
L 476.052531 334.246197 
L 476.338644 334.787316 
L 477.823368 334.787316 
L 477.934695 335.328435 
L 478.229137 334.787316 
L 478.238969 335.328435 
L 478.661765 335.869554 
L 478.921548 335.869554 
L 479.220495 336.410673 
L 479.483884 336.951792 
L 479.843 335.869554 
L 479.913941 336.951792 
L 480.155425 336.410673 
L 480.358683 336.951792 
L 481.26581 336.951792 
L 481.367448 337.492911 
L 481.494122 336.951792 
L 481.933094 337.492911 
L 482.145128 336.951792 
L 482.360016 337.492911 
L 482.489126 336.951792 
L 482.789811 338.03403 
L 482.997563 337.492911 
L 483.708148 337.492911 
L 483.990847 338.03403 
L 484.40363 338.03403 
L 484.732049 336.951792 
L 484.819584 337.492911 
L 485.170493 337.492911 
L 485.259548 338.575149 
L 485.702122 337.492911 
L 485.856679 338.03403 
L 486.213271 337.492911 
L 486.473567 337.492911 
L 486.606919 338.03403 
L 486.793009 338.03403 
L 486.925667 334.787316 
L 487.343097 335.328435 
L 487.397175 334.246197 
L 487.547049 335.328435 
L 487.684452 334.787316 
L 487.766922 335.328435 
L 488.094086 334.787316 
L 488.486637 335.328435 
L 488.684371 335.328435 
L 488.955803 334.787316 
L 489.341624 334.787316 
L 489.737206 335.869554 
L 489.944419 335.328435 
L 490.363427 335.328435 
L 490.559369 334.787316 
L 490.588215 334.246197 
L 490.832314 335.328435 
L 490.961765 334.787316 
L 491.114031 335.328435 
L 491.340285 334.787316 
L 491.596363 334.787316 
L 491.76087 334.246197 
L 492.072856 334.246197 
L 492.397671 335.328435 
L 492.618075 334.787316 
L 492.886482 335.869554 
L 493.026263 335.869554 
L 493.114001 335.328435 
L 493.386982 335.328435 
L 493.409894 335.869554 
L 494.314837 335.869554 
L 494.463089 336.410673 
L 494.590072 336.410673 
L 494.785821 336.951792 
L 494.954659 336.410673 
L 495.083423 336.951792 
L 495.275392 336.410673 
L 495.383458 336.951792 
L 495.522937 336.410673 
L 495.567875 336.951792 
L 495.722282 338.03403 
L 495.910928 337.492911 
L 495.970296 336.951792 
L 496.169245 337.492911 
L 496.33183 336.951792 
L 496.643688 337.492911 
L 496.84893 337.492911 
L 496.938348 338.03403 
L 497.160199 337.492911 
L 497.742838 339.116268 
L 497.899569 339.116268 
L 498.061684 338.03403 
L 498.138326 338.575149 
L 498.367528 338.575149 
L 498.471809 338.03403 
L 498.659226 338.03403 
L 498.829856 338.575149 
L 499.049217 338.575149 
L 499.417498 340.198506 
L 499.613433 339.657387 
L 502.189036 339.657387 
L 502.308893 340.198506 
L 502.460886 340.198506 
L 502.583117 339.657387 
L 502.828357 340.198506 
L 503.43934 338.03403 
L 503.541549 339.116268 
L 504.188035 338.03403 
L 504.640645 338.03403 
L 505.259976 339.116268 
L 506.354833 338.575149 
L 506.632878 339.116268 
L 506.939191 338.575149 
L 507.157959 339.657387 
L 507.245701 338.575149 
L 507.534086 339.657387 
L 507.848293 338.575149 
L 507.952305 339.657387 
L 508.153792 339.657387 
L 508.264552 339.116268 
L 508.465312 339.657387 
L 508.585794 339.657387 
L 508.698019 339.116268 
L 508.834375 340.739625 
L 509.191982 339.657387 
L 509.526454 339.657387 
L 509.730828 340.198506 
L 510.116528 340.198506 
L 510.430197 339.657387 
L 510.61357 339.657387 
L 510.752195 340.739625 
L 510.925112 340.198506 
L 511.021652 340.739625 
L 511.254756 341.280744 
L 511.397685 341.280744 
L 511.647575 340.198506 
L 511.886529 341.821863 
L 512.186869 341.821863 
L 512.209665 342.904102 
L 512.23064 342.362982 
L 512.387716 341.821863 
L 512.552834 342.904102 
L 512.621706 341.821863 
L 512.870611 341.821863 
L 512.904525 342.362982 
L 513.184956 342.904102 
L 513.35279 342.904102 
L 513.431457 341.821863 
L 513.807795 342.904102 
L 513.868742 341.821863 
L 514.073723 342.904102 
L 514.231406 341.280744 
L 514.710745 342.362982 
L 515.071846 340.739625 
L 515.099769 341.280744 
L 515.328495 340.739625 
L 515.473097 340.739625 
L 515.623214 341.821863 
L 515.802486 340.739625 
L 516.14715 341.821863 
L 516.277914 340.739625 
L 516.419498 341.280744 
L 516.708018 341.280744 
L 516.898554 340.739625 
L 517.26329 340.739625 
L 517.274423 341.280744 
L 517.848474 340.198506 
L 518.152923 341.821863 
L 518.314503 341.821863 
L 518.502825 341.280744 
L 518.556056 342.362982 
L 518.823398 341.280744 
L 518.988015 342.362982 
L 519.153966 341.280744 
L 519.222547 341.821863 
L 519.562895 341.821863 
L 519.766858 342.362982 
L 519.860144 343.445221 
L 520.050055 342.362982 
L 520.362502 342.904102 
L 520.500716 343.445221 
L 520.671491 342.904102 
L 520.8173 345.068578 
L 521.046168 345.068578 
L 521.348835 345.609697 
L 521.385349 344.527459 
L 521.683234 345.609697 
L 522.107259 344.527459 
L 522.221833 346.150816 
L 522.565653 346.691935 
L 522.94013 345.609697 
L 523.177473 345.068578 
L 523.837226 345.609697 
L 523.91625 346.150816 
L 524.163075 346.150816 
L 524.61808 346.691935 
L 524.843505 346.691935 
L 525.124401 347.233054 
L 525.408532 348.856411 
L 526.138016 348.315292 
L 526.373 348.315292 
L 526.698841 346.691935 
L 527.008583 346.691935 
L 527.088424 346.150816 
L 527.323753 347.233054 
L 527.37618 346.150816 
L 527.633742 346.691935 
L 528.10096 346.691935 
L 528.34072 347.774173 
L 528.560786 346.691935 
L 528.861351 347.774173 
L 528.978528 347.233054 
L 529.139055 347.774173 
L 529.558161 346.691935 
L 529.800394 347.233054 
L 530.50891 347.233054 
L 530.678024 346.691935 
L 531.088382 347.774173 
L 531.25518 346.691935 
L 531.399051 346.691935 
L 531.454995 347.233054 
L 531.658958 347.233054 
L 531.878936 347.774173 
L 532.029461 346.691935 
L 532.263171 347.774173 
L 532.365809 346.691935 
L 532.652395 347.774173 
L 532.828617 347.774173 
L 532.942336 347.233054 
L 533.128691 347.233054 
L 533.181352 346.691935 
L 533.192164 347.233054 
L 533.510301 347.233054 
L 533.617942 346.691935 
L 533.909774 347.774173 
L 534.178515 346.691935 
L 534.639073 347.233054 
L 535.623278 347.233054 
L 535.859305 346.691935 
L 536.110235 347.233054 
L 536.271757 346.691935 
L 536.371534 347.233054 
L 537.070528 347.233054 
L 537.283937 346.691935 
L 537.773936 347.774173 
L 537.893077 347.233054 
L 538.285009 347.774173 
L 538.713052 347.233054 
L 538.940392 347.774173 
L 539.475257 346.691935 
L 539.615598 346.150816 
L 539.84812 346.150816 
L 540.295963 347.774173 
L 540.417779 347.774173 
L 540.572426 346.691935 
L 540.935647 346.691935 
L 541.139373 347.233054 
L 541.293868 347.233054 
L 541.453606 346.691935 
L 541.755203 346.691935 
L 542.167019 347.233054 
L 542.395622 347.233054 
L 542.489207 347.774173 
L 542.708927 346.691935 
L 542.82469 347.774173 
L 542.968615 347.233054 
L 543.059513 347.774173 
L 543.636586 347.774173 
L 543.657473 348.856411 
L 543.750661 348.315292 
L 543.925007 348.315292 
L 544.02919 347.774173 
L 544.193065 348.315292 
L 544.373756 347.774173 
L 544.834535 348.315292 
L 545.225903 348.315292 
L 545.374551 349.39753 
L 545.433175 348.856411 
L 545.608324 349.39753 
L 545.843216 348.856411 
L 545.95318 348.315292 
L 546.117095 348.856411 
L 546.278741 348.315292 
L 546.473171 349.39753 
L 546.555547 348.315292 
L 546.730234 334.787316 
L 547.207193 334.787316 
L 547.338655 334.246197 
L 547.463605 336.410673 
L 548.159815 335.869554 
L 548.677101 335.869554 
L 548.777699 336.410673 
L 548.907066 336.410673 
L 549.312498 335.328435 
L 549.619175 335.328435 
L 549.632249 335.869554 
L 550.016179 336.410673 
L 550.288094 335.869554 
L 550.56125 334.787316 
L 550.596168 335.869554 
L 550.804853 334.787316 
L 550.886022 335.328435 
L 551.509443 335.328435 
L 551.543136 335.869554 
L 551.798414 335.869554 
L 551.972309 335.328435 
L 552.139889 335.328435 
L 552.193476 334.787316 
L 552.553803 335.869554 
L 552.874583 334.787316 
L 553.041559 334.787316 
L 553.554697 335.328435 
L 553.654433 334.787316 
L 553.736532 335.869554 
L 554.068918 336.951792 
L 554.292528 335.869554 
L 554.623903 336.951792 
L 554.952758 335.869554 
L 555.072451 336.951792 
L 555.368683 335.869554 
L 555.492132 335.869554 
L 555.541811 336.951792 
L 555.689321 336.410673 
L 555.861387 336.951792 
L 556.139967 336.951792 
L 556.173569 338.03403 
L 556.388286 337.492911 
L 556.510845 337.492911 
L 556.600652 336.951792 
L 556.853057 337.492911 
L 557.114622 338.575149 
L 557.128223 340.198506 
L 557.278842 339.116268 
L 557.283358 340.739625 
L 557.463463 340.739625 
L 557.589188 341.280744 
L 557.834976 340.739625 
L 558.215027 341.280744 
L 558.421971 340.739625 
L 558.662844 340.739625 
L 558.763515 341.280744 
L 559.044109 341.821863 
L 559.196335 340.739625 
L 559.316497 340.739625 
L 559.614234 342.362982 
L 559.800312 342.904102 
L 560.383576 342.362982 
L 560.605376 342.362982 
L 560.748088 341.821863 
L 561.059629 344.527459 
L 561.224217 344.527459 
L 561.367335 345.068578 
L 561.646547 341.821863 
L 561.863897 341.280744 
L 562.130657 342.362982 
L 562.226231 341.280744 
L 562.474063 342.904102 
L 562.510148 343.445221 
L 562.767055 343.98634 
L 562.953933 343.445221 
L 563.13723 343.98634 
L 563.451015 342.904102 
L 563.482919 343.445221 
L 563.715735 343.445221 
L 563.715735 343.445221 
" clip-path="url(#p4f176883be)" style="fill: none; stroke-dasharray: 3,1.5; stroke-dashoffset: 0; stroke: #808080; stroke-width: 1.5"/>
   </g>
   <g id="line2d_19">
    <path d="M 38.539265 299.614578 
L 39.82349 299.073459 
L 41.103571 297.991221 
L 44.134929 297.991221 
L 47.477362 297.450102 
L 47.725321 297.991221 
L 47.879965 297.991221 
L 47.985704 296.908983 
L 48.229748 297.450102 
L 48.590696 296.908983 
L 49.29346 296.908983 
L 49.684865 294.203388 
L 49.772175 296.908983 
L 49.975334 293.662269 
L 50.039942 294.203388 
L 50.267599 294.203388 
L 50.631765 293.662269 
L 51.22875 293.662269 
L 51.534387 291.497793 
L 52.009484 291.497793 
L 52.491747 292.580031 
L 52.79854 288.251078 
L 52.866453 288.792197 
L 53.155158 288.251078 
L 53.713626 286.627721 
L 54.092422 287.709959 
L 54.691157 287.709959 
L 55.02576 288.792197 
L 55.251956 288.251078 
L 55.933415 287.709959 
L 56.239205 287.709959 
L 56.571721 286.627721 
L 57.048846 286.627721 
L 57.542307 283.381007 
L 58.868846 281.75765 
L 59.049496 281.216531 
L 59.432143 281.216531 
L 59.673434 280.675412 
L 60.057884 280.675412 
L 60.340917 281.75765 
L 60.629226 282.298769 
L 60.950675 282.298769 
L 61.138917 281.75765 
L 63.43461 281.75765 
L 63.801553 281.216531 
L 64.395474 281.216531 
L 64.724147 280.675412 
L 65.039103 280.675412 
L 65.161396 281.216531 
L 65.939257 280.675412 
L 66.265273 281.216531 
L 67.164129 281.216531 
L 67.452714 280.675412 
L 67.807514 281.216531 
L 69.443526 281.216531 
L 69.778722 280.675412 
L 69.96271 279.052055 
L 70.410516 280.134293 
L 71.04118 280.134293 
L 71.335837 279.052055 
L 71.451789 280.134293 
L 71.96841 278.510935 
L 72.280784 278.510935 
L 72.584167 277.969816 
L 72.922791 277.969816 
L 73.233704 278.510935 
L 73.530797 277.428697 
L 73.794557 277.428697 
L 74.511662 276.346459 
L 78.276673 276.346459 
L 78.575966 275.264221 
L 79.213836 275.264221 
L 79.496953 272.558626 
L 80.446521 272.558626 
L 81.35547 270.39415 
L 82.321591 270.39415 
L 82.667625 269.853031 
L 88.504632 269.853031 
L 89.205393 268.229674 
L 89.364138 269.853031 
L 90.488179 269.853031 
L 90.793416 268.770793 
L 91.130183 269.853031 
L 91.931437 269.853031 
L 92.374011 268.770793 
L 92.702565 269.853031 
L 97.664529 269.853031 
L 97.935688 264.982959 
L 98.123686 269.853031 
L 99.921908 269.853031 
L 100.248345 269.311912 
L 100.434671 264.44184 
L 100.874813 269.311912 
L 101.185675 269.311912 
L 101.39203 269.853031 
L 104.64786 269.853031 
L 104.812738 269.311912 
L 105.108624 269.311912 
L 105.595915 267.688555 
L 110.507306 267.688555 
L 111.579199 267.147436 
L 118.175742 267.147436 
L 118.450428 264.44184 
L 118.801425 264.44184 
L 119.112672 267.147436 
L 119.432896 267.147436 
L 119.653547 264.44184 
L 119.89269 267.147436 
L 120.290108 264.44184 
L 120.642141 263.359602 
L 124.724104 263.359602 
L 125.076428 262.818483 
L 126.62216 262.818483 
L 126.939919 261.736245 
L 127.324121 259.571769 
L 127.598571 259.03065 
L 127.908786 255.783936 
L 128.291766 255.783936 
L 128.805278 254.701698 
L 129.159671 254.701698 
L 129.771785 253.61946 
L 132.340928 248.749388 
L 132.603255 249.831626 
L 134.440136 249.831626 
L 134.798499 247.66715 
L 135.114513 248.208269 
L 136.379621 248.208269 
L 136.610929 249.290507 
L 137.017778 248.208269 
L 137.93658 248.208269 
L 138.249275 247.126031 
L 138.550894 247.126031 
L 138.908112 246.584912 
L 139.052259 246.584912 
L 139.21336 244.961555 
L 139.431746 244.961555 
L 140.165306 244.420436 
L 140.771421 246.043793 
L 140.919633 246.043793 
L 141.394777 245.502674 
L 141.699632 244.420436 
L 143.275072 244.420436 
L 143.579251 243.879317 
L 143.905896 243.879317 
L 144.208312 243.338198 
L 144.491607 243.338198 
L 145.149888 242.797079 
L 145.489861 242.797079 
L 145.828882 241.173722 
L 146.381682 241.173722 
L 146.727153 240.632603 
L 146.94182 240.632603 
L 147.061665 250.372745 
L 147.152421 249.831626 
L 147.671936 249.831626 
L 147.979733 248.749388 
L 148.3908 248.749388 
L 148.60254 248.208269 
L 149.068169 248.208269 
L 149.114503 247.66715 
L 149.848015 247.66715 
L 150.241838 246.043793 
L 151.06026 244.420436 
L 152.390522 244.420436 
L 152.678126 243.338198 
L 152.786421 243.879317 
L 152.911829 243.879317 
L 153.259605 244.420436 
L 154.525255 243.879317 
L 157.691758 243.879317 
L 158.058676 244.420436 
L 159.59125 244.420436 
L 159.80937 244.961555 
L 160.208916 244.420436 
L 162.679394 244.420436 
L 163.179956 243.879317 
L 163.565463 243.879317 
L 163.983991 243.338198 
L 164.194582 243.879317 
L 166.212106 243.879317 
L 166.848823 242.797079 
L 168.203899 242.797079 
L 168.432043 235.221412 
L 168.689234 235.221412 
L 170.881038 233.598055 
L 171.015725 234.139174 
L 171.156236 233.598055 
L 171.520955 234.139174 
L 171.826886 234.139174 
L 172.148881 233.598055 
L 172.390681 233.598055 
L 172.778883 232.515817 
L 172.938537 232.515817 
L 173.086291 233.056936 
L 173.417462 231.974698 
L 175.619228 231.974698 
L 175.833425 231.433579 
L 176.190538 231.433579 
L 176.52196 230.89246 
L 176.866034 231.433579 
L 177.017856 231.433579 
L 177.489441 231.974698 
L 177.842761 229.269103 
L 178.094294 230.89246 
L 178.42235 230.89246 
L 178.685299 227.645746 
L 178.86928 228.186865 
L 179.065135 227.104626 
L 179.163781 227.645746 
L 179.284517 226.022388 
L 179.597531 226.022388 
L 179.994128 225.481269 
L 180.770888 226.022388 
L 180.947757 224.94015 
L 181.236812 224.94015 
L 181.441509 226.563507 
L 182.136351 224.94015 
L 182.827263 224.399031 
L 183.434044 224.399031 
L 183.752355 222.775674 
L 184.04494 222.775674 
L 184.21825 223.316793 
L 184.522433 223.316793 
L 185.698909 220.070079 
L 185.895117 222.234555 
L 186.272796 222.775674 
L 186.715771 220.070079 
L 187.906463 220.070079 
L 188.008395 219.52896 
L 188.482837 218.987841 
L 189.747586 218.987841 
L 190.326502 216.282246 
L 193.579725 216.282246 
L 193.836614 215.200008 
L 194.174478 217.364484 
L 194.371177 215.741127 
L 197.917846 215.741127 
L 198.214176 215.200008 
L 198.928782 211.953293 
L 199.19688 213.57665 
L 199.51638 213.035531 
L 199.870158 213.57665 
L 200.119114 213.57665 
L 200.496339 208.16546 
L 200.698612 208.16546 
L 200.737871 207.624341 
L 201.374381 207.624341 
L 201.732642 206.542103 
L 202.048499 204.918746 
L 202.99866 204.377627 
L 203.058781 204.918746 
L 203.574674 205.459865 
L 203.651298 204.918746 
L 206.137112 204.918746 
L 206.31008 204.377627 
L 206.773986 203.836508 
L 207.393459 202.75427 
L 207.554581 201.672032 
L 207.772309 201.672032 
L 208.016218 200.589793 
L 208.309887 201.130912 
L 208.638713 201.130912 
L 208.886483 201.672032 
L 209.235778 201.130912 
L 209.547465 201.130912 
L 209.846198 200.589793 
L 210.088024 200.589793 
L 210.543229 201.130912 
L 210.779878 200.589793 
L 211.024809 201.130912 
L 211.437992 203.836508 
L 211.736074 204.377627 
L 212.42026 203.295389 
L 212.520291 199.507555 
L 212.6728 199.507555 
L 212.951856 198.966436 
L 213.276054 199.507555 
L 213.572045 199.507555 
L 213.936665 200.048674 
L 214.252483 198.966436 
L 215.392303 198.966436 
L 215.845287 198.425317 
L 216.104161 198.425317 
L 216.124248 197.884198 
L 217.415815 197.884198 
L 217.783518 196.80196 
L 219.590658 196.80196 
L 219.950904 195.719722 
L 223.41242 195.719722 
L 223.619735 195.178603 
L 224.178869 195.178603 
L 224.649348 194.637484 
L 224.964507 193.555246 
L 225.058746 194.096365 
L 225.401301 193.014127 
L 226.163343 193.014127 
L 229.249742 191.931889 
L 236.878796 191.931889 
L 237.189553 192.473008 
L 238.681112 192.473008 
L 238.990283 191.931889 
L 240.014827 191.931889 
L 240.368438 191.39077 
L 240.622706 191.931889 
L 240.917799 191.39077 
L 241.244313 191.931889 
L 241.512298 190.849651 
L 241.922736 191.39077 
L 242.222214 190.849651 
L 248.731983 190.849651 
L 249.068251 191.931889 
L 249.424491 191.39077 
L 249.746674 191.931889 
L 250.107553 191.39077 
L 250.396968 191.931889 
L 251.604831 191.931889 
L 251.91153 191.39077 
L 252.257961 191.931889 
L 252.688908 190.849651 
L 253.199406 190.849651 
L 253.552497 191.39077 
L 253.816719 190.308532 
L 254.156613 190.308532 
L 254.41921 190.849651 
L 255.248019 189.767413 
L 255.732878 190.308532 
L 256.020943 189.767413 
L 256.633803 189.767413 
L 256.979699 190.308532 
L 257.319349 188.685175 
L 257.646259 189.226294 
L 258.273872 189.226294 
L 258.513113 189.767413 
L 258.819084 189.226294 
L 259.152997 189.226294 
L 259.450988 193.555246 
L 259.569376 193.014127 
L 259.803548 193.014127 
L 259.966678 192.473008 
L 260.108851 192.473008 
L 260.296035 191.931889 
L 260.422887 193.014127 
L 261.049144 191.931889 
L 261.587208 191.931889 
L 261.848875 190.849651 
L 262.108203 191.931889 
L 262.277041 191.39077 
L 263.228957 191.39077 
L 263.51234 191.931889 
L 263.781092 191.931889 
L 264.118808 191.39077 
L 264.431091 191.39077 
L 264.801277 191.931889 
L 265.158513 191.39077 
L 265.435693 191.39077 
L 265.871887 190.308532 
L 267.651246 190.308532 
L 267.943926 190.849651 
L 269.322979 190.849651 
L 269.639698 190.308532 
L 269.888836 189.767413 
L 270.376625 189.767413 
L 270.528807 188.685175 
L 270.598617 189.226294 
L 270.76367 188.685175 
L 271.227929 188.685175 
L 271.455517 187.602936 
L 272.07519 187.602936 
L 272.364444 186.520698 
L 273.321047 186.520698 
L 273.550457 184.897341 
L 273.762146 184.356222 
L 273.884311 184.356222 
L 274.296407 183.815103 
L 274.441449 184.356222 
L 274.511739 183.815103 
L 274.660456 183.815103 
L 274.834552 183.273984 
L 274.964843 183.273984 
L 275.496974 182.732865 
L 276.6908 182.732865 
L 276.998695 183.273984 
L 277.293712 182.732865 
L 277.626272 182.732865 
L 277.785653 182.191746 
L 277.823988 182.732865 
L 278.013157 182.191746 
L 278.161111 182.191746 
L 278.307222 181.109508 
L 278.869839 180.02727 
L 279.279524 180.568389 
L 279.591004 180.02727 
L 280.203344 180.02727 
L 280.535689 178.945032 
L 280.657356 179.486151 
L 280.855011 177.862794 
L 281.135092 178.403913 
L 281.316739 177.862794 
L 281.460366 178.403913 
L 281.619082 177.321675 
L 281.942582 177.321675 
L 282.038395 176.780556 
L 282.417933 177.321675 
L 282.711474 176.239437 
L 283.373743 176.239437 
L 283.612148 175.157198 
L 283.950303 176.239437 
L 284.180037 176.239437 
L 284.264263 175.698317 
L 284.882343 175.698317 
L 285.171459 173.533841 
L 285.587253 175.698317 
L 285.651719 175.157198 
L 286.199196 175.698317 
L 286.251039 174.616079 
L 286.439339 174.616079 
L 286.818775 174.07496 
L 287.126706 174.616079 
L 287.35934 174.616079 
L 287.703593 173.533841 
L 288.078113 173.533841 
L 288.441305 174.07496 
L 288.712744 173.533841 
L 288.877673 174.07496 
L 289.041712 172.992722 
L 290.495244 172.992722 
L 290.941985 172.451603 
L 291.854123 172.451603 
L 292.177765 173.533841 
L 292.787737 173.533841 
L 293.093025 172.992722 
L 295.870301 172.992722 
L 296.245112 173.533841 
L 296.596451 172.451603 
L 300.858664 172.451603 
L 301.793678 171.910484 
L 302.349023 171.910484 
L 302.80004 171.369365 
L 303.156465 171.369365 
L 303.365911 170.287127 
L 303.697973 170.828246 
L 308.11018 170.828246 
L 308.495517 171.369365 
L 308.801019 170.828246 
L 309.102832 171.369365 
L 309.307802 173.533841 
L 311.182061 173.533841 
L 311.491163 172.451603 
L 311.924998 173.533841 
L 313.720761 173.533841 
L 313.98991 172.451603 
L 314.091628 173.533841 
L 314.552647 173.533841 
L 314.76575 172.451603 
L 315.034375 173.533841 
L 315.234931 172.451603 
L 315.377279 172.451603 
L 315.560874 173.533841 
L 315.721444 172.451603 
L 315.824344 173.533841 
L 315.865788 172.451603 
L 316.970119 172.451603 
L 317.331631 170.828246 
L 317.733478 170.828246 
L 317.766621 170.287127 
L 318.090637 170.287127 
L 318.258413 169.746008 
L 318.401459 170.287127 
L 318.577194 169.746008 
L 318.696036 170.287127 
L 318.974765 169.746008 
L 319.092644 170.287127 
L 319.108808 169.746008 
L 319.462118 169.746008 
L 319.683489 169.204889 
L 319.823109 169.204889 
L 320.032195 168.122651 
L 320.264193 167.581532 
L 320.424422 168.122651 
L 322.209071 168.122651 
L 322.464243 167.581532 
L 323.831979 167.581532 
L 324.050158 167.040413 
L 324.33855 167.040413 
L 324.552552 166.499294 
L 324.784197 167.040413 
L 325.236389 167.040413 
L 325.427357 165.958175 
L 325.947145 165.958175 
L 325.99706 165.417056 
L 326.06959 165.958175 
L 326.358001 165.958175 
L 326.383106 165.417056 
L 326.592752 164.875937 
L 326.651346 165.417056 
L 326.88899 163.25258 
L 327.85145 163.25258 
L 327.948209 162.71146 
L 328.159058 162.71146 
L 328.282573 161.629222 
L 328.427531 162.71146 
L 329.705234 162.71146 
L 329.779167 162.170341 
L 330.024243 162.71146 
L 330.141584 162.170341 
L 330.358534 162.71146 
L 330.640342 162.71146 
L 330.813157 161.629222 
L 331.128178 161.629222 
L 331.257397 162.170341 
L 331.36811 161.088103 
L 331.695078 162.71146 
L 332.037716 161.629222 
L 332.285927 162.71146 
L 332.866966 162.71146 
L 333.319161 161.088103 
L 333.459869 161.629222 
L 333.615694 161.088103 
L 334.03616 162.170341 
L 334.170796 161.088103 
L 335.16865 161.088103 
L 335.329493 160.546984 
L 335.609785 160.546984 
L 335.759204 161.088103 
L 335.947784 160.546984 
L 336.067026 161.088103 
L 336.430272 160.005865 
L 336.926205 160.005865 
L 337.27597 158.923627 
L 337.883597 160.005865 
L 338.013453 159.464746 
L 338.173204 160.005865 
L 338.274512 159.464746 
L 338.477762 159.464746 
L 338.562944 160.005865 
L 338.956505 158.923627 
L 339.159105 159.464746 
L 339.259346 158.923627 
L 339.465905 159.464746 
L 339.740238 159.464746 
L 339.917184 158.923627 
L 340.033528 159.464746 
L 340.148186 159.464746 
L 340.403929 160.005865 
L 340.518496 158.923627 
L 341.037807 158.923627 
L 341.072812 157.841389 
L 343.293877 157.841389 
L 343.51299 157.30027 
L 343.65681 157.841389 
L 343.778656 157.30027 
L 343.871208 157.841389 
L 343.982226 156.759151 
L 344.493735 156.759151 
L 344.735023 156.218032 
L 344.783924 156.759151 
L 344.834025 156.218032 
L 345.109557 156.759151 
L 345.180768 156.218032 
L 345.450222 155.676913 
L 345.555761 155.135794 
L 345.75724 155.135794 
L 345.803567 154.594675 
L 346.084092 152.971318 
L 346.210355 153.512437 
L 346.380767 153.512437 
L 346.411468 152.430199 
L 347.608762 152.430199 
L 347.757472 151.88908 
L 347.99203 152.430199 
L 348.684684 150.806842 
L 348.903157 150.806842 
L 349.033168 150.265723 
L 349.335991 150.265723 
L 349.343416 149.724603 
L 349.436764 150.265723 
L 349.526247 149.183484 
L 349.658506 149.183484 
L 349.841585 148.642365 
L 351.097481 148.642365 
L 351.130624 149.183484 
L 351.209688 148.101246 
L 351.540892 148.101246 
L 351.710038 148.642365 
L 351.840242 148.101246 
L 352.036272 148.642365 
L 352.183146 148.101246 
L 352.348163 148.101246 
L 352.489958 148.642365 
L 352.630553 147.019008 
L 354.313626 147.019008 
L 354.819761 145.93677 
L 355.086183 146.477889 
L 361.444089 146.477889 
L 361.552035 145.93677 
L 361.745105 146.477889 
L 361.80075 145.93677 
L 362.377659 145.93677 
L 362.537408 145.395651 
L 363.3471 145.395651 
L 363.455286 144.854532 
L 363.607781 145.395651 
L 364.848108 145.395651 
L 365.020149 144.854532 
L 365.356432 145.395651 
L 365.547074 144.313413 
L 365.651948 144.854532 
L 366.116784 144.854532 
L 366.319322 144.313413 
L 367.272674 144.313413 
L 367.427973 145.395651 
L 367.742648 144.313413 
L 369.435767 144.313413 
L 369.72501 143.772294 
L 369.764444 143.772294 
L 369.931464 143.231175 
L 370.056301 143.231175 
L 370.210832 142.690056 
L 370.572391 142.690056 
L 370.636443 142.148937 
L 370.937855 142.148937 
L 371.128246 143.231175 
L 371.276912 142.690056 
L 371.504478 142.690056 
L 371.59727 142.148937 
L 371.94541 142.148937 
L 372.256788 141.607818 
L 372.596328 139.984461 
L 372.707496 140.52558 
L 372.811006 139.984461 
L 373.048592 139.443342 
L 373.161254 139.984461 
L 373.463659 139.443342 
L 373.663655 139.984461 
L 373.826996 139.984461 
L 374.146998 138.361104 
L 374.455405 138.902223 
L 374.7748 137.819985 
L 374.837517 138.361104 
L 375.045105 137.819985 
L 375.188848 138.361104 
L 375.307353 137.819985 
L 375.819101 137.819985 
L 376.009641 141.066699 
L 376.518525 139.984461 
L 376.854524 139.984461 
L 376.97205 139.443342 
L 377.155108 139.984461 
L 377.272608 139.984461 
L 377.411644 140.52558 
L 377.571508 139.984461 
L 377.791102 139.984461 
L 377.899149 140.52558 
L 378.036425 139.984461 
L 378.223649 140.52558 
L 378.297237 139.984461 
L 378.686391 139.443342 
L 378.835908 139.443342 
L 378.972351 139.984461 
L 379.231414 139.443342 
L 380.289197 139.443342 
L 380.38236 136.737746 
L 380.655453 138.902223 
L 380.942192 139.443342 
L 381.457962 139.443342 
L 381.853377 138.361104 
L 381.989006 139.984461 
L 382.217285 139.443342 
L 382.508291 139.984461 
L 382.641411 138.361104 
L 382.802134 139.443342 
L 382.954029 139.443342 
L 383.055187 138.902223 
L 383.144231 134.57327 
L 383.453467 136.737746 
L 383.479121 134.032151 
L 384.305691 134.032151 
L 384.696692 132.949913 
L 384.857986 133.491032 
L 385.437033 133.491032 
L 385.594803 134.032151 
L 385.763426 133.491032 
L 385.948385 133.491032 
L 386.057044 134.032151 
L 386.387611 133.491032 
L 386.581809 133.491032 
L 386.709122 132.949913 
L 386.864831 133.491032 
L 387.032113 133.491032 
L 387.18888 134.032151 
L 387.285988 133.491032 
L 388.159248 133.491032 
L 388.377721 131.867675 
L 388.641867 132.408794 
L 388.860333 132.408794 
L 389.037198 132.949913 
L 389.117614 132.408794 
L 389.391577 132.949913 
L 389.493996 132.408794 
L 389.735346 132.408794 
L 389.829767 131.867675 
L 390.118192 132.408794 
L 390.712535 132.408794 
L 390.932884 131.867675 
L 391.299947 131.867675 
L 391.392499 131.326556 
L 391.548925 131.867675 
L 392.184769 130.244318 
L 392.333523 130.244318 
L 392.613415 129.703199 
L 394.890176 129.703199 
L 395.132729 129.16208 
L 395.360165 129.16208 
L 395.40647 130.244318 
L 395.463817 129.703199 
L 395.834876 129.703199 
L 395.919571 129.16208 
L 396.407811 129.16208 
L 396.640984 128.620961 
L 396.954154 128.620961 
L 396.964571 129.16208 
L 397.068677 128.620961 
L 397.164418 129.16208 
L 398.528096 129.16208 
L 398.783792 129.703199 
L 399.497068 129.16208 
L 400.976222 129.16208 
L 401.040226 128.620961 
L 402.592367 128.620961 
L 402.732181 128.079842 
L 404.167596 125.374247 
L 404.303639 125.374247 
L 404.445573 124.833128 
L 404.50878 125.374247 
L 404.81445 124.833128 
L 405.098436 124.292008 
L 405.438068 124.292008 
L 405.552122 123.750889 
L 405.981335 123.750889 
L 406.603 124.292008 
L 406.634319 122.668651 
L 407.134644 122.668651 
L 407.289713 123.20977 
L 407.402346 122.668651 
L 408.241194 122.668651 
L 408.551804 123.20977 
L 410.051351 123.20977 
L 410.812528 122.668651 
L 412.350152 122.668651 
L 413.107304 122.127532 
L 413.208568 121.586413 
L 415.485681 121.586413 
L 415.699606 122.127532 
L 416.855602 122.127532 
L 417.699682 122.668651 
L 418.314774 122.668651 
L 418.620018 122.127532 
L 418.891017 121.045294 
L 419.052365 121.045294 
L 419.058663 121.586413 
L 420.868497 121.586413 
L 421.062737 121.045294 
L 425.634875 121.045294 
L 426.211369 120.504175 
L 426.43354 120.504175 
L 426.520264 119.421937 
L 426.802825 119.421937 
L 426.921489 119.963056 
L 427.105437 119.421937 
L 428.138253 119.421937 
L 428.598628 118.880818 
L 428.918423 117.79858 
L 431.719226 117.79858 
L 432.212192 118.339699 
L 432.354823 117.79858 
L 432.499109 118.339699 
L 432.661307 117.79858 
L 433.429476 117.79858 
L 433.78364 118.339699 
L 433.963359 117.79858 
L 434.458914 118.880818 
L 434.652054 117.79858 
L 435.851271 117.79858 
L 435.865458 117.257461 
L 437.765957 117.257461 
L 438.690002 116.716342 
L 438.967306 117.257461 
L 439.169254 116.716342 
L 439.299949 117.257461 
L 439.482519 117.257461 
L 439.607415 116.716342 
L 440.047638 117.79858 
L 440.338288 117.257461 
L 440.865845 117.79858 
L 441.018456 117.79858 
L 441.1499 117.257461 
L 441.947853 117.257461 
L 442.895956 117.79858 
L 443.038663 117.257461 
L 443.982076 117.257461 
L 444.288375 117.79858 
L 449.090023 117.257461 
L 449.449553 117.79858 
L 449.760273 117.257461 
L 450.0387 117.79858 
L 450.069852 117.257461 
L 450.312248 116.716342 
L 450.452629 116.716342 
L 450.58104 116.175223 
L 452.813492 116.175223 
L 452.861063 115.634104 
L 453.138559 115.634104 
L 453.879514 116.175223 
L 453.903085 115.634104 
L 454.187765 116.175223 
L 454.256957 115.092985 
L 454.440193 115.092985 
L 454.811935 114.551866 
L 455.434906 114.551866 
L 455.813178 115.092985 
L 456.238494 114.010747 
L 456.255939 113.469628 
L 456.669103 112.928509 
L 456.972981 113.469628 
L 457.400271 113.469628 
L 457.489096 112.928509 
L 458.461973 112.928509 
L 458.595998 113.469628 
L 458.760077 112.38739 
L 458.895313 112.38739 
L 459.15198 112.928509 
L 459.385407 112.38739 
L 459.905954 112.38739 
L 460.135208 110.764032 
L 461.770234 110.764032 
L 461.965707 110.222913 
L 462.0854 110.222913 
L 462.282354 110.764032 
L 462.333149 110.222913 
L 462.85486 110.222913 
L 462.959792 109.681794 
L 463.244788 109.140675 
L 463.32619 108.058437 
L 463.770844 108.058437 
L 463.937911 106.43508 
L 464.285778 106.43508 
L 464.489228 106.976199 
L 464.599141 106.43508 
L 464.747098 106.43508 
L 464.758398 104.811723 
L 465.549705 104.811723 
L 465.686875 104.270604 
L 466.027997 104.270604 
L 466.381481 104.811723 
L 466.417839 103.729485 
L 466.73082 103.729485 
L 466.788513 103.188366 
L 467.006589 102.647247 
L 467.58268 102.647247 
L 467.667354 101.565009 
L 467.914582 101.565009 
L 468.059526 101.02389 
L 468.198608 101.02389 
L 468.69737 100.482771 
L 468.892571 101.02389 
L 469.008817 106.976199 
L 469.134891 107.517318 
L 469.220277 105.352842 
L 469.835318 105.352842 
L 470.088113 105.893961 
L 470.272301 104.811723 
L 471.181912 104.811723 
L 471.365249 105.352842 
L 471.508796 104.811723 
L 472.477605 104.811723 
L 472.596894 104.270604 
L 473.038582 105.352842 
L 473.397741 104.811723 
L 473.603555 104.811723 
L 473.682603 104.270604 
L 473.864308 105.352842 
L 474.040937 104.270604 
L 474.773806 104.270604 
L 474.887398 104.811723 
L 475.148454 104.811723 
L 475.18952 104.270604 
L 475.485108 103.729485 
L 475.496644 104.270604 
L 475.734798 103.729485 
L 476.052531 103.729485 
L 476.338644 103.188366 
L 477.823368 103.188366 
L 477.934695 102.647247 
L 478.229137 103.188366 
L 478.238969 102.647247 
L 478.661765 102.106128 
L 478.921548 102.106128 
L 479.220495 101.565009 
L 479.483884 101.02389 
L 479.843 102.106128 
L 479.913941 101.02389 
L 480.155425 101.565009 
L 480.358683 101.02389 
L 481.26581 101.02389 
L 481.367448 100.482771 
L 481.494122 101.02389 
L 481.933094 100.482771 
L 482.145128 101.02389 
L 482.360016 100.482771 
L 482.489126 101.02389 
L 482.789811 99.941652 
L 482.997563 100.482771 
L 483.708148 100.482771 
L 483.990847 99.941652 
L 484.40363 99.941652 
L 484.732049 101.02389 
L 484.819584 100.482771 
L 485.170493 100.482771 
L 485.259548 99.400533 
L 485.702122 100.482771 
L 485.856679 99.941652 
L 486.213271 100.482771 
L 486.473567 100.482771 
L 486.606919 99.941652 
L 486.925667 99.941652 
L 487.343097 99.400533 
L 487.397175 100.482771 
L 487.547049 99.400533 
L 487.684452 99.941652 
L 487.766922 99.400533 
L 488.094086 99.941652 
L 488.486637 99.400533 
L 488.684371 99.400533 
L 488.955803 99.941652 
L 489.341624 99.941652 
L 489.737206 98.859414 
L 489.944419 99.400533 
L 490.363427 99.400533 
L 490.559369 99.941652 
L 490.588215 100.482771 
L 490.832314 99.400533 
L 490.961765 99.941652 
L 491.114031 99.400533 
L 491.340285 99.941652 
L 491.596363 99.941652 
L 491.76087 100.482771 
L 492.072856 100.482771 
L 492.397671 99.400533 
L 492.618075 99.941652 
L 492.886482 98.859414 
L 493.026263 98.859414 
L 493.114001 99.400533 
L 493.386982 99.400533 
L 493.409894 98.859414 
L 494.314837 98.859414 
L 494.463089 98.318294 
L 494.590072 98.318294 
L 494.785821 97.777175 
L 494.954659 98.318294 
L 495.083423 97.777175 
L 495.275392 97.777175 
L 495.383458 97.236056 
L 495.522937 97.777175 
L 495.567875 97.236056 
L 495.722282 96.153818 
L 495.910928 96.694937 
L 495.970296 97.236056 
L 496.169245 96.694937 
L 496.33183 97.236056 
L 496.643688 96.694937 
L 496.84893 96.694937 
L 496.938348 96.153818 
L 497.160199 96.694937 
L 497.742838 95.07158 
L 497.899569 95.07158 
L 498.061684 96.153818 
L 498.138326 95.612699 
L 498.367528 95.612699 
L 498.471809 96.153818 
L 498.659226 96.153818 
L 498.829856 95.612699 
L 499.049217 95.612699 
L 499.417498 93.989342 
L 499.613433 94.530461 
L 502.189036 94.530461 
L 502.308893 93.989342 
L 502.460886 93.989342 
L 502.583117 94.530461 
L 502.828357 93.989342 
L 503.43934 93.989342 
L 503.541549 92.907104 
L 504.188035 93.989342 
L 504.640645 93.989342 
L 505.259976 92.907104 
L 506.354833 93.448223 
L 506.632878 92.907104 
L 506.939191 93.448223 
L 507.157959 92.365985 
L 507.245701 93.448223 
L 507.534086 92.365985 
L 507.848293 93.448223 
L 507.952305 92.365985 
L 508.153792 92.365985 
L 508.264552 92.907104 
L 508.465312 92.365985 
L 508.585794 92.365985 
L 508.698019 92.907104 
L 508.834375 91.283747 
L 509.191982 92.365985 
L 509.526454 92.365985 
L 509.730828 91.824866 
L 510.116528 91.824866 
L 510.430197 92.365985 
L 510.61357 92.365985 
L 510.752195 91.283747 
L 510.925112 92.365985 
L 511.021652 91.824866 
L 511.254756 91.283747 
L 511.397685 91.283747 
L 511.647575 92.365985 
L 511.886529 90.742628 
L 512.186869 90.742628 
L 512.209665 89.66039 
L 512.23064 90.201509 
L 512.387716 90.742628 
L 512.552834 89.66039 
L 512.621706 90.742628 
L 512.870611 90.742628 
L 512.904525 90.201509 
L 513.184956 89.66039 
L 513.35279 89.66039 
L 513.431457 90.742628 
L 513.807795 89.66039 
L 513.868742 90.742628 
L 514.073723 89.66039 
L 514.231406 91.283747 
L 514.710745 90.201509 
L 515.071846 91.824866 
L 515.099769 91.283747 
L 515.328495 91.824866 
L 515.473097 91.824866 
L 515.623214 90.742628 
L 515.802486 91.824866 
L 516.14715 90.742628 
L 516.277914 91.824866 
L 516.419498 91.283747 
L 516.708018 91.283747 
L 516.898554 91.824866 
L 517.26329 91.824866 
L 517.274423 91.283747 
L 517.848474 92.365985 
L 518.152923 90.742628 
L 518.314503 90.742628 
L 518.502825 91.283747 
L 518.556056 90.201509 
L 518.823398 91.283747 
L 518.988015 90.201509 
L 519.153966 91.283747 
L 519.222547 90.742628 
L 519.562895 90.742628 
L 519.766858 90.201509 
L 519.860144 89.119271 
L 520.050055 90.201509 
L 520.362502 89.66039 
L 520.500716 89.119271 
L 520.671491 89.66039 
L 520.8173 87.495914 
L 521.046168 87.495914 
L 521.348835 86.954795 
L 521.385349 88.037033 
L 521.683234 86.954795 
L 522.107259 88.037033 
L 522.221833 86.413676 
L 522.565653 85.872556 
L 522.94013 86.954795 
L 523.177473 87.495914 
L 523.837226 86.954795 
L 523.91625 86.413676 
L 524.843505 86.413676 
L 525.124401 85.872556 
L 525.408532 84.249199 
L 526.138016 84.790318 
L 526.698841 84.790318 
L 527.008583 84.249199 
L 527.088424 84.790318 
L 527.323753 83.70808 
L 527.37618 84.790318 
L 527.633742 84.249199 
L 528.10096 84.249199 
L 528.34072 83.166961 
L 528.560786 84.249199 
L 528.861351 83.166961 
L 528.978528 83.70808 
L 529.139055 83.166961 
L 529.558161 83.70808 
L 529.800394 83.166961 
L 530.50891 83.166961 
L 530.678024 83.70808 
L 531.088382 82.625842 
L 531.25518 83.70808 
L 531.399051 83.70808 
L 531.454995 83.166961 
L 531.658958 83.166961 
L 531.878936 82.625842 
L 532.029461 83.70808 
L 532.263171 82.625842 
L 532.365809 83.70808 
L 532.652395 82.625842 
L 532.828617 82.625842 
L 532.942336 83.166961 
L 533.128691 83.166961 
L 533.181352 83.70808 
L 533.192164 83.166961 
L 533.510301 83.166961 
L 533.617942 83.70808 
L 533.909774 82.625842 
L 534.178515 83.70808 
L 534.639073 83.166961 
L 535.623278 83.166961 
L 535.859305 83.70808 
L 536.110235 83.166961 
L 536.271757 83.70808 
L 536.371534 83.166961 
L 537.070528 83.166961 
L 537.283937 83.70808 
L 537.773936 82.625842 
L 537.893077 83.166961 
L 538.285009 82.625842 
L 538.713052 83.166961 
L 538.940392 82.625842 
L 539.475257 83.70808 
L 539.615598 84.249199 
L 539.84812 84.249199 
L 540.295963 82.625842 
L 540.417779 82.625842 
L 540.572426 83.70808 
L 540.935647 83.70808 
L 541.139373 83.166961 
L 541.293868 83.166961 
L 541.453606 83.70808 
L 541.755203 83.70808 
L 542.167019 83.166961 
L 542.395622 83.166961 
L 542.489207 82.625842 
L 542.708927 83.70808 
L 542.82469 82.625842 
L 542.968615 83.166961 
L 543.059513 82.625842 
L 543.636586 82.625842 
L 543.657473 81.543604 
L 543.750661 82.084723 
L 543.925007 82.084723 
L 544.02919 82.625842 
L 544.193065 82.084723 
L 544.373756 82.625842 
L 544.834535 82.084723 
L 545.225903 82.084723 
L 545.374551 81.002485 
L 545.433175 81.543604 
L 545.608324 81.002485 
L 545.843216 81.543604 
L 545.95318 82.084723 
L 546.117095 81.543604 
L 546.278741 82.084723 
L 546.473171 81.002485 
L 546.555547 82.084723 
L 546.730234 90.201509 
L 547.207193 90.201509 
L 547.338655 90.742628 
L 547.463605 88.578152 
L 548.159815 89.119271 
L 548.677101 89.119271 
L 548.777699 88.578152 
L 548.907066 88.578152 
L 549.312498 89.66039 
L 549.619175 89.66039 
L 549.632249 89.119271 
L 550.016179 88.578152 
L 550.288094 89.119271 
L 550.56125 90.201509 
L 550.596168 89.119271 
L 550.804853 90.201509 
L 550.886022 89.66039 
L 551.509443 89.66039 
L 551.543136 89.119271 
L 551.798414 89.119271 
L 551.972309 89.66039 
L 552.139889 89.66039 
L 552.193476 90.201509 
L 552.553803 89.119271 
L 552.874583 90.201509 
L 553.041559 90.201509 
L 553.554697 89.66039 
L 553.654433 90.201509 
L 553.736532 89.119271 
L 554.068918 88.037033 
L 554.292528 89.119271 
L 554.623903 88.037033 
L 554.952758 89.119271 
L 555.072451 88.037033 
L 555.368683 89.119271 
L 555.492132 89.119271 
L 555.541811 88.037033 
L 555.689321 88.578152 
L 555.861387 88.037033 
L 556.139967 88.037033 
L 556.173569 86.954795 
L 556.388286 87.495914 
L 556.510845 87.495914 
L 556.600652 88.037033 
L 556.853057 87.495914 
L 557.114622 86.413676 
L 557.128223 84.790318 
L 557.278842 85.872556 
L 557.283358 84.249199 
L 557.463463 84.249199 
L 557.589188 83.70808 
L 557.834976 84.249199 
L 558.215027 83.70808 
L 558.421971 84.249199 
L 558.662844 84.249199 
L 558.763515 83.70808 
L 559.044109 83.166961 
L 559.196335 84.249199 
L 559.316497 84.249199 
L 559.614234 82.625842 
L 559.800312 82.084723 
L 560.383576 82.625842 
L 560.605376 82.625842 
L 560.748088 83.166961 
L 561.059629 80.461366 
L 561.224217 80.461366 
L 561.367335 79.920247 
L 561.646547 77.214652 
L 561.863897 77.755771 
L 562.130657 76.673533 
L 562.226231 77.755771 
L 562.474063 76.132414 
L 562.510148 75.591295 
L 562.767055 75.050176 
L 562.953933 75.591295 
L 563.13723 75.050176 
L 563.451015 76.132414 
L 563.482919 75.591295 
L 563.715735 75.591295 
L 563.715735 75.591295 
" clip-path="url(#p4f176883be)" style="fill: none; stroke-dasharray: 6,1.5; stroke-dashoffset: 0; stroke: #008000; stroke-width: 1.5"/>
   </g>
   <g id="line2d_20">
    <path d="M 38.539265 362.384387 
L 39.82349 363.466625 
L 41.103571 363.466625 
L 42.341768 362.925506 
L 44.134929 362.925506 
L 47.879965 362.384387 
L 47.985704 362.925506 
L 51.22875 362.925506 
L 51.534387 364.007744 
L 52.210586 364.007744 
L 52.491747 360.76103 
L 52.866453 364.007744 
L 54.691157 364.007744 
L 55.02576 360.76103 
L 57.542307 360.76103 
L 58.868846 361.302149 
L 59.049496 361.843268 
L 60.057884 361.843268 
L 60.340917 360.219911 
L 63.43461 360.219911 
L 63.801553 360.76103 
L 73.233704 360.76103 
L 73.530797 360.219911 
L 79.213836 360.219911 
L 79.496953 362.384387 
L 126.62216 362.384387 
L 126.939919 363.466625 
L 127.324121 366.713339 
L 127.598571 366.713339 
L 127.908786 367.254458 
L 129.771785 367.254458 
L 132.340928 368.877816 
L 132.603255 368.877816 
L 133.043111 369.418935 
L 146.029329 369.418935 
L 146.727153 370.501173 
L 176.190538 370.501173 
L 176.52196 371.042292 
L 176.866034 370.501173 
L 178.86928 370.501173 
L 179.163781 371.042292 
L 184.522433 371.042292 
L 185.698909 372.12453 
L 185.895117 371.042292 
L 186.272796 371.042292 
L 186.584105 372.12453 
L 193.836614 372.12453 
L 194.174478 371.583411 
L 194.371177 372.12453 
L 211.437992 372.12453 
L 211.736074 373.206768 
L 249.746674 373.206768 
L 250.107553 373.747887 
L 337.27597 373.747887 
L 337.624564 373.206768 
L 347.99203 373.206768 
L 348.398327 373.747887 
L 348.506917 374.830125 
L 375.819101 374.830125 
L 376.009641 374.289006 
L 378.686391 374.289006 
L 378.835908 374.830125 
L 486.793009 374.830125 
L 486.925667 374.289006 
L 495.083423 374.289006 
L 495.383458 374.830125 
L 526.373 374.830125 
L 526.698841 374.289006 
L 563.715735 374.289006 
L 563.715735 374.289006 
" clip-path="url(#p4f176883be)" style="fill: none; stroke-dasharray: 9,3; stroke-dashoffset: 0; stroke: #ffa500; stroke-width: 1.5"/>
   </g>
   <g id="line2d_21">
    <path d="M 38.539265 325.047173 
L 47.879965 325.047173 
L 47.985704 325.588292 
L 51.22875 325.588292 
L 51.534387 326.129411 
L 52.210586 326.129411 
L 52.491747 327.211649 
L 52.866453 326.129411 
L 54.691157 326.129411 
L 55.251956 327.752768 
L 56.571721 327.752768 
L 56.869058 328.293887 
L 57.048846 327.752768 
L 57.199236 328.293887 
L 71.04118 328.293887 
L 71.335837 329.376125 
L 71.451789 328.293887 
L 71.96841 329.376125 
L 88.504632 329.376125 
L 89.205393 329.917245 
L 89.364138 329.376125 
L 90.488179 329.376125 
L 90.793416 329.917245 
L 91.130183 329.376125 
L 91.931437 329.376125 
L 92.374011 329.917245 
L 92.702565 329.376125 
L 118.175742 329.376125 
L 118.450428 329.917245 
L 118.801425 329.917245 
L 119.112672 329.376125 
L 119.432896 329.376125 
L 119.653547 329.917245 
L 119.89269 329.376125 
L 120.290108 329.917245 
L 126.939919 329.917245 
L 127.324121 329.376125 
L 127.598571 329.376125 
L 127.908786 330.458364 
L 129.420897 330.458364 
L 129.771785 333.163959 
L 132.340928 330.999483 
L 132.603255 331.540602 
L 134.440136 331.540602 
L 134.798499 334.246197 
L 135.114513 334.787316 
L 149.350348 334.787316 
L 149.848015 334.246197 
L 150.241838 334.787316 
L 151.120236 334.246197 
L 153.259605 334.246197 
L 154.525255 334.787316 
L 159.80937 334.787316 
L 160.208916 335.328435 
L 193.579725 335.328435 
L 193.836614 335.869554 
L 194.174478 335.328435 
L 200.119114 335.328435 
L 200.496339 342.362982 
L 201.374381 342.362982 
L 201.732642 346.691935 
L 202.048499 348.315292 
L 221.177641 348.315292 
L 223.868127 348.856411 
L 252.257961 348.856411 
L 252.573578 351.020887 
L 259.152997 351.020887 
L 259.450988 347.774173 
L 274.660456 347.774173 
L 274.834552 348.315292 
L 303.156465 348.315292 
L 303.365911 348.856411 
L 303.697973 348.315292 
L 311.349289 348.315292 
L 311.491163 348.856411 
L 311.78064 348.315292 
L 313.720761 348.315292 
L 313.98991 348.856411 
L 314.091628 348.315292 
L 316.970119 348.315292 
L 317.171126 348.856411 
L 326.181797 348.856411 
L 326.383106 348.315292 
L 337.624564 348.315292 
L 337.883597 347.774173 
L 338.013453 348.315292 
L 338.173204 347.774173 
L 338.274512 348.315292 
L 338.477762 348.315292 
L 338.562944 347.774173 
L 338.790874 348.315292 
L 340.148186 348.315292 
L 340.403929 347.774173 
L 340.518496 348.315292 
L 348.398327 348.315292 
L 348.506917 347.774173 
L 375.819101 347.774173 
L 376.009641 348.315292 
L 380.289197 348.315292 
L 380.38236 351.020887 
L 380.655453 348.315292 
L 383.13068 348.315292 
L 383.144231 351.020887 
L 383.453467 348.315292 
L 383.479121 351.020887 
L 408.241194 351.020887 
L 408.551804 350.479768 
L 408.818641 351.020887 
L 438.967306 351.020887 
L 439.169254 351.562006 
L 439.299949 351.020887 
L 439.607415 351.020887 
L 440.047638 351.562006 
L 459.905954 351.562006 
L 460.135208 352.103125 
L 462.959792 352.103125 
L 463.244788 352.644244 
L 468.892571 352.644244 
L 469.008817 352.103125 
L 475.496644 352.103125 
L 475.734798 352.644244 
L 486.793009 352.644244 
L 486.925667 356.432078 
L 495.083423 356.432078 
L 495.383458 355.890959 
L 502.828357 355.890959 
L 503.541549 358.055435 
L 510.752195 358.055435 
L 511.021652 357.514316 
L 524.163075 357.514316 
L 524.61808 356.973197 
L 526.373 356.973197 
L 526.698841 359.137673 
L 527.088424 359.678792 
L 529.139055 359.678792 
L 529.558161 360.219911 
L 546.555547 360.219911 
L 546.730234 356.973197 
L 563.715735 356.973197 
L 563.715735 356.973197 
" clip-path="url(#p4f176883be)" style="fill: none; stroke-dasharray: 12,4.5; stroke-dashoffset: 0; stroke: #ee82ee; stroke-width: 1.5"/>
   </g>
   <g id="patch_3">
    <path d="M 33.2875 374.830125 
L 33.2875 22.318125 
" style="fill: none; stroke: #000000; stroke-width: 0.8; stroke-linejoin: miter; stroke-linecap: square"/>
   </g>
   <g id="patch_4">
    <path d="M 568.9675 374.830125 
L 568.9675 22.318125 
" style="fill: none; stroke: #000000; stroke-width: 0.8; stroke-linejoin: miter; stroke-linecap: square"/>
   </g>
   <g id="patch_5">
    <path d="M 33.2875 374.830125 
L 568.9675 374.830125 
" style="fill: none; stroke: #000000; stroke-width: 0.8; stroke-linejoin: miter; stroke-linecap: square"/>
   </g>
   <g id="patch_6">
    <path d="M 33.2875 22.318125 
L 568.9675 22.318125 
" style="fill: none; stroke: #000000; stroke-width: 0.8; stroke-linejoin: miter; stroke-linecap: square"/>
   </g>
   <g id="text_17">
    <!-- Rust/Coreutils running GNU's testsuite -->
    <g transform="translate(186.090625 16.318125) scale(0.12 -0.12)">
     <defs>
      <path id="DejaVuSans-52" d="M 2841 2188 
Q 3044 2119 3236 1894 
Q 3428 1669 3622 1275 
L 4263 0 
L 3584 0 
L 2988 1197 
Q 2756 1666 2539 1819 
Q 2322 1972 1947 1972 
L 1259 1972 
L 1259 0 
L 628 0 
L 628 4666 
L 2053 4666 
Q 2853 4666 3247 4331 
Q 3641 3997 3641 3322 
Q 3641 2881 3436 2590 
Q 3231 2300 2841 2188 
z
M 1259 4147 
L 1259 2491 
L 2053 2491 
Q 2509 2491 2742 2702 
Q 2975 2913 2975 3322 
Q 2975 3731 2742 3939 
Q 2509 4147 2053 4147 
L 1259 4147 
z
" transform="scale(0.015625)"/>
      <path id="DejaVuSans-75" d="M 544 1381 
L 544 3500 
L 1119 3500 
L 1119 1403 
Q 1119 906 1312 657 
Q 1506 409 1894 409 
Q 2359 409 2629 706 
Q 2900 1003 2900 1516 
L 2900 3500 
L 3475 3500 
L 3475 0 
L 2900 0 
L 2900 538 
Q 2691 219 2414 64 
Q 2138 -91 1772 -91 
Q 1169 -91 856 284 
Q 544 659 544 1381 
z
M 1991 3584 
L 1991 3584 
z
" transform="scale(0.015625)"/>
      <path id="DejaVuSans-73" d="M 2834 3397 
L 2834 2853 
Q 2591 2978 2328 3040 
Q 2066 3103 1784 3103 
Q 1356 3103 1142 2972 
Q 928 2841 928 2578 
Q 928 2378 1081 2264 
Q 1234 2150 1697 2047 
L 1894 2003 
Q 2506 1872 2764 1633 
Q 3022 1394 3022 966 
Q 3022 478 2636 193 
Q 2250 -91 1575 -91 
Q 1294 -91 989 -36 
Q 684 19 347 128 
L 347 722 
Q 666 556 975 473 
Q 1284 391 1588 391 
Q 1994 391 2212 530 
Q 2431 669 2431 922 
Q 2431 1156 2273 1281 
Q 2116 1406 1581 1522 
L 1381 1569 
Q 847 1681 609 1914 
Q 372 2147 372 2553 
Q 372 3047 722 3315 
Q 1072 3584 1716 3584 
Q 2034 3584 2315 3537 
Q 2597 3491 2834 3397 
z
" transform="scale(0.015625)"/>
      <path id="DejaVuSans-74" d="M 1172 4494 
L 1172 3500 
L 2356 3500 
L 2356 3053 
L 1172 3053 
L 1172 1153 
Q 1172 725 1289 603 
Q 1406 481 1766 481 
L 2356 481 
L 2356 0 
L 1766 0 
Q 1100 0 847 248 
Q 594 497 594 1153 
L 594 3053 
L 172 3053 
L 172 3500 
L 594 3500 
L 594 4494 
L 1172 4494 
z
" transform="scale(0.015625)"/>
      <path id="DejaVuSans-2f" d="M 1625 4666 
L 2156 4666 
L 531 -594 
L 0 -594 
L 1625 4666 
z
" transform="scale(0.015625)"/>
      <path id="DejaVuSans-43" d="M 4122 4306 
L 4122 3641 
Q 3803 3938 3442 4084 
Q 3081 4231 2675 4231 
Q 1875 4231 1450 3742 
Q 1025 3253 1025 2328 
Q 1025 1406 1450 917 
Q 1875 428 2675 428 
Q 3081 428 3442 575 
Q 3803 722 4122 1019 
L 4122 359 
Q 3791 134 3420 21 
Q 3050 -91 2638 -91 
Q 1578 -91 968 557 
Q 359 1206 359 2328 
Q 359 3453 968 4101 
Q 1578 4750 2638 4750 
Q 3056 4750 3426 4639 
Q 3797 4528 4122 4306 
z
" transform="scale(0.015625)"/>
      <path id="DejaVuSans-6f" d="M 1959 3097 
Q 1497 3097 1228 2736 
Q 959 2375 959 1747 
Q 959 1119 1226 758 
Q 1494 397 1959 397 
Q 2419 397 2687 759 
Q 2956 1122 2956 1747 
Q 2956 2369 2687 2733 
Q 2419 3097 1959 3097 
z
M 1959 3584 
Q 2709 3584 3137 3096 
Q 3566 2609 3566 1747 
Q 3566 888 3137 398 
Q 2709 -91 1959 -91 
Q 1206 -91 779 398 
Q 353 888 353 1747 
Q 353 2609 779 3096 
Q 1206 3584 1959 3584 
z
" transform="scale(0.015625)"/>
      <path id="DejaVuSans-72" d="M 2631 2963 
Q 2534 3019 2420 3045 
Q 2306 3072 2169 3072 
Q 1681 3072 1420 2755 
Q 1159 2438 1159 1844 
L 1159 0 
L 581 0 
L 581 3500 
L 1159 3500 
L 1159 2956 
Q 1341 3275 1631 3429 
Q 1922 3584 2338 3584 
Q 2397 3584 2469 3576 
Q 2541 3569 2628 3553 
L 2631 2963 
z
" transform="scale(0.015625)"/>
      <path id="DejaVuSans-65" d="M 3597 1894 
L 3597 1613 
L 953 1613 
Q 991 1019 1311 708 
Q 1631 397 2203 397 
Q 2534 397 2845 478 
Q 3156 559 3463 722 
L 3463 178 
Q 3153 47 2828 -22 
Q 2503 -91 2169 -91 
Q 1331 -91 842 396 
Q 353 884 353 1716 
Q 353 2575 817 3079 
Q 1281 3584 2069 3584 
Q 2775 3584 3186 3129 
Q 3597 2675 3597 1894 
z
M 3022 2063 
Q 3016 2534 2758 2815 
Q 2500 3097 2075 3097 
Q 1594 3097 1305 2825 
Q 1016 2553 972 2059 
L 3022 2063 
z
" transform="scale(0.015625)"/>
      <path id="DejaVuSans-69" d="M 603 3500 
L 1178 3500 
L 1178 0 
L 603 0 
L 603 3500 
z
M 603 4863 
L 1178 4863 
L 1178 4134 
L 603 4134 
L 603 4863 
z
" transform="scale(0.015625)"/>
      <path id="DejaVuSans-6c" d="M 603 4863 
L 1178 4863 
L 1178 0 
L 603 0 
L 603 4863 
z
" transform="scale(0.015625)"/>
      <path id="DejaVuSans-20" transform="scale(0.015625)"/>
      <path id="DejaVuSans-6e" d="M 3513 2113 
L 3513 0 
L 2938 0 
L 2938 2094 
Q 2938 2591 2744 2837 
Q 2550 3084 2163 3084 
Q 1697 3084 1428 2787 
Q 1159 2491 1159 1978 
L 1159 0 
L 581 0 
L 581 3500 
L 1159 3500 
L 1159 2956 
Q 1366 3272 1645 3428 
Q 1925 3584 2291 3584 
Q 2894 3584 3203 3211 
Q 3513 2838 3513 2113 
z
" transform="scale(0.015625)"/>
      <path id="DejaVuSans-67" d="M 2906 1791 
Q 2906 2416 2648 2759 
Q 2391 3103 1925 3103 
Q 1463 3103 1205 2759 
Q 947 2416 947 1791 
Q 947 1169 1205 825 
Q 1463 481 1925 481 
Q 2391 481 2648 825 
Q 2906 1169 2906 1791 
z
M 3481 434 
Q 3481 -459 3084 -895 
Q 2688 -1331 1869 -1331 
Q 1566 -1331 1297 -1286 
Q 1028 -1241 775 -1147 
L 775 -588 
Q 1028 -725 1275 -790 
Q 1522 -856 1778 -856 
Q 2344 -856 2625 -561 
Q 2906 -266 2906 331 
L 2906 616 
Q 2728 306 2450 153 
Q 2172 0 1784 0 
Q 1141 0 747 490 
Q 353 981 353 1791 
Q 353 2603 747 3093 
Q 1141 3584 1784 3584 
Q 2172 3584 2450 3431 
Q 2728 3278 2906 2969 
L 2906 3500 
L 3481 3500 
L 3481 434 
z
" transform="scale(0.015625)"/>
      <path id="DejaVuSans-47" d="M 3809 666 
L 3809 1919 
L 2778 1919 
L 2778 2438 
L 4434 2438 
L 4434 434 
Q 4069 175 3628 42 
Q 3188 -91 2688 -91 
Q 1594 -91 976 548 
Q 359 1188 359 2328 
Q 359 3472 976 4111 
Q 1594 4750 2688 4750 
Q 3144 4750 3555 4637 
Q 3966 4525 4313 4306 
L 4313 3634 
Q 3963 3931 3569 4081 
Q 3175 4231 2741 4231 
Q 1884 4231 1454 3753 
Q 1025 3275 1025 2328 
Q 1025 1384 1454 906 
Q 1884 428 2741 428 
Q 3075 428 3337 486 
Q 3600 544 3809 666 
z
" transform="scale(0.015625)"/>
      <path id="DejaVuSans-4e" d="M 628 4666 
L 1478 4666 
L 3547 763 
L 3547 4666 
L 4159 4666 
L 4159 0 
L 3309 0 
L 1241 3903 
L 1241 0 
L 628 0 
L 628 4666 
z
" transform="scale(0.015625)"/>
      <path id="DejaVuSans-55" d="M 556 4666 
L 1191 4666 
L 1191 1831 
Q 1191 1081 1462 751 
Q 1734 422 2344 422 
Q 2950 422 3222 751 
Q 3494 1081 3494 1831 
L 3494 4666 
L 4128 4666 
L 4128 1753 
Q 4128 841 3676 375 
Q 3225 -91 2344 -91 
Q 1459 -91 1007 375 
Q 556 841 556 1753 
L 556 4666 
z
" transform="scale(0.015625)"/>
      <path id="DejaVuSans-27" d="M 1147 4666 
L 1147 2931 
L 616 2931 
L 616 4666 
L 1147 4666 
z
" transform="scale(0.015625)"/>
     </defs>
     <use xlink:href="#DejaVuSans-52"/>
     <use xlink:href="#DejaVuSans-75" x="64.982422"/>
     <use xlink:href="#DejaVuSans-73" x="128.361328"/>
     <use xlink:href="#DejaVuSans-74" x="180.460938"/>
     <use xlink:href="#DejaVuSans-2f" x="219.669922"/>
     <use xlink:href="#DejaVuSans-43" x="253.361328"/>
     <use xlink:href="#DejaVuSans-6f" x="323.185547"/>
     <use xlink:href="#DejaVuSans-72" x="384.367188"/>
     <use xlink:href="#DejaVuSans-65" x="423.230469"/>
     <use xlink:href="#DejaVuSans-75" x="484.753906"/>
     <use xlink:href="#DejaVuSans-74" x="548.132812"/>
     <use xlink:href="#DejaVuSans-69" x="587.341797"/>
     <use xlink:href="#DejaVuSans-6c" x="615.125"/>
     <use xlink:href="#DejaVuSans-73" x="642.908203"/>
     <use xlink:href="#DejaVuSans-20" x="695.007812"/>
     <use xlink:href="#DejaVuSans-72" x="726.794922"/>
     <use xlink:href="#DejaVuSans-75" x="767.908203"/>
     <use xlink:href="#DejaVuSans-6e" x="831.287109"/>
     <use xlink:href="#DejaVuSans-6e" x="894.666016"/>
     <use xlink:href="#DejaVuSans-69" x="958.044922"/>
     <use xlink:href="#DejaVuSans-6e" x="985.828125"/>
     <use xlink:href="#DejaVuSans-67" x="1049.207031"/>
     <use xlink:href="#DejaVuSans-20" x="1112.683594"/>
     <use xlink:href="#DejaVuSans-47" x="1144.470703"/>
     <use xlink:href="#DejaVuSans-4e" x="1221.960938"/>
     <use xlink:href="#DejaVuSans-55" x="1296.765625"/>
     <use xlink:href="#DejaVuSans-27" x="1369.958984"/>
     <use xlink:href="#DejaVuSans-73" x="1397.449219"/>
     <use xlink:href="#DejaVuSans-20" x="1449.548828"/>
     <use xlink:href="#DejaVuSans-74" x="1481.335938"/>
     <use xlink:href="#DejaVuSans-65" x="1520.544922"/>
     <use xlink:href="#DejaVuSans-73" x="1582.068359"/>
     <use xlink:href="#DejaVuSans-74" x="1634.167969"/>
     <use xlink:href="#DejaVuSans-73" x="1673.376953"/>
     <use xlink:href="#DejaVuSans-75" x="1725.476562"/>
     <use xlink:href="#DejaVuSans-69" x="1788.855469"/>
     <use xlink:href="#DejaVuSans-74" x="1816.638672"/>
     <use xlink:href="#DejaVuSans-65" x="1855.847656"/>
    </g>
   </g>
   <g id="legend_1">
    <g id="patch_7">
     <path d="M 505.762812 236.769437 
L 561.9675 236.769437 
Q 563.9675 236.769437 563.9675 234.769437 
L 563.9675 162.378812 
Q 563.9675 160.378812 561.9675 160.378812 
L 505.762812 160.378812 
Q 503.762812 160.378812 503.762812 162.378812 
L 503.762812 234.769437 
Q 503.762812 236.769437 505.762812 236.769437 
z
" style="fill: #ffffff; opacity: 0.8; stroke: #cccccc; stroke-linejoin: miter"/>
    </g>
    <g id="line2d_22">
     <path d="M 507.762812 168.47725 
L 517.762812 168.47725 
L 527.762812 168.47725 
" style="fill: none; stroke: #0000ff; stroke-width: 1.5; stroke-linecap: square"/>
    </g>
    <g id="text_18">
     <!-- total -->
     <g transform="translate(535.762812 171.97725) scale(0.1 -0.1)">
      <defs>
       <path id="DejaVuSans-61" d="M 2194 1759 
Q 1497 1759 1228 1600 
Q 959 1441 959 1056 
Q 959 750 1161 570 
Q 1363 391 1709 391 
Q 2188 391 2477 730 
Q 2766 1069 2766 1631 
L 2766 1759 
L 2194 1759 
z
M 3341 1997 
L 3341 0 
L 2766 0 
L 2766 531 
Q 2569 213 2275 61 
Q 1981 -91 1556 -91 
Q 1019 -91 701 211 
Q 384 513 384 1019 
Q 384 1609 779 1909 
Q 1175 2209 1959 2209 
L 2766 2209 
L 2766 2266 
Q 2766 2663 2505 2880 
Q 2244 3097 1772 3097 
Q 1472 3097 1187 3025 
Q 903 2953 641 2809 
L 641 3341 
Q 956 3463 1253 3523 
Q 1550 3584 1831 3584 
Q 2591 3584 2966 3190 
Q 3341 2797 3341 1997 
z
" transform="scale(0.015625)"/>
      </defs>
      <use xlink:href="#DejaVuSans-74"/>
      <use xlink:href="#DejaVuSans-6f" x="39.208984"/>
      <use xlink:href="#DejaVuSans-74" x="100.390625"/>
      <use xlink:href="#DejaVuSans-61" x="139.599609"/>
      <use xlink:href="#DejaVuSans-6c" x="200.878906"/>
     </g>
    </g>
    <g id="line2d_23">
     <path d="M 507.762812 183.155375 
L 517.762812 183.155375 
L 527.762812 183.155375 
" style="fill: none; stroke-dasharray: 3,1.5; stroke-dashoffset: 0; stroke: #808080; stroke-width: 1.5"/>
    </g>
    <g id="text_19">
     <!-- fail -->
     <g transform="translate(535.762812 186.655375) scale(0.1 -0.1)">
      <defs>
       <path id="DejaVuSans-66" d="M 2375 4863 
L 2375 4384 
L 1825 4384 
Q 1516 4384 1395 4259 
Q 1275 4134 1275 3809 
L 1275 3500 
L 2222 3500 
L 2222 3053 
L 1275 3053 
L 1275 0 
L 697 0 
L 697 3053 
L 147 3053 
L 147 3500 
L 697 3500 
L 697 3744 
Q 697 4328 969 4595 
Q 1241 4863 1831 4863 
L 2375 4863 
z
" transform="scale(0.015625)"/>
      </defs>
      <use xlink:href="#DejaVuSans-66"/>
      <use xlink:href="#DejaVuSans-61" x="35.205078"/>
      <use xlink:href="#DejaVuSans-69" x="96.484375"/>
      <use xlink:href="#DejaVuSans-6c" x="124.267578"/>
     </g>
    </g>
    <g id="line2d_24">
     <path d="M 507.762812 197.8335 
L 517.762812 197.8335 
L 527.762812 197.8335 
" style="fill: none; stroke-dasharray: 6,1.5; stroke-dashoffset: 0; stroke: #008000; stroke-width: 1.5"/>
    </g>
    <g id="text_20">
     <!-- pass -->
     <g transform="translate(535.762812 201.3335) scale(0.1 -0.1)">
      <defs>
       <path id="DejaVuSans-70" d="M 1159 525 
L 1159 -1331 
L 581 -1331 
L 581 3500 
L 1159 3500 
L 1159 2969 
Q 1341 3281 1617 3432 
Q 1894 3584 2278 3584 
Q 2916 3584 3314 3078 
Q 3713 2572 3713 1747 
Q 3713 922 3314 415 
Q 2916 -91 2278 -91 
Q 1894 -91 1617 61 
Q 1341 213 1159 525 
z
M 3116 1747 
Q 3116 2381 2855 2742 
Q 2594 3103 2138 3103 
Q 1681 3103 1420 2742 
Q 1159 2381 1159 1747 
Q 1159 1113 1420 752 
Q 1681 391 2138 391 
Q 2594 391 2855 752 
Q 3116 1113 3116 1747 
z
" transform="scale(0.015625)"/>
      </defs>
      <use xlink:href="#DejaVuSans-70"/>
      <use xlink:href="#DejaVuSans-61" x="63.476562"/>
      <use xlink:href="#DejaVuSans-73" x="124.755859"/>
      <use xlink:href="#DejaVuSans-73" x="176.855469"/>
     </g>
    </g>
    <g id="line2d_25">
     <path d="M 507.762812 212.511625 
L 517.762812 212.511625 
L 527.762812 212.511625 
" style="fill: none; stroke-dasharray: 9,3; stroke-dashoffset: 0; stroke: #ffa500; stroke-width: 1.5"/>
    </g>
    <g id="text_21">
     <!-- error -->
     <g transform="translate(535.762812 216.011625) scale(0.1 -0.1)">
      <use xlink:href="#DejaVuSans-65"/>
      <use xlink:href="#DejaVuSans-72" x="61.523438"/>
      <use xlink:href="#DejaVuSans-72" x="100.886719"/>
      <use xlink:href="#DejaVuSans-6f" x="139.75"/>
      <use xlink:href="#DejaVuSans-72" x="200.931641"/>
     </g>
    </g>
    <g id="line2d_26">
     <path d="M 507.762812 227.18975 
L 517.762812 227.18975 
L 527.762812 227.18975 
" style="fill: none; stroke-dasharray: 12,4.5; stroke-dashoffset: 0; stroke: #ee82ee; stroke-width: 1.5"/>
    </g>
    <g id="text_22">
     <!-- skip -->
     <g transform="translate(535.762812 230.68975) scale(0.1 -0.1)">
      <defs>
       <path id="DejaVuSans-6b" d="M 581 4863 
L 1159 4863 
L 1159 1991 
L 2875 3500 
L 3609 3500 
L 1753 1863 
L 3688 0 
L 2938 0 
L 1159 1709 
L 1159 0 
L 581 0 
L 581 4863 
z
" transform="scale(0.015625)"/>
      </defs>
      <use xlink:href="#DejaVuSans-73"/>
      <use xlink:href="#DejaVuSans-6b" x="52.099609"/>
      <use xlink:href="#DejaVuSans-69" x="110.009766"/>
      <use xlink:href="#DejaVuSans-70" x="137.792969"/>
     </g>
    </g>
   </g>
  </g>
 </g>
 <defs>
  <clipPath id="p4f176883be">
   <rect x="33.2875" y="22.318125" width="535.68" height="352.512"/>
  </clipPath>
 </defs>
</svg>
