<?xml version="1.0" encoding="utf-8" standalone="no"?>
<!DOCTYPE svg PUBLIC "-//W3C//DTD SVG 1.1//EN"
  "http://www.w3.org/Graphics/SVG/1.1/DTD/svg11.dtd">
<svg xmlns:xlink="http://www.w3.org/1999/xlink" width="576.1675pt" height="418.303033pt" viewBox="0 0 576.1675 418.303033" xmlns="http://www.w3.org/2000/svg" version="1.1">
 <metadata>
  <rdf:RDF xmlns:dc="http://purl.org/dc/elements/1.1/" xmlns:cc="http://creativecommons.org/ns#" xmlns:rdf="http://www.w3.org/1999/02/22-rdf-syntax-ns#">
   <cc:Work>
    <dc:type rdf:resource="http://purl.org/dc/dcmitype/StillImage"/>
    <dc:date>2025-07-27T14:02:49.224090</dc:date>
    <dc:format>image/svg+xml</dc:format>
    <dc:creator>
     <cc:Agent>
      <dc:title>Matplotlib v3.6.3, https://matplotlib.org/</dc:title>
     </cc:Agent>
    </dc:creator>
   </cc:Work>
  </rdf:RDF>
 </metadata>
 <defs>
  <style type="text/css">*{stroke-linejoin: round; stroke-linecap: butt}</style>
 </defs>
 <g id="figure_1">
  <g id="patch_1">
   <path d="M -0 418.303033 
L 576.1675 418.303033 
L 576.1675 0 
L -0 0 
z
" style="fill: #ffffff"/>
  </g>
  <g id="axes_1">
   <g id="patch_2">
    <path d="M 33.2875 374.830125 
L 568.9675 374.830125 
L 568.9675 22.318125 
L 33.2875 22.318125 
z
" style="fill: #ffffff"/>
   </g>
   <g id="matplotlib.axis_1">
    <g id="xtick_1">
     <g id="line2d_1">
      <defs>
       <path id="mf5cbe1c628" d="M 0 0 
L 0 3.5 
" style="stroke: #000000; stroke-width: 0.8"/>
      </defs>
      <g>
       <use xlink:href="#mf5cbe1c628" x="62.596272" y="374.830125" style="stroke: #000000; stroke-width: 0.8"/>
      </g>
     </g>
     <g id="text_1">
      <!-- 2021-07 -->
      <g transform="translate(25.371451 409.301971) rotate(-30) scale(0.1 -0.1)">
       <defs>
        <path id="DejaVuSans-32" d="M 1228 531 
L 3431 531 
L 3431 0 
L 469 0 
L 469 531 
Q 828 903 1448 1529 
Q 2069 2156 2228 2338 
Q 2531 2678 2651 2914 
Q 2772 3150 2772 3378 
Q 2772 3750 2511 3984 
Q 2250 4219 1831 4219 
Q 1534 4219 1204 4116 
Q 875 4013 500 3803 
L 500 4441 
Q 881 4594 1212 4672 
Q 1544 4750 1819 4750 
Q 2544 4750 2975 4387 
Q 3406 4025 3406 3419 
Q 3406 3131 3298 2873 
Q 3191 2616 2906 2266 
Q 2828 2175 2409 1742 
Q 1991 1309 1228 531 
z
" transform="scale(0.015625)"/>
        <path id="DejaVuSans-30" d="M 2034 4250 
Q 1547 4250 1301 3770 
Q 1056 3291 1056 2328 
Q 1056 1369 1301 889 
Q 1547 409 2034 409 
Q 2525 409 2770 889 
Q 3016 1369 3016 2328 
Q 3016 3291 2770 3770 
Q 2525 4250 2034 4250 
z
M 2034 4750 
Q 2819 4750 3233 4129 
Q 3647 3509 3647 2328 
Q 3647 1150 3233 529 
Q 2819 -91 2034 -91 
Q 1250 -91 836 529 
Q 422 1150 422 2328 
Q 422 3509 836 4129 
Q 1250 4750 2034 4750 
z
" transform="scale(0.015625)"/>
        <path id="DejaVuSans-31" d="M 794 531 
L 1825 531 
L 1825 4091 
L 703 3866 
L 703 4441 
L 1819 4666 
L 2450 4666 
L 2450 531 
L 3481 531 
L 3481 0 
L 794 0 
L 794 531 
z
" transform="scale(0.015625)"/>
        <path id="DejaVuSans-2d" d="M 313 2009 
L 1997 2009 
L 1997 1497 
L 313 1497 
L 313 2009 
z
" transform="scale(0.015625)"/>
        <path id="DejaVuSans-37" d="M 525 4666 
L 3525 4666 
L 3525 4397 
L 1831 0 
L 1172 0 
L 2766 4134 
L 525 4134 
L 525 4666 
z
" transform="scale(0.015625)"/>
       </defs>
       <use xlink:href="#DejaVuSans-32"/>
       <use xlink:href="#DejaVuSans-30" x="63.623047"/>
       <use xlink:href="#DejaVuSans-32" x="127.246094"/>
       <use xlink:href="#DejaVuSans-31" x="190.869141"/>
       <use xlink:href="#DejaVuSans-2d" x="254.492188"/>
       <use xlink:href="#DejaVuSans-30" x="290.576172"/>
       <use xlink:href="#DejaVuSans-37" x="354.199219"/>
      </g>
     </g>
    </g>
    <g id="xtick_2">
     <g id="line2d_2">
      <g>
       <use xlink:href="#mf5cbe1c628" x="124.581199" y="374.830125" style="stroke: #000000; stroke-width: 0.8"/>
      </g>
     </g>
     <g id="text_2">
      <!-- 2022-01 -->
      <g transform="translate(87.356378 409.301971) rotate(-30) scale(0.1 -0.1)">
       <use xlink:href="#DejaVuSans-32"/>
       <use xlink:href="#DejaVuSans-30" x="63.623047"/>
       <use xlink:href="#DejaVuSans-32" x="127.246094"/>
       <use xlink:href="#DejaVuSans-32" x="190.869141"/>
       <use xlink:href="#DejaVuSans-2d" x="254.492188"/>
       <use xlink:href="#DejaVuSans-30" x="290.576172"/>
       <use xlink:href="#DejaVuSans-31" x="354.199219"/>
      </g>
     </g>
    </g>
    <g id="xtick_3">
     <g id="line2d_3">
      <g>
       <use xlink:href="#mf5cbe1c628" x="185.555502" y="374.830125" style="stroke: #000000; stroke-width: 0.8"/>
      </g>
     </g>
     <g id="text_3">
      <!-- 2022-07 -->
      <g transform="translate(148.330682 409.301971) rotate(-30) scale(0.1 -0.1)">
       <use xlink:href="#DejaVuSans-32"/>
       <use xlink:href="#DejaVuSans-30" x="63.623047"/>
       <use xlink:href="#DejaVuSans-32" x="127.246094"/>
       <use xlink:href="#DejaVuSans-32" x="190.869141"/>
       <use xlink:href="#DejaVuSans-2d" x="254.492188"/>
       <use xlink:href="#DejaVuSans-30" x="290.576172"/>
       <use xlink:href="#DejaVuSans-37" x="354.199219"/>
      </g>
     </g>
    </g>
    <g id="xtick_4">
     <g id="line2d_4">
      <g>
       <use xlink:href="#mf5cbe1c628" x="247.54043" y="374.830125" style="stroke: #000000; stroke-width: 0.8"/>
      </g>
     </g>
     <g id="text_4">
      <!-- 2023-01 -->
      <g transform="translate(210.315609 409.301971) rotate(-30) scale(0.1 -0.1)">
       <defs>
        <path id="DejaVuSans-33" d="M 2597 2516 
Q 3050 2419 3304 2112 
Q 3559 1806 3559 1356 
Q 3559 666 3084 287 
Q 2609 -91 1734 -91 
Q 1441 -91 1130 -33 
Q 819 25 488 141 
L 488 750 
Q 750 597 1062 519 
Q 1375 441 1716 441 
Q 2309 441 2620 675 
Q 2931 909 2931 1356 
Q 2931 1769 2642 2001 
Q 2353 2234 1838 2234 
L 1294 2234 
L 1294 2753 
L 1863 2753 
Q 2328 2753 2575 2939 
Q 2822 3125 2822 3475 
Q 2822 3834 2567 4026 
Q 2313 4219 1838 4219 
Q 1578 4219 1281 4162 
Q 984 4106 628 3988 
L 628 4550 
Q 988 4650 1302 4700 
Q 1616 4750 1894 4750 
Q 2613 4750 3031 4423 
Q 3450 4097 3450 3541 
Q 3450 3153 3228 2886 
Q 3006 2619 2597 2516 
z
" transform="scale(0.015625)"/>
       </defs>
       <use xlink:href="#DejaVuSans-32"/>
       <use xlink:href="#DejaVuSans-30" x="63.623047"/>
       <use xlink:href="#DejaVuSans-32" x="127.246094"/>
       <use xlink:href="#DejaVuSans-33" x="190.869141"/>
       <use xlink:href="#DejaVuSans-2d" x="254.492188"/>
       <use xlink:href="#DejaVuSans-30" x="290.576172"/>
       <use xlink:href="#DejaVuSans-31" x="354.199219"/>
      </g>
     </g>
    </g>
    <g id="xtick_5">
     <g id="line2d_5">
      <g>
       <use xlink:href="#mf5cbe1c628" x="308.514733" y="374.830125" style="stroke: #000000; stroke-width: 0.8"/>
      </g>
     </g>
     <g id="text_5">
      <!-- 2023-07 -->
      <g transform="translate(271.289912 409.301971) rotate(-30) scale(0.1 -0.1)">
       <use xlink:href="#DejaVuSans-32"/>
       <use xlink:href="#DejaVuSans-30" x="63.623047"/>
       <use xlink:href="#DejaVuSans-32" x="127.246094"/>
       <use xlink:href="#DejaVuSans-33" x="190.869141"/>
       <use xlink:href="#DejaVuSans-2d" x="254.492188"/>
       <use xlink:href="#DejaVuSans-30" x="290.576172"/>
       <use xlink:href="#DejaVuSans-37" x="354.199219"/>
      </g>
     </g>
    </g>
    <g id="xtick_6">
     <g id="line2d_6">
      <g>
       <use xlink:href="#mf5cbe1c628" x="370.49966" y="374.830125" style="stroke: #000000; stroke-width: 0.8"/>
      </g>
     </g>
     <g id="text_6">
      <!-- 2024-01 -->
      <g transform="translate(333.27484 409.301971) rotate(-30) scale(0.1 -0.1)">
       <defs>
        <path id="DejaVuSans-34" d="M 2419 4116 
L 825 1625 
L 2419 1625 
L 2419 4116 
z
M 2253 4666 
L 3047 4666 
L 3047 1625 
L 3713 1625 
L 3713 1100 
L 3047 1100 
L 3047 0 
L 2419 0 
L 2419 1100 
L 313 1100 
L 313 1709 
L 2253 4666 
z
" transform="scale(0.015625)"/>
       </defs>
       <use xlink:href="#DejaVuSans-32"/>
       <use xlink:href="#DejaVuSans-30" x="63.623047"/>
       <use xlink:href="#DejaVuSans-32" x="127.246094"/>
       <use xlink:href="#DejaVuSans-34" x="190.869141"/>
       <use xlink:href="#DejaVuSans-2d" x="254.492188"/>
       <use xlink:href="#DejaVuSans-30" x="290.576172"/>
       <use xlink:href="#DejaVuSans-31" x="354.199219"/>
      </g>
     </g>
    </g>
    <g id="xtick_7">
     <g id="line2d_7">
      <g>
       <use xlink:href="#mf5cbe1c628" x="431.810838" y="374.830125" style="stroke: #000000; stroke-width: 0.8"/>
      </g>
     </g>
     <g id="text_7">
      <!-- 2024-07 -->
      <g transform="translate(394.586018 409.301971) rotate(-30) scale(0.1 -0.1)">
       <use xlink:href="#DejaVuSans-32"/>
       <use xlink:href="#DejaVuSans-30" x="63.623047"/>
       <use xlink:href="#DejaVuSans-32" x="127.246094"/>
       <use xlink:href="#DejaVuSans-34" x="190.869141"/>
       <use xlink:href="#DejaVuSans-2d" x="254.492188"/>
       <use xlink:href="#DejaVuSans-30" x="290.576172"/>
       <use xlink:href="#DejaVuSans-37" x="354.199219"/>
      </g>
     </g>
    </g>
    <g id="xtick_8">
     <g id="line2d_8">
      <g>
       <use xlink:href="#mf5cbe1c628" x="493.795766" y="374.830125" style="stroke: #000000; stroke-width: 0.8"/>
      </g>
     </g>
     <g id="text_8">
      <!-- 2025-01 -->
      <g transform="translate(456.570945 409.301971) rotate(-30) scale(0.1 -0.1)">
       <defs>
        <path id="DejaVuSans-35" d="M 691 4666 
L 3169 4666 
L 3169 4134 
L 1269 4134 
L 1269 2991 
Q 1406 3038 1543 3061 
Q 1681 3084 1819 3084 
Q 2600 3084 3056 2656 
Q 3513 2228 3513 1497 
Q 3513 744 3044 326 
Q 2575 -91 1722 -91 
Q 1428 -91 1123 -41 
Q 819 9 494 109 
L 494 744 
Q 775 591 1075 516 
Q 1375 441 1709 441 
Q 2250 441 2565 725 
Q 2881 1009 2881 1497 
Q 2881 1984 2565 2268 
Q 2250 2553 1709 2553 
Q 1456 2553 1204 2497 
Q 953 2441 691 2322 
L 691 4666 
z
" transform="scale(0.015625)"/>
       </defs>
       <use xlink:href="#DejaVuSans-32"/>
       <use xlink:href="#DejaVuSans-30" x="63.623047"/>
       <use xlink:href="#DejaVuSans-32" x="127.246094"/>
       <use xlink:href="#DejaVuSans-35" x="190.869141"/>
       <use xlink:href="#DejaVuSans-2d" x="254.492188"/>
       <use xlink:href="#DejaVuSans-30" x="290.576172"/>
       <use xlink:href="#DejaVuSans-31" x="354.199219"/>
      </g>
     </g>
    </g>
    <g id="xtick_9">
     <g id="line2d_9">
      <g>
       <use xlink:href="#mf5cbe1c628" x="554.770069" y="374.830125" style="stroke: #000000; stroke-width: 0.8"/>
      </g>
     </g>
     <g id="text_9">
      <!-- 2025-07 -->
      <g transform="translate(517.545248 409.301971) rotate(-30) scale(0.1 -0.1)">
       <use xlink:href="#DejaVuSans-32"/>
       <use xlink:href="#DejaVuSans-30" x="63.623047"/>
       <use xlink:href="#DejaVuSans-32" x="127.246094"/>
       <use xlink:href="#DejaVuSans-35" x="190.869141"/>
       <use xlink:href="#DejaVuSans-2d" x="254.492188"/>
       <use xlink:href="#DejaVuSans-30" x="290.576172"/>
       <use xlink:href="#DejaVuSans-37" x="354.199219"/>
      </g>
     </g>
    </g>
   </g>
   <g id="matplotlib.axis_2">
    <g id="ytick_1">
     <g id="line2d_10">
      <defs>
       <path id="mcef47a4725" d="M 0 0 
L -3.5 0 
" style="stroke: #000000; stroke-width: 0.8"/>
      </defs>
      <g>
       <use xlink:href="#mcef47a4725" x="33.2875" y="374.830125" style="stroke: #000000; stroke-width: 0.8"/>
      </g>
     </g>
     <g id="text_10">
      <!-- 0 -->
      <g transform="translate(19.925 378.629344) scale(0.1 -0.1)">
       <use xlink:href="#DejaVuSans-30"/>
      </g>
     </g>
    </g>
    <g id="ytick_2">
     <g id="line2d_11">
      <g>
       <use xlink:href="#mcef47a4725" x="33.2875" y="318.897147" style="stroke: #000000; stroke-width: 0.8"/>
      </g>
     </g>
     <g id="text_11">
      <!-- 100 -->
      <g transform="translate(7.2 322.696366) scale(0.1 -0.1)">
       <use xlink:href="#DejaVuSans-31"/>
       <use xlink:href="#DejaVuSans-30" x="63.623047"/>
       <use xlink:href="#DejaVuSans-30" x="127.246094"/>
      </g>
     </g>
    </g>
    <g id="ytick_3">
     <g id="line2d_12">
      <g>
       <use xlink:href="#mcef47a4725" x="33.2875" y="262.964169" style="stroke: #000000; stroke-width: 0.8"/>
      </g>
     </g>
     <g id="text_12">
      <!-- 200 -->
      <g transform="translate(7.2 266.763388) scale(0.1 -0.1)">
       <use xlink:href="#DejaVuSans-32"/>
       <use xlink:href="#DejaVuSans-30" x="63.623047"/>
       <use xlink:href="#DejaVuSans-30" x="127.246094"/>
      </g>
     </g>
    </g>
    <g id="ytick_4">
     <g id="line2d_13">
      <g>
       <use xlink:href="#mcef47a4725" x="33.2875" y="207.031191" style="stroke: #000000; stroke-width: 0.8"/>
      </g>
     </g>
     <g id="text_13">
      <!-- 300 -->
      <g transform="translate(7.2 210.83041) scale(0.1 -0.1)">
       <use xlink:href="#DejaVuSans-33"/>
       <use xlink:href="#DejaVuSans-30" x="63.623047"/>
       <use xlink:href="#DejaVuSans-30" x="127.246094"/>
      </g>
     </g>
    </g>
    <g id="ytick_5">
     <g id="line2d_14">
      <g>
       <use xlink:href="#mcef47a4725" x="33.2875" y="151.098213" style="stroke: #000000; stroke-width: 0.8"/>
      </g>
     </g>
     <g id="text_14">
      <!-- 400 -->
      <g transform="translate(7.2 154.897432) scale(0.1 -0.1)">
       <use xlink:href="#DejaVuSans-34"/>
       <use xlink:href="#DejaVuSans-30" x="63.623047"/>
       <use xlink:href="#DejaVuSans-30" x="127.246094"/>
      </g>
     </g>
    </g>
    <g id="ytick_6">
     <g id="line2d_15">
      <g>
       <use xlink:href="#mcef47a4725" x="33.2875" y="95.165235" style="stroke: #000000; stroke-width: 0.8"/>
      </g>
     </g>
     <g id="text_15">
      <!-- 500 -->
      <g transform="translate(7.2 98.964454) scale(0.1 -0.1)">
       <use xlink:href="#DejaVuSans-35"/>
       <use xlink:href="#DejaVuSans-30" x="63.623047"/>
       <use xlink:href="#DejaVuSans-30" x="127.246094"/>
      </g>
     </g>
    </g>
    <g id="ytick_7">
     <g id="line2d_16">
      <g>
       <use xlink:href="#mcef47a4725" x="33.2875" y="39.232258" style="stroke: #000000; stroke-width: 0.8"/>
      </g>
     </g>
     <g id="text_16">
      <!-- 600 -->
      <g transform="translate(7.2 43.031476) scale(0.1 -0.1)">
       <defs>
        <path id="DejaVuSans-36" d="M 2113 2584 
Q 1688 2584 1439 2293 
Q 1191 2003 1191 1497 
Q 1191 994 1439 701 
Q 1688 409 2113 409 
Q 2538 409 2786 701 
Q 3034 994 3034 1497 
Q 3034 2003 2786 2293 
Q 2538 2584 2113 2584 
z
M 3366 4563 
L 3366 3988 
Q 3128 4100 2886 4159 
Q 2644 4219 2406 4219 
Q 1781 4219 1451 3797 
Q 1122 3375 1075 2522 
Q 1259 2794 1537 2939 
Q 1816 3084 2150 3084 
Q 2853 3084 3261 2657 
Q 3669 2231 3669 1497 
Q 3669 778 3244 343 
Q 2819 -91 2113 -91 
Q 1303 -91 875 529 
Q 447 1150 447 2328 
Q 447 3434 972 4092 
Q 1497 4750 2381 4750 
Q 2619 4750 2861 4703 
Q 3103 4656 3366 4563 
z
" transform="scale(0.015625)"/>
       </defs>
       <use xlink:href="#DejaVuSans-36"/>
       <use xlink:href="#DejaVuSans-30" x="63.623047"/>
       <use xlink:href="#DejaVuSans-30" x="127.246094"/>
      </g>
     </g>
    </g>
   </g>
   <g id="line2d_17">
    <path d="M 38.539265 25.808343 
L 48.55627 25.808343 
L 48.669665 29.164321 
L 50.072108 29.164321 
L 50.585483 38.672928 
L 133.340488 38.672928 
L 133.752509 33.07963 
L 147.523447 33.07963 
L 148.332391 33.63896 
L 154.790609 33.63896 
L 155.016459 44.825555 
L 161.565827 44.825555 
L 162.923116 43.147566 
L 275.126335 43.147566 
L 275.445902 39.232258 
L 284.239892 39.232258 
L 284.553763 38.113598 
L 328.692742 38.113598 
L 328.912553 36.994938 
L 400.239543 36.994938 
L 400.443879 32.5203 
L 454.518674 32.5203 
L 454.611677 31.96097 
L 495.915233 31.96097 
L 496.29481 31.401641 
L 500.051913 31.401641 
L 500.176576 29.164321 
L 501.684355 29.164321 
L 502.07612 29.723651 
L 528.139091 29.723651 
L 528.460849 29.164321 
L 563.715735 29.164321 
L 563.715735 29.164321 
" clip-path="url(#p23ed846ca9)" style="fill: none; stroke: #0000ff; stroke-width: 1.5; stroke-linecap: square"/>
   </g>
   <g id="line2d_18">
    <path d="M 38.539265 168.996766 
L 39.916474 167.878107 
L 41.289238 168.996766 
L 44.540078 168.996766 
L 48.124517 170.115426 
L 48.39043 169.556096 
L 48.55627 169.556096 
L 48.669665 172.912075 
L 48.931378 172.352745 
L 49.318461 172.912075 
L 50.072108 172.912075 
L 50.491853 185.21733 
L 50.585483 182.420681 
L 50.803352 185.77666 
L 50.872638 185.21733 
L 51.116778 185.21733 
L 51.507311 185.77666 
L 52.44723 185.77666 
L 52.475288 186.335989 
L 52.984783 186.335989 
L 53.200445 185.77666 
L 53.83097 189.691968 
L 53.9038 189.132638 
L 54.213408 189.691968 
L 54.812312 191.369957 
L 55.218535 190.251298 
L 55.86062 190.251298 
L 56.21945 191.369957 
L 56.462023 191.369957 
L 57.192823 191.929287 
L 57.520753 191.929287 
L 57.877345 193.047947 
L 58.19621 192.488617 
L 58.550295 193.607277 
L 58.918205 195.844596 
L 60.340791 196.963255 
L 60.944873 196.963255 
L 61.203634 197.522585 
L 61.61592 197.522585 
L 61.919446 198.081915 
L 62.22863 197.522585 
L 62.573353 197.522585 
L 62.775225 198.081915 
L 66.267569 198.081915 
L 66.62004 198.641245 
L 66.9578 198.641245 
L 67.088947 198.081915 
L 67.923129 198.641245 
L 68.272749 198.081915 
L 69.236686 198.081915 
L 69.546166 198.641245 
L 69.926655 198.081915 
L 71.681121 198.081915 
L 72.040586 198.641245 
L 72.237896 200.319234 
L 72.718125 199.200574 
L 73.834791 199.200574 
L 74.388817 199.759904 
L 74.723808 199.759904 
L 75.049157 200.319234 
L 75.4123 200.319234 
L 75.745724 199.759904 
L 76.064327 201.437893 
L 76.347185 201.437893 
L 77.116211 202.556553 
L 81.153824 202.556553 
L 81.474787 203.675213 
L 82.158841 203.675213 
L 82.462457 204.234542 
L 83.480778 204.234542 
L 84.455538 206.471861 
L 85.491611 206.471861 
L 85.8627 207.031191 
L 92.122329 207.031191 
L 92.873828 208.149851 
L 93.044067 207.031191 
L 94.249493 207.031191 
L 94.576831 207.590521 
L 94.937981 207.031191 
L 95.797249 207.031191 
L 96.271868 207.590521 
L 96.624209 207.031191 
L 101.94544 207.031191 
L 102.236232 212.065159 
L 102.437842 207.031191 
L 104.366262 207.031191 
L 104.716335 207.590521 
L 104.916152 212.624489 
L 105.388162 207.590521 
L 105.721532 207.590521 
L 105.942828 207.031191 
L 109.434393 207.031191 
L 109.611209 207.590521 
L 109.928518 207.590521 
L 110.451091 209.26851 
L 115.718087 209.26851 
L 116.867589 209.82784 
L 123.941749 209.82784 
L 124.236324 212.065159 
L 124.612734 212.065159 
L 124.946517 209.82784 
L 125.289926 209.82784 
L 125.526553 212.065159 
L 125.783011 209.82784 
L 126.209204 212.065159 
L 126.586726 213.183819 
L 130.96424 213.183819 
L 131.342073 213.743149 
L 133.340488 213.743149 
L 133.752509 207.590521 
L 134.04683 208.149851 
L 134.379505 209.82784 
L 134.790215 209.82784 
L 135.340908 210.9465 
L 135.72096 210.9465 
L 136.0011 211.505829 
L 136.377394 209.26851 
L 139.132552 214.861808 
L 139.413874 213.183819 
L 139.885576 212.624489 
L 141.383752 212.624489 
L 141.768062 212.065159 
L 142.106956 210.9465 
L 143.463664 210.9465 
L 143.711719 209.82784 
L 144.148026 210.9465 
L 145.133353 210.9465 
L 145.468688 212.065159 
L 145.792146 212.065159 
L 146.175228 212.624489 
L 146.329812 212.624489 
L 146.502577 214.302478 
L 146.736775 214.302478 
L 147.523447 214.861808 
L 148.173448 213.743149 
L 148.332391 213.743149 
L 148.841937 214.302478 
L 149.168865 215.421138 
L 150.858373 215.421138 
L 151.184576 215.980468 
L 151.534871 215.980468 
L 151.859183 216.539798 
L 152.16299 216.539798 
L 152.868934 217.099127 
L 153.233523 217.099127 
L 153.59709 218.777117 
L 153.81205 218.777117 
L 154.189915 218.217787 
L 154.790609 218.217787 
L 155.016459 219.895776 
L 155.573589 219.895776 
L 155.903671 221.014436 
L 156.344501 221.014436 
L 156.571572 221.573766 
L 157.070914 221.573766 
L 157.120603 222.133095 
L 157.373524 222.133095 
L 157.907225 222.692425 
L 159.120952 226.048404 
L 160.633819 226.048404 
L 160.942247 227.167063 
L 161.058383 226.607734 
L 161.192871 226.607734 
L 161.565827 226.048404 
L 162.923116 224.370414 
L 166.318886 224.370414 
L 166.712371 223.811085 
L 168.355909 223.811085 
L 168.589823 223.251755 
L 171.667648 223.251755 
L 172.06392 223.811085 
L 172.617872 223.811085 
L 173.066703 224.370414 
L 173.292542 223.811085 
L 175.456142 223.811085 
L 176.13896 224.929744 
L 177.592149 224.929744 
L 177.836812 232.760361 
L 178.112625 232.760361 
L 180.463124 234.43835 
L 180.607563 233.879021 
L 180.758248 234.43835 
L 181.149374 233.879021 
L 181.477456 233.879021 
L 181.822764 234.43835 
L 182.082072 234.43835 
L 182.498381 235.55701 
L 182.669594 235.55701 
L 182.828046 234.99768 
L 183.183196 236.11634 
L 185.544379 236.11634 
L 185.774085 236.67567 
L 187.044274 236.67567 
L 187.550003 236.11634 
L 187.928905 238.912989 
L 188.19865 237.234999 
L 188.550458 237.234999 
L 188.832446 240.590978 
L 189.029748 240.031648 
L 189.239784 240.590978 
L 189.345572 240.031648 
L 189.47505 241.709638 
L 189.810728 241.709638 
L 190.23604 242.268967 
L 191.06904 241.709638 
L 191.258715 242.828297 
L 191.568699 242.828297 
L 191.788217 241.150308 
L 192.533369 242.828297 
L 193.274306 243.387627 
L 193.925019 243.387627 
L 194.266378 245.065616 
L 194.580147 245.065616 
L 194.766005 244.506286 
L 195.092212 244.506286 
L 196.35387 246.743606 
L 196.564284 245.624946 
L 196.969309 245.065616 
L 197.444357 246.743606 
L 198.72126 246.743606 
L 198.830573 247.302935 
L 199.339366 247.862265 
L 200.695688 247.862265 
L 201.31652 250.658914 
L 204.805289 250.658914 
L 205.080778 251.218244 
L 205.443105 250.099584 
L 205.654046 251.218244 
L 209.457508 251.218244 
L 209.775293 251.777574 
L 210.54164 255.133552 
L 210.829149 253.455563 
L 211.171783 254.014893 
L 211.551176 253.455563 
L 211.818157 253.455563 
L 212.222695 251.777574 
L 212.439613 251.777574 
L 212.481714 252.336903 
L 213.16431 252.336903 
L 213.548511 248.980925 
L 213.887238 248.980925 
L 214.906194 249.540254 
L 214.970668 248.980925 
L 215.523914 248.421595 
L 215.606086 248.980925 
L 218.271883 248.980925 
L 218.457374 249.540254 
L 218.954869 250.099584 
L 219.619194 251.218244 
L 219.791983 252.336903 
L 220.025475 252.336903 
L 220.287044 253.455563 
L 220.601975 252.896233 
L 220.95461 252.896233 
L 221.220319 252.336903 
L 221.594905 252.896233 
L 221.92916 252.896233 
L 222.249522 253.455563 
L 222.508857 253.455563 
L 222.997021 252.896233 
L 223.250804 253.455563 
L 223.513468 252.896233 
L 224.276232 248.421595 
L 225.009956 249.540254 
L 225.117229 253.455563 
L 225.280781 253.455563 
L 225.580042 254.014893 
L 225.927713 253.455563 
L 226.245135 253.455563 
L 226.636156 252.896233 
L 226.974839 254.014893 
L 228.197187 254.014893 
L 228.682969 254.574222 
L 228.960587 254.574222 
L 228.982129 255.133552 
L 230.36721 255.133552 
L 230.761536 256.252212 
L 232.69952 256.252212 
L 233.08585 257.370871 
L 234.401408 257.370871 
L 236.797994 256.811542 
L 237.020319 257.370871 
L 237.619937 257.370871 
L 238.12448 257.930201 
L 238.462458 259.048861 
L 238.563521 258.489531 
L 238.930878 259.60819 
L 239.748095 259.60819 
L 243.057962 260.72685 
L 251.239391 260.72685 
L 251.572647 260.16752 
L 253.172201 260.16752 
L 253.503757 260.72685 
L 254.602483 260.72685 
L 254.981697 261.28618 
L 255.254375 260.72685 
L 255.570834 261.28618 
L 255.920989 260.72685 
L 256.208377 261.84551 
L 256.648533 261.28618 
L 256.969694 261.84551 
L 263.950796 261.84551 
L 264.311412 260.72685 
L 264.693445 261.28618 
L 265.038956 260.72685 
L 265.425964 260.72685 
L 265.736333 260.16752 
L 267.031651 260.16752 
L 267.360556 260.72685 
L 267.73207 260.16752 
L 268.070539 259.048861 
L 268.74168 259.048861 
L 269.120336 258.489531 
L 269.403689 259.60819 
L 269.768192 259.60819 
L 270.049802 259.048861 
L 270.938621 260.16752 
L 271.458585 259.60819 
L 271.767508 260.16752 
L 272.424741 260.16752 
L 272.795681 259.60819 
L 273.159923 261.28618 
L 273.510502 260.72685 
L 274.183558 260.72685 
L 274.44012 260.16752 
L 274.768246 260.72685 
L 275.126335 260.72685 
L 275.445902 255.692882 
L 275.572861 256.252212 
L 275.823989 256.252212 
L 275.99893 256.811542 
L 276.151397 256.811542 
L 276.352133 257.370871 
L 276.48817 256.252212 
L 276.806715 256.811542 
L 276.937153 256.811542 
L 277.159771 257.370871 
L 277.736793 257.370871 
L 278.017405 258.489531 
L 278.29551 257.370871 
L 278.476572 257.930201 
L 279.497411 257.930201 
L 279.801312 257.370871 
L 280.089523 257.370871 
L 280.451691 257.930201 
L 280.786584 257.930201 
L 281.183574 257.370871 
L 281.566675 257.930201 
L 281.863924 257.930201 
L 282.3317 259.048861 
L 284.239892 259.048861 
L 284.553763 257.370871 
L 286.032666 257.370871 
L 286.372316 257.930201 
L 286.639492 258.489531 
L 287.162599 258.489531 
L 287.3258 259.60819 
L 287.400665 259.048861 
L 287.577668 259.60819 
L 288.075541 259.60819 
L 288.319607 260.72685 
L 288.984147 260.72685 
L 289.294345 261.84551 
L 290.32021 261.84551 
L 290.56623 263.523499 
L 290.793246 264.082829 
L 290.924256 264.082829 
L 291.36619 264.642159 
L 291.521733 264.082829 
L 291.597113 264.642159 
L 292.083023 264.642159 
L 292.653683 265.201488 
L 293.933946 265.201488 
L 294.264134 264.642159 
L 294.580512 265.201488 
L 294.93715 265.201488 
L 295.108071 265.760818 
L 295.149183 265.201488 
L 295.352048 265.760818 
L 295.510714 265.760818 
L 295.667404 266.879478 
L 296.270757 267.998137 
L 296.710105 267.438807 
L 297.044137 267.998137 
L 297.700813 267.998137 
L 298.057221 269.116797 
L 298.187698 268.557467 
L 298.399664 270.235456 
L 298.700024 269.676127 
L 298.894823 270.235456 
L 299.048849 269.676127 
L 299.219057 270.794786 
L 299.565979 270.794786 
L 299.66873 271.354116 
L 300.075747 270.794786 
L 300.390542 271.913446 
L 301.100763 271.913446 
L 301.356429 273.032105 
L 301.719068 271.913446 
L 301.965435 271.913446 
L 302.055759 272.472775 
L 302.718591 272.472775 
L 303.028641 274.710095 
L 303.474539 272.472775 
L 303.543673 273.032105 
L 304.13079 272.472775 
L 304.186386 273.591435 
L 304.388319 273.591435 
L 304.795228 274.150765 
L 305.125455 273.591435 
L 305.374933 273.591435 
L 305.744111 274.710095 
L 306.145748 274.710095 
L 306.535236 274.150765 
L 306.826329 274.710095 
L 307.003199 274.150765 
L 307.179115 275.269424 
L 308.737889 275.269424 
L 309.216976 275.828754 
L 310.195156 275.828754 
L 310.542231 274.710095 
L 311.196368 274.710095 
L 311.52376 275.269424 
L 314.502122 275.269424 
L 314.904071 274.710095 
L 315.280848 275.828754 
L 319.851663 275.828754 
L 320.854376 276.388084 
L 321.44993 276.388084 
L 321.933603 276.947414 
L 322.315835 276.947414 
L 322.540445 277.506743 
L 327.628218 277.506743 
L 328.041455 276.947414 
L 328.369077 277.506743 
L 328.692742 276.947414 
L 328.912553 273.591435 
L 330.922517 273.591435 
L 331.101852 274.150765 
L 331.449476 274.150765 
L 331.564434 273.591435 
L 333.645029 273.591435 
L 333.933665 274.150765 
L 334.042748 273.591435 
L 334.537146 273.591435 
L 334.765679 274.710095 
L 334.93931 273.591435 
L 335.053753 273.591435 
L 335.268831 274.710095 
L 335.421485 274.710095 
L 335.618373 273.591435 
L 335.790569 274.710095 
L 335.900919 273.591435 
L 335.945364 274.710095 
L 337.129654 274.710095 
L 337.317644 275.269424 
L 337.345214 275.828754 
L 337.948282 275.828754 
L 337.983826 276.388084 
L 338.331302 276.388084 
L 338.511225 276.947414 
L 338.664628 276.388084 
L 338.853087 276.947414 
L 338.980534 276.388084 
L 339.279444 276.947414 
L 339.405858 276.388084 
L 339.423193 276.947414 
L 339.802083 276.947414 
L 340.039482 277.506743 
L 340.189212 277.506743 
L 340.413436 278.625403 
L 340.662232 279.184733 
L 340.834062 278.625403 
L 342.747927 278.625403 
L 343.021575 279.184733 
L 344.48834 279.184733 
L 344.722316 279.744063 
L 345.031589 279.744063 
L 345.261085 280.303392 
L 345.387577 279.744063 
L 345.994435 279.744063 
L 346.19923 280.862722 
L 346.756652 280.862722 
L 346.810182 281.422052 
L 346.887963 280.862722 
L 347.008295 280.862722 
L 347.224179 281.981382 
L 347.449004 282.540711 
L 347.51184 281.981382 
L 347.766691 284.218701 
L 348.798838 284.218701 
L 348.902602 284.778031 
L 349.128718 284.778031 
L 349.261175 285.89669 
L 349.416628 284.778031 
L 350.786842 284.778031 
L 350.866129 285.33736 
L 351.12895 284.778031 
L 351.254786 285.33736 
L 351.487444 284.778031 
L 351.789657 284.778031 
L 351.974984 285.89669 
L 352.312814 285.89669 
L 352.451389 285.33736 
L 352.570118 286.45602 
L 352.92076 284.778031 
L 353.288207 285.89669 
L 353.554388 284.778031 
L 354.177497 284.778031 
L 354.662433 286.45602 
L 354.813328 285.89669 
L 354.980436 286.45602 
L 355.431345 285.33736 
L 355.575729 286.45602 
L 356.645833 286.45602 
L 356.818321 287.01535 
L 357.118908 287.01535 
L 357.279145 286.45602 
L 357.481379 287.01535 
L 357.609255 286.45602 
L 357.998801 287.574679 
L 358.530642 287.574679 
L 358.905731 288.693339 
L 360.53032 288.693339 
L 360.707944 289.252669 
L 360.925212 288.693339 
L 361.032712 289.252669 
L 361.254227 288.693339 
L 361.548423 288.693339 
L 361.73818 289.252669 
L 361.862948 288.693339 
L 362.260168 288.693339 
L 362.383029 289.252669 
L 362.939941 289.252669 
L 362.977481 290.371328 
L 365.359359 290.371328 
L 365.594337 290.930658 
L 365.74857 290.371328 
L 365.879238 290.930658 
L 365.978491 290.371328 
L 366.097548 291.489988 
L 366.646092 291.489988 
L 366.90485 292.049318 
L 366.957291 291.489988 
L 367.01102 292.049318 
L 367.306502 291.489988 
L 367.382868 292.049318 
L 367.671832 292.608647 
L 367.785013 293.167977 
L 368.00108 293.167977 
L 368.050761 293.727307 
L 368.351597 295.405296 
L 368.487002 294.845967 
L 368.669753 294.845967 
L 368.702676 295.964626 
L 369.98666 295.964626 
L 370.146137 296.523956 
L 370.397678 295.964626 
L 370.833392 296.523956 
L 370.949844 295.964626 
L 371.140482 296.523956 
L 371.374774 296.523956 
L 371.514199 297.083286 
L 371.838947 297.083286 
L 371.846909 297.642615 
L 371.947016 297.083286 
L 372.042979 298.201945 
L 372.184813 298.201945 
L 372.381148 298.761275 
L 373.727976 298.761275 
L 373.763519 298.201945 
L 373.848307 299.320605 
L 374.203491 299.320605 
L 374.384885 298.761275 
L 374.524517 299.320605 
L 374.73474 298.761275 
L 374.892248 299.320605 
L 375.069212 299.320605 
L 375.221274 298.761275 
L 375.372049 300.439264 
L 377.176983 300.439264 
L 377.719764 301.557924 
L 378.005476 300.998594 
L 384.823721 300.998594 
L 384.939482 301.557924 
L 385.146532 300.998594 
L 385.206206 301.557924 
L 385.824885 301.557924 
L 385.9962 302.117254 
L 386.864518 302.117254 
L 386.980537 302.676583 
L 387.144073 302.117254 
L 388.474205 302.117254 
L 388.658703 302.676583 
L 388.891045 302.117254 
L 389.019334 302.117254 
L 389.223779 303.235913 
L 389.336246 302.676583 
L 389.834738 302.676583 
L 390.05194 303.235913 
L 391.07432 303.235913 
L 391.240862 302.117254 
L 391.578322 303.235913 
L 393.394029 303.235913 
L 393.580191 303.795243 
L 393.746503 303.795243 
L 393.925616 304.354573 
L 394.059493 304.354573 
L 394.225212 304.913903 
L 394.61295 304.913903 
L 394.681639 305.473232 
L 395.004874 305.473232 
L 395.20905 304.354573 
L 395.368481 304.913903 
L 395.612524 304.913903 
L 395.712034 305.473232 
L 396.08538 305.473232 
L 396.419303 306.032562 
L 396.783428 307.710552 
L 396.902644 307.151222 
L 397.013649 307.710552 
L 397.268438 308.269881 
L 397.389256 307.710552 
L 397.594157 308.269881 
L 397.713557 308.269881 
L 397.928034 307.710552 
L 398.103201 307.710552 
L 398.446372 309.388541 
L 398.653644 308.829211 
L 398.77711 308.829211 
L 398.939192 309.388541 
L 398.981812 309.947871 
L 399.11963 309.947871 
L 399.186888 309.388541 
L 399.409506 309.947871 
L 399.563657 309.388541 
L 399.690742 309.947871 
L 400.239543 309.947871 
L 400.443879 302.117254 
L 400.989608 303.235913 
L 401.349935 303.235913 
L 401.47597 303.795243 
L 401.672282 303.235913 
L 401.79829 303.235913 
L 401.947392 302.676583 
L 402.118832 303.235913 
L 402.354324 303.235913 
L 402.470195 302.676583 
L 402.61741 303.235913 
L 402.81819 302.676583 
L 402.897106 303.235913 
L 403.187562 303.795243 
L 403.314436 303.795243 
L 403.621101 302.676583 
L 403.898922 303.235913 
L 405.1332 303.235913 
L 405.426067 303.795243 
L 405.733566 303.235913 
L 406.28668 303.235913 
L 406.710725 304.354573 
L 406.856174 302.676583 
L 407.100981 303.235913 
L 407.413058 302.676583 
L 407.555816 304.354573 
L 407.728176 303.235913 
L 407.891069 303.235913 
L 407.999551 303.795243 
L 408.08051 306.032562 
L 408.095042 305.473232 
L 408.45418 306.032562 
L 409.340597 306.032562 
L 409.759908 307.151222 
L 409.93288 306.591892 
L 410.553852 306.591892 
L 410.723046 306.032562 
L 410.903878 306.591892 
L 411.102229 306.591892 
L 411.218754 306.032562 
L 411.573256 306.591892 
L 411.781514 306.591892 
L 411.918046 307.151222 
L 412.085029 306.591892 
L 412.264423 306.591892 
L 412.43254 306.032562 
L 412.536679 306.591892 
L 413.473167 306.591892 
L 413.707458 308.269881 
L 413.990729 307.710552 
L 414.225013 307.710552 
L 414.414685 307.151222 
L 414.500923 307.710552 
L 414.794721 307.151222 
L 414.904556 307.710552 
L 415.163381 307.710552 
L 415.264638 308.269881 
L 415.573946 307.710552 
L 416.211322 307.710552 
L 416.447625 308.269881 
L 416.841266 308.269881 
L 416.940519 308.829211 
L 417.10827 308.269881 
L 417.500417 309.388541 
L 417.617099 309.388541 
L 417.790152 309.947871 
L 417.949677 309.947871 
L 418.249834 310.5072 
L 420.691442 310.5072 
L 420.951557 311.06653 
L 421.19546 311.06653 
L 421.245117 309.947871 
L 421.306616 310.5072 
L 421.704542 310.5072 
L 421.795369 311.06653 
L 422.31896 311.06653 
L 422.569015 311.62586 
L 422.90486 311.62586 
L 422.916031 311.06653 
L 423.027675 311.62586 
L 423.130348 311.06653 
L 424.592762 311.06653 
L 424.866972 310.5072 
L 425.631891 311.06653 
L 427.218142 311.06653 
L 427.28678 311.62586 
L 428.951303 311.62586 
L 429.10124 312.18519 
L 430.640585 314.981839 
L 430.786478 314.981839 
L 430.938688 315.541168 
L 431.006472 314.981839 
L 431.334274 315.541168 
L 431.638822 316.100498 
L 432.003044 316.100498 
L 432.125356 316.659828 
L 432.585646 316.659828 
L 433.252323 316.100498 
L 433.285909 317.778488 
L 433.822459 317.778488 
L 433.988756 317.219158 
L 434.109544 317.778488 
L 435.342228 317.778488 
L 435.628384 317.219158 
L 436.950348 317.219158 
L 437.766637 317.778488 
L 439.415592 317.778488 
L 440.227565 318.337817 
L 440.33616 318.897147 
L 442.778146 318.897147 
L 443.00756 318.337817 
L 444.247255 318.337817 
L 445.152449 317.778488 
L 445.812076 317.778488 
L 446.139422 318.337817 
L 446.430042 319.456477 
L 446.603073 319.456477 
L 446.609826 318.897147 
L 448.550699 318.897147 
L 448.759004 319.456477 
L 453.662182 319.456477 
L 454.280417 320.015807 
L 454.518674 320.015807 
L 454.611677 320.575136 
L 454.914697 320.575136 
L 455.041953 320.015807 
L 455.23922 320.575136 
L 456.346816 320.575136 
L 456.840524 321.134466 
L 457.183473 322.253126 
L 460.187065 322.253126 
L 460.715724 321.693796 
L 460.868683 322.253126 
L 461.023415 321.693796 
L 461.197358 322.253126 
L 462.021145 322.253126 
L 462.400951 321.693796 
L 462.593683 322.253126 
L 463.125119 321.134466 
L 463.332242 322.253126 
L 464.618288 322.253126 
L 464.633502 322.812456 
L 466.671605 322.812456 
L 467.662554 323.371785 
L 467.959936 322.812456 
L 468.512453 322.812456 
L 468.646392 323.371785 
L 469.118488 321.693796 
L 469.430183 322.253126 
L 469.849218 321.693796 
L 470.159599 321.693796 
L 470.300559 322.253126 
L 471.156287 322.253126 
L 472.173036 321.693796 
L 472.326077 322.253126 
L 473.337796 322.253126 
L 473.666272 321.693796 
L 478.81558 322.253126 
L 479.201141 321.693796 
L 479.534359 322.253126 
L 479.832945 321.693796 
L 479.866352 322.253126 
L 480.126299 322.812456 
L 480.276844 322.812456 
L 480.414553 323.371785 
L 482.808643 323.371785 
L 482.859658 323.931115 
L 483.157246 323.931115 
L 483.951849 323.371785 
L 483.977126 323.931115 
L 484.282419 323.371785 
L 484.356621 324.490445 
L 484.553124 324.490445 
L 484.951782 325.049775 
L 485.619858 325.049775 
L 486.025519 324.490445 
L 486.481629 325.609104 
L 486.500337 326.168434 
L 486.814355 326.727764 
L 486.943417 326.727764 
L 487.269296 326.168434 
L 487.727523 326.168434 
L 487.82278 326.727764 
L 488.866097 326.727764 
L 489.009826 326.168434 
L 489.185785 327.287094 
L 489.330813 327.287094 
L 489.606063 326.727764 
L 489.856392 327.287094 
L 490.414629 327.287094 
L 490.660481 328.405753 
L 492.41389 328.405753 
L 492.623516 328.965083 
L 492.751876 328.965083 
L 492.963089 328.405753 
L 493.017562 328.965083 
L 493.577047 328.965083 
L 493.689576 329.524413 
L 493.995208 329.524413 
L 494.082503 330.643072 
L 494.559352 330.643072 
L 494.738516 332.321062 
L 495.111569 332.321062 
L 495.32975 331.761732 
L 495.447621 332.321062 
L 495.606291 332.321062 
L 495.618409 333.999051 
L 495.915233 333.999051 
L 496.29481 333.439721 
L 496.46701 333.439721 
L 496.614112 333.999051 
L 496.979933 333.999051 
L 497.35901 333.439721 
L 497.398 334.558381 
L 497.733643 334.558381 
L 497.795512 335.117711 
L 498.029379 335.67704 
L 498.647181 335.67704 
L 498.737985 336.7957 
L 499.003114 336.7957 
L 499.158552 337.35503 
L 499.307705 337.35503 
L 499.842579 337.91436 
L 500.051913 337.35503 
L 500.176576 329.524413 
L 500.311778 328.965083 
L 500.403347 331.202402 
L 501.062919 331.202402 
L 501.334017 330.643072 
L 501.531541 331.761732 
L 501.684355 331.761732 
L 502.07612 332.321062 
L 502.507012 332.321062 
L 502.703623 331.761732 
L 502.857564 332.321062 
L 503.896518 332.321062 
L 504.024445 332.880392 
L 504.498112 331.761732 
L 504.883276 332.321062 
L 505.103991 332.321062 
L 505.188763 332.880392 
L 505.383624 331.761732 
L 505.573042 332.880392 
L 506.358974 332.880392 
L 506.480791 332.321062 
L 506.760747 332.321062 
L 506.804787 332.880392 
L 507.121776 333.439721 
L 507.134148 332.880392 
L 507.730284 332.880392 
L 508.037112 333.439721 
L 509.629336 333.439721 
L 509.748724 333.999051 
L 510.064485 333.439721 
L 510.075028 333.999051 
L 510.528436 334.558381 
L 510.807029 334.558381 
L 511.127621 335.117711 
L 511.287695 335.67704 
L 511.410081 335.67704 
L 511.795198 334.558381 
L 511.871276 335.67704 
L 512.130244 335.117711 
L 512.348218 335.67704 
L 513.321026 335.67704 
L 513.430022 336.23637 
L 513.565868 335.67704 
L 514.036623 336.23637 
L 514.264009 335.67704 
L 514.494457 336.23637 
L 514.632914 335.67704 
L 514.95537 336.7957 
L 515.178164 336.23637 
L 515.940198 336.23637 
L 516.243366 336.7957 
L 516.686036 336.7957 
L 517.038234 335.67704 
L 517.132107 336.23637 
L 517.508424 336.23637 
L 517.603926 337.35503 
L 518.078545 336.23637 
L 518.244292 336.7957 
L 518.626703 336.23637 
L 518.905845 336.23637 
L 519.048853 336.7957 
L 519.248416 336.7957 
L 519.275004 333.439721 
L 519.390679 333.439721 
L 519.838333 333.999051 
L 519.896327 332.880392 
L 520.057052 333.999051 
L 520.204403 333.439721 
L 520.292844 333.999051 
L 520.643697 333.439721 
L 521.064669 333.999051 
L 521.276721 333.999051 
L 521.567806 333.439721 
L 521.981561 333.439721 
L 522.405785 334.558381 
L 522.628001 333.999051 
L 523.077347 333.999051 
L 523.287476 333.439721 
L 523.318411 332.880392 
L 523.580183 333.999051 
L 523.719007 333.439721 
L 523.882298 333.999051 
L 524.124933 333.439721 
L 524.399552 333.439721 
L 524.575971 332.880392 
L 524.910545 332.880392 
L 525.258879 333.999051 
L 525.495241 333.439721 
L 525.783082 334.558381 
L 525.932983 334.558381 
L 526.027074 333.999051 
L 526.31982 333.999051 
L 526.344391 334.558381 
L 527.314855 334.558381 
L 527.473841 335.117711 
L 527.610018 335.117711 
L 527.819941 335.67704 
L 528.001003 335.117711 
L 528.139091 335.67704 
L 528.344958 335.117711 
L 528.460849 335.67704 
L 528.610427 335.117711 
L 528.658618 335.67704 
L 528.824205 336.7957 
L 529.02651 336.23637 
L 529.090177 335.67704 
L 529.30353 336.23637 
L 529.477886 335.67704 
L 529.688039 336.23637 
L 530.032427 336.23637 
L 530.12832 336.7957 
L 530.366233 336.23637 
L 530.991058 337.91436 
L 531.159136 337.91436 
L 531.332989 336.7957 
L 531.415181 337.35503 
L 531.660978 337.35503 
L 531.77281 336.7957 
L 531.973796 336.7957 
L 532.15678 337.35503 
L 532.392023 337.35503 
L 532.78697 339.033019 
L 532.997091 338.473689 
L 535.759179 338.473689 
L 535.887713 339.033019 
L 536.050712 339.033019 
L 536.181792 338.473689 
L 536.328922 339.033019 
L 536.444789 339.033019 
L 537.10001 336.7957 
L 537.209619 337.91436 
L 537.774975 336.7957 
L 538.388294 336.7957 
L 539.052467 337.91436 
L 540.226596 337.35503 
L 540.524773 337.91436 
L 540.853265 337.35503 
L 541.087872 338.473689 
L 541.181967 337.35503 
L 541.491233 338.473689 
L 541.828189 337.35503 
L 541.939732 338.473689 
L 542.155807 338.473689 
L 542.274587 337.91436 
L 542.489882 338.473689 
L 542.619088 338.473689 
L 542.739439 337.91436 
L 542.885667 339.592349 
L 543.269166 338.473689 
L 543.627856 338.473689 
L 543.847027 339.033019 
L 544.260654 339.033019 
L 544.597033 338.473689 
L 544.793684 338.473689 
L 544.942345 339.592349 
L 545.127782 339.033019 
L 545.231313 339.592349 
L 545.481294 340.151679 
L 545.634572 340.151679 
L 545.902555 339.033019 
L 546.15881 340.711008 
L 546.480895 340.711008 
L 546.505342 341.829668 
L 546.527835 341.270338 
L 546.696284 340.711008 
L 546.873358 341.829668 
L 546.947217 340.711008 
L 547.214143 340.711008 
L 547.250513 341.270338 
L 547.551248 341.829668 
L 547.731234 341.829668 
L 547.815597 340.711008 
L 548.219184 341.829668 
L 548.284543 340.711008 
L 548.504365 341.829668 
L 548.673465 340.151679 
L 549.187511 341.270338 
L 549.574757 339.592349 
L 549.604701 340.151679 
L 549.849988 339.592349 
L 550.00506 339.592349 
L 550.166046 340.711008 
L 550.358299 339.592349 
L 550.727917 340.711008 
L 550.868149 339.592349 
L 551.019984 340.151679 
L 551.329394 340.151679 
L 551.533726 339.592349 
L 551.924871 339.592349 
L 551.936809 340.151679 
L 552.552424 339.033019 
L 552.878916 340.711008 
L 553.052196 340.711008 
L 553.254153 340.151679 
L 553.311238 341.270338 
L 553.597937 340.151679 
L 553.774472 341.270338 
L 553.952439 340.151679 
L 554.025986 340.711008 
L 554.390976 340.711008 
L 554.609707 341.270338 
L 554.709748 342.388998 
L 554.913409 341.270338 
L 555.248478 341.829668 
L 555.396699 342.388998 
L 555.579839 341.829668 
L 555.736205 344.066987 
L 555.981644 344.066987 
L 556.306225 344.626317 
L 556.345383 343.507657 
L 556.664837 344.626317 
L 557.119563 343.507657 
L 557.242432 345.185647 
L 557.611146 345.744976 
L 558.012737 344.626317 
L 558.267264 344.066987 
L 558.974787 344.626317 
L 559.059532 345.185647 
L 559.324228 345.185647 
L 559.812177 345.744976 
L 560.053924 345.744976 
L 560.355158 346.304306 
L 560.659862 347.982296 
L 561.442163 347.422966 
L 561.69416 347.422966 
L 562.043593 345.744976 
L 562.375762 345.744976 
L 562.461384 345.185647 
L 562.713752 346.304306 
L 562.769975 345.185647 
L 563.046185 345.744976 
L 563.547232 345.744976 
L 563.715735 346.304306 
L 563.715735 346.304306 
" clip-path="url(#p23ed846ca9)" style="fill: none; stroke-dasharray: 3,1.5; stroke-dashoffset: 0; stroke: #808080; stroke-width: 1.5"/>
   </g>
   <g id="line2d_19">
    <path d="M 38.539265 297.083286 
L 39.916474 296.523956 
L 41.289238 295.405296 
L 44.540078 295.405296 
L 48.124517 294.845967 
L 48.39043 295.405296 
L 48.55627 295.405296 
L 48.669665 294.286637 
L 48.931378 294.845967 
L 49.318461 294.286637 
L 50.072108 294.286637 
L 50.491853 291.489988 
L 50.585483 294.286637 
L 50.803352 290.930658 
L 50.872638 291.489988 
L 51.116778 291.489988 
L 51.507311 290.930658 
L 52.147521 290.930658 
L 52.475288 288.693339 
L 52.984783 288.693339 
L 53.501964 289.811999 
L 53.83097 285.33736 
L 53.9038 285.89669 
L 54.213408 285.33736 
L 54.812312 283.659371 
L 55.218535 284.778031 
L 55.86062 284.778031 
L 56.21945 285.89669 
L 56.462023 285.33736 
L 57.192823 284.778031 
L 57.520753 284.778031 
L 57.877345 283.659371 
L 58.389016 283.659371 
L 58.918205 280.303392 
L 60.340791 278.625403 
L 60.534521 278.066073 
L 60.944873 278.066073 
L 61.203634 277.506743 
L 61.61592 277.506743 
L 61.919446 278.625403 
L 62.22863 279.184733 
L 62.573353 279.184733 
L 62.775225 278.625403 
L 65.237135 278.625403 
L 65.630646 278.066073 
L 66.267569 278.066073 
L 66.62004 277.506743 
L 66.9578 277.506743 
L 67.088947 278.066073 
L 67.923129 277.506743 
L 68.272749 278.066073 
L 69.236686 278.066073 
L 69.546166 277.506743 
L 69.926655 278.066073 
L 71.681121 278.066073 
L 72.040586 277.506743 
L 72.237896 275.828754 
L 72.718125 276.947414 
L 73.394452 276.947414 
L 73.710443 275.828754 
L 73.834791 276.947414 
L 74.388817 275.269424 
L 74.723808 275.269424 
L 75.049157 274.710095 
L 75.4123 274.710095 
L 75.745724 275.269424 
L 76.064327 274.150765 
L 76.347185 274.150765 
L 77.116211 273.032105 
L 81.153824 273.032105 
L 81.474787 271.913446 
L 82.158841 271.913446 
L 82.462457 269.116797 
L 83.480778 269.116797 
L 84.455538 266.879478 
L 85.491611 266.879478 
L 85.8627 266.320148 
L 92.122329 266.320148 
L 92.873828 264.642159 
L 93.044067 266.320148 
L 94.249493 266.320148 
L 94.576831 265.201488 
L 94.937981 266.320148 
L 95.797249 266.320148 
L 96.271868 265.201488 
L 96.624209 266.320148 
L 101.94544 266.320148 
L 102.236232 261.28618 
L 102.437842 266.320148 
L 104.366262 266.320148 
L 104.716335 265.760818 
L 104.916152 260.72685 
L 105.388162 265.760818 
L 105.721532 265.760818 
L 105.942828 266.320148 
L 109.434393 266.320148 
L 109.611209 265.760818 
L 109.928518 265.760818 
L 110.451091 264.082829 
L 115.718087 264.082829 
L 116.867589 263.523499 
L 123.941749 263.523499 
L 124.236324 260.72685 
L 124.612734 260.72685 
L 124.946517 263.523499 
L 125.289926 263.523499 
L 125.526553 260.72685 
L 125.783011 263.523499 
L 126.209204 260.72685 
L 126.586726 259.60819 
L 130.96424 259.60819 
L 131.342073 259.048861 
L 132.999723 259.048861 
L 133.340488 257.930201 
L 133.752509 255.692882 
L 134.04683 255.133552 
L 134.379505 251.777574 
L 134.790215 251.777574 
L 135.340908 250.658914 
L 135.72096 250.658914 
L 136.377394 249.540254 
L 139.132552 244.506286 
L 139.413874 245.624946 
L 141.383752 245.624946 
L 141.768062 243.387627 
L 142.106956 243.946957 
L 143.463664 243.946957 
L 143.711719 245.065616 
L 144.148026 243.946957 
L 145.133353 243.946957 
L 145.468688 242.828297 
L 145.792146 242.828297 
L 146.175228 242.268967 
L 146.329812 242.268967 
L 146.502577 240.590978 
L 146.736775 240.590978 
L 147.523447 240.031648 
L 148.173448 241.709638 
L 148.332391 241.709638 
L 148.841937 241.150308 
L 149.168865 240.031648 
L 150.858373 240.031648 
L 151.184576 239.472318 
L 151.534871 239.472318 
L 151.859183 238.912989 
L 152.16299 238.912989 
L 152.868934 238.353659 
L 153.233523 238.353659 
L 153.59709 236.67567 
L 154.189915 236.67567 
L 154.560399 236.11634 
L 154.790609 236.11634 
L 154.919132 246.184276 
L 155.016459 245.624946 
L 155.573589 245.624946 
L 155.903671 244.506286 
L 156.344501 244.506286 
L 156.571572 243.946957 
L 157.070914 243.946957 
L 157.120603 243.387627 
L 157.907225 243.387627 
L 158.329562 241.709638 
L 159.207241 240.031648 
L 160.633819 240.031648 
L 160.942247 238.912989 
L 161.058383 239.472318 
L 161.192871 239.472318 
L 161.565827 240.031648 
L 162.923116 239.472318 
L 166.318886 239.472318 
L 166.712371 240.031648 
L 168.355909 240.031648 
L 168.589823 240.590978 
L 169.018297 240.031648 
L 171.667648 240.031648 
L 172.06392 239.472318 
L 172.617872 239.472318 
L 173.066703 238.912989 
L 173.292542 239.472318 
L 175.456142 239.472318 
L 176.13896 238.353659 
L 177.592149 238.353659 
L 177.836812 230.523042 
L 178.112625 230.523042 
L 180.463124 228.845053 
L 180.607563 229.404382 
L 180.758248 228.845053 
L 181.149374 229.404382 
L 181.477456 229.404382 
L 181.822764 228.845053 
L 182.082072 228.845053 
L 182.498381 227.726393 
L 182.669594 227.726393 
L 182.828046 228.285723 
L 183.183196 227.167063 
L 185.544379 227.167063 
L 185.774085 226.607734 
L 186.157054 226.607734 
L 186.512472 226.048404 
L 186.881459 226.607734 
L 187.044274 226.607734 
L 187.550003 227.167063 
L 187.928905 224.370414 
L 188.19865 226.048404 
L 188.550458 226.048404 
L 188.832446 222.692425 
L 189.029748 223.251755 
L 189.239784 222.133095 
L 189.345572 222.692425 
L 189.47505 221.014436 
L 189.810728 221.014436 
L 190.23604 220.455106 
L 191.06904 221.014436 
L 191.258715 219.895776 
L 191.568699 219.895776 
L 191.788217 221.573766 
L 192.533369 219.895776 
L 193.274306 219.336446 
L 193.925019 219.336446 
L 194.266378 217.658457 
L 194.580147 217.658457 
L 194.766005 218.217787 
L 195.092212 218.217787 
L 196.35387 214.861808 
L 196.564284 217.099127 
L 196.969309 217.658457 
L 197.444357 214.861808 
L 198.72126 214.861808 
L 198.830573 214.302478 
L 199.339366 213.743149 
L 200.695688 213.743149 
L 201.31652 210.9465 
L 204.805289 210.9465 
L 205.080778 209.82784 
L 205.443105 212.065159 
L 205.654046 210.38717 
L 209.457508 210.38717 
L 209.775293 209.82784 
L 210.54164 206.471861 
L 210.829149 208.149851 
L 211.171783 207.590521 
L 211.551176 208.149851 
L 211.818157 208.149851 
L 212.222695 202.556553 
L 212.439613 202.556553 
L 212.481714 201.997223 
L 213.16431 201.997223 
L 213.548511 200.878564 
L 213.887238 199.200574 
L 214.906194 198.641245 
L 214.970668 199.200574 
L 215.523914 199.759904 
L 215.606086 199.200574 
L 218.271883 199.200574 
L 218.457374 198.641245 
L 218.954869 198.081915 
L 219.619194 196.963255 
L 219.791983 195.844596 
L 220.025475 195.844596 
L 220.287044 194.725936 
L 220.601975 195.285266 
L 220.95461 195.285266 
L 221.220319 195.844596 
L 221.594905 195.285266 
L 221.92916 195.285266 
L 222.249522 194.725936 
L 222.508857 194.725936 
L 222.997021 195.285266 
L 223.250804 194.725936 
L 223.513468 195.285266 
L 223.956568 198.081915 
L 224.276232 198.641245 
L 225.009956 197.522585 
L 225.117229 193.607277 
L 225.280781 193.607277 
L 225.580042 193.047947 
L 225.927713 193.607277 
L 226.245135 193.607277 
L 226.636156 194.166606 
L 226.974839 193.047947 
L 228.197187 193.047947 
L 228.682969 192.488617 
L 228.960587 192.488617 
L 228.982129 191.929287 
L 230.36721 191.929287 
L 230.761536 190.810628 
L 232.69952 190.810628 
L 233.08585 189.691968 
L 236.797994 189.691968 
L 237.020319 189.132638 
L 237.619937 189.132638 
L 238.12448 188.573309 
L 238.462458 187.454649 
L 238.563521 188.013979 
L 238.930878 186.895319 
L 239.748095 186.895319 
L 243.057962 185.77666 
L 251.239391 185.77666 
L 251.572647 186.335989 
L 253.172201 186.335989 
L 253.503757 185.77666 
L 254.602483 185.77666 
L 254.981697 185.21733 
L 255.254375 185.77666 
L 255.570834 185.21733 
L 255.920989 185.77666 
L 256.208377 184.658 
L 256.648533 185.21733 
L 256.969694 184.658 
L 263.950796 184.658 
L 264.311412 185.77666 
L 264.693445 185.21733 
L 265.038956 185.77666 
L 265.425964 185.21733 
L 265.736333 185.77666 
L 267.031651 185.77666 
L 267.360556 185.21733 
L 267.73207 185.77666 
L 268.070539 184.658 
L 268.74168 184.658 
L 269.120336 185.21733 
L 269.403689 184.09867 
L 269.768192 184.09867 
L 270.049802 184.658 
L 270.938621 183.539341 
L 271.458585 184.09867 
L 271.767508 183.539341 
L 272.424741 183.539341 
L 272.795681 184.09867 
L 273.159923 182.420681 
L 273.510502 182.980011 
L 274.183558 182.980011 
L 274.44012 183.539341 
L 274.768246 182.980011 
L 275.126335 182.980011 
L 275.445902 187.454649 
L 275.572861 186.895319 
L 275.823989 186.895319 
L 275.99893 186.335989 
L 276.151397 186.335989 
L 276.352133 185.77666 
L 276.48817 186.895319 
L 276.806715 186.335989 
L 276.937153 186.335989 
L 277.159771 185.77666 
L 277.736793 185.77666 
L 278.017405 184.658 
L 278.29551 185.77666 
L 278.476572 185.21733 
L 279.497411 185.21733 
L 279.801312 185.77666 
L 280.089523 185.77666 
L 280.451691 185.21733 
L 280.786584 185.21733 
L 281.183574 185.77666 
L 281.566675 185.21733 
L 281.863924 185.21733 
L 282.3317 184.09867 
L 284.239892 184.09867 
L 284.553763 184.658 
L 286.032666 184.658 
L 286.372316 184.09867 
L 286.639492 183.539341 
L 287.162599 183.539341 
L 287.3258 182.420681 
L 287.400665 182.980011 
L 287.577668 182.420681 
L 288.075541 182.420681 
L 288.319607 181.302021 
L 288.984147 181.302021 
L 289.294345 180.183362 
L 290.32021 180.183362 
L 290.56623 178.505373 
L 290.793246 177.946043 
L 290.924256 177.946043 
L 291.36619 177.386713 
L 291.521733 177.946043 
L 291.597113 177.386713 
L 291.756598 177.386713 
L 291.943298 176.827383 
L 292.083023 176.827383 
L 292.653683 176.268053 
L 293.933946 176.268053 
L 294.264134 176.827383 
L 294.580512 176.268053 
L 294.93715 176.268053 
L 295.108071 175.708724 
L 295.149183 176.268053 
L 295.352048 175.708724 
L 295.510714 175.708724 
L 295.667404 174.590064 
L 296.270757 173.471405 
L 296.710105 174.030734 
L 297.044137 173.471405 
L 297.700813 173.471405 
L 298.057221 172.352745 
L 298.187698 172.912075 
L 298.399664 171.234085 
L 298.700024 171.793415 
L 298.894823 171.234085 
L 299.048849 171.793415 
L 299.219057 170.674756 
L 299.565979 170.674756 
L 299.66873 170.115426 
L 300.075747 170.674756 
L 300.390542 169.556096 
L 301.100763 169.556096 
L 301.356429 168.437437 
L 301.719068 169.556096 
L 301.965435 169.556096 
L 302.055759 168.996766 
L 302.718591 168.996766 
L 303.028641 166.759447 
L 303.474539 168.996766 
L 303.543673 168.437437 
L 304.13079 168.996766 
L 304.186386 167.878107 
L 304.388319 167.878107 
L 304.795228 167.318777 
L 305.125455 167.878107 
L 305.374933 167.878107 
L 305.744111 166.759447 
L 306.145748 166.759447 
L 306.535236 167.318777 
L 306.826329 166.759447 
L 307.003199 167.318777 
L 307.179115 166.200117 
L 308.737889 166.200117 
L 309.216976 165.640788 
L 310.195156 165.640788 
L 310.542231 166.759447 
L 311.196368 166.759447 
L 311.52376 166.200117 
L 314.502122 166.200117 
L 314.904071 166.759447 
L 315.280848 165.640788 
L 319.851663 165.640788 
L 320.854376 165.081458 
L 321.44993 165.081458 
L 321.933603 164.522128 
L 322.315835 164.522128 
L 322.540445 163.403468 
L 322.896549 163.962798 
L 327.628218 163.962798 
L 328.041455 164.522128 
L 328.369077 163.962798 
L 328.692742 164.522128 
L 328.912553 166.759447 
L 330.922517 166.759447 
L 331.253999 165.640788 
L 331.719245 166.759447 
L 333.645029 166.759447 
L 333.933665 165.640788 
L 334.042748 166.759447 
L 334.537146 166.759447 
L 334.765679 165.640788 
L 334.93931 166.759447 
L 335.053753 166.759447 
L 335.268831 165.640788 
L 335.421485 165.640788 
L 335.618373 166.759447 
L 335.790569 165.640788 
L 335.900919 166.759447 
L 335.945364 165.640788 
L 337.129654 165.640788 
L 337.51734 163.962798 
L 337.948282 163.962798 
L 337.983826 163.403468 
L 338.331302 163.403468 
L 338.511225 162.844139 
L 338.664628 163.403468 
L 338.853087 162.844139 
L 338.980534 163.403468 
L 339.279444 162.844139 
L 339.405858 163.403468 
L 339.423193 162.844139 
L 339.802083 162.844139 
L 340.039482 162.284809 
L 340.189212 162.284809 
L 340.413436 161.166149 
L 340.662232 160.60682 
L 340.834062 161.166149 
L 342.747927 161.166149 
L 343.021575 160.60682 
L 344.48834 160.60682 
L 344.722316 160.04749 
L 345.031589 160.04749 
L 345.261085 159.48816 
L 345.387577 160.04749 
L 345.994435 160.04749 
L 346.19923 158.92883 
L 346.756652 158.92883 
L 346.810182 158.3695 
L 346.887963 158.92883 
L 347.197256 158.92883 
L 347.224179 158.3695 
L 347.449004 157.810171 
L 347.51184 158.3695 
L 347.766691 156.132181 
L 348.798838 156.132181 
L 348.902602 155.572852 
L 349.128718 155.572852 
L 349.261175 154.454192 
L 349.416628 155.572852 
L 350.786842 155.572852 
L 350.866129 155.013522 
L 351.12895 155.572852 
L 351.254786 155.013522 
L 351.487444 155.572852 
L 351.789657 155.572852 
L 351.974984 154.454192 
L 352.312814 154.454192 
L 352.451389 155.013522 
L 352.570118 153.894862 
L 352.92076 155.572852 
L 353.288207 154.454192 
L 353.554388 155.572852 
L 354.177497 155.572852 
L 354.662433 153.894862 
L 354.813328 154.454192 
L 354.980436 153.894862 
L 355.431345 155.013522 
L 355.575729 153.894862 
L 356.645833 153.894862 
L 356.818321 153.335532 
L 357.118908 153.335532 
L 357.279145 153.894862 
L 357.481379 153.335532 
L 357.609255 153.894862 
L 357.998801 152.776203 
L 358.530642 152.776203 
L 358.905731 151.657543 
L 359.557353 152.776203 
L 359.69661 152.216873 
L 359.867929 152.776203 
L 359.976571 152.216873 
L 360.194538 152.216873 
L 360.285888 152.776203 
L 360.707944 151.657543 
L 360.925212 152.216873 
L 361.032712 151.657543 
L 361.254227 152.216873 
L 361.548423 152.216873 
L 361.73818 151.657543 
L 361.862948 152.216873 
L 361.985907 152.216873 
L 362.260168 152.776203 
L 362.383029 151.657543 
L 362.939941 151.657543 
L 362.977481 150.538884 
L 365.359359 150.538884 
L 365.594337 149.979554 
L 365.74857 150.538884 
L 365.879238 149.979554 
L 365.978491 150.538884 
L 366.097548 149.420224 
L 366.646092 149.420224 
L 366.90485 148.860894 
L 366.957291 149.420224 
L 367.01102 148.860894 
L 367.306502 149.420224 
L 367.382868 148.860894 
L 367.671832 148.301564 
L 367.785013 147.742235 
L 368.00108 147.742235 
L 368.050761 147.182905 
L 368.351597 145.504916 
L 368.487002 146.064245 
L 368.669753 146.064245 
L 368.702676 144.945586 
L 369.98666 144.945586 
L 370.146137 144.386256 
L 370.397678 144.945586 
L 371.140482 143.267596 
L 371.374774 143.267596 
L 371.514199 142.708267 
L 371.838947 142.708267 
L 371.846909 142.148937 
L 371.947016 142.708267 
L 372.042979 141.589607 
L 372.184813 141.589607 
L 372.381148 141.030277 
L 373.727976 141.030277 
L 373.763519 141.589607 
L 373.848307 140.470948 
L 374.203491 140.470948 
L 374.384885 141.030277 
L 374.524517 140.470948 
L 374.73474 141.030277 
L 374.892248 140.470948 
L 375.069212 140.470948 
L 375.221274 141.030277 
L 375.372049 139.352288 
L 377.176983 139.352288 
L 377.719764 138.233628 
L 378.005476 138.792958 
L 384.823721 138.792958 
L 384.939482 138.233628 
L 385.146532 138.792958 
L 385.206206 138.233628 
L 385.824885 138.233628 
L 385.9962 137.674299 
L 386.864518 137.674299 
L 386.980537 137.114969 
L 387.144073 137.674299 
L 388.474205 137.674299 
L 388.658703 137.114969 
L 388.891045 137.674299 
L 389.019334 137.674299 
L 389.223779 136.555639 
L 389.336246 137.114969 
L 389.834738 137.114969 
L 390.05194 136.555639 
L 391.07432 136.555639 
L 391.240862 137.674299 
L 391.578322 136.555639 
L 393.394029 136.555639 
L 393.580191 135.996309 
L 393.746503 135.996309 
L 393.925616 135.43698 
L 394.059493 135.43698 
L 394.225212 134.87765 
L 394.61295 134.87765 
L 394.681639 134.31832 
L 395.004874 134.31832 
L 395.20905 135.43698 
L 395.368481 134.87765 
L 395.612524 134.87765 
L 395.712034 134.31832 
L 396.08538 134.31832 
L 396.419303 133.75899 
L 396.783428 132.081001 
L 396.902644 132.640331 
L 397.013649 132.081001 
L 397.268438 131.521671 
L 397.389256 132.081001 
L 397.594157 131.521671 
L 397.713557 131.521671 
L 397.928034 132.081001 
L 398.103201 132.081001 
L 398.446372 130.403012 
L 398.653644 130.962341 
L 398.77711 130.962341 
L 398.939192 130.403012 
L 398.981812 129.843682 
L 399.11963 129.843682 
L 399.186888 130.403012 
L 399.409506 129.843682 
L 399.563657 130.403012 
L 399.690742 129.843682 
L 400.239543 129.843682 
L 400.443879 133.19966 
L 400.989608 132.081001 
L 401.349935 132.081001 
L 401.47597 131.521671 
L 401.672282 132.081001 
L 401.79829 132.081001 
L 401.947392 132.640331 
L 402.118832 132.081001 
L 402.354324 132.081001 
L 402.470195 132.640331 
L 402.61741 132.081001 
L 402.81819 132.640331 
L 402.897106 132.081001 
L 403.187562 131.521671 
L 403.474779 131.521671 
L 403.621101 132.081001 
L 403.898922 131.521671 
L 405.033292 131.521671 
L 405.1332 128.725022 
L 405.426067 130.962341 
L 405.733566 131.521671 
L 406.28668 131.521671 
L 406.710725 130.403012 
L 406.856174 132.081001 
L 407.100981 131.521671 
L 407.413058 132.081001 
L 407.555816 130.403012 
L 407.728176 131.521671 
L 407.891069 131.521671 
L 407.999551 130.962341 
L 408.095042 126.487703 
L 408.426668 128.725022 
L 408.45418 125.928373 
L 409.340597 125.928373 
L 409.759908 124.809714 
L 409.93288 125.369044 
L 410.553852 125.369044 
L 410.723046 125.928373 
L 410.903878 125.369044 
L 411.102229 125.369044 
L 411.218754 125.928373 
L 411.573256 125.369044 
L 411.781514 125.369044 
L 411.918046 124.809714 
L 412.085029 125.369044 
L 412.264423 125.369044 
L 412.43254 125.928373 
L 412.536679 125.369044 
L 413.473167 125.369044 
L 413.707458 123.691054 
L 413.990729 124.250384 
L 414.225013 124.250384 
L 414.414685 124.809714 
L 414.500923 124.250384 
L 414.794721 124.809714 
L 414.904556 124.250384 
L 415.163381 124.250384 
L 415.264638 123.691054 
L 415.573946 124.250384 
L 416.211322 124.250384 
L 416.447625 123.691054 
L 416.841266 123.691054 
L 416.940519 123.131724 
L 417.10827 123.691054 
L 417.500417 122.572395 
L 417.617099 122.572395 
L 417.790152 122.013065 
L 417.949677 122.013065 
L 418.249834 121.453735 
L 420.691442 121.453735 
L 420.951557 120.894405 
L 421.19546 120.894405 
L 421.245117 122.013065 
L 421.306616 121.453735 
L 421.704542 121.453735 
L 421.795369 120.894405 
L 422.31896 120.894405 
L 422.569015 120.335075 
L 422.90486 120.335075 
L 422.916031 120.894405 
L 423.027675 120.335075 
L 423.130348 120.894405 
L 424.592762 120.894405 
L 424.866972 121.453735 
L 425.631891 120.894405 
L 427.218142 120.894405 
L 427.28678 120.335075 
L 428.951303 120.335075 
L 429.10124 119.775746 
L 430.640585 116.979097 
L 430.786478 116.979097 
L 430.938688 116.419767 
L 431.006472 116.979097 
L 431.334274 116.419767 
L 431.638822 115.860437 
L 432.003044 115.860437 
L 432.125356 115.301107 
L 432.585646 115.301107 
L 433.252323 115.860437 
L 433.285909 114.182448 
L 433.822459 114.182448 
L 433.988756 114.741778 
L 434.109544 114.182448 
L 435.009128 114.182448 
L 435.342228 114.741778 
L 436.950348 114.741778 
L 437.766637 114.182448 
L 439.415592 114.182448 
L 440.227565 113.623118 
L 440.33616 113.063788 
L 442.778146 113.063788 
L 443.00756 113.623118 
L 444.247255 113.623118 
L 445.152449 114.182448 
L 445.812076 114.182448 
L 446.139422 113.623118 
L 446.430042 112.504459 
L 446.603073 112.504459 
L 446.609826 113.063788 
L 448.550699 113.063788 
L 448.759004 112.504459 
L 453.662182 112.504459 
L 454.280417 111.945129 
L 454.518674 111.945129 
L 454.611677 110.826469 
L 454.914697 110.826469 
L 455.041953 111.385799 
L 455.23922 110.826469 
L 456.346816 110.826469 
L 456.840524 110.267139 
L 457.183473 109.14848 
L 460.187065 109.14848 
L 460.715724 109.70781 
L 460.868683 109.14848 
L 461.023415 109.70781 
L 461.197358 109.14848 
L 462.021145 109.14848 
L 462.400951 109.70781 
L 462.593683 109.14848 
L 463.125119 110.267139 
L 463.332242 109.14848 
L 464.618288 109.14848 
L 464.633502 108.58915 
L 466.671605 108.58915 
L 467.662554 108.02982 
L 467.959936 108.58915 
L 468.176507 108.02982 
L 468.316664 108.58915 
L 468.512453 108.58915 
L 468.646392 108.02982 
L 469.118488 109.14848 
L 469.430183 108.58915 
L 469.849218 109.14848 
L 470.159599 109.14848 
L 470.300559 108.58915 
L 471.156287 108.58915 
L 472.173036 109.14848 
L 472.326077 108.58915 
L 473.337796 108.58915 
L 473.666272 109.14848 
L 478.81558 108.58915 
L 479.201141 109.14848 
L 479.534359 108.58915 
L 479.832945 109.14848 
L 479.866352 108.58915 
L 480.126299 108.02982 
L 480.276844 108.02982 
L 480.414553 107.470491 
L 482.808643 107.470491 
L 482.859658 106.911161 
L 483.157246 106.911161 
L 483.951849 107.470491 
L 483.977126 106.911161 
L 484.282419 107.470491 
L 484.356621 106.351831 
L 484.553124 106.351831 
L 484.951782 105.792501 
L 485.619858 105.792501 
L 486.025519 106.351831 
L 486.481629 105.233171 
L 486.500337 104.673842 
L 486.814355 104.114512 
L 486.943417 104.114512 
L 487.269296 104.673842 
L 487.727523 104.673842 
L 487.82278 104.114512 
L 488.866097 104.114512 
L 489.009826 104.673842 
L 489.185785 103.555182 
L 489.330813 103.555182 
L 489.606063 104.114512 
L 489.856392 103.555182 
L 490.414629 103.555182 
L 490.660481 101.877193 
L 492.41389 101.877193 
L 492.623516 101.317863 
L 492.751876 101.317863 
L 492.963089 101.877193 
L 493.017562 101.317863 
L 493.577047 101.317863 
L 493.689576 100.758533 
L 493.995208 100.199203 
L 494.082503 99.080544 
L 494.559352 99.080544 
L 494.738516 97.402555 
L 495.111569 97.402555 
L 495.32975 97.961884 
L 495.447621 97.402555 
L 495.606291 97.402555 
L 495.618409 95.724565 
L 496.46701 95.724565 
L 496.614112 95.165235 
L 496.979933 95.165235 
L 497.35901 95.724565 
L 497.398 94.605906 
L 497.733643 94.605906 
L 497.795512 94.046576 
L 498.029379 93.487246 
L 498.647181 93.487246 
L 498.737985 92.368587 
L 499.003114 92.368587 
L 499.158552 91.809257 
L 499.307705 91.809257 
L 499.842579 91.249927 
L 500.051913 91.809257 
L 500.176576 97.961884 
L 500.311778 98.521214 
L 500.403347 96.283895 
L 501.062919 96.283895 
L 501.334017 96.843225 
L 501.531541 95.724565 
L 502.507012 95.724565 
L 502.703623 96.283895 
L 502.857564 95.724565 
L 503.896518 95.724565 
L 504.024445 95.165235 
L 504.498112 96.283895 
L 504.883276 95.724565 
L 505.103991 95.724565 
L 505.188763 95.165235 
L 505.383624 96.283895 
L 505.573042 95.165235 
L 506.358974 95.165235 
L 506.480791 95.724565 
L 506.760747 95.724565 
L 506.804787 95.165235 
L 507.121776 94.605906 
L 507.134148 95.165235 
L 507.389545 94.605906 
L 507.730284 94.605906 
L 508.037112 94.046576 
L 509.629336 94.046576 
L 509.748724 93.487246 
L 510.064485 94.046576 
L 510.075028 93.487246 
L 510.528436 92.927916 
L 510.807029 92.927916 
L 511.127621 92.368587 
L 511.287695 91.809257 
L 511.410081 91.809257 
L 511.795198 92.927916 
L 511.871276 91.809257 
L 512.130244 92.368587 
L 512.348218 91.809257 
L 513.321026 91.809257 
L 513.430022 91.249927 
L 513.565868 91.809257 
L 514.036623 91.249927 
L 514.264009 91.809257 
L 514.494457 91.249927 
L 514.632914 91.809257 
L 514.95537 90.690597 
L 515.178164 91.249927 
L 515.940198 91.249927 
L 516.243366 90.690597 
L 516.686036 90.690597 
L 517.038234 91.809257 
L 517.132107 91.249927 
L 517.508424 91.249927 
L 517.603926 90.131267 
L 518.078545 91.249927 
L 518.244292 90.690597 
L 518.626703 91.249927 
L 518.905845 91.249927 
L 519.048853 90.690597 
L 519.390679 90.690597 
L 519.838333 90.131267 
L 519.896327 91.249927 
L 520.057052 90.131267 
L 520.204403 90.690597 
L 520.292844 90.131267 
L 520.643697 90.690597 
L 521.064669 90.131267 
L 521.276721 90.131267 
L 521.567806 90.690597 
L 521.981561 90.690597 
L 522.405785 89.571938 
L 522.628001 90.131267 
L 523.077347 90.131267 
L 523.287476 90.690597 
L 523.318411 91.249927 
L 523.580183 90.131267 
L 523.719007 90.690597 
L 523.882298 90.131267 
L 524.124933 90.690597 
L 524.399552 90.690597 
L 524.575971 91.249927 
L 524.910545 91.249927 
L 525.258879 90.131267 
L 525.495241 90.690597 
L 525.783082 89.571938 
L 525.932983 89.571938 
L 526.027074 90.131267 
L 526.31982 90.131267 
L 526.344391 89.571938 
L 527.314855 89.571938 
L 527.473841 89.012608 
L 527.610018 89.012608 
L 527.819941 88.453278 
L 528.001003 89.012608 
L 528.139091 88.453278 
L 528.344958 88.453278 
L 528.460849 87.893948 
L 528.610427 88.453278 
L 528.658618 87.893948 
L 528.824205 86.775289 
L 529.02651 87.334619 
L 529.090177 87.893948 
L 529.30353 87.334619 
L 529.477886 87.893948 
L 529.688039 87.334619 
L 530.032427 87.334619 
L 530.12832 86.775289 
L 530.366233 87.334619 
L 530.991058 85.656629 
L 531.159136 85.656629 
L 531.332989 86.775289 
L 531.415181 86.215959 
L 531.660978 86.215959 
L 531.77281 86.775289 
L 531.973796 86.775289 
L 532.15678 86.215959 
L 532.392023 86.215959 
L 532.78697 84.53797 
L 532.997091 85.097299 
L 535.759179 85.097299 
L 535.887713 84.53797 
L 536.050712 84.53797 
L 536.181792 85.097299 
L 536.328922 84.53797 
L 537.10001 84.53797 
L 537.209619 83.41931 
L 537.774975 84.53797 
L 538.388294 84.53797 
L 539.052467 83.41931 
L 540.226596 83.97864 
L 540.524773 83.41931 
L 540.853265 83.97864 
L 541.087872 82.85998 
L 541.181967 83.97864 
L 541.491233 82.85998 
L 541.828189 83.97864 
L 541.939732 82.85998 
L 542.155807 82.85998 
L 542.274587 83.41931 
L 542.489882 82.85998 
L 542.619088 82.85998 
L 542.739439 83.41931 
L 542.885667 81.741321 
L 543.269166 82.85998 
L 543.627856 82.85998 
L 543.847027 82.300651 
L 544.260654 82.300651 
L 544.597033 82.85998 
L 544.793684 82.85998 
L 544.942345 81.741321 
L 545.127782 82.85998 
L 545.231313 82.300651 
L 545.481294 81.741321 
L 545.634572 81.741321 
L 545.902555 82.85998 
L 546.15881 81.181991 
L 546.480895 81.181991 
L 546.505342 80.063331 
L 546.527835 80.622661 
L 546.696284 81.181991 
L 546.873358 80.063331 
L 546.947217 81.181991 
L 547.214143 81.181991 
L 547.250513 80.622661 
L 547.551248 80.063331 
L 547.731234 80.063331 
L 547.815597 81.181991 
L 548.219184 80.063331 
L 548.284543 81.181991 
L 548.504365 80.063331 
L 548.673465 81.741321 
L 549.187511 80.622661 
L 549.574757 82.300651 
L 549.604701 81.741321 
L 549.849988 82.300651 
L 550.00506 82.300651 
L 550.166046 81.181991 
L 550.358299 82.300651 
L 550.727917 81.181991 
L 550.868149 82.300651 
L 551.019984 81.741321 
L 551.329394 81.741321 
L 551.533726 82.300651 
L 551.924871 82.300651 
L 551.936809 81.741321 
L 552.552424 82.85998 
L 552.878916 81.181991 
L 553.052196 81.181991 
L 553.254153 81.741321 
L 553.311238 80.622661 
L 553.597937 81.741321 
L 553.774472 80.622661 
L 553.952439 81.741321 
L 554.025986 81.181991 
L 554.390976 81.181991 
L 554.609707 80.622661 
L 554.709748 79.504002 
L 554.913409 80.622661 
L 555.248478 80.063331 
L 555.396699 79.504002 
L 555.579839 80.063331 
L 555.736205 77.826012 
L 555.981644 77.826012 
L 556.306225 77.266683 
L 556.345383 78.385342 
L 556.664837 77.266683 
L 557.119563 78.385342 
L 557.242432 76.707353 
L 557.611146 76.148023 
L 558.012737 77.266683 
L 558.267264 77.826012 
L 558.974787 77.266683 
L 559.059532 76.707353 
L 560.053924 76.707353 
L 560.355158 76.148023 
L 560.659862 74.470034 
L 561.442163 75.029363 
L 562.043593 75.029363 
L 562.375762 74.470034 
L 562.461384 75.029363 
L 562.713752 73.910704 
L 562.769975 75.029363 
L 563.046185 74.470034 
L 563.547232 74.470034 
L 563.715735 73.910704 
L 563.715735 73.910704 
" clip-path="url(#p23ed846ca9)" style="fill: none; stroke-dasharray: 6,1.5; stroke-dashoffset: 0; stroke: #008000; stroke-width: 1.5"/>
   </g>
   <g id="line2d_20">
    <path d="M 38.539265 361.96554 
L 39.916474 363.0842 
L 41.289238 363.0842 
L 42.617085 362.52487 
L 44.540078 362.52487 
L 48.55627 361.96554 
L 48.669665 362.52487 
L 52.147521 362.52487 
L 52.475288 363.643529 
L 53.200445 363.643529 
L 53.501964 360.287551 
L 53.9038 363.643529 
L 55.86062 363.643529 
L 56.21945 360.287551 
L 58.918205 360.287551 
L 60.340791 360.846881 
L 60.534521 361.40621 
L 61.61592 361.40621 
L 61.919446 359.728221 
L 65.237135 359.728221 
L 65.630646 360.287551 
L 75.745724 360.287551 
L 76.064327 359.728221 
L 82.158841 359.728221 
L 82.462457 361.96554 
L 132.999723 361.96554 
L 133.340488 363.0842 
L 133.752509 366.440178 
L 134.04683 366.440178 
L 134.379505 366.999508 
L 136.377394 366.999508 
L 139.132552 368.677497 
L 139.413874 368.677497 
L 139.885576 369.236827 
L 153.81205 369.236827 
L 154.560399 370.355487 
L 186.157054 370.355487 
L 186.512472 370.914817 
L 186.881459 370.355487 
L 189.029748 370.355487 
L 189.345572 370.914817 
L 195.092212 370.914817 
L 196.35387 372.033476 
L 196.564284 370.914817 
L 196.969309 370.914817 
L 197.303158 372.033476 
L 205.080778 372.033476 
L 205.443105 371.474146 
L 205.654046 372.033476 
L 223.956568 372.033476 
L 224.276232 373.152136 
L 265.038956 373.152136 
L 265.425964 373.711465 
L 358.905731 373.711465 
L 359.279564 373.152136 
L 370.397678 373.152136 
L 370.833392 373.711465 
L 370.949844 374.830125 
L 400.239543 374.830125 
L 400.443879 374.270795 
L 403.314436 374.270795 
L 403.474779 374.830125 
L 519.248416 374.830125 
L 519.275004 374.270795 
L 528.139091 374.270795 
L 528.460849 374.830125 
L 561.69416 374.830125 
L 562.043593 374.270795 
L 563.715735 374.270795 
L 563.715735 374.270795 
" clip-path="url(#p23ed846ca9)" style="fill: none; stroke-dasharray: 9,3; stroke-dashoffset: 0; stroke: #ffa500; stroke-width: 1.5"/>
   </g>
   <g id="line2d_21">
    <path d="M 38.539265 323.371785 
L 48.55627 323.371785 
L 48.669665 323.931115 
L 52.147521 323.931115 
L 52.475288 324.490445 
L 53.200445 324.490445 
L 53.501964 325.609104 
L 53.9038 324.490445 
L 55.86062 324.490445 
L 56.462023 326.168434 
L 57.877345 326.168434 
L 58.19621 326.727764 
L 58.389016 326.168434 
L 58.550295 326.727764 
L 73.394452 326.727764 
L 73.710443 327.846424 
L 73.834791 326.727764 
L 74.388817 327.846424 
L 92.122329 327.846424 
L 92.873828 328.405753 
L 93.044067 327.846424 
L 94.249493 327.846424 
L 94.576831 328.405753 
L 94.937981 327.846424 
L 95.797249 327.846424 
L 96.271868 328.405753 
L 96.624209 327.846424 
L 123.941749 327.846424 
L 124.236324 328.405753 
L 124.612734 328.405753 
L 124.946517 327.846424 
L 125.289926 327.846424 
L 125.526553 328.405753 
L 125.783011 327.846424 
L 126.209204 328.405753 
L 133.340488 328.405753 
L 133.752509 327.846424 
L 134.04683 327.846424 
L 134.379505 328.965083 
L 136.0011 328.965083 
L 136.377394 331.761732 
L 139.132552 329.524413 
L 139.413874 330.083743 
L 141.383752 330.083743 
L 141.768062 332.880392 
L 142.106956 333.439721 
L 157.373524 333.439721 
L 157.907225 332.880392 
L 158.329562 333.439721 
L 159.271559 332.880392 
L 161.565827 332.880392 
L 162.923116 333.439721 
L 168.589823 333.439721 
L 169.018297 333.999051 
L 204.805289 333.999051 
L 205.080778 334.558381 
L 205.443105 333.999051 
L 211.818157 333.999051 
L 212.222695 341.270338 
L 213.16431 341.270338 
L 213.548511 345.744976 
L 213.887238 347.422966 
L 234.401408 347.422966 
L 237.286696 347.982296 
L 267.73207 347.982296 
L 268.070539 350.219615 
L 275.126335 350.219615 
L 275.445902 346.863636 
L 291.756598 346.863636 
L 291.943298 347.422966 
L 322.315835 347.422966 
L 322.540445 347.982296 
L 322.896549 347.422966 
L 331.101852 347.422966 
L 331.253999 347.982296 
L 331.564434 347.422966 
L 333.645029 347.422966 
L 333.933665 347.982296 
L 334.042748 347.422966 
L 337.129654 347.422966 
L 337.345214 347.982296 
L 347.008295 347.982296 
L 347.197256 347.422966 
L 359.279564 347.422966 
L 359.557353 346.863636 
L 359.69661 347.422966 
L 359.867929 346.863636 
L 359.976571 347.422966 
L 360.194538 347.422966 
L 360.285888 346.863636 
L 360.53032 347.422966 
L 361.985907 347.422966 
L 362.260168 346.863636 
L 362.383029 347.422966 
L 370.833392 347.422966 
L 370.949844 346.863636 
L 400.239543 346.863636 
L 400.443879 347.422966 
L 405.033292 347.422966 
L 405.1332 350.219615 
L 405.426067 347.422966 
L 408.08051 347.422966 
L 408.095042 350.219615 
L 408.426668 347.422966 
L 408.45418 350.219615 
L 435.009128 350.219615 
L 435.342228 349.660285 
L 435.628384 350.219615 
L 467.959936 350.219615 
L 468.176507 350.778944 
L 468.316664 350.219615 
L 468.646392 350.219615 
L 469.118488 350.778944 
L 490.414629 350.778944 
L 490.660481 351.338274 
L 493.689576 351.338274 
L 493.995208 351.897604 
L 500.051913 351.897604 
L 500.176576 351.338274 
L 507.134148 351.338274 
L 507.389545 351.897604 
L 519.248416 351.897604 
L 519.275004 355.812913 
L 528.139091 355.812913 
L 528.460849 355.253583 
L 536.444789 355.253583 
L 537.209619 357.490902 
L 544.942345 357.490902 
L 545.231313 356.931572 
L 559.324228 356.931572 
L 559.812177 356.372242 
L 561.69416 356.372242 
L 562.043593 358.609561 
L 562.461384 359.168891 
L 563.715735 359.168891 
L 563.715735 359.168891 
" clip-path="url(#p23ed846ca9)" style="fill: none; stroke-dasharray: 12,4.5; stroke-dashoffset: 0; stroke: #ee82ee; stroke-width: 1.5"/>
   </g>
   <g id="patch_3">
    <path d="M 33.2875 374.830125 
L 33.2875 22.318125 
" style="fill: none; stroke: #000000; stroke-width: 0.8; stroke-linejoin: miter; stroke-linecap: square"/>
   </g>
   <g id="patch_4">
    <path d="M 568.9675 374.830125 
L 568.9675 22.318125 
" style="fill: none; stroke: #000000; stroke-width: 0.8; stroke-linejoin: miter; stroke-linecap: square"/>
   </g>
   <g id="patch_5">
    <path d="M 33.2875 374.830125 
L 568.9675 374.830125 
" style="fill: none; stroke: #000000; stroke-width: 0.8; stroke-linejoin: miter; stroke-linecap: square"/>
   </g>
   <g id="patch_6">
    <path d="M 33.2875 22.318125 
L 568.9675 22.318125 
" style="fill: none; stroke: #000000; stroke-width: 0.8; stroke-linejoin: miter; stroke-linecap: square"/>
   </g>
   <g id="text_17">
    <!-- Rust/Coreutils running GNU's testsuite -->
    <g transform="translate(186.090625 16.318125) scale(0.12 -0.12)">
     <defs>
      <path id="DejaVuSans-52" d="M 2841 2188 
Q 3044 2119 3236 1894 
Q 3428 1669 3622 1275 
L 4263 0 
L 3584 0 
L 2988 1197 
Q 2756 1666 2539 1819 
Q 2322 1972 1947 1972 
L 1259 1972 
L 1259 0 
L 628 0 
L 628 4666 
L 2053 4666 
Q 2853 4666 3247 4331 
Q 3641 3997 3641 3322 
Q 3641 2881 3436 2590 
Q 3231 2300 2841 2188 
z
M 1259 4147 
L 1259 2491 
L 2053 2491 
Q 2509 2491 2742 2702 
Q 2975 2913 2975 3322 
Q 2975 3731 2742 3939 
Q 2509 4147 2053 4147 
L 1259 4147 
z
" transform="scale(0.015625)"/>
      <path id="DejaVuSans-75" d="M 544 1381 
L 544 3500 
L 1119 3500 
L 1119 1403 
Q 1119 906 1312 657 
Q 1506 409 1894 409 
Q 2359 409 2629 706 
Q 2900 1003 2900 1516 
L 2900 3500 
L 3475 3500 
L 3475 0 
L 2900 0 
L 2900 538 
Q 2691 219 2414 64 
Q 2138 -91 1772 -91 
Q 1169 -91 856 284 
Q 544 659 544 1381 
z
M 1991 3584 
L 1991 3584 
z
" transform="scale(0.015625)"/>
      <path id="DejaVuSans-73" d="M 2834 3397 
L 2834 2853 
Q 2591 2978 2328 3040 
Q 2066 3103 1784 3103 
Q 1356 3103 1142 2972 
Q 928 2841 928 2578 
Q 928 2378 1081 2264 
Q 1234 2150 1697 2047 
L 1894 2003 
Q 2506 1872 2764 1633 
Q 3022 1394 3022 966 
Q 3022 478 2636 193 
Q 2250 -91 1575 -91 
Q 1294 -91 989 -36 
Q 684 19 347 128 
L 347 722 
Q 666 556 975 473 
Q 1284 391 1588 391 
Q 1994 391 2212 530 
Q 2431 669 2431 922 
Q 2431 1156 2273 1281 
Q 2116 1406 1581 1522 
L 1381 1569 
Q 847 1681 609 1914 
Q 372 2147 372 2553 
Q 372 3047 722 3315 
Q 1072 3584 1716 3584 
Q 2034 3584 2315 3537 
Q 2597 3491 2834 3397 
z
" transform="scale(0.015625)"/>
      <path id="DejaVuSans-74" d="M 1172 4494 
L 1172 3500 
L 2356 3500 
L 2356 3053 
L 1172 3053 
L 1172 1153 
Q 1172 725 1289 603 
Q 1406 481 1766 481 
L 2356 481 
L 2356 0 
L 1766 0 
Q 1100 0 847 248 
Q 594 497 594 1153 
L 594 3053 
L 172 3053 
L 172 3500 
L 594 3500 
L 594 4494 
L 1172 4494 
z
" transform="scale(0.015625)"/>
      <path id="DejaVuSans-2f" d="M 1625 4666 
L 2156 4666 
L 531 -594 
L 0 -594 
L 1625 4666 
z
" transform="scale(0.015625)"/>
      <path id="DejaVuSans-43" d="M 4122 4306 
L 4122 3641 
Q 3803 3938 3442 4084 
Q 3081 4231 2675 4231 
Q 1875 4231 1450 3742 
Q 1025 3253 1025 2328 
Q 1025 1406 1450 917 
Q 1875 428 2675 428 
Q 3081 428 3442 575 
Q 3803 722 4122 1019 
L 4122 359 
Q 3791 134 3420 21 
Q 3050 -91 2638 -91 
Q 1578 -91 968 557 
Q 359 1206 359 2328 
Q 359 3453 968 4101 
Q 1578 4750 2638 4750 
Q 3056 4750 3426 4639 
Q 3797 4528 4122 4306 
z
" transform="scale(0.015625)"/>
      <path id="DejaVuSans-6f" d="M 1959 3097 
Q 1497 3097 1228 2736 
Q 959 2375 959 1747 
Q 959 1119 1226 758 
Q 1494 397 1959 397 
Q 2419 397 2687 759 
Q 2956 1122 2956 1747 
Q 2956 2369 2687 2733 
Q 2419 3097 1959 3097 
z
M 1959 3584 
Q 2709 3584 3137 3096 
Q 3566 2609 3566 1747 
Q 3566 888 3137 398 
Q 2709 -91 1959 -91 
Q 1206 -91 779 398 
Q 353 888 353 1747 
Q 353 2609 779 3096 
Q 1206 3584 1959 3584 
z
" transform="scale(0.015625)"/>
      <path id="DejaVuSans-72" d="M 2631 2963 
Q 2534 3019 2420 3045 
Q 2306 3072 2169 3072 
Q 1681 3072 1420 2755 
Q 1159 2438 1159 1844 
L 1159 0 
L 581 0 
L 581 3500 
L 1159 3500 
L 1159 2956 
Q 1341 3275 1631 3429 
Q 1922 3584 2338 3584 
Q 2397 3584 2469 3576 
Q 2541 3569 2628 3553 
L 2631 2963 
z
" transform="scale(0.015625)"/>
      <path id="DejaVuSans-65" d="M 3597 1894 
L 3597 1613 
L 953 1613 
Q 991 1019 1311 708 
Q 1631 397 2203 397 
Q 2534 397 2845 478 
Q 3156 559 3463 722 
L 3463 178 
Q 3153 47 2828 -22 
Q 2503 -91 2169 -91 
Q 1331 -91 842 396 
Q 353 884 353 1716 
Q 353 2575 817 3079 
Q 1281 3584 2069 3584 
Q 2775 3584 3186 3129 
Q 3597 2675 3597 1894 
z
M 3022 2063 
Q 3016 2534 2758 2815 
Q 2500 3097 2075 3097 
Q 1594 3097 1305 2825 
Q 1016 2553 972 2059 
L 3022 2063 
z
" transform="scale(0.015625)"/>
      <path id="DejaVuSans-69" d="M 603 3500 
L 1178 3500 
L 1178 0 
L 603 0 
L 603 3500 
z
M 603 4863 
L 1178 4863 
L 1178 4134 
L 603 4134 
L 603 4863 
z
" transform="scale(0.015625)"/>
      <path id="DejaVuSans-6c" d="M 603 4863 
L 1178 4863 
L 1178 0 
L 603 0 
L 603 4863 
z
" transform="scale(0.015625)"/>
      <path id="DejaVuSans-20" transform="scale(0.015625)"/>
      <path id="DejaVuSans-6e" d="M 3513 2113 
L 3513 0 
L 2938 0 
L 2938 2094 
Q 2938 2591 2744 2837 
Q 2550 3084 2163 3084 
Q 1697 3084 1428 2787 
Q 1159 2491 1159 1978 
L 1159 0 
L 581 0 
L 581 3500 
L 1159 3500 
L 1159 2956 
Q 1366 3272 1645 3428 
Q 1925 3584 2291 3584 
Q 2894 3584 3203 3211 
Q 3513 2838 3513 2113 
z
" transform="scale(0.015625)"/>
      <path id="DejaVuSans-67" d="M 2906 1791 
Q 2906 2416 2648 2759 
Q 2391 3103 1925 3103 
Q 1463 3103 1205 2759 
Q 947 2416 947 1791 
Q 947 1169 1205 825 
Q 1463 481 1925 481 
Q 2391 481 2648 825 
Q 2906 1169 2906 1791 
z
M 3481 434 
Q 3481 -459 3084 -895 
Q 2688 -1331 1869 -1331 
Q 1566 -1331 1297 -1286 
Q 1028 -1241 775 -1147 
L 775 -588 
Q 1028 -725 1275 -790 
Q 1522 -856 1778 -856 
Q 2344 -856 2625 -561 
Q 2906 -266 2906 331 
L 2906 616 
Q 2728 306 2450 153 
Q 2172 0 1784 0 
Q 1141 0 747 490 
Q 353 981 353 1791 
Q 353 2603 747 3093 
Q 1141 3584 1784 3584 
Q 2172 3584 2450 3431 
Q 2728 3278 2906 2969 
L 2906 3500 
L 3481 3500 
L 3481 434 
z
" transform="scale(0.015625)"/>
      <path id="DejaVuSans-47" d="M 3809 666 
L 3809 1919 
L 2778 1919 
L 2778 2438 
L 4434 2438 
L 4434 434 
Q 4069 175 3628 42 
Q 3188 -91 2688 -91 
Q 1594 -91 976 548 
Q 359 1188 359 2328 
Q 359 3472 976 4111 
Q 1594 4750 2688 4750 
Q 3144 4750 3555 4637 
Q 3966 4525 4313 4306 
L 4313 3634 
Q 3963 3931 3569 4081 
Q 3175 4231 2741 4231 
Q 1884 4231 1454 3753 
Q 1025 3275 1025 2328 
Q 1025 1384 1454 906 
Q 1884 428 2741 428 
Q 3075 428 3337 486 
Q 3600 544 3809 666 
z
" transform="scale(0.015625)"/>
      <path id="DejaVuSans-4e" d="M 628 4666 
L 1478 4666 
L 3547 763 
L 3547 4666 
L 4159 4666 
L 4159 0 
L 3309 0 
L 1241 3903 
L 1241 0 
L 628 0 
L 628 4666 
z
" transform="scale(0.015625)"/>
      <path id="DejaVuSans-55" d="M 556 4666 
L 1191 4666 
L 1191 1831 
Q 1191 1081 1462 751 
Q 1734 422 2344 422 
Q 2950 422 3222 751 
Q 3494 1081 3494 1831 
L 3494 4666 
L 4128 4666 
L 4128 1753 
Q 4128 841 3676 375 
Q 3225 -91 2344 -91 
Q 1459 -91 1007 375 
Q 556 841 556 1753 
L 556 4666 
z
" transform="scale(0.015625)"/>
      <path id="DejaVuSans-27" d="M 1147 4666 
L 1147 2931 
L 616 2931 
L 616 4666 
L 1147 4666 
z
" transform="scale(0.015625)"/>
     </defs>
     <use xlink:href="#DejaVuSans-52"/>
     <use xlink:href="#DejaVuSans-75" x="64.982422"/>
     <use xlink:href="#DejaVuSans-73" x="128.361328"/>
     <use xlink:href="#DejaVuSans-74" x="180.460938"/>
     <use xlink:href="#DejaVuSans-2f" x="219.669922"/>
     <use xlink:href="#DejaVuSans-43" x="253.361328"/>
     <use xlink:href="#DejaVuSans-6f" x="323.185547"/>
     <use xlink:href="#DejaVuSans-72" x="384.367188"/>
     <use xlink:href="#DejaVuSans-65" x="423.230469"/>
     <use xlink:href="#DejaVuSans-75" x="484.753906"/>
     <use xlink:href="#DejaVuSans-74" x="548.132812"/>
     <use xlink:href="#DejaVuSans-69" x="587.341797"/>
     <use xlink:href="#DejaVuSans-6c" x="615.125"/>
     <use xlink:href="#DejaVuSans-73" x="642.908203"/>
     <use xlink:href="#DejaVuSans-20" x="695.007812"/>
     <use xlink:href="#DejaVuSans-72" x="726.794922"/>
     <use xlink:href="#DejaVuSans-75" x="767.908203"/>
     <use xlink:href="#DejaVuSans-6e" x="831.287109"/>
     <use xlink:href="#DejaVuSans-6e" x="894.666016"/>
     <use xlink:href="#DejaVuSans-69" x="958.044922"/>
     <use xlink:href="#DejaVuSans-6e" x="985.828125"/>
     <use xlink:href="#DejaVuSans-67" x="1049.207031"/>
     <use xlink:href="#DejaVuSans-20" x="1112.683594"/>
     <use xlink:href="#DejaVuSans-47" x="1144.470703"/>
     <use xlink:href="#DejaVuSans-4e" x="1221.960938"/>
     <use xlink:href="#DejaVuSans-55" x="1296.765625"/>
     <use xlink:href="#DejaVuSans-27" x="1369.958984"/>
     <use xlink:href="#DejaVuSans-73" x="1397.449219"/>
     <use xlink:href="#DejaVuSans-20" x="1449.548828"/>
     <use xlink:href="#DejaVuSans-74" x="1481.335938"/>
     <use xlink:href="#DejaVuSans-65" x="1520.544922"/>
     <use xlink:href="#DejaVuSans-73" x="1582.068359"/>
     <use xlink:href="#DejaVuSans-74" x="1634.167969"/>
     <use xlink:href="#DejaVuSans-73" x="1673.376953"/>
     <use xlink:href="#DejaVuSans-75" x="1725.476562"/>
     <use xlink:href="#DejaVuSans-69" x="1788.855469"/>
     <use xlink:href="#DejaVuSans-74" x="1816.638672"/>
     <use xlink:href="#DejaVuSans-65" x="1855.847656"/>
    </g>
   </g>
   <g id="legend_1">
    <g id="patch_7">
     <path d="M 505.762812 236.769437 
L 561.9675 236.769437 
Q 563.9675 236.769437 563.9675 234.769437 
L 563.9675 162.378812 
Q 563.9675 160.378812 561.9675 160.378812 
L 505.762812 160.378812 
Q 503.762812 160.378812 503.762812 162.378812 
L 503.762812 234.769437 
Q 503.762812 236.769437 505.762812 236.769437 
z
" style="fill: #ffffff; opacity: 0.8; stroke: #cccccc; stroke-linejoin: miter"/>
    </g>
    <g id="line2d_22">
     <path d="M 507.762812 168.47725 
L 517.762812 168.47725 
L 527.762812 168.47725 
" style="fill: none; stroke: #0000ff; stroke-width: 1.5; stroke-linecap: square"/>
    </g>
    <g id="text_18">
     <!-- total -->
     <g transform="translate(535.762812 171.97725) scale(0.1 -0.1)">
      <defs>
       <path id="DejaVuSans-61" d="M 2194 1759 
Q 1497 1759 1228 1600 
Q 959 1441 959 1056 
Q 959 750 1161 570 
Q 1363 391 1709 391 
Q 2188 391 2477 730 
Q 2766 1069 2766 1631 
L 2766 1759 
L 2194 1759 
z
M 3341 1997 
L 3341 0 
L 2766 0 
L 2766 531 
Q 2569 213 2275 61 
Q 1981 -91 1556 -91 
Q 1019 -91 701 211 
Q 384 513 384 1019 
Q 384 1609 779 1909 
Q 1175 2209 1959 2209 
L 2766 2209 
L 2766 2266 
Q 2766 2663 2505 2880 
Q 2244 3097 1772 3097 
Q 1472 3097 1187 3025 
Q 903 2953 641 2809 
L 641 3341 
Q 956 3463 1253 3523 
Q 1550 3584 1831 3584 
Q 2591 3584 2966 3190 
Q 3341 2797 3341 1997 
z
" transform="scale(0.015625)"/>
      </defs>
      <use xlink:href="#DejaVuSans-74"/>
      <use xlink:href="#DejaVuSans-6f" x="39.208984"/>
      <use xlink:href="#DejaVuSans-74" x="100.390625"/>
      <use xlink:href="#DejaVuSans-61" x="139.599609"/>
      <use xlink:href="#DejaVuSans-6c" x="200.878906"/>
     </g>
    </g>
    <g id="line2d_23">
     <path d="M 507.762812 183.155375 
L 517.762812 183.155375 
L 527.762812 183.155375 
" style="fill: none; stroke-dasharray: 3,1.5; stroke-dashoffset: 0; stroke: #808080; stroke-width: 1.5"/>
    </g>
    <g id="text_19">
     <!-- fail -->
     <g transform="translate(535.762812 186.655375) scale(0.1 -0.1)">
      <defs>
       <path id="DejaVuSans-66" d="M 2375 4863 
L 2375 4384 
L 1825 4384 
Q 1516 4384 1395 4259 
Q 1275 4134 1275 3809 
L 1275 3500 
L 2222 3500 
L 2222 3053 
L 1275 3053 
L 1275 0 
L 697 0 
L 697 3053 
L 147 3053 
L 147 3500 
L 697 3500 
L 697 3744 
Q 697 4328 969 4595 
Q 1241 4863 1831 4863 
L 2375 4863 
z
" transform="scale(0.015625)"/>
      </defs>
      <use xlink:href="#DejaVuSans-66"/>
      <use xlink:href="#DejaVuSans-61" x="35.205078"/>
      <use xlink:href="#DejaVuSans-69" x="96.484375"/>
      <use xlink:href="#DejaVuSans-6c" x="124.267578"/>
     </g>
    </g>
    <g id="line2d_24">
     <path d="M 507.762812 197.8335 
L 517.762812 197.8335 
L 527.762812 197.8335 
" style="fill: none; stroke-dasharray: 6,1.5; stroke-dashoffset: 0; stroke: #008000; stroke-width: 1.5"/>
    </g>
    <g id="text_20">
     <!-- pass -->
     <g transform="translate(535.762812 201.3335) scale(0.1 -0.1)">
      <defs>
       <path id="DejaVuSans-70" d="M 1159 525 
L 1159 -1331 
L 581 -1331 
L 581 3500 
L 1159 3500 
L 1159 2969 
Q 1341 3281 1617 3432 
Q 1894 3584 2278 3584 
Q 2916 3584 3314 3078 
Q 3713 2572 3713 1747 
Q 3713 922 3314 415 
Q 2916 -91 2278 -91 
Q 1894 -91 1617 61 
Q 1341 213 1159 525 
z
M 3116 1747 
Q 3116 2381 2855 2742 
Q 2594 3103 2138 3103 
Q 1681 3103 1420 2742 
Q 1159 2381 1159 1747 
Q 1159 1113 1420 752 
Q 1681 391 2138 391 
Q 2594 391 2855 752 
Q 3116 1113 3116 1747 
z
" transform="scale(0.015625)"/>
      </defs>
      <use xlink:href="#DejaVuSans-70"/>
      <use xlink:href="#DejaVuSans-61" x="63.476562"/>
      <use xlink:href="#DejaVuSans-73" x="124.755859"/>
      <use xlink:href="#DejaVuSans-73" x="176.855469"/>
     </g>
    </g>
    <g id="line2d_25">
     <path d="M 507.762812 212.511625 
L 517.762812 212.511625 
L 527.762812 212.511625 
" style="fill: none; stroke-dasharray: 9,3; stroke-dashoffset: 0; stroke: #ffa500; stroke-width: 1.5"/>
    </g>
    <g id="text_21">
     <!-- error -->
     <g transform="translate(535.762812 216.011625) scale(0.1 -0.1)">
      <use xlink:href="#DejaVuSans-65"/>
      <use xlink:href="#DejaVuSans-72" x="61.523438"/>
      <use xlink:href="#DejaVuSans-72" x="100.886719"/>
      <use xlink:href="#DejaVuSans-6f" x="139.75"/>
      <use xlink:href="#DejaVuSans-72" x="200.931641"/>
     </g>
    </g>
    <g id="line2d_26">
     <path d="M 507.762812 227.18975 
L 517.762812 227.18975 
L 527.762812 227.18975 
" style="fill: none; stroke-dasharray: 12,4.5; stroke-dashoffset: 0; stroke: #ee82ee; stroke-width: 1.5"/>
    </g>
    <g id="text_22">
     <!-- skip -->
     <g transform="translate(535.762812 230.68975) scale(0.1 -0.1)">
      <defs>
       <path id="DejaVuSans-6b" d="M 581 4863 
L 1159 4863 
L 1159 1991 
L 2875 3500 
L 3609 3500 
L 1753 1863 
L 3688 0 
L 2938 0 
L 1159 1709 
L 1159 0 
L 581 0 
L 581 4863 
z
" transform="scale(0.015625)"/>
      </defs>
      <use xlink:href="#DejaVuSans-73"/>
      <use xlink:href="#DejaVuSans-6b" x="52.099609"/>
      <use xlink:href="#DejaVuSans-69" x="110.009766"/>
      <use xlink:href="#DejaVuSans-70" x="137.792969"/>
     </g>
    </g>
   </g>
  </g>
 </g>
 <defs>
  <clipPath id="p23ed846ca9">
   <rect x="33.2875" y="22.318125" width="535.68" height="352.512"/>
  </clipPath>
 </defs>
</svg>
