<?xml version="1.0" encoding="utf-8" standalone="no"?>
<!DOCTYPE svg PUBLIC "-//W3C//DTD SVG 1.1//EN"
  "http://www.w3.org/Graphics/SVG/1.1/DTD/svg11.dtd">
<svg xmlns:xlink="http://www.w3.org/1999/xlink" width="576.1675pt" height="418.303033pt" viewBox="0 0 576.1675 418.303033" xmlns="http://www.w3.org/2000/svg" version="1.1">
 <metadata>
  <rdf:RDF xmlns:dc="http://purl.org/dc/elements/1.1/" xmlns:cc="http://creativecommons.org/ns#" xmlns:rdf="http://www.w3.org/1999/02/22-rdf-syntax-ns#">
   <cc:Work>
    <dc:type rdf:resource="http://purl.org/dc/dcmitype/StillImage"/>
    <dc:date>2025-10-31T02:32:59.499111</dc:date>
    <dc:format>image/svg+xml</dc:format>
    <dc:creator>
     <cc:Agent>
      <dc:title>Matplotlib v3.6.3, https://matplotlib.org/</dc:title>
     </cc:Agent>
    </dc:creator>
   </cc:Work>
  </rdf:RDF>
 </metadata>
 <defs>
  <style type="text/css">*{stroke-linejoin: round; stroke-linecap: butt}</style>
 </defs>
 <g id="figure_1">
  <g id="patch_1">
   <path d="M -0 418.303033 
L 576.1675 418.303033 
L 576.1675 0 
L -0 0 
z
" style="fill: #ffffff"/>
  </g>
  <g id="axes_1">
   <g id="patch_2">
    <path d="M 33.2875 374.830125 
L 568.9675 374.830125 
L 568.9675 22.318125 
L 33.2875 22.318125 
z
" style="fill: #ffffff"/>
   </g>
   <g id="matplotlib.axis_1">
    <g id="xtick_1">
     <g id="line2d_1">
      <defs>
       <path id="mc590ae3d9b" d="M 0 0 
L 0 3.5 
" style="stroke: #000000; stroke-width: 0.8"/>
      </defs>
      <g>
       <use xlink:href="#mc590ae3d9b" x="61.209495" y="374.830125" style="stroke: #000000; stroke-width: 0.8"/>
      </g>
     </g>
     <g id="text_1">
      <!-- 2021-07 -->
      <g transform="translate(23.984674 409.301971) rotate(-30) scale(0.1 -0.1)">
       <defs>
        <path id="DejaVuSans-32" d="M 1228 531 
L 3431 531 
L 3431 0 
L 469 0 
L 469 531 
Q 828 903 1448 1529 
Q 2069 2156 2228 2338 
Q 2531 2678 2651 2914 
Q 2772 3150 2772 3378 
Q 2772 3750 2511 3984 
Q 2250 4219 1831 4219 
Q 1534 4219 1204 4116 
Q 875 4013 500 3803 
L 500 4441 
Q 881 4594 1212 4672 
Q 1544 4750 1819 4750 
Q 2544 4750 2975 4387 
Q 3406 4025 3406 3419 
Q 3406 3131 3298 2873 
Q 3191 2616 2906 2266 
Q 2828 2175 2409 1742 
Q 1991 1309 1228 531 
z
" transform="scale(0.015625)"/>
        <path id="DejaVuSans-30" d="M 2034 4250 
Q 1547 4250 1301 3770 
Q 1056 3291 1056 2328 
Q 1056 1369 1301 889 
Q 1547 409 2034 409 
Q 2525 409 2770 889 
Q 3016 1369 3016 2328 
Q 3016 3291 2770 3770 
Q 2525 4250 2034 4250 
z
M 2034 4750 
Q 2819 4750 3233 4129 
Q 3647 3509 3647 2328 
Q 3647 1150 3233 529 
Q 2819 -91 2034 -91 
Q 1250 -91 836 529 
Q 422 1150 422 2328 
Q 422 3509 836 4129 
Q 1250 4750 2034 4750 
z
" transform="scale(0.015625)"/>
        <path id="DejaVuSans-31" d="M 794 531 
L 1825 531 
L 1825 4091 
L 703 3866 
L 703 4441 
L 1819 4666 
L 2450 4666 
L 2450 531 
L 3481 531 
L 3481 0 
L 794 0 
L 794 531 
z
" transform="scale(0.015625)"/>
        <path id="DejaVuSans-2d" d="M 313 2009 
L 1997 2009 
L 1997 1497 
L 313 1497 
L 313 2009 
z
" transform="scale(0.015625)"/>
        <path id="DejaVuSans-37" d="M 525 4666 
L 3525 4666 
L 3525 4397 
L 1831 0 
L 1172 0 
L 2766 4134 
L 525 4134 
L 525 4666 
z
" transform="scale(0.015625)"/>
       </defs>
       <use xlink:href="#DejaVuSans-32"/>
       <use xlink:href="#DejaVuSans-30" x="63.623047"/>
       <use xlink:href="#DejaVuSans-32" x="127.246094"/>
       <use xlink:href="#DejaVuSans-31" x="190.869141"/>
       <use xlink:href="#DejaVuSans-2d" x="254.492188"/>
       <use xlink:href="#DejaVuSans-30" x="290.576172"/>
       <use xlink:href="#DejaVuSans-37" x="354.199219"/>
      </g>
     </g>
    </g>
    <g id="xtick_2">
     <g id="line2d_2">
      <g>
       <use xlink:href="#mc590ae3d9b" x="119.621273" y="374.830125" style="stroke: #000000; stroke-width: 0.8"/>
      </g>
     </g>
     <g id="text_2">
      <!-- 2022-01 -->
      <g transform="translate(82.396453 409.301971) rotate(-30) scale(0.1 -0.1)">
       <use xlink:href="#DejaVuSans-32"/>
       <use xlink:href="#DejaVuSans-30" x="63.623047"/>
       <use xlink:href="#DejaVuSans-32" x="127.246094"/>
       <use xlink:href="#DejaVuSans-32" x="190.869141"/>
       <use xlink:href="#DejaVuSans-2d" x="254.492188"/>
       <use xlink:href="#DejaVuSans-30" x="290.576172"/>
       <use xlink:href="#DejaVuSans-31" x="354.199219"/>
      </g>
     </g>
    </g>
    <g id="xtick_3">
     <g id="line2d_3">
      <g>
       <use xlink:href="#mc590ae3d9b" x="177.080686" y="374.830125" style="stroke: #000000; stroke-width: 0.8"/>
      </g>
     </g>
     <g id="text_3">
      <!-- 2022-07 -->
      <g transform="translate(139.855865 409.301971) rotate(-30) scale(0.1 -0.1)">
       <use xlink:href="#DejaVuSans-32"/>
       <use xlink:href="#DejaVuSans-30" x="63.623047"/>
       <use xlink:href="#DejaVuSans-32" x="127.246094"/>
       <use xlink:href="#DejaVuSans-32" x="190.869141"/>
       <use xlink:href="#DejaVuSans-2d" x="254.492188"/>
       <use xlink:href="#DejaVuSans-30" x="290.576172"/>
       <use xlink:href="#DejaVuSans-37" x="354.199219"/>
      </g>
     </g>
    </g>
    <g id="xtick_4">
     <g id="line2d_4">
      <g>
       <use xlink:href="#mc590ae3d9b" x="235.492465" y="374.830125" style="stroke: #000000; stroke-width: 0.8"/>
      </g>
     </g>
     <g id="text_4">
      <!-- 2023-01 -->
      <g transform="translate(198.267644 409.301971) rotate(-30) scale(0.1 -0.1)">
       <defs>
        <path id="DejaVuSans-33" d="M 2597 2516 
Q 3050 2419 3304 2112 
Q 3559 1806 3559 1356 
Q 3559 666 3084 287 
Q 2609 -91 1734 -91 
Q 1441 -91 1130 -33 
Q 819 25 488 141 
L 488 750 
Q 750 597 1062 519 
Q 1375 441 1716 441 
Q 2309 441 2620 675 
Q 2931 909 2931 1356 
Q 2931 1769 2642 2001 
Q 2353 2234 1838 2234 
L 1294 2234 
L 1294 2753 
L 1863 2753 
Q 2328 2753 2575 2939 
Q 2822 3125 2822 3475 
Q 2822 3834 2567 4026 
Q 2313 4219 1838 4219 
Q 1578 4219 1281 4162 
Q 984 4106 628 3988 
L 628 4550 
Q 988 4650 1302 4700 
Q 1616 4750 1894 4750 
Q 2613 4750 3031 4423 
Q 3450 4097 3450 3541 
Q 3450 3153 3228 2886 
Q 3006 2619 2597 2516 
z
" transform="scale(0.015625)"/>
       </defs>
       <use xlink:href="#DejaVuSans-32"/>
       <use xlink:href="#DejaVuSans-30" x="63.623047"/>
       <use xlink:href="#DejaVuSans-32" x="127.246094"/>
       <use xlink:href="#DejaVuSans-33" x="190.869141"/>
       <use xlink:href="#DejaVuSans-2d" x="254.492188"/>
       <use xlink:href="#DejaVuSans-30" x="290.576172"/>
       <use xlink:href="#DejaVuSans-31" x="354.199219"/>
      </g>
     </g>
    </g>
    <g id="xtick_5">
     <g id="line2d_5">
      <g>
       <use xlink:href="#mc590ae3d9b" x="292.951877" y="374.830125" style="stroke: #000000; stroke-width: 0.8"/>
      </g>
     </g>
     <g id="text_5">
      <!-- 2023-07 -->
      <g transform="translate(255.727057 409.301971) rotate(-30) scale(0.1 -0.1)">
       <use xlink:href="#DejaVuSans-32"/>
       <use xlink:href="#DejaVuSans-30" x="63.623047"/>
       <use xlink:href="#DejaVuSans-32" x="127.246094"/>
       <use xlink:href="#DejaVuSans-33" x="190.869141"/>
       <use xlink:href="#DejaVuSans-2d" x="254.492188"/>
       <use xlink:href="#DejaVuSans-30" x="290.576172"/>
       <use xlink:href="#DejaVuSans-37" x="354.199219"/>
      </g>
     </g>
    </g>
    <g id="xtick_6">
     <g id="line2d_6">
      <g>
       <use xlink:href="#mc590ae3d9b" x="351.363656" y="374.830125" style="stroke: #000000; stroke-width: 0.8"/>
      </g>
     </g>
     <g id="text_6">
      <!-- 2024-01 -->
      <g transform="translate(314.138835 409.301971) rotate(-30) scale(0.1 -0.1)">
       <defs>
        <path id="DejaVuSans-34" d="M 2419 4116 
L 825 1625 
L 2419 1625 
L 2419 4116 
z
M 2253 4666 
L 3047 4666 
L 3047 1625 
L 3713 1625 
L 3713 1100 
L 3047 1100 
L 3047 0 
L 2419 0 
L 2419 1100 
L 313 1100 
L 313 1709 
L 2253 4666 
z
" transform="scale(0.015625)"/>
       </defs>
       <use xlink:href="#DejaVuSans-32"/>
       <use xlink:href="#DejaVuSans-30" x="63.623047"/>
       <use xlink:href="#DejaVuSans-32" x="127.246094"/>
       <use xlink:href="#DejaVuSans-34" x="190.869141"/>
       <use xlink:href="#DejaVuSans-2d" x="254.492188"/>
       <use xlink:href="#DejaVuSans-30" x="290.576172"/>
       <use xlink:href="#DejaVuSans-31" x="354.199219"/>
      </g>
     </g>
    </g>
    <g id="xtick_7">
     <g id="line2d_7">
      <g>
       <use xlink:href="#mc590ae3d9b" x="409.140524" y="374.830125" style="stroke: #000000; stroke-width: 0.8"/>
      </g>
     </g>
     <g id="text_7">
      <!-- 2024-07 -->
      <g transform="translate(371.915703 409.301971) rotate(-30) scale(0.1 -0.1)">
       <use xlink:href="#DejaVuSans-32"/>
       <use xlink:href="#DejaVuSans-30" x="63.623047"/>
       <use xlink:href="#DejaVuSans-32" x="127.246094"/>
       <use xlink:href="#DejaVuSans-34" x="190.869141"/>
       <use xlink:href="#DejaVuSans-2d" x="254.492188"/>
       <use xlink:href="#DejaVuSans-30" x="290.576172"/>
       <use xlink:href="#DejaVuSans-37" x="354.199219"/>
      </g>
     </g>
    </g>
    <g id="xtick_8">
     <g id="line2d_8">
      <g>
       <use xlink:href="#mc590ae3d9b" x="467.552302" y="374.830125" style="stroke: #000000; stroke-width: 0.8"/>
      </g>
     </g>
     <g id="text_8">
      <!-- 2025-01 -->
      <g transform="translate(430.327482 409.301971) rotate(-30) scale(0.1 -0.1)">
       <defs>
        <path id="DejaVuSans-35" d="M 691 4666 
L 3169 4666 
L 3169 4134 
L 1269 4134 
L 1269 2991 
Q 1406 3038 1543 3061 
Q 1681 3084 1819 3084 
Q 2600 3084 3056 2656 
Q 3513 2228 3513 1497 
Q 3513 744 3044 326 
Q 2575 -91 1722 -91 
Q 1428 -91 1123 -41 
Q 819 9 494 109 
L 494 744 
Q 775 591 1075 516 
Q 1375 441 1709 441 
Q 2250 441 2565 725 
Q 2881 1009 2881 1497 
Q 2881 1984 2565 2268 
Q 2250 2553 1709 2553 
Q 1456 2553 1204 2497 
Q 953 2441 691 2322 
L 691 4666 
z
" transform="scale(0.015625)"/>
       </defs>
       <use xlink:href="#DejaVuSans-32"/>
       <use xlink:href="#DejaVuSans-30" x="63.623047"/>
       <use xlink:href="#DejaVuSans-32" x="127.246094"/>
       <use xlink:href="#DejaVuSans-35" x="190.869141"/>
       <use xlink:href="#DejaVuSans-2d" x="254.492188"/>
       <use xlink:href="#DejaVuSans-30" x="290.576172"/>
       <use xlink:href="#DejaVuSans-31" x="354.199219"/>
      </g>
     </g>
    </g>
    <g id="xtick_9">
     <g id="line2d_9">
      <g>
       <use xlink:href="#mc590ae3d9b" x="525.011715" y="374.830125" style="stroke: #000000; stroke-width: 0.8"/>
      </g>
     </g>
     <g id="text_9">
      <!-- 2025-07 -->
      <g transform="translate(487.786894 409.301971) rotate(-30) scale(0.1 -0.1)">
       <use xlink:href="#DejaVuSans-32"/>
       <use xlink:href="#DejaVuSans-30" x="63.623047"/>
       <use xlink:href="#DejaVuSans-32" x="127.246094"/>
       <use xlink:href="#DejaVuSans-35" x="190.869141"/>
       <use xlink:href="#DejaVuSans-2d" x="254.492188"/>
       <use xlink:href="#DejaVuSans-30" x="290.576172"/>
       <use xlink:href="#DejaVuSans-37" x="354.199219"/>
      </g>
     </g>
    </g>
   </g>
   <g id="matplotlib.axis_2">
    <g id="ytick_1">
     <g id="line2d_10">
      <defs>
       <path id="mbd6a089ee7" d="M 0 0 
L -3.5 0 
" style="stroke: #000000; stroke-width: 0.8"/>
      </defs>
      <g>
       <use xlink:href="#mbd6a089ee7" x="33.2875" y="374.830125" style="stroke: #000000; stroke-width: 0.8"/>
      </g>
     </g>
     <g id="text_10">
      <!-- 0 -->
      <g transform="translate(19.925 378.629344) scale(0.1 -0.1)">
       <use xlink:href="#DejaVuSans-30"/>
      </g>
     </g>
    </g>
    <g id="ytick_2">
     <g id="line2d_11">
      <g>
       <use xlink:href="#mbd6a089ee7" x="33.2875" y="319.779371" style="stroke: #000000; stroke-width: 0.8"/>
      </g>
     </g>
     <g id="text_11">
      <!-- 100 -->
      <g transform="translate(7.2 323.578589) scale(0.1 -0.1)">
       <use xlink:href="#DejaVuSans-31"/>
       <use xlink:href="#DejaVuSans-30" x="63.623047"/>
       <use xlink:href="#DejaVuSans-30" x="127.246094"/>
      </g>
     </g>
    </g>
    <g id="ytick_3">
     <g id="line2d_12">
      <g>
       <use xlink:href="#mbd6a089ee7" x="33.2875" y="264.728616" style="stroke: #000000; stroke-width: 0.8"/>
      </g>
     </g>
     <g id="text_12">
      <!-- 200 -->
      <g transform="translate(7.2 268.527835) scale(0.1 -0.1)">
       <use xlink:href="#DejaVuSans-32"/>
       <use xlink:href="#DejaVuSans-30" x="63.623047"/>
       <use xlink:href="#DejaVuSans-30" x="127.246094"/>
      </g>
     </g>
    </g>
    <g id="ytick_4">
     <g id="line2d_13">
      <g>
       <use xlink:href="#mbd6a089ee7" x="33.2875" y="209.677862" style="stroke: #000000; stroke-width: 0.8"/>
      </g>
     </g>
     <g id="text_13">
      <!-- 300 -->
      <g transform="translate(7.2 213.477081) scale(0.1 -0.1)">
       <use xlink:href="#DejaVuSans-33"/>
       <use xlink:href="#DejaVuSans-30" x="63.623047"/>
       <use xlink:href="#DejaVuSans-30" x="127.246094"/>
      </g>
     </g>
    </g>
    <g id="ytick_5">
     <g id="line2d_14">
      <g>
       <use xlink:href="#mbd6a089ee7" x="33.2875" y="154.627108" style="stroke: #000000; stroke-width: 0.8"/>
      </g>
     </g>
     <g id="text_14">
      <!-- 400 -->
      <g transform="translate(7.2 158.426327) scale(0.1 -0.1)">
       <use xlink:href="#DejaVuSans-34"/>
       <use xlink:href="#DejaVuSans-30" x="63.623047"/>
       <use xlink:href="#DejaVuSans-30" x="127.246094"/>
      </g>
     </g>
    </g>
    <g id="ytick_6">
     <g id="line2d_15">
      <g>
       <use xlink:href="#mbd6a089ee7" x="33.2875" y="99.576354" style="stroke: #000000; stroke-width: 0.8"/>
      </g>
     </g>
     <g id="text_15">
      <!-- 500 -->
      <g transform="translate(7.2 103.375572) scale(0.1 -0.1)">
       <use xlink:href="#DejaVuSans-35"/>
       <use xlink:href="#DejaVuSans-30" x="63.623047"/>
       <use xlink:href="#DejaVuSans-30" x="127.246094"/>
      </g>
     </g>
    </g>
    <g id="ytick_7">
     <g id="line2d_16">
      <g>
       <use xlink:href="#mbd6a089ee7" x="33.2875" y="44.525599" style="stroke: #000000; stroke-width: 0.8"/>
      </g>
     </g>
     <g id="text_16">
      <!-- 600 -->
      <g transform="translate(7.2 48.324818) scale(0.1 -0.1)">
       <defs>
        <path id="DejaVuSans-36" d="M 2113 2584 
Q 1688 2584 1439 2293 
Q 1191 2003 1191 1497 
Q 1191 994 1439 701 
Q 1688 409 2113 409 
Q 2538 409 2786 701 
Q 3034 994 3034 1497 
Q 3034 2003 2786 2293 
Q 2538 2584 2113 2584 
z
M 3366 4563 
L 3366 3988 
Q 3128 4100 2886 4159 
Q 2644 4219 2406 4219 
Q 1781 4219 1451 3797 
Q 1122 3375 1075 2522 
Q 1259 2794 1537 2939 
Q 1816 3084 2150 3084 
Q 2853 3084 3261 2657 
Q 3669 2231 3669 1497 
Q 3669 778 3244 343 
Q 2819 -91 2113 -91 
Q 1303 -91 875 529 
Q 447 1150 447 2328 
Q 447 3434 972 4092 
Q 1497 4750 2381 4750 
Q 2619 4750 2861 4703 
Q 3103 4656 3366 4563 
z
" transform="scale(0.015625)"/>
       </defs>
       <use xlink:href="#DejaVuSans-36"/>
       <use xlink:href="#DejaVuSans-30" x="63.623047"/>
       <use xlink:href="#DejaVuSans-30" x="127.246094"/>
      </g>
     </g>
    </g>
   </g>
   <g id="line2d_17">
    <path d="M 38.539265 31.313418 
L 47.978835 31.313418 
L 48.085694 34.616464 
L 49.407292 34.616464 
L 49.891074 43.975092 
L 127.87563 43.975092 
L 128.263899 38.470016 
L 141.241006 38.470016 
L 142.003317 39.020524 
L 148.089248 39.020524 
L 148.302079 50.030675 
L 154.473907 50.030675 
L 155.752954 48.379152 
L 261.488168 48.379152 
L 261.789313 44.525599 
L 270.07637 44.525599 
L 270.372148 43.424584 
L 311.966716 43.424584 
L 312.173856 42.323569 
L 379.38917 42.323569 
L 379.581726 37.919509 
L 430.539357 37.919509 
L 430.626998 37.369001 
L 469.549592 37.369001 
L 469.907288 36.818494 
L 473.447812 36.818494 
L 473.565288 34.616464 
L 474.986151 34.616464 
L 475.355332 35.166971 
L 499.915891 35.166971 
L 500.219101 34.616464 
L 551.932841 34.616464 
L 552.109378 25.808343 
L 563.715735 25.808343 
L 563.715735 25.808343 
" clip-path="url(#pcc3242ddfe)" style="fill: none; stroke: #0000ff; stroke-width: 1.5; stroke-linecap: square"/>
   </g>
   <g id="line2d_18">
    <path d="M 38.539265 172.243349 
L 39.837084 171.142334 
L 41.130714 172.243349 
L 44.194158 172.243349 
L 47.571971 173.344364 
L 47.822555 172.793857 
L 47.978835 172.793857 
L 48.085694 176.096902 
L 48.33232 175.546394 
L 48.697089 176.096902 
L 49.407292 176.096902 
L 49.80284 188.208068 
L 49.891074 185.45553 
L 50.096384 188.758576 
L 50.161675 188.208068 
L 50.391742 188.208068 
L 50.759762 188.758576 
L 51.645499 188.758576 
L 51.671939 189.309083 
L 52.152065 189.309083 
L 52.355295 188.758576 
L 52.949473 192.612128 
L 53.018104 192.061621 
L 53.309865 192.612128 
L 53.874245 194.263651 
L 54.257051 193.162636 
L 54.862123 193.162636 
L 55.200268 194.263651 
L 55.428858 194.263651 
L 56.11753 194.814158 
L 56.426557 194.814158 
L 56.762593 195.915174 
L 57.063076 195.364666 
L 57.39675 196.465681 
L 57.743452 198.667711 
L 59.084032 199.768726 
L 59.653291 199.768726 
L 59.897137 200.319234 
L 60.285656 200.319234 
L 60.571685 200.869741 
L 60.863046 200.319234 
L 61.187898 200.319234 
L 61.378132 200.869741 
L 64.669159 200.869741 
L 65.001311 201.420249 
L 65.319601 201.420249 
L 65.443188 200.869741 
L 66.229283 201.420249 
L 66.558749 200.869741 
L 67.46712 200.869741 
L 67.75876 201.420249 
L 68.117315 200.869741 
L 69.770644 200.869741 
L 70.109388 201.420249 
L 70.295323 203.071772 
L 70.74787 201.970757 
L 71.800164 201.970757 
L 72.322253 202.521264 
L 72.637934 202.521264 
L 72.944528 203.071772 
L 73.286737 203.071772 
L 73.600941 202.521264 
L 73.901178 204.172787 
L 74.167731 204.172787 
L 74.892425 205.273802 
L 78.697289 205.273802 
L 78.99975 206.374817 
L 79.644371 206.374817 
L 79.930485 206.925324 
L 80.890104 206.925324 
L 81.808674 209.127355 
L 82.785022 209.127355 
L 83.134719 209.677862 
L 89.033509 209.677862 
L 89.741688 210.778877 
L 89.902113 209.677862 
L 91.038052 209.677862 
L 91.34652 210.22837 
L 91.686852 209.677862 
L 92.496587 209.677862 
L 92.943846 210.22837 
L 93.275877 209.677862 
L 98.290363 209.677862 
L 98.564392 214.63243 
L 98.754381 209.677862 
L 100.571636 209.677862 
L 100.901529 210.22837 
L 101.089827 215.182938 
L 101.534628 210.22837 
L 101.84878 210.22837 
L 102.057319 209.677862 
L 105.347612 209.677862 
L 105.514235 210.22837 
L 105.813253 210.22837 
L 106.305702 211.879892 
L 111.269079 211.879892 
L 112.352318 212.4304 
L 119.018685 212.4304 
L 119.296279 214.63243 
L 119.650991 214.63243 
L 119.965532 212.4304 
L 120.289146 212.4304 
L 120.512132 214.63243 
L 120.753806 212.4304 
L 121.155431 214.63243 
L 121.511191 215.733445 
L 125.636361 215.733445 
L 125.992414 216.283953 
L 127.87563 216.283953 
L 128.263899 210.22837 
L 128.541254 210.778877 
L 128.854752 212.4304 
L 129.241786 212.4304 
L 129.760734 213.531415 
L 130.118878 213.531415 
L 130.382869 214.081922 
L 130.737471 211.879892 
L 133.333807 217.384968 
L 133.598912 215.733445 
L 134.043423 215.182938 
L 135.455236 215.182938 
L 135.817392 214.63243 
L 136.13675 213.531415 
L 137.41525 213.531415 
L 137.649006 212.4304 
L 138.060162 213.531415 
L 138.98869 213.531415 
L 139.304694 214.63243 
L 139.609506 214.63243 
L 139.970505 215.182938 
L 140.116178 215.182938 
L 140.278984 216.83446 
L 140.499681 216.83446 
L 141.241006 217.384968 
L 141.853537 216.283953 
L 142.003317 216.283953 
L 142.483491 216.83446 
L 142.791573 217.935475 
L 144.383688 217.935475 
L 144.691087 218.485983 
L 145.021189 218.485983 
L 145.326806 219.03649 
L 145.6131 219.03649 
L 146.278349 219.586998 
L 146.621921 219.586998 
L 146.96453 221.238521 
L 147.167099 221.238521 
L 147.523182 220.688013 
L 148.089248 220.688013 
L 148.302079 222.339536 
L 148.827093 222.339536 
L 149.138148 223.440551 
L 149.553566 223.440551 
L 149.767547 223.991058 
L 150.238105 223.991058 
L 150.284929 224.541566 
L 150.523271 224.541566 
L 151.026206 225.092073 
L 152.169967 228.395119 
L 153.595625 228.395119 
L 153.886273 229.496134 
L 153.995714 228.945626 
L 154.12245 228.945626 
L 154.473907 228.395119 
L 155.752954 226.743596 
L 158.952973 226.743596 
L 159.323775 226.193088 
L 160.872571 226.193088 
L 161.093001 225.642581 
L 163.993403 225.642581 
L 164.499263 226.193088 
L 164.888851 226.193088 
L 165.311809 226.743596 
L 165.524629 226.193088 
L 167.563508 226.193088 
L 168.206965 227.294104 
L 169.576384 227.294104 
L 169.806943 235.001209 
L 170.066856 235.001209 
L 172.28186 236.652732 
L 172.417973 236.102224 
L 172.559972 236.652732 
L 172.928551 236.102224 
L 173.23772 236.102224 
L 173.563123 236.652732 
L 173.807483 236.652732 
L 174.199794 237.753747 
L 174.361138 237.753747 
L 174.510455 237.203239 
L 174.845132 238.304254 
L 177.070203 238.304254 
L 177.286668 238.854762 
L 178.483637 238.854762 
L 178.960213 238.304254 
L 179.317273 241.056792 
L 179.571468 239.405269 
L 179.902996 239.405269 
L 180.168729 242.708315 
L 180.354657 242.157807 
L 180.552585 242.708315 
L 180.652275 242.157807 
L 180.77429 243.80933 
L 181.090617 243.80933 
L 181.491412 244.359837 
L 182.276394 243.80933 
L 182.455135 244.910345 
L 182.747249 244.910345 
L 182.954113 243.258822 
L 183.65631 244.910345 
L 184.354535 245.460852 
L 184.967739 245.460852 
L 185.289419 247.112375 
L 185.585101 247.112375 
L 185.760245 246.561868 
L 186.067648 246.561868 
L 187.256577 248.763898 
L 187.454861 247.662883 
L 187.836539 247.112375 
L 188.284202 248.763898 
L 189.487498 248.763898 
L 189.590509 249.314405 
L 190.069973 249.864913 
L 191.348109 249.864913 
L 191.933153 252.61745 
L 195.220811 252.61745 
L 195.480418 253.167958 
L 195.821859 252.066943 
L 196.02064 253.167958 
L 199.60485 253.167958 
L 199.904316 253.718466 
L 200.626487 257.021511 
L 200.897422 255.369988 
L 201.220305 255.920496 
L 201.577828 255.369988 
L 201.829418 255.369988 
L 202.210637 253.718466 
L 202.41505 253.718466 
L 202.454724 254.268973 
L 203.097972 254.268973 
L 203.460025 250.965928 
L 203.779226 250.965928 
L 204.739444 251.516435 
L 204.800201 250.965928 
L 205.321555 250.41542 
L 205.39899 250.965928 
L 207.911116 250.965928 
L 208.085915 251.516435 
L 208.554731 252.066943 
L 209.180761 253.167958 
L 209.343589 254.268973 
L 209.563622 254.268973 
L 209.810113 255.369988 
L 210.106889 254.819481 
L 210.439196 254.819481 
L 210.689589 254.268973 
L 211.042581 254.819481 
L 211.357568 254.819481 
L 211.659463 255.369988 
L 211.903848 255.369988 
L 212.363872 254.819481 
L 212.603025 255.369988 
L 212.850548 254.819481 
L 213.569342 250.41542 
L 214.26077 251.516435 
L 214.36186 255.369988 
L 214.515984 255.369988 
L 214.797993 255.920496 
L 215.125623 255.369988 
L 215.424747 255.369988 
L 215.793227 254.819481 
L 216.112387 255.920496 
L 217.264272 255.920496 
L 217.722051 256.471003 
L 217.983665 256.471003 
L 218.003965 257.021511 
L 219.309202 257.021511 
L 219.680798 258.122526 
L 221.507066 258.122526 
L 221.871126 259.223541 
L 223.110848 259.223541 
L 225.369281 258.673033 
L 225.578791 259.223541 
L 226.143843 259.223541 
L 226.619302 259.774049 
L 226.937797 260.875064 
L 227.033034 260.324556 
L 227.379214 261.425571 
L 228.149323 261.425571 
L 231.268391 262.526586 
L 238.978198 262.526586 
L 239.292243 261.976079 
L 240.79959 261.976079 
L 241.112034 262.526586 
L 242.147423 262.526586 
L 242.504777 263.077094 
L 242.761736 262.526586 
L 243.059953 263.077094 
L 243.389923 262.526586 
L 243.660744 263.627601 
L 244.075527 263.077094 
L 244.378175 263.627601 
L 250.956849 263.627601 
L 251.296676 262.526586 
L 251.656687 263.077094 
L 251.982281 262.526586 
L 252.34698 262.526586 
L 252.639457 261.976079 
L 253.860106 261.976079 
L 254.170051 262.526586 
L 254.520149 261.976079 
L 254.839107 260.875064 
L 255.471559 260.875064 
L 255.828388 260.324556 
L 256.095407 261.425571 
L 256.438898 261.425571 
L 256.704274 260.875064 
L 257.541857 261.976079 
L 258.031847 261.425571 
L 258.322962 261.976079 
L 258.942309 261.976079 
L 259.291866 261.425571 
L 259.635111 263.077094 
L 259.965481 262.526586 
L 260.599738 262.526586 
L 260.841511 261.976079 
L 261.150721 262.526586 
L 261.488168 262.526586 
L 261.789313 257.572018 
L 261.908954 258.122526 
L 262.145605 258.122526 
L 262.310462 258.673033 
L 262.45414 258.673033 
L 262.643305 259.223541 
L 262.771499 258.122526 
L 263.404386 259.223541 
L 263.948145 259.223541 
L 264.212581 260.324556 
L 264.474655 259.223541 
L 264.645279 259.774049 
L 265.607272 259.774049 
L 265.893654 259.223541 
L 266.165251 259.223541 
L 266.506541 259.774049 
L 266.82213 259.774049 
L 267.196235 259.223541 
L 267.557252 259.774049 
L 267.837366 259.774049 
L 268.278177 260.875064 
L 270.07637 260.875064 
L 270.372148 259.223541 
L 271.765799 259.223541 
L 272.08587 259.774049 
L 272.337644 260.324556 
L 272.830597 260.324556 
L 272.98439 261.425571 
L 273.054939 260.875064 
L 273.221739 261.425571 
L 273.690912 261.425571 
L 273.920909 262.526586 
L 274.547141 262.526586 
L 274.839457 263.627601 
L 275.806185 263.627601 
L 276.038023 265.279124 
L 276.251953 265.829632 
L 276.375411 265.829632 
L 276.791869 266.380139 
L 276.938446 265.829632 
L 277.009481 266.380139 
L 277.467381 266.380139 
L 278.005144 266.930647 
L 279.211607 266.930647 
L 279.52276 266.380139 
L 279.8209 266.930647 
L 280.15698 266.930647 
L 280.318049 267.481154 
L 280.35679 266.930647 
L 280.547961 267.481154 
L 280.697481 267.481154 
L 280.845138 268.582169 
L 281.41371 269.683184 
L 281.827732 269.132677 
L 282.142509 269.683184 
L 282.76133 269.683184 
L 283.097193 270.784199 
L 283.220149 270.233692 
L 283.419896 271.885214 
L 283.702942 271.334707 
L 283.886511 271.885214 
L 284.031658 271.334707 
L 284.192054 272.435722 
L 284.518978 272.435722 
L 284.615806 272.98623 
L 284.999361 272.435722 
L 285.296009 273.536737 
L 285.965288 273.536737 
L 286.206216 274.637752 
L 286.547951 273.536737 
L 286.780116 273.536737 
L 286.865234 274.087245 
L 287.489857 274.087245 
L 287.782033 276.289275 
L 288.202228 274.087245 
L 288.267376 274.637752 
L 288.820648 274.087245 
L 288.873039 275.18826 
L 289.063333 275.18826 
L 289.446785 275.738767 
L 289.757976 275.18826 
L 289.993073 275.18826 
L 290.340969 276.289275 
L 290.719454 276.289275 
L 291.086489 275.738767 
L 291.360802 276.289275 
L 291.527477 275.738767 
L 291.693252 276.839782 
L 293.162169 276.839782 
L 293.613639 277.39029 
L 294.535432 277.39029 
L 294.862499 276.289275 
L 295.478928 276.289275 
L 295.787448 276.839782 
L 298.59412 276.839782 
L 298.972899 276.289275 
L 299.327956 277.39029 
L 303.635285 277.39029 
L 304.580196 277.940797 
L 305.141419 277.940797 
L 305.59721 278.491305 
L 305.957408 278.491305 
L 306.169071 279.041813 
L 310.963557 279.041813 
L 311.352973 278.491305 
L 311.661709 279.041813 
L 311.966716 278.491305 
L 312.173856 275.18826 
L 314.067954 275.18826 
L 314.236951 275.738767 
L 314.564537 275.738767 
L 314.672868 275.18826 
L 316.633526 275.18826 
L 316.905524 275.738767 
L 317.008318 275.18826 
L 317.474217 275.18826 
L 317.689576 276.289275 
L 317.961044 275.18826 
L 318.163723 276.289275 
L 318.307577 276.289275 
L 318.493116 275.18826 
L 318.655386 276.289275 
L 318.759374 275.18826 
L 318.801257 276.289275 
L 319.917278 276.289275 
L 320.094432 276.839782 
L 320.120413 277.39029 
L 320.688716 277.39029 
L 320.722211 277.940797 
L 321.049657 277.940797 
L 321.219209 278.491305 
L 321.363768 277.940797 
L 321.541363 278.491305 
L 321.661463 277.940797 
L 321.943143 278.491305 
L 322.062269 277.940797 
L 322.078605 278.491305 
L 322.435654 278.491305 
L 322.659368 279.041813 
L 322.800467 279.041813 
L 323.011766 280.142828 
L 323.24622 280.693335 
L 323.408144 280.142828 
L 325.211683 280.142828 
L 325.469557 280.693335 
L 326.85177 280.693335 
L 327.072258 281.243843 
L 327.363703 281.243843 
L 327.57997 281.79435 
L 327.69917 281.243843 
L 328.271045 281.243843 
L 328.464035 282.344858 
L 328.989324 282.344858 
L 329.039768 282.895365 
L 329.113066 282.344858 
L 329.22646 282.344858 
L 329.4299 283.445873 
L 329.641765 283.99638 
L 329.700979 283.445873 
L 329.941139 285.647903 
L 330.913787 285.647903 
L 331.01157 286.198411 
L 331.224651 286.198411 
L 331.349472 287.299426 
L 331.495965 286.198411 
L 332.787192 286.198411 
L 332.861908 286.748918 
L 333.109578 286.198411 
L 333.228161 286.748918 
L 333.447407 286.198411 
L 333.732199 286.198411 
L 333.906843 287.299426 
L 334.225199 287.299426 
L 334.355785 286.748918 
L 334.46767 287.849933 
L 334.798099 286.198411 
L 335.144364 287.299426 
L 335.395201 286.198411 
L 335.982391 286.198411 
L 336.439372 287.849933 
L 336.581569 287.299426 
L 336.739044 287.849933 
L 337.16396 286.748918 
L 337.300022 287.849933 
L 338.308438 287.849933 
L 338.470983 288.400441 
L 338.754243 288.400441 
L 338.905243 287.849933 
L 339.095819 288.400441 
L 339.216324 287.849933 
L 339.583414 288.950948 
L 340.084597 288.950948 
L 340.438064 290.051963 
L 341.969003 290.051963 
L 342.136387 290.602471 
L 342.341131 290.051963 
L 342.442434 290.602471 
L 342.651179 290.051963 
L 342.928416 290.051963 
L 343.107235 290.602471 
L 343.224811 290.051963 
L 343.599132 290.051963 
L 343.714912 290.602471 
L 344.23972 290.602471 
L 344.275095 291.703486 
L 346.51967 291.703486 
L 346.741102 292.253994 
L 346.886445 291.703486 
L 347.00958 292.253994 
L 347.103112 291.703486 
L 347.215305 292.804501 
L 347.732228 292.804501 
L 347.97607 293.355009 
L 348.025488 292.804501 
L 348.07612 293.355009 
L 348.354569 292.804501 
L 348.426533 293.355009 
L 348.698839 293.905516 
L 348.805495 294.456024 
L 349.009107 294.456024 
L 349.055925 295.006531 
L 349.339419 296.658054 
L 349.467018 296.107546 
L 349.639234 296.107546 
L 349.67026 297.208561 
L 350.880227 297.208561 
L 351.030512 297.759069 
L 351.267552 297.208561 
L 351.67815 297.759069 
L 351.787889 297.208561 
L 351.967538 297.759069 
L 352.188323 297.759069 
L 352.319711 298.309577 
L 352.625739 298.309577 
L 352.633242 298.860084 
L 352.727578 298.309577 
L 352.818009 299.410592 
L 352.951667 299.410592 
L 353.136684 299.961099 
L 354.405874 299.961099 
L 354.439368 299.410592 
L 354.519268 300.511607 
L 354.853978 300.511607 
L 355.024915 299.961099 
L 355.156497 300.511607 
L 355.354602 299.961099 
L 355.503031 300.511607 
L 355.669794 300.511607 
L 355.81309 299.961099 
L 355.955173 301.612622 
L 357.656061 301.612622 
L 358.167554 302.713637 
L 358.436796 302.163129 
L 364.861999 302.163129 
L 364.971088 302.713637 
L 365.166202 302.163129 
L 365.222436 302.713637 
L 365.805452 302.713637 
L 365.966891 303.264144 
L 366.785154 303.264144 
L 366.894485 303.814652 
L 367.048594 303.264144 
L 368.30205 303.264144 
L 368.475912 303.814652 
L 368.694861 303.264144 
L 368.815755 303.264144 
L 369.008414 304.36516 
L 369.114398 303.814652 
L 369.584155 303.814652 
L 369.788836 304.36516 
L 370.75228 304.36516 
L 370.909222 303.264144 
L 371.227228 304.36516 
L 372.938268 304.36516 
L 373.113699 304.915667 
L 373.270424 304.915667 
L 373.439212 305.466175 
L 373.565371 305.466175 
L 373.721538 306.016682 
L 374.086924 306.016682 
L 374.151653 306.56719 
L 374.456256 306.56719 
L 374.648662 305.466175 
L 374.798902 306.016682 
L 375.028877 306.016682 
L 375.122651 306.56719 
L 375.474476 306.56719 
L 375.789149 307.117697 
L 376.132284 308.76922 
L 376.244628 308.218712 
L 376.349234 308.76922 
L 376.589335 309.319727 
L 376.703189 308.76922 
L 377.008795 309.319727 
L 377.210908 308.76922 
L 377.375978 308.76922 
L 377.699367 310.420742 
L 378.011039 309.870235 
L 378.333815 310.97125 
L 378.397196 310.420742 
L 378.606981 310.97125 
L 378.752246 310.420742 
L 378.872004 310.97125 
L 379.38917 310.97125 
L 379.581726 303.264144 
L 380.095997 304.36516 
L 380.435553 304.36516 
L 380.554323 304.915667 
L 380.739318 304.36516 
L 380.858062 304.36516 
L 380.998569 303.814652 
L 381.160126 304.36516 
L 381.382043 304.36516 
L 381.491235 303.814652 
L 381.629964 304.36516 
L 381.819169 303.814652 
L 381.893536 304.36516 
L 382.286809 304.915667 
L 382.575797 303.814652 
L 382.837602 304.36516 
L 384.00073 304.36516 
L 384.276714 304.915667 
L 384.566488 304.36516 
L 385.087717 304.36516 
L 385.487318 305.466175 
L 385.624382 303.814652 
L 385.855077 304.36516 
L 386.149164 303.814652 
L 386.283693 305.466175 
L 386.446117 304.36516 
L 386.59962 304.36516 
L 386.701849 304.915667 
L 386.778141 307.117697 
L 386.791835 306.56719 
L 387.13027 307.117697 
L 387.965589 307.117697 
L 388.360729 308.218712 
L 388.52373 307.668205 
L 389.108906 307.668205 
L 389.268346 307.117697 
L 389.438754 307.668205 
L 389.625671 307.668205 
L 389.73548 307.117697 
L 390.069546 307.668205 
L 390.265799 307.668205 
L 390.39446 308.218712 
L 390.551818 307.668205 
L 390.72087 307.668205 
L 390.879296 307.117697 
L 390.977432 307.668205 
L 391.859935 307.668205 
L 392.080721 309.319727 
L 392.347663 308.76922 
L 392.568441 308.76922 
L 392.747179 308.218712 
L 392.828446 308.76922 
L 393.105308 308.218712 
L 393.208812 308.76922 
L 393.452716 308.76922 
L 393.548136 309.319727 
L 393.839615 308.76922 
L 394.440248 308.76922 
L 394.66293 309.319727 
L 395.033879 309.319727 
L 395.127411 309.870235 
L 395.285491 309.319727 
L 395.655033 310.420742 
L 395.764989 310.420742 
L 395.928067 310.97125 
L 396.078395 310.97125 
L 396.36125 311.521758 
L 398.66211 311.521758 
L 398.90723 312.072265 
L 399.137073 312.072265 
L 399.183869 310.97125 
L 399.241822 311.521758 
L 399.616809 311.521758 
L 399.702401 312.072265 
L 400.195809 312.072265 
L 400.43145 312.622773 
L 400.747935 312.622773 
L 400.758462 312.072265 
L 400.86367 312.622773 
L 400.960424 312.072265 
L 402.338537 312.072265 
L 402.596939 311.521758 
L 403.317765 312.072265 
L 404.812575 312.072265 
L 404.877257 312.622773 
L 406.445828 312.622773 
L 406.587121 313.17328 
L 408.03773 315.925818 
L 408.175214 315.925818 
L 408.318649 316.476325 
L 408.382526 315.925818 
L 408.691431 316.476325 
L 408.978423 317.026833 
L 409.32165 317.026833 
L 409.436911 317.577341 
L 409.870667 317.577341 
L 410.498913 317.026833 
L 410.530563 318.678356 
L 411.036184 318.678356 
L 411.192895 318.127848 
L 411.306719 318.678356 
L 412.468345 318.678356 
L 412.738005 318.127848 
L 413.983764 318.127848 
L 414.752998 318.678356 
L 416.306898 318.678356 
L 417.072064 319.228863 
L 417.174399 319.779371 
L 419.475616 319.779371 
L 419.691805 319.228863 
L 420.860037 319.228863 
L 421.713052 318.678356 
L 422.334654 318.678356 
L 422.643129 319.228863 
L 422.916997 320.329878 
L 423.080053 320.329878 
L 423.086417 319.779371 
L 424.915408 319.779371 
L 425.111705 320.329878 
L 429.732237 320.329878 
L 430.314834 320.880386 
L 430.539357 320.880386 
L 430.626998 321.430893 
L 430.91255 321.430893 
L 431.03247 320.880386 
L 431.218366 321.430893 
L 432.262114 321.430893 
L 432.727362 321.981401 
L 433.050542 323.082416 
L 435.880991 323.082416 
L 436.379175 322.531908 
L 436.523316 323.082416 
L 436.669128 322.531908 
L 436.833044 323.082416 
L 437.609344 323.082416 
L 437.967256 322.531908 
L 438.148878 323.082416 
L 438.649679 321.981401 
L 438.844862 323.082416 
L 440.056774 323.082416 
L 440.07111 323.632924 
L 441.991726 323.632924 
L 442.925552 324.183431 
L 443.205791 323.632924 
L 443.726458 323.632924 
L 443.852676 324.183431 
L 444.297558 322.531908 
L 444.591285 323.082416 
L 444.986164 322.531908 
L 445.278653 322.531908 
L 445.411488 323.082416 
L 446.217887 323.082416 
L 447.176025 322.531908 
L 447.320243 323.082416 
L 448.273642 323.082416 
L 448.583182 322.531908 
L 453.435656 323.082416 
L 453.798992 322.531908 
L 454.113001 323.082416 
L 454.394375 322.531908 
L 454.425856 323.082416 
L 454.670818 323.632924 
L 454.812685 323.632924 
L 454.942456 324.183431 
L 457.198538 324.183431 
L 457.246612 324.733939 
L 457.527045 324.733939 
L 458.275843 324.183431 
L 458.299663 324.733939 
L 458.587357 324.183431 
L 458.657282 325.284446 
L 458.842457 325.284446 
L 459.218134 325.834954 
L 459.847699 325.834954 
L 460.229975 325.284446 
L 460.659793 326.385461 
L 460.677422 326.935969 
L 461.09496 327.486476 
L 461.402054 326.935969 
L 461.833867 326.935969 
L 461.923632 327.486476 
L 462.906807 327.486476 
L 463.042251 326.935969 
L 463.208066 328.036984 
L 463.344734 328.036984 
L 463.604117 327.486476 
L 463.840015 328.036984 
L 464.366073 328.036984 
L 464.597752 329.137999 
L 466.250085 329.137999 
L 466.447628 329.688506 
L 466.568588 329.688506 
L 466.767626 329.137999 
L 466.818959 329.688506 
L 467.346192 329.688506 
L 467.452234 330.239014 
L 467.740248 330.239014 
L 467.822511 331.340029 
L 468.271872 331.340029 
L 468.440707 332.991552 
L 468.792256 332.991552 
L 468.99786 332.441044 
L 469.108936 332.991552 
L 469.258459 332.991552 
L 469.269879 334.643074 
L 469.549592 334.643074 
L 469.907288 334.092567 
L 470.069562 334.092567 
L 470.208184 334.643074 
L 470.552917 334.643074 
L 470.910142 334.092567 
L 470.946885 335.193582 
L 471.263179 335.193582 
L 471.321482 335.744089 
L 471.541867 336.294597 
L 472.124056 336.294597 
L 472.209626 337.395612 
L 472.459471 337.395612 
L 472.605949 337.94612 
L 472.746503 337.94612 
L 473.250545 338.496627 
L 473.447812 337.94612 
L 473.565288 330.239014 
L 473.692697 329.688506 
L 473.778986 331.890537 
L 474.400538 331.890537 
L 474.656008 331.340029 
L 474.842146 332.441044 
L 474.986151 332.441044 
L 475.355332 332.991552 
L 475.761385 332.991552 
L 475.946663 332.441044 
L 476.091729 332.991552 
L 477.070792 332.991552 
L 477.191345 333.542059 
L 477.637707 332.441044 
L 478.000668 332.991552 
L 478.20866 332.991552 
L 478.288546 333.542059 
L 478.472174 332.441044 
L 478.650673 333.542059 
L 479.391299 333.542059 
L 479.506094 332.991552 
L 479.769912 332.991552 
L 479.811413 333.542059 
L 480.110129 334.092567 
L 480.121788 333.542059 
L 480.683559 333.542059 
L 480.9727 334.092567 
L 482.47314 334.092567 
L 482.585645 334.643074 
L 482.883205 334.092567 
L 482.89314 334.643074 
L 483.320411 335.193582 
L 483.582944 335.193582 
L 483.885055 335.744089 
L 484.035902 336.294597 
L 484.151233 336.294597 
L 484.51415 335.193582 
L 484.585842 336.294597 
L 484.829882 335.744089 
L 485.035291 336.294597 
L 485.95202 336.294597 
L 486.054734 336.845105 
L 486.182748 336.294597 
L 486.626366 336.845105 
L 486.840645 336.294597 
L 487.057808 336.845105 
L 487.188284 336.294597 
L 487.492152 337.395612 
L 487.702103 336.845105 
L 488.420209 336.845105 
L 488.705901 337.395612 
L 489.123053 337.395612 
L 489.454948 336.294597 
L 489.54341 336.845105 
L 489.898034 336.845105 
L 489.988031 337.94612 
L 490.43529 336.845105 
L 490.591483 337.395612 
L 490.95185 336.845105 
L 491.2149 336.845105 
L 491.349664 337.395612 
L 491.537724 337.395612 
L 491.671786 334.092567 
L 492.093634 334.643074 
L 492.148285 333.542059 
L 492.299745 334.643074 
L 492.438602 334.092567 
L 492.521945 334.643074 
L 492.852573 334.092567 
L 493.249278 334.643074 
L 493.449106 334.643074 
L 493.723411 334.092567 
L 494.113315 334.092567 
L 494.513085 335.193582 
L 494.722491 334.643074 
L 495.145934 334.643074 
L 495.34395 334.092567 
L 495.373102 333.542059 
L 495.619784 334.643074 
L 495.750606 334.092567 
L 495.904483 334.643074 
L 496.133132 334.092567 
L 496.39192 334.092567 
L 496.558169 333.542059 
L 496.873457 333.542059 
L 497.201711 334.643074 
L 497.424447 334.092567 
L 497.695695 335.193582 
L 497.836956 335.193582 
L 497.925623 334.643074 
L 498.201493 334.643074 
L 498.224648 335.193582 
L 499.139169 335.193582 
L 499.28899 335.744089 
L 499.417317 335.744089 
L 499.615139 336.294597 
L 499.785764 335.744089 
L 499.915891 336.294597 
L 500.109892 335.744089 
L 500.219101 336.294597 
L 500.360057 335.744089 
L 500.40547 336.294597 
L 500.561512 337.395612 
L 500.752154 336.845105 
L 500.812151 336.294597 
L 501.013206 336.845105 
L 501.177512 336.294597 
L 501.49267 336.845105 
L 501.700086 336.845105 
L 501.79045 337.395612 
L 502.014649 336.845105 
L 502.603455 338.496627 
L 502.761845 338.496627 
L 502.925676 337.395612 
L 503.003129 337.94612 
L 503.234758 337.94612 
L 503.340143 337.395612 
L 503.529543 337.395612 
L 503.701979 337.94612 
L 503.923662 337.94612 
L 504.295841 339.597642 
L 504.49385 339.047135 
L 507.096716 339.047135 
L 507.217841 339.597642 
L 507.371443 339.597642 
L 507.494968 339.047135 
L 507.742804 339.597642 
L 508.360254 337.395612 
L 508.463545 338.496627 
L 509.116874 337.395612 
L 509.574275 337.395612 
L 510.200161 338.496627 
L 511.306607 337.94612 
L 511.587595 338.496627 
L 511.897151 337.94612 
L 512.118234 339.047135 
L 512.206905 337.94612 
L 512.498343 339.047135 
L 512.815875 337.94612 
L 512.920988 339.047135 
L 513.124608 339.047135 
L 513.23654 338.496627 
L 513.439425 339.047135 
L 513.561183 339.047135 
L 513.674596 338.496627 
L 513.812395 340.14815 
L 514.173787 339.047135 
L 514.5118 339.047135 
L 514.718337 339.597642 
L 515.10812 339.597642 
L 515.425108 339.047135 
L 515.610423 339.047135 
L 515.750515 340.14815 
L 515.925262 339.597642 
L 516.022825 340.14815 
L 516.258395 340.698657 
L 516.402838 340.698657 
L 516.655373 339.597642 
L 516.896855 341.249165 
L 517.200374 341.249165 
L 517.223412 342.35018 
L 517.244609 341.799672 
L 517.403347 341.249165 
L 517.570213 342.35018 
L 517.639815 341.249165 
L 517.891354 341.249165 
L 517.925627 341.799672 
L 518.209026 342.35018 
L 518.378637 342.35018 
L 518.458137 341.249165 
L 518.838458 342.35018 
L 518.90005 341.249165 
L 519.107201 342.35018 
L 519.266553 340.698657 
L 519.750966 341.799672 
L 520.115889 340.14815 
L 520.144107 340.698657 
L 520.375254 340.14815 
L 520.521387 340.14815 
L 520.673093 341.249165 
L 520.854263 340.14815 
L 521.202575 341.249165 
L 521.334723 340.14815 
L 521.477805 340.698657 
L 521.769379 340.698657 
L 521.961932 340.14815 
L 522.330529 340.14815 
L 522.34178 340.698657 
L 522.921908 339.597642 
L 523.229578 341.249165 
L 523.392869 341.249165 
L 523.583185 340.698657 
L 523.636979 341.799672 
L 523.907151 340.698657 
L 524.07351 341.799672 
L 524.241217 340.698657 
L 524.310525 341.249165 
L 524.654475 341.249165 
L 524.860597 341.799672 
L 524.954871 342.900688 
L 525.146792 341.799672 
L 525.462546 342.35018 
L 525.602222 342.900688 
L 525.774806 342.35018 
L 525.922158 344.55221 
L 526.153448 344.55221 
L 526.459319 345.102718 
L 526.496219 344.001703 
L 526.797258 345.102718 
L 527.225771 344.001703 
L 527.341558 345.653225 
L 527.689017 346.203733 
L 528.067458 345.102718 
L 528.307313 344.55221 
L 528.97405 345.102718 
L 529.05391 345.653225 
L 529.303347 345.653225 
L 529.763169 346.203733 
L 529.99098 346.203733 
L 530.274849 346.75424 
L 530.561988 348.405763 
L 531.299193 347.855255 
L 531.536664 347.855255 
L 531.865954 346.203733 
L 532.178974 346.203733 
L 532.259661 345.653225 
L 532.497481 346.75424 
L 532.550463 345.653225 
L 532.810751 346.203733 
L 533.282914 346.203733 
L 533.525213 347.304748 
L 533.747608 346.203733 
L 534.051355 347.304748 
L 534.169772 346.75424 
L 534.331998 347.304748 
L 534.75554 346.203733 
L 535.000337 346.75424 
L 535.716353 346.75424 
L 535.887257 346.203733 
L 536.301958 347.304748 
L 536.470522 346.203733 
L 536.615916 346.203733 
L 536.672452 346.75424 
L 536.878573 346.75424 
L 537.10088 347.304748 
L 537.252998 346.203733 
L 537.489183 347.304748 
L 537.592907 346.203733 
L 537.882526 347.304748 
L 538.060613 347.304748 
L 538.175536 346.75424 
L 538.363864 346.75424 
L 538.417082 346.203733 
L 538.428009 346.75424 
L 538.749513 346.75424 
L 538.858293 346.203733 
L 539.153214 347.304748 
L 539.4248 346.203733 
L 539.890232 346.75424 
L 540.884856 346.75424 
L 541.123381 346.203733 
L 541.376967 346.75424 
L 541.540199 346.203733 
L 541.641031 346.75424 
L 542.347425 346.75424 
L 542.563092 346.203733 
L 543.058278 347.304748 
L 543.17868 346.75424 
L 543.574761 347.304748 
L 544.007334 346.75424 
L 544.237081 347.304748 
L 544.777608 346.203733 
L 544.919434 345.653225 
L 545.154417 345.653225 
L 545.607 347.304748 
L 545.730106 347.304748 
L 545.88639 346.203733 
L 546.253455 346.203733 
L 546.459338 346.75424 
L 546.615468 346.75424 
L 546.776896 346.203733 
L 547.081687 346.203733 
L 547.497862 346.75424 
L 547.728884 346.75424 
L 547.823459 347.304748 
L 548.045505 346.203733 
L 548.162493 347.304748 
L 548.307942 346.75424 
L 548.399802 347.304748 
L 548.982983 347.304748 
L 549.004092 348.405763 
L 549.098266 347.855255 
L 549.274458 347.855255 
L 549.379743 347.304748 
L 549.545353 347.855255 
L 549.727956 347.304748 
L 550.193612 347.855255 
L 550.589123 347.855255 
L 550.739345 348.95627 
L 550.798589 348.405763 
L 550.975592 348.95627 
L 551.212971 348.405763 
L 551.324098 347.855255 
L 551.489748 348.405763 
L 551.653106 347.855255 
L 551.849594 348.95627 
L 551.932841 347.855255 
L 552.109378 334.092567 
L 552.591384 334.092567 
L 552.724238 333.542059 
L 552.850511 335.744089 
L 553.55409 335.193582 
L 554.076851 335.193582 
L 554.178514 335.744089 
L 554.309251 335.744089 
L 554.718974 334.643074 
L 555.028898 334.643074 
L 555.04211 335.193582 
L 555.430104 335.744089 
L 555.704897 335.193582 
L 555.980944 334.092567 
L 556.016231 335.193582 
L 556.227126 334.092567 
L 556.309154 334.643074 
L 556.939174 334.643074 
L 556.973223 335.193582 
L 557.231203 335.193582 
L 557.406939 334.643074 
L 557.576293 334.643074 
L 557.630448 334.092567 
L 557.994588 335.193582 
L 558.318763 334.092567 
L 558.487507 334.092567 
L 559.006076 334.643074 
L 559.106868 334.092567 
L 559.189837 335.193582 
L 559.52574 336.294597 
L 559.751718 335.193582 
L 560.0866 336.294597 
L 560.418936 335.193582 
L 560.539896 336.294597 
L 560.839263 335.193582 
L 560.964019 335.193582 
L 561.014224 336.294597 
L 561.163295 335.744089 
L 561.337183 336.294597 
L 561.618711 336.294597 
L 561.652669 337.395612 
L 561.869659 336.845105 
L 561.993514 336.845105 
L 562.084272 336.294597 
L 562.33935 336.845105 
L 562.603683 337.94612 
L 562.617428 339.597642 
L 562.769641 338.496627 
L 562.774205 340.14815 
L 562.956216 340.14815 
L 563.083272 340.698657 
L 563.331662 340.14815 
L 563.715735 340.698657 
L 563.715735 340.698657 
" clip-path="url(#pcc3242ddfe)" style="fill: none; stroke-dasharray: 3,1.5; stroke-dashoffset: 0; stroke: #808080; stroke-width: 1.5"/>
   </g>
   <g id="line2d_19">
    <path d="M 38.539265 298.309577 
L 39.837084 297.759069 
L 41.130714 296.658054 
L 44.194158 296.658054 
L 47.571971 296.107546 
L 47.822555 296.658054 
L 47.978835 296.658054 
L 48.085694 295.557039 
L 48.33232 296.107546 
L 48.697089 295.557039 
L 49.407292 295.557039 
L 49.80284 292.804501 
L 49.891074 295.557039 
L 50.096384 292.253994 
L 50.161675 292.804501 
L 50.391742 292.804501 
L 50.759762 292.253994 
L 51.363067 292.253994 
L 51.671939 290.051963 
L 52.152065 290.051963 
L 52.639432 291.152978 
L 52.949473 286.748918 
L 53.018104 287.299426 
L 53.309865 286.748918 
L 53.874245 285.097396 
L 54.257051 286.198411 
L 54.862123 286.198411 
L 55.200268 287.299426 
L 55.428858 286.748918 
L 56.11753 286.198411 
L 56.426557 286.198411 
L 56.762593 285.097396 
L 57.244768 285.097396 
L 57.743452 281.79435 
L 59.084032 280.142828 
L 59.266595 279.59232 
L 59.653291 279.59232 
L 59.897137 279.041813 
L 60.285656 279.041813 
L 60.571685 280.142828 
L 60.863046 280.693335 
L 61.187898 280.693335 
L 61.378132 280.142828 
L 63.698124 280.142828 
L 64.068952 279.59232 
L 64.669159 279.59232 
L 65.001311 279.041813 
L 65.319601 279.041813 
L 65.443188 279.59232 
L 66.229283 279.041813 
L 66.558749 279.59232 
L 67.46712 279.59232 
L 67.75876 279.041813 
L 68.117315 279.59232 
L 69.770644 279.59232 
L 70.109388 279.041813 
L 70.295323 277.39029 
L 70.74787 278.491305 
L 71.385209 278.491305 
L 71.682985 277.39029 
L 71.800164 278.491305 
L 72.322253 276.839782 
L 72.637934 276.839782 
L 72.944528 276.289275 
L 73.286737 276.289275 
L 73.600941 276.839782 
L 73.901178 275.738767 
L 74.167731 275.738767 
L 74.892425 274.637752 
L 78.697289 274.637752 
L 78.99975 273.536737 
L 79.644371 273.536737 
L 79.930485 270.784199 
L 80.890104 270.784199 
L 81.808674 268.582169 
L 82.785022 268.582169 
L 83.134719 268.031662 
L 89.033509 268.031662 
L 89.741688 266.380139 
L 89.902113 268.031662 
L 91.038052 268.031662 
L 91.34652 266.930647 
L 91.686852 268.031662 
L 92.496587 268.031662 
L 92.943846 266.930647 
L 93.275877 268.031662 
L 98.290363 268.031662 
L 98.564392 263.077094 
L 98.754381 268.031662 
L 100.571636 268.031662 
L 100.901529 267.481154 
L 101.089827 262.526586 
L 101.534628 267.481154 
L 101.84878 267.481154 
L 102.057319 268.031662 
L 105.347612 268.031662 
L 105.514235 267.481154 
L 105.813253 267.481154 
L 106.305702 265.829632 
L 111.269079 265.829632 
L 112.352318 265.279124 
L 119.018685 265.279124 
L 119.296279 262.526586 
L 119.650991 262.526586 
L 119.965532 265.279124 
L 120.289146 265.279124 
L 120.512132 262.526586 
L 120.753806 265.279124 
L 121.155431 262.526586 
L 121.511191 261.425571 
L 125.636361 261.425571 
L 125.992414 260.875064 
L 127.554508 260.875064 
L 127.87563 259.774049 
L 128.263899 257.572018 
L 128.541254 257.021511 
L 128.854752 253.718466 
L 129.241786 253.718466 
L 129.760734 252.61745 
L 130.118878 252.61745 
L 130.737471 251.516435 
L 133.333807 246.561868 
L 133.598912 247.662883 
L 135.455236 247.662883 
L 135.817392 245.460852 
L 136.13675 246.01136 
L 137.41525 246.01136 
L 137.649006 247.112375 
L 138.060162 246.01136 
L 138.98869 246.01136 
L 139.304694 244.910345 
L 139.609506 244.910345 
L 139.970505 244.359837 
L 140.116178 244.359837 
L 140.278984 242.708315 
L 140.499681 242.708315 
L 141.241006 242.157807 
L 141.853537 243.80933 
L 142.003317 243.80933 
L 142.483491 243.258822 
L 142.791573 242.157807 
L 144.383688 242.157807 
L 144.691087 241.6073 
L 145.021189 241.6073 
L 145.326806 241.056792 
L 145.6131 241.056792 
L 146.278349 240.506285 
L 146.621921 240.506285 
L 146.96453 238.854762 
L 147.523182 238.854762 
L 147.872309 238.304254 
L 148.089248 238.304254 
L 148.210363 248.21339 
L 148.302079 247.662883 
L 148.827093 247.662883 
L 149.138148 246.561868 
L 149.553566 246.561868 
L 149.767547 246.01136 
L 150.238105 246.01136 
L 150.284929 245.460852 
L 151.026206 245.460852 
L 151.424197 243.80933 
L 152.251282 242.157807 
L 153.595625 242.157807 
L 153.886273 241.056792 
L 153.995714 241.6073 
L 154.12245 241.6073 
L 154.473907 242.157807 
L 155.752954 241.6073 
L 158.952973 241.6073 
L 159.323775 242.157807 
L 160.872571 242.157807 
L 161.093001 242.708315 
L 161.496775 242.157807 
L 163.993403 242.157807 
L 164.499263 241.6073 
L 164.888851 241.6073 
L 165.311809 241.056792 
L 165.524629 241.6073 
L 167.563508 241.6073 
L 168.206965 240.506285 
L 169.576384 240.506285 
L 169.806943 232.799179 
L 170.066856 232.799179 
L 172.28186 231.147656 
L 172.417973 231.698164 
L 172.559972 231.147656 
L 172.928551 231.698164 
L 173.23772 231.698164 
L 173.563123 231.147656 
L 173.807483 231.147656 
L 174.199794 230.046641 
L 174.361138 230.046641 
L 174.510455 230.597149 
L 174.845132 229.496134 
L 177.070203 229.496134 
L 177.286668 228.945626 
L 177.647561 228.945626 
L 177.982491 228.395119 
L 178.330207 228.945626 
L 178.483637 228.945626 
L 178.960213 229.496134 
L 179.317273 226.743596 
L 179.571468 228.395119 
L 179.902996 228.395119 
L 180.168729 225.092073 
L 180.354657 225.642581 
L 180.552585 224.541566 
L 180.652275 225.092073 
L 180.77429 223.440551 
L 181.090617 223.440551 
L 181.491412 222.890043 
L 182.276394 223.440551 
L 182.455135 222.339536 
L 182.747249 222.339536 
L 182.954113 223.991058 
L 183.65631 222.339536 
L 184.354535 221.789028 
L 184.967739 221.789028 
L 185.289419 220.137505 
L 185.585101 220.137505 
L 185.760245 220.688013 
L 186.067648 220.688013 
L 187.256577 217.384968 
L 187.454861 219.586998 
L 187.836539 220.137505 
L 188.284202 217.384968 
L 189.487498 217.384968 
L 189.590509 216.83446 
L 190.069973 216.283953 
L 191.348109 216.283953 
L 191.933153 213.531415 
L 195.220811 213.531415 
L 195.480418 212.4304 
L 195.821859 214.63243 
L 196.02064 212.980907 
L 199.60485 212.980907 
L 199.904316 212.4304 
L 200.626487 209.127355 
L 200.897422 210.778877 
L 201.220305 210.22837 
L 201.577828 210.778877 
L 201.829418 210.778877 
L 202.210637 205.273802 
L 202.41505 205.273802 
L 202.454724 204.723294 
L 203.097972 204.723294 
L 203.460025 203.622279 
L 203.779226 201.970757 
L 204.739444 201.420249 
L 204.800201 201.970757 
L 205.321555 202.521264 
L 205.39899 201.970757 
L 207.911116 201.970757 
L 208.085915 201.420249 
L 208.554731 200.869741 
L 209.180761 199.768726 
L 209.343589 198.667711 
L 209.563622 198.667711 
L 209.810113 197.566696 
L 210.106889 198.117204 
L 210.439196 198.117204 
L 210.689589 198.667711 
L 211.042581 198.117204 
L 211.357568 198.117204 
L 211.659463 197.566696 
L 211.903848 197.566696 
L 212.363872 198.117204 
L 212.603025 197.566696 
L 212.850548 198.117204 
L 213.268105 200.869741 
L 213.569342 201.420249 
L 214.26077 200.319234 
L 214.36186 196.465681 
L 214.515984 196.465681 
L 214.797993 195.915174 
L 215.125623 196.465681 
L 215.424747 196.465681 
L 215.793227 197.016189 
L 216.112387 195.915174 
L 217.264272 195.915174 
L 217.722051 195.364666 
L 217.983665 195.364666 
L 218.003965 194.814158 
L 219.309202 194.814158 
L 219.680798 193.713143 
L 221.507066 193.713143 
L 221.871126 192.612128 
L 225.369281 192.612128 
L 225.578791 192.061621 
L 226.143843 192.061621 
L 226.619302 191.511113 
L 226.937797 190.410098 
L 227.033034 190.960606 
L 227.379214 189.859591 
L 228.149323 189.859591 
L 231.268391 188.758576 
L 238.978198 188.758576 
L 239.292243 189.309083 
L 240.79959 189.309083 
L 241.112034 188.758576 
L 242.147423 188.758576 
L 242.504777 188.208068 
L 242.761736 188.758576 
L 243.059953 188.208068 
L 243.389923 188.758576 
L 243.660744 187.65756 
L 244.075527 188.208068 
L 244.378175 187.65756 
L 250.956849 187.65756 
L 251.296676 188.758576 
L 251.656687 188.208068 
L 251.982281 188.758576 
L 252.34698 188.208068 
L 252.639457 188.758576 
L 253.860106 188.758576 
L 254.170051 188.208068 
L 254.520149 188.758576 
L 254.839107 187.65756 
L 255.471559 187.65756 
L 255.828388 188.208068 
L 256.095407 187.107053 
L 256.438898 187.107053 
L 256.704274 187.65756 
L 257.541857 186.556545 
L 258.031847 187.107053 
L 258.322962 186.556545 
L 258.942309 186.556545 
L 259.291866 187.107053 
L 259.635111 185.45553 
L 259.965481 186.006038 
L 260.599738 186.006038 
L 260.841511 186.556545 
L 261.150721 186.006038 
L 261.488168 186.006038 
L 261.789313 190.410098 
L 261.908954 189.859591 
L 262.145605 189.859591 
L 262.310462 189.309083 
L 262.45414 189.309083 
L 262.643305 188.758576 
L 262.771499 189.859591 
L 263.404386 188.758576 
L 263.948145 188.758576 
L 264.212581 187.65756 
L 264.474655 188.758576 
L 264.645279 188.208068 
L 265.607272 188.208068 
L 265.893654 188.758576 
L 266.165251 188.758576 
L 266.506541 188.208068 
L 266.82213 188.208068 
L 267.196235 188.758576 
L 267.557252 188.208068 
L 267.837366 188.208068 
L 268.278177 187.107053 
L 270.07637 187.107053 
L 270.372148 187.65756 
L 271.765799 187.65756 
L 272.08587 187.107053 
L 272.337644 186.556545 
L 272.830597 186.556545 
L 272.98439 185.45553 
L 273.054939 186.006038 
L 273.221739 185.45553 
L 273.690912 185.45553 
L 273.920909 184.354515 
L 274.547141 184.354515 
L 274.839457 183.2535 
L 275.806185 183.2535 
L 276.038023 181.601977 
L 276.251953 181.05147 
L 276.375411 181.05147 
L 276.791869 180.500962 
L 276.938446 181.05147 
L 277.009481 180.500962 
L 277.159772 180.500962 
L 277.33571 179.950455 
L 277.467381 179.950455 
L 278.005144 179.399947 
L 279.211607 179.399947 
L 279.52276 179.950455 
L 279.8209 179.399947 
L 280.15698 179.399947 
L 280.318049 178.84944 
L 280.35679 179.399947 
L 280.547961 178.84944 
L 280.697481 178.84944 
L 280.845138 177.748425 
L 281.41371 176.64741 
L 281.827732 177.197917 
L 282.142509 176.64741 
L 282.76133 176.64741 
L 283.097193 175.546394 
L 283.220149 176.096902 
L 283.419896 174.445379 
L 283.702942 174.995887 
L 283.886511 174.445379 
L 284.031658 174.995887 
L 284.192054 173.894872 
L 284.518978 173.894872 
L 284.615806 173.344364 
L 284.999361 173.894872 
L 285.296009 172.793857 
L 285.965288 172.793857 
L 286.206216 171.692842 
L 286.547951 172.793857 
L 286.780116 172.793857 
L 286.865234 172.243349 
L 287.489857 172.243349 
L 287.782033 170.041319 
L 288.202228 172.243349 
L 288.267376 171.692842 
L 288.820648 172.243349 
L 288.873039 171.142334 
L 289.063333 171.142334 
L 289.446785 170.591827 
L 289.757976 171.142334 
L 289.993073 171.142334 
L 290.340969 170.041319 
L 290.719454 170.041319 
L 291.086489 170.591827 
L 291.360802 170.041319 
L 291.527477 170.591827 
L 291.693252 169.490812 
L 293.162169 169.490812 
L 293.613639 168.940304 
L 294.535432 168.940304 
L 294.862499 170.041319 
L 295.478928 170.041319 
L 295.787448 169.490812 
L 298.59412 169.490812 
L 298.972899 170.041319 
L 299.327956 168.940304 
L 303.635285 168.940304 
L 304.580196 168.389796 
L 305.141419 168.389796 
L 305.59721 167.839289 
L 305.957408 167.839289 
L 306.169071 166.738274 
L 306.504647 167.288781 
L 310.963557 167.288781 
L 311.352973 167.839289 
L 311.661709 167.288781 
L 311.966716 167.839289 
L 312.173856 170.041319 
L 314.067954 170.041319 
L 314.380328 168.940304 
L 314.818754 170.041319 
L 316.633526 170.041319 
L 316.905524 168.940304 
L 317.008318 170.041319 
L 317.474217 170.041319 
L 317.689576 168.940304 
L 317.961044 170.041319 
L 318.163723 168.940304 
L 318.307577 168.940304 
L 318.493116 170.041319 
L 318.655386 168.940304 
L 318.759374 170.041319 
L 318.801257 168.940304 
L 319.917278 168.940304 
L 320.282616 167.288781 
L 320.688716 167.288781 
L 320.722211 166.738274 
L 321.049657 166.738274 
L 321.219209 166.187766 
L 321.363768 166.738274 
L 321.541363 166.187766 
L 321.661463 166.738274 
L 321.943143 166.187766 
L 322.062269 166.738274 
L 322.078605 166.187766 
L 322.435654 166.187766 
L 322.659368 165.637259 
L 322.800467 165.637259 
L 323.011766 164.536244 
L 323.24622 163.985736 
L 323.408144 164.536244 
L 325.211683 164.536244 
L 325.469557 163.985736 
L 326.85177 163.985736 
L 327.072258 163.435229 
L 327.363703 163.435229 
L 327.57997 162.884721 
L 327.69917 163.435229 
L 328.271045 163.435229 
L 328.464035 162.334213 
L 328.989324 162.334213 
L 329.039768 161.783706 
L 329.113066 162.334213 
L 329.404529 162.334213 
L 329.4299 161.783706 
L 329.641765 161.233198 
L 329.700979 161.783706 
L 329.941139 159.581676 
L 330.913787 159.581676 
L 331.01157 159.031168 
L 331.224651 159.031168 
L 331.349472 157.930153 
L 331.495965 159.031168 
L 332.787192 159.031168 
L 332.861908 158.480661 
L 333.109578 159.031168 
L 333.228161 158.480661 
L 333.447407 159.031168 
L 333.732199 159.031168 
L 333.906843 157.930153 
L 334.225199 157.930153 
L 334.355785 158.480661 
L 334.46767 157.379646 
L 334.798099 159.031168 
L 335.144364 157.930153 
L 335.395201 159.031168 
L 335.982391 159.031168 
L 336.439372 157.379646 
L 336.581569 157.930153 
L 336.739044 157.379646 
L 337.16396 158.480661 
L 337.300022 157.379646 
L 338.308438 157.379646 
L 338.470983 156.829138 
L 338.754243 156.829138 
L 338.905243 157.379646 
L 339.095819 156.829138 
L 339.216324 157.379646 
L 339.583414 156.27863 
L 340.084597 156.27863 
L 340.438064 155.177615 
L 341.052123 156.27863 
L 341.183353 155.728123 
L 341.344795 156.27863 
L 341.447175 155.728123 
L 341.652577 155.728123 
L 341.738661 156.27863 
L 342.136387 155.177615 
L 342.341131 155.728123 
L 342.442434 155.177615 
L 342.651179 155.728123 
L 342.928416 155.728123 
L 343.107235 155.177615 
L 343.224811 155.728123 
L 343.340682 155.728123 
L 343.599132 156.27863 
L 343.714912 155.177615 
L 344.23972 155.177615 
L 344.275095 154.0766 
L 346.51967 154.0766 
L 346.741102 153.526093 
L 346.886445 154.0766 
L 347.00958 153.526093 
L 347.103112 154.0766 
L 347.215305 152.975585 
L 347.732228 152.975585 
L 347.97607 152.425078 
L 348.025488 152.975585 
L 348.07612 152.425078 
L 348.354569 152.975585 
L 348.426533 152.425078 
L 348.698839 151.87457 
L 348.805495 151.324063 
L 349.009107 151.324063 
L 349.055925 150.773555 
L 349.339419 149.122032 
L 349.467018 149.67254 
L 349.639234 149.67254 
L 349.67026 148.571525 
L 350.880227 148.571525 
L 351.030512 148.021017 
L 351.267552 148.571525 
L 351.967538 146.920002 
L 352.188323 146.920002 
L 352.319711 146.369495 
L 352.625739 146.369495 
L 352.633242 145.818987 
L 352.727578 146.369495 
L 352.818009 145.26848 
L 352.951667 145.26848 
L 353.136684 144.717972 
L 354.405874 144.717972 
L 354.439368 145.26848 
L 354.519268 144.167465 
L 354.853978 144.167465 
L 355.024915 144.717972 
L 355.156497 144.167465 
L 355.354602 144.717972 
L 355.503031 144.167465 
L 355.669794 144.167465 
L 355.81309 144.717972 
L 355.955173 143.066449 
L 357.656061 143.066449 
L 358.167554 141.965434 
L 358.436796 142.515942 
L 364.861999 142.515942 
L 364.971088 141.965434 
L 365.166202 142.515942 
L 365.222436 141.965434 
L 365.805452 141.965434 
L 365.966891 141.414927 
L 366.785154 141.414927 
L 366.894485 140.864419 
L 367.048594 141.414927 
L 368.30205 141.414927 
L 368.475912 140.864419 
L 368.694861 141.414927 
L 368.815755 141.414927 
L 369.008414 140.313912 
L 369.114398 140.864419 
L 369.584155 140.864419 
L 369.788836 140.313912 
L 370.75228 140.313912 
L 370.909222 141.414927 
L 371.227228 140.313912 
L 372.938268 140.313912 
L 373.113699 139.763404 
L 373.270424 139.763404 
L 373.439212 139.212897 
L 373.565371 139.212897 
L 373.721538 138.662389 
L 374.086924 138.662389 
L 374.151653 138.111882 
L 374.456256 138.111882 
L 374.648662 139.212897 
L 374.798902 138.662389 
L 375.028877 138.662389 
L 375.122651 138.111882 
L 375.474476 138.111882 
L 375.789149 137.561374 
L 376.132284 135.909851 
L 376.244628 136.460359 
L 376.349234 135.909851 
L 376.589335 135.359344 
L 376.703189 135.909851 
L 377.008795 135.359344 
L 377.210908 135.909851 
L 377.375978 135.909851 
L 377.699367 134.258329 
L 378.011039 134.808836 
L 378.333815 133.707821 
L 378.397196 134.258329 
L 378.606981 133.707821 
L 378.752246 134.258329 
L 378.872004 133.707821 
L 379.38917 133.707821 
L 379.581726 137.010866 
L 380.095997 135.909851 
L 380.435553 135.909851 
L 380.554323 135.359344 
L 380.739318 135.909851 
L 380.858062 135.909851 
L 380.998569 136.460359 
L 381.160126 135.909851 
L 381.382043 135.909851 
L 381.491235 136.460359 
L 381.629964 135.909851 
L 381.819169 136.460359 
L 381.893536 135.909851 
L 382.286809 135.359344 
L 382.437909 135.359344 
L 382.575797 135.909851 
L 382.837602 135.359344 
L 383.906581 135.359344 
L 384.00073 132.606806 
L 384.276714 134.808836 
L 384.566488 135.359344 
L 385.087717 135.359344 
L 385.487318 134.258329 
L 385.624382 135.909851 
L 385.855077 135.359344 
L 386.149164 135.909851 
L 386.283693 134.258329 
L 386.446117 135.359344 
L 386.59962 135.359344 
L 386.701849 134.808836 
L 386.791835 130.404776 
L 387.104345 132.606806 
L 387.13027 129.854268 
L 387.965589 129.854268 
L 388.360729 128.753253 
L 388.52373 129.303761 
L 389.108906 129.303761 
L 389.268346 129.854268 
L 389.438754 129.303761 
L 389.625671 129.303761 
L 389.73548 129.854268 
L 390.069546 129.303761 
L 390.265799 129.303761 
L 390.39446 128.753253 
L 390.551818 129.303761 
L 390.72087 129.303761 
L 390.879296 129.854268 
L 390.977432 129.303761 
L 391.859935 129.303761 
L 392.080721 127.652238 
L 392.347663 128.202746 
L 392.568441 128.202746 
L 392.747179 128.753253 
L 392.828446 128.202746 
L 393.105308 128.753253 
L 393.208812 128.202746 
L 393.452716 128.202746 
L 393.548136 127.652238 
L 393.839615 128.202746 
L 394.440248 128.202746 
L 394.66293 127.652238 
L 395.033879 127.652238 
L 395.127411 127.101731 
L 395.285491 127.652238 
L 395.655033 126.551223 
L 395.764989 126.551223 
L 395.928067 126.000716 
L 396.078395 126.000716 
L 396.36125 125.450208 
L 398.66211 125.450208 
L 398.90723 124.899701 
L 399.137073 124.899701 
L 399.183869 126.000716 
L 399.241822 125.450208 
L 399.616809 125.450208 
L 399.702401 124.899701 
L 400.195809 124.899701 
L 400.43145 124.349193 
L 400.747935 124.349193 
L 400.758462 124.899701 
L 400.86367 124.349193 
L 400.960424 124.899701 
L 402.338537 124.899701 
L 402.596939 125.450208 
L 403.317765 124.899701 
L 404.812575 124.899701 
L 404.877257 124.349193 
L 406.445828 124.349193 
L 406.587121 123.798685 
L 408.03773 121.046148 
L 408.175214 121.046148 
L 408.318649 120.49564 
L 408.382526 121.046148 
L 408.691431 120.49564 
L 408.978423 119.945133 
L 409.32165 119.945133 
L 409.436911 119.394625 
L 409.870667 119.394625 
L 410.498913 119.945133 
L 410.530563 118.29361 
L 411.036184 118.29361 
L 411.192895 118.844118 
L 411.306719 118.29361 
L 412.154446 118.29361 
L 412.468345 118.844118 
L 413.983764 118.844118 
L 414.752998 118.29361 
L 416.306898 118.29361 
L 417.072064 117.743102 
L 417.174399 117.192595 
L 419.475616 117.192595 
L 419.691805 117.743102 
L 420.860037 117.743102 
L 421.713052 118.29361 
L 422.334654 118.29361 
L 422.643129 117.743102 
L 422.916997 116.642087 
L 423.080053 116.642087 
L 423.086417 117.192595 
L 424.915408 117.192595 
L 425.111705 116.642087 
L 429.732237 116.642087 
L 430.314834 116.09158 
L 430.539357 116.09158 
L 430.626998 114.990565 
L 430.91255 114.990565 
L 431.03247 115.541072 
L 431.218366 114.990565 
L 432.262114 114.990565 
L 432.727362 114.440057 
L 433.050542 113.339042 
L 435.880991 113.339042 
L 436.379175 113.88955 
L 436.523316 113.339042 
L 436.669128 113.88955 
L 436.833044 113.339042 
L 437.609344 113.339042 
L 437.967256 113.88955 
L 438.148878 113.339042 
L 438.649679 114.440057 
L 438.844862 113.339042 
L 440.056774 113.339042 
L 440.07111 112.788535 
L 441.991726 112.788535 
L 442.925552 112.238027 
L 443.205791 112.788535 
L 443.409877 112.238027 
L 443.541955 112.788535 
L 443.726458 112.788535 
L 443.852676 112.238027 
L 444.297558 113.339042 
L 444.591285 112.788535 
L 444.986164 113.339042 
L 445.278653 113.339042 
L 445.411488 112.788535 
L 446.217887 112.788535 
L 447.176025 113.339042 
L 447.320243 112.788535 
L 448.273642 112.788535 
L 448.583182 113.339042 
L 453.435656 112.788535 
L 453.798992 113.339042 
L 454.113001 112.788535 
L 454.394375 113.339042 
L 454.425856 112.788535 
L 454.670818 112.238027 
L 454.812685 112.238027 
L 454.942456 111.68752 
L 457.198538 111.68752 
L 457.246612 111.137012 
L 457.527045 111.137012 
L 458.275843 111.68752 
L 458.299663 111.137012 
L 458.587357 111.68752 
L 458.657282 110.586504 
L 458.842457 110.586504 
L 459.218134 110.035997 
L 459.847699 110.035997 
L 460.229975 110.586504 
L 460.659793 109.485489 
L 460.677422 108.934982 
L 461.09496 108.384474 
L 461.402054 108.934982 
L 461.833867 108.934982 
L 461.923632 108.384474 
L 462.906807 108.384474 
L 463.042251 108.934982 
L 463.208066 107.833967 
L 463.344734 107.833967 
L 463.604117 108.384474 
L 463.840015 107.833967 
L 464.366073 107.833967 
L 464.597752 106.182444 
L 466.250085 106.182444 
L 466.447628 105.631937 
L 466.568588 105.631937 
L 466.767626 106.182444 
L 466.818959 105.631937 
L 467.346192 105.631937 
L 467.452234 105.081429 
L 467.740248 104.530921 
L 467.822511 103.429906 
L 468.271872 103.429906 
L 468.440707 101.778384 
L 468.792256 101.778384 
L 468.99786 102.328891 
L 469.108936 101.778384 
L 469.258459 101.778384 
L 469.269879 100.126861 
L 470.069562 100.126861 
L 470.208184 99.576354 
L 470.552917 99.576354 
L 470.910142 100.126861 
L 470.946885 99.025846 
L 471.263179 99.025846 
L 471.321482 98.475338 
L 471.541867 97.924831 
L 472.124056 97.924831 
L 472.209626 96.823816 
L 472.459471 96.823816 
L 472.605949 96.273308 
L 472.746503 96.273308 
L 473.250545 95.722801 
L 473.447812 96.273308 
L 473.565288 102.328891 
L 473.692697 102.879399 
L 473.778986 100.677369 
L 474.400538 100.677369 
L 474.656008 101.227876 
L 474.842146 100.126861 
L 475.761385 100.126861 
L 475.946663 100.677369 
L 476.091729 100.126861 
L 477.070792 100.126861 
L 477.191345 99.576354 
L 477.637707 100.677369 
L 478.000668 100.126861 
L 478.20866 100.126861 
L 478.288546 99.576354 
L 478.472174 100.677369 
L 478.650673 99.576354 
L 479.391299 99.576354 
L 479.506094 100.126861 
L 479.769912 100.126861 
L 479.811413 99.576354 
L 480.110129 99.025846 
L 480.121788 99.576354 
L 480.362462 99.025846 
L 480.683559 99.025846 
L 480.9727 98.475338 
L 482.47314 98.475338 
L 482.585645 97.924831 
L 482.883205 98.475338 
L 482.89314 97.924831 
L 483.320411 97.374323 
L 483.582944 97.374323 
L 483.885055 96.823816 
L 484.035902 96.273308 
L 484.151233 96.273308 
L 484.51415 97.374323 
L 484.585842 96.273308 
L 484.829882 96.823816 
L 485.035291 96.273308 
L 485.95202 96.273308 
L 486.054734 95.722801 
L 486.182748 96.273308 
L 486.626366 95.722801 
L 486.840645 96.273308 
L 487.057808 95.722801 
L 487.188284 96.273308 
L 487.492152 95.172293 
L 487.702103 95.722801 
L 488.420209 95.722801 
L 488.705901 95.172293 
L 489.123053 95.172293 
L 489.454948 96.273308 
L 489.54341 95.722801 
L 489.898034 95.722801 
L 489.988031 94.621786 
L 490.43529 95.722801 
L 490.591483 95.172293 
L 490.95185 95.722801 
L 491.2149 95.722801 
L 491.349664 95.172293 
L 491.671786 95.172293 
L 492.093634 94.621786 
L 492.148285 95.722801 
L 492.299745 94.621786 
L 492.438602 95.172293 
L 492.521945 94.621786 
L 492.852573 95.172293 
L 493.249278 94.621786 
L 493.449106 94.621786 
L 493.723411 95.172293 
L 494.113315 95.172293 
L 494.513085 94.071278 
L 494.722491 94.621786 
L 495.145934 94.621786 
L 495.34395 95.172293 
L 495.373102 95.722801 
L 495.619784 94.621786 
L 495.750606 95.172293 
L 495.904483 94.621786 
L 496.133132 95.172293 
L 496.39192 95.172293 
L 496.558169 95.722801 
L 496.873457 95.722801 
L 497.201711 94.621786 
L 497.424447 95.172293 
L 497.695695 94.071278 
L 497.836956 94.071278 
L 497.925623 94.621786 
L 498.201493 94.621786 
L 498.224648 94.071278 
L 499.139169 94.071278 
L 499.28899 93.520771 
L 499.417317 93.520771 
L 499.615139 92.970263 
L 499.785764 93.520771 
L 499.915891 92.970263 
L 500.109892 92.970263 
L 500.219101 92.419756 
L 500.360057 92.970263 
L 500.40547 92.419756 
L 500.561512 91.31874 
L 500.752154 91.869248 
L 500.812151 92.419756 
L 501.013206 91.869248 
L 501.177512 92.419756 
L 501.49267 91.869248 
L 501.700086 91.869248 
L 501.79045 91.31874 
L 502.014649 91.869248 
L 502.603455 90.217725 
L 502.761845 90.217725 
L 502.925676 91.31874 
L 503.003129 90.768233 
L 503.234758 90.768233 
L 503.340143 91.31874 
L 503.529543 91.31874 
L 503.701979 90.768233 
L 503.923662 90.768233 
L 504.295841 89.11671 
L 504.49385 89.667218 
L 507.096716 89.667218 
L 507.217841 89.11671 
L 507.371443 89.11671 
L 507.494968 89.667218 
L 507.742804 89.11671 
L 508.360254 89.11671 
L 508.463545 88.015695 
L 509.116874 89.11671 
L 509.574275 89.11671 
L 510.200161 88.015695 
L 511.306607 88.566203 
L 511.587595 88.015695 
L 511.897151 88.566203 
L 512.118234 87.465188 
L 512.206905 88.566203 
L 512.498343 87.465188 
L 512.815875 88.566203 
L 512.920988 87.465188 
L 513.124608 87.465188 
L 513.23654 88.015695 
L 513.439425 87.465188 
L 513.561183 87.465188 
L 513.674596 88.015695 
L 513.812395 86.364173 
L 514.173787 87.465188 
L 514.5118 87.465188 
L 514.718337 86.91468 
L 515.10812 86.91468 
L 515.425108 87.465188 
L 515.610423 87.465188 
L 515.750515 86.364173 
L 515.925262 87.465188 
L 516.022825 86.91468 
L 516.258395 86.364173 
L 516.402838 86.364173 
L 516.655373 87.465188 
L 516.896855 85.813665 
L 517.200374 85.813665 
L 517.223412 84.71265 
L 517.244609 85.263157 
L 517.403347 85.813665 
L 517.570213 84.71265 
L 517.639815 85.813665 
L 517.891354 85.813665 
L 517.925627 85.263157 
L 518.209026 84.71265 
L 518.378637 84.71265 
L 518.458137 85.813665 
L 518.838458 84.71265 
L 518.90005 85.813665 
L 519.107201 84.71265 
L 519.266553 86.364173 
L 519.750966 85.263157 
L 520.115889 86.91468 
L 520.144107 86.364173 
L 520.375254 86.91468 
L 520.521387 86.91468 
L 520.673093 85.813665 
L 520.854263 86.91468 
L 521.202575 85.813665 
L 521.334723 86.91468 
L 521.477805 86.364173 
L 521.769379 86.364173 
L 521.961932 86.91468 
L 522.330529 86.91468 
L 522.34178 86.364173 
L 522.921908 87.465188 
L 523.229578 85.813665 
L 523.392869 85.813665 
L 523.583185 86.364173 
L 523.636979 85.263157 
L 523.907151 86.364173 
L 524.07351 85.263157 
L 524.241217 86.364173 
L 524.310525 85.813665 
L 524.654475 85.813665 
L 524.860597 85.263157 
L 524.954871 84.162142 
L 525.146792 85.263157 
L 525.462546 84.71265 
L 525.602222 84.162142 
L 525.774806 84.71265 
L 525.922158 82.51062 
L 526.153448 82.51062 
L 526.459319 81.960112 
L 526.496219 83.061127 
L 526.797258 81.960112 
L 527.225771 83.061127 
L 527.341558 81.409605 
L 527.689017 80.859097 
L 528.067458 81.960112 
L 528.307313 82.51062 
L 528.97405 81.960112 
L 529.05391 81.409605 
L 529.99098 81.409605 
L 530.274849 80.859097 
L 530.561988 79.207574 
L 531.299193 79.758082 
L 531.865954 79.758082 
L 532.178974 79.207574 
L 532.259661 79.758082 
L 532.497481 78.657067 
L 532.550463 79.758082 
L 532.810751 79.207574 
L 533.282914 79.207574 
L 533.525213 78.106559 
L 533.747608 79.207574 
L 534.051355 78.106559 
L 534.169772 78.657067 
L 534.331998 78.106559 
L 534.75554 78.657067 
L 535.000337 78.106559 
L 535.716353 78.106559 
L 535.887257 78.657067 
L 536.301958 77.556052 
L 536.470522 78.657067 
L 536.615916 78.657067 
L 536.672452 78.106559 
L 536.878573 78.106559 
L 537.10088 77.556052 
L 537.252998 78.657067 
L 537.489183 77.556052 
L 537.592907 78.657067 
L 537.882526 77.556052 
L 538.060613 77.556052 
L 538.175536 78.106559 
L 538.363864 78.106559 
L 538.417082 78.657067 
L 538.428009 78.106559 
L 538.749513 78.106559 
L 538.858293 78.657067 
L 539.153214 77.556052 
L 539.4248 78.657067 
L 539.890232 78.106559 
L 540.884856 78.106559 
L 541.123381 78.657067 
L 541.376967 78.106559 
L 541.540199 78.657067 
L 541.641031 78.106559 
L 542.347425 78.106559 
L 542.563092 78.657067 
L 543.058278 77.556052 
L 543.17868 78.106559 
L 543.574761 77.556052 
L 544.007334 78.106559 
L 544.237081 77.556052 
L 544.777608 78.657067 
L 544.919434 79.207574 
L 545.154417 79.207574 
L 545.607 77.556052 
L 545.730106 77.556052 
L 545.88639 78.657067 
L 546.253455 78.657067 
L 546.459338 78.106559 
L 546.615468 78.106559 
L 546.776896 78.657067 
L 547.081687 78.657067 
L 547.497862 78.106559 
L 547.728884 78.106559 
L 547.823459 77.556052 
L 548.045505 78.657067 
L 548.162493 77.556052 
L 548.307942 78.106559 
L 548.399802 77.556052 
L 548.982983 77.556052 
L 549.004092 76.455037 
L 549.098266 77.005544 
L 549.274458 77.005544 
L 549.379743 77.556052 
L 549.545353 77.005544 
L 549.727956 77.556052 
L 550.193612 77.005544 
L 550.589123 77.005544 
L 550.739345 75.904529 
L 550.798589 76.455037 
L 550.975592 75.904529 
L 551.212971 76.455037 
L 551.324098 77.005544 
L 551.489748 76.455037 
L 551.653106 77.005544 
L 551.849594 75.904529 
L 551.932841 77.005544 
L 552.109378 85.263157 
L 552.591384 85.263157 
L 552.724238 85.813665 
L 552.850511 83.611635 
L 553.55409 84.162142 
L 554.076851 84.162142 
L 554.178514 83.611635 
L 554.309251 83.611635 
L 554.718974 84.71265 
L 555.028898 84.71265 
L 555.04211 84.162142 
L 555.430104 83.611635 
L 555.704897 84.162142 
L 555.980944 85.263157 
L 556.016231 84.162142 
L 556.227126 85.263157 
L 556.309154 84.71265 
L 556.939174 84.71265 
L 556.973223 84.162142 
L 557.231203 84.162142 
L 557.406939 84.71265 
L 557.576293 84.71265 
L 557.630448 85.263157 
L 557.994588 84.162142 
L 558.318763 85.263157 
L 558.487507 85.263157 
L 559.006076 84.71265 
L 559.106868 85.263157 
L 559.189837 84.162142 
L 559.52574 83.061127 
L 559.751718 84.162142 
L 560.0866 83.061127 
L 560.418936 84.162142 
L 560.539896 83.061127 
L 560.839263 84.162142 
L 560.964019 84.162142 
L 561.014224 83.061127 
L 561.163295 83.611635 
L 561.337183 83.061127 
L 561.618711 83.061127 
L 561.652669 81.960112 
L 561.869659 82.51062 
L 561.993514 82.51062 
L 562.084272 83.061127 
L 562.33935 82.51062 
L 562.603683 81.409605 
L 562.617428 79.758082 
L 562.769641 80.859097 
L 562.774205 79.207574 
L 562.956216 79.207574 
L 563.083272 78.657067 
L 563.331662 79.207574 
L 563.715735 78.657067 
L 563.715735 78.657067 
" clip-path="url(#pcc3242ddfe)" style="fill: none; stroke-dasharray: 6,1.5; stroke-dashoffset: 0; stroke: #008000; stroke-width: 1.5"/>
   </g>
   <g id="line2d_20">
    <path d="M 38.539265 362.168452 
L 39.837084 363.269467 
L 41.130714 363.269467 
L 42.382017 362.718959 
L 44.194158 362.718959 
L 47.978835 362.168452 
L 48.085694 362.718959 
L 51.363067 362.718959 
L 51.671939 363.819974 
L 52.355295 363.819974 
L 52.639432 360.516929 
L 53.018104 363.819974 
L 54.862123 363.819974 
L 55.200268 360.516929 
L 57.743452 360.516929 
L 59.084032 361.067436 
L 59.266595 361.617944 
L 60.285656 361.617944 
L 60.571685 359.966421 
L 63.698124 359.966421 
L 64.068952 360.516929 
L 73.600941 360.516929 
L 73.901178 359.966421 
L 79.644371 359.966421 
L 79.930485 362.168452 
L 127.554508 362.168452 
L 127.87563 363.269467 
L 128.263899 366.572512 
L 128.541254 366.572512 
L 128.854752 367.123019 
L 130.737471 367.123019 
L 133.333807 368.774542 
L 133.598912 368.774542 
L 134.043423 369.32505 
L 147.167099 369.32505 
L 147.872309 370.426065 
L 177.647561 370.426065 
L 177.982491 370.976572 
L 178.330207 370.426065 
L 180.354657 370.426065 
L 180.652275 370.976572 
L 186.067648 370.976572 
L 187.256577 372.077587 
L 187.454861 370.976572 
L 187.836539 370.976572 
L 188.151143 372.077587 
L 195.480418 372.077587 
L 195.821859 371.52708 
L 196.02064 372.077587 
L 213.268105 372.077587 
L 213.569342 373.178602 
L 251.982281 373.178602 
L 252.34698 373.72911 
L 340.438064 373.72911 
L 340.790347 373.178602 
L 351.267552 373.178602 
L 351.67815 373.72911 
L 351.787889 374.830125 
L 379.38917 374.830125 
L 379.581726 374.279617 
L 382.286809 374.279617 
L 382.437909 374.830125 
L 491.537724 374.830125 
L 491.671786 374.279617 
L 499.915891 374.279617 
L 500.219101 374.830125 
L 531.536664 374.830125 
L 531.865954 374.279617 
L 563.715735 374.279617 
L 563.715735 374.279617 
" clip-path="url(#pcc3242ddfe)" style="fill: none; stroke-dasharray: 9,3; stroke-dashoffset: 0; stroke: #ffa500; stroke-width: 1.5"/>
   </g>
   <g id="line2d_21">
    <path d="M 38.539265 324.183431 
L 47.978835 324.183431 
L 48.085694 324.733939 
L 51.363067 324.733939 
L 51.671939 325.284446 
L 52.355295 325.284446 
L 52.639432 326.385461 
L 53.018104 325.284446 
L 54.862123 325.284446 
L 55.428858 326.935969 
L 56.762593 326.935969 
L 57.063076 327.486476 
L 57.244768 326.935969 
L 57.39675 327.486476 
L 71.385209 327.486476 
L 71.682985 328.587491 
L 71.800164 327.486476 
L 72.322253 328.587491 
L 89.033509 328.587491 
L 89.741688 329.137999 
L 89.902113 328.587491 
L 91.038052 328.587491 
L 91.34652 329.137999 
L 91.686852 328.587491 
L 92.496587 328.587491 
L 92.943846 329.137999 
L 93.275877 328.587491 
L 119.018685 328.587491 
L 119.296279 329.137999 
L 119.650991 329.137999 
L 119.965532 328.587491 
L 120.289146 328.587491 
L 120.512132 329.137999 
L 120.753806 328.587491 
L 121.155431 329.137999 
L 127.87563 329.137999 
L 128.263899 328.587491 
L 128.541254 328.587491 
L 128.854752 329.688506 
L 130.382869 329.688506 
L 130.737471 332.441044 
L 133.333807 330.239014 
L 133.598912 330.789522 
L 135.455236 330.789522 
L 135.817392 333.542059 
L 136.13675 334.092567 
L 150.523271 334.092567 
L 151.026206 333.542059 
L 151.424197 334.092567 
L 152.311893 333.542059 
L 154.473907 333.542059 
L 155.752954 334.092567 
L 161.093001 334.092567 
L 161.496775 334.643074 
L 195.220811 334.643074 
L 195.480418 335.193582 
L 195.821859 334.643074 
L 201.829418 334.643074 
L 202.210637 341.799672 
L 203.097972 341.799672 
L 203.460025 346.203733 
L 203.779226 347.855255 
L 223.110848 347.855255 
L 225.829812 348.405763 
L 254.520149 348.405763 
L 254.839107 350.607793 
L 261.488168 350.607793 
L 261.789313 347.304748 
L 277.159772 347.304748 
L 277.33571 347.855255 
L 305.957408 347.855255 
L 306.169071 348.405763 
L 306.504647 347.855255 
L 314.236951 347.855255 
L 314.380328 348.405763 
L 314.672868 347.855255 
L 316.633526 347.855255 
L 316.905524 348.405763 
L 317.008318 347.855255 
L 319.917278 347.855255 
L 320.120413 348.405763 
L 329.22646 348.405763 
L 329.404529 347.855255 
L 340.790347 347.855255 
L 341.052123 347.304748 
L 341.183353 347.855255 
L 341.344795 347.304748 
L 341.447175 347.855255 
L 341.652577 347.855255 
L 341.738661 347.304748 
L 341.969003 347.855255 
L 343.340682 347.855255 
L 343.599132 347.304748 
L 343.714912 347.855255 
L 351.67815 347.855255 
L 351.787889 347.304748 
L 379.38917 347.304748 
L 379.581726 347.855255 
L 383.906581 347.855255 
L 384.00073 350.607793 
L 384.276714 347.855255 
L 386.778141 347.855255 
L 386.791835 350.607793 
L 387.104345 347.855255 
L 387.13027 350.607793 
L 412.154446 350.607793 
L 412.468345 350.057286 
L 412.738005 350.607793 
L 443.205791 350.607793 
L 443.409877 351.158301 
L 443.541955 350.607793 
L 443.852676 350.607793 
L 444.297558 351.158301 
L 464.366073 351.158301 
L 464.597752 351.708808 
L 467.452234 351.708808 
L 467.740248 352.259316 
L 473.447812 352.259316 
L 473.565288 351.708808 
L 480.121788 351.708808 
L 480.362462 352.259316 
L 491.537724 352.259316 
L 491.671786 356.112869 
L 499.915891 356.112869 
L 500.219101 355.562361 
L 507.742804 355.562361 
L 508.463545 357.764391 
L 515.750515 357.764391 
L 516.022825 357.213884 
L 529.303347 357.213884 
L 529.763169 356.663376 
L 531.536664 356.663376 
L 531.865954 358.865406 
L 532.259661 359.415914 
L 534.331998 359.415914 
L 534.75554 359.966421 
L 551.932841 359.966421 
L 552.109378 356.663376 
L 563.715735 356.663376 
L 563.715735 356.663376 
" clip-path="url(#pcc3242ddfe)" style="fill: none; stroke-dasharray: 12,4.5; stroke-dashoffset: 0; stroke: #ee82ee; stroke-width: 1.5"/>
   </g>
   <g id="patch_3">
    <path d="M 33.2875 374.830125 
L 33.2875 22.318125 
" style="fill: none; stroke: #000000; stroke-width: 0.8; stroke-linejoin: miter; stroke-linecap: square"/>
   </g>
   <g id="patch_4">
    <path d="M 568.9675 374.830125 
L 568.9675 22.318125 
" style="fill: none; stroke: #000000; stroke-width: 0.8; stroke-linejoin: miter; stroke-linecap: square"/>
   </g>
   <g id="patch_5">
    <path d="M 33.2875 374.830125 
L 568.9675 374.830125 
" style="fill: none; stroke: #000000; stroke-width: 0.8; stroke-linejoin: miter; stroke-linecap: square"/>
   </g>
   <g id="patch_6">
    <path d="M 33.2875 22.318125 
L 568.9675 22.318125 
" style="fill: none; stroke: #000000; stroke-width: 0.8; stroke-linejoin: miter; stroke-linecap: square"/>
   </g>
   <g id="text_17">
    <!-- Rust/Coreutils running GNU's testsuite -->
    <g transform="translate(186.090625 16.318125) scale(0.12 -0.12)">
     <defs>
      <path id="DejaVuSans-52" d="M 2841 2188 
Q 3044 2119 3236 1894 
Q 3428 1669 3622 1275 
L 4263 0 
L 3584 0 
L 2988 1197 
Q 2756 1666 2539 1819 
Q 2322 1972 1947 1972 
L 1259 1972 
L 1259 0 
L 628 0 
L 628 4666 
L 2053 4666 
Q 2853 4666 3247 4331 
Q 3641 3997 3641 3322 
Q 3641 2881 3436 2590 
Q 3231 2300 2841 2188 
z
M 1259 4147 
L 1259 2491 
L 2053 2491 
Q 2509 2491 2742 2702 
Q 2975 2913 2975 3322 
Q 2975 3731 2742 3939 
Q 2509 4147 2053 4147 
L 1259 4147 
z
" transform="scale(0.015625)"/>
      <path id="DejaVuSans-75" d="M 544 1381 
L 544 3500 
L 1119 3500 
L 1119 1403 
Q 1119 906 1312 657 
Q 1506 409 1894 409 
Q 2359 409 2629 706 
Q 2900 1003 2900 1516 
L 2900 3500 
L 3475 3500 
L 3475 0 
L 2900 0 
L 2900 538 
Q 2691 219 2414 64 
Q 2138 -91 1772 -91 
Q 1169 -91 856 284 
Q 544 659 544 1381 
z
M 1991 3584 
L 1991 3584 
z
" transform="scale(0.015625)"/>
      <path id="DejaVuSans-73" d="M 2834 3397 
L 2834 2853 
Q 2591 2978 2328 3040 
Q 2066 3103 1784 3103 
Q 1356 3103 1142 2972 
Q 928 2841 928 2578 
Q 928 2378 1081 2264 
Q 1234 2150 1697 2047 
L 1894 2003 
Q 2506 1872 2764 1633 
Q 3022 1394 3022 966 
Q 3022 478 2636 193 
Q 2250 -91 1575 -91 
Q 1294 -91 989 -36 
Q 684 19 347 128 
L 347 722 
Q 666 556 975 473 
Q 1284 391 1588 391 
Q 1994 391 2212 530 
Q 2431 669 2431 922 
Q 2431 1156 2273 1281 
Q 2116 1406 1581 1522 
L 1381 1569 
Q 847 1681 609 1914 
Q 372 2147 372 2553 
Q 372 3047 722 3315 
Q 1072 3584 1716 3584 
Q 2034 3584 2315 3537 
Q 2597 3491 2834 3397 
z
" transform="scale(0.015625)"/>
      <path id="DejaVuSans-74" d="M 1172 4494 
L 1172 3500 
L 2356 3500 
L 2356 3053 
L 1172 3053 
L 1172 1153 
Q 1172 725 1289 603 
Q 1406 481 1766 481 
L 2356 481 
L 2356 0 
L 1766 0 
Q 1100 0 847 248 
Q 594 497 594 1153 
L 594 3053 
L 172 3053 
L 172 3500 
L 594 3500 
L 594 4494 
L 1172 4494 
z
" transform="scale(0.015625)"/>
      <path id="DejaVuSans-2f" d="M 1625 4666 
L 2156 4666 
L 531 -594 
L 0 -594 
L 1625 4666 
z
" transform="scale(0.015625)"/>
      <path id="DejaVuSans-43" d="M 4122 4306 
L 4122 3641 
Q 3803 3938 3442 4084 
Q 3081 4231 2675 4231 
Q 1875 4231 1450 3742 
Q 1025 3253 1025 2328 
Q 1025 1406 1450 917 
Q 1875 428 2675 428 
Q 3081 428 3442 575 
Q 3803 722 4122 1019 
L 4122 359 
Q 3791 134 3420 21 
Q 3050 -91 2638 -91 
Q 1578 -91 968 557 
Q 359 1206 359 2328 
Q 359 3453 968 4101 
Q 1578 4750 2638 4750 
Q 3056 4750 3426 4639 
Q 3797 4528 4122 4306 
z
" transform="scale(0.015625)"/>
      <path id="DejaVuSans-6f" d="M 1959 3097 
Q 1497 3097 1228 2736 
Q 959 2375 959 1747 
Q 959 1119 1226 758 
Q 1494 397 1959 397 
Q 2419 397 2687 759 
Q 2956 1122 2956 1747 
Q 2956 2369 2687 2733 
Q 2419 3097 1959 3097 
z
M 1959 3584 
Q 2709 3584 3137 3096 
Q 3566 2609 3566 1747 
Q 3566 888 3137 398 
Q 2709 -91 1959 -91 
Q 1206 -91 779 398 
Q 353 888 353 1747 
Q 353 2609 779 3096 
Q 1206 3584 1959 3584 
z
" transform="scale(0.015625)"/>
      <path id="DejaVuSans-72" d="M 2631 2963 
Q 2534 3019 2420 3045 
Q 2306 3072 2169 3072 
Q 1681 3072 1420 2755 
Q 1159 2438 1159 1844 
L 1159 0 
L 581 0 
L 581 3500 
L 1159 3500 
L 1159 2956 
Q 1341 3275 1631 3429 
Q 1922 3584 2338 3584 
Q 2397 3584 2469 3576 
Q 2541 3569 2628 3553 
L 2631 2963 
z
" transform="scale(0.015625)"/>
      <path id="DejaVuSans-65" d="M 3597 1894 
L 3597 1613 
L 953 1613 
Q 991 1019 1311 708 
Q 1631 397 2203 397 
Q 2534 397 2845 478 
Q 3156 559 3463 722 
L 3463 178 
Q 3153 47 2828 -22 
Q 2503 -91 2169 -91 
Q 1331 -91 842 396 
Q 353 884 353 1716 
Q 353 2575 817 3079 
Q 1281 3584 2069 3584 
Q 2775 3584 3186 3129 
Q 3597 2675 3597 1894 
z
M 3022 2063 
Q 3016 2534 2758 2815 
Q 2500 3097 2075 3097 
Q 1594 3097 1305 2825 
Q 1016 2553 972 2059 
L 3022 2063 
z
" transform="scale(0.015625)"/>
      <path id="DejaVuSans-69" d="M 603 3500 
L 1178 3500 
L 1178 0 
L 603 0 
L 603 3500 
z
M 603 4863 
L 1178 4863 
L 1178 4134 
L 603 4134 
L 603 4863 
z
" transform="scale(0.015625)"/>
      <path id="DejaVuSans-6c" d="M 603 4863 
L 1178 4863 
L 1178 0 
L 603 0 
L 603 4863 
z
" transform="scale(0.015625)"/>
      <path id="DejaVuSans-20" transform="scale(0.015625)"/>
      <path id="DejaVuSans-6e" d="M 3513 2113 
L 3513 0 
L 2938 0 
L 2938 2094 
Q 2938 2591 2744 2837 
Q 2550 3084 2163 3084 
Q 1697 3084 1428 2787 
Q 1159 2491 1159 1978 
L 1159 0 
L 581 0 
L 581 3500 
L 1159 3500 
L 1159 2956 
Q 1366 3272 1645 3428 
Q 1925 3584 2291 3584 
Q 2894 3584 3203 3211 
Q 3513 2838 3513 2113 
z
" transform="scale(0.015625)"/>
      <path id="DejaVuSans-67" d="M 2906 1791 
Q 2906 2416 2648 2759 
Q 2391 3103 1925 3103 
Q 1463 3103 1205 2759 
Q 947 2416 947 1791 
Q 947 1169 1205 825 
Q 1463 481 1925 481 
Q 2391 481 2648 825 
Q 2906 1169 2906 1791 
z
M 3481 434 
Q 3481 -459 3084 -895 
Q 2688 -1331 1869 -1331 
Q 1566 -1331 1297 -1286 
Q 1028 -1241 775 -1147 
L 775 -588 
Q 1028 -725 1275 -790 
Q 1522 -856 1778 -856 
Q 2344 -856 2625 -561 
Q 2906 -266 2906 331 
L 2906 616 
Q 2728 306 2450 153 
Q 2172 0 1784 0 
Q 1141 0 747 490 
Q 353 981 353 1791 
Q 353 2603 747 3093 
Q 1141 3584 1784 3584 
Q 2172 3584 2450 3431 
Q 2728 3278 2906 2969 
L 2906 3500 
L 3481 3500 
L 3481 434 
z
" transform="scale(0.015625)"/>
      <path id="DejaVuSans-47" d="M 3809 666 
L 3809 1919 
L 2778 1919 
L 2778 2438 
L 4434 2438 
L 4434 434 
Q 4069 175 3628 42 
Q 3188 -91 2688 -91 
Q 1594 -91 976 548 
Q 359 1188 359 2328 
Q 359 3472 976 4111 
Q 1594 4750 2688 4750 
Q 3144 4750 3555 4637 
Q 3966 4525 4313 4306 
L 4313 3634 
Q 3963 3931 3569 4081 
Q 3175 4231 2741 4231 
Q 1884 4231 1454 3753 
Q 1025 3275 1025 2328 
Q 1025 1384 1454 906 
Q 1884 428 2741 428 
Q 3075 428 3337 486 
Q 3600 544 3809 666 
z
" transform="scale(0.015625)"/>
      <path id="DejaVuSans-4e" d="M 628 4666 
L 1478 4666 
L 3547 763 
L 3547 4666 
L 4159 4666 
L 4159 0 
L 3309 0 
L 1241 3903 
L 1241 0 
L 628 0 
L 628 4666 
z
" transform="scale(0.015625)"/>
      <path id="DejaVuSans-55" d="M 556 4666 
L 1191 4666 
L 1191 1831 
Q 1191 1081 1462 751 
Q 1734 422 2344 422 
Q 2950 422 3222 751 
Q 3494 1081 3494 1831 
L 3494 4666 
L 4128 4666 
L 4128 1753 
Q 4128 841 3676 375 
Q 3225 -91 2344 -91 
Q 1459 -91 1007 375 
Q 556 841 556 1753 
L 556 4666 
z
" transform="scale(0.015625)"/>
      <path id="DejaVuSans-27" d="M 1147 4666 
L 1147 2931 
L 616 2931 
L 616 4666 
L 1147 4666 
z
" transform="scale(0.015625)"/>
     </defs>
     <use xlink:href="#DejaVuSans-52"/>
     <use xlink:href="#DejaVuSans-75" x="64.982422"/>
     <use xlink:href="#DejaVuSans-73" x="128.361328"/>
     <use xlink:href="#DejaVuSans-74" x="180.460938"/>
     <use xlink:href="#DejaVuSans-2f" x="219.669922"/>
     <use xlink:href="#DejaVuSans-43" x="253.361328"/>
     <use xlink:href="#DejaVuSans-6f" x="323.185547"/>
     <use xlink:href="#DejaVuSans-72" x="384.367188"/>
     <use xlink:href="#DejaVuSans-65" x="423.230469"/>
     <use xlink:href="#DejaVuSans-75" x="484.753906"/>
     <use xlink:href="#DejaVuSans-74" x="548.132812"/>
     <use xlink:href="#DejaVuSans-69" x="587.341797"/>
     <use xlink:href="#DejaVuSans-6c" x="615.125"/>
     <use xlink:href="#DejaVuSans-73" x="642.908203"/>
     <use xlink:href="#DejaVuSans-20" x="695.007812"/>
     <use xlink:href="#DejaVuSans-72" x="726.794922"/>
     <use xlink:href="#DejaVuSans-75" x="767.908203"/>
     <use xlink:href="#DejaVuSans-6e" x="831.287109"/>
     <use xlink:href="#DejaVuSans-6e" x="894.666016"/>
     <use xlink:href="#DejaVuSans-69" x="958.044922"/>
     <use xlink:href="#DejaVuSans-6e" x="985.828125"/>
     <use xlink:href="#DejaVuSans-67" x="1049.207031"/>
     <use xlink:href="#DejaVuSans-20" x="1112.683594"/>
     <use xlink:href="#DejaVuSans-47" x="1144.470703"/>
     <use xlink:href="#DejaVuSans-4e" x="1221.960938"/>
     <use xlink:href="#DejaVuSans-55" x="1296.765625"/>
     <use xlink:href="#DejaVuSans-27" x="1369.958984"/>
     <use xlink:href="#DejaVuSans-73" x="1397.449219"/>
     <use xlink:href="#DejaVuSans-20" x="1449.548828"/>
     <use xlink:href="#DejaVuSans-74" x="1481.335938"/>
     <use xlink:href="#DejaVuSans-65" x="1520.544922"/>
     <use xlink:href="#DejaVuSans-73" x="1582.068359"/>
     <use xlink:href="#DejaVuSans-74" x="1634.167969"/>
     <use xlink:href="#DejaVuSans-73" x="1673.376953"/>
     <use xlink:href="#DejaVuSans-75" x="1725.476562"/>
     <use xlink:href="#DejaVuSans-69" x="1788.855469"/>
     <use xlink:href="#DejaVuSans-74" x="1816.638672"/>
     <use xlink:href="#DejaVuSans-65" x="1855.847656"/>
    </g>
   </g>
   <g id="legend_1">
    <g id="patch_7">
     <path d="M 505.762812 236.769437 
L 561.9675 236.769437 
Q 563.9675 236.769437 563.9675 234.769437 
L 563.9675 162.378812 
Q 563.9675 160.378812 561.9675 160.378812 
L 505.762812 160.378812 
Q 503.762812 160.378812 503.762812 162.378812 
L 503.762812 234.769437 
Q 503.762812 236.769437 505.762812 236.769437 
z
" style="fill: #ffffff; opacity: 0.8; stroke: #cccccc; stroke-linejoin: miter"/>
    </g>
    <g id="line2d_22">
     <path d="M 507.762812 168.47725 
L 517.762812 168.47725 
L 527.762812 168.47725 
" style="fill: none; stroke: #0000ff; stroke-width: 1.5; stroke-linecap: square"/>
    </g>
    <g id="text_18">
     <!-- total -->
     <g transform="translate(535.762812 171.97725) scale(0.1 -0.1)">
      <defs>
       <path id="DejaVuSans-61" d="M 2194 1759 
Q 1497 1759 1228 1600 
Q 959 1441 959 1056 
Q 959 750 1161 570 
Q 1363 391 1709 391 
Q 2188 391 2477 730 
Q 2766 1069 2766 1631 
L 2766 1759 
L 2194 1759 
z
M 3341 1997 
L 3341 0 
L 2766 0 
L 2766 531 
Q 2569 213 2275 61 
Q 1981 -91 1556 -91 
Q 1019 -91 701 211 
Q 384 513 384 1019 
Q 384 1609 779 1909 
Q 1175 2209 1959 2209 
L 2766 2209 
L 2766 2266 
Q 2766 2663 2505 2880 
Q 2244 3097 1772 3097 
Q 1472 3097 1187 3025 
Q 903 2953 641 2809 
L 641 3341 
Q 956 3463 1253 3523 
Q 1550 3584 1831 3584 
Q 2591 3584 2966 3190 
Q 3341 2797 3341 1997 
z
" transform="scale(0.015625)"/>
      </defs>
      <use xlink:href="#DejaVuSans-74"/>
      <use xlink:href="#DejaVuSans-6f" x="39.208984"/>
      <use xlink:href="#DejaVuSans-74" x="100.390625"/>
      <use xlink:href="#DejaVuSans-61" x="139.599609"/>
      <use xlink:href="#DejaVuSans-6c" x="200.878906"/>
     </g>
    </g>
    <g id="line2d_23">
     <path d="M 507.762812 183.155375 
L 517.762812 183.155375 
L 527.762812 183.155375 
" style="fill: none; stroke-dasharray: 3,1.5; stroke-dashoffset: 0; stroke: #808080; stroke-width: 1.5"/>
    </g>
    <g id="text_19">
     <!-- fail -->
     <g transform="translate(535.762812 186.655375) scale(0.1 -0.1)">
      <defs>
       <path id="DejaVuSans-66" d="M 2375 4863 
L 2375 4384 
L 1825 4384 
Q 1516 4384 1395 4259 
Q 1275 4134 1275 3809 
L 1275 3500 
L 2222 3500 
L 2222 3053 
L 1275 3053 
L 1275 0 
L 697 0 
L 697 3053 
L 147 3053 
L 147 3500 
L 697 3500 
L 697 3744 
Q 697 4328 969 4595 
Q 1241 4863 1831 4863 
L 2375 4863 
z
" transform="scale(0.015625)"/>
      </defs>
      <use xlink:href="#DejaVuSans-66"/>
      <use xlink:href="#DejaVuSans-61" x="35.205078"/>
      <use xlink:href="#DejaVuSans-69" x="96.484375"/>
      <use xlink:href="#DejaVuSans-6c" x="124.267578"/>
     </g>
    </g>
    <g id="line2d_24">
     <path d="M 507.762812 197.8335 
L 517.762812 197.8335 
L 527.762812 197.8335 
" style="fill: none; stroke-dasharray: 6,1.5; stroke-dashoffset: 0; stroke: #008000; stroke-width: 1.5"/>
    </g>
    <g id="text_20">
     <!-- pass -->
     <g transform="translate(535.762812 201.3335) scale(0.1 -0.1)">
      <defs>
       <path id="DejaVuSans-70" d="M 1159 525 
L 1159 -1331 
L 581 -1331 
L 581 3500 
L 1159 3500 
L 1159 2969 
Q 1341 3281 1617 3432 
Q 1894 3584 2278 3584 
Q 2916 3584 3314 3078 
Q 3713 2572 3713 1747 
Q 3713 922 3314 415 
Q 2916 -91 2278 -91 
Q 1894 -91 1617 61 
Q 1341 213 1159 525 
z
M 3116 1747 
Q 3116 2381 2855 2742 
Q 2594 3103 2138 3103 
Q 1681 3103 1420 2742 
Q 1159 2381 1159 1747 
Q 1159 1113 1420 752 
Q 1681 391 2138 391 
Q 2594 391 2855 752 
Q 3116 1113 3116 1747 
z
" transform="scale(0.015625)"/>
      </defs>
      <use xlink:href="#DejaVuSans-70"/>
      <use xlink:href="#DejaVuSans-61" x="63.476562"/>
      <use xlink:href="#DejaVuSans-73" x="124.755859"/>
      <use xlink:href="#DejaVuSans-73" x="176.855469"/>
     </g>
    </g>
    <g id="line2d_25">
     <path d="M 507.762812 212.511625 
L 517.762812 212.511625 
L 527.762812 212.511625 
" style="fill: none; stroke-dasharray: 9,3; stroke-dashoffset: 0; stroke: #ffa500; stroke-width: 1.5"/>
    </g>
    <g id="text_21">
     <!-- error -->
     <g transform="translate(535.762812 216.011625) scale(0.1 -0.1)">
      <use xlink:href="#DejaVuSans-65"/>
      <use xlink:href="#DejaVuSans-72" x="61.523438"/>
      <use xlink:href="#DejaVuSans-72" x="100.886719"/>
      <use xlink:href="#DejaVuSans-6f" x="139.75"/>
      <use xlink:href="#DejaVuSans-72" x="200.931641"/>
     </g>
    </g>
    <g id="line2d_26">
     <path d="M 507.762812 227.18975 
L 517.762812 227.18975 
L 527.762812 227.18975 
" style="fill: none; stroke-dasharray: 12,4.5; stroke-dashoffset: 0; stroke: #ee82ee; stroke-width: 1.5"/>
    </g>
    <g id="text_22">
     <!-- skip -->
     <g transform="translate(535.762812 230.68975) scale(0.1 -0.1)">
      <defs>
       <path id="DejaVuSans-6b" d="M 581 4863 
L 1159 4863 
L 1159 1991 
L 2875 3500 
L 3609 3500 
L 1753 1863 
L 3688 0 
L 2938 0 
L 1159 1709 
L 1159 0 
L 581 0 
L 581 4863 
z
" transform="scale(0.015625)"/>
      </defs>
      <use xlink:href="#DejaVuSans-73"/>
      <use xlink:href="#DejaVuSans-6b" x="52.099609"/>
      <use xlink:href="#DejaVuSans-69" x="110.009766"/>
      <use xlink:href="#DejaVuSans-70" x="137.792969"/>
     </g>
    </g>
   </g>
  </g>
 </g>
 <defs>
  <clipPath id="pcc3242ddfe">
   <rect x="33.2875" y="22.318125" width="535.68" height="352.512"/>
  </clipPath>
 </defs>
</svg>
