<?xml version="1.0" encoding="utf-8" standalone="no"?>
<!DOCTYPE svg PUBLIC "-//W3C//DTD SVG 1.1//EN"
  "http://www.w3.org/Graphics/SVG/1.1/DTD/svg11.dtd">
<svg xmlns:xlink="http://www.w3.org/1999/xlink" width="576.1675pt" height="418.303033pt" viewBox="0 0 576.1675 418.303033" xmlns="http://www.w3.org/2000/svg" version="1.1">
 <metadata>
  <rdf:RDF xmlns:dc="http://purl.org/dc/elements/1.1/" xmlns:cc="http://creativecommons.org/ns#" xmlns:rdf="http://www.w3.org/1999/02/22-rdf-syntax-ns#">
   <cc:Work>
    <dc:type rdf:resource="http://purl.org/dc/dcmitype/StillImage"/>
    <dc:date>2025-10-10T14:03:35.716228</dc:date>
    <dc:format>image/svg+xml</dc:format>
    <dc:creator>
     <cc:Agent>
      <dc:title>Matplotlib v3.6.3, https://matplotlib.org/</dc:title>
     </cc:Agent>
    </dc:creator>
   </cc:Work>
  </rdf:RDF>
 </metadata>
 <defs>
  <style type="text/css">*{stroke-linejoin: round; stroke-linecap: butt}</style>
 </defs>
 <g id="figure_1">
  <g id="patch_1">
   <path d="M -0 418.303033 
L 576.1675 418.303033 
L 576.1675 0 
L -0 0 
z
" style="fill: #ffffff"/>
  </g>
  <g id="axes_1">
   <g id="patch_2">
    <path d="M 33.2875 374.830125 
L 568.9675 374.830125 
L 568.9675 22.318125 
L 33.2875 22.318125 
z
" style="fill: #ffffff"/>
   </g>
   <g id="matplotlib.axis_1">
    <g id="xtick_1">
     <g id="line2d_1">
      <defs>
       <path id="m98858bc8fa" d="M 0 0 
L 0 3.5 
" style="stroke: #000000; stroke-width: 0.8"/>
      </defs>
      <g>
       <use xlink:href="#m98858bc8fa" x="61.492911" y="374.830125" style="stroke: #000000; stroke-width: 0.8"/>
      </g>
     </g>
     <g id="text_1">
      <!-- 2021-07 -->
      <g transform="translate(24.268091 409.301971) rotate(-30) scale(0.1 -0.1)">
       <defs>
        <path id="DejaVuSans-32" d="M 1228 531 
L 3431 531 
L 3431 0 
L 469 0 
L 469 531 
Q 828 903 1448 1529 
Q 2069 2156 2228 2338 
Q 2531 2678 2651 2914 
Q 2772 3150 2772 3378 
Q 2772 3750 2511 3984 
Q 2250 4219 1831 4219 
Q 1534 4219 1204 4116 
Q 875 4013 500 3803 
L 500 4441 
Q 881 4594 1212 4672 
Q 1544 4750 1819 4750 
Q 2544 4750 2975 4387 
Q 3406 4025 3406 3419 
Q 3406 3131 3298 2873 
Q 3191 2616 2906 2266 
Q 2828 2175 2409 1742 
Q 1991 1309 1228 531 
z
" transform="scale(0.015625)"/>
        <path id="DejaVuSans-30" d="M 2034 4250 
Q 1547 4250 1301 3770 
Q 1056 3291 1056 2328 
Q 1056 1369 1301 889 
Q 1547 409 2034 409 
Q 2525 409 2770 889 
Q 3016 1369 3016 2328 
Q 3016 3291 2770 3770 
Q 2525 4250 2034 4250 
z
M 2034 4750 
Q 2819 4750 3233 4129 
Q 3647 3509 3647 2328 
Q 3647 1150 3233 529 
Q 2819 -91 2034 -91 
Q 1250 -91 836 529 
Q 422 1150 422 2328 
Q 422 3509 836 4129 
Q 1250 4750 2034 4750 
z
" transform="scale(0.015625)"/>
        <path id="DejaVuSans-31" d="M 794 531 
L 1825 531 
L 1825 4091 
L 703 3866 
L 703 4441 
L 1819 4666 
L 2450 4666 
L 2450 531 
L 3481 531 
L 3481 0 
L 794 0 
L 794 531 
z
" transform="scale(0.015625)"/>
        <path id="DejaVuSans-2d" d="M 313 2009 
L 1997 2009 
L 1997 1497 
L 313 1497 
L 313 2009 
z
" transform="scale(0.015625)"/>
        <path id="DejaVuSans-37" d="M 525 4666 
L 3525 4666 
L 3525 4397 
L 1831 0 
L 1172 0 
L 2766 4134 
L 525 4134 
L 525 4666 
z
" transform="scale(0.015625)"/>
       </defs>
       <use xlink:href="#DejaVuSans-32"/>
       <use xlink:href="#DejaVuSans-30" x="63.623047"/>
       <use xlink:href="#DejaVuSans-32" x="127.246094"/>
       <use xlink:href="#DejaVuSans-31" x="190.869141"/>
       <use xlink:href="#DejaVuSans-2d" x="254.492188"/>
       <use xlink:href="#DejaVuSans-30" x="290.576172"/>
       <use xlink:href="#DejaVuSans-37" x="354.199219"/>
      </g>
     </g>
    </g>
    <g id="xtick_2">
     <g id="line2d_2">
      <g>
       <use xlink:href="#m98858bc8fa" x="120.634937" y="374.830125" style="stroke: #000000; stroke-width: 0.8"/>
      </g>
     </g>
     <g id="text_2">
      <!-- 2022-01 -->
      <g transform="translate(83.410116 409.301971) rotate(-30) scale(0.1 -0.1)">
       <use xlink:href="#DejaVuSans-32"/>
       <use xlink:href="#DejaVuSans-30" x="63.623047"/>
       <use xlink:href="#DejaVuSans-32" x="127.246094"/>
       <use xlink:href="#DejaVuSans-32" x="190.869141"/>
       <use xlink:href="#DejaVuSans-2d" x="254.492188"/>
       <use xlink:href="#DejaVuSans-30" x="290.576172"/>
       <use xlink:href="#DejaVuSans-31" x="354.199219"/>
      </g>
     </g>
    </g>
    <g id="xtick_3">
     <g id="line2d_3">
      <g>
       <use xlink:href="#m98858bc8fa" x="178.81269" y="374.830125" style="stroke: #000000; stroke-width: 0.8"/>
      </g>
     </g>
     <g id="text_3">
      <!-- 2022-07 -->
      <g transform="translate(141.587869 409.301971) rotate(-30) scale(0.1 -0.1)">
       <use xlink:href="#DejaVuSans-32"/>
       <use xlink:href="#DejaVuSans-30" x="63.623047"/>
       <use xlink:href="#DejaVuSans-32" x="127.246094"/>
       <use xlink:href="#DejaVuSans-32" x="190.869141"/>
       <use xlink:href="#DejaVuSans-2d" x="254.492188"/>
       <use xlink:href="#DejaVuSans-30" x="290.576172"/>
       <use xlink:href="#DejaVuSans-37" x="354.199219"/>
      </g>
     </g>
    </g>
    <g id="xtick_4">
     <g id="line2d_4">
      <g>
       <use xlink:href="#m98858bc8fa" x="237.954715" y="374.830125" style="stroke: #000000; stroke-width: 0.8"/>
      </g>
     </g>
     <g id="text_4">
      <!-- 2023-01 -->
      <g transform="translate(200.729894 409.301971) rotate(-30) scale(0.1 -0.1)">
       <defs>
        <path id="DejaVuSans-33" d="M 2597 2516 
Q 3050 2419 3304 2112 
Q 3559 1806 3559 1356 
Q 3559 666 3084 287 
Q 2609 -91 1734 -91 
Q 1441 -91 1130 -33 
Q 819 25 488 141 
L 488 750 
Q 750 597 1062 519 
Q 1375 441 1716 441 
Q 2309 441 2620 675 
Q 2931 909 2931 1356 
Q 2931 1769 2642 2001 
Q 2353 2234 1838 2234 
L 1294 2234 
L 1294 2753 
L 1863 2753 
Q 2328 2753 2575 2939 
Q 2822 3125 2822 3475 
Q 2822 3834 2567 4026 
Q 2313 4219 1838 4219 
Q 1578 4219 1281 4162 
Q 984 4106 628 3988 
L 628 4550 
Q 988 4650 1302 4700 
Q 1616 4750 1894 4750 
Q 2613 4750 3031 4423 
Q 3450 4097 3450 3541 
Q 3450 3153 3228 2886 
Q 3006 2619 2597 2516 
z
" transform="scale(0.015625)"/>
       </defs>
       <use xlink:href="#DejaVuSans-32"/>
       <use xlink:href="#DejaVuSans-30" x="63.623047"/>
       <use xlink:href="#DejaVuSans-32" x="127.246094"/>
       <use xlink:href="#DejaVuSans-33" x="190.869141"/>
       <use xlink:href="#DejaVuSans-2d" x="254.492188"/>
       <use xlink:href="#DejaVuSans-30" x="290.576172"/>
       <use xlink:href="#DejaVuSans-31" x="354.199219"/>
      </g>
     </g>
    </g>
    <g id="xtick_5">
     <g id="line2d_5">
      <g>
       <use xlink:href="#m98858bc8fa" x="296.132468" y="374.830125" style="stroke: #000000; stroke-width: 0.8"/>
      </g>
     </g>
     <g id="text_5">
      <!-- 2023-07 -->
      <g transform="translate(258.907647 409.301971) rotate(-30) scale(0.1 -0.1)">
       <use xlink:href="#DejaVuSans-32"/>
       <use xlink:href="#DejaVuSans-30" x="63.623047"/>
       <use xlink:href="#DejaVuSans-32" x="127.246094"/>
       <use xlink:href="#DejaVuSans-33" x="190.869141"/>
       <use xlink:href="#DejaVuSans-2d" x="254.492188"/>
       <use xlink:href="#DejaVuSans-30" x="290.576172"/>
       <use xlink:href="#DejaVuSans-37" x="354.199219"/>
      </g>
     </g>
    </g>
    <g id="xtick_6">
     <g id="line2d_6">
      <g>
       <use xlink:href="#m98858bc8fa" x="355.274493" y="374.830125" style="stroke: #000000; stroke-width: 0.8"/>
      </g>
     </g>
     <g id="text_6">
      <!-- 2024-01 -->
      <g transform="translate(318.049672 409.301971) rotate(-30) scale(0.1 -0.1)">
       <defs>
        <path id="DejaVuSans-34" d="M 2419 4116 
L 825 1625 
L 2419 1625 
L 2419 4116 
z
M 2253 4666 
L 3047 4666 
L 3047 1625 
L 3713 1625 
L 3713 1100 
L 3047 1100 
L 3047 0 
L 2419 0 
L 2419 1100 
L 313 1100 
L 313 1709 
L 2253 4666 
z
" transform="scale(0.015625)"/>
       </defs>
       <use xlink:href="#DejaVuSans-32"/>
       <use xlink:href="#DejaVuSans-30" x="63.623047"/>
       <use xlink:href="#DejaVuSans-32" x="127.246094"/>
       <use xlink:href="#DejaVuSans-34" x="190.869141"/>
       <use xlink:href="#DejaVuSans-2d" x="254.492188"/>
       <use xlink:href="#DejaVuSans-30" x="290.576172"/>
       <use xlink:href="#DejaVuSans-31" x="354.199219"/>
      </g>
     </g>
    </g>
    <g id="xtick_7">
     <g id="line2d_7">
      <g>
       <use xlink:href="#m98858bc8fa" x="413.77367" y="374.830125" style="stroke: #000000; stroke-width: 0.8"/>
      </g>
     </g>
     <g id="text_7">
      <!-- 2024-07 -->
      <g transform="translate(376.54885 409.301971) rotate(-30) scale(0.1 -0.1)">
       <use xlink:href="#DejaVuSans-32"/>
       <use xlink:href="#DejaVuSans-30" x="63.623047"/>
       <use xlink:href="#DejaVuSans-32" x="127.246094"/>
       <use xlink:href="#DejaVuSans-34" x="190.869141"/>
       <use xlink:href="#DejaVuSans-2d" x="254.492188"/>
       <use xlink:href="#DejaVuSans-30" x="290.576172"/>
       <use xlink:href="#DejaVuSans-37" x="354.199219"/>
      </g>
     </g>
    </g>
    <g id="xtick_8">
     <g id="line2d_8">
      <g>
       <use xlink:href="#m98858bc8fa" x="472.915696" y="374.830125" style="stroke: #000000; stroke-width: 0.8"/>
      </g>
     </g>
     <g id="text_8">
      <!-- 2025-01 -->
      <g transform="translate(435.690875 409.301971) rotate(-30) scale(0.1 -0.1)">
       <defs>
        <path id="DejaVuSans-35" d="M 691 4666 
L 3169 4666 
L 3169 4134 
L 1269 4134 
L 1269 2991 
Q 1406 3038 1543 3061 
Q 1681 3084 1819 3084 
Q 2600 3084 3056 2656 
Q 3513 2228 3513 1497 
Q 3513 744 3044 326 
Q 2575 -91 1722 -91 
Q 1428 -91 1123 -41 
Q 819 9 494 109 
L 494 744 
Q 775 591 1075 516 
Q 1375 441 1709 441 
Q 2250 441 2565 725 
Q 2881 1009 2881 1497 
Q 2881 1984 2565 2268 
Q 2250 2553 1709 2553 
Q 1456 2553 1204 2497 
Q 953 2441 691 2322 
L 691 4666 
z
" transform="scale(0.015625)"/>
       </defs>
       <use xlink:href="#DejaVuSans-32"/>
       <use xlink:href="#DejaVuSans-30" x="63.623047"/>
       <use xlink:href="#DejaVuSans-32" x="127.246094"/>
       <use xlink:href="#DejaVuSans-35" x="190.869141"/>
       <use xlink:href="#DejaVuSans-2d" x="254.492188"/>
       <use xlink:href="#DejaVuSans-30" x="290.576172"/>
       <use xlink:href="#DejaVuSans-31" x="354.199219"/>
      </g>
     </g>
    </g>
    <g id="xtick_9">
     <g id="line2d_9">
      <g>
       <use xlink:href="#m98858bc8fa" x="531.093449" y="374.830125" style="stroke: #000000; stroke-width: 0.8"/>
      </g>
     </g>
     <g id="text_9">
      <!-- 2025-07 -->
      <g transform="translate(493.868628 409.301971) rotate(-30) scale(0.1 -0.1)">
       <use xlink:href="#DejaVuSans-32"/>
       <use xlink:href="#DejaVuSans-30" x="63.623047"/>
       <use xlink:href="#DejaVuSans-32" x="127.246094"/>
       <use xlink:href="#DejaVuSans-35" x="190.869141"/>
       <use xlink:href="#DejaVuSans-2d" x="254.492188"/>
       <use xlink:href="#DejaVuSans-30" x="290.576172"/>
       <use xlink:href="#DejaVuSans-37" x="354.199219"/>
      </g>
     </g>
    </g>
   </g>
   <g id="matplotlib.axis_2">
    <g id="ytick_1">
     <g id="line2d_10">
      <defs>
       <path id="mc40f7e4c5a" d="M 0 0 
L -3.5 0 
" style="stroke: #000000; stroke-width: 0.8"/>
      </defs>
      <g>
       <use xlink:href="#mc40f7e4c5a" x="33.2875" y="374.830125" style="stroke: #000000; stroke-width: 0.8"/>
      </g>
     </g>
     <g id="text_10">
      <!-- 0 -->
      <g transform="translate(19.925 378.629344) scale(0.1 -0.1)">
       <use xlink:href="#DejaVuSans-30"/>
      </g>
     </g>
    </g>
    <g id="ytick_2">
     <g id="line2d_11">
      <g>
       <use xlink:href="#mc40f7e4c5a" x="33.2875" y="319.779371" style="stroke: #000000; stroke-width: 0.8"/>
      </g>
     </g>
     <g id="text_11">
      <!-- 100 -->
      <g transform="translate(7.2 323.578589) scale(0.1 -0.1)">
       <use xlink:href="#DejaVuSans-31"/>
       <use xlink:href="#DejaVuSans-30" x="63.623047"/>
       <use xlink:href="#DejaVuSans-30" x="127.246094"/>
      </g>
     </g>
    </g>
    <g id="ytick_3">
     <g id="line2d_12">
      <g>
       <use xlink:href="#mc40f7e4c5a" x="33.2875" y="264.728616" style="stroke: #000000; stroke-width: 0.8"/>
      </g>
     </g>
     <g id="text_12">
      <!-- 200 -->
      <g transform="translate(7.2 268.527835) scale(0.1 -0.1)">
       <use xlink:href="#DejaVuSans-32"/>
       <use xlink:href="#DejaVuSans-30" x="63.623047"/>
       <use xlink:href="#DejaVuSans-30" x="127.246094"/>
      </g>
     </g>
    </g>
    <g id="ytick_4">
     <g id="line2d_13">
      <g>
       <use xlink:href="#mc40f7e4c5a" x="33.2875" y="209.677862" style="stroke: #000000; stroke-width: 0.8"/>
      </g>
     </g>
     <g id="text_13">
      <!-- 300 -->
      <g transform="translate(7.2 213.477081) scale(0.1 -0.1)">
       <use xlink:href="#DejaVuSans-33"/>
       <use xlink:href="#DejaVuSans-30" x="63.623047"/>
       <use xlink:href="#DejaVuSans-30" x="127.246094"/>
      </g>
     </g>
    </g>
    <g id="ytick_5">
     <g id="line2d_14">
      <g>
       <use xlink:href="#mc40f7e4c5a" x="33.2875" y="154.627108" style="stroke: #000000; stroke-width: 0.8"/>
      </g>
     </g>
     <g id="text_14">
      <!-- 400 -->
      <g transform="translate(7.2 158.426327) scale(0.1 -0.1)">
       <use xlink:href="#DejaVuSans-34"/>
       <use xlink:href="#DejaVuSans-30" x="63.623047"/>
       <use xlink:href="#DejaVuSans-30" x="127.246094"/>
      </g>
     </g>
    </g>
    <g id="ytick_6">
     <g id="line2d_15">
      <g>
       <use xlink:href="#mc40f7e4c5a" x="33.2875" y="99.576354" style="stroke: #000000; stroke-width: 0.8"/>
      </g>
     </g>
     <g id="text_15">
      <!-- 500 -->
      <g transform="translate(7.2 103.375572) scale(0.1 -0.1)">
       <use xlink:href="#DejaVuSans-35"/>
       <use xlink:href="#DejaVuSans-30" x="63.623047"/>
       <use xlink:href="#DejaVuSans-30" x="127.246094"/>
      </g>
     </g>
    </g>
    <g id="ytick_7">
     <g id="line2d_16">
      <g>
       <use xlink:href="#mc40f7e4c5a" x="33.2875" y="44.525599" style="stroke: #000000; stroke-width: 0.8"/>
      </g>
     </g>
     <g id="text_16">
      <!-- 600 -->
      <g transform="translate(7.2 48.324818) scale(0.1 -0.1)">
       <defs>
        <path id="DejaVuSans-36" d="M 2113 2584 
Q 1688 2584 1439 2293 
Q 1191 2003 1191 1497 
Q 1191 994 1439 701 
Q 1688 409 2113 409 
Q 2538 409 2786 701 
Q 3034 994 3034 1497 
Q 3034 2003 2786 2293 
Q 2538 2584 2113 2584 
z
M 3366 4563 
L 3366 3988 
Q 3128 4100 2886 4159 
Q 2644 4219 2406 4219 
Q 1781 4219 1451 3797 
Q 1122 3375 1075 2522 
Q 1259 2794 1537 2939 
Q 1816 3084 2150 3084 
Q 2853 3084 3261 2657 
Q 3669 2231 3669 1497 
Q 3669 778 3244 343 
Q 2819 -91 2113 -91 
Q 1303 -91 875 529 
Q 447 1150 447 2328 
Q 447 3434 972 4092 
Q 1497 4750 2381 4750 
Q 2619 4750 2861 4703 
Q 3103 4656 3366 4563 
z
" transform="scale(0.015625)"/>
       </defs>
       <use xlink:href="#DejaVuSans-36"/>
       <use xlink:href="#DejaVuSans-30" x="63.623047"/>
       <use xlink:href="#DejaVuSans-30" x="127.246094"/>
      </g>
     </g>
    </g>
   </g>
   <g id="line2d_17">
    <path d="M 38.539265 31.313418 
L 48.096846 31.313418 
L 48.20504 34.616464 
L 49.543161 34.616464 
L 50.032991 43.975092 
L 128.992486 43.975092 
L 129.38561 38.470016 
L 142.524952 38.470016 
L 143.296794 39.020524 
L 149.458809 39.020524 
L 149.674301 50.030675 
L 155.923287 50.030675 
L 157.218324 48.379152 
L 264.275409 48.379152 
L 264.580319 44.525599 
L 272.970978 44.525599 
L 273.270453 43.424584 
L 315.385025 43.424584 
L 315.594754 42.323569 
L 383.650374 42.323569 
L 383.845338 37.919509 
L 435.440025 37.919509 
L 435.528762 37.369001 
L 474.937955 37.369001 
L 475.300123 36.818494 
L 478.884908 36.818494 
L 479.003854 34.616464 
L 480.44248 34.616464 
L 480.816276 35.166971 
L 505.683884 35.166971 
L 505.990885 34.616464 
L 558.351134 34.616464 
L 558.529878 25.808343 
L 563.715735 25.808343 
L 563.715735 25.808343 
" clip-path="url(#pa1339e85ab)" style="fill: none; stroke: #0000ff; stroke-width: 1.5; stroke-linecap: square"/>
   </g>
   <g id="line2d_18">
    <path d="M 38.539265 172.243349 
L 39.853309 171.142334 
L 41.163112 172.243349 
L 44.264854 172.243349 
L 47.684895 173.344364 
L 47.938612 172.793857 
L 48.096846 172.793857 
L 48.20504 176.096902 
L 48.45475 175.546394 
L 48.824079 176.096902 
L 49.543161 176.096902 
L 49.943654 188.208068 
L 50.032991 185.45553 
L 50.240867 188.758576 
L 50.306975 188.208068 
L 50.539918 188.208068 
L 50.912539 188.758576 
L 51.80935 188.758576 
L 51.83612 189.309083 
L 52.322248 189.309083 
L 52.528019 188.758576 
L 53.129625 192.612128 
L 53.199114 192.061621 
L 53.494523 192.612128 
L 54.065959 194.263651 
L 54.45355 193.162636 
L 55.066186 193.162636 
L 55.408559 194.263651 
L 55.640006 194.263651 
L 56.337288 194.814158 
L 56.650178 194.814158 
L 56.990415 195.915174 
L 57.294656 195.364666 
L 57.632501 196.465681 
L 57.983537 198.667711 
L 59.340877 199.768726 
L 59.917253 199.768726 
L 60.164147 200.319234 
L 60.557523 200.319234 
L 60.847128 200.869741 
L 61.142131 200.319234 
L 61.471044 200.319234 
L 61.663657 200.869741 
L 64.995827 200.869741 
L 65.332132 201.420249 
L 65.6544 201.420249 
L 65.779533 200.869741 
L 66.575455 201.420249 
L 66.90904 200.869741 
L 67.828767 200.869741 
L 68.124053 201.420249 
L 68.487091 200.869741 
L 70.161089 200.869741 
L 70.504068 201.420249 
L 70.692328 203.071772 
L 71.150532 201.970757 
L 72.215982 201.970757 
L 72.744598 202.521264 
L 73.064225 202.521264 
L 73.374653 203.071772 
L 73.72114 203.071772 
L 74.039271 202.521264 
L 74.343263 204.172787 
L 74.613147 204.172787 
L 75.346902 205.273802 
L 79.199333 205.273802 
L 79.505575 206.374817 
L 80.158255 206.374817 
L 80.447946 206.925324 
L 81.419562 206.925324 
L 82.349616 209.127355 
L 83.33817 209.127355 
L 83.692238 209.677862 
L 89.664773 209.677862 
L 90.381806 210.778877 
L 90.544236 209.677862 
L 91.694376 209.677862 
L 92.006701 210.22837 
L 92.351287 209.677862 
L 93.171145 209.677862 
L 93.623996 210.22837 
L 93.960178 209.677862 
L 99.037353 209.677862 
L 99.314809 214.63243 
L 99.507172 209.677862 
L 101.347146 209.677862 
L 101.681163 210.22837 
L 101.871815 215.182938 
L 102.322177 210.22837 
L 102.640257 210.22837 
L 102.851403 209.677862 
L 106.18283 209.677862 
L 106.351536 210.22837 
L 106.654292 210.22837 
L 107.152898 211.879892 
L 112.178326 211.879892 
L 113.275107 212.4304 
L 120.024815 212.4304 
L 120.305879 214.63243 
L 120.665025 214.63243 
L 120.983499 212.4304 
L 121.311158 212.4304 
L 121.536933 214.63243 
L 121.781628 212.4304 
L 122.188274 214.63243 
L 122.548481 215.733445 
L 126.725223 215.733445 
L 127.085728 216.283953 
L 128.992486 216.283953 
L 129.38561 210.22837 
L 129.666432 210.778877 
L 129.983849 212.4304 
L 130.375722 212.4304 
L 130.901157 213.531415 
L 131.263779 213.531415 
L 131.53107 214.081922 
L 131.890106 211.879892 
L 134.5189 217.384968 
L 134.787319 215.733445 
L 135.237387 215.182938 
L 136.66685 215.182938 
L 137.033534 214.63243 
L 137.356885 213.531415 
L 138.651368 213.531415 
L 138.888047 212.4304 
L 139.304343 213.531415 
L 140.244478 213.531415 
L 140.564433 214.63243 
L 140.873056 214.63243 
L 141.238568 215.182938 
L 141.386062 215.182938 
L 141.550904 216.83446 
L 141.77436 216.83446 
L 142.524952 217.384968 
L 143.145141 216.283953 
L 143.296794 216.283953 
L 143.78297 216.83446 
L 144.094904 217.935475 
L 145.706924 217.935475 
L 146.018166 218.485983 
L 146.352395 218.485983 
L 146.661832 219.03649 
L 146.951706 219.03649 
L 147.625271 219.586998 
L 147.973138 219.586998 
L 148.320031 221.238521 
L 148.525132 221.238521 
L 148.885666 220.688013 
L 149.458809 220.688013 
L 149.674301 222.339536 
L 150.205878 222.339536 
L 150.520822 223.440551 
L 150.941434 223.440551 
L 151.15809 223.991058 
L 151.63453 223.991058 
L 151.68194 224.541566 
L 151.923261 224.541566 
L 152.432484 225.092073 
L 153.590544 228.395119 
L 155.034025 228.395119 
L 155.328306 229.496134 
L 155.439116 228.945626 
L 155.567436 228.945626 
L 155.923287 228.395119 
L 157.218324 226.743596 
L 160.45835 226.743596 
L 160.833787 226.193088 
L 162.401946 226.193088 
L 162.625131 225.642581 
L 165.561793 225.642581 
L 166.073977 226.193088 
L 166.468436 226.193088 
L 166.896682 226.743596 
L 167.112162 226.193088 
L 169.176531 226.193088 
L 169.828032 227.294104 
L 171.214571 227.294104 
L 171.448013 235.001209 
L 171.711175 235.001209 
L 173.95387 236.652732 
L 174.091685 236.102224 
L 174.235459 236.652732 
L 174.608645 236.102224 
L 174.92168 236.102224 
L 175.251151 236.652732 
L 175.498566 236.652732 
L 175.895781 237.753747 
L 176.059142 237.753747 
L 176.210327 237.203239 
L 176.549187 238.304254 
L 178.802076 238.304254 
L 179.021247 238.854762 
L 180.233179 238.854762 
L 180.715713 238.304254 
L 181.077237 241.056792 
L 181.334611 239.405269 
L 181.670283 239.405269 
L 181.939338 242.708315 
L 182.127591 242.157807 
L 182.327994 242.708315 
L 182.42893 242.157807 
L 182.55247 243.80933 
L 182.872752 243.80933 
L 183.278557 244.359837 
L 184.073352 243.80933 
L 184.254328 244.910345 
L 184.550094 244.910345 
L 184.759544 243.258822 
L 185.47052 244.910345 
L 186.177474 245.460852 
L 186.798344 245.460852 
L 187.124046 247.112375 
L 187.423424 247.112375 
L 187.600758 246.561868 
L 187.912004 246.561868 
L 189.115796 248.763898 
L 189.31656 247.662883 
L 189.703009 247.112375 
L 190.156269 248.763898 
L 191.374607 248.763898 
L 191.478907 249.314405 
L 191.964365 249.864913 
L 193.25848 249.864913 
L 193.850837 252.61745 
L 197.179596 252.61745 
L 197.44245 253.167958 
L 197.788159 252.066943 
L 197.989425 253.167958 
L 201.618444 253.167958 
L 201.921654 253.718466 
L 202.652853 257.021511 
L 202.927176 255.369988 
L 203.254094 255.920496 
L 203.616087 255.369988 
L 203.870823 255.369988 
L 204.256807 253.718466 
L 204.463776 253.718466 
L 204.503947 254.268973 
L 205.155236 254.268973 
L 205.521815 250.965928 
L 205.845007 250.965928 
L 206.817229 251.516435 
L 206.878746 250.965928 
L 207.406618 250.41542 
L 207.485021 250.965928 
L 210.028553 250.965928 
L 210.205537 251.516435 
L 210.680214 252.066943 
L 211.31407 253.167958 
L 211.478934 254.268973 
L 211.701717 254.268973 
L 211.95129 255.369988 
L 212.251777 254.819481 
L 212.588238 254.819481 
L 212.841761 254.268973 
L 213.199167 254.819481 
L 213.518091 254.819481 
L 213.82376 255.369988 
L 214.0712 255.369988 
L 214.536975 254.819481 
L 214.779118 255.369988 
L 215.029736 254.819481 
L 215.757516 250.41542 
L 216.457588 251.516435 
L 216.559941 255.369988 
L 216.715992 255.369988 
L 217.001527 255.920496 
L 217.333253 255.369988 
L 217.636117 255.369988 
L 218.009203 254.819481 
L 218.332353 255.920496 
L 219.498639 255.920496 
L 219.962141 256.471003 
L 220.227025 256.471003 
L 220.247579 257.021511 
L 221.569134 257.021511 
L 221.945375 258.122526 
L 223.794475 258.122526 
L 224.163086 259.223541 
L 225.418306 259.223541 
L 227.704974 258.673033 
L 227.917103 259.223541 
L 228.489219 259.223541 
L 228.970622 259.774049 
L 229.293099 260.875064 
L 229.389527 260.324556 
L 229.740035 261.425571 
L 230.519771 261.425571 
L 233.677833 262.526586 
L 241.484025 262.526586 
L 241.801997 261.976079 
L 243.328188 261.976079 
L 243.644538 262.526586 
L 244.692872 262.526586 
L 245.054693 263.077094 
L 245.314864 262.526586 
L 245.616809 263.077094 
L 245.950904 262.526586 
L 246.225112 263.627601 
L 246.64508 263.077094 
L 246.951512 263.627601 
L 253.61243 263.627601 
L 253.956506 262.526586 
L 254.321017 263.077094 
L 254.650682 262.526586 
L 255.01994 262.526586 
L 255.316074 261.976079 
L 256.551983 261.976079 
L 256.865803 262.526586 
L 257.220277 261.976079 
L 257.543223 260.875064 
L 258.183582 260.875064 
L 258.544872 260.324556 
L 258.815229 261.425571 
L 259.163014 261.425571 
L 259.431708 260.875064 
L 260.279762 261.976079 
L 260.775878 261.425571 
L 261.070632 261.976079 
L 261.697722 261.976079 
L 262.051649 261.425571 
L 262.399185 263.077094 
L 262.733686 262.526586 
L 263.375871 262.526586 
L 263.620667 261.976079 
L 263.933743 262.526586 
L 264.275409 262.526586 
L 264.580319 257.572018 
L 264.701455 258.122526 
L 264.941065 258.122526 
L 265.107982 258.673033 
L 265.253457 258.673033 
L 265.444987 259.223541 
L 265.574784 258.122526 
L 266.215582 259.223541 
L 266.76614 259.223541 
L 267.033882 260.324556 
L 267.299231 259.223541 
L 267.471989 259.774049 
L 268.446008 259.774049 
L 268.735971 259.223541 
L 269.010963 259.223541 
L 269.35652 259.774049 
L 269.676054 259.774049 
L 270.054836 259.223541 
L 270.420367 259.774049 
L 270.703983 259.774049 
L 271.150304 260.875064 
L 272.970978 260.875064 
L 273.270453 259.223541 
L 274.681527 259.223541 
L 275.0056 259.774049 
L 275.260522 260.324556 
L 275.759637 260.324556 
L 275.915353 261.425571 
L 275.986784 260.875064 
L 276.155669 261.425571 
L 276.630707 261.425571 
L 276.86358 262.526586 
L 277.497641 262.526586 
L 277.793611 263.627601 
L 278.772426 263.627601 
L 279.007162 265.279124 
L 279.223766 265.829632 
L 279.348768 265.829632 
L 279.770432 266.380139 
L 279.918842 265.829632 
L 279.990764 266.380139 
L 280.454389 266.380139 
L 280.998875 266.930647 
L 282.22042 266.930647 
L 282.535464 266.380139 
L 282.837331 266.930647 
L 283.177613 266.930647 
L 283.340695 267.481154 
L 283.37992 266.930647 
L 283.573482 267.481154 
L 283.724871 267.481154 
L 283.874374 268.582169 
L 284.450054 269.683184 
L 284.869252 269.132677 
L 285.187964 269.683184 
L 285.814522 269.683184 
L 286.154584 270.784199 
L 286.279076 270.233692 
L 286.48132 271.885214 
L 286.767905 271.334707 
L 286.953769 271.885214 
L 287.100731 271.334707 
L 287.263132 272.435722 
L 287.594143 272.435722 
L 287.692181 272.98623 
L 288.080531 272.435722 
L 288.380888 273.536737 
L 289.058535 273.536737 
L 289.302475 274.637752 
L 289.648482 273.536737 
L 289.883549 273.536737 
L 289.969731 274.087245 
L 290.602163 274.087245 
L 290.897992 276.289275 
L 291.32344 274.087245 
L 291.389402 274.637752 
L 291.949592 274.087245 
L 292.002638 275.18826 
L 292.19531 275.18826 
L 292.583556 275.738767 
L 292.898637 275.18826 
L 293.136673 275.18826 
L 293.488919 276.289275 
L 293.872135 276.289275 
L 294.243759 275.738767 
L 294.521501 276.289275 
L 294.69026 275.738767 
L 294.858107 276.839782 
L 296.345389 276.839782 
L 296.802503 277.39029 
L 297.73582 277.39029 
L 298.066976 276.289275 
L 298.691111 276.289275 
L 299.003488 276.839782 
L 301.845248 276.839782 
L 302.228762 276.289275 
L 302.588259 277.39029 
L 306.949436 277.39029 
L 307.90616 277.940797 
L 308.4744 277.940797 
L 308.935889 278.491305 
L 309.30059 278.491305 
L 309.514899 279.041813 
L 314.369325 279.041813 
L 314.763608 278.491305 
L 315.076204 279.041813 
L 315.385025 278.491305 
L 315.594754 275.18826 
L 317.512532 275.18826 
L 317.683642 275.738767 
L 318.015322 275.738767 
L 318.125008 275.18826 
L 320.110178 275.18826 
L 320.385575 275.738767 
L 320.489655 275.18826 
L 320.961378 275.18826 
L 321.17943 276.289275 
L 321.454292 275.18826 
L 321.659505 276.289275 
L 321.805157 276.289275 
L 321.993016 275.18826 
L 322.157314 276.289275 
L 322.262603 275.18826 
L 322.305009 276.289275 
L 323.434982 276.289275 
L 323.614351 276.839782 
L 323.640656 277.39029 
L 324.216065 277.39029 
L 324.249978 277.940797 
L 324.581517 277.940797 
L 324.753189 278.491305 
L 324.899556 277.940797 
L 325.079371 278.491305 
L 325.200973 277.940797 
L 325.486173 278.491305 
L 325.606789 277.940797 
L 325.623329 278.491305 
L 325.984842 278.491305 
L 326.211353 279.041813 
L 326.354215 279.041813 
L 326.568156 280.142828 
L 326.805541 280.693335 
L 326.96949 280.142828 
L 328.795576 280.142828 
L 329.056674 280.693335 
L 330.456167 280.693335 
L 330.679411 281.243843 
L 330.9745 281.243843 
L 331.19347 281.79435 
L 331.314161 281.243843 
L 331.893185 281.243843 
L 332.088588 282.344858 
L 332.620444 282.344858 
L 332.671519 282.895365 
L 332.745733 282.344858 
L 332.860545 282.344858 
L 333.066528 283.445873 
L 333.281041 283.99638 
L 333.340996 283.445873 
L 333.584158 285.647903 
L 334.568966 285.647903 
L 334.667971 286.198411 
L 334.883716 286.198411 
L 335.010098 287.299426 
L 335.158422 286.198411 
L 336.465792 286.198411 
L 336.541442 286.748918 
L 336.792209 286.198411 
L 336.912274 286.748918 
L 337.134261 286.198411 
L 337.422613 286.198411 
L 337.59944 287.299426 
L 337.921776 287.299426 
L 338.053995 286.748918 
L 338.167278 287.849933 
L 338.501838 286.198411 
L 338.852433 287.299426 
L 339.106406 286.198411 
L 339.700936 286.198411 
L 340.163631 287.849933 
L 340.307606 287.299426 
L 340.467049 287.849933 
L 340.897277 286.748918 
L 341.035039 287.849933 
L 342.056063 287.849933 
L 342.22064 288.400441 
L 342.507441 288.400441 
L 342.660329 287.849933 
L 342.853288 288.400441 
L 342.975299 287.849933 
L 343.346979 288.950948 
L 343.854427 288.950948 
L 344.212312 290.051963 
L 345.762391 290.051963 
L 345.931868 290.602471 
L 346.139172 290.051963 
L 346.241741 290.602471 
L 346.453096 290.051963 
L 346.733799 290.051963 
L 346.914853 290.602471 
L 347.033899 290.051963 
L 347.4129 290.051963 
L 347.530127 290.602471 
L 348.061496 290.602471 
L 348.097314 291.703486 
L 350.369949 291.703486 
L 350.59415 292.253994 
L 350.741309 291.703486 
L 350.865984 292.253994 
L 350.960685 291.703486 
L 351.074281 292.804501 
L 351.597666 292.804501 
L 351.844556 293.355009 
L 351.894593 292.804501 
L 351.945857 293.355009 
L 352.227788 292.804501 
L 352.300651 293.355009 
L 352.576361 293.905516 
L 352.684351 294.456024 
L 352.890509 294.456024 
L 352.937911 295.006531 
L 353.22495 296.658054 
L 353.354144 296.107546 
L 353.528513 296.107546 
L 353.559927 297.208561 
L 354.785021 297.208561 
L 354.937184 297.759069 
L 355.177188 297.208561 
L 355.592919 297.759069 
L 355.70403 297.208561 
L 355.885924 297.759069 
L 356.10947 297.759069 
L 356.2425 298.309577 
L 356.552355 298.309577 
L 356.559951 298.860084 
L 356.655467 298.309577 
L 356.747028 299.410592 
L 356.882357 299.410592 
L 357.069687 299.961099 
L 358.354744 299.961099 
L 358.388657 299.410592 
L 358.469556 300.511607 
L 358.80845 300.511607 
L 358.981524 299.961099 
L 359.114752 300.511607 
L 359.315333 299.961099 
L 359.465617 300.511607 
L 359.634465 300.511607 
L 359.779553 299.961099 
L 359.923412 301.612622 
L 361.645564 301.612622 
L 362.163451 302.713637 
L 362.436059 302.163129 
L 368.941589 302.163129 
L 369.052041 302.713637 
L 369.249594 302.163129 
L 369.306532 302.713637 
L 369.896836 302.713637 
L 370.060293 303.264144 
L 370.888786 303.264144 
L 370.999484 303.814652 
L 371.15552 303.264144 
L 372.424646 303.264144 
L 372.600682 303.814652 
L 372.822368 303.264144 
L 372.944773 303.264144 
L 373.139841 304.36516 
L 373.24715 303.814652 
L 373.722779 303.814652 
L 373.930019 304.36516 
L 374.905508 304.36516 
L 375.064412 303.264144 
L 375.386394 304.36516 
L 377.118825 304.36516 
L 377.296449 304.915667 
L 377.455134 304.915667 
L 377.626031 305.466175 
L 377.753768 305.466175 
L 377.911887 306.016682 
L 378.281841 306.016682 
L 378.347379 306.56719 
L 378.65579 306.56719 
L 378.850601 305.466175 
L 379.00272 306.016682 
L 379.23557 306.016682 
L 379.330516 306.56719 
L 379.686739 306.56719 
L 380.005347 307.117697 
L 380.352771 308.76922 
L 380.46652 308.218712 
L 380.572433 308.76922 
L 380.815536 309.319727 
L 380.930814 308.76922 
L 381.24024 309.319727 
L 381.44488 308.76922 
L 381.612013 308.76922 
L 381.939445 310.420742 
L 382.255014 309.870235 
L 382.581825 310.97125 
L 382.645998 310.420742 
L 382.858406 310.97125 
L 383.005487 310.420742 
L 383.126743 310.97125 
L 383.650374 310.97125 
L 383.845338 303.264144 
L 384.366037 304.36516 
L 384.709838 304.36516 
L 384.830093 304.915667 
L 385.017401 304.36516 
L 385.13763 304.36516 
L 385.279893 303.814652 
L 385.44347 304.36516 
L 385.668162 304.36516 
L 385.778718 303.814652 
L 385.919181 304.36516 
L 386.110752 303.814652 
L 386.186049 304.36516 
L 386.584239 304.915667 
L 386.876839 303.814652 
L 387.141917 304.36516 
L 388.319586 304.36516 
L 388.599021 304.915667 
L 388.892417 304.36516 
L 389.420162 304.36516 
L 389.824759 305.466175 
L 389.963536 303.814652 
L 390.197116 304.36516 
L 390.494879 303.814652 
L 390.63109 305.466175 
L 390.795545 304.36516 
L 390.950967 304.36516 
L 391.054474 304.915667 
L 391.131719 307.117697 
L 391.145585 306.56719 
L 391.488251 307.117697 
L 392.334013 307.117697 
L 392.734093 308.218712 
L 392.899131 307.668205 
L 393.491623 307.668205 
L 393.653057 307.117697 
L 393.825595 307.668205 
L 394.014849 307.668205 
L 394.12603 307.117697 
L 394.464273 307.668205 
L 394.662979 307.668205 
L 394.793249 308.218712 
L 394.952573 307.668205 
L 395.123739 307.668205 
L 395.284146 307.117697 
L 395.383509 307.668205 
L 396.277045 307.668205 
L 396.500591 309.319727 
L 396.77087 308.76922 
L 396.994409 308.76922 
L 397.175381 308.218712 
L 397.257664 308.76922 
L 397.537987 308.218712 
L 397.642785 308.76922 
L 397.889738 308.76922 
L 397.986351 309.319727 
L 398.281474 308.76922 
L 398.889616 308.76922 
L 399.115082 309.319727 
L 399.490668 309.319727 
L 399.585369 309.870235 
L 399.745426 309.319727 
L 400.119588 310.420742 
L 400.230918 310.420742 
L 400.396035 310.97125 
L 400.548243 310.97125 
L 400.834634 311.521758 
L 403.164259 311.521758 
L 403.412443 312.072265 
L 403.64516 312.072265 
L 403.69254 310.97125 
L 403.751218 311.521758 
L 404.130893 311.521758 
L 404.217555 312.072265 
L 404.717131 312.072265 
L 404.955718 312.622773 
L 405.27616 312.622773 
L 405.286818 312.072265 
L 405.393342 312.622773 
L 405.491305 312.072265 
L 406.886647 312.072265 
L 407.14828 311.521758 
L 407.878117 312.072265 
L 409.391615 312.072265 
L 409.457105 312.622773 
L 411.045286 312.622773 
L 411.188346 313.17328 
L 412.65709 315.925818 
L 412.796292 315.925818 
L 412.941521 316.476325 
L 413.006196 315.925818 
L 413.318963 316.476325 
L 413.609543 317.026833 
L 413.957061 317.026833 
L 414.073763 317.577341 
L 414.512942 317.577341 
L 415.149042 317.026833 
L 415.181087 318.678356 
L 415.693029 318.678356 
L 415.851699 318.127848 
L 415.966947 318.678356 
L 417.143095 318.678356 
L 417.416127 318.127848 
L 418.677459 318.127848 
L 419.45631 318.678356 
L 421.029636 318.678356 
L 421.804368 319.228863 
L 421.907983 319.779371 
L 424.237969 319.779371 
L 424.456861 319.228863 
L 425.639698 319.228863 
L 426.503376 318.678356 
L 427.13275 318.678356 
L 427.445081 319.228863 
L 427.722373 320.329878 
L 427.887467 320.329878 
L 427.893911 319.779371 
L 429.745767 319.779371 
L 429.944518 320.329878 
L 434.622815 320.329878 
L 435.212695 320.880386 
L 435.440025 320.880386 
L 435.528762 321.430893 
L 435.817884 321.430893 
L 435.939303 320.880386 
L 436.127523 321.430893 
L 437.184319 321.430893 
L 437.655384 321.981401 
L 437.982604 323.082416 
L 440.848438 323.082416 
L 441.352851 322.531908 
L 441.498794 323.082416 
L 441.646429 322.531908 
L 441.812394 323.082416 
L 442.598399 323.082416 
L 442.960786 322.531908 
L 443.144678 323.082416 
L 443.65174 321.981401 
L 443.849363 323.082416 
L 445.076426 323.082416 
L 445.090942 323.632924 
L 447.035569 323.632924 
L 447.981069 324.183431 
L 448.264811 323.632924 
L 448.791987 323.632924 
L 448.919783 324.183431 
L 449.370227 322.531908 
L 449.667626 323.082416 
L 450.067442 322.531908 
L 450.363587 322.531908 
L 450.498083 323.082416 
L 451.314563 323.082416 
L 452.28468 322.531908 
L 452.430701 323.082416 
L 453.396018 323.082416 
L 453.709429 322.531908 
L 458.622567 323.082416 
L 458.990445 322.531908 
L 459.30838 323.082416 
L 459.593271 322.531908 
L 459.625146 323.082416 
L 459.873171 323.632924 
L 460.016811 323.632924 
L 460.148204 324.183431 
L 462.432491 324.183431 
L 462.481166 324.733939 
L 462.765105 324.733939 
L 463.523264 324.183431 
L 463.547382 324.733939 
L 463.838673 324.183431 
L 463.909472 325.284446 
L 464.096962 325.284446 
L 464.477336 325.834954 
L 465.114771 325.834954 
L 465.501827 325.284446 
L 465.937018 326.385461 
L 465.954867 326.935969 
L 466.377625 327.486476 
L 466.688558 326.935969 
L 467.12577 326.935969 
L 467.216657 327.486476 
L 468.212123 327.486476 
L 468.349261 326.935969 
L 468.517149 328.036984 
L 468.655525 328.036984 
L 468.918151 327.486476 
L 469.156998 328.036984 
L 469.689632 328.036984 
L 469.924209 329.137999 
L 471.597198 329.137999 
L 471.797211 329.688506 
L 471.919683 329.688506 
L 472.121209 329.137999 
L 472.173184 329.688506 
L 472.707008 329.688506 
L 472.814376 330.239014 
L 473.10599 330.239014 
L 473.189282 331.340029 
L 473.64426 331.340029 
L 473.815207 332.991552 
L 474.17115 332.991552 
L 474.379325 332.441044 
L 474.491789 332.991552 
L 474.643182 332.991552 
L 474.654745 334.643074 
L 474.937955 334.643074 
L 475.300123 334.092567 
L 475.464425 334.092567 
L 475.60478 334.643074 
L 475.953822 334.643074 
L 476.315514 334.092567 
L 476.352716 335.193582 
L 476.672964 335.193582 
L 476.731996 335.744089 
L 476.955136 336.294597 
L 477.544604 336.294597 
L 477.631243 337.395612 
L 477.884212 337.395612 
L 478.032521 337.94612 
L 478.174833 337.94612 
L 478.685175 338.496627 
L 478.884908 337.94612 
L 479.003854 330.239014 
L 479.132855 329.688506 
L 479.220224 331.890537 
L 479.849545 331.890537 
L 480.10821 331.340029 
L 480.296674 332.441044 
L 480.44248 332.441044 
L 480.816276 332.991552 
L 481.227405 332.991552 
L 481.414999 332.441044 
L 481.56188 332.991552 
L 482.553183 332.991552 
L 482.675242 333.542059 
L 483.127185 332.441044 
L 483.494684 332.991552 
L 483.705276 332.991552 
L 483.78616 333.542059 
L 483.972084 332.441044 
L 484.152814 333.542059 
L 484.9027 333.542059 
L 485.018929 332.991552 
L 485.286046 332.991552 
L 485.328066 333.542059 
L 485.630517 334.092567 
L 485.642321 333.542059 
L 486.211115 333.542059 
L 486.503871 334.092567 
L 488.023069 334.092567 
L 488.136981 334.643074 
L 488.43826 334.092567 
L 488.448319 334.643074 
L 488.880932 335.193582 
L 489.146747 335.193582 
L 489.452636 335.744089 
L 489.605368 336.294597 
L 489.722141 336.294597 
L 490.089595 335.193582 
L 490.162183 336.294597 
L 490.409274 335.744089 
L 490.617251 336.294597 
L 491.545441 336.294597 
L 491.649439 336.845105 
L 491.779054 336.294597 
L 492.228218 336.845105 
L 492.445175 336.294597 
L 492.665053 336.845105 
L 492.797161 336.294597 
L 493.104827 337.395612 
L 493.317403 336.845105 
L 494.044487 336.845105 
L 494.33375 337.395612 
L 494.756118 337.395612 
L 495.092162 336.294597 
L 495.181729 336.845105 
L 495.540787 336.845105 
L 495.631909 337.94612 
L 496.08476 336.845105 
L 496.242905 337.395612 
L 496.607777 336.845105 
L 496.874116 336.845105 
L 497.010565 337.395612 
L 497.200975 337.395612 
L 497.336714 334.092567 
L 497.763836 334.643074 
L 497.81917 333.542059 
L 497.972523 334.643074 
L 498.113116 334.092567 
L 498.197501 334.643074 
L 498.532262 334.092567 
L 498.933927 334.643074 
L 499.136253 334.643074 
L 499.413987 334.092567 
L 499.808766 334.092567 
L 500.213533 335.193582 
L 500.425558 334.643074 
L 500.854294 334.643074 
L 501.054786 334.092567 
L 501.084302 333.542059 
L 501.334068 334.643074 
L 501.466525 334.092567 
L 501.622327 334.643074 
L 501.853834 334.092567 
L 502.115858 334.092567 
L 502.284185 333.542059 
L 502.603414 333.542059 
L 502.935772 334.643074 
L 503.161293 334.092567 
L 503.435932 335.193582 
L 503.578958 335.193582 
L 503.668734 334.643074 
L 503.948053 334.643074 
L 503.971498 335.193582 
L 504.897452 335.193582 
L 505.049146 335.744089 
L 505.179077 335.744089 
L 505.379372 336.294597 
L 505.55213 335.744089 
L 505.683884 336.294597 
L 505.88031 335.744089 
L 505.990885 336.294597 
L 506.133603 335.744089 
L 506.179584 336.294597 
L 506.337577 337.395612 
L 506.530602 336.845105 
L 506.591349 336.294597 
L 506.794918 336.845105 
L 506.961277 336.294597 
L 507.161791 336.845105 
L 507.490384 336.845105 
L 507.581878 337.395612 
L 507.80888 336.845105 
L 508.405048 338.496627 
L 508.565417 338.496627 
L 508.731297 337.395612 
L 508.809718 337.94612 
L 509.044242 337.94612 
L 509.150945 337.395612 
L 509.342713 337.395612 
L 509.517305 337.94612 
L 509.741759 337.94612 
L 510.118591 339.597642 
L 510.319076 339.047135 
L 512.954481 339.047135 
L 513.077121 339.597642 
L 513.232643 339.597642 
L 513.357712 339.047135 
L 513.608646 339.597642 
L 514.233816 337.395612 
L 514.338398 338.496627 
L 514.999895 337.395612 
L 515.463014 337.395612 
L 516.096725 338.496627 
L 517.217003 337.94612 
L 517.501504 338.496627 
L 517.81493 337.94612 
L 518.038777 339.047135 
L 518.128557 337.94612 
L 518.423638 339.047135 
L 518.74514 337.94612 
L 518.851567 339.047135 
L 519.057733 339.047135 
L 519.171064 338.496627 
L 519.376485 339.047135 
L 519.499765 339.047135 
L 519.614596 338.496627 
L 519.754118 340.14815 
L 520.120028 339.047135 
L 520.462266 339.047135 
L 520.671385 339.597642 
L 521.066041 339.597642 
L 521.386993 339.047135 
L 521.574624 339.047135 
L 521.716467 340.14815 
L 521.893399 339.597642 
L 521.992182 340.14815 
L 522.230698 340.698657 
L 522.376945 340.698657 
L 522.632638 339.597642 
L 522.877139 341.249165 
L 523.184453 341.249165 
L 523.207778 342.35018 
L 523.22924 341.799672 
L 523.389963 341.249165 
L 523.558915 342.35018 
L 523.629387 341.249165 
L 523.884071 341.249165 
L 523.918773 341.799672 
L 524.205714 342.35018 
L 524.377446 342.35018 
L 524.457939 341.249165 
L 524.843016 342.35018 
L 524.905377 341.249165 
L 525.115118 342.35018 
L 525.276462 340.698657 
L 525.766931 341.799672 
L 526.136416 340.14815 
L 526.164987 340.698657 
L 526.399024 340.14815 
L 526.546984 340.14815 
L 526.700586 341.249165 
L 526.884021 340.14815 
L 527.236687 341.249165 
L 527.370488 340.14815 
L 527.515359 340.698657 
L 527.810578 340.698657 
L 528.005538 340.14815 
L 528.378744 340.14815 
L 528.390135 340.698657 
L 528.977515 339.597642 
L 529.289032 341.249165 
L 529.454365 341.249165 
L 529.647059 340.698657 
L 529.701526 341.799672 
L 529.975075 340.698657 
L 530.143514 341.799672 
L 530.313318 340.698657 
L 530.383492 341.249165 
L 530.731742 341.249165 
L 530.940441 341.799672 
L 531.035894 342.900688 
L 531.230214 341.799672 
L 531.549915 342.35018 
L 531.691338 342.900688 
L 531.866079 342.35018 
L 532.015273 344.55221 
L 532.249455 344.55221 
L 532.55915 345.102718 
L 532.596512 344.001703 
L 532.901314 345.102718 
L 533.335184 344.001703 
L 533.452418 345.653225 
L 533.804222 346.203733 
L 534.187393 345.102718 
L 534.430247 344.55221 
L 535.105319 345.102718 
L 535.186178 345.653225 
L 535.438733 345.653225 
L 535.904304 346.203733 
L 536.134963 346.203733 
L 536.42238 346.75424 
L 536.713109 348.405763 
L 537.459531 347.855255 
L 537.69997 347.855255 
L 538.033377 346.203733 
L 538.350311 346.203733 
L 538.432006 345.653225 
L 538.672799 346.75424 
L 538.726444 345.653225 
L 538.989986 346.203733 
L 539.468052 346.203733 
L 539.713379 347.304748 
L 539.938555 346.203733 
L 540.246099 347.304748 
L 540.365997 346.75424 
L 540.53025 347.304748 
L 540.959087 346.203733 
L 541.206945 346.75424 
L 541.931912 346.75424 
L 542.104953 346.203733 
L 542.524839 347.304748 
L 542.69551 346.203733 
L 542.842722 346.203733 
L 542.899964 346.75424 
L 543.108663 346.75424 
L 543.333749 347.304748 
L 543.487768 346.203733 
L 543.726906 347.304748 
L 543.831926 346.203733 
L 544.125166 347.304748 
L 544.30548 347.304748 
L 544.42184 346.75424 
L 544.612522 346.75424 
L 544.666405 346.203733 
L 544.677469 346.75424 
L 545.002993 346.75424 
L 545.113132 346.203733 
L 545.411741 347.304748 
L 545.686722 346.203733 
L 546.157973 346.75424 
L 547.165031 346.75424 
L 547.406538 346.203733 
L 547.663294 346.75424 
L 547.828567 346.203733 
L 547.93066 346.75424 
L 548.645884 346.75424 
L 548.864248 346.203733 
L 549.365625 347.304748 
L 549.487531 346.75424 
L 549.888564 347.304748 
L 550.326545 346.75424 
L 550.559164 347.304748 
L 551.106448 346.203733 
L 551.250048 345.653225 
L 551.487968 345.653225 
L 551.94621 347.304748 
L 552.070854 347.304748 
L 552.229093 346.203733 
L 552.600747 346.203733 
L 552.809203 346.75424 
L 552.967285 346.75424 
L 553.130732 346.203733 
L 553.439332 346.203733 
L 553.86071 346.75424 
L 554.094621 346.75424 
L 554.190378 347.304748 
L 554.4152 346.203733 
L 554.533651 347.304748 
L 554.680918 346.75424 
L 554.773927 347.304748 
L 555.364398 347.304748 
L 555.385771 348.405763 
L 555.481123 347.855255 
L 555.659517 347.855255 
L 555.766119 347.304748 
L 555.933799 347.855255 
L 556.118684 347.304748 
L 556.590162 347.855255 
L 556.990618 347.855255 
L 557.142718 348.95627 
L 557.202702 348.405763 
L 557.381918 348.95627 
L 557.622264 348.405763 
L 557.734781 347.855255 
L 557.902502 348.405763 
L 558.067902 347.855255 
L 558.266846 348.95627 
L 558.351134 347.855255 
L 558.529878 334.092567 
L 559.017911 334.092567 
L 559.152425 333.542059 
L 559.280277 335.744089 
L 559.992652 335.193582 
L 560.521948 335.193582 
L 560.624882 335.744089 
L 560.757254 335.744089 
L 561.172099 334.643074 
L 561.485897 334.643074 
L 561.499275 335.193582 
L 561.892119 335.744089 
L 562.170348 335.193582 
L 562.449845 334.092567 
L 562.485574 335.193582 
L 562.699105 334.092567 
L 562.782158 334.643074 
L 563.420055 334.643074 
L 563.45453 335.193582 
L 563.715735 335.193582 
L 563.715735 335.193582 
" clip-path="url(#pa1339e85ab)" style="fill: none; stroke-dasharray: 3,1.5; stroke-dashoffset: 0; stroke: #808080; stroke-width: 1.5"/>
   </g>
   <g id="line2d_19">
    <path d="M 38.539265 298.309577 
L 39.853309 297.759069 
L 41.163112 296.658054 
L 44.264854 296.658054 
L 47.684895 296.107546 
L 47.938612 296.658054 
L 48.096846 296.658054 
L 48.20504 295.557039 
L 48.45475 296.107546 
L 48.824079 295.557039 
L 49.543161 295.557039 
L 49.943654 292.804501 
L 50.032991 295.557039 
L 50.240867 292.253994 
L 50.306975 292.804501 
L 50.539918 292.804501 
L 50.912539 292.253994 
L 51.523386 292.253994 
L 51.83612 290.051963 
L 52.322248 290.051963 
L 52.815708 291.152978 
L 53.129625 286.748918 
L 53.199114 287.299426 
L 53.494523 286.748918 
L 54.065959 285.097396 
L 54.45355 286.198411 
L 55.066186 286.198411 
L 55.408559 287.299426 
L 55.640006 286.748918 
L 56.337288 286.198411 
L 56.650178 286.198411 
L 56.990415 285.097396 
L 57.478619 285.097396 
L 57.983537 281.79435 
L 59.340877 280.142828 
L 59.525722 279.59232 
L 59.917253 279.59232 
L 60.164147 279.041813 
L 60.557523 279.041813 
L 60.847128 280.142828 
L 61.142131 280.693335 
L 61.471044 280.693335 
L 61.663657 280.142828 
L 64.012653 280.142828 
L 64.388116 279.59232 
L 64.995827 279.59232 
L 65.332132 279.041813 
L 65.6544 279.041813 
L 65.779533 279.59232 
L 66.575455 279.041813 
L 66.90904 279.59232 
L 67.828767 279.59232 
L 68.124053 279.041813 
L 68.487091 279.59232 
L 70.161089 279.59232 
L 70.504068 279.041813 
L 70.692328 277.39029 
L 71.150532 278.491305 
L 71.795839 278.491305 
L 72.097338 277.39029 
L 72.215982 278.491305 
L 72.744598 276.839782 
L 73.064225 276.839782 
L 73.374653 276.289275 
L 73.72114 276.289275 
L 74.039271 276.839782 
L 74.343263 275.738767 
L 74.613147 275.738767 
L 75.346902 274.637752 
L 79.199333 274.637752 
L 79.505575 273.536737 
L 80.158255 273.536737 
L 80.447946 270.784199 
L 81.419562 270.784199 
L 82.349616 268.582169 
L 83.33817 268.582169 
L 83.692238 268.031662 
L 89.664773 268.031662 
L 90.381806 266.380139 
L 90.544236 268.031662 
L 91.694376 268.031662 
L 92.006701 266.930647 
L 92.351287 268.031662 
L 93.171145 268.031662 
L 93.623996 266.930647 
L 93.960178 268.031662 
L 99.037353 268.031662 
L 99.314809 263.077094 
L 99.507172 268.031662 
L 101.347146 268.031662 
L 101.681163 267.481154 
L 101.871815 262.526586 
L 102.322177 267.481154 
L 102.640257 267.481154 
L 102.851403 268.031662 
L 106.18283 268.031662 
L 106.351536 267.481154 
L 106.654292 267.481154 
L 107.152898 265.829632 
L 112.178326 265.829632 
L 113.275107 265.279124 
L 120.024815 265.279124 
L 120.305879 262.526586 
L 120.665025 262.526586 
L 120.983499 265.279124 
L 121.311158 265.279124 
L 121.536933 262.526586 
L 121.781628 265.279124 
L 122.188274 262.526586 
L 122.548481 261.425571 
L 126.725223 261.425571 
L 127.085728 260.875064 
L 128.66735 260.875064 
L 128.992486 259.774049 
L 129.38561 257.572018 
L 129.666432 257.021511 
L 129.983849 253.718466 
L 130.375722 253.718466 
L 130.901157 252.61745 
L 131.263779 252.61745 
L 131.890106 251.516435 
L 134.5189 246.561868 
L 134.787319 247.662883 
L 136.66685 247.662883 
L 137.033534 245.460852 
L 137.356885 246.01136 
L 138.651368 246.01136 
L 138.888047 247.112375 
L 139.304343 246.01136 
L 140.244478 246.01136 
L 140.564433 244.910345 
L 140.873056 244.910345 
L 141.238568 244.359837 
L 141.386062 244.359837 
L 141.550904 242.708315 
L 141.77436 242.708315 
L 142.524952 242.157807 
L 143.145141 243.80933 
L 143.296794 243.80933 
L 143.78297 243.258822 
L 144.094904 242.157807 
L 145.706924 242.157807 
L 146.018166 241.6073 
L 146.352395 241.6073 
L 146.661832 241.056792 
L 146.951706 241.056792 
L 147.625271 240.506285 
L 147.973138 240.506285 
L 148.320031 238.854762 
L 148.885666 238.854762 
L 149.239158 238.304254 
L 149.458809 238.304254 
L 149.581438 248.21339 
L 149.674301 247.662883 
L 150.205878 247.662883 
L 150.520822 246.561868 
L 150.941434 246.561868 
L 151.15809 246.01136 
L 151.63453 246.01136 
L 151.68194 245.460852 
L 152.432484 245.460852 
L 152.835451 243.80933 
L 153.672876 242.157807 
L 155.034025 242.157807 
L 155.328306 241.056792 
L 155.439116 241.6073 
L 155.567436 241.6073 
L 155.923287 242.157807 
L 157.218324 241.6073 
L 160.45835 241.6073 
L 160.833787 242.157807 
L 162.401946 242.157807 
L 162.625131 242.708315 
L 163.033953 242.157807 
L 165.561793 242.157807 
L 166.073977 241.6073 
L 166.468436 241.6073 
L 166.896682 241.056792 
L 167.112162 241.6073 
L 169.176531 241.6073 
L 169.828032 240.506285 
L 171.214571 240.506285 
L 171.448013 232.799179 
L 171.711175 232.799179 
L 173.95387 231.147656 
L 174.091685 231.698164 
L 174.235459 231.147656 
L 174.608645 231.698164 
L 174.92168 231.698164 
L 175.251151 231.147656 
L 175.498566 231.147656 
L 175.895781 230.046641 
L 176.059142 230.046641 
L 176.210327 230.597149 
L 176.549187 229.496134 
L 178.802076 229.496134 
L 179.021247 228.945626 
L 179.386651 228.945626 
L 179.725768 228.395119 
L 180.077832 228.945626 
L 180.233179 228.945626 
L 180.715713 229.496134 
L 181.077237 226.743596 
L 181.334611 228.395119 
L 181.670283 228.395119 
L 181.939338 225.092073 
L 182.127591 225.642581 
L 182.327994 224.541566 
L 182.42893 225.092073 
L 182.55247 223.440551 
L 182.872752 223.440551 
L 183.278557 222.890043 
L 184.073352 223.440551 
L 184.254328 222.339536 
L 184.550094 222.339536 
L 184.759544 223.991058 
L 185.47052 222.339536 
L 186.177474 221.789028 
L 186.798344 221.789028 
L 187.124046 220.137505 
L 187.423424 220.137505 
L 187.600758 220.688013 
L 187.912004 220.688013 
L 189.115796 217.384968 
L 189.31656 219.586998 
L 189.703009 220.137505 
L 190.156269 217.384968 
L 191.374607 217.384968 
L 191.478907 216.83446 
L 191.964365 216.283953 
L 193.25848 216.283953 
L 193.850837 213.531415 
L 197.179596 213.531415 
L 197.44245 212.4304 
L 197.788159 214.63243 
L 197.989425 212.980907 
L 201.618444 212.980907 
L 201.921654 212.4304 
L 202.652853 209.127355 
L 202.927176 210.778877 
L 203.254094 210.22837 
L 203.616087 210.778877 
L 203.870823 210.778877 
L 204.256807 205.273802 
L 204.463776 205.273802 
L 204.503947 204.723294 
L 205.155236 204.723294 
L 205.521815 203.622279 
L 205.845007 201.970757 
L 206.817229 201.420249 
L 206.878746 201.970757 
L 207.406618 202.521264 
L 207.485021 201.970757 
L 210.028553 201.970757 
L 210.205537 201.420249 
L 210.680214 200.869741 
L 211.31407 199.768726 
L 211.478934 198.667711 
L 211.701717 198.667711 
L 211.95129 197.566696 
L 212.251777 198.117204 
L 212.588238 198.117204 
L 212.841761 198.667711 
L 213.199167 198.117204 
L 213.518091 198.117204 
L 213.82376 197.566696 
L 214.0712 197.566696 
L 214.536975 198.117204 
L 214.779118 197.566696 
L 215.029736 198.117204 
L 215.452513 200.869741 
L 215.757516 201.420249 
L 216.457588 200.319234 
L 216.559941 196.465681 
L 216.715992 196.465681 
L 217.001527 195.915174 
L 217.333253 196.465681 
L 217.636117 196.465681 
L 218.009203 197.016189 
L 218.332353 195.915174 
L 219.498639 195.915174 
L 219.962141 195.364666 
L 220.227025 195.364666 
L 220.247579 194.814158 
L 221.569134 194.814158 
L 221.945375 193.713143 
L 223.794475 193.713143 
L 224.163086 192.612128 
L 227.704974 192.612128 
L 227.917103 192.061621 
L 228.489219 192.061621 
L 228.970622 191.511113 
L 229.293099 190.410098 
L 229.389527 190.960606 
L 229.740035 189.859591 
L 230.519771 189.859591 
L 233.677833 188.758576 
L 241.484025 188.758576 
L 241.801997 189.309083 
L 243.328188 189.309083 
L 243.644538 188.758576 
L 244.692872 188.758576 
L 245.054693 188.208068 
L 245.314864 188.758576 
L 245.616809 188.208068 
L 245.950904 188.758576 
L 246.225112 187.65756 
L 246.64508 188.208068 
L 246.951512 187.65756 
L 253.61243 187.65756 
L 253.956506 188.758576 
L 254.321017 188.208068 
L 254.650682 188.758576 
L 255.01994 188.208068 
L 255.316074 188.758576 
L 256.551983 188.758576 
L 256.865803 188.208068 
L 257.220277 188.758576 
L 257.543223 187.65756 
L 258.183582 187.65756 
L 258.544872 188.208068 
L 258.815229 187.107053 
L 259.163014 187.107053 
L 259.431708 187.65756 
L 260.279762 186.556545 
L 260.775878 187.107053 
L 261.070632 186.556545 
L 261.697722 186.556545 
L 262.051649 187.107053 
L 262.399185 185.45553 
L 262.733686 186.006038 
L 263.375871 186.006038 
L 263.620667 186.556545 
L 263.933743 186.006038 
L 264.275409 186.006038 
L 264.580319 190.410098 
L 264.701455 189.859591 
L 264.941065 189.859591 
L 265.107982 189.309083 
L 265.253457 189.309083 
L 265.444987 188.758576 
L 265.574784 189.859591 
L 266.215582 188.758576 
L 266.76614 188.758576 
L 267.033882 187.65756 
L 267.299231 188.758576 
L 267.471989 188.208068 
L 268.446008 188.208068 
L 268.735971 188.758576 
L 269.010963 188.758576 
L 269.35652 188.208068 
L 269.676054 188.208068 
L 270.054836 188.758576 
L 270.420367 188.208068 
L 270.703983 188.208068 
L 271.150304 187.107053 
L 272.970978 187.107053 
L 273.270453 187.65756 
L 274.681527 187.65756 
L 275.0056 187.107053 
L 275.260522 186.556545 
L 275.759637 186.556545 
L 275.915353 185.45553 
L 275.986784 186.006038 
L 276.155669 185.45553 
L 276.630707 185.45553 
L 276.86358 184.354515 
L 277.497641 184.354515 
L 277.793611 183.2535 
L 278.772426 183.2535 
L 279.007162 181.601977 
L 279.223766 181.05147 
L 279.348768 181.05147 
L 279.770432 180.500962 
L 279.918842 181.05147 
L 279.990764 180.500962 
L 280.142935 180.500962 
L 280.321072 179.950455 
L 280.454389 179.950455 
L 280.998875 179.399947 
L 282.22042 179.399947 
L 282.535464 179.950455 
L 282.837331 179.399947 
L 283.177613 179.399947 
L 283.340695 178.84944 
L 283.37992 179.399947 
L 283.573482 178.84944 
L 283.724871 178.84944 
L 283.874374 177.748425 
L 284.450054 176.64741 
L 284.869252 177.197917 
L 285.187964 176.64741 
L 285.814522 176.64741 
L 286.154584 175.546394 
L 286.279076 176.096902 
L 286.48132 174.445379 
L 286.767905 174.995887 
L 286.953769 174.445379 
L 287.100731 174.995887 
L 287.263132 173.894872 
L 287.594143 173.894872 
L 287.692181 173.344364 
L 288.080531 173.894872 
L 288.380888 172.793857 
L 289.058535 172.793857 
L 289.302475 171.692842 
L 289.648482 172.793857 
L 289.883549 172.793857 
L 289.969731 172.243349 
L 290.602163 172.243349 
L 290.897992 170.041319 
L 291.32344 172.243349 
L 291.389402 171.692842 
L 291.949592 172.243349 
L 292.002638 171.142334 
L 292.19531 171.142334 
L 292.583556 170.591827 
L 292.898637 171.142334 
L 293.136673 171.142334 
L 293.488919 170.041319 
L 293.872135 170.041319 
L 294.243759 170.591827 
L 294.521501 170.041319 
L 294.69026 170.591827 
L 294.858107 169.490812 
L 296.345389 169.490812 
L 296.802503 168.940304 
L 297.73582 168.940304 
L 298.066976 170.041319 
L 298.691111 170.041319 
L 299.003488 169.490812 
L 301.845248 169.490812 
L 302.228762 170.041319 
L 302.588259 168.940304 
L 306.949436 168.940304 
L 307.90616 168.389796 
L 308.4744 168.389796 
L 308.935889 167.839289 
L 309.30059 167.839289 
L 309.514899 166.738274 
L 309.854671 167.288781 
L 314.369325 167.288781 
L 314.763608 167.839289 
L 315.076204 167.288781 
L 315.385025 167.839289 
L 315.594754 170.041319 
L 317.512532 170.041319 
L 317.828811 168.940304 
L 318.272718 170.041319 
L 320.110178 170.041319 
L 320.385575 168.940304 
L 320.489655 170.041319 
L 320.961378 170.041319 
L 321.17943 168.940304 
L 321.454292 170.041319 
L 321.659505 168.940304 
L 321.805157 168.940304 
L 321.993016 170.041319 
L 322.157314 168.940304 
L 322.262603 170.041319 
L 322.305009 168.940304 
L 323.434982 168.940304 
L 323.804887 167.288781 
L 324.216065 167.288781 
L 324.249978 166.738274 
L 324.581517 166.738274 
L 324.753189 166.187766 
L 324.899556 166.738274 
L 325.079371 166.187766 
L 325.200973 166.738274 
L 325.486173 166.187766 
L 325.606789 166.738274 
L 325.623329 166.187766 
L 325.984842 166.187766 
L 326.211353 165.637259 
L 326.354215 165.637259 
L 326.568156 164.536244 
L 326.805541 163.985736 
L 326.96949 164.536244 
L 328.795576 164.536244 
L 329.056674 163.985736 
L 330.456167 163.985736 
L 330.679411 163.435229 
L 330.9745 163.435229 
L 331.19347 162.884721 
L 331.314161 163.435229 
L 331.893185 163.435229 
L 332.088588 162.334213 
L 332.620444 162.334213 
L 332.671519 161.783706 
L 332.745733 162.334213 
L 333.04084 162.334213 
L 333.066528 161.783706 
L 333.281041 161.233198 
L 333.340996 161.783706 
L 333.584158 159.581676 
L 334.568966 159.581676 
L 334.667971 159.031168 
L 334.883716 159.031168 
L 335.010098 157.930153 
L 335.158422 159.031168 
L 336.465792 159.031168 
L 336.541442 158.480661 
L 336.792209 159.031168 
L 336.912274 158.480661 
L 337.134261 159.031168 
L 337.422613 159.031168 
L 337.59944 157.930153 
L 337.921776 157.930153 
L 338.053995 158.480661 
L 338.167278 157.379646 
L 338.501838 159.031168 
L 338.852433 157.930153 
L 339.106406 159.031168 
L 339.700936 159.031168 
L 340.163631 157.379646 
L 340.307606 157.930153 
L 340.467049 157.379646 
L 340.897277 158.480661 
L 341.035039 157.379646 
L 342.056063 157.379646 
L 342.22064 156.829138 
L 342.507441 156.829138 
L 342.660329 157.379646 
L 342.853288 156.829138 
L 342.975299 157.379646 
L 343.346979 156.27863 
L 343.854427 156.27863 
L 344.212312 155.177615 
L 344.834049 156.27863 
L 344.966919 155.728123 
L 345.13038 156.27863 
L 345.234039 155.728123 
L 345.442009 155.728123 
L 345.529169 156.27863 
L 345.931868 155.177615 
L 346.139172 155.728123 
L 346.241741 155.177615 
L 346.453096 155.728123 
L 346.733799 155.728123 
L 346.914853 155.177615 
L 347.033899 155.728123 
L 347.151218 155.728123 
L 347.4129 156.27863 
L 347.530127 155.177615 
L 348.061496 155.177615 
L 348.097314 154.0766 
L 350.369949 154.0766 
L 350.59415 153.526093 
L 350.741309 154.0766 
L 350.865984 153.526093 
L 350.960685 154.0766 
L 351.074281 152.975585 
L 351.597666 152.975585 
L 351.844556 152.425078 
L 351.894593 152.975585 
L 351.945857 152.425078 
L 352.227788 152.975585 
L 352.300651 152.425078 
L 352.576361 151.87457 
L 352.684351 151.324063 
L 352.890509 151.324063 
L 352.937911 150.773555 
L 353.22495 149.122032 
L 353.354144 149.67254 
L 353.528513 149.67254 
L 353.559927 148.571525 
L 354.785021 148.571525 
L 354.937184 148.021017 
L 355.177188 148.571525 
L 355.885924 146.920002 
L 356.10947 146.920002 
L 356.2425 146.369495 
L 356.552355 146.369495 
L 356.559951 145.818987 
L 356.655467 146.369495 
L 356.747028 145.26848 
L 356.882357 145.26848 
L 357.069687 144.717972 
L 358.354744 144.717972 
L 358.388657 145.26848 
L 358.469556 144.167465 
L 358.80845 144.167465 
L 358.981524 144.717972 
L 359.114752 144.167465 
L 359.315333 144.717972 
L 359.465617 144.167465 
L 359.634465 144.167465 
L 359.779553 144.717972 
L 359.923412 143.066449 
L 361.645564 143.066449 
L 362.163451 141.965434 
L 362.436059 142.515942 
L 368.941589 142.515942 
L 369.052041 141.965434 
L 369.249594 142.515942 
L 369.306532 141.965434 
L 369.896836 141.965434 
L 370.060293 141.414927 
L 370.888786 141.414927 
L 370.999484 140.864419 
L 371.15552 141.414927 
L 372.424646 141.414927 
L 372.600682 140.864419 
L 372.822368 141.414927 
L 372.944773 141.414927 
L 373.139841 140.313912 
L 373.24715 140.864419 
L 373.722779 140.864419 
L 373.930019 140.313912 
L 374.905508 140.313912 
L 375.064412 141.414927 
L 375.386394 140.313912 
L 377.118825 140.313912 
L 377.296449 139.763404 
L 377.455134 139.763404 
L 377.626031 139.212897 
L 377.753768 139.212897 
L 377.911887 138.662389 
L 378.281841 138.662389 
L 378.347379 138.111882 
L 378.65579 138.111882 
L 378.850601 139.212897 
L 379.00272 138.662389 
L 379.23557 138.662389 
L 379.330516 138.111882 
L 379.686739 138.111882 
L 380.005347 137.561374 
L 380.352771 135.909851 
L 380.46652 136.460359 
L 380.572433 135.909851 
L 380.815536 135.359344 
L 380.930814 135.909851 
L 381.24024 135.359344 
L 381.44488 135.909851 
L 381.612013 135.909851 
L 381.939445 134.258329 
L 382.255014 134.808836 
L 382.581825 133.707821 
L 382.645998 134.258329 
L 382.858406 133.707821 
L 383.005487 134.258329 
L 383.126743 133.707821 
L 383.650374 133.707821 
L 383.845338 137.010866 
L 384.366037 135.909851 
L 384.709838 135.909851 
L 384.830093 135.359344 
L 385.017401 135.909851 
L 385.13763 135.909851 
L 385.279893 136.460359 
L 385.44347 135.909851 
L 385.668162 135.909851 
L 385.778718 136.460359 
L 385.919181 135.909851 
L 386.110752 136.460359 
L 386.186049 135.909851 
L 386.584239 135.359344 
L 386.737228 135.359344 
L 386.876839 135.909851 
L 387.141917 135.359344 
L 388.22426 135.359344 
L 388.319586 132.606806 
L 388.599021 134.808836 
L 388.892417 135.359344 
L 389.420162 135.359344 
L 389.824759 134.258329 
L 389.963536 135.909851 
L 390.197116 135.359344 
L 390.494879 135.909851 
L 390.63109 134.258329 
L 390.795545 135.359344 
L 390.950967 135.359344 
L 391.054474 134.808836 
L 391.145585 130.404776 
L 391.462001 132.606806 
L 391.488251 129.854268 
L 392.334013 129.854268 
L 392.734093 128.753253 
L 392.899131 129.303761 
L 393.491623 129.303761 
L 393.653057 129.854268 
L 393.825595 129.303761 
L 394.014849 129.303761 
L 394.12603 129.854268 
L 394.464273 129.303761 
L 394.662979 129.303761 
L 394.793249 128.753253 
L 394.952573 129.303761 
L 395.123739 129.303761 
L 395.284146 129.854268 
L 395.383509 129.303761 
L 396.277045 129.303761 
L 396.500591 127.652238 
L 396.77087 128.202746 
L 396.994409 128.202746 
L 397.175381 128.753253 
L 397.257664 128.202746 
L 397.537987 128.753253 
L 397.642785 128.202746 
L 397.889738 128.202746 
L 397.986351 127.652238 
L 398.281474 128.202746 
L 398.889616 128.202746 
L 399.115082 127.652238 
L 399.490668 127.652238 
L 399.585369 127.101731 
L 399.745426 127.652238 
L 400.119588 126.551223 
L 400.230918 126.551223 
L 400.396035 126.000716 
L 400.548243 126.000716 
L 400.834634 125.450208 
L 403.164259 125.450208 
L 403.412443 124.899701 
L 403.64516 124.899701 
L 403.69254 126.000716 
L 403.751218 125.450208 
L 404.130893 125.450208 
L 404.217555 124.899701 
L 404.717131 124.899701 
L 404.955718 124.349193 
L 405.27616 124.349193 
L 405.286818 124.899701 
L 405.393342 124.349193 
L 405.491305 124.899701 
L 406.886647 124.899701 
L 407.14828 125.450208 
L 407.878117 124.899701 
L 409.391615 124.899701 
L 409.457105 124.349193 
L 411.045286 124.349193 
L 411.188346 123.798685 
L 412.65709 121.046148 
L 412.796292 121.046148 
L 412.941521 120.49564 
L 413.006196 121.046148 
L 413.318963 120.49564 
L 413.609543 119.945133 
L 413.957061 119.945133 
L 414.073763 119.394625 
L 414.512942 119.394625 
L 415.149042 119.945133 
L 415.181087 118.29361 
L 415.693029 118.29361 
L 415.851699 118.844118 
L 415.966947 118.29361 
L 416.825272 118.29361 
L 417.143095 118.844118 
L 418.677459 118.844118 
L 419.45631 118.29361 
L 421.029636 118.29361 
L 421.804368 117.743102 
L 421.907983 117.192595 
L 424.237969 117.192595 
L 424.456861 117.743102 
L 425.639698 117.743102 
L 426.503376 118.29361 
L 427.13275 118.29361 
L 427.445081 117.743102 
L 427.722373 116.642087 
L 427.887467 116.642087 
L 427.893911 117.192595 
L 429.745767 117.192595 
L 429.944518 116.642087 
L 434.622815 116.642087 
L 435.212695 116.09158 
L 435.440025 116.09158 
L 435.528762 114.990565 
L 435.817884 114.990565 
L 435.939303 115.541072 
L 436.127523 114.990565 
L 437.184319 114.990565 
L 437.655384 114.440057 
L 437.982604 113.339042 
L 440.848438 113.339042 
L 441.352851 113.88955 
L 441.498794 113.339042 
L 441.646429 113.88955 
L 441.812394 113.339042 
L 442.598399 113.339042 
L 442.960786 113.88955 
L 443.144678 113.339042 
L 443.65174 114.440057 
L 443.849363 113.339042 
L 445.076426 113.339042 
L 445.090942 112.788535 
L 447.035569 112.788535 
L 447.981069 112.238027 
L 448.264811 112.788535 
L 448.471449 112.238027 
L 448.605178 112.788535 
L 448.791987 112.788535 
L 448.919783 112.238027 
L 449.370227 113.339042 
L 449.667626 112.788535 
L 450.067442 113.339042 
L 450.363587 113.339042 
L 450.498083 112.788535 
L 451.314563 112.788535 
L 452.28468 113.339042 
L 452.430701 112.788535 
L 453.396018 112.788535 
L 453.709429 113.339042 
L 458.622567 112.788535 
L 458.990445 113.339042 
L 459.30838 112.788535 
L 459.593271 113.339042 
L 459.625146 112.788535 
L 459.873171 112.238027 
L 460.016811 112.238027 
L 460.148204 111.68752 
L 462.432491 111.68752 
L 462.481166 111.137012 
L 462.765105 111.137012 
L 463.523264 111.68752 
L 463.547382 111.137012 
L 463.838673 111.68752 
L 463.909472 110.586504 
L 464.096962 110.586504 
L 464.477336 110.035997 
L 465.114771 110.035997 
L 465.501827 110.586504 
L 465.937018 109.485489 
L 465.954867 108.934982 
L 466.377625 108.384474 
L 466.688558 108.934982 
L 467.12577 108.934982 
L 467.216657 108.384474 
L 468.212123 108.384474 
L 468.349261 108.934982 
L 468.517149 107.833967 
L 468.655525 107.833967 
L 468.918151 108.384474 
L 469.156998 107.833967 
L 469.689632 107.833967 
L 469.924209 106.182444 
L 471.597198 106.182444 
L 471.797211 105.631937 
L 471.919683 105.631937 
L 472.121209 106.182444 
L 472.173184 105.631937 
L 472.707008 105.631937 
L 472.814376 105.081429 
L 473.10599 104.530921 
L 473.189282 103.429906 
L 473.64426 103.429906 
L 473.815207 101.778384 
L 474.17115 101.778384 
L 474.379325 102.328891 
L 474.491789 101.778384 
L 474.643182 101.778384 
L 474.654745 100.126861 
L 475.464425 100.126861 
L 475.60478 99.576354 
L 475.953822 99.576354 
L 476.315514 100.126861 
L 476.352716 99.025846 
L 476.672964 99.025846 
L 476.731996 98.475338 
L 476.955136 97.924831 
L 477.544604 97.924831 
L 477.631243 96.823816 
L 477.884212 96.823816 
L 478.032521 96.273308 
L 478.174833 96.273308 
L 478.685175 95.722801 
L 478.884908 96.273308 
L 479.003854 102.328891 
L 479.132855 102.879399 
L 479.220224 100.677369 
L 479.849545 100.677369 
L 480.10821 101.227876 
L 480.296674 100.126861 
L 481.227405 100.126861 
L 481.414999 100.677369 
L 481.56188 100.126861 
L 482.553183 100.126861 
L 482.675242 99.576354 
L 483.127185 100.677369 
L 483.494684 100.126861 
L 483.705276 100.126861 
L 483.78616 99.576354 
L 483.972084 100.677369 
L 484.152814 99.576354 
L 484.9027 99.576354 
L 485.018929 100.126861 
L 485.286046 100.126861 
L 485.328066 99.576354 
L 485.630517 99.025846 
L 485.642321 99.576354 
L 485.886004 99.025846 
L 486.211115 99.025846 
L 486.503871 98.475338 
L 488.023069 98.475338 
L 488.136981 97.924831 
L 488.43826 98.475338 
L 488.448319 97.924831 
L 488.880932 97.374323 
L 489.146747 97.374323 
L 489.452636 96.823816 
L 489.605368 96.273308 
L 489.722141 96.273308 
L 490.089595 97.374323 
L 490.162183 96.273308 
L 490.409274 96.823816 
L 490.617251 96.273308 
L 491.545441 96.273308 
L 491.649439 95.722801 
L 491.779054 96.273308 
L 492.228218 95.722801 
L 492.445175 96.273308 
L 492.665053 95.722801 
L 492.797161 96.273308 
L 493.104827 95.172293 
L 493.317403 95.722801 
L 494.044487 95.722801 
L 494.33375 95.172293 
L 494.756118 95.172293 
L 495.092162 96.273308 
L 495.181729 95.722801 
L 495.540787 95.722801 
L 495.631909 94.621786 
L 496.08476 95.722801 
L 496.242905 95.172293 
L 496.607777 95.722801 
L 496.874116 95.722801 
L 497.010565 95.172293 
L 497.336714 95.172293 
L 497.763836 94.621786 
L 497.81917 95.722801 
L 497.972523 94.621786 
L 498.113116 95.172293 
L 498.197501 94.621786 
L 498.532262 95.172293 
L 498.933927 94.621786 
L 499.136253 94.621786 
L 499.413987 95.172293 
L 499.808766 95.172293 
L 500.213533 94.071278 
L 500.425558 94.621786 
L 500.854294 94.621786 
L 501.054786 95.172293 
L 501.084302 95.722801 
L 501.334068 94.621786 
L 501.466525 95.172293 
L 501.622327 94.621786 
L 501.853834 95.172293 
L 502.115858 95.172293 
L 502.284185 95.722801 
L 502.603414 95.722801 
L 502.935772 94.621786 
L 503.161293 95.172293 
L 503.435932 94.071278 
L 503.578958 94.071278 
L 503.668734 94.621786 
L 503.948053 94.621786 
L 503.971498 94.071278 
L 504.897452 94.071278 
L 505.049146 93.520771 
L 505.179077 93.520771 
L 505.379372 92.970263 
L 505.55213 93.520771 
L 505.683884 92.970263 
L 505.88031 92.970263 
L 505.990885 92.419756 
L 506.133603 92.970263 
L 506.179584 92.419756 
L 506.337577 91.31874 
L 506.530602 91.869248 
L 506.591349 92.419756 
L 506.794918 91.869248 
L 506.961277 92.419756 
L 507.161791 91.869248 
L 507.490384 91.869248 
L 507.581878 91.31874 
L 507.80888 91.869248 
L 508.405048 90.217725 
L 508.565417 90.217725 
L 508.731297 91.31874 
L 508.809718 90.768233 
L 509.044242 90.768233 
L 509.150945 91.31874 
L 509.342713 91.31874 
L 509.517305 90.768233 
L 509.741759 90.768233 
L 510.118591 89.11671 
L 510.319076 89.667218 
L 512.954481 89.667218 
L 513.077121 89.11671 
L 513.232643 89.11671 
L 513.357712 89.667218 
L 513.608646 89.11671 
L 514.233816 89.11671 
L 514.338398 88.015695 
L 514.999895 89.11671 
L 515.463014 89.11671 
L 516.096725 88.015695 
L 517.217003 88.566203 
L 517.501504 88.015695 
L 517.81493 88.566203 
L 518.038777 87.465188 
L 518.128557 88.566203 
L 518.423638 87.465188 
L 518.74514 88.566203 
L 518.851567 87.465188 
L 519.057733 87.465188 
L 519.171064 88.015695 
L 519.376485 87.465188 
L 519.499765 87.465188 
L 519.614596 88.015695 
L 519.754118 86.364173 
L 520.120028 87.465188 
L 520.462266 87.465188 
L 520.671385 86.91468 
L 521.066041 86.91468 
L 521.386993 87.465188 
L 521.574624 87.465188 
L 521.716467 86.364173 
L 521.893399 87.465188 
L 521.992182 86.91468 
L 522.230698 86.364173 
L 522.376945 86.364173 
L 522.632638 87.465188 
L 522.877139 85.813665 
L 523.184453 85.813665 
L 523.207778 84.71265 
L 523.22924 85.263157 
L 523.389963 85.813665 
L 523.558915 84.71265 
L 523.629387 85.813665 
L 523.884071 85.813665 
L 523.918773 85.263157 
L 524.205714 84.71265 
L 524.377446 84.71265 
L 524.457939 85.813665 
L 524.843016 84.71265 
L 524.905377 85.813665 
L 525.115118 84.71265 
L 525.276462 86.364173 
L 525.766931 85.263157 
L 526.136416 86.91468 
L 526.164987 86.364173 
L 526.399024 86.91468 
L 526.546984 86.91468 
L 526.700586 85.813665 
L 526.884021 86.91468 
L 527.236687 85.813665 
L 527.370488 86.91468 
L 527.515359 86.364173 
L 527.810578 86.364173 
L 528.005538 86.91468 
L 528.378744 86.91468 
L 528.390135 86.364173 
L 528.977515 87.465188 
L 529.289032 85.813665 
L 529.454365 85.813665 
L 529.647059 86.364173 
L 529.701526 85.263157 
L 529.975075 86.364173 
L 530.143514 85.263157 
L 530.313318 86.364173 
L 530.383492 85.813665 
L 530.731742 85.813665 
L 530.940441 85.263157 
L 531.035894 84.162142 
L 531.230214 85.263157 
L 531.549915 84.71265 
L 531.691338 84.162142 
L 531.866079 84.71265 
L 532.015273 82.51062 
L 532.249455 82.51062 
L 532.55915 81.960112 
L 532.596512 83.061127 
L 532.901314 81.960112 
L 533.335184 83.061127 
L 533.452418 81.409605 
L 533.804222 80.859097 
L 534.187393 81.960112 
L 534.430247 82.51062 
L 535.105319 81.960112 
L 535.186178 81.409605 
L 536.134963 81.409605 
L 536.42238 80.859097 
L 536.713109 79.207574 
L 537.459531 79.758082 
L 538.033377 79.758082 
L 538.350311 79.207574 
L 538.432006 79.758082 
L 538.672799 78.657067 
L 538.726444 79.758082 
L 538.989986 79.207574 
L 539.468052 79.207574 
L 539.713379 78.106559 
L 539.938555 79.207574 
L 540.246099 78.106559 
L 540.365997 78.657067 
L 540.53025 78.106559 
L 540.959087 78.657067 
L 541.206945 78.106559 
L 541.931912 78.106559 
L 542.104953 78.657067 
L 542.524839 77.556052 
L 542.69551 78.657067 
L 542.842722 78.657067 
L 542.899964 78.106559 
L 543.108663 78.106559 
L 543.333749 77.556052 
L 543.487768 78.657067 
L 543.726906 77.556052 
L 543.831926 78.657067 
L 544.125166 77.556052 
L 544.30548 77.556052 
L 544.42184 78.106559 
L 544.612522 78.106559 
L 544.666405 78.657067 
L 544.677469 78.106559 
L 545.002993 78.106559 
L 545.113132 78.657067 
L 545.411741 77.556052 
L 545.686722 78.657067 
L 546.157973 78.106559 
L 547.165031 78.106559 
L 547.406538 78.657067 
L 547.663294 78.106559 
L 547.828567 78.657067 
L 547.93066 78.106559 
L 548.645884 78.106559 
L 548.864248 78.657067 
L 549.365625 77.556052 
L 549.487531 78.106559 
L 549.888564 77.556052 
L 550.326545 78.106559 
L 550.559164 77.556052 
L 551.106448 78.657067 
L 551.250048 79.207574 
L 551.487968 79.207574 
L 551.94621 77.556052 
L 552.070854 77.556052 
L 552.229093 78.657067 
L 552.600747 78.657067 
L 552.809203 78.106559 
L 552.967285 78.106559 
L 553.130732 78.657067 
L 553.439332 78.657067 
L 553.86071 78.106559 
L 554.094621 78.106559 
L 554.190378 77.556052 
L 554.4152 78.657067 
L 554.533651 77.556052 
L 554.680918 78.106559 
L 554.773927 77.556052 
L 555.364398 77.556052 
L 555.385771 76.455037 
L 555.481123 77.005544 
L 555.659517 77.005544 
L 555.766119 77.556052 
L 555.933799 77.005544 
L 556.118684 77.556052 
L 556.590162 77.005544 
L 556.990618 77.005544 
L 557.142718 75.904529 
L 557.202702 76.455037 
L 557.381918 75.904529 
L 557.622264 76.455037 
L 557.734781 77.005544 
L 557.902502 76.455037 
L 558.067902 77.005544 
L 558.266846 75.904529 
L 558.351134 77.005544 
L 558.529878 85.263157 
L 559.017911 85.263157 
L 559.152425 85.813665 
L 559.280277 83.611635 
L 559.992652 84.162142 
L 560.521948 84.162142 
L 560.624882 83.611635 
L 560.757254 83.611635 
L 561.172099 84.71265 
L 561.485897 84.71265 
L 561.499275 84.162142 
L 561.892119 83.611635 
L 562.170348 84.162142 
L 562.449845 85.263157 
L 562.485574 84.162142 
L 562.699105 85.263157 
L 562.782158 84.71265 
L 563.420055 84.71265 
L 563.45453 84.162142 
L 563.715735 84.162142 
L 563.715735 84.162142 
" clip-path="url(#pa1339e85ab)" style="fill: none; stroke-dasharray: 6,1.5; stroke-dashoffset: 0; stroke: #008000; stroke-width: 1.5"/>
   </g>
   <g id="line2d_20">
    <path d="M 38.539265 362.168452 
L 39.853309 363.269467 
L 41.163112 363.269467 
L 42.430058 362.718959 
L 44.264854 362.718959 
L 48.096846 362.168452 
L 48.20504 362.718959 
L 51.523386 362.718959 
L 51.83612 363.819974 
L 52.528019 363.819974 
L 52.815708 360.516929 
L 53.199114 363.819974 
L 55.066186 363.819974 
L 55.408559 360.516929 
L 57.983537 360.516929 
L 59.340877 361.067436 
L 59.525722 361.617944 
L 60.557523 361.617944 
L 60.847128 359.966421 
L 64.012653 359.966421 
L 64.388116 360.516929 
L 74.039271 360.516929 
L 74.343263 359.966421 
L 80.158255 359.966421 
L 80.447946 362.168452 
L 128.66735 362.168452 
L 128.992486 363.269467 
L 129.38561 366.572512 
L 129.666432 366.572512 
L 129.983849 367.123019 
L 131.890106 367.123019 
L 134.5189 368.774542 
L 134.787319 368.774542 
L 135.237387 369.32505 
L 148.525132 369.32505 
L 149.239158 370.426065 
L 179.386651 370.426065 
L 179.725768 370.976572 
L 180.077832 370.426065 
L 182.127591 370.426065 
L 182.42893 370.976572 
L 187.912004 370.976572 
L 189.115796 372.077587 
L 189.31656 370.976572 
L 189.703009 370.976572 
L 190.021546 372.077587 
L 197.44245 372.077587 
L 197.788159 371.52708 
L 197.989425 372.077587 
L 215.452513 372.077587 
L 215.757516 373.178602 
L 254.650682 373.178602 
L 255.01994 373.72911 
L 344.212312 373.72911 
L 344.569 373.178602 
L 355.177188 373.178602 
L 355.592919 373.72911 
L 355.70403 374.830125 
L 383.650374 374.830125 
L 383.845338 374.279617 
L 386.584239 374.279617 
L 386.737228 374.830125 
L 497.200975 374.830125 
L 497.336714 374.279617 
L 505.683884 374.279617 
L 505.990885 374.830125 
L 537.69997 374.830125 
L 538.033377 374.279617 
L 563.715735 374.279617 
L 563.715735 374.279617 
" clip-path="url(#pa1339e85ab)" style="fill: none; stroke-dasharray: 9,3; stroke-dashoffset: 0; stroke: #ffa500; stroke-width: 1.5"/>
   </g>
   <g id="line2d_21">
    <path d="M 38.539265 324.183431 
L 48.096846 324.183431 
L 48.20504 324.733939 
L 51.523386 324.733939 
L 51.83612 325.284446 
L 52.528019 325.284446 
L 52.815708 326.385461 
L 53.199114 325.284446 
L 55.066186 325.284446 
L 55.640006 326.935969 
L 56.990415 326.935969 
L 57.294656 327.486476 
L 57.478619 326.935969 
L 57.632501 327.486476 
L 71.795839 327.486476 
L 72.097338 328.587491 
L 72.215982 327.486476 
L 72.744598 328.587491 
L 89.664773 328.587491 
L 90.381806 329.137999 
L 90.544236 328.587491 
L 91.694376 328.587491 
L 92.006701 329.137999 
L 92.351287 328.587491 
L 93.171145 328.587491 
L 93.623996 329.137999 
L 93.960178 328.587491 
L 120.024815 328.587491 
L 120.305879 329.137999 
L 120.665025 329.137999 
L 120.983499 328.587491 
L 121.311158 328.587491 
L 121.536933 329.137999 
L 121.781628 328.587491 
L 122.188274 329.137999 
L 128.992486 329.137999 
L 129.38561 328.587491 
L 129.666432 328.587491 
L 129.983849 329.688506 
L 131.53107 329.688506 
L 131.890106 332.441044 
L 134.5189 330.239014 
L 134.787319 330.789522 
L 136.66685 330.789522 
L 137.033534 333.542059 
L 137.356885 334.092567 
L 151.923261 334.092567 
L 152.432484 333.542059 
L 152.835451 334.092567 
L 153.734244 333.542059 
L 155.923287 333.542059 
L 157.218324 334.092567 
L 162.625131 334.092567 
L 163.033953 334.643074 
L 197.179596 334.643074 
L 197.44245 335.193582 
L 197.788159 334.643074 
L 203.870823 334.643074 
L 204.256807 341.799672 
L 205.155236 341.799672 
L 205.521815 346.203733 
L 205.845007 347.855255 
L 225.418306 347.855255 
L 228.171262 348.405763 
L 257.220277 348.405763 
L 257.543223 350.607793 
L 264.275409 350.607793 
L 264.580319 347.304748 
L 280.142935 347.304748 
L 280.321072 347.855255 
L 309.30059 347.855255 
L 309.514899 348.405763 
L 309.854671 347.855255 
L 317.683642 347.855255 
L 317.828811 348.405763 
L 318.125008 347.855255 
L 320.110178 347.855255 
L 320.385575 348.405763 
L 320.489655 347.855255 
L 323.434982 347.855255 
L 323.640656 348.405763 
L 332.860545 348.405763 
L 333.04084 347.855255 
L 344.569 347.855255 
L 344.834049 347.304748 
L 344.966919 347.855255 
L 345.13038 347.304748 
L 345.234039 347.855255 
L 345.442009 347.855255 
L 345.529169 347.304748 
L 345.762391 347.855255 
L 347.151218 347.855255 
L 347.4129 347.304748 
L 347.530127 347.855255 
L 355.592919 347.855255 
L 355.70403 347.304748 
L 383.650374 347.304748 
L 383.845338 347.855255 
L 388.22426 347.855255 
L 388.319586 350.607793 
L 388.599021 347.855255 
L 391.131719 347.855255 
L 391.145585 350.607793 
L 391.462001 347.855255 
L 391.488251 350.607793 
L 416.825272 350.607793 
L 417.143095 350.057286 
L 417.416127 350.607793 
L 448.264811 350.607793 
L 448.471449 351.158301 
L 448.605178 350.607793 
L 448.919783 350.607793 
L 449.370227 351.158301 
L 469.689632 351.158301 
L 469.924209 351.708808 
L 472.814376 351.708808 
L 473.10599 352.259316 
L 478.884908 352.259316 
L 479.003854 351.708808 
L 485.642321 351.708808 
L 485.886004 352.259316 
L 497.200975 352.259316 
L 497.336714 356.112869 
L 505.683884 356.112869 
L 505.990885 355.562361 
L 513.608646 355.562361 
L 514.338398 357.764391 
L 521.716467 357.764391 
L 521.992182 357.213884 
L 535.438733 357.213884 
L 535.904304 356.663376 
L 537.69997 356.663376 
L 538.033377 358.865406 
L 538.432006 359.415914 
L 540.53025 359.415914 
L 540.959087 359.966421 
L 558.351134 359.966421 
L 558.529878 356.663376 
L 563.715735 356.663376 
L 563.715735 356.663376 
" clip-path="url(#pa1339e85ab)" style="fill: none; stroke-dasharray: 12,4.5; stroke-dashoffset: 0; stroke: #ee82ee; stroke-width: 1.5"/>
   </g>
   <g id="patch_3">
    <path d="M 33.2875 374.830125 
L 33.2875 22.318125 
" style="fill: none; stroke: #000000; stroke-width: 0.8; stroke-linejoin: miter; stroke-linecap: square"/>
   </g>
   <g id="patch_4">
    <path d="M 568.9675 374.830125 
L 568.9675 22.318125 
" style="fill: none; stroke: #000000; stroke-width: 0.8; stroke-linejoin: miter; stroke-linecap: square"/>
   </g>
   <g id="patch_5">
    <path d="M 33.2875 374.830125 
L 568.9675 374.830125 
" style="fill: none; stroke: #000000; stroke-width: 0.8; stroke-linejoin: miter; stroke-linecap: square"/>
   </g>
   <g id="patch_6">
    <path d="M 33.2875 22.318125 
L 568.9675 22.318125 
" style="fill: none; stroke: #000000; stroke-width: 0.8; stroke-linejoin: miter; stroke-linecap: square"/>
   </g>
   <g id="text_17">
    <!-- Rust/Coreutils running GNU's testsuite -->
    <g transform="translate(186.090625 16.318125) scale(0.12 -0.12)">
     <defs>
      <path id="DejaVuSans-52" d="M 2841 2188 
Q 3044 2119 3236 1894 
Q 3428 1669 3622 1275 
L 4263 0 
L 3584 0 
L 2988 1197 
Q 2756 1666 2539 1819 
Q 2322 1972 1947 1972 
L 1259 1972 
L 1259 0 
L 628 0 
L 628 4666 
L 2053 4666 
Q 2853 4666 3247 4331 
Q 3641 3997 3641 3322 
Q 3641 2881 3436 2590 
Q 3231 2300 2841 2188 
z
M 1259 4147 
L 1259 2491 
L 2053 2491 
Q 2509 2491 2742 2702 
Q 2975 2913 2975 3322 
Q 2975 3731 2742 3939 
Q 2509 4147 2053 4147 
L 1259 4147 
z
" transform="scale(0.015625)"/>
      <path id="DejaVuSans-75" d="M 544 1381 
L 544 3500 
L 1119 3500 
L 1119 1403 
Q 1119 906 1312 657 
Q 1506 409 1894 409 
Q 2359 409 2629 706 
Q 2900 1003 2900 1516 
L 2900 3500 
L 3475 3500 
L 3475 0 
L 2900 0 
L 2900 538 
Q 2691 219 2414 64 
Q 2138 -91 1772 -91 
Q 1169 -91 856 284 
Q 544 659 544 1381 
z
M 1991 3584 
L 1991 3584 
z
" transform="scale(0.015625)"/>
      <path id="DejaVuSans-73" d="M 2834 3397 
L 2834 2853 
Q 2591 2978 2328 3040 
Q 2066 3103 1784 3103 
Q 1356 3103 1142 2972 
Q 928 2841 928 2578 
Q 928 2378 1081 2264 
Q 1234 2150 1697 2047 
L 1894 2003 
Q 2506 1872 2764 1633 
Q 3022 1394 3022 966 
Q 3022 478 2636 193 
Q 2250 -91 1575 -91 
Q 1294 -91 989 -36 
Q 684 19 347 128 
L 347 722 
Q 666 556 975 473 
Q 1284 391 1588 391 
Q 1994 391 2212 530 
Q 2431 669 2431 922 
Q 2431 1156 2273 1281 
Q 2116 1406 1581 1522 
L 1381 1569 
Q 847 1681 609 1914 
Q 372 2147 372 2553 
Q 372 3047 722 3315 
Q 1072 3584 1716 3584 
Q 2034 3584 2315 3537 
Q 2597 3491 2834 3397 
z
" transform="scale(0.015625)"/>
      <path id="DejaVuSans-74" d="M 1172 4494 
L 1172 3500 
L 2356 3500 
L 2356 3053 
L 1172 3053 
L 1172 1153 
Q 1172 725 1289 603 
Q 1406 481 1766 481 
L 2356 481 
L 2356 0 
L 1766 0 
Q 1100 0 847 248 
Q 594 497 594 1153 
L 594 3053 
L 172 3053 
L 172 3500 
L 594 3500 
L 594 4494 
L 1172 4494 
z
" transform="scale(0.015625)"/>
      <path id="DejaVuSans-2f" d="M 1625 4666 
L 2156 4666 
L 531 -594 
L 0 -594 
L 1625 4666 
z
" transform="scale(0.015625)"/>
      <path id="DejaVuSans-43" d="M 4122 4306 
L 4122 3641 
Q 3803 3938 3442 4084 
Q 3081 4231 2675 4231 
Q 1875 4231 1450 3742 
Q 1025 3253 1025 2328 
Q 1025 1406 1450 917 
Q 1875 428 2675 428 
Q 3081 428 3442 575 
Q 3803 722 4122 1019 
L 4122 359 
Q 3791 134 3420 21 
Q 3050 -91 2638 -91 
Q 1578 -91 968 557 
Q 359 1206 359 2328 
Q 359 3453 968 4101 
Q 1578 4750 2638 4750 
Q 3056 4750 3426 4639 
Q 3797 4528 4122 4306 
z
" transform="scale(0.015625)"/>
      <path id="DejaVuSans-6f" d="M 1959 3097 
Q 1497 3097 1228 2736 
Q 959 2375 959 1747 
Q 959 1119 1226 758 
Q 1494 397 1959 397 
Q 2419 397 2687 759 
Q 2956 1122 2956 1747 
Q 2956 2369 2687 2733 
Q 2419 3097 1959 3097 
z
M 1959 3584 
Q 2709 3584 3137 3096 
Q 3566 2609 3566 1747 
Q 3566 888 3137 398 
Q 2709 -91 1959 -91 
Q 1206 -91 779 398 
Q 353 888 353 1747 
Q 353 2609 779 3096 
Q 1206 3584 1959 3584 
z
" transform="scale(0.015625)"/>
      <path id="DejaVuSans-72" d="M 2631 2963 
Q 2534 3019 2420 3045 
Q 2306 3072 2169 3072 
Q 1681 3072 1420 2755 
Q 1159 2438 1159 1844 
L 1159 0 
L 581 0 
L 581 3500 
L 1159 3500 
L 1159 2956 
Q 1341 3275 1631 3429 
Q 1922 3584 2338 3584 
Q 2397 3584 2469 3576 
Q 2541 3569 2628 3553 
L 2631 2963 
z
" transform="scale(0.015625)"/>
      <path id="DejaVuSans-65" d="M 3597 1894 
L 3597 1613 
L 953 1613 
Q 991 1019 1311 708 
Q 1631 397 2203 397 
Q 2534 397 2845 478 
Q 3156 559 3463 722 
L 3463 178 
Q 3153 47 2828 -22 
Q 2503 -91 2169 -91 
Q 1331 -91 842 396 
Q 353 884 353 1716 
Q 353 2575 817 3079 
Q 1281 3584 2069 3584 
Q 2775 3584 3186 3129 
Q 3597 2675 3597 1894 
z
M 3022 2063 
Q 3016 2534 2758 2815 
Q 2500 3097 2075 3097 
Q 1594 3097 1305 2825 
Q 1016 2553 972 2059 
L 3022 2063 
z
" transform="scale(0.015625)"/>
      <path id="DejaVuSans-69" d="M 603 3500 
L 1178 3500 
L 1178 0 
L 603 0 
L 603 3500 
z
M 603 4863 
L 1178 4863 
L 1178 4134 
L 603 4134 
L 603 4863 
z
" transform="scale(0.015625)"/>
      <path id="DejaVuSans-6c" d="M 603 4863 
L 1178 4863 
L 1178 0 
L 603 0 
L 603 4863 
z
" transform="scale(0.015625)"/>
      <path id="DejaVuSans-20" transform="scale(0.015625)"/>
      <path id="DejaVuSans-6e" d="M 3513 2113 
L 3513 0 
L 2938 0 
L 2938 2094 
Q 2938 2591 2744 2837 
Q 2550 3084 2163 3084 
Q 1697 3084 1428 2787 
Q 1159 2491 1159 1978 
L 1159 0 
L 581 0 
L 581 3500 
L 1159 3500 
L 1159 2956 
Q 1366 3272 1645 3428 
Q 1925 3584 2291 3584 
Q 2894 3584 3203 3211 
Q 3513 2838 3513 2113 
z
" transform="scale(0.015625)"/>
      <path id="DejaVuSans-67" d="M 2906 1791 
Q 2906 2416 2648 2759 
Q 2391 3103 1925 3103 
Q 1463 3103 1205 2759 
Q 947 2416 947 1791 
Q 947 1169 1205 825 
Q 1463 481 1925 481 
Q 2391 481 2648 825 
Q 2906 1169 2906 1791 
z
M 3481 434 
Q 3481 -459 3084 -895 
Q 2688 -1331 1869 -1331 
Q 1566 -1331 1297 -1286 
Q 1028 -1241 775 -1147 
L 775 -588 
Q 1028 -725 1275 -790 
Q 1522 -856 1778 -856 
Q 2344 -856 2625 -561 
Q 2906 -266 2906 331 
L 2906 616 
Q 2728 306 2450 153 
Q 2172 0 1784 0 
Q 1141 0 747 490 
Q 353 981 353 1791 
Q 353 2603 747 3093 
Q 1141 3584 1784 3584 
Q 2172 3584 2450 3431 
Q 2728 3278 2906 2969 
L 2906 3500 
L 3481 3500 
L 3481 434 
z
" transform="scale(0.015625)"/>
      <path id="DejaVuSans-47" d="M 3809 666 
L 3809 1919 
L 2778 1919 
L 2778 2438 
L 4434 2438 
L 4434 434 
Q 4069 175 3628 42 
Q 3188 -91 2688 -91 
Q 1594 -91 976 548 
Q 359 1188 359 2328 
Q 359 3472 976 4111 
Q 1594 4750 2688 4750 
Q 3144 4750 3555 4637 
Q 3966 4525 4313 4306 
L 4313 3634 
Q 3963 3931 3569 4081 
Q 3175 4231 2741 4231 
Q 1884 4231 1454 3753 
Q 1025 3275 1025 2328 
Q 1025 1384 1454 906 
Q 1884 428 2741 428 
Q 3075 428 3337 486 
Q 3600 544 3809 666 
z
" transform="scale(0.015625)"/>
      <path id="DejaVuSans-4e" d="M 628 4666 
L 1478 4666 
L 3547 763 
L 3547 4666 
L 4159 4666 
L 4159 0 
L 3309 0 
L 1241 3903 
L 1241 0 
L 628 0 
L 628 4666 
z
" transform="scale(0.015625)"/>
      <path id="DejaVuSans-55" d="M 556 4666 
L 1191 4666 
L 1191 1831 
Q 1191 1081 1462 751 
Q 1734 422 2344 422 
Q 2950 422 3222 751 
Q 3494 1081 3494 1831 
L 3494 4666 
L 4128 4666 
L 4128 1753 
Q 4128 841 3676 375 
Q 3225 -91 2344 -91 
Q 1459 -91 1007 375 
Q 556 841 556 1753 
L 556 4666 
z
" transform="scale(0.015625)"/>
      <path id="DejaVuSans-27" d="M 1147 4666 
L 1147 2931 
L 616 2931 
L 616 4666 
L 1147 4666 
z
" transform="scale(0.015625)"/>
     </defs>
     <use xlink:href="#DejaVuSans-52"/>
     <use xlink:href="#DejaVuSans-75" x="64.982422"/>
     <use xlink:href="#DejaVuSans-73" x="128.361328"/>
     <use xlink:href="#DejaVuSans-74" x="180.460938"/>
     <use xlink:href="#DejaVuSans-2f" x="219.669922"/>
     <use xlink:href="#DejaVuSans-43" x="253.361328"/>
     <use xlink:href="#DejaVuSans-6f" x="323.185547"/>
     <use xlink:href="#DejaVuSans-72" x="384.367188"/>
     <use xlink:href="#DejaVuSans-65" x="423.230469"/>
     <use xlink:href="#DejaVuSans-75" x="484.753906"/>
     <use xlink:href="#DejaVuSans-74" x="548.132812"/>
     <use xlink:href="#DejaVuSans-69" x="587.341797"/>
     <use xlink:href="#DejaVuSans-6c" x="615.125"/>
     <use xlink:href="#DejaVuSans-73" x="642.908203"/>
     <use xlink:href="#DejaVuSans-20" x="695.007812"/>
     <use xlink:href="#DejaVuSans-72" x="726.794922"/>
     <use xlink:href="#DejaVuSans-75" x="767.908203"/>
     <use xlink:href="#DejaVuSans-6e" x="831.287109"/>
     <use xlink:href="#DejaVuSans-6e" x="894.666016"/>
     <use xlink:href="#DejaVuSans-69" x="958.044922"/>
     <use xlink:href="#DejaVuSans-6e" x="985.828125"/>
     <use xlink:href="#DejaVuSans-67" x="1049.207031"/>
     <use xlink:href="#DejaVuSans-20" x="1112.683594"/>
     <use xlink:href="#DejaVuSans-47" x="1144.470703"/>
     <use xlink:href="#DejaVuSans-4e" x="1221.960938"/>
     <use xlink:href="#DejaVuSans-55" x="1296.765625"/>
     <use xlink:href="#DejaVuSans-27" x="1369.958984"/>
     <use xlink:href="#DejaVuSans-73" x="1397.449219"/>
     <use xlink:href="#DejaVuSans-20" x="1449.548828"/>
     <use xlink:href="#DejaVuSans-74" x="1481.335938"/>
     <use xlink:href="#DejaVuSans-65" x="1520.544922"/>
     <use xlink:href="#DejaVuSans-73" x="1582.068359"/>
     <use xlink:href="#DejaVuSans-74" x="1634.167969"/>
     <use xlink:href="#DejaVuSans-73" x="1673.376953"/>
     <use xlink:href="#DejaVuSans-75" x="1725.476562"/>
     <use xlink:href="#DejaVuSans-69" x="1788.855469"/>
     <use xlink:href="#DejaVuSans-74" x="1816.638672"/>
     <use xlink:href="#DejaVuSans-65" x="1855.847656"/>
    </g>
   </g>
   <g id="legend_1">
    <g id="patch_7">
     <path d="M 505.762812 236.769437 
L 561.9675 236.769437 
Q 563.9675 236.769437 563.9675 234.769437 
L 563.9675 162.378812 
Q 563.9675 160.378812 561.9675 160.378812 
L 505.762812 160.378812 
Q 503.762812 160.378812 503.762812 162.378812 
L 503.762812 234.769437 
Q 503.762812 236.769437 505.762812 236.769437 
z
" style="fill: #ffffff; opacity: 0.8; stroke: #cccccc; stroke-linejoin: miter"/>
    </g>
    <g id="line2d_22">
     <path d="M 507.762812 168.47725 
L 517.762812 168.47725 
L 527.762812 168.47725 
" style="fill: none; stroke: #0000ff; stroke-width: 1.5; stroke-linecap: square"/>
    </g>
    <g id="text_18">
     <!-- total -->
     <g transform="translate(535.762812 171.97725) scale(0.1 -0.1)">
      <defs>
       <path id="DejaVuSans-61" d="M 2194 1759 
Q 1497 1759 1228 1600 
Q 959 1441 959 1056 
Q 959 750 1161 570 
Q 1363 391 1709 391 
Q 2188 391 2477 730 
Q 2766 1069 2766 1631 
L 2766 1759 
L 2194 1759 
z
M 3341 1997 
L 3341 0 
L 2766 0 
L 2766 531 
Q 2569 213 2275 61 
Q 1981 -91 1556 -91 
Q 1019 -91 701 211 
Q 384 513 384 1019 
Q 384 1609 779 1909 
Q 1175 2209 1959 2209 
L 2766 2209 
L 2766 2266 
Q 2766 2663 2505 2880 
Q 2244 3097 1772 3097 
Q 1472 3097 1187 3025 
Q 903 2953 641 2809 
L 641 3341 
Q 956 3463 1253 3523 
Q 1550 3584 1831 3584 
Q 2591 3584 2966 3190 
Q 3341 2797 3341 1997 
z
" transform="scale(0.015625)"/>
      </defs>
      <use xlink:href="#DejaVuSans-74"/>
      <use xlink:href="#DejaVuSans-6f" x="39.208984"/>
      <use xlink:href="#DejaVuSans-74" x="100.390625"/>
      <use xlink:href="#DejaVuSans-61" x="139.599609"/>
      <use xlink:href="#DejaVuSans-6c" x="200.878906"/>
     </g>
    </g>
    <g id="line2d_23">
     <path d="M 507.762812 183.155375 
L 517.762812 183.155375 
L 527.762812 183.155375 
" style="fill: none; stroke-dasharray: 3,1.5; stroke-dashoffset: 0; stroke: #808080; stroke-width: 1.5"/>
    </g>
    <g id="text_19">
     <!-- fail -->
     <g transform="translate(535.762812 186.655375) scale(0.1 -0.1)">
      <defs>
       <path id="DejaVuSans-66" d="M 2375 4863 
L 2375 4384 
L 1825 4384 
Q 1516 4384 1395 4259 
Q 1275 4134 1275 3809 
L 1275 3500 
L 2222 3500 
L 2222 3053 
L 1275 3053 
L 1275 0 
L 697 0 
L 697 3053 
L 147 3053 
L 147 3500 
L 697 3500 
L 697 3744 
Q 697 4328 969 4595 
Q 1241 4863 1831 4863 
L 2375 4863 
z
" transform="scale(0.015625)"/>
      </defs>
      <use xlink:href="#DejaVuSans-66"/>
      <use xlink:href="#DejaVuSans-61" x="35.205078"/>
      <use xlink:href="#DejaVuSans-69" x="96.484375"/>
      <use xlink:href="#DejaVuSans-6c" x="124.267578"/>
     </g>
    </g>
    <g id="line2d_24">
     <path d="M 507.762812 197.8335 
L 517.762812 197.8335 
L 527.762812 197.8335 
" style="fill: none; stroke-dasharray: 6,1.5; stroke-dashoffset: 0; stroke: #008000; stroke-width: 1.5"/>
    </g>
    <g id="text_20">
     <!-- pass -->
     <g transform="translate(535.762812 201.3335) scale(0.1 -0.1)">
      <defs>
       <path id="DejaVuSans-70" d="M 1159 525 
L 1159 -1331 
L 581 -1331 
L 581 3500 
L 1159 3500 
L 1159 2969 
Q 1341 3281 1617 3432 
Q 1894 3584 2278 3584 
Q 2916 3584 3314 3078 
Q 3713 2572 3713 1747 
Q 3713 922 3314 415 
Q 2916 -91 2278 -91 
Q 1894 -91 1617 61 
Q 1341 213 1159 525 
z
M 3116 1747 
Q 3116 2381 2855 2742 
Q 2594 3103 2138 3103 
Q 1681 3103 1420 2742 
Q 1159 2381 1159 1747 
Q 1159 1113 1420 752 
Q 1681 391 2138 391 
Q 2594 391 2855 752 
Q 3116 1113 3116 1747 
z
" transform="scale(0.015625)"/>
      </defs>
      <use xlink:href="#DejaVuSans-70"/>
      <use xlink:href="#DejaVuSans-61" x="63.476562"/>
      <use xlink:href="#DejaVuSans-73" x="124.755859"/>
      <use xlink:href="#DejaVuSans-73" x="176.855469"/>
     </g>
    </g>
    <g id="line2d_25">
     <path d="M 507.762812 212.511625 
L 517.762812 212.511625 
L 527.762812 212.511625 
" style="fill: none; stroke-dasharray: 9,3; stroke-dashoffset: 0; stroke: #ffa500; stroke-width: 1.5"/>
    </g>
    <g id="text_21">
     <!-- error -->
     <g transform="translate(535.762812 216.011625) scale(0.1 -0.1)">
      <use xlink:href="#DejaVuSans-65"/>
      <use xlink:href="#DejaVuSans-72" x="61.523438"/>
      <use xlink:href="#DejaVuSans-72" x="100.886719"/>
      <use xlink:href="#DejaVuSans-6f" x="139.75"/>
      <use xlink:href="#DejaVuSans-72" x="200.931641"/>
     </g>
    </g>
    <g id="line2d_26">
     <path d="M 507.762812 227.18975 
L 517.762812 227.18975 
L 527.762812 227.18975 
" style="fill: none; stroke-dasharray: 12,4.5; stroke-dashoffset: 0; stroke: #ee82ee; stroke-width: 1.5"/>
    </g>
    <g id="text_22">
     <!-- skip -->
     <g transform="translate(535.762812 230.68975) scale(0.1 -0.1)">
      <defs>
       <path id="DejaVuSans-6b" d="M 581 4863 
L 1159 4863 
L 1159 1991 
L 2875 3500 
L 3609 3500 
L 1753 1863 
L 3688 0 
L 2938 0 
L 1159 1709 
L 1159 0 
L 581 0 
L 581 4863 
z
" transform="scale(0.015625)"/>
      </defs>
      <use xlink:href="#DejaVuSans-73"/>
      <use xlink:href="#DejaVuSans-6b" x="52.099609"/>
      <use xlink:href="#DejaVuSans-69" x="110.009766"/>
      <use xlink:href="#DejaVuSans-70" x="137.792969"/>
     </g>
    </g>
   </g>
  </g>
 </g>
 <defs>
  <clipPath id="pa1339e85ab">
   <rect x="33.2875" y="22.318125" width="535.68" height="352.512"/>
  </clipPath>
 </defs>
</svg>
