<?xml version="1.0" encoding="utf-8" standalone="no"?>
<!DOCTYPE svg PUBLIC "-//W3C//DTD SVG 1.1//EN"
  "http://www.w3.org/Graphics/SVG/1.1/DTD/svg11.dtd">
<svg xmlns:xlink="http://www.w3.org/1999/xlink" width="576.1675pt" height="418.303033pt" viewBox="0 0 576.1675 418.303033" xmlns="http://www.w3.org/2000/svg" version="1.1">
 <metadata>
  <rdf:RDF xmlns:dc="http://purl.org/dc/elements/1.1/" xmlns:cc="http://creativecommons.org/ns#" xmlns:rdf="http://www.w3.org/1999/02/22-rdf-syntax-ns#">
   <cc:Work>
    <dc:type rdf:resource="http://purl.org/dc/dcmitype/StillImage"/>
    <dc:date>2025-08-01T14:04:03.531460</dc:date>
    <dc:format>image/svg+xml</dc:format>
    <dc:creator>
     <cc:Agent>
      <dc:title>Matplotlib v3.6.3, https://matplotlib.org/</dc:title>
     </cc:Agent>
    </dc:creator>
   </cc:Work>
  </rdf:RDF>
 </metadata>
 <defs>
  <style type="text/css">*{stroke-linejoin: round; stroke-linecap: butt}</style>
 </defs>
 <g id="figure_1">
  <g id="patch_1">
   <path d="M -0 418.303033 
L 576.1675 418.303033 
L 576.1675 0 
L -0 0 
z
" style="fill: #ffffff"/>
  </g>
  <g id="axes_1">
   <g id="patch_2">
    <path d="M 33.2875 374.830125 
L 568.9675 374.830125 
L 568.9675 22.318125 
L 33.2875 22.318125 
z
" style="fill: #ffffff"/>
   </g>
   <g id="matplotlib.axis_1">
    <g id="xtick_1">
     <g id="line2d_1">
      <defs>
       <path id="m5a73de7f46" d="M 0 0 
L 0 3.5 
" style="stroke: #000000; stroke-width: 0.8"/>
      </defs>
      <g>
       <use xlink:href="#m5a73de7f46" x="62.520745" y="374.830125" style="stroke: #000000; stroke-width: 0.8"/>
      </g>
     </g>
     <g id="text_1">
      <!-- 2021-07 -->
      <g transform="translate(25.295924 409.301971) rotate(-30) scale(0.1 -0.1)">
       <defs>
        <path id="DejaVuSans-32" d="M 1228 531 
L 3431 531 
L 3431 0 
L 469 0 
L 469 531 
Q 828 903 1448 1529 
Q 2069 2156 2228 2338 
Q 2531 2678 2651 2914 
Q 2772 3150 2772 3378 
Q 2772 3750 2511 3984 
Q 2250 4219 1831 4219 
Q 1534 4219 1204 4116 
Q 875 4013 500 3803 
L 500 4441 
Q 881 4594 1212 4672 
Q 1544 4750 1819 4750 
Q 2544 4750 2975 4387 
Q 3406 4025 3406 3419 
Q 3406 3131 3298 2873 
Q 3191 2616 2906 2266 
Q 2828 2175 2409 1742 
Q 1991 1309 1228 531 
z
" transform="scale(0.015625)"/>
        <path id="DejaVuSans-30" d="M 2034 4250 
Q 1547 4250 1301 3770 
Q 1056 3291 1056 2328 
Q 1056 1369 1301 889 
Q 1547 409 2034 409 
Q 2525 409 2770 889 
Q 3016 1369 3016 2328 
Q 3016 3291 2770 3770 
Q 2525 4250 2034 4250 
z
M 2034 4750 
Q 2819 4750 3233 4129 
Q 3647 3509 3647 2328 
Q 3647 1150 3233 529 
Q 2819 -91 2034 -91 
Q 1250 -91 836 529 
Q 422 1150 422 2328 
Q 422 3509 836 4129 
Q 1250 4750 2034 4750 
z
" transform="scale(0.015625)"/>
        <path id="DejaVuSans-31" d="M 794 531 
L 1825 531 
L 1825 4091 
L 703 3866 
L 703 4441 
L 1819 4666 
L 2450 4666 
L 2450 531 
L 3481 531 
L 3481 0 
L 794 0 
L 794 531 
z
" transform="scale(0.015625)"/>
        <path id="DejaVuSans-2d" d="M 313 2009 
L 1997 2009 
L 1997 1497 
L 313 1497 
L 313 2009 
z
" transform="scale(0.015625)"/>
        <path id="DejaVuSans-37" d="M 525 4666 
L 3525 4666 
L 3525 4397 
L 1831 0 
L 1172 0 
L 2766 4134 
L 525 4134 
L 525 4666 
z
" transform="scale(0.015625)"/>
       </defs>
       <use xlink:href="#DejaVuSans-32"/>
       <use xlink:href="#DejaVuSans-30" x="63.623047"/>
       <use xlink:href="#DejaVuSans-32" x="127.246094"/>
       <use xlink:href="#DejaVuSans-31" x="190.869141"/>
       <use xlink:href="#DejaVuSans-2d" x="254.492188"/>
       <use xlink:href="#DejaVuSans-30" x="290.576172"/>
       <use xlink:href="#DejaVuSans-37" x="354.199219"/>
      </g>
     </g>
    </g>
    <g id="xtick_2">
     <g id="line2d_2">
      <g>
       <use xlink:href="#m5a73de7f46" x="124.311072" y="374.830125" style="stroke: #000000; stroke-width: 0.8"/>
      </g>
     </g>
     <g id="text_2">
      <!-- 2022-01 -->
      <g transform="translate(87.086251 409.301971) rotate(-30) scale(0.1 -0.1)">
       <use xlink:href="#DejaVuSans-32"/>
       <use xlink:href="#DejaVuSans-30" x="63.623047"/>
       <use xlink:href="#DejaVuSans-32" x="127.246094"/>
       <use xlink:href="#DejaVuSans-32" x="190.869141"/>
       <use xlink:href="#DejaVuSans-2d" x="254.492188"/>
       <use xlink:href="#DejaVuSans-30" x="290.576172"/>
       <use xlink:href="#DejaVuSans-31" x="354.199219"/>
      </g>
     </g>
    </g>
    <g id="xtick_3">
     <g id="line2d_3">
      <g>
       <use xlink:href="#m5a73de7f46" x="185.093947" y="374.830125" style="stroke: #000000; stroke-width: 0.8"/>
      </g>
     </g>
     <g id="text_3">
      <!-- 2022-07 -->
      <g transform="translate(147.869126 409.301971) rotate(-30) scale(0.1 -0.1)">
       <use xlink:href="#DejaVuSans-32"/>
       <use xlink:href="#DejaVuSans-30" x="63.623047"/>
       <use xlink:href="#DejaVuSans-32" x="127.246094"/>
       <use xlink:href="#DejaVuSans-32" x="190.869141"/>
       <use xlink:href="#DejaVuSans-2d" x="254.492188"/>
       <use xlink:href="#DejaVuSans-30" x="290.576172"/>
       <use xlink:href="#DejaVuSans-37" x="354.199219"/>
      </g>
     </g>
    </g>
    <g id="xtick_4">
     <g id="line2d_4">
      <g>
       <use xlink:href="#m5a73de7f46" x="246.884274" y="374.830125" style="stroke: #000000; stroke-width: 0.8"/>
      </g>
     </g>
     <g id="text_4">
      <!-- 2023-01 -->
      <g transform="translate(209.659453 409.301971) rotate(-30) scale(0.1 -0.1)">
       <defs>
        <path id="DejaVuSans-33" d="M 2597 2516 
Q 3050 2419 3304 2112 
Q 3559 1806 3559 1356 
Q 3559 666 3084 287 
Q 2609 -91 1734 -91 
Q 1441 -91 1130 -33 
Q 819 25 488 141 
L 488 750 
Q 750 597 1062 519 
Q 1375 441 1716 441 
Q 2309 441 2620 675 
Q 2931 909 2931 1356 
Q 2931 1769 2642 2001 
Q 2353 2234 1838 2234 
L 1294 2234 
L 1294 2753 
L 1863 2753 
Q 2328 2753 2575 2939 
Q 2822 3125 2822 3475 
Q 2822 3834 2567 4026 
Q 2313 4219 1838 4219 
Q 1578 4219 1281 4162 
Q 984 4106 628 3988 
L 628 4550 
Q 988 4650 1302 4700 
Q 1616 4750 1894 4750 
Q 2613 4750 3031 4423 
Q 3450 4097 3450 3541 
Q 3450 3153 3228 2886 
Q 3006 2619 2597 2516 
z
" transform="scale(0.015625)"/>
       </defs>
       <use xlink:href="#DejaVuSans-32"/>
       <use xlink:href="#DejaVuSans-30" x="63.623047"/>
       <use xlink:href="#DejaVuSans-32" x="127.246094"/>
       <use xlink:href="#DejaVuSans-33" x="190.869141"/>
       <use xlink:href="#DejaVuSans-2d" x="254.492188"/>
       <use xlink:href="#DejaVuSans-30" x="290.576172"/>
       <use xlink:href="#DejaVuSans-31" x="354.199219"/>
      </g>
     </g>
    </g>
    <g id="xtick_5">
     <g id="line2d_5">
      <g>
       <use xlink:href="#m5a73de7f46" x="307.667149" y="374.830125" style="stroke: #000000; stroke-width: 0.8"/>
      </g>
     </g>
     <g id="text_5">
      <!-- 2023-07 -->
      <g transform="translate(270.442328 409.301971) rotate(-30) scale(0.1 -0.1)">
       <use xlink:href="#DejaVuSans-32"/>
       <use xlink:href="#DejaVuSans-30" x="63.623047"/>
       <use xlink:href="#DejaVuSans-32" x="127.246094"/>
       <use xlink:href="#DejaVuSans-33" x="190.869141"/>
       <use xlink:href="#DejaVuSans-2d" x="254.492188"/>
       <use xlink:href="#DejaVuSans-30" x="290.576172"/>
       <use xlink:href="#DejaVuSans-37" x="354.199219"/>
      </g>
     </g>
    </g>
    <g id="xtick_6">
     <g id="line2d_6">
      <g>
       <use xlink:href="#m5a73de7f46" x="369.457476" y="374.830125" style="stroke: #000000; stroke-width: 0.8"/>
      </g>
     </g>
     <g id="text_6">
      <!-- 2024-01 -->
      <g transform="translate(332.232655 409.301971) rotate(-30) scale(0.1 -0.1)">
       <defs>
        <path id="DejaVuSans-34" d="M 2419 4116 
L 825 1625 
L 2419 1625 
L 2419 4116 
z
M 2253 4666 
L 3047 4666 
L 3047 1625 
L 3713 1625 
L 3713 1100 
L 3047 1100 
L 3047 0 
L 2419 0 
L 2419 1100 
L 313 1100 
L 313 1709 
L 2253 4666 
z
" transform="scale(0.015625)"/>
       </defs>
       <use xlink:href="#DejaVuSans-32"/>
       <use xlink:href="#DejaVuSans-30" x="63.623047"/>
       <use xlink:href="#DejaVuSans-32" x="127.246094"/>
       <use xlink:href="#DejaVuSans-34" x="190.869141"/>
       <use xlink:href="#DejaVuSans-2d" x="254.492188"/>
       <use xlink:href="#DejaVuSans-30" x="290.576172"/>
       <use xlink:href="#DejaVuSans-31" x="354.199219"/>
      </g>
     </g>
    </g>
    <g id="xtick_7">
     <g id="line2d_7">
      <g>
       <use xlink:href="#m5a73de7f46" x="430.576168" y="374.830125" style="stroke: #000000; stroke-width: 0.8"/>
      </g>
     </g>
     <g id="text_7">
      <!-- 2024-07 -->
      <g transform="translate(393.351347 409.301971) rotate(-30) scale(0.1 -0.1)">
       <use xlink:href="#DejaVuSans-32"/>
       <use xlink:href="#DejaVuSans-30" x="63.623047"/>
       <use xlink:href="#DejaVuSans-32" x="127.246094"/>
       <use xlink:href="#DejaVuSans-34" x="190.869141"/>
       <use xlink:href="#DejaVuSans-2d" x="254.492188"/>
       <use xlink:href="#DejaVuSans-30" x="290.576172"/>
       <use xlink:href="#DejaVuSans-37" x="354.199219"/>
      </g>
     </g>
    </g>
    <g id="xtick_8">
     <g id="line2d_8">
      <g>
       <use xlink:href="#m5a73de7f46" x="492.366495" y="374.830125" style="stroke: #000000; stroke-width: 0.8"/>
      </g>
     </g>
     <g id="text_8">
      <!-- 2025-01 -->
      <g transform="translate(455.141674 409.301971) rotate(-30) scale(0.1 -0.1)">
       <defs>
        <path id="DejaVuSans-35" d="M 691 4666 
L 3169 4666 
L 3169 4134 
L 1269 4134 
L 1269 2991 
Q 1406 3038 1543 3061 
Q 1681 3084 1819 3084 
Q 2600 3084 3056 2656 
Q 3513 2228 3513 1497 
Q 3513 744 3044 326 
Q 2575 -91 1722 -91 
Q 1428 -91 1123 -41 
Q 819 9 494 109 
L 494 744 
Q 775 591 1075 516 
Q 1375 441 1709 441 
Q 2250 441 2565 725 
Q 2881 1009 2881 1497 
Q 2881 1984 2565 2268 
Q 2250 2553 1709 2553 
Q 1456 2553 1204 2497 
Q 953 2441 691 2322 
L 691 4666 
z
" transform="scale(0.015625)"/>
       </defs>
       <use xlink:href="#DejaVuSans-32"/>
       <use xlink:href="#DejaVuSans-30" x="63.623047"/>
       <use xlink:href="#DejaVuSans-32" x="127.246094"/>
       <use xlink:href="#DejaVuSans-35" x="190.869141"/>
       <use xlink:href="#DejaVuSans-2d" x="254.492188"/>
       <use xlink:href="#DejaVuSans-30" x="290.576172"/>
       <use xlink:href="#DejaVuSans-31" x="354.199219"/>
      </g>
     </g>
    </g>
    <g id="xtick_9">
     <g id="line2d_9">
      <g>
       <use xlink:href="#m5a73de7f46" x="553.14937" y="374.830125" style="stroke: #000000; stroke-width: 0.8"/>
      </g>
     </g>
     <g id="text_9">
      <!-- 2025-07 -->
      <g transform="translate(515.924549 409.301971) rotate(-30) scale(0.1 -0.1)">
       <use xlink:href="#DejaVuSans-32"/>
       <use xlink:href="#DejaVuSans-30" x="63.623047"/>
       <use xlink:href="#DejaVuSans-32" x="127.246094"/>
       <use xlink:href="#DejaVuSans-35" x="190.869141"/>
       <use xlink:href="#DejaVuSans-2d" x="254.492188"/>
       <use xlink:href="#DejaVuSans-30" x="290.576172"/>
       <use xlink:href="#DejaVuSans-37" x="354.199219"/>
      </g>
     </g>
    </g>
   </g>
   <g id="matplotlib.axis_2">
    <g id="ytick_1">
     <g id="line2d_10">
      <defs>
       <path id="m0f40d9e954" d="M 0 0 
L -3.5 0 
" style="stroke: #000000; stroke-width: 0.8"/>
      </defs>
      <g>
       <use xlink:href="#m0f40d9e954" x="33.2875" y="374.830125" style="stroke: #000000; stroke-width: 0.8"/>
      </g>
     </g>
     <g id="text_10">
      <!-- 0 -->
      <g transform="translate(19.925 378.629344) scale(0.1 -0.1)">
       <use xlink:href="#DejaVuSans-30"/>
      </g>
     </g>
    </g>
    <g id="ytick_2">
     <g id="line2d_11">
      <g>
       <use xlink:href="#m0f40d9e954" x="33.2875" y="318.897147" style="stroke: #000000; stroke-width: 0.8"/>
      </g>
     </g>
     <g id="text_11">
      <!-- 100 -->
      <g transform="translate(7.2 322.696366) scale(0.1 -0.1)">
       <use xlink:href="#DejaVuSans-31"/>
       <use xlink:href="#DejaVuSans-30" x="63.623047"/>
       <use xlink:href="#DejaVuSans-30" x="127.246094"/>
      </g>
     </g>
    </g>
    <g id="ytick_3">
     <g id="line2d_12">
      <g>
       <use xlink:href="#m0f40d9e954" x="33.2875" y="262.964169" style="stroke: #000000; stroke-width: 0.8"/>
      </g>
     </g>
     <g id="text_12">
      <!-- 200 -->
      <g transform="translate(7.2 266.763388) scale(0.1 -0.1)">
       <use xlink:href="#DejaVuSans-32"/>
       <use xlink:href="#DejaVuSans-30" x="63.623047"/>
       <use xlink:href="#DejaVuSans-30" x="127.246094"/>
      </g>
     </g>
    </g>
    <g id="ytick_4">
     <g id="line2d_13">
      <g>
       <use xlink:href="#m0f40d9e954" x="33.2875" y="207.031191" style="stroke: #000000; stroke-width: 0.8"/>
      </g>
     </g>
     <g id="text_13">
      <!-- 300 -->
      <g transform="translate(7.2 210.83041) scale(0.1 -0.1)">
       <use xlink:href="#DejaVuSans-33"/>
       <use xlink:href="#DejaVuSans-30" x="63.623047"/>
       <use xlink:href="#DejaVuSans-30" x="127.246094"/>
      </g>
     </g>
    </g>
    <g id="ytick_5">
     <g id="line2d_14">
      <g>
       <use xlink:href="#m0f40d9e954" x="33.2875" y="151.098213" style="stroke: #000000; stroke-width: 0.8"/>
      </g>
     </g>
     <g id="text_14">
      <!-- 400 -->
      <g transform="translate(7.2 154.897432) scale(0.1 -0.1)">
       <use xlink:href="#DejaVuSans-34"/>
       <use xlink:href="#DejaVuSans-30" x="63.623047"/>
       <use xlink:href="#DejaVuSans-30" x="127.246094"/>
      </g>
     </g>
    </g>
    <g id="ytick_6">
     <g id="line2d_15">
      <g>
       <use xlink:href="#m0f40d9e954" x="33.2875" y="95.165235" style="stroke: #000000; stroke-width: 0.8"/>
      </g>
     </g>
     <g id="text_15">
      <!-- 500 -->
      <g transform="translate(7.2 98.964454) scale(0.1 -0.1)">
       <use xlink:href="#DejaVuSans-35"/>
       <use xlink:href="#DejaVuSans-30" x="63.623047"/>
       <use xlink:href="#DejaVuSans-30" x="127.246094"/>
      </g>
     </g>
    </g>
    <g id="ytick_7">
     <g id="line2d_16">
      <g>
       <use xlink:href="#m0f40d9e954" x="33.2875" y="39.232258" style="stroke: #000000; stroke-width: 0.8"/>
      </g>
     </g>
     <g id="text_16">
      <!-- 600 -->
      <g transform="translate(7.2 43.031476) scale(0.1 -0.1)">
       <defs>
        <path id="DejaVuSans-36" d="M 2113 2584 
Q 1688 2584 1439 2293 
Q 1191 2003 1191 1497 
Q 1191 994 1439 701 
Q 1688 409 2113 409 
Q 2538 409 2786 701 
Q 3034 994 3034 1497 
Q 3034 2003 2786 2293 
Q 2538 2584 2113 2584 
z
M 3366 4563 
L 3366 3988 
Q 3128 4100 2886 4159 
Q 2644 4219 2406 4219 
Q 1781 4219 1451 3797 
Q 1122 3375 1075 2522 
Q 1259 2794 1537 2939 
Q 1816 3084 2150 3084 
Q 2853 3084 3261 2657 
Q 3669 2231 3669 1497 
Q 3669 778 3244 343 
Q 2819 -91 2113 -91 
Q 1303 -91 875 529 
Q 447 1150 447 2328 
Q 447 3434 972 4092 
Q 1497 4750 2381 4750 
Q 2619 4750 2861 4703 
Q 3103 4656 3366 4563 
z
" transform="scale(0.015625)"/>
       </defs>
       <use xlink:href="#DejaVuSans-36"/>
       <use xlink:href="#DejaVuSans-30" x="63.623047"/>
       <use xlink:href="#DejaVuSans-30" x="127.246094"/>
      </g>
     </g>
    </g>
   </g>
   <g id="line2d_17">
    <path d="M 38.539265 25.808343 
L 48.524822 25.808343 
L 48.637861 29.164321 
L 50.035901 29.164321 
L 50.547664 38.672928 
L 133.042861 38.672928 
L 133.453588 33.07963 
L 147.181293 33.07963 
L 147.987697 33.63896 
L 154.425639 33.63896 
L 154.65078 44.825555 
L 161.179587 44.825555 
L 162.532615 43.147566 
L 274.383573 43.147566 
L 274.702137 39.232258 
L 283.468519 39.232258 
L 283.781404 38.113598 
L 327.78181 38.113598 
L 328.00093 36.994938 
L 399.103991 36.994938 
L 399.307685 32.5203 
L 453.212713 32.5203 
L 453.305424 31.96097 
L 494.479308 31.96097 
L 494.857693 31.401641 
L 498.603001 31.401641 
L 498.727273 29.164321 
L 500.230318 29.164321 
L 500.620853 29.723651 
L 526.601999 29.723651 
L 526.922747 29.164321 
L 563.715735 29.164321 
L 563.715735 29.164321 
" clip-path="url(#pf169f1db61)" style="fill: none; stroke: #0000ff; stroke-width: 1.5; stroke-linecap: square"/>
   </g>
   <g id="line2d_18">
    <path d="M 38.539265 168.996766 
L 39.91215 167.878107 
L 41.280604 168.996766 
L 44.521238 168.996766 
L 48.094424 170.115426 
L 48.359502 169.556096 
L 48.524822 169.556096 
L 48.637861 172.912075 
L 48.898752 172.352745 
L 49.284619 172.912075 
L 50.035901 172.912075 
L 50.454328 185.21733 
L 50.547664 182.420681 
L 50.764849 185.77666 
L 50.833917 185.21733 
L 51.077291 185.21733 
L 51.466598 185.77666 
L 52.403566 185.77666 
L 52.431536 186.335989 
L 52.939432 186.335989 
L 53.154417 185.77666 
L 53.782962 189.691968 
L 53.855563 189.132638 
L 54.1642 189.691968 
L 54.761223 191.369957 
L 55.16617 190.251298 
L 55.80624 190.251298 
L 56.163943 191.369957 
L 56.405755 191.369957 
L 57.13426 191.929287 
L 57.461161 191.929287 
L 57.816633 193.047947 
L 58.134497 192.488617 
L 58.48747 193.607277 
L 58.854226 195.844596 
L 60.272345 196.963255 
L 60.874531 196.963255 
L 61.13248 197.522585 
L 61.543471 197.522585 
L 61.846044 198.081915 
L 62.154258 197.522585 
L 62.497899 197.522585 
L 62.699136 198.081915 
L 66.180517 198.081915 
L 66.531881 198.641245 
L 66.86858 198.641245 
L 66.999316 198.081915 
L 67.830879 198.641245 
L 68.179401 198.081915 
L 69.140312 198.081915 
L 69.448821 198.641245 
L 69.828115 198.081915 
L 71.577073 198.081915 
L 71.935409 198.641245 
L 72.132099 200.319234 
L 72.610821 199.200574 
L 73.723981 199.200574 
L 74.276268 199.759904 
L 74.610207 199.759904 
L 74.934535 200.319234 
L 75.296537 200.319234 
L 75.628914 199.759904 
L 75.946518 201.437893 
L 76.228488 201.437893 
L 76.995099 202.556553 
L 81.020036 202.556553 
L 81.339992 203.675213 
L 82.021898 203.675213 
L 82.324561 204.234542 
L 83.339685 204.234542 
L 84.311385 206.471861 
L 85.344205 206.471861 
L 85.714128 207.031191 
L 91.954106 207.031191 
L 92.703246 208.149851 
L 92.87295 207.031191 
L 94.074592 207.031191 
L 94.400902 207.590521 
L 94.760918 207.031191 
L 95.617488 207.031191 
L 96.090617 207.590521 
L 96.441853 207.031191 
L 101.746377 207.031191 
L 102.036257 212.065159 
L 102.237234 207.031191 
L 104.1596 207.031191 
L 104.508573 207.590521 
L 104.707762 212.624489 
L 105.178291 207.590521 
L 105.510614 207.590521 
L 105.731215 207.031191 
L 109.211818 207.031191 
L 109.38808 207.590521 
L 109.704393 207.590521 
L 110.225325 209.26851 
L 115.475785 209.26851 
L 116.621679 209.82784 
L 123.67363 209.82784 
L 123.967279 212.065159 
L 124.342508 212.065159 
L 124.675243 209.82784 
L 125.017574 209.82784 
L 125.253458 212.065159 
L 125.50911 209.82784 
L 125.933966 212.065159 
L 126.310302 213.183819 
L 130.674073 213.183819 
L 131.05072 213.743149 
L 133.042861 213.743149 
L 133.453588 207.590521 
L 133.746985 208.149851 
L 134.078616 209.82784 
L 134.488037 209.82784 
L 135.037 210.9465 
L 135.415859 210.9465 
L 135.69512 211.505829 
L 136.070232 209.26851 
L 138.816741 214.861808 
L 139.097179 213.183819 
L 139.567401 212.624489 
L 141.060873 212.624489 
L 141.443976 212.065159 
L 141.781807 210.9465 
L 143.134255 210.9465 
L 143.381532 209.82784 
L 143.816469 210.9465 
L 144.798703 210.9465 
L 145.132984 212.065159 
L 145.455427 212.065159 
L 145.837306 212.624489 
L 145.991405 212.624489 
L 146.163628 214.302478 
L 146.397091 214.302478 
L 147.181293 214.861808 
L 147.829253 213.743149 
L 147.987697 213.743149 
L 148.495644 214.302478 
L 148.821545 215.421138 
L 150.505749 215.421138 
L 150.830928 215.980468 
L 151.180123 215.980468 
L 151.503417 216.539798 
L 151.806271 216.539798 
L 152.509998 217.099127 
L 152.873442 217.099127 
L 153.235868 218.777117 
L 153.450153 218.777117 
L 153.826832 218.217787 
L 154.425639 218.217787 
L 154.65078 219.895776 
L 155.206161 219.895776 
L 155.535207 221.014436 
L 155.974653 221.014436 
L 156.201011 221.573766 
L 156.698786 221.573766 
L 156.748319 222.133095 
L 157.000446 222.133095 
L 157.532471 222.692425 
L 158.742388 226.048404 
L 160.250505 226.048404 
L 160.557964 227.167063 
L 160.673736 226.607734 
L 160.807802 226.607734 
L 161.179587 226.048404 
L 162.532615 224.370414 
L 165.917724 224.370414 
L 166.309973 223.811085 
L 167.948352 223.811085 
L 168.181531 223.251755 
L 171.249693 223.251755 
L 171.644721 223.811085 
L 172.196934 223.811085 
L 172.644356 224.370414 
L 172.869486 223.811085 
L 175.026294 223.811085 
L 175.706968 224.929744 
L 177.155595 224.929744 
L 177.39949 232.760361 
L 177.674436 232.760361 
L 180.017556 234.43835 
L 180.161542 233.879021 
L 180.311754 234.43835 
L 180.701651 233.879021 
L 181.028704 233.879021 
L 181.372928 234.43835 
L 181.631421 234.43835 
L 182.046423 235.55701 
L 182.217099 235.55701 
L 182.375054 234.99768 
L 182.729088 236.11634 
L 185.082858 236.11634 
L 185.311843 236.67567 
L 186.578044 236.67567 
L 187.082186 236.11634 
L 187.459898 238.912989 
L 187.728797 237.234999 
L 188.0795 237.234999 
L 188.360603 240.590978 
L 188.557285 240.031648 
L 188.766662 240.590978 
L 188.872118 240.031648 
L 189.00119 241.709638 
L 189.335813 241.709638 
L 189.75979 242.268967 
L 190.590175 241.709638 
L 190.779255 242.828297 
L 191.088265 242.828297 
L 191.307094 241.150308 
L 192.049906 242.828297 
L 192.788517 243.387627 
L 193.437188 243.387627 
L 193.777475 245.065616 
L 194.090259 245.065616 
L 194.275534 244.506286 
L 194.600716 244.506286 
L 195.858413 246.743606 
L 196.068167 245.624946 
L 196.47192 245.065616 
L 196.945477 246.743606 
L 198.218371 246.743606 
L 198.32734 247.302935 
L 198.834537 247.862265 
L 200.186601 247.862265 
L 200.805483 250.658914 
L 204.2833 250.658914 
L 204.557923 251.218244 
L 204.919113 250.099584 
L 205.129391 251.218244 
L 208.920913 251.218244 
L 209.2377 251.777574 
L 210.001641 255.133552 
L 210.288248 253.455563 
L 210.629805 254.014893 
L 211.008008 253.455563 
L 211.27415 253.455563 
L 211.677418 251.777574 
L 211.893655 251.777574 
L 211.935624 252.336903 
L 212.616077 252.336903 
L 212.999072 248.980925 
L 213.336735 248.980925 
L 214.352492 249.540254 
L 214.416764 248.980925 
L 214.968273 248.421595 
L 215.050187 248.980925 
L 217.707615 248.980925 
L 217.892524 249.540254 
L 218.388457 250.099584 
L 219.050696 251.218244 
L 219.222943 252.336903 
L 219.455702 252.336903 
L 219.71645 253.455563 
L 220.030392 252.896233 
L 220.381919 252.896233 
L 220.646795 252.336903 
L 221.020205 252.896233 
L 221.35341 252.896233 
L 221.672766 253.455563 
L 221.931287 253.455563 
L 222.417919 252.896233 
L 222.670905 253.455563 
L 222.932745 252.896233 
L 223.693114 248.421595 
L 224.424534 249.540254 
L 224.531471 253.455563 
L 224.694509 253.455563 
L 224.99283 254.014893 
L 225.33941 253.455563 
L 225.655836 253.455563 
L 226.045628 252.896233 
L 226.383249 254.014893 
L 227.601759 254.014893 
L 228.086016 254.574222 
L 228.362762 254.574222 
L 228.384236 255.133552 
L 229.764969 255.133552 
L 230.158057 256.252212 
L 232.089957 256.252212 
L 232.475074 257.370871 
L 233.786501 257.370871 
L 236.175563 256.811542 
L 236.397191 257.370871 
L 236.994926 257.370871 
L 237.497886 257.930201 
L 237.834803 259.048861 
L 237.935548 258.489531 
L 238.301751 259.60819 
L 239.116403 259.60819 
L 242.415879 260.72685 
L 250.571622 260.72685 
L 250.903832 260.16752 
L 252.498364 260.16752 
L 252.82888 260.72685 
L 253.924156 260.72685 
L 254.302179 261.28618 
L 254.574001 260.72685 
L 254.889467 261.28618 
L 255.238522 260.72685 
L 255.525008 261.84551 
L 255.963782 261.28618 
L 256.283935 261.84551 
L 263.24312 261.84551 
L 263.602604 260.72685 
L 263.983437 261.28618 
L 264.327864 260.72685 
L 264.713657 260.72685 
L 265.023051 260.16752 
L 266.314303 260.16752 
L 266.642175 260.72685 
L 267.012522 260.16752 
L 267.349929 259.048861 
L 268.018963 259.048861 
L 268.39643 258.489531 
L 268.678894 259.60819 
L 269.042252 259.60819 
L 269.322978 259.048861 
L 270.209006 260.16752 
L 270.727338 259.60819 
L 271.035291 260.16752 
L 271.690461 260.16752 
L 272.060236 259.60819 
L 272.423335 261.28618 
L 272.772814 260.72685 
L 273.443756 260.72685 
L 273.699513 260.16752 
L 274.026608 260.72685 
L 274.383573 260.72685 
L 274.702137 255.692882 
L 274.828698 256.252212 
L 275.079037 256.252212 
L 275.253428 256.811542 
L 275.405417 256.811542 
L 275.605523 257.370871 
L 275.741133 256.252212 
L 276.058678 256.811542 
L 276.188706 256.811542 
L 276.410625 257.370871 
L 276.985836 257.370871 
L 277.265567 258.489531 
L 277.542799 257.370871 
L 277.723293 257.930201 
L 278.740927 257.930201 
L 279.043873 257.370871 
L 279.33118 257.370871 
L 279.69221 257.930201 
L 280.026053 257.930201 
L 280.421796 257.370871 
L 280.803694 257.930201 
L 281.10001 257.930201 
L 281.566318 259.048861 
L 283.468519 259.048861 
L 283.781404 257.370871 
L 285.255664 257.370871 
L 285.594248 257.930201 
L 285.860585 258.489531 
L 286.38205 258.489531 
L 286.544738 259.60819 
L 286.619368 259.048861 
L 286.795816 259.60819 
L 287.292126 259.60819 
L 287.535426 260.72685 
L 288.197879 260.72685 
L 288.507103 261.84551 
L 289.529747 261.84551 
L 289.774995 263.523499 
L 290.001298 264.082829 
L 290.131897 264.082829 
L 290.572444 264.642159 
L 290.727498 264.082829 
L 290.802641 264.642159 
L 291.287026 264.642159 
L 291.855894 265.201488 
L 293.132139 265.201488 
L 293.46129 264.642159 
L 293.776674 265.201488 
L 294.132193 265.201488 
L 294.302577 265.760818 
L 294.34356 265.201488 
L 294.545788 265.760818 
L 294.703956 265.760818 
L 294.860154 266.879478 
L 295.461612 267.998137 
L 295.899582 267.438807 
L 296.232565 267.998137 
L 296.887179 267.998137 
L 297.242469 269.116797 
L 297.372535 268.557467 
L 297.583836 270.235456 
L 297.883253 269.676127 
L 298.07744 270.235456 
L 298.230983 269.676127 
L 298.400656 270.794786 
L 298.74649 270.794786 
L 298.848918 271.354116 
L 299.254658 270.794786 
L 299.568464 271.913446 
L 300.276455 271.913446 
L 300.531318 273.032105 
L 300.892819 271.913446 
L 301.138412 271.913446 
L 301.228453 272.472775 
L 301.889204 272.472775 
L 302.19828 274.710095 
L 302.642779 272.472775 
L 302.711695 273.032105 
L 303.296969 272.472775 
L 303.352391 273.591435 
L 303.55369 273.591435 
L 303.959321 274.150765 
L 304.288512 273.591435 
L 304.537207 273.591435 
L 304.905225 274.710095 
L 305.305602 274.710095 
L 305.693867 274.150765 
L 305.984045 274.710095 
L 306.160361 274.150765 
L 306.335724 275.269424 
L 307.889605 275.269424 
L 308.367188 275.828754 
L 309.342297 275.828754 
L 309.688282 274.710095 
L 310.340365 274.710095 
L 310.66673 275.269424 
L 313.63574 275.269424 
L 314.036428 274.710095 
L 314.412022 275.828754 
L 318.968487 275.828754 
L 319.968052 276.388084 
L 320.561737 276.388084 
L 321.04389 276.947414 
L 321.424922 276.947414 
L 321.648827 277.506743 
L 326.720628 277.506743 
L 327.132567 276.947414 
L 327.459161 277.506743 
L 327.78181 276.947414 
L 328.00093 273.591435 
L 330.004584 273.591435 
L 330.183356 274.150765 
L 330.529889 274.150765 
L 330.644486 273.591435 
L 332.718549 273.591435 
L 333.006279 274.150765 
L 333.115019 273.591435 
L 333.607865 273.591435 
L 333.835681 274.710095 
L 334.008766 273.591435 
L 334.122851 273.591435 
L 334.337253 274.710095 
L 334.489428 274.710095 
L 334.685698 273.591435 
L 334.857353 274.710095 
L 334.967357 273.591435 
L 335.011662 274.710095 
L 336.192233 274.710095 
L 336.379634 275.269424 
L 336.407117 275.828754 
L 337.008292 275.828754 
L 337.043724 276.388084 
L 337.390109 276.388084 
L 337.569468 276.947414 
L 337.722389 276.388084 
L 337.910256 276.947414 
L 338.037303 276.388084 
L 338.335274 276.947414 
L 338.461291 276.388084 
L 338.478572 276.947414 
L 338.856273 276.947414 
L 339.092927 277.506743 
L 339.242186 277.506743 
L 339.465707 278.625403 
L 339.713722 279.184733 
L 339.885012 278.625403 
L 341.792868 278.625403 
L 342.065657 279.184733 
L 343.527818 279.184733 
L 343.761059 279.744063 
L 344.069361 279.744063 
L 344.298137 280.303392 
L 344.424231 279.744063 
L 345.029184 279.744063 
L 345.233336 280.862722 
L 345.789009 280.862722 
L 345.84237 281.422052 
L 345.919907 280.862722 
L 346.039861 280.862722 
L 346.255067 281.981382 
L 346.479186 282.540711 
L 346.541826 281.981382 
L 346.795877 284.218701 
L 347.824783 284.218701 
L 347.928221 284.778031 
L 348.153627 284.778031 
L 348.285668 285.89669 
L 348.440634 284.778031 
L 349.806546 284.778031 
L 349.885583 285.33736 
L 350.147579 284.778031 
L 350.273021 285.33736 
L 350.504948 284.778031 
L 350.806212 284.778031 
L 350.990958 285.89669 
L 351.327727 285.89669 
L 351.465867 285.33736 
L 351.584223 286.45602 
L 351.933764 284.778031 
L 352.300057 285.89669 
L 352.565403 284.778031 
L 353.186556 284.778031 
L 353.669969 286.45602 
L 353.820391 285.89669 
L 353.986974 286.45602 
L 354.436467 285.33736 
L 354.580398 286.45602 
L 355.647142 286.45602 
L 355.819089 287.01535 
L 356.118731 287.01535 
L 356.278466 286.45602 
L 356.480065 287.01535 
L 356.60754 286.45602 
L 356.995863 287.574679 
L 357.526034 287.574679 
L 357.899945 288.693339 
L 359.519434 288.693339 
L 359.6965 289.252669 
L 359.913086 288.693339 
L 360.020249 289.252669 
L 360.241068 288.693339 
L 360.53434 288.693339 
L 360.723502 289.252669 
L 360.847878 288.693339 
L 361.243851 288.693339 
L 361.366327 289.252669 
L 361.92149 289.252669 
L 361.958912 290.371328 
L 364.333313 290.371328 
L 364.567553 290.930658 
L 364.721302 290.371328 
L 364.851559 290.930658 
L 364.950501 290.371328 
L 365.069183 291.489988 
L 365.616005 291.489988 
L 365.873951 292.049318 
L 365.926228 291.489988 
L 365.979788 292.049318 
L 366.274343 291.489988 
L 366.350469 292.049318 
L 366.638525 292.608647 
L 366.75135 293.167977 
L 366.96674 293.167977 
L 367.016265 293.727307 
L 367.316157 295.405296 
L 367.451136 294.845967 
L 367.633313 294.845967 
L 367.666133 295.964626 
L 368.946085 295.964626 
L 369.105062 296.523956 
L 369.355813 295.964626 
L 369.79016 296.523956 
L 369.906246 295.964626 
L 370.096286 296.523956 
L 370.329842 296.523956 
L 370.468829 297.083286 
L 370.792558 297.083286 
L 370.800495 297.642615 
L 370.900288 297.083286 
L 370.995949 298.201945 
L 371.137338 298.201945 
L 371.333056 298.761275 
L 372.675656 298.761275 
L 372.711088 298.201945 
L 372.795609 299.320605 
L 373.149679 299.320605 
L 373.330503 298.761275 
L 373.469696 299.320605 
L 373.679259 298.761275 
L 373.836273 299.320605 
L 374.012682 299.320605 
L 374.164266 298.761275 
L 374.314567 300.439264 
L 376.113835 300.439264 
L 376.654912 301.557924 
L 376.939727 300.998594 
L 383.736566 300.998594 
L 383.851964 301.557924 
L 384.058363 300.998594 
L 384.11785 301.557924 
L 384.734587 301.557924 
L 384.905364 302.117254 
L 385.770956 302.117254 
L 385.886611 302.676583 
L 386.049634 302.117254 
L 387.37559 302.117254 
L 387.559508 302.676583 
L 387.791121 302.117254 
L 387.919007 302.117254 
L 388.12281 303.235913 
L 388.234924 302.676583 
L 388.731851 302.676583 
L 388.948372 303.235913 
L 389.967541 303.235913 
L 390.133561 302.117254 
L 390.469961 303.235913 
L 392.279968 303.235913 
L 392.465545 303.795243 
L 392.631336 303.795243 
L 392.809886 304.354573 
L 392.943342 304.354573 
L 393.108542 304.913903 
L 393.495062 304.913903 
L 393.563535 305.473232 
L 393.885756 305.473232 
L 394.089291 304.354573 
L 394.248221 304.913903 
L 394.491497 304.913903 
L 394.590696 305.473232 
L 394.96287 305.473232 
L 395.295744 306.032562 
L 395.658726 307.710552 
L 395.777568 307.151222 
L 395.888224 307.710552 
L 396.142213 308.269881 
L 396.262652 307.710552 
L 396.46691 308.269881 
L 396.585934 308.269881 
L 396.799738 307.710552 
L 396.974355 307.710552 
L 397.316449 309.388541 
L 397.52307 308.829211 
L 397.646148 308.829211 
L 397.807721 309.388541 
L 397.850208 309.947871 
L 397.987593 309.947871 
L 398.05464 309.388541 
L 398.276559 309.947871 
L 398.430227 309.388541 
L 398.556912 309.947871 
L 399.103991 309.947871 
L 399.307685 302.117254 
L 399.8517 303.235913 
L 400.210896 303.235913 
L 400.336536 303.795243 
L 400.532231 303.235913 
L 400.657844 303.235913 
L 400.806478 302.676583 
L 400.977379 303.235913 
L 401.212132 303.235913 
L 401.327639 302.676583 
L 401.474392 303.235913 
L 401.674541 302.676583 
L 401.75321 303.235913 
L 402.042755 303.795243 
L 402.16923 303.795243 
L 402.474932 302.676583 
L 402.75188 303.235913 
L 403.982284 303.235913 
L 404.274231 303.795243 
L 404.580765 303.235913 
L 405.132143 303.235913 
L 405.554856 304.354573 
L 405.699848 302.676583 
L 405.943887 303.235913 
L 406.254984 302.676583 
L 406.397294 304.354573 
L 406.569113 303.235913 
L 406.731494 303.235913 
L 406.839636 303.795243 
L 406.920341 306.032562 
L 406.934827 305.473232 
L 407.292837 306.032562 
L 408.176471 306.032562 
L 408.594466 307.151222 
L 408.766895 306.591892 
L 409.385918 306.591892 
L 409.55458 306.032562 
L 409.734845 306.591892 
L 409.932573 306.591892 
L 410.048733 306.032562 
L 410.402122 306.591892 
L 410.609726 306.591892 
L 410.745829 307.151222 
L 410.912288 306.591892 
L 411.091118 306.591892 
L 411.258708 306.032562 
L 411.36252 306.591892 
L 412.296067 306.591892 
L 412.529623 308.269881 
L 412.812005 307.710552 
L 413.045553 307.710552 
L 413.234629 307.151222 
L 413.320597 307.710552 
L 413.613473 307.151222 
L 413.722963 307.710552 
L 413.980975 307.710552 
L 414.081914 308.269881 
L 414.390252 307.710552 
L 415.025626 307.710552 
L 415.261188 308.269881 
L 415.653592 308.269881 
L 415.752534 308.829211 
L 415.919758 308.269881 
L 416.310674 309.388541 
L 416.42699 309.388541 
L 416.5995 309.947871 
L 416.758523 309.947871 
L 417.057739 310.5072 
L 419.491681 310.5072 
L 419.750979 311.06653 
L 419.994116 311.06653 
L 420.043618 309.947871 
L 420.104924 310.5072 
L 420.5016 310.5072 
L 420.592142 311.06653 
L 421.114089 311.06653 
L 421.363359 311.62586 
L 421.69815 311.62586 
L 421.709286 311.06653 
L 421.82058 311.62586 
L 421.92293 311.06653 
L 423.380753 311.06653 
L 423.654102 310.5072 
L 424.41662 311.06653 
L 425.99789 311.06653 
L 426.066313 311.62586 
L 427.725611 311.62586 
L 427.875076 312.18519 
L 429.409589 314.981839 
L 429.555024 314.981839 
L 429.706756 315.541168 
L 429.774327 314.981839 
L 430.1011 315.541168 
L 430.404692 316.100498 
L 430.76777 316.100498 
L 430.889698 316.659828 
L 431.348543 316.659828 
L 432.013127 316.100498 
L 432.046607 317.778488 
L 432.581474 317.778488 
L 432.747248 317.219158 
L 432.867657 317.778488 
L 434.096471 317.778488 
L 434.381729 317.219158 
L 435.699542 317.219158 
L 436.513269 317.778488 
L 438.157046 317.778488 
L 438.96647 318.337817 
L 439.074725 318.897147 
L 441.509044 318.897147 
L 441.737738 318.337817 
L 442.97354 318.337817 
L 443.875893 317.778488 
L 444.533449 317.778488 
L 444.859767 318.337817 
L 445.149475 319.456477 
L 445.321962 319.456477 
L 445.328694 318.897147 
L 447.263474 318.897147 
L 447.471125 319.456477 
L 452.35891 319.456477 
L 452.975204 320.015807 
L 453.212713 320.015807 
L 453.305424 320.575136 
L 453.607493 320.575136 
L 453.734349 320.015807 
L 453.930996 320.575136 
L 455.035115 320.575136 
L 455.527274 321.134466 
L 455.869146 322.253126 
L 458.863308 322.253126 
L 459.390308 321.693796 
L 459.542786 322.253126 
L 459.697032 321.693796 
L 459.870429 322.253126 
L 460.69163 322.253126 
L 461.070244 321.693796 
L 461.262371 322.253126 
L 461.792138 321.134466 
L 461.998611 322.253126 
L 463.280619 322.253126 
L 463.295786 322.812456 
L 465.32749 322.812456 
L 466.315328 323.371785 
L 466.611776 322.812456 
L 467.162559 322.812456 
L 467.296077 323.371785 
L 467.766691 321.693796 
L 468.077408 322.253126 
L 468.495127 321.693796 
L 468.804533 321.693796 
L 468.945051 322.253126 
L 469.798093 322.253126 
L 470.81165 321.693796 
L 470.964209 322.253126 
L 471.972752 322.253126 
L 472.300197 321.693796 
L 477.433339 322.253126 
L 477.81769 321.693796 
L 478.149861 322.253126 
L 478.44751 321.693796 
L 478.480812 322.253126 
L 478.739943 322.812456 
L 478.890015 322.812456 
L 479.027292 323.371785 
L 481.413866 323.371785 
L 481.464721 323.931115 
L 481.761375 323.931115 
L 482.553483 323.371785 
L 482.578681 323.931115 
L 482.883015 323.371785 
L 482.956984 324.490445 
L 483.15287 324.490445 
L 483.550276 325.049775 
L 484.216255 325.049775 
L 484.620643 324.490445 
L 485.075321 325.609104 
L 485.09397 326.168434 
L 485.407002 326.727764 
L 485.535658 326.727764 
L 485.860515 326.168434 
L 486.317304 326.168434 
L 486.412261 326.727764 
L 487.452303 326.727764 
L 487.595581 326.168434 
L 487.770987 327.287094 
L 487.915559 327.287094 
L 488.189946 326.727764 
L 488.439488 327.287094 
L 488.995973 327.287094 
L 489.241053 328.405753 
L 490.988957 328.405753 
L 491.197925 328.965083 
L 491.325882 328.965083 
L 491.536432 328.405753 
L 491.590734 328.965083 
L 492.148462 328.965083 
L 492.260639 329.524413 
L 492.565311 329.524413 
L 492.652332 330.643072 
L 493.127684 330.643072 
L 493.306285 332.321062 
L 493.678167 332.321062 
L 493.895663 331.761732 
L 494.013164 332.321062 
L 494.171336 332.321062 
L 494.183416 333.999051 
L 494.479308 333.999051 
L 494.857693 333.439721 
L 495.029352 333.439721 
L 495.175993 333.999051 
L 495.540665 333.999051 
L 495.918552 333.439721 
L 495.95742 334.558381 
L 496.292009 334.558381 
L 496.353684 335.117711 
L 496.586816 335.67704 
L 497.202679 335.67704 
L 497.293198 336.7957 
L 497.557495 336.7957 
L 497.712445 337.35503 
L 497.861129 337.35503 
L 498.394324 337.91436 
L 498.603001 337.35503 
L 498.727273 329.524413 
L 498.86205 328.965083 
L 498.953331 331.202402 
L 499.610833 331.202402 
L 499.88108 330.643072 
L 500.077984 331.761732 
L 500.230318 331.761732 
L 500.620853 332.321062 
L 501.050392 332.321062 
L 501.246386 331.761732 
L 501.399844 332.321062 
L 502.435536 332.321062 
L 502.563061 332.880392 
L 503.035241 331.761732 
L 503.419196 332.321062 
L 503.639218 332.321062 
L 503.723724 332.880392 
L 503.917973 331.761732 
L 504.106797 332.880392 
L 504.890261 332.880392 
L 505.011695 332.321062 
L 505.290773 332.321062 
L 505.334674 332.880392 
L 505.650669 333.439721 
L 505.663001 332.880392 
L 506.257265 332.880392 
L 506.563131 333.439721 
L 508.150356 333.439721 
L 508.269369 333.999051 
L 508.584139 333.439721 
L 508.594649 333.999051 
L 509.046634 334.558381 
L 509.324351 334.558381 
L 509.643937 335.117711 
L 509.803508 335.67704 
L 509.92551 335.67704 
L 510.309418 334.558381 
L 510.385257 335.67704 
L 510.643412 335.117711 
L 510.860702 335.67704 
L 511.830455 335.67704 
L 511.93911 336.23637 
L 512.074529 335.67704 
L 512.543806 336.23637 
L 512.770479 335.67704 
L 513.000202 336.23637 
L 513.138225 335.67704 
L 513.459669 336.7957 
L 513.681763 336.23637 
L 514.441405 336.23637 
L 514.743621 336.7957 
L 515.184902 336.7957 
L 515.535994 335.67704 
L 515.629572 336.23637 
L 516.004707 336.23637 
L 516.09991 337.35503 
L 516.573039 336.23637 
L 516.738265 336.7957 
L 517.119476 336.23637 
L 517.397741 336.23637 
L 517.5403 336.7957 
L 517.739237 336.7957 
L 517.765741 333.439721 
L 517.881054 333.439721 
L 518.327301 333.999051 
L 518.385113 332.880392 
L 518.545334 333.999051 
L 518.692223 333.439721 
L 518.780386 333.999051 
L 519.130137 333.439721 
L 519.549788 333.999051 
L 519.761174 333.999051 
L 520.051345 333.439721 
L 520.463801 333.439721 
L 520.886693 334.558381 
L 521.108212 333.999051 
L 521.556147 333.999051 
L 521.765617 333.439721 
L 521.796454 332.880392 
L 522.057404 333.999051 
L 522.195793 333.439721 
L 522.358571 333.999051 
L 522.600444 333.439721 
L 522.874201 333.439721 
L 523.050066 332.880392 
L 523.38359 332.880392 
L 523.73083 333.999051 
L 523.96645 333.439721 
L 524.253387 334.558381 
L 524.402818 334.558381 
L 524.496613 333.999051 
L 524.78844 333.999051 
L 524.812934 334.558381 
L 525.780351 334.558381 
L 525.938838 335.117711 
L 526.074588 335.117711 
L 526.283852 335.67704 
L 526.464345 335.117711 
L 526.601999 335.67704 
L 526.807221 335.117711 
L 526.922747 335.67704 
L 527.071855 335.117711 
L 527.119896 335.67704 
L 527.284963 336.7957 
L 527.486632 336.23637 
L 527.550099 335.67704 
L 527.762783 336.23637 
L 527.936592 335.67704 
L 528.146085 336.23637 
L 528.489392 336.23637 
L 528.584983 336.7957 
L 528.82215 336.23637 
L 529.445013 337.91436 
L 529.612564 337.91436 
L 529.785871 336.7957 
L 529.867804 337.35503 
L 530.11283 337.35503 
L 530.22431 336.7957 
L 530.424666 336.7957 
L 530.607076 337.35503 
L 530.84158 337.35503 
L 531.235287 339.033019 
L 531.444748 338.473689 
L 534.198164 338.473689 
L 534.326295 339.033019 
L 534.488782 339.033019 
L 534.619451 338.473689 
L 534.766118 339.033019 
L 534.881622 339.033019 
L 535.534786 336.7957 
L 535.644051 337.91436 
L 536.207632 336.7957 
L 536.819025 336.7957 
L 537.481113 337.91436 
L 538.651556 337.35503 
L 538.948797 337.91436 
L 539.276257 337.35503 
L 539.510128 338.473689 
L 539.603928 337.35503 
L 539.912222 338.473689 
L 540.248121 337.35503 
L 540.359314 338.473689 
L 540.574711 338.473689 
L 540.693117 337.91436 
L 540.907737 338.473689 
L 541.036537 338.473689 
L 541.15651 337.91436 
L 541.302279 339.592349 
L 541.684574 338.473689 
L 542.042138 338.473689 
L 542.260621 339.033019 
L 542.672949 339.033019 
L 543.008272 338.473689 
L 543.204306 338.473689 
L 543.3525 339.592349 
L 543.537355 339.033019 
L 543.640561 339.592349 
L 543.889757 340.151679 
L 544.042554 340.151679 
L 544.309695 339.033019 
L 544.565146 340.711008 
L 544.88622 340.711008 
L 544.91059 341.829668 
L 544.933013 341.270338 
L 545.100933 340.711008 
L 545.277451 341.829668 
L 545.351078 340.711008 
L 545.617166 340.711008 
L 545.653422 341.270338 
L 545.953212 341.829668 
L 546.132634 341.829668 
L 546.216732 340.711008 
L 546.619051 341.829668 
L 546.684205 340.711008 
L 546.903337 341.829668 
L 547.071907 340.151679 
L 547.584339 341.270338 
L 547.970369 339.592349 
L 548.000219 340.151679 
L 548.244736 339.592349 
L 548.399321 339.592349 
L 548.559801 340.711008 
L 548.75145 339.592349 
L 549.119908 340.711008 
L 549.2597 339.592349 
L 549.411059 340.151679 
L 549.719497 340.151679 
L 549.923187 339.592349 
L 550.313104 339.592349 
L 550.325006 340.151679 
L 550.938688 339.033019 
L 551.264154 340.711008 
L 551.43689 340.711008 
L 551.638213 340.151679 
L 551.695119 341.270338 
L 551.980918 340.151679 
L 552.156899 341.270338 
L 552.334307 340.151679 
L 552.407623 340.711008 
L 552.771467 340.711008 
L 552.989511 341.270338 
L 553.089238 342.388998 
L 553.29226 341.270338 
L 553.626277 341.829668 
L 553.774033 342.388998 
L 553.956598 341.829668 
L 554.112473 344.066987 
L 554.357142 344.066987 
L 554.680704 344.626317 
L 554.719738 343.507657 
L 555.038189 344.626317 
L 555.491488 343.507657 
L 555.613972 345.185647 
L 555.981528 345.744976 
L 556.381858 344.626317 
L 556.635586 344.066987 
L 557.340887 344.626317 
L 557.425366 345.185647 
L 557.689231 345.185647 
L 558.175649 345.744976 
L 558.416636 345.744976 
L 558.716924 346.304306 
L 559.020672 347.982296 
L 559.800517 347.422966 
L 560.051723 347.422966 
L 560.400059 345.744976 
L 560.731185 345.744976 
L 560.816539 345.185647 
L 561.068114 346.304306 
L 561.124161 345.185647 
L 561.399504 345.744976 
L 561.898977 345.744976 
L 562.15529 346.863636 
L 562.390549 345.744976 
L 562.711864 346.863636 
L 562.837131 346.304306 
L 563.008739 346.863636 
L 563.456779 345.744976 
L 563.715735 346.304306 
L 563.715735 346.304306 
" clip-path="url(#pf169f1db61)" style="fill: none; stroke-dasharray: 3,1.5; stroke-dashoffset: 0; stroke: #808080; stroke-width: 1.5"/>
   </g>
   <g id="line2d_19">
    <path d="M 38.539265 297.083286 
L 39.91215 296.523956 
L 41.280604 295.405296 
L 44.521238 295.405296 
L 48.094424 294.845967 
L 48.359502 295.405296 
L 48.524822 295.405296 
L 48.637861 294.286637 
L 48.898752 294.845967 
L 49.284619 294.286637 
L 50.035901 294.286637 
L 50.454328 291.489988 
L 50.547664 294.286637 
L 50.764849 290.930658 
L 50.833917 291.489988 
L 51.077291 291.489988 
L 51.466598 290.930658 
L 52.104798 290.930658 
L 52.431536 288.693339 
L 52.939432 288.693339 
L 53.454988 289.811999 
L 53.782962 285.33736 
L 53.855563 285.89669 
L 54.1642 285.33736 
L 54.761223 283.659371 
L 55.16617 284.778031 
L 55.80624 284.778031 
L 56.163943 285.89669 
L 56.405755 285.33736 
L 57.13426 284.778031 
L 57.461161 284.778031 
L 57.816633 283.659371 
L 58.326698 283.659371 
L 58.854226 280.303392 
L 60.272345 278.625403 
L 60.465467 278.066073 
L 60.874531 278.066073 
L 61.13248 277.506743 
L 61.543471 277.506743 
L 61.846044 278.625403 
L 62.154258 279.184733 
L 62.497899 279.184733 
L 62.699136 278.625403 
L 65.153317 278.625403 
L 65.545593 278.066073 
L 66.180517 278.066073 
L 66.531881 277.506743 
L 66.86858 277.506743 
L 66.999316 278.066073 
L 67.830879 277.506743 
L 68.179401 278.066073 
L 69.140312 278.066073 
L 69.448821 277.506743 
L 69.828115 278.066073 
L 71.577073 278.066073 
L 71.935409 277.506743 
L 72.132099 275.828754 
L 72.610821 276.947414 
L 73.285025 276.947414 
L 73.600024 275.828754 
L 73.723981 276.947414 
L 74.276268 275.269424 
L 74.610207 275.269424 
L 74.934535 274.710095 
L 75.296537 274.710095 
L 75.628914 275.269424 
L 75.946518 274.150765 
L 76.228488 274.150765 
L 76.995099 273.032105 
L 81.020036 273.032105 
L 81.339992 271.913446 
L 82.021898 271.913446 
L 82.324561 269.116797 
L 83.339685 269.116797 
L 84.311385 266.879478 
L 85.344205 266.879478 
L 85.714128 266.320148 
L 91.954106 266.320148 
L 92.703246 264.642159 
L 92.87295 266.320148 
L 94.074592 266.320148 
L 94.400902 265.201488 
L 94.760918 266.320148 
L 95.617488 266.320148 
L 96.090617 265.201488 
L 96.441853 266.320148 
L 101.746377 266.320148 
L 102.036257 261.28618 
L 102.237234 266.320148 
L 104.1596 266.320148 
L 104.508573 265.760818 
L 104.707762 260.72685 
L 105.178291 265.760818 
L 105.510614 265.760818 
L 105.731215 266.320148 
L 109.211818 266.320148 
L 109.38808 265.760818 
L 109.704393 265.760818 
L 110.225325 264.082829 
L 115.475785 264.082829 
L 116.621679 263.523499 
L 123.67363 263.523499 
L 123.967279 260.72685 
L 124.342508 260.72685 
L 124.675243 263.523499 
L 125.017574 263.523499 
L 125.253458 260.72685 
L 125.50911 263.523499 
L 125.933966 260.72685 
L 126.310302 259.60819 
L 130.674073 259.60819 
L 131.05072 259.048861 
L 132.703165 259.048861 
L 133.042861 257.930201 
L 133.453588 255.692882 
L 133.746985 255.133552 
L 134.078616 251.777574 
L 134.488037 251.777574 
L 135.037 250.658914 
L 135.415859 250.658914 
L 136.070232 249.540254 
L 138.816741 244.506286 
L 139.097179 245.624946 
L 141.060873 245.624946 
L 141.443976 243.387627 
L 141.781807 243.946957 
L 143.134255 243.946957 
L 143.381532 245.065616 
L 143.816469 243.946957 
L 144.798703 243.946957 
L 145.132984 242.828297 
L 145.455427 242.828297 
L 145.837306 242.268967 
L 145.991405 242.268967 
L 146.163628 240.590978 
L 146.397091 240.590978 
L 147.181293 240.031648 
L 147.829253 241.709638 
L 147.987697 241.709638 
L 148.495644 241.150308 
L 148.821545 240.031648 
L 150.505749 240.031648 
L 150.830928 239.472318 
L 151.180123 239.472318 
L 151.503417 238.912989 
L 151.806271 238.912989 
L 152.509998 238.353659 
L 152.873442 238.353659 
L 153.235868 236.67567 
L 153.826832 236.67567 
L 154.196153 236.11634 
L 154.425639 236.11634 
L 154.553759 246.184276 
L 154.65078 245.624946 
L 155.206161 245.624946 
L 155.535207 244.506286 
L 155.974653 244.506286 
L 156.201011 243.946957 
L 156.698786 243.946957 
L 156.748319 243.387627 
L 157.532471 243.387627 
L 157.953482 241.709638 
L 158.828406 240.031648 
L 160.250505 240.031648 
L 160.557964 238.912989 
L 160.673736 239.472318 
L 160.807802 239.472318 
L 161.179587 240.031648 
L 162.532615 239.472318 
L 165.917724 239.472318 
L 166.309973 240.031648 
L 167.948352 240.031648 
L 168.181531 240.590978 
L 168.60866 240.031648 
L 171.249693 240.031648 
L 171.644721 239.472318 
L 172.196934 239.472318 
L 172.644356 238.912989 
L 172.869486 239.472318 
L 175.026294 239.472318 
L 175.706968 238.353659 
L 177.155595 238.353659 
L 177.39949 230.523042 
L 177.674436 230.523042 
L 180.017556 228.845053 
L 180.161542 229.404382 
L 180.311754 228.845053 
L 180.701651 229.404382 
L 181.028704 229.404382 
L 181.372928 228.845053 
L 181.631421 228.845053 
L 182.046423 227.726393 
L 182.217099 227.726393 
L 182.375054 228.285723 
L 182.729088 227.167063 
L 185.082858 227.167063 
L 185.311843 226.607734 
L 185.69361 226.607734 
L 186.047912 226.048404 
L 186.415741 226.607734 
L 186.578044 226.607734 
L 187.082186 227.167063 
L 187.459898 224.370414 
L 187.728797 226.048404 
L 188.0795 226.048404 
L 188.360603 222.692425 
L 188.557285 223.251755 
L 188.766662 222.133095 
L 188.872118 222.692425 
L 189.00119 221.014436 
L 189.335813 221.014436 
L 189.75979 220.455106 
L 190.590175 221.014436 
L 190.779255 219.895776 
L 191.088265 219.895776 
L 191.307094 221.573766 
L 192.049906 219.895776 
L 192.788517 219.336446 
L 193.437188 219.336446 
L 193.777475 217.658457 
L 194.090259 217.658457 
L 194.275534 218.217787 
L 194.600716 218.217787 
L 195.858413 214.861808 
L 196.068167 217.099127 
L 196.47192 217.658457 
L 196.945477 214.861808 
L 198.218371 214.861808 
L 198.32734 214.302478 
L 198.834537 213.743149 
L 200.186601 213.743149 
L 200.805483 210.9465 
L 204.2833 210.9465 
L 204.557923 209.82784 
L 204.919113 212.065159 
L 205.129391 210.38717 
L 208.920913 210.38717 
L 209.2377 209.82784 
L 210.001641 206.471861 
L 210.288248 208.149851 
L 210.629805 207.590521 
L 211.008008 208.149851 
L 211.27415 208.149851 
L 211.677418 202.556553 
L 211.893655 202.556553 
L 211.935624 201.997223 
L 212.616077 201.997223 
L 212.999072 200.878564 
L 213.336735 199.200574 
L 214.352492 198.641245 
L 214.416764 199.200574 
L 214.968273 199.759904 
L 215.050187 199.200574 
L 217.707615 199.200574 
L 217.892524 198.641245 
L 218.388457 198.081915 
L 219.050696 196.963255 
L 219.222943 195.844596 
L 219.455702 195.844596 
L 219.71645 194.725936 
L 220.030392 195.285266 
L 220.381919 195.285266 
L 220.646795 195.844596 
L 221.020205 195.285266 
L 221.35341 195.285266 
L 221.672766 194.725936 
L 221.931287 194.725936 
L 222.417919 195.285266 
L 222.670905 194.725936 
L 222.932745 195.285266 
L 223.374453 198.081915 
L 223.693114 198.641245 
L 224.424534 197.522585 
L 224.531471 193.607277 
L 224.694509 193.607277 
L 224.99283 193.047947 
L 225.33941 193.607277 
L 225.655836 193.607277 
L 226.045628 194.166606 
L 226.383249 193.047947 
L 227.601759 193.047947 
L 228.086016 192.488617 
L 228.362762 192.488617 
L 228.384236 191.929287 
L 229.764969 191.929287 
L 230.158057 190.810628 
L 232.089957 190.810628 
L 232.475074 189.691968 
L 236.175563 189.691968 
L 236.397191 189.132638 
L 236.994926 189.132638 
L 237.497886 188.573309 
L 237.834803 187.454649 
L 237.935548 188.013979 
L 238.301751 186.895319 
L 239.116403 186.895319 
L 242.415879 185.77666 
L 250.571622 185.77666 
L 250.903832 186.335989 
L 252.498364 186.335989 
L 252.82888 185.77666 
L 253.924156 185.77666 
L 254.302179 185.21733 
L 254.574001 185.77666 
L 254.889467 185.21733 
L 255.238522 185.77666 
L 255.525008 184.658 
L 255.963782 185.21733 
L 256.283935 184.658 
L 263.24312 184.658 
L 263.602604 185.77666 
L 263.983437 185.21733 
L 264.327864 185.77666 
L 264.713657 185.21733 
L 265.023051 185.77666 
L 266.314303 185.77666 
L 266.642175 185.21733 
L 267.012522 185.77666 
L 267.349929 184.658 
L 268.018963 184.658 
L 268.39643 185.21733 
L 268.678894 184.09867 
L 269.042252 184.09867 
L 269.322978 184.658 
L 270.209006 183.539341 
L 270.727338 184.09867 
L 271.035291 183.539341 
L 271.690461 183.539341 
L 272.060236 184.09867 
L 272.423335 182.420681 
L 272.772814 182.980011 
L 273.443756 182.980011 
L 273.699513 183.539341 
L 274.026608 182.980011 
L 274.383573 182.980011 
L 274.702137 187.454649 
L 274.828698 186.895319 
L 275.079037 186.895319 
L 275.253428 186.335989 
L 275.405417 186.335989 
L 275.605523 185.77666 
L 275.741133 186.895319 
L 276.058678 186.335989 
L 276.188706 186.335989 
L 276.410625 185.77666 
L 276.985836 185.77666 
L 277.265567 184.658 
L 277.542799 185.77666 
L 277.723293 185.21733 
L 278.740927 185.21733 
L 279.043873 185.77666 
L 279.33118 185.77666 
L 279.69221 185.21733 
L 280.026053 185.21733 
L 280.421796 185.77666 
L 280.803694 185.21733 
L 281.10001 185.21733 
L 281.566318 184.09867 
L 283.468519 184.09867 
L 283.781404 184.658 
L 285.255664 184.658 
L 285.594248 184.09867 
L 285.860585 183.539341 
L 286.38205 183.539341 
L 286.544738 182.420681 
L 286.619368 182.980011 
L 286.795816 182.420681 
L 287.292126 182.420681 
L 287.535426 181.302021 
L 288.197879 181.302021 
L 288.507103 180.183362 
L 289.529747 180.183362 
L 289.774995 178.505373 
L 290.001298 177.946043 
L 290.131897 177.946043 
L 290.572444 177.386713 
L 290.727498 177.946043 
L 290.802641 177.386713 
L 290.961626 177.386713 
L 291.14774 176.827383 
L 291.287026 176.827383 
L 291.855894 176.268053 
L 293.132139 176.268053 
L 293.46129 176.827383 
L 293.776674 176.268053 
L 294.132193 176.268053 
L 294.302577 175.708724 
L 294.34356 176.268053 
L 294.545788 175.708724 
L 294.703956 175.708724 
L 294.860154 174.590064 
L 295.461612 173.471405 
L 295.899582 174.030734 
L 296.232565 173.471405 
L 296.887179 173.471405 
L 297.242469 172.352745 
L 297.372535 172.912075 
L 297.583836 171.234085 
L 297.883253 171.793415 
L 298.07744 171.234085 
L 298.230983 171.793415 
L 298.400656 170.674756 
L 298.74649 170.674756 
L 298.848918 170.115426 
L 299.254658 170.674756 
L 299.568464 169.556096 
L 300.276455 169.556096 
L 300.531318 168.437437 
L 300.892819 169.556096 
L 301.138412 169.556096 
L 301.228453 168.996766 
L 301.889204 168.996766 
L 302.19828 166.759447 
L 302.642779 168.996766 
L 302.711695 168.437437 
L 303.296969 168.996766 
L 303.352391 167.878107 
L 303.55369 167.878107 
L 303.959321 167.318777 
L 304.288512 167.878107 
L 304.537207 167.878107 
L 304.905225 166.759447 
L 305.305602 166.759447 
L 305.693867 167.318777 
L 305.984045 166.759447 
L 306.160361 167.318777 
L 306.335724 166.200117 
L 307.889605 166.200117 
L 308.367188 165.640788 
L 309.342297 165.640788 
L 309.688282 166.759447 
L 310.340365 166.759447 
L 310.66673 166.200117 
L 313.63574 166.200117 
L 314.036428 166.759447 
L 314.412022 165.640788 
L 318.968487 165.640788 
L 319.968052 165.081458 
L 320.561737 165.081458 
L 321.04389 164.522128 
L 321.424922 164.522128 
L 321.648827 163.403468 
L 322.003814 163.962798 
L 326.720628 163.962798 
L 327.132567 164.522128 
L 327.459161 163.962798 
L 327.78181 164.522128 
L 328.00093 166.759447 
L 330.004584 166.759447 
L 330.335025 165.640788 
L 330.79881 166.759447 
L 332.718549 166.759447 
L 333.006279 165.640788 
L 333.115019 166.759447 
L 333.607865 166.759447 
L 333.835681 165.640788 
L 334.008766 166.759447 
L 334.122851 166.759447 
L 334.337253 165.640788 
L 334.489428 165.640788 
L 334.685698 166.759447 
L 334.857353 165.640788 
L 334.967357 166.759447 
L 335.011662 165.640788 
L 336.192233 165.640788 
L 336.578703 163.962798 
L 337.008292 163.962798 
L 337.043724 163.403468 
L 337.390109 163.403468 
L 337.569468 162.844139 
L 337.722389 163.403468 
L 337.910256 162.844139 
L 338.037303 163.403468 
L 338.335274 162.844139 
L 338.461291 163.403468 
L 338.478572 162.844139 
L 338.856273 162.844139 
L 339.092927 162.284809 
L 339.242186 162.284809 
L 339.465707 161.166149 
L 339.713722 160.60682 
L 339.885012 161.166149 
L 341.792868 161.166149 
L 342.065657 160.60682 
L 343.527818 160.60682 
L 343.761059 160.04749 
L 344.069361 160.04749 
L 344.298137 159.48816 
L 344.424231 160.04749 
L 345.029184 160.04749 
L 345.233336 158.92883 
L 345.789009 158.92883 
L 345.84237 158.3695 
L 345.919907 158.92883 
L 346.228229 158.92883 
L 346.255067 158.3695 
L 346.479186 157.810171 
L 346.541826 158.3695 
L 346.795877 156.132181 
L 347.824783 156.132181 
L 347.928221 155.572852 
L 348.153627 155.572852 
L 348.285668 154.454192 
L 348.440634 155.572852 
L 349.806546 155.572852 
L 349.885583 155.013522 
L 350.147579 155.572852 
L 350.273021 155.013522 
L 350.504948 155.572852 
L 350.806212 155.572852 
L 350.990958 154.454192 
L 351.327727 154.454192 
L 351.465867 155.013522 
L 351.584223 153.894862 
L 351.933764 155.572852 
L 352.300057 154.454192 
L 352.565403 155.572852 
L 353.186556 155.572852 
L 353.669969 153.894862 
L 353.820391 154.454192 
L 353.986974 153.894862 
L 354.436467 155.013522 
L 354.580398 153.894862 
L 355.647142 153.894862 
L 355.819089 153.335532 
L 356.118731 153.335532 
L 356.278466 153.894862 
L 356.480065 153.335532 
L 356.60754 153.894862 
L 356.995863 152.776203 
L 357.526034 152.776203 
L 357.899945 151.657543 
L 358.549522 152.776203 
L 358.688342 152.216873 
L 358.859123 152.776203 
L 358.967423 152.216873 
L 359.184706 152.216873 
L 359.275769 152.776203 
L 359.6965 151.657543 
L 359.913086 152.216873 
L 360.020249 151.657543 
L 360.241068 152.216873 
L 360.53434 152.216873 
L 360.723502 151.657543 
L 360.847878 152.216873 
L 360.970451 152.216873 
L 361.243851 152.776203 
L 361.366327 151.657543 
L 361.92149 151.657543 
L 361.958912 150.538884 
L 364.333313 150.538884 
L 364.567553 149.979554 
L 364.721302 150.538884 
L 364.851559 149.979554 
L 364.950501 150.538884 
L 365.069183 149.420224 
L 365.616005 149.420224 
L 365.873951 148.860894 
L 365.926228 149.420224 
L 365.979788 148.860894 
L 366.274343 149.420224 
L 366.350469 148.860894 
L 366.638525 148.301564 
L 366.75135 147.742235 
L 366.96674 147.742235 
L 367.016265 147.182905 
L 367.316157 145.504916 
L 367.451136 146.064245 
L 367.633313 146.064245 
L 367.666133 144.945586 
L 368.946085 144.945586 
L 369.105062 144.386256 
L 369.355813 144.945586 
L 370.096286 143.267596 
L 370.329842 143.267596 
L 370.468829 142.708267 
L 370.792558 142.708267 
L 370.800495 142.148937 
L 370.900288 142.708267 
L 370.995949 141.589607 
L 371.137338 141.589607 
L 371.333056 141.030277 
L 372.675656 141.030277 
L 372.711088 141.589607 
L 372.795609 140.470948 
L 373.149679 140.470948 
L 373.330503 141.030277 
L 373.469696 140.470948 
L 373.679259 141.030277 
L 373.836273 140.470948 
L 374.012682 140.470948 
L 374.164266 141.030277 
L 374.314567 139.352288 
L 376.113835 139.352288 
L 376.654912 138.233628 
L 376.939727 138.792958 
L 383.736566 138.792958 
L 383.851964 138.233628 
L 384.058363 138.792958 
L 384.11785 138.233628 
L 384.734587 138.233628 
L 384.905364 137.674299 
L 385.770956 137.674299 
L 385.886611 137.114969 
L 386.049634 137.674299 
L 387.37559 137.674299 
L 387.559508 137.114969 
L 387.791121 137.674299 
L 387.919007 137.674299 
L 388.12281 136.555639 
L 388.234924 137.114969 
L 388.731851 137.114969 
L 388.948372 136.555639 
L 389.967541 136.555639 
L 390.133561 137.674299 
L 390.469961 136.555639 
L 392.279968 136.555639 
L 392.465545 135.996309 
L 392.631336 135.996309 
L 392.809886 135.43698 
L 392.943342 135.43698 
L 393.108542 134.87765 
L 393.495062 134.87765 
L 393.563535 134.31832 
L 393.885756 134.31832 
L 394.089291 135.43698 
L 394.248221 134.87765 
L 394.491497 134.87765 
L 394.590696 134.31832 
L 394.96287 134.31832 
L 395.295744 133.75899 
L 395.658726 132.081001 
L 395.777568 132.640331 
L 395.888224 132.081001 
L 396.142213 131.521671 
L 396.262652 132.081001 
L 396.46691 131.521671 
L 396.585934 131.521671 
L 396.799738 132.081001 
L 396.974355 132.081001 
L 397.316449 130.403012 
L 397.52307 130.962341 
L 397.646148 130.962341 
L 397.807721 130.403012 
L 397.850208 129.843682 
L 397.987593 129.843682 
L 398.05464 130.403012 
L 398.276559 129.843682 
L 398.430227 130.403012 
L 398.556912 129.843682 
L 399.103991 129.843682 
L 399.307685 133.19966 
L 399.8517 132.081001 
L 400.210896 132.081001 
L 400.336536 131.521671 
L 400.532231 132.081001 
L 400.657844 132.081001 
L 400.806478 132.640331 
L 400.977379 132.081001 
L 401.212132 132.081001 
L 401.327639 132.640331 
L 401.474392 132.081001 
L 401.674541 132.640331 
L 401.75321 132.081001 
L 402.042755 131.521671 
L 402.32907 131.521671 
L 402.474932 132.081001 
L 402.75188 131.521671 
L 403.88269 131.521671 
L 403.982284 128.725022 
L 404.274231 130.962341 
L 404.580765 131.521671 
L 405.132143 131.521671 
L 405.554856 130.403012 
L 405.699848 132.081001 
L 405.943887 131.521671 
L 406.254984 132.081001 
L 406.397294 130.403012 
L 406.569113 131.521671 
L 406.731494 131.521671 
L 406.839636 130.962341 
L 406.934827 126.487703 
L 407.265412 128.725022 
L 407.292837 125.928373 
L 408.176471 125.928373 
L 408.594466 124.809714 
L 408.766895 125.369044 
L 409.385918 125.369044 
L 409.55458 125.928373 
L 409.734845 125.369044 
L 409.932573 125.369044 
L 410.048733 125.928373 
L 410.402122 125.369044 
L 410.609726 125.369044 
L 410.745829 124.809714 
L 410.912288 125.369044 
L 411.091118 125.369044 
L 411.258708 125.928373 
L 411.36252 125.369044 
L 412.296067 125.369044 
L 412.529623 123.691054 
L 412.812005 124.250384 
L 413.045553 124.250384 
L 413.234629 124.809714 
L 413.320597 124.250384 
L 413.613473 124.809714 
L 413.722963 124.250384 
L 413.980975 124.250384 
L 414.081914 123.691054 
L 414.390252 124.250384 
L 415.025626 124.250384 
L 415.261188 123.691054 
L 415.653592 123.691054 
L 415.752534 123.131724 
L 415.919758 123.691054 
L 416.310674 122.572395 
L 416.42699 122.572395 
L 416.5995 122.013065 
L 416.758523 122.013065 
L 417.057739 121.453735 
L 419.491681 121.453735 
L 419.750979 120.894405 
L 419.994116 120.894405 
L 420.043618 122.013065 
L 420.104924 121.453735 
L 420.5016 121.453735 
L 420.592142 120.894405 
L 421.114089 120.894405 
L 421.363359 120.335075 
L 421.69815 120.335075 
L 421.709286 120.894405 
L 421.82058 120.335075 
L 421.92293 120.894405 
L 423.380753 120.894405 
L 423.654102 121.453735 
L 424.41662 120.894405 
L 425.99789 120.894405 
L 426.066313 120.335075 
L 427.725611 120.335075 
L 427.875076 119.775746 
L 429.409589 116.979097 
L 429.555024 116.979097 
L 429.706756 116.419767 
L 429.774327 116.979097 
L 430.1011 116.419767 
L 430.404692 115.860437 
L 430.76777 115.860437 
L 430.889698 115.301107 
L 431.348543 115.301107 
L 432.013127 115.860437 
L 432.046607 114.182448 
L 432.581474 114.182448 
L 432.747248 114.741778 
L 432.867657 114.182448 
L 433.764416 114.182448 
L 434.096471 114.741778 
L 435.699542 114.741778 
L 436.513269 114.182448 
L 438.157046 114.182448 
L 438.96647 113.623118 
L 439.074725 113.063788 
L 441.509044 113.063788 
L 441.737738 113.623118 
L 442.97354 113.623118 
L 443.875893 114.182448 
L 444.533449 114.182448 
L 444.859767 113.623118 
L 445.149475 112.504459 
L 445.321962 112.504459 
L 445.328694 113.063788 
L 447.263474 113.063788 
L 447.471125 112.504459 
L 452.35891 112.504459 
L 452.975204 111.945129 
L 453.212713 111.945129 
L 453.305424 110.826469 
L 453.607493 110.826469 
L 453.734349 111.385799 
L 453.930996 110.826469 
L 455.035115 110.826469 
L 455.527274 110.267139 
L 455.869146 109.14848 
L 458.863308 109.14848 
L 459.390308 109.70781 
L 459.542786 109.14848 
L 459.697032 109.70781 
L 459.870429 109.14848 
L 460.69163 109.14848 
L 461.070244 109.70781 
L 461.262371 109.14848 
L 461.792138 110.267139 
L 461.998611 109.14848 
L 463.280619 109.14848 
L 463.295786 108.58915 
L 465.32749 108.58915 
L 466.315328 108.02982 
L 466.611776 108.58915 
L 466.827667 108.02982 
L 466.967385 108.58915 
L 467.162559 108.58915 
L 467.296077 108.02982 
L 467.766691 109.14848 
L 468.077408 108.58915 
L 468.495127 109.14848 
L 468.804533 109.14848 
L 468.945051 108.58915 
L 469.798093 108.58915 
L 470.81165 109.14848 
L 470.964209 108.58915 
L 471.972752 108.58915 
L 472.300197 109.14848 
L 477.433339 108.58915 
L 477.81769 109.14848 
L 478.149861 108.58915 
L 478.44751 109.14848 
L 478.480812 108.58915 
L 478.739943 108.02982 
L 478.890015 108.02982 
L 479.027292 107.470491 
L 481.413866 107.470491 
L 481.464721 106.911161 
L 481.761375 106.911161 
L 482.553483 107.470491 
L 482.578681 106.911161 
L 482.883015 107.470491 
L 482.956984 106.351831 
L 483.15287 106.351831 
L 483.550276 105.792501 
L 484.216255 105.792501 
L 484.620643 106.351831 
L 485.075321 105.233171 
L 485.09397 104.673842 
L 485.407002 104.114512 
L 485.535658 104.114512 
L 485.860515 104.673842 
L 486.317304 104.673842 
L 486.412261 104.114512 
L 487.452303 104.114512 
L 487.595581 104.673842 
L 487.770987 103.555182 
L 487.915559 103.555182 
L 488.189946 104.114512 
L 488.439488 103.555182 
L 488.995973 103.555182 
L 489.241053 101.877193 
L 490.988957 101.877193 
L 491.197925 101.317863 
L 491.325882 101.317863 
L 491.536432 101.877193 
L 491.590734 101.317863 
L 492.148462 101.317863 
L 492.260639 100.758533 
L 492.565311 100.199203 
L 492.652332 99.080544 
L 493.127684 99.080544 
L 493.306285 97.402555 
L 493.678167 97.402555 
L 493.895663 97.961884 
L 494.013164 97.402555 
L 494.171336 97.402555 
L 494.183416 95.724565 
L 495.029352 95.724565 
L 495.175993 95.165235 
L 495.540665 95.165235 
L 495.918552 95.724565 
L 495.95742 94.605906 
L 496.292009 94.605906 
L 496.353684 94.046576 
L 496.586816 93.487246 
L 497.202679 93.487246 
L 497.293198 92.368587 
L 497.557495 92.368587 
L 497.712445 91.809257 
L 497.861129 91.809257 
L 498.394324 91.249927 
L 498.603001 91.809257 
L 498.727273 97.961884 
L 498.86205 98.521214 
L 498.953331 96.283895 
L 499.610833 96.283895 
L 499.88108 96.843225 
L 500.077984 95.724565 
L 501.050392 95.724565 
L 501.246386 96.283895 
L 501.399844 95.724565 
L 502.435536 95.724565 
L 502.563061 95.165235 
L 503.035241 96.283895 
L 503.419196 95.724565 
L 503.639218 95.724565 
L 503.723724 95.165235 
L 503.917973 96.283895 
L 504.106797 95.165235 
L 504.890261 95.165235 
L 505.011695 95.724565 
L 505.290773 95.724565 
L 505.334674 95.165235 
L 505.650669 94.605906 
L 505.663001 95.165235 
L 505.917597 94.605906 
L 506.257265 94.605906 
L 506.563131 94.046576 
L 508.150356 94.046576 
L 508.269369 93.487246 
L 508.584139 94.046576 
L 508.594649 93.487246 
L 509.046634 92.927916 
L 509.324351 92.927916 
L 509.643937 92.368587 
L 509.803508 91.809257 
L 509.92551 91.809257 
L 510.309418 92.927916 
L 510.385257 91.809257 
L 510.643412 92.368587 
L 510.860702 91.809257 
L 511.830455 91.809257 
L 511.93911 91.249927 
L 512.074529 91.809257 
L 512.543806 91.249927 
L 512.770479 91.809257 
L 513.000202 91.249927 
L 513.138225 91.809257 
L 513.459669 90.690597 
L 513.681763 91.249927 
L 514.441405 91.249927 
L 514.743621 90.690597 
L 515.184902 90.690597 
L 515.535994 91.809257 
L 515.629572 91.249927 
L 516.004707 91.249927 
L 516.09991 90.131267 
L 516.573039 91.249927 
L 516.738265 90.690597 
L 517.119476 91.249927 
L 517.397741 91.249927 
L 517.5403 90.690597 
L 517.881054 90.690597 
L 518.327301 90.131267 
L 518.385113 91.249927 
L 518.545334 90.131267 
L 518.692223 90.690597 
L 518.780386 90.131267 
L 519.130137 90.690597 
L 519.549788 90.131267 
L 519.761174 90.131267 
L 520.051345 90.690597 
L 520.463801 90.690597 
L 520.886693 89.571938 
L 521.108212 90.131267 
L 521.556147 90.131267 
L 521.765617 90.690597 
L 521.796454 91.249927 
L 522.057404 90.131267 
L 522.195793 90.690597 
L 522.358571 90.131267 
L 522.600444 90.690597 
L 522.874201 90.690597 
L 523.050066 91.249927 
L 523.38359 91.249927 
L 523.73083 90.131267 
L 523.96645 90.690597 
L 524.253387 89.571938 
L 524.402818 89.571938 
L 524.496613 90.131267 
L 524.78844 90.131267 
L 524.812934 89.571938 
L 525.780351 89.571938 
L 525.938838 89.012608 
L 526.074588 89.012608 
L 526.283852 88.453278 
L 526.464345 89.012608 
L 526.601999 88.453278 
L 526.807221 88.453278 
L 526.922747 87.893948 
L 527.071855 88.453278 
L 527.119896 87.893948 
L 527.284963 86.775289 
L 527.486632 87.334619 
L 527.550099 87.893948 
L 527.762783 87.334619 
L 527.936592 87.893948 
L 528.146085 87.334619 
L 528.489392 87.334619 
L 528.584983 86.775289 
L 528.82215 87.334619 
L 529.445013 85.656629 
L 529.612564 85.656629 
L 529.785871 86.775289 
L 529.867804 86.215959 
L 530.11283 86.215959 
L 530.22431 86.775289 
L 530.424666 86.775289 
L 530.607076 86.215959 
L 530.84158 86.215959 
L 531.235287 84.53797 
L 531.444748 85.097299 
L 534.198164 85.097299 
L 534.326295 84.53797 
L 534.488782 84.53797 
L 534.619451 85.097299 
L 534.766118 84.53797 
L 535.534786 84.53797 
L 535.644051 83.41931 
L 536.207632 84.53797 
L 536.819025 84.53797 
L 537.481113 83.41931 
L 538.651556 83.97864 
L 538.948797 83.41931 
L 539.276257 83.97864 
L 539.510128 82.85998 
L 539.603928 83.97864 
L 539.912222 82.85998 
L 540.248121 83.97864 
L 540.359314 82.85998 
L 540.574711 82.85998 
L 540.693117 83.41931 
L 540.907737 82.85998 
L 541.036537 82.85998 
L 541.15651 83.41931 
L 541.302279 81.741321 
L 541.684574 82.85998 
L 542.042138 82.85998 
L 542.260621 82.300651 
L 542.672949 82.300651 
L 543.008272 82.85998 
L 543.204306 82.85998 
L 543.3525 81.741321 
L 543.537355 82.85998 
L 543.640561 82.300651 
L 543.889757 81.741321 
L 544.042554 81.741321 
L 544.309695 82.85998 
L 544.565146 81.181991 
L 544.88622 81.181991 
L 544.91059 80.063331 
L 544.933013 80.622661 
L 545.100933 81.181991 
L 545.277451 80.063331 
L 545.351078 81.181991 
L 545.617166 81.181991 
L 545.653422 80.622661 
L 545.953212 80.063331 
L 546.132634 80.063331 
L 546.216732 81.181991 
L 546.619051 80.063331 
L 546.684205 81.181991 
L 546.903337 80.063331 
L 547.071907 81.741321 
L 547.584339 80.622661 
L 547.970369 82.300651 
L 548.000219 81.741321 
L 548.244736 82.300651 
L 548.399321 82.300651 
L 548.559801 81.181991 
L 548.75145 82.300651 
L 549.119908 81.181991 
L 549.2597 82.300651 
L 549.411059 81.741321 
L 549.719497 81.741321 
L 549.923187 82.300651 
L 550.313104 82.300651 
L 550.325006 81.741321 
L 550.938688 82.85998 
L 551.264154 81.181991 
L 551.43689 81.181991 
L 551.638213 81.741321 
L 551.695119 80.622661 
L 551.980918 81.741321 
L 552.156899 80.622661 
L 552.334307 81.741321 
L 552.407623 81.181991 
L 552.771467 81.181991 
L 552.989511 80.622661 
L 553.089238 79.504002 
L 553.29226 80.622661 
L 553.626277 80.063331 
L 553.774033 79.504002 
L 553.956598 80.063331 
L 554.112473 77.826012 
L 554.357142 77.826012 
L 554.680704 77.266683 
L 554.719738 78.385342 
L 555.038189 77.266683 
L 555.491488 78.385342 
L 555.613972 76.707353 
L 555.981528 76.148023 
L 556.381858 77.266683 
L 556.635586 77.826012 
L 557.340887 77.266683 
L 557.425366 76.707353 
L 558.416636 76.707353 
L 558.716924 76.148023 
L 559.020672 74.470034 
L 559.800517 75.029363 
L 560.400059 75.029363 
L 560.731185 74.470034 
L 560.816539 75.029363 
L 561.068114 73.910704 
L 561.124161 75.029363 
L 561.399504 74.470034 
L 561.898977 74.470034 
L 562.15529 73.351374 
L 562.390549 74.470034 
L 562.711864 73.351374 
L 562.837131 73.910704 
L 563.008739 73.351374 
L 563.456779 73.910704 
L 563.715735 73.351374 
L 563.715735 73.351374 
" clip-path="url(#pf169f1db61)" style="fill: none; stroke-dasharray: 6,1.5; stroke-dashoffset: 0; stroke: #008000; stroke-width: 1.5"/>
   </g>
   <g id="line2d_20">
    <path d="M 38.539265 361.96554 
L 39.91215 363.0842 
L 41.280604 363.0842 
L 42.604283 362.52487 
L 44.521238 362.52487 
L 48.524822 361.96554 
L 48.637861 362.52487 
L 52.104798 362.52487 
L 52.431536 363.643529 
L 53.154417 363.643529 
L 53.454988 360.287551 
L 53.855563 363.643529 
L 55.80624 363.643529 
L 56.163943 360.287551 
L 58.854226 360.287551 
L 60.272345 360.846881 
L 60.465467 361.40621 
L 61.543471 361.40621 
L 61.846044 359.728221 
L 65.153317 359.728221 
L 65.545593 360.287551 
L 75.628914 360.287551 
L 75.946518 359.728221 
L 82.021898 359.728221 
L 82.324561 361.96554 
L 132.703165 361.96554 
L 133.042861 363.0842 
L 133.453588 366.440178 
L 133.746985 366.440178 
L 134.078616 366.999508 
L 136.070232 366.999508 
L 138.816741 368.677497 
L 139.097179 368.677497 
L 139.567401 369.236827 
L 153.450153 369.236827 
L 154.196153 370.355487 
L 185.69361 370.355487 
L 186.047912 370.914817 
L 186.415741 370.355487 
L 188.557285 370.355487 
L 188.872118 370.914817 
L 194.600716 370.914817 
L 195.858413 372.033476 
L 196.068167 370.914817 
L 196.47192 370.914817 
L 196.804721 372.033476 
L 204.557923 372.033476 
L 204.919113 371.474146 
L 205.129391 372.033476 
L 223.374453 372.033476 
L 223.693114 373.152136 
L 264.327864 373.152136 
L 264.713657 373.711465 
L 357.899945 373.711465 
L 358.272605 373.152136 
L 369.355813 373.152136 
L 369.79016 373.711465 
L 369.906246 374.830125 
L 399.103991 374.830125 
L 399.307685 374.270795 
L 402.16923 374.270795 
L 402.32907 374.830125 
L 517.739237 374.830125 
L 517.765741 374.270795 
L 526.601999 374.270795 
L 526.922747 374.830125 
L 560.051723 374.830125 
L 560.400059 374.270795 
L 563.715735 374.270795 
L 563.715735 374.270795 
" clip-path="url(#pf169f1db61)" style="fill: none; stroke-dasharray: 9,3; stroke-dashoffset: 0; stroke: #ffa500; stroke-width: 1.5"/>
   </g>
   <g id="line2d_21">
    <path d="M 38.539265 323.371785 
L 48.524822 323.371785 
L 48.637861 323.931115 
L 52.104798 323.931115 
L 52.431536 324.490445 
L 53.154417 324.490445 
L 53.454988 325.609104 
L 53.855563 324.490445 
L 55.80624 324.490445 
L 56.405755 326.168434 
L 57.816633 326.168434 
L 58.134497 326.727764 
L 58.326698 326.168434 
L 58.48747 326.727764 
L 73.285025 326.727764 
L 73.600024 327.846424 
L 73.723981 326.727764 
L 74.276268 327.846424 
L 91.954106 327.846424 
L 92.703246 328.405753 
L 92.87295 327.846424 
L 94.074592 327.846424 
L 94.400902 328.405753 
L 94.760918 327.846424 
L 95.617488 327.846424 
L 96.090617 328.405753 
L 96.441853 327.846424 
L 123.67363 327.846424 
L 123.967279 328.405753 
L 124.342508 328.405753 
L 124.675243 327.846424 
L 125.017574 327.846424 
L 125.253458 328.405753 
L 125.50911 327.846424 
L 125.933966 328.405753 
L 133.042861 328.405753 
L 133.453588 327.846424 
L 133.746985 327.846424 
L 134.078616 328.965083 
L 135.69512 328.965083 
L 136.070232 331.761732 
L 138.816741 329.524413 
L 139.097179 330.083743 
L 141.060873 330.083743 
L 141.443976 332.880392 
L 141.781807 333.439721 
L 157.000446 333.439721 
L 157.532471 332.880392 
L 157.953482 333.439721 
L 158.892522 332.880392 
L 161.179587 332.880392 
L 162.532615 333.439721 
L 168.181531 333.439721 
L 168.60866 333.999051 
L 204.2833 333.999051 
L 204.557923 334.558381 
L 204.919113 333.999051 
L 211.27415 333.999051 
L 211.677418 341.270338 
L 212.616077 341.270338 
L 212.999072 345.744976 
L 213.336735 347.422966 
L 233.786501 347.422966 
L 236.662731 347.982296 
L 267.012522 347.982296 
L 267.349929 350.219615 
L 274.383573 350.219615 
L 274.702137 346.863636 
L 290.961626 346.863636 
L 291.14774 347.422966 
L 321.424922 347.422966 
L 321.648827 347.982296 
L 322.003814 347.422966 
L 330.183356 347.422966 
L 330.335025 347.982296 
L 330.644486 347.422966 
L 332.718549 347.422966 
L 333.006279 347.982296 
L 333.115019 347.422966 
L 336.192233 347.422966 
L 336.407117 347.982296 
L 346.039861 347.982296 
L 346.228229 347.422966 
L 358.272605 347.422966 
L 358.549522 346.863636 
L 358.688342 347.422966 
L 358.859123 346.863636 
L 358.967423 347.422966 
L 359.184706 347.422966 
L 359.275769 346.863636 
L 359.519434 347.422966 
L 360.970451 347.422966 
L 361.243851 346.863636 
L 361.366327 347.422966 
L 369.79016 347.422966 
L 369.906246 346.863636 
L 399.103991 346.863636 
L 399.307685 347.422966 
L 403.88269 347.422966 
L 403.982284 350.219615 
L 404.274231 347.422966 
L 406.920341 347.422966 
L 406.934827 350.219615 
L 407.265412 347.422966 
L 407.292837 350.219615 
L 433.764416 350.219615 
L 434.096471 349.660285 
L 434.381729 350.219615 
L 466.611776 350.219615 
L 466.827667 350.778944 
L 466.967385 350.219615 
L 467.296077 350.219615 
L 467.766691 350.778944 
L 488.995973 350.778944 
L 489.241053 351.338274 
L 492.260639 351.338274 
L 492.565311 351.897604 
L 498.603001 351.897604 
L 498.727273 351.338274 
L 505.663001 351.338274 
L 505.917597 351.897604 
L 517.739237 351.897604 
L 517.765741 355.812913 
L 526.601999 355.812913 
L 526.922747 355.253583 
L 534.881622 355.253583 
L 535.644051 357.490902 
L 543.3525 357.490902 
L 543.640561 356.931572 
L 557.689231 356.931572 
L 558.175649 356.372242 
L 560.051723 356.372242 
L 560.400059 358.609561 
L 560.816539 359.168891 
L 563.008739 359.168891 
L 563.456779 359.728221 
L 563.715735 359.728221 
L 563.715735 359.728221 
" clip-path="url(#pf169f1db61)" style="fill: none; stroke-dasharray: 12,4.5; stroke-dashoffset: 0; stroke: #ee82ee; stroke-width: 1.5"/>
   </g>
   <g id="patch_3">
    <path d="M 33.2875 374.830125 
L 33.2875 22.318125 
" style="fill: none; stroke: #000000; stroke-width: 0.8; stroke-linejoin: miter; stroke-linecap: square"/>
   </g>
   <g id="patch_4">
    <path d="M 568.9675 374.830125 
L 568.9675 22.318125 
" style="fill: none; stroke: #000000; stroke-width: 0.8; stroke-linejoin: miter; stroke-linecap: square"/>
   </g>
   <g id="patch_5">
    <path d="M 33.2875 374.830125 
L 568.9675 374.830125 
" style="fill: none; stroke: #000000; stroke-width: 0.8; stroke-linejoin: miter; stroke-linecap: square"/>
   </g>
   <g id="patch_6">
    <path d="M 33.2875 22.318125 
L 568.9675 22.318125 
" style="fill: none; stroke: #000000; stroke-width: 0.8; stroke-linejoin: miter; stroke-linecap: square"/>
   </g>
   <g id="text_17">
    <!-- Rust/Coreutils running GNU's testsuite -->
    <g transform="translate(186.090625 16.318125) scale(0.12 -0.12)">
     <defs>
      <path id="DejaVuSans-52" d="M 2841 2188 
Q 3044 2119 3236 1894 
Q 3428 1669 3622 1275 
L 4263 0 
L 3584 0 
L 2988 1197 
Q 2756 1666 2539 1819 
Q 2322 1972 1947 1972 
L 1259 1972 
L 1259 0 
L 628 0 
L 628 4666 
L 2053 4666 
Q 2853 4666 3247 4331 
Q 3641 3997 3641 3322 
Q 3641 2881 3436 2590 
Q 3231 2300 2841 2188 
z
M 1259 4147 
L 1259 2491 
L 2053 2491 
Q 2509 2491 2742 2702 
Q 2975 2913 2975 3322 
Q 2975 3731 2742 3939 
Q 2509 4147 2053 4147 
L 1259 4147 
z
" transform="scale(0.015625)"/>
      <path id="DejaVuSans-75" d="M 544 1381 
L 544 3500 
L 1119 3500 
L 1119 1403 
Q 1119 906 1312 657 
Q 1506 409 1894 409 
Q 2359 409 2629 706 
Q 2900 1003 2900 1516 
L 2900 3500 
L 3475 3500 
L 3475 0 
L 2900 0 
L 2900 538 
Q 2691 219 2414 64 
Q 2138 -91 1772 -91 
Q 1169 -91 856 284 
Q 544 659 544 1381 
z
M 1991 3584 
L 1991 3584 
z
" transform="scale(0.015625)"/>
      <path id="DejaVuSans-73" d="M 2834 3397 
L 2834 2853 
Q 2591 2978 2328 3040 
Q 2066 3103 1784 3103 
Q 1356 3103 1142 2972 
Q 928 2841 928 2578 
Q 928 2378 1081 2264 
Q 1234 2150 1697 2047 
L 1894 2003 
Q 2506 1872 2764 1633 
Q 3022 1394 3022 966 
Q 3022 478 2636 193 
Q 2250 -91 1575 -91 
Q 1294 -91 989 -36 
Q 684 19 347 128 
L 347 722 
Q 666 556 975 473 
Q 1284 391 1588 391 
Q 1994 391 2212 530 
Q 2431 669 2431 922 
Q 2431 1156 2273 1281 
Q 2116 1406 1581 1522 
L 1381 1569 
Q 847 1681 609 1914 
Q 372 2147 372 2553 
Q 372 3047 722 3315 
Q 1072 3584 1716 3584 
Q 2034 3584 2315 3537 
Q 2597 3491 2834 3397 
z
" transform="scale(0.015625)"/>
      <path id="DejaVuSans-74" d="M 1172 4494 
L 1172 3500 
L 2356 3500 
L 2356 3053 
L 1172 3053 
L 1172 1153 
Q 1172 725 1289 603 
Q 1406 481 1766 481 
L 2356 481 
L 2356 0 
L 1766 0 
Q 1100 0 847 248 
Q 594 497 594 1153 
L 594 3053 
L 172 3053 
L 172 3500 
L 594 3500 
L 594 4494 
L 1172 4494 
z
" transform="scale(0.015625)"/>
      <path id="DejaVuSans-2f" d="M 1625 4666 
L 2156 4666 
L 531 -594 
L 0 -594 
L 1625 4666 
z
" transform="scale(0.015625)"/>
      <path id="DejaVuSans-43" d="M 4122 4306 
L 4122 3641 
Q 3803 3938 3442 4084 
Q 3081 4231 2675 4231 
Q 1875 4231 1450 3742 
Q 1025 3253 1025 2328 
Q 1025 1406 1450 917 
Q 1875 428 2675 428 
Q 3081 428 3442 575 
Q 3803 722 4122 1019 
L 4122 359 
Q 3791 134 3420 21 
Q 3050 -91 2638 -91 
Q 1578 -91 968 557 
Q 359 1206 359 2328 
Q 359 3453 968 4101 
Q 1578 4750 2638 4750 
Q 3056 4750 3426 4639 
Q 3797 4528 4122 4306 
z
" transform="scale(0.015625)"/>
      <path id="DejaVuSans-6f" d="M 1959 3097 
Q 1497 3097 1228 2736 
Q 959 2375 959 1747 
Q 959 1119 1226 758 
Q 1494 397 1959 397 
Q 2419 397 2687 759 
Q 2956 1122 2956 1747 
Q 2956 2369 2687 2733 
Q 2419 3097 1959 3097 
z
M 1959 3584 
Q 2709 3584 3137 3096 
Q 3566 2609 3566 1747 
Q 3566 888 3137 398 
Q 2709 -91 1959 -91 
Q 1206 -91 779 398 
Q 353 888 353 1747 
Q 353 2609 779 3096 
Q 1206 3584 1959 3584 
z
" transform="scale(0.015625)"/>
      <path id="DejaVuSans-72" d="M 2631 2963 
Q 2534 3019 2420 3045 
Q 2306 3072 2169 3072 
Q 1681 3072 1420 2755 
Q 1159 2438 1159 1844 
L 1159 0 
L 581 0 
L 581 3500 
L 1159 3500 
L 1159 2956 
Q 1341 3275 1631 3429 
Q 1922 3584 2338 3584 
Q 2397 3584 2469 3576 
Q 2541 3569 2628 3553 
L 2631 2963 
z
" transform="scale(0.015625)"/>
      <path id="DejaVuSans-65" d="M 3597 1894 
L 3597 1613 
L 953 1613 
Q 991 1019 1311 708 
Q 1631 397 2203 397 
Q 2534 397 2845 478 
Q 3156 559 3463 722 
L 3463 178 
Q 3153 47 2828 -22 
Q 2503 -91 2169 -91 
Q 1331 -91 842 396 
Q 353 884 353 1716 
Q 353 2575 817 3079 
Q 1281 3584 2069 3584 
Q 2775 3584 3186 3129 
Q 3597 2675 3597 1894 
z
M 3022 2063 
Q 3016 2534 2758 2815 
Q 2500 3097 2075 3097 
Q 1594 3097 1305 2825 
Q 1016 2553 972 2059 
L 3022 2063 
z
" transform="scale(0.015625)"/>
      <path id="DejaVuSans-69" d="M 603 3500 
L 1178 3500 
L 1178 0 
L 603 0 
L 603 3500 
z
M 603 4863 
L 1178 4863 
L 1178 4134 
L 603 4134 
L 603 4863 
z
" transform="scale(0.015625)"/>
      <path id="DejaVuSans-6c" d="M 603 4863 
L 1178 4863 
L 1178 0 
L 603 0 
L 603 4863 
z
" transform="scale(0.015625)"/>
      <path id="DejaVuSans-20" transform="scale(0.015625)"/>
      <path id="DejaVuSans-6e" d="M 3513 2113 
L 3513 0 
L 2938 0 
L 2938 2094 
Q 2938 2591 2744 2837 
Q 2550 3084 2163 3084 
Q 1697 3084 1428 2787 
Q 1159 2491 1159 1978 
L 1159 0 
L 581 0 
L 581 3500 
L 1159 3500 
L 1159 2956 
Q 1366 3272 1645 3428 
Q 1925 3584 2291 3584 
Q 2894 3584 3203 3211 
Q 3513 2838 3513 2113 
z
" transform="scale(0.015625)"/>
      <path id="DejaVuSans-67" d="M 2906 1791 
Q 2906 2416 2648 2759 
Q 2391 3103 1925 3103 
Q 1463 3103 1205 2759 
Q 947 2416 947 1791 
Q 947 1169 1205 825 
Q 1463 481 1925 481 
Q 2391 481 2648 825 
Q 2906 1169 2906 1791 
z
M 3481 434 
Q 3481 -459 3084 -895 
Q 2688 -1331 1869 -1331 
Q 1566 -1331 1297 -1286 
Q 1028 -1241 775 -1147 
L 775 -588 
Q 1028 -725 1275 -790 
Q 1522 -856 1778 -856 
Q 2344 -856 2625 -561 
Q 2906 -266 2906 331 
L 2906 616 
Q 2728 306 2450 153 
Q 2172 0 1784 0 
Q 1141 0 747 490 
Q 353 981 353 1791 
Q 353 2603 747 3093 
Q 1141 3584 1784 3584 
Q 2172 3584 2450 3431 
Q 2728 3278 2906 2969 
L 2906 3500 
L 3481 3500 
L 3481 434 
z
" transform="scale(0.015625)"/>
      <path id="DejaVuSans-47" d="M 3809 666 
L 3809 1919 
L 2778 1919 
L 2778 2438 
L 4434 2438 
L 4434 434 
Q 4069 175 3628 42 
Q 3188 -91 2688 -91 
Q 1594 -91 976 548 
Q 359 1188 359 2328 
Q 359 3472 976 4111 
Q 1594 4750 2688 4750 
Q 3144 4750 3555 4637 
Q 3966 4525 4313 4306 
L 4313 3634 
Q 3963 3931 3569 4081 
Q 3175 4231 2741 4231 
Q 1884 4231 1454 3753 
Q 1025 3275 1025 2328 
Q 1025 1384 1454 906 
Q 1884 428 2741 428 
Q 3075 428 3337 486 
Q 3600 544 3809 666 
z
" transform="scale(0.015625)"/>
      <path id="DejaVuSans-4e" d="M 628 4666 
L 1478 4666 
L 3547 763 
L 3547 4666 
L 4159 4666 
L 4159 0 
L 3309 0 
L 1241 3903 
L 1241 0 
L 628 0 
L 628 4666 
z
" transform="scale(0.015625)"/>
      <path id="DejaVuSans-55" d="M 556 4666 
L 1191 4666 
L 1191 1831 
Q 1191 1081 1462 751 
Q 1734 422 2344 422 
Q 2950 422 3222 751 
Q 3494 1081 3494 1831 
L 3494 4666 
L 4128 4666 
L 4128 1753 
Q 4128 841 3676 375 
Q 3225 -91 2344 -91 
Q 1459 -91 1007 375 
Q 556 841 556 1753 
L 556 4666 
z
" transform="scale(0.015625)"/>
      <path id="DejaVuSans-27" d="M 1147 4666 
L 1147 2931 
L 616 2931 
L 616 4666 
L 1147 4666 
z
" transform="scale(0.015625)"/>
     </defs>
     <use xlink:href="#DejaVuSans-52"/>
     <use xlink:href="#DejaVuSans-75" x="64.982422"/>
     <use xlink:href="#DejaVuSans-73" x="128.361328"/>
     <use xlink:href="#DejaVuSans-74" x="180.460938"/>
     <use xlink:href="#DejaVuSans-2f" x="219.669922"/>
     <use xlink:href="#DejaVuSans-43" x="253.361328"/>
     <use xlink:href="#DejaVuSans-6f" x="323.185547"/>
     <use xlink:href="#DejaVuSans-72" x="384.367188"/>
     <use xlink:href="#DejaVuSans-65" x="423.230469"/>
     <use xlink:href="#DejaVuSans-75" x="484.753906"/>
     <use xlink:href="#DejaVuSans-74" x="548.132812"/>
     <use xlink:href="#DejaVuSans-69" x="587.341797"/>
     <use xlink:href="#DejaVuSans-6c" x="615.125"/>
     <use xlink:href="#DejaVuSans-73" x="642.908203"/>
     <use xlink:href="#DejaVuSans-20" x="695.007812"/>
     <use xlink:href="#DejaVuSans-72" x="726.794922"/>
     <use xlink:href="#DejaVuSans-75" x="767.908203"/>
     <use xlink:href="#DejaVuSans-6e" x="831.287109"/>
     <use xlink:href="#DejaVuSans-6e" x="894.666016"/>
     <use xlink:href="#DejaVuSans-69" x="958.044922"/>
     <use xlink:href="#DejaVuSans-6e" x="985.828125"/>
     <use xlink:href="#DejaVuSans-67" x="1049.207031"/>
     <use xlink:href="#DejaVuSans-20" x="1112.683594"/>
     <use xlink:href="#DejaVuSans-47" x="1144.470703"/>
     <use xlink:href="#DejaVuSans-4e" x="1221.960938"/>
     <use xlink:href="#DejaVuSans-55" x="1296.765625"/>
     <use xlink:href="#DejaVuSans-27" x="1369.958984"/>
     <use xlink:href="#DejaVuSans-73" x="1397.449219"/>
     <use xlink:href="#DejaVuSans-20" x="1449.548828"/>
     <use xlink:href="#DejaVuSans-74" x="1481.335938"/>
     <use xlink:href="#DejaVuSans-65" x="1520.544922"/>
     <use xlink:href="#DejaVuSans-73" x="1582.068359"/>
     <use xlink:href="#DejaVuSans-74" x="1634.167969"/>
     <use xlink:href="#DejaVuSans-73" x="1673.376953"/>
     <use xlink:href="#DejaVuSans-75" x="1725.476562"/>
     <use xlink:href="#DejaVuSans-69" x="1788.855469"/>
     <use xlink:href="#DejaVuSans-74" x="1816.638672"/>
     <use xlink:href="#DejaVuSans-65" x="1855.847656"/>
    </g>
   </g>
   <g id="legend_1">
    <g id="patch_7">
     <path d="M 505.762812 236.769437 
L 561.9675 236.769437 
Q 563.9675 236.769437 563.9675 234.769437 
L 563.9675 162.378812 
Q 563.9675 160.378812 561.9675 160.378812 
L 505.762812 160.378812 
Q 503.762812 160.378812 503.762812 162.378812 
L 503.762812 234.769437 
Q 503.762812 236.769437 505.762812 236.769437 
z
" style="fill: #ffffff; opacity: 0.8; stroke: #cccccc; stroke-linejoin: miter"/>
    </g>
    <g id="line2d_22">
     <path d="M 507.762812 168.47725 
L 517.762812 168.47725 
L 527.762812 168.47725 
" style="fill: none; stroke: #0000ff; stroke-width: 1.5; stroke-linecap: square"/>
    </g>
    <g id="text_18">
     <!-- total -->
     <g transform="translate(535.762812 171.97725) scale(0.1 -0.1)">
      <defs>
       <path id="DejaVuSans-61" d="M 2194 1759 
Q 1497 1759 1228 1600 
Q 959 1441 959 1056 
Q 959 750 1161 570 
Q 1363 391 1709 391 
Q 2188 391 2477 730 
Q 2766 1069 2766 1631 
L 2766 1759 
L 2194 1759 
z
M 3341 1997 
L 3341 0 
L 2766 0 
L 2766 531 
Q 2569 213 2275 61 
Q 1981 -91 1556 -91 
Q 1019 -91 701 211 
Q 384 513 384 1019 
Q 384 1609 779 1909 
Q 1175 2209 1959 2209 
L 2766 2209 
L 2766 2266 
Q 2766 2663 2505 2880 
Q 2244 3097 1772 3097 
Q 1472 3097 1187 3025 
Q 903 2953 641 2809 
L 641 3341 
Q 956 3463 1253 3523 
Q 1550 3584 1831 3584 
Q 2591 3584 2966 3190 
Q 3341 2797 3341 1997 
z
" transform="scale(0.015625)"/>
      </defs>
      <use xlink:href="#DejaVuSans-74"/>
      <use xlink:href="#DejaVuSans-6f" x="39.208984"/>
      <use xlink:href="#DejaVuSans-74" x="100.390625"/>
      <use xlink:href="#DejaVuSans-61" x="139.599609"/>
      <use xlink:href="#DejaVuSans-6c" x="200.878906"/>
     </g>
    </g>
    <g id="line2d_23">
     <path d="M 507.762812 183.155375 
L 517.762812 183.155375 
L 527.762812 183.155375 
" style="fill: none; stroke-dasharray: 3,1.5; stroke-dashoffset: 0; stroke: #808080; stroke-width: 1.5"/>
    </g>
    <g id="text_19">
     <!-- fail -->
     <g transform="translate(535.762812 186.655375) scale(0.1 -0.1)">
      <defs>
       <path id="DejaVuSans-66" d="M 2375 4863 
L 2375 4384 
L 1825 4384 
Q 1516 4384 1395 4259 
Q 1275 4134 1275 3809 
L 1275 3500 
L 2222 3500 
L 2222 3053 
L 1275 3053 
L 1275 0 
L 697 0 
L 697 3053 
L 147 3053 
L 147 3500 
L 697 3500 
L 697 3744 
Q 697 4328 969 4595 
Q 1241 4863 1831 4863 
L 2375 4863 
z
" transform="scale(0.015625)"/>
      </defs>
      <use xlink:href="#DejaVuSans-66"/>
      <use xlink:href="#DejaVuSans-61" x="35.205078"/>
      <use xlink:href="#DejaVuSans-69" x="96.484375"/>
      <use xlink:href="#DejaVuSans-6c" x="124.267578"/>
     </g>
    </g>
    <g id="line2d_24">
     <path d="M 507.762812 197.8335 
L 517.762812 197.8335 
L 527.762812 197.8335 
" style="fill: none; stroke-dasharray: 6,1.5; stroke-dashoffset: 0; stroke: #008000; stroke-width: 1.5"/>
    </g>
    <g id="text_20">
     <!-- pass -->
     <g transform="translate(535.762812 201.3335) scale(0.1 -0.1)">
      <defs>
       <path id="DejaVuSans-70" d="M 1159 525 
L 1159 -1331 
L 581 -1331 
L 581 3500 
L 1159 3500 
L 1159 2969 
Q 1341 3281 1617 3432 
Q 1894 3584 2278 3584 
Q 2916 3584 3314 3078 
Q 3713 2572 3713 1747 
Q 3713 922 3314 415 
Q 2916 -91 2278 -91 
Q 1894 -91 1617 61 
Q 1341 213 1159 525 
z
M 3116 1747 
Q 3116 2381 2855 2742 
Q 2594 3103 2138 3103 
Q 1681 3103 1420 2742 
Q 1159 2381 1159 1747 
Q 1159 1113 1420 752 
Q 1681 391 2138 391 
Q 2594 391 2855 752 
Q 3116 1113 3116 1747 
z
" transform="scale(0.015625)"/>
      </defs>
      <use xlink:href="#DejaVuSans-70"/>
      <use xlink:href="#DejaVuSans-61" x="63.476562"/>
      <use xlink:href="#DejaVuSans-73" x="124.755859"/>
      <use xlink:href="#DejaVuSans-73" x="176.855469"/>
     </g>
    </g>
    <g id="line2d_25">
     <path d="M 507.762812 212.511625 
L 517.762812 212.511625 
L 527.762812 212.511625 
" style="fill: none; stroke-dasharray: 9,3; stroke-dashoffset: 0; stroke: #ffa500; stroke-width: 1.5"/>
    </g>
    <g id="text_21">
     <!-- error -->
     <g transform="translate(535.762812 216.011625) scale(0.1 -0.1)">
      <use xlink:href="#DejaVuSans-65"/>
      <use xlink:href="#DejaVuSans-72" x="61.523438"/>
      <use xlink:href="#DejaVuSans-72" x="100.886719"/>
      <use xlink:href="#DejaVuSans-6f" x="139.75"/>
      <use xlink:href="#DejaVuSans-72" x="200.931641"/>
     </g>
    </g>
    <g id="line2d_26">
     <path d="M 507.762812 227.18975 
L 517.762812 227.18975 
L 527.762812 227.18975 
" style="fill: none; stroke-dasharray: 12,4.5; stroke-dashoffset: 0; stroke: #ee82ee; stroke-width: 1.5"/>
    </g>
    <g id="text_22">
     <!-- skip -->
     <g transform="translate(535.762812 230.68975) scale(0.1 -0.1)">
      <defs>
       <path id="DejaVuSans-6b" d="M 581 4863 
L 1159 4863 
L 1159 1991 
L 2875 3500 
L 3609 3500 
L 1753 1863 
L 3688 0 
L 2938 0 
L 1159 1709 
L 1159 0 
L 581 0 
L 581 4863 
z
" transform="scale(0.015625)"/>
      </defs>
      <use xlink:href="#DejaVuSans-73"/>
      <use xlink:href="#DejaVuSans-6b" x="52.099609"/>
      <use xlink:href="#DejaVuSans-69" x="110.009766"/>
      <use xlink:href="#DejaVuSans-70" x="137.792969"/>
     </g>
    </g>
   </g>
  </g>
 </g>
 <defs>
  <clipPath id="pf169f1db61">
   <rect x="33.2875" y="22.318125" width="535.68" height="352.512"/>
  </clipPath>
 </defs>
</svg>
