<?xml version="1.0" encoding="utf-8" standalone="no"?>
<!DOCTYPE svg PUBLIC "-//W3C//DTD SVG 1.1//EN"
  "http://www.w3.org/Graphics/SVG/1.1/DTD/svg11.dtd">
<svg xmlns:xlink="http://www.w3.org/1999/xlink" width="576.1675pt" height="418.303033pt" viewBox="0 0 576.1675 418.303033" xmlns="http://www.w3.org/2000/svg" version="1.1">
 <metadata>
  <rdf:RDF xmlns:dc="http://purl.org/dc/elements/1.1/" xmlns:cc="http://creativecommons.org/ns#" xmlns:rdf="http://www.w3.org/1999/02/22-rdf-syntax-ns#">
   <cc:Work>
    <dc:type rdf:resource="http://purl.org/dc/dcmitype/StillImage"/>
    <dc:date>2025-12-03T02:33:20.643824</dc:date>
    <dc:format>image/svg+xml</dc:format>
    <dc:creator>
     <cc:Agent>
      <dc:title>Matplotlib v3.6.3, https://matplotlib.org/</dc:title>
     </cc:Agent>
    </dc:creator>
   </cc:Work>
  </rdf:RDF>
 </metadata>
 <defs>
  <style type="text/css">*{stroke-linejoin: round; stroke-linecap: butt}</style>
 </defs>
 <g id="figure_1">
  <g id="patch_1">
   <path d="M -0 418.303033 
L 576.1675 418.303033 
L 576.1675 0 
L -0 0 
z
" style="fill: #ffffff"/>
  </g>
  <g id="axes_1">
   <g id="patch_2">
    <path d="M 33.2875 374.830125 
L 568.9675 374.830125 
L 568.9675 22.318125 
L 33.2875 22.318125 
z
" style="fill: #ffffff"/>
   </g>
   <g id="matplotlib.axis_1">
    <g id="xtick_1">
     <g id="line2d_1">
      <defs>
       <path id="m6d90b9f57e" d="M 0 0 
L 0 3.5 
" style="stroke: #000000; stroke-width: 0.8"/>
      </defs>
      <g>
       <use xlink:href="#m6d90b9f57e" x="60.765767" y="374.830125" style="stroke: #000000; stroke-width: 0.8"/>
      </g>
     </g>
     <g id="text_1">
      <!-- 2021-07 -->
      <g transform="translate(23.540946 409.301971) rotate(-30) scale(0.1 -0.1)">
       <defs>
        <path id="DejaVuSans-32" d="M 1228 531 
L 3431 531 
L 3431 0 
L 469 0 
L 469 531 
Q 828 903 1448 1529 
Q 2069 2156 2228 2338 
Q 2531 2678 2651 2914 
Q 2772 3150 2772 3378 
Q 2772 3750 2511 3984 
Q 2250 4219 1831 4219 
Q 1534 4219 1204 4116 
Q 875 4013 500 3803 
L 500 4441 
Q 881 4594 1212 4672 
Q 1544 4750 1819 4750 
Q 2544 4750 2975 4387 
Q 3406 4025 3406 3419 
Q 3406 3131 3298 2873 
Q 3191 2616 2906 2266 
Q 2828 2175 2409 1742 
Q 1991 1309 1228 531 
z
" transform="scale(0.015625)"/>
        <path id="DejaVuSans-30" d="M 2034 4250 
Q 1547 4250 1301 3770 
Q 1056 3291 1056 2328 
Q 1056 1369 1301 889 
Q 1547 409 2034 409 
Q 2525 409 2770 889 
Q 3016 1369 3016 2328 
Q 3016 3291 2770 3770 
Q 2525 4250 2034 4250 
z
M 2034 4750 
Q 2819 4750 3233 4129 
Q 3647 3509 3647 2328 
Q 3647 1150 3233 529 
Q 2819 -91 2034 -91 
Q 1250 -91 836 529 
Q 422 1150 422 2328 
Q 422 3509 836 4129 
Q 1250 4750 2034 4750 
z
" transform="scale(0.015625)"/>
        <path id="DejaVuSans-31" d="M 794 531 
L 1825 531 
L 1825 4091 
L 703 3866 
L 703 4441 
L 1819 4666 
L 2450 4666 
L 2450 531 
L 3481 531 
L 3481 0 
L 794 0 
L 794 531 
z
" transform="scale(0.015625)"/>
        <path id="DejaVuSans-2d" d="M 313 2009 
L 1997 2009 
L 1997 1497 
L 313 1497 
L 313 2009 
z
" transform="scale(0.015625)"/>
        <path id="DejaVuSans-37" d="M 525 4666 
L 3525 4666 
L 3525 4397 
L 1831 0 
L 1172 0 
L 2766 4134 
L 525 4134 
L 525 4666 
z
" transform="scale(0.015625)"/>
       </defs>
       <use xlink:href="#DejaVuSans-32"/>
       <use xlink:href="#DejaVuSans-30" x="63.623047"/>
       <use xlink:href="#DejaVuSans-32" x="127.246094"/>
       <use xlink:href="#DejaVuSans-31" x="190.869141"/>
       <use xlink:href="#DejaVuSans-2d" x="254.492188"/>
       <use xlink:href="#DejaVuSans-30" x="290.576172"/>
       <use xlink:href="#DejaVuSans-37" x="354.199219"/>
      </g>
     </g>
    </g>
    <g id="xtick_2">
     <g id="line2d_2">
      <g>
       <use xlink:href="#m6d90b9f57e" x="118.034244" y="374.830125" style="stroke: #000000; stroke-width: 0.8"/>
      </g>
     </g>
     <g id="text_2">
      <!-- 2022-01 -->
      <g transform="translate(80.809423 409.301971) rotate(-30) scale(0.1 -0.1)">
       <use xlink:href="#DejaVuSans-32"/>
       <use xlink:href="#DejaVuSans-30" x="63.623047"/>
       <use xlink:href="#DejaVuSans-32" x="127.246094"/>
       <use xlink:href="#DejaVuSans-32" x="190.869141"/>
       <use xlink:href="#DejaVuSans-2d" x="254.492188"/>
       <use xlink:href="#DejaVuSans-30" x="290.576172"/>
       <use xlink:href="#DejaVuSans-31" x="354.199219"/>
      </g>
     </g>
    </g>
    <g id="xtick_3">
     <g id="line2d_3">
      <g>
       <use xlink:href="#m6d90b9f57e" x="174.368996" y="374.830125" style="stroke: #000000; stroke-width: 0.8"/>
      </g>
     </g>
     <g id="text_3">
      <!-- 2022-07 -->
      <g transform="translate(137.144175 409.301971) rotate(-30) scale(0.1 -0.1)">
       <use xlink:href="#DejaVuSans-32"/>
       <use xlink:href="#DejaVuSans-30" x="63.623047"/>
       <use xlink:href="#DejaVuSans-32" x="127.246094"/>
       <use xlink:href="#DejaVuSans-32" x="190.869141"/>
       <use xlink:href="#DejaVuSans-2d" x="254.492188"/>
       <use xlink:href="#DejaVuSans-30" x="290.576172"/>
       <use xlink:href="#DejaVuSans-37" x="354.199219"/>
      </g>
     </g>
    </g>
    <g id="xtick_4">
     <g id="line2d_4">
      <g>
       <use xlink:href="#m6d90b9f57e" x="231.637472" y="374.830125" style="stroke: #000000; stroke-width: 0.8"/>
      </g>
     </g>
     <g id="text_4">
      <!-- 2023-01 -->
      <g transform="translate(194.412651 409.301971) rotate(-30) scale(0.1 -0.1)">
       <defs>
        <path id="DejaVuSans-33" d="M 2597 2516 
Q 3050 2419 3304 2112 
Q 3559 1806 3559 1356 
Q 3559 666 3084 287 
Q 2609 -91 1734 -91 
Q 1441 -91 1130 -33 
Q 819 25 488 141 
L 488 750 
Q 750 597 1062 519 
Q 1375 441 1716 441 
Q 2309 441 2620 675 
Q 2931 909 2931 1356 
Q 2931 1769 2642 2001 
Q 2353 2234 1838 2234 
L 1294 2234 
L 1294 2753 
L 1863 2753 
Q 2328 2753 2575 2939 
Q 2822 3125 2822 3475 
Q 2822 3834 2567 4026 
Q 2313 4219 1838 4219 
Q 1578 4219 1281 4162 
Q 984 4106 628 3988 
L 628 4550 
Q 988 4650 1302 4700 
Q 1616 4750 1894 4750 
Q 2613 4750 3031 4423 
Q 3450 4097 3450 3541 
Q 3450 3153 3228 2886 
Q 3006 2619 2597 2516 
z
" transform="scale(0.015625)"/>
       </defs>
       <use xlink:href="#DejaVuSans-32"/>
       <use xlink:href="#DejaVuSans-30" x="63.623047"/>
       <use xlink:href="#DejaVuSans-32" x="127.246094"/>
       <use xlink:href="#DejaVuSans-33" x="190.869141"/>
       <use xlink:href="#DejaVuSans-2d" x="254.492188"/>
       <use xlink:href="#DejaVuSans-30" x="290.576172"/>
       <use xlink:href="#DejaVuSans-31" x="354.199219"/>
      </g>
     </g>
    </g>
    <g id="xtick_5">
     <g id="line2d_5">
      <g>
       <use xlink:href="#m6d90b9f57e" x="287.972224" y="374.830125" style="stroke: #000000; stroke-width: 0.8"/>
      </g>
     </g>
     <g id="text_5">
      <!-- 2023-07 -->
      <g transform="translate(250.747403 409.301971) rotate(-30) scale(0.1 -0.1)">
       <use xlink:href="#DejaVuSans-32"/>
       <use xlink:href="#DejaVuSans-30" x="63.623047"/>
       <use xlink:href="#DejaVuSans-32" x="127.246094"/>
       <use xlink:href="#DejaVuSans-33" x="190.869141"/>
       <use xlink:href="#DejaVuSans-2d" x="254.492188"/>
       <use xlink:href="#DejaVuSans-30" x="290.576172"/>
       <use xlink:href="#DejaVuSans-37" x="354.199219"/>
      </g>
     </g>
    </g>
    <g id="xtick_6">
     <g id="line2d_6">
      <g>
       <use xlink:href="#m6d90b9f57e" x="345.240701" y="374.830125" style="stroke: #000000; stroke-width: 0.8"/>
      </g>
     </g>
     <g id="text_6">
      <!-- 2024-01 -->
      <g transform="translate(308.01588 409.301971) rotate(-30) scale(0.1 -0.1)">
       <defs>
        <path id="DejaVuSans-34" d="M 2419 4116 
L 825 1625 
L 2419 1625 
L 2419 4116 
z
M 2253 4666 
L 3047 4666 
L 3047 1625 
L 3713 1625 
L 3713 1100 
L 3047 1100 
L 3047 0 
L 2419 0 
L 2419 1100 
L 313 1100 
L 313 1709 
L 2253 4666 
z
" transform="scale(0.015625)"/>
       </defs>
       <use xlink:href="#DejaVuSans-32"/>
       <use xlink:href="#DejaVuSans-30" x="63.623047"/>
       <use xlink:href="#DejaVuSans-32" x="127.246094"/>
       <use xlink:href="#DejaVuSans-34" x="190.869141"/>
       <use xlink:href="#DejaVuSans-2d" x="254.492188"/>
       <use xlink:href="#DejaVuSans-30" x="290.576172"/>
       <use xlink:href="#DejaVuSans-31" x="354.199219"/>
      </g>
     </g>
    </g>
    <g id="xtick_7">
     <g id="line2d_7">
      <g>
       <use xlink:href="#m6d90b9f57e" x="401.886694" y="374.830125" style="stroke: #000000; stroke-width: 0.8"/>
      </g>
     </g>
     <g id="text_7">
      <!-- 2024-07 -->
      <g transform="translate(364.661873 409.301971) rotate(-30) scale(0.1 -0.1)">
       <use xlink:href="#DejaVuSans-32"/>
       <use xlink:href="#DejaVuSans-30" x="63.623047"/>
       <use xlink:href="#DejaVuSans-32" x="127.246094"/>
       <use xlink:href="#DejaVuSans-34" x="190.869141"/>
       <use xlink:href="#DejaVuSans-2d" x="254.492188"/>
       <use xlink:href="#DejaVuSans-30" x="290.576172"/>
       <use xlink:href="#DejaVuSans-37" x="354.199219"/>
      </g>
     </g>
    </g>
    <g id="xtick_8">
     <g id="line2d_8">
      <g>
       <use xlink:href="#m6d90b9f57e" x="459.155171" y="374.830125" style="stroke: #000000; stroke-width: 0.8"/>
      </g>
     </g>
     <g id="text_8">
      <!-- 2025-01 -->
      <g transform="translate(421.93035 409.301971) rotate(-30) scale(0.1 -0.1)">
       <defs>
        <path id="DejaVuSans-35" d="M 691 4666 
L 3169 4666 
L 3169 4134 
L 1269 4134 
L 1269 2991 
Q 1406 3038 1543 3061 
Q 1681 3084 1819 3084 
Q 2600 3084 3056 2656 
Q 3513 2228 3513 1497 
Q 3513 744 3044 326 
Q 2575 -91 1722 -91 
Q 1428 -91 1123 -41 
Q 819 9 494 109 
L 494 744 
Q 775 591 1075 516 
Q 1375 441 1709 441 
Q 2250 441 2565 725 
Q 2881 1009 2881 1497 
Q 2881 1984 2565 2268 
Q 2250 2553 1709 2553 
Q 1456 2553 1204 2497 
Q 953 2441 691 2322 
L 691 4666 
z
" transform="scale(0.015625)"/>
       </defs>
       <use xlink:href="#DejaVuSans-32"/>
       <use xlink:href="#DejaVuSans-30" x="63.623047"/>
       <use xlink:href="#DejaVuSans-32" x="127.246094"/>
       <use xlink:href="#DejaVuSans-35" x="190.869141"/>
       <use xlink:href="#DejaVuSans-2d" x="254.492188"/>
       <use xlink:href="#DejaVuSans-30" x="290.576172"/>
       <use xlink:href="#DejaVuSans-31" x="354.199219"/>
      </g>
     </g>
    </g>
    <g id="xtick_9">
     <g id="line2d_9">
      <g>
       <use xlink:href="#m6d90b9f57e" x="515.489922" y="374.830125" style="stroke: #000000; stroke-width: 0.8"/>
      </g>
     </g>
     <g id="text_9">
      <!-- 2025-07 -->
      <g transform="translate(478.265101 409.301971) rotate(-30) scale(0.1 -0.1)">
       <use xlink:href="#DejaVuSans-32"/>
       <use xlink:href="#DejaVuSans-30" x="63.623047"/>
       <use xlink:href="#DejaVuSans-32" x="127.246094"/>
       <use xlink:href="#DejaVuSans-35" x="190.869141"/>
       <use xlink:href="#DejaVuSans-2d" x="254.492188"/>
       <use xlink:href="#DejaVuSans-30" x="290.576172"/>
       <use xlink:href="#DejaVuSans-37" x="354.199219"/>
      </g>
     </g>
    </g>
   </g>
   <g id="matplotlib.axis_2">
    <g id="ytick_1">
     <g id="line2d_10">
      <defs>
       <path id="mf3fe0571fb" d="M 0 0 
L -3.5 0 
" style="stroke: #000000; stroke-width: 0.8"/>
      </defs>
      <g>
       <use xlink:href="#mf3fe0571fb" x="33.2875" y="374.830125" style="stroke: #000000; stroke-width: 0.8"/>
      </g>
     </g>
     <g id="text_10">
      <!-- 0 -->
      <g transform="translate(19.925 378.629344) scale(0.1 -0.1)">
       <use xlink:href="#DejaVuSans-30"/>
      </g>
     </g>
    </g>
    <g id="ytick_2">
     <g id="line2d_11">
      <g>
       <use xlink:href="#mf3fe0571fb" x="33.2875" y="320.718221" style="stroke: #000000; stroke-width: 0.8"/>
      </g>
     </g>
     <g id="text_11">
      <!-- 100 -->
      <g transform="translate(7.2 324.51744) scale(0.1 -0.1)">
       <use xlink:href="#DejaVuSans-31"/>
       <use xlink:href="#DejaVuSans-30" x="63.623047"/>
       <use xlink:href="#DejaVuSans-30" x="127.246094"/>
      </g>
     </g>
    </g>
    <g id="ytick_3">
     <g id="line2d_12">
      <g>
       <use xlink:href="#mf3fe0571fb" x="33.2875" y="266.606317" style="stroke: #000000; stroke-width: 0.8"/>
      </g>
     </g>
     <g id="text_12">
      <!-- 200 -->
      <g transform="translate(7.2 270.405535) scale(0.1 -0.1)">
       <use xlink:href="#DejaVuSans-32"/>
       <use xlink:href="#DejaVuSans-30" x="63.623047"/>
       <use xlink:href="#DejaVuSans-30" x="127.246094"/>
      </g>
     </g>
    </g>
    <g id="ytick_4">
     <g id="line2d_13">
      <g>
       <use xlink:href="#mf3fe0571fb" x="33.2875" y="212.494412" style="stroke: #000000; stroke-width: 0.8"/>
      </g>
     </g>
     <g id="text_13">
      <!-- 300 -->
      <g transform="translate(7.2 216.293631) scale(0.1 -0.1)">
       <use xlink:href="#DejaVuSans-33"/>
       <use xlink:href="#DejaVuSans-30" x="63.623047"/>
       <use xlink:href="#DejaVuSans-30" x="127.246094"/>
      </g>
     </g>
    </g>
    <g id="ytick_5">
     <g id="line2d_14">
      <g>
       <use xlink:href="#mf3fe0571fb" x="33.2875" y="158.382508" style="stroke: #000000; stroke-width: 0.8"/>
      </g>
     </g>
     <g id="text_14">
      <!-- 400 -->
      <g transform="translate(7.2 162.181727) scale(0.1 -0.1)">
       <use xlink:href="#DejaVuSans-34"/>
       <use xlink:href="#DejaVuSans-30" x="63.623047"/>
       <use xlink:href="#DejaVuSans-30" x="127.246094"/>
      </g>
     </g>
    </g>
    <g id="ytick_6">
     <g id="line2d_15">
      <g>
       <use xlink:href="#mf3fe0571fb" x="33.2875" y="104.270604" style="stroke: #000000; stroke-width: 0.8"/>
      </g>
     </g>
     <g id="text_15">
      <!-- 500 -->
      <g transform="translate(7.2 108.069823) scale(0.1 -0.1)">
       <use xlink:href="#DejaVuSans-35"/>
       <use xlink:href="#DejaVuSans-30" x="63.623047"/>
       <use xlink:href="#DejaVuSans-30" x="127.246094"/>
      </g>
     </g>
    </g>
    <g id="ytick_7">
     <g id="line2d_16">
      <g>
       <use xlink:href="#mf3fe0571fb" x="33.2875" y="50.1587" style="stroke: #000000; stroke-width: 0.8"/>
      </g>
     </g>
     <g id="text_16">
      <!-- 600 -->
      <g transform="translate(7.2 53.957918) scale(0.1 -0.1)">
       <defs>
        <path id="DejaVuSans-36" d="M 2113 2584 
Q 1688 2584 1439 2293 
Q 1191 2003 1191 1497 
Q 1191 994 1439 701 
Q 1688 409 2113 409 
Q 2538 409 2786 701 
Q 3034 994 3034 1497 
Q 3034 2003 2786 2293 
Q 2538 2584 2113 2584 
z
M 3366 4563 
L 3366 3988 
Q 3128 4100 2886 4159 
Q 2644 4219 2406 4219 
Q 1781 4219 1451 3797 
Q 1122 3375 1075 2522 
Q 1259 2794 1537 2939 
Q 1816 3084 2150 3084 
Q 2853 3084 3261 2657 
Q 3669 2231 3669 1497 
Q 3669 778 3244 343 
Q 2819 -91 2113 -91 
Q 1303 -91 875 529 
Q 447 1150 447 2328 
Q 447 3434 972 4092 
Q 1497 4750 2381 4750 
Q 2619 4750 2861 4703 
Q 3103 4656 3366 4563 
z
" transform="scale(0.015625)"/>
       </defs>
       <use xlink:href="#DejaVuSans-36"/>
       <use xlink:href="#DejaVuSans-30" x="63.623047"/>
       <use xlink:href="#DejaVuSans-30" x="127.246094"/>
      </g>
     </g>
    </g>
   </g>
   <g id="line2d_17">
    <path d="M 38.539265 37.171843 
L 47.794073 37.171843 
L 47.89884 40.418557 
L 49.194571 40.418557 
L 49.668883 49.617581 
L 126.127037 49.617581 
L 126.507706 44.20639 
L 139.23081 44.20639 
L 139.978201 44.747509 
L 145.945011 44.747509 
L 146.153676 55.56989 
L 152.204702 55.56989 
L 153.458714 53.946533 
L 257.124358 53.946533 
L 257.419609 50.1587 
L 265.544462 50.1587 
L 265.83445 49.076462 
L 306.614882 49.076462 
L 306.817968 47.994224 
L 372.717667 47.994224 
L 372.906455 43.665271 
L 422.866684 43.665271 
L 422.952611 43.124152 
L 461.113367 43.124152 
L 461.464062 42.583033 
L 464.935286 42.583033 
L 465.050463 40.418557 
L 466.443515 40.418557 
L 466.80547 40.959676 
L 490.885302 40.959676 
L 491.182578 40.418557 
L 541.884117 40.418557 
L 542.057198 31.760652 
L 556.559705 31.760652 
L 556.836349 25.808343 
L 563.715735 25.808343 
L 563.715735 25.808343 
" clip-path="url(#p6b00f5266d)" style="fill: none; stroke: #0000ff; stroke-width: 1.5; stroke-linecap: square"/>
   </g>
   <g id="line2d_18">
    <path d="M 38.539265 175.698317 
L 39.811681 174.616079 
L 41.079991 175.698317 
L 44.083474 175.698317 
L 47.395172 176.780556 
L 47.640852 176.239437 
L 47.794073 176.239437 
L 47.89884 179.486151 
L 48.14064 178.945032 
L 48.498269 179.486151 
L 49.194571 179.486151 
L 49.582377 191.39077 
L 49.668883 188.685175 
L 49.870174 191.931889 
L 49.934188 191.39077 
L 50.159752 191.39077 
L 50.520569 191.931889 
L 51.388969 191.931889 
L 51.414892 192.473008 
L 51.88562 192.473008 
L 52.084872 191.931889 
L 52.66742 195.719722 
L 52.734708 195.178603 
L 53.020758 195.719722 
L 53.574091 197.343079 
L 53.949404 196.260841 
L 54.542633 196.260841 
L 54.87416 197.343079 
L 55.098275 197.343079 
L 55.773468 197.884198 
L 56.076446 197.884198 
L 56.405905 198.966436 
L 56.700507 198.425317 
L 57.02765 199.507555 
L 57.367566 201.672032 
L 58.681907 202.75427 
L 59.240024 202.75427 
L 59.479096 203.295389 
L 59.860011 203.295389 
L 60.140442 203.836508 
L 60.4261 203.295389 
L 60.744593 203.295389 
L 60.931104 203.836508 
L 64.157715 203.836508 
L 64.483366 204.377627 
L 64.795425 204.377627 
L 64.916594 203.836508 
L 65.687302 204.377627 
L 66.01032 203.836508 
L 66.900911 203.836508 
L 67.186843 204.377627 
L 67.53838 203.836508 
L 69.159348 203.836508 
L 69.491461 204.377627 
L 69.673758 206.000984 
L 70.117446 204.918746 
L 71.149144 204.918746 
L 71.661014 205.459865 
L 71.970516 205.459865 
L 72.271109 206.000984 
L 72.60662 206.000984 
L 72.914674 205.459865 
L 73.209035 207.083222 
L 73.47037 207.083222 
L 74.18088 208.16546 
L 77.91127 208.16546 
L 78.207811 209.247698 
L 78.839815 209.247698 
L 79.120329 209.788817 
L 80.061165 209.788817 
L 80.961756 211.953293 
L 81.918994 211.953293 
L 82.261846 212.494412 
L 88.045178 212.494412 
L 88.739496 213.57665 
L 88.896781 212.494412 
L 90.010486 212.494412 
L 90.312917 213.035531 
L 90.646586 212.494412 
L 91.440473 212.494412 
L 91.878978 213.035531 
L 92.20451 212.494412 
L 97.120846 212.494412 
L 97.389512 217.364484 
L 97.575782 212.494412 
L 99.357468 212.494412 
L 99.680903 213.035531 
L 99.865516 217.905603 
L 100.301611 213.035531 
L 100.609614 213.035531 
L 100.814072 212.494412 
L 104.039962 212.494412 
L 104.203325 213.035531 
L 104.49649 213.035531 
L 104.9793 214.658889 
L 109.845528 214.658889 
L 110.907565 215.200008 
L 117.44345 215.200008 
L 117.71561 217.364484 
L 118.06338 217.364484 
L 118.371765 215.200008 
L 118.689044 215.200008 
L 118.907666 217.364484 
L 119.14461 215.200008 
L 119.538374 217.364484 
L 119.88717 218.446722 
L 123.931597 218.446722 
L 124.280682 218.987841 
L 126.127037 218.987841 
L 126.507706 213.035531 
L 126.779632 213.57665 
L 127.086994 215.200008 
L 127.466453 215.200008 
L 127.975243 216.282246 
L 128.326377 216.282246 
L 128.585201 216.823365 
L 128.932863 214.658889 
L 131.478381 220.070079 
L 131.738296 218.446722 
L 132.174107 217.905603 
L 133.558286 217.905603 
L 133.913354 217.364484 
L 134.226461 216.282246 
L 135.479937 216.282246 
L 135.709117 215.200008 
L 136.112226 216.282246 
L 137.022579 216.282246 
L 137.332398 217.364484 
L 137.631244 217.364484 
L 137.985177 217.905603 
L 138.127999 217.905603 
L 138.287618 219.52896 
L 138.503996 219.52896 
L 139.23081 220.070079 
L 139.831352 218.987841 
L 139.978201 218.987841 
L 140.448976 219.52896 
L 140.751028 220.611198 
L 142.311981 220.611198 
L 142.613363 221.152317 
L 142.937004 221.152317 
L 143.236639 221.693436 
L 143.517329 221.693436 
L 144.169557 222.234555 
L 144.506404 222.234555 
L 144.842308 223.857912 
L 145.040912 223.857912 
L 145.390025 223.316793 
L 145.945011 223.316793 
L 146.153676 224.94015 
L 146.668414 224.94015 
L 146.97338 226.022388 
L 147.380668 226.022388 
L 147.59046 226.563507 
L 148.051808 226.563507 
L 148.097716 227.104626 
L 148.331392 227.104626 
L 148.824483 227.645746 
L 149.945858 230.89246 
L 151.34361 230.89246 
L 151.628569 231.974698 
L 151.735869 231.433579 
L 151.860124 231.433579 
L 152.204702 230.89246 
L 153.458714 229.269103 
L 156.596099 229.269103 
L 156.959643 228.727984 
L 158.478124 228.727984 
L 158.694239 228.186865 
L 161.537872 228.186865 
L 162.033831 228.727984 
L 162.415793 228.727984 
L 162.830472 229.269103 
L 163.039127 228.727984 
L 165.038098 228.727984 
L 165.668961 229.810222 
L 167.011576 229.810222 
L 167.237623 237.385888 
L 167.492448 237.385888 
L 169.664098 239.009245 
L 169.797546 238.468126 
L 169.936766 239.009245 
L 170.29813 238.468126 
L 170.601249 238.468126 
L 170.920282 239.009245 
L 171.159859 239.009245 
L 171.544491 240.091484 
L 171.702677 240.091484 
L 171.849072 239.550364 
L 172.177198 240.632603 
L 174.358718 240.632603 
L 174.570946 241.173722 
L 175.744486 241.173722 
L 176.211734 240.632603 
L 176.561805 243.338198 
L 176.811025 241.714841 
L 177.136064 241.714841 
L 177.396596 244.961555 
L 177.578885 244.420436 
L 177.772939 244.961555 
L 177.870677 244.420436 
L 177.990304 246.043793 
L 178.30044 246.043793 
L 178.693389 246.584912 
L 179.463007 246.043793 
L 179.638249 247.126031 
L 179.924646 247.126031 
L 180.127461 245.502674 
L 180.815914 247.126031 
L 181.500473 247.66715 
L 182.101674 247.66715 
L 182.417058 249.290507 
L 182.706952 249.290507 
L 182.878668 248.749388 
L 183.180054 248.749388 
L 184.345712 250.913864 
L 184.540116 249.831626 
L 184.914323 249.290507 
L 185.353224 250.913864 
L 186.532967 250.913864 
L 186.633962 251.454983 
L 187.104041 251.996102 
L 188.35716 251.996102 
L 188.930753 254.701698 
L 192.154061 254.701698 
L 192.408587 255.242817 
L 192.743345 254.160579 
L 192.938235 255.242817 
L 196.452291 255.242817 
L 196.745896 255.783936 
L 197.453931 259.03065 
L 197.719563 257.407293 
L 198.036126 257.948412 
L 198.386651 257.407293 
L 198.633317 257.407293 
L 199.007074 255.783936 
L 199.207486 255.783936 
L 199.246384 256.325055 
L 199.877041 256.325055 
L 200.232008 253.078341 
L 200.544961 253.078341 
L 201.486384 253.61946 
L 201.545953 253.078341 
L 202.057102 252.537221 
L 202.133022 253.078341 
L 204.595977 253.078341 
L 204.767355 253.61946 
L 205.226995 254.160579 
L 205.840771 255.242817 
L 206.000412 256.325055 
L 206.216138 256.325055 
L 206.457804 257.407293 
L 206.748772 256.866174 
L 207.074575 256.866174 
L 207.320067 256.325055 
L 207.66615 256.866174 
L 207.974971 256.866174 
L 208.270957 257.407293 
L 208.510559 257.407293 
L 208.961578 256.866174 
L 209.196051 257.407293 
L 209.438729 256.866174 
L 210.143454 252.537221 
L 210.821349 253.61946 
L 210.92046 257.407293 
L 211.071567 257.407293 
L 211.348057 257.948412 
L 211.669273 257.407293 
L 211.962543 257.407293 
L 212.32381 256.866174 
L 212.636724 257.948412 
L 213.766063 257.948412 
L 214.214881 258.489531 
L 214.471375 258.489531 
L 214.491278 259.03065 
L 215.770967 259.03065 
L 216.135289 260.112888 
L 217.925812 260.112888 
L 218.282746 261.195126 
L 219.498202 261.195126 
L 221.712431 260.654007 
L 221.91784 261.195126 
L 222.471832 261.195126 
L 222.937985 261.736245 
L 223.250246 262.818483 
L 223.343619 262.277364 
L 223.683024 263.359602 
L 224.438059 263.359602 
L 227.496077 264.44184 
L 235.054978 264.44184 
L 235.362877 263.900721 
L 236.840721 263.900721 
L 237.147049 264.44184 
L 238.162172 264.44184 
L 238.512532 264.982959 
L 238.764461 264.44184 
L 239.056841 264.982959 
L 239.380352 264.44184 
L 239.645873 265.524078 
L 240.052537 264.982959 
L 240.349261 265.524078 
L 246.79917 265.524078 
L 247.132346 264.44184 
L 247.48531 264.982959 
L 247.804531 264.44184 
L 248.162091 264.44184 
L 248.448844 263.900721 
L 249.645601 263.900721 
L 249.94948 264.44184 
L 250.292725 263.900721 
L 250.719709 262.818483 
L 251.225513 262.818483 
L 251.575358 262.277364 
L 251.83715 263.359602 
L 252.173918 263.359602 
L 252.4341 262.818483 
L 253.255288 263.900721 
L 253.735689 263.359602 
L 254.021105 263.900721 
L 254.628329 263.900721 
L 254.971044 263.359602 
L 255.307571 264.982959 
L 255.631475 264.44184 
L 256.253317 264.44184 
L 256.490358 263.900721 
L 256.793516 264.44184 
L 257.124358 264.44184 
L 257.419609 259.571769 
L 257.536908 260.112888 
L 257.768927 260.112888 
L 257.930557 260.654007 
L 258.071423 260.654007 
L 258.256885 261.195126 
L 258.382571 260.112888 
L 259.003069 261.195126 
L 259.536186 261.195126 
L 259.795446 262.277364 
L 260.05239 261.195126 
L 260.219675 261.736245 
L 261.162838 261.736245 
L 261.443615 261.195126 
L 261.709896 261.195126 
L 262.044506 261.736245 
L 262.353918 261.736245 
L 262.7207 261.195126 
L 263.074651 261.736245 
L 263.349282 261.736245 
L 263.781465 262.818483 
L 265.544462 262.818483 
L 265.83445 261.195126 
L 267.200823 261.195126 
L 267.51463 261.736245 
L 267.761476 262.277364 
L 268.24478 262.277364 
L 268.395563 263.359602 
L 268.464731 262.818483 
L 268.628266 263.359602 
L 269.088256 263.359602 
L 269.313751 264.44184 
L 269.927726 264.44184 
L 270.21432 265.524078 
L 271.162127 265.524078 
L 271.389427 267.147436 
L 271.599169 267.688555 
L 271.720211 267.688555 
L 272.128518 268.229674 
L 272.272226 267.688555 
L 272.34187 268.229674 
L 272.790807 268.229674 
L 273.318045 268.770793 
L 274.500893 268.770793 
L 274.805957 268.229674 
L 275.098261 268.770793 
L 275.427763 268.770793 
L 275.585679 269.311912 
L 275.623662 268.770793 
L 275.811091 269.311912 
L 275.957685 269.311912 
L 276.102452 270.39415 
L 276.659895 271.476388 
L 277.065813 270.935269 
L 277.374429 271.476388 
L 277.981138 271.476388 
L 278.310427 272.558626 
L 278.430976 272.017507 
L 278.626813 273.640864 
L 278.904319 273.099745 
L 279.084295 273.640864 
L 279.226602 273.099745 
L 279.383858 274.181983 
L 279.704383 274.181983 
L 279.799315 274.723102 
L 280.175363 274.181983 
L 280.466205 275.264221 
L 281.122384 275.264221 
L 281.358597 276.346459 
L 281.693643 275.264221 
L 281.921263 275.264221 
L 282.004715 275.80534 
L 282.617112 275.80534 
L 282.90357 277.969816 
L 283.31554 275.80534 
L 283.379413 276.346459 
L 283.921856 275.80534 
L 283.973222 276.887578 
L 284.15979 276.887578 
L 284.535737 277.428697 
L 284.840837 276.887578 
L 285.071332 276.887578 
L 285.412419 277.969816 
L 285.783496 277.969816 
L 286.143347 277.428697 
L 286.41229 277.969816 
L 286.575703 277.428697 
L 286.738233 278.510935 
L 288.1784 278.510935 
L 288.621033 279.052055 
L 289.524783 279.052055 
L 289.845449 277.969816 
L 290.449812 277.969816 
L 290.752293 278.510935 
L 293.50403 278.510935 
L 293.875395 277.969816 
L 294.223503 279.052055 
L 298.446524 279.052055 
L 299.37294 279.593174 
L 299.923178 279.593174 
L 300.370048 280.134293 
L 300.723196 280.134293 
L 300.930715 280.675412 
L 305.631359 280.675412 
L 306.013152 280.134293 
L 306.315845 280.675412 
L 306.614882 280.134293 
L 306.817968 276.887578 
L 308.674993 276.887578 
L 308.840682 277.428697 
L 309.161856 277.428697 
L 309.268067 276.887578 
L 311.190348 276.887578 
L 311.457022 277.428697 
L 311.557804 276.887578 
L 312.014584 276.887578 
L 312.225728 277.969816 
L 312.491883 276.887578 
L 312.690595 277.969816 
L 312.831633 277.969816 
L 313.01354 276.887578 
L 313.172634 277.969816 
L 313.274587 276.887578 
L 313.31565 277.969816 
L 314.409827 277.969816 
L 314.583513 278.510935 
L 314.608986 279.052055 
L 315.166166 279.052055 
L 315.199005 279.593174 
L 315.520041 279.593174 
L 315.686275 280.134293 
L 315.828005 279.593174 
L 316.002124 280.134293 
L 316.119873 279.593174 
L 316.396039 280.134293 
L 316.512834 279.593174 
L 316.52885 280.134293 
L 316.87891 280.134293 
L 317.098246 280.675412 
L 317.236583 280.675412 
L 317.443746 281.75765 
L 317.673611 282.298769 
L 317.832366 281.75765 
L 319.600604 281.75765 
L 319.85343 282.298769 
L 321.208589 282.298769 
L 321.424761 282.839888 
L 321.710502 282.839888 
L 321.922536 283.381007 
L 322.152051 282.839888 
L 322.600084 282.839888 
L 322.789297 283.922126 
L 323.304305 283.922126 
L 323.353761 284.463245 
L 323.536799 283.922126 
L 323.736257 285.004364 
L 323.943975 285.545483 
L 324.00203 285.004364 
L 324.23749 287.16884 
L 325.1911 287.16884 
L 325.286969 287.709959 
L 325.495879 287.709959 
L 325.618257 288.792197 
L 325.761882 287.709959 
L 327.027836 287.709959 
L 327.10109 288.251078 
L 327.343913 287.709959 
L 327.460174 288.251078 
L 327.675129 287.709959 
L 327.954346 287.709959 
L 328.125572 288.792197 
L 328.437697 288.792197 
L 328.565727 288.251078 
L 328.675422 289.333316 
L 328.999383 287.709959 
L 329.338871 288.792197 
L 329.584799 287.709959 
L 330.160495 287.709959 
L 330.608532 289.333316 
L 330.747946 288.792197 
L 330.902338 289.333316 
L 331.318938 288.251078 
L 331.452336 289.333316 
L 332.441014 289.333316 
L 332.600378 289.874435 
L 332.878093 289.874435 
L 333.026138 289.333316 
L 333.212984 289.874435 
L 333.33113 289.333316 
L 333.807949 290.415554 
L 334.182408 290.415554 
L 334.528956 291.497793 
L 336.02993 291.497793 
L 336.194038 292.038912 
L 336.394775 291.497793 
L 336.494095 292.038912 
L 336.698754 291.497793 
L 336.970565 291.497793 
L 337.145883 292.038912 
L 337.374761 291.497793 
L 337.628153 291.497793 
L 337.741666 292.038912 
L 338.256202 292.038912 
L 338.290885 293.12115 
L 340.491527 293.12115 
L 340.708625 293.662269 
L 340.851122 293.12115 
L 340.971847 293.662269 
L 341.063548 293.12115 
L 341.08406 293.662269 
L 341.173546 294.203388 
L 341.680351 294.203388 
L 341.91942 294.744507 
L 341.967871 294.203388 
L 342.017512 294.744507 
L 342.290511 294.203388 
L 342.361066 294.744507 
L 342.628042 295.285626 
L 342.732611 295.826745 
L 342.932238 295.826745 
L 342.978139 296.367864 
L 343.256084 297.991221 
L 343.381186 297.450102 
L 343.550031 297.450102 
L 343.580449 298.53234 
L 344.766734 298.53234 
L 344.914077 299.073459 
L 345.146478 298.53234 
L 345.549039 299.073459 
L 345.65663 298.53234 
L 345.832762 299.073459 
L 346.049227 299.073459 
L 346.178042 299.614578 
L 346.478081 299.614578 
L 346.485437 300.155697 
L 346.577927 299.614578 
L 346.666587 300.696816 
L 346.79763 300.696816 
L 346.979025 301.237935 
L 348.223372 301.237935 
L 348.256211 300.696816 
L 348.334548 301.779054 
L 348.662706 301.779054 
L 348.830297 301.237935 
L 348.959304 301.779054 
L 349.153531 301.237935 
L 349.299055 301.779054 
L 349.462554 301.779054 
L 349.603045 301.237935 
L 349.742347 302.861292 
L 351.409944 302.861292 
L 351.911425 303.94353 
L 352.175397 303.402411 
L 358.474839 303.402411 
L 358.581792 303.94353 
L 358.773087 303.402411 
L 358.828221 303.94353 
L 359.399825 303.94353 
L 359.558104 304.48465 
L 360.360351 304.48465 
L 360.467543 305.025769 
L 360.618635 304.48465 
L 361.847557 304.48465 
L 362.018016 305.025769 
L 362.351207 304.48465 
L 362.540095 305.566888 
L 362.644005 305.025769 
L 363.104567 305.025769 
L 363.305242 305.566888 
L 364.249828 305.566888 
L 364.403698 304.48465 
L 364.71548 305.566888 
L 366.39303 305.566888 
L 366.679614 306.108007 
L 366.718685 306.108007 
L 366.884169 306.649126 
L 367.007859 306.649126 
L 367.160969 307.190245 
L 367.519203 307.190245 
L 367.582665 307.731364 
L 367.881306 307.731364 
L 368.069946 306.649126 
L 368.217245 307.190245 
L 368.442719 307.190245 
L 368.534658 307.731364 
L 368.879596 307.731364 
L 369.18811 308.272483 
L 369.524529 309.89584 
L 369.634674 309.354721 
L 369.737232 309.89584 
L 369.972634 310.436959 
L 370.08426 309.89584 
L 370.383884 310.436959 
L 370.582041 309.89584 
L 370.74388 309.89584 
L 371.060939 311.519197 
L 371.366511 310.978078 
L 371.682969 312.060316 
L 371.745109 311.519197 
L 371.950788 312.060316 
L 372.09321 311.519197 
L 372.210624 312.060316 
L 372.717667 312.060316 
L 372.906455 304.48465 
L 373.410659 305.566888 
L 373.743569 305.566888 
L 373.860014 306.108007 
L 374.295566 305.025769 
L 374.45396 305.566888 
L 374.671534 305.566888 
L 374.778588 305.025769 
L 374.914602 305.566888 
L 375.100104 305.025769 
L 375.173015 305.566888 
L 375.558591 306.108007 
L 375.841922 305.025769 
L 376.098603 305.566888 
L 377.238965 305.566888 
L 377.509547 306.108007 
L 377.793649 305.566888 
L 378.304676 305.566888 
L 378.696455 306.649126 
L 378.830837 305.025769 
L 379.057016 305.566888 
L 379.345347 305.025769 
L 379.477243 306.649126 
L 379.636488 305.566888 
L 379.786986 305.566888 
L 379.887214 306.108007 
L 379.962013 308.272483 
L 379.975439 307.731364 
L 380.30725 308.272483 
L 381.126219 308.272483 
L 381.513625 309.354721 
L 381.673435 308.813602 
L 382.247157 308.813602 
L 382.403477 308.272483 
L 382.57055 308.813602 
L 382.753808 308.813602 
L 382.861467 308.272483 
L 383.188995 308.813602 
L 383.381407 308.813602 
L 383.50755 309.354721 
L 383.661827 308.813602 
L 383.82757 308.813602 
L 383.982896 308.272483 
L 384.07911 308.813602 
L 384.944341 308.813602 
L 385.160805 310.436959 
L 385.422522 309.89584 
L 385.638979 309.89584 
L 385.814218 309.354721 
L 385.893895 309.89584 
L 386.165338 309.354721 
L 386.266816 309.89584 
L 386.505946 309.89584 
L 386.599498 310.436959 
L 386.885272 309.89584 
L 387.474149 309.89584 
L 387.692472 310.436959 
L 388.05616 310.436959 
L 388.147861 310.978078 
L 388.302848 310.436959 
L 388.932846 312.060316 
L 389.080232 312.060316 
L 389.35755 312.601435 
L 391.613376 312.601435 
L 391.853698 313.142554 
L 392.079042 313.142554 
L 392.124921 312.060316 
L 392.181741 312.601435 
L 392.549388 312.601435 
L 392.633305 313.142554 
L 393.117055 313.142554 
L 393.348083 313.683673 
L 393.658374 313.683673 
L 393.668695 313.142554 
L 393.771844 313.683673 
L 393.866704 313.142554 
L 395.217843 313.142554 
L 395.471188 312.601435 
L 396.177905 313.142554 
L 397.643457 313.142554 
L 397.706872 313.683673 
L 399.244742 313.683673 
L 399.383269 314.224792 
L 400.805485 316.930387 
L 400.940278 316.930387 
L 401.080906 317.471507 
L 401.143532 316.930387 
L 401.446391 317.471507 
L 401.727766 318.012626 
L 402.064275 318.012626 
L 402.17728 318.553745 
L 402.602546 318.553745 
L 403.218495 318.012626 
L 403.249525 319.635983 
L 403.74525 319.635983 
L 403.898893 319.094864 
L 404.01049 319.635983 
L 405.149379 319.635983 
L 405.413761 319.094864 
L 406.635137 319.094864 
L 407.389314 319.635983 
L 408.912799 319.635983 
L 409.662989 320.177102 
L 409.763321 320.718221 
L 412.019496 320.718221 
L 412.231454 320.177102 
L 413.37682 320.177102 
L 414.213138 319.635983 
L 414.822573 319.635983 
L 415.125011 320.177102 
L 415.393518 321.25934 
L 415.553383 321.25934 
L 415.559622 320.718221 
L 417.352814 320.718221 
L 417.545268 321.25934 
L 422.075363 321.25934 
L 422.646556 321.800459 
L 422.866684 321.800459 
L 422.952611 322.341578 
L 423.232573 322.341578 
L 423.350146 321.800459 
L 423.532403 322.341578 
L 424.555722 322.341578 
L 425.011864 322.882697 
L 425.328718 323.964935 
L 428.103766 323.964935 
L 428.592199 323.423816 
L 428.733519 323.964935 
L 428.876477 323.423816 
L 429.037185 323.964935 
L 429.798289 323.964935 
L 430.149196 323.423816 
L 430.327263 323.964935 
L 430.818262 322.882697 
L 431.009625 323.964935 
L 432.197815 323.964935 
L 432.211872 324.506054 
L 434.094895 324.506054 
L 435.010443 325.047173 
L 435.285196 324.506054 
L 435.795672 324.506054 
L 435.91942 325.047173 
L 436.355594 323.423816 
L 436.643572 323.964935 
L 437.166278 323.423816 
L 437.317486 323.423816 
L 437.447721 323.964935 
L 438.238336 323.964935 
L 439.177721 323.423816 
L 439.319116 323.964935 
L 440.253853 323.964935 
L 440.557336 323.423816 
L 445.314831 323.964935 
L 445.671055 323.423816 
L 445.978918 323.964935 
L 446.254785 323.423816 
L 446.28565 323.964935 
L 446.525817 324.506054 
L 446.664907 324.506054 
L 446.792138 325.047173 
L 449.004061 325.047173 
L 449.051194 325.588292 
L 449.326139 325.588292 
L 450.06028 325.047173 
L 450.083634 325.588292 
L 450.365697 325.047173 
L 450.434253 326.129411 
L 450.615804 326.129411 
L 450.984128 326.67053 
L 451.60137 326.67053 
L 451.976164 326.129411 
L 452.397569 327.211649 
L 452.414853 327.752768 
L 452.824219 328.293887 
L 453.125302 327.752768 
L 453.548662 327.752768 
L 453.636671 328.293887 
L 454.600602 328.293887 
L 454.733395 327.752768 
L 454.895964 328.835006 
L 455.029957 328.835006 
L 455.284264 328.293887 
L 455.515544 328.835006 
L 456.031305 328.835006 
L 456.25845 329.917245 
L 457.878442 329.917245 
L 458.072118 330.458364 
L 458.19071 330.458364 
L 458.385852 329.917245 
L 458.436181 330.458364 
L 458.953094 330.458364 
L 459.057061 330.999483 
L 459.339437 330.999483 
L 459.42009 332.081721 
L 459.860655 332.081721 
L 460.026186 333.705078 
L 460.370854 333.705078 
L 460.572433 333.163959 
L 460.681336 333.705078 
L 460.827933 333.705078 
L 460.839129 335.328435 
L 461.113367 335.328435 
L 461.464062 334.787316 
L 461.623159 334.787316 
L 461.759068 335.328435 
L 462.097053 335.328435 
L 462.447287 334.787316 
L 462.48331 335.869554 
L 462.793413 335.869554 
L 462.850575 336.410673 
L 463.066647 336.951792 
L 463.63744 336.951792 
L 463.721335 338.03403 
L 463.96629 338.03403 
L 464.109901 338.575149 
L 464.247705 338.575149 
L 464.74188 339.116268 
L 464.935286 338.575149 
L 465.050463 330.999483 
L 465.175378 330.458364 
L 465.259979 332.62284 
L 465.869364 332.62284 
L 466.119834 332.081721 
L 466.302329 333.163959 
L 466.443515 333.163959 
L 466.80547 333.705078 
L 467.203575 333.705078 
L 467.385227 333.163959 
L 467.527454 333.705078 
L 468.487354 333.705078 
L 468.605546 334.246197 
L 469.043172 333.163959 
L 469.399029 333.705078 
L 469.60295 333.705078 
L 469.681272 334.246197 
L 469.861306 333.163959 
L 470.036311 334.246197 
L 470.762441 334.246197 
L 470.874988 333.705078 
L 471.133643 333.705078 
L 471.174332 334.246197 
L 471.467201 334.787316 
L 471.478632 334.246197 
L 472.029407 334.246197 
L 472.312889 334.787316 
L 473.78396 334.787316 
L 473.894264 335.328435 
L 474.185999 334.787316 
L 474.195739 335.328435 
L 474.614648 335.869554 
L 474.872042 335.869554 
L 475.16824 336.410673 
L 475.429208 336.951792 
L 475.785021 335.869554 
L 475.85531 336.951792 
L 476.094573 336.410673 
L 476.295962 336.951792 
L 477.194748 336.951792 
L 477.295451 337.492911 
L 477.42096 336.951792 
L 477.855895 337.492911 
L 478.06598 336.951792 
L 478.278892 337.492911 
L 478.406815 336.951792 
L 478.704735 338.03403 
L 478.910576 337.492911 
L 479.614627 337.492911 
L 479.894727 338.03403 
L 480.303714 338.03403 
L 480.629113 336.951792 
L 480.715843 337.492911 
L 481.063526 337.492911 
L 481.151761 338.575149 
L 481.590266 337.492911 
L 481.743402 338.03403 
L 482.096715 337.492911 
L 482.354617 337.492911 
L 482.486743 338.03403 
L 482.671122 338.03403 
L 482.80256 334.787316 
L 483.216151 335.328435 
L 483.269732 334.246197 
L 483.418228 335.328435 
L 483.554367 334.787316 
L 483.636079 335.328435 
L 483.960235 334.787316 
L 484.349176 335.328435 
L 484.545092 335.328435 
L 484.814028 334.787316 
L 485.196301 334.787316 
L 485.588245 335.869554 
L 485.793553 335.328435 
L 486.208708 335.328435 
L 486.402849 334.787316 
L 486.43143 334.246197 
L 486.673283 335.328435 
L 486.801544 334.787316 
L 486.95241 335.328435 
L 487.176583 334.787316 
L 487.430307 334.787316 
L 487.593301 334.246197 
L 487.902418 334.246197 
L 488.224247 335.328435 
L 488.442624 334.787316 
L 488.708563 335.869554 
L 488.847058 335.869554 
L 488.93399 335.328435 
L 489.20446 335.328435 
L 489.227162 335.869554 
L 490.123783 335.869554 
L 490.270672 336.410673 
L 490.396487 336.410673 
L 490.590437 336.951792 
L 490.757722 336.410673 
L 490.885302 336.951792 
L 491.075505 336.410673 
L 491.182578 336.951792 
L 491.320774 336.410673 
L 491.365299 336.951792 
L 491.518286 338.03403 
L 491.705197 337.492911 
L 491.76402 336.951792 
L 491.961139 337.492911 
L 492.122229 336.951792 
L 492.431219 337.492911 
L 492.634574 337.492911 
L 492.72317 338.03403 
L 492.942981 337.492911 
L 493.520262 339.116268 
L 493.675552 339.116268 
L 493.836176 338.03403 
L 493.912114 338.575149 
L 494.139208 338.575149 
L 494.24253 338.03403 
L 494.428224 338.03403 
L 494.597285 338.575149 
L 494.814628 338.575149 
L 495.179523 340.198506 
L 495.373656 339.657387 
L 497.925576 339.657387 
L 498.04433 340.198506 
L 498.194926 340.198506 
L 498.316033 339.657387 
L 498.559017 340.198506 
L 499.164382 338.03403 
L 499.265651 339.116268 
L 499.906193 338.03403 
L 500.354641 338.03403 
L 500.968277 339.116268 
L 502.053066 338.575149 
L 502.328554 339.116268 
L 502.632051 338.575149 
L 502.848807 339.657387 
L 502.935742 338.575149 
L 503.221476 339.657387 
L 503.532793 338.575149 
L 503.635849 339.657387 
L 503.835483 339.657387 
L 503.945225 339.116268 
L 504.144138 339.657387 
L 504.263512 339.657387 
L 504.374706 339.116268 
L 504.509808 340.739625 
L 504.864126 339.657387 
L 505.195523 339.657387 
L 505.398017 340.198506 
L 505.780171 340.198506 
L 506.090955 339.657387 
L 506.272643 339.657387 
L 506.409992 340.739625 
L 506.581319 340.198506 
L 506.676972 340.739625 
L 506.907932 341.280744 
L 507.049547 341.280744 
L 507.297139 340.198506 
L 507.533896 341.821863 
L 507.831474 341.821863 
L 507.85406 342.904102 
L 507.874842 342.362982 
L 508.030474 341.821863 
L 508.194074 342.904102 
L 508.262313 341.821863 
L 508.508929 341.821863 
L 508.542531 342.362982 
L 508.820383 342.904102 
L 508.986674 342.904102 
L 509.064618 341.821863 
L 509.437495 342.904102 
L 509.497881 341.821863 
L 509.700977 342.904102 
L 509.857211 341.280744 
L 510.332142 342.362982 
L 510.689923 340.739625 
L 510.717589 341.280744 
L 510.944212 340.739625 
L 511.087484 340.739625 
L 511.23622 341.821863 
L 511.413844 340.739625 
L 511.755338 341.821863 
L 511.8849 340.739625 
L 512.025182 341.280744 
L 512.311049 341.280744 
L 512.499833 340.739625 
L 512.861216 340.739625 
L 512.872246 341.280744 
L 513.441019 340.198506 
L 513.742667 341.821863 
L 513.902762 341.821863 
L 514.089352 341.280744 
L 514.142094 342.362982 
L 514.406977 341.280744 
L 514.57008 342.362982 
L 514.734505 341.280744 
L 514.802456 341.821863 
L 515.139674 341.821863 
L 515.341762 342.362982 
L 515.43419 343.445221 
L 515.622355 342.362982 
L 515.931929 342.904102 
L 516.068871 343.445221 
L 516.238077 342.904102 
L 516.382545 345.068578 
L 516.609308 345.068578 
L 516.909192 345.609697 
L 516.94537 344.527459 
L 517.240516 345.609697 
L 517.660642 344.527459 
L 517.774163 346.150816 
L 518.114821 346.691935 
L 518.485854 345.609697 
L 518.721015 345.068578 
L 519.374701 345.609697 
L 519.452998 346.150816 
L 519.697554 346.150816 
L 520.148375 346.691935 
L 520.371727 346.691935 
L 520.65004 347.233054 
L 520.931559 348.856411 
L 521.654335 348.315292 
L 521.887157 348.315292 
L 522.210002 346.691935 
L 522.516896 346.691935 
L 522.596003 346.150816 
L 522.829168 347.233054 
L 522.881113 346.150816 
L 523.136306 346.691935 
L 523.599228 346.691935 
L 523.836784 347.774173 
L 524.054826 346.691935 
L 524.352627 347.774173 
L 524.468727 347.233054 
L 524.627777 347.774173 
L 525.043029 346.691935 
L 525.283035 347.233054 
L 525.985036 347.233054 
L 526.152595 346.691935 
L 526.55918 347.774173 
L 526.724444 346.691935 
L 526.866992 346.691935 
L 526.922421 347.233054 
L 527.124509 347.233054 
L 527.342464 347.774173 
L 527.491605 346.691935 
L 527.723166 347.774173 
L 527.82486 346.691935 
L 528.108811 347.774173 
L 528.283412 347.774173 
L 528.396086 347.233054 
L 528.580727 347.233054 
L 528.632903 346.691935 
L 528.643617 347.233054 
L 528.958828 347.233054 
L 529.065479 346.691935 
L 529.354628 347.774173 
L 529.620898 346.691935 
L 530.07722 347.233054 
L 531.052376 347.233054 
L 531.286232 346.691935 
L 531.534854 347.233054 
L 531.694892 346.691935 
L 531.79375 347.233054 
L 532.486317 347.233054 
L 532.697764 346.691935 
L 533.183257 347.774173 
L 533.301302 347.233054 
L 533.68963 347.774173 
L 534.113737 347.233054 
L 534.338987 347.774173 
L 534.868934 346.691935 
L 535.007984 346.150816 
L 535.238368 346.150816 
L 535.682093 347.774173 
L 535.802789 347.774173 
L 535.956014 346.691935 
L 536.315895 346.691935 
L 536.517748 347.233054 
L 536.670822 347.233054 
L 536.82909 346.691935 
L 537.127915 346.691935 
L 537.535944 347.233054 
L 537.762445 347.233054 
L 537.855169 347.774173 
L 538.072868 346.691935 
L 538.187567 347.774173 
L 538.330169 347.233054 
L 538.420231 347.774173 
L 538.991997 347.774173 
L 539.012692 348.856411 
L 539.105024 348.315292 
L 539.277767 348.315292 
L 539.380992 347.774173 
L 539.54336 348.315292 
L 539.722388 347.774173 
L 540.17893 348.315292 
L 540.5667 348.315292 
L 540.713981 349.39753 
L 540.772065 348.856411 
L 540.945604 349.39753 
L 541.178337 348.856411 
L 541.287289 348.315292 
L 541.449697 348.856411 
L 541.609857 348.315292 
L 541.802499 349.39753 
L 541.884117 348.315292 
L 542.057198 334.787316 
L 542.529771 334.787316 
L 542.660024 334.246197 
L 542.783825 336.410673 
L 543.473633 335.869554 
L 543.986162 335.869554 
L 544.085835 336.410673 
L 544.214013 336.410673 
L 544.615717 335.328435 
L 544.919574 335.328435 
L 544.932528 335.869554 
L 545.312927 336.410673 
L 545.582342 335.869554 
L 545.852986 334.787316 
L 545.887583 335.869554 
L 546.094349 334.787316 
L 546.174771 335.328435 
L 546.79246 335.328435 
L 546.825843 335.869554 
L 547.078774 335.869554 
L 547.25107 335.328435 
L 547.417109 335.328435 
L 547.470203 334.787316 
L 547.827216 335.869554 
L 548.145047 334.787316 
L 548.310488 334.787316 
L 548.818907 335.328435 
L 548.917726 334.787316 
L 548.99907 335.869554 
L 549.328399 336.951792 
L 549.549954 335.869554 
L 549.878281 336.951792 
L 550.204113 335.869554 
L 550.322705 336.951792 
L 550.616212 335.869554 
L 550.738526 335.869554 
L 550.787748 336.951792 
L 550.933902 336.410673 
L 551.104386 336.951792 
L 551.380405 336.951792 
L 551.413697 338.03403 
L 551.62644 337.492911 
L 551.747872 337.492911 
L 551.836853 336.951792 
L 552.086938 337.492911 
L 552.346097 338.575149 
L 552.359573 340.198506 
L 552.508807 339.116268 
L 552.513281 340.739625 
L 552.69173 340.739625 
L 552.816299 341.280744 
L 553.059827 340.739625 
L 553.436383 341.280744 
L 553.641424 340.739625 
L 553.880083 340.739625 
L 553.979828 341.280744 
L 554.257841 341.821863 
L 554.408668 340.739625 
L 554.527725 340.739625 
L 554.822724 342.362982 
L 555.007091 342.904102 
L 555.584992 342.362982 
L 555.804752 342.362982 
L 555.946151 341.821863 
L 556.254828 344.527459 
L 556.417902 344.527459 
L 556.559705 345.068578 
L 556.836349 341.821863 
L 557.051701 341.280744 
L 557.316008 342.362982 
L 557.410702 341.280744 
L 557.656255 342.904102 
L 557.692008 343.445221 
L 557.946553 343.98634 
L 558.131713 343.445221 
L 558.313325 343.98634 
L 558.624224 342.904102 
L 558.655835 343.445221 
L 558.88651 343.445221 
L 558.999465 342.904102 
L 559.203973 342.904102 
L 560.167093 345.068578 
L 560.294605 344.527459 
L 560.574013 344.527459 
L 561.110257 342.904102 
L 561.368991 343.445221 
L 561.706234 343.445221 
L 561.850446 342.362982 
L 562.125982 342.362982 
L 562.448229 342.904102 
L 562.58886 342.362982 
L 562.762111 342.904102 
L 562.977372 342.904102 
L 563.33307 344.527459 
L 563.60255 344.527459 
L 563.715735 343.445221 
L 563.715735 343.445221 
" clip-path="url(#p6b00f5266d)" style="fill: none; stroke-dasharray: 3,1.5; stroke-dashoffset: 0; stroke: #808080; stroke-width: 1.5"/>
   </g>
   <g id="line2d_19">
    <path d="M 38.539265 299.614578 
L 39.811681 299.073459 
L 41.079991 297.991221 
L 44.083474 297.991221 
L 47.395172 297.450102 
L 47.640852 297.991221 
L 47.794073 297.991221 
L 47.89884 296.908983 
L 48.14064 297.450102 
L 48.498269 296.908983 
L 49.194571 296.908983 
L 49.582377 294.203388 
L 49.668883 296.908983 
L 49.870174 293.662269 
L 49.934188 294.203388 
L 50.159752 294.203388 
L 50.520569 293.662269 
L 51.112065 293.662269 
L 51.414892 291.497793 
L 51.88562 291.497793 
L 52.363448 292.580031 
L 52.66742 288.251078 
L 52.734708 288.792197 
L 53.020758 288.251078 
L 53.574091 286.627721 
L 53.949404 287.709959 
L 54.542633 287.709959 
L 54.87416 288.792197 
L 55.098275 288.251078 
L 55.773468 287.709959 
L 56.076446 287.709959 
L 56.405905 286.627721 
L 56.878643 286.627721 
L 57.367566 283.381007 
L 58.681907 281.75765 
L 58.860896 281.216531 
L 59.240024 281.216531 
L 59.479096 280.675412 
L 59.860011 280.675412 
L 60.140442 281.75765 
L 60.4261 282.298769 
L 60.744593 282.298769 
L 60.931104 281.75765 
L 63.205686 281.75765 
L 63.569255 281.216531 
L 64.157715 281.216531 
L 64.483366 280.675412 
L 64.795425 280.675412 
L 64.916594 281.216531 
L 65.687302 280.675412 
L 66.01032 281.216531 
L 66.900911 281.216531 
L 67.186843 280.675412 
L 67.53838 281.216531 
L 69.159348 281.216531 
L 69.491461 280.675412 
L 69.673758 279.052055 
L 70.117446 280.134293 
L 70.742311 280.134293 
L 71.034258 279.052055 
L 71.149144 280.134293 
L 71.661014 278.510935 
L 71.970516 278.510935 
L 72.271109 277.969816 
L 72.60662 277.969816 
L 72.914674 278.510935 
L 73.209035 277.428697 
L 73.47037 277.428697 
L 74.18088 276.346459 
L 77.91127 276.346459 
L 78.207811 275.264221 
L 78.839815 275.264221 
L 79.120329 272.558626 
L 80.061165 272.558626 
L 80.961756 270.39415 
L 81.918994 270.39415 
L 82.261846 269.853031 
L 88.045178 269.853031 
L 88.739496 268.229674 
L 88.896781 269.853031 
L 90.010486 269.853031 
L 90.312917 268.770793 
L 90.646586 269.853031 
L 91.440473 269.853031 
L 91.878978 268.770793 
L 92.20451 269.853031 
L 97.120846 269.853031 
L 97.389512 264.982959 
L 97.575782 269.853031 
L 99.357468 269.853031 
L 99.680903 269.311912 
L 99.865516 264.44184 
L 100.301611 269.311912 
L 100.609614 269.311912 
L 100.814072 269.853031 
L 104.039962 269.853031 
L 104.203325 269.311912 
L 104.49649 269.311912 
L 104.9793 267.688555 
L 109.845528 267.688555 
L 110.907565 267.147436 
L 117.44345 267.147436 
L 117.71561 264.44184 
L 118.06338 264.44184 
L 118.371765 267.147436 
L 118.689044 267.147436 
L 118.907666 264.44184 
L 119.14461 267.147436 
L 119.538374 264.44184 
L 119.88717 263.359602 
L 123.931597 263.359602 
L 124.280682 262.818483 
L 125.8122 262.818483 
L 126.127037 261.736245 
L 126.507706 259.571769 
L 126.779632 259.03065 
L 127.086994 255.783936 
L 127.466453 255.783936 
L 127.975243 254.701698 
L 128.326377 254.701698 
L 128.932863 253.61946 
L 131.478381 248.749388 
L 131.738296 249.831626 
L 133.558286 249.831626 
L 133.913354 247.66715 
L 134.226461 248.208269 
L 135.479937 248.208269 
L 135.709117 249.290507 
L 136.112226 248.208269 
L 137.022579 248.208269 
L 137.332398 247.126031 
L 137.631244 247.126031 
L 137.985177 246.584912 
L 138.127999 246.584912 
L 138.287618 244.961555 
L 138.503996 244.961555 
L 139.23081 244.420436 
L 139.831352 246.043793 
L 139.978201 246.043793 
L 140.448976 245.502674 
L 140.751028 244.420436 
L 142.311981 244.420436 
L 142.613363 243.879317 
L 142.937004 243.879317 
L 143.236639 243.338198 
L 143.517329 243.338198 
L 144.169557 242.797079 
L 144.506404 242.797079 
L 144.842308 241.173722 
L 145.390025 241.173722 
L 145.732318 240.632603 
L 145.945011 240.632603 
L 146.063755 250.372745 
L 146.153676 249.831626 
L 146.668414 249.831626 
L 146.97338 248.749388 
L 147.380668 248.749388 
L 147.59046 248.208269 
L 148.051808 248.208269 
L 148.097716 247.66715 
L 148.824483 247.66715 
L 149.214685 246.043793 
L 150.025581 244.420436 
L 151.34361 244.420436 
L 151.628569 243.338198 
L 151.735869 243.879317 
L 151.860124 243.879317 
L 152.204702 244.420436 
L 153.458714 243.879317 
L 156.596099 243.879317 
L 156.959643 244.420436 
L 158.478124 244.420436 
L 158.694239 244.961555 
L 159.090111 244.420436 
L 161.537872 244.420436 
L 162.033831 243.879317 
L 162.415793 243.879317 
L 162.830472 243.338198 
L 163.039127 243.879317 
L 165.038098 243.879317 
L 165.668961 242.797079 
L 167.011576 242.797079 
L 167.237623 235.221412 
L 167.492448 235.221412 
L 169.664098 233.598055 
L 169.797546 234.139174 
L 169.936766 233.598055 
L 170.29813 234.139174 
L 170.601249 234.139174 
L 170.920282 233.598055 
L 171.159859 233.598055 
L 171.544491 232.515817 
L 171.702677 232.515817 
L 171.849072 233.056936 
L 172.177198 231.974698 
L 174.358718 231.974698 
L 174.570946 231.433579 
L 174.924775 231.433579 
L 175.253149 230.89246 
L 175.59406 231.433579 
L 175.744486 231.433579 
L 176.211734 231.974698 
L 176.561805 229.269103 
L 176.811025 230.89246 
L 177.136064 230.89246 
L 177.396596 227.645746 
L 177.578885 228.186865 
L 177.772939 227.104626 
L 177.870677 227.645746 
L 177.990304 226.022388 
L 178.30044 226.022388 
L 178.693389 225.481269 
L 179.463007 226.022388 
L 179.638249 224.94015 
L 179.924646 224.94015 
L 180.127461 226.563507 
L 180.815914 224.94015 
L 181.500473 224.399031 
L 182.101674 224.399031 
L 182.417058 222.775674 
L 182.706952 222.775674 
L 182.878668 223.316793 
L 183.180054 223.316793 
L 184.345712 220.070079 
L 184.540116 222.234555 
L 184.914323 222.775674 
L 185.353224 220.070079 
L 186.532967 220.070079 
L 186.633962 219.52896 
L 187.104041 218.987841 
L 188.35716 218.987841 
L 188.930753 216.282246 
L 192.154061 216.282246 
L 192.408587 215.200008 
L 192.743345 217.364484 
L 192.938235 215.741127 
L 196.452291 215.741127 
L 196.745896 215.200008 
L 197.453931 211.953293 
L 197.719563 213.57665 
L 198.036126 213.035531 
L 198.386651 213.57665 
L 198.633317 213.57665 
L 199.007074 208.16546 
L 199.207486 208.16546 
L 199.246384 207.624341 
L 199.877041 207.624341 
L 200.232008 206.542103 
L 200.544961 204.918746 
L 201.486384 204.377627 
L 201.545953 204.918746 
L 202.057102 205.459865 
L 202.133022 204.918746 
L 204.595977 204.918746 
L 204.767355 204.377627 
L 205.226995 203.836508 
L 205.840771 202.75427 
L 206.000412 201.672032 
L 206.216138 201.672032 
L 206.457804 200.589793 
L 206.748772 201.130912 
L 207.074575 201.130912 
L 207.320067 201.672032 
L 207.66615 201.130912 
L 207.974971 201.130912 
L 208.270957 200.589793 
L 208.510559 200.589793 
L 208.961578 201.130912 
L 209.196051 200.589793 
L 209.438729 201.130912 
L 209.848113 203.836508 
L 210.143454 204.377627 
L 210.821349 203.295389 
L 210.92046 199.507555 
L 211.071567 199.507555 
L 211.348057 198.966436 
L 211.669273 199.507555 
L 211.962543 199.507555 
L 212.32381 200.048674 
L 212.636724 198.966436 
L 213.766063 198.966436 
L 214.214881 198.425317 
L 214.471375 198.425317 
L 214.491278 197.884198 
L 215.770967 197.884198 
L 216.135289 196.80196 
L 217.925812 196.80196 
L 218.282746 195.719722 
L 221.712431 195.719722 
L 221.91784 195.178603 
L 222.471832 195.178603 
L 222.937985 194.637484 
L 223.250246 193.555246 
L 223.343619 194.096365 
L 223.683024 193.014127 
L 224.438059 193.014127 
L 227.496077 191.931889 
L 235.054978 191.931889 
L 235.362877 192.473008 
L 236.840721 192.473008 
L 237.147049 191.931889 
L 238.162172 191.931889 
L 238.512532 191.39077 
L 238.764461 191.931889 
L 239.056841 191.39077 
L 239.380352 191.931889 
L 239.645873 190.849651 
L 240.052537 191.39077 
L 240.349261 190.849651 
L 246.79917 190.849651 
L 247.132346 191.931889 
L 247.48531 191.39077 
L 247.804531 191.931889 
L 248.162091 191.39077 
L 248.448844 191.931889 
L 249.645601 191.931889 
L 249.94948 191.39077 
L 250.292725 191.931889 
L 250.719709 190.849651 
L 251.225513 190.849651 
L 251.575358 191.39077 
L 251.83715 190.308532 
L 252.173918 190.308532 
L 252.4341 190.849651 
L 253.255288 189.767413 
L 253.735689 190.308532 
L 254.021105 189.767413 
L 254.628329 189.767413 
L 254.971044 190.308532 
L 255.307571 188.685175 
L 255.631475 189.226294 
L 256.253317 189.226294 
L 256.490358 189.767413 
L 256.793516 189.226294 
L 257.124358 189.226294 
L 257.419609 193.555246 
L 257.536908 193.014127 
L 257.768927 193.014127 
L 257.930557 192.473008 
L 258.071423 192.473008 
L 258.256885 191.931889 
L 258.382571 193.014127 
L 259.003069 191.931889 
L 259.536186 191.931889 
L 259.795446 190.849651 
L 260.05239 191.931889 
L 260.219675 191.39077 
L 261.162838 191.39077 
L 261.443615 191.931889 
L 261.709896 191.931889 
L 262.044506 191.39077 
L 262.353918 191.39077 
L 262.7207 191.931889 
L 263.074651 191.39077 
L 263.349282 191.39077 
L 263.781465 190.308532 
L 265.544462 190.308532 
L 265.83445 190.849651 
L 267.200823 190.849651 
L 267.51463 190.308532 
L 267.761476 189.767413 
L 268.24478 189.767413 
L 268.395563 188.685175 
L 268.464731 189.226294 
L 268.628266 188.685175 
L 269.088256 188.685175 
L 269.313751 187.602936 
L 269.927726 187.602936 
L 270.21432 186.520698 
L 271.162127 186.520698 
L 271.389427 184.897341 
L 271.599169 184.356222 
L 271.720211 184.356222 
L 272.128518 183.815103 
L 272.272226 184.356222 
L 272.34187 183.815103 
L 272.48922 183.815103 
L 272.661714 183.273984 
L 272.790807 183.273984 
L 273.318045 182.732865 
L 274.500893 182.732865 
L 274.805957 183.273984 
L 275.098261 182.732865 
L 275.427763 182.732865 
L 275.585679 182.191746 
L 275.623662 182.732865 
L 275.811091 182.191746 
L 275.957685 182.191746 
L 276.102452 181.109508 
L 276.659895 180.02727 
L 277.065813 180.568389 
L 277.374429 180.02727 
L 277.981138 180.02727 
L 278.310427 178.945032 
L 278.430976 179.486151 
L 278.626813 177.862794 
L 278.904319 178.403913 
L 279.084295 177.862794 
L 279.226602 178.403913 
L 279.383858 177.321675 
L 279.704383 177.321675 
L 279.799315 176.780556 
L 280.175363 177.321675 
L 280.466205 176.239437 
L 281.122384 176.239437 
L 281.358597 175.157198 
L 281.693643 176.239437 
L 281.921263 176.239437 
L 282.004715 175.698317 
L 282.617112 175.698317 
L 282.90357 173.533841 
L 283.31554 175.698317 
L 283.379413 175.157198 
L 283.921856 175.698317 
L 283.973222 174.616079 
L 284.15979 174.616079 
L 284.535737 174.07496 
L 284.840837 174.616079 
L 285.071332 174.616079 
L 285.412419 173.533841 
L 285.783496 173.533841 
L 286.143347 174.07496 
L 286.41229 173.533841 
L 286.575703 174.07496 
L 286.738233 172.992722 
L 288.1784 172.992722 
L 288.621033 172.451603 
L 289.524783 172.451603 
L 289.845449 173.533841 
L 290.449812 173.533841 
L 290.752293 172.992722 
L 293.50403 172.992722 
L 293.875395 173.533841 
L 294.223503 172.451603 
L 298.446524 172.451603 
L 299.37294 171.910484 
L 299.923178 171.910484 
L 300.370048 171.369365 
L 300.723196 171.369365 
L 300.930715 170.287127 
L 301.259724 170.828246 
L 305.631359 170.828246 
L 306.013152 171.369365 
L 306.315845 170.828246 
L 306.614882 171.369365 
L 306.817968 173.533841 
L 308.674993 173.533841 
L 308.981253 172.451603 
L 309.411098 173.533841 
L 311.190348 173.533841 
L 311.457022 172.451603 
L 311.557804 173.533841 
L 312.014584 173.533841 
L 312.225728 172.451603 
L 312.491883 173.533841 
L 312.690595 172.451603 
L 312.831633 172.451603 
L 313.01354 173.533841 
L 313.172634 172.451603 
L 313.274587 173.533841 
L 313.31565 172.451603 
L 314.409827 172.451603 
L 314.768014 170.828246 
L 315.166166 170.828246 
L 315.199005 170.287127 
L 315.520041 170.287127 
L 315.686275 169.746008 
L 315.828005 170.287127 
L 316.002124 169.746008 
L 316.119873 170.287127 
L 316.396039 169.746008 
L 316.512834 170.287127 
L 316.52885 169.746008 
L 316.87891 169.746008 
L 317.098246 169.204889 
L 317.236583 169.204889 
L 317.443746 168.122651 
L 317.673611 167.581532 
L 317.832366 168.122651 
L 319.600604 168.122651 
L 319.85343 167.581532 
L 321.208589 167.581532 
L 321.424761 167.040413 
L 321.710502 167.040413 
L 321.922536 166.499294 
L 322.152051 167.040413 
L 322.600084 167.040413 
L 322.789297 165.958175 
L 323.304305 165.958175 
L 323.353761 165.417056 
L 323.536799 165.958175 
L 323.711383 165.958175 
L 323.736257 165.417056 
L 323.943975 164.875937 
L 324.00203 165.417056 
L 324.23749 163.25258 
L 325.1911 163.25258 
L 325.286969 162.71146 
L 325.495879 162.71146 
L 325.618257 161.629222 
L 325.761882 162.71146 
L 327.027836 162.71146 
L 327.10109 162.170341 
L 327.343913 162.71146 
L 327.460174 162.170341 
L 327.675129 162.71146 
L 327.954346 162.71146 
L 328.125572 161.629222 
L 328.437697 161.629222 
L 328.565727 162.170341 
L 328.675422 161.088103 
L 328.999383 162.71146 
L 329.338871 161.629222 
L 329.584799 162.71146 
L 330.160495 162.71146 
L 330.608532 161.088103 
L 330.747946 161.629222 
L 330.902338 161.088103 
L 331.318938 162.170341 
L 331.452336 161.088103 
L 332.441014 161.088103 
L 332.600378 160.546984 
L 332.878093 160.546984 
L 333.026138 161.088103 
L 333.212984 160.546984 
L 333.33113 161.088103 
L 333.807949 160.005865 
L 334.182408 160.005865 
L 334.528956 158.923627 
L 335.130997 160.005865 
L 335.259658 159.464746 
L 335.417941 160.005865 
L 335.518316 159.464746 
L 335.719697 159.464746 
L 335.804097 160.005865 
L 336.194038 158.923627 
L 336.394775 159.464746 
L 336.494095 158.923627 
L 336.698754 159.464746 
L 336.970565 159.464746 
L 337.145883 158.923627 
L 337.374761 159.464746 
L 337.628153 160.005865 
L 337.741666 158.923627 
L 338.256202 158.923627 
L 338.290885 157.841389 
L 340.491527 157.841389 
L 340.708625 157.30027 
L 340.851122 157.841389 
L 340.971847 157.30027 
L 341.063548 157.841389 
L 341.08406 157.30027 
L 341.173546 156.759151 
L 341.680351 156.759151 
L 341.91942 156.218032 
L 341.967871 156.759151 
L 342.017512 156.218032 
L 342.290511 156.759151 
L 342.361066 156.218032 
L 342.628042 155.676913 
L 342.732611 155.135794 
L 342.932238 155.135794 
L 342.978139 154.594675 
L 343.256084 152.971318 
L 343.381186 153.512437 
L 343.550031 153.512437 
L 343.580449 152.430199 
L 344.766734 152.430199 
L 344.914077 151.88908 
L 345.146478 152.430199 
L 345.832762 150.806842 
L 346.049227 150.806842 
L 346.178042 150.265723 
L 346.478081 150.265723 
L 346.485437 149.724603 
L 346.577927 150.265723 
L 346.666587 149.183484 
L 346.79763 149.183484 
L 346.979025 148.642365 
L 348.223372 148.642365 
L 348.256211 149.183484 
L 348.334548 148.101246 
L 348.662706 148.101246 
L 348.830297 148.642365 
L 348.959304 148.101246 
L 349.153531 148.642365 
L 349.299055 148.101246 
L 349.462554 148.101246 
L 349.603045 148.642365 
L 349.742347 147.019008 
L 351.409944 147.019008 
L 351.911425 145.93677 
L 352.175397 146.477889 
L 358.474839 146.477889 
L 358.581792 145.93677 
L 358.773087 146.477889 
L 358.828221 145.93677 
L 359.399825 145.93677 
L 359.558104 145.395651 
L 360.360351 145.395651 
L 360.467543 144.854532 
L 360.618635 145.395651 
L 361.847557 145.395651 
L 362.018016 144.854532 
L 362.351207 145.395651 
L 362.540095 144.313413 
L 362.644005 144.854532 
L 363.104567 144.854532 
L 363.305242 144.313413 
L 364.249828 144.313413 
L 364.403698 145.395651 
L 364.71548 144.313413 
L 366.39303 144.313413 
L 366.679614 143.772294 
L 366.718685 143.772294 
L 366.884169 143.231175 
L 367.007859 143.231175 
L 367.160969 142.690056 
L 367.519203 142.690056 
L 367.582665 142.148937 
L 367.881306 142.148937 
L 368.069946 143.231175 
L 368.217245 142.690056 
L 368.442719 142.690056 
L 368.534658 142.148937 
L 368.879596 142.148937 
L 369.18811 141.607818 
L 369.524529 139.984461 
L 369.634674 140.52558 
L 369.737232 139.984461 
L 369.972634 139.443342 
L 370.08426 139.984461 
L 370.383884 139.443342 
L 370.582041 139.984461 
L 370.74388 139.984461 
L 371.060939 138.361104 
L 371.366511 138.902223 
L 371.682969 137.819985 
L 371.745109 138.361104 
L 371.950788 137.819985 
L 372.09321 138.361104 
L 372.210624 137.819985 
L 372.717667 137.819985 
L 372.906455 141.066699 
L 373.410659 139.984461 
L 373.743569 139.984461 
L 373.860014 139.443342 
L 374.295566 140.52558 
L 374.45396 139.984461 
L 374.671534 139.984461 
L 374.778588 140.52558 
L 374.914602 139.984461 
L 375.100104 140.52558 
L 375.173015 139.984461 
L 375.558591 139.443342 
L 375.706733 139.443342 
L 375.841922 139.984461 
L 376.098603 139.443342 
L 377.146659 139.443342 
L 377.238965 136.737746 
L 377.509547 138.902223 
L 377.793649 139.443342 
L 378.304676 139.443342 
L 378.696455 138.361104 
L 378.830837 139.984461 
L 379.057016 139.443342 
L 379.345347 139.984461 
L 379.477243 138.361104 
L 379.636488 139.443342 
L 379.786986 139.443342 
L 379.887214 138.902223 
L 379.975439 134.57327 
L 380.281832 136.737746 
L 380.30725 134.032151 
L 381.126219 134.032151 
L 381.513625 132.949913 
L 381.673435 133.491032 
L 382.247157 133.491032 
L 382.403477 134.032151 
L 382.57055 133.491032 
L 382.753808 133.491032 
L 382.861467 134.032151 
L 383.188995 133.491032 
L 383.381407 133.491032 
L 383.50755 132.949913 
L 383.661827 133.491032 
L 383.82757 133.491032 
L 383.982896 134.032151 
L 384.07911 133.491032 
L 384.944341 133.491032 
L 385.160805 131.867675 
L 385.422522 132.408794 
L 385.638979 132.408794 
L 385.814218 132.949913 
L 385.893895 132.408794 
L 386.165338 132.949913 
L 386.266816 132.408794 
L 386.505946 132.408794 
L 386.599498 131.867675 
L 386.885272 132.408794 
L 387.474149 132.408794 
L 387.692472 131.867675 
L 388.05616 131.867675 
L 388.147861 131.326556 
L 388.302848 131.867675 
L 388.932846 130.244318 
L 389.080232 130.244318 
L 389.35755 129.703199 
L 391.613376 129.703199 
L 391.853698 129.16208 
L 392.079042 129.16208 
L 392.124921 130.244318 
L 392.181741 129.703199 
L 392.549388 129.703199 
L 392.633305 129.16208 
L 393.117055 129.16208 
L 393.348083 128.620961 
L 393.658374 128.620961 
L 393.668695 129.16208 
L 393.771844 128.620961 
L 393.866704 129.16208 
L 395.217843 129.16208 
L 395.471188 129.703199 
L 396.177905 129.16208 
L 397.643457 129.16208 
L 397.706872 128.620961 
L 399.244742 128.620961 
L 399.383269 128.079842 
L 400.805485 125.374247 
L 400.940278 125.374247 
L 401.080906 124.833128 
L 401.143532 125.374247 
L 401.446391 124.833128 
L 401.727766 124.292008 
L 402.064275 124.292008 
L 402.17728 123.750889 
L 402.602546 123.750889 
L 403.218495 124.292008 
L 403.249525 122.668651 
L 403.74525 122.668651 
L 403.898893 123.20977 
L 404.01049 122.668651 
L 404.841624 122.668651 
L 405.149379 123.20977 
L 406.635137 123.20977 
L 407.389314 122.668651 
L 408.912799 122.668651 
L 409.662989 122.127532 
L 409.763321 121.586413 
L 412.019496 121.586413 
L 412.231454 122.127532 
L 413.37682 122.127532 
L 414.213138 122.668651 
L 414.822573 122.668651 
L 415.125011 122.127532 
L 415.393518 121.045294 
L 415.553383 121.045294 
L 415.559622 121.586413 
L 417.352814 121.586413 
L 417.545268 121.045294 
L 422.075363 121.045294 
L 422.646556 120.504175 
L 422.866684 120.504175 
L 422.952611 119.421937 
L 423.232573 119.421937 
L 423.350146 119.963056 
L 423.532403 119.421937 
L 424.555722 119.421937 
L 425.011864 118.880818 
L 425.328718 117.79858 
L 428.103766 117.79858 
L 428.592199 118.339699 
L 428.733519 117.79858 
L 428.876477 118.339699 
L 429.037185 117.79858 
L 429.798289 117.79858 
L 430.149196 118.339699 
L 430.327263 117.79858 
L 430.818262 118.880818 
L 431.009625 117.79858 
L 432.197815 117.79858 
L 432.211872 117.257461 
L 434.094895 117.257461 
L 435.010443 116.716342 
L 435.285196 117.257461 
L 435.485288 116.716342 
L 435.614781 117.257461 
L 435.795672 117.257461 
L 435.91942 116.716342 
L 436.355594 117.79858 
L 436.643572 117.257461 
L 437.166278 117.79858 
L 437.317486 117.79858 
L 437.447721 117.257461 
L 438.238336 117.257461 
L 439.177721 117.79858 
L 439.319116 117.257461 
L 440.253853 117.257461 
L 440.557336 117.79858 
L 445.314831 117.257461 
L 445.671055 117.79858 
L 445.978918 117.257461 
L 446.254785 117.79858 
L 446.28565 117.257461 
L 446.525817 116.716342 
L 446.664907 116.716342 
L 446.792138 116.175223 
L 449.004061 116.175223 
L 449.051194 115.634104 
L 449.326139 115.634104 
L 450.06028 116.175223 
L 450.083634 115.634104 
L 450.365697 116.175223 
L 450.434253 115.092985 
L 450.615804 115.092985 
L 450.984128 114.551866 
L 451.60137 114.551866 
L 451.976164 115.092985 
L 452.397569 114.010747 
L 452.414853 113.469628 
L 452.824219 112.928509 
L 453.125302 113.469628 
L 453.548662 113.469628 
L 453.636671 112.928509 
L 454.600602 112.928509 
L 454.733395 113.469628 
L 454.895964 112.38739 
L 455.029957 112.38739 
L 455.284264 112.928509 
L 455.515544 112.38739 
L 456.031305 112.38739 
L 456.25845 110.764032 
L 457.878442 110.764032 
L 458.072118 110.222913 
L 458.19071 110.222913 
L 458.385852 110.764032 
L 458.436181 110.222913 
L 458.953094 110.222913 
L 459.057061 109.681794 
L 459.339437 109.140675 
L 459.42009 108.058437 
L 459.860655 108.058437 
L 460.026186 106.43508 
L 460.370854 106.43508 
L 460.572433 106.976199 
L 460.681336 106.43508 
L 460.827933 106.43508 
L 460.839129 104.811723 
L 461.623159 104.811723 
L 461.759068 104.270604 
L 462.097053 104.270604 
L 462.447287 104.811723 
L 462.48331 103.729485 
L 462.793413 103.729485 
L 462.850575 103.188366 
L 463.066647 102.647247 
L 463.63744 102.647247 
L 463.721335 101.565009 
L 463.96629 101.565009 
L 464.109901 101.02389 
L 464.247705 101.02389 
L 464.74188 100.482771 
L 464.935286 101.02389 
L 465.050463 106.976199 
L 465.175378 107.517318 
L 465.259979 105.352842 
L 465.869364 105.352842 
L 466.119834 105.893961 
L 466.302329 104.811723 
L 467.203575 104.811723 
L 467.385227 105.352842 
L 467.527454 104.811723 
L 468.487354 104.811723 
L 468.605546 104.270604 
L 469.043172 105.352842 
L 469.399029 104.811723 
L 469.60295 104.811723 
L 469.681272 104.270604 
L 469.861306 105.352842 
L 470.036311 104.270604 
L 470.762441 104.270604 
L 470.874988 104.811723 
L 471.133643 104.811723 
L 471.174332 104.270604 
L 471.467201 103.729485 
L 471.478632 104.270604 
L 471.714595 103.729485 
L 472.029407 103.729485 
L 472.312889 103.188366 
L 473.78396 103.188366 
L 473.894264 102.647247 
L 474.185999 103.188366 
L 474.195739 102.647247 
L 474.614648 102.106128 
L 474.872042 102.106128 
L 475.16824 101.565009 
L 475.429208 101.02389 
L 475.785021 102.106128 
L 475.85531 101.02389 
L 476.094573 101.565009 
L 476.295962 101.02389 
L 477.194748 101.02389 
L 477.295451 100.482771 
L 477.42096 101.02389 
L 477.855895 100.482771 
L 478.06598 101.02389 
L 478.278892 100.482771 
L 478.406815 101.02389 
L 478.704735 99.941652 
L 478.910576 100.482771 
L 479.614627 100.482771 
L 479.894727 99.941652 
L 480.303714 99.941652 
L 480.629113 101.02389 
L 480.715843 100.482771 
L 481.063526 100.482771 
L 481.151761 99.400533 
L 481.590266 100.482771 
L 481.743402 99.941652 
L 482.096715 100.482771 
L 482.354617 100.482771 
L 482.486743 99.941652 
L 482.80256 99.941652 
L 483.216151 99.400533 
L 483.269732 100.482771 
L 483.418228 99.400533 
L 483.554367 99.941652 
L 483.636079 99.400533 
L 483.960235 99.941652 
L 484.349176 99.400533 
L 484.545092 99.400533 
L 484.814028 99.941652 
L 485.196301 99.941652 
L 485.588245 98.859414 
L 485.793553 99.400533 
L 486.208708 99.400533 
L 486.402849 99.941652 
L 486.43143 100.482771 
L 486.673283 99.400533 
L 486.801544 99.941652 
L 486.95241 99.400533 
L 487.176583 99.941652 
L 487.430307 99.941652 
L 487.593301 100.482771 
L 487.902418 100.482771 
L 488.224247 99.400533 
L 488.442624 99.941652 
L 488.708563 98.859414 
L 488.847058 98.859414 
L 488.93399 99.400533 
L 489.20446 99.400533 
L 489.227162 98.859414 
L 490.123783 98.859414 
L 490.270672 98.318294 
L 490.396487 98.318294 
L 490.590437 97.777175 
L 490.757722 98.318294 
L 490.885302 97.777175 
L 491.075505 97.777175 
L 491.182578 97.236056 
L 491.320774 97.777175 
L 491.365299 97.236056 
L 491.518286 96.153818 
L 491.705197 96.694937 
L 491.76402 97.236056 
L 491.961139 96.694937 
L 492.122229 97.236056 
L 492.431219 96.694937 
L 492.634574 96.694937 
L 492.72317 96.153818 
L 492.942981 96.694937 
L 493.520262 95.07158 
L 493.675552 95.07158 
L 493.836176 96.153818 
L 493.912114 95.612699 
L 494.139208 95.612699 
L 494.24253 96.153818 
L 494.428224 96.153818 
L 494.597285 95.612699 
L 494.814628 95.612699 
L 495.179523 93.989342 
L 495.373656 94.530461 
L 497.925576 94.530461 
L 498.04433 93.989342 
L 498.194926 93.989342 
L 498.316033 94.530461 
L 498.559017 93.989342 
L 499.164382 93.989342 
L 499.265651 92.907104 
L 499.906193 93.989342 
L 500.354641 93.989342 
L 500.968277 92.907104 
L 502.053066 93.448223 
L 502.328554 92.907104 
L 502.632051 93.448223 
L 502.848807 92.365985 
L 502.935742 93.448223 
L 503.221476 92.365985 
L 503.532793 93.448223 
L 503.635849 92.365985 
L 503.835483 92.365985 
L 503.945225 92.907104 
L 504.144138 92.365985 
L 504.263512 92.365985 
L 504.374706 92.907104 
L 504.509808 91.283747 
L 504.864126 92.365985 
L 505.195523 92.365985 
L 505.398017 91.824866 
L 505.780171 91.824866 
L 506.090955 92.365985 
L 506.272643 92.365985 
L 506.409992 91.283747 
L 506.581319 92.365985 
L 506.676972 91.824866 
L 506.907932 91.283747 
L 507.049547 91.283747 
L 507.297139 92.365985 
L 507.533896 90.742628 
L 507.831474 90.742628 
L 507.85406 89.66039 
L 507.874842 90.201509 
L 508.030474 90.742628 
L 508.194074 89.66039 
L 508.262313 90.742628 
L 508.508929 90.742628 
L 508.542531 90.201509 
L 508.820383 89.66039 
L 508.986674 89.66039 
L 509.064618 90.742628 
L 509.437495 89.66039 
L 509.497881 90.742628 
L 509.700977 89.66039 
L 509.857211 91.283747 
L 510.332142 90.201509 
L 510.689923 91.824866 
L 510.717589 91.283747 
L 510.944212 91.824866 
L 511.087484 91.824866 
L 511.23622 90.742628 
L 511.413844 91.824866 
L 511.755338 90.742628 
L 511.8849 91.824866 
L 512.025182 91.283747 
L 512.311049 91.283747 
L 512.499833 91.824866 
L 512.861216 91.824866 
L 512.872246 91.283747 
L 513.441019 92.365985 
L 513.742667 90.742628 
L 513.902762 90.742628 
L 514.089352 91.283747 
L 514.142094 90.201509 
L 514.406977 91.283747 
L 514.57008 90.201509 
L 514.734505 91.283747 
L 514.802456 90.742628 
L 515.139674 90.742628 
L 515.341762 90.201509 
L 515.43419 89.119271 
L 515.622355 90.201509 
L 515.931929 89.66039 
L 516.068871 89.119271 
L 516.238077 89.66039 
L 516.382545 87.495914 
L 516.609308 87.495914 
L 516.909192 86.954795 
L 516.94537 88.037033 
L 517.240516 86.954795 
L 517.660642 88.037033 
L 517.774163 86.413676 
L 518.114821 85.872556 
L 518.485854 86.954795 
L 518.721015 87.495914 
L 519.374701 86.954795 
L 519.452998 86.413676 
L 520.371727 86.413676 
L 520.65004 85.872556 
L 520.931559 84.249199 
L 521.654335 84.790318 
L 522.210002 84.790318 
L 522.516896 84.249199 
L 522.596003 84.790318 
L 522.829168 83.70808 
L 522.881113 84.790318 
L 523.136306 84.249199 
L 523.599228 84.249199 
L 523.836784 83.166961 
L 524.054826 84.249199 
L 524.352627 83.166961 
L 524.468727 83.70808 
L 524.627777 83.166961 
L 525.043029 83.70808 
L 525.283035 83.166961 
L 525.985036 83.166961 
L 526.152595 83.70808 
L 526.55918 82.625842 
L 526.724444 83.70808 
L 526.866992 83.70808 
L 526.922421 83.166961 
L 527.124509 83.166961 
L 527.342464 82.625842 
L 527.491605 83.70808 
L 527.723166 82.625842 
L 527.82486 83.70808 
L 528.108811 82.625842 
L 528.283412 82.625842 
L 528.396086 83.166961 
L 528.580727 83.166961 
L 528.632903 83.70808 
L 528.643617 83.166961 
L 528.958828 83.166961 
L 529.065479 83.70808 
L 529.354628 82.625842 
L 529.620898 83.70808 
L 530.07722 83.166961 
L 531.052376 83.166961 
L 531.286232 83.70808 
L 531.534854 83.166961 
L 531.694892 83.70808 
L 531.79375 83.166961 
L 532.486317 83.166961 
L 532.697764 83.70808 
L 533.183257 82.625842 
L 533.301302 83.166961 
L 533.68963 82.625842 
L 534.113737 83.166961 
L 534.338987 82.625842 
L 534.868934 83.70808 
L 535.007984 84.249199 
L 535.238368 84.249199 
L 535.682093 82.625842 
L 535.802789 82.625842 
L 535.956014 83.70808 
L 536.315895 83.70808 
L 536.517748 83.166961 
L 536.670822 83.166961 
L 536.82909 83.70808 
L 537.127915 83.70808 
L 537.535944 83.166961 
L 537.762445 83.166961 
L 537.855169 82.625842 
L 538.072868 83.70808 
L 538.187567 82.625842 
L 538.330169 83.166961 
L 538.420231 82.625842 
L 538.991997 82.625842 
L 539.012692 81.543604 
L 539.105024 82.084723 
L 539.277767 82.084723 
L 539.380992 82.625842 
L 539.54336 82.084723 
L 539.722388 82.625842 
L 540.17893 82.084723 
L 540.5667 82.084723 
L 540.713981 81.002485 
L 540.772065 81.543604 
L 540.945604 81.002485 
L 541.178337 81.543604 
L 541.287289 82.084723 
L 541.449697 81.543604 
L 541.609857 82.084723 
L 541.802499 81.002485 
L 541.884117 82.084723 
L 542.057198 90.201509 
L 542.529771 90.201509 
L 542.660024 90.742628 
L 542.783825 88.578152 
L 543.473633 89.119271 
L 543.986162 89.119271 
L 544.085835 88.578152 
L 544.214013 88.578152 
L 544.615717 89.66039 
L 544.919574 89.66039 
L 544.932528 89.119271 
L 545.312927 88.578152 
L 545.582342 89.119271 
L 545.852986 90.201509 
L 545.887583 89.119271 
L 546.094349 90.201509 
L 546.174771 89.66039 
L 546.79246 89.66039 
L 546.825843 89.119271 
L 547.078774 89.119271 
L 547.25107 89.66039 
L 547.417109 89.66039 
L 547.470203 90.201509 
L 547.827216 89.119271 
L 548.145047 90.201509 
L 548.310488 90.201509 
L 548.818907 89.66039 
L 548.917726 90.201509 
L 548.99907 89.119271 
L 549.328399 88.037033 
L 549.549954 89.119271 
L 549.878281 88.037033 
L 550.204113 89.119271 
L 550.322705 88.037033 
L 550.616212 89.119271 
L 550.738526 89.119271 
L 550.787748 88.037033 
L 550.933902 88.578152 
L 551.104386 88.037033 
L 551.380405 88.037033 
L 551.413697 86.954795 
L 551.62644 87.495914 
L 551.747872 87.495914 
L 551.836853 88.037033 
L 552.086938 87.495914 
L 552.346097 86.413676 
L 552.359573 84.790318 
L 552.508807 85.872556 
L 552.513281 84.249199 
L 552.69173 84.249199 
L 552.816299 83.70808 
L 553.059827 84.249199 
L 553.436383 83.70808 
L 553.641424 84.249199 
L 553.880083 84.249199 
L 553.979828 83.70808 
L 554.257841 83.166961 
L 554.408668 84.249199 
L 554.527725 84.249199 
L 554.822724 82.625842 
L 555.007091 82.084723 
L 555.584992 82.625842 
L 555.804752 82.625842 
L 555.946151 83.166961 
L 556.254828 80.461366 
L 556.417902 80.461366 
L 556.559705 79.920247 
L 556.836349 77.214652 
L 557.051701 77.755771 
L 557.316008 76.673533 
L 557.410702 77.755771 
L 557.656255 76.132414 
L 557.692008 75.591295 
L 557.946553 75.050176 
L 558.131713 75.591295 
L 558.313325 75.050176 
L 558.624224 76.132414 
L 558.655835 75.591295 
L 558.88651 75.591295 
L 558.999465 76.132414 
L 559.203973 76.132414 
L 560.167093 73.967938 
L 560.294605 74.509057 
L 560.574013 74.509057 
L 560.78078 75.050176 
L 560.887351 73.967938 
L 561.110257 74.509057 
L 561.368991 73.967938 
L 561.706234 73.967938 
L 561.850446 74.509057 
L 562.448229 73.426819 
L 562.58886 73.967938 
L 562.762111 73.426819 
L 562.977372 73.426819 
L 563.33307 71.803461 
L 563.60255 71.803461 
L 563.715735 72.885699 
L 563.715735 72.885699 
" clip-path="url(#p6b00f5266d)" style="fill: none; stroke-dasharray: 6,1.5; stroke-dashoffset: 0; stroke: #008000; stroke-width: 1.5"/>
   </g>
   <g id="line2d_20">
    <path d="M 38.539265 362.384387 
L 39.811681 363.466625 
L 41.079991 363.466625 
L 42.306803 362.925506 
L 44.083474 362.925506 
L 47.794073 362.384387 
L 47.89884 362.925506 
L 51.112065 362.925506 
L 51.414892 364.007744 
L 52.084872 364.007744 
L 52.363448 360.76103 
L 52.734708 364.007744 
L 54.542633 364.007744 
L 54.87416 360.76103 
L 57.367566 360.76103 
L 58.681907 361.302149 
L 58.860896 361.843268 
L 59.860011 361.843268 
L 60.140442 360.219911 
L 63.205686 360.219911 
L 63.569255 360.76103 
L 72.914674 360.76103 
L 73.209035 360.219911 
L 78.839815 360.219911 
L 79.120329 362.384387 
L 125.8122 362.384387 
L 126.127037 363.466625 
L 126.507706 366.713339 
L 126.779632 366.713339 
L 127.086994 367.254458 
L 128.932863 367.254458 
L 131.478381 368.877816 
L 131.738296 368.877816 
L 132.174107 369.418935 
L 145.040912 369.418935 
L 145.732318 370.501173 
L 174.924775 370.501173 
L 175.253149 371.042292 
L 175.59406 370.501173 
L 177.578885 370.501173 
L 177.870677 371.042292 
L 183.180054 371.042292 
L 184.345712 372.12453 
L 184.540116 371.042292 
L 184.914323 371.042292 
L 185.222769 372.12453 
L 192.408587 372.12453 
L 192.743345 371.583411 
L 192.938235 372.12453 
L 209.848113 372.12453 
L 210.143454 373.206768 
L 247.804531 373.206768 
L 248.162091 373.747887 
L 334.528956 373.747887 
L 334.874345 373.206768 
L 345.146478 373.206768 
L 345.549039 373.747887 
L 345.65663 374.830125 
L 372.717667 374.830125 
L 372.906455 374.289006 
L 375.558591 374.289006 
L 375.706733 374.830125 
L 482.671122 374.830125 
L 482.80256 374.289006 
L 490.885302 374.289006 
L 491.182578 374.830125 
L 521.887157 374.830125 
L 522.210002 374.289006 
L 561.706234 374.289006 
L 561.850446 374.830125 
L 563.715735 374.830125 
L 563.715735 374.830125 
" clip-path="url(#p6b00f5266d)" style="fill: none; stroke-dasharray: 9,3; stroke-dashoffset: 0; stroke: #ffa500; stroke-width: 1.5"/>
   </g>
   <g id="line2d_21">
    <path d="M 38.539265 325.047173 
L 47.794073 325.047173 
L 47.89884 325.588292 
L 51.112065 325.588292 
L 51.414892 326.129411 
L 52.084872 326.129411 
L 52.363448 327.211649 
L 52.734708 326.129411 
L 54.542633 326.129411 
L 55.098275 327.752768 
L 56.405905 327.752768 
L 56.700507 328.293887 
L 56.878643 327.752768 
L 57.02765 328.293887 
L 70.742311 328.293887 
L 71.034258 329.376125 
L 71.149144 328.293887 
L 71.661014 329.376125 
L 88.045178 329.376125 
L 88.739496 329.917245 
L 88.896781 329.376125 
L 90.010486 329.376125 
L 90.312917 329.917245 
L 90.646586 329.376125 
L 91.440473 329.376125 
L 91.878978 329.917245 
L 92.20451 329.376125 
L 117.44345 329.376125 
L 117.71561 329.917245 
L 118.06338 329.917245 
L 118.371765 329.376125 
L 118.689044 329.376125 
L 118.907666 329.917245 
L 119.14461 329.376125 
L 119.538374 329.917245 
L 126.127037 329.917245 
L 126.507706 329.376125 
L 126.779632 329.376125 
L 127.086994 330.458364 
L 128.585201 330.458364 
L 128.932863 333.163959 
L 131.478381 330.999483 
L 131.738296 331.540602 
L 133.558286 331.540602 
L 133.913354 334.246197 
L 134.226461 334.787316 
L 148.331392 334.787316 
L 148.824483 334.246197 
L 149.214685 334.787316 
L 150.085005 334.246197 
L 152.204702 334.246197 
L 153.458714 334.787316 
L 158.694239 334.787316 
L 159.090111 335.328435 
L 192.154061 335.328435 
L 192.408587 335.869554 
L 192.743345 335.328435 
L 198.633317 335.328435 
L 199.007074 342.362982 
L 199.877041 342.362982 
L 200.232008 346.691935 
L 200.544961 348.315292 
L 219.498202 348.315292 
L 222.163948 348.856411 
L 250.292725 348.856411 
L 250.60544 351.020887 
L 257.124358 351.020887 
L 257.419609 347.774173 
L 272.48922 347.774173 
L 272.661714 348.315292 
L 300.723196 348.315292 
L 300.930715 348.856411 
L 301.259724 348.315292 
L 308.840682 348.315292 
L 308.981253 348.856411 
L 309.268067 348.315292 
L 311.190348 348.315292 
L 311.457022 348.856411 
L 311.557804 348.315292 
L 314.409827 348.315292 
L 314.608986 348.856411 
L 323.536799 348.856411 
L 323.736257 348.315292 
L 334.874345 348.315292 
L 335.130997 347.774173 
L 335.259658 348.315292 
L 335.417941 347.774173 
L 335.518316 348.315292 
L 335.719697 348.315292 
L 335.804097 347.774173 
L 336.02993 348.315292 
L 337.374761 348.315292 
L 337.628153 347.774173 
L 337.741666 348.315292 
L 345.549039 348.315292 
L 345.65663 347.774173 
L 372.717667 347.774173 
L 372.906455 348.315292 
L 377.146659 348.315292 
L 377.238965 351.020887 
L 377.509547 348.315292 
L 379.962013 348.315292 
L 379.975439 351.020887 
L 380.281832 348.315292 
L 380.30725 351.020887 
L 404.841624 351.020887 
L 405.149379 350.479768 
L 405.413761 351.020887 
L 435.285196 351.020887 
L 435.485288 351.562006 
L 435.614781 351.020887 
L 435.91942 351.020887 
L 436.355594 351.562006 
L 456.031305 351.562006 
L 456.25845 352.103125 
L 459.057061 352.103125 
L 459.339437 352.644244 
L 464.935286 352.644244 
L 465.050463 352.103125 
L 471.478632 352.103125 
L 471.714595 352.644244 
L 482.671122 352.644244 
L 482.80256 356.432078 
L 490.885302 356.432078 
L 491.182578 355.890959 
L 498.559017 355.890959 
L 499.265651 358.055435 
L 506.409992 358.055435 
L 506.676972 357.514316 
L 519.697554 357.514316 
L 520.148375 356.973197 
L 521.887157 356.973197 
L 522.210002 359.137673 
L 522.596003 359.678792 
L 524.627777 359.678792 
L 525.043029 360.219911 
L 541.884117 360.219911 
L 542.057198 356.973197 
L 560.78078 356.973197 
L 560.887351 358.596554 
L 561.850446 358.596554 
L 562.125982 359.137673 
L 563.715735 359.137673 
L 563.715735 359.137673 
" clip-path="url(#p6b00f5266d)" style="fill: none; stroke-dasharray: 12,4.5; stroke-dashoffset: 0; stroke: #ee82ee; stroke-width: 1.5"/>
   </g>
   <g id="patch_3">
    <path d="M 33.2875 374.830125 
L 33.2875 22.318125 
" style="fill: none; stroke: #000000; stroke-width: 0.8; stroke-linejoin: miter; stroke-linecap: square"/>
   </g>
   <g id="patch_4">
    <path d="M 568.9675 374.830125 
L 568.9675 22.318125 
" style="fill: none; stroke: #000000; stroke-width: 0.8; stroke-linejoin: miter; stroke-linecap: square"/>
   </g>
   <g id="patch_5">
    <path d="M 33.2875 374.830125 
L 568.9675 374.830125 
" style="fill: none; stroke: #000000; stroke-width: 0.8; stroke-linejoin: miter; stroke-linecap: square"/>
   </g>
   <g id="patch_6">
    <path d="M 33.2875 22.318125 
L 568.9675 22.318125 
" style="fill: none; stroke: #000000; stroke-width: 0.8; stroke-linejoin: miter; stroke-linecap: square"/>
   </g>
   <g id="text_17">
    <!-- Rust/Coreutils running GNU's testsuite -->
    <g transform="translate(186.090625 16.318125) scale(0.12 -0.12)">
     <defs>
      <path id="DejaVuSans-52" d="M 2841 2188 
Q 3044 2119 3236 1894 
Q 3428 1669 3622 1275 
L 4263 0 
L 3584 0 
L 2988 1197 
Q 2756 1666 2539 1819 
Q 2322 1972 1947 1972 
L 1259 1972 
L 1259 0 
L 628 0 
L 628 4666 
L 2053 4666 
Q 2853 4666 3247 4331 
Q 3641 3997 3641 3322 
Q 3641 2881 3436 2590 
Q 3231 2300 2841 2188 
z
M 1259 4147 
L 1259 2491 
L 2053 2491 
Q 2509 2491 2742 2702 
Q 2975 2913 2975 3322 
Q 2975 3731 2742 3939 
Q 2509 4147 2053 4147 
L 1259 4147 
z
" transform="scale(0.015625)"/>
      <path id="DejaVuSans-75" d="M 544 1381 
L 544 3500 
L 1119 3500 
L 1119 1403 
Q 1119 906 1312 657 
Q 1506 409 1894 409 
Q 2359 409 2629 706 
Q 2900 1003 2900 1516 
L 2900 3500 
L 3475 3500 
L 3475 0 
L 2900 0 
L 2900 538 
Q 2691 219 2414 64 
Q 2138 -91 1772 -91 
Q 1169 -91 856 284 
Q 544 659 544 1381 
z
M 1991 3584 
L 1991 3584 
z
" transform="scale(0.015625)"/>
      <path id="DejaVuSans-73" d="M 2834 3397 
L 2834 2853 
Q 2591 2978 2328 3040 
Q 2066 3103 1784 3103 
Q 1356 3103 1142 2972 
Q 928 2841 928 2578 
Q 928 2378 1081 2264 
Q 1234 2150 1697 2047 
L 1894 2003 
Q 2506 1872 2764 1633 
Q 3022 1394 3022 966 
Q 3022 478 2636 193 
Q 2250 -91 1575 -91 
Q 1294 -91 989 -36 
Q 684 19 347 128 
L 347 722 
Q 666 556 975 473 
Q 1284 391 1588 391 
Q 1994 391 2212 530 
Q 2431 669 2431 922 
Q 2431 1156 2273 1281 
Q 2116 1406 1581 1522 
L 1381 1569 
Q 847 1681 609 1914 
Q 372 2147 372 2553 
Q 372 3047 722 3315 
Q 1072 3584 1716 3584 
Q 2034 3584 2315 3537 
Q 2597 3491 2834 3397 
z
" transform="scale(0.015625)"/>
      <path id="DejaVuSans-74" d="M 1172 4494 
L 1172 3500 
L 2356 3500 
L 2356 3053 
L 1172 3053 
L 1172 1153 
Q 1172 725 1289 603 
Q 1406 481 1766 481 
L 2356 481 
L 2356 0 
L 1766 0 
Q 1100 0 847 248 
Q 594 497 594 1153 
L 594 3053 
L 172 3053 
L 172 3500 
L 594 3500 
L 594 4494 
L 1172 4494 
z
" transform="scale(0.015625)"/>
      <path id="DejaVuSans-2f" d="M 1625 4666 
L 2156 4666 
L 531 -594 
L 0 -594 
L 1625 4666 
z
" transform="scale(0.015625)"/>
      <path id="DejaVuSans-43" d="M 4122 4306 
L 4122 3641 
Q 3803 3938 3442 4084 
Q 3081 4231 2675 4231 
Q 1875 4231 1450 3742 
Q 1025 3253 1025 2328 
Q 1025 1406 1450 917 
Q 1875 428 2675 428 
Q 3081 428 3442 575 
Q 3803 722 4122 1019 
L 4122 359 
Q 3791 134 3420 21 
Q 3050 -91 2638 -91 
Q 1578 -91 968 557 
Q 359 1206 359 2328 
Q 359 3453 968 4101 
Q 1578 4750 2638 4750 
Q 3056 4750 3426 4639 
Q 3797 4528 4122 4306 
z
" transform="scale(0.015625)"/>
      <path id="DejaVuSans-6f" d="M 1959 3097 
Q 1497 3097 1228 2736 
Q 959 2375 959 1747 
Q 959 1119 1226 758 
Q 1494 397 1959 397 
Q 2419 397 2687 759 
Q 2956 1122 2956 1747 
Q 2956 2369 2687 2733 
Q 2419 3097 1959 3097 
z
M 1959 3584 
Q 2709 3584 3137 3096 
Q 3566 2609 3566 1747 
Q 3566 888 3137 398 
Q 2709 -91 1959 -91 
Q 1206 -91 779 398 
Q 353 888 353 1747 
Q 353 2609 779 3096 
Q 1206 3584 1959 3584 
z
" transform="scale(0.015625)"/>
      <path id="DejaVuSans-72" d="M 2631 2963 
Q 2534 3019 2420 3045 
Q 2306 3072 2169 3072 
Q 1681 3072 1420 2755 
Q 1159 2438 1159 1844 
L 1159 0 
L 581 0 
L 581 3500 
L 1159 3500 
L 1159 2956 
Q 1341 3275 1631 3429 
Q 1922 3584 2338 3584 
Q 2397 3584 2469 3576 
Q 2541 3569 2628 3553 
L 2631 2963 
z
" transform="scale(0.015625)"/>
      <path id="DejaVuSans-65" d="M 3597 1894 
L 3597 1613 
L 953 1613 
Q 991 1019 1311 708 
Q 1631 397 2203 397 
Q 2534 397 2845 478 
Q 3156 559 3463 722 
L 3463 178 
Q 3153 47 2828 -22 
Q 2503 -91 2169 -91 
Q 1331 -91 842 396 
Q 353 884 353 1716 
Q 353 2575 817 3079 
Q 1281 3584 2069 3584 
Q 2775 3584 3186 3129 
Q 3597 2675 3597 1894 
z
M 3022 2063 
Q 3016 2534 2758 2815 
Q 2500 3097 2075 3097 
Q 1594 3097 1305 2825 
Q 1016 2553 972 2059 
L 3022 2063 
z
" transform="scale(0.015625)"/>
      <path id="DejaVuSans-69" d="M 603 3500 
L 1178 3500 
L 1178 0 
L 603 0 
L 603 3500 
z
M 603 4863 
L 1178 4863 
L 1178 4134 
L 603 4134 
L 603 4863 
z
" transform="scale(0.015625)"/>
      <path id="DejaVuSans-6c" d="M 603 4863 
L 1178 4863 
L 1178 0 
L 603 0 
L 603 4863 
z
" transform="scale(0.015625)"/>
      <path id="DejaVuSans-20" transform="scale(0.015625)"/>
      <path id="DejaVuSans-6e" d="M 3513 2113 
L 3513 0 
L 2938 0 
L 2938 2094 
Q 2938 2591 2744 2837 
Q 2550 3084 2163 3084 
Q 1697 3084 1428 2787 
Q 1159 2491 1159 1978 
L 1159 0 
L 581 0 
L 581 3500 
L 1159 3500 
L 1159 2956 
Q 1366 3272 1645 3428 
Q 1925 3584 2291 3584 
Q 2894 3584 3203 3211 
Q 3513 2838 3513 2113 
z
" transform="scale(0.015625)"/>
      <path id="DejaVuSans-67" d="M 2906 1791 
Q 2906 2416 2648 2759 
Q 2391 3103 1925 3103 
Q 1463 3103 1205 2759 
Q 947 2416 947 1791 
Q 947 1169 1205 825 
Q 1463 481 1925 481 
Q 2391 481 2648 825 
Q 2906 1169 2906 1791 
z
M 3481 434 
Q 3481 -459 3084 -895 
Q 2688 -1331 1869 -1331 
Q 1566 -1331 1297 -1286 
Q 1028 -1241 775 -1147 
L 775 -588 
Q 1028 -725 1275 -790 
Q 1522 -856 1778 -856 
Q 2344 -856 2625 -561 
Q 2906 -266 2906 331 
L 2906 616 
Q 2728 306 2450 153 
Q 2172 0 1784 0 
Q 1141 0 747 490 
Q 353 981 353 1791 
Q 353 2603 747 3093 
Q 1141 3584 1784 3584 
Q 2172 3584 2450 3431 
Q 2728 3278 2906 2969 
L 2906 3500 
L 3481 3500 
L 3481 434 
z
" transform="scale(0.015625)"/>
      <path id="DejaVuSans-47" d="M 3809 666 
L 3809 1919 
L 2778 1919 
L 2778 2438 
L 4434 2438 
L 4434 434 
Q 4069 175 3628 42 
Q 3188 -91 2688 -91 
Q 1594 -91 976 548 
Q 359 1188 359 2328 
Q 359 3472 976 4111 
Q 1594 4750 2688 4750 
Q 3144 4750 3555 4637 
Q 3966 4525 4313 4306 
L 4313 3634 
Q 3963 3931 3569 4081 
Q 3175 4231 2741 4231 
Q 1884 4231 1454 3753 
Q 1025 3275 1025 2328 
Q 1025 1384 1454 906 
Q 1884 428 2741 428 
Q 3075 428 3337 486 
Q 3600 544 3809 666 
z
" transform="scale(0.015625)"/>
      <path id="DejaVuSans-4e" d="M 628 4666 
L 1478 4666 
L 3547 763 
L 3547 4666 
L 4159 4666 
L 4159 0 
L 3309 0 
L 1241 3903 
L 1241 0 
L 628 0 
L 628 4666 
z
" transform="scale(0.015625)"/>
      <path id="DejaVuSans-55" d="M 556 4666 
L 1191 4666 
L 1191 1831 
Q 1191 1081 1462 751 
Q 1734 422 2344 422 
Q 2950 422 3222 751 
Q 3494 1081 3494 1831 
L 3494 4666 
L 4128 4666 
L 4128 1753 
Q 4128 841 3676 375 
Q 3225 -91 2344 -91 
Q 1459 -91 1007 375 
Q 556 841 556 1753 
L 556 4666 
z
" transform="scale(0.015625)"/>
      <path id="DejaVuSans-27" d="M 1147 4666 
L 1147 2931 
L 616 2931 
L 616 4666 
L 1147 4666 
z
" transform="scale(0.015625)"/>
     </defs>
     <use xlink:href="#DejaVuSans-52"/>
     <use xlink:href="#DejaVuSans-75" x="64.982422"/>
     <use xlink:href="#DejaVuSans-73" x="128.361328"/>
     <use xlink:href="#DejaVuSans-74" x="180.460938"/>
     <use xlink:href="#DejaVuSans-2f" x="219.669922"/>
     <use xlink:href="#DejaVuSans-43" x="253.361328"/>
     <use xlink:href="#DejaVuSans-6f" x="323.185547"/>
     <use xlink:href="#DejaVuSans-72" x="384.367188"/>
     <use xlink:href="#DejaVuSans-65" x="423.230469"/>
     <use xlink:href="#DejaVuSans-75" x="484.753906"/>
     <use xlink:href="#DejaVuSans-74" x="548.132812"/>
     <use xlink:href="#DejaVuSans-69" x="587.341797"/>
     <use xlink:href="#DejaVuSans-6c" x="615.125"/>
     <use xlink:href="#DejaVuSans-73" x="642.908203"/>
     <use xlink:href="#DejaVuSans-20" x="695.007812"/>
     <use xlink:href="#DejaVuSans-72" x="726.794922"/>
     <use xlink:href="#DejaVuSans-75" x="767.908203"/>
     <use xlink:href="#DejaVuSans-6e" x="831.287109"/>
     <use xlink:href="#DejaVuSans-6e" x="894.666016"/>
     <use xlink:href="#DejaVuSans-69" x="958.044922"/>
     <use xlink:href="#DejaVuSans-6e" x="985.828125"/>
     <use xlink:href="#DejaVuSans-67" x="1049.207031"/>
     <use xlink:href="#DejaVuSans-20" x="1112.683594"/>
     <use xlink:href="#DejaVuSans-47" x="1144.470703"/>
     <use xlink:href="#DejaVuSans-4e" x="1221.960938"/>
     <use xlink:href="#DejaVuSans-55" x="1296.765625"/>
     <use xlink:href="#DejaVuSans-27" x="1369.958984"/>
     <use xlink:href="#DejaVuSans-73" x="1397.449219"/>
     <use xlink:href="#DejaVuSans-20" x="1449.548828"/>
     <use xlink:href="#DejaVuSans-74" x="1481.335938"/>
     <use xlink:href="#DejaVuSans-65" x="1520.544922"/>
     <use xlink:href="#DejaVuSans-73" x="1582.068359"/>
     <use xlink:href="#DejaVuSans-74" x="1634.167969"/>
     <use xlink:href="#DejaVuSans-73" x="1673.376953"/>
     <use xlink:href="#DejaVuSans-75" x="1725.476562"/>
     <use xlink:href="#DejaVuSans-69" x="1788.855469"/>
     <use xlink:href="#DejaVuSans-74" x="1816.638672"/>
     <use xlink:href="#DejaVuSans-65" x="1855.847656"/>
    </g>
   </g>
   <g id="legend_1">
    <g id="patch_7">
     <path d="M 505.762812 236.769437 
L 561.9675 236.769437 
Q 563.9675 236.769437 563.9675 234.769437 
L 563.9675 162.378812 
Q 563.9675 160.378812 561.9675 160.378812 
L 505.762812 160.378812 
Q 503.762812 160.378812 503.762812 162.378812 
L 503.762812 234.769437 
Q 503.762812 236.769437 505.762812 236.769437 
z
" style="fill: #ffffff; opacity: 0.8; stroke: #cccccc; stroke-linejoin: miter"/>
    </g>
    <g id="line2d_22">
     <path d="M 507.762812 168.47725 
L 517.762812 168.47725 
L 527.762812 168.47725 
" style="fill: none; stroke: #0000ff; stroke-width: 1.5; stroke-linecap: square"/>
    </g>
    <g id="text_18">
     <!-- total -->
     <g transform="translate(535.762812 171.97725) scale(0.1 -0.1)">
      <defs>
       <path id="DejaVuSans-61" d="M 2194 1759 
Q 1497 1759 1228 1600 
Q 959 1441 959 1056 
Q 959 750 1161 570 
Q 1363 391 1709 391 
Q 2188 391 2477 730 
Q 2766 1069 2766 1631 
L 2766 1759 
L 2194 1759 
z
M 3341 1997 
L 3341 0 
L 2766 0 
L 2766 531 
Q 2569 213 2275 61 
Q 1981 -91 1556 -91 
Q 1019 -91 701 211 
Q 384 513 384 1019 
Q 384 1609 779 1909 
Q 1175 2209 1959 2209 
L 2766 2209 
L 2766 2266 
Q 2766 2663 2505 2880 
Q 2244 3097 1772 3097 
Q 1472 3097 1187 3025 
Q 903 2953 641 2809 
L 641 3341 
Q 956 3463 1253 3523 
Q 1550 3584 1831 3584 
Q 2591 3584 2966 3190 
Q 3341 2797 3341 1997 
z
" transform="scale(0.015625)"/>
      </defs>
      <use xlink:href="#DejaVuSans-74"/>
      <use xlink:href="#DejaVuSans-6f" x="39.208984"/>
      <use xlink:href="#DejaVuSans-74" x="100.390625"/>
      <use xlink:href="#DejaVuSans-61" x="139.599609"/>
      <use xlink:href="#DejaVuSans-6c" x="200.878906"/>
     </g>
    </g>
    <g id="line2d_23">
     <path d="M 507.762812 183.155375 
L 517.762812 183.155375 
L 527.762812 183.155375 
" style="fill: none; stroke-dasharray: 3,1.5; stroke-dashoffset: 0; stroke: #808080; stroke-width: 1.5"/>
    </g>
    <g id="text_19">
     <!-- fail -->
     <g transform="translate(535.762812 186.655375) scale(0.1 -0.1)">
      <defs>
       <path id="DejaVuSans-66" d="M 2375 4863 
L 2375 4384 
L 1825 4384 
Q 1516 4384 1395 4259 
Q 1275 4134 1275 3809 
L 1275 3500 
L 2222 3500 
L 2222 3053 
L 1275 3053 
L 1275 0 
L 697 0 
L 697 3053 
L 147 3053 
L 147 3500 
L 697 3500 
L 697 3744 
Q 697 4328 969 4595 
Q 1241 4863 1831 4863 
L 2375 4863 
z
" transform="scale(0.015625)"/>
      </defs>
      <use xlink:href="#DejaVuSans-66"/>
      <use xlink:href="#DejaVuSans-61" x="35.205078"/>
      <use xlink:href="#DejaVuSans-69" x="96.484375"/>
      <use xlink:href="#DejaVuSans-6c" x="124.267578"/>
     </g>
    </g>
    <g id="line2d_24">
     <path d="M 507.762812 197.8335 
L 517.762812 197.8335 
L 527.762812 197.8335 
" style="fill: none; stroke-dasharray: 6,1.5; stroke-dashoffset: 0; stroke: #008000; stroke-width: 1.5"/>
    </g>
    <g id="text_20">
     <!-- pass -->
     <g transform="translate(535.762812 201.3335) scale(0.1 -0.1)">
      <defs>
       <path id="DejaVuSans-70" d="M 1159 525 
L 1159 -1331 
L 581 -1331 
L 581 3500 
L 1159 3500 
L 1159 2969 
Q 1341 3281 1617 3432 
Q 1894 3584 2278 3584 
Q 2916 3584 3314 3078 
Q 3713 2572 3713 1747 
Q 3713 922 3314 415 
Q 2916 -91 2278 -91 
Q 1894 -91 1617 61 
Q 1341 213 1159 525 
z
M 3116 1747 
Q 3116 2381 2855 2742 
Q 2594 3103 2138 3103 
Q 1681 3103 1420 2742 
Q 1159 2381 1159 1747 
Q 1159 1113 1420 752 
Q 1681 391 2138 391 
Q 2594 391 2855 752 
Q 3116 1113 3116 1747 
z
" transform="scale(0.015625)"/>
      </defs>
      <use xlink:href="#DejaVuSans-70"/>
      <use xlink:href="#DejaVuSans-61" x="63.476562"/>
      <use xlink:href="#DejaVuSans-73" x="124.755859"/>
      <use xlink:href="#DejaVuSans-73" x="176.855469"/>
     </g>
    </g>
    <g id="line2d_25">
     <path d="M 507.762812 212.511625 
L 517.762812 212.511625 
L 527.762812 212.511625 
" style="fill: none; stroke-dasharray: 9,3; stroke-dashoffset: 0; stroke: #ffa500; stroke-width: 1.5"/>
    </g>
    <g id="text_21">
     <!-- error -->
     <g transform="translate(535.762812 216.011625) scale(0.1 -0.1)">
      <use xlink:href="#DejaVuSans-65"/>
      <use xlink:href="#DejaVuSans-72" x="61.523438"/>
      <use xlink:href="#DejaVuSans-72" x="100.886719"/>
      <use xlink:href="#DejaVuSans-6f" x="139.75"/>
      <use xlink:href="#DejaVuSans-72" x="200.931641"/>
     </g>
    </g>
    <g id="line2d_26">
     <path d="M 507.762812 227.18975 
L 517.762812 227.18975 
L 527.762812 227.18975 
" style="fill: none; stroke-dasharray: 12,4.5; stroke-dashoffset: 0; stroke: #ee82ee; stroke-width: 1.5"/>
    </g>
    <g id="text_22">
     <!-- skip -->
     <g transform="translate(535.762812 230.68975) scale(0.1 -0.1)">
      <defs>
       <path id="DejaVuSans-6b" d="M 581 4863 
L 1159 4863 
L 1159 1991 
L 2875 3500 
L 3609 3500 
L 1753 1863 
L 3688 0 
L 2938 0 
L 1159 1709 
L 1159 0 
L 581 0 
L 581 4863 
z
" transform="scale(0.015625)"/>
      </defs>
      <use xlink:href="#DejaVuSans-73"/>
      <use xlink:href="#DejaVuSans-6b" x="52.099609"/>
      <use xlink:href="#DejaVuSans-69" x="110.009766"/>
      <use xlink:href="#DejaVuSans-70" x="137.792969"/>
     </g>
    </g>
   </g>
  </g>
 </g>
 <defs>
  <clipPath id="p6b00f5266d">
   <rect x="33.2875" y="22.318125" width="535.68" height="352.512"/>
  </clipPath>
 </defs>
</svg>
