<?xml version="1.0" encoding="utf-8" standalone="no"?>
<!DOCTYPE svg PUBLIC "-//W3C//DTD SVG 1.1//EN"
  "http://www.w3.org/Graphics/SVG/1.1/DTD/svg11.dtd">
<svg xmlns:xlink="http://www.w3.org/1999/xlink" width="576.1675pt" height="418.303033pt" viewBox="0 0 576.1675 418.303033" xmlns="http://www.w3.org/2000/svg" version="1.1">
 <metadata>
  <rdf:RDF xmlns:dc="http://purl.org/dc/elements/1.1/" xmlns:cc="http://creativecommons.org/ns#" xmlns:rdf="http://www.w3.org/1999/02/22-rdf-syntax-ns#">
   <cc:Work>
    <dc:type rdf:resource="http://purl.org/dc/dcmitype/StillImage"/>
    <dc:date>2025-12-14T02:39:34.326585</dc:date>
    <dc:format>image/svg+xml</dc:format>
    <dc:creator>
     <cc:Agent>
      <dc:title>Matplotlib v3.6.3, https://matplotlib.org/</dc:title>
     </cc:Agent>
    </dc:creator>
   </cc:Work>
  </rdf:RDF>
 </metadata>
 <defs>
  <style type="text/css">*{stroke-linejoin: round; stroke-linecap: butt}</style>
 </defs>
 <g id="figure_1">
  <g id="patch_1">
   <path d="M -0 418.303033 
L 576.1675 418.303033 
L 576.1675 0 
L -0 0 
z
" style="fill: #ffffff"/>
  </g>
  <g id="axes_1">
   <g id="patch_2">
    <path d="M 33.2875 374.830125 
L 568.9675 374.830125 
L 568.9675 22.318125 
L 33.2875 22.318125 
z
" style="fill: #ffffff"/>
   </g>
   <g id="matplotlib.axis_1">
    <g id="xtick_1">
     <g id="line2d_1">
      <defs>
       <path id="m2dea8be0ca" d="M 0 0 
L 0 3.5 
" style="stroke: #000000; stroke-width: 0.8"/>
      </defs>
      <g>
       <use xlink:href="#m2dea8be0ca" x="60.625983" y="374.830125" style="stroke: #000000; stroke-width: 0.8"/>
      </g>
     </g>
     <g id="text_1">
      <!-- 2021-07 -->
      <g transform="translate(23.401163 409.301971) rotate(-30) scale(0.1 -0.1)">
       <defs>
        <path id="DejaVuSans-32" d="M 1228 531 
L 3431 531 
L 3431 0 
L 469 0 
L 469 531 
Q 828 903 1448 1529 
Q 2069 2156 2228 2338 
Q 2531 2678 2651 2914 
Q 2772 3150 2772 3378 
Q 2772 3750 2511 3984 
Q 2250 4219 1831 4219 
Q 1534 4219 1204 4116 
Q 875 4013 500 3803 
L 500 4441 
Q 881 4594 1212 4672 
Q 1544 4750 1819 4750 
Q 2544 4750 2975 4387 
Q 3406 4025 3406 3419 
Q 3406 3131 3298 2873 
Q 3191 2616 2906 2266 
Q 2828 2175 2409 1742 
Q 1991 1309 1228 531 
z
" transform="scale(0.015625)"/>
        <path id="DejaVuSans-30" d="M 2034 4250 
Q 1547 4250 1301 3770 
Q 1056 3291 1056 2328 
Q 1056 1369 1301 889 
Q 1547 409 2034 409 
Q 2525 409 2770 889 
Q 3016 1369 3016 2328 
Q 3016 3291 2770 3770 
Q 2525 4250 2034 4250 
z
M 2034 4750 
Q 2819 4750 3233 4129 
Q 3647 3509 3647 2328 
Q 3647 1150 3233 529 
Q 2819 -91 2034 -91 
Q 1250 -91 836 529 
Q 422 1150 422 2328 
Q 422 3509 836 4129 
Q 1250 4750 2034 4750 
z
" transform="scale(0.015625)"/>
        <path id="DejaVuSans-31" d="M 794 531 
L 1825 531 
L 1825 4091 
L 703 3866 
L 703 4441 
L 1819 4666 
L 2450 4666 
L 2450 531 
L 3481 531 
L 3481 0 
L 794 0 
L 794 531 
z
" transform="scale(0.015625)"/>
        <path id="DejaVuSans-2d" d="M 313 2009 
L 1997 2009 
L 1997 1497 
L 313 1497 
L 313 2009 
z
" transform="scale(0.015625)"/>
        <path id="DejaVuSans-37" d="M 525 4666 
L 3525 4666 
L 3525 4397 
L 1831 0 
L 1172 0 
L 2766 4134 
L 525 4134 
L 525 4666 
z
" transform="scale(0.015625)"/>
       </defs>
       <use xlink:href="#DejaVuSans-32"/>
       <use xlink:href="#DejaVuSans-30" x="63.623047"/>
       <use xlink:href="#DejaVuSans-32" x="127.246094"/>
       <use xlink:href="#DejaVuSans-31" x="190.869141"/>
       <use xlink:href="#DejaVuSans-2d" x="254.492188"/>
       <use xlink:href="#DejaVuSans-30" x="290.576172"/>
       <use xlink:href="#DejaVuSans-37" x="354.199219"/>
      </g>
     </g>
    </g>
    <g id="xtick_2">
     <g id="line2d_2">
      <g>
       <use xlink:href="#m2dea8be0ca" x="117.534295" y="374.830125" style="stroke: #000000; stroke-width: 0.8"/>
      </g>
     </g>
     <g id="text_2">
      <!-- 2022-01 -->
      <g transform="translate(80.309474 409.301971) rotate(-30) scale(0.1 -0.1)">
       <use xlink:href="#DejaVuSans-32"/>
       <use xlink:href="#DejaVuSans-30" x="63.623047"/>
       <use xlink:href="#DejaVuSans-32" x="127.246094"/>
       <use xlink:href="#DejaVuSans-32" x="190.869141"/>
       <use xlink:href="#DejaVuSans-2d" x="254.492188"/>
       <use xlink:href="#DejaVuSans-30" x="290.576172"/>
       <use xlink:href="#DejaVuSans-31" x="354.199219"/>
      </g>
     </g>
    </g>
    <g id="xtick_3">
     <g id="line2d_3">
      <g>
       <use xlink:href="#m2dea8be0ca" x="173.514753" y="374.830125" style="stroke: #000000; stroke-width: 0.8"/>
      </g>
     </g>
     <g id="text_3">
      <!-- 2022-07 -->
      <g transform="translate(136.289932 409.301971) rotate(-30) scale(0.1 -0.1)">
       <use xlink:href="#DejaVuSans-32"/>
       <use xlink:href="#DejaVuSans-30" x="63.623047"/>
       <use xlink:href="#DejaVuSans-32" x="127.246094"/>
       <use xlink:href="#DejaVuSans-32" x="190.869141"/>
       <use xlink:href="#DejaVuSans-2d" x="254.492188"/>
       <use xlink:href="#DejaVuSans-30" x="290.576172"/>
       <use xlink:href="#DejaVuSans-37" x="354.199219"/>
      </g>
     </g>
    </g>
    <g id="xtick_4">
     <g id="line2d_4">
      <g>
       <use xlink:href="#m2dea8be0ca" x="230.423065" y="374.830125" style="stroke: #000000; stroke-width: 0.8"/>
      </g>
     </g>
     <g id="text_4">
      <!-- 2023-01 -->
      <g transform="translate(193.198244 409.301971) rotate(-30) scale(0.1 -0.1)">
       <defs>
        <path id="DejaVuSans-33" d="M 2597 2516 
Q 3050 2419 3304 2112 
Q 3559 1806 3559 1356 
Q 3559 666 3084 287 
Q 2609 -91 1734 -91 
Q 1441 -91 1130 -33 
Q 819 25 488 141 
L 488 750 
Q 750 597 1062 519 
Q 1375 441 1716 441 
Q 2309 441 2620 675 
Q 2931 909 2931 1356 
Q 2931 1769 2642 2001 
Q 2353 2234 1838 2234 
L 1294 2234 
L 1294 2753 
L 1863 2753 
Q 2328 2753 2575 2939 
Q 2822 3125 2822 3475 
Q 2822 3834 2567 4026 
Q 2313 4219 1838 4219 
Q 1578 4219 1281 4162 
Q 984 4106 628 3988 
L 628 4550 
Q 988 4650 1302 4700 
Q 1616 4750 1894 4750 
Q 2613 4750 3031 4423 
Q 3450 4097 3450 3541 
Q 3450 3153 3228 2886 
Q 3006 2619 2597 2516 
z
" transform="scale(0.015625)"/>
       </defs>
       <use xlink:href="#DejaVuSans-32"/>
       <use xlink:href="#DejaVuSans-30" x="63.623047"/>
       <use xlink:href="#DejaVuSans-32" x="127.246094"/>
       <use xlink:href="#DejaVuSans-33" x="190.869141"/>
       <use xlink:href="#DejaVuSans-2d" x="254.492188"/>
       <use xlink:href="#DejaVuSans-30" x="290.576172"/>
       <use xlink:href="#DejaVuSans-31" x="354.199219"/>
      </g>
     </g>
    </g>
    <g id="xtick_5">
     <g id="line2d_5">
      <g>
       <use xlink:href="#m2dea8be0ca" x="286.403523" y="374.830125" style="stroke: #000000; stroke-width: 0.8"/>
      </g>
     </g>
     <g id="text_5">
      <!-- 2023-07 -->
      <g transform="translate(249.178702 409.301971) rotate(-30) scale(0.1 -0.1)">
       <use xlink:href="#DejaVuSans-32"/>
       <use xlink:href="#DejaVuSans-30" x="63.623047"/>
       <use xlink:href="#DejaVuSans-32" x="127.246094"/>
       <use xlink:href="#DejaVuSans-33" x="190.869141"/>
       <use xlink:href="#DejaVuSans-2d" x="254.492188"/>
       <use xlink:href="#DejaVuSans-30" x="290.576172"/>
       <use xlink:href="#DejaVuSans-37" x="354.199219"/>
      </g>
     </g>
    </g>
    <g id="xtick_6">
     <g id="line2d_6">
      <g>
       <use xlink:href="#m2dea8be0ca" x="343.311835" y="374.830125" style="stroke: #000000; stroke-width: 0.8"/>
      </g>
     </g>
     <g id="text_6">
      <!-- 2024-01 -->
      <g transform="translate(306.087014 409.301971) rotate(-30) scale(0.1 -0.1)">
       <defs>
        <path id="DejaVuSans-34" d="M 2419 4116 
L 825 1625 
L 2419 1625 
L 2419 4116 
z
M 2253 4666 
L 3047 4666 
L 3047 1625 
L 3713 1625 
L 3713 1100 
L 3047 1100 
L 3047 0 
L 2419 0 
L 2419 1100 
L 313 1100 
L 313 1709 
L 2253 4666 
z
" transform="scale(0.015625)"/>
       </defs>
       <use xlink:href="#DejaVuSans-32"/>
       <use xlink:href="#DejaVuSans-30" x="63.623047"/>
       <use xlink:href="#DejaVuSans-32" x="127.246094"/>
       <use xlink:href="#DejaVuSans-34" x="190.869141"/>
       <use xlink:href="#DejaVuSans-2d" x="254.492188"/>
       <use xlink:href="#DejaVuSans-30" x="290.576172"/>
       <use xlink:href="#DejaVuSans-31" x="354.199219"/>
      </g>
     </g>
    </g>
    <g id="xtick_7">
     <g id="line2d_7">
      <g>
       <use xlink:href="#m2dea8be0ca" x="399.601578" y="374.830125" style="stroke: #000000; stroke-width: 0.8"/>
      </g>
     </g>
     <g id="text_7">
      <!-- 2024-07 -->
      <g transform="translate(362.376757 409.301971) rotate(-30) scale(0.1 -0.1)">
       <use xlink:href="#DejaVuSans-32"/>
       <use xlink:href="#DejaVuSans-30" x="63.623047"/>
       <use xlink:href="#DejaVuSans-32" x="127.246094"/>
       <use xlink:href="#DejaVuSans-34" x="190.869141"/>
       <use xlink:href="#DejaVuSans-2d" x="254.492188"/>
       <use xlink:href="#DejaVuSans-30" x="290.576172"/>
       <use xlink:href="#DejaVuSans-37" x="354.199219"/>
      </g>
     </g>
    </g>
    <g id="xtick_8">
     <g id="line2d_8">
      <g>
       <use xlink:href="#m2dea8be0ca" x="456.509889" y="374.830125" style="stroke: #000000; stroke-width: 0.8"/>
      </g>
     </g>
     <g id="text_8">
      <!-- 2025-01 -->
      <g transform="translate(419.285068 409.301971) rotate(-30) scale(0.1 -0.1)">
       <defs>
        <path id="DejaVuSans-35" d="M 691 4666 
L 3169 4666 
L 3169 4134 
L 1269 4134 
L 1269 2991 
Q 1406 3038 1543 3061 
Q 1681 3084 1819 3084 
Q 2600 3084 3056 2656 
Q 3513 2228 3513 1497 
Q 3513 744 3044 326 
Q 2575 -91 1722 -91 
Q 1428 -91 1123 -41 
Q 819 9 494 109 
L 494 744 
Q 775 591 1075 516 
Q 1375 441 1709 441 
Q 2250 441 2565 725 
Q 2881 1009 2881 1497 
Q 2881 1984 2565 2268 
Q 2250 2553 1709 2553 
Q 1456 2553 1204 2497 
Q 953 2441 691 2322 
L 691 4666 
z
" transform="scale(0.015625)"/>
       </defs>
       <use xlink:href="#DejaVuSans-32"/>
       <use xlink:href="#DejaVuSans-30" x="63.623047"/>
       <use xlink:href="#DejaVuSans-32" x="127.246094"/>
       <use xlink:href="#DejaVuSans-35" x="190.869141"/>
       <use xlink:href="#DejaVuSans-2d" x="254.492188"/>
       <use xlink:href="#DejaVuSans-30" x="290.576172"/>
       <use xlink:href="#DejaVuSans-31" x="354.199219"/>
      </g>
     </g>
    </g>
    <g id="xtick_9">
     <g id="line2d_9">
      <g>
       <use xlink:href="#m2dea8be0ca" x="512.490347" y="374.830125" style="stroke: #000000; stroke-width: 0.8"/>
      </g>
     </g>
     <g id="text_9">
      <!-- 2025-07 -->
      <g transform="translate(475.265527 409.301971) rotate(-30) scale(0.1 -0.1)">
       <use xlink:href="#DejaVuSans-32"/>
       <use xlink:href="#DejaVuSans-30" x="63.623047"/>
       <use xlink:href="#DejaVuSans-32" x="127.246094"/>
       <use xlink:href="#DejaVuSans-35" x="190.869141"/>
       <use xlink:href="#DejaVuSans-2d" x="254.492188"/>
       <use xlink:href="#DejaVuSans-30" x="290.576172"/>
       <use xlink:href="#DejaVuSans-37" x="354.199219"/>
      </g>
     </g>
    </g>
   </g>
   <g id="matplotlib.axis_2">
    <g id="ytick_1">
     <g id="line2d_10">
      <defs>
       <path id="m94c4e162e2" d="M 0 0 
L -3.5 0 
" style="stroke: #000000; stroke-width: 0.8"/>
      </defs>
      <g>
       <use xlink:href="#m94c4e162e2" x="33.2875" y="374.830125" style="stroke: #000000; stroke-width: 0.8"/>
      </g>
     </g>
     <g id="text_10">
      <!-- 0 -->
      <g transform="translate(19.925 378.629344) scale(0.1 -0.1)">
       <use xlink:href="#DejaVuSans-30"/>
      </g>
     </g>
    </g>
    <g id="ytick_2">
     <g id="line2d_11">
      <g>
       <use xlink:href="#m94c4e162e2" x="33.2875" y="320.718221" style="stroke: #000000; stroke-width: 0.8"/>
      </g>
     </g>
     <g id="text_11">
      <!-- 100 -->
      <g transform="translate(7.2 324.51744) scale(0.1 -0.1)">
       <use xlink:href="#DejaVuSans-31"/>
       <use xlink:href="#DejaVuSans-30" x="63.623047"/>
       <use xlink:href="#DejaVuSans-30" x="127.246094"/>
      </g>
     </g>
    </g>
    <g id="ytick_3">
     <g id="line2d_12">
      <g>
       <use xlink:href="#m94c4e162e2" x="33.2875" y="266.606317" style="stroke: #000000; stroke-width: 0.8"/>
      </g>
     </g>
     <g id="text_12">
      <!-- 200 -->
      <g transform="translate(7.2 270.405535) scale(0.1 -0.1)">
       <use xlink:href="#DejaVuSans-32"/>
       <use xlink:href="#DejaVuSans-30" x="63.623047"/>
       <use xlink:href="#DejaVuSans-30" x="127.246094"/>
      </g>
     </g>
    </g>
    <g id="ytick_4">
     <g id="line2d_13">
      <g>
       <use xlink:href="#m94c4e162e2" x="33.2875" y="212.494412" style="stroke: #000000; stroke-width: 0.8"/>
      </g>
     </g>
     <g id="text_13">
      <!-- 300 -->
      <g transform="translate(7.2 216.293631) scale(0.1 -0.1)">
       <use xlink:href="#DejaVuSans-33"/>
       <use xlink:href="#DejaVuSans-30" x="63.623047"/>
       <use xlink:href="#DejaVuSans-30" x="127.246094"/>
      </g>
     </g>
    </g>
    <g id="ytick_5">
     <g id="line2d_14">
      <g>
       <use xlink:href="#m94c4e162e2" x="33.2875" y="158.382508" style="stroke: #000000; stroke-width: 0.8"/>
      </g>
     </g>
     <g id="text_14">
      <!-- 400 -->
      <g transform="translate(7.2 162.181727) scale(0.1 -0.1)">
       <use xlink:href="#DejaVuSans-34"/>
       <use xlink:href="#DejaVuSans-30" x="63.623047"/>
       <use xlink:href="#DejaVuSans-30" x="127.246094"/>
      </g>
     </g>
    </g>
    <g id="ytick_6">
     <g id="line2d_15">
      <g>
       <use xlink:href="#m94c4e162e2" x="33.2875" y="104.270604" style="stroke: #000000; stroke-width: 0.8"/>
      </g>
     </g>
     <g id="text_15">
      <!-- 500 -->
      <g transform="translate(7.2 108.069823) scale(0.1 -0.1)">
       <use xlink:href="#DejaVuSans-35"/>
       <use xlink:href="#DejaVuSans-30" x="63.623047"/>
       <use xlink:href="#DejaVuSans-30" x="127.246094"/>
      </g>
     </g>
    </g>
    <g id="ytick_7">
     <g id="line2d_16">
      <g>
       <use xlink:href="#m94c4e162e2" x="33.2875" y="50.1587" style="stroke: #000000; stroke-width: 0.8"/>
      </g>
     </g>
     <g id="text_16">
      <!-- 600 -->
      <g transform="translate(7.2 53.957918) scale(0.1 -0.1)">
       <defs>
        <path id="DejaVuSans-36" d="M 2113 2584 
Q 1688 2584 1439 2293 
Q 1191 2003 1191 1497 
Q 1191 994 1439 701 
Q 1688 409 2113 409 
Q 2538 409 2786 701 
Q 3034 994 3034 1497 
Q 3034 2003 2786 2293 
Q 2538 2584 2113 2584 
z
M 3366 4563 
L 3366 3988 
Q 3128 4100 2886 4159 
Q 2644 4219 2406 4219 
Q 1781 4219 1451 3797 
Q 1122 3375 1075 2522 
Q 1259 2794 1537 2939 
Q 1816 3084 2150 3084 
Q 2853 3084 3261 2657 
Q 3669 2231 3669 1497 
Q 3669 778 3244 343 
Q 2819 -91 2113 -91 
Q 1303 -91 875 529 
Q 447 1150 447 2328 
Q 447 3434 972 4092 
Q 1497 4750 2381 4750 
Q 2619 4750 2861 4703 
Q 3103 4656 3366 4563 
z
" transform="scale(0.015625)"/>
       </defs>
       <use xlink:href="#DejaVuSans-36"/>
       <use xlink:href="#DejaVuSans-30" x="63.623047"/>
       <use xlink:href="#DejaVuSans-30" x="127.246094"/>
      </g>
     </g>
    </g>
   </g>
   <g id="line2d_17">
    <path d="M 38.539265 37.171843 
L 47.735869 37.171843 
L 47.839977 40.418557 
L 49.127559 40.418557 
L 49.598888 49.617581 
L 125.576191 49.617581 
L 125.954467 44.20639 
L 138.597554 44.20639 
L 139.340245 44.747509 
L 145.269529 44.747509 
L 145.476882 55.56989 
L 151.489852 55.56989 
L 152.735978 53.946533 
L 255.749662 53.946533 
L 256.043056 50.1587 
L 264.116812 50.1587 
L 264.404976 49.076462 
L 304.928937 49.076462 
L 305.130745 47.994224 
L 370.615997 47.994224 
L 370.803597 43.665271 
L 420.449623 43.665271 
L 420.535009 43.124152 
L 458.45577 43.124152 
L 458.804259 42.583033 
L 462.253653 42.583033 
L 462.368106 40.418557 
L 463.752397 40.418557 
L 464.112076 40.959676 
L 488.040468 40.959676 
L 488.335874 40.418557 
L 538.718548 40.418557 
L 538.89054 31.760652 
L 553.301839 31.760652 
L 553.576744 25.808343 
L 563.715735 25.808343 
L 563.715735 25.808343 
" clip-path="url(#p01a82434d1)" style="fill: none; stroke: #0000ff; stroke-width: 1.5; stroke-linecap: square"/>
   </g>
   <g id="line2d_18">
    <path d="M 38.539265 175.698317 
L 39.803679 174.616079 
L 41.064013 175.698317 
L 44.048606 175.698317 
L 47.339477 176.780556 
L 47.583611 176.239437 
L 47.735869 176.239437 
L 47.839977 179.486151 
L 48.080256 178.945032 
L 48.435636 179.486151 
L 49.127559 179.486151 
L 49.512926 191.39077 
L 49.598888 188.685175 
L 49.798914 191.931889 
L 49.862525 191.39077 
L 50.08667 191.39077 
L 50.445218 191.931889 
L 51.308157 191.931889 
L 51.333916 192.473008 
L 51.801683 192.473008 
L 51.999683 191.931889 
L 52.578567 195.719722 
L 52.645432 195.178603 
L 52.929683 195.719722 
L 53.479536 197.343079 
L 53.852489 196.260841 
L 54.441987 196.260841 
L 54.771428 197.343079 
L 54.994135 197.343079 
L 55.665081 197.884198 
L 55.966154 197.884198 
L 56.29354 198.966436 
L 56.58629 198.425317 
L 56.911375 199.507555 
L 57.249154 201.672032 
L 58.555228 202.75427 
L 59.109835 202.75427 
L 59.347404 203.295389 
L 59.725923 203.295389 
L 60.00459 203.836508 
L 60.288452 203.295389 
L 60.604942 203.295389 
L 60.79028 203.836508 
L 63.996599 203.836508 
L 64.320202 204.377627 
L 64.630299 204.377627 
L 64.750705 203.836508 
L 65.516566 204.377627 
L 65.837553 203.836508 
L 66.722543 203.836508 
L 67.006676 204.377627 
L 67.356003 203.836508 
L 68.966776 203.836508 
L 69.296801 204.377627 
L 69.477951 206.000984 
L 69.918849 204.918746 
L 70.944058 204.918746 
L 71.452709 205.459865 
L 71.760265 205.459865 
L 72.058967 206.000984 
L 72.392368 206.000984 
L 72.698484 205.459865 
L 72.990994 207.083222 
L 73.250686 207.083222 
L 73.956727 208.16546 
L 77.663657 208.16546 
L 77.958333 209.247698 
L 78.586363 209.247698 
L 78.865112 209.788817 
L 79.800031 209.788817 
L 80.694958 211.953293 
L 81.646176 211.953293 
L 81.986872 212.494412 
L 87.733832 212.494412 
L 88.423783 213.57665 
L 88.580079 212.494412 
L 89.68678 212.494412 
L 89.987309 213.035531 
L 90.31888 212.494412 
L 91.107773 212.494412 
L 91.54352 213.035531 
L 91.867005 212.494412 
L 96.752423 212.494412 
L 97.019399 217.364484 
L 97.204497 212.494412 
L 98.974978 212.494412 
L 99.296379 213.035531 
L 99.479831 217.905603 
L 99.913183 213.035531 
L 100.219249 213.035531 
L 100.422421 212.494412 
L 103.628024 212.494412 
L 103.790359 213.035531 
L 104.081681 213.035531 
L 104.561454 214.658889 
L 109.397078 214.658889 
L 110.452436 215.200008 
L 116.947217 215.200008 
L 117.217665 217.364484 
L 117.563247 217.364484 
L 117.869693 215.200008 
L 118.184977 215.200008 
L 118.402224 217.364484 
L 118.637677 215.200008 
L 119.028965 217.364484 
L 119.375567 218.446722 
L 123.394559 218.446722 
L 123.741448 218.987841 
L 125.576191 218.987841 
L 125.954467 213.035531 
L 126.224682 213.57665 
L 126.530111 215.200008 
L 126.907184 215.200008 
L 127.412774 216.282246 
L 127.7617 216.282246 
L 128.018897 216.823365 
L 128.364371 214.658889 
L 130.89388 220.070079 
L 131.152161 218.446722 
L 131.585231 217.905603 
L 132.960705 217.905603 
L 133.31354 217.364484 
L 133.624678 216.282246 
L 134.870271 216.282246 
L 135.09801 215.200008 
L 135.498583 216.282246 
L 136.403211 216.282246 
L 136.711081 217.364484 
L 137.008048 217.364484 
L 137.359755 217.905603 
L 137.501679 217.905603 
L 137.660294 219.52896 
L 137.875311 219.52896 
L 138.597554 220.070079 
L 139.194319 218.987841 
L 139.340245 218.987841 
L 139.808059 219.52896 
L 140.108211 220.611198 
L 141.659347 220.611198 
L 141.958834 221.152317 
L 142.28044 221.152317 
L 142.57819 221.693436 
L 142.857115 221.693436 
L 143.505241 222.234555 
L 143.83997 222.234555 
L 144.173761 223.857912 
L 144.371116 223.857912 
L 144.718033 223.316793 
L 145.269529 223.316793 
L 145.476882 224.94015 
L 145.988382 224.94015 
L 146.291431 226.022388 
L 146.696157 226.022388 
L 146.90463 226.563507 
L 147.363076 226.563507 
L 147.408695 227.104626 
L 147.640902 227.104626 
L 148.130892 227.645746 
L 149.245214 230.89246 
L 150.634176 230.89246 
L 150.917343 231.974698 
L 151.023968 231.433579 
L 151.147441 231.433579 
L 151.489852 230.89246 
L 152.735978 229.269103 
L 155.853632 229.269103 
L 156.214889 228.727984 
L 157.723821 228.727984 
L 157.938577 228.186865 
L 160.764325 228.186865 
L 161.257165 228.727984 
L 161.636726 228.727984 
L 162.048797 229.269103 
L 162.256139 228.727984 
L 164.242539 228.727984 
L 164.869434 229.810222 
L 166.203605 229.810222 
L 166.42823 237.385888 
L 166.681453 237.385888 
L 168.839445 239.009245 
L 168.972054 238.468126 
L 169.110398 239.009245 
L 169.46949 238.468126 
L 169.770702 238.468126 
L 170.087729 239.009245 
L 170.325799 239.009245 
L 170.708013 240.091484 
L 170.865203 240.091484 
L 171.010678 239.550364 
L 171.33674 240.632603 
L 173.50454 240.632603 
L 173.715434 241.173722 
L 174.881593 241.173722 
L 175.345903 240.632603 
L 175.693772 243.338198 
L 175.941425 241.714841 
L 176.26442 241.714841 
L 176.523313 244.961555 
L 176.704455 244.420436 
L 176.897289 244.961555 
L 176.994413 244.420436 
L 177.113287 246.043793 
L 177.421472 246.043793 
L 177.811951 246.584912 
L 178.576728 246.043793 
L 178.750869 247.126031 
L 179.035464 247.126031 
L 179.237003 245.502674 
L 179.921127 247.126031 
L 180.60138 247.66715 
L 181.1988 247.66715 
L 181.512201 249.290507 
L 181.800272 249.290507 
L 181.970908 248.749388 
L 182.270399 248.749388 
L 183.428726 250.913864 
L 183.621907 249.831626 
L 183.99376 249.290507 
L 184.429901 250.913864 
L 185.602225 250.913864 
L 185.702584 251.454983 
L 186.169708 251.996102 
L 187.414946 251.996102 
L 187.984931 254.701698 
L 191.187967 254.701698 
L 191.440893 255.242817 
L 191.773545 254.160579 
L 191.96721 255.242817 
L 195.459165 255.242817 
L 195.750924 255.783936 
L 196.454506 259.03065 
L 196.718468 257.407293 
L 197.033039 257.948412 
L 197.38136 257.407293 
L 197.626475 257.407293 
L 197.997881 255.783936 
L 198.197033 255.783936 
L 198.235686 256.325055 
L 198.862377 256.325055 
L 199.215112 253.078341 
L 199.526096 253.078341 
L 200.461599 253.61946 
L 200.520793 253.078341 
L 201.028728 252.537221 
L 201.104169 253.078341 
L 203.551636 253.078341 
L 203.721935 253.61946 
L 204.178684 254.160579 
L 204.788601 255.242817 
L 204.947238 256.325055 
L 205.161607 256.325055 
L 205.401754 257.407293 
L 205.690891 256.866174 
L 206.014645 256.866174 
L 206.258593 256.325055 
L 206.6025 256.866174 
L 206.909378 256.866174 
L 207.203503 257.407293 
L 207.441598 257.407293 
L 207.889781 256.866174 
L 208.122779 257.407293 
L 208.363931 256.866174 
L 209.064224 252.537221 
L 209.737855 253.61946 
L 209.836343 257.407293 
L 209.9865 257.407293 
L 210.261251 257.948412 
L 210.580447 257.407293 
L 210.871872 257.407293 
L 211.230868 256.866174 
L 211.541813 257.948412 
L 212.66405 257.948412 
L 213.110045 258.489531 
L 213.364926 258.489531 
L 213.384704 259.03065 
L 214.656345 259.03065 
L 215.018376 260.112888 
L 216.797638 260.112888 
L 217.152327 261.195126 
L 218.360139 261.195126 
L 220.560443 260.654007 
L 220.76456 261.195126 
L 221.315068 261.195126 
L 221.778289 261.736245 
L 222.088587 262.818483 
L 222.181372 262.277364 
L 222.518642 263.359602 
L 223.268929 263.359602 
L 226.307715 264.44184 
L 233.819078 264.44184 
L 234.12504 263.900721 
L 235.593589 263.900721 
L 235.897991 264.44184 
L 236.90673 264.44184 
L 237.254886 264.982959 
L 237.505231 264.44184 
L 237.795772 264.982959 
L 238.117249 264.44184 
L 238.3811 265.524078 
L 238.785207 264.982959 
L 239.080065 265.524078 
L 245.489409 265.524078 
L 245.82049 264.44184 
L 246.171234 264.982959 
L 246.488448 264.44184 
L 246.843759 264.44184 
L 247.128709 263.900721 
L 248.317939 263.900721 
L 248.619907 264.44184 
L 248.960993 263.900721 
L 249.385292 262.818483 
L 249.887915 262.818483 
L 250.235559 262.277364 
L 250.495705 263.359602 
L 250.830355 263.359602 
L 251.088901 262.818483 
L 251.904925 263.900721 
L 252.382304 263.359602 
L 252.665925 263.900721 
L 253.26933 263.900721 
L 253.60989 263.359602 
L 253.944301 264.982959 
L 254.266167 264.44184 
L 254.884099 264.44184 
L 255.119649 263.900721 
L 255.4209 264.44184 
L 255.749662 264.44184 
L 256.043056 259.571769 
L 256.159617 260.112888 
L 256.390177 260.112888 
L 256.55079 260.654007 
L 256.69077 260.654007 
L 256.875066 261.195126 
L 256.999961 260.112888 
L 257.616558 261.195126 
L 258.146322 261.195126 
L 258.403951 262.277364 
L 258.659279 261.195126 
L 258.825512 261.736245 
L 259.762744 261.736245 
L 260.041755 261.195126 
L 260.306361 261.195126 
L 260.638867 261.736245 
L 260.946332 261.736245 
L 261.310808 261.195126 
L 261.662533 261.736245 
L 261.935437 261.736245 
L 262.364902 262.818483 
L 264.116812 262.818483 
L 264.404976 261.195126 
L 265.762755 261.195126 
L 266.074588 261.736245 
L 266.319882 262.277364 
L 266.800146 262.277364 
L 266.949981 263.359602 
L 267.018714 262.818483 
L 267.181221 263.359602 
L 267.638318 263.359602 
L 267.862395 264.44184 
L 268.472508 264.44184 
L 268.7573 265.524078 
L 269.699146 265.524078 
L 269.925017 267.147436 
L 270.13344 267.688555 
L 270.253721 267.688555 
L 270.65946 268.229674 
L 270.802264 267.688555 
L 270.87147 268.229674 
L 271.317584 268.229674 
L 271.841506 268.770793 
L 273.016915 268.770793 
L 273.32006 268.229674 
L 273.610526 268.770793 
L 273.937956 268.770793 
L 274.094878 269.311912 
L 274.132622 268.770793 
L 274.318873 269.311912 
L 274.464544 269.311912 
L 274.608401 270.39415 
L 275.162338 271.476388 
L 275.565704 270.935269 
L 275.872378 271.476388 
L 276.475272 271.476388 
L 276.80249 272.558626 
L 276.922281 272.017507 
L 277.116886 273.640864 
L 277.392647 273.099745 
L 277.571491 273.640864 
L 277.712903 273.099745 
L 277.86917 274.181983 
L 278.187679 274.181983 
L 278.282015 274.723102 
L 278.655697 274.181983 
L 278.94471 275.264221 
L 279.596763 275.264221 
L 279.83149 276.346459 
L 280.164428 275.264221 
L 280.390618 275.264221 
L 280.473544 275.80534 
L 281.08209 275.80534 
L 281.366746 277.969816 
L 281.776125 275.80534 
L 281.839597 276.346459 
L 282.378628 275.80534 
L 282.429671 276.887578 
L 282.615066 276.887578 
L 282.988649 277.428697 
L 283.29183 276.887578 
L 283.520875 276.887578 
L 283.859817 277.969816 
L 284.22856 277.969816 
L 284.586149 277.428697 
L 284.8534 277.969816 
L 285.015785 277.428697 
L 285.177293 278.510935 
L 286.608403 278.510935 
L 287.048252 279.052055 
L 287.946319 279.052055 
L 288.264967 277.969816 
L 288.86553 277.969816 
L 289.166109 278.510935 
L 291.90054 278.510935 
L 292.269569 277.969816 
L 292.615488 279.052055 
L 296.811949 279.052055 
L 297.732539 279.593174 
L 298.279317 279.593174 
L 298.723377 280.134293 
L 299.074303 280.134293 
L 299.280518 280.675412 
L 303.951599 280.675412 
L 304.330991 280.134293 
L 304.631781 280.675412 
L 304.928937 280.134293 
L 305.130745 276.887578 
L 306.976091 276.887578 
L 307.140739 277.428697 
L 307.459892 277.428697 
L 307.565435 276.887578 
L 309.475627 276.887578 
L 309.740624 277.428697 
L 309.840773 276.887578 
L 310.29468 276.887578 
L 310.504495 277.969816 
L 310.768976 276.887578 
L 310.966439 277.969816 
L 311.10659 277.969816 
L 311.287353 276.887578 
L 311.445446 277.969816 
L 311.546758 276.887578 
L 311.587563 277.969816 
L 312.674858 277.969816 
L 312.847453 278.510935 
L 312.872765 279.052055 
L 313.426441 279.052055 
L 313.459073 279.593174 
L 313.778091 279.593174 
L 313.943279 280.134293 
L 314.084117 279.593174 
L 314.257141 280.134293 
L 314.37415 279.593174 
L 314.648579 280.134293 
L 314.76464 279.593174 
L 314.780555 280.134293 
L 315.128414 280.134293 
L 315.34637 280.675412 
L 315.483837 280.675412 
L 315.689697 281.75765 
L 315.918116 282.298769 
L 316.075873 281.75765 
L 317.83299 281.75765 
L 318.084227 282.298769 
L 319.430863 282.298769 
L 319.645676 282.839888 
L 319.929619 282.839888 
L 320.140319 283.381007 
L 320.368391 282.839888 
L 320.813607 282.839888 
L 321.00163 283.922126 
L 321.513398 283.922126 
L 321.562544 284.463245 
L 321.744431 283.922126 
L 321.942634 285.004364 
L 322.149046 285.545483 
L 322.206736 285.004364 
L 322.440714 287.16884 
L 323.388327 287.16884 
L 323.483593 287.709959 
L 323.691189 287.709959 
L 323.812798 288.792197 
L 323.95552 287.709959 
L 325.213513 287.709959 
L 325.286305 288.251078 
L 325.527601 287.709959 
L 325.643131 288.251078 
L 325.856734 287.709959 
L 326.134195 287.709959 
L 326.304345 288.792197 
L 326.614506 288.792197 
L 326.741731 288.251078 
L 326.850736 289.333316 
L 327.17266 287.709959 
L 327.510013 288.792197 
L 327.754394 287.709959 
L 328.32647 287.709959 
L 328.771689 289.333316 
L 328.910226 288.792197 
L 329.063647 289.333316 
L 329.477627 288.251078 
L 329.610186 289.333316 
L 330.592647 289.333316 
L 330.751008 289.874435 
L 331.026976 289.874435 
L 331.17409 289.333316 
L 331.359761 289.874435 
L 331.477164 289.333316 
L 331.950985 290.415554 
L 332.323089 290.415554 
L 332.667458 291.497793 
L 334.158992 291.497793 
L 334.322068 292.038912 
L 334.521542 291.497793 
L 334.620237 292.038912 
L 334.823609 291.497793 
L 335.093711 291.497793 
L 335.267926 292.038912 
L 335.495365 291.497793 
L 335.747163 291.497793 
L 335.859962 292.038912 
L 336.371262 292.038912 
L 336.405727 293.12115 
L 338.592529 293.12115 
L 338.808262 293.662269 
L 338.949863 293.12115 
L 339.069829 293.662269 
L 339.160953 293.12115 
L 339.181336 293.662269 
L 339.270259 294.203388 
L 339.773876 294.203388 
L 340.011442 294.744507 
L 340.059589 294.203388 
L 340.108917 294.744507 
L 340.380199 294.203388 
L 340.450311 294.744507 
L 340.715608 295.285626 
L 340.819519 295.826745 
L 341.01789 295.826745 
L 341.063502 296.367864 
L 341.3397 297.991221 
L 341.464015 297.450102 
L 341.631798 297.450102 
L 341.662025 298.53234 
L 342.840849 298.53234 
L 342.987265 299.073459 
L 343.218205 298.53234 
L 343.618234 299.073459 
L 343.725148 298.53234 
L 343.900173 299.073459 
L 344.115276 299.073459 
L 344.243282 299.614578 
L 344.541433 299.614578 
L 344.548743 300.155697 
L 344.640651 299.614578 
L 344.728754 300.696816 
L 344.858972 300.696816 
L 345.039227 301.237935 
L 346.275748 301.237935 
L 346.308381 300.696816 
L 346.386224 301.779054 
L 346.712319 301.779054 
L 346.878856 301.237935 
L 347.007052 301.779054 
L 347.200057 301.237935 
L 347.344666 301.779054 
L 347.507137 301.779054 
L 347.646744 301.237935 
L 347.78517 302.861292 
L 349.442279 302.861292 
L 349.940606 303.94353 
L 350.202918 303.402411 
L 356.462743 303.402411 
L 356.569023 303.94353 
L 356.759115 303.402411 
L 356.813902 303.94353 
L 357.381911 303.94353 
L 357.539195 304.48465 
L 358.336397 304.48465 
L 358.442914 305.025769 
L 358.593057 304.48465 
L 359.81425 304.48465 
L 359.983637 305.025769 
L 360.314732 304.48465 
L 360.502432 305.566888 
L 360.605688 305.025769 
L 361.063354 305.025769 
L 361.262767 305.566888 
L 362.201413 305.566888 
L 362.354315 304.48465 
L 362.664136 305.566888 
L 364.331136 305.566888 
L 364.615917 306.108007 
L 364.654742 306.108007 
L 364.819186 306.649126 
L 364.942098 306.649126 
L 365.094245 307.190245 
L 365.450226 307.190245 
L 365.513289 307.731364 
L 365.810052 307.731364 
L 365.997505 306.649126 
L 366.143878 307.190245 
L 366.367934 307.190245 
L 366.459295 307.731364 
L 366.802063 307.731364 
L 367.108638 308.272483 
L 367.44294 309.89584 
L 367.552393 309.354721 
L 367.654306 309.89584 
L 367.888228 310.436959 
L 367.999151 309.89584 
L 368.296891 310.436959 
L 368.493802 309.89584 
L 368.654623 309.89584 
L 368.969688 311.519197 
L 369.273338 310.978078 
L 369.587806 312.060316 
L 369.649555 311.519197 
L 369.85394 312.060316 
L 369.995467 311.519197 
L 370.112143 312.060316 
L 370.615997 312.060316 
L 370.803597 304.48465 
L 371.304631 305.566888 
L 371.635447 305.566888 
L 371.75116 306.108007 
L 372.183972 305.025769 
L 372.34137 305.566888 
L 372.557576 305.566888 
L 372.663957 305.025769 
L 372.799115 305.566888 
L 372.98345 305.025769 
L 373.055903 305.566888 
L 373.439054 306.108007 
L 373.720603 305.025769 
L 373.975669 305.566888 
L 375.10886 305.566888 
L 375.37774 306.108007 
L 375.660055 305.566888 
L 376.167868 305.566888 
L 376.557184 306.649126 
L 376.69072 305.025769 
L 376.915477 305.566888 
L 377.201995 305.025769 
L 377.333061 306.649126 
L 377.491305 305.566888 
L 377.640856 305.566888 
L 377.740454 306.108007 
L 377.814782 308.272483 
L 377.828124 307.731364 
L 378.157848 308.272483 
L 378.971667 308.272483 
L 379.356636 309.354721 
L 379.515441 308.813602 
L 380.085556 308.813602 
L 380.240892 308.272483 
L 380.406914 308.813602 
L 380.58902 308.813602 
L 380.696002 308.272483 
L 381.02147 308.813602 
L 381.212671 308.813602 
L 381.338021 309.354721 
L 381.491328 308.813602 
L 381.656029 308.813602 
L 381.810378 308.272483 
L 381.905987 308.813602 
L 382.765776 308.813602 
L 382.980879 310.436959 
L 383.24095 309.89584 
L 383.456046 309.89584 
L 383.630183 309.354721 
L 383.709358 309.89584 
L 383.979094 309.354721 
L 384.079934 309.89584 
L 384.31756 309.89584 
L 384.410524 310.436959 
L 384.6945 309.89584 
L 385.279674 309.89584 
L 385.496624 310.436959 
L 385.858025 310.436959 
L 385.949149 310.978078 
L 386.103161 310.436959 
L 386.729197 312.060316 
L 386.875656 312.060316 
L 387.151231 312.601435 
L 389.392869 312.601435 
L 389.63168 313.142554 
L 389.855607 313.142554 
L 389.901198 312.060316 
L 389.95766 312.601435 
L 390.322995 312.601435 
L 390.406383 313.142554 
L 390.887091 313.142554 
L 391.116667 313.683673 
L 391.425006 313.683673 
L 391.435262 313.142554 
L 391.537763 313.683673 
L 391.632026 313.142554 
L 392.974667 313.142554 
L 393.226419 312.601435 
L 393.928691 313.142554 
L 395.385027 313.142554 
L 395.448043 313.683673 
L 396.976241 313.683673 
L 397.113897 314.224792 
L 398.527169 316.930387 
L 398.661113 316.930387 
L 398.800857 317.471507 
L 398.86309 316.930387 
L 399.164044 317.471507 
L 399.443649 318.012626 
L 399.778041 318.012626 
L 399.890336 318.553745 
L 400.312928 318.553745 
L 400.925003 318.012626 
L 400.955838 319.635983 
L 401.448445 319.635983 
L 401.601122 319.094864 
L 401.712017 319.635983 
L 402.843743 319.635983 
L 403.106463 319.094864 
L 404.320157 319.094864 
L 405.069592 319.635983 
L 406.583495 319.635983 
L 407.328967 320.177102 
L 407.428668 320.718221 
L 409.670654 320.718221 
L 409.881278 320.177102 
L 411.019441 320.177102 
L 411.850499 319.635983 
L 412.456102 319.635983 
L 412.756638 320.177102 
L 413.023457 321.25934 
L 413.182316 321.25934 
L 413.188516 320.718221 
L 414.97043 320.718221 
L 415.161674 321.25934 
L 419.663279 321.25934 
L 420.23088 321.800459 
L 420.449623 321.800459 
L 420.535009 322.341578 
L 420.813211 322.341578 
L 420.930045 321.800459 
L 421.111155 322.341578 
L 422.128038 322.341578 
L 422.581312 322.882697 
L 422.896173 323.964935 
L 425.653768 323.964935 
L 426.13913 323.423816 
L 426.279561 323.964935 
L 426.42162 323.423816 
L 426.581317 323.964935 
L 427.337635 323.964935 
L 427.686335 323.423816 
L 427.863283 323.964935 
L 428.351193 322.882697 
L 428.541353 323.964935 
L 429.72207 323.964935 
L 429.736038 324.506054 
L 431.607219 324.506054 
L 432.517009 325.047173 
L 432.790035 324.506054 
L 433.2973 324.506054 
L 433.420269 325.047173 
L 433.853701 323.423816 
L 434.139867 323.964935 
L 434.659286 323.423816 
L 434.809543 323.423816 
L 434.938959 323.964935 
L 435.724602 323.964935 
L 436.658079 323.423816 
L 436.798585 323.964935 
L 437.727444 323.964935 
L 438.029017 323.423816 
L 442.756592 323.964935 
L 443.110576 323.423816 
L 443.416503 323.964935 
L 443.690635 323.423816 
L 443.721305 323.964935 
L 443.959963 324.506054 
L 444.098178 324.506054 
L 444.224608 325.047173 
L 446.422621 325.047173 
L 446.469457 325.588292 
L 446.742673 325.588292 
L 447.472197 325.047173 
L 447.495404 325.588292 
L 447.775693 325.047173 
L 447.843818 326.129411 
L 448.024227 326.129411 
L 448.390235 326.67053 
L 449.003595 326.67053 
L 449.376032 326.129411 
L 449.794786 327.211649 
L 449.811962 327.752768 
L 450.218753 328.293887 
L 450.517942 327.752768 
L 450.938641 327.752768 
L 451.026096 328.293887 
L 451.983964 328.293887 
L 452.115922 327.752768 
L 452.277469 328.835006 
L 452.410619 328.835006 
L 452.663327 328.293887 
L 452.893153 328.835006 
L 453.40567 328.835006 
L 453.631386 329.917245 
L 455.24119 329.917245 
L 455.551494 330.458364 
L 455.745409 329.917245 
L 455.795421 330.458364 
L 456.309083 330.458364 
L 456.412396 330.999483 
L 456.692997 330.999483 
L 456.773142 332.081721 
L 457.210937 332.081721 
L 457.375427 333.705078 
L 457.717927 333.705078 
L 457.918239 333.163959 
L 458.026456 333.705078 
L 458.172131 333.705078 
L 458.183257 335.328435 
L 458.45577 335.328435 
L 458.804259 334.787316 
L 458.962356 334.787316 
L 459.09741 335.328435 
L 459.43327 335.328435 
L 459.781301 334.787316 
L 459.817097 335.869554 
L 460.125251 335.869554 
L 460.182053 336.410673 
L 460.396766 336.951792 
L 460.96397 336.951792 
L 461.047337 338.03403 
L 461.290751 338.03403 
L 461.433459 338.575149 
L 461.570396 338.575149 
L 462.061463 339.116268 
L 462.253653 338.575149 
L 462.368106 330.999483 
L 462.492235 330.458364 
L 462.576304 332.62284 
L 463.181857 332.62284 
L 463.430752 332.081721 
L 463.612098 333.163959 
L 463.752397 333.163959 
L 464.112076 333.705078 
L 464.507677 333.705078 
L 464.688186 333.163959 
L 464.829519 333.705078 
L 465.783381 333.705078 
L 465.900831 334.246197 
L 466.335704 333.163959 
L 466.689323 333.705078 
L 466.891962 333.705078 
L 466.969791 334.246197 
L 467.148693 333.163959 
L 467.322597 334.246197 
L 468.04416 334.246197 
L 468.156 333.705078 
L 468.413028 333.705078 
L 468.453461 334.246197 
L 468.744489 334.787316 
L 468.755847 334.246197 
L 469.303158 334.246197 
L 469.584858 334.787316 
L 471.046677 334.787316 
L 471.156287 335.328435 
L 471.446187 334.787316 
L 471.455867 335.328435 
L 471.87214 335.869554 
L 472.127916 335.869554 
L 472.422251 336.410673 
L 472.681578 336.951792 
L 473.035153 335.869554 
L 473.105 336.951792 
L 473.342759 336.410673 
L 473.542881 336.951792 
L 474.436014 336.951792 
L 474.536084 337.492911 
L 474.660804 336.951792 
L 475.093004 337.492911 
L 475.301767 336.951792 
L 475.51334 337.492911 
L 475.640458 336.951792 
L 475.936505 338.03403 
L 476.141051 337.492911 
L 476.840675 337.492911 
L 477.119013 338.03403 
L 477.525428 338.03403 
L 477.84878 336.951792 
L 477.934965 337.492911 
L 478.280461 337.492911 
L 478.368142 338.575149 
L 478.803889 337.492911 
L 478.956061 338.03403 
L 479.307152 337.492911 
L 479.563432 337.492911 
L 479.694728 338.03403 
L 479.877947 338.03403 
L 480.008558 334.787316 
L 480.419549 335.328435 
L 480.472793 334.246197 
L 480.620354 335.328435 
L 480.755638 334.787316 
L 480.836835 335.328435 
L 481.158953 334.787316 
L 481.545447 335.328435 
L 481.740132 335.328435 
L 482.007376 334.787316 
L 482.387245 334.787316 
L 482.776725 335.869554 
L 482.980741 335.328435 
L 483.393285 335.328435 
L 483.586205 334.787316 
L 483.614606 334.246197 
L 483.854938 335.328435 
L 483.982393 334.787316 
L 484.13231 335.328435 
L 484.355073 334.787316 
L 484.607201 334.787316 
L 484.769171 334.246197 
L 485.076343 334.246197 
L 485.396148 335.328435 
L 485.613152 334.787316 
L 485.877418 335.869554 
L 486.015042 335.869554 
L 486.101427 335.328435 
L 486.370196 335.328435 
L 486.392756 335.869554 
L 487.283738 335.869554 
L 487.429703 336.410673 
L 487.554727 336.410673 
L 487.747457 336.951792 
L 487.91369 336.410673 
L 488.040468 336.951792 
L 488.229475 336.410673 
L 488.335874 336.951792 
L 488.473201 336.410673 
L 488.517446 336.951792 
L 488.669471 338.03403 
L 488.855206 337.492911 
L 488.913659 336.951792 
L 489.109539 337.492911 
L 489.269615 336.951792 
L 489.576662 337.492911 
L 489.778739 337.492911 
L 489.866777 338.03403 
L 490.085206 337.492911 
L 490.658856 339.116268 
L 490.813169 339.116268 
L 490.972784 338.03403 
L 491.048243 338.575149 
L 491.27391 338.575149 
L 491.376582 338.03403 
L 491.561107 338.03403 
L 491.729105 338.575149 
L 491.945082 338.575149 
L 492.307682 340.198506 
L 492.500594 339.657387 
L 495.036464 339.657387 
L 495.154472 340.198506 
L 495.30412 340.198506 
L 495.424466 339.657387 
L 495.665922 340.198506 
L 496.26748 338.03403 
L 496.368112 339.116268 
L 497.004626 338.03403 
L 497.450253 338.03403 
L 498.06003 339.116268 
L 499.137997 338.575149 
L 499.411752 339.116268 
L 499.71334 338.575149 
L 499.928733 339.657387 
L 500.015122 338.575149 
L 500.299058 339.657387 
L 500.608418 338.575149 
L 500.710825 339.657387 
L 500.909204 339.657387 
L 501.018255 339.116268 
L 501.215918 339.657387 
L 501.334541 339.657387 
L 501.445035 339.116268 
L 501.579288 340.739625 
L 501.931378 339.657387 
L 502.26069 339.657387 
L 502.461911 340.198506 
L 502.841662 340.198506 
L 503.150491 339.657387 
L 503.331036 339.657387 
L 503.467522 340.739625 
L 503.637772 340.198506 
L 503.732823 340.739625 
L 503.96233 341.280744 
L 504.103055 341.280744 
L 504.34909 340.198506 
L 504.584357 341.821863 
L 504.880064 341.821863 
L 504.902508 342.904102 
L 504.923159 342.362982 
L 505.077812 341.821863 
L 505.240383 342.904102 
L 505.308193 341.821863 
L 505.553258 341.821863 
L 505.586649 342.362982 
L 505.862754 342.904102 
L 506.027999 342.904102 
L 506.105452 341.821863 
L 506.475985 342.904102 
L 506.535991 341.821863 
L 506.73781 342.904102 
L 506.893061 341.280744 
L 507.365005 342.362982 
L 507.720536 340.739625 
L 507.748028 341.280744 
L 507.973225 340.739625 
L 508.115596 340.739625 
L 508.263398 341.821863 
L 508.439904 340.739625 
L 508.779251 341.821863 
L 508.907998 340.739625 
L 509.047398 341.280744 
L 509.331467 341.280744 
L 509.519063 340.739625 
L 509.878173 340.739625 
L 509.889134 341.280744 
L 510.45433 340.198506 
L 510.754081 341.821863 
L 510.913169 341.821863 
L 511.098586 341.280744 
L 511.150996 342.362982 
L 511.414214 341.280744 
L 511.576291 342.362982 
L 511.739682 341.280744 
L 511.807205 341.821863 
L 512.142302 341.821863 
L 512.343119 342.362982 
L 512.434966 343.445221 
L 512.621947 342.362982 
L 512.929574 342.904102 
L 513.065656 343.445221 
L 513.233797 342.904102 
L 513.377356 345.068578 
L 513.602693 345.068578 
L 513.900691 345.609697 
L 513.936642 344.527459 
L 514.229932 345.609697 
L 514.647416 344.527459 
L 514.760222 346.150816 
L 515.098738 346.691935 
L 515.467438 345.609697 
L 515.701119 345.068578 
L 516.350695 345.609697 
L 516.4285 346.150816 
L 516.671517 346.150816 
L 517.119503 346.691935 
L 517.34145 346.691935 
L 517.618013 347.233054 
L 517.897761 348.856411 
L 518.615992 348.315292 
L 518.84735 348.315292 
L 519.168164 346.691935 
L 519.473128 346.691935 
L 519.551738 346.150816 
L 519.783436 347.233054 
L 519.835055 346.150816 
L 520.088643 346.691935 
L 520.548653 346.691935 
L 520.784715 347.774173 
L 521.001386 346.691935 
L 521.297315 347.774173 
L 521.412684 347.233054 
L 521.570734 347.774173 
L 521.983375 346.691935 
L 522.221871 347.233054 
L 522.919457 347.233054 
L 523.085962 346.691935 
L 523.48999 347.774173 
L 523.654215 346.691935 
L 523.795866 346.691935 
L 523.850947 347.233054 
L 524.051763 347.233054 
L 524.268348 347.774173 
L 524.416551 346.691935 
L 524.646656 347.774173 
L 524.74771 346.691935 
L 525.029875 347.774173 
L 525.203378 347.774173 
L 525.315344 347.233054 
L 525.498824 347.233054 
L 525.550672 346.691935 
L 525.561318 347.233054 
L 525.874547 347.233054 
L 525.980527 346.691935 
L 526.267857 347.774173 
L 526.532453 346.691935 
L 526.985905 347.233054 
L 527.954928 347.233054 
L 528.187313 346.691935 
L 528.434372 347.233054 
L 528.593403 346.691935 
L 528.69164 347.233054 
L 529.379851 347.233054 
L 529.589968 346.691935 
L 530.072408 347.774173 
L 530.189711 347.233054 
L 530.575597 347.774173 
L 530.997036 347.233054 
L 531.22087 347.774173 
L 531.747483 346.691935 
L 531.885659 346.150816 
L 532.114594 346.150816 
L 532.555528 347.774173 
L 532.675465 347.774173 
L 532.827727 346.691935 
L 533.185344 346.691935 
L 533.385928 347.233054 
L 533.538039 347.233054 
L 533.695312 346.691935 
L 533.992257 346.691935 
L 534.397721 347.233054 
L 534.622797 347.233054 
L 534.714937 347.774173 
L 534.931268 346.691935 
L 535.045245 347.774173 
L 535.18695 347.233054 
L 535.276446 347.774173 
L 535.844616 347.774173 
L 535.865182 348.856411 
L 535.956932 348.315292 
L 536.128589 348.315292 
L 536.231164 347.774173 
L 536.392511 348.315292 
L 536.570414 347.774173 
L 537.024085 348.315292 
L 537.409416 348.315292 
L 537.555771 349.39753 
L 537.61349 348.856411 
L 537.785937 349.39753 
L 538.017206 348.856411 
L 538.125473 348.315292 
L 538.28686 348.856411 
L 538.446012 348.315292 
L 538.637443 349.39753 
L 538.718548 348.315292 
L 538.89054 334.787316 
L 539.360141 334.787316 
L 539.489575 334.246197 
L 539.612598 336.410673 
L 540.298067 335.869554 
L 540.807373 335.869554 
L 540.906419 336.410673 
L 541.033791 336.410673 
L 541.432968 335.328435 
L 541.734914 335.328435 
L 541.747787 335.869554 
L 542.125794 336.410673 
L 542.393514 335.869554 
L 542.662456 334.787316 
L 542.696835 335.869554 
L 542.902301 334.787316 
L 542.982218 335.328435 
L 543.596022 335.328435 
L 543.629195 335.869554 
L 543.880535 335.869554 
L 544.051747 335.328435 
L 544.216742 335.328435 
L 544.269503 334.787316 
L 544.62427 335.869554 
L 544.940102 334.787316 
L 545.104502 334.787316 
L 545.609724 335.328435 
L 545.707922 334.787316 
L 545.788754 335.869554 
L 546.116012 336.951792 
L 546.336173 335.869554 
L 546.662436 336.951792 
L 546.986218 335.869554 
L 547.104065 336.951792 
L 547.395726 335.869554 
L 547.517271 335.869554 
L 547.566183 336.951792 
L 547.711418 336.410673 
L 547.88083 336.951792 
L 548.155112 336.951792 
L 548.188196 338.03403 
L 548.399601 337.492911 
L 548.520268 337.492911 
L 548.60869 336.951792 
L 548.857202 337.492911 
L 549.114731 338.575149 
L 549.128123 340.198506 
L 549.276418 339.116268 
L 549.280864 340.739625 
L 549.458191 340.739625 
L 549.581976 341.280744 
L 549.823973 340.739625 
L 550.198161 341.280744 
L 550.401912 340.739625 
L 550.63907 340.739625 
L 550.738187 341.280744 
L 551.014453 341.821863 
L 551.16433 340.739625 
L 551.282639 340.739625 
L 551.575782 342.362982 
L 551.75899 342.904102 
L 552.333257 342.362982 
L 552.551635 342.362982 
L 552.692145 341.821863 
L 552.99888 344.527459 
L 553.160929 344.527459 
L 553.301839 345.068578 
L 553.576744 341.821863 
L 553.790741 341.280744 
L 554.053386 342.362982 
L 554.147485 341.280744 
L 554.391494 342.904102 
L 554.427022 343.445221 
L 554.679966 343.98634 
L 554.863961 343.445221 
L 555.044431 343.98634 
L 555.353375 342.904102 
L 555.384787 343.445221 
L 555.614012 343.445221 
L 555.726256 342.904102 
L 555.929478 342.904102 
L 556.886541 345.068578 
L 557.013251 344.527459 
L 557.290902 344.527459 
L 557.823773 342.904102 
L 558.08088 343.445221 
L 558.416002 343.445221 
L 558.559307 342.362982 
L 558.83311 342.362982 
L 559.15333 342.904102 
L 559.293077 342.362982 
L 559.465238 342.904102 
L 559.679146 342.904102 
L 560.032607 344.527459 
L 560.300392 344.527459 
L 560.412865 343.445221 
L 560.543223 343.98634 
L 561.310831 343.98634 
L 561.336509 344.527459 
L 561.536212 344.527459 
L 561.567104 345.609697 
L 561.844315 345.609697 
L 561.941181 343.445221 
L 562.153198 343.98634 
L 562.239615 344.527459 
L 562.464874 343.98634 
L 562.615632 345.068578 
L 562.760412 344.527459 
L 562.777029 345.068578 
L 563.394008 345.068578 
L 563.486256 345.609697 
L 563.606136 345.609697 
L 563.715735 345.068578 
L 563.715735 345.068578 
" clip-path="url(#p01a82434d1)" style="fill: none; stroke-dasharray: 3,1.5; stroke-dashoffset: 0; stroke: #808080; stroke-width: 1.5"/>
   </g>
   <g id="line2d_19">
    <path d="M 38.539265 299.614578 
L 39.803679 299.073459 
L 41.064013 297.991221 
L 44.048606 297.991221 
L 47.339477 297.450102 
L 47.583611 297.991221 
L 47.735869 297.991221 
L 47.839977 296.908983 
L 48.080256 297.450102 
L 48.435636 296.908983 
L 49.127559 296.908983 
L 49.512926 294.203388 
L 49.598888 296.908983 
L 49.798914 293.662269 
L 49.862525 294.203388 
L 50.08667 294.203388 
L 50.445218 293.662269 
L 51.032994 293.662269 
L 51.333916 291.497793 
L 51.801683 291.497793 
L 52.276506 292.580031 
L 52.578567 288.251078 
L 52.645432 288.792197 
L 52.929683 288.251078 
L 53.479536 286.627721 
L 53.852489 287.709959 
L 54.441987 287.709959 
L 54.771428 288.792197 
L 54.994135 288.251078 
L 55.665081 287.709959 
L 55.966154 287.709959 
L 56.29354 286.627721 
L 56.763305 286.627721 
L 57.249154 283.381007 
L 58.555228 281.75765 
L 58.733092 281.216531 
L 59.109835 281.216531 
L 59.347404 280.675412 
L 59.725923 280.675412 
L 60.00459 281.75765 
L 60.288452 282.298769 
L 60.604942 282.298769 
L 60.79028 281.75765 
L 63.050557 281.75765 
L 63.41184 281.216531 
L 63.996599 281.216531 
L 64.320202 280.675412 
L 64.630299 280.675412 
L 64.750705 281.216531 
L 65.516566 280.675412 
L 65.837553 281.216531 
L 66.722543 281.216531 
L 67.006676 280.675412 
L 67.356003 281.216531 
L 68.966776 281.216531 
L 69.296801 280.675412 
L 69.477951 279.052055 
L 69.918849 280.134293 
L 70.539784 280.134293 
L 70.829895 279.052055 
L 70.944058 280.134293 
L 71.452709 278.510935 
L 71.760265 278.510935 
L 72.058967 277.969816 
L 72.392368 277.969816 
L 72.698484 278.510935 
L 72.990994 277.428697 
L 73.250686 277.428697 
L 73.956727 276.346459 
L 77.663657 276.346459 
L 77.958333 275.264221 
L 78.586363 275.264221 
L 78.865112 272.558626 
L 79.800031 272.558626 
L 80.694958 270.39415 
L 81.646176 270.39415 
L 81.986872 269.853031 
L 87.733832 269.853031 
L 88.423783 268.229674 
L 88.580079 269.853031 
L 89.68678 269.853031 
L 89.987309 268.770793 
L 90.31888 269.853031 
L 91.107773 269.853031 
L 91.54352 268.770793 
L 91.867005 269.853031 
L 96.752423 269.853031 
L 97.019399 264.982959 
L 97.204497 269.853031 
L 98.974978 269.853031 
L 99.296379 269.311912 
L 99.479831 264.44184 
L 99.913183 269.311912 
L 100.219249 269.311912 
L 100.422421 269.853031 
L 103.628024 269.853031 
L 103.790359 269.311912 
L 104.081681 269.311912 
L 104.561454 267.688555 
L 109.397078 267.688555 
L 110.452436 267.147436 
L 116.947217 267.147436 
L 117.217665 264.44184 
L 117.563247 264.44184 
L 117.869693 267.147436 
L 118.184977 267.147436 
L 118.402224 264.44184 
L 118.637677 267.147436 
L 119.028965 264.44184 
L 119.375567 263.359602 
L 123.394559 263.359602 
L 123.741448 262.818483 
L 125.263335 262.818483 
L 125.576191 261.736245 
L 125.954467 259.571769 
L 126.224682 259.03065 
L 126.530111 255.783936 
L 126.907184 255.783936 
L 127.412774 254.701698 
L 127.7617 254.701698 
L 128.364371 253.61946 
L 130.89388 248.749388 
L 131.152161 249.831626 
L 132.960705 249.831626 
L 133.31354 247.66715 
L 133.624678 248.208269 
L 134.870271 248.208269 
L 135.09801 249.290507 
L 135.498583 248.208269 
L 136.403211 248.208269 
L 136.711081 247.126031 
L 137.008048 247.126031 
L 137.359755 246.584912 
L 137.501679 246.584912 
L 137.660294 244.961555 
L 137.875311 244.961555 
L 138.597554 244.420436 
L 139.194319 246.043793 
L 139.340245 246.043793 
L 139.808059 245.502674 
L 140.108211 244.420436 
L 141.659347 244.420436 
L 141.958834 243.879317 
L 142.28044 243.879317 
L 142.57819 243.338198 
L 142.857115 243.338198 
L 143.505241 242.797079 
L 143.83997 242.797079 
L 144.173761 241.173722 
L 144.718033 241.173722 
L 145.058174 240.632603 
L 145.269529 240.632603 
L 145.387526 250.372745 
L 145.476882 249.831626 
L 145.988382 249.831626 
L 146.291431 248.749388 
L 146.696157 248.749388 
L 146.90463 248.208269 
L 147.363076 248.208269 
L 147.408695 247.66715 
L 148.130892 247.66715 
L 148.518639 246.043793 
L 149.324436 244.420436 
L 150.634176 244.420436 
L 150.917343 243.338198 
L 151.023968 243.879317 
L 151.147441 243.879317 
L 151.489852 244.420436 
L 152.735978 243.879317 
L 155.853632 243.879317 
L 156.214889 244.420436 
L 157.723821 244.420436 
L 157.938577 244.961555 
L 158.331958 244.420436 
L 160.764325 244.420436 
L 161.257165 243.879317 
L 161.636726 243.879317 
L 162.048797 243.338198 
L 162.256139 243.879317 
L 164.242539 243.879317 
L 164.869434 242.797079 
L 166.203605 242.797079 
L 166.42823 235.221412 
L 166.681453 235.221412 
L 168.839445 233.598055 
L 168.972054 234.139174 
L 169.110398 233.598055 
L 169.46949 234.139174 
L 169.770702 234.139174 
L 170.087729 233.598055 
L 170.325799 233.598055 
L 170.708013 232.515817 
L 170.865203 232.515817 
L 171.010678 233.056936 
L 171.33674 231.974698 
L 173.50454 231.974698 
L 173.715434 231.433579 
L 174.067037 231.433579 
L 174.393346 230.89246 
L 174.732113 231.433579 
L 174.881593 231.433579 
L 175.345903 231.974698 
L 175.693772 229.269103 
L 175.941425 230.89246 
L 176.26442 230.89246 
L 176.523313 227.645746 
L 176.704455 228.186865 
L 176.897289 227.104626 
L 176.994413 227.645746 
L 177.113287 226.022388 
L 177.421472 226.022388 
L 177.811951 225.481269 
L 178.576728 226.022388 
L 178.750869 224.94015 
L 179.035464 224.94015 
L 179.237003 226.563507 
L 179.921127 224.94015 
L 180.60138 224.399031 
L 181.1988 224.399031 
L 181.512201 222.775674 
L 181.800272 222.775674 
L 181.970908 223.316793 
L 182.270399 223.316793 
L 183.428726 220.070079 
L 183.621907 222.234555 
L 183.99376 222.775674 
L 184.429901 220.070079 
L 185.602225 220.070079 
L 185.702584 219.52896 
L 186.169708 218.987841 
L 187.414946 218.987841 
L 187.984931 216.282246 
L 191.187967 216.282246 
L 191.440893 215.200008 
L 191.773545 217.364484 
L 191.96721 215.741127 
L 195.459165 215.741127 
L 195.750924 215.200008 
L 196.454506 211.953293 
L 196.718468 213.57665 
L 197.033039 213.035531 
L 197.38136 213.57665 
L 197.626475 213.57665 
L 197.997881 208.16546 
L 198.197033 208.16546 
L 198.235686 207.624341 
L 198.862377 207.624341 
L 199.215112 206.542103 
L 199.526096 204.918746 
L 200.461599 204.377627 
L 200.520793 204.918746 
L 201.028728 205.459865 
L 201.104169 204.918746 
L 203.551636 204.918746 
L 203.721935 204.377627 
L 204.178684 203.836508 
L 204.788601 202.75427 
L 204.947238 201.672032 
L 205.161607 201.672032 
L 205.401754 200.589793 
L 205.690891 201.130912 
L 206.014645 201.130912 
L 206.258593 201.672032 
L 206.6025 201.130912 
L 206.909378 201.130912 
L 207.203503 200.589793 
L 207.441598 200.589793 
L 207.889781 201.130912 
L 208.122779 200.589793 
L 208.363931 201.130912 
L 208.77074 203.836508 
L 209.064224 204.377627 
L 209.737855 203.295389 
L 209.836343 199.507555 
L 209.9865 199.507555 
L 210.261251 198.966436 
L 210.580447 199.507555 
L 210.871872 199.507555 
L 211.230868 200.048674 
L 211.541813 198.966436 
L 212.66405 198.966436 
L 213.110045 198.425317 
L 213.364926 198.425317 
L 213.384704 197.884198 
L 214.656345 197.884198 
L 215.018376 196.80196 
L 216.797638 196.80196 
L 217.152327 195.719722 
L 220.560443 195.719722 
L 220.76456 195.178603 
L 221.315068 195.178603 
L 221.778289 194.637484 
L 222.088587 193.555246 
L 222.181372 194.096365 
L 222.518642 193.014127 
L 223.268929 193.014127 
L 226.307715 191.931889 
L 233.819078 191.931889 
L 234.12504 192.473008 
L 235.593589 192.473008 
L 235.897991 191.931889 
L 236.90673 191.931889 
L 237.254886 191.39077 
L 237.505231 191.931889 
L 237.795772 191.39077 
L 238.117249 191.931889 
L 238.3811 190.849651 
L 238.785207 191.39077 
L 239.080065 190.849651 
L 245.489409 190.849651 
L 245.82049 191.931889 
L 246.171234 191.39077 
L 246.488448 191.931889 
L 246.843759 191.39077 
L 247.128709 191.931889 
L 248.317939 191.931889 
L 248.619907 191.39077 
L 248.960993 191.931889 
L 249.385292 190.849651 
L 249.887915 190.849651 
L 250.235559 191.39077 
L 250.495705 190.308532 
L 250.830355 190.308532 
L 251.088901 190.849651 
L 251.904925 189.767413 
L 252.382304 190.308532 
L 252.665925 189.767413 
L 253.26933 189.767413 
L 253.60989 190.308532 
L 253.944301 188.685175 
L 254.266167 189.226294 
L 254.884099 189.226294 
L 255.119649 189.767413 
L 255.4209 189.226294 
L 255.749662 189.226294 
L 256.043056 193.555246 
L 256.159617 193.014127 
L 256.390177 193.014127 
L 256.55079 192.473008 
L 256.69077 192.473008 
L 256.875066 191.931889 
L 256.999961 193.014127 
L 257.616558 191.931889 
L 258.146322 191.931889 
L 258.403951 190.849651 
L 258.659279 191.931889 
L 258.825512 191.39077 
L 259.762744 191.39077 
L 260.041755 191.931889 
L 260.306361 191.931889 
L 260.638867 191.39077 
L 260.946332 191.39077 
L 261.310808 191.931889 
L 261.662533 191.39077 
L 261.935437 191.39077 
L 262.364902 190.308532 
L 264.116812 190.308532 
L 264.404976 190.849651 
L 265.762755 190.849651 
L 266.074588 190.308532 
L 266.319882 189.767413 
L 266.800146 189.767413 
L 266.949981 188.685175 
L 267.018714 189.226294 
L 267.181221 188.685175 
L 267.638318 188.685175 
L 267.862395 187.602936 
L 268.472508 187.602936 
L 268.7573 186.520698 
L 269.699146 186.520698 
L 269.925017 184.897341 
L 270.13344 184.356222 
L 270.253721 184.356222 
L 270.65946 183.815103 
L 270.802264 184.356222 
L 270.87147 183.815103 
L 271.017893 183.815103 
L 271.189302 183.273984 
L 271.317584 183.273984 
L 271.841506 182.732865 
L 273.016915 182.732865 
L 273.32006 183.273984 
L 273.610526 182.732865 
L 273.937956 182.732865 
L 274.094878 182.191746 
L 274.132622 182.732865 
L 274.318873 182.191746 
L 274.464544 182.191746 
L 274.608401 181.109508 
L 275.162338 180.02727 
L 275.565704 180.568389 
L 275.872378 180.02727 
L 276.475272 180.02727 
L 276.80249 178.945032 
L 276.922281 179.486151 
L 277.116886 177.862794 
L 277.392647 178.403913 
L 277.571491 177.862794 
L 277.712903 178.403913 
L 277.86917 177.321675 
L 278.187679 177.321675 
L 278.282015 176.780556 
L 278.655697 177.321675 
L 278.94471 176.239437 
L 279.596763 176.239437 
L 279.83149 175.157198 
L 280.164428 176.239437 
L 280.390618 176.239437 
L 280.473544 175.698317 
L 281.08209 175.698317 
L 281.366746 173.533841 
L 281.776125 175.698317 
L 281.839597 175.157198 
L 282.378628 175.698317 
L 282.429671 174.616079 
L 282.615066 174.616079 
L 282.988649 174.07496 
L 283.29183 174.616079 
L 283.520875 174.616079 
L 283.859817 173.533841 
L 284.22856 173.533841 
L 284.586149 174.07496 
L 284.8534 173.533841 
L 285.015785 174.07496 
L 285.177293 172.992722 
L 286.608403 172.992722 
L 287.048252 172.451603 
L 287.946319 172.451603 
L 288.264967 173.533841 
L 288.86553 173.533841 
L 289.166109 172.992722 
L 291.90054 172.992722 
L 292.269569 173.533841 
L 292.615488 172.451603 
L 296.811949 172.451603 
L 297.732539 171.910484 
L 298.279317 171.910484 
L 298.723377 171.369365 
L 299.074303 171.369365 
L 299.280518 170.287127 
L 299.607457 170.828246 
L 303.951599 170.828246 
L 304.330991 171.369365 
L 304.631781 170.828246 
L 304.928937 171.369365 
L 305.130745 173.533841 
L 306.976091 173.533841 
L 307.280425 172.451603 
L 307.707566 173.533841 
L 309.475627 173.533841 
L 309.740624 172.451603 
L 309.840773 173.533841 
L 310.29468 173.533841 
L 310.504495 172.451603 
L 310.768976 173.533841 
L 310.966439 172.451603 
L 311.10659 172.451603 
L 311.287353 173.533841 
L 311.445446 172.451603 
L 311.546758 173.533841 
L 311.587563 172.451603 
L 312.674858 172.451603 
L 313.030793 170.828246 
L 313.426441 170.828246 
L 313.459073 170.287127 
L 313.778091 170.287127 
L 313.943279 169.746008 
L 314.084117 170.287127 
L 314.257141 169.746008 
L 314.37415 170.287127 
L 314.648579 169.746008 
L 314.76464 170.287127 
L 314.780555 169.746008 
L 315.128414 169.746008 
L 315.34637 169.204889 
L 315.483837 169.204889 
L 315.689697 168.122651 
L 315.918116 167.581532 
L 316.075873 168.122651 
L 317.83299 168.122651 
L 318.084227 167.581532 
L 319.430863 167.581532 
L 319.645676 167.040413 
L 319.929619 167.040413 
L 320.140319 166.499294 
L 320.368391 167.040413 
L 320.813607 167.040413 
L 321.00163 165.958175 
L 321.513398 165.958175 
L 321.562544 165.417056 
L 321.744431 165.958175 
L 321.917916 165.958175 
L 321.942634 165.417056 
L 322.149046 164.875937 
L 322.206736 165.417056 
L 322.440714 163.25258 
L 323.388327 163.25258 
L 323.483593 162.71146 
L 323.691189 162.71146 
L 323.812798 161.629222 
L 323.95552 162.71146 
L 325.213513 162.71146 
L 325.286305 162.170341 
L 325.527601 162.71146 
L 325.643131 162.170341 
L 325.856734 162.71146 
L 326.134195 162.71146 
L 326.304345 161.629222 
L 326.614506 161.629222 
L 326.741731 162.170341 
L 326.850736 161.088103 
L 327.17266 162.71146 
L 327.510013 161.629222 
L 327.754394 162.71146 
L 328.32647 162.71146 
L 328.771689 161.088103 
L 328.910226 161.629222 
L 329.063647 161.088103 
L 329.477627 162.170341 
L 329.610186 161.088103 
L 330.592647 161.088103 
L 330.751008 160.546984 
L 331.026976 160.546984 
L 331.17409 161.088103 
L 331.359761 160.546984 
L 331.477164 161.088103 
L 331.950985 160.005865 
L 332.323089 160.005865 
L 332.667458 158.923627 
L 333.265711 160.005865 
L 333.393563 159.464746 
L 333.550851 160.005865 
L 333.650595 159.464746 
L 333.85071 159.464746 
L 333.934578 160.005865 
L 334.322068 158.923627 
L 334.521542 159.464746 
L 334.620237 158.923627 
L 334.823609 159.464746 
L 335.093711 159.464746 
L 335.267926 158.923627 
L 335.495365 159.464746 
L 335.747163 160.005865 
L 335.859962 158.923627 
L 336.371262 158.923627 
L 336.405727 157.841389 
L 338.592529 157.841389 
L 338.808262 157.30027 
L 338.949863 157.841389 
L 339.069829 157.30027 
L 339.160953 157.841389 
L 339.181336 157.30027 
L 339.270259 156.759151 
L 339.773876 156.759151 
L 340.011442 156.218032 
L 340.059589 156.759151 
L 340.108917 156.218032 
L 340.380199 156.759151 
L 340.450311 156.218032 
L 340.715608 155.676913 
L 340.819519 155.135794 
L 341.01789 155.135794 
L 341.063502 154.594675 
L 341.3397 152.971318 
L 341.464015 153.512437 
L 341.631798 153.512437 
L 341.662025 152.430199 
L 342.840849 152.430199 
L 342.987265 151.88908 
L 343.218205 152.430199 
L 343.900173 150.806842 
L 344.115276 150.806842 
L 344.243282 150.265723 
L 344.541433 150.265723 
L 344.548743 149.724603 
L 344.640651 150.265723 
L 344.728754 149.183484 
L 344.858972 149.183484 
L 345.039227 148.642365 
L 346.275748 148.642365 
L 346.308381 149.183484 
L 346.386224 148.101246 
L 346.712319 148.101246 
L 346.878856 148.642365 
L 347.007052 148.101246 
L 347.200057 148.642365 
L 347.344666 148.101246 
L 347.507137 148.101246 
L 347.646744 148.642365 
L 347.78517 147.019008 
L 349.442279 147.019008 
L 349.940606 145.93677 
L 350.202918 146.477889 
L 356.462743 146.477889 
L 356.569023 145.93677 
L 356.759115 146.477889 
L 356.813902 145.93677 
L 357.381911 145.93677 
L 357.539195 145.395651 
L 358.336397 145.395651 
L 358.442914 144.854532 
L 358.593057 145.395651 
L 359.81425 145.395651 
L 359.983637 144.854532 
L 360.314732 145.395651 
L 360.502432 144.313413 
L 360.605688 144.854532 
L 361.063354 144.854532 
L 361.262767 144.313413 
L 362.201413 144.313413 
L 362.354315 145.395651 
L 362.664136 144.313413 
L 364.331136 144.313413 
L 364.615917 143.772294 
L 364.654742 143.772294 
L 364.819186 143.231175 
L 364.942098 143.231175 
L 365.094245 142.690056 
L 365.450226 142.690056 
L 365.513289 142.148937 
L 365.810052 142.148937 
L 365.997505 143.231175 
L 366.143878 142.690056 
L 366.367934 142.690056 
L 366.459295 142.148937 
L 366.802063 142.148937 
L 367.108638 141.607818 
L 367.44294 139.984461 
L 367.552393 140.52558 
L 367.654306 139.984461 
L 367.888228 139.443342 
L 367.999151 139.984461 
L 368.296891 139.443342 
L 368.493802 139.984461 
L 368.654623 139.984461 
L 368.969688 138.361104 
L 369.273338 138.902223 
L 369.587806 137.819985 
L 369.649555 138.361104 
L 369.85394 137.819985 
L 369.995467 138.361104 
L 370.112143 137.819985 
L 370.615997 137.819985 
L 370.803597 141.066699 
L 371.304631 139.984461 
L 371.635447 139.984461 
L 371.75116 139.443342 
L 372.183972 140.52558 
L 372.34137 139.984461 
L 372.557576 139.984461 
L 372.663957 140.52558 
L 372.799115 139.984461 
L 372.98345 140.52558 
L 373.055903 139.984461 
L 373.439054 139.443342 
L 373.586265 139.443342 
L 373.720603 139.984461 
L 373.975669 139.443342 
L 375.017134 139.443342 
L 375.10886 136.737746 
L 375.37774 138.902223 
L 375.660055 139.443342 
L 376.167868 139.443342 
L 376.557184 138.361104 
L 376.69072 139.984461 
L 376.915477 139.443342 
L 377.201995 139.984461 
L 377.333061 138.361104 
L 377.491305 139.443342 
L 377.640856 139.443342 
L 377.740454 138.902223 
L 377.828124 134.57327 
L 378.13259 136.737746 
L 378.157848 134.032151 
L 378.971667 134.032151 
L 379.356636 132.949913 
L 379.515441 133.491032 
L 380.085556 133.491032 
L 380.240892 134.032151 
L 380.406914 133.491032 
L 380.58902 133.491032 
L 380.696002 134.032151 
L 381.02147 133.491032 
L 381.212671 133.491032 
L 381.338021 132.949913 
L 381.491328 133.491032 
L 381.656029 133.491032 
L 381.810378 134.032151 
L 381.905987 133.491032 
L 382.765776 133.491032 
L 382.980879 131.867675 
L 383.24095 132.408794 
L 383.456046 132.408794 
L 383.630183 132.949913 
L 383.709358 132.408794 
L 383.979094 132.949913 
L 384.079934 132.408794 
L 384.31756 132.408794 
L 384.410524 131.867675 
L 384.6945 132.408794 
L 385.279674 132.408794 
L 385.496624 131.867675 
L 385.858025 131.867675 
L 385.949149 131.326556 
L 386.103161 131.867675 
L 386.729197 130.244318 
L 386.875656 130.244318 
L 387.151231 129.703199 
L 389.392869 129.703199 
L 389.63168 129.16208 
L 389.855607 129.16208 
L 389.901198 130.244318 
L 389.95766 129.703199 
L 390.322995 129.703199 
L 390.406383 129.16208 
L 390.887091 129.16208 
L 391.116667 128.620961 
L 391.425006 128.620961 
L 391.435262 129.16208 
L 391.537763 128.620961 
L 391.632026 129.16208 
L 392.974667 129.16208 
L 393.226419 129.703199 
L 393.928691 129.16208 
L 395.385027 129.16208 
L 395.448043 128.620961 
L 396.976241 128.620961 
L 397.113897 128.079842 
L 398.527169 125.374247 
L 398.661113 125.374247 
L 398.800857 124.833128 
L 398.86309 125.374247 
L 399.164044 124.833128 
L 399.443649 124.292008 
L 399.778041 124.292008 
L 399.890336 123.750889 
L 400.312928 123.750889 
L 400.925003 124.292008 
L 400.955838 122.668651 
L 401.448445 122.668651 
L 401.601122 123.20977 
L 401.712017 122.668651 
L 402.537924 122.668651 
L 402.843743 123.20977 
L 404.320157 123.20977 
L 405.069592 122.668651 
L 406.583495 122.668651 
L 407.328967 122.127532 
L 407.428668 121.586413 
L 409.670654 121.586413 
L 409.881278 122.127532 
L 411.019441 122.127532 
L 411.850499 122.668651 
L 412.456102 122.668651 
L 412.756638 122.127532 
L 413.023457 121.045294 
L 413.182316 121.045294 
L 413.188516 121.586413 
L 414.97043 121.586413 
L 415.161674 121.045294 
L 419.663279 121.045294 
L 420.23088 120.504175 
L 420.449623 120.504175 
L 420.535009 119.421937 
L 420.813211 119.421937 
L 420.930045 119.963056 
L 421.111155 119.421937 
L 422.128038 119.421937 
L 422.581312 118.880818 
L 422.896173 117.79858 
L 425.653768 117.79858 
L 426.13913 118.339699 
L 426.279561 117.79858 
L 426.42162 118.339699 
L 426.581317 117.79858 
L 427.337635 117.79858 
L 427.686335 118.339699 
L 427.863283 117.79858 
L 428.351193 118.880818 
L 428.541353 117.79858 
L 429.72207 117.79858 
L 429.736038 117.257461 
L 431.607219 117.257461 
L 432.517009 116.716342 
L 432.790035 117.257461 
L 432.988868 116.716342 
L 433.117547 117.257461 
L 433.2973 117.257461 
L 433.420269 116.716342 
L 433.853701 117.79858 
L 434.139867 117.257461 
L 434.659286 117.79858 
L 434.809543 117.79858 
L 434.938959 117.257461 
L 435.724602 117.257461 
L 436.658079 117.79858 
L 436.798585 117.257461 
L 437.727444 117.257461 
L 438.029017 117.79858 
L 442.756592 117.257461 
L 443.110576 117.79858 
L 443.416503 117.257461 
L 443.690635 117.79858 
L 443.721305 117.257461 
L 443.959963 116.716342 
L 444.098178 116.716342 
L 444.224608 116.175223 
L 446.422621 116.175223 
L 446.469457 115.634104 
L 446.742673 115.634104 
L 447.472197 116.175223 
L 447.495404 115.634104 
L 447.775693 116.175223 
L 447.843818 115.092985 
L 448.024227 115.092985 
L 448.390235 114.551866 
L 449.003595 114.551866 
L 449.376032 115.092985 
L 449.794786 114.010747 
L 449.811962 113.469628 
L 450.218753 112.928509 
L 450.517942 113.469628 
L 450.938641 113.469628 
L 451.026096 112.928509 
L 451.983964 112.928509 
L 452.115922 113.469628 
L 452.277469 112.38739 
L 452.410619 112.38739 
L 452.663327 112.928509 
L 452.893153 112.38739 
L 453.40567 112.38739 
L 453.631386 110.764032 
L 455.24119 110.764032 
L 455.551494 110.222913 
L 455.745409 110.764032 
L 455.795421 110.222913 
L 456.309083 110.222913 
L 456.412396 109.681794 
L 456.692997 109.140675 
L 456.773142 108.058437 
L 457.210937 108.058437 
L 457.375427 106.43508 
L 457.717927 106.43508 
L 457.918239 106.976199 
L 458.026456 106.43508 
L 458.172131 106.43508 
L 458.183257 104.811723 
L 458.962356 104.811723 
L 459.09741 104.270604 
L 459.43327 104.270604 
L 459.781301 104.811723 
L 459.817097 103.729485 
L 460.125251 103.729485 
L 460.182053 103.188366 
L 460.396766 102.647247 
L 460.96397 102.647247 
L 461.047337 101.565009 
L 461.290751 101.565009 
L 461.433459 101.02389 
L 461.570396 101.02389 
L 462.061463 100.482771 
L 462.253653 101.02389 
L 462.368106 106.976199 
L 462.492235 107.517318 
L 462.576304 105.352842 
L 463.181857 105.352842 
L 463.430752 105.893961 
L 463.612098 104.811723 
L 464.507677 104.811723 
L 464.688186 105.352842 
L 464.829519 104.811723 
L 465.783381 104.811723 
L 465.900831 104.270604 
L 466.335704 105.352842 
L 466.689323 104.811723 
L 466.891962 104.811723 
L 466.969791 104.270604 
L 467.148693 105.352842 
L 467.322597 104.270604 
L 468.04416 104.270604 
L 468.156 104.811723 
L 468.413028 104.811723 
L 468.453461 104.270604 
L 468.744489 103.729485 
L 468.755847 104.270604 
L 468.990327 103.729485 
L 469.303158 103.729485 
L 469.584858 103.188366 
L 471.046677 103.188366 
L 471.156287 102.647247 
L 471.446187 103.188366 
L 471.455867 102.647247 
L 471.87214 102.106128 
L 472.127916 102.106128 
L 472.422251 101.565009 
L 472.681578 101.02389 
L 473.035153 102.106128 
L 473.105 101.02389 
L 473.342759 101.565009 
L 473.542881 101.02389 
L 474.436014 101.02389 
L 474.536084 100.482771 
L 474.660804 101.02389 
L 475.093004 100.482771 
L 475.301767 101.02389 
L 475.51334 100.482771 
L 475.640458 101.02389 
L 475.936505 99.941652 
L 476.141051 100.482771 
L 476.840675 100.482771 
L 477.119013 99.941652 
L 477.525428 99.941652 
L 477.84878 101.02389 
L 477.934965 100.482771 
L 478.280461 100.482771 
L 478.368142 99.400533 
L 478.803889 100.482771 
L 478.956061 99.941652 
L 479.307152 100.482771 
L 479.563432 100.482771 
L 479.694728 99.941652 
L 480.008558 99.941652 
L 480.419549 99.400533 
L 480.472793 100.482771 
L 480.620354 99.400533 
L 480.755638 99.941652 
L 480.836835 99.400533 
L 481.158953 99.941652 
L 481.545447 99.400533 
L 481.740132 99.400533 
L 482.007376 99.941652 
L 482.387245 99.941652 
L 482.776725 98.859414 
L 482.980741 99.400533 
L 483.393285 99.400533 
L 483.586205 99.941652 
L 483.614606 100.482771 
L 483.854938 99.400533 
L 483.982393 99.941652 
L 484.13231 99.400533 
L 484.355073 99.941652 
L 484.607201 99.941652 
L 484.769171 100.482771 
L 485.076343 100.482771 
L 485.396148 99.400533 
L 485.613152 99.941652 
L 485.877418 98.859414 
L 486.015042 98.859414 
L 486.101427 99.400533 
L 486.370196 99.400533 
L 486.392756 98.859414 
L 487.283738 98.859414 
L 487.429703 98.318294 
L 487.554727 98.318294 
L 487.747457 97.777175 
L 487.91369 98.318294 
L 488.040468 97.777175 
L 488.229475 97.777175 
L 488.335874 97.236056 
L 488.473201 97.777175 
L 488.517446 97.236056 
L 488.669471 96.153818 
L 488.855206 96.694937 
L 488.913659 97.236056 
L 489.109539 96.694937 
L 489.269615 97.236056 
L 489.576662 96.694937 
L 489.778739 96.694937 
L 489.866777 96.153818 
L 490.085206 96.694937 
L 490.658856 95.07158 
L 490.813169 95.07158 
L 490.972784 96.153818 
L 491.048243 95.612699 
L 491.27391 95.612699 
L 491.376582 96.153818 
L 491.561107 96.153818 
L 491.729105 95.612699 
L 491.945082 95.612699 
L 492.307682 93.989342 
L 492.500594 94.530461 
L 495.036464 94.530461 
L 495.154472 93.989342 
L 495.30412 93.989342 
L 495.424466 94.530461 
L 495.665922 93.989342 
L 496.26748 93.989342 
L 496.368112 92.907104 
L 497.004626 93.989342 
L 497.450253 93.989342 
L 498.06003 92.907104 
L 499.137997 93.448223 
L 499.411752 92.907104 
L 499.71334 93.448223 
L 499.928733 92.365985 
L 500.015122 93.448223 
L 500.299058 92.365985 
L 500.608418 93.448223 
L 500.710825 92.365985 
L 500.909204 92.365985 
L 501.018255 92.907104 
L 501.215918 92.365985 
L 501.334541 92.365985 
L 501.445035 92.907104 
L 501.579288 91.283747 
L 501.931378 92.365985 
L 502.26069 92.365985 
L 502.461911 91.824866 
L 502.841662 91.824866 
L 503.150491 92.365985 
L 503.331036 92.365985 
L 503.467522 91.283747 
L 503.637772 92.365985 
L 503.732823 91.824866 
L 503.96233 91.283747 
L 504.103055 91.283747 
L 504.34909 92.365985 
L 504.584357 90.742628 
L 504.880064 90.742628 
L 504.902508 89.66039 
L 504.923159 90.201509 
L 505.077812 90.742628 
L 505.240383 89.66039 
L 505.308193 90.742628 
L 505.553258 90.742628 
L 505.586649 90.201509 
L 505.862754 89.66039 
L 506.027999 89.66039 
L 506.105452 90.742628 
L 506.475985 89.66039 
L 506.535991 90.742628 
L 506.73781 89.66039 
L 506.893061 91.283747 
L 507.365005 90.201509 
L 507.720536 91.824866 
L 507.748028 91.283747 
L 507.973225 91.824866 
L 508.115596 91.824866 
L 508.263398 90.742628 
L 508.439904 91.824866 
L 508.779251 90.742628 
L 508.907998 91.824866 
L 509.047398 91.283747 
L 509.331467 91.283747 
L 509.519063 91.824866 
L 509.878173 91.824866 
L 509.889134 91.283747 
L 510.45433 92.365985 
L 510.754081 90.742628 
L 510.913169 90.742628 
L 511.098586 91.283747 
L 511.150996 90.201509 
L 511.414214 91.283747 
L 511.576291 90.201509 
L 511.739682 91.283747 
L 511.807205 90.742628 
L 512.142302 90.742628 
L 512.343119 90.201509 
L 512.434966 89.119271 
L 512.621947 90.201509 
L 512.929574 89.66039 
L 513.065656 89.119271 
L 513.233797 89.66039 
L 513.377356 87.495914 
L 513.602693 87.495914 
L 513.900691 86.954795 
L 513.936642 88.037033 
L 514.229932 86.954795 
L 514.647416 88.037033 
L 514.760222 86.413676 
L 515.098738 85.872556 
L 515.467438 86.954795 
L 515.701119 87.495914 
L 516.350695 86.954795 
L 516.4285 86.413676 
L 517.34145 86.413676 
L 517.618013 85.872556 
L 517.897761 84.249199 
L 518.615992 84.790318 
L 519.168164 84.790318 
L 519.473128 84.249199 
L 519.551738 84.790318 
L 519.783436 83.70808 
L 519.835055 84.790318 
L 520.088643 84.249199 
L 520.548653 84.249199 
L 520.784715 83.166961 
L 521.001386 84.249199 
L 521.297315 83.166961 
L 521.412684 83.70808 
L 521.570734 83.166961 
L 521.983375 83.70808 
L 522.221871 83.166961 
L 522.919457 83.166961 
L 523.085962 83.70808 
L 523.48999 82.625842 
L 523.654215 83.70808 
L 523.795866 83.70808 
L 523.850947 83.166961 
L 524.051763 83.166961 
L 524.268348 82.625842 
L 524.416551 83.70808 
L 524.646656 82.625842 
L 524.74771 83.70808 
L 525.029875 82.625842 
L 525.203378 82.625842 
L 525.315344 83.166961 
L 525.498824 83.166961 
L 525.550672 83.70808 
L 525.561318 83.166961 
L 525.874547 83.166961 
L 525.980527 83.70808 
L 526.267857 82.625842 
L 526.532453 83.70808 
L 526.985905 83.166961 
L 527.954928 83.166961 
L 528.187313 83.70808 
L 528.434372 83.166961 
L 528.593403 83.70808 
L 528.69164 83.166961 
L 529.379851 83.166961 
L 529.589968 83.70808 
L 530.072408 82.625842 
L 530.189711 83.166961 
L 530.575597 82.625842 
L 530.997036 83.166961 
L 531.22087 82.625842 
L 531.747483 83.70808 
L 531.885659 84.249199 
L 532.114594 84.249199 
L 532.555528 82.625842 
L 532.675465 82.625842 
L 532.827727 83.70808 
L 533.185344 83.70808 
L 533.385928 83.166961 
L 533.538039 83.166961 
L 533.695312 83.70808 
L 533.992257 83.70808 
L 534.397721 83.166961 
L 534.622797 83.166961 
L 534.714937 82.625842 
L 534.931268 83.70808 
L 535.045245 82.625842 
L 535.18695 83.166961 
L 535.276446 82.625842 
L 535.844616 82.625842 
L 535.865182 81.543604 
L 535.956932 82.084723 
L 536.128589 82.084723 
L 536.231164 82.625842 
L 536.392511 82.084723 
L 536.570414 82.625842 
L 537.024085 82.084723 
L 537.409416 82.084723 
L 537.555771 81.002485 
L 537.61349 81.543604 
L 537.785937 81.002485 
L 538.017206 81.543604 
L 538.125473 82.084723 
L 538.28686 81.543604 
L 538.446012 82.084723 
L 538.637443 81.002485 
L 538.718548 82.084723 
L 538.89054 90.201509 
L 539.360141 90.201509 
L 539.489575 90.742628 
L 539.612598 88.578152 
L 540.298067 89.119271 
L 540.807373 89.119271 
L 540.906419 88.578152 
L 541.033791 88.578152 
L 541.432968 89.66039 
L 541.734914 89.66039 
L 541.747787 89.119271 
L 542.125794 88.578152 
L 542.393514 89.119271 
L 542.662456 90.201509 
L 542.696835 89.119271 
L 542.902301 90.201509 
L 542.982218 89.66039 
L 543.596022 89.66039 
L 543.629195 89.119271 
L 543.880535 89.119271 
L 544.051747 89.66039 
L 544.216742 89.66039 
L 544.269503 90.201509 
L 544.62427 89.119271 
L 544.940102 90.201509 
L 545.104502 90.201509 
L 545.609724 89.66039 
L 545.707922 90.201509 
L 545.788754 89.119271 
L 546.116012 88.037033 
L 546.336173 89.119271 
L 546.662436 88.037033 
L 546.986218 89.119271 
L 547.104065 88.037033 
L 547.395726 89.119271 
L 547.517271 89.119271 
L 547.566183 88.037033 
L 547.711418 88.578152 
L 547.88083 88.037033 
L 548.155112 88.037033 
L 548.188196 86.954795 
L 548.399601 87.495914 
L 548.520268 87.495914 
L 548.60869 88.037033 
L 548.857202 87.495914 
L 549.114731 86.413676 
L 549.128123 84.790318 
L 549.276418 85.872556 
L 549.280864 84.249199 
L 549.458191 84.249199 
L 549.581976 83.70808 
L 549.823973 84.249199 
L 550.198161 83.70808 
L 550.401912 84.249199 
L 550.63907 84.249199 
L 550.738187 83.70808 
L 551.014453 83.166961 
L 551.16433 84.249199 
L 551.282639 84.249199 
L 551.575782 82.625842 
L 551.75899 82.084723 
L 552.333257 82.625842 
L 552.551635 82.625842 
L 552.692145 83.166961 
L 552.99888 80.461366 
L 553.160929 80.461366 
L 553.301839 79.920247 
L 553.576744 77.214652 
L 553.790741 77.755771 
L 554.053386 76.673533 
L 554.147485 77.755771 
L 554.391494 76.132414 
L 554.427022 75.591295 
L 554.679966 75.050176 
L 554.863961 75.591295 
L 555.044431 75.050176 
L 555.353375 76.132414 
L 555.384787 75.591295 
L 555.614012 75.591295 
L 555.726256 76.132414 
L 555.929478 76.132414 
L 556.886541 73.967938 
L 557.013251 74.509057 
L 557.290902 74.509057 
L 557.496368 75.050176 
L 557.602269 73.967938 
L 557.823773 74.509057 
L 558.08088 73.967938 
L 558.416002 73.967938 
L 558.559307 74.509057 
L 559.15333 73.426819 
L 559.293077 73.967938 
L 559.465238 73.426819 
L 559.679146 73.426819 
L 560.032607 71.803461 
L 560.300392 71.803461 
L 560.412865 72.885699 
L 560.543223 72.34458 
L 561.310831 72.34458 
L 561.336509 71.803461 
L 561.536212 71.803461 
L 561.567104 70.721223 
L 561.844315 70.721223 
L 561.884131 71.262342 
L 561.941181 70.180104 
L 562.153198 69.638985 
L 562.239615 69.097866 
L 562.464874 69.638985 
L 562.615632 68.556747 
L 562.760412 69.097866 
L 562.777029 68.556747 
L 563.394008 68.556747 
L 563.486256 68.015628 
L 563.606136 68.015628 
L 563.715735 68.556747 
L 563.715735 68.556747 
" clip-path="url(#p01a82434d1)" style="fill: none; stroke-dasharray: 6,1.5; stroke-dashoffset: 0; stroke: #008000; stroke-width: 1.5"/>
   </g>
   <g id="line2d_20">
    <path d="M 38.539265 362.384387 
L 39.803679 363.466625 
L 41.064013 363.466625 
L 42.283108 362.925506 
L 44.048606 362.925506 
L 47.735869 362.384387 
L 47.839977 362.925506 
L 51.032994 362.925506 
L 51.333916 364.007744 
L 51.999683 364.007744 
L 52.276506 360.76103 
L 52.645432 364.007744 
L 54.441987 364.007744 
L 54.771428 360.76103 
L 57.249154 360.76103 
L 58.555228 361.302149 
L 58.733092 361.843268 
L 59.725923 361.843268 
L 60.00459 360.219911 
L 63.050557 360.219911 
L 63.41184 360.76103 
L 72.698484 360.76103 
L 72.990994 360.219911 
L 78.586363 360.219911 
L 78.865112 362.384387 
L 125.263335 362.384387 
L 125.576191 363.466625 
L 125.954467 366.713339 
L 126.224682 366.713339 
L 126.530111 367.254458 
L 128.364371 367.254458 
L 130.89388 368.877816 
L 131.152161 368.877816 
L 131.585231 369.418935 
L 144.371116 369.418935 
L 145.058174 370.501173 
L 174.067037 370.501173 
L 174.393346 371.042292 
L 174.732113 370.501173 
L 176.704455 370.501173 
L 176.994413 371.042292 
L 182.270399 371.042292 
L 183.428726 372.12453 
L 183.621907 371.042292 
L 183.99376 371.042292 
L 184.300267 372.12453 
L 191.440893 372.12453 
L 191.773545 371.583411 
L 191.96721 372.12453 
L 208.77074 372.12453 
L 209.064224 373.206768 
L 246.488448 373.206768 
L 246.843759 373.747887 
L 332.667458 373.747887 
L 333.010674 373.206768 
L 343.218205 373.206768 
L 343.618234 373.747887 
L 343.725148 374.830125 
L 370.615997 374.830125 
L 370.803597 374.289006 
L 373.439054 374.289006 
L 373.586265 374.830125 
L 479.877947 374.830125 
L 480.008558 374.289006 
L 488.040468 374.289006 
L 488.335874 374.830125 
L 518.84735 374.830125 
L 519.168164 374.289006 
L 558.416002 374.289006 
L 558.559307 374.830125 
L 561.844315 374.830125 
L 561.941181 374.289006 
L 563.715735 374.289006 
L 563.715735 374.289006 
" clip-path="url(#p01a82434d1)" style="fill: none; stroke-dasharray: 9,3; stroke-dashoffset: 0; stroke: #ffa500; stroke-width: 1.5"/>
   </g>
   <g id="line2d_21">
    <path d="M 38.539265 325.047173 
L 47.735869 325.047173 
L 47.839977 325.588292 
L 51.032994 325.588292 
L 51.333916 326.129411 
L 51.999683 326.129411 
L 52.276506 327.211649 
L 52.645432 326.129411 
L 54.441987 326.129411 
L 54.994135 327.752768 
L 56.29354 327.752768 
L 56.58629 328.293887 
L 56.763305 327.752768 
L 56.911375 328.293887 
L 70.539784 328.293887 
L 70.829895 329.376125 
L 70.944058 328.293887 
L 71.452709 329.376125 
L 87.733832 329.376125 
L 88.423783 329.917245 
L 88.580079 329.376125 
L 89.68678 329.376125 
L 89.987309 329.917245 
L 90.31888 329.376125 
L 91.107773 329.376125 
L 91.54352 329.917245 
L 91.867005 329.376125 
L 116.947217 329.376125 
L 117.217665 329.917245 
L 117.563247 329.917245 
L 117.869693 329.376125 
L 118.184977 329.376125 
L 118.402224 329.917245 
L 118.637677 329.376125 
L 119.028965 329.917245 
L 125.576191 329.917245 
L 125.954467 329.376125 
L 126.224682 329.376125 
L 126.530111 330.458364 
L 128.018897 330.458364 
L 128.364371 333.163959 
L 130.89388 330.999483 
L 131.152161 331.540602 
L 132.960705 331.540602 
L 133.31354 334.246197 
L 133.624678 334.787316 
L 147.640902 334.787316 
L 148.130892 334.246197 
L 148.518639 334.787316 
L 149.383486 334.246197 
L 151.489852 334.246197 
L 152.735978 334.787316 
L 157.938577 334.787316 
L 158.331958 335.328435 
L 191.187967 335.328435 
L 191.440893 335.869554 
L 191.773545 335.328435 
L 197.626475 335.328435 
L 197.997881 342.362982 
L 198.862377 342.362982 
L 199.215112 346.691935 
L 199.526096 348.315292 
L 218.360139 348.315292 
L 221.00912 348.856411 
L 248.960993 348.856411 
L 249.271741 351.020887 
L 255.749662 351.020887 
L 256.043056 347.774173 
L 271.017893 347.774173 
L 271.189302 348.315292 
L 299.074303 348.315292 
L 299.280518 348.856411 
L 299.607457 348.315292 
L 307.140739 348.315292 
L 307.280425 348.856411 
L 307.565435 348.315292 
L 309.475627 348.315292 
L 309.740624 348.856411 
L 309.840773 348.315292 
L 312.674858 348.315292 
L 312.872765 348.856411 
L 321.744431 348.856411 
L 321.942634 348.315292 
L 333.010674 348.315292 
L 333.265711 347.774173 
L 333.393563 348.315292 
L 333.550851 347.774173 
L 333.650595 348.315292 
L 333.85071 348.315292 
L 333.934578 347.774173 
L 334.158992 348.315292 
L 335.495365 348.315292 
L 335.747163 347.774173 
L 335.859962 348.315292 
L 343.618234 348.315292 
L 343.725148 347.774173 
L 370.615997 347.774173 
L 370.803597 348.315292 
L 375.017134 348.315292 
L 375.10886 351.020887 
L 375.37774 348.315292 
L 377.814782 348.315292 
L 377.828124 351.020887 
L 378.13259 348.315292 
L 378.157848 351.020887 
L 402.537924 351.020887 
L 402.843743 350.479768 
L 403.106463 351.020887 
L 432.790035 351.020887 
L 432.988868 351.562006 
L 433.117547 351.020887 
L 433.420269 351.020887 
L 433.853701 351.562006 
L 453.40567 351.562006 
L 453.631386 352.103125 
L 456.412396 352.103125 
L 456.692997 352.644244 
L 462.253653 352.644244 
L 462.368106 352.103125 
L 468.755847 352.103125 
L 468.990327 352.644244 
L 479.877947 352.644244 
L 480.008558 356.432078 
L 488.040468 356.432078 
L 488.335874 355.890959 
L 495.665922 355.890959 
L 496.368112 358.055435 
L 503.467522 358.055435 
L 503.732823 357.514316 
L 516.671517 357.514316 
L 517.119503 356.973197 
L 518.84735 356.973197 
L 519.168164 359.137673 
L 519.551738 359.678792 
L 521.570734 359.678792 
L 521.983375 360.219911 
L 538.718548 360.219911 
L 538.89054 356.973197 
L 557.496368 356.973197 
L 557.602269 358.596554 
L 558.559307 358.596554 
L 558.83311 359.137673 
L 561.844315 359.137673 
L 561.884131 359.678792 
L 561.941181 362.384387 
L 563.715735 362.384387 
L 563.715735 362.384387 
" clip-path="url(#p01a82434d1)" style="fill: none; stroke-dasharray: 12,4.5; stroke-dashoffset: 0; stroke: #ee82ee; stroke-width: 1.5"/>
   </g>
   <g id="patch_3">
    <path d="M 33.2875 374.830125 
L 33.2875 22.318125 
" style="fill: none; stroke: #000000; stroke-width: 0.8; stroke-linejoin: miter; stroke-linecap: square"/>
   </g>
   <g id="patch_4">
    <path d="M 568.9675 374.830125 
L 568.9675 22.318125 
" style="fill: none; stroke: #000000; stroke-width: 0.8; stroke-linejoin: miter; stroke-linecap: square"/>
   </g>
   <g id="patch_5">
    <path d="M 33.2875 374.830125 
L 568.9675 374.830125 
" style="fill: none; stroke: #000000; stroke-width: 0.8; stroke-linejoin: miter; stroke-linecap: square"/>
   </g>
   <g id="patch_6">
    <path d="M 33.2875 22.318125 
L 568.9675 22.318125 
" style="fill: none; stroke: #000000; stroke-width: 0.8; stroke-linejoin: miter; stroke-linecap: square"/>
   </g>
   <g id="text_17">
    <!-- Rust/Coreutils running GNU's testsuite -->
    <g transform="translate(186.090625 16.318125) scale(0.12 -0.12)">
     <defs>
      <path id="DejaVuSans-52" d="M 2841 2188 
Q 3044 2119 3236 1894 
Q 3428 1669 3622 1275 
L 4263 0 
L 3584 0 
L 2988 1197 
Q 2756 1666 2539 1819 
Q 2322 1972 1947 1972 
L 1259 1972 
L 1259 0 
L 628 0 
L 628 4666 
L 2053 4666 
Q 2853 4666 3247 4331 
Q 3641 3997 3641 3322 
Q 3641 2881 3436 2590 
Q 3231 2300 2841 2188 
z
M 1259 4147 
L 1259 2491 
L 2053 2491 
Q 2509 2491 2742 2702 
Q 2975 2913 2975 3322 
Q 2975 3731 2742 3939 
Q 2509 4147 2053 4147 
L 1259 4147 
z
" transform="scale(0.015625)"/>
      <path id="DejaVuSans-75" d="M 544 1381 
L 544 3500 
L 1119 3500 
L 1119 1403 
Q 1119 906 1312 657 
Q 1506 409 1894 409 
Q 2359 409 2629 706 
Q 2900 1003 2900 1516 
L 2900 3500 
L 3475 3500 
L 3475 0 
L 2900 0 
L 2900 538 
Q 2691 219 2414 64 
Q 2138 -91 1772 -91 
Q 1169 -91 856 284 
Q 544 659 544 1381 
z
M 1991 3584 
L 1991 3584 
z
" transform="scale(0.015625)"/>
      <path id="DejaVuSans-73" d="M 2834 3397 
L 2834 2853 
Q 2591 2978 2328 3040 
Q 2066 3103 1784 3103 
Q 1356 3103 1142 2972 
Q 928 2841 928 2578 
Q 928 2378 1081 2264 
Q 1234 2150 1697 2047 
L 1894 2003 
Q 2506 1872 2764 1633 
Q 3022 1394 3022 966 
Q 3022 478 2636 193 
Q 2250 -91 1575 -91 
Q 1294 -91 989 -36 
Q 684 19 347 128 
L 347 722 
Q 666 556 975 473 
Q 1284 391 1588 391 
Q 1994 391 2212 530 
Q 2431 669 2431 922 
Q 2431 1156 2273 1281 
Q 2116 1406 1581 1522 
L 1381 1569 
Q 847 1681 609 1914 
Q 372 2147 372 2553 
Q 372 3047 722 3315 
Q 1072 3584 1716 3584 
Q 2034 3584 2315 3537 
Q 2597 3491 2834 3397 
z
" transform="scale(0.015625)"/>
      <path id="DejaVuSans-74" d="M 1172 4494 
L 1172 3500 
L 2356 3500 
L 2356 3053 
L 1172 3053 
L 1172 1153 
Q 1172 725 1289 603 
Q 1406 481 1766 481 
L 2356 481 
L 2356 0 
L 1766 0 
Q 1100 0 847 248 
Q 594 497 594 1153 
L 594 3053 
L 172 3053 
L 172 3500 
L 594 3500 
L 594 4494 
L 1172 4494 
z
" transform="scale(0.015625)"/>
      <path id="DejaVuSans-2f" d="M 1625 4666 
L 2156 4666 
L 531 -594 
L 0 -594 
L 1625 4666 
z
" transform="scale(0.015625)"/>
      <path id="DejaVuSans-43" d="M 4122 4306 
L 4122 3641 
Q 3803 3938 3442 4084 
Q 3081 4231 2675 4231 
Q 1875 4231 1450 3742 
Q 1025 3253 1025 2328 
Q 1025 1406 1450 917 
Q 1875 428 2675 428 
Q 3081 428 3442 575 
Q 3803 722 4122 1019 
L 4122 359 
Q 3791 134 3420 21 
Q 3050 -91 2638 -91 
Q 1578 -91 968 557 
Q 359 1206 359 2328 
Q 359 3453 968 4101 
Q 1578 4750 2638 4750 
Q 3056 4750 3426 4639 
Q 3797 4528 4122 4306 
z
" transform="scale(0.015625)"/>
      <path id="DejaVuSans-6f" d="M 1959 3097 
Q 1497 3097 1228 2736 
Q 959 2375 959 1747 
Q 959 1119 1226 758 
Q 1494 397 1959 397 
Q 2419 397 2687 759 
Q 2956 1122 2956 1747 
Q 2956 2369 2687 2733 
Q 2419 3097 1959 3097 
z
M 1959 3584 
Q 2709 3584 3137 3096 
Q 3566 2609 3566 1747 
Q 3566 888 3137 398 
Q 2709 -91 1959 -91 
Q 1206 -91 779 398 
Q 353 888 353 1747 
Q 353 2609 779 3096 
Q 1206 3584 1959 3584 
z
" transform="scale(0.015625)"/>
      <path id="DejaVuSans-72" d="M 2631 2963 
Q 2534 3019 2420 3045 
Q 2306 3072 2169 3072 
Q 1681 3072 1420 2755 
Q 1159 2438 1159 1844 
L 1159 0 
L 581 0 
L 581 3500 
L 1159 3500 
L 1159 2956 
Q 1341 3275 1631 3429 
Q 1922 3584 2338 3584 
Q 2397 3584 2469 3576 
Q 2541 3569 2628 3553 
L 2631 2963 
z
" transform="scale(0.015625)"/>
      <path id="DejaVuSans-65" d="M 3597 1894 
L 3597 1613 
L 953 1613 
Q 991 1019 1311 708 
Q 1631 397 2203 397 
Q 2534 397 2845 478 
Q 3156 559 3463 722 
L 3463 178 
Q 3153 47 2828 -22 
Q 2503 -91 2169 -91 
Q 1331 -91 842 396 
Q 353 884 353 1716 
Q 353 2575 817 3079 
Q 1281 3584 2069 3584 
Q 2775 3584 3186 3129 
Q 3597 2675 3597 1894 
z
M 3022 2063 
Q 3016 2534 2758 2815 
Q 2500 3097 2075 3097 
Q 1594 3097 1305 2825 
Q 1016 2553 972 2059 
L 3022 2063 
z
" transform="scale(0.015625)"/>
      <path id="DejaVuSans-69" d="M 603 3500 
L 1178 3500 
L 1178 0 
L 603 0 
L 603 3500 
z
M 603 4863 
L 1178 4863 
L 1178 4134 
L 603 4134 
L 603 4863 
z
" transform="scale(0.015625)"/>
      <path id="DejaVuSans-6c" d="M 603 4863 
L 1178 4863 
L 1178 0 
L 603 0 
L 603 4863 
z
" transform="scale(0.015625)"/>
      <path id="DejaVuSans-20" transform="scale(0.015625)"/>
      <path id="DejaVuSans-6e" d="M 3513 2113 
L 3513 0 
L 2938 0 
L 2938 2094 
Q 2938 2591 2744 2837 
Q 2550 3084 2163 3084 
Q 1697 3084 1428 2787 
Q 1159 2491 1159 1978 
L 1159 0 
L 581 0 
L 581 3500 
L 1159 3500 
L 1159 2956 
Q 1366 3272 1645 3428 
Q 1925 3584 2291 3584 
Q 2894 3584 3203 3211 
Q 3513 2838 3513 2113 
z
" transform="scale(0.015625)"/>
      <path id="DejaVuSans-67" d="M 2906 1791 
Q 2906 2416 2648 2759 
Q 2391 3103 1925 3103 
Q 1463 3103 1205 2759 
Q 947 2416 947 1791 
Q 947 1169 1205 825 
Q 1463 481 1925 481 
Q 2391 481 2648 825 
Q 2906 1169 2906 1791 
z
M 3481 434 
Q 3481 -459 3084 -895 
Q 2688 -1331 1869 -1331 
Q 1566 -1331 1297 -1286 
Q 1028 -1241 775 -1147 
L 775 -588 
Q 1028 -725 1275 -790 
Q 1522 -856 1778 -856 
Q 2344 -856 2625 -561 
Q 2906 -266 2906 331 
L 2906 616 
Q 2728 306 2450 153 
Q 2172 0 1784 0 
Q 1141 0 747 490 
Q 353 981 353 1791 
Q 353 2603 747 3093 
Q 1141 3584 1784 3584 
Q 2172 3584 2450 3431 
Q 2728 3278 2906 2969 
L 2906 3500 
L 3481 3500 
L 3481 434 
z
" transform="scale(0.015625)"/>
      <path id="DejaVuSans-47" d="M 3809 666 
L 3809 1919 
L 2778 1919 
L 2778 2438 
L 4434 2438 
L 4434 434 
Q 4069 175 3628 42 
Q 3188 -91 2688 -91 
Q 1594 -91 976 548 
Q 359 1188 359 2328 
Q 359 3472 976 4111 
Q 1594 4750 2688 4750 
Q 3144 4750 3555 4637 
Q 3966 4525 4313 4306 
L 4313 3634 
Q 3963 3931 3569 4081 
Q 3175 4231 2741 4231 
Q 1884 4231 1454 3753 
Q 1025 3275 1025 2328 
Q 1025 1384 1454 906 
Q 1884 428 2741 428 
Q 3075 428 3337 486 
Q 3600 544 3809 666 
z
" transform="scale(0.015625)"/>
      <path id="DejaVuSans-4e" d="M 628 4666 
L 1478 4666 
L 3547 763 
L 3547 4666 
L 4159 4666 
L 4159 0 
L 3309 0 
L 1241 3903 
L 1241 0 
L 628 0 
L 628 4666 
z
" transform="scale(0.015625)"/>
      <path id="DejaVuSans-55" d="M 556 4666 
L 1191 4666 
L 1191 1831 
Q 1191 1081 1462 751 
Q 1734 422 2344 422 
Q 2950 422 3222 751 
Q 3494 1081 3494 1831 
L 3494 4666 
L 4128 4666 
L 4128 1753 
Q 4128 841 3676 375 
Q 3225 -91 2344 -91 
Q 1459 -91 1007 375 
Q 556 841 556 1753 
L 556 4666 
z
" transform="scale(0.015625)"/>
      <path id="DejaVuSans-27" d="M 1147 4666 
L 1147 2931 
L 616 2931 
L 616 4666 
L 1147 4666 
z
" transform="scale(0.015625)"/>
     </defs>
     <use xlink:href="#DejaVuSans-52"/>
     <use xlink:href="#DejaVuSans-75" x="64.982422"/>
     <use xlink:href="#DejaVuSans-73" x="128.361328"/>
     <use xlink:href="#DejaVuSans-74" x="180.460938"/>
     <use xlink:href="#DejaVuSans-2f" x="219.669922"/>
     <use xlink:href="#DejaVuSans-43" x="253.361328"/>
     <use xlink:href="#DejaVuSans-6f" x="323.185547"/>
     <use xlink:href="#DejaVuSans-72" x="384.367188"/>
     <use xlink:href="#DejaVuSans-65" x="423.230469"/>
     <use xlink:href="#DejaVuSans-75" x="484.753906"/>
     <use xlink:href="#DejaVuSans-74" x="548.132812"/>
     <use xlink:href="#DejaVuSans-69" x="587.341797"/>
     <use xlink:href="#DejaVuSans-6c" x="615.125"/>
     <use xlink:href="#DejaVuSans-73" x="642.908203"/>
     <use xlink:href="#DejaVuSans-20" x="695.007812"/>
     <use xlink:href="#DejaVuSans-72" x="726.794922"/>
     <use xlink:href="#DejaVuSans-75" x="767.908203"/>
     <use xlink:href="#DejaVuSans-6e" x="831.287109"/>
     <use xlink:href="#DejaVuSans-6e" x="894.666016"/>
     <use xlink:href="#DejaVuSans-69" x="958.044922"/>
     <use xlink:href="#DejaVuSans-6e" x="985.828125"/>
     <use xlink:href="#DejaVuSans-67" x="1049.207031"/>
     <use xlink:href="#DejaVuSans-20" x="1112.683594"/>
     <use xlink:href="#DejaVuSans-47" x="1144.470703"/>
     <use xlink:href="#DejaVuSans-4e" x="1221.960938"/>
     <use xlink:href="#DejaVuSans-55" x="1296.765625"/>
     <use xlink:href="#DejaVuSans-27" x="1369.958984"/>
     <use xlink:href="#DejaVuSans-73" x="1397.449219"/>
     <use xlink:href="#DejaVuSans-20" x="1449.548828"/>
     <use xlink:href="#DejaVuSans-74" x="1481.335938"/>
     <use xlink:href="#DejaVuSans-65" x="1520.544922"/>
     <use xlink:href="#DejaVuSans-73" x="1582.068359"/>
     <use xlink:href="#DejaVuSans-74" x="1634.167969"/>
     <use xlink:href="#DejaVuSans-73" x="1673.376953"/>
     <use xlink:href="#DejaVuSans-75" x="1725.476562"/>
     <use xlink:href="#DejaVuSans-69" x="1788.855469"/>
     <use xlink:href="#DejaVuSans-74" x="1816.638672"/>
     <use xlink:href="#DejaVuSans-65" x="1855.847656"/>
    </g>
   </g>
   <g id="legend_1">
    <g id="patch_7">
     <path d="M 505.762812 236.769437 
L 561.9675 236.769437 
Q 563.9675 236.769437 563.9675 234.769437 
L 563.9675 162.378812 
Q 563.9675 160.378812 561.9675 160.378812 
L 505.762812 160.378812 
Q 503.762812 160.378812 503.762812 162.378812 
L 503.762812 234.769437 
Q 503.762812 236.769437 505.762812 236.769437 
z
" style="fill: #ffffff; opacity: 0.8; stroke: #cccccc; stroke-linejoin: miter"/>
    </g>
    <g id="line2d_22">
     <path d="M 507.762812 168.47725 
L 517.762812 168.47725 
L 527.762812 168.47725 
" style="fill: none; stroke: #0000ff; stroke-width: 1.5; stroke-linecap: square"/>
    </g>
    <g id="text_18">
     <!-- total -->
     <g transform="translate(535.762812 171.97725) scale(0.1 -0.1)">
      <defs>
       <path id="DejaVuSans-61" d="M 2194 1759 
Q 1497 1759 1228 1600 
Q 959 1441 959 1056 
Q 959 750 1161 570 
Q 1363 391 1709 391 
Q 2188 391 2477 730 
Q 2766 1069 2766 1631 
L 2766 1759 
L 2194 1759 
z
M 3341 1997 
L 3341 0 
L 2766 0 
L 2766 531 
Q 2569 213 2275 61 
Q 1981 -91 1556 -91 
Q 1019 -91 701 211 
Q 384 513 384 1019 
Q 384 1609 779 1909 
Q 1175 2209 1959 2209 
L 2766 2209 
L 2766 2266 
Q 2766 2663 2505 2880 
Q 2244 3097 1772 3097 
Q 1472 3097 1187 3025 
Q 903 2953 641 2809 
L 641 3341 
Q 956 3463 1253 3523 
Q 1550 3584 1831 3584 
Q 2591 3584 2966 3190 
Q 3341 2797 3341 1997 
z
" transform="scale(0.015625)"/>
      </defs>
      <use xlink:href="#DejaVuSans-74"/>
      <use xlink:href="#DejaVuSans-6f" x="39.208984"/>
      <use xlink:href="#DejaVuSans-74" x="100.390625"/>
      <use xlink:href="#DejaVuSans-61" x="139.599609"/>
      <use xlink:href="#DejaVuSans-6c" x="200.878906"/>
     </g>
    </g>
    <g id="line2d_23">
     <path d="M 507.762812 183.155375 
L 517.762812 183.155375 
L 527.762812 183.155375 
" style="fill: none; stroke-dasharray: 3,1.5; stroke-dashoffset: 0; stroke: #808080; stroke-width: 1.5"/>
    </g>
    <g id="text_19">
     <!-- fail -->
     <g transform="translate(535.762812 186.655375) scale(0.1 -0.1)">
      <defs>
       <path id="DejaVuSans-66" d="M 2375 4863 
L 2375 4384 
L 1825 4384 
Q 1516 4384 1395 4259 
Q 1275 4134 1275 3809 
L 1275 3500 
L 2222 3500 
L 2222 3053 
L 1275 3053 
L 1275 0 
L 697 0 
L 697 3053 
L 147 3053 
L 147 3500 
L 697 3500 
L 697 3744 
Q 697 4328 969 4595 
Q 1241 4863 1831 4863 
L 2375 4863 
z
" transform="scale(0.015625)"/>
      </defs>
      <use xlink:href="#DejaVuSans-66"/>
      <use xlink:href="#DejaVuSans-61" x="35.205078"/>
      <use xlink:href="#DejaVuSans-69" x="96.484375"/>
      <use xlink:href="#DejaVuSans-6c" x="124.267578"/>
     </g>
    </g>
    <g id="line2d_24">
     <path d="M 507.762812 197.8335 
L 517.762812 197.8335 
L 527.762812 197.8335 
" style="fill: none; stroke-dasharray: 6,1.5; stroke-dashoffset: 0; stroke: #008000; stroke-width: 1.5"/>
    </g>
    <g id="text_20">
     <!-- pass -->
     <g transform="translate(535.762812 201.3335) scale(0.1 -0.1)">
      <defs>
       <path id="DejaVuSans-70" d="M 1159 525 
L 1159 -1331 
L 581 -1331 
L 581 3500 
L 1159 3500 
L 1159 2969 
Q 1341 3281 1617 3432 
Q 1894 3584 2278 3584 
Q 2916 3584 3314 3078 
Q 3713 2572 3713 1747 
Q 3713 922 3314 415 
Q 2916 -91 2278 -91 
Q 1894 -91 1617 61 
Q 1341 213 1159 525 
z
M 3116 1747 
Q 3116 2381 2855 2742 
Q 2594 3103 2138 3103 
Q 1681 3103 1420 2742 
Q 1159 2381 1159 1747 
Q 1159 1113 1420 752 
Q 1681 391 2138 391 
Q 2594 391 2855 752 
Q 3116 1113 3116 1747 
z
" transform="scale(0.015625)"/>
      </defs>
      <use xlink:href="#DejaVuSans-70"/>
      <use xlink:href="#DejaVuSans-61" x="63.476562"/>
      <use xlink:href="#DejaVuSans-73" x="124.755859"/>
      <use xlink:href="#DejaVuSans-73" x="176.855469"/>
     </g>
    </g>
    <g id="line2d_25">
     <path d="M 507.762812 212.511625 
L 517.762812 212.511625 
L 527.762812 212.511625 
" style="fill: none; stroke-dasharray: 9,3; stroke-dashoffset: 0; stroke: #ffa500; stroke-width: 1.5"/>
    </g>
    <g id="text_21">
     <!-- error -->
     <g transform="translate(535.762812 216.011625) scale(0.1 -0.1)">
      <use xlink:href="#DejaVuSans-65"/>
      <use xlink:href="#DejaVuSans-72" x="61.523438"/>
      <use xlink:href="#DejaVuSans-72" x="100.886719"/>
      <use xlink:href="#DejaVuSans-6f" x="139.75"/>
      <use xlink:href="#DejaVuSans-72" x="200.931641"/>
     </g>
    </g>
    <g id="line2d_26">
     <path d="M 507.762812 227.18975 
L 517.762812 227.18975 
L 527.762812 227.18975 
" style="fill: none; stroke-dasharray: 12,4.5; stroke-dashoffset: 0; stroke: #ee82ee; stroke-width: 1.5"/>
    </g>
    <g id="text_22">
     <!-- skip -->
     <g transform="translate(535.762812 230.68975) scale(0.1 -0.1)">
      <defs>
       <path id="DejaVuSans-6b" d="M 581 4863 
L 1159 4863 
L 1159 1991 
L 2875 3500 
L 3609 3500 
L 1753 1863 
L 3688 0 
L 2938 0 
L 1159 1709 
L 1159 0 
L 581 0 
L 581 4863 
z
" transform="scale(0.015625)"/>
      </defs>
      <use xlink:href="#DejaVuSans-73"/>
      <use xlink:href="#DejaVuSans-6b" x="52.099609"/>
      <use xlink:href="#DejaVuSans-69" x="110.009766"/>
      <use xlink:href="#DejaVuSans-70" x="137.792969"/>
     </g>
    </g>
   </g>
  </g>
 </g>
 <defs>
  <clipPath id="p01a82434d1">
   <rect x="33.2875" y="22.318125" width="535.68" height="352.512"/>
  </clipPath>
 </defs>
</svg>
