<?xml version="1.0" encoding="utf-8" standalone="no"?>
<!DOCTYPE svg PUBLIC "-//W3C//DTD SVG 1.1//EN"
  "http://www.w3.org/Graphics/SVG/1.1/DTD/svg11.dtd">
<svg xmlns:xlink="http://www.w3.org/1999/xlink" width="576.1675pt" height="418.303033pt" viewBox="0 0 576.1675 418.303033" xmlns="http://www.w3.org/2000/svg" version="1.1">
 <metadata>
  <rdf:RDF xmlns:dc="http://purl.org/dc/elements/1.1/" xmlns:cc="http://creativecommons.org/ns#" xmlns:rdf="http://www.w3.org/1999/02/22-rdf-syntax-ns#">
   <cc:Work>
    <dc:type rdf:resource="http://purl.org/dc/dcmitype/StillImage"/>
    <dc:date>2025-08-04T14:06:34.385036</dc:date>
    <dc:format>image/svg+xml</dc:format>
    <dc:creator>
     <cc:Agent>
      <dc:title>Matplotlib v3.6.3, https://matplotlib.org/</dc:title>
     </cc:Agent>
    </dc:creator>
   </cc:Work>
  </rdf:RDF>
 </metadata>
 <defs>
  <style type="text/css">*{stroke-linejoin: round; stroke-linecap: butt}</style>
 </defs>
 <g id="figure_1">
  <g id="patch_1">
   <path d="M -0 418.303033 
L 576.1675 418.303033 
L 576.1675 0 
L -0 0 
z
" style="fill: #ffffff"/>
  </g>
  <g id="axes_1">
   <g id="patch_2">
    <path d="M 33.2875 374.830125 
L 568.9675 374.830125 
L 568.9675 22.318125 
L 33.2875 22.318125 
z
" style="fill: #ffffff"/>
   </g>
   <g id="matplotlib.axis_1">
    <g id="xtick_1">
     <g id="line2d_1">
      <defs>
       <path id="me6bf5ad603" d="M 0 0 
L 0 3.5 
" style="stroke: #000000; stroke-width: 0.8"/>
      </defs>
      <g>
       <use xlink:href="#me6bf5ad603" x="62.477979" y="374.830125" style="stroke: #000000; stroke-width: 0.8"/>
      </g>
     </g>
     <g id="text_1">
      <!-- 2021-07 -->
      <g transform="translate(25.253158 409.301971) rotate(-30) scale(0.1 -0.1)">
       <defs>
        <path id="DejaVuSans-32" d="M 1228 531 
L 3431 531 
L 3431 0 
L 469 0 
L 469 531 
Q 828 903 1448 1529 
Q 2069 2156 2228 2338 
Q 2531 2678 2651 2914 
Q 2772 3150 2772 3378 
Q 2772 3750 2511 3984 
Q 2250 4219 1831 4219 
Q 1534 4219 1204 4116 
Q 875 4013 500 3803 
L 500 4441 
Q 881 4594 1212 4672 
Q 1544 4750 1819 4750 
Q 2544 4750 2975 4387 
Q 3406 4025 3406 3419 
Q 3406 3131 3298 2873 
Q 3191 2616 2906 2266 
Q 2828 2175 2409 1742 
Q 1991 1309 1228 531 
z
" transform="scale(0.015625)"/>
        <path id="DejaVuSans-30" d="M 2034 4250 
Q 1547 4250 1301 3770 
Q 1056 3291 1056 2328 
Q 1056 1369 1301 889 
Q 1547 409 2034 409 
Q 2525 409 2770 889 
Q 3016 1369 3016 2328 
Q 3016 3291 2770 3770 
Q 2525 4250 2034 4250 
z
M 2034 4750 
Q 2819 4750 3233 4129 
Q 3647 3509 3647 2328 
Q 3647 1150 3233 529 
Q 2819 -91 2034 -91 
Q 1250 -91 836 529 
Q 422 1150 422 2328 
Q 422 3509 836 4129 
Q 1250 4750 2034 4750 
z
" transform="scale(0.015625)"/>
        <path id="DejaVuSans-31" d="M 794 531 
L 1825 531 
L 1825 4091 
L 703 3866 
L 703 4441 
L 1819 4666 
L 2450 4666 
L 2450 531 
L 3481 531 
L 3481 0 
L 794 0 
L 794 531 
z
" transform="scale(0.015625)"/>
        <path id="DejaVuSans-2d" d="M 313 2009 
L 1997 2009 
L 1997 1497 
L 313 1497 
L 313 2009 
z
" transform="scale(0.015625)"/>
        <path id="DejaVuSans-37" d="M 525 4666 
L 3525 4666 
L 3525 4397 
L 1831 0 
L 1172 0 
L 2766 4134 
L 525 4134 
L 525 4666 
z
" transform="scale(0.015625)"/>
       </defs>
       <use xlink:href="#DejaVuSans-32"/>
       <use xlink:href="#DejaVuSans-30" x="63.623047"/>
       <use xlink:href="#DejaVuSans-32" x="127.246094"/>
       <use xlink:href="#DejaVuSans-31" x="190.869141"/>
       <use xlink:href="#DejaVuSans-2d" x="254.492188"/>
       <use xlink:href="#DejaVuSans-30" x="290.576172"/>
       <use xlink:href="#DejaVuSans-37" x="354.199219"/>
      </g>
     </g>
    </g>
    <g id="xtick_2">
     <g id="line2d_2">
      <g>
       <use xlink:href="#me6bf5ad603" x="124.158115" y="374.830125" style="stroke: #000000; stroke-width: 0.8"/>
      </g>
     </g>
     <g id="text_2">
      <!-- 2022-01 -->
      <g transform="translate(86.933294 409.301971) rotate(-30) scale(0.1 -0.1)">
       <use xlink:href="#DejaVuSans-32"/>
       <use xlink:href="#DejaVuSans-30" x="63.623047"/>
       <use xlink:href="#DejaVuSans-32" x="127.246094"/>
       <use xlink:href="#DejaVuSans-32" x="190.869141"/>
       <use xlink:href="#DejaVuSans-2d" x="254.492188"/>
       <use xlink:href="#DejaVuSans-30" x="290.576172"/>
       <use xlink:href="#DejaVuSans-31" x="354.199219"/>
      </g>
     </g>
    </g>
    <g id="xtick_3">
     <g id="line2d_3">
      <g>
       <use xlink:href="#me6bf5ad603" x="184.832596" y="374.830125" style="stroke: #000000; stroke-width: 0.8"/>
      </g>
     </g>
     <g id="text_3">
      <!-- 2022-07 -->
      <g transform="translate(147.607776 409.301971) rotate(-30) scale(0.1 -0.1)">
       <use xlink:href="#DejaVuSans-32"/>
       <use xlink:href="#DejaVuSans-30" x="63.623047"/>
       <use xlink:href="#DejaVuSans-32" x="127.246094"/>
       <use xlink:href="#DejaVuSans-32" x="190.869141"/>
       <use xlink:href="#DejaVuSans-2d" x="254.492188"/>
       <use xlink:href="#DejaVuSans-30" x="290.576172"/>
       <use xlink:href="#DejaVuSans-37" x="354.199219"/>
      </g>
     </g>
    </g>
    <g id="xtick_4">
     <g id="line2d_4">
      <g>
       <use xlink:href="#me6bf5ad603" x="246.512732" y="374.830125" style="stroke: #000000; stroke-width: 0.8"/>
      </g>
     </g>
     <g id="text_4">
      <!-- 2023-01 -->
      <g transform="translate(209.287911 409.301971) rotate(-30) scale(0.1 -0.1)">
       <defs>
        <path id="DejaVuSans-33" d="M 2597 2516 
Q 3050 2419 3304 2112 
Q 3559 1806 3559 1356 
Q 3559 666 3084 287 
Q 2609 -91 1734 -91 
Q 1441 -91 1130 -33 
Q 819 25 488 141 
L 488 750 
Q 750 597 1062 519 
Q 1375 441 1716 441 
Q 2309 441 2620 675 
Q 2931 909 2931 1356 
Q 2931 1769 2642 2001 
Q 2353 2234 1838 2234 
L 1294 2234 
L 1294 2753 
L 1863 2753 
Q 2328 2753 2575 2939 
Q 2822 3125 2822 3475 
Q 2822 3834 2567 4026 
Q 2313 4219 1838 4219 
Q 1578 4219 1281 4162 
Q 984 4106 628 3988 
L 628 4550 
Q 988 4650 1302 4700 
Q 1616 4750 1894 4750 
Q 2613 4750 3031 4423 
Q 3450 4097 3450 3541 
Q 3450 3153 3228 2886 
Q 3006 2619 2597 2516 
z
" transform="scale(0.015625)"/>
       </defs>
       <use xlink:href="#DejaVuSans-32"/>
       <use xlink:href="#DejaVuSans-30" x="63.623047"/>
       <use xlink:href="#DejaVuSans-32" x="127.246094"/>
       <use xlink:href="#DejaVuSans-33" x="190.869141"/>
       <use xlink:href="#DejaVuSans-2d" x="254.492188"/>
       <use xlink:href="#DejaVuSans-30" x="290.576172"/>
       <use xlink:href="#DejaVuSans-31" x="354.199219"/>
      </g>
     </g>
    </g>
    <g id="xtick_5">
     <g id="line2d_5">
      <g>
       <use xlink:href="#me6bf5ad603" x="307.187214" y="374.830125" style="stroke: #000000; stroke-width: 0.8"/>
      </g>
     </g>
     <g id="text_5">
      <!-- 2023-07 -->
      <g transform="translate(269.962393 409.301971) rotate(-30) scale(0.1 -0.1)">
       <use xlink:href="#DejaVuSans-32"/>
       <use xlink:href="#DejaVuSans-30" x="63.623047"/>
       <use xlink:href="#DejaVuSans-32" x="127.246094"/>
       <use xlink:href="#DejaVuSans-33" x="190.869141"/>
       <use xlink:href="#DejaVuSans-2d" x="254.492188"/>
       <use xlink:href="#DejaVuSans-30" x="290.576172"/>
       <use xlink:href="#DejaVuSans-37" x="354.199219"/>
      </g>
     </g>
    </g>
    <g id="xtick_6">
     <g id="line2d_6">
      <g>
       <use xlink:href="#me6bf5ad603" x="368.86735" y="374.830125" style="stroke: #000000; stroke-width: 0.8"/>
      </g>
     </g>
     <g id="text_6">
      <!-- 2024-01 -->
      <g transform="translate(331.642529 409.301971) rotate(-30) scale(0.1 -0.1)">
       <defs>
        <path id="DejaVuSans-34" d="M 2419 4116 
L 825 1625 
L 2419 1625 
L 2419 4116 
z
M 2253 4666 
L 3047 4666 
L 3047 1625 
L 3713 1625 
L 3713 1100 
L 3047 1100 
L 3047 0 
L 2419 0 
L 2419 1100 
L 313 1100 
L 313 1709 
L 2253 4666 
z
" transform="scale(0.015625)"/>
       </defs>
       <use xlink:href="#DejaVuSans-32"/>
       <use xlink:href="#DejaVuSans-30" x="63.623047"/>
       <use xlink:href="#DejaVuSans-32" x="127.246094"/>
       <use xlink:href="#DejaVuSans-34" x="190.869141"/>
       <use xlink:href="#DejaVuSans-2d" x="254.492188"/>
       <use xlink:href="#DejaVuSans-30" x="290.576172"/>
       <use xlink:href="#DejaVuSans-31" x="354.199219"/>
      </g>
     </g>
    </g>
    <g id="xtick_7">
     <g id="line2d_7">
      <g>
       <use xlink:href="#me6bf5ad603" x="429.877049" y="374.830125" style="stroke: #000000; stroke-width: 0.8"/>
      </g>
     </g>
     <g id="text_7">
      <!-- 2024-07 -->
      <g transform="translate(392.652228 409.301971) rotate(-30) scale(0.1 -0.1)">
       <use xlink:href="#DejaVuSans-32"/>
       <use xlink:href="#DejaVuSans-30" x="63.623047"/>
       <use xlink:href="#DejaVuSans-32" x="127.246094"/>
       <use xlink:href="#DejaVuSans-34" x="190.869141"/>
       <use xlink:href="#DejaVuSans-2d" x="254.492188"/>
       <use xlink:href="#DejaVuSans-30" x="290.576172"/>
       <use xlink:href="#DejaVuSans-37" x="354.199219"/>
      </g>
     </g>
    </g>
    <g id="xtick_8">
     <g id="line2d_8">
      <g>
       <use xlink:href="#me6bf5ad603" x="491.557185" y="374.830125" style="stroke: #000000; stroke-width: 0.8"/>
      </g>
     </g>
     <g id="text_8">
      <!-- 2025-01 -->
      <g transform="translate(454.332364 409.301971) rotate(-30) scale(0.1 -0.1)">
       <defs>
        <path id="DejaVuSans-35" d="M 691 4666 
L 3169 4666 
L 3169 4134 
L 1269 4134 
L 1269 2991 
Q 1406 3038 1543 3061 
Q 1681 3084 1819 3084 
Q 2600 3084 3056 2656 
Q 3513 2228 3513 1497 
Q 3513 744 3044 326 
Q 2575 -91 1722 -91 
Q 1428 -91 1123 -41 
Q 819 9 494 109 
L 494 744 
Q 775 591 1075 516 
Q 1375 441 1709 441 
Q 2250 441 2565 725 
Q 2881 1009 2881 1497 
Q 2881 1984 2565 2268 
Q 2250 2553 1709 2553 
Q 1456 2553 1204 2497 
Q 953 2441 691 2322 
L 691 4666 
z
" transform="scale(0.015625)"/>
       </defs>
       <use xlink:href="#DejaVuSans-32"/>
       <use xlink:href="#DejaVuSans-30" x="63.623047"/>
       <use xlink:href="#DejaVuSans-32" x="127.246094"/>
       <use xlink:href="#DejaVuSans-35" x="190.869141"/>
       <use xlink:href="#DejaVuSans-2d" x="254.492188"/>
       <use xlink:href="#DejaVuSans-30" x="290.576172"/>
       <use xlink:href="#DejaVuSans-31" x="354.199219"/>
      </g>
     </g>
    </g>
    <g id="xtick_9">
     <g id="line2d_9">
      <g>
       <use xlink:href="#me6bf5ad603" x="552.231667" y="374.830125" style="stroke: #000000; stroke-width: 0.8"/>
      </g>
     </g>
     <g id="text_9">
      <!-- 2025-07 -->
      <g transform="translate(515.006846 409.301971) rotate(-30) scale(0.1 -0.1)">
       <use xlink:href="#DejaVuSans-32"/>
       <use xlink:href="#DejaVuSans-30" x="63.623047"/>
       <use xlink:href="#DejaVuSans-32" x="127.246094"/>
       <use xlink:href="#DejaVuSans-35" x="190.869141"/>
       <use xlink:href="#DejaVuSans-2d" x="254.492188"/>
       <use xlink:href="#DejaVuSans-30" x="290.576172"/>
       <use xlink:href="#DejaVuSans-37" x="354.199219"/>
      </g>
     </g>
    </g>
   </g>
   <g id="matplotlib.axis_2">
    <g id="ytick_1">
     <g id="line2d_10">
      <defs>
       <path id="ma409abd34d" d="M 0 0 
L -3.5 0 
" style="stroke: #000000; stroke-width: 0.8"/>
      </defs>
      <g>
       <use xlink:href="#ma409abd34d" x="33.2875" y="374.830125" style="stroke: #000000; stroke-width: 0.8"/>
      </g>
     </g>
     <g id="text_10">
      <!-- 0 -->
      <g transform="translate(19.925 378.629344) scale(0.1 -0.1)">
       <use xlink:href="#DejaVuSans-30"/>
      </g>
     </g>
    </g>
    <g id="ytick_2">
     <g id="line2d_11">
      <g>
       <use xlink:href="#ma409abd34d" x="33.2875" y="318.897147" style="stroke: #000000; stroke-width: 0.8"/>
      </g>
     </g>
     <g id="text_11">
      <!-- 100 -->
      <g transform="translate(7.2 322.696366) scale(0.1 -0.1)">
       <use xlink:href="#DejaVuSans-31"/>
       <use xlink:href="#DejaVuSans-30" x="63.623047"/>
       <use xlink:href="#DejaVuSans-30" x="127.246094"/>
      </g>
     </g>
    </g>
    <g id="ytick_3">
     <g id="line2d_12">
      <g>
       <use xlink:href="#ma409abd34d" x="33.2875" y="262.964169" style="stroke: #000000; stroke-width: 0.8"/>
      </g>
     </g>
     <g id="text_12">
      <!-- 200 -->
      <g transform="translate(7.2 266.763388) scale(0.1 -0.1)">
       <use xlink:href="#DejaVuSans-32"/>
       <use xlink:href="#DejaVuSans-30" x="63.623047"/>
       <use xlink:href="#DejaVuSans-30" x="127.246094"/>
      </g>
     </g>
    </g>
    <g id="ytick_4">
     <g id="line2d_13">
      <g>
       <use xlink:href="#ma409abd34d" x="33.2875" y="207.031191" style="stroke: #000000; stroke-width: 0.8"/>
      </g>
     </g>
     <g id="text_13">
      <!-- 300 -->
      <g transform="translate(7.2 210.83041) scale(0.1 -0.1)">
       <use xlink:href="#DejaVuSans-33"/>
       <use xlink:href="#DejaVuSans-30" x="63.623047"/>
       <use xlink:href="#DejaVuSans-30" x="127.246094"/>
      </g>
     </g>
    </g>
    <g id="ytick_5">
     <g id="line2d_14">
      <g>
       <use xlink:href="#ma409abd34d" x="33.2875" y="151.098213" style="stroke: #000000; stroke-width: 0.8"/>
      </g>
     </g>
     <g id="text_14">
      <!-- 400 -->
      <g transform="translate(7.2 154.897432) scale(0.1 -0.1)">
       <use xlink:href="#DejaVuSans-34"/>
       <use xlink:href="#DejaVuSans-30" x="63.623047"/>
       <use xlink:href="#DejaVuSans-30" x="127.246094"/>
      </g>
     </g>
    </g>
    <g id="ytick_6">
     <g id="line2d_15">
      <g>
       <use xlink:href="#ma409abd34d" x="33.2875" y="95.165235" style="stroke: #000000; stroke-width: 0.8"/>
      </g>
     </g>
     <g id="text_15">
      <!-- 500 -->
      <g transform="translate(7.2 98.964454) scale(0.1 -0.1)">
       <use xlink:href="#DejaVuSans-35"/>
       <use xlink:href="#DejaVuSans-30" x="63.623047"/>
       <use xlink:href="#DejaVuSans-30" x="127.246094"/>
      </g>
     </g>
    </g>
    <g id="ytick_7">
     <g id="line2d_16">
      <g>
       <use xlink:href="#ma409abd34d" x="33.2875" y="39.232258" style="stroke: #000000; stroke-width: 0.8"/>
      </g>
     </g>
     <g id="text_16">
      <!-- 600 -->
      <g transform="translate(7.2 43.031476) scale(0.1 -0.1)">
       <defs>
        <path id="DejaVuSans-36" d="M 2113 2584 
Q 1688 2584 1439 2293 
Q 1191 2003 1191 1497 
Q 1191 994 1439 701 
Q 1688 409 2113 409 
Q 2538 409 2786 701 
Q 3034 994 3034 1497 
Q 3034 2003 2786 2293 
Q 2538 2584 2113 2584 
z
M 3366 4563 
L 3366 3988 
Q 3128 4100 2886 4159 
Q 2644 4219 2406 4219 
Q 1781 4219 1451 3797 
Q 1122 3375 1075 2522 
Q 1259 2794 1537 2939 
Q 1816 3084 2150 3084 
Q 2853 3084 3261 2657 
Q 3669 2231 3669 1497 
Q 3669 778 3244 343 
Q 2819 -91 2113 -91 
Q 1303 -91 875 529 
Q 447 1150 447 2328 
Q 447 3434 972 4092 
Q 1497 4750 2381 4750 
Q 2619 4750 2861 4703 
Q 3103 4656 3366 4563 
z
" transform="scale(0.015625)"/>
       </defs>
       <use xlink:href="#DejaVuSans-36"/>
       <use xlink:href="#DejaVuSans-30" x="63.623047"/>
       <use xlink:href="#DejaVuSans-30" x="127.246094"/>
      </g>
     </g>
    </g>
   </g>
   <g id="line2d_17">
    <path d="M 38.539265 25.808343 
L 48.507015 25.808343 
L 48.619852 29.164321 
L 50.015399 29.164321 
L 50.52625 38.672928 
L 132.874333 38.672928 
L 133.284328 33.07963 
L 146.987552 33.07963 
L 147.792518 33.63896 
L 154.218979 33.63896 
L 154.443719 44.825555 
L 160.960883 44.825555 
L 162.311498 43.147566 
L 273.962992 43.147566 
L 274.280988 39.232258 
L 283.031737 39.232258 
L 283.344064 38.113598 
L 327.266004 38.113598 
L 327.484734 36.994938 
L 398.460996 36.994938 
L 398.664327 32.5203 
L 452.473226 32.5203 
L 452.565772 31.96097 
L 493.666231 31.96097 
L 494.043941 31.401641 
L 497.78257 31.401641 
L 497.90662 29.164321 
L 499.406985 29.164321 
L 499.796823 29.723651 
L 525.731637 29.723651 
L 526.051813 29.164321 
L 563.715735 29.164321 
L 563.715735 29.164321 
" clip-path="url(#pffc854fc4a)" style="fill: none; stroke: #0000ff; stroke-width: 1.5; stroke-linecap: square"/>
   </g>
   <g id="line2d_18">
    <path d="M 38.539265 168.996766 
L 39.909702 167.878107 
L 41.275715 168.996766 
L 44.51057 168.996766 
L 48.077384 170.115426 
L 48.34199 169.556096 
L 48.507015 169.556096 
L 48.619852 172.912075 
L 48.880278 172.352745 
L 49.265457 172.912075 
L 50.015399 172.912075 
L 50.433079 185.21733 
L 50.52625 182.420681 
L 50.743048 185.77666 
L 50.811992 185.21733 
L 51.054932 185.21733 
L 51.443545 185.77666 
L 52.378842 185.77666 
L 52.406762 186.335989 
L 52.913752 186.335989 
L 53.128353 185.77666 
L 53.755778 189.691968 
L 53.828249 189.132638 
L 54.136336 189.691968 
L 54.732295 191.369957 
L 55.13652 190.251298 
L 55.775448 190.251298 
L 56.132513 191.369957 
L 56.373893 191.369957 
L 57.1011 191.929287 
L 57.427417 191.929287 
L 57.782256 193.047947 
L 58.099553 192.488617 
L 58.451897 193.607277 
L 58.817998 195.844596 
L 60.233589 196.963255 
L 60.8347 196.963255 
L 61.09219 197.522585 
L 61.502448 197.522585 
L 61.804482 198.081915 
L 62.112145 197.522585 
L 62.455173 197.522585 
L 62.656052 198.081915 
L 66.131224 198.081915 
L 66.481962 198.641245 
L 66.818061 198.641245 
L 66.948563 198.081915 
L 67.778643 198.641245 
L 68.126544 198.081915 
L 69.085741 198.081915 
L 69.3937 198.641245 
L 69.772318 198.081915 
L 71.518156 198.081915 
L 71.875854 198.641245 
L 72.072193 200.319234 
L 72.550062 199.200574 
L 73.661236 199.200574 
L 74.212538 199.759904 
L 74.545882 199.759904 
L 74.869631 200.319234 
L 75.230988 200.319234 
L 75.562772 199.759904 
L 75.87981 201.437893 
L 76.161277 201.437893 
L 76.926521 202.556553 
L 80.944281 202.556553 
L 81.263665 203.675213 
L 81.944356 203.675213 
L 82.246479 204.234542 
L 83.259792 204.234542 
L 84.22976 206.471861 
L 85.260738 206.471861 
L 85.630001 207.031191 
L 91.858851 207.031191 
L 92.606655 208.149851 
L 92.776057 207.031191 
L 93.975556 207.031191 
L 94.301284 207.590521 
L 94.660658 207.031191 
L 95.5157 207.031191 
L 95.987986 207.590521 
L 96.338595 207.031191 
L 101.63366 207.031191 
L 101.923023 212.065159 
L 102.123641 207.031191 
L 104.042579 207.031191 
L 104.39093 207.590521 
L 104.589764 212.624489 
L 105.059454 207.590521 
L 105.391184 207.590521 
L 105.611392 207.031191 
L 109.085788 207.031191 
L 109.261735 207.590521 
L 109.577484 207.590521 
L 110.097487 209.26851 
L 115.338584 209.26851 
L 116.482434 209.82784 
L 123.52181 209.82784 
L 123.814935 212.065159 
L 124.189495 212.065159 
L 124.521636 209.82784 
L 124.863357 209.82784 
L 125.098821 212.065159 
L 125.354017 209.82784 
L 125.778115 212.065159 
L 126.15378 213.183819 
L 130.509769 213.183819 
L 130.885745 213.743149 
L 132.874333 213.743149 
L 133.284328 207.590521 
L 133.577201 208.149851 
L 133.908241 209.82784 
L 134.316931 209.82784 
L 134.864916 210.9465 
L 135.243099 210.9465 
L 135.521862 211.505829 
L 135.896305 209.26851 
L 138.637916 214.861808 
L 138.917854 213.183819 
L 139.387237 212.624489 
L 140.878046 212.624489 
L 141.260467 212.065159 
L 141.597694 210.9465 
L 142.947731 210.9465 
L 143.194567 209.82784 
L 143.628728 210.9465 
L 144.60921 210.9465 
L 144.942896 212.065159 
L 145.264764 212.065159 
L 145.645962 212.624489 
L 145.799786 212.624489 
L 145.971701 214.302478 
L 146.204748 214.302478 
L 146.987552 214.861808 
L 147.634356 213.743149 
L 147.792518 213.743149 
L 148.299558 214.302478 
L 148.624879 215.421138 
L 150.30608 215.421138 
L 150.630679 215.980468 
L 150.979251 215.980468 
L 151.301968 216.539798 
L 151.604282 216.539798 
L 152.306754 217.099127 
L 152.66955 217.099127 
L 153.031329 218.777117 
L 153.245233 218.777117 
L 153.621239 218.217787 
L 154.218979 218.217787 
L 154.443719 219.895776 
L 154.998109 219.895776 
L 155.326569 221.014436 
L 155.765231 221.014436 
L 155.991185 221.573766 
L 156.488072 221.573766 
L 156.537517 222.133095 
L 156.789194 222.133095 
L 157.320271 222.692425 
L 158.52803 226.048404 
L 160.033458 226.048404 
L 160.340369 227.167063 
L 160.455934 226.607734 
L 160.589761 226.607734 
L 160.960883 226.048404 
L 162.311498 224.370414 
L 165.69057 224.370414 
L 166.08212 223.811085 
L 167.717577 223.811085 
L 167.95034 223.251755 
L 171.013031 223.251755 
L 171.407355 223.811085 
L 171.958583 223.811085 
L 172.405207 224.370414 
L 172.629935 223.811085 
L 174.782896 223.811085 
L 175.462357 224.929744 
L 176.908401 224.929744 
L 177.15186 232.760361 
L 177.426316 232.760361 
L 179.765258 234.43835 
L 179.908987 233.879021 
L 180.058931 234.43835 
L 180.448133 233.879021 
L 180.774602 233.879021 
L 181.118213 234.43835 
L 181.376245 234.43835 
L 181.790507 235.55701 
L 181.960879 235.55701 
L 182.118552 234.99768 
L 182.471955 236.11634 
L 184.821527 236.11634 
L 185.050104 236.67567 
L 186.314047 236.67567 
L 186.817289 236.11634 
L 187.194328 238.912989 
L 187.462747 237.234999 
L 187.812825 237.234999 
L 188.093427 240.590978 
L 188.289758 240.031648 
L 188.498761 240.590978 
L 188.604029 240.031648 
L 188.732871 241.709638 
L 189.066898 241.709638 
L 189.490119 242.268967 
L 190.319023 241.709638 
L 190.507766 242.828297 
L 190.816224 242.828297 
L 191.034663 241.150308 
L 191.776151 242.828297 
L 192.513445 243.387627 
L 193.160959 243.387627 
L 193.500639 245.065616 
L 193.812865 245.065616 
L 193.997809 244.506286 
L 194.322412 244.506286 
L 195.577866 246.743606 
L 195.787245 245.624946 
L 196.190279 245.065616 
L 196.662991 246.743606 
L 197.933615 246.743606 
L 198.042391 247.302935 
L 198.548682 247.862265 
L 199.898335 247.862265 
L 200.516114 250.658914 
L 203.987728 250.658914 
L 204.261862 251.218244 
L 204.622408 250.099584 
L 204.832311 251.218244 
L 208.617071 251.218244 
L 208.933294 251.777574 
L 209.695872 255.133552 
L 209.981968 253.455563 
L 210.322917 254.014893 
L 210.700444 253.455563 
L 210.966112 253.455563 
L 211.368661 251.777574 
L 211.584512 251.777574 
L 211.626407 252.336903 
L 212.305646 252.336903 
L 212.687958 248.980925 
L 213.025019 248.980925 
L 214.038965 249.540254 
L 214.103122 248.980925 
L 214.653648 248.421595 
L 214.735415 248.980925 
L 217.388104 248.980925 
L 217.572684 249.540254 
L 218.067732 250.099584 
L 218.728791 251.218244 
L 218.900729 252.336903 
L 219.133074 252.336903 
L 219.393357 253.455563 
L 219.706739 252.896233 
L 220.057639 252.896233 
L 220.322043 252.336903 
L 220.694787 252.896233 
L 221.027398 252.896233 
L 221.346185 253.455563 
L 221.604244 253.455563 
L 222.090008 252.896233 
L 222.342543 253.455563 
L 222.603916 252.896233 
L 223.362929 248.421595 
L 224.093045 249.540254 
L 224.199791 253.455563 
L 224.362539 253.455563 
L 224.660328 254.014893 
L 225.006289 253.455563 
L 225.322151 253.455563 
L 225.711248 252.896233 
L 226.048267 254.014893 
L 227.264604 254.014893 
L 227.747997 254.574222 
L 228.02425 254.574222 
L 228.045686 255.133552 
L 229.423956 255.133552 
L 229.816344 256.252212 
L 231.744798 256.252212 
L 232.129228 257.370871 
L 233.438317 257.370871 
L 235.823119 256.811542 
L 236.044351 257.370871 
L 236.64102 257.370871 
L 237.143083 257.930201 
L 237.479399 259.048861 
L 237.579964 258.489531 
L 237.945515 259.60819 
L 238.758714 259.60819 
L 242.052306 260.72685 
L 250.193505 260.72685 
L 250.525123 260.16752 
L 252.116811 260.16752 
L 252.446737 260.72685 
L 253.54006 260.72685 
L 253.91741 261.28618 
L 254.188746 260.72685 
L 254.50365 261.28618 
L 254.852082 260.72685 
L 255.138058 261.84551 
L 255.576049 261.28618 
L 255.895631 261.84551 
L 262.842406 261.84551 
L 263.201249 260.72685 
L 263.581403 261.28618 
L 263.925215 260.72685 
L 264.31032 260.72685 
L 264.619163 260.16752 
L 265.908112 260.16752 
L 266.2354 260.72685 
L 266.605086 260.16752 
L 266.941891 259.048861 
L 267.609732 259.048861 
L 267.986526 258.489531 
L 268.268486 259.60819 
L 268.631196 259.60819 
L 268.911422 259.048861 
L 269.79587 260.16752 
L 270.313278 259.60819 
L 270.620681 260.16752 
L 271.274682 260.16752 
L 271.643799 259.60819 
L 272.006249 261.28618 
L 272.355105 260.72685 
L 273.024851 260.72685 
L 273.280152 260.16752 
L 273.606664 260.72685 
L 273.962992 260.72685 
L 274.280988 255.692882 
L 274.407323 256.252212 
L 274.657216 256.252212 
L 274.831296 256.811542 
L 274.983014 256.811542 
L 275.182763 257.370871 
L 275.318131 256.252212 
L 275.63511 256.811542 
L 275.764906 256.811542 
L 275.986429 257.370871 
L 276.560615 257.370871 
L 276.839847 258.489531 
L 277.116584 257.370871 
L 277.296756 257.930201 
L 278.312575 257.930201 
L 278.614982 257.370871 
L 278.901776 257.370871 
L 279.262162 257.930201 
L 279.595409 257.930201 
L 279.990447 257.370871 
L 280.371664 257.930201 
L 280.667452 257.930201 
L 281.132928 259.048861 
L 283.031737 259.048861 
L 283.344064 257.370871 
L 284.815695 257.370871 
L 285.153675 257.930201 
L 285.419537 258.489531 
L 285.940072 258.489531 
L 286.102471 259.60819 
L 286.176967 259.048861 
L 286.3531 259.60819 
L 286.848525 259.60819 
L 287.091391 260.72685 
L 287.752663 260.72685 
L 288.061336 261.84551 
L 289.082156 261.84551 
L 289.326966 263.523499 
L 289.552866 264.082829 
L 289.683233 264.082829 
L 290.122993 264.642159 
L 290.277771 264.082829 
L 290.35278 264.642159 
L 290.836301 264.642159 
L 291.404155 265.201488 
L 292.678123 265.201488 
L 293.006688 264.642159 
L 293.321509 265.201488 
L 293.676394 265.201488 
L 293.846475 265.760818 
L 293.887384 265.201488 
L 294.089252 265.760818 
L 294.247138 265.760818 
L 294.403057 266.879478 
L 295.003443 267.998137 
L 295.440631 267.438807 
L 295.773021 267.998137 
L 296.426467 267.998137 
L 296.781123 269.116797 
L 296.910958 268.557467 
L 297.121882 270.235456 
L 297.420765 269.676127 
L 297.614606 270.235456 
L 297.767875 269.676127 
L 297.937246 270.794786 
L 298.282462 270.794786 
L 298.384708 271.354116 
L 298.789724 270.794786 
L 299.102971 271.913446 
L 299.809699 271.913446 
L 300.064108 273.032105 
L 300.424964 271.913446 
L 300.670119 271.913446 
L 300.76 272.472775 
L 301.419572 272.472775 
L 301.728097 274.710095 
L 302.171803 272.472775 
L 302.240597 273.032105 
L 302.824827 272.472775 
L 302.88015 273.591435 
L 303.08109 273.591435 
L 303.485998 274.150765 
L 303.814601 273.591435 
L 304.062853 273.591435 
L 304.430215 274.710095 
L 304.829878 274.710095 
L 305.21745 274.150765 
L 305.507111 274.710095 
L 305.683112 274.150765 
L 305.858163 275.269424 
L 307.409272 275.269424 
L 307.886004 275.828754 
L 308.859374 275.828754 
L 309.204742 274.710095 
L 309.855663 274.710095 
L 310.181445 275.269424 
L 313.145161 275.269424 
L 313.545134 274.710095 
L 313.920058 275.828754 
L 318.468398 275.828754 
L 319.46618 276.388084 
L 320.058806 276.388084 
L 320.5401 276.947414 
L 320.920453 276.947414 
L 321.143958 277.506743 
L 326.206714 277.506743 
L 326.617919 276.947414 
L 326.94393 277.506743 
L 327.266004 276.947414 
L 327.484734 273.591435 
L 329.484814 273.591435 
L 329.663267 274.150765 
L 330.009182 274.150765 
L 330.123575 273.591435 
L 332.193939 273.591435 
L 332.481156 274.150765 
L 332.589702 273.591435 
L 333.08167 273.591435 
L 333.309079 274.710095 
L 333.481856 273.591435 
L 333.595737 273.591435 
L 333.809756 274.710095 
L 333.96166 274.710095 
L 334.15758 273.591435 
L 334.328929 274.710095 
L 334.438737 273.591435 
L 334.482963 274.710095 
L 335.661429 274.710095 
L 335.848496 275.269424 
L 335.87593 275.828754 
L 336.476033 275.828754 
L 336.511401 276.388084 
L 336.857169 276.388084 
L 337.036208 276.947414 
L 337.188856 276.388084 
L 337.376388 276.947414 
L 337.503208 276.388084 
L 337.800649 276.947414 
L 337.926441 276.388084 
L 337.94369 276.947414 
L 338.320718 276.947414 
L 338.55695 277.506743 
L 338.705943 277.506743 
L 338.929065 278.625403 
L 339.176638 279.184733 
L 339.347622 278.625403 
L 341.252076 278.625403 
L 341.524379 279.184733 
L 342.983932 279.184733 
L 343.216757 279.744063 
L 343.52451 279.744063 
L 343.752877 280.303392 
L 343.878747 279.744063 
L 344.482621 279.744063 
L 344.686409 280.862722 
L 345.24109 280.862722 
L 345.294357 281.422052 
L 345.371756 280.862722 
L 345.491495 280.862722 
L 345.706318 281.981382 
L 345.930037 282.540711 
L 345.992565 281.981382 
L 346.246163 284.218701 
L 347.273234 284.218701 
L 347.376488 284.778031 
L 347.601492 284.778031 
L 347.733298 285.89669 
L 347.887987 284.778031 
L 349.251463 284.778031 
L 349.33036 285.33736 
L 349.591888 284.778031 
L 349.717106 285.33736 
L 349.94862 284.778031 
L 350.249346 284.778031 
L 350.433763 285.89669 
L 350.769931 285.89669 
L 350.907825 285.33736 
L 351.02597 286.45602 
L 351.374888 284.778031 
L 351.740528 285.89669 
L 352.0054 284.778031 
L 352.625445 284.778031 
L 353.107996 286.45602 
L 353.25815 285.89669 
L 353.424436 286.45602 
L 353.873128 285.33736 
L 354.016802 286.45602 
L 355.081644 286.45602 
L 355.253284 287.01535 
L 355.552392 287.01535 
L 355.711842 286.45602 
L 355.913082 287.01535 
L 356.040329 286.45602 
L 356.42796 287.574679 
L 356.957185 287.574679 
L 357.33043 288.693339 
L 358.947031 288.693339 
L 359.123781 289.252669 
L 359.339981 288.693339 
L 359.446952 289.252669 
L 359.667377 288.693339 
L 359.960127 288.693339 
L 360.148951 289.252669 
L 360.273106 288.693339 
L 360.668372 288.693339 
L 360.79063 289.252669 
L 361.344803 289.252669 
L 361.382158 290.371328 
L 363.752324 290.371328 
L 363.986147 290.930658 
L 364.139622 290.371328 
L 364.269647 290.930658 
L 364.368412 290.371328 
L 364.486883 291.489988 
L 365.03273 291.489988 
L 365.290215 292.049318 
L 365.342399 291.489988 
L 365.395863 292.049318 
L 365.689893 291.489988 
L 365.765883 292.049318 
L 366.053426 292.608647 
L 366.16605 293.167977 
L 366.381055 293.167977 
L 366.430492 293.727307 
L 366.729849 295.405296 
L 366.864588 294.845967 
L 367.04644 294.845967 
L 367.079201 295.964626 
L 368.356871 295.964626 
L 368.515565 296.523956 
L 368.765868 295.964626 
L 369.199441 296.523956 
L 369.31532 295.964626 
L 369.505021 296.523956 
L 369.73816 296.523956 
L 369.876899 297.083286 
L 370.200051 297.083286 
L 370.207974 297.642615 
L 370.307589 297.083286 
L 370.403079 298.201945 
L 370.544216 298.201945 
L 370.739585 298.761275 
L 372.079791 298.761275 
L 372.115159 298.201945 
L 372.19953 299.320605 
L 372.552968 299.320605 
L 372.73347 298.761275 
L 372.872415 299.320605 
L 373.081604 298.761275 
L 373.238338 299.320605 
L 373.414432 299.320605 
L 373.565746 298.761275 
L 373.715779 300.439264 
L 375.511838 300.439264 
L 376.051951 301.557924 
L 376.336258 300.998594 
L 383.120976 300.998594 
L 383.236168 301.557924 
L 383.442199 300.998594 
L 383.50158 301.557924 
L 384.117218 301.557924 
L 384.28769 302.117254 
L 385.151738 302.117254 
L 385.267187 302.676583 
L 385.429919 302.117254 
L 386.75351 302.117254 
L 386.9371 302.676583 
L 387.1683 302.117254 
L 387.295958 302.117254 
L 387.499398 303.235913 
L 387.611312 302.676583 
L 388.107353 302.676583 
L 388.323487 303.235913 
L 389.34084 303.235913 
L 389.506563 302.117254 
L 389.842363 303.235913 
L 391.649142 303.235913 
L 391.834389 303.795243 
L 391.999884 303.795243 
L 392.178116 304.354573 
L 392.311334 304.354573 
L 392.476239 304.913903 
L 392.862069 304.913903 
L 392.93042 305.473232 
L 393.252067 305.473232 
L 393.455239 304.354573 
L 393.613885 304.913903 
L 393.856728 304.913903 
L 393.955749 305.473232 
L 394.32726 305.473232 
L 394.659541 306.032562 
L 395.021875 307.710552 
L 395.140505 307.151222 
L 395.250964 307.710552 
L 395.5045 308.269881 
L 395.624725 307.710552 
L 395.828618 308.269881 
L 395.94743 308.269881 
L 396.160852 307.710552 
L 396.335158 307.710552 
L 396.676642 309.388541 
L 396.882894 308.829211 
L 397.005753 308.829211 
L 397.167038 309.388541 
L 397.209449 309.947871 
L 397.34659 309.947871 
L 397.413517 309.388541 
L 397.63504 309.947871 
L 397.788433 309.388541 
L 397.914893 309.947871 
L 398.460996 309.947871 
L 398.664327 302.117254 
L 399.207372 303.235913 
L 399.565928 303.235913 
L 399.691343 303.795243 
L 399.886689 303.235913 
L 400.012078 303.235913 
L 400.160447 302.676583 
L 400.331044 303.235913 
L 400.565378 303.235913 
L 400.680679 302.676583 
L 400.82717 303.235913 
L 401.026963 302.676583 
L 401.10549 303.235913 
L 401.394519 303.795243 
L 401.520769 303.795243 
L 401.825926 302.676583 
L 402.10238 303.235913 
L 403.33059 303.235913 
L 403.622016 303.795243 
L 403.928004 303.235913 
L 404.478398 303.235913 
L 404.900358 304.354573 
L 405.045091 302.676583 
L 405.288695 303.235913 
L 405.599237 302.676583 
L 405.741293 304.354573 
L 405.912806 303.235913 
L 406.074898 303.235913 
L 406.182846 303.795243 
L 406.263407 306.032562 
L 406.277867 305.473232 
L 406.635239 306.032562 
L 407.517298 306.032562 
L 407.934547 307.151222 
L 408.106669 306.591892 
L 408.724587 306.591892 
L 408.892949 306.032562 
L 409.072892 306.591892 
L 409.270267 306.591892 
L 409.38622 306.032562 
L 409.738979 306.591892 
L 409.946213 306.591892 
L 410.082073 307.151222 
L 410.248235 306.591892 
L 410.426747 306.591892 
L 410.594038 306.032562 
L 410.697664 306.591892 
L 411.629547 306.591892 
L 411.862687 308.269881 
L 412.144565 307.710552 
L 412.377697 307.710552 
L 412.566435 307.151222 
L 412.65225 307.710552 
L 412.944603 307.151222 
L 413.053898 307.710552 
L 413.31145 307.710552 
L 413.412209 308.269881 
L 413.719997 307.710552 
L 414.354238 307.710552 
L 414.58938 308.269881 
L 414.981085 308.269881 
L 415.07985 308.829211 
L 415.246776 308.269881 
L 415.636995 309.388541 
L 415.753103 309.388541 
L 415.925306 309.947871 
L 416.084045 309.947871 
L 416.382727 310.5072 
L 418.812329 310.5072 
L 419.071165 311.06653 
L 419.313868 311.06653 
L 419.363282 309.947871 
L 419.424478 310.5072 
L 419.820447 310.5072 
L 419.910828 311.06653 
L 420.431844 311.06653 
L 420.68067 311.62586 
L 421.014863 311.62586 
L 421.025979 311.06653 
L 421.137074 311.62586 
L 421.239242 311.06653 
L 422.694465 311.06653 
L 422.967327 310.5072 
L 423.728485 311.06653 
L 425.306936 311.06653 
L 425.375237 311.62586 
L 427.031575 311.62586 
L 427.180774 312.18519 
L 428.71255 314.981839 
L 428.857726 314.981839 
L 429.009187 315.541168 
L 429.076638 314.981839 
L 429.402828 315.541168 
L 429.705878 316.100498 
L 430.06831 316.100498 
L 430.19002 316.659828 
L 430.648047 316.659828 
L 431.311445 316.100498 
L 431.344866 317.778488 
L 431.878779 317.778488 
L 432.044258 317.219158 
L 432.164451 317.778488 
L 433.391074 317.778488 
L 433.675823 317.219158 
L 434.991287 317.219158 
L 435.803562 317.778488 
L 437.444408 317.778488 
L 438.252389 318.337817 
L 438.36045 318.897147 
L 440.790428 318.897147 
L 441.018714 318.337817 
L 442.252313 318.337817 
L 443.153057 317.778488 
L 443.80944 317.778488 
L 444.135176 318.337817 
L 444.424368 319.456477 
L 444.596547 319.456477 
L 444.603267 318.897147 
L 446.534597 318.897147 
L 446.741877 319.456477 
L 451.620946 319.456477 
L 452.236141 320.015807 
L 452.473226 320.015807 
L 452.565772 320.575136 
L 452.867302 320.575136 
L 452.993932 320.015807 
L 453.190229 320.575136 
L 454.292378 320.575136 
L 454.783659 321.134466 
L 455.124922 322.253126 
L 458.113745 322.253126 
L 458.639805 321.693796 
L 458.792011 322.253126 
L 458.945982 321.693796 
L 459.119069 322.253126 
L 459.938806 322.253126 
L 460.316745 321.693796 
L 460.508529 322.253126 
L 461.037351 321.134466 
L 461.243456 322.253126 
L 462.523179 322.253126 
L 462.538318 322.812456 
L 464.566399 322.812456 
L 465.552476 323.371785 
L 465.848395 322.812456 
L 466.398195 322.812456 
L 466.531476 323.371785 
L 467.00125 321.693796 
L 467.311413 322.253126 
L 467.728387 321.693796 
L 468.037241 321.693796 
L 468.177509 322.253126 
L 469.029029 322.253126 
L 470.040779 321.693796 
L 470.193066 322.253126 
L 471.199811 322.253126 
L 471.526672 321.693796 
L 476.650659 322.253126 
L 477.034325 321.693796 
L 477.365904 322.253126 
L 477.663022 321.693796 
L 477.696265 322.253126 
L 477.954933 322.812456 
L 478.104738 322.812456 
L 478.24177 323.371785 
L 480.624088 323.371785 
L 480.674852 323.931115 
L 480.970977 323.931115 
L 481.761673 323.371785 
L 481.786826 323.931115 
L 482.090617 323.371785 
L 482.164455 324.490445 
L 482.359991 324.490445 
L 482.756689 325.049775 
L 483.42148 325.049775 
L 483.825146 324.490445 
L 484.279014 325.609104 
L 484.297629 326.168434 
L 484.610104 326.727764 
L 484.73853 326.727764 
L 485.062807 326.168434 
L 485.518781 326.168434 
L 485.61357 326.727764 
L 486.651757 326.727764 
L 486.794779 326.168434 
L 486.969872 327.287094 
L 487.114187 327.287094 
L 487.388084 326.727764 
L 487.637181 327.287094 
L 488.192674 327.287094 
L 488.437317 328.405753 
L 490.182104 328.405753 
L 490.3907 328.965083 
L 490.518428 328.965083 
L 490.728603 328.405753 
L 490.782808 328.965083 
L 491.339542 328.965083 
L 491.451518 329.524413 
L 491.755647 329.524413 
L 491.842512 330.643072 
L 492.317017 330.643072 
L 492.495299 332.321062 
L 492.866518 332.321062 
L 493.083626 331.761732 
L 493.200918 332.321062 
L 493.358808 332.321062 
L 493.370866 333.999051 
L 493.666231 333.999051 
L 494.043941 333.439721 
L 494.215294 333.439721 
L 494.361673 333.999051 
L 494.725695 333.999051 
L 495.102908 333.439721 
L 495.141707 334.558381 
L 495.475699 334.558381 
L 495.537264 335.117711 
L 495.769981 335.67704 
L 496.384745 335.67704 
L 496.475103 336.7957 
L 496.738928 336.7957 
L 496.893602 337.35503 
L 497.042021 337.35503 
L 497.574265 337.91436 
L 497.78257 337.35503 
L 497.90662 329.524413 
L 498.041157 328.965083 
L 498.132275 331.202402 
L 498.788604 331.202402 
L 499.05837 330.643072 
L 499.254922 331.761732 
L 499.406985 331.761732 
L 499.796823 332.321062 
L 500.225596 332.321062 
L 500.421241 331.761732 
L 500.574425 332.321062 
L 501.60827 332.321062 
L 501.735568 332.880392 
L 502.206906 331.761732 
L 502.590176 332.321062 
L 502.809806 332.321062 
L 502.894161 332.880392 
L 503.088064 331.761732 
L 503.276551 332.880392 
L 504.058618 332.880392 
L 504.179835 332.321062 
L 504.458416 332.321062 
L 504.502238 332.880392 
L 504.817669 333.439721 
L 504.82998 332.880392 
L 505.423184 332.880392 
L 505.728504 333.439721 
L 507.312899 333.439721 
L 507.4317 333.999051 
L 507.745908 333.439721 
L 507.756399 333.999051 
L 508.207578 334.558381 
L 508.4848 334.558381 
L 508.803816 335.117711 
L 508.963103 335.67704 
L 509.084888 335.67704 
L 509.468111 334.558381 
L 509.543814 335.67704 
L 509.801509 335.117711 
L 510.018412 335.67704 
L 510.986436 335.67704 
L 511.094897 336.23637 
L 511.230074 335.67704 
L 511.698514 336.23637 
L 511.924783 335.67704 
L 512.154097 336.23637 
L 512.291874 335.67704 
L 512.612744 336.7957 
L 512.834442 336.23637 
L 513.592729 336.23637 
L 513.894406 336.7957 
L 514.3349 336.7957 
L 514.685366 335.67704 
L 514.778777 336.23637 
L 515.153244 336.23637 
L 515.248276 337.35503 
L 515.720561 336.23637 
L 515.885493 336.7957 
L 516.266024 336.23637 
L 516.543794 336.23637 
L 516.686098 336.7957 
L 516.88468 336.7957 
L 516.911137 333.439721 
L 517.026244 333.439721 
L 517.471696 333.999051 
L 517.529405 332.880392 
L 517.689339 333.999051 
L 517.835966 333.439721 
L 517.923973 333.999051 
L 518.2731 333.439721 
L 518.692002 333.999051 
L 518.903011 333.999051 
L 519.192665 333.439721 
L 519.604385 333.439721 
L 520.026524 334.558381 
L 520.247647 333.999051 
L 520.694783 333.999051 
L 520.90388 333.439721 
L 520.934662 332.880392 
L 521.195147 333.999051 
L 521.333289 333.439721 
L 521.495776 333.999051 
L 521.737219 333.439721 
L 522.010487 333.439721 
L 522.186038 332.880392 
L 522.518967 332.880392 
L 522.865588 333.999051 
L 523.100788 333.439721 
L 523.387213 334.558381 
L 523.536378 334.558381 
L 523.630006 333.999051 
L 523.921312 333.999051 
L 523.945763 334.558381 
L 524.911455 334.558381 
L 525.069659 335.117711 
L 525.205167 335.117711 
L 525.414057 335.67704 
L 525.594229 335.117711 
L 525.731637 335.67704 
L 525.936493 335.117711 
L 526.051813 335.67704 
L 526.200656 335.117711 
L 526.248611 335.67704 
L 526.413383 336.7957 
L 526.614693 336.23637 
L 526.678047 335.67704 
L 526.890352 336.23637 
L 527.06385 335.67704 
L 527.27297 336.23637 
L 527.615664 336.23637 
L 527.711085 336.7957 
L 527.947829 336.23637 
L 528.569581 337.91436 
L 528.736833 337.91436 
L 528.909831 336.7957 
L 528.991618 337.35503 
L 529.236207 337.35503 
L 529.347489 336.7957 
L 529.547487 336.7957 
L 529.729571 337.35503 
L 529.963658 337.35503 
L 530.356662 339.033019 
L 530.565751 338.473689 
L 533.314256 338.473689 
L 533.442159 339.033019 
L 533.604356 339.033019 
L 533.734792 338.473689 
L 533.881198 339.033019 
L 533.996495 339.033019 
L 534.648494 336.7957 
L 534.757564 337.91436 
L 535.320141 336.7957 
L 535.930443 336.7957 
L 536.591351 337.91436 
L 537.759706 337.35503 
L 538.056417 337.91436 
L 538.383293 337.35503 
L 538.616747 338.473689 
L 538.710379 337.35503 
L 539.018124 338.473689 
L 539.353424 337.35503 
L 539.464418 338.473689 
L 539.679431 338.473689 
L 539.797627 337.91436 
L 540.011864 338.473689 
L 540.140434 338.473689 
L 540.260193 337.91436 
L 540.405702 339.592349 
L 540.787316 338.473689 
L 541.144242 338.473689 
L 541.362335 339.033019 
L 541.773928 339.033019 
L 542.108653 338.473689 
L 542.304337 338.473689 
L 542.452267 339.592349 
L 542.636793 339.033019 
L 542.739814 339.592349 
L 542.988566 340.151679 
L 543.14109 340.151679 
L 543.407755 339.033019 
L 543.66275 340.711008 
L 543.983252 340.711008 
L 544.007579 341.829668 
L 544.029961 341.270338 
L 544.197582 340.711008 
L 544.373785 341.829668 
L 544.447281 340.711008 
L 544.712895 340.711008 
L 544.749086 341.270338 
L 545.048342 341.829668 
L 545.227443 341.829668 
L 545.311391 340.711008 
L 545.712993 341.829668 
L 545.778031 340.711008 
L 545.996772 341.829668 
L 546.165041 340.151679 
L 546.676559 341.270338 
L 547.061901 339.592349 
L 547.091698 340.151679 
L 547.335779 339.592349 
L 547.490088 339.592349 
L 547.650282 340.711008 
L 547.841589 339.592349 
L 548.20939 340.711008 
L 548.348933 339.592349 
L 548.500021 340.151679 
L 548.80791 340.151679 
L 549.011237 339.592349 
L 549.400458 339.592349 
L 549.412339 340.151679 
L 550.024926 339.033019 
L 550.349812 340.711008 
L 550.52224 340.711008 
L 550.723204 340.151679 
L 550.780009 341.270338 
L 551.065298 340.151679 
L 551.240965 341.270338 
L 551.418056 340.151679 
L 551.491242 340.711008 
L 551.854438 340.711008 
L 552.072093 341.270338 
L 552.171642 342.388998 
L 552.374301 341.270338 
L 552.707723 341.829668 
L 552.855215 342.388998 
L 553.037455 341.829668 
L 553.193052 344.066987 
L 553.437284 344.066987 
L 553.760269 344.626317 
L 553.799234 343.507657 
L 554.117117 344.626317 
L 554.569607 343.507657 
L 554.691873 345.185647 
L 555.058774 345.744976 
L 555.458389 344.626317 
L 555.711665 344.066987 
L 556.415709 344.626317 
L 556.500037 345.185647 
L 556.763432 345.185647 
L 557.248982 345.744976 
L 557.48954 345.744976 
L 557.789292 346.304306 
L 558.092498 347.982296 
L 558.870953 347.422966 
L 559.12171 347.422966 
L 559.469426 345.744976 
L 559.799961 345.744976 
L 559.885162 345.185647 
L 560.136289 346.304306 
L 560.192236 345.185647 
L 560.467088 345.744976 
L 560.96567 345.744976 
L 561.221526 346.863636 
L 561.456365 345.744976 
L 561.777108 346.863636 
L 561.902151 346.304306 
L 562.073454 346.863636 
L 562.520694 345.744976 
L 562.779189 346.304306 
L 563.535268 346.304306 
L 563.715735 345.744976 
L 563.715735 345.744976 
" clip-path="url(#pffc854fc4a)" style="fill: none; stroke-dasharray: 3,1.5; stroke-dashoffset: 0; stroke: #808080; stroke-width: 1.5"/>
   </g>
   <g id="line2d_19">
    <path d="M 38.539265 297.083286 
L 39.909702 296.523956 
L 41.275715 295.405296 
L 44.51057 295.405296 
L 48.077384 294.845967 
L 48.34199 295.405296 
L 48.507015 295.405296 
L 48.619852 294.286637 
L 48.880278 294.845967 
L 49.265457 294.286637 
L 50.015399 294.286637 
L 50.433079 291.489988 
L 50.52625 294.286637 
L 50.743048 290.930658 
L 50.811992 291.489988 
L 51.054932 291.489988 
L 51.443545 290.930658 
L 52.080607 290.930658 
L 52.406762 288.693339 
L 52.913752 288.693339 
L 53.428389 289.811999 
L 53.755778 285.33736 
L 53.828249 285.89669 
L 54.136336 285.33736 
L 54.732295 283.659371 
L 55.13652 284.778031 
L 55.775448 284.778031 
L 56.132513 285.89669 
L 56.373893 285.33736 
L 57.1011 284.778031 
L 57.427417 284.778031 
L 57.782256 283.659371 
L 58.291411 283.659371 
L 58.817998 280.303392 
L 60.233589 278.625403 
L 60.426366 278.066073 
L 60.8347 278.066073 
L 61.09219 277.506743 
L 61.502448 277.506743 
L 61.804482 278.625403 
L 62.112145 279.184733 
L 62.455173 279.184733 
L 62.656052 278.625403 
L 65.105856 278.625403 
L 65.497433 278.066073 
L 66.131224 278.066073 
L 66.481962 277.506743 
L 66.818061 277.506743 
L 66.948563 278.066073 
L 67.778643 277.506743 
L 68.126544 278.066073 
L 69.085741 278.066073 
L 69.3937 277.506743 
L 69.772318 278.066073 
L 71.518156 278.066073 
L 71.875854 277.506743 
L 72.072193 275.828754 
L 72.550062 276.947414 
L 73.223062 276.947414 
L 73.5375 275.828754 
L 73.661236 276.947414 
L 74.212538 275.269424 
L 74.545882 275.269424 
L 74.869631 274.710095 
L 75.230988 274.710095 
L 75.562772 275.269424 
L 75.87981 274.150765 
L 76.161277 274.150765 
L 76.926521 273.032105 
L 80.944281 273.032105 
L 81.263665 271.913446 
L 81.944356 271.913446 
L 82.246479 269.116797 
L 83.259792 269.116797 
L 84.22976 266.879478 
L 85.260738 266.879478 
L 85.630001 266.320148 
L 91.858851 266.320148 
L 92.606655 264.642159 
L 92.776057 266.320148 
L 93.975556 266.320148 
L 94.301284 265.201488 
L 94.660658 266.320148 
L 95.5157 266.320148 
L 95.987986 265.201488 
L 96.338595 266.320148 
L 101.63366 266.320148 
L 101.923023 261.28618 
L 102.123641 266.320148 
L 104.042579 266.320148 
L 104.39093 265.760818 
L 104.589764 260.72685 
L 105.059454 265.760818 
L 105.391184 265.760818 
L 105.611392 266.320148 
L 109.085788 266.320148 
L 109.261735 265.760818 
L 109.577484 265.760818 
L 110.097487 264.082829 
L 115.338584 264.082829 
L 116.482434 263.523499 
L 123.52181 263.523499 
L 123.814935 260.72685 
L 124.189495 260.72685 
L 124.521636 263.523499 
L 124.863357 263.523499 
L 125.098821 260.72685 
L 125.354017 263.523499 
L 125.778115 260.72685 
L 126.15378 259.60819 
L 130.509769 259.60819 
L 130.885745 259.048861 
L 132.535243 259.048861 
L 132.874333 257.930201 
L 133.284328 255.692882 
L 133.577201 255.133552 
L 133.908241 251.777574 
L 134.316931 251.777574 
L 134.864916 250.658914 
L 135.243099 250.658914 
L 135.896305 249.540254 
L 138.637916 244.506286 
L 138.917854 245.624946 
L 140.878046 245.624946 
L 141.260467 243.387627 
L 141.597694 243.946957 
L 142.947731 243.946957 
L 143.194567 245.065616 
L 143.628728 243.946957 
L 144.60921 243.946957 
L 144.942896 242.828297 
L 145.264764 242.828297 
L 145.645962 242.268967 
L 145.799786 242.268967 
L 145.971701 240.590978 
L 146.204748 240.590978 
L 146.987552 240.031648 
L 147.634356 241.709638 
L 147.792518 241.709638 
L 148.299558 241.150308 
L 148.624879 240.031648 
L 150.30608 240.031648 
L 150.630679 239.472318 
L 150.979251 239.472318 
L 151.301968 238.912989 
L 151.604282 238.912989 
L 152.306754 238.353659 
L 152.66955 238.353659 
L 153.031329 236.67567 
L 153.621239 236.67567 
L 153.989902 236.11634 
L 154.218979 236.11634 
L 154.34687 246.184276 
L 154.443719 245.624946 
L 154.998109 245.624946 
L 155.326569 244.506286 
L 155.765231 244.506286 
L 155.991185 243.946957 
L 156.488072 243.946957 
L 156.537517 243.387627 
L 157.320271 243.387627 
L 157.740531 241.709638 
L 158.613894 240.031648 
L 160.033458 240.031648 
L 160.340369 238.912989 
L 160.455934 239.472318 
L 160.589761 239.472318 
L 160.960883 240.031648 
L 162.311498 239.472318 
L 165.69057 239.472318 
L 166.08212 240.031648 
L 167.717577 240.031648 
L 167.95034 240.590978 
L 168.376707 240.031648 
L 171.013031 240.031648 
L 171.407355 239.472318 
L 171.958583 239.472318 
L 172.405207 238.912989 
L 172.629935 239.472318 
L 174.782896 239.472318 
L 175.462357 238.353659 
L 176.908401 238.353659 
L 177.15186 230.523042 
L 177.426316 230.523042 
L 179.765258 228.845053 
L 179.908987 229.404382 
L 180.058931 228.845053 
L 180.448133 229.404382 
L 180.774602 229.404382 
L 181.118213 228.845053 
L 181.376245 228.845053 
L 181.790507 227.726393 
L 181.960879 227.726393 
L 182.118552 228.285723 
L 182.471955 227.167063 
L 184.821527 227.167063 
L 185.050104 226.607734 
L 185.43119 226.607734 
L 185.78486 226.048404 
L 186.152033 226.607734 
L 186.314047 226.607734 
L 186.817289 227.167063 
L 187.194328 224.370414 
L 187.462747 226.048404 
L 187.812825 226.048404 
L 188.093427 222.692425 
L 188.289758 223.251755 
L 188.498761 222.133095 
L 188.604029 222.692425 
L 188.732871 221.014436 
L 189.066898 221.014436 
L 189.490119 220.455106 
L 190.319023 221.014436 
L 190.507766 219.895776 
L 190.816224 219.895776 
L 191.034663 221.573766 
L 191.776151 219.895776 
L 192.513445 219.336446 
L 193.160959 219.336446 
L 193.500639 217.658457 
L 193.812865 217.658457 
L 193.997809 218.217787 
L 194.322412 218.217787 
L 195.577866 214.861808 
L 195.787245 217.099127 
L 196.190279 217.658457 
L 196.662991 214.861808 
L 197.933615 214.861808 
L 198.042391 214.302478 
L 198.548682 213.743149 
L 199.898335 213.743149 
L 200.516114 210.9465 
L 203.987728 210.9465 
L 204.261862 209.82784 
L 204.622408 212.065159 
L 204.832311 210.38717 
L 208.617071 210.38717 
L 208.933294 209.82784 
L 209.695872 206.471861 
L 209.981968 208.149851 
L 210.322917 207.590521 
L 210.700444 208.149851 
L 210.966112 208.149851 
L 211.368661 202.556553 
L 211.584512 202.556553 
L 211.626407 201.997223 
L 212.305646 201.997223 
L 212.687958 200.878564 
L 213.025019 199.200574 
L 214.038965 198.641245 
L 214.103122 199.200574 
L 214.653648 199.759904 
L 214.735415 199.200574 
L 217.388104 199.200574 
L 217.572684 198.641245 
L 218.067732 198.081915 
L 218.728791 196.963255 
L 218.900729 195.844596 
L 219.133074 195.844596 
L 219.393357 194.725936 
L 219.706739 195.285266 
L 220.057639 195.285266 
L 220.322043 195.844596 
L 220.694787 195.285266 
L 221.027398 195.285266 
L 221.346185 194.725936 
L 221.604244 194.725936 
L 222.090008 195.285266 
L 222.342543 194.725936 
L 222.603916 195.285266 
L 223.044836 198.081915 
L 223.362929 198.641245 
L 224.093045 197.522585 
L 224.199791 193.607277 
L 224.362539 193.607277 
L 224.660328 193.047947 
L 225.006289 193.607277 
L 225.322151 193.607277 
L 225.711248 194.166606 
L 226.048267 193.047947 
L 227.264604 193.047947 
L 227.747997 192.488617 
L 228.02425 192.488617 
L 228.045686 191.929287 
L 229.423956 191.929287 
L 229.816344 190.810628 
L 231.744798 190.810628 
L 232.129228 189.691968 
L 235.823119 189.691968 
L 236.044351 189.132638 
L 236.64102 189.132638 
L 237.143083 188.573309 
L 237.479399 187.454649 
L 237.579964 188.013979 
L 237.945515 186.895319 
L 238.758714 186.895319 
L 242.052306 185.77666 
L 250.193505 185.77666 
L 250.525123 186.335989 
L 252.116811 186.335989 
L 252.446737 185.77666 
L 253.54006 185.77666 
L 253.91741 185.21733 
L 254.188746 185.77666 
L 254.50365 185.21733 
L 254.852082 185.77666 
L 255.138058 184.658 
L 255.576049 185.21733 
L 255.895631 184.658 
L 262.842406 184.658 
L 263.201249 185.77666 
L 263.581403 185.21733 
L 263.925215 185.77666 
L 264.31032 185.21733 
L 264.619163 185.77666 
L 265.908112 185.77666 
L 266.2354 185.21733 
L 266.605086 185.77666 
L 266.941891 184.658 
L 267.609732 184.658 
L 267.986526 185.21733 
L 268.268486 184.09867 
L 268.631196 184.09867 
L 268.911422 184.658 
L 269.79587 183.539341 
L 270.313278 184.09867 
L 270.620681 183.539341 
L 271.274682 183.539341 
L 271.643799 184.09867 
L 272.006249 182.420681 
L 272.355105 182.980011 
L 273.024851 182.980011 
L 273.280152 183.539341 
L 273.606664 182.980011 
L 273.962992 182.980011 
L 274.280988 187.454649 
L 274.407323 186.895319 
L 274.657216 186.895319 
L 274.831296 186.335989 
L 274.983014 186.335989 
L 275.182763 185.77666 
L 275.318131 186.895319 
L 275.63511 186.335989 
L 275.764906 186.335989 
L 275.986429 185.77666 
L 276.560615 185.77666 
L 276.839847 184.658 
L 277.116584 185.77666 
L 277.296756 185.21733 
L 278.312575 185.21733 
L 278.614982 185.77666 
L 278.901776 185.77666 
L 279.262162 185.21733 
L 279.595409 185.21733 
L 279.990447 185.77666 
L 280.371664 185.21733 
L 280.667452 185.21733 
L 281.132928 184.09867 
L 283.031737 184.09867 
L 283.344064 184.658 
L 284.815695 184.658 
L 285.153675 184.09867 
L 285.419537 183.539341 
L 285.940072 183.539341 
L 286.102471 182.420681 
L 286.176967 182.980011 
L 286.3531 182.420681 
L 286.848525 182.420681 
L 287.091391 181.302021 
L 287.752663 181.302021 
L 288.061336 180.183362 
L 289.082156 180.183362 
L 289.326966 178.505373 
L 289.552866 177.946043 
L 289.683233 177.946043 
L 290.122993 177.386713 
L 290.277771 177.946043 
L 290.35278 177.386713 
L 290.511481 177.386713 
L 290.697264 176.827383 
L 290.836301 176.827383 
L 291.404155 176.268053 
L 292.678123 176.268053 
L 293.006688 176.827383 
L 293.321509 176.268053 
L 293.676394 176.268053 
L 293.846475 175.708724 
L 293.887384 176.268053 
L 294.089252 175.708724 
L 294.247138 175.708724 
L 294.403057 174.590064 
L 295.003443 173.471405 
L 295.440631 174.030734 
L 295.773021 173.471405 
L 296.426467 173.471405 
L 296.781123 172.352745 
L 296.910958 172.912075 
L 297.121882 171.234085 
L 297.420765 171.793415 
L 297.614606 171.234085 
L 297.767875 171.793415 
L 297.937246 170.674756 
L 298.282462 170.674756 
L 298.384708 170.115426 
L 298.789724 170.674756 
L 299.102971 169.556096 
L 299.809699 169.556096 
L 300.064108 168.437437 
L 300.424964 169.556096 
L 300.670119 169.556096 
L 300.76 168.996766 
L 301.419572 168.996766 
L 301.728097 166.759447 
L 302.171803 168.996766 
L 302.240597 168.437437 
L 302.824827 168.996766 
L 302.88015 167.878107 
L 303.08109 167.878107 
L 303.485998 167.318777 
L 303.814601 167.878107 
L 304.062853 167.878107 
L 304.430215 166.759447 
L 304.829878 166.759447 
L 305.21745 167.318777 
L 305.507111 166.759447 
L 305.683112 167.318777 
L 305.858163 166.200117 
L 307.409272 166.200117 
L 307.886004 165.640788 
L 308.859374 165.640788 
L 309.204742 166.759447 
L 309.855663 166.759447 
L 310.181445 166.200117 
L 313.145161 166.200117 
L 313.545134 166.759447 
L 313.920058 165.640788 
L 318.468398 165.640788 
L 319.46618 165.081458 
L 320.058806 165.081458 
L 320.5401 164.522128 
L 320.920453 164.522128 
L 321.143958 163.403468 
L 321.498312 163.962798 
L 326.206714 163.962798 
L 326.617919 164.522128 
L 326.94393 163.962798 
L 327.266004 164.522128 
L 327.484734 166.759447 
L 329.484814 166.759447 
L 329.814666 165.640788 
L 330.277624 166.759447 
L 332.193939 166.759447 
L 332.481156 165.640788 
L 332.589702 166.759447 
L 333.08167 166.759447 
L 333.309079 165.640788 
L 333.481856 166.759447 
L 333.595737 166.759447 
L 333.809756 165.640788 
L 333.96166 165.640788 
L 334.15758 166.759447 
L 334.328929 165.640788 
L 334.438737 166.759447 
L 334.482963 165.640788 
L 335.661429 165.640788 
L 336.047209 163.962798 
L 336.476033 163.962798 
L 336.511401 163.403468 
L 336.857169 163.403468 
L 337.036208 162.844139 
L 337.188856 163.403468 
L 337.376388 162.844139 
L 337.503208 163.403468 
L 337.800649 162.844139 
L 337.926441 163.403468 
L 337.94369 162.844139 
L 338.320718 162.844139 
L 338.55695 162.284809 
L 338.705943 162.284809 
L 338.929065 161.166149 
L 339.176638 160.60682 
L 339.347622 161.166149 
L 341.252076 161.166149 
L 341.524379 160.60682 
L 342.983932 160.60682 
L 343.216757 160.04749 
L 343.52451 160.04749 
L 343.752877 159.48816 
L 343.878747 160.04749 
L 344.482621 160.04749 
L 344.686409 158.92883 
L 345.24109 158.92883 
L 345.294357 158.3695 
L 345.371756 158.92883 
L 345.679528 158.92883 
L 345.706318 158.3695 
L 345.930037 157.810171 
L 345.992565 158.3695 
L 346.246163 156.132181 
L 347.273234 156.132181 
L 347.376488 155.572852 
L 347.601492 155.572852 
L 347.733298 154.454192 
L 347.887987 155.572852 
L 349.251463 155.572852 
L 349.33036 155.013522 
L 349.591888 155.572852 
L 349.717106 155.013522 
L 349.94862 155.572852 
L 350.249346 155.572852 
L 350.433763 154.454192 
L 350.769931 154.454192 
L 350.907825 155.013522 
L 351.02597 153.894862 
L 351.374888 155.572852 
L 351.740528 154.454192 
L 352.0054 155.572852 
L 352.625445 155.572852 
L 353.107996 153.894862 
L 353.25815 154.454192 
L 353.424436 153.894862 
L 353.873128 155.013522 
L 354.016802 153.894862 
L 355.081644 153.894862 
L 355.253284 153.335532 
L 355.552392 153.335532 
L 355.711842 153.894862 
L 355.913082 153.335532 
L 356.040329 153.894862 
L 356.42796 152.776203 
L 356.957185 152.776203 
L 357.33043 151.657543 
L 357.978848 152.776203 
L 358.11742 152.216873 
L 358.287896 152.776203 
L 358.396004 152.216873 
L 358.612899 152.216873 
L 358.7038 152.776203 
L 359.123781 151.657543 
L 359.339981 152.216873 
L 359.446952 151.657543 
L 359.667377 152.216873 
L 359.960127 152.216873 
L 360.148951 151.657543 
L 360.273106 152.216873 
L 360.39546 152.216873 
L 360.668372 152.776203 
L 360.79063 151.657543 
L 361.344803 151.657543 
L 361.382158 150.538884 
L 363.752324 150.538884 
L 363.986147 149.979554 
L 364.139622 150.538884 
L 364.269647 149.979554 
L 364.368412 150.538884 
L 364.486883 149.420224 
L 365.03273 149.420224 
L 365.290215 148.860894 
L 365.342399 149.420224 
L 365.395863 148.860894 
L 365.689893 149.420224 
L 365.765883 148.860894 
L 366.053426 148.301564 
L 366.16605 147.742235 
L 366.381055 147.742235 
L 366.430492 147.182905 
L 366.729849 145.504916 
L 366.864588 146.064245 
L 367.04644 146.064245 
L 367.079201 144.945586 
L 368.356871 144.945586 
L 368.515565 144.386256 
L 368.765868 144.945586 
L 369.505021 143.267596 
L 369.73816 143.267596 
L 369.876899 142.708267 
L 370.200051 142.708267 
L 370.207974 142.148937 
L 370.307589 142.708267 
L 370.403079 141.589607 
L 370.544216 141.589607 
L 370.739585 141.030277 
L 372.079791 141.030277 
L 372.115159 141.589607 
L 372.19953 140.470948 
L 372.552968 140.470948 
L 372.73347 141.030277 
L 372.872415 140.470948 
L 373.081604 141.030277 
L 373.238338 140.470948 
L 373.414432 140.470948 
L 373.565746 141.030277 
L 373.715779 139.352288 
L 375.511838 139.352288 
L 376.051951 138.233628 
L 376.336258 138.792958 
L 383.120976 138.792958 
L 383.236168 138.233628 
L 383.442199 138.792958 
L 383.50158 138.233628 
L 384.117218 138.233628 
L 384.28769 137.674299 
L 385.151738 137.674299 
L 385.267187 137.114969 
L 385.429919 137.674299 
L 386.75351 137.674299 
L 386.9371 137.114969 
L 387.1683 137.674299 
L 387.295958 137.674299 
L 387.499398 136.555639 
L 387.611312 137.114969 
L 388.107353 137.114969 
L 388.323487 136.555639 
L 389.34084 136.555639 
L 389.506563 137.674299 
L 389.842363 136.555639 
L 391.649142 136.555639 
L 391.834389 135.996309 
L 391.999884 135.996309 
L 392.178116 135.43698 
L 392.311334 135.43698 
L 392.476239 134.87765 
L 392.862069 134.87765 
L 392.93042 134.31832 
L 393.252067 134.31832 
L 393.455239 135.43698 
L 393.613885 134.87765 
L 393.856728 134.87765 
L 393.955749 134.31832 
L 394.32726 134.31832 
L 394.659541 133.75899 
L 395.021875 132.081001 
L 395.140505 132.640331 
L 395.250964 132.081001 
L 395.5045 131.521671 
L 395.624725 132.081001 
L 395.828618 131.521671 
L 395.94743 131.521671 
L 396.160852 132.081001 
L 396.335158 132.081001 
L 396.676642 130.403012 
L 396.882894 130.962341 
L 397.005753 130.962341 
L 397.167038 130.403012 
L 397.209449 129.843682 
L 397.34659 129.843682 
L 397.413517 130.403012 
L 397.63504 129.843682 
L 397.788433 130.403012 
L 397.914893 129.843682 
L 398.460996 129.843682 
L 398.664327 133.19966 
L 399.207372 132.081001 
L 399.565928 132.081001 
L 399.691343 131.521671 
L 399.886689 132.081001 
L 400.012078 132.081001 
L 400.160447 132.640331 
L 400.331044 132.081001 
L 400.565378 132.081001 
L 400.680679 132.640331 
L 400.82717 132.081001 
L 401.026963 132.640331 
L 401.10549 132.081001 
L 401.394519 131.521671 
L 401.680324 131.521671 
L 401.825926 132.081001 
L 402.10238 131.521671 
L 403.231173 131.521671 
L 403.33059 128.725022 
L 403.622016 130.962341 
L 403.928004 131.521671 
L 404.478398 131.521671 
L 404.900358 130.403012 
L 405.045091 132.081001 
L 405.288695 131.521671 
L 405.599237 132.081001 
L 405.741293 130.403012 
L 405.912806 131.521671 
L 406.074898 131.521671 
L 406.182846 130.962341 
L 406.277867 126.487703 
L 406.607863 128.725022 
L 406.635239 125.928373 
L 407.517298 125.928373 
L 407.934547 124.809714 
L 408.106669 125.369044 
L 408.724587 125.369044 
L 408.892949 125.928373 
L 409.072892 125.369044 
L 409.270267 125.369044 
L 409.38622 125.928373 
L 409.738979 125.369044 
L 409.946213 125.369044 
L 410.082073 124.809714 
L 410.248235 125.369044 
L 410.426747 125.369044 
L 410.594038 125.928373 
L 410.697664 125.369044 
L 411.629547 125.369044 
L 411.862687 123.691054 
L 412.144565 124.250384 
L 412.377697 124.250384 
L 412.566435 124.809714 
L 412.65225 124.250384 
L 412.944603 124.809714 
L 413.053898 124.250384 
L 413.31145 124.250384 
L 413.412209 123.691054 
L 413.719997 124.250384 
L 414.354238 124.250384 
L 414.58938 123.691054 
L 414.981085 123.691054 
L 415.07985 123.131724 
L 415.246776 123.691054 
L 415.636995 122.572395 
L 415.753103 122.572395 
L 415.925306 122.013065 
L 416.084045 122.013065 
L 416.382727 121.453735 
L 418.812329 121.453735 
L 419.071165 120.894405 
L 419.313868 120.894405 
L 419.363282 122.013065 
L 419.424478 121.453735 
L 419.820447 121.453735 
L 419.910828 120.894405 
L 420.431844 120.894405 
L 420.68067 120.335075 
L 421.014863 120.335075 
L 421.025979 120.894405 
L 421.137074 120.335075 
L 421.239242 120.894405 
L 422.694465 120.894405 
L 422.967327 121.453735 
L 423.728485 120.894405 
L 425.306936 120.894405 
L 425.375237 120.335075 
L 427.031575 120.335075 
L 427.180774 119.775746 
L 428.71255 116.979097 
L 428.857726 116.979097 
L 429.009187 116.419767 
L 429.076638 116.979097 
L 429.402828 116.419767 
L 429.705878 115.860437 
L 430.06831 115.860437 
L 430.19002 115.301107 
L 430.648047 115.301107 
L 431.311445 115.860437 
L 431.344866 114.182448 
L 431.878779 114.182448 
L 432.044258 114.741778 
L 432.164451 114.182448 
L 433.059612 114.182448 
L 433.391074 114.741778 
L 434.991287 114.741778 
L 435.803562 114.182448 
L 437.444408 114.182448 
L 438.252389 113.623118 
L 438.36045 113.063788 
L 440.790428 113.063788 
L 441.018714 113.623118 
L 442.252313 113.623118 
L 443.153057 114.182448 
L 443.80944 114.182448 
L 444.135176 113.623118 
L 444.424368 112.504459 
L 444.596547 112.504459 
L 444.603267 113.063788 
L 446.534597 113.063788 
L 446.741877 112.504459 
L 451.620946 112.504459 
L 452.236141 111.945129 
L 452.473226 111.945129 
L 452.565772 110.826469 
L 452.867302 110.826469 
L 452.993932 111.385799 
L 453.190229 110.826469 
L 454.292378 110.826469 
L 454.783659 110.267139 
L 455.124922 109.14848 
L 458.113745 109.14848 
L 458.639805 109.70781 
L 458.792011 109.14848 
L 458.945982 109.70781 
L 459.119069 109.14848 
L 459.938806 109.14848 
L 460.316745 109.70781 
L 460.508529 109.14848 
L 461.037351 110.267139 
L 461.243456 109.14848 
L 462.523179 109.14848 
L 462.538318 108.58915 
L 464.566399 108.58915 
L 465.552476 108.02982 
L 465.848395 108.58915 
L 466.063901 108.02982 
L 466.203369 108.58915 
L 466.398195 108.58915 
L 466.531476 108.02982 
L 467.00125 109.14848 
L 467.311413 108.58915 
L 467.728387 109.14848 
L 468.037241 109.14848 
L 468.177509 108.58915 
L 469.029029 108.58915 
L 470.040779 109.14848 
L 470.193066 108.58915 
L 471.199811 108.58915 
L 471.526672 109.14848 
L 476.650659 108.58915 
L 477.034325 109.14848 
L 477.365904 108.58915 
L 477.663022 109.14848 
L 477.696265 108.58915 
L 477.954933 108.02982 
L 478.104738 108.02982 
L 478.24177 107.470491 
L 480.624088 107.470491 
L 480.674852 106.911161 
L 480.970977 106.911161 
L 481.761673 107.470491 
L 481.786826 106.911161 
L 482.090617 107.470491 
L 482.164455 106.351831 
L 482.359991 106.351831 
L 482.756689 105.792501 
L 483.42148 105.792501 
L 483.825146 106.351831 
L 484.279014 105.233171 
L 484.297629 104.673842 
L 484.610104 104.114512 
L 484.73853 104.114512 
L 485.062807 104.673842 
L 485.518781 104.673842 
L 485.61357 104.114512 
L 486.651757 104.114512 
L 486.794779 104.673842 
L 486.969872 103.555182 
L 487.114187 103.555182 
L 487.388084 104.114512 
L 487.637181 103.555182 
L 488.192674 103.555182 
L 488.437317 101.877193 
L 490.182104 101.877193 
L 490.3907 101.317863 
L 490.518428 101.317863 
L 490.728603 101.877193 
L 490.782808 101.317863 
L 491.339542 101.317863 
L 491.451518 100.758533 
L 491.755647 100.199203 
L 491.842512 99.080544 
L 492.317017 99.080544 
L 492.495299 97.402555 
L 492.866518 97.402555 
L 493.083626 97.961884 
L 493.200918 97.402555 
L 493.358808 97.402555 
L 493.370866 95.724565 
L 494.215294 95.724565 
L 494.361673 95.165235 
L 494.725695 95.165235 
L 495.102908 95.724565 
L 495.141707 94.605906 
L 495.475699 94.605906 
L 495.537264 94.046576 
L 495.769981 93.487246 
L 496.384745 93.487246 
L 496.475103 92.368587 
L 496.738928 92.368587 
L 496.893602 91.809257 
L 497.042021 91.809257 
L 497.574265 91.249927 
L 497.78257 91.809257 
L 497.90662 97.961884 
L 498.041157 98.521214 
L 498.132275 96.283895 
L 498.788604 96.283895 
L 499.05837 96.843225 
L 499.254922 95.724565 
L 500.225596 95.724565 
L 500.421241 96.283895 
L 500.574425 95.724565 
L 501.60827 95.724565 
L 501.735568 95.165235 
L 502.206906 96.283895 
L 502.590176 95.724565 
L 502.809806 95.724565 
L 502.894161 95.165235 
L 503.088064 96.283895 
L 503.276551 95.165235 
L 504.058618 95.165235 
L 504.179835 95.724565 
L 504.458416 95.724565 
L 504.502238 95.165235 
L 504.817669 94.605906 
L 504.82998 95.165235 
L 505.084121 94.605906 
L 505.423184 94.605906 
L 505.728504 94.046576 
L 507.312899 94.046576 
L 507.4317 93.487246 
L 507.745908 94.046576 
L 507.756399 93.487246 
L 508.207578 92.927916 
L 508.4848 92.927916 
L 508.803816 92.368587 
L 508.963103 91.809257 
L 509.084888 91.809257 
L 509.468111 92.927916 
L 509.543814 91.809257 
L 509.801509 92.368587 
L 510.018412 91.809257 
L 510.986436 91.809257 
L 511.094897 91.249927 
L 511.230074 91.809257 
L 511.698514 91.249927 
L 511.924783 91.809257 
L 512.154097 91.249927 
L 512.291874 91.809257 
L 512.612744 90.690597 
L 512.834442 91.249927 
L 513.592729 91.249927 
L 513.894406 90.690597 
L 514.3349 90.690597 
L 514.685366 91.809257 
L 514.778777 91.249927 
L 515.153244 91.249927 
L 515.248276 90.131267 
L 515.720561 91.249927 
L 515.885493 90.690597 
L 516.266024 91.249927 
L 516.543794 91.249927 
L 516.686098 90.690597 
L 517.026244 90.690597 
L 517.471696 90.131267 
L 517.529405 91.249927 
L 517.689339 90.131267 
L 517.835966 90.690597 
L 517.923973 90.131267 
L 518.2731 90.690597 
L 518.692002 90.131267 
L 518.903011 90.131267 
L 519.192665 90.690597 
L 519.604385 90.690597 
L 520.026524 89.571938 
L 520.247647 90.131267 
L 520.694783 90.131267 
L 520.90388 90.690597 
L 520.934662 91.249927 
L 521.195147 90.131267 
L 521.333289 90.690597 
L 521.495776 90.131267 
L 521.737219 90.690597 
L 522.010487 90.690597 
L 522.186038 91.249927 
L 522.518967 91.249927 
L 522.865588 90.131267 
L 523.100788 90.690597 
L 523.387213 89.571938 
L 523.536378 89.571938 
L 523.630006 90.131267 
L 523.921312 90.131267 
L 523.945763 89.571938 
L 524.911455 89.571938 
L 525.069659 89.012608 
L 525.205167 89.012608 
L 525.414057 88.453278 
L 525.594229 89.012608 
L 525.731637 88.453278 
L 525.936493 88.453278 
L 526.051813 87.893948 
L 526.200656 88.453278 
L 526.248611 87.893948 
L 526.413383 86.775289 
L 526.614693 87.334619 
L 526.678047 87.893948 
L 526.890352 87.334619 
L 527.06385 87.893948 
L 527.27297 87.334619 
L 527.615664 87.334619 
L 527.711085 86.775289 
L 527.947829 87.334619 
L 528.569581 85.656629 
L 528.736833 85.656629 
L 528.909831 86.775289 
L 528.991618 86.215959 
L 529.236207 86.215959 
L 529.347489 86.775289 
L 529.547487 86.775289 
L 529.729571 86.215959 
L 529.963658 86.215959 
L 530.356662 84.53797 
L 530.565751 85.097299 
L 533.314256 85.097299 
L 533.442159 84.53797 
L 533.604356 84.53797 
L 533.734792 85.097299 
L 533.881198 84.53797 
L 534.648494 84.53797 
L 534.757564 83.41931 
L 535.320141 84.53797 
L 535.930443 84.53797 
L 536.591351 83.41931 
L 537.759706 83.97864 
L 538.056417 83.41931 
L 538.383293 83.97864 
L 538.616747 82.85998 
L 538.710379 83.97864 
L 539.018124 82.85998 
L 539.353424 83.97864 
L 539.464418 82.85998 
L 539.679431 82.85998 
L 539.797627 83.41931 
L 540.011864 82.85998 
L 540.140434 82.85998 
L 540.260193 83.41931 
L 540.405702 81.741321 
L 540.787316 82.85998 
L 541.144242 82.85998 
L 541.362335 82.300651 
L 541.773928 82.300651 
L 542.108653 82.85998 
L 542.304337 82.85998 
L 542.452267 81.741321 
L 542.636793 82.85998 
L 542.739814 82.300651 
L 542.988566 81.741321 
L 543.14109 81.741321 
L 543.407755 82.85998 
L 543.66275 81.181991 
L 543.983252 81.181991 
L 544.007579 80.063331 
L 544.029961 80.622661 
L 544.197582 81.181991 
L 544.373785 80.063331 
L 544.447281 81.181991 
L 544.712895 81.181991 
L 544.749086 80.622661 
L 545.048342 80.063331 
L 545.227443 80.063331 
L 545.311391 81.181991 
L 545.712993 80.063331 
L 545.778031 81.181991 
L 545.996772 80.063331 
L 546.165041 81.741321 
L 546.676559 80.622661 
L 547.061901 82.300651 
L 547.091698 81.741321 
L 547.335779 82.300651 
L 547.490088 82.300651 
L 547.650282 81.181991 
L 547.841589 82.300651 
L 548.20939 81.181991 
L 548.348933 82.300651 
L 548.500021 81.741321 
L 548.80791 81.741321 
L 549.011237 82.300651 
L 549.400458 82.300651 
L 549.412339 81.741321 
L 550.024926 82.85998 
L 550.349812 81.181991 
L 550.52224 81.181991 
L 550.723204 81.741321 
L 550.780009 80.622661 
L 551.065298 81.741321 
L 551.240965 80.622661 
L 551.418056 81.741321 
L 551.491242 81.181991 
L 551.854438 81.181991 
L 552.072093 80.622661 
L 552.171642 79.504002 
L 552.374301 80.622661 
L 552.707723 80.063331 
L 552.855215 79.504002 
L 553.037455 80.063331 
L 553.193052 77.826012 
L 553.437284 77.826012 
L 553.760269 77.266683 
L 553.799234 78.385342 
L 554.117117 77.266683 
L 554.569607 78.385342 
L 554.691873 76.707353 
L 555.058774 76.148023 
L 555.458389 77.266683 
L 555.711665 77.826012 
L 556.415709 77.266683 
L 556.500037 76.707353 
L 557.48954 76.707353 
L 557.789292 76.148023 
L 558.092498 74.470034 
L 558.870953 75.029363 
L 559.469426 75.029363 
L 559.799961 74.470034 
L 559.885162 75.029363 
L 560.136289 73.910704 
L 560.192236 75.029363 
L 560.467088 74.470034 
L 560.96567 74.470034 
L 561.221526 73.351374 
L 561.456365 74.470034 
L 561.777108 73.351374 
L 561.902151 73.910704 
L 562.073454 73.351374 
L 562.520694 73.910704 
L 562.779189 73.351374 
L 563.535268 73.351374 
L 563.715735 73.910704 
L 563.715735 73.910704 
" clip-path="url(#pffc854fc4a)" style="fill: none; stroke-dasharray: 6,1.5; stroke-dashoffset: 0; stroke: #008000; stroke-width: 1.5"/>
   </g>
   <g id="line2d_20">
    <path d="M 38.539265 361.96554 
L 39.909702 363.0842 
L 41.275715 363.0842 
L 42.597034 362.52487 
L 44.51057 362.52487 
L 48.507015 361.96554 
L 48.619852 362.52487 
L 52.080607 362.52487 
L 52.406762 363.643529 
L 53.128353 363.643529 
L 53.428389 360.287551 
L 53.828249 363.643529 
L 55.775448 363.643529 
L 56.132513 360.287551 
L 58.817998 360.287551 
L 60.233589 360.846881 
L 60.426366 361.40621 
L 61.502448 361.40621 
L 61.804482 359.728221 
L 65.105856 359.728221 
L 65.497433 360.287551 
L 75.562772 360.287551 
L 75.87981 359.728221 
L 81.944356 359.728221 
L 82.246479 361.96554 
L 132.535243 361.96554 
L 132.874333 363.0842 
L 133.284328 366.440178 
L 133.577201 366.440178 
L 133.908241 366.999508 
L 135.896305 366.999508 
L 138.637916 368.677497 
L 138.917854 368.677497 
L 139.387237 369.236827 
L 153.245233 369.236827 
L 153.989902 370.355487 
L 185.43119 370.355487 
L 185.78486 370.914817 
L 186.152033 370.355487 
L 188.289758 370.355487 
L 188.604029 370.914817 
L 194.322412 370.914817 
L 195.577866 372.033476 
L 195.787245 370.914817 
L 196.190279 370.914817 
L 196.522487 372.033476 
L 204.261862 372.033476 
L 204.622408 371.474146 
L 204.832311 372.033476 
L 223.044836 372.033476 
L 223.362929 373.152136 
L 263.925215 373.152136 
L 264.31032 373.711465 
L 357.33043 373.711465 
L 357.702425 373.152136 
L 368.765868 373.152136 
L 369.199441 373.711465 
L 369.31532 374.830125 
L 398.460996 374.830125 
L 398.664327 374.270795 
L 401.520769 374.270795 
L 401.680324 374.830125 
L 516.88468 374.830125 
L 516.911137 374.270795 
L 525.731637 374.270795 
L 526.051813 374.830125 
L 559.12171 374.830125 
L 559.469426 374.270795 
L 563.715735 374.270795 
L 563.715735 374.270795 
" clip-path="url(#pffc854fc4a)" style="fill: none; stroke-dasharray: 9,3; stroke-dashoffset: 0; stroke: #ffa500; stroke-width: 1.5"/>
   </g>
   <g id="line2d_21">
    <path d="M 38.539265 323.371785 
L 48.507015 323.371785 
L 48.619852 323.931115 
L 52.080607 323.931115 
L 52.406762 324.490445 
L 53.128353 324.490445 
L 53.428389 325.609104 
L 53.828249 324.490445 
L 55.775448 324.490445 
L 56.373893 326.168434 
L 57.782256 326.168434 
L 58.099553 326.727764 
L 58.291411 326.168434 
L 58.451897 326.727764 
L 73.223062 326.727764 
L 73.5375 327.846424 
L 73.661236 326.727764 
L 74.212538 327.846424 
L 91.858851 327.846424 
L 92.606655 328.405753 
L 92.776057 327.846424 
L 93.975556 327.846424 
L 94.301284 328.405753 
L 94.660658 327.846424 
L 95.5157 327.846424 
L 95.987986 328.405753 
L 96.338595 327.846424 
L 123.52181 327.846424 
L 123.814935 328.405753 
L 124.189495 328.405753 
L 124.521636 327.846424 
L 124.863357 327.846424 
L 125.098821 328.405753 
L 125.354017 327.846424 
L 125.778115 328.405753 
L 132.874333 328.405753 
L 133.284328 327.846424 
L 133.577201 327.846424 
L 133.908241 328.965083 
L 135.521862 328.965083 
L 135.896305 331.761732 
L 138.637916 329.524413 
L 138.917854 330.083743 
L 140.878046 330.083743 
L 141.260467 332.880392 
L 141.597694 333.439721 
L 156.789194 333.439721 
L 157.320271 332.880392 
L 157.740531 333.439721 
L 158.677896 332.880392 
L 160.960883 332.880392 
L 162.311498 333.439721 
L 167.95034 333.439721 
L 168.376707 333.999051 
L 203.987728 333.999051 
L 204.261862 334.558381 
L 204.622408 333.999051 
L 210.966112 333.999051 
L 211.368661 341.270338 
L 212.305646 341.270338 
L 212.687958 345.744976 
L 213.025019 347.422966 
L 233.438317 347.422966 
L 236.309418 347.982296 
L 266.605086 347.982296 
L 266.941891 350.219615 
L 273.962992 350.219615 
L 274.280988 346.863636 
L 290.511481 346.863636 
L 290.697264 347.422966 
L 320.920453 347.422966 
L 321.143958 347.982296 
L 321.498312 347.422966 
L 329.663267 347.422966 
L 329.814666 347.982296 
L 330.123575 347.422966 
L 332.193939 347.422966 
L 332.481156 347.982296 
L 332.589702 347.422966 
L 335.661429 347.422966 
L 335.87593 347.982296 
L 345.491495 347.982296 
L 345.679528 347.422966 
L 357.702425 347.422966 
L 357.978848 346.863636 
L 358.11742 347.422966 
L 358.287896 346.863636 
L 358.396004 347.422966 
L 358.612899 347.422966 
L 358.7038 346.863636 
L 358.947031 347.422966 
L 360.39546 347.422966 
L 360.668372 346.863636 
L 360.79063 347.422966 
L 369.199441 347.422966 
L 369.31532 346.863636 
L 398.460996 346.863636 
L 398.664327 347.422966 
L 403.231173 347.422966 
L 403.33059 350.219615 
L 403.622016 347.422966 
L 406.263407 347.422966 
L 406.277867 350.219615 
L 406.607863 347.422966 
L 406.635239 350.219615 
L 433.059612 350.219615 
L 433.391074 349.660285 
L 433.675823 350.219615 
L 465.848395 350.219615 
L 466.063901 350.778944 
L 466.203369 350.219615 
L 466.531476 350.219615 
L 467.00125 350.778944 
L 488.192674 350.778944 
L 488.437317 351.338274 
L 491.451518 351.338274 
L 491.755647 351.897604 
L 497.78257 351.897604 
L 497.90662 351.338274 
L 504.82998 351.338274 
L 505.084121 351.897604 
L 516.88468 351.897604 
L 516.911137 355.812913 
L 525.731637 355.812913 
L 526.051813 355.253583 
L 533.996495 355.253583 
L 534.757564 357.490902 
L 542.452267 357.490902 
L 542.739814 356.931572 
L 556.763432 356.931572 
L 557.248982 356.372242 
L 559.12171 356.372242 
L 559.469426 358.609561 
L 559.885162 359.168891 
L 562.073454 359.168891 
L 562.520694 359.728221 
L 563.715735 359.728221 
L 563.715735 359.728221 
" clip-path="url(#pffc854fc4a)" style="fill: none; stroke-dasharray: 12,4.5; stroke-dashoffset: 0; stroke: #ee82ee; stroke-width: 1.5"/>
   </g>
   <g id="patch_3">
    <path d="M 33.2875 374.830125 
L 33.2875 22.318125 
" style="fill: none; stroke: #000000; stroke-width: 0.8; stroke-linejoin: miter; stroke-linecap: square"/>
   </g>
   <g id="patch_4">
    <path d="M 568.9675 374.830125 
L 568.9675 22.318125 
" style="fill: none; stroke: #000000; stroke-width: 0.8; stroke-linejoin: miter; stroke-linecap: square"/>
   </g>
   <g id="patch_5">
    <path d="M 33.2875 374.830125 
L 568.9675 374.830125 
" style="fill: none; stroke: #000000; stroke-width: 0.8; stroke-linejoin: miter; stroke-linecap: square"/>
   </g>
   <g id="patch_6">
    <path d="M 33.2875 22.318125 
L 568.9675 22.318125 
" style="fill: none; stroke: #000000; stroke-width: 0.8; stroke-linejoin: miter; stroke-linecap: square"/>
   </g>
   <g id="text_17">
    <!-- Rust/Coreutils running GNU's testsuite -->
    <g transform="translate(186.090625 16.318125) scale(0.12 -0.12)">
     <defs>
      <path id="DejaVuSans-52" d="M 2841 2188 
Q 3044 2119 3236 1894 
Q 3428 1669 3622 1275 
L 4263 0 
L 3584 0 
L 2988 1197 
Q 2756 1666 2539 1819 
Q 2322 1972 1947 1972 
L 1259 1972 
L 1259 0 
L 628 0 
L 628 4666 
L 2053 4666 
Q 2853 4666 3247 4331 
Q 3641 3997 3641 3322 
Q 3641 2881 3436 2590 
Q 3231 2300 2841 2188 
z
M 1259 4147 
L 1259 2491 
L 2053 2491 
Q 2509 2491 2742 2702 
Q 2975 2913 2975 3322 
Q 2975 3731 2742 3939 
Q 2509 4147 2053 4147 
L 1259 4147 
z
" transform="scale(0.015625)"/>
      <path id="DejaVuSans-75" d="M 544 1381 
L 544 3500 
L 1119 3500 
L 1119 1403 
Q 1119 906 1312 657 
Q 1506 409 1894 409 
Q 2359 409 2629 706 
Q 2900 1003 2900 1516 
L 2900 3500 
L 3475 3500 
L 3475 0 
L 2900 0 
L 2900 538 
Q 2691 219 2414 64 
Q 2138 -91 1772 -91 
Q 1169 -91 856 284 
Q 544 659 544 1381 
z
M 1991 3584 
L 1991 3584 
z
" transform="scale(0.015625)"/>
      <path id="DejaVuSans-73" d="M 2834 3397 
L 2834 2853 
Q 2591 2978 2328 3040 
Q 2066 3103 1784 3103 
Q 1356 3103 1142 2972 
Q 928 2841 928 2578 
Q 928 2378 1081 2264 
Q 1234 2150 1697 2047 
L 1894 2003 
Q 2506 1872 2764 1633 
Q 3022 1394 3022 966 
Q 3022 478 2636 193 
Q 2250 -91 1575 -91 
Q 1294 -91 989 -36 
Q 684 19 347 128 
L 347 722 
Q 666 556 975 473 
Q 1284 391 1588 391 
Q 1994 391 2212 530 
Q 2431 669 2431 922 
Q 2431 1156 2273 1281 
Q 2116 1406 1581 1522 
L 1381 1569 
Q 847 1681 609 1914 
Q 372 2147 372 2553 
Q 372 3047 722 3315 
Q 1072 3584 1716 3584 
Q 2034 3584 2315 3537 
Q 2597 3491 2834 3397 
z
" transform="scale(0.015625)"/>
      <path id="DejaVuSans-74" d="M 1172 4494 
L 1172 3500 
L 2356 3500 
L 2356 3053 
L 1172 3053 
L 1172 1153 
Q 1172 725 1289 603 
Q 1406 481 1766 481 
L 2356 481 
L 2356 0 
L 1766 0 
Q 1100 0 847 248 
Q 594 497 594 1153 
L 594 3053 
L 172 3053 
L 172 3500 
L 594 3500 
L 594 4494 
L 1172 4494 
z
" transform="scale(0.015625)"/>
      <path id="DejaVuSans-2f" d="M 1625 4666 
L 2156 4666 
L 531 -594 
L 0 -594 
L 1625 4666 
z
" transform="scale(0.015625)"/>
      <path id="DejaVuSans-43" d="M 4122 4306 
L 4122 3641 
Q 3803 3938 3442 4084 
Q 3081 4231 2675 4231 
Q 1875 4231 1450 3742 
Q 1025 3253 1025 2328 
Q 1025 1406 1450 917 
Q 1875 428 2675 428 
Q 3081 428 3442 575 
Q 3803 722 4122 1019 
L 4122 359 
Q 3791 134 3420 21 
Q 3050 -91 2638 -91 
Q 1578 -91 968 557 
Q 359 1206 359 2328 
Q 359 3453 968 4101 
Q 1578 4750 2638 4750 
Q 3056 4750 3426 4639 
Q 3797 4528 4122 4306 
z
" transform="scale(0.015625)"/>
      <path id="DejaVuSans-6f" d="M 1959 3097 
Q 1497 3097 1228 2736 
Q 959 2375 959 1747 
Q 959 1119 1226 758 
Q 1494 397 1959 397 
Q 2419 397 2687 759 
Q 2956 1122 2956 1747 
Q 2956 2369 2687 2733 
Q 2419 3097 1959 3097 
z
M 1959 3584 
Q 2709 3584 3137 3096 
Q 3566 2609 3566 1747 
Q 3566 888 3137 398 
Q 2709 -91 1959 -91 
Q 1206 -91 779 398 
Q 353 888 353 1747 
Q 353 2609 779 3096 
Q 1206 3584 1959 3584 
z
" transform="scale(0.015625)"/>
      <path id="DejaVuSans-72" d="M 2631 2963 
Q 2534 3019 2420 3045 
Q 2306 3072 2169 3072 
Q 1681 3072 1420 2755 
Q 1159 2438 1159 1844 
L 1159 0 
L 581 0 
L 581 3500 
L 1159 3500 
L 1159 2956 
Q 1341 3275 1631 3429 
Q 1922 3584 2338 3584 
Q 2397 3584 2469 3576 
Q 2541 3569 2628 3553 
L 2631 2963 
z
" transform="scale(0.015625)"/>
      <path id="DejaVuSans-65" d="M 3597 1894 
L 3597 1613 
L 953 1613 
Q 991 1019 1311 708 
Q 1631 397 2203 397 
Q 2534 397 2845 478 
Q 3156 559 3463 722 
L 3463 178 
Q 3153 47 2828 -22 
Q 2503 -91 2169 -91 
Q 1331 -91 842 396 
Q 353 884 353 1716 
Q 353 2575 817 3079 
Q 1281 3584 2069 3584 
Q 2775 3584 3186 3129 
Q 3597 2675 3597 1894 
z
M 3022 2063 
Q 3016 2534 2758 2815 
Q 2500 3097 2075 3097 
Q 1594 3097 1305 2825 
Q 1016 2553 972 2059 
L 3022 2063 
z
" transform="scale(0.015625)"/>
      <path id="DejaVuSans-69" d="M 603 3500 
L 1178 3500 
L 1178 0 
L 603 0 
L 603 3500 
z
M 603 4863 
L 1178 4863 
L 1178 4134 
L 603 4134 
L 603 4863 
z
" transform="scale(0.015625)"/>
      <path id="DejaVuSans-6c" d="M 603 4863 
L 1178 4863 
L 1178 0 
L 603 0 
L 603 4863 
z
" transform="scale(0.015625)"/>
      <path id="DejaVuSans-20" transform="scale(0.015625)"/>
      <path id="DejaVuSans-6e" d="M 3513 2113 
L 3513 0 
L 2938 0 
L 2938 2094 
Q 2938 2591 2744 2837 
Q 2550 3084 2163 3084 
Q 1697 3084 1428 2787 
Q 1159 2491 1159 1978 
L 1159 0 
L 581 0 
L 581 3500 
L 1159 3500 
L 1159 2956 
Q 1366 3272 1645 3428 
Q 1925 3584 2291 3584 
Q 2894 3584 3203 3211 
Q 3513 2838 3513 2113 
z
" transform="scale(0.015625)"/>
      <path id="DejaVuSans-67" d="M 2906 1791 
Q 2906 2416 2648 2759 
Q 2391 3103 1925 3103 
Q 1463 3103 1205 2759 
Q 947 2416 947 1791 
Q 947 1169 1205 825 
Q 1463 481 1925 481 
Q 2391 481 2648 825 
Q 2906 1169 2906 1791 
z
M 3481 434 
Q 3481 -459 3084 -895 
Q 2688 -1331 1869 -1331 
Q 1566 -1331 1297 -1286 
Q 1028 -1241 775 -1147 
L 775 -588 
Q 1028 -725 1275 -790 
Q 1522 -856 1778 -856 
Q 2344 -856 2625 -561 
Q 2906 -266 2906 331 
L 2906 616 
Q 2728 306 2450 153 
Q 2172 0 1784 0 
Q 1141 0 747 490 
Q 353 981 353 1791 
Q 353 2603 747 3093 
Q 1141 3584 1784 3584 
Q 2172 3584 2450 3431 
Q 2728 3278 2906 2969 
L 2906 3500 
L 3481 3500 
L 3481 434 
z
" transform="scale(0.015625)"/>
      <path id="DejaVuSans-47" d="M 3809 666 
L 3809 1919 
L 2778 1919 
L 2778 2438 
L 4434 2438 
L 4434 434 
Q 4069 175 3628 42 
Q 3188 -91 2688 -91 
Q 1594 -91 976 548 
Q 359 1188 359 2328 
Q 359 3472 976 4111 
Q 1594 4750 2688 4750 
Q 3144 4750 3555 4637 
Q 3966 4525 4313 4306 
L 4313 3634 
Q 3963 3931 3569 4081 
Q 3175 4231 2741 4231 
Q 1884 4231 1454 3753 
Q 1025 3275 1025 2328 
Q 1025 1384 1454 906 
Q 1884 428 2741 428 
Q 3075 428 3337 486 
Q 3600 544 3809 666 
z
" transform="scale(0.015625)"/>
      <path id="DejaVuSans-4e" d="M 628 4666 
L 1478 4666 
L 3547 763 
L 3547 4666 
L 4159 4666 
L 4159 0 
L 3309 0 
L 1241 3903 
L 1241 0 
L 628 0 
L 628 4666 
z
" transform="scale(0.015625)"/>
      <path id="DejaVuSans-55" d="M 556 4666 
L 1191 4666 
L 1191 1831 
Q 1191 1081 1462 751 
Q 1734 422 2344 422 
Q 2950 422 3222 751 
Q 3494 1081 3494 1831 
L 3494 4666 
L 4128 4666 
L 4128 1753 
Q 4128 841 3676 375 
Q 3225 -91 2344 -91 
Q 1459 -91 1007 375 
Q 556 841 556 1753 
L 556 4666 
z
" transform="scale(0.015625)"/>
      <path id="DejaVuSans-27" d="M 1147 4666 
L 1147 2931 
L 616 2931 
L 616 4666 
L 1147 4666 
z
" transform="scale(0.015625)"/>
     </defs>
     <use xlink:href="#DejaVuSans-52"/>
     <use xlink:href="#DejaVuSans-75" x="64.982422"/>
     <use xlink:href="#DejaVuSans-73" x="128.361328"/>
     <use xlink:href="#DejaVuSans-74" x="180.460938"/>
     <use xlink:href="#DejaVuSans-2f" x="219.669922"/>
     <use xlink:href="#DejaVuSans-43" x="253.361328"/>
     <use xlink:href="#DejaVuSans-6f" x="323.185547"/>
     <use xlink:href="#DejaVuSans-72" x="384.367188"/>
     <use xlink:href="#DejaVuSans-65" x="423.230469"/>
     <use xlink:href="#DejaVuSans-75" x="484.753906"/>
     <use xlink:href="#DejaVuSans-74" x="548.132812"/>
     <use xlink:href="#DejaVuSans-69" x="587.341797"/>
     <use xlink:href="#DejaVuSans-6c" x="615.125"/>
     <use xlink:href="#DejaVuSans-73" x="642.908203"/>
     <use xlink:href="#DejaVuSans-20" x="695.007812"/>
     <use xlink:href="#DejaVuSans-72" x="726.794922"/>
     <use xlink:href="#DejaVuSans-75" x="767.908203"/>
     <use xlink:href="#DejaVuSans-6e" x="831.287109"/>
     <use xlink:href="#DejaVuSans-6e" x="894.666016"/>
     <use xlink:href="#DejaVuSans-69" x="958.044922"/>
     <use xlink:href="#DejaVuSans-6e" x="985.828125"/>
     <use xlink:href="#DejaVuSans-67" x="1049.207031"/>
     <use xlink:href="#DejaVuSans-20" x="1112.683594"/>
     <use xlink:href="#DejaVuSans-47" x="1144.470703"/>
     <use xlink:href="#DejaVuSans-4e" x="1221.960938"/>
     <use xlink:href="#DejaVuSans-55" x="1296.765625"/>
     <use xlink:href="#DejaVuSans-27" x="1369.958984"/>
     <use xlink:href="#DejaVuSans-73" x="1397.449219"/>
     <use xlink:href="#DejaVuSans-20" x="1449.548828"/>
     <use xlink:href="#DejaVuSans-74" x="1481.335938"/>
     <use xlink:href="#DejaVuSans-65" x="1520.544922"/>
     <use xlink:href="#DejaVuSans-73" x="1582.068359"/>
     <use xlink:href="#DejaVuSans-74" x="1634.167969"/>
     <use xlink:href="#DejaVuSans-73" x="1673.376953"/>
     <use xlink:href="#DejaVuSans-75" x="1725.476562"/>
     <use xlink:href="#DejaVuSans-69" x="1788.855469"/>
     <use xlink:href="#DejaVuSans-74" x="1816.638672"/>
     <use xlink:href="#DejaVuSans-65" x="1855.847656"/>
    </g>
   </g>
   <g id="legend_1">
    <g id="patch_7">
     <path d="M 505.762812 236.769437 
L 561.9675 236.769437 
Q 563.9675 236.769437 563.9675 234.769437 
L 563.9675 162.378812 
Q 563.9675 160.378812 561.9675 160.378812 
L 505.762812 160.378812 
Q 503.762812 160.378812 503.762812 162.378812 
L 503.762812 234.769437 
Q 503.762812 236.769437 505.762812 236.769437 
z
" style="fill: #ffffff; opacity: 0.8; stroke: #cccccc; stroke-linejoin: miter"/>
    </g>
    <g id="line2d_22">
     <path d="M 507.762812 168.47725 
L 517.762812 168.47725 
L 527.762812 168.47725 
" style="fill: none; stroke: #0000ff; stroke-width: 1.5; stroke-linecap: square"/>
    </g>
    <g id="text_18">
     <!-- total -->
     <g transform="translate(535.762812 171.97725) scale(0.1 -0.1)">
      <defs>
       <path id="DejaVuSans-61" d="M 2194 1759 
Q 1497 1759 1228 1600 
Q 959 1441 959 1056 
Q 959 750 1161 570 
Q 1363 391 1709 391 
Q 2188 391 2477 730 
Q 2766 1069 2766 1631 
L 2766 1759 
L 2194 1759 
z
M 3341 1997 
L 3341 0 
L 2766 0 
L 2766 531 
Q 2569 213 2275 61 
Q 1981 -91 1556 -91 
Q 1019 -91 701 211 
Q 384 513 384 1019 
Q 384 1609 779 1909 
Q 1175 2209 1959 2209 
L 2766 2209 
L 2766 2266 
Q 2766 2663 2505 2880 
Q 2244 3097 1772 3097 
Q 1472 3097 1187 3025 
Q 903 2953 641 2809 
L 641 3341 
Q 956 3463 1253 3523 
Q 1550 3584 1831 3584 
Q 2591 3584 2966 3190 
Q 3341 2797 3341 1997 
z
" transform="scale(0.015625)"/>
      </defs>
      <use xlink:href="#DejaVuSans-74"/>
      <use xlink:href="#DejaVuSans-6f" x="39.208984"/>
      <use xlink:href="#DejaVuSans-74" x="100.390625"/>
      <use xlink:href="#DejaVuSans-61" x="139.599609"/>
      <use xlink:href="#DejaVuSans-6c" x="200.878906"/>
     </g>
    </g>
    <g id="line2d_23">
     <path d="M 507.762812 183.155375 
L 517.762812 183.155375 
L 527.762812 183.155375 
" style="fill: none; stroke-dasharray: 3,1.5; stroke-dashoffset: 0; stroke: #808080; stroke-width: 1.5"/>
    </g>
    <g id="text_19">
     <!-- fail -->
     <g transform="translate(535.762812 186.655375) scale(0.1 -0.1)">
      <defs>
       <path id="DejaVuSans-66" d="M 2375 4863 
L 2375 4384 
L 1825 4384 
Q 1516 4384 1395 4259 
Q 1275 4134 1275 3809 
L 1275 3500 
L 2222 3500 
L 2222 3053 
L 1275 3053 
L 1275 0 
L 697 0 
L 697 3053 
L 147 3053 
L 147 3500 
L 697 3500 
L 697 3744 
Q 697 4328 969 4595 
Q 1241 4863 1831 4863 
L 2375 4863 
z
" transform="scale(0.015625)"/>
      </defs>
      <use xlink:href="#DejaVuSans-66"/>
      <use xlink:href="#DejaVuSans-61" x="35.205078"/>
      <use xlink:href="#DejaVuSans-69" x="96.484375"/>
      <use xlink:href="#DejaVuSans-6c" x="124.267578"/>
     </g>
    </g>
    <g id="line2d_24">
     <path d="M 507.762812 197.8335 
L 517.762812 197.8335 
L 527.762812 197.8335 
" style="fill: none; stroke-dasharray: 6,1.5; stroke-dashoffset: 0; stroke: #008000; stroke-width: 1.5"/>
    </g>
    <g id="text_20">
     <!-- pass -->
     <g transform="translate(535.762812 201.3335) scale(0.1 -0.1)">
      <defs>
       <path id="DejaVuSans-70" d="M 1159 525 
L 1159 -1331 
L 581 -1331 
L 581 3500 
L 1159 3500 
L 1159 2969 
Q 1341 3281 1617 3432 
Q 1894 3584 2278 3584 
Q 2916 3584 3314 3078 
Q 3713 2572 3713 1747 
Q 3713 922 3314 415 
Q 2916 -91 2278 -91 
Q 1894 -91 1617 61 
Q 1341 213 1159 525 
z
M 3116 1747 
Q 3116 2381 2855 2742 
Q 2594 3103 2138 3103 
Q 1681 3103 1420 2742 
Q 1159 2381 1159 1747 
Q 1159 1113 1420 752 
Q 1681 391 2138 391 
Q 2594 391 2855 752 
Q 3116 1113 3116 1747 
z
" transform="scale(0.015625)"/>
      </defs>
      <use xlink:href="#DejaVuSans-70"/>
      <use xlink:href="#DejaVuSans-61" x="63.476562"/>
      <use xlink:href="#DejaVuSans-73" x="124.755859"/>
      <use xlink:href="#DejaVuSans-73" x="176.855469"/>
     </g>
    </g>
    <g id="line2d_25">
     <path d="M 507.762812 212.511625 
L 517.762812 212.511625 
L 527.762812 212.511625 
" style="fill: none; stroke-dasharray: 9,3; stroke-dashoffset: 0; stroke: #ffa500; stroke-width: 1.5"/>
    </g>
    <g id="text_21">
     <!-- error -->
     <g transform="translate(535.762812 216.011625) scale(0.1 -0.1)">
      <use xlink:href="#DejaVuSans-65"/>
      <use xlink:href="#DejaVuSans-72" x="61.523438"/>
      <use xlink:href="#DejaVuSans-72" x="100.886719"/>
      <use xlink:href="#DejaVuSans-6f" x="139.75"/>
      <use xlink:href="#DejaVuSans-72" x="200.931641"/>
     </g>
    </g>
    <g id="line2d_26">
     <path d="M 507.762812 227.18975 
L 517.762812 227.18975 
L 527.762812 227.18975 
" style="fill: none; stroke-dasharray: 12,4.5; stroke-dashoffset: 0; stroke: #ee82ee; stroke-width: 1.5"/>
    </g>
    <g id="text_22">
     <!-- skip -->
     <g transform="translate(535.762812 230.68975) scale(0.1 -0.1)">
      <defs>
       <path id="DejaVuSans-6b" d="M 581 4863 
L 1159 4863 
L 1159 1991 
L 2875 3500 
L 3609 3500 
L 1753 1863 
L 3688 0 
L 2938 0 
L 1159 1709 
L 1159 0 
L 581 0 
L 581 4863 
z
" transform="scale(0.015625)"/>
      </defs>
      <use xlink:href="#DejaVuSans-73"/>
      <use xlink:href="#DejaVuSans-6b" x="52.099609"/>
      <use xlink:href="#DejaVuSans-69" x="110.009766"/>
      <use xlink:href="#DejaVuSans-70" x="137.792969"/>
     </g>
    </g>
   </g>
  </g>
 </g>
 <defs>
  <clipPath id="pffc854fc4a">
   <rect x="33.2875" y="22.318125" width="535.68" height="352.512"/>
  </clipPath>
 </defs>
</svg>
