<?xml version="1.0" encoding="utf-8" standalone="no"?>
<!DOCTYPE svg PUBLIC "-//W3C//DTD SVG 1.1//EN"
  "http://www.w3.org/Graphics/SVG/1.1/DTD/svg11.dtd">
<svg xmlns:xlink="http://www.w3.org/1999/xlink" width="576.1675pt" height="418.303033pt" viewBox="0 0 576.1675 418.303033" xmlns="http://www.w3.org/2000/svg" version="1.1">
 <metadata>
  <rdf:RDF xmlns:dc="http://purl.org/dc/elements/1.1/" xmlns:cc="http://creativecommons.org/ns#" xmlns:rdf="http://www.w3.org/1999/02/22-rdf-syntax-ns#">
   <cc:Work>
    <dc:type rdf:resource="http://purl.org/dc/dcmitype/StillImage"/>
    <dc:date>2025-06-29T02:41:46.283844</dc:date>
    <dc:format>image/svg+xml</dc:format>
    <dc:creator>
     <cc:Agent>
      <dc:title>Matplotlib v3.6.3, https://matplotlib.org/</dc:title>
     </cc:Agent>
    </dc:creator>
   </cc:Work>
  </rdf:RDF>
 </metadata>
 <defs>
  <style type="text/css">*{stroke-linejoin: round; stroke-linecap: butt}</style>
 </defs>
 <g id="figure_1">
  <g id="patch_1">
   <path d="M -0 418.303033 
L 576.1675 418.303033 
L 576.1675 0 
L -0 0 
z
" style="fill: #ffffff"/>
  </g>
  <g id="axes_1">
   <g id="patch_2">
    <path d="M 33.2875 374.830125 
L 568.9675 374.830125 
L 568.9675 22.318125 
L 33.2875 22.318125 
z
" style="fill: #ffffff"/>
   </g>
   <g id="matplotlib.axis_1">
    <g id="xtick_1">
     <g id="line2d_1">
      <defs>
       <path id="mb31fab37dd" d="M 0 0 
L 0 3.5 
" style="stroke: #000000; stroke-width: 0.8"/>
      </defs>
      <g>
       <use xlink:href="#mb31fab37dd" x="63.048478" y="374.830125" style="stroke: #000000; stroke-width: 0.8"/>
      </g>
     </g>
     <g id="text_1">
      <!-- 2021-07 -->
      <g transform="translate(25.823657 409.301971) rotate(-30) scale(0.1 -0.1)">
       <defs>
        <path id="DejaVuSans-32" d="M 1228 531 
L 3431 531 
L 3431 0 
L 469 0 
L 469 531 
Q 828 903 1448 1529 
Q 2069 2156 2228 2338 
Q 2531 2678 2651 2914 
Q 2772 3150 2772 3378 
Q 2772 3750 2511 3984 
Q 2250 4219 1831 4219 
Q 1534 4219 1204 4116 
Q 875 4013 500 3803 
L 500 4441 
Q 881 4594 1212 4672 
Q 1544 4750 1819 4750 
Q 2544 4750 2975 4387 
Q 3406 4025 3406 3419 
Q 3406 3131 3298 2873 
Q 3191 2616 2906 2266 
Q 2828 2175 2409 1742 
Q 1991 1309 1228 531 
z
" transform="scale(0.015625)"/>
        <path id="DejaVuSans-30" d="M 2034 4250 
Q 1547 4250 1301 3770 
Q 1056 3291 1056 2328 
Q 1056 1369 1301 889 
Q 1547 409 2034 409 
Q 2525 409 2770 889 
Q 3016 1369 3016 2328 
Q 3016 3291 2770 3770 
Q 2525 4250 2034 4250 
z
M 2034 4750 
Q 2819 4750 3233 4129 
Q 3647 3509 3647 2328 
Q 3647 1150 3233 529 
Q 2819 -91 2034 -91 
Q 1250 -91 836 529 
Q 422 1150 422 2328 
Q 422 3509 836 4129 
Q 1250 4750 2034 4750 
z
" transform="scale(0.015625)"/>
        <path id="DejaVuSans-31" d="M 794 531 
L 1825 531 
L 1825 4091 
L 703 3866 
L 703 4441 
L 1819 4666 
L 2450 4666 
L 2450 531 
L 3481 531 
L 3481 0 
L 794 0 
L 794 531 
z
" transform="scale(0.015625)"/>
        <path id="DejaVuSans-2d" d="M 313 2009 
L 1997 2009 
L 1997 1497 
L 313 1497 
L 313 2009 
z
" transform="scale(0.015625)"/>
        <path id="DejaVuSans-37" d="M 525 4666 
L 3525 4666 
L 3525 4397 
L 1831 0 
L 1172 0 
L 2766 4134 
L 525 4134 
L 525 4666 
z
" transform="scale(0.015625)"/>
       </defs>
       <use xlink:href="#DejaVuSans-32"/>
       <use xlink:href="#DejaVuSans-30" x="63.623047"/>
       <use xlink:href="#DejaVuSans-32" x="127.246094"/>
       <use xlink:href="#DejaVuSans-31" x="190.869141"/>
       <use xlink:href="#DejaVuSans-2d" x="254.492188"/>
       <use xlink:href="#DejaVuSans-30" x="290.576172"/>
       <use xlink:href="#DejaVuSans-37" x="354.199219"/>
      </g>
     </g>
    </g>
    <g id="xtick_2">
     <g id="line2d_2">
      <g>
       <use xlink:href="#mb31fab37dd" x="126.198554" y="374.830125" style="stroke: #000000; stroke-width: 0.8"/>
      </g>
     </g>
     <g id="text_2">
      <!-- 2022-01 -->
      <g transform="translate(88.973733 409.301971) rotate(-30) scale(0.1 -0.1)">
       <use xlink:href="#DejaVuSans-32"/>
       <use xlink:href="#DejaVuSans-30" x="63.623047"/>
       <use xlink:href="#DejaVuSans-32" x="127.246094"/>
       <use xlink:href="#DejaVuSans-32" x="190.869141"/>
       <use xlink:href="#DejaVuSans-2d" x="254.492188"/>
       <use xlink:href="#DejaVuSans-30" x="290.576172"/>
       <use xlink:href="#DejaVuSans-31" x="354.199219"/>
      </g>
     </g>
    </g>
    <g id="xtick_3">
     <g id="line2d_3">
      <g>
       <use xlink:href="#mb31fab37dd" x="188.319008" y="374.830125" style="stroke: #000000; stroke-width: 0.8"/>
      </g>
     </g>
     <g id="text_3">
      <!-- 2022-07 -->
      <g transform="translate(151.094187 409.301971) rotate(-30) scale(0.1 -0.1)">
       <use xlink:href="#DejaVuSans-32"/>
       <use xlink:href="#DejaVuSans-30" x="63.623047"/>
       <use xlink:href="#DejaVuSans-32" x="127.246094"/>
       <use xlink:href="#DejaVuSans-32" x="190.869141"/>
       <use xlink:href="#DejaVuSans-2d" x="254.492188"/>
       <use xlink:href="#DejaVuSans-30" x="290.576172"/>
       <use xlink:href="#DejaVuSans-37" x="354.199219"/>
      </g>
     </g>
    </g>
    <g id="xtick_4">
     <g id="line2d_4">
      <g>
       <use xlink:href="#mb31fab37dd" x="251.469084" y="374.830125" style="stroke: #000000; stroke-width: 0.8"/>
      </g>
     </g>
     <g id="text_4">
      <!-- 2023-01 -->
      <g transform="translate(214.244263 409.301971) rotate(-30) scale(0.1 -0.1)">
       <defs>
        <path id="DejaVuSans-33" d="M 2597 2516 
Q 3050 2419 3304 2112 
Q 3559 1806 3559 1356 
Q 3559 666 3084 287 
Q 2609 -91 1734 -91 
Q 1441 -91 1130 -33 
Q 819 25 488 141 
L 488 750 
Q 750 597 1062 519 
Q 1375 441 1716 441 
Q 2309 441 2620 675 
Q 2931 909 2931 1356 
Q 2931 1769 2642 2001 
Q 2353 2234 1838 2234 
L 1294 2234 
L 1294 2753 
L 1863 2753 
Q 2328 2753 2575 2939 
Q 2822 3125 2822 3475 
Q 2822 3834 2567 4026 
Q 2313 4219 1838 4219 
Q 1578 4219 1281 4162 
Q 984 4106 628 3988 
L 628 4550 
Q 988 4650 1302 4700 
Q 1616 4750 1894 4750 
Q 2613 4750 3031 4423 
Q 3450 4097 3450 3541 
Q 3450 3153 3228 2886 
Q 3006 2619 2597 2516 
z
" transform="scale(0.015625)"/>
       </defs>
       <use xlink:href="#DejaVuSans-32"/>
       <use xlink:href="#DejaVuSans-30" x="63.623047"/>
       <use xlink:href="#DejaVuSans-32" x="127.246094"/>
       <use xlink:href="#DejaVuSans-33" x="190.869141"/>
       <use xlink:href="#DejaVuSans-2d" x="254.492188"/>
       <use xlink:href="#DejaVuSans-30" x="290.576172"/>
       <use xlink:href="#DejaVuSans-31" x="354.199219"/>
      </g>
     </g>
    </g>
    <g id="xtick_5">
     <g id="line2d_5">
      <g>
       <use xlink:href="#mb31fab37dd" x="313.589538" y="374.830125" style="stroke: #000000; stroke-width: 0.8"/>
      </g>
     </g>
     <g id="text_5">
      <!-- 2023-07 -->
      <g transform="translate(276.364718 409.301971) rotate(-30) scale(0.1 -0.1)">
       <use xlink:href="#DejaVuSans-32"/>
       <use xlink:href="#DejaVuSans-30" x="63.623047"/>
       <use xlink:href="#DejaVuSans-32" x="127.246094"/>
       <use xlink:href="#DejaVuSans-33" x="190.869141"/>
       <use xlink:href="#DejaVuSans-2d" x="254.492188"/>
       <use xlink:href="#DejaVuSans-30" x="290.576172"/>
       <use xlink:href="#DejaVuSans-37" x="354.199219"/>
      </g>
     </g>
    </g>
    <g id="xtick_6">
     <g id="line2d_6">
      <g>
       <use xlink:href="#mb31fab37dd" x="376.739614" y="374.830125" style="stroke: #000000; stroke-width: 0.8"/>
      </g>
     </g>
     <g id="text_6">
      <!-- 2024-01 -->
      <g transform="translate(339.514793 409.301971) rotate(-30) scale(0.1 -0.1)">
       <defs>
        <path id="DejaVuSans-34" d="M 2419 4116 
L 825 1625 
L 2419 1625 
L 2419 4116 
z
M 2253 4666 
L 3047 4666 
L 3047 1625 
L 3713 1625 
L 3713 1100 
L 3047 1100 
L 3047 0 
L 2419 0 
L 2419 1100 
L 313 1100 
L 313 1709 
L 2253 4666 
z
" transform="scale(0.015625)"/>
       </defs>
       <use xlink:href="#DejaVuSans-32"/>
       <use xlink:href="#DejaVuSans-30" x="63.623047"/>
       <use xlink:href="#DejaVuSans-32" x="127.246094"/>
       <use xlink:href="#DejaVuSans-34" x="190.869141"/>
       <use xlink:href="#DejaVuSans-2d" x="254.492188"/>
       <use xlink:href="#DejaVuSans-30" x="290.576172"/>
       <use xlink:href="#DejaVuSans-31" x="354.199219"/>
      </g>
     </g>
    </g>
    <g id="xtick_7">
     <g id="line2d_7">
      <g>
       <use xlink:href="#mb31fab37dd" x="439.203275" y="374.830125" style="stroke: #000000; stroke-width: 0.8"/>
      </g>
     </g>
     <g id="text_7">
      <!-- 2024-07 -->
      <g transform="translate(401.978455 409.301971) rotate(-30) scale(0.1 -0.1)">
       <use xlink:href="#DejaVuSans-32"/>
       <use xlink:href="#DejaVuSans-30" x="63.623047"/>
       <use xlink:href="#DejaVuSans-32" x="127.246094"/>
       <use xlink:href="#DejaVuSans-34" x="190.869141"/>
       <use xlink:href="#DejaVuSans-2d" x="254.492188"/>
       <use xlink:href="#DejaVuSans-30" x="290.576172"/>
       <use xlink:href="#DejaVuSans-37" x="354.199219"/>
      </g>
     </g>
    </g>
    <g id="xtick_8">
     <g id="line2d_8">
      <g>
       <use xlink:href="#mb31fab37dd" x="502.353351" y="374.830125" style="stroke: #000000; stroke-width: 0.8"/>
      </g>
     </g>
     <g id="text_8">
      <!-- 2025-01 -->
      <g transform="translate(465.12853 409.301971) rotate(-30) scale(0.1 -0.1)">
       <defs>
        <path id="DejaVuSans-35" d="M 691 4666 
L 3169 4666 
L 3169 4134 
L 1269 4134 
L 1269 2991 
Q 1406 3038 1543 3061 
Q 1681 3084 1819 3084 
Q 2600 3084 3056 2656 
Q 3513 2228 3513 1497 
Q 3513 744 3044 326 
Q 2575 -91 1722 -91 
Q 1428 -91 1123 -41 
Q 819 9 494 109 
L 494 744 
Q 775 591 1075 516 
Q 1375 441 1709 441 
Q 2250 441 2565 725 
Q 2881 1009 2881 1497 
Q 2881 1984 2565 2268 
Q 2250 2553 1709 2553 
Q 1456 2553 1204 2497 
Q 953 2441 691 2322 
L 691 4666 
z
" transform="scale(0.015625)"/>
       </defs>
       <use xlink:href="#DejaVuSans-32"/>
       <use xlink:href="#DejaVuSans-30" x="63.623047"/>
       <use xlink:href="#DejaVuSans-32" x="127.246094"/>
       <use xlink:href="#DejaVuSans-35" x="190.869141"/>
       <use xlink:href="#DejaVuSans-2d" x="254.492188"/>
       <use xlink:href="#DejaVuSans-30" x="290.576172"/>
       <use xlink:href="#DejaVuSans-31" x="354.199219"/>
      </g>
     </g>
    </g>
    <g id="xtick_9">
     <g id="line2d_9">
      <g>
       <use xlink:href="#mb31fab37dd" x="564.473806" y="374.830125" style="stroke: #000000; stroke-width: 0.8"/>
      </g>
     </g>
     <g id="text_9">
      <!-- 2025-07 -->
      <g transform="translate(527.248985 409.301971) rotate(-30) scale(0.1 -0.1)">
       <use xlink:href="#DejaVuSans-32"/>
       <use xlink:href="#DejaVuSans-30" x="63.623047"/>
       <use xlink:href="#DejaVuSans-32" x="127.246094"/>
       <use xlink:href="#DejaVuSans-35" x="190.869141"/>
       <use xlink:href="#DejaVuSans-2d" x="254.492188"/>
       <use xlink:href="#DejaVuSans-30" x="290.576172"/>
       <use xlink:href="#DejaVuSans-37" x="354.199219"/>
      </g>
     </g>
    </g>
   </g>
   <g id="matplotlib.axis_2">
    <g id="ytick_1">
     <g id="line2d_10">
      <defs>
       <path id="m2c145bb0f0" d="M 0 0 
L -3.5 0 
" style="stroke: #000000; stroke-width: 0.8"/>
      </defs>
      <g>
       <use xlink:href="#m2c145bb0f0" x="33.2875" y="374.830125" style="stroke: #000000; stroke-width: 0.8"/>
      </g>
     </g>
     <g id="text_10">
      <!-- 0 -->
      <g transform="translate(19.925 378.629344) scale(0.1 -0.1)">
       <use xlink:href="#DejaVuSans-30"/>
      </g>
     </g>
    </g>
    <g id="ytick_2">
     <g id="line2d_11">
      <g>
       <use xlink:href="#m2c145bb0f0" x="33.2875" y="318.897147" style="stroke: #000000; stroke-width: 0.8"/>
      </g>
     </g>
     <g id="text_11">
      <!-- 100 -->
      <g transform="translate(7.2 322.696366) scale(0.1 -0.1)">
       <use xlink:href="#DejaVuSans-31"/>
       <use xlink:href="#DejaVuSans-30" x="63.623047"/>
       <use xlink:href="#DejaVuSans-30" x="127.246094"/>
      </g>
     </g>
    </g>
    <g id="ytick_3">
     <g id="line2d_12">
      <g>
       <use xlink:href="#m2c145bb0f0" x="33.2875" y="262.964169" style="stroke: #000000; stroke-width: 0.8"/>
      </g>
     </g>
     <g id="text_12">
      <!-- 200 -->
      <g transform="translate(7.2 266.763388) scale(0.1 -0.1)">
       <use xlink:href="#DejaVuSans-32"/>
       <use xlink:href="#DejaVuSans-30" x="63.623047"/>
       <use xlink:href="#DejaVuSans-30" x="127.246094"/>
      </g>
     </g>
    </g>
    <g id="ytick_4">
     <g id="line2d_13">
      <g>
       <use xlink:href="#m2c145bb0f0" x="33.2875" y="207.031191" style="stroke: #000000; stroke-width: 0.8"/>
      </g>
     </g>
     <g id="text_13">
      <!-- 300 -->
      <g transform="translate(7.2 210.83041) scale(0.1 -0.1)">
       <use xlink:href="#DejaVuSans-33"/>
       <use xlink:href="#DejaVuSans-30" x="63.623047"/>
       <use xlink:href="#DejaVuSans-30" x="127.246094"/>
      </g>
     </g>
    </g>
    <g id="ytick_5">
     <g id="line2d_14">
      <g>
       <use xlink:href="#m2c145bb0f0" x="33.2875" y="151.098213" style="stroke: #000000; stroke-width: 0.8"/>
      </g>
     </g>
     <g id="text_14">
      <!-- 400 -->
      <g transform="translate(7.2 154.897432) scale(0.1 -0.1)">
       <use xlink:href="#DejaVuSans-34"/>
       <use xlink:href="#DejaVuSans-30" x="63.623047"/>
       <use xlink:href="#DejaVuSans-30" x="127.246094"/>
      </g>
     </g>
    </g>
    <g id="ytick_6">
     <g id="line2d_15">
      <g>
       <use xlink:href="#m2c145bb0f0" x="33.2875" y="95.165235" style="stroke: #000000; stroke-width: 0.8"/>
      </g>
     </g>
     <g id="text_15">
      <!-- 500 -->
      <g transform="translate(7.2 98.964454) scale(0.1 -0.1)">
       <use xlink:href="#DejaVuSans-35"/>
       <use xlink:href="#DejaVuSans-30" x="63.623047"/>
       <use xlink:href="#DejaVuSans-30" x="127.246094"/>
      </g>
     </g>
    </g>
    <g id="ytick_7">
     <g id="line2d_16">
      <g>
       <use xlink:href="#m2c145bb0f0" x="33.2875" y="39.232258" style="stroke: #000000; stroke-width: 0.8"/>
      </g>
     </g>
     <g id="text_16">
      <!-- 600 -->
      <g transform="translate(7.2 43.031476) scale(0.1 -0.1)">
       <defs>
        <path id="DejaVuSans-36" d="M 2113 2584 
Q 1688 2584 1439 2293 
Q 1191 2003 1191 1497 
Q 1191 994 1439 701 
Q 1688 409 2113 409 
Q 2538 409 2786 701 
Q 3034 994 3034 1497 
Q 3034 2003 2786 2293 
Q 2538 2584 2113 2584 
z
M 3366 4563 
L 3366 3988 
Q 3128 4100 2886 4159 
Q 2644 4219 2406 4219 
Q 1781 4219 1451 3797 
Q 1122 3375 1075 2522 
Q 1259 2794 1537 2939 
Q 1816 3084 2150 3084 
Q 2853 3084 3261 2657 
Q 3669 2231 3669 1497 
Q 3669 778 3244 343 
Q 2819 -91 2113 -91 
Q 1303 -91 875 529 
Q 447 1150 447 2328 
Q 447 3434 972 4092 
Q 1497 4750 2381 4750 
Q 2619 4750 2861 4703 
Q 3103 4656 3366 4563 
z
" transform="scale(0.015625)"/>
       </defs>
       <use xlink:href="#DejaVuSans-36"/>
       <use xlink:href="#DejaVuSans-30" x="63.623047"/>
       <use xlink:href="#DejaVuSans-30" x="127.246094"/>
      </g>
     </g>
    </g>
   </g>
   <g id="line2d_17">
    <path d="M 38.539265 25.808343 
L 48.744563 25.808343 
L 48.860089 29.164321 
L 50.288894 29.164321 
L 50.81192 38.672928 
L 135.122494 38.672928 
L 135.542259 33.07963 
L 149.572054 33.07963 
L 150.396203 33.63896 
L 156.975818 33.63896 
L 157.205914 44.825555 
L 163.878393 44.825555 
L 165.261195 43.147566 
L 279.573529 43.147566 
L 279.899103 39.232258 
L 288.858396 39.232258 
L 289.178167 38.113598 
L 334.146839 38.113598 
L 334.370782 36.994938 
L 407.038526 36.994938 
L 407.246702 32.5203 
L 462.337957 32.5203 
L 462.432708 31.96097 
L 504.512659 31.96097 
L 504.89937 31.401641 
L 508.727097 31.401641 
L 508.854103 29.164321 
L 510.390224 29.164321 
L 510.789353 29.723651 
L 537.342237 29.723651 
L 537.670043 29.164321 
L 563.715735 29.164321 
L 563.715735 29.164321 
" clip-path="url(#pc873d065dd)" style="fill: none; stroke: #0000ff; stroke-width: 1.5; stroke-linecap: square"/>
   </g>
   <g id="line2d_18">
    <path d="M 38.539265 168.996766 
L 39.942361 167.878107 
L 41.34093 168.996766 
L 44.652877 168.996766 
L 48.304694 170.115426 
L 48.575605 169.556096 
L 48.744563 169.556096 
L 48.860089 172.912075 
L 49.010186 172.352745 
L 49.126722 172.352745 
L 49.52108 172.912075 
L 50.288894 172.912075 
L 50.716529 185.21733 
L 50.81192 182.420681 
L 51.033884 185.77666 
L 51.104472 185.21733 
L 51.353201 185.21733 
L 51.751075 185.77666 
L 52.708662 185.77666 
L 52.737247 186.335989 
L 53.25632 186.335989 
L 53.476036 185.77666 
L 54.118412 189.691968 
L 54.192611 189.132638 
L 54.50804 189.691968 
L 55.118201 191.369957 
L 55.53206 190.251298 
L 56.186214 190.251298 
L 56.551789 191.369957 
L 56.798922 191.369957 
L 57.543459 191.929287 
L 57.877553 191.929287 
L 58.240848 193.047947 
L 58.565707 192.488617 
L 58.926448 193.607277 
L 59.301274 195.844596 
L 60.7506 196.963255 
L 61.366037 196.963255 
L 61.629663 197.522585 
L 62.049698 197.522585 
L 62.35893 198.081915 
L 62.673926 197.522585 
L 63.025129 197.522585 
L 63.230795 198.081915 
L 66.788786 198.081915 
L 67.147882 198.641245 
L 67.491991 198.641245 
L 67.625603 198.081915 
L 68.475466 198.641245 
L 68.831658 198.081915 
L 69.813714 198.081915 
L 70.129012 198.641245 
L 70.516653 198.081915 
L 72.304098 198.081915 
L 72.67032 198.641245 
L 72.871339 200.319234 
L 73.360595 199.200574 
L 74.498251 199.200574 
L 75.062691 199.759904 
L 75.403979 199.759904 
L 75.735444 200.319234 
L 76.105412 200.319234 
L 76.445104 199.759904 
L 76.769697 201.437893 
L 77.057871 201.437893 
L 77.841352 202.556553 
L 81.954862 202.556553 
L 82.281858 203.675213 
L 82.978771 203.675213 
L 83.288094 204.234542 
L 84.325556 204.234542 
L 85.31864 206.471861 
L 86.374188 206.471861 
L 86.752252 207.031191 
L 93.129545 207.031191 
L 93.89517 208.149851 
L 94.068609 207.031191 
L 95.296694 207.031191 
L 95.630185 207.590521 
L 95.998123 207.031191 
L 96.873543 207.031191 
L 97.357084 207.590521 
L 97.716049 207.031191 
L 103.137304 207.031191 
L 103.433562 212.065159 
L 103.638962 207.031191 
L 105.603631 207.031191 
L 105.960284 207.590521 
L 106.163857 212.624489 
L 106.64474 207.590521 
L 106.984376 207.590521 
L 107.209832 207.031191 
L 110.767028 207.031191 
L 110.947168 207.590521 
L 111.270442 207.590521 
L 111.802838 209.26851 
L 117.168839 209.26851 
L 118.339949 209.82784 
L 125.547084 209.82784 
L 125.847195 212.065159 
L 126.230682 212.065159 
L 126.570738 209.82784 
L 126.920603 209.82784 
L 127.161678 212.065159 
L 127.422956 209.82784 
L 127.857161 212.065159 
L 128.241779 213.183819 
L 132.701578 213.183819 
L 133.086514 213.743149 
L 135.122494 213.743149 
L 135.542259 207.590521 
L 135.842112 208.149851 
L 136.181041 209.82784 
L 136.599471 209.82784 
L 137.160515 210.9465 
L 137.547712 210.9465 
L 137.833118 211.505829 
L 138.216484 209.26851 
L 141.023433 214.861808 
L 141.310042 213.183819 
L 141.790611 212.624489 
L 143.316949 212.624489 
L 143.708483 212.065159 
L 144.053747 210.9465 
L 145.435958 210.9465 
L 145.688675 209.82784 
L 146.133184 210.9465 
L 147.137032 210.9465 
L 147.47867 212.065159 
L 147.808209 212.065159 
L 148.198491 212.624489 
L 148.355981 212.624489 
L 148.531994 214.302478 
L 148.770594 214.302478 
L 149.572054 214.861808 
L 150.234272 213.743149 
L 150.396203 213.743149 
L 150.915328 214.302478 
L 151.248401 215.421138 
L 152.969667 215.421138 
L 153.302002 215.980468 
L 153.658882 215.980468 
L 153.98929 216.539798 
L 154.298808 216.539798 
L 155.018021 217.099127 
L 155.389463 217.099127 
L 155.759864 218.777117 
L 155.978865 218.777117 
L 156.363833 218.217787 
L 156.975818 218.217787 
L 157.205914 219.895776 
L 157.773516 219.895776 
L 158.109803 221.014436 
L 158.558919 221.014436 
L 158.790258 221.573766 
L 159.298987 221.573766 
L 159.34961 222.133095 
L 159.607286 222.133095 
L 160.151018 222.692425 
L 161.38756 226.048404 
L 162.928865 226.048404 
L 163.24309 227.167063 
L 163.361409 226.607734 
L 163.498426 226.607734 
L 163.878393 226.048404 
L 165.261195 224.370414 
L 168.720796 224.370414 
L 169.121677 223.811085 
L 170.79611 223.811085 
L 171.03442 223.251755 
L 174.1701 223.251755 
L 174.573821 223.811085 
L 175.138186 223.811085 
L 175.595453 224.370414 
L 175.825537 223.811085 
L 178.029807 223.811085 
L 178.725461 224.929744 
L 180.205966 224.929744 
L 180.455228 232.760361 
L 180.736224 232.760361 
L 183.130907 234.43835 
L 183.278061 233.879021 
L 183.431579 234.43835 
L 183.830056 233.879021 
L 184.164306 233.879021 
L 184.516105 234.43835 
L 184.780287 234.43835 
L 185.204421 235.55701 
L 185.378853 235.55701 
L 185.540283 234.99768 
L 185.902108 236.11634 
L 188.307675 236.11634 
L 188.541699 236.67567 
L 189.835764 236.67567 
L 190.351 236.11634 
L 190.737024 238.912989 
L 191.01184 237.234999 
L 191.370261 237.234999 
L 191.65755 240.590978 
L 191.85856 240.031648 
L 192.072544 240.590978 
L 192.180321 240.031648 
L 192.312233 241.709638 
L 192.65422 241.709638 
L 193.087527 242.268967 
L 193.936185 241.709638 
L 194.129426 242.828297 
L 194.445236 242.828297 
L 194.668881 241.150308 
L 195.428039 242.828297 
L 196.182904 243.387627 
L 196.845849 243.387627 
L 197.193624 245.065616 
L 197.513292 245.065616 
L 197.702643 244.506286 
L 198.034982 244.506286 
L 199.320355 246.743606 
L 199.534725 245.624946 
L 199.947364 245.065616 
L 200.252095 246.184276 
L 200.287488 246.743606 
L 201.732246 246.743606 
L 201.843614 247.302935 
L 202.361971 247.862265 
L 203.743788 247.862265 
L 204.37629 250.658914 
L 207.930639 250.658914 
L 208.211306 251.218244 
L 208.580444 250.099584 
L 208.795349 251.218244 
L 212.670307 251.218244 
L 212.994065 251.777574 
L 213.774817 255.133552 
L 214.067731 253.455563 
L 214.416805 254.014893 
L 214.80333 253.455563 
L 215.075329 253.455563 
L 215.487472 251.777574 
L 215.708467 251.777574 
L 215.75136 252.336903 
L 216.446787 252.336903 
L 216.838209 248.980925 
L 217.183303 248.980925 
L 218.221413 249.540254 
L 218.287099 248.980925 
L 218.850745 248.421595 
L 218.934461 248.980925 
L 221.650368 248.980925 
L 221.839346 249.540254 
L 222.346192 250.099584 
L 223.023005 251.218244 
L 223.199041 252.336903 
L 223.436923 252.336903 
L 223.703409 253.455563 
L 224.024259 252.896233 
L 224.383522 252.896233 
L 224.654227 252.336903 
L 225.035854 252.896233 
L 225.376391 252.896233 
L 225.702776 253.455563 
L 225.966985 253.455563 
L 226.464326 252.896233 
L 226.722879 253.455563 
L 226.990481 252.896233 
L 227.767582 248.421595 
L 228.515098 249.540254 
L 228.624388 253.455563 
L 228.791014 253.455563 
L 229.0959 254.014893 
L 229.450107 253.455563 
L 229.773496 253.455563 
L 230.171866 252.896233 
L 230.516916 254.014893 
L 231.762241 254.014893 
L 232.257154 254.574222 
L 232.53999 254.574222 
L 232.561937 255.133552 
L 233.973054 255.133552 
L 234.374792 256.252212 
L 236.349206 256.252212 
L 236.742797 257.370871 
L 238.083084 257.370871 
L 240.524719 256.811542 
L 240.751224 257.370871 
L 241.362112 257.370871 
L 241.87614 257.930201 
L 242.220471 259.048861 
L 242.323433 258.489531 
L 242.697696 259.60819 
L 243.530274 259.60819 
L 246.902358 260.72685 
L 255.237575 260.72685 
L 255.577096 260.16752 
L 257.206717 260.16752 
L 257.544506 260.72685 
L 258.663885 260.72685 
L 259.050227 261.28618 
L 259.32803 260.72685 
L 259.650438 261.28618 
L 260.007174 260.72685 
L 260.299965 261.84551 
L 260.748394 261.28618 
L 261.075593 261.84551 
L 268.187921 261.84551 
L 268.555315 260.72685 
L 268.944529 261.28618 
L 269.296535 260.72685 
L 269.690818 260.72685 
L 270.007021 260.16752 
L 271.326687 260.16752 
L 271.661775 260.72685 
L 272.040272 260.16752 
L 272.385103 259.048861 
L 273.06886 259.048861 
L 273.454634 258.489531 
L 273.743313 259.60819 
L 274.114668 259.60819 
L 274.401571 259.048861 
L 275.307097 260.16752 
L 275.836835 259.60819 
L 276.151565 260.16752 
L 276.821152 260.16752 
L 277.199065 259.60819 
L 277.570154 261.28618 
L 277.927323 260.72685 
L 278.61303 260.72685 
L 278.874415 260.16752 
L 279.208708 260.72685 
L 279.573529 260.72685 
L 279.899103 255.692882 
L 280.028449 256.252212 
L 280.284297 256.252212 
L 280.462526 256.811542 
L 280.617859 256.811542 
L 280.822369 257.370871 
L 280.960963 256.252212 
L 281.285496 256.811542 
L 281.418385 256.811542 
L 281.645188 257.370871 
L 282.233057 257.370871 
L 282.518943 258.489531 
L 282.802276 257.370871 
L 282.986741 257.930201 
L 284.02677 257.930201 
L 284.336383 257.370871 
L 284.630012 257.370871 
L 284.998987 257.930201 
L 285.340176 257.930201 
L 285.744628 257.370871 
L 286.13493 257.930201 
L 286.437767 257.930201 
L 286.914336 259.048861 
L 288.858396 259.048861 
L 289.178167 257.370871 
L 290.684869 257.370871 
L 291.030904 257.930201 
L 291.303102 258.489531 
L 291.836042 258.489531 
L 292.002311 259.60819 
L 292.078583 259.048861 
L 292.258914 259.60819 
L 292.766145 259.60819 
L 293.014799 260.72685 
L 293.69183 260.72685 
L 293.793104 261.28618 
L 294.007859 261.84551 
L 295.053007 261.84551 
L 295.303652 263.523499 
L 295.534935 264.082829 
L 295.668408 264.082829 
L 296.118649 264.642159 
L 296.277116 264.082829 
L 296.353913 264.642159 
L 296.848957 264.642159 
L 297.430343 265.201488 
L 298.734672 265.201488 
L 299.071067 264.642159 
L 299.393391 265.201488 
L 299.756734 265.201488 
L 299.930868 265.760818 
L 299.972752 265.201488 
L 300.179431 265.760818 
L 300.341079 265.760818 
L 300.500714 266.879478 
L 301.115408 267.998137 
L 301.563015 267.438807 
L 301.903326 267.998137 
L 302.572346 267.998137 
L 302.935454 269.116797 
L 303.068383 268.557467 
L 303.284333 270.235456 
L 303.590339 269.676127 
L 303.7888 270.235456 
L 303.945721 269.676127 
L 304.119128 270.794786 
L 304.472572 270.794786 
L 304.577254 271.354116 
L 304.991923 270.794786 
L 305.312634 271.913446 
L 306.036205 271.913446 
L 306.296677 273.032105 
L 306.666133 271.913446 
L 306.917131 271.913446 
L 307.009153 272.472775 
L 307.684445 272.472775 
L 308.000322 274.710095 
L 308.454603 272.472775 
L 308.525035 273.032105 
L 309.123189 272.472775 
L 309.17983 273.591435 
L 309.385559 273.591435 
L 309.800117 274.150765 
L 310.136551 273.591435 
L 310.390719 273.591435 
L 310.766836 274.710095 
L 311.176023 274.710095 
L 311.572832 274.150765 
L 311.869396 274.710095 
L 312.049592 274.150765 
L 312.228814 275.269424 
L 313.816889 275.269424 
L 314.304982 275.828754 
L 315.301549 275.828754 
L 315.655148 274.710095 
L 316.321581 274.710095 
L 316.655127 275.269424 
L 319.689474 275.269424 
L 320.098978 274.710095 
L 320.482838 275.828754 
L 325.139572 275.828754 
L 326.161133 276.388084 
L 326.767882 276.388084 
L 327.260646 276.947414 
L 327.650063 276.947414 
L 327.878895 277.506743 
L 333.062305 277.506743 
L 333.48331 276.947414 
L 333.81709 277.506743 
L 334.146839 276.947414 
L 334.370782 273.591435 
L 336.418527 273.591435 
L 336.601233 274.150765 
L 336.955392 274.150765 
L 337.072511 273.591435 
L 339.192215 273.591435 
L 339.486277 274.150765 
L 339.59741 273.591435 
L 340.101102 273.591435 
L 340.333931 274.710095 
L 340.510825 273.591435 
L 340.62742 273.591435 
L 340.84654 274.710095 
L 341.002064 274.710095 
L 341.202653 273.591435 
L 341.378086 274.710095 
L 341.49051 273.591435 
L 341.53579 274.710095 
L 342.742342 274.710095 
L 342.933866 275.269424 
L 342.961954 275.828754 
L 343.576358 275.828754 
L 343.61257 276.388084 
L 343.966577 276.388084 
L 344.149883 276.947414 
L 344.306169 276.388084 
L 344.498171 276.947414 
L 344.628013 276.388084 
L 344.813738 276.947414 
L 344.932542 276.947414 
L 345.061332 276.388084 
L 345.078993 276.947414 
L 345.465005 276.947414 
L 345.706867 277.506743 
L 345.859411 277.506743 
L 346.08785 278.625403 
L 346.341323 279.184733 
L 346.516382 278.625403 
L 348.466223 278.625403 
L 348.745015 279.184733 
L 350.239351 279.184733 
L 350.477725 279.744063 
L 350.792812 279.744063 
L 351.026622 280.303392 
L 351.155491 279.744063 
L 351.773756 279.744063 
L 351.982402 280.862722 
L 352.550302 280.862722 
L 352.604838 281.422052 
L 352.684081 280.862722 
L 352.806674 280.862722 
L 353.026617 281.981382 
L 353.255668 282.540711 
L 353.319685 281.981382 
L 353.579327 284.218701 
L 354.630875 284.218701 
L 354.73659 284.778031 
L 354.966955 284.778031 
L 355.101902 285.89669 
L 355.260278 284.778031 
L 356.656248 284.778031 
L 356.737025 285.33736 
L 357.004786 284.778031 
L 357.132988 285.33736 
L 357.37002 284.778031 
L 357.677913 284.778031 
L 357.866724 285.89669 
L 358.210904 285.89669 
L 358.352084 285.33736 
L 358.473045 286.45602 
L 358.830278 284.778031 
L 359.204631 285.89669 
L 359.475817 284.778031 
L 360.110638 284.778031 
L 360.604689 286.45602 
L 360.758421 285.89669 
L 360.92867 286.45602 
L 361.388055 285.33736 
L 361.535153 286.45602 
L 362.625372 286.45602 
L 362.801102 287.01535 
L 363.107339 287.01535 
L 363.270589 286.45602 
L 363.476624 287.01535 
L 363.606904 286.45602 
L 364.003773 287.574679 
L 364.545611 287.574679 
L 364.92775 288.693339 
L 366.582877 288.693339 
L 366.76384 289.252669 
L 366.985192 288.693339 
L 367.094712 289.252669 
L 367.320391 288.693339 
L 367.620117 288.693339 
L 367.813441 289.252669 
L 367.940555 288.693339 
L 368.345241 288.693339 
L 368.470412 289.252669 
L 369.037792 289.252669 
L 369.076037 290.371328 
L 371.502689 290.371328 
L 371.742084 290.930658 
L 371.899216 290.371328 
L 372.03234 290.930658 
L 372.133459 290.371328 
L 372.254753 291.489988 
L 372.813609 291.489988 
L 373.07723 292.049318 
L 373.130658 291.489988 
L 373.185396 292.049318 
L 373.486433 291.489988 
L 373.564235 292.049318 
L 373.85863 292.608647 
L 373.973938 293.167977 
L 374.194067 293.167977 
L 374.244682 293.727307 
L 374.551173 295.405296 
L 374.689123 294.845967 
L 374.875309 294.845967 
L 374.908851 295.964626 
L 376.21697 295.964626 
L 376.379445 296.523956 
L 376.635714 295.964626 
L 377.079619 296.523956 
L 377.19826 295.964626 
L 377.392482 296.523956 
L 377.631177 296.523956 
L 377.773223 297.083286 
L 378.104076 297.083286 
L 378.112187 297.642615 
L 378.214176 297.083286 
L 378.311942 298.201945 
L 378.456443 298.201945 
L 378.656468 298.761275 
L 380.028613 298.761275 
L 380.064824 298.201945 
L 380.151206 299.320605 
L 380.513067 299.320605 
L 380.69787 298.761275 
L 380.840126 299.320605 
L 381.054301 298.761275 
L 381.21477 299.320605 
L 381.395061 299.320605 
L 381.549981 298.761275 
L 381.70359 300.439264 
L 383.542452 300.439264 
L 384.095436 301.557924 
L 384.386518 300.998594 
L 391.332927 300.998594 
L 391.450865 301.557924 
L 391.661806 300.998594 
L 391.722602 301.557924 
L 392.352911 301.557924 
L 392.527446 302.117254 
L 393.412086 302.117254 
L 393.530286 302.676583 
L 393.696896 302.117254 
L 395.052031 302.117254 
L 395.239997 302.676583 
L 395.476706 302.117254 
L 395.607407 302.117254 
L 395.815695 303.235913 
L 395.930276 302.676583 
L 396.438139 302.676583 
L 396.659424 303.235913 
L 397.701021 303.235913 
L 397.870694 302.117254 
L 398.214497 303.235913 
L 400.064334 303.235913 
L 400.253996 303.795243 
L 400.423434 303.795243 
L 400.605914 304.354573 
L 400.742307 304.354573 
L 400.911142 304.913903 
L 401.306167 304.913903 
L 401.376147 305.473232 
L 401.705459 305.473232 
L 401.913473 304.354573 
L 402.0759 304.913903 
L 402.324531 304.913903 
L 402.425912 305.473232 
L 402.806276 305.473232 
L 403.146476 306.032562 
L 403.517445 307.710552 
L 403.638902 307.151222 
L 403.751993 307.710552 
L 404.011571 308.269881 
L 404.134661 307.710552 
L 404.343414 308.269881 
L 404.465057 308.269881 
L 404.683566 307.710552 
L 404.862026 307.710552 
L 405.211648 309.388541 
L 405.422815 308.829211 
L 405.548602 308.829211 
L 405.713731 309.388541 
L 405.757152 309.947871 
L 405.897561 309.947871 
L 405.966083 309.388541 
L 406.192886 309.947871 
L 406.349935 309.388541 
L 406.479408 309.947871 
L 407.038526 309.947871 
L 407.246702 302.117254 
L 407.802689 303.235913 
L 408.16979 303.235913 
L 408.298194 303.795243 
L 408.498196 303.235913 
L 408.626573 303.235913 
L 408.778477 302.676583 
L 408.95314 303.235913 
L 409.193059 303.235913 
L 409.311108 302.676583 
L 409.46109 303.235913 
L 409.665644 302.676583 
L 409.746043 303.235913 
L 410.04196 303.795243 
L 410.171218 303.795243 
L 410.483648 302.676583 
L 410.76669 303.235913 
L 412.02417 303.235913 
L 412.322542 303.795243 
L 412.635821 303.235913 
L 413.199332 303.235913 
L 413.631348 304.354573 
L 413.779531 302.676583 
L 414.02894 303.235913 
L 414.346883 302.676583 
L 414.492325 304.354573 
L 414.667924 303.235913 
L 414.833879 303.235913 
L 414.9444 303.795243 
L 415.026881 306.032562 
L 415.041686 305.473232 
L 415.407575 306.032562 
L 416.310654 306.032562 
L 416.737847 307.151222 
L 416.914071 306.591892 
L 417.546715 306.591892 
L 417.71909 306.032562 
L 417.903321 306.591892 
L 418.1054 306.591892 
L 418.224116 306.032562 
L 418.585282 306.591892 
L 418.797454 306.591892 
L 418.936553 307.151222 
L 419.106674 306.591892 
L 419.28944 306.591892 
L 419.460718 306.032562 
L 419.566814 306.591892 
L 420.520905 306.591892 
L 420.759601 308.269881 
L 421.048197 307.710552 
L 421.286884 307.710552 
L 421.480121 307.151222 
L 421.56798 307.710552 
L 421.867301 307.151222 
L 421.979201 307.710552 
L 422.242891 307.710552 
L 422.346051 308.269881 
L 422.661174 307.710552 
L 423.31053 307.710552 
L 423.551276 308.269881 
L 423.952315 308.269881 
L 424.053434 308.829211 
L 424.224339 308.269881 
L 424.623857 309.388541 
L 424.742732 309.388541 
L 424.919039 309.947871 
L 425.081561 309.947871 
L 425.387361 310.5072 
L 427.874865 310.5072 
L 428.139869 311.06653 
L 428.388356 311.06653 
L 428.438947 309.947871 
L 428.501603 310.5072 
L 428.907008 310.5072 
L 428.999543 311.06653 
L 429.532975 311.06653 
L 429.787731 311.62586 
L 430.129889 311.62586 
L 430.14127 311.06653 
L 430.255013 311.62586 
L 430.359615 311.06653 
L 431.849519 311.06653 
L 432.128883 310.5072 
L 432.908181 311.06653 
L 434.524249 311.06653 
L 434.594177 311.62586 
L 436.289989 311.62586 
L 436.442744 312.18519 
L 438.011025 314.981839 
L 438.15966 314.981839 
L 438.314731 315.541168 
L 438.383789 314.981839 
L 438.717753 315.541168 
L 439.028025 316.100498 
L 439.399094 316.100498 
L 439.523705 316.659828 
L 439.992647 316.659828 
L 440.671855 316.100498 
L 440.706073 317.778488 
L 441.252709 317.778488 
L 441.422132 317.219158 
L 441.54519 317.778488 
L 442.801045 317.778488 
L 443.092581 317.219158 
L 444.439394 317.219158 
L 445.271027 317.778488 
L 446.950977 317.778488 
L 447.778213 318.337817 
L 447.88885 318.897147 
L 450.376739 318.897147 
L 450.610465 318.337817 
L 451.873462 318.337817 
L 452.795672 317.778488 
L 453.467698 317.778488 
L 453.801197 318.337817 
L 454.09728 319.456477 
L 454.273563 319.456477 
L 454.280443 318.897147 
L 456.2578 318.897147 
L 456.47002 319.456477 
L 461.465365 319.456477 
L 462.095221 320.015807 
L 462.337957 320.015807 
L 462.432708 320.575136 
L 462.741424 320.575136 
L 462.871072 320.015807 
L 463.072046 320.575136 
L 464.200462 320.575136 
L 464.703451 321.134466 
L 465.052847 322.253126 
L 468.112898 322.253126 
L 468.651495 321.693796 
L 468.807328 322.253126 
L 468.964969 321.693796 
L 469.142181 322.253126 
L 469.981453 322.253126 
L 470.368399 321.693796 
L 470.564754 322.253126 
L 471.106179 321.134466 
L 471.317196 322.253126 
L 472.627416 322.253126 
L 472.642916 322.812456 
L 474.71933 322.812456 
L 475.728906 323.371785 
L 476.031878 322.812456 
L 476.594781 322.812456 
L 476.731237 323.371785 
L 477.212208 321.693796 
L 477.529762 322.253126 
L 477.956673 321.693796 
L 478.272888 321.693796 
L 478.416499 322.253126 
L 479.288312 322.253126 
L 480.324173 321.693796 
L 480.48009 322.253126 
L 481.510827 322.253126 
L 481.845477 321.693796 
L 487.091578 322.253126 
L 487.484387 321.693796 
L 487.823868 322.253126 
L 488.128067 321.693796 
L 488.162102 322.253126 
L 488.426935 322.812456 
L 488.58031 322.812456 
L 488.720607 323.371785 
L 491.1597 323.371785 
L 491.211674 323.931115 
L 491.514856 323.931115 
L 492.324395 323.371785 
L 492.350148 323.931115 
L 492.661179 323.371785 
L 492.736776 324.490445 
L 492.936972 324.490445 
L 493.343124 325.049775 
L 494.023758 325.049775 
L 494.437045 324.490445 
L 494.901729 325.609104 
L 494.920788 326.168434 
L 495.240709 326.727764 
L 495.372196 326.727764 
L 495.704201 326.168434 
L 496.171042 326.168434 
L 496.268089 326.727764 
L 497.331018 326.727764 
L 497.477449 326.168434 
L 497.656715 327.287094 
L 497.804469 327.287094 
L 498.084893 326.727764 
L 498.339927 327.287094 
L 498.908658 327.287094 
L 499.159131 328.405753 
L 500.945499 328.405753 
L 501.159066 328.965083 
L 501.289838 328.965083 
L 501.505022 328.405753 
L 501.560519 328.965083 
L 502.130521 328.965083 
L 502.245165 329.524413 
L 502.556542 329.524413 
L 502.645478 330.643072 
L 503.131291 330.643072 
L 503.313822 332.321062 
L 503.693888 332.321062 
L 503.91617 331.761732 
L 504.036257 332.321062 
L 504.197909 332.321062 
L 504.210255 333.999051 
L 504.512659 333.999051 
L 504.89937 333.439721 
L 505.074807 333.439721 
L 505.224674 333.999051 
L 505.597371 333.999051 
L 505.983575 333.439721 
L 506.023298 334.558381 
L 506.365249 334.558381 
L 506.428282 335.117711 
L 506.666544 335.67704 
L 507.29596 335.67704 
L 507.388471 336.7957 
L 507.658583 336.7957 
L 507.816943 337.35503 
L 507.968899 337.35503 
L 508.513828 337.91436 
L 508.727097 337.35503 
L 508.854103 329.524413 
L 508.991847 328.965083 
L 509.085136 331.202402 
L 509.757107 331.202402 
L 510.033301 330.643072 
L 510.234538 331.761732 
L 510.390224 331.761732 
L 510.789353 332.321062 
L 511.228344 332.321062 
L 511.428652 331.761732 
L 511.585486 332.321062 
L 512.64397 332.321062 
L 512.774301 332.880392 
L 513.256872 331.761732 
L 513.649276 332.321062 
L 513.87414 332.321062 
L 513.960506 332.880392 
L 514.15903 331.761732 
L 514.352008 332.880392 
L 515.152713 332.880392 
L 515.27682 332.321062 
L 515.562039 332.321062 
L 515.606906 332.880392 
L 515.929854 333.439721 
L 515.942459 332.880392 
L 516.5498 332.880392 
L 516.862396 333.439721 
L 518.484549 333.439721 
L 518.606181 333.999051 
L 518.927878 333.439721 
L 518.938619 333.999051 
L 519.40055 334.558381 
L 519.684379 334.558381 
L 520.010998 335.117711 
L 520.174081 335.67704 
L 520.298767 335.67704 
L 520.691124 334.558381 
L 520.768631 335.67704 
L 521.032468 335.117711 
L 521.254539 335.67704 
L 522.245633 335.67704 
L 522.356678 336.23637 
L 522.495077 335.67704 
L 522.974681 336.23637 
L 523.206342 335.67704 
L 523.441121 336.23637 
L 523.582181 335.67704 
L 523.910699 336.7957 
L 524.13768 336.23637 
L 524.914039 336.23637 
L 525.222905 336.7957 
L 525.673896 336.7957 
L 526.032715 335.67704 
L 526.128352 336.23637 
L 526.511742 336.23637 
L 526.60904 337.35503 
L 527.09258 336.23637 
L 527.261443 336.7957 
L 527.651042 336.23637 
L 527.935431 336.23637 
L 528.081128 336.7957 
L 528.284442 336.7957 
L 528.311529 333.439721 
L 528.429379 333.439721 
L 528.885447 333.999051 
L 528.944531 332.880392 
L 529.108278 333.999051 
L 529.258399 333.439721 
L 529.348503 333.999051 
L 529.70595 333.439721 
L 530.134836 333.999051 
L 530.350873 333.999051 
L 530.64743 333.439721 
L 531.068962 333.439721 
L 531.501161 334.558381 
L 531.727554 333.999051 
L 532.185346 333.999051 
L 532.399426 333.439721 
L 532.430942 332.880392 
L 532.697634 333.999051 
L 532.839068 333.439721 
L 533.005428 333.999051 
L 533.252624 333.439721 
L 533.532406 333.439721 
L 533.71214 332.880392 
L 534.053004 332.880392 
L 534.407885 333.999051 
L 534.64869 333.439721 
L 534.941941 334.558381 
L 535.094661 334.558381 
L 535.19052 333.999051 
L 535.488769 333.999051 
L 535.513802 334.558381 
L 536.502508 334.558381 
L 536.664483 335.117711 
L 536.803219 335.117711 
L 537.017088 335.67704 
L 537.201554 335.117711 
L 537.342237 335.67704 
L 537.551975 335.117711 
L 537.670043 335.67704 
L 537.822433 335.117711 
L 537.87153 335.67704 
L 538.04023 336.7957 
L 538.246337 336.23637 
L 538.311201 335.67704 
L 538.528565 336.23637 
L 538.706199 335.67704 
L 538.920302 336.23637 
L 539.271163 336.23637 
L 539.368858 336.7957 
L 539.611244 336.23637 
L 540.247813 337.91436 
L 540.419051 337.91436 
L 540.596172 336.7957 
L 540.679908 337.35503 
L 540.930326 337.35503 
L 541.04426 336.7957 
L 541.249024 336.7957 
L 541.435448 337.35503 
L 541.675113 337.35503 
L 542.077484 339.033019 
L 542.291555 338.473689 
L 545.105562 338.473689 
L 545.236513 339.033019 
L 545.402575 339.033019 
L 545.53612 338.473689 
L 545.686015 339.033019 
L 545.804059 339.033019 
L 546.471597 336.7957 
L 546.583266 337.91436 
L 547.15925 336.7957 
L 547.784097 336.7957 
L 548.460755 337.91436 
L 549.656955 337.35503 
L 549.960736 337.91436 
L 550.295403 337.35503 
L 550.53442 338.473689 
L 550.630284 337.35503 
L 550.945363 338.473689 
L 551.288653 337.35503 
L 551.402293 338.473689 
L 551.62243 338.473689 
L 551.743442 337.91436 
L 551.962785 338.473689 
L 552.094419 338.473689 
L 552.217032 337.91436 
L 552.366009 339.592349 
L 552.756717 338.473689 
L 553.122149 338.473689 
L 553.34544 339.033019 
L 553.766842 339.033019 
L 554.109544 338.473689 
L 554.309891 338.473689 
L 554.461347 339.592349 
L 554.65027 339.033019 
L 554.755746 339.592349 
L 555.010427 340.151679 
L 555.166586 340.151679 
L 555.439606 339.033019 
L 555.700678 340.711008 
L 556.028818 340.711008 
L 556.053724 341.829668 
L 556.07664 341.270338 
L 556.248256 340.711008 
L 556.428658 341.829668 
L 556.503905 340.711008 
L 556.775849 340.711008 
L 556.812902 341.270338 
L 557.11929 341.829668 
L 557.30266 341.829668 
L 557.388608 340.711008 
L 557.799781 341.829668 
L 557.866369 340.711008 
L 558.090323 341.829668 
L 558.262602 340.151679 
L 558.786311 341.270338 
L 559.180836 339.592349 
L 559.211343 340.151679 
L 559.46124 339.592349 
L 559.619227 339.592349 
L 559.783239 340.711008 
L 559.979106 339.592349 
L 560.355672 340.711008 
L 560.49854 339.592349 
L 560.653229 340.151679 
L 560.968455 340.151679 
L 561.176628 339.592349 
L 561.575125 339.592349 
L 561.587288 340.151679 
L 562.214475 339.033019 
L 562.547104 340.711008 
L 562.723641 340.711008 
L 562.929394 340.151679 
L 562.987553 341.270338 
L 563.27964 340.151679 
L 563.459494 341.270338 
L 563.640806 340.151679 
L 563.715735 340.711008 
L 563.715735 340.711008 
" clip-path="url(#pc873d065dd)" style="fill: none; stroke-dasharray: 3,1.5; stroke-dashoffset: 0; stroke: #808080; stroke-width: 1.5"/>
   </g>
   <g id="line2d_19">
    <path d="M 38.539265 297.083286 
L 39.942361 296.523956 
L 41.34093 295.405296 
L 44.652877 295.405296 
L 48.304694 294.845967 
L 48.575605 295.405296 
L 48.744563 295.405296 
L 48.860089 294.286637 
L 49.010186 294.845967 
L 49.126722 294.845967 
L 49.52108 294.286637 
L 50.288894 294.286637 
L 50.716529 291.489988 
L 50.81192 294.286637 
L 51.033884 290.930658 
L 51.104472 291.489988 
L 51.353201 291.489988 
L 51.751075 290.930658 
L 52.403319 290.930658 
L 52.737247 288.693339 
L 53.25632 288.693339 
L 53.783222 289.811999 
L 54.118412 285.33736 
L 54.192611 285.89669 
L 54.50804 285.33736 
L 55.118201 283.659371 
L 55.53206 284.778031 
L 56.186214 284.778031 
L 56.551789 285.89669 
L 56.798922 285.33736 
L 57.543459 284.778031 
L 57.877553 284.778031 
L 58.240848 283.659371 
L 58.762137 283.659371 
L 59.301274 280.303392 
L 60.7506 278.625403 
L 60.947972 278.066073 
L 61.366037 278.066073 
L 61.629663 277.506743 
L 62.049698 277.506743 
L 62.35893 278.625403 
L 62.673926 279.184733 
L 63.025129 279.184733 
L 63.230795 278.625403 
L 65.738982 278.625403 
L 66.139891 278.066073 
L 66.788786 278.066073 
L 67.147882 277.506743 
L 67.491991 277.506743 
L 67.625603 278.066073 
L 68.475466 277.506743 
L 68.831658 278.066073 
L 69.813714 278.066073 
L 70.129012 277.506743 
L 70.516653 278.066073 
L 72.304098 278.066073 
L 72.67032 277.506743 
L 72.871339 275.828754 
L 73.360595 276.947414 
L 74.049635 276.947414 
L 74.371566 275.828754 
L 74.498251 276.947414 
L 75.062691 275.269424 
L 75.403979 275.269424 
L 75.735444 274.710095 
L 76.105412 274.710095 
L 76.445104 275.269424 
L 76.769697 274.150765 
L 77.057871 274.150765 
L 77.841352 273.032105 
L 81.954862 273.032105 
L 82.281858 271.913446 
L 82.978771 271.913446 
L 83.288094 269.116797 
L 84.325556 269.116797 
L 85.31864 266.879478 
L 86.374188 266.879478 
L 86.752252 266.320148 
L 93.129545 266.320148 
L 93.89517 264.642159 
L 94.068609 266.320148 
L 95.296694 266.320148 
L 95.630185 265.201488 
L 95.998123 266.320148 
L 96.873543 266.320148 
L 97.357084 265.201488 
L 97.716049 266.320148 
L 103.137304 266.320148 
L 103.433562 261.28618 
L 103.638962 266.320148 
L 105.603631 266.320148 
L 105.960284 265.760818 
L 106.163857 260.72685 
L 106.64474 265.760818 
L 106.984376 265.760818 
L 107.209832 266.320148 
L 110.767028 266.320148 
L 110.947168 265.760818 
L 111.270442 265.760818 
L 111.802838 264.082829 
L 117.168839 264.082829 
L 118.339949 263.523499 
L 125.547084 263.523499 
L 125.847195 260.72685 
L 126.230682 260.72685 
L 126.570738 263.523499 
L 126.920603 263.523499 
L 127.161678 260.72685 
L 127.422956 263.523499 
L 127.857161 260.72685 
L 128.241779 259.60819 
L 132.701578 259.60819 
L 133.086514 259.048861 
L 134.775323 259.048861 
L 135.122494 257.930201 
L 135.542259 255.692882 
L 135.842112 255.133552 
L 136.181041 251.777574 
L 136.599471 251.777574 
L 137.160515 250.658914 
L 137.547712 250.658914 
L 138.216484 249.540254 
L 141.023433 244.506286 
L 141.310042 245.624946 
L 143.316949 245.624946 
L 143.708483 243.387627 
L 144.053747 243.946957 
L 145.435958 243.946957 
L 145.688675 245.065616 
L 146.133184 243.946957 
L 147.137032 243.946957 
L 147.47867 242.828297 
L 147.808209 242.828297 
L 148.198491 242.268967 
L 148.355981 242.268967 
L 148.531994 240.590978 
L 148.770594 240.590978 
L 149.572054 240.031648 
L 150.234272 241.709638 
L 150.396203 241.709638 
L 150.915328 241.150308 
L 151.248401 240.031648 
L 152.969667 240.031648 
L 153.302002 239.472318 
L 153.658882 239.472318 
L 153.98929 238.912989 
L 154.298808 238.912989 
L 155.018021 238.353659 
L 155.389463 238.353659 
L 155.759864 236.67567 
L 156.363833 236.67567 
L 156.741281 236.11634 
L 156.975818 236.11634 
L 157.106757 246.184276 
L 157.205914 245.624946 
L 157.773516 245.624946 
L 158.109803 244.506286 
L 158.558919 244.506286 
L 158.790258 243.946957 
L 159.298987 243.946957 
L 159.34961 243.387627 
L 160.151018 243.387627 
L 160.581294 241.709638 
L 161.475471 240.031648 
L 162.928865 240.031648 
L 163.24309 238.912989 
L 163.361409 239.472318 
L 163.498426 239.472318 
L 163.878393 240.031648 
L 165.261195 239.472318 
L 168.720796 239.472318 
L 169.121677 240.031648 
L 170.79611 240.031648 
L 171.03442 240.590978 
L 171.470948 240.031648 
L 174.1701 240.031648 
L 174.573821 239.472318 
L 175.138186 239.472318 
L 175.595453 238.912989 
L 175.825537 239.472318 
L 178.029807 239.472318 
L 178.725461 238.353659 
L 180.205966 238.353659 
L 180.455228 230.523042 
L 180.736224 230.523042 
L 183.130907 228.845053 
L 183.278061 229.404382 
L 183.431579 228.845053 
L 183.830056 229.404382 
L 184.164306 229.404382 
L 184.516105 228.845053 
L 184.780287 228.845053 
L 185.204421 227.726393 
L 185.378853 227.726393 
L 185.540283 228.285723 
L 185.902108 227.167063 
L 188.307675 227.167063 
L 188.541699 226.607734 
L 188.931867 226.607734 
L 189.293966 226.048404 
L 189.669889 226.607734 
L 189.835764 226.607734 
L 190.351 227.167063 
L 190.737024 224.370414 
L 191.01184 226.048404 
L 191.370261 226.048404 
L 191.65755 222.692425 
L 191.85856 223.251755 
L 192.072544 222.133095 
L 192.180321 222.692425 
L 192.312233 221.014436 
L 192.65422 221.014436 
L 193.087527 220.455106 
L 193.936185 221.014436 
L 194.129426 219.895776 
L 194.445236 219.895776 
L 194.668881 221.573766 
L 195.428039 219.895776 
L 196.182904 219.336446 
L 196.845849 219.336446 
L 197.193624 217.658457 
L 197.513292 217.658457 
L 197.702643 218.217787 
L 198.034982 218.217787 
L 199.320355 214.861808 
L 199.534725 217.099127 
L 199.947364 217.658457 
L 200.431341 214.861808 
L 201.732246 214.861808 
L 201.843614 214.302478 
L 202.361971 213.743149 
L 203.743788 213.743149 
L 204.37629 210.9465 
L 207.930639 210.9465 
L 208.211306 209.82784 
L 208.580444 212.065159 
L 208.795349 210.38717 
L 212.670307 210.38717 
L 212.994065 209.82784 
L 213.774817 206.471861 
L 214.067731 208.149851 
L 214.416805 207.590521 
L 214.80333 208.149851 
L 215.075329 208.149851 
L 215.487472 202.556553 
L 215.708467 202.556553 
L 215.75136 201.997223 
L 216.446787 201.997223 
L 216.838209 200.878564 
L 217.183303 199.200574 
L 218.221413 198.641245 
L 218.287099 199.200574 
L 218.850745 199.759904 
L 218.934461 199.200574 
L 221.650368 199.200574 
L 221.839346 198.641245 
L 222.346192 198.081915 
L 223.023005 196.963255 
L 223.199041 195.844596 
L 223.436923 195.844596 
L 223.703409 194.725936 
L 224.024259 195.285266 
L 224.383522 195.285266 
L 224.654227 195.844596 
L 225.035854 195.285266 
L 225.376391 195.285266 
L 225.702776 194.725936 
L 225.966985 194.725936 
L 226.464326 195.285266 
L 226.722879 194.725936 
L 226.990481 195.285266 
L 227.441909 198.081915 
L 227.767582 198.641245 
L 228.515098 197.522585 
L 228.624388 193.607277 
L 228.791014 193.607277 
L 229.0959 193.047947 
L 229.450107 193.607277 
L 229.773496 193.607277 
L 230.171866 194.166606 
L 230.516916 193.047947 
L 231.762241 193.047947 
L 232.257154 192.488617 
L 232.53999 192.488617 
L 232.561937 191.929287 
L 233.973054 191.929287 
L 234.374792 190.810628 
L 236.349206 190.810628 
L 236.742797 189.691968 
L 240.524719 189.691968 
L 240.751224 189.132638 
L 241.362112 189.132638 
L 241.87614 188.573309 
L 242.220471 187.454649 
L 242.323433 188.013979 
L 242.697696 186.895319 
L 243.530274 186.895319 
L 246.902358 185.77666 
L 255.237575 185.77666 
L 255.577096 186.335989 
L 257.206717 186.335989 
L 257.544506 185.77666 
L 258.663885 185.77666 
L 259.050227 185.21733 
L 259.32803 185.77666 
L 259.650438 185.21733 
L 260.007174 185.77666 
L 260.299965 184.658 
L 260.748394 185.21733 
L 261.075593 184.658 
L 268.187921 184.658 
L 268.555315 185.77666 
L 268.944529 185.21733 
L 269.296535 185.77666 
L 269.690818 185.21733 
L 270.007021 185.77666 
L 271.326687 185.77666 
L 271.661775 185.21733 
L 272.040272 185.77666 
L 272.385103 184.658 
L 273.06886 184.658 
L 273.454634 185.21733 
L 273.743313 184.09867 
L 274.114668 184.09867 
L 274.401571 184.658 
L 275.307097 183.539341 
L 275.836835 184.09867 
L 276.151565 183.539341 
L 276.821152 183.539341 
L 277.199065 184.09867 
L 277.570154 182.420681 
L 277.927323 182.980011 
L 278.61303 182.980011 
L 278.874415 183.539341 
L 279.208708 182.980011 
L 279.573529 182.980011 
L 279.899103 187.454649 
L 280.028449 186.895319 
L 280.284297 186.895319 
L 280.462526 186.335989 
L 280.617859 186.335989 
L 280.822369 185.77666 
L 280.960963 186.895319 
L 281.285496 186.335989 
L 281.418385 186.335989 
L 281.645188 185.77666 
L 282.233057 185.77666 
L 282.518943 184.658 
L 282.802276 185.77666 
L 282.986741 185.21733 
L 284.02677 185.21733 
L 284.336383 185.77666 
L 284.630012 185.77666 
L 284.998987 185.21733 
L 285.340176 185.21733 
L 285.744628 185.77666 
L 286.13493 185.21733 
L 286.437767 185.21733 
L 286.914336 184.09867 
L 288.858396 184.09867 
L 289.178167 184.658 
L 290.684869 184.658 
L 291.030904 184.09867 
L 291.303102 183.539341 
L 291.836042 183.539341 
L 292.002311 182.420681 
L 292.078583 182.980011 
L 292.258914 182.420681 
L 292.766145 182.420681 
L 293.014799 181.302021 
L 293.69183 181.302021 
L 293.793104 180.742692 
L 294.007859 180.183362 
L 295.053007 180.183362 
L 295.303652 178.505373 
L 295.534935 177.946043 
L 295.668408 177.946043 
L 296.118649 177.386713 
L 296.277116 177.946043 
L 296.353913 177.386713 
L 296.516396 177.386713 
L 296.706605 176.827383 
L 296.848957 176.827383 
L 297.430343 176.268053 
L 298.734672 176.268053 
L 299.071067 176.827383 
L 299.393391 176.268053 
L 299.756734 176.268053 
L 299.930868 175.708724 
L 299.972752 176.268053 
L 300.179431 175.708724 
L 300.341079 175.708724 
L 300.500714 174.590064 
L 301.115408 173.471405 
L 301.563015 174.030734 
L 301.903326 173.471405 
L 302.572346 173.471405 
L 302.935454 172.352745 
L 303.068383 172.912075 
L 303.284333 171.234085 
L 303.590339 171.793415 
L 303.7888 171.234085 
L 303.945721 171.793415 
L 304.119128 170.674756 
L 304.472572 170.674756 
L 304.577254 170.115426 
L 304.991923 170.674756 
L 305.312634 169.556096 
L 306.036205 169.556096 
L 306.296677 168.437437 
L 306.666133 169.556096 
L 306.917131 169.556096 
L 307.009153 168.996766 
L 307.684445 168.996766 
L 308.000322 166.759447 
L 308.454603 168.996766 
L 308.525035 168.437437 
L 309.123189 168.996766 
L 309.17983 167.878107 
L 309.385559 167.878107 
L 309.800117 167.318777 
L 310.136551 167.878107 
L 310.390719 167.878107 
L 310.766836 166.759447 
L 311.176023 166.759447 
L 311.572832 167.318777 
L 311.869396 166.759447 
L 312.049592 167.318777 
L 312.228814 166.200117 
L 313.816889 166.200117 
L 314.304982 165.640788 
L 315.301549 165.640788 
L 315.655148 166.759447 
L 316.321581 166.759447 
L 316.655127 166.200117 
L 319.689474 166.200117 
L 320.098978 166.759447 
L 320.482838 165.640788 
L 325.139572 165.640788 
L 326.161133 165.081458 
L 326.767882 165.081458 
L 327.260646 164.522128 
L 327.650063 164.522128 
L 327.878895 163.403468 
L 328.241694 163.962798 
L 333.062305 163.962798 
L 333.48331 164.522128 
L 333.81709 163.962798 
L 334.146839 164.522128 
L 334.370782 166.759447 
L 336.418527 166.759447 
L 336.756241 165.640788 
L 337.230232 166.759447 
L 339.192215 166.759447 
L 339.486277 165.640788 
L 339.59741 166.759447 
L 340.101102 166.759447 
L 340.333931 165.640788 
L 340.510825 166.759447 
L 340.62742 166.759447 
L 340.84654 165.640788 
L 341.002064 165.640788 
L 341.202653 166.759447 
L 341.378086 165.640788 
L 341.49051 166.759447 
L 341.53579 165.640788 
L 342.742342 165.640788 
L 343.137315 163.962798 
L 343.576358 163.962798 
L 343.61257 163.403468 
L 343.966577 163.403468 
L 344.149883 162.844139 
L 344.306169 163.403468 
L 344.498171 162.844139 
L 344.628013 163.403468 
L 344.813738 162.844139 
L 344.932542 162.844139 
L 345.061332 163.403468 
L 345.078993 162.844139 
L 345.465005 162.844139 
L 345.706867 162.284809 
L 345.859411 162.284809 
L 346.08785 161.166149 
L 346.341323 160.60682 
L 346.516382 161.166149 
L 348.466223 161.166149 
L 348.745015 160.60682 
L 350.239351 160.60682 
L 350.477725 160.04749 
L 350.792812 160.04749 
L 351.026622 159.48816 
L 351.155491 160.04749 
L 351.773756 160.04749 
L 351.982402 158.92883 
L 352.550302 158.92883 
L 352.604838 158.3695 
L 352.684081 158.92883 
L 352.999188 158.92883 
L 353.026617 158.3695 
L 353.255668 157.810171 
L 353.319685 158.3695 
L 353.579327 156.132181 
L 354.630875 156.132181 
L 354.73659 155.572852 
L 354.966955 155.572852 
L 355.101902 154.454192 
L 355.260278 155.572852 
L 356.656248 155.572852 
L 356.737025 155.013522 
L 357.004786 155.572852 
L 357.132988 155.013522 
L 357.37002 155.572852 
L 357.677913 155.572852 
L 357.866724 154.454192 
L 358.210904 154.454192 
L 358.352084 155.013522 
L 358.473045 153.894862 
L 358.830278 155.572852 
L 359.204631 154.454192 
L 359.475817 155.572852 
L 360.110638 155.572852 
L 360.604689 153.894862 
L 360.758421 154.454192 
L 360.92867 153.894862 
L 361.388055 155.013522 
L 361.535153 153.894862 
L 362.625372 153.894862 
L 362.801102 153.335532 
L 363.107339 153.335532 
L 363.270589 153.894862 
L 363.476624 153.335532 
L 363.606904 153.894862 
L 364.003773 152.776203 
L 364.545611 152.776203 
L 364.92775 151.657543 
L 365.591621 152.776203 
L 365.733496 152.216873 
L 365.908035 152.776203 
L 366.018719 152.216873 
L 366.240783 152.216873 
L 366.33385 152.776203 
L 366.76384 151.657543 
L 366.985192 152.216873 
L 367.094712 151.657543 
L 367.320391 152.216873 
L 367.620117 152.216873 
L 367.813441 151.657543 
L 367.940555 152.216873 
L 368.065825 152.216873 
L 368.345241 152.776203 
L 368.470412 151.657543 
L 369.037792 151.657543 
L 369.076037 150.538884 
L 371.502689 150.538884 
L 371.742084 149.979554 
L 371.899216 150.538884 
L 372.03234 149.979554 
L 372.133459 150.538884 
L 372.254753 149.420224 
L 372.813609 149.420224 
L 373.07723 148.860894 
L 373.130658 149.420224 
L 373.185396 148.860894 
L 373.486433 149.420224 
L 373.564235 148.860894 
L 373.85863 148.301564 
L 373.973938 147.742235 
L 374.194067 147.742235 
L 374.244682 147.182905 
L 374.551173 145.504916 
L 374.689123 146.064245 
L 374.875309 146.064245 
L 374.908851 144.945586 
L 376.21697 144.945586 
L 376.379445 144.386256 
L 376.635714 144.945586 
L 377.392482 143.267596 
L 377.631177 143.267596 
L 377.773223 142.708267 
L 378.104076 142.708267 
L 378.112187 142.148937 
L 378.214176 142.708267 
L 378.311942 141.589607 
L 378.456443 141.589607 
L 378.656468 141.030277 
L 380.028613 141.030277 
L 380.064824 141.589607 
L 380.151206 140.470948 
L 380.513067 140.470948 
L 380.69787 141.030277 
L 380.840126 140.470948 
L 381.054301 141.030277 
L 381.21477 140.470948 
L 381.395061 140.470948 
L 381.549981 141.030277 
L 381.70359 139.352288 
L 383.542452 139.352288 
L 384.095436 138.233628 
L 384.386518 138.792958 
L 391.332927 138.792958 
L 391.450865 138.233628 
L 391.661806 138.792958 
L 391.722602 138.233628 
L 392.352911 138.233628 
L 392.527446 137.674299 
L 393.412086 137.674299 
L 393.530286 137.114969 
L 393.696896 137.674299 
L 395.052031 137.674299 
L 395.239997 137.114969 
L 395.476706 137.674299 
L 395.607407 137.674299 
L 395.815695 136.555639 
L 395.930276 137.114969 
L 396.438139 137.114969 
L 396.659424 136.555639 
L 397.701021 136.555639 
L 397.870694 137.674299 
L 398.214497 136.555639 
L 400.064334 136.555639 
L 400.253996 135.996309 
L 400.423434 135.996309 
L 400.605914 135.43698 
L 400.742307 135.43698 
L 400.911142 134.87765 
L 401.306167 134.87765 
L 401.376147 134.31832 
L 401.705459 134.31832 
L 401.913473 135.43698 
L 402.0759 134.87765 
L 402.324531 134.87765 
L 402.425912 134.31832 
L 402.806276 134.31832 
L 403.146476 133.75899 
L 403.517445 132.081001 
L 403.638902 132.640331 
L 403.751993 132.081001 
L 404.011571 131.521671 
L 404.134661 132.081001 
L 404.343414 131.521671 
L 404.465057 131.521671 
L 404.683566 132.081001 
L 404.862026 132.081001 
L 405.211648 130.403012 
L 405.422815 130.962341 
L 405.548602 130.962341 
L 405.713731 130.403012 
L 405.757152 129.843682 
L 405.897561 129.843682 
L 405.966083 130.403012 
L 406.192886 129.843682 
L 406.349935 130.403012 
L 406.479408 129.843682 
L 407.038526 129.843682 
L 407.246702 133.19966 
L 407.802689 132.081001 
L 408.16979 132.081001 
L 408.298194 131.521671 
L 408.498196 132.081001 
L 408.626573 132.081001 
L 408.778477 132.640331 
L 408.95314 132.081001 
L 409.193059 132.081001 
L 409.311108 132.640331 
L 409.46109 132.081001 
L 409.665644 132.640331 
L 409.746043 132.081001 
L 410.04196 131.521671 
L 410.334575 131.521671 
L 410.483648 132.081001 
L 410.76669 131.521671 
L 411.922384 131.521671 
L 412.02417 128.725022 
L 412.322542 130.962341 
L 412.635821 131.521671 
L 413.199332 131.521671 
L 413.631348 130.403012 
L 413.779531 132.081001 
L 414.02894 131.521671 
L 414.346883 132.081001 
L 414.492325 130.403012 
L 414.667924 131.521671 
L 414.833879 131.521671 
L 414.9444 130.962341 
L 415.041686 126.487703 
L 415.379546 128.725022 
L 415.407575 125.928373 
L 416.310654 125.928373 
L 416.737847 124.809714 
L 416.914071 125.369044 
L 417.546715 125.369044 
L 417.71909 125.928373 
L 417.903321 125.369044 
L 418.1054 125.369044 
L 418.224116 125.928373 
L 418.585282 125.369044 
L 418.797454 125.369044 
L 418.936553 124.809714 
L 419.106674 125.369044 
L 419.28944 125.369044 
L 419.460718 125.928373 
L 419.566814 125.369044 
L 420.520905 125.369044 
L 420.759601 123.691054 
L 421.048197 124.250384 
L 421.286884 124.250384 
L 421.480121 124.809714 
L 421.56798 124.250384 
L 421.867301 124.809714 
L 421.979201 124.250384 
L 422.242891 124.250384 
L 422.346051 123.691054 
L 422.661174 124.250384 
L 423.31053 124.250384 
L 423.551276 123.691054 
L 423.952315 123.691054 
L 424.053434 123.131724 
L 424.224339 123.691054 
L 424.623857 122.572395 
L 424.742732 122.572395 
L 424.919039 122.013065 
L 425.081561 122.013065 
L 425.387361 121.453735 
L 427.874865 121.453735 
L 428.139869 120.894405 
L 428.388356 120.894405 
L 428.438947 122.013065 
L 428.501603 121.453735 
L 428.907008 121.453735 
L 428.999543 120.894405 
L 429.532975 120.894405 
L 429.787731 120.335075 
L 430.129889 120.335075 
L 430.14127 120.894405 
L 430.255013 120.335075 
L 430.359615 120.894405 
L 431.849519 120.894405 
L 432.128883 121.453735 
L 432.908181 120.894405 
L 434.524249 120.894405 
L 434.594177 120.335075 
L 436.289989 120.335075 
L 436.442744 119.775746 
L 438.011025 116.979097 
L 438.15966 116.979097 
L 438.314731 116.419767 
L 438.383789 116.979097 
L 438.717753 116.419767 
L 439.028025 115.860437 
L 439.399094 115.860437 
L 439.523705 115.301107 
L 439.992647 115.301107 
L 440.671855 115.860437 
L 440.706073 114.182448 
L 441.252709 114.182448 
L 441.422132 114.741778 
L 441.54519 114.182448 
L 442.461684 114.182448 
L 442.801045 114.741778 
L 444.439394 114.741778 
L 445.271027 114.182448 
L 446.950977 114.182448 
L 447.778213 113.623118 
L 447.88885 113.063788 
L 450.376739 113.063788 
L 450.610465 113.623118 
L 451.873462 113.623118 
L 452.795672 114.182448 
L 453.467698 114.182448 
L 453.801197 113.623118 
L 454.09728 112.504459 
L 454.273563 112.504459 
L 454.280443 113.063788 
L 456.2578 113.063788 
L 456.47002 112.504459 
L 461.465365 112.504459 
L 462.095221 111.945129 
L 462.337957 111.945129 
L 462.432708 110.826469 
L 462.741424 110.826469 
L 462.871072 111.385799 
L 463.072046 110.826469 
L 464.200462 110.826469 
L 464.703451 110.267139 
L 465.052847 109.14848 
L 468.112898 109.14848 
L 468.651495 109.70781 
L 468.807328 109.14848 
L 468.964969 109.70781 
L 469.142181 109.14848 
L 469.981453 109.14848 
L 470.368399 109.70781 
L 470.564754 109.14848 
L 471.106179 110.267139 
L 471.317196 109.14848 
L 472.627416 109.14848 
L 472.642916 108.58915 
L 474.71933 108.58915 
L 475.728906 108.02982 
L 476.031878 108.58915 
L 476.252519 108.02982 
L 476.395312 108.58915 
L 476.594781 108.58915 
L 476.731237 108.02982 
L 477.212208 109.14848 
L 477.529762 108.58915 
L 477.956673 109.14848 
L 478.272888 109.14848 
L 478.416499 108.58915 
L 479.288312 108.58915 
L 480.324173 109.14848 
L 480.48009 108.58915 
L 481.510827 108.58915 
L 481.845477 109.14848 
L 487.091578 108.58915 
L 487.484387 109.14848 
L 487.823868 108.58915 
L 488.128067 109.14848 
L 488.162102 108.58915 
L 488.426935 108.02982 
L 488.58031 108.02982 
L 488.720607 107.470491 
L 491.1597 107.470491 
L 491.211674 106.911161 
L 491.514856 106.911161 
L 492.324395 107.470491 
L 492.350148 106.911161 
L 492.661179 107.470491 
L 492.736776 106.351831 
L 492.936972 106.351831 
L 493.343124 105.792501 
L 494.023758 105.792501 
L 494.437045 106.351831 
L 494.901729 105.233171 
L 494.920788 104.673842 
L 495.240709 104.114512 
L 495.372196 104.114512 
L 495.704201 104.673842 
L 496.171042 104.673842 
L 496.268089 104.114512 
L 497.331018 104.114512 
L 497.477449 104.673842 
L 497.656715 103.555182 
L 497.804469 103.555182 
L 498.084893 104.114512 
L 498.339927 103.555182 
L 498.908658 103.555182 
L 499.159131 101.877193 
L 500.945499 101.877193 
L 501.159066 101.317863 
L 501.289838 101.317863 
L 501.505022 101.877193 
L 501.560519 101.317863 
L 502.130521 101.317863 
L 502.245165 100.758533 
L 502.556542 100.199203 
L 502.645478 99.080544 
L 503.131291 99.080544 
L 503.313822 97.402555 
L 503.693888 97.402555 
L 503.91617 97.961884 
L 504.036257 97.402555 
L 504.197909 97.402555 
L 504.210255 95.724565 
L 505.074807 95.724565 
L 505.224674 95.165235 
L 505.597371 95.165235 
L 505.983575 95.724565 
L 506.023298 94.605906 
L 506.365249 94.605906 
L 506.428282 94.046576 
L 506.666544 93.487246 
L 507.29596 93.487246 
L 507.388471 92.368587 
L 507.658583 92.368587 
L 507.816943 91.809257 
L 507.968899 91.809257 
L 508.513828 91.249927 
L 508.727097 91.809257 
L 508.854103 97.961884 
L 508.991847 98.521214 
L 509.085136 96.283895 
L 509.757107 96.283895 
L 510.033301 96.843225 
L 510.234538 95.724565 
L 511.228344 95.724565 
L 511.428652 96.283895 
L 511.585486 95.724565 
L 512.64397 95.724565 
L 512.774301 95.165235 
L 513.256872 96.283895 
L 513.649276 95.724565 
L 513.87414 95.724565 
L 513.960506 95.165235 
L 514.15903 96.283895 
L 514.352008 95.165235 
L 515.152713 95.165235 
L 515.27682 95.724565 
L 515.562039 95.724565 
L 515.606906 95.165235 
L 515.929854 94.605906 
L 515.942459 95.165235 
L 516.202656 94.605906 
L 516.5498 94.605906 
L 516.862396 94.046576 
L 518.484549 94.046576 
L 518.606181 93.487246 
L 518.927878 94.046576 
L 518.938619 93.487246 
L 519.40055 92.927916 
L 519.684379 92.927916 
L 520.010998 92.368587 
L 520.174081 91.809257 
L 520.298767 91.809257 
L 520.691124 92.927916 
L 520.768631 91.809257 
L 521.032468 92.368587 
L 521.254539 91.809257 
L 522.245633 91.809257 
L 522.356678 91.249927 
L 522.495077 91.809257 
L 522.974681 91.249927 
L 523.206342 91.809257 
L 523.441121 91.249927 
L 523.582181 91.809257 
L 523.910699 90.690597 
L 524.13768 91.249927 
L 524.914039 91.249927 
L 525.222905 90.690597 
L 525.673896 90.690597 
L 526.032715 91.809257 
L 526.128352 91.249927 
L 526.511742 91.249927 
L 526.60904 90.131267 
L 527.09258 91.249927 
L 527.261443 90.690597 
L 527.651042 91.249927 
L 527.935431 91.249927 
L 528.081128 90.690597 
L 528.429379 90.690597 
L 528.885447 90.131267 
L 528.944531 91.249927 
L 529.108278 90.131267 
L 529.258399 90.690597 
L 529.348503 90.131267 
L 529.70595 90.690597 
L 530.134836 90.131267 
L 530.350873 90.131267 
L 530.64743 90.690597 
L 531.068962 90.690597 
L 531.501161 89.571938 
L 531.727554 90.131267 
L 532.185346 90.131267 
L 532.399426 90.690597 
L 532.430942 91.249927 
L 532.697634 90.131267 
L 532.839068 90.690597 
L 533.005428 90.131267 
L 533.252624 90.690597 
L 533.532406 90.690597 
L 533.71214 91.249927 
L 534.053004 91.249927 
L 534.407885 90.131267 
L 534.64869 90.690597 
L 534.941941 89.571938 
L 535.094661 89.571938 
L 535.19052 90.131267 
L 535.488769 90.131267 
L 535.513802 89.571938 
L 536.502508 89.571938 
L 536.664483 89.012608 
L 536.803219 89.012608 
L 537.017088 88.453278 
L 537.201554 89.012608 
L 537.342237 88.453278 
L 537.551975 88.453278 
L 537.670043 87.893948 
L 537.822433 88.453278 
L 537.87153 87.893948 
L 538.04023 86.775289 
L 538.246337 87.334619 
L 538.311201 87.893948 
L 538.528565 87.334619 
L 538.706199 87.893948 
L 538.920302 87.334619 
L 539.271163 87.334619 
L 539.368858 86.775289 
L 539.611244 87.334619 
L 540.247813 85.656629 
L 540.419051 85.656629 
L 540.596172 86.775289 
L 540.679908 86.215959 
L 540.930326 86.215959 
L 541.04426 86.775289 
L 541.249024 86.775289 
L 541.435448 86.215959 
L 541.675113 86.215959 
L 542.077484 84.53797 
L 542.291555 85.097299 
L 545.105562 85.097299 
L 545.236513 84.53797 
L 545.402575 84.53797 
L 545.53612 85.097299 
L 545.686015 84.53797 
L 546.471597 84.53797 
L 546.583266 83.41931 
L 547.15925 84.53797 
L 547.784097 84.53797 
L 548.460755 83.41931 
L 549.656955 83.97864 
L 549.960736 83.41931 
L 550.295403 83.97864 
L 550.53442 82.85998 
L 550.630284 83.97864 
L 550.945363 82.85998 
L 551.288653 83.97864 
L 551.402293 82.85998 
L 551.62243 82.85998 
L 551.743442 83.41931 
L 551.962785 82.85998 
L 552.094419 82.85998 
L 552.217032 83.41931 
L 552.366009 81.741321 
L 552.756717 82.85998 
L 553.122149 82.85998 
L 553.34544 82.300651 
L 553.766842 82.300651 
L 554.109544 82.85998 
L 554.309891 82.85998 
L 554.461347 81.741321 
L 554.65027 82.85998 
L 554.755746 82.300651 
L 555.010427 81.741321 
L 555.166586 81.741321 
L 555.439606 82.85998 
L 555.700678 81.181991 
L 556.028818 81.181991 
L 556.053724 80.063331 
L 556.07664 80.622661 
L 556.248256 81.181991 
L 556.428658 80.063331 
L 556.503905 81.181991 
L 556.775849 81.181991 
L 556.812902 80.622661 
L 557.11929 80.063331 
L 557.30266 80.063331 
L 557.388608 81.181991 
L 557.799781 80.063331 
L 557.866369 81.181991 
L 558.090323 80.063331 
L 558.262602 81.741321 
L 558.786311 80.622661 
L 559.180836 82.300651 
L 559.211343 81.741321 
L 559.46124 82.300651 
L 559.619227 82.300651 
L 559.783239 81.181991 
L 559.979106 82.300651 
L 560.355672 81.181991 
L 560.49854 82.300651 
L 560.653229 81.741321 
L 560.968455 81.741321 
L 561.176628 82.300651 
L 561.575125 82.300651 
L 561.587288 81.741321 
L 562.214475 82.85998 
L 562.547104 81.181991 
L 562.723641 81.181991 
L 562.929394 81.741321 
L 562.987553 80.622661 
L 563.27964 81.741321 
L 563.459494 80.622661 
L 563.640806 81.741321 
L 563.715735 81.181991 
L 563.715735 81.181991 
" clip-path="url(#pc873d065dd)" style="fill: none; stroke-dasharray: 6,1.5; stroke-dashoffset: 0; stroke: #008000; stroke-width: 1.5"/>
   </g>
   <g id="line2d_20">
    <path d="M 38.539265 361.96554 
L 39.942361 363.0842 
L 41.34093 363.0842 
L 42.693737 362.52487 
L 44.652877 362.52487 
L 48.744563 361.96554 
L 48.860089 362.52487 
L 52.403319 362.52487 
L 52.737247 363.643529 
L 53.476036 363.643529 
L 53.783222 360.287551 
L 54.192611 363.643529 
L 56.186214 363.643529 
L 56.551789 360.287551 
L 59.301274 360.287551 
L 60.7506 360.846881 
L 60.947972 361.40621 
L 62.049698 361.40621 
L 62.35893 359.728221 
L 65.738982 359.728221 
L 66.139891 360.287551 
L 76.445104 360.287551 
L 76.769697 359.728221 
L 82.978771 359.728221 
L 83.288094 361.96554 
L 134.775323 361.96554 
L 135.122494 363.0842 
L 135.542259 366.440178 
L 135.842112 366.440178 
L 136.181041 366.999508 
L 138.216484 366.999508 
L 141.023433 368.677497 
L 141.310042 368.677497 
L 141.790611 369.236827 
L 155.978865 369.236827 
L 156.741281 370.355487 
L 188.931867 370.355487 
L 189.293966 370.914817 
L 189.669889 370.355487 
L 191.85856 370.355487 
L 192.180321 370.914817 
L 198.034982 370.914817 
L 199.320355 372.033476 
L 199.534725 370.914817 
L 199.947364 370.914817 
L 200.287488 372.033476 
L 208.211306 372.033476 
L 208.580444 371.474146 
L 208.795349 372.033476 
L 227.441909 372.033476 
L 227.767582 373.152136 
L 269.296535 373.152136 
L 269.690818 373.711465 
L 364.92775 373.711465 
L 365.30861 373.152136 
L 376.635714 373.152136 
L 377.079619 373.711465 
L 377.19826 374.830125 
L 407.038526 374.830125 
L 407.246702 374.270795 
L 410.171218 374.270795 
L 410.334575 374.830125 
L 528.284442 374.830125 
L 528.311529 374.270795 
L 537.342237 374.270795 
L 537.670043 374.830125 
L 563.715735 374.830125 
L 563.715735 374.830125 
" clip-path="url(#pc873d065dd)" style="fill: none; stroke-dasharray: 9,3; stroke-dashoffset: 0; stroke: #ffa500; stroke-width: 1.5"/>
   </g>
   <g id="line2d_21">
    <path d="M 38.539265 323.371785 
L 48.744563 323.371785 
L 48.860089 323.931115 
L 52.403319 323.931115 
L 52.737247 324.490445 
L 53.476036 324.490445 
L 53.783222 325.609104 
L 54.192611 324.490445 
L 56.186214 324.490445 
L 56.798922 326.168434 
L 58.240848 326.168434 
L 58.565707 326.727764 
L 58.762137 326.168434 
L 58.926448 326.727764 
L 74.049635 326.727764 
L 74.371566 327.846424 
L 74.498251 326.727764 
L 75.062691 327.846424 
L 93.129545 327.846424 
L 93.89517 328.405753 
L 94.068609 327.846424 
L 95.296694 327.846424 
L 95.630185 328.405753 
L 95.998123 327.846424 
L 96.873543 327.846424 
L 97.357084 328.405753 
L 97.716049 327.846424 
L 125.547084 327.846424 
L 125.847195 328.405753 
L 126.230682 328.405753 
L 126.570738 327.846424 
L 126.920603 327.846424 
L 127.161678 328.405753 
L 127.422956 327.846424 
L 127.857161 328.405753 
L 135.122494 328.405753 
L 135.542259 327.846424 
L 135.842112 327.846424 
L 136.181041 328.965083 
L 137.833118 328.965083 
L 138.216484 331.761732 
L 141.023433 329.524413 
L 141.310042 330.083743 
L 143.316949 330.083743 
L 143.708483 332.880392 
L 144.053747 333.439721 
L 159.607286 333.439721 
L 160.151018 332.880392 
L 160.581294 333.439721 
L 161.540998 332.880392 
L 163.878393 332.880392 
L 165.261195 333.439721 
L 171.03442 333.439721 
L 171.470948 333.999051 
L 207.930639 333.999051 
L 208.211306 334.558381 
L 208.580444 333.999051 
L 215.075329 333.999051 
L 215.487472 341.270338 
L 216.446787 341.270338 
L 216.838209 345.744976 
L 217.183303 347.422966 
L 238.083084 347.422966 
L 240.751224 347.982296 
L 272.040272 347.982296 
L 272.385103 350.219615 
L 279.573529 350.219615 
L 279.899103 346.863636 
L 296.516396 346.863636 
L 296.706605 347.422966 
L 327.650063 347.422966 
L 327.878895 347.982296 
L 328.241694 347.422966 
L 336.601233 347.422966 
L 336.756241 347.982296 
L 337.072511 347.422966 
L 339.192215 347.422966 
L 339.486277 347.982296 
L 339.59741 347.422966 
L 342.742342 347.422966 
L 342.961954 347.982296 
L 352.806674 347.982296 
L 352.999188 347.422966 
L 365.30861 347.422966 
L 365.591621 346.863636 
L 365.733496 347.422966 
L 365.908035 346.863636 
L 366.018719 347.422966 
L 366.240783 347.422966 
L 366.33385 346.863636 
L 366.582877 347.422966 
L 368.065825 347.422966 
L 368.345241 346.863636 
L 368.470412 347.422966 
L 377.079619 347.422966 
L 377.19826 346.863636 
L 407.038526 346.863636 
L 407.246702 347.422966 
L 411.922384 347.422966 
L 412.02417 350.219615 
L 412.322542 347.422966 
L 415.026881 347.422966 
L 415.041686 350.219615 
L 415.379546 347.422966 
L 415.407575 350.219615 
L 442.461684 350.219615 
L 442.801045 349.660285 
L 443.092581 350.219615 
L 476.031878 350.219615 
L 476.252519 350.778944 
L 476.395312 350.219615 
L 476.731237 350.219615 
L 477.212208 350.778944 
L 498.908658 350.778944 
L 499.159131 351.338274 
L 502.245165 351.338274 
L 502.556542 351.897604 
L 508.727097 351.897604 
L 508.854103 351.338274 
L 515.942459 351.338274 
L 516.202656 351.897604 
L 528.284442 351.897604 
L 528.311529 355.812913 
L 537.342237 355.812913 
L 537.670043 355.253583 
L 545.804059 355.253583 
L 546.583266 357.490902 
L 554.461347 357.490902 
L 554.755746 356.931572 
L 563.715735 356.931572 
L 563.715735 356.931572 
" clip-path="url(#pc873d065dd)" style="fill: none; stroke-dasharray: 12,4.5; stroke-dashoffset: 0; stroke: #ee82ee; stroke-width: 1.5"/>
   </g>
   <g id="patch_3">
    <path d="M 33.2875 374.830125 
L 33.2875 22.318125 
" style="fill: none; stroke: #000000; stroke-width: 0.8; stroke-linejoin: miter; stroke-linecap: square"/>
   </g>
   <g id="patch_4">
    <path d="M 568.9675 374.830125 
L 568.9675 22.318125 
" style="fill: none; stroke: #000000; stroke-width: 0.8; stroke-linejoin: miter; stroke-linecap: square"/>
   </g>
   <g id="patch_5">
    <path d="M 33.2875 374.830125 
L 568.9675 374.830125 
" style="fill: none; stroke: #000000; stroke-width: 0.8; stroke-linejoin: miter; stroke-linecap: square"/>
   </g>
   <g id="patch_6">
    <path d="M 33.2875 22.318125 
L 568.9675 22.318125 
" style="fill: none; stroke: #000000; stroke-width: 0.8; stroke-linejoin: miter; stroke-linecap: square"/>
   </g>
   <g id="text_17">
    <!-- Rust/Coreutils running GNU's testsuite -->
    <g transform="translate(186.090625 16.318125) scale(0.12 -0.12)">
     <defs>
      <path id="DejaVuSans-52" d="M 2841 2188 
Q 3044 2119 3236 1894 
Q 3428 1669 3622 1275 
L 4263 0 
L 3584 0 
L 2988 1197 
Q 2756 1666 2539 1819 
Q 2322 1972 1947 1972 
L 1259 1972 
L 1259 0 
L 628 0 
L 628 4666 
L 2053 4666 
Q 2853 4666 3247 4331 
Q 3641 3997 3641 3322 
Q 3641 2881 3436 2590 
Q 3231 2300 2841 2188 
z
M 1259 4147 
L 1259 2491 
L 2053 2491 
Q 2509 2491 2742 2702 
Q 2975 2913 2975 3322 
Q 2975 3731 2742 3939 
Q 2509 4147 2053 4147 
L 1259 4147 
z
" transform="scale(0.015625)"/>
      <path id="DejaVuSans-75" d="M 544 1381 
L 544 3500 
L 1119 3500 
L 1119 1403 
Q 1119 906 1312 657 
Q 1506 409 1894 409 
Q 2359 409 2629 706 
Q 2900 1003 2900 1516 
L 2900 3500 
L 3475 3500 
L 3475 0 
L 2900 0 
L 2900 538 
Q 2691 219 2414 64 
Q 2138 -91 1772 -91 
Q 1169 -91 856 284 
Q 544 659 544 1381 
z
M 1991 3584 
L 1991 3584 
z
" transform="scale(0.015625)"/>
      <path id="DejaVuSans-73" d="M 2834 3397 
L 2834 2853 
Q 2591 2978 2328 3040 
Q 2066 3103 1784 3103 
Q 1356 3103 1142 2972 
Q 928 2841 928 2578 
Q 928 2378 1081 2264 
Q 1234 2150 1697 2047 
L 1894 2003 
Q 2506 1872 2764 1633 
Q 3022 1394 3022 966 
Q 3022 478 2636 193 
Q 2250 -91 1575 -91 
Q 1294 -91 989 -36 
Q 684 19 347 128 
L 347 722 
Q 666 556 975 473 
Q 1284 391 1588 391 
Q 1994 391 2212 530 
Q 2431 669 2431 922 
Q 2431 1156 2273 1281 
Q 2116 1406 1581 1522 
L 1381 1569 
Q 847 1681 609 1914 
Q 372 2147 372 2553 
Q 372 3047 722 3315 
Q 1072 3584 1716 3584 
Q 2034 3584 2315 3537 
Q 2597 3491 2834 3397 
z
" transform="scale(0.015625)"/>
      <path id="DejaVuSans-74" d="M 1172 4494 
L 1172 3500 
L 2356 3500 
L 2356 3053 
L 1172 3053 
L 1172 1153 
Q 1172 725 1289 603 
Q 1406 481 1766 481 
L 2356 481 
L 2356 0 
L 1766 0 
Q 1100 0 847 248 
Q 594 497 594 1153 
L 594 3053 
L 172 3053 
L 172 3500 
L 594 3500 
L 594 4494 
L 1172 4494 
z
" transform="scale(0.015625)"/>
      <path id="DejaVuSans-2f" d="M 1625 4666 
L 2156 4666 
L 531 -594 
L 0 -594 
L 1625 4666 
z
" transform="scale(0.015625)"/>
      <path id="DejaVuSans-43" d="M 4122 4306 
L 4122 3641 
Q 3803 3938 3442 4084 
Q 3081 4231 2675 4231 
Q 1875 4231 1450 3742 
Q 1025 3253 1025 2328 
Q 1025 1406 1450 917 
Q 1875 428 2675 428 
Q 3081 428 3442 575 
Q 3803 722 4122 1019 
L 4122 359 
Q 3791 134 3420 21 
Q 3050 -91 2638 -91 
Q 1578 -91 968 557 
Q 359 1206 359 2328 
Q 359 3453 968 4101 
Q 1578 4750 2638 4750 
Q 3056 4750 3426 4639 
Q 3797 4528 4122 4306 
z
" transform="scale(0.015625)"/>
      <path id="DejaVuSans-6f" d="M 1959 3097 
Q 1497 3097 1228 2736 
Q 959 2375 959 1747 
Q 959 1119 1226 758 
Q 1494 397 1959 397 
Q 2419 397 2687 759 
Q 2956 1122 2956 1747 
Q 2956 2369 2687 2733 
Q 2419 3097 1959 3097 
z
M 1959 3584 
Q 2709 3584 3137 3096 
Q 3566 2609 3566 1747 
Q 3566 888 3137 398 
Q 2709 -91 1959 -91 
Q 1206 -91 779 398 
Q 353 888 353 1747 
Q 353 2609 779 3096 
Q 1206 3584 1959 3584 
z
" transform="scale(0.015625)"/>
      <path id="DejaVuSans-72" d="M 2631 2963 
Q 2534 3019 2420 3045 
Q 2306 3072 2169 3072 
Q 1681 3072 1420 2755 
Q 1159 2438 1159 1844 
L 1159 0 
L 581 0 
L 581 3500 
L 1159 3500 
L 1159 2956 
Q 1341 3275 1631 3429 
Q 1922 3584 2338 3584 
Q 2397 3584 2469 3576 
Q 2541 3569 2628 3553 
L 2631 2963 
z
" transform="scale(0.015625)"/>
      <path id="DejaVuSans-65" d="M 3597 1894 
L 3597 1613 
L 953 1613 
Q 991 1019 1311 708 
Q 1631 397 2203 397 
Q 2534 397 2845 478 
Q 3156 559 3463 722 
L 3463 178 
Q 3153 47 2828 -22 
Q 2503 -91 2169 -91 
Q 1331 -91 842 396 
Q 353 884 353 1716 
Q 353 2575 817 3079 
Q 1281 3584 2069 3584 
Q 2775 3584 3186 3129 
Q 3597 2675 3597 1894 
z
M 3022 2063 
Q 3016 2534 2758 2815 
Q 2500 3097 2075 3097 
Q 1594 3097 1305 2825 
Q 1016 2553 972 2059 
L 3022 2063 
z
" transform="scale(0.015625)"/>
      <path id="DejaVuSans-69" d="M 603 3500 
L 1178 3500 
L 1178 0 
L 603 0 
L 603 3500 
z
M 603 4863 
L 1178 4863 
L 1178 4134 
L 603 4134 
L 603 4863 
z
" transform="scale(0.015625)"/>
      <path id="DejaVuSans-6c" d="M 603 4863 
L 1178 4863 
L 1178 0 
L 603 0 
L 603 4863 
z
" transform="scale(0.015625)"/>
      <path id="DejaVuSans-20" transform="scale(0.015625)"/>
      <path id="DejaVuSans-6e" d="M 3513 2113 
L 3513 0 
L 2938 0 
L 2938 2094 
Q 2938 2591 2744 2837 
Q 2550 3084 2163 3084 
Q 1697 3084 1428 2787 
Q 1159 2491 1159 1978 
L 1159 0 
L 581 0 
L 581 3500 
L 1159 3500 
L 1159 2956 
Q 1366 3272 1645 3428 
Q 1925 3584 2291 3584 
Q 2894 3584 3203 3211 
Q 3513 2838 3513 2113 
z
" transform="scale(0.015625)"/>
      <path id="DejaVuSans-67" d="M 2906 1791 
Q 2906 2416 2648 2759 
Q 2391 3103 1925 3103 
Q 1463 3103 1205 2759 
Q 947 2416 947 1791 
Q 947 1169 1205 825 
Q 1463 481 1925 481 
Q 2391 481 2648 825 
Q 2906 1169 2906 1791 
z
M 3481 434 
Q 3481 -459 3084 -895 
Q 2688 -1331 1869 -1331 
Q 1566 -1331 1297 -1286 
Q 1028 -1241 775 -1147 
L 775 -588 
Q 1028 -725 1275 -790 
Q 1522 -856 1778 -856 
Q 2344 -856 2625 -561 
Q 2906 -266 2906 331 
L 2906 616 
Q 2728 306 2450 153 
Q 2172 0 1784 0 
Q 1141 0 747 490 
Q 353 981 353 1791 
Q 353 2603 747 3093 
Q 1141 3584 1784 3584 
Q 2172 3584 2450 3431 
Q 2728 3278 2906 2969 
L 2906 3500 
L 3481 3500 
L 3481 434 
z
" transform="scale(0.015625)"/>
      <path id="DejaVuSans-47" d="M 3809 666 
L 3809 1919 
L 2778 1919 
L 2778 2438 
L 4434 2438 
L 4434 434 
Q 4069 175 3628 42 
Q 3188 -91 2688 -91 
Q 1594 -91 976 548 
Q 359 1188 359 2328 
Q 359 3472 976 4111 
Q 1594 4750 2688 4750 
Q 3144 4750 3555 4637 
Q 3966 4525 4313 4306 
L 4313 3634 
Q 3963 3931 3569 4081 
Q 3175 4231 2741 4231 
Q 1884 4231 1454 3753 
Q 1025 3275 1025 2328 
Q 1025 1384 1454 906 
Q 1884 428 2741 428 
Q 3075 428 3337 486 
Q 3600 544 3809 666 
z
" transform="scale(0.015625)"/>
      <path id="DejaVuSans-4e" d="M 628 4666 
L 1478 4666 
L 3547 763 
L 3547 4666 
L 4159 4666 
L 4159 0 
L 3309 0 
L 1241 3903 
L 1241 0 
L 628 0 
L 628 4666 
z
" transform="scale(0.015625)"/>
      <path id="DejaVuSans-55" d="M 556 4666 
L 1191 4666 
L 1191 1831 
Q 1191 1081 1462 751 
Q 1734 422 2344 422 
Q 2950 422 3222 751 
Q 3494 1081 3494 1831 
L 3494 4666 
L 4128 4666 
L 4128 1753 
Q 4128 841 3676 375 
Q 3225 -91 2344 -91 
Q 1459 -91 1007 375 
Q 556 841 556 1753 
L 556 4666 
z
" transform="scale(0.015625)"/>
      <path id="DejaVuSans-27" d="M 1147 4666 
L 1147 2931 
L 616 2931 
L 616 4666 
L 1147 4666 
z
" transform="scale(0.015625)"/>
     </defs>
     <use xlink:href="#DejaVuSans-52"/>
     <use xlink:href="#DejaVuSans-75" x="64.982422"/>
     <use xlink:href="#DejaVuSans-73" x="128.361328"/>
     <use xlink:href="#DejaVuSans-74" x="180.460938"/>
     <use xlink:href="#DejaVuSans-2f" x="219.669922"/>
     <use xlink:href="#DejaVuSans-43" x="253.361328"/>
     <use xlink:href="#DejaVuSans-6f" x="323.185547"/>
     <use xlink:href="#DejaVuSans-72" x="384.367188"/>
     <use xlink:href="#DejaVuSans-65" x="423.230469"/>
     <use xlink:href="#DejaVuSans-75" x="484.753906"/>
     <use xlink:href="#DejaVuSans-74" x="548.132812"/>
     <use xlink:href="#DejaVuSans-69" x="587.341797"/>
     <use xlink:href="#DejaVuSans-6c" x="615.125"/>
     <use xlink:href="#DejaVuSans-73" x="642.908203"/>
     <use xlink:href="#DejaVuSans-20" x="695.007812"/>
     <use xlink:href="#DejaVuSans-72" x="726.794922"/>
     <use xlink:href="#DejaVuSans-75" x="767.908203"/>
     <use xlink:href="#DejaVuSans-6e" x="831.287109"/>
     <use xlink:href="#DejaVuSans-6e" x="894.666016"/>
     <use xlink:href="#DejaVuSans-69" x="958.044922"/>
     <use xlink:href="#DejaVuSans-6e" x="985.828125"/>
     <use xlink:href="#DejaVuSans-67" x="1049.207031"/>
     <use xlink:href="#DejaVuSans-20" x="1112.683594"/>
     <use xlink:href="#DejaVuSans-47" x="1144.470703"/>
     <use xlink:href="#DejaVuSans-4e" x="1221.960938"/>
     <use xlink:href="#DejaVuSans-55" x="1296.765625"/>
     <use xlink:href="#DejaVuSans-27" x="1369.958984"/>
     <use xlink:href="#DejaVuSans-73" x="1397.449219"/>
     <use xlink:href="#DejaVuSans-20" x="1449.548828"/>
     <use xlink:href="#DejaVuSans-74" x="1481.335938"/>
     <use xlink:href="#DejaVuSans-65" x="1520.544922"/>
     <use xlink:href="#DejaVuSans-73" x="1582.068359"/>
     <use xlink:href="#DejaVuSans-74" x="1634.167969"/>
     <use xlink:href="#DejaVuSans-73" x="1673.376953"/>
     <use xlink:href="#DejaVuSans-75" x="1725.476562"/>
     <use xlink:href="#DejaVuSans-69" x="1788.855469"/>
     <use xlink:href="#DejaVuSans-74" x="1816.638672"/>
     <use xlink:href="#DejaVuSans-65" x="1855.847656"/>
    </g>
   </g>
   <g id="legend_1">
    <g id="patch_7">
     <path d="M 505.762812 236.769437 
L 561.9675 236.769437 
Q 563.9675 236.769437 563.9675 234.769437 
L 563.9675 162.378812 
Q 563.9675 160.378812 561.9675 160.378812 
L 505.762812 160.378812 
Q 503.762812 160.378812 503.762812 162.378812 
L 503.762812 234.769437 
Q 503.762812 236.769437 505.762812 236.769437 
z
" style="fill: #ffffff; opacity: 0.8; stroke: #cccccc; stroke-linejoin: miter"/>
    </g>
    <g id="line2d_22">
     <path d="M 507.762812 168.47725 
L 517.762812 168.47725 
L 527.762812 168.47725 
" style="fill: none; stroke: #0000ff; stroke-width: 1.5; stroke-linecap: square"/>
    </g>
    <g id="text_18">
     <!-- total -->
     <g transform="translate(535.762812 171.97725) scale(0.1 -0.1)">
      <defs>
       <path id="DejaVuSans-61" d="M 2194 1759 
Q 1497 1759 1228 1600 
Q 959 1441 959 1056 
Q 959 750 1161 570 
Q 1363 391 1709 391 
Q 2188 391 2477 730 
Q 2766 1069 2766 1631 
L 2766 1759 
L 2194 1759 
z
M 3341 1997 
L 3341 0 
L 2766 0 
L 2766 531 
Q 2569 213 2275 61 
Q 1981 -91 1556 -91 
Q 1019 -91 701 211 
Q 384 513 384 1019 
Q 384 1609 779 1909 
Q 1175 2209 1959 2209 
L 2766 2209 
L 2766 2266 
Q 2766 2663 2505 2880 
Q 2244 3097 1772 3097 
Q 1472 3097 1187 3025 
Q 903 2953 641 2809 
L 641 3341 
Q 956 3463 1253 3523 
Q 1550 3584 1831 3584 
Q 2591 3584 2966 3190 
Q 3341 2797 3341 1997 
z
" transform="scale(0.015625)"/>
      </defs>
      <use xlink:href="#DejaVuSans-74"/>
      <use xlink:href="#DejaVuSans-6f" x="39.208984"/>
      <use xlink:href="#DejaVuSans-74" x="100.390625"/>
      <use xlink:href="#DejaVuSans-61" x="139.599609"/>
      <use xlink:href="#DejaVuSans-6c" x="200.878906"/>
     </g>
    </g>
    <g id="line2d_23">
     <path d="M 507.762812 183.155375 
L 517.762812 183.155375 
L 527.762812 183.155375 
" style="fill: none; stroke-dasharray: 3,1.5; stroke-dashoffset: 0; stroke: #808080; stroke-width: 1.5"/>
    </g>
    <g id="text_19">
     <!-- fail -->
     <g transform="translate(535.762812 186.655375) scale(0.1 -0.1)">
      <defs>
       <path id="DejaVuSans-66" d="M 2375 4863 
L 2375 4384 
L 1825 4384 
Q 1516 4384 1395 4259 
Q 1275 4134 1275 3809 
L 1275 3500 
L 2222 3500 
L 2222 3053 
L 1275 3053 
L 1275 0 
L 697 0 
L 697 3053 
L 147 3053 
L 147 3500 
L 697 3500 
L 697 3744 
Q 697 4328 969 4595 
Q 1241 4863 1831 4863 
L 2375 4863 
z
" transform="scale(0.015625)"/>
      </defs>
      <use xlink:href="#DejaVuSans-66"/>
      <use xlink:href="#DejaVuSans-61" x="35.205078"/>
      <use xlink:href="#DejaVuSans-69" x="96.484375"/>
      <use xlink:href="#DejaVuSans-6c" x="124.267578"/>
     </g>
    </g>
    <g id="line2d_24">
     <path d="M 507.762812 197.8335 
L 517.762812 197.8335 
L 527.762812 197.8335 
" style="fill: none; stroke-dasharray: 6,1.5; stroke-dashoffset: 0; stroke: #008000; stroke-width: 1.5"/>
    </g>
    <g id="text_20">
     <!-- pass -->
     <g transform="translate(535.762812 201.3335) scale(0.1 -0.1)">
      <defs>
       <path id="DejaVuSans-70" d="M 1159 525 
L 1159 -1331 
L 581 -1331 
L 581 3500 
L 1159 3500 
L 1159 2969 
Q 1341 3281 1617 3432 
Q 1894 3584 2278 3584 
Q 2916 3584 3314 3078 
Q 3713 2572 3713 1747 
Q 3713 922 3314 415 
Q 2916 -91 2278 -91 
Q 1894 -91 1617 61 
Q 1341 213 1159 525 
z
M 3116 1747 
Q 3116 2381 2855 2742 
Q 2594 3103 2138 3103 
Q 1681 3103 1420 2742 
Q 1159 2381 1159 1747 
Q 1159 1113 1420 752 
Q 1681 391 2138 391 
Q 2594 391 2855 752 
Q 3116 1113 3116 1747 
z
" transform="scale(0.015625)"/>
      </defs>
      <use xlink:href="#DejaVuSans-70"/>
      <use xlink:href="#DejaVuSans-61" x="63.476562"/>
      <use xlink:href="#DejaVuSans-73" x="124.755859"/>
      <use xlink:href="#DejaVuSans-73" x="176.855469"/>
     </g>
    </g>
    <g id="line2d_25">
     <path d="M 507.762812 212.511625 
L 517.762812 212.511625 
L 527.762812 212.511625 
" style="fill: none; stroke-dasharray: 9,3; stroke-dashoffset: 0; stroke: #ffa500; stroke-width: 1.5"/>
    </g>
    <g id="text_21">
     <!-- error -->
     <g transform="translate(535.762812 216.011625) scale(0.1 -0.1)">
      <use xlink:href="#DejaVuSans-65"/>
      <use xlink:href="#DejaVuSans-72" x="61.523438"/>
      <use xlink:href="#DejaVuSans-72" x="100.886719"/>
      <use xlink:href="#DejaVuSans-6f" x="139.75"/>
      <use xlink:href="#DejaVuSans-72" x="200.931641"/>
     </g>
    </g>
    <g id="line2d_26">
     <path d="M 507.762812 227.18975 
L 517.762812 227.18975 
L 527.762812 227.18975 
" style="fill: none; stroke-dasharray: 12,4.5; stroke-dashoffset: 0; stroke: #ee82ee; stroke-width: 1.5"/>
    </g>
    <g id="text_22">
     <!-- skip -->
     <g transform="translate(535.762812 230.68975) scale(0.1 -0.1)">
      <defs>
       <path id="DejaVuSans-6b" d="M 581 4863 
L 1159 4863 
L 1159 1991 
L 2875 3500 
L 3609 3500 
L 1753 1863 
L 3688 0 
L 2938 0 
L 1159 1709 
L 1159 0 
L 581 0 
L 581 4863 
z
" transform="scale(0.015625)"/>
      </defs>
      <use xlink:href="#DejaVuSans-73"/>
      <use xlink:href="#DejaVuSans-6b" x="52.099609"/>
      <use xlink:href="#DejaVuSans-69" x="110.009766"/>
      <use xlink:href="#DejaVuSans-70" x="137.792969"/>
     </g>
    </g>
   </g>
  </g>
 </g>
 <defs>
  <clipPath id="pc873d065dd">
   <rect x="33.2875" y="22.318125" width="535.68" height="352.512"/>
  </clipPath>
 </defs>
</svg>
