<?xml version="1.0" encoding="utf-8" standalone="no"?>
<!DOCTYPE svg PUBLIC "-//W3C//DTD SVG 1.1//EN"
  "http://www.w3.org/Graphics/SVG/1.1/DTD/svg11.dtd">
<svg xmlns:xlink="http://www.w3.org/1999/xlink" width="576.1675pt" height="418.303033pt" viewBox="0 0 576.1675 418.303033" xmlns="http://www.w3.org/2000/svg" version="1.1">
 <metadata>
  <rdf:RDF xmlns:dc="http://purl.org/dc/elements/1.1/" xmlns:cc="http://creativecommons.org/ns#" xmlns:rdf="http://www.w3.org/1999/02/22-rdf-syntax-ns#">
   <cc:Work>
    <dc:type rdf:resource="http://purl.org/dc/dcmitype/StillImage"/>
    <dc:date>2025-07-27T02:46:28.233830</dc:date>
    <dc:format>image/svg+xml</dc:format>
    <dc:creator>
     <cc:Agent>
      <dc:title>Matplotlib v3.6.3, https://matplotlib.org/</dc:title>
     </cc:Agent>
    </dc:creator>
   </cc:Work>
  </rdf:RDF>
 </metadata>
 <defs>
  <style type="text/css">*{stroke-linejoin: round; stroke-linecap: butt}</style>
 </defs>
 <g id="figure_1">
  <g id="patch_1">
   <path d="M -0 418.303033 
L 576.1675 418.303033 
L 576.1675 0 
L -0 0 
z
" style="fill: #ffffff"/>
  </g>
  <g id="axes_1">
   <g id="patch_2">
    <path d="M 33.2875 374.830125 
L 568.9675 374.830125 
L 568.9675 22.318125 
L 33.2875 22.318125 
z
" style="fill: #ffffff"/>
   </g>
   <g id="matplotlib.axis_1">
    <g id="xtick_1">
     <g id="line2d_1">
      <defs>
       <path id="m741d5e80a0" d="M 0 0 
L 0 3.5 
" style="stroke: #000000; stroke-width: 0.8"/>
      </defs>
      <g>
       <use xlink:href="#m741d5e80a0" x="62.603993" y="374.830125" style="stroke: #000000; stroke-width: 0.8"/>
      </g>
     </g>
     <g id="text_1">
      <!-- 2021-07 -->
      <g transform="translate(25.379172 409.301971) rotate(-30) scale(0.1 -0.1)">
       <defs>
        <path id="DejaVuSans-32" d="M 1228 531 
L 3431 531 
L 3431 0 
L 469 0 
L 469 531 
Q 828 903 1448 1529 
Q 2069 2156 2228 2338 
Q 2531 2678 2651 2914 
Q 2772 3150 2772 3378 
Q 2772 3750 2511 3984 
Q 2250 4219 1831 4219 
Q 1534 4219 1204 4116 
Q 875 4013 500 3803 
L 500 4441 
Q 881 4594 1212 4672 
Q 1544 4750 1819 4750 
Q 2544 4750 2975 4387 
Q 3406 4025 3406 3419 
Q 3406 3131 3298 2873 
Q 3191 2616 2906 2266 
Q 2828 2175 2409 1742 
Q 1991 1309 1228 531 
z
" transform="scale(0.015625)"/>
        <path id="DejaVuSans-30" d="M 2034 4250 
Q 1547 4250 1301 3770 
Q 1056 3291 1056 2328 
Q 1056 1369 1301 889 
Q 1547 409 2034 409 
Q 2525 409 2770 889 
Q 3016 1369 3016 2328 
Q 3016 3291 2770 3770 
Q 2525 4250 2034 4250 
z
M 2034 4750 
Q 2819 4750 3233 4129 
Q 3647 3509 3647 2328 
Q 3647 1150 3233 529 
Q 2819 -91 2034 -91 
Q 1250 -91 836 529 
Q 422 1150 422 2328 
Q 422 3509 836 4129 
Q 1250 4750 2034 4750 
z
" transform="scale(0.015625)"/>
        <path id="DejaVuSans-31" d="M 794 531 
L 1825 531 
L 1825 4091 
L 703 3866 
L 703 4441 
L 1819 4666 
L 2450 4666 
L 2450 531 
L 3481 531 
L 3481 0 
L 794 0 
L 794 531 
z
" transform="scale(0.015625)"/>
        <path id="DejaVuSans-2d" d="M 313 2009 
L 1997 2009 
L 1997 1497 
L 313 1497 
L 313 2009 
z
" transform="scale(0.015625)"/>
        <path id="DejaVuSans-37" d="M 525 4666 
L 3525 4666 
L 3525 4397 
L 1831 0 
L 1172 0 
L 2766 4134 
L 525 4134 
L 525 4666 
z
" transform="scale(0.015625)"/>
       </defs>
       <use xlink:href="#DejaVuSans-32"/>
       <use xlink:href="#DejaVuSans-30" x="63.623047"/>
       <use xlink:href="#DejaVuSans-32" x="127.246094"/>
       <use xlink:href="#DejaVuSans-31" x="190.869141"/>
       <use xlink:href="#DejaVuSans-2d" x="254.492188"/>
       <use xlink:href="#DejaVuSans-30" x="290.576172"/>
       <use xlink:href="#DejaVuSans-37" x="354.199219"/>
      </g>
     </g>
    </g>
    <g id="xtick_2">
     <g id="line2d_2">
      <g>
       <use xlink:href="#m741d5e80a0" x="124.608815" y="374.830125" style="stroke: #000000; stroke-width: 0.8"/>
      </g>
     </g>
     <g id="text_2">
      <!-- 2022-01 -->
      <g transform="translate(87.383994 409.301971) rotate(-30) scale(0.1 -0.1)">
       <use xlink:href="#DejaVuSans-32"/>
       <use xlink:href="#DejaVuSans-30" x="63.623047"/>
       <use xlink:href="#DejaVuSans-32" x="127.246094"/>
       <use xlink:href="#DejaVuSans-32" x="190.869141"/>
       <use xlink:href="#DejaVuSans-2d" x="254.492188"/>
       <use xlink:href="#DejaVuSans-30" x="290.576172"/>
       <use xlink:href="#DejaVuSans-31" x="354.199219"/>
      </g>
     </g>
    </g>
    <g id="xtick_3">
     <g id="line2d_3">
      <g>
       <use xlink:href="#m741d5e80a0" x="185.602688" y="374.830125" style="stroke: #000000; stroke-width: 0.8"/>
      </g>
     </g>
     <g id="text_3">
      <!-- 2022-07 -->
      <g transform="translate(148.377867 409.301971) rotate(-30) scale(0.1 -0.1)">
       <use xlink:href="#DejaVuSans-32"/>
       <use xlink:href="#DejaVuSans-30" x="63.623047"/>
       <use xlink:href="#DejaVuSans-32" x="127.246094"/>
       <use xlink:href="#DejaVuSans-32" x="190.869141"/>
       <use xlink:href="#DejaVuSans-2d" x="254.492188"/>
       <use xlink:href="#DejaVuSans-30" x="290.576172"/>
       <use xlink:href="#DejaVuSans-37" x="354.199219"/>
      </g>
     </g>
    </g>
    <g id="xtick_4">
     <g id="line2d_4">
      <g>
       <use xlink:href="#m741d5e80a0" x="247.60751" y="374.830125" style="stroke: #000000; stroke-width: 0.8"/>
      </g>
     </g>
     <g id="text_4">
      <!-- 2023-01 -->
      <g transform="translate(210.382689 409.301971) rotate(-30) scale(0.1 -0.1)">
       <defs>
        <path id="DejaVuSans-33" d="M 2597 2516 
Q 3050 2419 3304 2112 
Q 3559 1806 3559 1356 
Q 3559 666 3084 287 
Q 2609 -91 1734 -91 
Q 1441 -91 1130 -33 
Q 819 25 488 141 
L 488 750 
Q 750 597 1062 519 
Q 1375 441 1716 441 
Q 2309 441 2620 675 
Q 2931 909 2931 1356 
Q 2931 1769 2642 2001 
Q 2353 2234 1838 2234 
L 1294 2234 
L 1294 2753 
L 1863 2753 
Q 2328 2753 2575 2939 
Q 2822 3125 2822 3475 
Q 2822 3834 2567 4026 
Q 2313 4219 1838 4219 
Q 1578 4219 1281 4162 
Q 984 4106 628 3988 
L 628 4550 
Q 988 4650 1302 4700 
Q 1616 4750 1894 4750 
Q 2613 4750 3031 4423 
Q 3450 4097 3450 3541 
Q 3450 3153 3228 2886 
Q 3006 2619 2597 2516 
z
" transform="scale(0.015625)"/>
       </defs>
       <use xlink:href="#DejaVuSans-32"/>
       <use xlink:href="#DejaVuSans-30" x="63.623047"/>
       <use xlink:href="#DejaVuSans-32" x="127.246094"/>
       <use xlink:href="#DejaVuSans-33" x="190.869141"/>
       <use xlink:href="#DejaVuSans-2d" x="254.492188"/>
       <use xlink:href="#DejaVuSans-30" x="290.576172"/>
       <use xlink:href="#DejaVuSans-31" x="354.199219"/>
      </g>
     </g>
    </g>
    <g id="xtick_5">
     <g id="line2d_5">
      <g>
       <use xlink:href="#m741d5e80a0" x="308.601383" y="374.830125" style="stroke: #000000; stroke-width: 0.8"/>
      </g>
     </g>
     <g id="text_5">
      <!-- 2023-07 -->
      <g transform="translate(271.376562 409.301971) rotate(-30) scale(0.1 -0.1)">
       <use xlink:href="#DejaVuSans-32"/>
       <use xlink:href="#DejaVuSans-30" x="63.623047"/>
       <use xlink:href="#DejaVuSans-32" x="127.246094"/>
       <use xlink:href="#DejaVuSans-33" x="190.869141"/>
       <use xlink:href="#DejaVuSans-2d" x="254.492188"/>
       <use xlink:href="#DejaVuSans-30" x="290.576172"/>
       <use xlink:href="#DejaVuSans-37" x="354.199219"/>
      </g>
     </g>
    </g>
    <g id="xtick_6">
     <g id="line2d_6">
      <g>
       <use xlink:href="#m741d5e80a0" x="370.606205" y="374.830125" style="stroke: #000000; stroke-width: 0.8"/>
      </g>
     </g>
     <g id="text_6">
      <!-- 2024-01 -->
      <g transform="translate(333.381384 409.301971) rotate(-30) scale(0.1 -0.1)">
       <defs>
        <path id="DejaVuSans-34" d="M 2419 4116 
L 825 1625 
L 2419 1625 
L 2419 4116 
z
M 2253 4666 
L 3047 4666 
L 3047 1625 
L 3713 1625 
L 3713 1100 
L 3047 1100 
L 3047 0 
L 2419 0 
L 2419 1100 
L 313 1100 
L 313 1709 
L 2253 4666 
z
" transform="scale(0.015625)"/>
       </defs>
       <use xlink:href="#DejaVuSans-32"/>
       <use xlink:href="#DejaVuSans-30" x="63.623047"/>
       <use xlink:href="#DejaVuSans-32" x="127.246094"/>
       <use xlink:href="#DejaVuSans-34" x="190.869141"/>
       <use xlink:href="#DejaVuSans-2d" x="254.492188"/>
       <use xlink:href="#DejaVuSans-30" x="290.576172"/>
       <use xlink:href="#DejaVuSans-31" x="354.199219"/>
      </g>
     </g>
    </g>
    <g id="xtick_7">
     <g id="line2d_7">
      <g>
       <use xlink:href="#m741d5e80a0" x="431.937061" y="374.830125" style="stroke: #000000; stroke-width: 0.8"/>
      </g>
     </g>
     <g id="text_7">
      <!-- 2024-07 -->
      <g transform="translate(394.71224 409.301971) rotate(-30) scale(0.1 -0.1)">
       <use xlink:href="#DejaVuSans-32"/>
       <use xlink:href="#DejaVuSans-30" x="63.623047"/>
       <use xlink:href="#DejaVuSans-32" x="127.246094"/>
       <use xlink:href="#DejaVuSans-34" x="190.869141"/>
       <use xlink:href="#DejaVuSans-2d" x="254.492188"/>
       <use xlink:href="#DejaVuSans-30" x="290.576172"/>
       <use xlink:href="#DejaVuSans-37" x="354.199219"/>
      </g>
     </g>
    </g>
    <g id="xtick_8">
     <g id="line2d_8">
      <g>
       <use xlink:href="#m741d5e80a0" x="493.941882" y="374.830125" style="stroke: #000000; stroke-width: 0.8"/>
      </g>
     </g>
     <g id="text_8">
      <!-- 2025-01 -->
      <g transform="translate(456.717061 409.301971) rotate(-30) scale(0.1 -0.1)">
       <defs>
        <path id="DejaVuSans-35" d="M 691 4666 
L 3169 4666 
L 3169 4134 
L 1269 4134 
L 1269 2991 
Q 1406 3038 1543 3061 
Q 1681 3084 1819 3084 
Q 2600 3084 3056 2656 
Q 3513 2228 3513 1497 
Q 3513 744 3044 326 
Q 2575 -91 1722 -91 
Q 1428 -91 1123 -41 
Q 819 9 494 109 
L 494 744 
Q 775 591 1075 516 
Q 1375 441 1709 441 
Q 2250 441 2565 725 
Q 2881 1009 2881 1497 
Q 2881 1984 2565 2268 
Q 2250 2553 1709 2553 
Q 1456 2553 1204 2497 
Q 953 2441 691 2322 
L 691 4666 
z
" transform="scale(0.015625)"/>
       </defs>
       <use xlink:href="#DejaVuSans-32"/>
       <use xlink:href="#DejaVuSans-30" x="63.623047"/>
       <use xlink:href="#DejaVuSans-32" x="127.246094"/>
       <use xlink:href="#DejaVuSans-35" x="190.869141"/>
       <use xlink:href="#DejaVuSans-2d" x="254.492188"/>
       <use xlink:href="#DejaVuSans-30" x="290.576172"/>
       <use xlink:href="#DejaVuSans-31" x="354.199219"/>
      </g>
     </g>
    </g>
    <g id="xtick_9">
     <g id="line2d_9">
      <g>
       <use xlink:href="#m741d5e80a0" x="554.935756" y="374.830125" style="stroke: #000000; stroke-width: 0.8"/>
      </g>
     </g>
     <g id="text_9">
      <!-- 2025-07 -->
      <g transform="translate(517.710935 409.301971) rotate(-30) scale(0.1 -0.1)">
       <use xlink:href="#DejaVuSans-32"/>
       <use xlink:href="#DejaVuSans-30" x="63.623047"/>
       <use xlink:href="#DejaVuSans-32" x="127.246094"/>
       <use xlink:href="#DejaVuSans-35" x="190.869141"/>
       <use xlink:href="#DejaVuSans-2d" x="254.492188"/>
       <use xlink:href="#DejaVuSans-30" x="290.576172"/>
       <use xlink:href="#DejaVuSans-37" x="354.199219"/>
      </g>
     </g>
    </g>
   </g>
   <g id="matplotlib.axis_2">
    <g id="ytick_1">
     <g id="line2d_10">
      <defs>
       <path id="mb7b4305c16" d="M 0 0 
L -3.5 0 
" style="stroke: #000000; stroke-width: 0.8"/>
      </defs>
      <g>
       <use xlink:href="#mb7b4305c16" x="33.2875" y="374.830125" style="stroke: #000000; stroke-width: 0.8"/>
      </g>
     </g>
     <g id="text_10">
      <!-- 0 -->
      <g transform="translate(19.925 378.629344) scale(0.1 -0.1)">
       <use xlink:href="#DejaVuSans-30"/>
      </g>
     </g>
    </g>
    <g id="ytick_2">
     <g id="line2d_11">
      <g>
       <use xlink:href="#mb7b4305c16" x="33.2875" y="318.897147" style="stroke: #000000; stroke-width: 0.8"/>
      </g>
     </g>
     <g id="text_11">
      <!-- 100 -->
      <g transform="translate(7.2 322.696366) scale(0.1 -0.1)">
       <use xlink:href="#DejaVuSans-31"/>
       <use xlink:href="#DejaVuSans-30" x="63.623047"/>
       <use xlink:href="#DejaVuSans-30" x="127.246094"/>
      </g>
     </g>
    </g>
    <g id="ytick_3">
     <g id="line2d_12">
      <g>
       <use xlink:href="#mb7b4305c16" x="33.2875" y="262.964169" style="stroke: #000000; stroke-width: 0.8"/>
      </g>
     </g>
     <g id="text_12">
      <!-- 200 -->
      <g transform="translate(7.2 266.763388) scale(0.1 -0.1)">
       <use xlink:href="#DejaVuSans-32"/>
       <use xlink:href="#DejaVuSans-30" x="63.623047"/>
       <use xlink:href="#DejaVuSans-30" x="127.246094"/>
      </g>
     </g>
    </g>
    <g id="ytick_4">
     <g id="line2d_13">
      <g>
       <use xlink:href="#mb7b4305c16" x="33.2875" y="207.031191" style="stroke: #000000; stroke-width: 0.8"/>
      </g>
     </g>
     <g id="text_13">
      <!-- 300 -->
      <g transform="translate(7.2 210.83041) scale(0.1 -0.1)">
       <use xlink:href="#DejaVuSans-33"/>
       <use xlink:href="#DejaVuSans-30" x="63.623047"/>
       <use xlink:href="#DejaVuSans-30" x="127.246094"/>
      </g>
     </g>
    </g>
    <g id="ytick_5">
     <g id="line2d_14">
      <g>
       <use xlink:href="#mb7b4305c16" x="33.2875" y="151.098213" style="stroke: #000000; stroke-width: 0.8"/>
      </g>
     </g>
     <g id="text_14">
      <!-- 400 -->
      <g transform="translate(7.2 154.897432) scale(0.1 -0.1)">
       <use xlink:href="#DejaVuSans-34"/>
       <use xlink:href="#DejaVuSans-30" x="63.623047"/>
       <use xlink:href="#DejaVuSans-30" x="127.246094"/>
      </g>
     </g>
    </g>
    <g id="ytick_6">
     <g id="line2d_15">
      <g>
       <use xlink:href="#mb7b4305c16" x="33.2875" y="95.165235" style="stroke: #000000; stroke-width: 0.8"/>
      </g>
     </g>
     <g id="text_15">
      <!-- 500 -->
      <g transform="translate(7.2 98.964454) scale(0.1 -0.1)">
       <use xlink:href="#DejaVuSans-35"/>
       <use xlink:href="#DejaVuSans-30" x="63.623047"/>
       <use xlink:href="#DejaVuSans-30" x="127.246094"/>
      </g>
     </g>
    </g>
    <g id="ytick_7">
     <g id="line2d_16">
      <g>
       <use xlink:href="#mb7b4305c16" x="33.2875" y="39.232258" style="stroke: #000000; stroke-width: 0.8"/>
      </g>
     </g>
     <g id="text_16">
      <!-- 600 -->
      <g transform="translate(7.2 43.031476) scale(0.1 -0.1)">
       <defs>
        <path id="DejaVuSans-36" d="M 2113 2584 
Q 1688 2584 1439 2293 
Q 1191 2003 1191 1497 
Q 1191 994 1439 701 
Q 1688 409 2113 409 
Q 2538 409 2786 701 
Q 3034 994 3034 1497 
Q 3034 2003 2786 2293 
Q 2538 2584 2113 2584 
z
M 3366 4563 
L 3366 3988 
Q 3128 4100 2886 4159 
Q 2644 4219 2406 4219 
Q 1781 4219 1451 3797 
Q 1122 3375 1075 2522 
Q 1259 2794 1537 2939 
Q 1816 3084 2150 3084 
Q 2853 3084 3261 2657 
Q 3669 2231 3669 1497 
Q 3669 778 3244 343 
Q 2819 -91 2113 -91 
Q 1303 -91 875 529 
Q 447 1150 447 2328 
Q 447 3434 972 4092 
Q 1497 4750 2381 4750 
Q 2619 4750 2861 4703 
Q 3103 4656 3366 4563 
z
" transform="scale(0.015625)"/>
       </defs>
       <use xlink:href="#DejaVuSans-36"/>
       <use xlink:href="#DejaVuSans-30" x="63.623047"/>
       <use xlink:href="#DejaVuSans-30" x="127.246094"/>
      </g>
     </g>
    </g>
   </g>
   <g id="line2d_17">
    <path d="M 38.539265 25.808343 
L 48.559485 25.808343 
L 48.672916 29.164321 
L 50.07581 29.164321 
L 50.58935 38.672928 
L 133.370915 38.672928 
L 133.783068 33.07963 
L 147.558426 33.07963 
L 148.36763 33.63896 
L 154.82792 33.63896 
L 155.053843 44.825555 
L 161.605313 44.825555 
L 162.963038 43.147566 
L 275.202268 43.147566 
L 275.521938 39.232258 
L 284.318751 39.232258 
L 284.632722 38.113598 
L 328.785868 38.113598 
L 329.005749 36.994938 
L 400.355632 36.994938 
L 400.560034 32.5203 
L 454.652185 32.5203 
L 454.745218 31.96097 
L 496.06203 31.96097 
L 496.441729 31.401641 
L 500.200038 31.401641 
L 500.324741 29.164321 
L 501.833004 29.164321 
L 502.224894 29.723651 
L 528.29623 29.723651 
L 528.618091 29.164321 
L 563.715735 29.164321 
L 563.715735 29.164321 
" clip-path="url(#pfb0c9f9790)" style="fill: none; stroke: #0000ff; stroke-width: 1.5; stroke-linecap: square"/>
   </g>
   <g id="line2d_18">
    <path d="M 38.539265 168.996766 
L 39.916916 167.878107 
L 41.29012 168.996766 
L 44.542004 168.996766 
L 48.127593 170.115426 
L 48.393591 169.556096 
L 48.559485 169.556096 
L 48.672916 172.912075 
L 48.934714 172.352745 
L 49.32192 172.912075 
L 50.07581 172.912075 
L 50.495689 185.21733 
L 50.58935 182.420681 
L 50.807289 185.77666 
L 50.876596 185.21733 
L 51.120815 185.21733 
L 51.511473 185.77666 
L 52.451694 185.77666 
L 52.47976 186.335989 
L 52.989419 186.335989 
L 53.205151 185.77666 
L 53.835878 189.691968 
L 53.908731 189.132638 
L 54.218439 189.691968 
L 54.817535 191.369957 
L 55.223888 190.251298 
L 55.866179 190.251298 
L 56.225124 191.369957 
L 56.467775 191.369957 
L 57.19881 191.929287 
L 57.526845 191.929287 
L 57.883551 193.047947 
L 58.202519 192.488617 
L 58.556717 193.607277 
L 58.924746 195.844596 
L 60.347788 196.963255 
L 60.952064 196.963255 
L 61.210909 197.522585 
L 61.623326 197.522585 
L 61.92695 198.081915 
L 62.236233 197.522585 
L 62.581067 197.522585 
L 62.783003 198.081915 
L 66.276469 198.081915 
L 66.629053 198.641245 
L 66.966921 198.641245 
L 67.09811 198.081915 
L 67.93256 198.641245 
L 68.282292 198.081915 
L 69.246539 198.081915 
L 69.556118 198.641245 
L 69.936729 198.081915 
L 71.691758 198.081915 
L 72.051339 198.641245 
L 72.248712 200.319234 
L 72.729095 199.200574 
L 73.846119 199.200574 
L 74.400323 199.759904 
L 74.735422 199.759904 
L 75.060875 200.319234 
L 75.424134 200.319234 
L 75.757665 199.759904 
L 76.076371 201.437893 
L 76.35932 201.437893 
L 77.128592 202.556553 
L 81.167502 202.556553 
L 81.488567 203.675213 
L 82.172841 203.675213 
L 82.476555 204.234542 
L 83.495202 204.234542 
L 84.470275 206.471861 
L 85.506681 206.471861 
L 85.877888 207.031191 
L 92.139526 207.031191 
L 92.891267 208.149851 
L 93.06156 207.031191 
L 94.267373 207.031191 
L 94.594816 207.590521 
L 94.956082 207.031191 
L 95.815626 207.031191 
L 96.290397 207.590521 
L 96.642852 207.031191 
L 101.965791 207.031191 
L 102.256676 212.065159 
L 102.458351 207.031191 
L 104.38739 207.031191 
L 104.737575 207.590521 
L 104.937456 212.624489 
L 105.409618 207.590521 
L 105.743094 207.590521 
L 105.964461 207.031191 
L 109.457147 207.031191 
L 109.63402 207.590521 
L 109.951431 207.590521 
L 110.474172 209.26851 
L 115.742857 209.26851 
L 116.892729 209.82784 
L 123.96916 209.82784 
L 124.263828 212.065159 
L 124.64036 212.065159 
L 124.97425 209.82784 
L 125.317769 209.82784 
L 125.554472 212.065159 
L 125.811012 209.82784 
L 126.237342 212.065159 
L 126.614985 213.183819 
L 130.993904 213.183819 
L 131.371859 213.743149 
L 133.370915 213.743149 
L 133.783068 207.590521 
L 134.077483 208.149851 
L 134.410265 209.82784 
L 134.821107 209.82784 
L 135.371976 210.9465 
L 135.752151 210.9465 
L 136.032381 211.505829 
L 136.408795 209.26851 
L 139.164838 214.861808 
L 139.44625 213.183819 
L 139.918104 212.624489 
L 141.41676 212.624489 
L 141.801193 212.065159 
L 142.140197 210.9465 
L 143.49734 210.9465 
L 143.745475 209.82784 
L 144.181922 210.9465 
L 145.167565 210.9465 
L 145.503007 212.065159 
L 145.826569 212.065159 
L 146.209774 212.624489 
L 146.364408 212.624489 
L 146.537228 214.302478 
L 146.771501 214.302478 
L 147.558426 214.861808 
L 148.208635 213.743149 
L 148.36763 213.743149 
L 148.877339 214.302478 
L 149.204372 215.421138 
L 150.894423 215.421138 
L 151.22073 215.980468 
L 151.571138 215.980468 
L 151.895554 216.539798 
L 152.199459 216.539798 
L 152.905628 217.099127 
L 153.270334 217.099127 
L 153.634018 218.777117 
L 153.849047 218.777117 
L 154.227034 218.217787 
L 154.82792 218.217787 
L 155.053843 219.895776 
L 155.611151 219.895776 
L 155.94134 221.014436 
L 156.382311 221.014436 
L 156.609455 221.573766 
L 157.108958 221.573766 
L 157.158662 222.133095 
L 157.411665 222.133095 
L 157.945537 222.692425 
L 159.159653 226.048404 
L 160.673006 226.048404 
L 160.981533 227.167063 
L 161.097706 226.607734 
L 161.232238 226.607734 
L 161.605313 226.048404 
L 162.963038 224.370414 
L 166.359898 224.370414 
L 166.753508 223.811085 
L 168.397575 223.811085 
L 168.631563 223.251755 
L 171.710376 223.251755 
L 172.106775 223.811085 
L 172.660905 223.811085 
L 173.10988 224.370414 
L 173.335791 223.811085 
L 175.500086 223.811085 
L 176.183124 224.929744 
L 177.636779 224.929744 
L 177.881521 232.760361 
L 178.157421 232.760361 
L 180.508675 234.43835 
L 180.653161 233.879021 
L 180.803894 234.43835 
L 181.195145 233.879021 
L 181.523333 233.879021 
L 181.868752 234.43835 
L 182.128143 234.43835 
L 182.544585 235.55701 
L 182.715854 235.55701 
L 182.874356 234.99768 
L 183.22962 236.11634 
L 185.59156 236.11634 
L 185.821341 236.67567 
L 187.091937 236.67567 
L 187.597828 236.11634 
L 187.976852 238.912989 
L 188.246684 237.234999 
L 188.598605 237.234999 
L 188.880683 240.590978 
L 189.078049 240.031648 
L 189.288152 240.590978 
L 189.393974 240.031648 
L 189.523494 241.709638 
L 189.859279 241.709638 
L 190.284727 242.268967 
L 191.117995 241.709638 
L 191.307731 242.828297 
L 191.617814 242.828297 
L 191.837403 241.150308 
L 192.582794 242.828297 
L 193.323968 243.387627 
L 193.974891 243.387627 
L 194.316359 245.065616 
L 194.630229 245.065616 
L 194.816147 244.506286 
L 195.142458 244.506286 
L 196.404521 246.743606 
L 196.615003 245.624946 
L 197.020158 245.065616 
L 197.495358 246.743606 
L 198.772671 246.743606 
L 198.882019 247.302935 
L 199.390976 247.862265 
L 200.747733 247.862265 
L 201.368764 250.658914 
L 204.858653 250.658914 
L 205.13423 251.218244 
L 205.496674 250.099584 
L 205.707682 251.218244 
L 209.512365 251.218244 
L 209.830252 251.777574 
L 210.596845 255.133552 
L 210.884446 253.455563 
L 211.22719 254.014893 
L 211.606705 253.455563 
L 211.873772 253.455563 
L 212.278439 251.777574 
L 212.495427 251.777574 
L 212.537542 252.336903 
L 213.220357 252.336903 
L 213.604681 248.980925 
L 213.943516 248.980925 
L 214.962799 249.540254 
L 215.027294 248.980925 
L 215.580718 248.421595 
L 215.662916 248.980925 
L 218.329569 248.980925 
L 218.51512 249.540254 
L 219.012774 250.099584 
L 219.677313 251.218244 
L 219.850157 252.336903 
L 220.083724 252.336903 
L 220.345377 253.455563 
L 220.660409 252.896233 
L 221.013157 252.896233 
L 221.278952 252.336903 
L 221.653658 252.896233 
L 221.988019 252.896233 
L 222.308485 253.455563 
L 222.567903 253.455563 
L 223.056223 252.896233 
L 223.310088 253.455563 
L 223.572837 252.896233 
L 224.335845 248.421595 
L 225.069804 249.540254 
L 225.177112 253.455563 
L 225.340717 253.455563 
L 225.640074 254.014893 
L 225.987856 253.455563 
L 226.305381 253.455563 
L 226.696526 252.896233 
L 227.035319 254.014893 
L 228.258059 254.014893 
L 228.743997 254.574222 
L 229.021703 254.574222 
L 229.043252 255.133552 
L 230.428778 255.133552 
L 230.823231 256.252212 
L 232.761837 256.252212 
L 233.148291 257.370871 
L 234.464271 257.370871 
L 236.861626 256.811542 
L 237.084023 257.370871 
L 237.683832 257.370871 
L 238.188538 257.930201 
L 238.526625 259.048861 
L 238.627719 258.489531 
L 238.995194 259.60819 
L 239.812674 259.60819 
L 243.123603 260.72685 
L 251.307658 260.72685 
L 251.641021 260.16752 
L 253.241088 260.16752 
L 253.572751 260.72685 
L 254.67183 260.72685 
L 255.051165 261.28618 
L 255.32393 260.72685 
L 255.640491 261.28618 
L 255.990758 260.72685 
L 256.278239 261.84551 
L 256.718536 261.28618 
L 257.0398 261.84551 
L 264.023143 261.84551 
L 264.383875 260.72685 
L 264.76603 261.28618 
L 265.111652 260.72685 
L 265.498784 260.72685 
L 265.809253 260.16752 
L 267.104987 260.16752 
L 267.433997 260.72685 
L 267.80563 260.16752 
L 268.144208 259.048861 
L 268.815564 259.048861 
L 269.194342 258.489531 
L 269.477786 259.60819 
L 269.842406 259.60819 
L 270.124106 259.048861 
L 271.01321 260.16752 
L 271.533342 259.60819 
L 271.842363 260.16752 
L 272.499807 260.16752 
L 272.870867 259.60819 
L 273.235225 261.28618 
L 273.585917 260.72685 
L 274.259189 260.72685 
L 274.515834 260.16752 
L 274.844064 260.72685 
L 275.202268 260.72685 
L 275.521938 255.692882 
L 275.648938 256.252212 
L 275.900146 256.252212 
L 276.075143 256.811542 
L 276.227659 256.811542 
L 276.42846 257.370871 
L 276.56454 256.252212 
L 276.883188 256.811542 
L 277.013667 256.811542 
L 277.236357 257.370871 
L 277.813565 257.370871 
L 278.094267 258.489531 
L 278.372461 257.370871 
L 278.553581 257.930201 
L 279.574748 257.930201 
L 279.878746 257.370871 
L 280.16705 257.370871 
L 280.529333 257.930201 
L 280.864335 257.930201 
L 281.261452 257.370871 
L 281.644676 257.930201 
L 281.94202 257.930201 
L 282.409947 259.048861 
L 284.318751 259.048861 
L 284.632722 257.370871 
L 286.1121 257.370871 
L 286.451859 257.930201 
L 286.719121 258.489531 
L 287.242396 258.489531 
L 287.405649 259.60819 
L 287.480538 259.048861 
L 287.657598 259.60819 
L 288.155631 259.60819 
L 288.399776 260.72685 
L 289.064529 260.72685 
L 289.374826 261.84551 
L 290.40102 261.84551 
L 290.647119 263.523499 
L 290.874208 264.082829 
L 291.00526 264.082829 
L 291.447336 264.642159 
L 291.602929 264.082829 
L 291.678333 264.642159 
L 292.164399 264.642159 
L 292.735242 265.201488 
L 294.015916 265.201488 
L 294.34621 264.642159 
L 294.662689 265.201488 
L 295.019442 265.201488 
L 295.190418 265.760818 
L 295.231543 265.201488 
L 295.434473 265.760818 
L 295.593191 265.760818 
L 295.74993 266.879478 
L 296.353477 267.998137 
L 296.792966 267.438807 
L 297.127106 267.998137 
L 297.783992 267.998137 
L 298.140515 269.116797 
L 298.271033 268.557467 
L 298.483067 270.235456 
L 298.783524 269.676127 
L 298.978385 270.235456 
L 299.132461 269.676127 
L 299.302723 270.794786 
L 299.649757 270.794786 
L 299.75254 271.354116 
L 300.159689 270.794786 
L 300.474584 271.913446 
L 301.185033 271.913446 
L 301.440781 273.032105 
L 301.803536 271.913446 
L 302.049982 271.913446 
L 302.140336 272.472775 
L 302.803381 272.472775 
L 303.11353 274.710095 
L 303.559571 272.472775 
L 303.628727 273.032105 
L 304.216032 272.472775 
L 304.271646 273.591435 
L 304.473645 273.591435 
L 304.880684 274.150765 
L 305.211017 273.591435 
L 305.460575 273.591435 
L 305.829872 274.710095 
L 306.231638 274.710095 
L 306.621251 274.150765 
L 306.912436 274.710095 
L 307.089364 274.150765 
L 307.265336 275.269424 
L 308.824611 275.269424 
L 309.303852 275.828754 
L 310.282346 275.828754 
L 310.629531 274.710095 
L 311.283879 274.710095 
L 311.611376 275.269424 
L 314.590693 275.269424 
L 314.992771 274.710095 
L 315.369669 275.828754 
L 319.941952 275.828754 
L 320.944986 276.388084 
L 321.540732 276.388084 
L 322.024559 276.947414 
L 322.406914 276.947414 
L 322.631596 277.506743 
L 327.721003 277.506743 
L 328.134372 276.947414 
L 328.4621 277.506743 
L 328.785868 276.947414 
L 329.005749 273.591435 
L 331.016358 273.591435 
L 331.195751 274.150765 
L 331.543487 274.150765 
L 331.658482 273.591435 
L 333.739744 273.591435 
L 334.028473 274.150765 
L 334.137591 273.591435 
L 334.632148 273.591435 
L 334.860754 274.710095 
L 335.034441 273.591435 
L 335.148921 273.591435 
L 335.364067 274.710095 
L 335.516771 274.710095 
L 335.713722 273.591435 
L 335.885973 274.710095 
L 335.996359 273.591435 
L 336.040818 274.710095 
L 337.225487 274.710095 
L 337.413539 275.269424 
L 337.441117 275.828754 
L 338.044379 275.828754 
L 338.079934 276.388084 
L 338.427521 276.388084 
L 338.607503 276.947414 
L 338.760955 276.388084 
L 338.949474 276.947414 
L 339.076962 276.388084 
L 339.375968 276.947414 
L 339.502422 276.388084 
L 339.519763 276.947414 
L 339.898775 276.947414 
L 340.13625 277.506743 
L 340.286028 277.506743 
L 340.510324 278.625403 
L 340.7592 279.184733 
L 340.931084 278.625403 
L 342.845564 278.625403 
L 343.1193 279.184733 
L 344.586536 279.184733 
L 344.820587 279.744063 
L 345.129959 279.744063 
L 345.359529 280.303392 
L 345.486061 279.744063 
L 346.093114 279.744063 
L 346.297975 280.862722 
L 346.855576 280.862722 
L 346.909123 281.422052 
L 346.986929 280.862722 
L 347.107299 280.862722 
L 347.323253 281.981382 
L 347.54815 282.540711 
L 347.611006 281.981382 
L 347.865939 284.218701 
L 348.898417 284.218701 
L 349.002215 284.778031 
L 349.228403 284.778031 
L 349.360902 285.89669 
L 349.516406 284.778031 
L 350.88706 284.778031 
L 350.966372 285.33736 
L 351.229277 284.778031 
L 351.355154 285.33736 
L 351.587886 284.778031 
L 351.890196 284.778031 
L 352.075583 285.89669 
L 352.413521 285.89669 
L 352.55214 285.33736 
L 352.670907 286.45602 
L 353.021662 284.778031 
L 353.389227 285.89669 
L 353.655494 284.778031 
L 354.278803 284.778031 
L 354.763894 286.45602 
L 354.914838 285.89669 
L 355.081999 286.45602 
L 355.533053 285.33736 
L 355.677484 286.45602 
L 356.74793 286.45602 
L 356.920474 287.01535 
L 357.221157 287.01535 
L 357.381446 286.45602 
L 357.583745 287.01535 
L 357.711662 286.45602 
L 358.101333 287.574679 
L 358.633345 287.574679 
L 359.008554 288.693339 
L 360.633665 288.693339 
L 360.811345 289.252669 
L 361.028684 288.693339 
L 361.136218 289.252669 
L 361.357803 288.693339 
L 361.652094 288.693339 
L 361.841912 289.252669 
L 361.96672 288.693339 
L 362.364067 288.693339 
L 362.486968 289.252669 
L 363.044059 289.252669 
L 363.08161 290.371328 
L 365.464254 290.371328 
L 365.699307 290.930658 
L 365.85359 290.371328 
L 365.984299 290.930658 
L 366.083584 290.371328 
L 366.202679 291.489988 
L 366.751399 291.489988 
L 367.01024 292.049318 
L 367.062699 291.489988 
L 367.116444 292.049318 
L 367.412022 291.489988 
L 367.488412 292.049318 
L 367.777469 292.608647 
L 367.890685 293.167977 
L 368.106822 293.167977 
L 368.15652 293.727307 
L 368.457452 295.405296 
L 368.5929 294.845967 
L 368.77571 294.845967 
L 368.808644 295.964626 
L 370.093039 295.964626 
L 370.252568 296.523956 
L 370.504189 295.964626 
L 370.940044 296.523956 
L 371.056533 295.964626 
L 371.247232 296.523956 
L 371.481599 296.523956 
L 371.621069 297.083286 
L 371.945921 297.083286 
L 371.953886 297.642615 
L 372.054025 297.083286 
L 372.150018 298.201945 
L 372.291898 298.201945 
L 372.488296 298.761275 
L 373.835556 298.761275 
L 373.871111 298.201945 
L 373.955926 299.320605 
L 374.311224 299.320605 
L 374.492676 298.761275 
L 374.632352 299.320605 
L 374.842643 298.761275 
L 375.000202 299.320605 
L 375.177223 299.320605 
L 375.329333 298.761275 
L 375.480157 300.439264 
L 377.28567 300.439264 
L 377.828626 301.557924 
L 378.114429 300.998594 
L 384.934862 300.998594 
L 385.050661 301.557924 
L 385.257777 300.998594 
L 385.31747 301.557924 
L 385.936348 301.557924 
L 386.107718 302.117254 
L 386.976314 302.117254 
L 387.092371 302.676583 
L 387.255959 302.117254 
L 388.586519 302.117254 
L 388.771075 302.676583 
L 389.003492 302.117254 
L 389.131822 302.117254 
L 389.336332 303.235913 
L 389.448835 302.676583 
L 389.947488 302.676583 
L 390.16476 303.235913 
L 391.187467 303.235913 
L 391.354063 302.117254 
L 391.691631 303.235913 
L 393.507921 303.235913 
L 393.694143 303.795243 
L 393.860509 303.795243 
L 394.039679 304.354573 
L 394.173599 304.354573 
L 394.339371 304.913903 
L 394.727233 304.913903 
L 394.795944 305.473232 
L 395.119284 305.473232 
L 395.323525 304.354573 
L 395.483007 304.913903 
L 395.727128 304.913903 
L 395.82667 305.473232 
L 396.200136 305.473232 
L 396.534166 306.032562 
L 396.898408 307.710552 
L 397.017663 307.151222 
L 397.128703 307.710552 
L 397.383573 308.269881 
L 397.504431 307.710552 
L 397.709398 308.269881 
L 397.828835 308.269881 
L 398.043381 307.710552 
L 398.218604 307.710552 
L 398.561886 309.388541 
L 398.769224 308.829211 
L 398.89273 308.829211 
L 399.054864 309.388541 
L 399.097497 309.947871 
L 399.23536 309.947871 
L 399.302639 309.388541 
L 399.525329 309.947871 
L 399.67953 309.388541 
L 399.806655 309.947871 
L 400.355632 309.947871 
L 400.560034 302.117254 
L 401.105938 303.235913 
L 401.466381 303.235913 
L 401.592457 303.795243 
L 401.788831 303.235913 
L 401.91488 303.235913 
L 402.06403 302.676583 
L 402.235524 303.235913 
L 402.471092 303.235913 
L 402.587 302.676583 
L 402.734262 303.235913 
L 402.935106 302.676583 
L 403.014048 303.235913 
L 403.304598 303.795243 
L 403.431512 303.795243 
L 403.738276 302.676583 
L 404.016185 303.235913 
L 405.25086 303.235913 
L 405.543821 303.795243 
L 405.851419 303.235913 
L 406.40471 303.235913 
L 406.828891 304.354573 
L 406.974387 302.676583 
L 407.219272 303.235913 
L 407.531449 302.676583 
L 407.674254 304.354573 
L 407.846669 303.235913 
L 408.009614 303.235913 
L 408.118131 303.795243 
L 408.199116 306.032562 
L 408.213652 305.473232 
L 408.572905 306.032562 
L 409.459607 306.032562 
L 409.879053 307.151222 
L 410.05208 306.591892 
L 410.673252 306.591892 
L 410.8425 306.032562 
L 411.02339 306.591892 
L 411.221804 306.591892 
L 411.338367 306.032562 
L 411.692983 306.591892 
L 411.901308 306.591892 
L 412.037884 307.151222 
L 412.20492 306.591892 
L 412.384371 306.591892 
L 412.552543 306.032562 
L 412.656715 306.591892 
L 413.593503 306.591892 
L 413.82787 308.269881 
L 414.111232 307.710552 
L 414.345591 307.710552 
L 414.535323 307.151222 
L 414.621589 307.710552 
L 414.915482 307.151222 
L 415.025352 307.710552 
L 415.28426 307.710552 
L 415.38555 308.269881 
L 415.694957 307.710552 
L 416.332537 307.710552 
L 416.568917 308.269881 
L 416.962683 308.269881 
L 417.061968 308.829211 
L 417.229773 308.269881 
L 417.622046 309.388541 
L 417.738765 309.388541 
L 417.911875 309.947871 
L 418.07145 309.947871 
L 418.371704 310.5072 
L 420.814096 310.5072 
L 421.074294 311.06653 
L 421.318275 311.06653 
L 421.367948 309.947871 
L 421.429467 310.5072 
L 421.82752 310.5072 
L 421.918377 311.06653 
L 422.442136 311.06653 
L 422.692271 311.62586 
L 423.028224 311.62586 
L 423.039398 311.06653 
L 423.151079 311.62586 
L 423.253784 311.06653 
L 424.716668 311.06653 
L 424.990965 310.5072 
L 425.756131 311.06653 
L 427.34289 311.06653 
L 427.41155 311.62586 
L 429.076608 311.62586 
L 429.226592 312.18519 
L 430.766432 314.981839 
L 430.912372 314.981839 
L 431.06463 315.541168 
L 431.132436 314.981839 
L 431.460343 315.541168 
L 431.764989 316.100498 
L 432.129328 316.100498 
L 432.251679 316.659828 
L 432.712117 316.659828 
L 433.379007 316.100498 
L 433.412604 317.778488 
L 433.949327 317.778488 
L 434.115677 317.219158 
L 434.236504 317.778488 
L 435.469584 317.778488 
L 435.755832 317.219158 
L 437.07822 317.219158 
L 437.894771 317.778488 
L 439.544255 317.778488 
L 440.356488 318.337817 
L 440.465118 318.897147 
L 442.907888 318.897147 
L 443.137376 318.337817 
L 444.377468 318.337817 
L 445.282953 317.778488 
L 445.942792 317.778488 
L 446.270243 318.337817 
L 446.560957 319.456477 
L 446.734042 319.456477 
L 446.740798 318.897147 
L 448.682294 318.897147 
L 448.890666 319.456477 
L 453.795418 319.456477 
L 454.413851 320.015807 
L 454.652185 320.015807 
L 454.745218 320.575136 
L 455.048334 320.575136 
L 455.175631 320.015807 
L 455.372961 320.575136 
L 456.480913 320.575136 
L 456.97478 321.134466 
L 457.317839 322.253126 
L 460.322395 322.253126 
L 460.851224 321.693796 
L 461.004231 322.253126 
L 461.159013 321.693796 
L 461.333012 322.253126 
L 462.157063 322.253126 
L 462.536992 321.693796 
L 462.729786 322.253126 
L 463.261391 321.134466 
L 463.468581 322.253126 
L 464.75504 322.253126 
L 464.770259 322.812456 
L 466.809016 322.812456 
L 467.800283 323.371785 
L 468.09776 322.812456 
L 468.650455 322.812456 
L 468.784437 323.371785 
L 469.256685 321.693796 
L 469.568479 322.253126 
L 469.987648 321.693796 
L 470.298129 321.693796 
L 470.439135 322.253126 
L 471.295138 322.253126 
L 472.312213 321.693796 
L 472.465302 322.253126 
L 473.477346 322.253126 
L 473.805928 321.693796 
L 478.956888 322.253126 
L 479.342574 321.693796 
L 479.675898 322.253126 
L 479.97458 321.693796 
L 480.007998 322.253126 
L 480.268028 322.812456 
L 480.418621 322.812456 
L 480.556375 323.371785 
L 482.951234 323.371785 
L 483.002265 323.931115 
L 483.299948 323.931115 
L 484.094806 323.371785 
L 484.120092 323.931115 
L 484.425482 323.371785 
L 484.499708 324.490445 
L 484.696274 324.490445 
L 485.09506 325.049775 
L 485.763351 325.049775 
L 486.169142 324.490445 
L 486.625398 325.609104 
L 486.644112 326.168434 
L 486.958231 326.727764 
L 487.087334 326.727764 
L 487.413318 326.168434 
L 487.871692 326.168434 
L 487.96698 326.727764 
L 489.010631 326.727764 
L 489.154407 326.168434 
L 489.330422 327.287094 
L 489.475496 327.287094 
L 489.750835 326.727764 
L 490.001244 327.287094 
L 490.55966 327.287094 
L 490.805591 328.405753 
L 492.559563 328.405753 
L 492.769256 328.965083 
L 492.897657 328.965083 
L 493.108938 328.405753 
L 493.163429 328.965083 
L 493.723093 328.965083 
L 493.835659 329.524413 
L 494.141389 329.524413 
L 494.228712 330.643072 
L 494.705714 330.643072 
L 494.884935 332.321062 
L 495.258108 332.321062 
L 495.476359 331.761732 
L 495.594268 332.321062 
L 495.752989 332.321062 
L 495.765111 333.999051 
L 496.06203 333.999051 
L 496.441729 333.439721 
L 496.613984 333.439721 
L 496.761133 333.999051 
L 497.127071 333.999051 
L 497.50627 333.439721 
L 497.545273 334.558381 
L 497.881023 334.558381 
L 497.942912 335.117711 
L 498.176854 335.67704 
L 498.794855 335.67704 
L 498.885688 336.7957 
L 499.150902 336.7957 
L 499.30639 337.35503 
L 499.455591 337.35503 
L 499.990636 337.91436 
L 500.200038 337.35503 
L 500.324741 329.524413 
L 500.459986 328.965083 
L 500.551584 331.202402 
L 501.211368 331.202402 
L 501.482553 330.643072 
L 501.680141 331.761732 
L 501.833004 331.761732 
L 502.224894 332.321062 
L 502.655924 332.321062 
L 502.852599 331.761732 
L 503.006589 332.321062 
L 504.045876 332.321062 
L 504.173844 332.880392 
L 504.647664 331.761732 
L 505.032951 332.321062 
L 505.253737 332.321062 
L 505.338537 332.880392 
L 505.53346 331.761732 
L 505.722939 332.880392 
L 506.509123 332.880392 
L 506.630979 332.321062 
L 506.911025 332.321062 
L 506.955079 332.880392 
L 507.27217 333.439721 
L 507.284546 332.880392 
L 507.880872 332.880392 
L 508.1878 333.439721 
L 509.780535 333.439721 
L 509.899961 333.999051 
L 510.215823 333.439721 
L 510.22637 333.999051 
L 510.679923 334.558381 
L 510.958605 334.558381 
L 511.2793 335.117711 
L 511.439426 335.67704 
L 511.561851 335.67704 
L 511.947092 334.558381 
L 512.023194 335.67704 
L 512.282245 335.117711 
L 512.500289 335.67704 
L 513.473409 335.67704 
L 513.582441 336.23637 
L 513.71833 335.67704 
L 514.189236 336.23637 
L 514.416695 335.67704 
L 514.647216 336.23637 
L 514.785719 335.67704 
L 515.108278 336.7957 
L 515.331143 336.23637 
L 516.093422 336.23637 
L 516.396687 336.7957 
L 516.8395 336.7957 
L 517.19181 335.67704 
L 517.285713 336.23637 
L 517.662151 336.23637 
L 517.757684 337.35503 
L 518.232455 336.23637 
L 518.398255 336.7957 
L 518.780789 336.23637 
L 519.060021 336.23637 
L 519.203075 336.7957 
L 519.402702 336.7957 
L 519.429298 333.439721 
L 519.545011 333.439721 
L 519.992808 333.999051 
L 520.05082 332.880392 
L 520.211597 333.999051 
L 520.358996 333.439721 
L 520.447465 333.999051 
L 520.79843 333.439721 
L 521.219538 333.999051 
L 521.431658 333.999051 
L 521.722836 333.439721 
L 522.136724 333.439721 
L 522.561084 334.558381 
L 522.783372 333.999051 
L 523.232862 333.999051 
L 523.443058 333.439721 
L 523.474003 332.880392 
L 523.735859 333.999051 
L 523.874728 333.439721 
L 524.038071 333.999051 
L 524.280784 333.439721 
L 524.555491 333.439721 
L 524.731967 332.880392 
L 525.066648 332.880392 
L 525.415094 333.999051 
L 525.651532 333.439721 
L 525.939465 334.558381 
L 526.089414 334.558381 
L 526.183535 333.999051 
L 526.476375 333.999051 
L 526.500954 334.558381 
L 527.47173 334.558381 
L 527.630767 335.117711 
L 527.766988 335.117711 
L 527.976978 335.67704 
L 528.158098 335.117711 
L 528.29623 335.67704 
L 528.502164 335.117711 
L 528.618091 335.67704 
L 528.767717 335.117711 
L 528.815924 335.67704 
L 528.981565 336.7957 
L 529.183934 336.23637 
L 529.247621 335.67704 
L 529.461043 336.23637 
L 529.635455 335.67704 
L 529.845676 336.23637 
L 530.190174 336.23637 
L 530.286097 336.7957 
L 530.524087 336.23637 
L 531.149112 337.91436 
L 531.317245 337.91436 
L 531.491154 336.7957 
L 531.573371 337.35503 
L 531.819248 337.35503 
L 531.931115 336.7957 
L 532.132166 336.7957 
L 532.315209 337.35503 
L 532.550528 337.35503 
L 532.945601 339.033019 
L 533.15579 338.473689 
L 535.918763 338.473689 
L 536.04734 339.033019 
L 536.21039 339.033019 
L 536.341513 338.473689 
L 536.488689 339.033019 
L 536.604594 339.033019 
L 537.260025 336.7957 
L 537.369669 337.91436 
L 537.935207 336.7957 
L 538.548723 336.7957 
L 539.213109 337.91436 
L 540.387615 337.35503 
L 540.685887 337.91436 
L 541.014484 337.35503 
L 541.249167 338.473689 
L 541.343292 337.35503 
L 541.652657 338.473689 
L 541.989722 337.35503 
L 542.101301 338.473689 
L 542.317445 338.473689 
L 542.436263 337.91436 
L 542.651628 338.473689 
L 542.780875 338.473689 
L 542.901264 337.91436 
L 543.047539 339.592349 
L 543.431162 338.473689 
L 543.789966 338.473689 
L 544.009208 339.033019 
L 544.422967 339.033019 
L 544.759455 338.473689 
L 544.956168 338.473689 
L 545.104877 339.592349 
L 545.290374 339.033019 
L 545.393938 339.592349 
L 545.643999 340.151679 
L 545.797326 340.151679 
L 546.065395 339.033019 
L 546.321732 340.711008 
L 546.643921 340.711008 
L 546.668376 341.829668 
L 546.690877 341.270338 
L 546.85938 340.711008 
L 547.03651 341.829668 
L 547.110393 340.711008 
L 547.377405 340.711008 
L 547.413786 341.270338 
L 547.714618 341.829668 
L 547.894662 341.829668 
L 547.979052 340.711008 
L 548.382768 341.829668 
L 548.448148 340.711008 
L 548.668041 341.829668 
L 548.837195 340.151679 
L 549.351406 341.270338 
L 549.738776 339.592349 
L 549.76873 340.151679 
L 550.014096 339.592349 
L 550.169217 339.592349 
L 550.330255 340.711008 
L 550.522569 339.592349 
L 550.892306 340.711008 
L 551.032583 339.592349 
L 551.184467 340.151679 
L 551.493976 340.151679 
L 551.698374 339.592349 
L 552.089644 339.592349 
L 552.101587 340.151679 
L 552.717399 339.033019 
L 553.043995 340.711008 
L 553.217331 340.711008 
L 553.419353 340.151679 
L 553.476457 341.270338 
L 553.763247 340.151679 
L 553.939839 341.270338 
L 554.117863 340.151679 
L 554.191433 340.711008 
L 554.556541 340.711008 
L 554.775342 341.270338 
L 554.875415 342.388998 
L 555.079141 341.270338 
L 555.414318 341.829668 
L 555.562586 342.388998 
L 555.745786 341.829668 
L 555.902202 344.066987 
L 556.14772 344.066987 
L 556.472405 344.626317 
L 556.511575 343.507657 
L 556.831131 344.626317 
L 557.286003 343.507657 
L 557.408912 345.185647 
L 557.777745 345.744976 
L 558.179464 344.626317 
L 558.434073 344.066987 
L 559.141823 344.626317 
L 559.226595 345.185647 
L 559.491376 345.185647 
L 559.979482 345.744976 
L 560.221306 345.744976 
L 560.522637 346.304306 
L 560.827438 347.982296 
L 561.609991 347.422966 
L 561.862069 347.422966 
L 562.211614 345.744976 
L 562.54389 345.744976 
L 562.629539 345.185647 
L 562.881988 346.304306 
L 562.93823 345.185647 
L 563.214528 345.744976 
L 563.715735 345.744976 
L 563.715735 345.744976 
" clip-path="url(#pfb0c9f9790)" style="fill: none; stroke-dasharray: 3,1.5; stroke-dashoffset: 0; stroke: #808080; stroke-width: 1.5"/>
   </g>
   <g id="line2d_19">
    <path d="M 38.539265 297.083286 
L 39.916916 296.523956 
L 41.29012 295.405296 
L 44.542004 295.405296 
L 48.127593 294.845967 
L 48.393591 295.405296 
L 48.559485 295.405296 
L 48.672916 294.286637 
L 48.934714 294.845967 
L 49.32192 294.286637 
L 50.07581 294.286637 
L 50.495689 291.489988 
L 50.58935 294.286637 
L 50.807289 290.930658 
L 50.876596 291.489988 
L 51.120815 291.489988 
L 51.511473 290.930658 
L 52.151889 290.930658 
L 52.47976 288.693339 
L 52.989419 288.693339 
L 53.506766 289.811999 
L 53.835878 285.33736 
L 53.908731 285.89669 
L 54.218439 285.33736 
L 54.817535 283.659371 
L 55.223888 284.778031 
L 55.866179 284.778031 
L 56.225124 285.89669 
L 56.467775 285.33736 
L 57.19881 284.778031 
L 57.526845 284.778031 
L 57.883551 283.659371 
L 58.395387 283.659371 
L 58.924746 280.303392 
L 60.347788 278.625403 
L 60.541581 278.066073 
L 60.952064 278.066073 
L 61.210909 277.506743 
L 61.623326 277.506743 
L 61.92695 278.625403 
L 62.236233 279.184733 
L 62.581067 279.184733 
L 62.783003 278.625403 
L 65.245703 278.625403 
L 65.639341 278.066073 
L 66.276469 278.066073 
L 66.629053 277.506743 
L 66.966921 277.506743 
L 67.09811 278.066073 
L 67.93256 277.506743 
L 68.282292 278.066073 
L 69.246539 278.066073 
L 69.556118 277.506743 
L 69.936729 278.066073 
L 71.691758 278.066073 
L 72.051339 277.506743 
L 72.248712 275.828754 
L 72.729095 276.947414 
L 73.405639 276.947414 
L 73.721732 275.828754 
L 73.846119 276.947414 
L 74.400323 275.269424 
L 74.735422 275.269424 
L 75.060875 274.710095 
L 75.424134 274.710095 
L 75.757665 275.269424 
L 76.076371 274.150765 
L 76.35932 274.150765 
L 77.128592 273.032105 
L 81.167502 273.032105 
L 81.488567 271.913446 
L 82.172841 271.913446 
L 82.476555 269.116797 
L 83.495202 269.116797 
L 84.470275 266.879478 
L 85.506681 266.879478 
L 85.877888 266.320148 
L 92.139526 266.320148 
L 92.891267 264.642159 
L 93.06156 266.320148 
L 94.267373 266.320148 
L 94.594816 265.201488 
L 94.956082 266.320148 
L 95.815626 266.320148 
L 96.290397 265.201488 
L 96.642852 266.320148 
L 101.965791 266.320148 
L 102.256676 261.28618 
L 102.458351 266.320148 
L 104.38739 266.320148 
L 104.737575 265.760818 
L 104.937456 260.72685 
L 105.409618 265.760818 
L 105.743094 265.760818 
L 105.964461 266.320148 
L 109.457147 266.320148 
L 109.63402 265.760818 
L 109.951431 265.760818 
L 110.474172 264.082829 
L 115.742857 264.082829 
L 116.892729 263.523499 
L 123.96916 263.523499 
L 124.263828 260.72685 
L 124.64036 260.72685 
L 124.97425 263.523499 
L 125.317769 263.523499 
L 125.554472 260.72685 
L 125.811012 263.523499 
L 126.237342 260.72685 
L 126.614985 259.60819 
L 130.993904 259.60819 
L 131.371859 259.048861 
L 133.03004 259.048861 
L 133.370915 257.930201 
L 133.783068 255.692882 
L 134.077483 255.133552 
L 134.410265 251.777574 
L 134.821107 251.777574 
L 135.371976 250.658914 
L 135.752151 250.658914 
L 136.408795 249.540254 
L 139.164838 244.506286 
L 139.44625 245.624946 
L 141.41676 245.624946 
L 141.801193 243.387627 
L 142.140197 243.946957 
L 143.49734 243.946957 
L 143.745475 245.065616 
L 144.181922 243.946957 
L 145.167565 243.946957 
L 145.503007 242.828297 
L 145.826569 242.828297 
L 146.209774 242.268967 
L 146.364408 242.268967 
L 146.537228 240.590978 
L 146.771501 240.590978 
L 147.558426 240.031648 
L 148.208635 241.709638 
L 148.36763 241.709638 
L 148.877339 241.150308 
L 149.204372 240.031648 
L 150.894423 240.031648 
L 151.22073 239.472318 
L 151.571138 239.472318 
L 151.895554 238.912989 
L 152.199459 238.912989 
L 152.905628 238.353659 
L 153.270334 238.353659 
L 153.634018 236.67567 
L 154.227034 236.67567 
L 154.597637 236.11634 
L 154.82792 236.11634 
L 154.956484 246.184276 
L 155.053843 245.624946 
L 155.611151 245.624946 
L 155.94134 244.506286 
L 156.382311 244.506286 
L 156.609455 243.946957 
L 157.108958 243.946957 
L 157.158662 243.387627 
L 157.945537 243.387627 
L 158.368009 241.709638 
L 159.24597 240.031648 
L 160.673006 240.031648 
L 160.981533 238.912989 
L 161.097706 239.472318 
L 161.232238 239.472318 
L 161.605313 240.031648 
L 162.963038 239.472318 
L 166.359898 239.472318 
L 166.753508 240.031648 
L 168.397575 240.031648 
L 168.631563 240.590978 
L 169.060175 240.031648 
L 171.710376 240.031648 
L 172.106775 239.472318 
L 172.660905 239.472318 
L 173.10988 238.912989 
L 173.335791 239.472318 
L 175.500086 239.472318 
L 176.183124 238.353659 
L 177.636779 238.353659 
L 177.881521 230.523042 
L 178.157421 230.523042 
L 180.508675 228.845053 
L 180.653161 229.404382 
L 180.803894 228.845053 
L 181.195145 229.404382 
L 181.523333 229.404382 
L 181.868752 228.845053 
L 182.128143 228.845053 
L 182.544585 227.726393 
L 182.715854 227.726393 
L 182.874356 228.285723 
L 183.22962 227.167063 
L 185.59156 227.167063 
L 185.821341 226.607734 
L 186.204432 226.607734 
L 186.559965 226.048404 
L 186.92907 226.607734 
L 187.091937 226.607734 
L 187.597828 227.167063 
L 187.976852 224.370414 
L 188.246684 226.048404 
L 188.598605 226.048404 
L 188.880683 222.692425 
L 189.078049 223.251755 
L 189.288152 222.133095 
L 189.393974 222.692425 
L 189.523494 221.014436 
L 189.859279 221.014436 
L 190.284727 220.455106 
L 191.117995 221.014436 
L 191.307731 219.895776 
L 191.617814 219.895776 
L 191.837403 221.573766 
L 192.582794 219.895776 
L 193.323968 219.336446 
L 193.974891 219.336446 
L 194.316359 217.658457 
L 194.630229 217.658457 
L 194.816147 218.217787 
L 195.142458 218.217787 
L 196.404521 214.861808 
L 196.615003 217.099127 
L 197.020158 217.658457 
L 197.495358 214.861808 
L 198.772671 214.861808 
L 198.882019 214.302478 
L 199.390976 213.743149 
L 200.747733 213.743149 
L 201.368764 210.9465 
L 204.858653 210.9465 
L 205.13423 209.82784 
L 205.496674 212.065159 
L 205.707682 210.38717 
L 209.512365 210.38717 
L 209.830252 209.82784 
L 210.596845 206.471861 
L 210.884446 208.149851 
L 211.22719 207.590521 
L 211.606705 208.149851 
L 211.873772 208.149851 
L 212.278439 202.556553 
L 212.495427 202.556553 
L 212.537542 201.997223 
L 213.220357 201.997223 
L 213.604681 200.878564 
L 213.943516 199.200574 
L 214.962799 198.641245 
L 215.027294 199.200574 
L 215.580718 199.759904 
L 215.662916 199.200574 
L 218.329569 199.200574 
L 218.51512 198.641245 
L 219.012774 198.081915 
L 219.677313 196.963255 
L 219.850157 195.844596 
L 220.083724 195.844596 
L 220.345377 194.725936 
L 220.660409 195.285266 
L 221.013157 195.285266 
L 221.278952 195.844596 
L 221.653658 195.285266 
L 221.988019 195.285266 
L 222.308485 194.725936 
L 222.567903 194.725936 
L 223.056223 195.285266 
L 223.310088 194.725936 
L 223.572837 195.285266 
L 224.016078 198.081915 
L 224.335845 198.641245 
L 225.069804 197.522585 
L 225.177112 193.607277 
L 225.340717 193.607277 
L 225.640074 193.047947 
L 225.987856 193.607277 
L 226.305381 193.607277 
L 226.696526 194.166606 
L 227.035319 193.047947 
L 228.258059 193.047947 
L 228.743997 192.488617 
L 229.021703 192.488617 
L 229.043252 191.929287 
L 230.428778 191.929287 
L 230.823231 190.810628 
L 232.761837 190.810628 
L 233.148291 189.691968 
L 236.861626 189.691968 
L 237.084023 189.132638 
L 237.683832 189.132638 
L 238.188538 188.573309 
L 238.526625 187.454649 
L 238.627719 188.013979 
L 238.995194 186.895319 
L 239.812674 186.895319 
L 243.123603 185.77666 
L 251.307658 185.77666 
L 251.641021 186.335989 
L 253.241088 186.335989 
L 253.572751 185.77666 
L 254.67183 185.77666 
L 255.051165 185.21733 
L 255.32393 185.77666 
L 255.640491 185.21733 
L 255.990758 185.77666 
L 256.278239 184.658 
L 256.718536 185.21733 
L 257.0398 184.658 
L 264.023143 184.658 
L 264.383875 185.77666 
L 264.76603 185.21733 
L 265.111652 185.77666 
L 265.498784 185.21733 
L 265.809253 185.77666 
L 267.104987 185.77666 
L 267.433997 185.21733 
L 267.80563 185.77666 
L 268.144208 184.658 
L 268.815564 184.658 
L 269.194342 185.21733 
L 269.477786 184.09867 
L 269.842406 184.09867 
L 270.124106 184.658 
L 271.01321 183.539341 
L 271.533342 184.09867 
L 271.842363 183.539341 
L 272.499807 183.539341 
L 272.870867 184.09867 
L 273.235225 182.420681 
L 273.585917 182.980011 
L 274.259189 182.980011 
L 274.515834 183.539341 
L 274.844064 182.980011 
L 275.202268 182.980011 
L 275.521938 187.454649 
L 275.648938 186.895319 
L 275.900146 186.895319 
L 276.075143 186.335989 
L 276.227659 186.335989 
L 276.42846 185.77666 
L 276.56454 186.895319 
L 276.883188 186.335989 
L 277.013667 186.335989 
L 277.236357 185.77666 
L 277.813565 185.77666 
L 278.094267 184.658 
L 278.372461 185.77666 
L 278.553581 185.21733 
L 279.574748 185.21733 
L 279.878746 185.77666 
L 280.16705 185.77666 
L 280.529333 185.21733 
L 280.864335 185.21733 
L 281.261452 185.77666 
L 281.644676 185.21733 
L 281.94202 185.21733 
L 282.409947 184.09867 
L 284.318751 184.09867 
L 284.632722 184.658 
L 286.1121 184.658 
L 286.451859 184.09867 
L 286.719121 183.539341 
L 287.242396 183.539341 
L 287.405649 182.420681 
L 287.480538 182.980011 
L 287.657598 182.420681 
L 288.155631 182.420681 
L 288.399776 181.302021 
L 289.064529 181.302021 
L 289.374826 180.183362 
L 290.40102 180.183362 
L 290.647119 178.505373 
L 290.874208 177.946043 
L 291.00526 177.946043 
L 291.447336 177.386713 
L 291.602929 177.946043 
L 291.678333 177.386713 
L 291.837869 177.386713 
L 292.024629 176.827383 
L 292.164399 176.827383 
L 292.735242 176.268053 
L 294.015916 176.268053 
L 294.34621 176.827383 
L 294.662689 176.268053 
L 295.019442 176.268053 
L 295.190418 175.708724 
L 295.231543 176.268053 
L 295.434473 175.708724 
L 295.593191 175.708724 
L 295.74993 174.590064 
L 296.353477 173.471405 
L 296.792966 174.030734 
L 297.127106 173.471405 
L 297.783992 173.471405 
L 298.140515 172.352745 
L 298.271033 172.912075 
L 298.483067 171.234085 
L 298.783524 171.793415 
L 298.978385 171.234085 
L 299.132461 171.793415 
L 299.302723 170.674756 
L 299.649757 170.674756 
L 299.75254 170.115426 
L 300.159689 170.674756 
L 300.474584 169.556096 
L 301.185033 169.556096 
L 301.440781 168.437437 
L 301.803536 169.556096 
L 302.049982 169.556096 
L 302.140336 168.996766 
L 302.803381 168.996766 
L 303.11353 166.759447 
L 303.559571 168.996766 
L 303.628727 168.437437 
L 304.216032 168.996766 
L 304.271646 167.878107 
L 304.473645 167.878107 
L 304.880684 167.318777 
L 305.211017 167.878107 
L 305.460575 167.878107 
L 305.829872 166.759447 
L 306.231638 166.759447 
L 306.621251 167.318777 
L 306.912436 166.759447 
L 307.089364 167.318777 
L 307.265336 166.200117 
L 308.824611 166.200117 
L 309.303852 165.640788 
L 310.282346 165.640788 
L 310.629531 166.759447 
L 311.283879 166.759447 
L 311.611376 166.200117 
L 314.590693 166.200117 
L 314.992771 166.759447 
L 315.369669 165.640788 
L 319.941952 165.640788 
L 320.944986 165.081458 
L 321.540732 165.081458 
L 322.024559 164.522128 
L 322.406914 164.522128 
L 322.631596 163.403468 
L 322.987815 163.962798 
L 327.721003 163.962798 
L 328.134372 164.522128 
L 328.4621 163.962798 
L 328.785868 164.522128 
L 329.005749 166.759447 
L 331.016358 166.759447 
L 331.347947 165.640788 
L 331.813342 166.759447 
L 333.739744 166.759447 
L 334.028473 165.640788 
L 334.137591 166.759447 
L 334.632148 166.759447 
L 334.860754 165.640788 
L 335.034441 166.759447 
L 335.148921 166.759447 
L 335.364067 165.640788 
L 335.516771 165.640788 
L 335.713722 166.759447 
L 335.885973 165.640788 
L 335.996359 166.759447 
L 336.040818 165.640788 
L 337.225487 165.640788 
L 337.613298 163.962798 
L 338.044379 163.962798 
L 338.079934 163.403468 
L 338.427521 163.403468 
L 338.607503 162.844139 
L 338.760955 163.403468 
L 338.949474 162.844139 
L 339.076962 163.403468 
L 339.375968 162.844139 
L 339.502422 163.403468 
L 339.519763 162.844139 
L 339.898775 162.844139 
L 340.13625 162.284809 
L 340.286028 162.284809 
L 340.510324 161.166149 
L 340.7592 160.60682 
L 340.931084 161.166149 
L 342.845564 161.166149 
L 343.1193 160.60682 
L 344.586536 160.60682 
L 344.820587 160.04749 
L 345.129959 160.04749 
L 345.359529 159.48816 
L 345.486061 160.04749 
L 346.093114 160.04749 
L 346.297975 158.92883 
L 346.855576 158.92883 
L 346.909123 158.3695 
L 346.986929 158.92883 
L 347.296322 158.92883 
L 347.323253 158.3695 
L 347.54815 157.810171 
L 347.611006 158.3695 
L 347.865939 156.132181 
L 348.898417 156.132181 
L 349.002215 155.572852 
L 349.228403 155.572852 
L 349.360902 154.454192 
L 349.516406 155.572852 
L 350.88706 155.572852 
L 350.966372 155.013522 
L 351.229277 155.572852 
L 351.355154 155.013522 
L 351.587886 155.572852 
L 351.890196 155.572852 
L 352.075583 154.454192 
L 352.413521 154.454192 
L 352.55214 155.013522 
L 352.670907 153.894862 
L 353.021662 155.572852 
L 353.389227 154.454192 
L 353.655494 155.572852 
L 354.278803 155.572852 
L 354.763894 153.894862 
L 354.914838 154.454192 
L 355.081999 153.894862 
L 355.533053 155.013522 
L 355.677484 153.894862 
L 356.74793 153.894862 
L 356.920474 153.335532 
L 357.221157 153.335532 
L 357.381446 153.894862 
L 357.583745 153.335532 
L 357.711662 153.894862 
L 358.101333 152.776203 
L 358.633345 152.776203 
L 359.008554 151.657543 
L 359.660385 152.776203 
L 359.799687 152.216873 
L 359.971061 152.776203 
L 360.079738 152.216873 
L 360.297774 152.216873 
L 360.389153 152.776203 
L 360.811345 151.657543 
L 361.028684 152.216873 
L 361.136218 151.657543 
L 361.357803 152.216873 
L 361.652094 152.216873 
L 361.841912 151.657543 
L 361.96672 152.216873 
L 362.089719 152.216873 
L 362.364067 152.776203 
L 362.486968 151.657543 
L 363.044059 151.657543 
L 363.08161 150.538884 
L 365.464254 150.538884 
L 365.699307 149.979554 
L 365.85359 150.538884 
L 365.984299 149.979554 
L 366.083584 150.538884 
L 366.202679 149.420224 
L 366.751399 149.420224 
L 367.01024 148.860894 
L 367.062699 149.420224 
L 367.116444 148.860894 
L 367.412022 149.420224 
L 367.488412 148.860894 
L 367.777469 148.301564 
L 367.890685 147.742235 
L 368.106822 147.742235 
L 368.15652 147.182905 
L 368.457452 145.504916 
L 368.5929 146.064245 
L 368.77571 146.064245 
L 368.808644 144.945586 
L 370.093039 144.945586 
L 370.252568 144.386256 
L 370.504189 144.945586 
L 371.247232 143.267596 
L 371.481599 143.267596 
L 371.621069 142.708267 
L 371.945921 142.708267 
L 371.953886 142.148937 
L 372.054025 142.708267 
L 372.150018 141.589607 
L 372.291898 141.589607 
L 372.488296 141.030277 
L 373.835556 141.030277 
L 373.871111 141.589607 
L 373.955926 140.470948 
L 374.311224 140.470948 
L 374.492676 141.030277 
L 374.632352 140.470948 
L 374.842643 141.030277 
L 375.000202 140.470948 
L 375.177223 140.470948 
L 375.329333 141.030277 
L 375.480157 139.352288 
L 377.28567 139.352288 
L 377.828626 138.233628 
L 378.114429 138.792958 
L 384.934862 138.792958 
L 385.050661 138.233628 
L 385.257777 138.792958 
L 385.31747 138.233628 
L 385.936348 138.233628 
L 386.107718 137.674299 
L 386.976314 137.674299 
L 387.092371 137.114969 
L 387.255959 137.674299 
L 388.586519 137.674299 
L 388.771075 137.114969 
L 389.003492 137.674299 
L 389.131822 137.674299 
L 389.336332 136.555639 
L 389.448835 137.114969 
L 389.947488 137.114969 
L 390.16476 136.555639 
L 391.187467 136.555639 
L 391.354063 137.674299 
L 391.691631 136.555639 
L 393.507921 136.555639 
L 393.694143 135.996309 
L 393.860509 135.996309 
L 394.039679 135.43698 
L 394.173599 135.43698 
L 394.339371 134.87765 
L 394.727233 134.87765 
L 394.795944 134.31832 
L 395.119284 134.31832 
L 395.323525 135.43698 
L 395.483007 134.87765 
L 395.727128 134.87765 
L 395.82667 134.31832 
L 396.200136 134.31832 
L 396.534166 133.75899 
L 396.898408 132.081001 
L 397.017663 132.640331 
L 397.128703 132.081001 
L 397.383573 131.521671 
L 397.504431 132.081001 
L 397.709398 131.521671 
L 397.828835 131.521671 
L 398.043381 132.081001 
L 398.218604 132.081001 
L 398.561886 130.403012 
L 398.769224 130.962341 
L 398.89273 130.962341 
L 399.054864 130.403012 
L 399.097497 129.843682 
L 399.23536 129.843682 
L 399.302639 130.403012 
L 399.525329 129.843682 
L 399.67953 130.403012 
L 399.806655 129.843682 
L 400.355632 129.843682 
L 400.560034 133.19966 
L 401.105938 132.081001 
L 401.466381 132.081001 
L 401.592457 131.521671 
L 401.788831 132.081001 
L 401.91488 132.081001 
L 402.06403 132.640331 
L 402.235524 132.081001 
L 402.471092 132.081001 
L 402.587 132.640331 
L 402.734262 132.081001 
L 402.935106 132.640331 
L 403.014048 132.081001 
L 403.304598 131.521671 
L 403.591907 131.521671 
L 403.738276 132.081001 
L 404.016185 131.521671 
L 405.15092 131.521671 
L 405.25086 128.725022 
L 405.543821 130.962341 
L 405.851419 131.521671 
L 406.40471 131.521671 
L 406.828891 130.403012 
L 406.974387 132.081001 
L 407.219272 131.521671 
L 407.531449 132.081001 
L 407.674254 130.403012 
L 407.846669 131.521671 
L 408.009614 131.521671 
L 408.118131 130.962341 
L 408.213652 126.487703 
L 408.545385 128.725022 
L 408.572905 125.928373 
L 409.459607 125.928373 
L 409.879053 124.809714 
L 410.05208 125.369044 
L 410.673252 125.369044 
L 410.8425 125.928373 
L 411.02339 125.369044 
L 411.221804 125.369044 
L 411.338367 125.928373 
L 411.692983 125.369044 
L 411.901308 125.369044 
L 412.037884 124.809714 
L 412.20492 125.369044 
L 412.384371 125.369044 
L 412.552543 125.928373 
L 412.656715 125.369044 
L 413.593503 125.369044 
L 413.82787 123.691054 
L 414.111232 124.250384 
L 414.345591 124.250384 
L 414.535323 124.809714 
L 414.621589 124.250384 
L 414.915482 124.809714 
L 415.025352 124.250384 
L 415.28426 124.250384 
L 415.38555 123.691054 
L 415.694957 124.250384 
L 416.332537 124.250384 
L 416.568917 123.691054 
L 416.962683 123.691054 
L 417.061968 123.131724 
L 417.229773 123.691054 
L 417.622046 122.572395 
L 417.738765 122.572395 
L 417.911875 122.013065 
L 418.07145 122.013065 
L 418.371704 121.453735 
L 420.814096 121.453735 
L 421.074294 120.894405 
L 421.318275 120.894405 
L 421.367948 122.013065 
L 421.429467 121.453735 
L 421.82752 121.453735 
L 421.918377 120.894405 
L 422.442136 120.894405 
L 422.692271 120.335075 
L 423.028224 120.335075 
L 423.039398 120.894405 
L 423.151079 120.335075 
L 423.253784 120.894405 
L 424.716668 120.894405 
L 424.990965 121.453735 
L 425.756131 120.894405 
L 427.34289 120.894405 
L 427.41155 120.335075 
L 429.076608 120.335075 
L 429.226592 119.775746 
L 430.766432 116.979097 
L 430.912372 116.979097 
L 431.06463 116.419767 
L 431.132436 116.979097 
L 431.460343 116.419767 
L 431.764989 115.860437 
L 432.129328 115.860437 
L 432.251679 115.301107 
L 432.712117 115.301107 
L 433.379007 115.860437 
L 433.412604 114.182448 
L 433.949327 114.182448 
L 434.115677 114.741778 
L 434.236504 114.182448 
L 435.136376 114.182448 
L 435.469584 114.741778 
L 437.07822 114.741778 
L 437.894771 114.182448 
L 439.544255 114.182448 
L 440.356488 113.623118 
L 440.465118 113.063788 
L 442.907888 113.063788 
L 443.137376 113.623118 
L 444.377468 113.623118 
L 445.282953 114.182448 
L 445.942792 114.182448 
L 446.270243 113.623118 
L 446.560957 112.504459 
L 446.734042 112.504459 
L 446.740798 113.063788 
L 448.682294 113.063788 
L 448.890666 112.504459 
L 453.795418 112.504459 
L 454.413851 111.945129 
L 454.652185 111.945129 
L 454.745218 110.826469 
L 455.048334 110.826469 
L 455.175631 111.385799 
L 455.372961 110.826469 
L 456.480913 110.826469 
L 456.97478 110.267139 
L 457.317839 109.14848 
L 460.322395 109.14848 
L 460.851224 109.70781 
L 461.004231 109.14848 
L 461.159013 109.70781 
L 461.333012 109.14848 
L 462.157063 109.14848 
L 462.536992 109.70781 
L 462.729786 109.14848 
L 463.261391 110.267139 
L 463.468581 109.14848 
L 464.75504 109.14848 
L 464.770259 108.58915 
L 466.809016 108.58915 
L 467.800283 108.02982 
L 468.09776 108.58915 
L 468.314401 108.02982 
L 468.454603 108.58915 
L 468.650455 108.58915 
L 468.784437 108.02982 
L 469.256685 109.14848 
L 469.568479 108.58915 
L 469.987648 109.14848 
L 470.298129 109.14848 
L 470.439135 108.58915 
L 471.295138 108.58915 
L 472.312213 109.14848 
L 472.465302 108.58915 
L 473.477346 108.58915 
L 473.805928 109.14848 
L 478.956888 108.58915 
L 479.342574 109.14848 
L 479.675898 108.58915 
L 479.97458 109.14848 
L 480.007998 108.58915 
L 480.268028 108.02982 
L 480.418621 108.02982 
L 480.556375 107.470491 
L 482.951234 107.470491 
L 483.002265 106.911161 
L 483.299948 106.911161 
L 484.094806 107.470491 
L 484.120092 106.911161 
L 484.425482 107.470491 
L 484.499708 106.351831 
L 484.696274 106.351831 
L 485.09506 105.792501 
L 485.763351 105.792501 
L 486.169142 106.351831 
L 486.625398 105.233171 
L 486.644112 104.673842 
L 486.958231 104.114512 
L 487.087334 104.114512 
L 487.413318 104.673842 
L 487.871692 104.673842 
L 487.96698 104.114512 
L 489.010631 104.114512 
L 489.154407 104.673842 
L 489.330422 103.555182 
L 489.475496 103.555182 
L 489.750835 104.114512 
L 490.001244 103.555182 
L 490.55966 103.555182 
L 490.805591 101.877193 
L 492.559563 101.877193 
L 492.769256 101.317863 
L 492.897657 101.317863 
L 493.108938 101.877193 
L 493.163429 101.317863 
L 493.723093 101.317863 
L 493.835659 100.758533 
L 494.141389 100.199203 
L 494.228712 99.080544 
L 494.705714 99.080544 
L 494.884935 97.402555 
L 495.258108 97.402555 
L 495.476359 97.961884 
L 495.594268 97.402555 
L 495.752989 97.402555 
L 495.765111 95.724565 
L 496.613984 95.724565 
L 496.761133 95.165235 
L 497.127071 95.165235 
L 497.50627 95.724565 
L 497.545273 94.605906 
L 497.881023 94.605906 
L 497.942912 94.046576 
L 498.176854 93.487246 
L 498.794855 93.487246 
L 498.885688 92.368587 
L 499.150902 92.368587 
L 499.30639 91.809257 
L 499.455591 91.809257 
L 499.990636 91.249927 
L 500.200038 91.809257 
L 500.324741 97.961884 
L 500.459986 98.521214 
L 500.551584 96.283895 
L 501.211368 96.283895 
L 501.482553 96.843225 
L 501.680141 95.724565 
L 502.655924 95.724565 
L 502.852599 96.283895 
L 503.006589 95.724565 
L 504.045876 95.724565 
L 504.173844 95.165235 
L 504.647664 96.283895 
L 505.032951 95.724565 
L 505.253737 95.724565 
L 505.338537 95.165235 
L 505.53346 96.283895 
L 505.722939 95.165235 
L 506.509123 95.165235 
L 506.630979 95.724565 
L 506.911025 95.724565 
L 506.955079 95.165235 
L 507.27217 94.605906 
L 507.284546 95.165235 
L 507.540025 94.605906 
L 507.880872 94.605906 
L 508.1878 94.046576 
L 509.780535 94.046576 
L 509.899961 93.487246 
L 510.215823 94.046576 
L 510.22637 93.487246 
L 510.679923 92.927916 
L 510.958605 92.927916 
L 511.2793 92.368587 
L 511.439426 91.809257 
L 511.561851 91.809257 
L 511.947092 92.927916 
L 512.023194 91.809257 
L 512.282245 92.368587 
L 512.500289 91.809257 
L 513.473409 91.809257 
L 513.582441 91.249927 
L 513.71833 91.809257 
L 514.189236 91.249927 
L 514.416695 91.809257 
L 514.647216 91.249927 
L 514.785719 91.809257 
L 515.108278 90.690597 
L 515.331143 91.249927 
L 516.093422 91.249927 
L 516.396687 90.690597 
L 516.8395 90.690597 
L 517.19181 91.809257 
L 517.285713 91.249927 
L 517.662151 91.249927 
L 517.757684 90.131267 
L 518.232455 91.249927 
L 518.398255 90.690597 
L 518.780789 91.249927 
L 519.060021 91.249927 
L 519.203075 90.690597 
L 519.545011 90.690597 
L 519.992808 90.131267 
L 520.05082 91.249927 
L 520.211597 90.131267 
L 520.358996 90.690597 
L 520.447465 90.131267 
L 520.79843 90.690597 
L 521.219538 90.131267 
L 521.431658 90.131267 
L 521.722836 90.690597 
L 522.136724 90.690597 
L 522.561084 89.571938 
L 522.783372 90.131267 
L 523.232862 90.131267 
L 523.443058 90.690597 
L 523.474003 91.249927 
L 523.735859 90.131267 
L 523.874728 90.690597 
L 524.038071 90.131267 
L 524.280784 90.690597 
L 524.555491 90.690597 
L 524.731967 91.249927 
L 525.066648 91.249927 
L 525.415094 90.131267 
L 525.651532 90.690597 
L 525.939465 89.571938 
L 526.089414 89.571938 
L 526.183535 90.131267 
L 526.476375 90.131267 
L 526.500954 89.571938 
L 527.47173 89.571938 
L 527.630767 89.012608 
L 527.766988 89.012608 
L 527.976978 88.453278 
L 528.158098 89.012608 
L 528.29623 88.453278 
L 528.502164 88.453278 
L 528.618091 87.893948 
L 528.767717 88.453278 
L 528.815924 87.893948 
L 528.981565 86.775289 
L 529.183934 87.334619 
L 529.247621 87.893948 
L 529.461043 87.334619 
L 529.635455 87.893948 
L 529.845676 87.334619 
L 530.190174 87.334619 
L 530.286097 86.775289 
L 530.524087 87.334619 
L 531.149112 85.656629 
L 531.317245 85.656629 
L 531.491154 86.775289 
L 531.573371 86.215959 
L 531.819248 86.215959 
L 531.931115 86.775289 
L 532.132166 86.775289 
L 532.315209 86.215959 
L 532.550528 86.215959 
L 532.945601 84.53797 
L 533.15579 85.097299 
L 535.918763 85.097299 
L 536.04734 84.53797 
L 536.21039 84.53797 
L 536.341513 85.097299 
L 536.488689 84.53797 
L 537.260025 84.53797 
L 537.369669 83.41931 
L 537.935207 84.53797 
L 538.548723 84.53797 
L 539.213109 83.41931 
L 540.387615 83.97864 
L 540.685887 83.41931 
L 541.014484 83.97864 
L 541.249167 82.85998 
L 541.343292 83.97864 
L 541.652657 82.85998 
L 541.989722 83.97864 
L 542.101301 82.85998 
L 542.317445 82.85998 
L 542.436263 83.41931 
L 542.651628 82.85998 
L 542.780875 82.85998 
L 542.901264 83.41931 
L 543.047539 81.741321 
L 543.431162 82.85998 
L 543.789966 82.85998 
L 544.009208 82.300651 
L 544.422967 82.300651 
L 544.759455 82.85998 
L 544.956168 82.85998 
L 545.104877 81.741321 
L 545.290374 82.85998 
L 545.393938 82.300651 
L 545.643999 81.741321 
L 545.797326 81.741321 
L 546.065395 82.85998 
L 546.321732 81.181991 
L 546.643921 81.181991 
L 546.668376 80.063331 
L 546.690877 80.622661 
L 546.85938 81.181991 
L 547.03651 80.063331 
L 547.110393 81.181991 
L 547.377405 81.181991 
L 547.413786 80.622661 
L 547.714618 80.063331 
L 547.894662 80.063331 
L 547.979052 81.181991 
L 548.382768 80.063331 
L 548.448148 81.181991 
L 548.668041 80.063331 
L 548.837195 81.741321 
L 549.351406 80.622661 
L 549.738776 82.300651 
L 549.76873 81.741321 
L 550.014096 82.300651 
L 550.169217 82.300651 
L 550.330255 81.181991 
L 550.522569 82.300651 
L 550.892306 81.181991 
L 551.032583 82.300651 
L 551.184467 81.741321 
L 551.493976 81.741321 
L 551.698374 82.300651 
L 552.089644 82.300651 
L 552.101587 81.741321 
L 552.717399 82.85998 
L 553.043995 81.181991 
L 553.217331 81.181991 
L 553.419353 81.741321 
L 553.476457 80.622661 
L 553.763247 81.741321 
L 553.939839 80.622661 
L 554.117863 81.741321 
L 554.191433 81.181991 
L 554.556541 81.181991 
L 554.775342 80.622661 
L 554.875415 79.504002 
L 555.079141 80.622661 
L 555.414318 80.063331 
L 555.562586 79.504002 
L 555.745786 80.063331 
L 555.902202 77.826012 
L 556.14772 77.826012 
L 556.472405 77.266683 
L 556.511575 78.385342 
L 556.831131 77.266683 
L 557.286003 78.385342 
L 557.408912 76.707353 
L 557.777745 76.148023 
L 558.179464 77.266683 
L 558.434073 77.826012 
L 559.141823 77.266683 
L 559.226595 76.707353 
L 560.221306 76.707353 
L 560.522637 76.148023 
L 560.827438 74.470034 
L 561.609991 75.029363 
L 562.211614 75.029363 
L 562.54389 74.470034 
L 562.629539 75.029363 
L 562.881988 73.910704 
L 562.93823 75.029363 
L 563.214528 74.470034 
L 563.715735 74.470034 
L 563.715735 74.470034 
" clip-path="url(#pfb0c9f9790)" style="fill: none; stroke-dasharray: 6,1.5; stroke-dashoffset: 0; stroke: #008000; stroke-width: 1.5"/>
   </g>
   <g id="line2d_20">
    <path d="M 38.539265 361.96554 
L 39.916916 363.0842 
L 41.29012 363.0842 
L 42.618394 362.52487 
L 44.542004 362.52487 
L 48.559485 361.96554 
L 48.672916 362.52487 
L 52.151889 362.52487 
L 52.47976 363.643529 
L 53.205151 363.643529 
L 53.506766 360.287551 
L 53.908731 363.643529 
L 55.866179 363.643529 
L 56.225124 360.287551 
L 58.924746 360.287551 
L 60.347788 360.846881 
L 60.541581 361.40621 
L 61.623326 361.40621 
L 61.92695 359.728221 
L 65.245703 359.728221 
L 65.639341 360.287551 
L 75.757665 360.287551 
L 76.076371 359.728221 
L 82.172841 359.728221 
L 82.476555 361.96554 
L 133.03004 361.96554 
L 133.370915 363.0842 
L 133.783068 366.440178 
L 134.077483 366.440178 
L 134.410265 366.999508 
L 136.408795 366.999508 
L 139.164838 368.677497 
L 139.44625 368.677497 
L 139.918104 369.236827 
L 153.849047 369.236827 
L 154.597637 370.355487 
L 186.204432 370.355487 
L 186.559965 370.914817 
L 186.92907 370.355487 
L 189.078049 370.355487 
L 189.393974 370.914817 
L 195.142458 370.914817 
L 196.404521 372.033476 
L 196.615003 370.914817 
L 197.020158 370.914817 
L 197.354114 372.033476 
L 205.13423 372.033476 
L 205.496674 371.474146 
L 205.707682 372.033476 
L 224.016078 372.033476 
L 224.335845 373.152136 
L 265.111652 373.152136 
L 265.498784 373.711465 
L 359.008554 373.711465 
L 359.382507 373.152136 
L 370.504189 373.152136 
L 370.940044 373.711465 
L 371.056533 374.830125 
L 400.355632 374.830125 
L 400.560034 374.270795 
L 403.431512 374.270795 
L 403.591907 374.830125 
L 519.402702 374.830125 
L 519.429298 374.270795 
L 528.29623 374.270795 
L 528.618091 374.830125 
L 561.862069 374.830125 
L 562.211614 374.270795 
L 563.715735 374.270795 
L 563.715735 374.270795 
" clip-path="url(#pfb0c9f9790)" style="fill: none; stroke-dasharray: 9,3; stroke-dashoffset: 0; stroke: #ffa500; stroke-width: 1.5"/>
   </g>
   <g id="line2d_21">
    <path d="M 38.539265 323.371785 
L 48.559485 323.371785 
L 48.672916 323.931115 
L 52.151889 323.931115 
L 52.47976 324.490445 
L 53.205151 324.490445 
L 53.506766 325.609104 
L 53.908731 324.490445 
L 55.866179 324.490445 
L 56.467775 326.168434 
L 57.883551 326.168434 
L 58.202519 326.727764 
L 58.395387 326.168434 
L 58.556717 326.727764 
L 73.405639 326.727764 
L 73.721732 327.846424 
L 73.846119 326.727764 
L 74.400323 327.846424 
L 92.139526 327.846424 
L 92.891267 328.405753 
L 93.06156 327.846424 
L 94.267373 327.846424 
L 94.594816 328.405753 
L 94.956082 327.846424 
L 95.815626 327.846424 
L 96.290397 328.405753 
L 96.642852 327.846424 
L 123.96916 327.846424 
L 124.263828 328.405753 
L 124.64036 328.405753 
L 124.97425 327.846424 
L 125.317769 327.846424 
L 125.554472 328.405753 
L 125.811012 327.846424 
L 126.237342 328.405753 
L 133.370915 328.405753 
L 133.783068 327.846424 
L 134.077483 327.846424 
L 134.410265 328.965083 
L 136.032381 328.965083 
L 136.408795 331.761732 
L 139.164838 329.524413 
L 139.44625 330.083743 
L 141.41676 330.083743 
L 141.801193 332.880392 
L 142.140197 333.439721 
L 157.411665 333.439721 
L 157.945537 332.880392 
L 158.368009 333.439721 
L 159.310309 332.880392 
L 161.605313 332.880392 
L 162.963038 333.439721 
L 168.631563 333.439721 
L 169.060175 333.999051 
L 204.858653 333.999051 
L 205.13423 334.558381 
L 205.496674 333.999051 
L 211.873772 333.999051 
L 212.278439 341.270338 
L 213.220357 341.270338 
L 213.604681 345.744976 
L 213.943516 347.422966 
L 234.464271 347.422966 
L 237.350485 347.982296 
L 267.80563 347.982296 
L 268.144208 350.219615 
L 275.202268 350.219615 
L 275.521938 346.863636 
L 291.837869 346.863636 
L 292.024629 347.422966 
L 322.406914 347.422966 
L 322.631596 347.982296 
L 322.987815 347.422966 
L 331.195751 347.422966 
L 331.347947 347.982296 
L 331.658482 347.422966 
L 333.739744 347.422966 
L 334.028473 347.982296 
L 334.137591 347.422966 
L 337.225487 347.422966 
L 337.441117 347.982296 
L 347.107299 347.982296 
L 347.296322 347.422966 
L 359.382507 347.422966 
L 359.660385 346.863636 
L 359.799687 347.422966 
L 359.971061 346.863636 
L 360.079738 347.422966 
L 360.297774 347.422966 
L 360.389153 346.863636 
L 360.633665 347.422966 
L 362.089719 347.422966 
L 362.364067 346.863636 
L 362.486968 347.422966 
L 370.940044 347.422966 
L 371.056533 346.863636 
L 400.355632 346.863636 
L 400.560034 347.422966 
L 405.15092 347.422966 
L 405.25086 350.219615 
L 405.543821 347.422966 
L 408.199116 347.422966 
L 408.213652 350.219615 
L 408.545385 347.422966 
L 408.572905 350.219615 
L 435.136376 350.219615 
L 435.469584 349.660285 
L 435.755832 350.219615 
L 468.09776 350.219615 
L 468.314401 350.778944 
L 468.454603 350.219615 
L 468.784437 350.219615 
L 469.256685 350.778944 
L 490.55966 350.778944 
L 490.805591 351.338274 
L 493.835659 351.338274 
L 494.141389 351.897604 
L 500.200038 351.897604 
L 500.324741 351.338274 
L 507.284546 351.338274 
L 507.540025 351.897604 
L 519.402702 351.897604 
L 519.429298 355.812913 
L 528.29623 355.812913 
L 528.618091 355.253583 
L 536.604594 355.253583 
L 537.369669 357.490902 
L 545.104877 357.490902 
L 545.393938 356.931572 
L 559.491376 356.931572 
L 559.979482 356.372242 
L 561.862069 356.372242 
L 562.211614 358.609561 
L 562.629539 359.168891 
L 563.715735 359.168891 
L 563.715735 359.168891 
" clip-path="url(#pfb0c9f9790)" style="fill: none; stroke-dasharray: 12,4.5; stroke-dashoffset: 0; stroke: #ee82ee; stroke-width: 1.5"/>
   </g>
   <g id="patch_3">
    <path d="M 33.2875 374.830125 
L 33.2875 22.318125 
" style="fill: none; stroke: #000000; stroke-width: 0.8; stroke-linejoin: miter; stroke-linecap: square"/>
   </g>
   <g id="patch_4">
    <path d="M 568.9675 374.830125 
L 568.9675 22.318125 
" style="fill: none; stroke: #000000; stroke-width: 0.8; stroke-linejoin: miter; stroke-linecap: square"/>
   </g>
   <g id="patch_5">
    <path d="M 33.2875 374.830125 
L 568.9675 374.830125 
" style="fill: none; stroke: #000000; stroke-width: 0.8; stroke-linejoin: miter; stroke-linecap: square"/>
   </g>
   <g id="patch_6">
    <path d="M 33.2875 22.318125 
L 568.9675 22.318125 
" style="fill: none; stroke: #000000; stroke-width: 0.8; stroke-linejoin: miter; stroke-linecap: square"/>
   </g>
   <g id="text_17">
    <!-- Rust/Coreutils running GNU's testsuite -->
    <g transform="translate(186.090625 16.318125) scale(0.12 -0.12)">
     <defs>
      <path id="DejaVuSans-52" d="M 2841 2188 
Q 3044 2119 3236 1894 
Q 3428 1669 3622 1275 
L 4263 0 
L 3584 0 
L 2988 1197 
Q 2756 1666 2539 1819 
Q 2322 1972 1947 1972 
L 1259 1972 
L 1259 0 
L 628 0 
L 628 4666 
L 2053 4666 
Q 2853 4666 3247 4331 
Q 3641 3997 3641 3322 
Q 3641 2881 3436 2590 
Q 3231 2300 2841 2188 
z
M 1259 4147 
L 1259 2491 
L 2053 2491 
Q 2509 2491 2742 2702 
Q 2975 2913 2975 3322 
Q 2975 3731 2742 3939 
Q 2509 4147 2053 4147 
L 1259 4147 
z
" transform="scale(0.015625)"/>
      <path id="DejaVuSans-75" d="M 544 1381 
L 544 3500 
L 1119 3500 
L 1119 1403 
Q 1119 906 1312 657 
Q 1506 409 1894 409 
Q 2359 409 2629 706 
Q 2900 1003 2900 1516 
L 2900 3500 
L 3475 3500 
L 3475 0 
L 2900 0 
L 2900 538 
Q 2691 219 2414 64 
Q 2138 -91 1772 -91 
Q 1169 -91 856 284 
Q 544 659 544 1381 
z
M 1991 3584 
L 1991 3584 
z
" transform="scale(0.015625)"/>
      <path id="DejaVuSans-73" d="M 2834 3397 
L 2834 2853 
Q 2591 2978 2328 3040 
Q 2066 3103 1784 3103 
Q 1356 3103 1142 2972 
Q 928 2841 928 2578 
Q 928 2378 1081 2264 
Q 1234 2150 1697 2047 
L 1894 2003 
Q 2506 1872 2764 1633 
Q 3022 1394 3022 966 
Q 3022 478 2636 193 
Q 2250 -91 1575 -91 
Q 1294 -91 989 -36 
Q 684 19 347 128 
L 347 722 
Q 666 556 975 473 
Q 1284 391 1588 391 
Q 1994 391 2212 530 
Q 2431 669 2431 922 
Q 2431 1156 2273 1281 
Q 2116 1406 1581 1522 
L 1381 1569 
Q 847 1681 609 1914 
Q 372 2147 372 2553 
Q 372 3047 722 3315 
Q 1072 3584 1716 3584 
Q 2034 3584 2315 3537 
Q 2597 3491 2834 3397 
z
" transform="scale(0.015625)"/>
      <path id="DejaVuSans-74" d="M 1172 4494 
L 1172 3500 
L 2356 3500 
L 2356 3053 
L 1172 3053 
L 1172 1153 
Q 1172 725 1289 603 
Q 1406 481 1766 481 
L 2356 481 
L 2356 0 
L 1766 0 
Q 1100 0 847 248 
Q 594 497 594 1153 
L 594 3053 
L 172 3053 
L 172 3500 
L 594 3500 
L 594 4494 
L 1172 4494 
z
" transform="scale(0.015625)"/>
      <path id="DejaVuSans-2f" d="M 1625 4666 
L 2156 4666 
L 531 -594 
L 0 -594 
L 1625 4666 
z
" transform="scale(0.015625)"/>
      <path id="DejaVuSans-43" d="M 4122 4306 
L 4122 3641 
Q 3803 3938 3442 4084 
Q 3081 4231 2675 4231 
Q 1875 4231 1450 3742 
Q 1025 3253 1025 2328 
Q 1025 1406 1450 917 
Q 1875 428 2675 428 
Q 3081 428 3442 575 
Q 3803 722 4122 1019 
L 4122 359 
Q 3791 134 3420 21 
Q 3050 -91 2638 -91 
Q 1578 -91 968 557 
Q 359 1206 359 2328 
Q 359 3453 968 4101 
Q 1578 4750 2638 4750 
Q 3056 4750 3426 4639 
Q 3797 4528 4122 4306 
z
" transform="scale(0.015625)"/>
      <path id="DejaVuSans-6f" d="M 1959 3097 
Q 1497 3097 1228 2736 
Q 959 2375 959 1747 
Q 959 1119 1226 758 
Q 1494 397 1959 397 
Q 2419 397 2687 759 
Q 2956 1122 2956 1747 
Q 2956 2369 2687 2733 
Q 2419 3097 1959 3097 
z
M 1959 3584 
Q 2709 3584 3137 3096 
Q 3566 2609 3566 1747 
Q 3566 888 3137 398 
Q 2709 -91 1959 -91 
Q 1206 -91 779 398 
Q 353 888 353 1747 
Q 353 2609 779 3096 
Q 1206 3584 1959 3584 
z
" transform="scale(0.015625)"/>
      <path id="DejaVuSans-72" d="M 2631 2963 
Q 2534 3019 2420 3045 
Q 2306 3072 2169 3072 
Q 1681 3072 1420 2755 
Q 1159 2438 1159 1844 
L 1159 0 
L 581 0 
L 581 3500 
L 1159 3500 
L 1159 2956 
Q 1341 3275 1631 3429 
Q 1922 3584 2338 3584 
Q 2397 3584 2469 3576 
Q 2541 3569 2628 3553 
L 2631 2963 
z
" transform="scale(0.015625)"/>
      <path id="DejaVuSans-65" d="M 3597 1894 
L 3597 1613 
L 953 1613 
Q 991 1019 1311 708 
Q 1631 397 2203 397 
Q 2534 397 2845 478 
Q 3156 559 3463 722 
L 3463 178 
Q 3153 47 2828 -22 
Q 2503 -91 2169 -91 
Q 1331 -91 842 396 
Q 353 884 353 1716 
Q 353 2575 817 3079 
Q 1281 3584 2069 3584 
Q 2775 3584 3186 3129 
Q 3597 2675 3597 1894 
z
M 3022 2063 
Q 3016 2534 2758 2815 
Q 2500 3097 2075 3097 
Q 1594 3097 1305 2825 
Q 1016 2553 972 2059 
L 3022 2063 
z
" transform="scale(0.015625)"/>
      <path id="DejaVuSans-69" d="M 603 3500 
L 1178 3500 
L 1178 0 
L 603 0 
L 603 3500 
z
M 603 4863 
L 1178 4863 
L 1178 4134 
L 603 4134 
L 603 4863 
z
" transform="scale(0.015625)"/>
      <path id="DejaVuSans-6c" d="M 603 4863 
L 1178 4863 
L 1178 0 
L 603 0 
L 603 4863 
z
" transform="scale(0.015625)"/>
      <path id="DejaVuSans-20" transform="scale(0.015625)"/>
      <path id="DejaVuSans-6e" d="M 3513 2113 
L 3513 0 
L 2938 0 
L 2938 2094 
Q 2938 2591 2744 2837 
Q 2550 3084 2163 3084 
Q 1697 3084 1428 2787 
Q 1159 2491 1159 1978 
L 1159 0 
L 581 0 
L 581 3500 
L 1159 3500 
L 1159 2956 
Q 1366 3272 1645 3428 
Q 1925 3584 2291 3584 
Q 2894 3584 3203 3211 
Q 3513 2838 3513 2113 
z
" transform="scale(0.015625)"/>
      <path id="DejaVuSans-67" d="M 2906 1791 
Q 2906 2416 2648 2759 
Q 2391 3103 1925 3103 
Q 1463 3103 1205 2759 
Q 947 2416 947 1791 
Q 947 1169 1205 825 
Q 1463 481 1925 481 
Q 2391 481 2648 825 
Q 2906 1169 2906 1791 
z
M 3481 434 
Q 3481 -459 3084 -895 
Q 2688 -1331 1869 -1331 
Q 1566 -1331 1297 -1286 
Q 1028 -1241 775 -1147 
L 775 -588 
Q 1028 -725 1275 -790 
Q 1522 -856 1778 -856 
Q 2344 -856 2625 -561 
Q 2906 -266 2906 331 
L 2906 616 
Q 2728 306 2450 153 
Q 2172 0 1784 0 
Q 1141 0 747 490 
Q 353 981 353 1791 
Q 353 2603 747 3093 
Q 1141 3584 1784 3584 
Q 2172 3584 2450 3431 
Q 2728 3278 2906 2969 
L 2906 3500 
L 3481 3500 
L 3481 434 
z
" transform="scale(0.015625)"/>
      <path id="DejaVuSans-47" d="M 3809 666 
L 3809 1919 
L 2778 1919 
L 2778 2438 
L 4434 2438 
L 4434 434 
Q 4069 175 3628 42 
Q 3188 -91 2688 -91 
Q 1594 -91 976 548 
Q 359 1188 359 2328 
Q 359 3472 976 4111 
Q 1594 4750 2688 4750 
Q 3144 4750 3555 4637 
Q 3966 4525 4313 4306 
L 4313 3634 
Q 3963 3931 3569 4081 
Q 3175 4231 2741 4231 
Q 1884 4231 1454 3753 
Q 1025 3275 1025 2328 
Q 1025 1384 1454 906 
Q 1884 428 2741 428 
Q 3075 428 3337 486 
Q 3600 544 3809 666 
z
" transform="scale(0.015625)"/>
      <path id="DejaVuSans-4e" d="M 628 4666 
L 1478 4666 
L 3547 763 
L 3547 4666 
L 4159 4666 
L 4159 0 
L 3309 0 
L 1241 3903 
L 1241 0 
L 628 0 
L 628 4666 
z
" transform="scale(0.015625)"/>
      <path id="DejaVuSans-55" d="M 556 4666 
L 1191 4666 
L 1191 1831 
Q 1191 1081 1462 751 
Q 1734 422 2344 422 
Q 2950 422 3222 751 
Q 3494 1081 3494 1831 
L 3494 4666 
L 4128 4666 
L 4128 1753 
Q 4128 841 3676 375 
Q 3225 -91 2344 -91 
Q 1459 -91 1007 375 
Q 556 841 556 1753 
L 556 4666 
z
" transform="scale(0.015625)"/>
      <path id="DejaVuSans-27" d="M 1147 4666 
L 1147 2931 
L 616 2931 
L 616 4666 
L 1147 4666 
z
" transform="scale(0.015625)"/>
     </defs>
     <use xlink:href="#DejaVuSans-52"/>
     <use xlink:href="#DejaVuSans-75" x="64.982422"/>
     <use xlink:href="#DejaVuSans-73" x="128.361328"/>
     <use xlink:href="#DejaVuSans-74" x="180.460938"/>
     <use xlink:href="#DejaVuSans-2f" x="219.669922"/>
     <use xlink:href="#DejaVuSans-43" x="253.361328"/>
     <use xlink:href="#DejaVuSans-6f" x="323.185547"/>
     <use xlink:href="#DejaVuSans-72" x="384.367188"/>
     <use xlink:href="#DejaVuSans-65" x="423.230469"/>
     <use xlink:href="#DejaVuSans-75" x="484.753906"/>
     <use xlink:href="#DejaVuSans-74" x="548.132812"/>
     <use xlink:href="#DejaVuSans-69" x="587.341797"/>
     <use xlink:href="#DejaVuSans-6c" x="615.125"/>
     <use xlink:href="#DejaVuSans-73" x="642.908203"/>
     <use xlink:href="#DejaVuSans-20" x="695.007812"/>
     <use xlink:href="#DejaVuSans-72" x="726.794922"/>
     <use xlink:href="#DejaVuSans-75" x="767.908203"/>
     <use xlink:href="#DejaVuSans-6e" x="831.287109"/>
     <use xlink:href="#DejaVuSans-6e" x="894.666016"/>
     <use xlink:href="#DejaVuSans-69" x="958.044922"/>
     <use xlink:href="#DejaVuSans-6e" x="985.828125"/>
     <use xlink:href="#DejaVuSans-67" x="1049.207031"/>
     <use xlink:href="#DejaVuSans-20" x="1112.683594"/>
     <use xlink:href="#DejaVuSans-47" x="1144.470703"/>
     <use xlink:href="#DejaVuSans-4e" x="1221.960938"/>
     <use xlink:href="#DejaVuSans-55" x="1296.765625"/>
     <use xlink:href="#DejaVuSans-27" x="1369.958984"/>
     <use xlink:href="#DejaVuSans-73" x="1397.449219"/>
     <use xlink:href="#DejaVuSans-20" x="1449.548828"/>
     <use xlink:href="#DejaVuSans-74" x="1481.335938"/>
     <use xlink:href="#DejaVuSans-65" x="1520.544922"/>
     <use xlink:href="#DejaVuSans-73" x="1582.068359"/>
     <use xlink:href="#DejaVuSans-74" x="1634.167969"/>
     <use xlink:href="#DejaVuSans-73" x="1673.376953"/>
     <use xlink:href="#DejaVuSans-75" x="1725.476562"/>
     <use xlink:href="#DejaVuSans-69" x="1788.855469"/>
     <use xlink:href="#DejaVuSans-74" x="1816.638672"/>
     <use xlink:href="#DejaVuSans-65" x="1855.847656"/>
    </g>
   </g>
   <g id="legend_1">
    <g id="patch_7">
     <path d="M 505.762812 236.769437 
L 561.9675 236.769437 
Q 563.9675 236.769437 563.9675 234.769437 
L 563.9675 162.378812 
Q 563.9675 160.378812 561.9675 160.378812 
L 505.762812 160.378812 
Q 503.762812 160.378812 503.762812 162.378812 
L 503.762812 234.769437 
Q 503.762812 236.769437 505.762812 236.769437 
z
" style="fill: #ffffff; opacity: 0.8; stroke: #cccccc; stroke-linejoin: miter"/>
    </g>
    <g id="line2d_22">
     <path d="M 507.762812 168.47725 
L 517.762812 168.47725 
L 527.762812 168.47725 
" style="fill: none; stroke: #0000ff; stroke-width: 1.5; stroke-linecap: square"/>
    </g>
    <g id="text_18">
     <!-- total -->
     <g transform="translate(535.762812 171.97725) scale(0.1 -0.1)">
      <defs>
       <path id="DejaVuSans-61" d="M 2194 1759 
Q 1497 1759 1228 1600 
Q 959 1441 959 1056 
Q 959 750 1161 570 
Q 1363 391 1709 391 
Q 2188 391 2477 730 
Q 2766 1069 2766 1631 
L 2766 1759 
L 2194 1759 
z
M 3341 1997 
L 3341 0 
L 2766 0 
L 2766 531 
Q 2569 213 2275 61 
Q 1981 -91 1556 -91 
Q 1019 -91 701 211 
Q 384 513 384 1019 
Q 384 1609 779 1909 
Q 1175 2209 1959 2209 
L 2766 2209 
L 2766 2266 
Q 2766 2663 2505 2880 
Q 2244 3097 1772 3097 
Q 1472 3097 1187 3025 
Q 903 2953 641 2809 
L 641 3341 
Q 956 3463 1253 3523 
Q 1550 3584 1831 3584 
Q 2591 3584 2966 3190 
Q 3341 2797 3341 1997 
z
" transform="scale(0.015625)"/>
      </defs>
      <use xlink:href="#DejaVuSans-74"/>
      <use xlink:href="#DejaVuSans-6f" x="39.208984"/>
      <use xlink:href="#DejaVuSans-74" x="100.390625"/>
      <use xlink:href="#DejaVuSans-61" x="139.599609"/>
      <use xlink:href="#DejaVuSans-6c" x="200.878906"/>
     </g>
    </g>
    <g id="line2d_23">
     <path d="M 507.762812 183.155375 
L 517.762812 183.155375 
L 527.762812 183.155375 
" style="fill: none; stroke-dasharray: 3,1.5; stroke-dashoffset: 0; stroke: #808080; stroke-width: 1.5"/>
    </g>
    <g id="text_19">
     <!-- fail -->
     <g transform="translate(535.762812 186.655375) scale(0.1 -0.1)">
      <defs>
       <path id="DejaVuSans-66" d="M 2375 4863 
L 2375 4384 
L 1825 4384 
Q 1516 4384 1395 4259 
Q 1275 4134 1275 3809 
L 1275 3500 
L 2222 3500 
L 2222 3053 
L 1275 3053 
L 1275 0 
L 697 0 
L 697 3053 
L 147 3053 
L 147 3500 
L 697 3500 
L 697 3744 
Q 697 4328 969 4595 
Q 1241 4863 1831 4863 
L 2375 4863 
z
" transform="scale(0.015625)"/>
      </defs>
      <use xlink:href="#DejaVuSans-66"/>
      <use xlink:href="#DejaVuSans-61" x="35.205078"/>
      <use xlink:href="#DejaVuSans-69" x="96.484375"/>
      <use xlink:href="#DejaVuSans-6c" x="124.267578"/>
     </g>
    </g>
    <g id="line2d_24">
     <path d="M 507.762812 197.8335 
L 517.762812 197.8335 
L 527.762812 197.8335 
" style="fill: none; stroke-dasharray: 6,1.5; stroke-dashoffset: 0; stroke: #008000; stroke-width: 1.5"/>
    </g>
    <g id="text_20">
     <!-- pass -->
     <g transform="translate(535.762812 201.3335) scale(0.1 -0.1)">
      <defs>
       <path id="DejaVuSans-70" d="M 1159 525 
L 1159 -1331 
L 581 -1331 
L 581 3500 
L 1159 3500 
L 1159 2969 
Q 1341 3281 1617 3432 
Q 1894 3584 2278 3584 
Q 2916 3584 3314 3078 
Q 3713 2572 3713 1747 
Q 3713 922 3314 415 
Q 2916 -91 2278 -91 
Q 1894 -91 1617 61 
Q 1341 213 1159 525 
z
M 3116 1747 
Q 3116 2381 2855 2742 
Q 2594 3103 2138 3103 
Q 1681 3103 1420 2742 
Q 1159 2381 1159 1747 
Q 1159 1113 1420 752 
Q 1681 391 2138 391 
Q 2594 391 2855 752 
Q 3116 1113 3116 1747 
z
" transform="scale(0.015625)"/>
      </defs>
      <use xlink:href="#DejaVuSans-70"/>
      <use xlink:href="#DejaVuSans-61" x="63.476562"/>
      <use xlink:href="#DejaVuSans-73" x="124.755859"/>
      <use xlink:href="#DejaVuSans-73" x="176.855469"/>
     </g>
    </g>
    <g id="line2d_25">
     <path d="M 507.762812 212.511625 
L 517.762812 212.511625 
L 527.762812 212.511625 
" style="fill: none; stroke-dasharray: 9,3; stroke-dashoffset: 0; stroke: #ffa500; stroke-width: 1.5"/>
    </g>
    <g id="text_21">
     <!-- error -->
     <g transform="translate(535.762812 216.011625) scale(0.1 -0.1)">
      <use xlink:href="#DejaVuSans-65"/>
      <use xlink:href="#DejaVuSans-72" x="61.523438"/>
      <use xlink:href="#DejaVuSans-72" x="100.886719"/>
      <use xlink:href="#DejaVuSans-6f" x="139.75"/>
      <use xlink:href="#DejaVuSans-72" x="200.931641"/>
     </g>
    </g>
    <g id="line2d_26">
     <path d="M 507.762812 227.18975 
L 517.762812 227.18975 
L 527.762812 227.18975 
" style="fill: none; stroke-dasharray: 12,4.5; stroke-dashoffset: 0; stroke: #ee82ee; stroke-width: 1.5"/>
    </g>
    <g id="text_22">
     <!-- skip -->
     <g transform="translate(535.762812 230.68975) scale(0.1 -0.1)">
      <defs>
       <path id="DejaVuSans-6b" d="M 581 4863 
L 1159 4863 
L 1159 1991 
L 2875 3500 
L 3609 3500 
L 1753 1863 
L 3688 0 
L 2938 0 
L 1159 1709 
L 1159 0 
L 581 0 
L 581 4863 
z
" transform="scale(0.015625)"/>
      </defs>
      <use xlink:href="#DejaVuSans-73"/>
      <use xlink:href="#DejaVuSans-6b" x="52.099609"/>
      <use xlink:href="#DejaVuSans-69" x="110.009766"/>
      <use xlink:href="#DejaVuSans-70" x="137.792969"/>
     </g>
    </g>
   </g>
  </g>
 </g>
 <defs>
  <clipPath id="pfb0c9f9790">
   <rect x="33.2875" y="22.318125" width="535.68" height="352.512"/>
  </clipPath>
 </defs>
</svg>
