<?xml version="1.0" encoding="utf-8" standalone="no"?>
<!DOCTYPE svg PUBLIC "-//W3C//DTD SVG 1.1//EN"
  "http://www.w3.org/Graphics/SVG/1.1/DTD/svg11.dtd">
<svg xmlns:xlink="http://www.w3.org/1999/xlink" width="576.1675pt" height="418.303033pt" viewBox="0 0 576.1675 418.303033" xmlns="http://www.w3.org/2000/svg" version="1.1">
 <metadata>
  <rdf:RDF xmlns:dc="http://purl.org/dc/elements/1.1/" xmlns:cc="http://creativecommons.org/ns#" xmlns:rdf="http://www.w3.org/1999/02/22-rdf-syntax-ns#">
   <cc:Work>
    <dc:type rdf:resource="http://purl.org/dc/dcmitype/StillImage"/>
    <dc:date>2025-11-14T09:06:19.269205</dc:date>
    <dc:format>image/svg+xml</dc:format>
    <dc:creator>
     <cc:Agent>
      <dc:title>Matplotlib v3.6.3, https://matplotlib.org/</dc:title>
     </cc:Agent>
    </dc:creator>
   </cc:Work>
  </rdf:RDF>
 </metadata>
 <defs>
  <style type="text/css">*{stroke-linejoin: round; stroke-linecap: butt}</style>
 </defs>
 <g id="figure_1">
  <g id="patch_1">
   <path d="M -0 418.303033 
L 576.1675 418.303033 
L 576.1675 0 
L -0 0 
z
" style="fill: #ffffff"/>
  </g>
  <g id="axes_1">
   <g id="patch_2">
    <path d="M 33.2875 374.830125 
L 568.9675 374.830125 
L 568.9675 22.318125 
L 33.2875 22.318125 
z
" style="fill: #ffffff"/>
   </g>
   <g id="matplotlib.axis_1">
    <g id="xtick_1">
     <g id="line2d_1">
      <defs>
       <path id="ma1825a91a2" d="M 0 0 
L 0 3.5 
" style="stroke: #000000; stroke-width: 0.8"/>
      </defs>
      <g>
       <use xlink:href="#ma1825a91a2" x="61.013457" y="374.830125" style="stroke: #000000; stroke-width: 0.8"/>
      </g>
     </g>
     <g id="text_1">
      <!-- 2021-07 -->
      <g transform="translate(23.788636 409.301971) rotate(-30) scale(0.1 -0.1)">
       <defs>
        <path id="DejaVuSans-32" d="M 1228 531 
L 3431 531 
L 3431 0 
L 469 0 
L 469 531 
Q 828 903 1448 1529 
Q 2069 2156 2228 2338 
Q 2531 2678 2651 2914 
Q 2772 3150 2772 3378 
Q 2772 3750 2511 3984 
Q 2250 4219 1831 4219 
Q 1534 4219 1204 4116 
Q 875 4013 500 3803 
L 500 4441 
Q 881 4594 1212 4672 
Q 1544 4750 1819 4750 
Q 2544 4750 2975 4387 
Q 3406 4025 3406 3419 
Q 3406 3131 3298 2873 
Q 3191 2616 2906 2266 
Q 2828 2175 2409 1742 
Q 1991 1309 1228 531 
z
" transform="scale(0.015625)"/>
        <path id="DejaVuSans-30" d="M 2034 4250 
Q 1547 4250 1301 3770 
Q 1056 3291 1056 2328 
Q 1056 1369 1301 889 
Q 1547 409 2034 409 
Q 2525 409 2770 889 
Q 3016 1369 3016 2328 
Q 3016 3291 2770 3770 
Q 2525 4250 2034 4250 
z
M 2034 4750 
Q 2819 4750 3233 4129 
Q 3647 3509 3647 2328 
Q 3647 1150 3233 529 
Q 2819 -91 2034 -91 
Q 1250 -91 836 529 
Q 422 1150 422 2328 
Q 422 3509 836 4129 
Q 1250 4750 2034 4750 
z
" transform="scale(0.015625)"/>
        <path id="DejaVuSans-31" d="M 794 531 
L 1825 531 
L 1825 4091 
L 703 3866 
L 703 4441 
L 1819 4666 
L 2450 4666 
L 2450 531 
L 3481 531 
L 3481 0 
L 794 0 
L 794 531 
z
" transform="scale(0.015625)"/>
        <path id="DejaVuSans-2d" d="M 313 2009 
L 1997 2009 
L 1997 1497 
L 313 1497 
L 313 2009 
z
" transform="scale(0.015625)"/>
        <path id="DejaVuSans-37" d="M 525 4666 
L 3525 4666 
L 3525 4397 
L 1831 0 
L 1172 0 
L 2766 4134 
L 525 4134 
L 525 4666 
z
" transform="scale(0.015625)"/>
       </defs>
       <use xlink:href="#DejaVuSans-32"/>
       <use xlink:href="#DejaVuSans-30" x="63.623047"/>
       <use xlink:href="#DejaVuSans-32" x="127.246094"/>
       <use xlink:href="#DejaVuSans-31" x="190.869141"/>
       <use xlink:href="#DejaVuSans-2d" x="254.492188"/>
       <use xlink:href="#DejaVuSans-30" x="290.576172"/>
       <use xlink:href="#DejaVuSans-37" x="354.199219"/>
      </g>
     </g>
    </g>
    <g id="xtick_2">
     <g id="line2d_2">
      <g>
       <use xlink:href="#ma1825a91a2" x="118.920128" y="374.830125" style="stroke: #000000; stroke-width: 0.8"/>
      </g>
     </g>
     <g id="text_2">
      <!-- 2022-01 -->
      <g transform="translate(81.695307 409.301971) rotate(-30) scale(0.1 -0.1)">
       <use xlink:href="#DejaVuSans-32"/>
       <use xlink:href="#DejaVuSans-30" x="63.623047"/>
       <use xlink:href="#DejaVuSans-32" x="127.246094"/>
       <use xlink:href="#DejaVuSans-32" x="190.869141"/>
       <use xlink:href="#DejaVuSans-2d" x="254.492188"/>
       <use xlink:href="#DejaVuSans-30" x="290.576172"/>
       <use xlink:href="#DejaVuSans-31" x="354.199219"/>
      </g>
     </g>
    </g>
    <g id="xtick_3">
     <g id="line2d_3">
      <g>
       <use xlink:href="#ma1825a91a2" x="175.882668" y="374.830125" style="stroke: #000000; stroke-width: 0.8"/>
      </g>
     </g>
     <g id="text_3">
      <!-- 2022-07 -->
      <g transform="translate(138.657847 409.301971) rotate(-30) scale(0.1 -0.1)">
       <use xlink:href="#DejaVuSans-32"/>
       <use xlink:href="#DejaVuSans-30" x="63.623047"/>
       <use xlink:href="#DejaVuSans-32" x="127.246094"/>
       <use xlink:href="#DejaVuSans-32" x="190.869141"/>
       <use xlink:href="#DejaVuSans-2d" x="254.492188"/>
       <use xlink:href="#DejaVuSans-30" x="290.576172"/>
       <use xlink:href="#DejaVuSans-37" x="354.199219"/>
      </g>
     </g>
    </g>
    <g id="xtick_4">
     <g id="line2d_4">
      <g>
       <use xlink:href="#ma1825a91a2" x="233.789339" y="374.830125" style="stroke: #000000; stroke-width: 0.8"/>
      </g>
     </g>
     <g id="text_4">
      <!-- 2023-01 -->
      <g transform="translate(196.564518 409.301971) rotate(-30) scale(0.1 -0.1)">
       <defs>
        <path id="DejaVuSans-33" d="M 2597 2516 
Q 3050 2419 3304 2112 
Q 3559 1806 3559 1356 
Q 3559 666 3084 287 
Q 2609 -91 1734 -91 
Q 1441 -91 1130 -33 
Q 819 25 488 141 
L 488 750 
Q 750 597 1062 519 
Q 1375 441 1716 441 
Q 2309 441 2620 675 
Q 2931 909 2931 1356 
Q 2931 1769 2642 2001 
Q 2353 2234 1838 2234 
L 1294 2234 
L 1294 2753 
L 1863 2753 
Q 2328 2753 2575 2939 
Q 2822 3125 2822 3475 
Q 2822 3834 2567 4026 
Q 2313 4219 1838 4219 
Q 1578 4219 1281 4162 
Q 984 4106 628 3988 
L 628 4550 
Q 988 4650 1302 4700 
Q 1616 4750 1894 4750 
Q 2613 4750 3031 4423 
Q 3450 4097 3450 3541 
Q 3450 3153 3228 2886 
Q 3006 2619 2597 2516 
z
" transform="scale(0.015625)"/>
       </defs>
       <use xlink:href="#DejaVuSans-32"/>
       <use xlink:href="#DejaVuSans-30" x="63.623047"/>
       <use xlink:href="#DejaVuSans-32" x="127.246094"/>
       <use xlink:href="#DejaVuSans-33" x="190.869141"/>
       <use xlink:href="#DejaVuSans-2d" x="254.492188"/>
       <use xlink:href="#DejaVuSans-30" x="290.576172"/>
       <use xlink:href="#DejaVuSans-31" x="354.199219"/>
      </g>
     </g>
    </g>
    <g id="xtick_5">
     <g id="line2d_5">
      <g>
       <use xlink:href="#ma1825a91a2" x="290.751879" y="374.830125" style="stroke: #000000; stroke-width: 0.8"/>
      </g>
     </g>
     <g id="text_5">
      <!-- 2023-07 -->
      <g transform="translate(253.527058 409.301971) rotate(-30) scale(0.1 -0.1)">
       <use xlink:href="#DejaVuSans-32"/>
       <use xlink:href="#DejaVuSans-30" x="63.623047"/>
       <use xlink:href="#DejaVuSans-32" x="127.246094"/>
       <use xlink:href="#DejaVuSans-33" x="190.869141"/>
       <use xlink:href="#DejaVuSans-2d" x="254.492188"/>
       <use xlink:href="#DejaVuSans-30" x="290.576172"/>
       <use xlink:href="#DejaVuSans-37" x="354.199219"/>
      </g>
     </g>
    </g>
    <g id="xtick_6">
     <g id="line2d_6">
      <g>
       <use xlink:href="#ma1825a91a2" x="348.65855" y="374.830125" style="stroke: #000000; stroke-width: 0.8"/>
      </g>
     </g>
     <g id="text_6">
      <!-- 2024-01 -->
      <g transform="translate(311.433729 409.301971) rotate(-30) scale(0.1 -0.1)">
       <defs>
        <path id="DejaVuSans-34" d="M 2419 4116 
L 825 1625 
L 2419 1625 
L 2419 4116 
z
M 2253 4666 
L 3047 4666 
L 3047 1625 
L 3713 1625 
L 3713 1100 
L 3047 1100 
L 3047 0 
L 2419 0 
L 2419 1100 
L 313 1100 
L 313 1709 
L 2253 4666 
z
" transform="scale(0.015625)"/>
       </defs>
       <use xlink:href="#DejaVuSans-32"/>
       <use xlink:href="#DejaVuSans-30" x="63.623047"/>
       <use xlink:href="#DejaVuSans-32" x="127.246094"/>
       <use xlink:href="#DejaVuSans-34" x="190.869141"/>
       <use xlink:href="#DejaVuSans-2d" x="254.492188"/>
       <use xlink:href="#DejaVuSans-30" x="290.576172"/>
       <use xlink:href="#DejaVuSans-31" x="354.199219"/>
      </g>
     </g>
    </g>
    <g id="xtick_7">
     <g id="line2d_7">
      <g>
       <use xlink:href="#ma1825a91a2" x="405.9358" y="374.830125" style="stroke: #000000; stroke-width: 0.8"/>
      </g>
     </g>
     <g id="text_7">
      <!-- 2024-07 -->
      <g transform="translate(368.710979 409.301971) rotate(-30) scale(0.1 -0.1)">
       <use xlink:href="#DejaVuSans-32"/>
       <use xlink:href="#DejaVuSans-30" x="63.623047"/>
       <use xlink:href="#DejaVuSans-32" x="127.246094"/>
       <use xlink:href="#DejaVuSans-34" x="190.869141"/>
       <use xlink:href="#DejaVuSans-2d" x="254.492188"/>
       <use xlink:href="#DejaVuSans-30" x="290.576172"/>
       <use xlink:href="#DejaVuSans-37" x="354.199219"/>
      </g>
     </g>
    </g>
    <g id="xtick_8">
     <g id="line2d_8">
      <g>
       <use xlink:href="#ma1825a91a2" x="463.842471" y="374.830125" style="stroke: #000000; stroke-width: 0.8"/>
      </g>
     </g>
     <g id="text_8">
      <!-- 2025-01 -->
      <g transform="translate(426.61765 409.301971) rotate(-30) scale(0.1 -0.1)">
       <defs>
        <path id="DejaVuSans-35" d="M 691 4666 
L 3169 4666 
L 3169 4134 
L 1269 4134 
L 1269 2991 
Q 1406 3038 1543 3061 
Q 1681 3084 1819 3084 
Q 2600 3084 3056 2656 
Q 3513 2228 3513 1497 
Q 3513 744 3044 326 
Q 2575 -91 1722 -91 
Q 1428 -91 1123 -41 
Q 819 9 494 109 
L 494 744 
Q 775 591 1075 516 
Q 1375 441 1709 441 
Q 2250 441 2565 725 
Q 2881 1009 2881 1497 
Q 2881 1984 2565 2268 
Q 2250 2553 1709 2553 
Q 1456 2553 1204 2497 
Q 953 2441 691 2322 
L 691 4666 
z
" transform="scale(0.015625)"/>
       </defs>
       <use xlink:href="#DejaVuSans-32"/>
       <use xlink:href="#DejaVuSans-30" x="63.623047"/>
       <use xlink:href="#DejaVuSans-32" x="127.246094"/>
       <use xlink:href="#DejaVuSans-35" x="190.869141"/>
       <use xlink:href="#DejaVuSans-2d" x="254.492188"/>
       <use xlink:href="#DejaVuSans-30" x="290.576172"/>
       <use xlink:href="#DejaVuSans-31" x="354.199219"/>
      </g>
     </g>
    </g>
    <g id="xtick_9">
     <g id="line2d_9">
      <g>
       <use xlink:href="#ma1825a91a2" x="520.805011" y="374.830125" style="stroke: #000000; stroke-width: 0.8"/>
      </g>
     </g>
     <g id="text_9">
      <!-- 2025-07 -->
      <g transform="translate(483.58019 409.301971) rotate(-30) scale(0.1 -0.1)">
       <use xlink:href="#DejaVuSans-32"/>
       <use xlink:href="#DejaVuSans-30" x="63.623047"/>
       <use xlink:href="#DejaVuSans-32" x="127.246094"/>
       <use xlink:href="#DejaVuSans-35" x="190.869141"/>
       <use xlink:href="#DejaVuSans-2d" x="254.492188"/>
       <use xlink:href="#DejaVuSans-30" x="290.576172"/>
       <use xlink:href="#DejaVuSans-37" x="354.199219"/>
      </g>
     </g>
    </g>
   </g>
   <g id="matplotlib.axis_2">
    <g id="ytick_1">
     <g id="line2d_10">
      <defs>
       <path id="mf37f570738" d="M 0 0 
L -3.5 0 
" style="stroke: #000000; stroke-width: 0.8"/>
      </defs>
      <g>
       <use xlink:href="#mf37f570738" x="33.2875" y="374.830125" style="stroke: #000000; stroke-width: 0.8"/>
      </g>
     </g>
     <g id="text_10">
      <!-- 0 -->
      <g transform="translate(19.925 378.629344) scale(0.1 -0.1)">
       <use xlink:href="#DejaVuSans-30"/>
      </g>
     </g>
    </g>
    <g id="ytick_2">
     <g id="line2d_11">
      <g>
       <use xlink:href="#mf37f570738" x="33.2875" y="320.718221" style="stroke: #000000; stroke-width: 0.8"/>
      </g>
     </g>
     <g id="text_11">
      <!-- 100 -->
      <g transform="translate(7.2 324.51744) scale(0.1 -0.1)">
       <use xlink:href="#DejaVuSans-31"/>
       <use xlink:href="#DejaVuSans-30" x="63.623047"/>
       <use xlink:href="#DejaVuSans-30" x="127.246094"/>
      </g>
     </g>
    </g>
    <g id="ytick_3">
     <g id="line2d_12">
      <g>
       <use xlink:href="#mf37f570738" x="33.2875" y="266.606317" style="stroke: #000000; stroke-width: 0.8"/>
      </g>
     </g>
     <g id="text_12">
      <!-- 200 -->
      <g transform="translate(7.2 270.405535) scale(0.1 -0.1)">
       <use xlink:href="#DejaVuSans-32"/>
       <use xlink:href="#DejaVuSans-30" x="63.623047"/>
       <use xlink:href="#DejaVuSans-30" x="127.246094"/>
      </g>
     </g>
    </g>
    <g id="ytick_4">
     <g id="line2d_13">
      <g>
       <use xlink:href="#mf37f570738" x="33.2875" y="212.494412" style="stroke: #000000; stroke-width: 0.8"/>
      </g>
     </g>
     <g id="text_13">
      <!-- 300 -->
      <g transform="translate(7.2 216.293631) scale(0.1 -0.1)">
       <use xlink:href="#DejaVuSans-33"/>
       <use xlink:href="#DejaVuSans-30" x="63.623047"/>
       <use xlink:href="#DejaVuSans-30" x="127.246094"/>
      </g>
     </g>
    </g>
    <g id="ytick_5">
     <g id="line2d_14">
      <g>
       <use xlink:href="#mf37f570738" x="33.2875" y="158.382508" style="stroke: #000000; stroke-width: 0.8"/>
      </g>
     </g>
     <g id="text_14">
      <!-- 400 -->
      <g transform="translate(7.2 162.181727) scale(0.1 -0.1)">
       <use xlink:href="#DejaVuSans-34"/>
       <use xlink:href="#DejaVuSans-30" x="63.623047"/>
       <use xlink:href="#DejaVuSans-30" x="127.246094"/>
      </g>
     </g>
    </g>
    <g id="ytick_6">
     <g id="line2d_15">
      <g>
       <use xlink:href="#mf37f570738" x="33.2875" y="104.270604" style="stroke: #000000; stroke-width: 0.8"/>
      </g>
     </g>
     <g id="text_15">
      <!-- 500 -->
      <g transform="translate(7.2 108.069823) scale(0.1 -0.1)">
       <use xlink:href="#DejaVuSans-35"/>
       <use xlink:href="#DejaVuSans-30" x="63.623047"/>
       <use xlink:href="#DejaVuSans-30" x="127.246094"/>
      </g>
     </g>
    </g>
    <g id="ytick_7">
     <g id="line2d_16">
      <g>
       <use xlink:href="#mf37f570738" x="33.2875" y="50.1587" style="stroke: #000000; stroke-width: 0.8"/>
      </g>
     </g>
     <g id="text_16">
      <!-- 600 -->
      <g transform="translate(7.2 53.957918) scale(0.1 -0.1)">
       <defs>
        <path id="DejaVuSans-36" d="M 2113 2584 
Q 1688 2584 1439 2293 
Q 1191 2003 1191 1497 
Q 1191 994 1439 701 
Q 1688 409 2113 409 
Q 2538 409 2786 701 
Q 3034 994 3034 1497 
Q 3034 2003 2786 2293 
Q 2538 2584 2113 2584 
z
M 3366 4563 
L 3366 3988 
Q 3128 4100 2886 4159 
Q 2644 4219 2406 4219 
Q 1781 4219 1451 3797 
Q 1122 3375 1075 2522 
Q 1259 2794 1537 2939 
Q 1816 3084 2150 3084 
Q 2853 3084 3261 2657 
Q 3669 2231 3669 1497 
Q 3669 778 3244 343 
Q 2819 -91 2113 -91 
Q 1303 -91 875 529 
Q 447 1150 447 2328 
Q 447 3434 972 4092 
Q 1497 4750 2381 4750 
Q 2619 4750 2861 4703 
Q 3103 4656 3366 4563 
z
" transform="scale(0.015625)"/>
       </defs>
       <use xlink:href="#DejaVuSans-36"/>
       <use xlink:href="#DejaVuSans-30" x="63.623047"/>
       <use xlink:href="#DejaVuSans-30" x="127.246094"/>
      </g>
     </g>
    </g>
   </g>
   <g id="line2d_17">
    <path d="M 38.539265 37.171843 
L 47.897208 37.171843 
L 48.003142 40.418557 
L 49.313313 40.418557 
L 49.792911 49.617581 
L 127.103106 49.617581 
L 127.488018 44.20639 
L 140.352907 44.20639 
L 141.108626 44.747509 
L 147.14193 44.747509 
L 147.35292 55.56989 
L 153.471378 55.56989 
L 154.739365 53.946533 
L 259.560248 53.946533 
L 259.858789 50.1587 
L 268.074185 50.1587 
L 268.367405 49.076462 
L 309.60229 49.076462 
L 309.807638 47.994224 
L 376.441717 47.994224 
L 376.632608 43.665271 
L 427.149589 43.665271 
L 427.236474 43.124152 
L 465.82249 43.124152 
L 466.177092 42.583033 
L 469.686999 42.583033 
L 469.80346 40.418557 
L 471.212036 40.418557 
L 471.578025 40.959676 
L 495.9262 40.959676 
L 496.226788 40.418557 
L 547.49334 40.418557 
L 547.668351 31.760652 
L 562.332471 31.760652 
L 562.612199 25.808343 
L 563.715735 25.808343 
L 563.715735 25.808343 
" clip-path="url(#p2aca00c092)" style="fill: none; stroke: #0000ff; stroke-width: 1.5; stroke-linecap: square"/>
   </g>
   <g id="line2d_18">
    <path d="M 38.539265 175.698317 
L 39.825861 174.616079 
L 41.108305 175.698317 
L 44.145258 175.698317 
L 47.493862 176.780556 
L 47.742279 176.239437 
L 47.897208 176.239437 
L 48.003142 179.486151 
L 48.247636 178.945032 
L 48.609251 179.486151 
L 49.313313 179.486151 
L 49.70544 191.39077 
L 49.792911 188.685175 
L 49.996445 191.931889 
L 50.061172 191.39077 
L 50.289249 191.39077 
L 50.654087 191.931889 
L 51.532165 191.931889 
L 51.558376 192.473008 
L 52.03435 192.473008 
L 52.235823 191.931889 
L 52.824863 195.719722 
L 52.8929 195.178603 
L 53.182139 195.719722 
L 53.741638 197.343079 
L 54.121133 196.260841 
L 54.720973 196.260841 
L 55.056194 197.343079 
L 55.282807 197.343079 
L 55.965524 197.884198 
L 56.271879 197.884198 
L 56.605009 198.966436 
L 56.902894 198.425317 
L 57.233682 199.507555 
L 57.577387 201.672032 
L 58.906374 202.75427 
L 59.470711 202.75427 
L 59.712448 203.295389 
L 60.097607 203.295389 
L 60.381163 203.836508 
L 60.670004 203.295389 
L 60.992047 203.295389 
L 61.180636 203.836508 
L 64.443204 203.836508 
L 64.772484 204.377627 
L 65.088021 204.377627 
L 65.21054 203.836508 
L 65.989837 204.377627 
L 66.316455 203.836508 
L 67.21697 203.836508 
L 67.506088 204.377627 
L 67.861543 203.836508 
L 69.500575 203.836508 
L 69.836389 204.377627 
L 70.020717 206.000984 
L 70.46935 204.918746 
L 71.512545 204.918746 
L 72.03012 205.459865 
L 72.343071 205.459865 
L 72.647014 206.000984 
L 72.986263 206.000984 
L 73.29775 205.459865 
L 73.595391 207.083222 
L 73.859638 207.083222 
L 74.578066 208.16546 
L 78.350028 208.16546 
L 78.649873 209.247698 
L 79.288921 209.247698 
L 79.57256 209.788817 
L 80.523881 209.788817 
L 81.434508 211.953293 
L 82.402413 211.953293 
L 82.749086 212.494412 
L 88.596867 212.494412 
L 89.298922 213.57665 
L 89.45796 212.494412 
L 90.584076 212.494412 
L 90.889877 213.035531 
L 91.227265 212.494412 
L 92.029998 212.494412 
L 92.47339 213.035531 
L 92.80255 212.494412 
L 97.773674 212.494412 
L 98.045333 217.364484 
L 98.233679 212.494412 
L 100.035219 212.494412 
L 100.362259 213.035531 
L 100.548929 217.905603 
L 100.989884 213.035531 
L 101.30132 213.035531 
L 101.508056 212.494412 
L 104.769896 212.494412 
L 104.935078 213.035531 
L 105.231511 213.035531 
L 105.719701 214.658889 
L 110.640158 214.658889 
L 111.71403 215.200008 
L 118.32275 215.200008 
L 118.597943 217.364484 
L 118.949588 217.364484 
L 119.26141 215.200008 
L 119.582225 215.200008 
L 119.803283 217.364484 
L 120.042867 215.200008 
L 120.441019 217.364484 
L 120.793702 218.446722 
L 124.883201 218.446722 
L 125.236175 218.987841 
L 127.103106 218.987841 
L 127.488018 213.035531 
L 127.762974 213.57665 
L 128.073761 215.200008 
L 128.457449 215.200008 
L 128.971909 216.282246 
L 129.326956 216.282246 
L 129.588664 216.823365 
L 129.9402 214.658889 
L 132.514085 220.070079 
L 132.776897 218.446722 
L 133.217564 217.905603 
L 134.617168 217.905603 
L 134.976193 217.364484 
L 135.29279 216.282246 
L 136.560234 216.282246 
L 136.791968 215.200008 
L 137.199569 216.282246 
L 138.120067 216.282246 
L 138.433338 217.364484 
L 138.735515 217.364484 
L 139.093392 217.905603 
L 139.237805 217.905603 
L 139.399204 219.52896 
L 139.617993 219.52896 
L 140.352907 220.070079 
L 140.960141 218.987841 
L 141.108626 218.987841 
L 141.584647 219.52896 
L 141.890065 220.611198 
L 143.468413 220.611198 
L 143.773154 221.152317 
L 144.100402 221.152317 
L 144.403376 221.693436 
L 144.687194 221.693436 
L 145.34669 222.234555 
L 145.687291 222.234555 
L 146.026938 223.857912 
L 146.227755 223.857912 
L 146.580758 223.316793 
L 147.14193 223.316793 
L 147.35292 224.94015 
L 147.873394 224.94015 
L 148.181759 226.022388 
L 148.593585 226.022388 
L 148.805716 226.563507 
L 149.272204 226.563507 
L 149.318624 227.104626 
L 149.554904 227.104626 
L 150.05349 227.645746 
L 151.187361 230.89246 
L 152.60069 230.89246 
L 152.888825 231.974698 
L 152.99732 231.433579 
L 153.12296 231.433579 
L 153.471378 230.89246 
L 154.739365 229.269103 
L 157.911712 229.269103 
L 158.279308 228.727984 
L 159.814711 228.727984 
L 160.033234 228.186865 
L 162.908556 228.186865 
L 163.410041 228.727984 
L 163.796261 228.727984 
L 164.215561 229.269103 
L 164.426541 228.727984 
L 166.447788 228.727984 
L 167.085681 229.810222 
L 168.443259 229.810222 
L 168.671824 237.385888 
L 168.929489 237.385888 
L 171.12534 239.009245 
L 171.260275 238.468126 
L 171.401046 239.009245 
L 171.766438 238.468126 
L 172.072934 238.468126 
L 172.395523 239.009245 
L 172.63777 239.009245 
L 173.026688 240.091484 
L 173.186636 240.091484 
L 173.334663 239.550364 
L 173.666446 240.632603 
L 175.872276 240.632603 
L 176.086869 241.173722 
L 177.273487 241.173722 
L 177.745942 240.632603 
L 178.099914 243.338198 
L 178.351912 241.714841 
L 178.680573 241.714841 
L 178.944008 244.961555 
L 179.128328 244.420436 
L 179.324545 244.961555 
L 179.423372 244.420436 
L 179.544332 246.043793 
L 179.857924 246.043793 
L 180.255253 246.584912 
L 181.033446 246.043793 
L 181.210642 247.126031 
L 181.50023 247.126031 
L 181.705305 245.502674 
L 182.40143 247.126031 
L 183.093618 247.66715 
L 183.701518 247.66715 
L 184.020417 249.290507 
L 184.313542 249.290507 
L 184.487172 248.749388 
L 184.791916 248.749388 
L 185.970564 250.913864 
L 186.167134 249.831626 
L 186.545511 249.290507 
L 186.989304 250.913864 
L 188.182193 250.913864 
L 188.284314 251.454983 
L 188.759632 251.996102 
L 190.026716 251.996102 
L 190.6067 254.701698 
L 193.865928 254.701698 
L 194.123291 255.242817 
L 194.46178 254.160579 
L 194.658841 255.242817 
L 198.212058 255.242817 
L 198.508934 255.783936 
L 199.22486 259.03065 
L 199.493452 257.407293 
L 199.813543 257.948412 
L 200.167974 257.407293 
L 200.417389 257.407293 
L 200.795311 255.783936 
L 200.997956 255.783936 
L 201.037288 256.325055 
L 201.674973 256.325055 
L 202.033896 253.078341 
L 202.350336 253.078341 
L 203.30225 253.61946 
L 203.362482 253.078341 
L 203.879328 252.537221 
L 203.956094 253.078341 
L 206.446496 253.078341 
L 206.619784 253.61946 
L 207.084546 254.160579 
L 207.705162 255.242817 
L 207.866582 256.325055 
L 208.084712 256.325055 
L 208.329071 257.407293 
L 208.623282 256.866174 
L 208.952715 256.866174 
L 209.200942 256.325055 
L 209.550883 256.866174 
L 209.863145 256.866174 
L 210.162429 257.407293 
L 210.404702 257.407293 
L 210.860747 256.866174 
L 211.097833 257.407293 
L 211.343215 256.866174 
L 212.055794 252.537221 
L 212.741242 253.61946 
L 212.841458 257.407293 
L 212.994249 257.407293 
L 213.27382 257.948412 
L 213.598616 257.407293 
L 213.895154 257.407293 
L 214.260448 256.866174 
L 214.576848 257.948412 
L 215.718772 257.948412 
L 216.172592 258.489531 
L 216.431944 258.489531 
L 216.452069 259.03065 
L 217.746019 259.03065 
L 218.114401 260.112888 
L 219.924877 260.112888 
L 220.285789 261.195126 
L 221.51479 261.195126 
L 223.753694 260.654007 
L 223.961392 261.195126 
L 224.521558 261.195126 
L 224.992906 261.736245 
L 225.308647 262.818483 
L 225.40306 262.277364 
L 225.746247 263.359602 
L 226.509696 263.359602 
L 229.601792 264.44184 
L 237.244929 264.44184 
L 237.556259 263.900721 
L 239.050572 263.900721 
L 239.360314 264.44184 
L 240.386749 264.44184 
L 240.741013 264.982959 
L 240.99575 264.44184 
L 241.291388 264.982959 
L 241.618505 264.44184 
L 241.886984 265.524078 
L 242.29818 264.982959 
L 242.598211 265.524078 
L 249.119997 265.524078 
L 249.456886 264.44184 
L 249.813783 264.982959 
L 250.136561 264.44184 
L 250.498107 264.44184 
L 250.788055 263.900721 
L 251.998149 263.900721 
L 252.305414 264.44184 
L 252.652484 263.900721 
L 253.084227 262.818483 
L 253.595667 262.818483 
L 253.94941 262.277364 
L 254.21412 263.359602 
L 254.554641 263.359602 
L 254.817722 262.818483 
L 255.648062 263.900721 
L 256.133815 263.359602 
L 256.422413 263.900721 
L 257.036403 263.900721 
L 257.382938 263.359602 
L 257.723215 264.982959 
L 258.050728 264.44184 
L 258.6795 264.44184 
L 258.919183 263.900721 
L 259.225719 264.44184 
L 259.560248 264.44184 
L 259.858789 259.571769 
L 259.977395 260.112888 
L 260.212 260.112888 
L 260.375431 260.654007 
L 260.517866 260.654007 
L 260.705396 261.195126 
L 260.832482 260.112888 
L 261.459895 261.195126 
L 261.998953 261.195126 
L 262.261102 262.277364 
L 262.520909 261.195126 
L 262.690059 261.736245 
L 263.643732 261.736245 
L 263.927638 261.195126 
L 264.196887 261.195126 
L 264.535226 261.736245 
L 264.848085 261.736245 
L 265.218955 261.195126 
L 265.576851 261.736245 
L 265.854542 261.736245 
L 266.291541 262.818483 
L 268.074185 262.818483 
L 268.367405 261.195126 
L 269.749004 261.195126 
L 270.066308 261.736245 
L 270.315905 262.277364 
L 270.804594 262.277364 
L 270.957058 263.359602 
L 271.026997 262.818483 
L 271.192355 263.359602 
L 271.65747 263.359602 
L 271.885478 264.44184 
L 272.506295 264.44184 
L 272.796083 265.524078 
L 273.754452 265.524078 
L 273.984285 267.147436 
L 274.196365 267.688555 
L 274.318756 267.688555 
L 274.731613 268.229674 
L 274.876922 267.688555 
L 274.947342 268.229674 
L 275.401282 268.229674 
L 275.934396 268.770793 
L 277.130425 268.770793 
L 277.438889 268.229674 
L 277.73445 268.770793 
L 278.067624 268.770793 
L 278.2273 269.311912 
L 278.265706 268.770793 
L 278.455224 269.311912 
L 278.603451 269.311912 
L 278.749831 270.39415 
L 279.313487 271.476388 
L 279.723929 270.935269 
L 280.035983 271.476388 
L 280.649453 271.476388 
L 280.982412 272.558626 
L 281.104304 272.017507 
L 281.302324 273.640864 
L 281.582922 273.099745 
L 281.764904 273.640864 
L 281.908797 273.099745 
L 282.067805 274.181983 
L 282.391902 274.181983 
L 282.487892 274.723102 
L 282.868131 274.181983 
L 283.162214 275.264221 
L 283.825706 275.264221 
L 284.06455 276.346459 
L 284.40333 275.264221 
L 284.633487 275.264221 
L 284.717869 275.80534 
L 285.33709 275.80534 
L 285.62674 277.969816 
L 286.043301 275.80534 
L 286.107886 276.346459 
L 286.656374 275.80534 
L 286.708312 276.887578 
L 286.89696 276.887578 
L 287.277096 277.428697 
L 287.585596 276.887578 
L 287.81866 276.887578 
L 288.163548 277.969816 
L 288.53876 277.969816 
L 288.902622 277.428697 
L 289.174562 277.969816 
L 289.339796 277.428697 
L 289.504137 278.510935 
L 290.960353 278.510935 
L 291.407919 279.052055 
L 292.32174 279.052055 
L 292.645979 277.969816 
L 293.257078 277.969816 
L 293.562929 278.510935 
L 296.345331 278.510935 
L 296.720835 277.969816 
L 297.072822 279.052055 
L 301.342903 279.052055 
L 302.279643 279.593174 
L 302.836014 279.593174 
L 303.287863 280.134293 
L 303.644946 280.134293 
L 303.854779 280.675412 
L 308.607806 280.675412 
L 308.993854 280.134293 
L 309.29992 280.675412 
L 309.60229 280.134293 
L 309.807638 276.887578 
L 311.685358 276.887578 
L 311.852894 277.428697 
L 312.177646 277.428697 
L 312.285041 276.887578 
L 314.228744 276.887578 
L 314.498389 277.428697 
L 314.600295 276.887578 
L 315.062165 276.887578 
L 315.275662 277.969816 
L 315.544783 276.887578 
L 315.745709 277.969816 
L 315.888319 277.969816 
L 316.072254 276.887578 
L 316.23312 277.969816 
L 316.336209 276.887578 
L 316.37773 277.969816 
L 317.4841 277.969816 
L 317.659722 278.510935 
L 317.685478 279.052055 
L 318.248868 279.052055 
L 318.282073 279.593174 
L 318.606687 279.593174 
L 318.774772 280.134293 
L 318.918082 279.593174 
L 319.094141 280.134293 
L 319.213203 279.593174 
L 319.492446 280.134293 
L 319.610543 279.593174 
L 319.626737 280.134293 
L 319.980699 280.134293 
L 320.202478 280.675412 
L 320.342357 280.675412 
L 320.551829 281.75765 
L 320.784255 282.298769 
L 320.944779 281.75765 
L 322.732723 281.75765 
L 322.988366 282.298769 
L 324.358627 282.298769 
L 324.577208 282.839888 
L 324.866133 282.839888 
L 325.08053 283.381007 
L 325.198699 282.839888 
L 325.765629 282.839888 
L 325.95695 283.922126 
L 326.477697 283.922126 
L 326.527705 284.463245 
L 326.600369 283.922126 
L 326.712783 283.922126 
L 326.914463 285.004364 
L 327.124496 285.545483 
L 327.183198 285.004364 
L 327.421281 287.16884 
L 328.385518 287.16884 
L 328.482456 287.709959 
L 328.693694 287.709959 
L 328.817436 288.792197 
L 328.962662 287.709959 
L 330.242724 287.709959 
L 330.316793 288.251078 
L 330.562322 287.709959 
L 330.679879 288.251078 
L 330.89723 287.709959 
L 331.179558 287.709959 
L 331.352692 288.792197 
L 331.668295 288.792197 
L 331.797752 288.251078 
L 331.908669 289.333316 
L 332.236241 287.709959 
L 332.579512 288.792197 
L 332.82818 287.709959 
L 333.410292 287.709959 
L 333.863322 289.333316 
L 334.00429 288.792197 
L 334.160403 289.333316 
L 334.581644 288.251078 
L 334.716529 289.333316 
L 335.716225 289.333316 
L 335.877365 289.874435 
L 336.158175 289.874435 
L 336.30787 289.333316 
L 336.496798 289.874435 
L 336.61626 289.333316 
L 336.980176 290.415554 
L 337.477025 290.415554 
L 337.827435 291.497793 
L 339.345136 291.497793 
L 339.511073 292.038912 
L 339.714046 291.497793 
L 339.814473 292.038912 
L 340.021413 291.497793 
L 340.296253 291.497793 
L 340.473525 292.038912 
L 340.590084 291.497793 
L 340.961169 291.497793 
L 341.075947 292.038912 
L 341.596217 292.038912 
L 341.631287 293.12115 
L 343.856452 293.12115 
L 344.075969 293.662269 
L 344.220055 293.12115 
L 344.342125 293.662269 
L 344.434848 293.12115 
L 344.546071 294.203388 
L 345.058524 294.203388 
L 345.300257 294.744507 
L 345.349249 294.203388 
L 345.399442 294.744507 
L 345.675484 294.203388 
L 345.746825 294.744507 
L 346.016777 295.285626 
L 346.12251 295.826745 
L 346.324362 295.826745 
L 346.370775 296.367864 
L 346.651817 297.991221 
L 346.778313 297.450102 
L 346.94904 297.450102 
L 346.979797 298.53234 
L 348.179302 298.53234 
L 348.328286 299.073459 
L 348.563277 298.53234 
L 348.970324 299.073459 
L 349.079114 298.53234 
L 349.257209 299.073459 
L 349.476086 299.073459 
L 349.606337 299.614578 
L 349.909719 299.614578 
L 349.917157 300.155697 
L 350.010678 299.614578 
L 350.100327 300.696816 
L 350.232829 300.696816 
L 350.416246 301.237935 
L 351.67446 301.237935 
L 351.707665 300.696816 
L 351.786875 301.779054 
L 352.11869 301.779054 
L 352.288149 301.237935 
L 352.418593 301.779054 
L 352.614985 301.237935 
L 352.76213 301.779054 
L 352.927451 301.779054 
L 353.069508 301.237935 
L 353.210363 302.861292 
L 354.896543 302.861292 
L 355.403612 303.94353 
L 355.670526 303.402411 
L 362.040168 303.402411 
L 362.148313 303.94353 
L 362.34174 303.402411 
L 362.397488 303.94353 
L 362.975462 303.94353 
L 363.135505 304.48465 
L 363.946693 304.48465 
L 364.055078 305.025769 
L 364.207855 304.48465 
L 365.450472 304.48465 
L 365.62283 305.025769 
L 365.839886 304.48465 
L 365.959734 304.48465 
L 366.150727 305.566888 
L 366.255795 305.025769 
L 366.721489 305.025769 
L 366.924401 305.566888 
L 367.879513 305.566888 
L 368.035098 304.48465 
L 368.350355 305.566888 
L 370.046599 305.566888 
L 370.336376 306.108007 
L 370.375883 306.108007 
L 370.543211 306.649126 
L 370.668279 306.649126 
L 370.823095 307.190245 
L 371.185322 307.190245 
L 371.249491 307.731364 
L 371.55146 307.731364 
L 371.742202 306.649126 
L 371.891143 307.190245 
L 372.119129 307.190245 
L 372.212093 307.731364 
L 372.560875 307.731364 
L 372.872827 308.272483 
L 373.212995 309.89584 
L 373.324367 309.354721 
L 373.428069 309.89584 
L 373.666094 310.436959 
L 373.778963 309.89584 
L 374.081926 310.436959 
L 374.282292 309.89584 
L 374.445934 309.89584 
L 374.766527 311.519197 
L 375.075503 310.978078 
L 375.395488 312.060316 
L 375.458321 311.519197 
L 375.666292 312.060316 
L 375.810301 311.519197 
L 375.929024 312.060316 
L 376.441717 312.060316 
L 376.632608 304.48465 
L 377.142432 305.566888 
L 377.479051 305.566888 
L 377.596794 306.108007 
L 377.78019 305.566888 
L 377.897907 305.566888 
L 378.037199 305.025769 
L 378.197359 305.566888 
L 378.417358 305.566888 
L 378.525605 305.025769 
L 378.663134 305.566888 
L 378.850703 305.025769 
L 378.924427 305.566888 
L 379.3143 306.108007 
L 379.600788 305.025769 
L 379.860329 305.566888 
L 381.0134 305.566888 
L 381.286997 306.108007 
L 381.574265 305.566888 
L 382.090987 305.566888 
L 382.487132 306.649126 
L 382.623011 305.025769 
L 382.851711 305.566888 
L 383.143255 305.025769 
L 383.276621 306.649126 
L 383.43764 305.566888 
L 383.589816 305.566888 
L 383.691161 306.108007 
L 383.766793 308.272483 
L 383.780368 307.731364 
L 384.115877 308.272483 
L 384.943973 308.272483 
L 385.335696 309.354721 
L 385.497287 308.813602 
L 386.077403 308.813602 
L 386.235465 308.272483 
L 386.404399 308.813602 
L 386.589699 308.813602 
L 386.698559 308.272483 
L 387.029736 308.813602 
L 387.224292 308.813602 
L 387.351841 309.354721 
L 387.507837 308.813602 
L 387.675428 308.813602 
L 387.832484 308.272483 
L 387.929771 308.813602 
L 388.804643 308.813602 
L 389.02352 310.436959 
L 389.288153 309.89584 
L 389.507023 309.89584 
L 389.684215 309.354721 
L 389.764779 309.89584 
L 390.039247 309.354721 
L 390.141856 309.89584 
L 390.383651 309.89584 
L 390.478246 310.436959 
L 390.767204 309.89584 
L 391.362643 309.89584 
L 391.583399 310.436959 
L 391.95114 310.436959 
L 392.043863 310.978078 
L 392.200577 310.436959 
L 392.837596 312.060316 
L 392.986624 312.060316 
L 393.267033 312.601435 
L 395.547997 312.601435 
L 395.790998 313.142554 
L 396.018853 313.142554 
L 396.065244 312.060316 
L 396.122697 312.601435 
L 396.494441 312.601435 
L 396.579292 313.142554 
L 397.068433 313.142554 
L 397.302036 313.683673 
L 397.615785 313.683673 
L 397.626221 313.142554 
L 397.730519 313.683673 
L 397.826437 313.142554 
L 399.192632 313.142554 
L 399.448801 312.601435 
L 400.163393 313.142554 
L 401.645277 313.142554 
L 401.709399 313.683673 
L 403.264406 313.683673 
L 403.404478 314.224792 
L 404.842543 316.930387 
L 404.978837 316.930387 
L 405.121032 317.471507 
L 405.184357 316.930387 
L 405.490591 317.471507 
L 405.775101 318.012626 
L 406.11536 318.012626 
L 406.229624 318.553745 
L 406.65963 318.553745 
L 407.282443 318.012626 
L 407.313819 319.635983 
L 407.815068 319.635983 
L 407.970423 319.094864 
L 408.083264 319.635983 
L 409.234844 319.635983 
L 409.502173 319.094864 
L 410.737159 319.094864 
L 411.499741 319.635983 
L 413.040204 319.635983 
L 413.798754 320.177102 
L 413.900204 320.718221 
L 416.181521 320.718221 
L 416.395841 320.177102 
L 417.553971 320.177102 
L 418.399609 319.635983 
L 419.015836 319.635983 
L 419.321644 320.177102 
L 419.593143 321.25934 
L 419.754789 321.25934 
L 419.761098 320.718221 
L 421.574273 320.718221 
L 421.768872 321.25934 
L 426.34945 321.25934 
L 426.927009 321.800459 
L 427.149589 321.800459 
L 427.236474 322.341578 
L 427.519556 322.341578 
L 427.638439 321.800459 
L 427.822727 322.341578 
L 428.857449 322.341578 
L 429.318675 322.882697 
L 429.63906 323.964935 
L 432.445032 323.964935 
L 432.938909 323.423816 
L 433.081803 323.964935 
L 433.226355 323.423816 
L 433.388853 323.964935 
L 434.15844 323.964935 
L 434.513257 323.423816 
L 434.693309 323.964935 
L 435.189779 322.882697 
L 435.383274 323.964935 
L 436.584706 323.964935 
L 436.598919 324.506054 
L 438.502926 324.506054 
L 439.428677 325.047173 
L 439.706492 324.506054 
L 440.222657 324.506054 
L 440.347784 325.047173 
L 440.788818 323.423816 
L 441.080006 323.964935 
L 441.608536 323.423816 
L 441.76143 323.423816 
L 441.893116 323.964935 
L 442.692542 323.964935 
L 443.642395 323.423816 
L 443.785366 323.964935 
L 444.73052 323.964935 
L 445.037384 323.423816 
L 449.847896 323.964935 
L 450.20809 323.423816 
L 450.519384 323.964935 
L 450.798325 323.423816 
L 450.829533 323.964935 
L 451.072378 324.506054 
L 451.213017 324.506054 
L 451.341666 325.047173 
L 453.578239 325.047173 
L 453.625897 325.588292 
L 453.903906 325.588292 
L 454.646228 325.047173 
L 454.669843 325.588292 
L 454.955049 325.047173 
L 455.024369 326.129411 
L 455.207942 326.129411 
L 455.580371 326.67053 
L 456.204492 326.67053 
L 456.583462 326.129411 
L 457.009563 327.211649 
L 457.02704 327.752768 
L 457.440968 328.293887 
L 457.745406 327.752768 
L 458.173485 327.752768 
L 458.262474 328.293887 
L 459.237147 328.293887 
L 459.371419 327.752768 
L 459.535801 328.835006 
L 459.671286 328.835006 
L 459.928427 328.293887 
L 460.162285 328.835006 
L 460.683794 328.835006 
L 460.91347 329.917245 
L 462.551515 329.917245 
L 462.747349 330.458364 
L 462.867263 330.458364 
L 463.06458 329.917245 
L 463.115469 330.458364 
L 463.638143 330.458364 
L 463.743268 330.999483 
L 464.028791 330.999483 
L 464.110343 332.081721 
L 464.555818 332.081721 
L 464.723193 333.705078 
L 465.071702 333.705078 
L 465.275528 333.163959 
L 465.385644 333.705078 
L 465.533874 333.705078 
L 465.545195 335.328435 
L 465.82249 335.328435 
L 466.177092 334.787316 
L 466.337962 334.787316 
L 466.475386 335.328435 
L 466.817138 335.328435 
L 467.171274 334.787316 
L 467.207699 335.869554 
L 467.521258 335.869554 
L 467.579057 336.410673 
L 467.797536 336.951792 
L 468.374691 336.951792 
L 468.459521 338.03403 
L 468.707205 338.03403 
L 468.852417 338.575149 
L 468.991756 338.575149 
L 469.491438 339.116268 
L 469.686999 338.575149 
L 469.80346 330.999483 
L 469.929767 330.458364 
L 470.015311 332.62284 
L 470.631487 332.62284 
L 470.884748 332.081721 
L 471.069276 333.163959 
L 471.212036 333.163959 
L 471.578025 333.705078 
L 471.980566 333.705078 
L 472.164242 333.163959 
L 472.308054 333.705078 
L 473.278651 333.705078 
L 473.398161 334.246197 
L 473.840664 333.163959 
L 474.200486 333.705078 
L 474.406679 333.705078 
L 474.485874 334.246197 
L 474.667914 333.163959 
L 474.84487 334.246197 
L 475.579091 334.246197 
L 475.692893 333.705078 
L 475.954431 333.705078 
L 475.995572 334.246197 
L 476.291706 334.787316 
L 476.303263 334.246197 
L 476.860177 334.246197 
L 477.146818 334.787316 
L 478.634282 334.787316 
L 478.745815 335.328435 
L 479.040801 334.787316 
L 479.05065 335.328435 
L 479.474227 335.869554 
L 479.734489 335.869554 
L 480.033989 336.410673 
L 480.297864 336.951792 
L 480.657643 335.869554 
L 480.728715 336.951792 
L 480.970645 336.410673 
L 481.174278 336.951792 
L 482.08308 336.951792 
L 482.184905 337.492911 
L 482.311813 336.951792 
L 482.751595 337.492911 
L 482.96402 336.951792 
L 483.179305 337.492911 
L 483.308654 336.951792 
L 483.609894 338.03403 
L 483.818029 337.492911 
L 484.529926 337.492911 
L 484.813147 338.03403 
L 485.226692 338.03403 
L 485.555717 336.951792 
L 485.643413 337.492911 
L 485.994971 337.492911 
L 486.08419 338.575149 
L 486.527581 337.492911 
L 486.682423 338.03403 
L 487.039674 337.492911 
L 487.30045 337.492911 
L 487.434049 338.03403 
L 487.620482 338.03403 
L 487.753385 334.787316 
L 488.171585 335.328435 
L 488.225763 334.246197 
L 488.375913 335.328435 
L 488.51357 334.787316 
L 488.596192 335.328435 
L 488.923961 334.787316 
L 489.317236 335.328435 
L 489.515335 335.328435 
L 489.787268 334.787316 
L 490.173801 334.787316 
L 490.570113 335.869554 
L 490.777709 335.328435 
L 491.19749 335.328435 
L 491.393794 334.787316 
L 491.422694 334.246197 
L 491.667243 335.328435 
L 491.796933 334.787316 
L 491.94948 335.328435 
L 492.176152 334.787316 
L 492.432702 334.787316 
L 492.597514 334.246197 
L 492.910075 334.246197 
L 493.23549 335.328435 
L 493.456301 334.787316 
L 493.725203 335.869554 
L 493.865242 335.869554 
L 493.953142 335.328435 
L 494.226627 335.328435 
L 494.249582 335.869554 
L 495.156195 335.869554 
L 495.30472 336.410673 
L 495.431938 336.410673 
L 495.628049 336.951792 
L 495.797198 336.410673 
L 495.9262 336.951792 
L 496.118523 336.410673 
L 496.226788 336.951792 
L 496.366525 336.410673 
L 496.411546 336.951792 
L 496.566238 338.03403 
L 496.755232 337.492911 
L 496.81471 336.951792 
L 497.014026 337.492911 
L 497.176911 336.951792 
L 497.489344 337.492911 
L 497.694966 337.492911 
L 497.784549 338.03403 
L 498.006809 337.492911 
L 498.590524 339.116268 
L 498.747544 339.116268 
L 498.909958 338.03403 
L 498.986742 338.575149 
L 499.216367 338.575149 
L 499.320841 338.03403 
L 499.508603 338.03403 
L 499.679549 338.575149 
L 499.899314 338.575149 
L 500.268275 340.198506 
L 500.464572 339.657387 
L 503.044929 339.657387 
L 503.165007 340.198506 
L 503.317281 340.198506 
L 503.439738 339.657387 
L 503.68543 340.198506 
L 504.297541 338.03403 
L 504.399939 339.116268 
L 505.047619 338.03403 
L 505.501064 338.03403 
L 506.121538 339.116268 
L 507.218416 338.575149 
L 507.496975 339.116268 
L 507.803853 338.575149 
L 508.023025 339.657387 
L 508.110929 338.575149 
L 508.399847 339.657387 
L 508.714633 338.575149 
L 508.818837 339.657387 
L 509.020696 339.657387 
L 509.131661 339.116268 
L 509.332791 339.657387 
L 509.453496 339.657387 
L 509.565928 339.116268 
L 509.702536 340.739625 
L 510.060803 339.657387 
L 510.395892 339.657387 
L 510.600643 340.198506 
L 510.987056 340.198506 
L 511.301303 339.657387 
L 511.485015 339.657387 
L 511.623896 340.739625 
L 511.797132 340.198506 
L 511.893851 340.739625 
L 512.127385 341.280744 
L 512.270578 341.280744 
L 512.520929 340.198506 
L 512.760324 341.821863 
L 513.061218 341.821863 
L 513.084056 342.904102 
L 513.10507 342.362982 
L 513.262436 341.821863 
L 513.427859 342.904102 
L 513.496858 341.821863 
L 513.746223 341.821863 
L 513.7802 342.362982 
L 514.061148 342.904102 
L 514.229292 342.904102 
L 514.308104 341.821863 
L 514.685137 342.904102 
L 514.746196 341.821863 
L 514.951555 342.904102 
L 515.109529 341.280744 
L 515.589754 342.362982 
L 515.951521 340.739625 
L 515.979495 341.280744 
L 516.208644 340.739625 
L 516.353512 340.739625 
L 516.503907 341.821863 
L 516.68351 340.739625 
L 517.02881 341.821863 
L 517.159815 340.739625 
L 517.301661 341.280744 
L 517.590713 341.280744 
L 517.781601 340.739625 
L 518.147011 340.739625 
L 518.158164 341.280744 
L 518.733275 340.198506 
L 519.038285 341.821863 
L 519.200164 341.821863 
L 519.388834 341.280744 
L 519.442163 342.362982 
L 519.709998 341.280744 
L 519.874919 342.362982 
L 520.041176 341.280744 
L 520.109884 341.821863 
L 520.45086 341.821863 
L 520.6552 342.362982 
L 520.748659 343.445221 
L 520.93892 342.362982 
L 521.251943 342.904102 
L 521.390412 343.445221 
L 521.561503 342.904102 
L 521.707581 345.068578 
L 521.936872 345.068578 
L 522.240097 345.609697 
L 522.276678 344.527459 
L 522.575114 345.609697 
L 522.999922 344.527459 
L 523.114707 346.150816 
L 523.459162 346.691935 
L 523.83433 345.609697 
L 524.072111 345.068578 
L 524.733082 345.609697 
L 524.812252 346.150816 
L 525.059532 346.150816 
L 525.515377 346.691935 
L 525.741218 346.691935 
L 526.022633 347.233054 
L 526.307289 348.856411 
L 527.038119 348.315292 
L 527.273536 348.315292 
L 527.599979 346.691935 
L 527.910293 346.691935 
L 527.990282 346.150816 
L 528.226045 347.233054 
L 528.278569 346.150816 
L 528.536606 346.691935 
L 529.004686 346.691935 
L 529.24489 347.774173 
L 529.465362 346.691935 
L 529.766482 347.774173 
L 529.883875 347.233054 
L 530.044698 347.774173 
L 530.464577 346.691935 
L 530.707257 347.233054 
L 531.417082 347.233054 
L 531.586508 346.691935 
L 531.997624 347.774173 
L 532.16473 346.691935 
L 532.308866 346.691935 
L 532.364913 347.233054 
L 532.569253 347.233054 
L 532.789637 347.774173 
L 532.940439 346.691935 
L 533.174581 347.774173 
L 533.277409 346.691935 
L 533.564523 347.774173 
L 533.741071 347.774173 
L 533.855 347.233054 
L 534.041699 347.233054 
L 534.094457 346.691935 
L 534.105289 347.233054 
L 534.424014 347.233054 
L 534.531853 346.691935 
L 534.824224 347.774173 
L 535.093461 346.691935 
L 535.554869 347.233054 
L 536.540891 347.233054 
L 536.777354 346.691935 
L 537.028747 347.233054 
L 537.190567 346.691935 
L 537.290528 347.233054 
L 537.990813 347.233054 
L 538.204615 346.691935 
L 538.695519 347.774173 
L 538.81488 347.233054 
L 539.207535 347.774173 
L 539.636368 347.233054 
L 539.864129 347.774173 
L 540.399981 346.691935 
L 540.540581 346.150816 
L 540.773532 346.150816 
L 541.222201 347.774173 
L 541.344243 347.774173 
L 541.499175 346.691935 
L 541.863066 346.691935 
L 542.067169 347.233054 
L 542.221949 347.233054 
L 542.381981 346.691935 
L 542.684136 346.691935 
L 543.096712 347.233054 
L 543.325736 347.233054 
L 543.419494 347.774173 
L 543.63962 346.691935 
L 543.755596 347.774173 
L 543.899787 347.233054 
L 543.990853 347.774173 
L 544.568991 347.774173 
L 544.589917 348.856411 
L 544.683277 348.315292 
L 544.857945 348.315292 
L 544.96232 347.774173 
L 545.126498 348.315292 
L 545.307522 347.774173 
L 545.769151 348.315292 
L 546.161242 348.315292 
L 546.310165 349.39753 
L 546.368896 348.856411 
L 546.544369 349.39753 
L 546.779695 348.856411 
L 546.889862 348.315292 
L 547.054079 348.856411 
L 547.216024 348.315292 
L 547.410813 349.39753 
L 547.49334 348.315292 
L 547.668351 334.787316 
L 548.146189 334.787316 
L 548.277894 334.246197 
L 548.403075 336.410673 
L 549.10057 335.869554 
L 549.618811 335.869554 
L 549.719594 336.410673 
L 549.849201 336.410673 
L 550.255381 335.328435 
L 550.562624 335.328435 
L 550.575723 335.869554 
L 550.960361 336.410673 
L 551.232778 335.869554 
L 551.506438 334.787316 
L 551.54142 335.869554 
L 551.750491 334.787316 
L 551.83181 335.328435 
L 552.456382 335.328435 
L 552.490137 335.869554 
L 552.745886 335.869554 
L 552.920102 335.328435 
L 553.087991 335.328435 
L 553.141678 334.787316 
L 553.502669 335.869554 
L 553.824041 334.787316 
L 553.991326 334.787316 
L 554.505411 335.328435 
L 554.605331 334.787316 
L 554.687582 335.869554 
L 555.020581 336.951792 
L 555.244605 335.869554 
L 555.576591 336.951792 
L 555.906053 335.869554 
L 556.025967 336.951792 
L 556.322745 335.869554 
L 556.446422 335.869554 
L 556.496193 336.951792 
L 556.643976 336.410673 
L 556.81636 336.951792 
L 557.095454 336.951792 
L 557.129117 338.03403 
L 557.344231 337.492911 
L 557.467016 337.492911 
L 557.556988 336.951792 
L 557.80986 337.492911 
L 558.071907 338.575149 
L 558.085534 340.198506 
L 558.236431 339.116268 
L 558.240955 340.739625 
L 558.421392 340.739625 
L 558.547349 341.280744 
L 558.793592 340.739625 
L 559.174344 341.280744 
L 559.38167 340.739625 
L 559.622988 340.739625 
L 559.723844 341.280744 
L 560.004956 341.821863 
L 560.157463 340.739625 
L 560.277847 340.739625 
L 560.576133 342.362982 
L 560.762556 342.904102 
L 561.346897 342.362982 
L 561.569106 342.362982 
L 561.712081 341.821863 
L 562.024197 344.527459 
L 562.189089 344.527459 
L 562.332471 345.068578 
L 562.612199 341.821863 
L 562.82995 341.280744 
L 563.097202 342.362982 
L 563.192952 341.280744 
L 563.441242 342.904102 
L 563.477393 343.445221 
L 563.715735 343.98634 
L 563.715735 343.98634 
" clip-path="url(#p2aca00c092)" style="fill: none; stroke-dasharray: 3,1.5; stroke-dashoffset: 0; stroke: #808080; stroke-width: 1.5"/>
   </g>
   <g id="line2d_19">
    <path d="M 38.539265 299.614578 
L 39.825861 299.073459 
L 41.108305 297.991221 
L 44.145258 297.991221 
L 47.493862 297.450102 
L 47.742279 297.991221 
L 47.897208 297.991221 
L 48.003142 296.908983 
L 48.247636 297.450102 
L 48.609251 296.908983 
L 49.313313 296.908983 
L 49.70544 294.203388 
L 49.792911 296.908983 
L 49.996445 293.662269 
L 50.061172 294.203388 
L 50.289249 294.203388 
L 50.654087 293.662269 
L 51.252175 293.662269 
L 51.558376 291.497793 
L 52.03435 291.497793 
L 52.517503 292.580031 
L 52.824863 288.251078 
L 52.8929 288.792197 
L 53.182139 288.251078 
L 53.741638 286.627721 
L 54.121133 287.709959 
L 54.720973 287.709959 
L 55.056194 288.792197 
L 55.282807 288.251078 
L 55.965524 287.709959 
L 56.271879 287.709959 
L 56.605009 286.627721 
L 57.083015 286.627721 
L 57.577387 283.381007 
L 58.906374 281.75765 
L 59.087358 281.216531 
L 59.470711 281.216531 
L 59.712448 280.675412 
L 60.097607 280.675412 
L 60.381163 281.75765 
L 60.670004 282.298769 
L 60.992047 282.298769 
L 61.180636 281.75765 
L 63.480566 281.75765 
L 63.848187 281.216531 
L 64.443204 281.216531 
L 64.772484 280.675412 
L 65.088021 280.675412 
L 65.21054 281.216531 
L 65.989837 280.675412 
L 66.316455 281.216531 
L 67.21697 281.216531 
L 67.506088 280.675412 
L 67.861543 281.216531 
L 69.500575 281.216531 
L 69.836389 280.675412 
L 70.020717 279.052055 
L 70.46935 280.134293 
L 71.101178 280.134293 
L 71.396379 279.052055 
L 71.512545 280.134293 
L 72.03012 278.510935 
L 72.343071 278.510935 
L 72.647014 277.969816 
L 72.986263 277.969816 
L 73.29775 278.510935 
L 73.595391 277.428697 
L 73.859638 277.428697 
L 74.578066 276.346459 
L 78.350028 276.346459 
L 78.649873 275.264221 
L 79.288921 275.264221 
L 79.57256 272.558626 
L 80.523881 272.558626 
L 81.434508 270.39415 
L 82.402413 270.39415 
L 82.749086 269.853031 
L 88.596867 269.853031 
L 89.298922 268.229674 
L 89.45796 269.853031 
L 90.584076 269.853031 
L 90.889877 268.770793 
L 91.227265 269.853031 
L 92.029998 269.853031 
L 92.47339 268.770793 
L 92.80255 269.853031 
L 97.773674 269.853031 
L 98.045333 264.982959 
L 98.233679 269.853031 
L 100.035219 269.853031 
L 100.362259 269.311912 
L 100.548929 264.44184 
L 100.989884 269.311912 
L 101.30132 269.311912 
L 101.508056 269.853031 
L 104.769896 269.853031 
L 104.935078 269.311912 
L 105.231511 269.311912 
L 105.719701 267.688555 
L 110.640158 267.688555 
L 111.71403 267.147436 
L 118.32275 267.147436 
L 118.597943 264.44184 
L 118.949588 264.44184 
L 119.26141 267.147436 
L 119.582225 267.147436 
L 119.803283 264.44184 
L 120.042867 267.147436 
L 120.441019 264.44184 
L 120.793702 263.359602 
L 124.883201 263.359602 
L 125.236175 262.818483 
L 126.78476 262.818483 
L 127.103106 261.736245 
L 127.488018 259.571769 
L 127.762974 259.03065 
L 128.073761 255.783936 
L 128.457449 255.783936 
L 128.971909 254.701698 
L 129.326956 254.701698 
L 129.9402 253.61946 
L 132.514085 248.749388 
L 132.776897 249.831626 
L 134.617168 249.831626 
L 134.976193 247.66715 
L 135.29279 248.208269 
L 136.560234 248.208269 
L 136.791968 249.290507 
L 137.199569 248.208269 
L 138.120067 248.208269 
L 138.433338 247.126031 
L 138.735515 247.126031 
L 139.093392 246.584912 
L 139.237805 246.584912 
L 139.399204 244.961555 
L 139.617993 244.961555 
L 140.352907 244.420436 
L 140.960141 246.043793 
L 141.108626 246.043793 
L 141.584647 245.502674 
L 141.890065 244.420436 
L 143.468413 244.420436 
L 143.773154 243.879317 
L 144.100402 243.879317 
L 144.403376 243.338198 
L 144.687194 243.338198 
L 145.34669 242.797079 
L 145.687291 242.797079 
L 146.026938 241.173722 
L 146.580758 241.173722 
L 146.926867 240.632603 
L 147.14193 240.632603 
L 147.261997 250.372745 
L 147.35292 249.831626 
L 147.873394 249.831626 
L 148.181759 248.749388 
L 148.593585 248.749388 
L 148.805716 248.208269 
L 149.272204 248.208269 
L 149.318624 247.66715 
L 150.05349 247.66715 
L 150.44804 246.043793 
L 151.267973 244.420436 
L 152.60069 244.420436 
L 152.888825 243.338198 
L 152.99732 243.879317 
L 153.12296 243.879317 
L 153.471378 244.420436 
L 154.739365 243.879317 
L 157.911712 243.879317 
L 158.279308 244.420436 
L 159.814711 244.420436 
L 160.033234 244.961555 
L 160.433517 244.420436 
L 162.908556 244.420436 
L 163.410041 243.879317 
L 163.796261 243.879317 
L 164.215561 243.338198 
L 164.426541 243.879317 
L 166.447788 243.879317 
L 167.085681 242.797079 
L 168.443259 242.797079 
L 168.671824 235.221412 
L 168.929489 235.221412 
L 171.12534 233.598055 
L 171.260275 234.139174 
L 171.401046 233.598055 
L 171.766438 234.139174 
L 172.072934 234.139174 
L 172.395523 233.598055 
L 172.63777 233.598055 
L 173.026688 232.515817 
L 173.186636 232.515817 
L 173.334663 233.056936 
L 173.666446 231.974698 
L 175.872276 231.974698 
L 176.086869 231.433579 
L 176.444641 231.433579 
L 176.776675 230.89246 
L 177.121384 231.433579 
L 177.273487 231.433579 
L 177.745942 231.974698 
L 178.099914 229.269103 
L 178.351912 230.89246 
L 178.680573 230.89246 
L 178.944008 227.645746 
L 179.128328 228.186865 
L 179.324545 227.104626 
L 179.423372 227.645746 
L 179.544332 226.022388 
L 179.857924 226.022388 
L 180.255253 225.481269 
L 181.033446 226.022388 
L 181.210642 224.94015 
L 181.50023 224.94015 
L 181.705305 226.563507 
L 182.40143 224.94015 
L 183.093618 224.399031 
L 183.701518 224.399031 
L 184.020417 222.775674 
L 184.313542 222.775674 
L 184.487172 223.316793 
L 184.791916 223.316793 
L 185.970564 220.070079 
L 186.167134 222.234555 
L 186.545511 222.775674 
L 186.989304 220.070079 
L 188.182193 220.070079 
L 188.284314 219.52896 
L 188.759632 218.987841 
L 190.026716 218.987841 
L 190.6067 216.282246 
L 193.865928 216.282246 
L 194.123291 215.200008 
L 194.46178 217.364484 
L 194.658841 215.741127 
L 198.212058 215.741127 
L 198.508934 215.200008 
L 199.22486 211.953293 
L 199.493452 213.57665 
L 199.813543 213.035531 
L 200.167974 213.57665 
L 200.417389 213.57665 
L 200.795311 208.16546 
L 200.997956 208.16546 
L 201.037288 207.624341 
L 201.674973 207.624341 
L 202.033896 206.542103 
L 202.350336 204.918746 
L 203.30225 204.377627 
L 203.362482 204.918746 
L 203.879328 205.459865 
L 203.956094 204.918746 
L 206.446496 204.918746 
L 206.619784 204.377627 
L 207.084546 203.836508 
L 207.705162 202.75427 
L 207.866582 201.672032 
L 208.084712 201.672032 
L 208.329071 200.589793 
L 208.623282 201.130912 
L 208.952715 201.130912 
L 209.200942 201.672032 
L 209.550883 201.130912 
L 209.863145 201.130912 
L 210.162429 200.589793 
L 210.404702 200.589793 
L 210.860747 201.130912 
L 211.097833 200.589793 
L 211.343215 201.130912 
L 211.757161 203.836508 
L 212.055794 204.377627 
L 212.741242 203.295389 
L 212.841458 199.507555 
L 212.994249 199.507555 
L 213.27382 198.966436 
L 213.598616 199.507555 
L 213.895154 199.507555 
L 214.260448 200.048674 
L 214.576848 198.966436 
L 215.718772 198.966436 
L 216.172592 198.425317 
L 216.431944 198.425317 
L 216.452069 197.884198 
L 217.746019 197.884198 
L 218.114401 196.80196 
L 219.924877 196.80196 
L 220.285789 195.719722 
L 223.753694 195.719722 
L 223.961392 195.178603 
L 224.521558 195.178603 
L 224.992906 194.637484 
L 225.308647 193.555246 
L 225.40306 194.096365 
L 225.746247 193.014127 
L 226.509696 193.014127 
L 229.601792 191.931889 
L 237.244929 191.931889 
L 237.556259 192.473008 
L 239.050572 192.473008 
L 239.360314 191.931889 
L 240.386749 191.931889 
L 240.741013 191.39077 
L 240.99575 191.931889 
L 241.291388 191.39077 
L 241.618505 191.931889 
L 241.886984 190.849651 
L 242.29818 191.39077 
L 242.598211 190.849651 
L 249.119997 190.849651 
L 249.456886 191.931889 
L 249.813783 191.39077 
L 250.136561 191.931889 
L 250.498107 191.39077 
L 250.788055 191.931889 
L 251.998149 191.931889 
L 252.305414 191.39077 
L 252.652484 191.931889 
L 253.084227 190.849651 
L 253.595667 190.849651 
L 253.94941 191.39077 
L 254.21412 190.308532 
L 254.554641 190.308532 
L 254.817722 190.849651 
L 255.648062 189.767413 
L 256.133815 190.308532 
L 256.422413 189.767413 
L 257.036403 189.767413 
L 257.382938 190.308532 
L 257.723215 188.685175 
L 258.050728 189.226294 
L 258.6795 189.226294 
L 258.919183 189.767413 
L 259.225719 189.226294 
L 259.560248 189.226294 
L 259.858789 193.555246 
L 259.977395 193.014127 
L 260.212 193.014127 
L 260.375431 192.473008 
L 260.517866 192.473008 
L 260.705396 191.931889 
L 260.832482 193.014127 
L 261.459895 191.931889 
L 261.998953 191.931889 
L 262.261102 190.849651 
L 262.520909 191.931889 
L 262.690059 191.39077 
L 263.643732 191.39077 
L 263.927638 191.931889 
L 264.196887 191.931889 
L 264.535226 191.39077 
L 264.848085 191.39077 
L 265.218955 191.931889 
L 265.576851 191.39077 
L 265.854542 191.39077 
L 266.291541 190.308532 
L 268.074185 190.308532 
L 268.367405 190.849651 
L 269.749004 190.849651 
L 270.066308 190.308532 
L 270.315905 189.767413 
L 270.804594 189.767413 
L 270.957058 188.685175 
L 271.026997 189.226294 
L 271.192355 188.685175 
L 271.65747 188.685175 
L 271.885478 187.602936 
L 272.506295 187.602936 
L 272.796083 186.520698 
L 273.754452 186.520698 
L 273.984285 184.897341 
L 274.196365 184.356222 
L 274.318756 184.356222 
L 274.731613 183.815103 
L 274.876922 184.356222 
L 274.947342 183.815103 
L 275.096334 183.815103 
L 275.270751 183.273984 
L 275.401282 183.273984 
L 275.934396 182.732865 
L 277.130425 182.732865 
L 277.438889 183.273984 
L 277.73445 182.732865 
L 278.067624 182.732865 
L 278.2273 182.191746 
L 278.265706 182.732865 
L 278.455224 182.191746 
L 278.603451 182.191746 
L 278.749831 181.109508 
L 279.313487 180.02727 
L 279.723929 180.568389 
L 280.035983 180.02727 
L 280.649453 180.02727 
L 280.982412 178.945032 
L 281.104304 179.486151 
L 281.302324 177.862794 
L 281.582922 178.403913 
L 281.764904 177.862794 
L 281.908797 178.403913 
L 282.067805 177.321675 
L 282.391902 177.321675 
L 282.487892 176.780556 
L 282.868131 177.321675 
L 283.162214 176.239437 
L 283.825706 176.239437 
L 284.06455 175.157198 
L 284.40333 176.239437 
L 284.633487 176.239437 
L 284.717869 175.698317 
L 285.33709 175.698317 
L 285.62674 173.533841 
L 286.043301 175.698317 
L 286.107886 175.157198 
L 286.656374 175.698317 
L 286.708312 174.616079 
L 286.89696 174.616079 
L 287.277096 174.07496 
L 287.585596 174.616079 
L 287.81866 174.616079 
L 288.163548 173.533841 
L 288.53876 173.533841 
L 288.902622 174.07496 
L 289.174562 173.533841 
L 289.339796 174.07496 
L 289.504137 172.992722 
L 290.960353 172.992722 
L 291.407919 172.451603 
L 292.32174 172.451603 
L 292.645979 173.533841 
L 293.257078 173.533841 
L 293.562929 172.992722 
L 296.345331 172.992722 
L 296.720835 173.533841 
L 297.072822 172.451603 
L 301.342903 172.451603 
L 302.279643 171.910484 
L 302.836014 171.910484 
L 303.287863 171.369365 
L 303.644946 171.369365 
L 303.854779 170.287127 
L 304.187454 170.828246 
L 308.607806 170.828246 
L 308.993854 171.369365 
L 309.29992 170.828246 
L 309.60229 171.369365 
L 309.807638 173.533841 
L 311.685358 173.533841 
L 311.99503 172.451603 
L 312.429665 173.533841 
L 314.228744 173.533841 
L 314.498389 172.451603 
L 314.600295 173.533841 
L 315.062165 173.533841 
L 315.275662 172.451603 
L 315.544783 173.533841 
L 315.745709 172.451603 
L 315.888319 172.451603 
L 316.072254 173.533841 
L 316.23312 172.451603 
L 316.336209 173.533841 
L 316.37773 172.451603 
L 317.4841 172.451603 
L 317.846279 170.828246 
L 318.248868 170.828246 
L 318.282073 170.287127 
L 318.606687 170.287127 
L 318.774772 169.746008 
L 318.918082 170.287127 
L 319.094141 169.746008 
L 319.213203 170.287127 
L 319.492446 169.746008 
L 319.610543 170.287127 
L 319.626737 169.746008 
L 319.980699 169.746008 
L 320.202478 169.204889 
L 320.342357 169.204889 
L 320.551829 168.122651 
L 320.784255 167.581532 
L 320.944779 168.122651 
L 322.732723 168.122651 
L 322.988366 167.581532 
L 324.358627 167.581532 
L 324.577208 167.040413 
L 324.866133 167.040413 
L 325.08053 166.499294 
L 325.198699 167.040413 
L 325.765629 167.040413 
L 325.95695 165.958175 
L 326.477697 165.958175 
L 326.527705 165.417056 
L 326.600369 165.958175 
L 326.889312 165.958175 
L 326.914463 165.417056 
L 327.124496 164.875937 
L 327.183198 165.417056 
L 327.421281 163.25258 
L 328.385518 163.25258 
L 328.482456 162.71146 
L 328.693694 162.71146 
L 328.817436 161.629222 
L 328.962662 162.71146 
L 330.242724 162.71146 
L 330.316793 162.170341 
L 330.562322 162.71146 
L 330.679879 162.170341 
L 330.89723 162.71146 
L 331.179558 162.71146 
L 331.352692 161.629222 
L 331.668295 161.629222 
L 331.797752 162.170341 
L 331.908669 161.088103 
L 332.236241 162.71146 
L 332.579512 161.629222 
L 332.82818 162.71146 
L 333.410292 162.71146 
L 333.863322 161.088103 
L 334.00429 161.629222 
L 334.160403 161.088103 
L 334.581644 162.170341 
L 334.716529 161.088103 
L 335.716225 161.088103 
L 335.877365 160.546984 
L 336.158175 160.546984 
L 336.30787 161.088103 
L 336.496798 160.546984 
L 336.61626 161.088103 
L 336.980176 160.005865 
L 337.477025 160.005865 
L 337.827435 158.923627 
L 338.436185 160.005865 
L 338.566279 159.464746 
L 338.726326 160.005865 
L 338.82782 159.464746 
L 339.031446 159.464746 
L 339.116785 160.005865 
L 339.511073 158.923627 
L 339.714046 159.464746 
L 339.814473 158.923627 
L 340.021413 159.464746 
L 340.296253 159.464746 
L 340.473525 158.923627 
L 340.590084 159.464746 
L 340.704953 159.464746 
L 340.961169 160.005865 
L 341.075947 158.923627 
L 341.596217 158.923627 
L 341.631287 157.841389 
L 343.856452 157.841389 
L 344.075969 157.30027 
L 344.220055 157.841389 
L 344.342125 157.30027 
L 344.434848 157.841389 
L 344.546071 156.759151 
L 345.058524 156.759151 
L 345.300257 156.218032 
L 345.349249 156.759151 
L 345.399442 156.218032 
L 345.675484 156.759151 
L 345.746825 156.218032 
L 346.016777 155.676913 
L 346.12251 155.135794 
L 346.324362 155.135794 
L 346.370775 154.594675 
L 346.651817 152.971318 
L 346.778313 153.512437 
L 346.94904 153.512437 
L 346.979797 152.430199 
L 348.179302 152.430199 
L 348.328286 151.88908 
L 348.563277 152.430199 
L 349.257209 150.806842 
L 349.476086 150.806842 
L 349.606337 150.265723 
L 349.909719 150.265723 
L 349.917157 149.724603 
L 350.010678 150.265723 
L 350.100327 149.183484 
L 350.232829 149.183484 
L 350.416246 148.642365 
L 351.67446 148.642365 
L 351.707665 149.183484 
L 351.786875 148.101246 
L 352.11869 148.101246 
L 352.288149 148.642365 
L 352.418593 148.101246 
L 352.614985 148.642365 
L 352.76213 148.101246 
L 352.927451 148.101246 
L 353.069508 148.642365 
L 353.210363 147.019008 
L 354.896543 147.019008 
L 355.403612 145.93677 
L 355.670526 146.477889 
L 362.040168 146.477889 
L 362.148313 145.93677 
L 362.34174 146.477889 
L 362.397488 145.93677 
L 362.975462 145.93677 
L 363.135505 145.395651 
L 363.946693 145.395651 
L 364.055078 144.854532 
L 364.207855 145.395651 
L 365.450472 145.395651 
L 365.62283 144.854532 
L 365.839886 145.395651 
L 365.959734 145.395651 
L 366.150727 144.313413 
L 366.255795 144.854532 
L 366.721489 144.854532 
L 366.924401 144.313413 
L 367.879513 144.313413 
L 368.035098 145.395651 
L 368.350355 144.313413 
L 370.046599 144.313413 
L 370.336376 143.772294 
L 370.375883 143.772294 
L 370.543211 143.231175 
L 370.668279 143.231175 
L 370.823095 142.690056 
L 371.185322 142.690056 
L 371.249491 142.148937 
L 371.55146 142.148937 
L 371.742202 143.231175 
L 371.891143 142.690056 
L 372.119129 142.690056 
L 372.212093 142.148937 
L 372.560875 142.148937 
L 372.872827 141.607818 
L 373.212995 139.984461 
L 373.324367 140.52558 
L 373.428069 139.984461 
L 373.666094 139.443342 
L 373.778963 139.984461 
L 374.081926 139.443342 
L 374.282292 139.984461 
L 374.445934 139.984461 
L 374.766527 138.361104 
L 375.075503 138.902223 
L 375.395488 137.819985 
L 375.458321 138.361104 
L 375.666292 137.819985 
L 375.810301 138.361104 
L 375.929024 137.819985 
L 376.441717 137.819985 
L 376.632608 141.066699 
L 377.142432 139.984461 
L 377.479051 139.984461 
L 377.596794 139.443342 
L 377.78019 139.984461 
L 377.897907 139.984461 
L 378.037199 140.52558 
L 378.197359 139.984461 
L 378.417358 139.984461 
L 378.525605 140.52558 
L 378.663134 139.984461 
L 378.850703 140.52558 
L 378.924427 139.984461 
L 379.3143 139.443342 
L 379.464093 139.443342 
L 379.600788 139.984461 
L 379.860329 139.443342 
L 380.920065 139.443342 
L 381.0134 136.737746 
L 381.286997 138.902223 
L 381.574265 139.443342 
L 382.090987 139.443342 
L 382.487132 138.361104 
L 382.623011 139.984461 
L 382.851711 139.443342 
L 383.143255 139.984461 
L 383.276621 138.361104 
L 383.43764 139.443342 
L 383.589816 139.443342 
L 383.691161 138.902223 
L 383.780368 134.57327 
L 384.090176 136.737746 
L 384.115877 134.032151 
L 384.943973 134.032151 
L 385.335696 132.949913 
L 385.497287 133.491032 
L 386.077403 133.491032 
L 386.235465 134.032151 
L 386.404399 133.491032 
L 386.589699 133.491032 
L 386.698559 134.032151 
L 387.029736 133.491032 
L 387.224292 133.491032 
L 387.351841 132.949913 
L 387.507837 133.491032 
L 387.675428 133.491032 
L 387.832484 134.032151 
L 387.929771 133.491032 
L 388.804643 133.491032 
L 389.02352 131.867675 
L 389.288153 132.408794 
L 389.507023 132.408794 
L 389.684215 132.949913 
L 389.764779 132.408794 
L 390.039247 132.949913 
L 390.141856 132.408794 
L 390.383651 132.408794 
L 390.478246 131.867675 
L 390.767204 132.408794 
L 391.362643 132.408794 
L 391.583399 131.867675 
L 391.95114 131.867675 
L 392.043863 131.326556 
L 392.200577 131.867675 
L 392.837596 130.244318 
L 392.986624 130.244318 
L 393.267033 129.703199 
L 395.547997 129.703199 
L 395.790998 129.16208 
L 396.018853 129.16208 
L 396.065244 130.244318 
L 396.122697 129.703199 
L 396.494441 129.703199 
L 396.579292 129.16208 
L 397.068433 129.16208 
L 397.302036 128.620961 
L 397.615785 128.620961 
L 397.626221 129.16208 
L 397.730519 128.620961 
L 397.826437 129.16208 
L 399.192632 129.16208 
L 399.448801 129.703199 
L 400.163393 129.16208 
L 401.645277 129.16208 
L 401.709399 128.620961 
L 403.264406 128.620961 
L 403.404478 128.079842 
L 404.842543 125.374247 
L 404.978837 125.374247 
L 405.121032 124.833128 
L 405.184357 125.374247 
L 405.490591 124.833128 
L 405.775101 124.292008 
L 406.11536 124.292008 
L 406.229624 123.750889 
L 406.65963 123.750889 
L 407.282443 124.292008 
L 407.313819 122.668651 
L 407.815068 122.668651 
L 407.970423 123.20977 
L 408.083264 122.668651 
L 408.92366 122.668651 
L 409.234844 123.20977 
L 410.737159 123.20977 
L 411.499741 122.668651 
L 413.040204 122.668651 
L 413.798754 122.127532 
L 413.900204 121.586413 
L 416.181521 121.586413 
L 416.395841 122.127532 
L 417.553971 122.127532 
L 418.399609 122.668651 
L 419.015836 122.668651 
L 419.321644 122.127532 
L 419.593143 121.045294 
L 419.754789 121.045294 
L 419.761098 121.586413 
L 421.574273 121.586413 
L 421.768872 121.045294 
L 426.34945 121.045294 
L 426.927009 120.504175 
L 427.149589 120.504175 
L 427.236474 119.421937 
L 427.519556 119.421937 
L 427.638439 119.963056 
L 427.822727 119.421937 
L 428.857449 119.421937 
L 429.318675 118.880818 
L 429.63906 117.79858 
L 432.445032 117.79858 
L 432.938909 118.339699 
L 433.081803 117.79858 
L 433.226355 118.339699 
L 433.388853 117.79858 
L 434.15844 117.79858 
L 434.513257 118.339699 
L 434.693309 117.79858 
L 435.189779 118.880818 
L 435.383274 117.79858 
L 436.584706 117.79858 
L 436.598919 117.257461 
L 438.502926 117.257461 
L 439.428677 116.716342 
L 439.706492 117.257461 
L 439.908814 116.716342 
L 440.03975 117.257461 
L 440.222657 117.257461 
L 440.347784 116.716342 
L 440.788818 117.79858 
L 441.080006 117.257461 
L 441.608536 117.79858 
L 441.76143 117.79858 
L 441.893116 117.257461 
L 442.692542 117.257461 
L 443.642395 117.79858 
L 443.785366 117.257461 
L 444.73052 117.257461 
L 445.037384 117.79858 
L 449.847896 117.257461 
L 450.20809 117.79858 
L 450.519384 117.257461 
L 450.798325 117.79858 
L 450.829533 117.257461 
L 451.072378 116.716342 
L 451.213017 116.716342 
L 451.341666 116.175223 
L 453.578239 116.175223 
L 453.625897 115.634104 
L 453.903906 115.634104 
L 454.646228 116.175223 
L 454.669843 115.634104 
L 454.955049 116.175223 
L 455.024369 115.092985 
L 455.207942 115.092985 
L 455.580371 114.551866 
L 456.204492 114.551866 
L 456.583462 115.092985 
L 457.009563 114.010747 
L 457.02704 113.469628 
L 457.440968 112.928509 
L 457.745406 113.469628 
L 458.173485 113.469628 
L 458.262474 112.928509 
L 459.237147 112.928509 
L 459.371419 113.469628 
L 459.535801 112.38739 
L 459.671286 112.38739 
L 459.928427 112.928509 
L 460.162285 112.38739 
L 460.683794 112.38739 
L 460.91347 110.764032 
L 462.551515 110.764032 
L 462.747349 110.222913 
L 462.867263 110.222913 
L 463.06458 110.764032 
L 463.115469 110.222913 
L 463.638143 110.222913 
L 463.743268 109.681794 
L 464.028791 109.140675 
L 464.110343 108.058437 
L 464.555818 108.058437 
L 464.723193 106.43508 
L 465.071702 106.43508 
L 465.275528 106.976199 
L 465.385644 106.43508 
L 465.533874 106.43508 
L 465.545195 104.811723 
L 466.337962 104.811723 
L 466.475386 104.270604 
L 466.817138 104.270604 
L 467.171274 104.811723 
L 467.207699 103.729485 
L 467.521258 103.729485 
L 467.579057 103.188366 
L 467.797536 102.647247 
L 468.374691 102.647247 
L 468.459521 101.565009 
L 468.707205 101.565009 
L 468.852417 101.02389 
L 468.991756 101.02389 
L 469.491438 100.482771 
L 469.686999 101.02389 
L 469.80346 106.976199 
L 469.929767 107.517318 
L 470.015311 105.352842 
L 470.631487 105.352842 
L 470.884748 105.893961 
L 471.069276 104.811723 
L 471.980566 104.811723 
L 472.164242 105.352842 
L 472.308054 104.811723 
L 473.278651 104.811723 
L 473.398161 104.270604 
L 473.840664 105.352842 
L 474.200486 104.811723 
L 474.406679 104.811723 
L 474.485874 104.270604 
L 474.667914 105.352842 
L 474.84487 104.270604 
L 475.579091 104.270604 
L 475.692893 104.811723 
L 475.954431 104.811723 
L 475.995572 104.270604 
L 476.291706 103.729485 
L 476.303263 104.270604 
L 476.541857 103.729485 
L 476.860177 103.729485 
L 477.146818 103.188366 
L 478.634282 103.188366 
L 478.745815 102.647247 
L 479.040801 103.188366 
L 479.05065 102.647247 
L 479.474227 102.106128 
L 479.734489 102.106128 
L 480.033989 101.565009 
L 480.297864 101.02389 
L 480.657643 102.106128 
L 480.728715 101.02389 
L 480.970645 101.565009 
L 481.174278 101.02389 
L 482.08308 101.02389 
L 482.184905 100.482771 
L 482.311813 101.02389 
L 482.751595 100.482771 
L 482.96402 101.02389 
L 483.179305 100.482771 
L 483.308654 101.02389 
L 483.609894 99.941652 
L 483.818029 100.482771 
L 484.529926 100.482771 
L 484.813147 99.941652 
L 485.226692 99.941652 
L 485.555717 101.02389 
L 485.643413 100.482771 
L 485.994971 100.482771 
L 486.08419 99.400533 
L 486.527581 100.482771 
L 486.682423 99.941652 
L 487.039674 100.482771 
L 487.30045 100.482771 
L 487.434049 99.941652 
L 487.753385 99.941652 
L 488.171585 99.400533 
L 488.225763 100.482771 
L 488.375913 99.400533 
L 488.51357 99.941652 
L 488.596192 99.400533 
L 488.923961 99.941652 
L 489.317236 99.400533 
L 489.515335 99.400533 
L 489.787268 99.941652 
L 490.173801 99.941652 
L 490.570113 98.859414 
L 490.777709 99.400533 
L 491.19749 99.400533 
L 491.393794 99.941652 
L 491.422694 100.482771 
L 491.667243 99.400533 
L 491.796933 99.941652 
L 491.94948 99.400533 
L 492.176152 99.941652 
L 492.432702 99.941652 
L 492.597514 100.482771 
L 492.910075 100.482771 
L 493.23549 99.400533 
L 493.456301 99.941652 
L 493.725203 98.859414 
L 493.865242 98.859414 
L 493.953142 99.400533 
L 494.226627 99.400533 
L 494.249582 98.859414 
L 495.156195 98.859414 
L 495.30472 98.318294 
L 495.431938 98.318294 
L 495.628049 97.777175 
L 495.797198 98.318294 
L 495.9262 97.777175 
L 496.118523 97.777175 
L 496.226788 97.236056 
L 496.366525 97.777175 
L 496.411546 97.236056 
L 496.566238 96.153818 
L 496.755232 96.694937 
L 496.81471 97.236056 
L 497.014026 96.694937 
L 497.176911 97.236056 
L 497.489344 96.694937 
L 497.694966 96.694937 
L 497.784549 96.153818 
L 498.006809 96.694937 
L 498.590524 95.07158 
L 498.747544 95.07158 
L 498.909958 96.153818 
L 498.986742 95.612699 
L 499.216367 95.612699 
L 499.320841 96.153818 
L 499.508603 96.153818 
L 499.679549 95.612699 
L 499.899314 95.612699 
L 500.268275 93.989342 
L 500.464572 94.530461 
L 503.044929 94.530461 
L 503.165007 93.989342 
L 503.317281 93.989342 
L 503.439738 94.530461 
L 503.68543 93.989342 
L 504.297541 93.989342 
L 504.399939 92.907104 
L 505.047619 93.989342 
L 505.501064 93.989342 
L 506.121538 92.907104 
L 507.218416 93.448223 
L 507.496975 92.907104 
L 507.803853 93.448223 
L 508.023025 92.365985 
L 508.110929 93.448223 
L 508.399847 92.365985 
L 508.714633 93.448223 
L 508.818837 92.365985 
L 509.020696 92.365985 
L 509.131661 92.907104 
L 509.332791 92.365985 
L 509.453496 92.365985 
L 509.565928 92.907104 
L 509.702536 91.283747 
L 510.060803 92.365985 
L 510.395892 92.365985 
L 510.600643 91.824866 
L 510.987056 91.824866 
L 511.301303 92.365985 
L 511.485015 92.365985 
L 511.623896 91.283747 
L 511.797132 92.365985 
L 511.893851 91.824866 
L 512.127385 91.283747 
L 512.270578 91.283747 
L 512.520929 92.365985 
L 512.760324 90.742628 
L 513.061218 90.742628 
L 513.084056 89.66039 
L 513.10507 90.201509 
L 513.262436 90.742628 
L 513.427859 89.66039 
L 513.496858 90.742628 
L 513.746223 90.742628 
L 513.7802 90.201509 
L 514.061148 89.66039 
L 514.229292 89.66039 
L 514.308104 90.742628 
L 514.685137 89.66039 
L 514.746196 90.742628 
L 514.951555 89.66039 
L 515.109529 91.283747 
L 515.589754 90.201509 
L 515.951521 91.824866 
L 515.979495 91.283747 
L 516.208644 91.824866 
L 516.353512 91.824866 
L 516.503907 90.742628 
L 516.68351 91.824866 
L 517.02881 90.742628 
L 517.159815 91.824866 
L 517.301661 91.283747 
L 517.590713 91.283747 
L 517.781601 91.824866 
L 518.147011 91.824866 
L 518.158164 91.283747 
L 518.733275 92.365985 
L 519.038285 90.742628 
L 519.200164 90.742628 
L 519.388834 91.283747 
L 519.442163 90.201509 
L 519.709998 91.283747 
L 519.874919 90.201509 
L 520.041176 91.283747 
L 520.109884 90.742628 
L 520.45086 90.742628 
L 520.6552 90.201509 
L 520.748659 89.119271 
L 520.93892 90.201509 
L 521.251943 89.66039 
L 521.390412 89.119271 
L 521.561503 89.66039 
L 521.707581 87.495914 
L 521.936872 87.495914 
L 522.240097 86.954795 
L 522.276678 88.037033 
L 522.575114 86.954795 
L 522.999922 88.037033 
L 523.114707 86.413676 
L 523.459162 85.872556 
L 523.83433 86.954795 
L 524.072111 87.495914 
L 524.733082 86.954795 
L 524.812252 86.413676 
L 525.741218 86.413676 
L 526.022633 85.872556 
L 526.307289 84.249199 
L 527.038119 84.790318 
L 527.599979 84.790318 
L 527.910293 84.249199 
L 527.990282 84.790318 
L 528.226045 83.70808 
L 528.278569 84.790318 
L 528.536606 84.249199 
L 529.004686 84.249199 
L 529.24489 83.166961 
L 529.465362 84.249199 
L 529.766482 83.166961 
L 529.883875 83.70808 
L 530.044698 83.166961 
L 530.464577 83.70808 
L 530.707257 83.166961 
L 531.417082 83.166961 
L 531.586508 83.70808 
L 531.997624 82.625842 
L 532.16473 83.70808 
L 532.308866 83.70808 
L 532.364913 83.166961 
L 532.569253 83.166961 
L 532.789637 82.625842 
L 532.940439 83.70808 
L 533.174581 82.625842 
L 533.277409 83.70808 
L 533.564523 82.625842 
L 533.741071 82.625842 
L 533.855 83.166961 
L 534.041699 83.166961 
L 534.094457 83.70808 
L 534.105289 83.166961 
L 534.424014 83.166961 
L 534.531853 83.70808 
L 534.824224 82.625842 
L 535.093461 83.70808 
L 535.554869 83.166961 
L 536.540891 83.166961 
L 536.777354 83.70808 
L 537.028747 83.166961 
L 537.190567 83.70808 
L 537.290528 83.166961 
L 537.990813 83.166961 
L 538.204615 83.70808 
L 538.695519 82.625842 
L 538.81488 83.166961 
L 539.207535 82.625842 
L 539.636368 83.166961 
L 539.864129 82.625842 
L 540.399981 83.70808 
L 540.540581 84.249199 
L 540.773532 84.249199 
L 541.222201 82.625842 
L 541.344243 82.625842 
L 541.499175 83.70808 
L 541.863066 83.70808 
L 542.067169 83.166961 
L 542.221949 83.166961 
L 542.381981 83.70808 
L 542.684136 83.70808 
L 543.096712 83.166961 
L 543.325736 83.166961 
L 543.419494 82.625842 
L 543.63962 83.70808 
L 543.755596 82.625842 
L 543.899787 83.166961 
L 543.990853 82.625842 
L 544.568991 82.625842 
L 544.589917 81.543604 
L 544.683277 82.084723 
L 544.857945 82.084723 
L 544.96232 82.625842 
L 545.126498 82.084723 
L 545.307522 82.625842 
L 545.769151 82.084723 
L 546.161242 82.084723 
L 546.310165 81.002485 
L 546.368896 81.543604 
L 546.544369 81.002485 
L 546.779695 81.543604 
L 546.889862 82.084723 
L 547.054079 81.543604 
L 547.216024 82.084723 
L 547.410813 81.002485 
L 547.49334 82.084723 
L 547.668351 90.201509 
L 548.146189 90.201509 
L 548.277894 90.742628 
L 548.403075 88.578152 
L 549.10057 89.119271 
L 549.618811 89.119271 
L 549.719594 88.578152 
L 549.849201 88.578152 
L 550.255381 89.66039 
L 550.562624 89.66039 
L 550.575723 89.119271 
L 550.960361 88.578152 
L 551.232778 89.119271 
L 551.506438 90.201509 
L 551.54142 89.119271 
L 551.750491 90.201509 
L 551.83181 89.66039 
L 552.456382 89.66039 
L 552.490137 89.119271 
L 552.745886 89.119271 
L 552.920102 89.66039 
L 553.087991 89.66039 
L 553.141678 90.201509 
L 553.502669 89.119271 
L 553.824041 90.201509 
L 553.991326 90.201509 
L 554.505411 89.66039 
L 554.605331 90.201509 
L 554.687582 89.119271 
L 555.020581 88.037033 
L 555.244605 89.119271 
L 555.576591 88.037033 
L 555.906053 89.119271 
L 556.025967 88.037033 
L 556.322745 89.119271 
L 556.446422 89.119271 
L 556.496193 88.037033 
L 556.643976 88.578152 
L 556.81636 88.037033 
L 557.095454 88.037033 
L 557.129117 86.954795 
L 557.344231 87.495914 
L 557.467016 87.495914 
L 557.556988 88.037033 
L 557.80986 87.495914 
L 558.071907 86.413676 
L 558.085534 84.790318 
L 558.236431 85.872556 
L 558.240955 84.249199 
L 558.421392 84.249199 
L 558.547349 83.70808 
L 558.793592 84.249199 
L 559.174344 83.70808 
L 559.38167 84.249199 
L 559.622988 84.249199 
L 559.723844 83.70808 
L 560.004956 83.166961 
L 560.157463 84.249199 
L 560.277847 84.249199 
L 560.576133 82.625842 
L 560.762556 82.084723 
L 561.346897 82.625842 
L 561.569106 82.625842 
L 561.712081 83.166961 
L 562.024197 80.461366 
L 562.189089 80.461366 
L 562.332471 79.920247 
L 562.612199 77.214652 
L 562.82995 77.755771 
L 563.097202 76.673533 
L 563.192952 77.755771 
L 563.441242 76.132414 
L 563.477393 75.591295 
L 563.715735 75.050176 
L 563.715735 75.050176 
" clip-path="url(#p2aca00c092)" style="fill: none; stroke-dasharray: 6,1.5; stroke-dashoffset: 0; stroke: #008000; stroke-width: 1.5"/>
   </g>
   <g id="line2d_20">
    <path d="M 38.539265 362.384387 
L 39.825861 363.466625 
L 41.108305 363.466625 
L 42.348788 362.925506 
L 44.145258 362.925506 
L 47.897208 362.384387 
L 48.003142 362.925506 
L 51.252175 362.925506 
L 51.558376 364.007744 
L 52.235823 364.007744 
L 52.517503 360.76103 
L 52.8929 364.007744 
L 54.720973 364.007744 
L 55.056194 360.76103 
L 57.577387 360.76103 
L 58.906374 361.302149 
L 59.087358 361.843268 
L 60.097607 361.843268 
L 60.381163 360.219911 
L 63.480566 360.219911 
L 63.848187 360.76103 
L 73.29775 360.76103 
L 73.595391 360.219911 
L 79.288921 360.219911 
L 79.57256 362.384387 
L 126.78476 362.384387 
L 127.103106 363.466625 
L 127.488018 366.713339 
L 127.762974 366.713339 
L 128.073761 367.254458 
L 129.9402 367.254458 
L 132.514085 368.877816 
L 132.776897 368.877816 
L 133.217564 369.418935 
L 146.227755 369.418935 
L 146.926867 370.501173 
L 176.444641 370.501173 
L 176.776675 371.042292 
L 177.121384 370.501173 
L 179.128328 370.501173 
L 179.423372 371.042292 
L 184.791916 371.042292 
L 185.970564 372.12453 
L 186.167134 371.042292 
L 186.545511 371.042292 
L 186.857395 372.12453 
L 194.123291 372.12453 
L 194.46178 371.583411 
L 194.658841 372.12453 
L 211.757161 372.12453 
L 212.055794 373.206768 
L 250.136561 373.206768 
L 250.498107 373.747887 
L 337.827435 373.747887 
L 338.176672 373.206768 
L 348.563277 373.206768 
L 348.970324 373.747887 
L 349.079114 374.830125 
L 376.441717 374.830125 
L 376.632608 374.289006 
L 379.3143 374.289006 
L 379.464093 374.830125 
L 487.620482 374.830125 
L 487.753385 374.289006 
L 495.9262 374.289006 
L 496.226788 374.830125 
L 527.273536 374.830125 
L 527.599979 374.289006 
L 563.715735 374.289006 
L 563.715735 374.289006 
" clip-path="url(#p2aca00c092)" style="fill: none; stroke-dasharray: 9,3; stroke-dashoffset: 0; stroke: #ffa500; stroke-width: 1.5"/>
   </g>
   <g id="line2d_21">
    <path d="M 38.539265 325.047173 
L 47.897208 325.047173 
L 48.003142 325.588292 
L 51.252175 325.588292 
L 51.558376 326.129411 
L 52.235823 326.129411 
L 52.517503 327.211649 
L 52.8929 326.129411 
L 54.720973 326.129411 
L 55.282807 327.752768 
L 56.605009 327.752768 
L 56.902894 328.293887 
L 57.083015 327.752768 
L 57.233682 328.293887 
L 71.101178 328.293887 
L 71.396379 329.376125 
L 71.512545 328.293887 
L 72.03012 329.376125 
L 88.596867 329.376125 
L 89.298922 329.917245 
L 89.45796 329.376125 
L 90.584076 329.376125 
L 90.889877 329.917245 
L 91.227265 329.376125 
L 92.029998 329.376125 
L 92.47339 329.917245 
L 92.80255 329.376125 
L 118.32275 329.376125 
L 118.597943 329.917245 
L 118.949588 329.917245 
L 119.26141 329.376125 
L 119.582225 329.376125 
L 119.803283 329.917245 
L 120.042867 329.376125 
L 120.441019 329.917245 
L 127.103106 329.917245 
L 127.488018 329.376125 
L 127.762974 329.376125 
L 128.073761 330.458364 
L 129.588664 330.458364 
L 129.9402 333.163959 
L 132.514085 330.999483 
L 132.776897 331.540602 
L 134.617168 331.540602 
L 134.976193 334.246197 
L 135.29279 334.787316 
L 149.554904 334.787316 
L 150.05349 334.246197 
L 150.44804 334.787316 
L 151.328059 334.246197 
L 153.471378 334.246197 
L 154.739365 334.787316 
L 160.033234 334.787316 
L 160.433517 335.328435 
L 193.865928 335.328435 
L 194.123291 335.869554 
L 194.46178 335.328435 
L 200.417389 335.328435 
L 200.795311 342.362982 
L 201.674973 342.362982 
L 202.033896 346.691935 
L 202.350336 348.315292 
L 221.51479 348.315292 
L 224.210243 348.856411 
L 252.652484 348.856411 
L 252.968683 351.020887 
L 259.560248 351.020887 
L 259.858789 347.774173 
L 275.096334 347.774173 
L 275.270751 348.315292 
L 303.644946 348.315292 
L 303.854779 348.856411 
L 304.187454 348.315292 
L 311.852894 348.315292 
L 311.99503 348.856411 
L 312.285041 348.315292 
L 314.228744 348.315292 
L 314.498389 348.856411 
L 314.600295 348.315292 
L 317.4841 348.315292 
L 317.685478 348.856411 
L 326.712783 348.856411 
L 326.914463 348.315292 
L 338.176672 348.315292 
L 338.436185 347.774173 
L 338.566279 348.315292 
L 338.726326 347.774173 
L 338.82782 348.315292 
L 339.031446 348.315292 
L 339.116785 347.774173 
L 339.345136 348.315292 
L 340.704953 348.315292 
L 340.961169 347.774173 
L 341.075947 348.315292 
L 348.970324 348.315292 
L 349.079114 347.774173 
L 376.441717 347.774173 
L 376.632608 348.315292 
L 380.920065 348.315292 
L 381.0134 351.020887 
L 381.286997 348.315292 
L 383.766793 348.315292 
L 383.780368 351.020887 
L 384.090176 348.315292 
L 384.115877 351.020887 
L 408.92366 351.020887 
L 409.234844 350.479768 
L 409.502173 351.020887 
L 439.706492 351.020887 
L 439.908814 351.562006 
L 440.03975 351.020887 
L 440.347784 351.020887 
L 440.788818 351.562006 
L 460.683794 351.562006 
L 460.91347 352.103125 
L 463.743268 352.103125 
L 464.028791 352.644244 
L 469.686999 352.644244 
L 469.80346 352.103125 
L 476.303263 352.103125 
L 476.541857 352.644244 
L 487.620482 352.644244 
L 487.753385 356.432078 
L 495.9262 356.432078 
L 496.226788 355.890959 
L 503.68543 355.890959 
L 504.399939 358.055435 
L 511.623896 358.055435 
L 511.893851 357.514316 
L 525.059532 357.514316 
L 525.515377 356.973197 
L 527.273536 356.973197 
L 527.599979 359.137673 
L 527.990282 359.678792 
L 530.044698 359.678792 
L 530.464577 360.219911 
L 547.49334 360.219911 
L 547.668351 356.973197 
L 563.715735 356.973197 
L 563.715735 356.973197 
" clip-path="url(#p2aca00c092)" style="fill: none; stroke-dasharray: 12,4.5; stroke-dashoffset: 0; stroke: #ee82ee; stroke-width: 1.5"/>
   </g>
   <g id="patch_3">
    <path d="M 33.2875 374.830125 
L 33.2875 22.318125 
" style="fill: none; stroke: #000000; stroke-width: 0.8; stroke-linejoin: miter; stroke-linecap: square"/>
   </g>
   <g id="patch_4">
    <path d="M 568.9675 374.830125 
L 568.9675 22.318125 
" style="fill: none; stroke: #000000; stroke-width: 0.8; stroke-linejoin: miter; stroke-linecap: square"/>
   </g>
   <g id="patch_5">
    <path d="M 33.2875 374.830125 
L 568.9675 374.830125 
" style="fill: none; stroke: #000000; stroke-width: 0.8; stroke-linejoin: miter; stroke-linecap: square"/>
   </g>
   <g id="patch_6">
    <path d="M 33.2875 22.318125 
L 568.9675 22.318125 
" style="fill: none; stroke: #000000; stroke-width: 0.8; stroke-linejoin: miter; stroke-linecap: square"/>
   </g>
   <g id="text_17">
    <!-- Rust/Coreutils running GNU's testsuite -->
    <g transform="translate(186.090625 16.318125) scale(0.12 -0.12)">
     <defs>
      <path id="DejaVuSans-52" d="M 2841 2188 
Q 3044 2119 3236 1894 
Q 3428 1669 3622 1275 
L 4263 0 
L 3584 0 
L 2988 1197 
Q 2756 1666 2539 1819 
Q 2322 1972 1947 1972 
L 1259 1972 
L 1259 0 
L 628 0 
L 628 4666 
L 2053 4666 
Q 2853 4666 3247 4331 
Q 3641 3997 3641 3322 
Q 3641 2881 3436 2590 
Q 3231 2300 2841 2188 
z
M 1259 4147 
L 1259 2491 
L 2053 2491 
Q 2509 2491 2742 2702 
Q 2975 2913 2975 3322 
Q 2975 3731 2742 3939 
Q 2509 4147 2053 4147 
L 1259 4147 
z
" transform="scale(0.015625)"/>
      <path id="DejaVuSans-75" d="M 544 1381 
L 544 3500 
L 1119 3500 
L 1119 1403 
Q 1119 906 1312 657 
Q 1506 409 1894 409 
Q 2359 409 2629 706 
Q 2900 1003 2900 1516 
L 2900 3500 
L 3475 3500 
L 3475 0 
L 2900 0 
L 2900 538 
Q 2691 219 2414 64 
Q 2138 -91 1772 -91 
Q 1169 -91 856 284 
Q 544 659 544 1381 
z
M 1991 3584 
L 1991 3584 
z
" transform="scale(0.015625)"/>
      <path id="DejaVuSans-73" d="M 2834 3397 
L 2834 2853 
Q 2591 2978 2328 3040 
Q 2066 3103 1784 3103 
Q 1356 3103 1142 2972 
Q 928 2841 928 2578 
Q 928 2378 1081 2264 
Q 1234 2150 1697 2047 
L 1894 2003 
Q 2506 1872 2764 1633 
Q 3022 1394 3022 966 
Q 3022 478 2636 193 
Q 2250 -91 1575 -91 
Q 1294 -91 989 -36 
Q 684 19 347 128 
L 347 722 
Q 666 556 975 473 
Q 1284 391 1588 391 
Q 1994 391 2212 530 
Q 2431 669 2431 922 
Q 2431 1156 2273 1281 
Q 2116 1406 1581 1522 
L 1381 1569 
Q 847 1681 609 1914 
Q 372 2147 372 2553 
Q 372 3047 722 3315 
Q 1072 3584 1716 3584 
Q 2034 3584 2315 3537 
Q 2597 3491 2834 3397 
z
" transform="scale(0.015625)"/>
      <path id="DejaVuSans-74" d="M 1172 4494 
L 1172 3500 
L 2356 3500 
L 2356 3053 
L 1172 3053 
L 1172 1153 
Q 1172 725 1289 603 
Q 1406 481 1766 481 
L 2356 481 
L 2356 0 
L 1766 0 
Q 1100 0 847 248 
Q 594 497 594 1153 
L 594 3053 
L 172 3053 
L 172 3500 
L 594 3500 
L 594 4494 
L 1172 4494 
z
" transform="scale(0.015625)"/>
      <path id="DejaVuSans-2f" d="M 1625 4666 
L 2156 4666 
L 531 -594 
L 0 -594 
L 1625 4666 
z
" transform="scale(0.015625)"/>
      <path id="DejaVuSans-43" d="M 4122 4306 
L 4122 3641 
Q 3803 3938 3442 4084 
Q 3081 4231 2675 4231 
Q 1875 4231 1450 3742 
Q 1025 3253 1025 2328 
Q 1025 1406 1450 917 
Q 1875 428 2675 428 
Q 3081 428 3442 575 
Q 3803 722 4122 1019 
L 4122 359 
Q 3791 134 3420 21 
Q 3050 -91 2638 -91 
Q 1578 -91 968 557 
Q 359 1206 359 2328 
Q 359 3453 968 4101 
Q 1578 4750 2638 4750 
Q 3056 4750 3426 4639 
Q 3797 4528 4122 4306 
z
" transform="scale(0.015625)"/>
      <path id="DejaVuSans-6f" d="M 1959 3097 
Q 1497 3097 1228 2736 
Q 959 2375 959 1747 
Q 959 1119 1226 758 
Q 1494 397 1959 397 
Q 2419 397 2687 759 
Q 2956 1122 2956 1747 
Q 2956 2369 2687 2733 
Q 2419 3097 1959 3097 
z
M 1959 3584 
Q 2709 3584 3137 3096 
Q 3566 2609 3566 1747 
Q 3566 888 3137 398 
Q 2709 -91 1959 -91 
Q 1206 -91 779 398 
Q 353 888 353 1747 
Q 353 2609 779 3096 
Q 1206 3584 1959 3584 
z
" transform="scale(0.015625)"/>
      <path id="DejaVuSans-72" d="M 2631 2963 
Q 2534 3019 2420 3045 
Q 2306 3072 2169 3072 
Q 1681 3072 1420 2755 
Q 1159 2438 1159 1844 
L 1159 0 
L 581 0 
L 581 3500 
L 1159 3500 
L 1159 2956 
Q 1341 3275 1631 3429 
Q 1922 3584 2338 3584 
Q 2397 3584 2469 3576 
Q 2541 3569 2628 3553 
L 2631 2963 
z
" transform="scale(0.015625)"/>
      <path id="DejaVuSans-65" d="M 3597 1894 
L 3597 1613 
L 953 1613 
Q 991 1019 1311 708 
Q 1631 397 2203 397 
Q 2534 397 2845 478 
Q 3156 559 3463 722 
L 3463 178 
Q 3153 47 2828 -22 
Q 2503 -91 2169 -91 
Q 1331 -91 842 396 
Q 353 884 353 1716 
Q 353 2575 817 3079 
Q 1281 3584 2069 3584 
Q 2775 3584 3186 3129 
Q 3597 2675 3597 1894 
z
M 3022 2063 
Q 3016 2534 2758 2815 
Q 2500 3097 2075 3097 
Q 1594 3097 1305 2825 
Q 1016 2553 972 2059 
L 3022 2063 
z
" transform="scale(0.015625)"/>
      <path id="DejaVuSans-69" d="M 603 3500 
L 1178 3500 
L 1178 0 
L 603 0 
L 603 3500 
z
M 603 4863 
L 1178 4863 
L 1178 4134 
L 603 4134 
L 603 4863 
z
" transform="scale(0.015625)"/>
      <path id="DejaVuSans-6c" d="M 603 4863 
L 1178 4863 
L 1178 0 
L 603 0 
L 603 4863 
z
" transform="scale(0.015625)"/>
      <path id="DejaVuSans-20" transform="scale(0.015625)"/>
      <path id="DejaVuSans-6e" d="M 3513 2113 
L 3513 0 
L 2938 0 
L 2938 2094 
Q 2938 2591 2744 2837 
Q 2550 3084 2163 3084 
Q 1697 3084 1428 2787 
Q 1159 2491 1159 1978 
L 1159 0 
L 581 0 
L 581 3500 
L 1159 3500 
L 1159 2956 
Q 1366 3272 1645 3428 
Q 1925 3584 2291 3584 
Q 2894 3584 3203 3211 
Q 3513 2838 3513 2113 
z
" transform="scale(0.015625)"/>
      <path id="DejaVuSans-67" d="M 2906 1791 
Q 2906 2416 2648 2759 
Q 2391 3103 1925 3103 
Q 1463 3103 1205 2759 
Q 947 2416 947 1791 
Q 947 1169 1205 825 
Q 1463 481 1925 481 
Q 2391 481 2648 825 
Q 2906 1169 2906 1791 
z
M 3481 434 
Q 3481 -459 3084 -895 
Q 2688 -1331 1869 -1331 
Q 1566 -1331 1297 -1286 
Q 1028 -1241 775 -1147 
L 775 -588 
Q 1028 -725 1275 -790 
Q 1522 -856 1778 -856 
Q 2344 -856 2625 -561 
Q 2906 -266 2906 331 
L 2906 616 
Q 2728 306 2450 153 
Q 2172 0 1784 0 
Q 1141 0 747 490 
Q 353 981 353 1791 
Q 353 2603 747 3093 
Q 1141 3584 1784 3584 
Q 2172 3584 2450 3431 
Q 2728 3278 2906 2969 
L 2906 3500 
L 3481 3500 
L 3481 434 
z
" transform="scale(0.015625)"/>
      <path id="DejaVuSans-47" d="M 3809 666 
L 3809 1919 
L 2778 1919 
L 2778 2438 
L 4434 2438 
L 4434 434 
Q 4069 175 3628 42 
Q 3188 -91 2688 -91 
Q 1594 -91 976 548 
Q 359 1188 359 2328 
Q 359 3472 976 4111 
Q 1594 4750 2688 4750 
Q 3144 4750 3555 4637 
Q 3966 4525 4313 4306 
L 4313 3634 
Q 3963 3931 3569 4081 
Q 3175 4231 2741 4231 
Q 1884 4231 1454 3753 
Q 1025 3275 1025 2328 
Q 1025 1384 1454 906 
Q 1884 428 2741 428 
Q 3075 428 3337 486 
Q 3600 544 3809 666 
z
" transform="scale(0.015625)"/>
      <path id="DejaVuSans-4e" d="M 628 4666 
L 1478 4666 
L 3547 763 
L 3547 4666 
L 4159 4666 
L 4159 0 
L 3309 0 
L 1241 3903 
L 1241 0 
L 628 0 
L 628 4666 
z
" transform="scale(0.015625)"/>
      <path id="DejaVuSans-55" d="M 556 4666 
L 1191 4666 
L 1191 1831 
Q 1191 1081 1462 751 
Q 1734 422 2344 422 
Q 2950 422 3222 751 
Q 3494 1081 3494 1831 
L 3494 4666 
L 4128 4666 
L 4128 1753 
Q 4128 841 3676 375 
Q 3225 -91 2344 -91 
Q 1459 -91 1007 375 
Q 556 841 556 1753 
L 556 4666 
z
" transform="scale(0.015625)"/>
      <path id="DejaVuSans-27" d="M 1147 4666 
L 1147 2931 
L 616 2931 
L 616 4666 
L 1147 4666 
z
" transform="scale(0.015625)"/>
     </defs>
     <use xlink:href="#DejaVuSans-52"/>
     <use xlink:href="#DejaVuSans-75" x="64.982422"/>
     <use xlink:href="#DejaVuSans-73" x="128.361328"/>
     <use xlink:href="#DejaVuSans-74" x="180.460938"/>
     <use xlink:href="#DejaVuSans-2f" x="219.669922"/>
     <use xlink:href="#DejaVuSans-43" x="253.361328"/>
     <use xlink:href="#DejaVuSans-6f" x="323.185547"/>
     <use xlink:href="#DejaVuSans-72" x="384.367188"/>
     <use xlink:href="#DejaVuSans-65" x="423.230469"/>
     <use xlink:href="#DejaVuSans-75" x="484.753906"/>
     <use xlink:href="#DejaVuSans-74" x="548.132812"/>
     <use xlink:href="#DejaVuSans-69" x="587.341797"/>
     <use xlink:href="#DejaVuSans-6c" x="615.125"/>
     <use xlink:href="#DejaVuSans-73" x="642.908203"/>
     <use xlink:href="#DejaVuSans-20" x="695.007812"/>
     <use xlink:href="#DejaVuSans-72" x="726.794922"/>
     <use xlink:href="#DejaVuSans-75" x="767.908203"/>
     <use xlink:href="#DejaVuSans-6e" x="831.287109"/>
     <use xlink:href="#DejaVuSans-6e" x="894.666016"/>
     <use xlink:href="#DejaVuSans-69" x="958.044922"/>
     <use xlink:href="#DejaVuSans-6e" x="985.828125"/>
     <use xlink:href="#DejaVuSans-67" x="1049.207031"/>
     <use xlink:href="#DejaVuSans-20" x="1112.683594"/>
     <use xlink:href="#DejaVuSans-47" x="1144.470703"/>
     <use xlink:href="#DejaVuSans-4e" x="1221.960938"/>
     <use xlink:href="#DejaVuSans-55" x="1296.765625"/>
     <use xlink:href="#DejaVuSans-27" x="1369.958984"/>
     <use xlink:href="#DejaVuSans-73" x="1397.449219"/>
     <use xlink:href="#DejaVuSans-20" x="1449.548828"/>
     <use xlink:href="#DejaVuSans-74" x="1481.335938"/>
     <use xlink:href="#DejaVuSans-65" x="1520.544922"/>
     <use xlink:href="#DejaVuSans-73" x="1582.068359"/>
     <use xlink:href="#DejaVuSans-74" x="1634.167969"/>
     <use xlink:href="#DejaVuSans-73" x="1673.376953"/>
     <use xlink:href="#DejaVuSans-75" x="1725.476562"/>
     <use xlink:href="#DejaVuSans-69" x="1788.855469"/>
     <use xlink:href="#DejaVuSans-74" x="1816.638672"/>
     <use xlink:href="#DejaVuSans-65" x="1855.847656"/>
    </g>
   </g>
   <g id="legend_1">
    <g id="patch_7">
     <path d="M 505.762812 236.769437 
L 561.9675 236.769437 
Q 563.9675 236.769437 563.9675 234.769437 
L 563.9675 162.378812 
Q 563.9675 160.378812 561.9675 160.378812 
L 505.762812 160.378812 
Q 503.762812 160.378812 503.762812 162.378812 
L 503.762812 234.769437 
Q 503.762812 236.769437 505.762812 236.769437 
z
" style="fill: #ffffff; opacity: 0.8; stroke: #cccccc; stroke-linejoin: miter"/>
    </g>
    <g id="line2d_22">
     <path d="M 507.762812 168.47725 
L 517.762812 168.47725 
L 527.762812 168.47725 
" style="fill: none; stroke: #0000ff; stroke-width: 1.5; stroke-linecap: square"/>
    </g>
    <g id="text_18">
     <!-- total -->
     <g transform="translate(535.762812 171.97725) scale(0.1 -0.1)">
      <defs>
       <path id="DejaVuSans-61" d="M 2194 1759 
Q 1497 1759 1228 1600 
Q 959 1441 959 1056 
Q 959 750 1161 570 
Q 1363 391 1709 391 
Q 2188 391 2477 730 
Q 2766 1069 2766 1631 
L 2766 1759 
L 2194 1759 
z
M 3341 1997 
L 3341 0 
L 2766 0 
L 2766 531 
Q 2569 213 2275 61 
Q 1981 -91 1556 -91 
Q 1019 -91 701 211 
Q 384 513 384 1019 
Q 384 1609 779 1909 
Q 1175 2209 1959 2209 
L 2766 2209 
L 2766 2266 
Q 2766 2663 2505 2880 
Q 2244 3097 1772 3097 
Q 1472 3097 1187 3025 
Q 903 2953 641 2809 
L 641 3341 
Q 956 3463 1253 3523 
Q 1550 3584 1831 3584 
Q 2591 3584 2966 3190 
Q 3341 2797 3341 1997 
z
" transform="scale(0.015625)"/>
      </defs>
      <use xlink:href="#DejaVuSans-74"/>
      <use xlink:href="#DejaVuSans-6f" x="39.208984"/>
      <use xlink:href="#DejaVuSans-74" x="100.390625"/>
      <use xlink:href="#DejaVuSans-61" x="139.599609"/>
      <use xlink:href="#DejaVuSans-6c" x="200.878906"/>
     </g>
    </g>
    <g id="line2d_23">
     <path d="M 507.762812 183.155375 
L 517.762812 183.155375 
L 527.762812 183.155375 
" style="fill: none; stroke-dasharray: 3,1.5; stroke-dashoffset: 0; stroke: #808080; stroke-width: 1.5"/>
    </g>
    <g id="text_19">
     <!-- fail -->
     <g transform="translate(535.762812 186.655375) scale(0.1 -0.1)">
      <defs>
       <path id="DejaVuSans-66" d="M 2375 4863 
L 2375 4384 
L 1825 4384 
Q 1516 4384 1395 4259 
Q 1275 4134 1275 3809 
L 1275 3500 
L 2222 3500 
L 2222 3053 
L 1275 3053 
L 1275 0 
L 697 0 
L 697 3053 
L 147 3053 
L 147 3500 
L 697 3500 
L 697 3744 
Q 697 4328 969 4595 
Q 1241 4863 1831 4863 
L 2375 4863 
z
" transform="scale(0.015625)"/>
      </defs>
      <use xlink:href="#DejaVuSans-66"/>
      <use xlink:href="#DejaVuSans-61" x="35.205078"/>
      <use xlink:href="#DejaVuSans-69" x="96.484375"/>
      <use xlink:href="#DejaVuSans-6c" x="124.267578"/>
     </g>
    </g>
    <g id="line2d_24">
     <path d="M 507.762812 197.8335 
L 517.762812 197.8335 
L 527.762812 197.8335 
" style="fill: none; stroke-dasharray: 6,1.5; stroke-dashoffset: 0; stroke: #008000; stroke-width: 1.5"/>
    </g>
    <g id="text_20">
     <!-- pass -->
     <g transform="translate(535.762812 201.3335) scale(0.1 -0.1)">
      <defs>
       <path id="DejaVuSans-70" d="M 1159 525 
L 1159 -1331 
L 581 -1331 
L 581 3500 
L 1159 3500 
L 1159 2969 
Q 1341 3281 1617 3432 
Q 1894 3584 2278 3584 
Q 2916 3584 3314 3078 
Q 3713 2572 3713 1747 
Q 3713 922 3314 415 
Q 2916 -91 2278 -91 
Q 1894 -91 1617 61 
Q 1341 213 1159 525 
z
M 3116 1747 
Q 3116 2381 2855 2742 
Q 2594 3103 2138 3103 
Q 1681 3103 1420 2742 
Q 1159 2381 1159 1747 
Q 1159 1113 1420 752 
Q 1681 391 2138 391 
Q 2594 391 2855 752 
Q 3116 1113 3116 1747 
z
" transform="scale(0.015625)"/>
      </defs>
      <use xlink:href="#DejaVuSans-70"/>
      <use xlink:href="#DejaVuSans-61" x="63.476562"/>
      <use xlink:href="#DejaVuSans-73" x="124.755859"/>
      <use xlink:href="#DejaVuSans-73" x="176.855469"/>
     </g>
    </g>
    <g id="line2d_25">
     <path d="M 507.762812 212.511625 
L 517.762812 212.511625 
L 527.762812 212.511625 
" style="fill: none; stroke-dasharray: 9,3; stroke-dashoffset: 0; stroke: #ffa500; stroke-width: 1.5"/>
    </g>
    <g id="text_21">
     <!-- error -->
     <g transform="translate(535.762812 216.011625) scale(0.1 -0.1)">
      <use xlink:href="#DejaVuSans-65"/>
      <use xlink:href="#DejaVuSans-72" x="61.523438"/>
      <use xlink:href="#DejaVuSans-72" x="100.886719"/>
      <use xlink:href="#DejaVuSans-6f" x="139.75"/>
      <use xlink:href="#DejaVuSans-72" x="200.931641"/>
     </g>
    </g>
    <g id="line2d_26">
     <path d="M 507.762812 227.18975 
L 517.762812 227.18975 
L 527.762812 227.18975 
" style="fill: none; stroke-dasharray: 12,4.5; stroke-dashoffset: 0; stroke: #ee82ee; stroke-width: 1.5"/>
    </g>
    <g id="text_22">
     <!-- skip -->
     <g transform="translate(535.762812 230.68975) scale(0.1 -0.1)">
      <defs>
       <path id="DejaVuSans-6b" d="M 581 4863 
L 1159 4863 
L 1159 1991 
L 2875 3500 
L 3609 3500 
L 1753 1863 
L 3688 0 
L 2938 0 
L 1159 1709 
L 1159 0 
L 581 0 
L 581 4863 
z
" transform="scale(0.015625)"/>
      </defs>
      <use xlink:href="#DejaVuSans-73"/>
      <use xlink:href="#DejaVuSans-6b" x="52.099609"/>
      <use xlink:href="#DejaVuSans-69" x="110.009766"/>
      <use xlink:href="#DejaVuSans-70" x="137.792969"/>
     </g>
    </g>
   </g>
  </g>
 </g>
 <defs>
  <clipPath id="p2aca00c092">
   <rect x="33.2875" y="22.318125" width="535.68" height="352.512"/>
  </clipPath>
 </defs>
</svg>
