<?xml version="1.0" encoding="utf-8" standalone="no"?>
<!DOCTYPE svg PUBLIC "-//W3C//DTD SVG 1.1//EN"
  "http://www.w3.org/Graphics/SVG/1.1/DTD/svg11.dtd">
<svg xmlns:xlink="http://www.w3.org/1999/xlink" width="576.1675pt" height="418.303033pt" viewBox="0 0 576.1675 418.303033" xmlns="http://www.w3.org/2000/svg" version="1.1">
 <metadata>
  <rdf:RDF xmlns:dc="http://purl.org/dc/elements/1.1/" xmlns:cc="http://creativecommons.org/ns#" xmlns:rdf="http://www.w3.org/1999/02/22-rdf-syntax-ns#">
   <cc:Work>
    <dc:type rdf:resource="http://purl.org/dc/dcmitype/StillImage"/>
    <dc:date>2025-10-14T02:29:59.048418</dc:date>
    <dc:format>image/svg+xml</dc:format>
    <dc:creator>
     <cc:Agent>
      <dc:title>Matplotlib v3.6.3, https://matplotlib.org/</dc:title>
     </cc:Agent>
    </dc:creator>
   </cc:Work>
  </rdf:RDF>
 </metadata>
 <defs>
  <style type="text/css">*{stroke-linejoin: round; stroke-linecap: butt}</style>
 </defs>
 <g id="figure_1">
  <g id="patch_1">
   <path d="M -0 418.303033 
L 576.1675 418.303033 
L 576.1675 0 
L -0 0 
z
" style="fill: #ffffff"/>
  </g>
  <g id="axes_1">
   <g id="patch_2">
    <path d="M 33.2875 374.830125 
L 568.9675 374.830125 
L 568.9675 22.318125 
L 33.2875 22.318125 
z
" style="fill: #ffffff"/>
   </g>
   <g id="matplotlib.axis_1">
    <g id="xtick_1">
     <g id="line2d_1">
      <defs>
       <path id="m16adfb8b93" d="M 0 0 
L 0 3.5 
" style="stroke: #000000; stroke-width: 0.8"/>
      </defs>
      <g>
       <use xlink:href="#m16adfb8b93" x="61.444884" y="374.830125" style="stroke: #000000; stroke-width: 0.8"/>
      </g>
     </g>
     <g id="text_1">
      <!-- 2021-07 -->
      <g transform="translate(24.220063 409.301971) rotate(-30) scale(0.1 -0.1)">
       <defs>
        <path id="DejaVuSans-32" d="M 1228 531 
L 3431 531 
L 3431 0 
L 469 0 
L 469 531 
Q 828 903 1448 1529 
Q 2069 2156 2228 2338 
Q 2531 2678 2651 2914 
Q 2772 3150 2772 3378 
Q 2772 3750 2511 3984 
Q 2250 4219 1831 4219 
Q 1534 4219 1204 4116 
Q 875 4013 500 3803 
L 500 4441 
Q 881 4594 1212 4672 
Q 1544 4750 1819 4750 
Q 2544 4750 2975 4387 
Q 3406 4025 3406 3419 
Q 3406 3131 3298 2873 
Q 3191 2616 2906 2266 
Q 2828 2175 2409 1742 
Q 1991 1309 1228 531 
z
" transform="scale(0.015625)"/>
        <path id="DejaVuSans-30" d="M 2034 4250 
Q 1547 4250 1301 3770 
Q 1056 3291 1056 2328 
Q 1056 1369 1301 889 
Q 1547 409 2034 409 
Q 2525 409 2770 889 
Q 3016 1369 3016 2328 
Q 3016 3291 2770 3770 
Q 2525 4250 2034 4250 
z
M 2034 4750 
Q 2819 4750 3233 4129 
Q 3647 3509 3647 2328 
Q 3647 1150 3233 529 
Q 2819 -91 2034 -91 
Q 1250 -91 836 529 
Q 422 1150 422 2328 
Q 422 3509 836 4129 
Q 1250 4750 2034 4750 
z
" transform="scale(0.015625)"/>
        <path id="DejaVuSans-31" d="M 794 531 
L 1825 531 
L 1825 4091 
L 703 3866 
L 703 4441 
L 1819 4666 
L 2450 4666 
L 2450 531 
L 3481 531 
L 3481 0 
L 794 0 
L 794 531 
z
" transform="scale(0.015625)"/>
        <path id="DejaVuSans-2d" d="M 313 2009 
L 1997 2009 
L 1997 1497 
L 313 1497 
L 313 2009 
z
" transform="scale(0.015625)"/>
        <path id="DejaVuSans-37" d="M 525 4666 
L 3525 4666 
L 3525 4397 
L 1831 0 
L 1172 0 
L 2766 4134 
L 525 4134 
L 525 4666 
z
" transform="scale(0.015625)"/>
       </defs>
       <use xlink:href="#DejaVuSans-32"/>
       <use xlink:href="#DejaVuSans-30" x="63.623047"/>
       <use xlink:href="#DejaVuSans-32" x="127.246094"/>
       <use xlink:href="#DejaVuSans-31" x="190.869141"/>
       <use xlink:href="#DejaVuSans-2d" x="254.492188"/>
       <use xlink:href="#DejaVuSans-30" x="290.576172"/>
       <use xlink:href="#DejaVuSans-37" x="354.199219"/>
      </g>
     </g>
    </g>
    <g id="xtick_2">
     <g id="line2d_2">
      <g>
       <use xlink:href="#m16adfb8b93" x="120.463164" y="374.830125" style="stroke: #000000; stroke-width: 0.8"/>
      </g>
     </g>
     <g id="text_2">
      <!-- 2022-01 -->
      <g transform="translate(83.238343 409.301971) rotate(-30) scale(0.1 -0.1)">
       <use xlink:href="#DejaVuSans-32"/>
       <use xlink:href="#DejaVuSans-30" x="63.623047"/>
       <use xlink:href="#DejaVuSans-32" x="127.246094"/>
       <use xlink:href="#DejaVuSans-32" x="190.869141"/>
       <use xlink:href="#DejaVuSans-2d" x="254.492188"/>
       <use xlink:href="#DejaVuSans-30" x="290.576172"/>
       <use xlink:href="#DejaVuSans-31" x="354.199219"/>
      </g>
     </g>
    </g>
    <g id="xtick_3">
     <g id="line2d_3">
      <g>
       <use xlink:href="#m16adfb8b93" x="178.519189" y="374.830125" style="stroke: #000000; stroke-width: 0.8"/>
      </g>
     </g>
     <g id="text_3">
      <!-- 2022-07 -->
      <g transform="translate(141.294368 409.301971) rotate(-30) scale(0.1 -0.1)">
       <use xlink:href="#DejaVuSans-32"/>
       <use xlink:href="#DejaVuSans-30" x="63.623047"/>
       <use xlink:href="#DejaVuSans-32" x="127.246094"/>
       <use xlink:href="#DejaVuSans-32" x="190.869141"/>
       <use xlink:href="#DejaVuSans-2d" x="254.492188"/>
       <use xlink:href="#DejaVuSans-30" x="290.576172"/>
       <use xlink:href="#DejaVuSans-37" x="354.199219"/>
      </g>
     </g>
    </g>
    <g id="xtick_4">
     <g id="line2d_4">
      <g>
       <use xlink:href="#m16adfb8b93" x="237.537468" y="374.830125" style="stroke: #000000; stroke-width: 0.8"/>
      </g>
     </g>
     <g id="text_4">
      <!-- 2023-01 -->
      <g transform="translate(200.312647 409.301971) rotate(-30) scale(0.1 -0.1)">
       <defs>
        <path id="DejaVuSans-33" d="M 2597 2516 
Q 3050 2419 3304 2112 
Q 3559 1806 3559 1356 
Q 3559 666 3084 287 
Q 2609 -91 1734 -91 
Q 1441 -91 1130 -33 
Q 819 25 488 141 
L 488 750 
Q 750 597 1062 519 
Q 1375 441 1716 441 
Q 2309 441 2620 675 
Q 2931 909 2931 1356 
Q 2931 1769 2642 2001 
Q 2353 2234 1838 2234 
L 1294 2234 
L 1294 2753 
L 1863 2753 
Q 2328 2753 2575 2939 
Q 2822 3125 2822 3475 
Q 2822 3834 2567 4026 
Q 2313 4219 1838 4219 
Q 1578 4219 1281 4162 
Q 984 4106 628 3988 
L 628 4550 
Q 988 4650 1302 4700 
Q 1616 4750 1894 4750 
Q 2613 4750 3031 4423 
Q 3450 4097 3450 3541 
Q 3450 3153 3228 2886 
Q 3006 2619 2597 2516 
z
" transform="scale(0.015625)"/>
       </defs>
       <use xlink:href="#DejaVuSans-32"/>
       <use xlink:href="#DejaVuSans-30" x="63.623047"/>
       <use xlink:href="#DejaVuSans-32" x="127.246094"/>
       <use xlink:href="#DejaVuSans-33" x="190.869141"/>
       <use xlink:href="#DejaVuSans-2d" x="254.492188"/>
       <use xlink:href="#DejaVuSans-30" x="290.576172"/>
       <use xlink:href="#DejaVuSans-31" x="354.199219"/>
      </g>
     </g>
    </g>
    <g id="xtick_5">
     <g id="line2d_5">
      <g>
       <use xlink:href="#m16adfb8b93" x="295.593493" y="374.830125" style="stroke: #000000; stroke-width: 0.8"/>
      </g>
     </g>
     <g id="text_5">
      <!-- 2023-07 -->
      <g transform="translate(258.368672 409.301971) rotate(-30) scale(0.1 -0.1)">
       <use xlink:href="#DejaVuSans-32"/>
       <use xlink:href="#DejaVuSans-30" x="63.623047"/>
       <use xlink:href="#DejaVuSans-32" x="127.246094"/>
       <use xlink:href="#DejaVuSans-33" x="190.869141"/>
       <use xlink:href="#DejaVuSans-2d" x="254.492188"/>
       <use xlink:href="#DejaVuSans-30" x="290.576172"/>
       <use xlink:href="#DejaVuSans-37" x="354.199219"/>
      </g>
     </g>
    </g>
    <g id="xtick_6">
     <g id="line2d_6">
      <g>
       <use xlink:href="#m16adfb8b93" x="354.611773" y="374.830125" style="stroke: #000000; stroke-width: 0.8"/>
      </g>
     </g>
     <g id="text_6">
      <!-- 2024-01 -->
      <g transform="translate(317.386952 409.301971) rotate(-30) scale(0.1 -0.1)">
       <defs>
        <path id="DejaVuSans-34" d="M 2419 4116 
L 825 1625 
L 2419 1625 
L 2419 4116 
z
M 2253 4666 
L 3047 4666 
L 3047 1625 
L 3713 1625 
L 3713 1100 
L 3047 1100 
L 3047 0 
L 2419 0 
L 2419 1100 
L 313 1100 
L 313 1709 
L 2253 4666 
z
" transform="scale(0.015625)"/>
       </defs>
       <use xlink:href="#DejaVuSans-32"/>
       <use xlink:href="#DejaVuSans-30" x="63.623047"/>
       <use xlink:href="#DejaVuSans-32" x="127.246094"/>
       <use xlink:href="#DejaVuSans-34" x="190.869141"/>
       <use xlink:href="#DejaVuSans-2d" x="254.492188"/>
       <use xlink:href="#DejaVuSans-30" x="290.576172"/>
       <use xlink:href="#DejaVuSans-31" x="354.199219"/>
      </g>
     </g>
    </g>
    <g id="xtick_7">
     <g id="line2d_7">
      <g>
       <use xlink:href="#m16adfb8b93" x="412.988549" y="374.830125" style="stroke: #000000; stroke-width: 0.8"/>
      </g>
     </g>
     <g id="text_7">
      <!-- 2024-07 -->
      <g transform="translate(375.763728 409.301971) rotate(-30) scale(0.1 -0.1)">
       <use xlink:href="#DejaVuSans-32"/>
       <use xlink:href="#DejaVuSans-30" x="63.623047"/>
       <use xlink:href="#DejaVuSans-32" x="127.246094"/>
       <use xlink:href="#DejaVuSans-34" x="190.869141"/>
       <use xlink:href="#DejaVuSans-2d" x="254.492188"/>
       <use xlink:href="#DejaVuSans-30" x="290.576172"/>
       <use xlink:href="#DejaVuSans-37" x="354.199219"/>
      </g>
     </g>
    </g>
    <g id="xtick_8">
     <g id="line2d_8">
      <g>
       <use xlink:href="#m16adfb8b93" x="472.006829" y="374.830125" style="stroke: #000000; stroke-width: 0.8"/>
      </g>
     </g>
     <g id="text_8">
      <!-- 2025-01 -->
      <g transform="translate(434.782008 409.301971) rotate(-30) scale(0.1 -0.1)">
       <defs>
        <path id="DejaVuSans-35" d="M 691 4666 
L 3169 4666 
L 3169 4134 
L 1269 4134 
L 1269 2991 
Q 1406 3038 1543 3061 
Q 1681 3084 1819 3084 
Q 2600 3084 3056 2656 
Q 3513 2228 3513 1497 
Q 3513 744 3044 326 
Q 2575 -91 1722 -91 
Q 1428 -91 1123 -41 
Q 819 9 494 109 
L 494 744 
Q 775 591 1075 516 
Q 1375 441 1709 441 
Q 2250 441 2565 725 
Q 2881 1009 2881 1497 
Q 2881 1984 2565 2268 
Q 2250 2553 1709 2553 
Q 1456 2553 1204 2497 
Q 953 2441 691 2322 
L 691 4666 
z
" transform="scale(0.015625)"/>
       </defs>
       <use xlink:href="#DejaVuSans-32"/>
       <use xlink:href="#DejaVuSans-30" x="63.623047"/>
       <use xlink:href="#DejaVuSans-32" x="127.246094"/>
       <use xlink:href="#DejaVuSans-35" x="190.869141"/>
       <use xlink:href="#DejaVuSans-2d" x="254.492188"/>
       <use xlink:href="#DejaVuSans-30" x="290.576172"/>
       <use xlink:href="#DejaVuSans-31" x="354.199219"/>
      </g>
     </g>
    </g>
    <g id="xtick_9">
     <g id="line2d_9">
      <g>
       <use xlink:href="#m16adfb8b93" x="530.062853" y="374.830125" style="stroke: #000000; stroke-width: 0.8"/>
      </g>
     </g>
     <g id="text_9">
      <!-- 2025-07 -->
      <g transform="translate(492.838033 409.301971) rotate(-30) scale(0.1 -0.1)">
       <use xlink:href="#DejaVuSans-32"/>
       <use xlink:href="#DejaVuSans-30" x="63.623047"/>
       <use xlink:href="#DejaVuSans-32" x="127.246094"/>
       <use xlink:href="#DejaVuSans-35" x="190.869141"/>
       <use xlink:href="#DejaVuSans-2d" x="254.492188"/>
       <use xlink:href="#DejaVuSans-30" x="290.576172"/>
       <use xlink:href="#DejaVuSans-37" x="354.199219"/>
      </g>
     </g>
    </g>
   </g>
   <g id="matplotlib.axis_2">
    <g id="ytick_1">
     <g id="line2d_10">
      <defs>
       <path id="mb22788459d" d="M 0 0 
L -3.5 0 
" style="stroke: #000000; stroke-width: 0.8"/>
      </defs>
      <g>
       <use xlink:href="#mb22788459d" x="33.2875" y="374.830125" style="stroke: #000000; stroke-width: 0.8"/>
      </g>
     </g>
     <g id="text_10">
      <!-- 0 -->
      <g transform="translate(19.925 378.629344) scale(0.1 -0.1)">
       <use xlink:href="#DejaVuSans-30"/>
      </g>
     </g>
    </g>
    <g id="ytick_2">
     <g id="line2d_11">
      <g>
       <use xlink:href="#mb22788459d" x="33.2875" y="319.779371" style="stroke: #000000; stroke-width: 0.8"/>
      </g>
     </g>
     <g id="text_11">
      <!-- 100 -->
      <g transform="translate(7.2 323.578589) scale(0.1 -0.1)">
       <use xlink:href="#DejaVuSans-31"/>
       <use xlink:href="#DejaVuSans-30" x="63.623047"/>
       <use xlink:href="#DejaVuSans-30" x="127.246094"/>
      </g>
     </g>
    </g>
    <g id="ytick_3">
     <g id="line2d_12">
      <g>
       <use xlink:href="#mb22788459d" x="33.2875" y="264.728616" style="stroke: #000000; stroke-width: 0.8"/>
      </g>
     </g>
     <g id="text_12">
      <!-- 200 -->
      <g transform="translate(7.2 268.527835) scale(0.1 -0.1)">
       <use xlink:href="#DejaVuSans-32"/>
       <use xlink:href="#DejaVuSans-30" x="63.623047"/>
       <use xlink:href="#DejaVuSans-30" x="127.246094"/>
      </g>
     </g>
    </g>
    <g id="ytick_4">
     <g id="line2d_13">
      <g>
       <use xlink:href="#mb22788459d" x="33.2875" y="209.677862" style="stroke: #000000; stroke-width: 0.8"/>
      </g>
     </g>
     <g id="text_13">
      <!-- 300 -->
      <g transform="translate(7.2 213.477081) scale(0.1 -0.1)">
       <use xlink:href="#DejaVuSans-33"/>
       <use xlink:href="#DejaVuSans-30" x="63.623047"/>
       <use xlink:href="#DejaVuSans-30" x="127.246094"/>
      </g>
     </g>
    </g>
    <g id="ytick_5">
     <g id="line2d_14">
      <g>
       <use xlink:href="#mb22788459d" x="33.2875" y="154.627108" style="stroke: #000000; stroke-width: 0.8"/>
      </g>
     </g>
     <g id="text_14">
      <!-- 400 -->
      <g transform="translate(7.2 158.426327) scale(0.1 -0.1)">
       <use xlink:href="#DejaVuSans-34"/>
       <use xlink:href="#DejaVuSans-30" x="63.623047"/>
       <use xlink:href="#DejaVuSans-30" x="127.246094"/>
      </g>
     </g>
    </g>
    <g id="ytick_6">
     <g id="line2d_15">
      <g>
       <use xlink:href="#mb22788459d" x="33.2875" y="99.576354" style="stroke: #000000; stroke-width: 0.8"/>
      </g>
     </g>
     <g id="text_15">
      <!-- 500 -->
      <g transform="translate(7.2 103.375572) scale(0.1 -0.1)">
       <use xlink:href="#DejaVuSans-35"/>
       <use xlink:href="#DejaVuSans-30" x="63.623047"/>
       <use xlink:href="#DejaVuSans-30" x="127.246094"/>
      </g>
     </g>
    </g>
    <g id="ytick_7">
     <g id="line2d_16">
      <g>
       <use xlink:href="#mb22788459d" x="33.2875" y="44.525599" style="stroke: #000000; stroke-width: 0.8"/>
      </g>
     </g>
     <g id="text_16">
      <!-- 600 -->
      <g transform="translate(7.2 48.324818) scale(0.1 -0.1)">
       <defs>
        <path id="DejaVuSans-36" d="M 2113 2584 
Q 1688 2584 1439 2293 
Q 1191 2003 1191 1497 
Q 1191 994 1439 701 
Q 1688 409 2113 409 
Q 2538 409 2786 701 
Q 3034 994 3034 1497 
Q 3034 2003 2786 2293 
Q 2538 2584 2113 2584 
z
M 3366 4563 
L 3366 3988 
Q 3128 4100 2886 4159 
Q 2644 4219 2406 4219 
Q 1781 4219 1451 3797 
Q 1122 3375 1075 2522 
Q 1259 2794 1537 2939 
Q 1816 3084 2150 3084 
Q 2853 3084 3261 2657 
Q 3669 2231 3669 1497 
Q 3669 778 3244 343 
Q 2819 -91 2113 -91 
Q 1303 -91 875 529 
Q 447 1150 447 2328 
Q 447 3434 972 4092 
Q 1497 4750 2381 4750 
Q 2619 4750 2861 4703 
Q 3103 4656 3366 4563 
z
" transform="scale(0.015625)"/>
       </defs>
       <use xlink:href="#DejaVuSans-36"/>
       <use xlink:href="#DejaVuSans-30" x="63.623047"/>
       <use xlink:href="#DejaVuSans-30" x="127.246094"/>
      </g>
     </g>
    </g>
   </g>
   <g id="line2d_17">
    <path d="M 38.539265 31.313418 
L 48.076848 31.313418 
L 48.184816 34.616464 
L 49.520137 34.616464 
L 50.008942 43.975092 
L 128.803227 43.975092 
L 129.195527 38.470016 
L 142.307378 38.470016 
L 143.077605 39.020524 
L 149.226727 39.020524 
L 149.441768 50.030675 
L 155.677679 50.030675 
L 156.970007 48.379152 
L 263.80309 48.379152 
L 264.107362 44.525599 
L 272.480465 44.525599 
L 272.779314 43.424584 
L 314.805767 43.424584 
L 315.015057 42.323569 
L 382.928281 42.323569 
L 383.122837 37.919509 
L 434.60957 37.919509 
L 434.698122 37.369001 
L 474.024857 37.369001 
L 474.386267 36.818494 
L 477.963552 36.818494 
L 478.082248 34.616464 
L 479.517864 34.616464 
L 479.890879 35.166971 
L 504.706455 35.166971 
L 505.012813 34.616464 
L 557.263507 34.616464 
L 557.441876 25.808343 
L 563.715735 25.808343 
L 563.715735 25.808343 
" clip-path="url(#pdabe383858)" style="fill: none; stroke: #0000ff; stroke-width: 1.5; stroke-linecap: square"/>
   </g>
   <g id="line2d_18">
    <path d="M 38.539265 172.243349 
L 39.850559 171.142334 
L 41.157622 172.243349 
L 44.252874 172.243349 
L 47.665759 173.344364 
L 47.918945 172.793857 
L 48.076848 172.793857 
L 48.184816 176.096902 
L 48.434004 175.546394 
L 48.80256 176.096902 
L 49.520137 176.096902 
L 49.919792 188.208068 
L 50.008942 185.45553 
L 50.216383 188.758576 
L 50.282353 188.208068 
L 50.514809 188.208068 
L 50.88665 188.758576 
L 51.781584 188.758576 
L 51.808298 189.309083 
L 52.293409 189.309083 
L 52.498749 188.758576 
L 53.099097 192.612128 
L 53.168441 192.061621 
L 53.463231 192.612128 
L 54.033471 194.263651 
L 54.420252 193.162636 
L 55.031606 193.162636 
L 55.373262 194.263651 
L 55.604226 194.263651 
L 56.300048 194.814158 
L 56.612284 194.814158 
L 56.951809 195.915174 
L 57.255413 195.364666 
L 57.592551 196.465681 
L 57.942853 198.667711 
L 59.297353 199.768726 
L 59.872522 199.768726 
L 60.1189 200.319234 
L 60.511453 200.319234 
L 60.800452 200.869741 
L 61.094838 200.319234 
L 61.423063 200.319234 
L 61.615272 200.869741 
L 64.940471 200.869741 
L 65.276072 201.420249 
L 65.597666 201.420249 
L 65.722536 200.869741 
L 66.516794 201.420249 
L 66.849681 200.869741 
L 67.767483 200.869741 
L 68.062151 201.420249 
L 68.42443 200.869741 
L 70.094925 200.869741 
L 70.437187 201.420249 
L 70.625053 203.071772 
L 71.082298 201.970757 
L 72.145519 201.970757 
L 72.673029 202.521264 
L 72.991987 202.521264 
L 73.301765 203.071772 
L 73.647527 203.071772 
L 73.964993 202.521264 
L 74.268348 204.172787 
L 74.537668 204.172787 
L 75.269887 205.273802 
L 79.114258 205.273802 
L 79.419859 206.374817 
L 80.071174 206.374817 
L 80.360258 206.925324 
L 81.329841 206.925324 
L 82.257949 209.127355 
L 83.244435 209.127355 
L 83.597762 209.677862 
L 89.557801 209.677862 
L 90.273333 210.778877 
L 90.435424 209.677862 
L 91.583157 209.677862 
L 91.894828 210.22837 
L 92.238693 209.677862 
L 93.056836 209.677862 
L 93.508739 210.22837 
L 93.844218 209.677862 
L 98.91077 209.677862 
L 99.187645 214.63243 
L 99.379606 209.677862 
L 101.21573 209.677862 
L 101.549048 210.22837 
L 101.739301 215.182938 
L 102.188721 210.22837 
L 102.506135 210.22837 
L 102.71684 209.677862 
L 106.041296 209.677862 
L 106.209649 210.22837 
L 106.511772 210.22837 
L 107.009334 211.879892 
L 112.024247 211.879892 
L 113.118734 212.4304 
L 119.854319 212.4304 
L 120.134794 214.63243 
L 120.49319 214.63243 
L 120.810997 212.4304 
L 121.137971 212.4304 
L 121.363273 214.63243 
L 121.607456 212.4304 
L 122.013251 214.63243 
L 122.372704 215.733445 
L 126.540707 215.733445 
L 126.900457 216.283953 
L 128.803227 216.283953 
L 129.195527 210.22837 
L 129.475762 210.778877 
L 129.792515 212.4304 
L 130.183568 212.4304 
L 130.707904 213.531415 
L 131.069767 213.531415 
L 131.336499 214.081922 
L 131.694783 211.879892 
L 134.318078 217.384968 
L 134.585935 215.733445 
L 135.035061 215.182938 
L 136.461533 215.182938 
L 136.82745 214.63243 
L 137.150124 213.531415 
L 138.441899 213.531415 
L 138.678082 212.4304 
L 139.093507 213.531415 
L 140.031676 213.531415 
L 140.350961 214.63243 
L 140.658938 214.63243 
L 141.023685 215.182938 
L 141.170871 215.182938 
L 141.335367 216.83446 
L 141.558356 216.83446 
L 142.307378 217.384968 
L 142.926269 216.283953 
L 143.077605 216.283953 
L 143.562764 216.83446 
L 143.874045 217.935475 
L 145.482692 217.935475 
L 145.793282 218.485983 
L 146.126812 218.485983 
L 146.435602 219.03649 
L 146.724869 219.03649 
L 147.397025 219.586998 
L 147.744164 219.586998 
L 148.090331 221.238521 
L 148.295003 221.238521 
L 148.654783 220.688013 
L 149.226727 220.688013 
L 149.441768 222.339536 
L 149.972233 222.339536 
L 150.286517 223.440551 
L 150.706249 223.440551 
L 150.922452 223.991058 
L 151.397896 223.991058 
L 151.445206 224.541566 
L 151.686022 224.541566 
L 152.19418 225.092073 
L 153.349817 228.395119 
L 154.790277 228.395119 
L 155.083943 229.496134 
L 155.194521 228.945626 
L 155.322572 228.945626 
L 155.677679 228.395119 
L 156.970007 226.743596 
L 160.203252 226.743596 
L 160.577904 226.193088 
L 162.142782 226.193088 
L 162.3655 225.642581 
L 165.296018 225.642581 
L 165.80713 226.193088 
L 166.200764 226.193088 
L 166.628113 226.743596 
L 166.843143 226.193088 
L 168.903192 226.193088 
L 169.55333 227.294104 
L 170.936968 227.294104 
L 171.169921 235.001209 
L 171.432533 235.001209 
L 173.670536 236.652732 
L 173.808062 236.102224 
L 173.951535 236.652732 
L 174.323941 236.102224 
L 174.636321 236.102224 
L 174.965102 236.652732 
L 175.211999 236.652732 
L 175.608384 237.753747 
L 175.771403 237.753747 
L 175.922271 237.203239 
L 176.260422 238.304254 
L 178.508597 238.304254 
L 178.72731 238.854762 
L 179.936706 238.854762 
L 180.418231 238.304254 
L 180.778998 241.056792 
L 181.035833 239.405269 
L 181.370803 239.405269 
L 181.639295 242.708315 
L 181.827154 242.157807 
L 182.027137 242.708315 
L 182.127862 242.157807 
L 182.251144 243.80933 
L 182.570756 243.80933 
L 182.975712 244.359837 
L 183.768844 243.80933 
L 183.949441 244.910345 
L 184.244588 244.910345 
L 184.4536 243.258822 
L 185.163089 244.910345 
L 185.868564 245.460852 
L 186.488134 245.460852 
L 186.813155 247.112375 
L 187.111907 247.112375 
L 187.288869 246.561868 
L 187.599464 246.561868 
L 188.800738 248.763898 
L 189.001081 247.662883 
L 189.386722 247.112375 
L 189.839033 248.763898 
L 191.054823 248.763898 
L 191.158903 249.314405 
L 191.643346 249.864913 
L 192.934753 249.864913 
L 193.525871 252.61745 
L 196.847666 252.61745 
L 197.109969 253.167958 
L 197.454955 252.066943 
L 197.6558 253.167958 
L 201.277225 253.167958 
L 201.579801 253.718466 
L 202.30947 257.021511 
L 202.583219 255.369988 
L 202.909453 255.920496 
L 203.270689 255.369988 
L 203.524892 255.369988 
L 203.910068 253.718466 
L 204.116604 253.718466 
L 204.156691 254.268973 
L 204.806617 254.268973 
L 205.17243 250.965928 
L 205.494945 250.965928 
L 206.465133 251.516435 
L 206.526521 250.965928 
L 207.053288 250.41542 
L 207.131527 250.965928 
L 209.669737 250.965928 
L 209.846351 251.516435 
L 210.320035 252.066943 
L 210.952565 253.167958 
L 211.117084 254.268973 
L 211.339401 254.268973 
L 211.588451 255.369988 
L 211.888309 254.819481 
L 212.224066 254.819481 
L 212.477059 254.268973 
L 212.833717 254.819481 
L 213.151974 254.819481 
L 213.457003 255.369988 
L 213.703926 255.369988 
L 214.168726 254.819481 
L 214.410363 255.369988 
L 214.660456 254.819481 
L 215.386714 250.41542 
L 216.085321 251.516435 
L 216.18746 255.369988 
L 216.343184 255.369988 
L 216.628122 255.920496 
L 216.959153 255.369988 
L 217.261384 255.369988 
L 217.633689 254.819481 
L 217.956163 255.920496 
L 219.120009 255.920496 
L 219.582541 256.471003 
L 219.846871 256.471003 
L 219.867382 257.021511 
L 221.186172 257.021511 
L 221.561626 258.122526 
L 223.406857 258.122526 
L 223.774696 259.223541 
L 225.02729 259.223541 
L 227.309174 258.673033 
L 227.520859 259.223541 
L 228.091778 259.223541 
L 228.572174 259.774049 
L 228.893976 260.875064 
L 228.990201 260.324556 
L 229.339976 261.425571 
L 230.118081 261.425571 
L 233.269535 262.526586 
L 241.059394 262.526586 
L 241.376701 261.976079 
L 242.899699 261.976079 
L 243.215386 262.526586 
L 244.261526 262.526586 
L 244.622591 263.077094 
L 244.882218 262.526586 
L 245.183531 263.077094 
L 245.516927 262.526586 
L 245.790561 263.627601 
L 246.20965 263.077094 
L 246.515441 263.627601 
L 253.162422 263.627601 
L 253.505778 262.526586 
L 253.869527 263.077094 
L 254.198501 262.526586 
L 254.566987 262.526586 
L 254.862501 261.976079 
L 256.095824 261.976079 
L 256.408988 262.526586 
L 256.76272 261.976079 
L 257.08499 260.875064 
L 257.72401 260.875064 
L 258.084543 260.324556 
L 258.354335 261.425571 
L 258.701392 261.425571 
L 258.969524 260.875064 
L 259.815803 261.976079 
L 260.310882 261.425571 
L 260.605019 261.976079 
L 261.230796 261.976079 
L 261.583983 261.425571 
L 261.930792 263.077094 
L 262.264593 262.526586 
L 262.905435 262.526586 
L 263.149718 261.976079 
L 263.462139 262.526586 
L 263.80309 262.526586 
L 264.107362 257.572018 
L 264.228245 258.122526 
L 264.467354 258.122526 
L 264.633922 258.673033 
L 264.779091 258.673033 
L 264.970221 259.223541 
L 265.099746 258.122526 
L 265.739204 259.223541 
L 266.28861 259.223541 
L 266.555791 260.324556 
L 266.820586 259.223541 
L 266.992982 259.774049 
L 267.964963 259.774049 
L 268.254319 259.223541 
L 268.528736 259.223541 
L 268.87357 259.774049 
L 269.192436 259.774049 
L 269.570425 259.223541 
L 269.935191 259.774049 
L 270.218213 259.774049 
L 270.663601 260.875064 
L 272.480465 260.875064 
L 272.779314 259.223541 
L 274.187435 259.223541 
L 274.51083 259.774049 
L 274.765219 260.324556 
L 275.263289 260.324556 
L 275.418679 261.425571 
L 275.489961 260.875064 
L 275.658493 261.425571 
L 276.132537 261.425571 
L 276.364922 262.526586 
L 276.997657 262.526586 
L 277.293008 263.627601 
L 278.269774 263.627601 
L 278.504019 265.279124 
L 278.72017 265.829632 
L 278.844911 265.829632 
L 279.265693 266.380139 
L 279.413792 265.829632 
L 279.485563 266.380139 
L 279.948218 266.380139 
L 280.491565 266.930647 
L 281.710554 266.930647 
L 282.024939 266.380139 
L 282.326175 266.930647 
L 282.665744 266.930647 
L 282.828485 267.481154 
L 282.867628 266.930647 
L 283.060785 267.481154 
L 283.211857 267.481154 
L 283.361047 268.582169 
L 283.935523 269.683184 
L 284.353844 269.132677 
L 284.671889 269.683184 
L 285.297135 269.683184 
L 285.636486 270.784199 
L 285.760718 270.233692 
L 285.962539 271.885214 
L 286.248524 271.334707 
L 286.433999 271.885214 
L 286.580654 271.334707 
L 286.742715 272.435722 
L 287.073033 272.435722 
L 287.170866 272.98623 
L 287.558404 272.435722 
L 287.858132 273.536737 
L 288.534361 273.536737 
L 288.777791 274.637752 
L 289.123074 273.536737 
L 289.357649 273.536737 
L 289.443651 274.087245 
L 290.074759 274.087245 
L 290.369969 276.289275 
L 290.794527 274.087245 
L 290.860352 274.637752 
L 291.419369 274.087245 
L 291.472304 275.18826 
L 291.664573 275.18826 
L 292.052007 275.738767 
L 292.366428 275.18826 
L 292.603966 275.18826 
L 292.955475 276.289275 
L 293.33789 276.289275 
L 293.708736 275.738767 
L 293.985897 276.289275 
L 294.154303 275.738767 
L 294.321799 276.839782 
L 295.805969 276.839782 
L 296.262126 277.39029 
L 297.19349 277.39029 
L 297.523953 276.289275 
L 298.146783 276.289275 
L 298.458506 276.839782 
L 301.29432 276.839782 
L 301.677032 276.289275 
L 302.035776 277.39029 
L 306.387829 277.39029 
L 307.342551 277.940797 
L 307.909602 277.940797 
L 308.370125 278.491305 
L 308.734063 278.491305 
L 308.947923 279.041813 
L 313.792192 279.041813 
L 314.185651 278.491305 
L 314.497593 279.041813 
L 314.805767 278.491305 
L 315.015057 275.18826 
L 316.928822 275.18826 
L 317.099574 275.738767 
L 317.430561 275.738767 
L 317.540017 275.18826 
L 319.521033 275.18826 
L 319.795855 275.738767 
L 319.899717 275.18826 
L 320.370453 275.18826 
L 320.588048 276.289275 
L 320.862335 275.18826 
L 321.067118 276.289275 
L 321.212466 276.289275 
L 321.399932 275.18826 
L 321.563886 276.289275 
L 321.668954 275.18826 
L 321.711272 276.289275 
L 322.838881 276.289275 
L 323.017874 276.839782 
L 323.044125 277.39029 
L 323.618329 277.39029 
L 323.652171 277.940797 
L 323.983017 277.940797 
L 324.15433 278.491305 
L 324.30039 277.940797 
L 324.479829 278.491305 
L 324.601176 277.940797 
L 324.88578 278.491305 
L 325.006144 277.940797 
L 325.022649 278.491305 
L 325.383406 278.491305 
L 325.609443 279.041813 
L 325.752006 279.041813 
L 325.965499 280.142828 
L 326.202387 280.693335 
L 326.365993 280.142828 
L 328.188259 280.142828 
L 328.44881 280.693335 
L 329.845375 280.693335 
L 330.068152 281.243843 
L 330.362624 281.243843 
L 330.581136 281.79435 
L 330.701573 281.243843 
L 331.279386 281.243843 
L 331.47438 282.344858 
L 332.005124 282.344858 
L 332.056091 282.895365 
L 332.13015 282.344858 
L 332.244722 282.344858 
L 332.450274 283.445873 
L 332.664339 283.99638 
L 332.724168 283.445873 
L 332.966822 285.647903 
L 333.949569 285.647903 
L 334.048367 286.198411 
L 334.26366 286.198411 
L 334.389778 287.299426 
L 334.537791 286.198411 
L 335.842426 286.198411 
L 335.917917 286.748918 
L 336.168159 286.198411 
L 336.287973 286.748918 
L 336.509496 286.198411 
L 336.797244 286.198411 
L 336.973702 287.299426 
L 337.295363 287.299426 
L 337.427306 286.748918 
L 337.540352 287.849933 
L 337.874212 286.198411 
L 338.224073 287.299426 
L 338.477515 286.198411 
L 339.070801 286.198411 
L 339.532527 287.849933 
L 339.676201 287.299426 
L 339.835311 287.849933 
L 340.264639 286.748918 
L 340.402113 287.849933 
L 341.421 287.849933 
L 341.585233 288.400441 
L 341.871433 288.400441 
L 342.024002 287.849933 
L 342.216557 288.400441 
L 342.338312 287.849933 
L 342.709215 288.950948 
L 343.215601 288.950948 
L 343.572738 290.051963 
L 345.119573 290.051963 
L 345.288695 290.602471 
L 345.495565 290.051963 
L 345.59792 290.602471 
L 345.808833 290.051963 
L 346.088948 290.051963 
L 346.269623 290.602471 
L 346.38842 290.051963 
L 346.766629 290.051963 
L 346.88361 290.602471 
L 347.413867 290.602471 
L 347.44961 291.703486 
L 349.717491 291.703486 
L 349.941222 292.253994 
L 350.088074 291.703486 
L 350.212487 292.253994 
L 350.30699 291.703486 
L 350.420348 292.804501 
L 350.942639 292.804501 
L 351.189012 293.355009 
L 351.238944 292.804501 
L 351.290101 293.355009 
L 351.571442 292.804501 
L 351.644153 293.355009 
L 351.919286 293.905516 
L 352.02705 294.456024 
L 352.232776 294.456024 
L 352.28008 295.006531 
L 352.566518 296.658054 
L 352.695442 296.107546 
L 352.869446 296.107546 
L 352.900793 297.208561 
L 354.123324 297.208561 
L 354.275169 297.759069 
L 354.514671 297.208561 
L 354.929532 297.759069 
L 355.04041 297.208561 
L 355.221924 297.759069 
L 355.445003 297.759069 
L 355.577754 298.309577 
L 355.88696 298.309577 
L 355.894541 298.860084 
L 355.989857 298.309577 
L 356.081227 299.410592 
L 356.216273 299.410592 
L 356.403211 299.961099 
L 357.685578 299.961099 
L 357.71942 299.410592 
L 357.80015 300.511607 
L 358.138335 300.511607 
L 358.311047 299.961099 
L 358.443996 300.511607 
L 358.644157 299.961099 
L 358.794127 300.511607 
L 358.962622 300.511607 
L 359.107406 299.961099 
L 359.250964 301.612622 
L 360.969513 301.612622 
L 361.486317 302.713637 
L 361.758354 302.163129 
L 368.250272 302.163129 
L 368.360493 302.713637 
L 368.557633 302.163129 
L 368.614451 302.713637 
L 369.20352 302.713637 
L 369.366636 303.264144 
L 370.193395 303.264144 
L 370.303861 303.814652 
L 370.459571 303.264144 
L 371.726042 303.264144 
L 371.901709 303.814652 
L 372.122931 303.264144 
L 372.24508 303.264144 
L 372.43974 304.36516 
L 372.546824 303.814652 
L 373.021458 303.814652 
L 373.228265 304.36516 
L 374.201712 304.36516 
L 374.360284 303.264144 
L 374.681592 304.36516 
L 376.410399 304.36516 
L 376.587651 304.915667 
L 376.746003 304.915667 
L 376.916544 305.466175 
L 377.044013 305.466175 
L 377.201801 306.016682 
L 377.570981 306.016682 
L 377.636382 306.56719 
L 377.944148 306.56719 
L 378.138551 305.466175 
L 378.290351 306.016682 
L 378.522714 306.016682 
L 378.617462 306.56719 
L 378.97294 306.56719 
L 379.290881 307.117697 
L 379.637578 308.76922 
L 379.751089 308.218712 
L 379.856781 308.76922 
L 380.099375 309.319727 
L 380.214411 308.76922 
L 380.52319 309.319727 
L 380.727402 308.76922 
L 380.894185 308.76922 
L 381.220933 310.420742 
L 381.535841 309.870235 
L 381.861968 310.97125 
L 381.926007 310.420742 
L 382.13797 310.97125 
L 382.284744 310.420742 
L 382.405746 310.97125 
L 382.928281 310.97125 
L 383.122837 303.264144 
L 383.642447 304.36516 
L 383.985528 304.36516 
L 384.105532 304.915667 
L 384.292448 304.36516 
L 384.412425 304.36516 
L 384.554391 303.814652 
L 384.717625 304.36516 
L 384.941847 304.36516 
L 385.052172 303.814652 
L 385.192341 304.36516 
L 385.383511 303.814652 
L 385.45865 304.36516 
L 385.856007 304.915667 
L 386.147995 303.814652 
L 386.412519 304.36516 
L 387.587724 304.36516 
L 387.866574 304.915667 
L 388.159356 304.36516 
L 388.685997 304.36516 
L 389.089747 305.466175 
L 389.228234 303.814652 
L 389.461325 304.36516 
L 389.758466 303.814652 
L 389.894391 305.466175 
L 390.058502 304.36516 
L 390.213599 304.36516 
L 390.316889 304.915667 
L 390.393973 307.117697 
L 390.407809 306.56719 
L 390.749759 307.117697 
L 391.593751 307.117697 
L 391.992994 308.218712 
L 392.157687 307.668205 
L 392.748939 307.668205 
L 392.910035 307.117697 
L 393.082212 307.668205 
L 393.27107 307.668205 
L 393.382018 307.117697 
L 393.719554 307.668205 
L 393.917844 307.668205 
L 394.047841 308.218712 
L 394.206832 307.668205 
L 394.37764 307.668205 
L 394.537711 307.117697 
L 394.636866 307.668205 
L 395.528533 307.668205 
L 395.751611 309.319727 
L 396.021325 308.76922 
L 396.244395 308.76922 
L 396.424989 308.218712 
L 396.5071 308.76922 
L 396.786837 308.218712 
L 396.891415 308.76922 
L 397.137852 308.76922 
L 397.234263 309.319727 
L 397.528768 308.76922 
L 398.135638 308.76922 
L 398.360631 309.319727 
L 398.735432 309.319727 
L 398.829935 309.870235 
L 398.989657 309.319727 
L 399.363036 310.420742 
L 399.474133 310.420742 
L 399.638904 310.97125 
L 399.790793 310.97125 
L 400.076585 311.521758 
L 402.401336 311.521758 
L 402.649001 312.072265 
L 402.881231 312.072265 
L 402.928512 310.97125 
L 402.987067 311.521758 
L 403.365948 311.521758 
L 403.452428 312.072265 
L 403.950959 312.072265 
L 404.189047 312.622773 
L 404.508818 312.622773 
L 404.519454 312.072265 
L 404.625755 312.622773 
L 404.723514 312.072265 
L 406.115935 312.072265 
L 406.377021 311.521758 
L 407.105331 312.072265 
L 408.615663 312.072265 
L 408.681016 312.622773 
L 410.265874 312.622773 
L 410.408634 313.17328 
L 411.874305 315.925818 
L 412.013216 315.925818 
L 412.15814 316.476325 
L 412.222681 315.925818 
L 412.534793 316.476325 
L 412.824765 317.026833 
L 413.171556 317.026833 
L 413.288014 317.577341 
L 413.726274 317.577341 
L 414.361043 317.026833 
L 414.393021 318.678356 
L 414.903892 318.678356 
L 415.06223 318.127848 
L 415.177236 318.678356 
L 416.350923 318.678356 
L 416.623384 318.127848 
L 417.882078 318.127848 
L 418.659299 318.678356 
L 420.229333 318.678356 
L 421.002444 319.228863 
L 421.105842 319.779371 
L 423.430953 319.779371 
L 423.649387 319.228863 
L 424.829748 319.228863 
L 425.69162 318.678356 
L 426.319676 318.678356 
L 426.631355 319.228863 
L 426.908066 320.329878 
L 427.072815 320.329878 
L 427.079245 319.779371 
L 428.927227 319.779371 
L 429.125562 320.329878 
L 433.79407 320.329878 
L 434.382716 320.880386 
L 434.60957 320.880386 
L 434.698122 321.430893 
L 434.986639 321.430893 
L 435.107804 320.880386 
L 435.295629 321.430893 
L 436.350215 321.430893 
L 436.820294 321.981401 
L 437.14683 323.082416 
L 440.006667 323.082416 
L 440.510024 322.531908 
L 440.655662 323.082416 
L 440.802988 322.531908 
L 440.968606 323.082416 
L 441.752966 323.082416 
L 442.114595 322.531908 
L 442.298103 323.082416 
L 442.804103 321.981401 
L 443.001313 323.082416 
L 444.225808 323.082416 
L 444.240294 323.632924 
L 446.180852 323.632924 
L 447.124374 324.183431 
L 447.407522 323.632924 
L 447.933595 323.632924 
L 448.061124 324.183431 
L 448.510625 322.531908 
L 448.807402 323.082416 
L 449.206381 322.531908 
L 449.501907 322.531908 
L 449.636121 323.082416 
L 450.450893 323.082416 
L 451.41898 322.531908 
L 451.564696 323.082416 
L 452.527993 323.082416 
L 452.840748 322.531908 
L 457.743606 323.082416 
L 458.110714 322.531908 
L 458.427984 323.082416 
L 458.712279 322.531908 
L 458.744087 323.082416 
L 458.991593 323.632924 
L 459.134933 323.632924 
L 459.266051 324.183431 
L 461.545559 324.183431 
L 461.594132 324.733939 
L 461.877477 324.733939 
L 462.63405 324.183431 
L 462.658117 324.733939 
L 462.948798 324.183431 
L 463.019449 325.284446 
L 463.206547 325.284446 
L 463.586125 325.834954 
L 464.222226 325.834954 
L 464.608472 325.284446 
L 465.042752 326.385461 
L 465.060565 326.935969 
L 465.482438 327.486476 
L 465.792721 326.935969 
L 466.229017 326.935969 
L 466.319715 327.486476 
L 467.313098 327.486476 
L 467.449948 326.935969 
L 467.617485 328.036984 
L 467.755572 328.036984 
L 468.017649 327.486476 
L 468.255996 328.036984 
L 468.787515 328.036984 
L 469.021601 329.137999 
L 470.69109 329.137999 
L 470.890684 329.688506 
L 471.0129 329.688506 
L 471.214004 329.137999 
L 471.26587 329.688506 
L 471.798578 329.688506 
L 471.905721 330.239014 
L 472.196725 330.239014 
L 472.279842 331.340029 
L 472.733869 331.340029 
L 472.904458 332.991552 
L 473.259656 332.991552 
L 473.467395 332.441044 
L 473.579625 332.991552 
L 473.730701 332.991552 
L 473.742239 334.643074 
L 474.024857 334.643074 
L 474.386267 334.092567 
L 474.550225 334.092567 
L 474.690286 334.643074 
L 475.038599 334.643074 
L 475.399533 334.092567 
L 475.436657 335.193582 
L 475.756236 335.193582 
L 475.815144 335.744089 
L 476.037818 336.294597 
L 476.626051 336.294597 
L 476.712509 337.395612 
L 476.964949 337.395612 
L 477.112948 337.94612 
L 477.254962 337.94612 
L 477.764237 338.496627 
L 477.963552 337.94612 
L 478.082248 330.239014 
L 478.21098 329.688506 
L 478.298165 331.890537 
L 478.92617 331.890537 
L 479.184293 331.340029 
L 479.372364 332.441044 
L 479.517864 332.441044 
L 479.890879 332.991552 
L 480.301147 332.991552 
L 480.488349 332.441044 
L 480.634922 332.991552 
L 481.624151 332.991552 
L 481.745955 333.542059 
L 482.196952 332.441044 
L 482.563682 332.991552 
L 482.773833 332.991552 
L 482.854548 333.542059 
L 483.040083 332.441044 
L 483.220435 333.542059 
L 483.968752 333.542059 
L 484.084738 332.991552 
L 484.351296 332.991552 
L 484.393228 333.542059 
L 484.695046 334.092567 
L 484.706825 333.542059 
L 485.274429 333.542059 
L 485.566573 334.092567 
L 487.082592 334.092567 
L 487.196265 334.643074 
L 487.496914 334.092567 
L 487.506953 334.643074 
L 487.93866 335.193582 
L 488.203919 335.193582 
L 488.509167 335.744089 
L 488.66158 336.294597 
L 488.778109 336.294597 
L 489.144794 335.193582 
L 489.21723 336.294597 
L 489.463804 335.744089 
L 489.671346 336.294597 
L 490.597594 336.294597 
L 490.701374 336.845105 
L 490.830718 336.294597 
L 491.278942 336.845105 
L 491.495446 336.294597 
L 491.714864 336.845105 
L 491.846695 336.294597 
L 492.153718 337.395612 
L 492.365848 336.845105 
L 493.091411 336.845105 
L 493.380069 337.395612 
L 493.801553 337.395612 
L 494.136894 336.294597 
L 494.226274 336.845105 
L 494.58458 336.845105 
L 494.675511 337.94612 
L 495.127415 336.845105 
L 495.285229 337.395612 
L 495.649338 336.845105 
L 495.91512 336.845105 
L 496.051283 337.395612 
L 496.241295 337.395612 
L 496.376749 334.092567 
L 496.802978 334.643074 
L 496.858196 333.542059 
L 497.011229 334.643074 
L 497.151528 334.092567 
L 497.235736 334.643074 
L 497.569796 334.092567 
L 497.970621 334.643074 
L 498.172523 334.643074 
L 498.449677 334.092567 
L 498.843629 334.092567 
L 499.24755 335.193582 
L 499.459131 334.643074 
L 499.88697 334.643074 
L 500.087043 334.092567 
L 500.116497 333.542059 
L 500.36574 334.643074 
L 500.49792 334.092567 
L 500.653395 334.643074 
L 500.884418 334.092567 
L 501.145894 334.092567 
L 501.313869 333.542059 
L 501.63243 333.542059 
L 501.964092 334.643074 
L 502.189142 334.092567 
L 502.463206 335.193582 
L 502.605933 335.193582 
L 502.695521 334.643074 
L 502.974255 334.643074 
L 502.997651 335.193582 
L 503.921668 335.193582 
L 504.073045 335.744089 
L 504.202704 335.744089 
L 504.40258 336.294597 
L 504.574976 335.744089 
L 504.706455 336.294597 
L 504.902469 335.744089 
L 505.012813 336.294597 
L 505.155232 335.744089 
L 505.201117 336.294597 
L 505.358779 337.395612 
L 505.551401 336.845105 
L 505.612021 336.294597 
L 505.815163 336.845105 
L 505.981175 336.294597 
L 506.181269 336.845105 
L 506.509175 336.845105 
L 506.600478 337.395612 
L 506.827005 336.845105 
L 507.421924 338.496627 
L 507.581959 338.496627 
L 507.747491 337.395612 
L 507.825748 337.94612 
L 508.059782 337.94612 
L 508.166261 337.395612 
L 508.357628 337.395612 
L 508.531855 337.94612 
L 508.755839 337.94612 
L 509.131883 339.597642 
L 509.331948 339.047135 
L 511.961839 339.047135 
L 512.084222 339.597642 
L 512.239419 339.597642 
L 512.364226 339.047135 
L 512.614635 339.597642 
L 513.238497 337.395612 
L 513.34286 338.496627 
L 514.002973 337.395612 
L 514.465123 337.395612 
L 515.097508 338.496627 
L 516.215442 337.94612 
L 516.499348 338.496627 
L 516.812118 337.94612 
L 517.035497 339.047135 
L 517.125088 337.94612 
L 517.419552 339.047135 
L 517.740382 337.94612 
L 517.846586 339.047135 
L 518.05232 339.047135 
L 518.165415 338.496627 
L 518.370406 339.047135 
L 518.493428 339.047135 
L 518.608019 338.496627 
L 518.747248 340.14815 
L 519.112393 339.047135 
L 519.453915 339.047135 
L 519.662597 339.597642 
L 520.056427 339.597642 
L 520.376707 339.047135 
L 520.563946 339.047135 
L 520.705492 340.14815 
L 520.882054 339.597642 
L 520.980629 340.14815 
L 521.218646 340.698657 
L 521.364588 340.698657 
L 521.619745 339.597642 
L 521.863736 341.249165 
L 522.170406 341.249165 
L 522.193683 342.35018 
L 522.2151 341.799672 
L 522.375486 341.249165 
L 522.544085 342.35018 
L 522.614409 341.249165 
L 522.86856 341.249165 
L 522.90319 341.799672 
L 523.189531 342.35018 
L 523.360903 342.35018 
L 523.441228 341.249165 
L 523.825499 342.35018 
L 523.88773 341.249165 
L 524.097031 342.35018 
L 524.258038 340.698657 
L 524.747481 341.799672 
L 525.116193 340.14815 
L 525.144704 340.698657 
L 525.378252 340.14815 
L 525.525901 340.14815 
L 525.679183 341.249165 
L 525.862234 340.14815 
L 526.214162 341.249165 
L 526.347682 340.14815 
L 526.492251 340.698657 
L 526.786852 340.698657 
L 526.981404 340.14815 
L 527.353828 340.14815 
L 527.365196 340.698657 
L 527.951347 339.597642 
L 528.262212 341.249165 
L 528.427199 341.249165 
L 528.61949 340.698657 
L 528.673843 341.799672 
L 528.94682 340.698657 
L 529.114906 341.799672 
L 529.284355 340.698657 
L 529.354382 341.249165 
L 529.701904 341.249165 
L 529.910166 341.799672 
L 530.005419 342.900688 
L 530.199332 341.799672 
L 530.518365 342.35018 
L 530.659492 342.900688 
L 530.833867 342.35018 
L 530.98275 344.55221 
L 531.216441 344.55221 
L 531.525488 345.102718 
L 531.562771 344.001703 
L 531.866936 345.102718 
L 532.299899 344.001703 
L 532.416887 345.653225 
L 532.767954 346.203733 
L 533.150324 345.102718 
L 533.39267 344.55221 
L 534.06633 345.102718 
L 534.147019 345.653225 
L 534.399046 345.653225 
L 534.863642 346.203733 
L 535.093819 346.203733 
L 535.380635 346.75424 
L 535.670756 348.405763 
L 536.415616 347.855255 
L 536.655552 347.855255 
L 536.988261 346.203733 
L 537.304532 346.203733 
L 537.386056 345.653225 
L 537.626345 346.75424 
L 537.679878 345.653225 
L 537.942868 346.203733 
L 538.419934 346.203733 
L 538.664748 347.304748 
L 538.889453 346.203733 
L 539.196353 347.304748 
L 539.316 346.75424 
L 539.47991 347.304748 
L 539.90785 346.203733 
L 540.155189 346.75424 
L 540.878639 346.75424 
L 541.051318 346.203733 
L 541.470326 347.304748 
L 541.640639 346.203733 
L 541.787543 346.203733 
L 541.844666 346.75424 
L 542.052928 346.75424 
L 542.277543 347.304748 
L 542.43124 346.203733 
L 542.669877 347.304748 
L 542.774678 346.203733 
L 543.067304 347.304748 
L 543.247241 347.304748 
L 543.363357 346.75424 
L 543.55364 346.75424 
L 543.60741 346.203733 
L 543.618451 346.75424 
L 543.943294 346.75424 
L 544.053203 346.203733 
L 544.351186 347.304748 
L 544.625592 346.203733 
L 545.095857 346.75424 
L 546.100808 346.75424 
L 546.34181 346.203733 
L 546.598029 346.75424 
L 546.762956 346.203733 
L 546.864835 346.75424 
L 547.578563 346.75424 
L 547.79647 346.203733 
L 548.296798 347.304748 
L 548.418449 346.75424 
L 548.818643 347.304748 
L 549.255707 346.75424 
L 549.48784 347.304748 
L 550.033979 346.203733 
L 550.177278 345.653225 
L 550.414701 345.653225 
L 550.871983 347.304748 
L 550.996367 347.304748 
L 551.154274 346.203733 
L 551.525151 346.203733 
L 551.733171 346.75424 
L 551.890922 346.75424 
L 552.054027 346.203733 
L 552.361982 346.203733 
L 552.782478 346.75424 
L 553.015899 346.75424 
L 553.111456 347.304748 
L 553.335808 346.203733 
L 553.454011 347.304748 
L 553.60097 346.75424 
L 553.693784 347.304748 
L 554.28302 347.304748 
L 554.304347 348.405763 
L 554.3995 347.855255 
L 554.577521 347.855255 
L 554.6839 347.304748 
L 554.851229 347.855255 
L 555.035728 347.304748 
L 555.506219 347.855255 
L 555.905837 347.855255 
L 556.057618 348.95627 
L 556.117477 348.405763 
L 556.296318 348.95627 
L 556.536162 348.405763 
L 556.648443 347.855255 
L 556.815813 348.405763 
L 556.980867 347.855255 
L 557.179395 348.95627 
L 557.263507 347.855255 
L 557.441876 334.092567 
L 557.928888 334.092567 
L 558.063121 333.542059 
L 558.190705 335.744089 
L 558.901589 335.193582 
L 559.429779 335.193582 
L 559.532497 335.744089 
L 559.664592 335.744089 
L 560.078569 334.643074 
L 560.39171 334.643074 
L 560.40506 335.193582 
L 560.797082 335.744089 
L 561.074729 335.193582 
L 561.353642 334.092567 
L 561.389296 335.193582 
L 561.60238 334.092567 
L 561.685259 334.643074 
L 562.321821 334.643074 
L 562.356224 335.193582 
L 562.616883 335.193582 
L 562.794443 334.643074 
L 562.965555 334.643074 
L 563.020272 334.092567 
L 563.388194 335.193582 
L 563.715735 334.092567 
L 563.715735 334.092567 
" clip-path="url(#pdabe383858)" style="fill: none; stroke-dasharray: 3,1.5; stroke-dashoffset: 0; stroke: #808080; stroke-width: 1.5"/>
   </g>
   <g id="line2d_19">
    <path d="M 38.539265 298.309577 
L 39.850559 297.759069 
L 41.157622 296.658054 
L 44.252874 296.658054 
L 47.665759 296.107546 
L 47.918945 296.658054 
L 48.076848 296.658054 
L 48.184816 295.557039 
L 48.434004 296.107546 
L 48.80256 295.557039 
L 49.520137 295.557039 
L 49.919792 292.804501 
L 50.008942 295.557039 
L 50.216383 292.253994 
L 50.282353 292.804501 
L 50.514809 292.804501 
L 50.88665 292.253994 
L 51.496219 292.253994 
L 51.808298 290.051963 
L 52.293409 290.051963 
L 52.785837 291.152978 
L 53.099097 286.748918 
L 53.168441 287.299426 
L 53.463231 286.748918 
L 54.033471 285.097396 
L 54.420252 286.198411 
L 55.031606 286.198411 
L 55.373262 287.299426 
L 55.604226 286.748918 
L 56.300048 286.198411 
L 56.612284 286.198411 
L 56.951809 285.097396 
L 57.438991 285.097396 
L 57.942853 281.79435 
L 59.297353 280.142828 
L 59.481811 279.59232 
L 59.872522 279.59232 
L 60.1189 279.041813 
L 60.511453 279.041813 
L 60.800452 280.142828 
L 61.094838 280.693335 
L 61.423063 280.693335 
L 61.615272 280.142828 
L 63.959353 280.142828 
L 64.334031 279.59232 
L 64.940471 279.59232 
L 65.276072 279.041813 
L 65.597666 279.041813 
L 65.722536 279.59232 
L 66.516794 279.041813 
L 66.849681 279.59232 
L 67.767483 279.59232 
L 68.062151 279.041813 
L 68.42443 279.59232 
L 70.094925 279.59232 
L 70.437187 279.041813 
L 70.625053 277.39029 
L 71.082298 278.491305 
L 71.726255 278.491305 
L 72.027123 277.39029 
L 72.145519 278.491305 
L 72.673029 276.839782 
L 72.991987 276.839782 
L 73.301765 276.289275 
L 73.647527 276.289275 
L 73.964993 276.839782 
L 74.268348 275.738767 
L 74.537668 275.738767 
L 75.269887 274.637752 
L 79.114258 274.637752 
L 79.419859 273.536737 
L 80.071174 273.536737 
L 80.360258 270.784199 
L 81.329841 270.784199 
L 82.257949 268.582169 
L 83.244435 268.582169 
L 83.597762 268.031662 
L 89.557801 268.031662 
L 90.273333 266.380139 
L 90.435424 268.031662 
L 91.583157 268.031662 
L 91.894828 266.930647 
L 92.238693 268.031662 
L 93.056836 268.031662 
L 93.508739 266.930647 
L 93.844218 268.031662 
L 98.91077 268.031662 
L 99.187645 263.077094 
L 99.379606 268.031662 
L 101.21573 268.031662 
L 101.549048 267.481154 
L 101.739301 262.526586 
L 102.188721 267.481154 
L 102.506135 267.481154 
L 102.71684 268.031662 
L 106.041296 268.031662 
L 106.209649 267.481154 
L 106.511772 267.481154 
L 107.009334 265.829632 
L 112.024247 265.829632 
L 113.118734 265.279124 
L 119.854319 265.279124 
L 120.134794 262.526586 
L 120.49319 262.526586 
L 120.810997 265.279124 
L 121.137971 265.279124 
L 121.363273 262.526586 
L 121.607456 265.279124 
L 122.013251 262.526586 
L 122.372704 261.425571 
L 126.540707 261.425571 
L 126.900457 260.875064 
L 128.47877 260.875064 
L 128.803227 259.774049 
L 129.195527 257.572018 
L 129.475762 257.021511 
L 129.792515 253.718466 
L 130.183568 253.718466 
L 130.707904 252.61745 
L 131.069767 252.61745 
L 131.694783 251.516435 
L 134.318078 246.561868 
L 134.585935 247.662883 
L 136.461533 247.662883 
L 136.82745 245.460852 
L 137.150124 246.01136 
L 138.441899 246.01136 
L 138.678082 247.112375 
L 139.093507 246.01136 
L 140.031676 246.01136 
L 140.350961 244.910345 
L 140.658938 244.910345 
L 141.023685 244.359837 
L 141.170871 244.359837 
L 141.335367 242.708315 
L 141.558356 242.708315 
L 142.307378 242.157807 
L 142.926269 243.80933 
L 143.077605 243.80933 
L 143.562764 243.258822 
L 143.874045 242.157807 
L 145.482692 242.157807 
L 145.793282 241.6073 
L 146.126812 241.6073 
L 146.435602 241.056792 
L 146.724869 241.056792 
L 147.397025 240.506285 
L 147.744164 240.506285 
L 148.090331 238.854762 
L 148.654783 238.854762 
L 149.007536 238.304254 
L 149.226727 238.304254 
L 149.349099 248.21339 
L 149.441768 247.662883 
L 149.972233 247.662883 
L 150.286517 246.561868 
L 150.706249 246.561868 
L 150.922452 246.01136 
L 151.397896 246.01136 
L 151.445206 245.460852 
L 152.19418 245.460852 
L 152.596303 243.80933 
L 153.431976 242.157807 
L 154.790277 242.157807 
L 155.083943 241.056792 
L 155.194521 241.6073 
L 155.322572 241.6073 
L 155.677679 242.157807 
L 156.970007 241.6073 
L 160.203252 241.6073 
L 160.577904 242.157807 
L 162.142782 242.157807 
L 162.3655 242.708315 
L 162.773467 242.157807 
L 165.296018 242.157807 
L 165.80713 241.6073 
L 166.200764 241.6073 
L 166.628113 241.056792 
L 166.843143 241.6073 
L 168.903192 241.6073 
L 169.55333 240.506285 
L 170.936968 240.506285 
L 171.169921 232.799179 
L 171.432533 232.799179 
L 173.670536 231.147656 
L 173.808062 231.698164 
L 173.951535 231.147656 
L 174.323941 231.698164 
L 174.636321 231.698164 
L 174.965102 231.147656 
L 175.211999 231.147656 
L 175.608384 230.046641 
L 175.771403 230.046641 
L 175.922271 230.597149 
L 176.260422 229.496134 
L 178.508597 229.496134 
L 178.72731 228.945626 
L 179.091949 228.945626 
L 179.430357 228.395119 
L 179.781684 228.945626 
L 179.936706 228.945626 
L 180.418231 229.496134 
L 180.778998 226.743596 
L 181.035833 228.395119 
L 181.370803 228.395119 
L 181.639295 225.092073 
L 181.827154 225.642581 
L 182.027137 224.541566 
L 182.127862 225.092073 
L 182.251144 223.440551 
L 182.570756 223.440551 
L 182.975712 222.890043 
L 183.768844 223.440551 
L 183.949441 222.339536 
L 184.244588 222.339536 
L 184.4536 223.991058 
L 185.163089 222.339536 
L 185.868564 221.789028 
L 186.488134 221.789028 
L 186.813155 220.137505 
L 187.111907 220.137505 
L 187.288869 220.688013 
L 187.599464 220.688013 
L 188.800738 217.384968 
L 189.001081 219.586998 
L 189.386722 220.137505 
L 189.839033 217.384968 
L 191.054823 217.384968 
L 191.158903 216.83446 
L 191.643346 216.283953 
L 192.934753 216.283953 
L 193.525871 213.531415 
L 196.847666 213.531415 
L 197.109969 212.4304 
L 197.454955 214.63243 
L 197.6558 212.980907 
L 201.277225 212.980907 
L 201.579801 212.4304 
L 202.30947 209.127355 
L 202.583219 210.778877 
L 202.909453 210.22837 
L 203.270689 210.778877 
L 203.524892 210.778877 
L 203.910068 205.273802 
L 204.116604 205.273802 
L 204.156691 204.723294 
L 204.806617 204.723294 
L 205.17243 203.622279 
L 205.494945 201.970757 
L 206.465133 201.420249 
L 206.526521 201.970757 
L 207.053288 202.521264 
L 207.131527 201.970757 
L 209.669737 201.970757 
L 209.846351 201.420249 
L 210.320035 200.869741 
L 210.952565 199.768726 
L 211.117084 198.667711 
L 211.339401 198.667711 
L 211.588451 197.566696 
L 211.888309 198.117204 
L 212.224066 198.117204 
L 212.477059 198.667711 
L 212.833717 198.117204 
L 213.151974 198.117204 
L 213.457003 197.566696 
L 213.703926 197.566696 
L 214.168726 198.117204 
L 214.410363 197.566696 
L 214.660456 198.117204 
L 215.082349 200.869741 
L 215.386714 201.420249 
L 216.085321 200.319234 
L 216.18746 196.465681 
L 216.343184 196.465681 
L 216.628122 195.915174 
L 216.959153 196.465681 
L 217.261384 196.465681 
L 217.633689 197.016189 
L 217.956163 195.915174 
L 219.120009 195.915174 
L 219.582541 195.364666 
L 219.846871 195.364666 
L 219.867382 194.814158 
L 221.186172 194.814158 
L 221.561626 193.713143 
L 223.406857 193.713143 
L 223.774696 192.612128 
L 227.309174 192.612128 
L 227.520859 192.061621 
L 228.091778 192.061621 
L 228.572174 191.511113 
L 228.893976 190.410098 
L 228.990201 190.960606 
L 229.339976 189.859591 
L 230.118081 189.859591 
L 233.269535 188.758576 
L 241.059394 188.758576 
L 241.376701 189.309083 
L 242.899699 189.309083 
L 243.215386 188.758576 
L 244.261526 188.758576 
L 244.622591 188.208068 
L 244.882218 188.758576 
L 245.183531 188.208068 
L 245.516927 188.758576 
L 245.790561 187.65756 
L 246.20965 188.208068 
L 246.515441 187.65756 
L 253.162422 187.65756 
L 253.505778 188.758576 
L 253.869527 188.208068 
L 254.198501 188.758576 
L 254.566987 188.208068 
L 254.862501 188.758576 
L 256.095824 188.758576 
L 256.408988 188.208068 
L 256.76272 188.758576 
L 257.08499 187.65756 
L 257.72401 187.65756 
L 258.084543 188.208068 
L 258.354335 187.107053 
L 258.701392 187.107053 
L 258.969524 187.65756 
L 259.815803 186.556545 
L 260.310882 187.107053 
L 260.605019 186.556545 
L 261.230796 186.556545 
L 261.583983 187.107053 
L 261.930792 185.45553 
L 262.264593 186.006038 
L 262.905435 186.006038 
L 263.149718 186.556545 
L 263.462139 186.006038 
L 263.80309 186.006038 
L 264.107362 190.410098 
L 264.228245 189.859591 
L 264.467354 189.859591 
L 264.633922 189.309083 
L 264.779091 189.309083 
L 264.970221 188.758576 
L 265.099746 189.859591 
L 265.739204 188.758576 
L 266.28861 188.758576 
L 266.555791 187.65756 
L 266.820586 188.758576 
L 266.992982 188.208068 
L 267.964963 188.208068 
L 268.254319 188.758576 
L 268.528736 188.758576 
L 268.87357 188.208068 
L 269.192436 188.208068 
L 269.570425 188.758576 
L 269.935191 188.208068 
L 270.218213 188.208068 
L 270.663601 187.107053 
L 272.480465 187.107053 
L 272.779314 187.65756 
L 274.187435 187.65756 
L 274.51083 187.107053 
L 274.765219 186.556545 
L 275.263289 186.556545 
L 275.418679 185.45553 
L 275.489961 186.006038 
L 275.658493 185.45553 
L 276.132537 185.45553 
L 276.364922 184.354515 
L 276.997657 184.354515 
L 277.293008 183.2535 
L 278.269774 183.2535 
L 278.504019 181.601977 
L 278.72017 181.05147 
L 278.844911 181.05147 
L 279.265693 180.500962 
L 279.413792 181.05147 
L 279.485563 180.500962 
L 279.637416 180.500962 
L 279.81518 179.950455 
L 279.948218 179.950455 
L 280.491565 179.399947 
L 281.710554 179.399947 
L 282.024939 179.950455 
L 282.326175 179.399947 
L 282.665744 179.399947 
L 282.828485 178.84944 
L 282.867628 179.399947 
L 283.060785 178.84944 
L 283.211857 178.84944 
L 283.361047 177.748425 
L 283.935523 176.64741 
L 284.353844 177.197917 
L 284.671889 176.64741 
L 285.297135 176.64741 
L 285.636486 175.546394 
L 285.760718 176.096902 
L 285.962539 174.445379 
L 286.248524 174.995887 
L 286.433999 174.445379 
L 286.580654 174.995887 
L 286.742715 173.894872 
L 287.073033 173.894872 
L 287.170866 173.344364 
L 287.558404 173.894872 
L 287.858132 172.793857 
L 288.534361 172.793857 
L 288.777791 171.692842 
L 289.123074 172.793857 
L 289.357649 172.793857 
L 289.443651 172.243349 
L 290.074759 172.243349 
L 290.369969 170.041319 
L 290.794527 172.243349 
L 290.860352 171.692842 
L 291.419369 172.243349 
L 291.472304 171.142334 
L 291.664573 171.142334 
L 292.052007 170.591827 
L 292.366428 171.142334 
L 292.603966 171.142334 
L 292.955475 170.041319 
L 293.33789 170.041319 
L 293.708736 170.591827 
L 293.985897 170.041319 
L 294.154303 170.591827 
L 294.321799 169.490812 
L 295.805969 169.490812 
L 296.262126 168.940304 
L 297.19349 168.940304 
L 297.523953 170.041319 
L 298.146783 170.041319 
L 298.458506 169.490812 
L 301.29432 169.490812 
L 301.677032 170.041319 
L 302.035776 168.940304 
L 306.387829 168.940304 
L 307.342551 168.389796 
L 307.909602 168.389796 
L 308.370125 167.839289 
L 308.734063 167.839289 
L 308.947923 166.738274 
L 309.286984 167.288781 
L 313.792192 167.288781 
L 314.185651 167.839289 
L 314.497593 167.288781 
L 314.805767 167.839289 
L 315.015057 170.041319 
L 316.928822 170.041319 
L 317.24444 168.940304 
L 317.687418 170.041319 
L 319.521033 170.041319 
L 319.795855 168.940304 
L 319.899717 170.041319 
L 320.370453 170.041319 
L 320.588048 168.940304 
L 320.862335 170.041319 
L 321.067118 168.940304 
L 321.212466 168.940304 
L 321.399932 170.041319 
L 321.563886 168.940304 
L 321.668954 170.041319 
L 321.711272 168.940304 
L 322.838881 168.940304 
L 323.208012 167.288781 
L 323.618329 167.288781 
L 323.652171 166.738274 
L 323.983017 166.738274 
L 324.15433 166.187766 
L 324.30039 166.738274 
L 324.479829 166.187766 
L 324.601176 166.738274 
L 324.88578 166.187766 
L 325.006144 166.738274 
L 325.022649 166.187766 
L 325.383406 166.187766 
L 325.609443 165.637259 
L 325.752006 165.637259 
L 325.965499 164.536244 
L 326.202387 163.985736 
L 326.365993 164.536244 
L 328.188259 164.536244 
L 328.44881 163.985736 
L 329.845375 163.985736 
L 330.068152 163.435229 
L 330.362624 163.435229 
L 330.581136 162.884721 
L 330.701573 163.435229 
L 331.279386 163.435229 
L 331.47438 162.334213 
L 332.005124 162.334213 
L 332.056091 161.783706 
L 332.13015 162.334213 
L 332.42464 162.334213 
L 332.450274 161.783706 
L 332.664339 161.233198 
L 332.724168 161.783706 
L 332.966822 159.581676 
L 333.949569 159.581676 
L 334.048367 159.031168 
L 334.26366 159.031168 
L 334.389778 157.930153 
L 334.537791 159.031168 
L 335.842426 159.031168 
L 335.917917 158.480661 
L 336.168159 159.031168 
L 336.287973 158.480661 
L 336.509496 159.031168 
L 336.797244 159.031168 
L 336.973702 157.930153 
L 337.295363 157.930153 
L 337.427306 158.480661 
L 337.540352 157.379646 
L 337.874212 159.031168 
L 338.224073 157.930153 
L 338.477515 159.031168 
L 339.070801 159.031168 
L 339.532527 157.379646 
L 339.676201 157.930153 
L 339.835311 157.379646 
L 340.264639 158.480661 
L 340.402113 157.379646 
L 341.421 157.379646 
L 341.585233 156.829138 
L 341.871433 156.829138 
L 342.024002 157.379646 
L 342.216557 156.829138 
L 342.338312 157.379646 
L 342.709215 156.27863 
L 343.215601 156.27863 
L 343.572738 155.177615 
L 344.193173 156.27863 
L 344.325765 155.728123 
L 344.488884 156.27863 
L 344.592327 155.728123 
L 344.799861 155.728123 
L 344.886839 156.27863 
L 345.288695 155.177615 
L 345.495565 155.728123 
L 345.59792 155.177615 
L 345.808833 155.728123 
L 346.088948 155.728123 
L 346.269623 155.177615 
L 346.38842 155.728123 
L 346.505494 155.728123 
L 346.766629 156.27863 
L 346.88361 155.177615 
L 347.413867 155.177615 
L 347.44961 154.0766 
L 349.717491 154.0766 
L 349.941222 153.526093 
L 350.088074 154.0766 
L 350.212487 153.526093 
L 350.30699 154.0766 
L 350.420348 152.975585 
L 350.942639 152.975585 
L 351.189012 152.425078 
L 351.238944 152.975585 
L 351.290101 152.425078 
L 351.571442 152.975585 
L 351.644153 152.425078 
L 351.919286 151.87457 
L 352.02705 151.324063 
L 352.232776 151.324063 
L 352.28008 150.773555 
L 352.566518 149.122032 
L 352.695442 149.67254 
L 352.869446 149.67254 
L 352.900793 148.571525 
L 354.123324 148.571525 
L 354.275169 148.021017 
L 354.514671 148.571525 
L 355.221924 146.920002 
L 355.445003 146.920002 
L 355.577754 146.369495 
L 355.88696 146.369495 
L 355.894541 145.818987 
L 355.989857 146.369495 
L 356.081227 145.26848 
L 356.216273 145.26848 
L 356.403211 144.717972 
L 357.685578 144.717972 
L 357.71942 145.26848 
L 357.80015 144.167465 
L 358.138335 144.167465 
L 358.311047 144.717972 
L 358.443996 144.167465 
L 358.644157 144.717972 
L 358.794127 144.167465 
L 358.962622 144.167465 
L 359.107406 144.717972 
L 359.250964 143.066449 
L 360.969513 143.066449 
L 361.486317 141.965434 
L 361.758354 142.515942 
L 368.250272 142.515942 
L 368.360493 141.965434 
L 368.557633 142.515942 
L 368.614451 141.965434 
L 369.20352 141.965434 
L 369.366636 141.414927 
L 370.193395 141.414927 
L 370.303861 140.864419 
L 370.459571 141.414927 
L 371.726042 141.414927 
L 371.901709 140.864419 
L 372.122931 141.414927 
L 372.24508 141.414927 
L 372.43974 140.313912 
L 372.546824 140.864419 
L 373.021458 140.864419 
L 373.228265 140.313912 
L 374.201712 140.313912 
L 374.360284 141.414927 
L 374.681592 140.313912 
L 376.410399 140.313912 
L 376.587651 139.763404 
L 376.746003 139.763404 
L 376.916544 139.212897 
L 377.044013 139.212897 
L 377.201801 138.662389 
L 377.570981 138.662389 
L 377.636382 138.111882 
L 377.944148 138.111882 
L 378.138551 139.212897 
L 378.290351 138.662389 
L 378.522714 138.662389 
L 378.617462 138.111882 
L 378.97294 138.111882 
L 379.290881 137.561374 
L 379.637578 135.909851 
L 379.751089 136.460359 
L 379.856781 135.909851 
L 380.099375 135.359344 
L 380.214411 135.909851 
L 380.52319 135.359344 
L 380.727402 135.909851 
L 380.894185 135.909851 
L 381.220933 134.258329 
L 381.535841 134.808836 
L 381.861968 133.707821 
L 381.926007 134.258329 
L 382.13797 133.707821 
L 382.284744 134.258329 
L 382.405746 133.707821 
L 382.928281 133.707821 
L 383.122837 137.010866 
L 383.642447 135.909851 
L 383.985528 135.909851 
L 384.105532 135.359344 
L 384.292448 135.909851 
L 384.412425 135.909851 
L 384.554391 136.460359 
L 384.717625 135.909851 
L 384.941847 135.909851 
L 385.052172 136.460359 
L 385.192341 135.909851 
L 385.383511 136.460359 
L 385.45865 135.909851 
L 385.856007 135.359344 
L 386.008676 135.359344 
L 386.147995 135.909851 
L 386.412519 135.359344 
L 387.492597 135.359344 
L 387.587724 132.606806 
L 387.866574 134.808836 
L 388.159356 135.359344 
L 388.685997 135.359344 
L 389.089747 134.258329 
L 389.228234 135.909851 
L 389.461325 135.359344 
L 389.758466 135.909851 
L 389.894391 134.258329 
L 390.058502 135.359344 
L 390.213599 135.359344 
L 390.316889 134.808836 
L 390.407809 130.404776 
L 390.723564 132.606806 
L 390.749759 129.854268 
L 391.593751 129.854268 
L 391.992994 128.753253 
L 392.157687 129.303761 
L 392.748939 129.303761 
L 392.910035 129.854268 
L 393.082212 129.303761 
L 393.27107 129.303761 
L 393.382018 129.854268 
L 393.719554 129.303761 
L 393.917844 129.303761 
L 394.047841 128.753253 
L 394.206832 129.303761 
L 394.37764 129.303761 
L 394.537711 129.854268 
L 394.636866 129.303761 
L 395.528533 129.303761 
L 395.751611 127.652238 
L 396.021325 128.202746 
L 396.244395 128.202746 
L 396.424989 128.753253 
L 396.5071 128.202746 
L 396.786837 128.753253 
L 396.891415 128.202746 
L 397.137852 128.202746 
L 397.234263 127.652238 
L 397.528768 128.202746 
L 398.135638 128.202746 
L 398.360631 127.652238 
L 398.735432 127.652238 
L 398.829935 127.101731 
L 398.989657 127.652238 
L 399.363036 126.551223 
L 399.474133 126.551223 
L 399.638904 126.000716 
L 399.790793 126.000716 
L 400.076585 125.450208 
L 402.401336 125.450208 
L 402.649001 124.899701 
L 402.881231 124.899701 
L 402.928512 126.000716 
L 402.987067 125.450208 
L 403.365948 125.450208 
L 403.452428 124.899701 
L 403.950959 124.899701 
L 404.189047 124.349193 
L 404.508818 124.349193 
L 404.519454 124.899701 
L 404.625755 124.349193 
L 404.723514 124.899701 
L 406.115935 124.899701 
L 406.377021 125.450208 
L 407.105331 124.899701 
L 408.615663 124.899701 
L 408.681016 124.349193 
L 410.265874 124.349193 
L 410.408634 123.798685 
L 411.874305 121.046148 
L 412.013216 121.046148 
L 412.15814 120.49564 
L 412.222681 121.046148 
L 412.534793 120.49564 
L 412.824765 119.945133 
L 413.171556 119.945133 
L 413.288014 119.394625 
L 413.726274 119.394625 
L 414.361043 119.945133 
L 414.393021 118.29361 
L 414.903892 118.29361 
L 415.06223 118.844118 
L 415.177236 118.29361 
L 416.033765 118.29361 
L 416.350923 118.844118 
L 417.882078 118.844118 
L 418.659299 118.29361 
L 420.229333 118.29361 
L 421.002444 117.743102 
L 421.105842 117.192595 
L 423.430953 117.192595 
L 423.649387 117.743102 
L 424.829748 117.743102 
L 425.69162 118.29361 
L 426.319676 118.29361 
L 426.631355 117.743102 
L 426.908066 116.642087 
L 427.072815 116.642087 
L 427.079245 117.192595 
L 428.927227 117.192595 
L 429.125562 116.642087 
L 433.79407 116.642087 
L 434.382716 116.09158 
L 434.60957 116.09158 
L 434.698122 114.990565 
L 434.986639 114.990565 
L 435.107804 115.541072 
L 435.295629 114.990565 
L 436.350215 114.990565 
L 436.820294 114.440057 
L 437.14683 113.339042 
L 440.006667 113.339042 
L 440.510024 113.88955 
L 440.655662 113.339042 
L 440.802988 113.88955 
L 440.968606 113.339042 
L 441.752966 113.339042 
L 442.114595 113.88955 
L 442.298103 113.339042 
L 442.804103 114.440057 
L 443.001313 113.339042 
L 444.225808 113.339042 
L 444.240294 112.788535 
L 446.180852 112.788535 
L 447.124374 112.238027 
L 447.407522 112.788535 
L 447.613727 112.238027 
L 447.747177 112.788535 
L 447.933595 112.788535 
L 448.061124 112.238027 
L 448.510625 113.339042 
L 448.807402 112.788535 
L 449.206381 113.339042 
L 449.501907 113.339042 
L 449.636121 112.788535 
L 450.450893 112.788535 
L 451.41898 113.339042 
L 451.564696 112.788535 
L 452.527993 112.788535 
L 452.840748 113.339042 
L 457.743606 112.788535 
L 458.110714 113.339042 
L 458.427984 112.788535 
L 458.712279 113.339042 
L 458.744087 112.788535 
L 458.991593 112.238027 
L 459.134933 112.238027 
L 459.266051 111.68752 
L 461.545559 111.68752 
L 461.594132 111.137012 
L 461.877477 111.137012 
L 462.63405 111.68752 
L 462.658117 111.137012 
L 462.948798 111.68752 
L 463.019449 110.586504 
L 463.206547 110.586504 
L 463.586125 110.035997 
L 464.222226 110.035997 
L 464.608472 110.586504 
L 465.042752 109.485489 
L 465.060565 108.934982 
L 465.482438 108.384474 
L 465.792721 108.934982 
L 466.229017 108.934982 
L 466.319715 108.384474 
L 467.313098 108.384474 
L 467.449948 108.934982 
L 467.617485 107.833967 
L 467.755572 107.833967 
L 468.017649 108.384474 
L 468.255996 107.833967 
L 468.787515 107.833967 
L 469.021601 106.182444 
L 470.69109 106.182444 
L 470.890684 105.631937 
L 471.0129 105.631937 
L 471.214004 106.182444 
L 471.26587 105.631937 
L 471.798578 105.631937 
L 471.905721 105.081429 
L 472.196725 104.530921 
L 472.279842 103.429906 
L 472.733869 103.429906 
L 472.904458 101.778384 
L 473.259656 101.778384 
L 473.467395 102.328891 
L 473.579625 101.778384 
L 473.730701 101.778384 
L 473.742239 100.126861 
L 474.550225 100.126861 
L 474.690286 99.576354 
L 475.038599 99.576354 
L 475.399533 100.126861 
L 475.436657 99.025846 
L 475.756236 99.025846 
L 475.815144 98.475338 
L 476.037818 97.924831 
L 476.626051 97.924831 
L 476.712509 96.823816 
L 476.964949 96.823816 
L 477.112948 96.273308 
L 477.254962 96.273308 
L 477.764237 95.722801 
L 477.963552 96.273308 
L 478.082248 102.328891 
L 478.21098 102.879399 
L 478.298165 100.677369 
L 478.92617 100.677369 
L 479.184293 101.227876 
L 479.372364 100.126861 
L 480.301147 100.126861 
L 480.488349 100.677369 
L 480.634922 100.126861 
L 481.624151 100.126861 
L 481.745955 99.576354 
L 482.196952 100.677369 
L 482.563682 100.126861 
L 482.773833 100.126861 
L 482.854548 99.576354 
L 483.040083 100.677369 
L 483.220435 99.576354 
L 483.968752 99.576354 
L 484.084738 100.126861 
L 484.351296 100.126861 
L 484.393228 99.576354 
L 484.695046 99.025846 
L 484.706825 99.576354 
L 484.949999 99.025846 
L 485.274429 99.025846 
L 485.566573 98.475338 
L 487.082592 98.475338 
L 487.196265 97.924831 
L 487.496914 98.475338 
L 487.506953 97.924831 
L 487.93866 97.374323 
L 488.203919 97.374323 
L 488.509167 96.823816 
L 488.66158 96.273308 
L 488.778109 96.273308 
L 489.144794 97.374323 
L 489.21723 96.273308 
L 489.463804 96.823816 
L 489.671346 96.273308 
L 490.597594 96.273308 
L 490.701374 95.722801 
L 490.830718 96.273308 
L 491.278942 95.722801 
L 491.495446 96.273308 
L 491.714864 95.722801 
L 491.846695 96.273308 
L 492.153718 95.172293 
L 492.365848 95.722801 
L 493.091411 95.722801 
L 493.380069 95.172293 
L 493.801553 95.172293 
L 494.136894 96.273308 
L 494.226274 95.722801 
L 494.58458 95.722801 
L 494.675511 94.621786 
L 495.127415 95.722801 
L 495.285229 95.172293 
L 495.649338 95.722801 
L 495.91512 95.722801 
L 496.051283 95.172293 
L 496.376749 95.172293 
L 496.802978 94.621786 
L 496.858196 95.722801 
L 497.011229 94.621786 
L 497.151528 95.172293 
L 497.235736 94.621786 
L 497.569796 95.172293 
L 497.970621 94.621786 
L 498.172523 94.621786 
L 498.449677 95.172293 
L 498.843629 95.172293 
L 499.24755 94.071278 
L 499.459131 94.621786 
L 499.88697 94.621786 
L 500.087043 95.172293 
L 500.116497 95.722801 
L 500.36574 94.621786 
L 500.49792 95.172293 
L 500.653395 94.621786 
L 500.884418 95.172293 
L 501.145894 95.172293 
L 501.313869 95.722801 
L 501.63243 95.722801 
L 501.964092 94.621786 
L 502.189142 95.172293 
L 502.463206 94.071278 
L 502.605933 94.071278 
L 502.695521 94.621786 
L 502.974255 94.621786 
L 502.997651 94.071278 
L 503.921668 94.071278 
L 504.073045 93.520771 
L 504.202704 93.520771 
L 504.40258 92.970263 
L 504.574976 93.520771 
L 504.706455 92.970263 
L 504.902469 92.970263 
L 505.012813 92.419756 
L 505.155232 92.970263 
L 505.201117 92.419756 
L 505.358779 91.31874 
L 505.551401 91.869248 
L 505.612021 92.419756 
L 505.815163 91.869248 
L 505.981175 92.419756 
L 506.181269 91.869248 
L 506.509175 91.869248 
L 506.600478 91.31874 
L 506.827005 91.869248 
L 507.421924 90.217725 
L 507.581959 90.217725 
L 507.747491 91.31874 
L 507.825748 90.768233 
L 508.059782 90.768233 
L 508.166261 91.31874 
L 508.357628 91.31874 
L 508.531855 90.768233 
L 508.755839 90.768233 
L 509.131883 89.11671 
L 509.331948 89.667218 
L 511.961839 89.667218 
L 512.084222 89.11671 
L 512.239419 89.11671 
L 512.364226 89.667218 
L 512.614635 89.11671 
L 513.238497 89.11671 
L 513.34286 88.015695 
L 514.002973 89.11671 
L 514.465123 89.11671 
L 515.097508 88.015695 
L 516.215442 88.566203 
L 516.499348 88.015695 
L 516.812118 88.566203 
L 517.035497 87.465188 
L 517.125088 88.566203 
L 517.419552 87.465188 
L 517.740382 88.566203 
L 517.846586 87.465188 
L 518.05232 87.465188 
L 518.165415 88.015695 
L 518.370406 87.465188 
L 518.493428 87.465188 
L 518.608019 88.015695 
L 518.747248 86.364173 
L 519.112393 87.465188 
L 519.453915 87.465188 
L 519.662597 86.91468 
L 520.056427 86.91468 
L 520.376707 87.465188 
L 520.563946 87.465188 
L 520.705492 86.364173 
L 520.882054 87.465188 
L 520.980629 86.91468 
L 521.218646 86.364173 
L 521.364588 86.364173 
L 521.619745 87.465188 
L 521.863736 85.813665 
L 522.170406 85.813665 
L 522.193683 84.71265 
L 522.2151 85.263157 
L 522.375486 85.813665 
L 522.544085 84.71265 
L 522.614409 85.813665 
L 522.86856 85.813665 
L 522.90319 85.263157 
L 523.189531 84.71265 
L 523.360903 84.71265 
L 523.441228 85.813665 
L 523.825499 84.71265 
L 523.88773 85.813665 
L 524.097031 84.71265 
L 524.258038 86.364173 
L 524.747481 85.263157 
L 525.116193 86.91468 
L 525.144704 86.364173 
L 525.378252 86.91468 
L 525.525901 86.91468 
L 525.679183 85.813665 
L 525.862234 86.91468 
L 526.214162 85.813665 
L 526.347682 86.91468 
L 526.492251 86.364173 
L 526.786852 86.364173 
L 526.981404 86.91468 
L 527.353828 86.91468 
L 527.365196 86.364173 
L 527.951347 87.465188 
L 528.262212 85.813665 
L 528.427199 85.813665 
L 528.61949 86.364173 
L 528.673843 85.263157 
L 528.94682 86.364173 
L 529.114906 85.263157 
L 529.284355 86.364173 
L 529.354382 85.813665 
L 529.701904 85.813665 
L 529.910166 85.263157 
L 530.005419 84.162142 
L 530.199332 85.263157 
L 530.518365 84.71265 
L 530.659492 84.162142 
L 530.833867 84.71265 
L 530.98275 82.51062 
L 531.216441 82.51062 
L 531.525488 81.960112 
L 531.562771 83.061127 
L 531.866936 81.960112 
L 532.299899 83.061127 
L 532.416887 81.409605 
L 532.767954 80.859097 
L 533.150324 81.960112 
L 533.39267 82.51062 
L 534.06633 81.960112 
L 534.147019 81.409605 
L 535.093819 81.409605 
L 535.380635 80.859097 
L 535.670756 79.207574 
L 536.415616 79.758082 
L 536.988261 79.758082 
L 537.304532 79.207574 
L 537.386056 79.758082 
L 537.626345 78.657067 
L 537.679878 79.758082 
L 537.942868 79.207574 
L 538.419934 79.207574 
L 538.664748 78.106559 
L 538.889453 79.207574 
L 539.196353 78.106559 
L 539.316 78.657067 
L 539.47991 78.106559 
L 539.90785 78.657067 
L 540.155189 78.106559 
L 540.878639 78.106559 
L 541.051318 78.657067 
L 541.470326 77.556052 
L 541.640639 78.657067 
L 541.787543 78.657067 
L 541.844666 78.106559 
L 542.052928 78.106559 
L 542.277543 77.556052 
L 542.43124 78.657067 
L 542.669877 77.556052 
L 542.774678 78.657067 
L 543.067304 77.556052 
L 543.247241 77.556052 
L 543.363357 78.106559 
L 543.55364 78.106559 
L 543.60741 78.657067 
L 543.618451 78.106559 
L 543.943294 78.106559 
L 544.053203 78.657067 
L 544.351186 77.556052 
L 544.625592 78.657067 
L 545.095857 78.106559 
L 546.100808 78.106559 
L 546.34181 78.657067 
L 546.598029 78.106559 
L 546.762956 78.657067 
L 546.864835 78.106559 
L 547.578563 78.106559 
L 547.79647 78.657067 
L 548.296798 77.556052 
L 548.418449 78.106559 
L 548.818643 77.556052 
L 549.255707 78.106559 
L 549.48784 77.556052 
L 550.033979 78.657067 
L 550.177278 79.207574 
L 550.414701 79.207574 
L 550.871983 77.556052 
L 550.996367 77.556052 
L 551.154274 78.657067 
L 551.525151 78.657067 
L 551.733171 78.106559 
L 551.890922 78.106559 
L 552.054027 78.657067 
L 552.361982 78.657067 
L 552.782478 78.106559 
L 553.015899 78.106559 
L 553.111456 77.556052 
L 553.335808 78.657067 
L 553.454011 77.556052 
L 553.60097 78.106559 
L 553.693784 77.556052 
L 554.28302 77.556052 
L 554.304347 76.455037 
L 554.3995 77.005544 
L 554.577521 77.005544 
L 554.6839 77.556052 
L 554.851229 77.005544 
L 555.035728 77.556052 
L 555.506219 77.005544 
L 555.905837 77.005544 
L 556.057618 75.904529 
L 556.117477 76.455037 
L 556.296318 75.904529 
L 556.536162 76.455037 
L 556.648443 77.005544 
L 556.815813 76.455037 
L 556.980867 77.005544 
L 557.179395 75.904529 
L 557.263507 77.005544 
L 557.441876 85.263157 
L 557.928888 85.263157 
L 558.063121 85.813665 
L 558.190705 83.611635 
L 558.901589 84.162142 
L 559.429779 84.162142 
L 559.532497 83.611635 
L 559.664592 83.611635 
L 560.078569 84.71265 
L 560.39171 84.71265 
L 560.40506 84.162142 
L 560.797082 83.611635 
L 561.074729 84.162142 
L 561.353642 85.263157 
L 561.389296 84.162142 
L 561.60238 85.263157 
L 561.685259 84.71265 
L 562.321821 84.71265 
L 562.356224 84.162142 
L 562.616883 84.162142 
L 562.794443 84.71265 
L 562.965555 84.71265 
L 563.020272 85.263157 
L 563.388194 84.162142 
L 563.715735 85.263157 
L 563.715735 85.263157 
" clip-path="url(#pdabe383858)" style="fill: none; stroke-dasharray: 6,1.5; stroke-dashoffset: 0; stroke: #008000; stroke-width: 1.5"/>
   </g>
   <g id="line2d_20">
    <path d="M 38.539265 362.168452 
L 39.850559 363.269467 
L 41.157622 363.269467 
L 42.421917 362.718959 
L 44.252874 362.718959 
L 48.076848 362.168452 
L 48.184816 362.718959 
L 51.496219 362.718959 
L 51.808298 363.819974 
L 52.498749 363.819974 
L 52.785837 360.516929 
L 53.168441 363.819974 
L 55.031606 363.819974 
L 55.373262 360.516929 
L 57.942853 360.516929 
L 59.297353 361.067436 
L 59.481811 361.617944 
L 60.511453 361.617944 
L 60.800452 359.966421 
L 63.959353 359.966421 
L 64.334031 360.516929 
L 73.964993 360.516929 
L 74.268348 359.966421 
L 80.071174 359.966421 
L 80.360258 362.168452 
L 128.47877 362.168452 
L 128.803227 363.269467 
L 129.195527 366.572512 
L 129.475762 366.572512 
L 129.792515 367.123019 
L 131.694783 367.123019 
L 134.318078 368.774542 
L 134.585935 368.774542 
L 135.035061 369.32505 
L 148.295003 369.32505 
L 149.007536 370.426065 
L 179.091949 370.426065 
L 179.430357 370.976572 
L 179.781684 370.426065 
L 181.827154 370.426065 
L 182.127862 370.976572 
L 187.599464 370.976572 
L 188.800738 372.077587 
L 189.001081 370.976572 
L 189.386722 370.976572 
L 189.704592 372.077587 
L 197.109969 372.077587 
L 197.454955 371.52708 
L 197.6558 372.077587 
L 215.082349 372.077587 
L 215.386714 373.178602 
L 254.198501 373.178602 
L 254.566987 373.72911 
L 343.572738 373.72911 
L 343.928679 373.178602 
L 354.514671 373.178602 
L 354.929532 373.72911 
L 355.04041 374.830125 
L 382.928281 374.830125 
L 383.122837 374.279617 
L 385.856007 374.279617 
L 386.008676 374.830125 
L 496.241295 374.830125 
L 496.376749 374.279617 
L 504.706455 374.279617 
L 505.012813 374.830125 
L 536.655552 374.830125 
L 536.988261 374.279617 
L 563.715735 374.279617 
L 563.715735 374.279617 
" clip-path="url(#pdabe383858)" style="fill: none; stroke-dasharray: 9,3; stroke-dashoffset: 0; stroke: #ffa500; stroke-width: 1.5"/>
   </g>
   <g id="line2d_21">
    <path d="M 38.539265 324.183431 
L 48.076848 324.183431 
L 48.184816 324.733939 
L 51.496219 324.733939 
L 51.808298 325.284446 
L 52.498749 325.284446 
L 52.785837 326.385461 
L 53.168441 325.284446 
L 55.031606 325.284446 
L 55.604226 326.935969 
L 56.951809 326.935969 
L 57.255413 327.486476 
L 57.438991 326.935969 
L 57.592551 327.486476 
L 71.726255 327.486476 
L 72.027123 328.587491 
L 72.145519 327.486476 
L 72.673029 328.587491 
L 89.557801 328.587491 
L 90.273333 329.137999 
L 90.435424 328.587491 
L 91.583157 328.587491 
L 91.894828 329.137999 
L 92.238693 328.587491 
L 93.056836 328.587491 
L 93.508739 329.137999 
L 93.844218 328.587491 
L 119.854319 328.587491 
L 120.134794 329.137999 
L 120.49319 329.137999 
L 120.810997 328.587491 
L 121.137971 328.587491 
L 121.363273 329.137999 
L 121.607456 328.587491 
L 122.013251 329.137999 
L 128.803227 329.137999 
L 129.195527 328.587491 
L 129.475762 328.587491 
L 129.792515 329.688506 
L 131.336499 329.688506 
L 131.694783 332.441044 
L 134.318078 330.239014 
L 134.585935 330.789522 
L 136.461533 330.789522 
L 136.82745 333.542059 
L 137.150124 334.092567 
L 151.686022 334.092567 
L 152.19418 333.542059 
L 152.596303 334.092567 
L 153.493216 333.542059 
L 155.677679 333.542059 
L 156.970007 334.092567 
L 162.3655 334.092567 
L 162.773467 334.643074 
L 196.847666 334.643074 
L 197.109969 335.193582 
L 197.454955 334.643074 
L 203.524892 334.643074 
L 203.910068 341.799672 
L 204.806617 341.799672 
L 205.17243 346.203733 
L 205.494945 347.855255 
L 225.02729 347.855255 
L 227.774486 348.405763 
L 256.76272 348.405763 
L 257.08499 350.607793 
L 263.80309 350.607793 
L 264.107362 347.304748 
L 279.637416 347.304748 
L 279.81518 347.855255 
L 308.734063 347.855255 
L 308.947923 348.405763 
L 309.286984 347.855255 
L 317.099574 347.855255 
L 317.24444 348.405763 
L 317.540017 347.855255 
L 319.521033 347.855255 
L 319.795855 348.405763 
L 319.899717 347.855255 
L 322.838881 347.855255 
L 323.044125 348.405763 
L 332.244722 348.405763 
L 332.42464 347.855255 
L 343.928679 347.855255 
L 344.193173 347.304748 
L 344.325765 347.855255 
L 344.488884 347.304748 
L 344.592327 347.855255 
L 344.799861 347.855255 
L 344.886839 347.304748 
L 345.119573 347.855255 
L 346.505494 347.855255 
L 346.766629 347.304748 
L 346.88361 347.855255 
L 354.929532 347.855255 
L 355.04041 347.304748 
L 382.928281 347.304748 
L 383.122837 347.855255 
L 387.492597 347.855255 
L 387.587724 350.607793 
L 387.866574 347.855255 
L 390.393973 347.855255 
L 390.407809 350.607793 
L 390.723564 347.855255 
L 390.749759 350.607793 
L 416.033765 350.607793 
L 416.350923 350.057286 
L 416.623384 350.607793 
L 447.407522 350.607793 
L 447.613727 351.158301 
L 447.747177 350.607793 
L 448.061124 350.607793 
L 448.510625 351.158301 
L 468.787515 351.158301 
L 469.021601 351.708808 
L 471.905721 351.708808 
L 472.196725 352.259316 
L 477.963552 352.259316 
L 478.082248 351.708808 
L 484.706825 351.708808 
L 484.949999 352.259316 
L 496.241295 352.259316 
L 496.376749 356.112869 
L 504.706455 356.112869 
L 505.012813 355.562361 
L 512.614635 355.562361 
L 513.34286 357.764391 
L 520.705492 357.764391 
L 520.980629 357.213884 
L 534.399046 357.213884 
L 534.863642 356.663376 
L 536.655552 356.663376 
L 536.988261 358.865406 
L 537.386056 359.415914 
L 539.47991 359.415914 
L 539.90785 359.966421 
L 557.263507 359.966421 
L 557.441876 356.663376 
L 563.715735 356.663376 
L 563.715735 356.663376 
" clip-path="url(#pdabe383858)" style="fill: none; stroke-dasharray: 12,4.5; stroke-dashoffset: 0; stroke: #ee82ee; stroke-width: 1.5"/>
   </g>
   <g id="patch_3">
    <path d="M 33.2875 374.830125 
L 33.2875 22.318125 
" style="fill: none; stroke: #000000; stroke-width: 0.8; stroke-linejoin: miter; stroke-linecap: square"/>
   </g>
   <g id="patch_4">
    <path d="M 568.9675 374.830125 
L 568.9675 22.318125 
" style="fill: none; stroke: #000000; stroke-width: 0.8; stroke-linejoin: miter; stroke-linecap: square"/>
   </g>
   <g id="patch_5">
    <path d="M 33.2875 374.830125 
L 568.9675 374.830125 
" style="fill: none; stroke: #000000; stroke-width: 0.8; stroke-linejoin: miter; stroke-linecap: square"/>
   </g>
   <g id="patch_6">
    <path d="M 33.2875 22.318125 
L 568.9675 22.318125 
" style="fill: none; stroke: #000000; stroke-width: 0.8; stroke-linejoin: miter; stroke-linecap: square"/>
   </g>
   <g id="text_17">
    <!-- Rust/Coreutils running GNU's testsuite -->
    <g transform="translate(186.090625 16.318125) scale(0.12 -0.12)">
     <defs>
      <path id="DejaVuSans-52" d="M 2841 2188 
Q 3044 2119 3236 1894 
Q 3428 1669 3622 1275 
L 4263 0 
L 3584 0 
L 2988 1197 
Q 2756 1666 2539 1819 
Q 2322 1972 1947 1972 
L 1259 1972 
L 1259 0 
L 628 0 
L 628 4666 
L 2053 4666 
Q 2853 4666 3247 4331 
Q 3641 3997 3641 3322 
Q 3641 2881 3436 2590 
Q 3231 2300 2841 2188 
z
M 1259 4147 
L 1259 2491 
L 2053 2491 
Q 2509 2491 2742 2702 
Q 2975 2913 2975 3322 
Q 2975 3731 2742 3939 
Q 2509 4147 2053 4147 
L 1259 4147 
z
" transform="scale(0.015625)"/>
      <path id="DejaVuSans-75" d="M 544 1381 
L 544 3500 
L 1119 3500 
L 1119 1403 
Q 1119 906 1312 657 
Q 1506 409 1894 409 
Q 2359 409 2629 706 
Q 2900 1003 2900 1516 
L 2900 3500 
L 3475 3500 
L 3475 0 
L 2900 0 
L 2900 538 
Q 2691 219 2414 64 
Q 2138 -91 1772 -91 
Q 1169 -91 856 284 
Q 544 659 544 1381 
z
M 1991 3584 
L 1991 3584 
z
" transform="scale(0.015625)"/>
      <path id="DejaVuSans-73" d="M 2834 3397 
L 2834 2853 
Q 2591 2978 2328 3040 
Q 2066 3103 1784 3103 
Q 1356 3103 1142 2972 
Q 928 2841 928 2578 
Q 928 2378 1081 2264 
Q 1234 2150 1697 2047 
L 1894 2003 
Q 2506 1872 2764 1633 
Q 3022 1394 3022 966 
Q 3022 478 2636 193 
Q 2250 -91 1575 -91 
Q 1294 -91 989 -36 
Q 684 19 347 128 
L 347 722 
Q 666 556 975 473 
Q 1284 391 1588 391 
Q 1994 391 2212 530 
Q 2431 669 2431 922 
Q 2431 1156 2273 1281 
Q 2116 1406 1581 1522 
L 1381 1569 
Q 847 1681 609 1914 
Q 372 2147 372 2553 
Q 372 3047 722 3315 
Q 1072 3584 1716 3584 
Q 2034 3584 2315 3537 
Q 2597 3491 2834 3397 
z
" transform="scale(0.015625)"/>
      <path id="DejaVuSans-74" d="M 1172 4494 
L 1172 3500 
L 2356 3500 
L 2356 3053 
L 1172 3053 
L 1172 1153 
Q 1172 725 1289 603 
Q 1406 481 1766 481 
L 2356 481 
L 2356 0 
L 1766 0 
Q 1100 0 847 248 
Q 594 497 594 1153 
L 594 3053 
L 172 3053 
L 172 3500 
L 594 3500 
L 594 4494 
L 1172 4494 
z
" transform="scale(0.015625)"/>
      <path id="DejaVuSans-2f" d="M 1625 4666 
L 2156 4666 
L 531 -594 
L 0 -594 
L 1625 4666 
z
" transform="scale(0.015625)"/>
      <path id="DejaVuSans-43" d="M 4122 4306 
L 4122 3641 
Q 3803 3938 3442 4084 
Q 3081 4231 2675 4231 
Q 1875 4231 1450 3742 
Q 1025 3253 1025 2328 
Q 1025 1406 1450 917 
Q 1875 428 2675 428 
Q 3081 428 3442 575 
Q 3803 722 4122 1019 
L 4122 359 
Q 3791 134 3420 21 
Q 3050 -91 2638 -91 
Q 1578 -91 968 557 
Q 359 1206 359 2328 
Q 359 3453 968 4101 
Q 1578 4750 2638 4750 
Q 3056 4750 3426 4639 
Q 3797 4528 4122 4306 
z
" transform="scale(0.015625)"/>
      <path id="DejaVuSans-6f" d="M 1959 3097 
Q 1497 3097 1228 2736 
Q 959 2375 959 1747 
Q 959 1119 1226 758 
Q 1494 397 1959 397 
Q 2419 397 2687 759 
Q 2956 1122 2956 1747 
Q 2956 2369 2687 2733 
Q 2419 3097 1959 3097 
z
M 1959 3584 
Q 2709 3584 3137 3096 
Q 3566 2609 3566 1747 
Q 3566 888 3137 398 
Q 2709 -91 1959 -91 
Q 1206 -91 779 398 
Q 353 888 353 1747 
Q 353 2609 779 3096 
Q 1206 3584 1959 3584 
z
" transform="scale(0.015625)"/>
      <path id="DejaVuSans-72" d="M 2631 2963 
Q 2534 3019 2420 3045 
Q 2306 3072 2169 3072 
Q 1681 3072 1420 2755 
Q 1159 2438 1159 1844 
L 1159 0 
L 581 0 
L 581 3500 
L 1159 3500 
L 1159 2956 
Q 1341 3275 1631 3429 
Q 1922 3584 2338 3584 
Q 2397 3584 2469 3576 
Q 2541 3569 2628 3553 
L 2631 2963 
z
" transform="scale(0.015625)"/>
      <path id="DejaVuSans-65" d="M 3597 1894 
L 3597 1613 
L 953 1613 
Q 991 1019 1311 708 
Q 1631 397 2203 397 
Q 2534 397 2845 478 
Q 3156 559 3463 722 
L 3463 178 
Q 3153 47 2828 -22 
Q 2503 -91 2169 -91 
Q 1331 -91 842 396 
Q 353 884 353 1716 
Q 353 2575 817 3079 
Q 1281 3584 2069 3584 
Q 2775 3584 3186 3129 
Q 3597 2675 3597 1894 
z
M 3022 2063 
Q 3016 2534 2758 2815 
Q 2500 3097 2075 3097 
Q 1594 3097 1305 2825 
Q 1016 2553 972 2059 
L 3022 2063 
z
" transform="scale(0.015625)"/>
      <path id="DejaVuSans-69" d="M 603 3500 
L 1178 3500 
L 1178 0 
L 603 0 
L 603 3500 
z
M 603 4863 
L 1178 4863 
L 1178 4134 
L 603 4134 
L 603 4863 
z
" transform="scale(0.015625)"/>
      <path id="DejaVuSans-6c" d="M 603 4863 
L 1178 4863 
L 1178 0 
L 603 0 
L 603 4863 
z
" transform="scale(0.015625)"/>
      <path id="DejaVuSans-20" transform="scale(0.015625)"/>
      <path id="DejaVuSans-6e" d="M 3513 2113 
L 3513 0 
L 2938 0 
L 2938 2094 
Q 2938 2591 2744 2837 
Q 2550 3084 2163 3084 
Q 1697 3084 1428 2787 
Q 1159 2491 1159 1978 
L 1159 0 
L 581 0 
L 581 3500 
L 1159 3500 
L 1159 2956 
Q 1366 3272 1645 3428 
Q 1925 3584 2291 3584 
Q 2894 3584 3203 3211 
Q 3513 2838 3513 2113 
z
" transform="scale(0.015625)"/>
      <path id="DejaVuSans-67" d="M 2906 1791 
Q 2906 2416 2648 2759 
Q 2391 3103 1925 3103 
Q 1463 3103 1205 2759 
Q 947 2416 947 1791 
Q 947 1169 1205 825 
Q 1463 481 1925 481 
Q 2391 481 2648 825 
Q 2906 1169 2906 1791 
z
M 3481 434 
Q 3481 -459 3084 -895 
Q 2688 -1331 1869 -1331 
Q 1566 -1331 1297 -1286 
Q 1028 -1241 775 -1147 
L 775 -588 
Q 1028 -725 1275 -790 
Q 1522 -856 1778 -856 
Q 2344 -856 2625 -561 
Q 2906 -266 2906 331 
L 2906 616 
Q 2728 306 2450 153 
Q 2172 0 1784 0 
Q 1141 0 747 490 
Q 353 981 353 1791 
Q 353 2603 747 3093 
Q 1141 3584 1784 3584 
Q 2172 3584 2450 3431 
Q 2728 3278 2906 2969 
L 2906 3500 
L 3481 3500 
L 3481 434 
z
" transform="scale(0.015625)"/>
      <path id="DejaVuSans-47" d="M 3809 666 
L 3809 1919 
L 2778 1919 
L 2778 2438 
L 4434 2438 
L 4434 434 
Q 4069 175 3628 42 
Q 3188 -91 2688 -91 
Q 1594 -91 976 548 
Q 359 1188 359 2328 
Q 359 3472 976 4111 
Q 1594 4750 2688 4750 
Q 3144 4750 3555 4637 
Q 3966 4525 4313 4306 
L 4313 3634 
Q 3963 3931 3569 4081 
Q 3175 4231 2741 4231 
Q 1884 4231 1454 3753 
Q 1025 3275 1025 2328 
Q 1025 1384 1454 906 
Q 1884 428 2741 428 
Q 3075 428 3337 486 
Q 3600 544 3809 666 
z
" transform="scale(0.015625)"/>
      <path id="DejaVuSans-4e" d="M 628 4666 
L 1478 4666 
L 3547 763 
L 3547 4666 
L 4159 4666 
L 4159 0 
L 3309 0 
L 1241 3903 
L 1241 0 
L 628 0 
L 628 4666 
z
" transform="scale(0.015625)"/>
      <path id="DejaVuSans-55" d="M 556 4666 
L 1191 4666 
L 1191 1831 
Q 1191 1081 1462 751 
Q 1734 422 2344 422 
Q 2950 422 3222 751 
Q 3494 1081 3494 1831 
L 3494 4666 
L 4128 4666 
L 4128 1753 
Q 4128 841 3676 375 
Q 3225 -91 2344 -91 
Q 1459 -91 1007 375 
Q 556 841 556 1753 
L 556 4666 
z
" transform="scale(0.015625)"/>
      <path id="DejaVuSans-27" d="M 1147 4666 
L 1147 2931 
L 616 2931 
L 616 4666 
L 1147 4666 
z
" transform="scale(0.015625)"/>
     </defs>
     <use xlink:href="#DejaVuSans-52"/>
     <use xlink:href="#DejaVuSans-75" x="64.982422"/>
     <use xlink:href="#DejaVuSans-73" x="128.361328"/>
     <use xlink:href="#DejaVuSans-74" x="180.460938"/>
     <use xlink:href="#DejaVuSans-2f" x="219.669922"/>
     <use xlink:href="#DejaVuSans-43" x="253.361328"/>
     <use xlink:href="#DejaVuSans-6f" x="323.185547"/>
     <use xlink:href="#DejaVuSans-72" x="384.367188"/>
     <use xlink:href="#DejaVuSans-65" x="423.230469"/>
     <use xlink:href="#DejaVuSans-75" x="484.753906"/>
     <use xlink:href="#DejaVuSans-74" x="548.132812"/>
     <use xlink:href="#DejaVuSans-69" x="587.341797"/>
     <use xlink:href="#DejaVuSans-6c" x="615.125"/>
     <use xlink:href="#DejaVuSans-73" x="642.908203"/>
     <use xlink:href="#DejaVuSans-20" x="695.007812"/>
     <use xlink:href="#DejaVuSans-72" x="726.794922"/>
     <use xlink:href="#DejaVuSans-75" x="767.908203"/>
     <use xlink:href="#DejaVuSans-6e" x="831.287109"/>
     <use xlink:href="#DejaVuSans-6e" x="894.666016"/>
     <use xlink:href="#DejaVuSans-69" x="958.044922"/>
     <use xlink:href="#DejaVuSans-6e" x="985.828125"/>
     <use xlink:href="#DejaVuSans-67" x="1049.207031"/>
     <use xlink:href="#DejaVuSans-20" x="1112.683594"/>
     <use xlink:href="#DejaVuSans-47" x="1144.470703"/>
     <use xlink:href="#DejaVuSans-4e" x="1221.960938"/>
     <use xlink:href="#DejaVuSans-55" x="1296.765625"/>
     <use xlink:href="#DejaVuSans-27" x="1369.958984"/>
     <use xlink:href="#DejaVuSans-73" x="1397.449219"/>
     <use xlink:href="#DejaVuSans-20" x="1449.548828"/>
     <use xlink:href="#DejaVuSans-74" x="1481.335938"/>
     <use xlink:href="#DejaVuSans-65" x="1520.544922"/>
     <use xlink:href="#DejaVuSans-73" x="1582.068359"/>
     <use xlink:href="#DejaVuSans-74" x="1634.167969"/>
     <use xlink:href="#DejaVuSans-73" x="1673.376953"/>
     <use xlink:href="#DejaVuSans-75" x="1725.476562"/>
     <use xlink:href="#DejaVuSans-69" x="1788.855469"/>
     <use xlink:href="#DejaVuSans-74" x="1816.638672"/>
     <use xlink:href="#DejaVuSans-65" x="1855.847656"/>
    </g>
   </g>
   <g id="legend_1">
    <g id="patch_7">
     <path d="M 505.762812 236.769437 
L 561.9675 236.769437 
Q 563.9675 236.769437 563.9675 234.769437 
L 563.9675 162.378812 
Q 563.9675 160.378812 561.9675 160.378812 
L 505.762812 160.378812 
Q 503.762812 160.378812 503.762812 162.378812 
L 503.762812 234.769437 
Q 503.762812 236.769437 505.762812 236.769437 
z
" style="fill: #ffffff; opacity: 0.8; stroke: #cccccc; stroke-linejoin: miter"/>
    </g>
    <g id="line2d_22">
     <path d="M 507.762812 168.47725 
L 517.762812 168.47725 
L 527.762812 168.47725 
" style="fill: none; stroke: #0000ff; stroke-width: 1.5; stroke-linecap: square"/>
    </g>
    <g id="text_18">
     <!-- total -->
     <g transform="translate(535.762812 171.97725) scale(0.1 -0.1)">
      <defs>
       <path id="DejaVuSans-61" d="M 2194 1759 
Q 1497 1759 1228 1600 
Q 959 1441 959 1056 
Q 959 750 1161 570 
Q 1363 391 1709 391 
Q 2188 391 2477 730 
Q 2766 1069 2766 1631 
L 2766 1759 
L 2194 1759 
z
M 3341 1997 
L 3341 0 
L 2766 0 
L 2766 531 
Q 2569 213 2275 61 
Q 1981 -91 1556 -91 
Q 1019 -91 701 211 
Q 384 513 384 1019 
Q 384 1609 779 1909 
Q 1175 2209 1959 2209 
L 2766 2209 
L 2766 2266 
Q 2766 2663 2505 2880 
Q 2244 3097 1772 3097 
Q 1472 3097 1187 3025 
Q 903 2953 641 2809 
L 641 3341 
Q 956 3463 1253 3523 
Q 1550 3584 1831 3584 
Q 2591 3584 2966 3190 
Q 3341 2797 3341 1997 
z
" transform="scale(0.015625)"/>
      </defs>
      <use xlink:href="#DejaVuSans-74"/>
      <use xlink:href="#DejaVuSans-6f" x="39.208984"/>
      <use xlink:href="#DejaVuSans-74" x="100.390625"/>
      <use xlink:href="#DejaVuSans-61" x="139.599609"/>
      <use xlink:href="#DejaVuSans-6c" x="200.878906"/>
     </g>
    </g>
    <g id="line2d_23">
     <path d="M 507.762812 183.155375 
L 517.762812 183.155375 
L 527.762812 183.155375 
" style="fill: none; stroke-dasharray: 3,1.5; stroke-dashoffset: 0; stroke: #808080; stroke-width: 1.5"/>
    </g>
    <g id="text_19">
     <!-- fail -->
     <g transform="translate(535.762812 186.655375) scale(0.1 -0.1)">
      <defs>
       <path id="DejaVuSans-66" d="M 2375 4863 
L 2375 4384 
L 1825 4384 
Q 1516 4384 1395 4259 
Q 1275 4134 1275 3809 
L 1275 3500 
L 2222 3500 
L 2222 3053 
L 1275 3053 
L 1275 0 
L 697 0 
L 697 3053 
L 147 3053 
L 147 3500 
L 697 3500 
L 697 3744 
Q 697 4328 969 4595 
Q 1241 4863 1831 4863 
L 2375 4863 
z
" transform="scale(0.015625)"/>
      </defs>
      <use xlink:href="#DejaVuSans-66"/>
      <use xlink:href="#DejaVuSans-61" x="35.205078"/>
      <use xlink:href="#DejaVuSans-69" x="96.484375"/>
      <use xlink:href="#DejaVuSans-6c" x="124.267578"/>
     </g>
    </g>
    <g id="line2d_24">
     <path d="M 507.762812 197.8335 
L 517.762812 197.8335 
L 527.762812 197.8335 
" style="fill: none; stroke-dasharray: 6,1.5; stroke-dashoffset: 0; stroke: #008000; stroke-width: 1.5"/>
    </g>
    <g id="text_20">
     <!-- pass -->
     <g transform="translate(535.762812 201.3335) scale(0.1 -0.1)">
      <defs>
       <path id="DejaVuSans-70" d="M 1159 525 
L 1159 -1331 
L 581 -1331 
L 581 3500 
L 1159 3500 
L 1159 2969 
Q 1341 3281 1617 3432 
Q 1894 3584 2278 3584 
Q 2916 3584 3314 3078 
Q 3713 2572 3713 1747 
Q 3713 922 3314 415 
Q 2916 -91 2278 -91 
Q 1894 -91 1617 61 
Q 1341 213 1159 525 
z
M 3116 1747 
Q 3116 2381 2855 2742 
Q 2594 3103 2138 3103 
Q 1681 3103 1420 2742 
Q 1159 2381 1159 1747 
Q 1159 1113 1420 752 
Q 1681 391 2138 391 
Q 2594 391 2855 752 
Q 3116 1113 3116 1747 
z
" transform="scale(0.015625)"/>
      </defs>
      <use xlink:href="#DejaVuSans-70"/>
      <use xlink:href="#DejaVuSans-61" x="63.476562"/>
      <use xlink:href="#DejaVuSans-73" x="124.755859"/>
      <use xlink:href="#DejaVuSans-73" x="176.855469"/>
     </g>
    </g>
    <g id="line2d_25">
     <path d="M 507.762812 212.511625 
L 517.762812 212.511625 
L 527.762812 212.511625 
" style="fill: none; stroke-dasharray: 9,3; stroke-dashoffset: 0; stroke: #ffa500; stroke-width: 1.5"/>
    </g>
    <g id="text_21">
     <!-- error -->
     <g transform="translate(535.762812 216.011625) scale(0.1 -0.1)">
      <use xlink:href="#DejaVuSans-65"/>
      <use xlink:href="#DejaVuSans-72" x="61.523438"/>
      <use xlink:href="#DejaVuSans-72" x="100.886719"/>
      <use xlink:href="#DejaVuSans-6f" x="139.75"/>
      <use xlink:href="#DejaVuSans-72" x="200.931641"/>
     </g>
    </g>
    <g id="line2d_26">
     <path d="M 507.762812 227.18975 
L 517.762812 227.18975 
L 527.762812 227.18975 
" style="fill: none; stroke-dasharray: 12,4.5; stroke-dashoffset: 0; stroke: #ee82ee; stroke-width: 1.5"/>
    </g>
    <g id="text_22">
     <!-- skip -->
     <g transform="translate(535.762812 230.68975) scale(0.1 -0.1)">
      <defs>
       <path id="DejaVuSans-6b" d="M 581 4863 
L 1159 4863 
L 1159 1991 
L 2875 3500 
L 3609 3500 
L 1753 1863 
L 3688 0 
L 2938 0 
L 1159 1709 
L 1159 0 
L 581 0 
L 581 4863 
z
" transform="scale(0.015625)"/>
      </defs>
      <use xlink:href="#DejaVuSans-73"/>
      <use xlink:href="#DejaVuSans-6b" x="52.099609"/>
      <use xlink:href="#DejaVuSans-69" x="110.009766"/>
      <use xlink:href="#DejaVuSans-70" x="137.792969"/>
     </g>
    </g>
   </g>
  </g>
 </g>
 <defs>
  <clipPath id="pdabe383858">
   <rect x="33.2875" y="22.318125" width="535.68" height="352.512"/>
  </clipPath>
 </defs>
</svg>
