<?xml version="1.0" encoding="utf-8" standalone="no"?>
<!DOCTYPE svg PUBLIC "-//W3C//DTD SVG 1.1//EN"
  "http://www.w3.org/Graphics/SVG/1.1/DTD/svg11.dtd">
<svg xmlns:xlink="http://www.w3.org/1999/xlink" width="576.1675pt" height="418.303033pt" viewBox="0 0 576.1675 418.303033" xmlns="http://www.w3.org/2000/svg" version="1.1">
 <metadata>
  <rdf:RDF xmlns:dc="http://purl.org/dc/elements/1.1/" xmlns:cc="http://creativecommons.org/ns#" xmlns:rdf="http://www.w3.org/1999/02/22-rdf-syntax-ns#">
   <cc:Work>
    <dc:type rdf:resource="http://purl.org/dc/dcmitype/StillImage"/>
    <dc:date>2025-09-26T14:04:32.686690</dc:date>
    <dc:format>image/svg+xml</dc:format>
    <dc:creator>
     <cc:Agent>
      <dc:title>Matplotlib v3.6.3, https://matplotlib.org/</dc:title>
     </cc:Agent>
    </dc:creator>
   </cc:Work>
  </rdf:RDF>
 </metadata>
 <defs>
  <style type="text/css">*{stroke-linejoin: round; stroke-linecap: butt}</style>
 </defs>
 <g id="figure_1">
  <g id="patch_1">
   <path d="M -0 418.303033 
L 576.1675 418.303033 
L 576.1675 0 
L -0 0 
z
" style="fill: #ffffff"/>
  </g>
  <g id="axes_1">
   <g id="patch_2">
    <path d="M 33.2875 374.830125 
L 568.9675 374.830125 
L 568.9675 22.318125 
L 33.2875 22.318125 
z
" style="fill: #ffffff"/>
   </g>
   <g id="matplotlib.axis_1">
    <g id="xtick_1">
     <g id="line2d_1">
      <defs>
       <path id="mec8bbc5ab0" d="M 0 0 
L 0 3.5 
" style="stroke: #000000; stroke-width: 0.8"/>
      </defs>
      <g>
       <use xlink:href="#mec8bbc5ab0" x="61.694106" y="374.830125" style="stroke: #000000; stroke-width: 0.8"/>
      </g>
     </g>
     <g id="text_1">
      <!-- 2021-07 -->
      <g transform="translate(24.469285 409.301971) rotate(-30) scale(0.1 -0.1)">
       <defs>
        <path id="DejaVuSans-32" d="M 1228 531 
L 3431 531 
L 3431 0 
L 469 0 
L 469 531 
Q 828 903 1448 1529 
Q 2069 2156 2228 2338 
Q 2531 2678 2651 2914 
Q 2772 3150 2772 3378 
Q 2772 3750 2511 3984 
Q 2250 4219 1831 4219 
Q 1534 4219 1204 4116 
Q 875 4013 500 3803 
L 500 4441 
Q 881 4594 1212 4672 
Q 1544 4750 1819 4750 
Q 2544 4750 2975 4387 
Q 3406 4025 3406 3419 
Q 3406 3131 3298 2873 
Q 3191 2616 2906 2266 
Q 2828 2175 2409 1742 
Q 1991 1309 1228 531 
z
" transform="scale(0.015625)"/>
        <path id="DejaVuSans-30" d="M 2034 4250 
Q 1547 4250 1301 3770 
Q 1056 3291 1056 2328 
Q 1056 1369 1301 889 
Q 1547 409 2034 409 
Q 2525 409 2770 889 
Q 3016 1369 3016 2328 
Q 3016 3291 2770 3770 
Q 2525 4250 2034 4250 
z
M 2034 4750 
Q 2819 4750 3233 4129 
Q 3647 3509 3647 2328 
Q 3647 1150 3233 529 
Q 2819 -91 2034 -91 
Q 1250 -91 836 529 
Q 422 1150 422 2328 
Q 422 3509 836 4129 
Q 1250 4750 2034 4750 
z
" transform="scale(0.015625)"/>
        <path id="DejaVuSans-31" d="M 794 531 
L 1825 531 
L 1825 4091 
L 703 3866 
L 703 4441 
L 1819 4666 
L 2450 4666 
L 2450 531 
L 3481 531 
L 3481 0 
L 794 0 
L 794 531 
z
" transform="scale(0.015625)"/>
        <path id="DejaVuSans-2d" d="M 313 2009 
L 1997 2009 
L 1997 1497 
L 313 1497 
L 313 2009 
z
" transform="scale(0.015625)"/>
        <path id="DejaVuSans-37" d="M 525 4666 
L 3525 4666 
L 3525 4397 
L 1831 0 
L 1172 0 
L 2766 4134 
L 525 4134 
L 525 4666 
z
" transform="scale(0.015625)"/>
       </defs>
       <use xlink:href="#DejaVuSans-32"/>
       <use xlink:href="#DejaVuSans-30" x="63.623047"/>
       <use xlink:href="#DejaVuSans-32" x="127.246094"/>
       <use xlink:href="#DejaVuSans-31" x="190.869141"/>
       <use xlink:href="#DejaVuSans-2d" x="254.492188"/>
       <use xlink:href="#DejaVuSans-30" x="290.576172"/>
       <use xlink:href="#DejaVuSans-37" x="354.199219"/>
      </g>
     </g>
    </g>
    <g id="xtick_2">
     <g id="line2d_2">
      <g>
       <use xlink:href="#mec8bbc5ab0" x="121.354527" y="374.830125" style="stroke: #000000; stroke-width: 0.8"/>
      </g>
     </g>
     <g id="text_2">
      <!-- 2022-01 -->
      <g transform="translate(84.129706 409.301971) rotate(-30) scale(0.1 -0.1)">
       <use xlink:href="#DejaVuSans-32"/>
       <use xlink:href="#DejaVuSans-30" x="63.623047"/>
       <use xlink:href="#DejaVuSans-32" x="127.246094"/>
       <use xlink:href="#DejaVuSans-32" x="190.869141"/>
       <use xlink:href="#DejaVuSans-2d" x="254.492188"/>
       <use xlink:href="#DejaVuSans-30" x="290.576172"/>
       <use xlink:href="#DejaVuSans-31" x="354.199219"/>
      </g>
     </g>
    </g>
    <g id="xtick_3">
     <g id="line2d_3">
      <g>
       <use xlink:href="#mec8bbc5ab0" x="180.042223" y="374.830125" style="stroke: #000000; stroke-width: 0.8"/>
      </g>
     </g>
     <g id="text_3">
      <!-- 2022-07 -->
      <g transform="translate(142.817402 409.301971) rotate(-30) scale(0.1 -0.1)">
       <use xlink:href="#DejaVuSans-32"/>
       <use xlink:href="#DejaVuSans-30" x="63.623047"/>
       <use xlink:href="#DejaVuSans-32" x="127.246094"/>
       <use xlink:href="#DejaVuSans-32" x="190.869141"/>
       <use xlink:href="#DejaVuSans-2d" x="254.492188"/>
       <use xlink:href="#DejaVuSans-30" x="290.576172"/>
       <use xlink:href="#DejaVuSans-37" x="354.199219"/>
      </g>
     </g>
    </g>
    <g id="xtick_4">
     <g id="line2d_4">
      <g>
       <use xlink:href="#mec8bbc5ab0" x="239.702643" y="374.830125" style="stroke: #000000; stroke-width: 0.8"/>
      </g>
     </g>
     <g id="text_4">
      <!-- 2023-01 -->
      <g transform="translate(202.477822 409.301971) rotate(-30) scale(0.1 -0.1)">
       <defs>
        <path id="DejaVuSans-33" d="M 2597 2516 
Q 3050 2419 3304 2112 
Q 3559 1806 3559 1356 
Q 3559 666 3084 287 
Q 2609 -91 1734 -91 
Q 1441 -91 1130 -33 
Q 819 25 488 141 
L 488 750 
Q 750 597 1062 519 
Q 1375 441 1716 441 
Q 2309 441 2620 675 
Q 2931 909 2931 1356 
Q 2931 1769 2642 2001 
Q 2353 2234 1838 2234 
L 1294 2234 
L 1294 2753 
L 1863 2753 
Q 2328 2753 2575 2939 
Q 2822 3125 2822 3475 
Q 2822 3834 2567 4026 
Q 2313 4219 1838 4219 
Q 1578 4219 1281 4162 
Q 984 4106 628 3988 
L 628 4550 
Q 988 4650 1302 4700 
Q 1616 4750 1894 4750 
Q 2613 4750 3031 4423 
Q 3450 4097 3450 3541 
Q 3450 3153 3228 2886 
Q 3006 2619 2597 2516 
z
" transform="scale(0.015625)"/>
       </defs>
       <use xlink:href="#DejaVuSans-32"/>
       <use xlink:href="#DejaVuSans-30" x="63.623047"/>
       <use xlink:href="#DejaVuSans-32" x="127.246094"/>
       <use xlink:href="#DejaVuSans-33" x="190.869141"/>
       <use xlink:href="#DejaVuSans-2d" x="254.492188"/>
       <use xlink:href="#DejaVuSans-30" x="290.576172"/>
       <use xlink:href="#DejaVuSans-31" x="354.199219"/>
      </g>
     </g>
    </g>
    <g id="xtick_5">
     <g id="line2d_5">
      <g>
       <use xlink:href="#mec8bbc5ab0" x="298.39034" y="374.830125" style="stroke: #000000; stroke-width: 0.8"/>
      </g>
     </g>
     <g id="text_5">
      <!-- 2023-07 -->
      <g transform="translate(261.165519 409.301971) rotate(-30) scale(0.1 -0.1)">
       <use xlink:href="#DejaVuSans-32"/>
       <use xlink:href="#DejaVuSans-30" x="63.623047"/>
       <use xlink:href="#DejaVuSans-32" x="127.246094"/>
       <use xlink:href="#DejaVuSans-33" x="190.869141"/>
       <use xlink:href="#DejaVuSans-2d" x="254.492188"/>
       <use xlink:href="#DejaVuSans-30" x="290.576172"/>
       <use xlink:href="#DejaVuSans-37" x="354.199219"/>
      </g>
     </g>
    </g>
    <g id="xtick_6">
     <g id="line2d_6">
      <g>
       <use xlink:href="#mec8bbc5ab0" x="358.05076" y="374.830125" style="stroke: #000000; stroke-width: 0.8"/>
      </g>
     </g>
     <g id="text_6">
      <!-- 2024-01 -->
      <g transform="translate(320.825939 409.301971) rotate(-30) scale(0.1 -0.1)">
       <defs>
        <path id="DejaVuSans-34" d="M 2419 4116 
L 825 1625 
L 2419 1625 
L 2419 4116 
z
M 2253 4666 
L 3047 4666 
L 3047 1625 
L 3713 1625 
L 3713 1100 
L 3047 1100 
L 3047 0 
L 2419 0 
L 2419 1100 
L 313 1100 
L 313 1709 
L 2253 4666 
z
" transform="scale(0.015625)"/>
       </defs>
       <use xlink:href="#DejaVuSans-32"/>
       <use xlink:href="#DejaVuSans-30" x="63.623047"/>
       <use xlink:href="#DejaVuSans-32" x="127.246094"/>
       <use xlink:href="#DejaVuSans-34" x="190.869141"/>
       <use xlink:href="#DejaVuSans-2d" x="254.492188"/>
       <use xlink:href="#DejaVuSans-30" x="290.576172"/>
       <use xlink:href="#DejaVuSans-31" x="354.199219"/>
      </g>
     </g>
    </g>
    <g id="xtick_7">
     <g id="line2d_7">
      <g>
       <use xlink:href="#mec8bbc5ab0" x="417.062698" y="374.830125" style="stroke: #000000; stroke-width: 0.8"/>
      </g>
     </g>
     <g id="text_7">
      <!-- 2024-07 -->
      <g transform="translate(379.837877 409.301971) rotate(-30) scale(0.1 -0.1)">
       <use xlink:href="#DejaVuSans-32"/>
       <use xlink:href="#DejaVuSans-30" x="63.623047"/>
       <use xlink:href="#DejaVuSans-32" x="127.246094"/>
       <use xlink:href="#DejaVuSans-34" x="190.869141"/>
       <use xlink:href="#DejaVuSans-2d" x="254.492188"/>
       <use xlink:href="#DejaVuSans-30" x="290.576172"/>
       <use xlink:href="#DejaVuSans-37" x="354.199219"/>
      </g>
     </g>
    </g>
    <g id="xtick_8">
     <g id="line2d_8">
      <g>
       <use xlink:href="#mec8bbc5ab0" x="476.723118" y="374.830125" style="stroke: #000000; stroke-width: 0.8"/>
      </g>
     </g>
     <g id="text_8">
      <!-- 2025-01 -->
      <g transform="translate(439.498297 409.301971) rotate(-30) scale(0.1 -0.1)">
       <defs>
        <path id="DejaVuSans-35" d="M 691 4666 
L 3169 4666 
L 3169 4134 
L 1269 4134 
L 1269 2991 
Q 1406 3038 1543 3061 
Q 1681 3084 1819 3084 
Q 2600 3084 3056 2656 
Q 3513 2228 3513 1497 
Q 3513 744 3044 326 
Q 2575 -91 1722 -91 
Q 1428 -91 1123 -41 
Q 819 9 494 109 
L 494 744 
Q 775 591 1075 516 
Q 1375 441 1709 441 
Q 2250 441 2565 725 
Q 2881 1009 2881 1497 
Q 2881 1984 2565 2268 
Q 2250 2553 1709 2553 
Q 1456 2553 1204 2497 
Q 953 2441 691 2322 
L 691 4666 
z
" transform="scale(0.015625)"/>
       </defs>
       <use xlink:href="#DejaVuSans-32"/>
       <use xlink:href="#DejaVuSans-30" x="63.623047"/>
       <use xlink:href="#DejaVuSans-32" x="127.246094"/>
       <use xlink:href="#DejaVuSans-35" x="190.869141"/>
       <use xlink:href="#DejaVuSans-2d" x="254.492188"/>
       <use xlink:href="#DejaVuSans-30" x="290.576172"/>
       <use xlink:href="#DejaVuSans-31" x="354.199219"/>
      </g>
     </g>
    </g>
    <g id="xtick_9">
     <g id="line2d_9">
      <g>
       <use xlink:href="#mec8bbc5ab0" x="535.410814" y="374.830125" style="stroke: #000000; stroke-width: 0.8"/>
      </g>
     </g>
     <g id="text_9">
      <!-- 2025-07 -->
      <g transform="translate(498.185994 409.301971) rotate(-30) scale(0.1 -0.1)">
       <use xlink:href="#DejaVuSans-32"/>
       <use xlink:href="#DejaVuSans-30" x="63.623047"/>
       <use xlink:href="#DejaVuSans-32" x="127.246094"/>
       <use xlink:href="#DejaVuSans-35" x="190.869141"/>
       <use xlink:href="#DejaVuSans-2d" x="254.492188"/>
       <use xlink:href="#DejaVuSans-30" x="290.576172"/>
       <use xlink:href="#DejaVuSans-37" x="354.199219"/>
      </g>
     </g>
    </g>
   </g>
   <g id="matplotlib.axis_2">
    <g id="ytick_1">
     <g id="line2d_10">
      <defs>
       <path id="ma1df912cd1" d="M 0 0 
L -3.5 0 
" style="stroke: #000000; stroke-width: 0.8"/>
      </defs>
      <g>
       <use xlink:href="#ma1df912cd1" x="33.2875" y="374.830125" style="stroke: #000000; stroke-width: 0.8"/>
      </g>
     </g>
     <g id="text_10">
      <!-- 0 -->
      <g transform="translate(19.925 378.629344) scale(0.1 -0.1)">
       <use xlink:href="#DejaVuSans-30"/>
      </g>
     </g>
    </g>
    <g id="ytick_2">
     <g id="line2d_11">
      <g>
       <use xlink:href="#ma1df912cd1" x="33.2875" y="319.779371" style="stroke: #000000; stroke-width: 0.8"/>
      </g>
     </g>
     <g id="text_11">
      <!-- 100 -->
      <g transform="translate(7.2 323.578589) scale(0.1 -0.1)">
       <use xlink:href="#DejaVuSans-31"/>
       <use xlink:href="#DejaVuSans-30" x="63.623047"/>
       <use xlink:href="#DejaVuSans-30" x="127.246094"/>
      </g>
     </g>
    </g>
    <g id="ytick_3">
     <g id="line2d_12">
      <g>
       <use xlink:href="#ma1df912cd1" x="33.2875" y="264.728616" style="stroke: #000000; stroke-width: 0.8"/>
      </g>
     </g>
     <g id="text_12">
      <!-- 200 -->
      <g transform="translate(7.2 268.527835) scale(0.1 -0.1)">
       <use xlink:href="#DejaVuSans-32"/>
       <use xlink:href="#DejaVuSans-30" x="63.623047"/>
       <use xlink:href="#DejaVuSans-30" x="127.246094"/>
      </g>
     </g>
    </g>
    <g id="ytick_4">
     <g id="line2d_13">
      <g>
       <use xlink:href="#ma1df912cd1" x="33.2875" y="209.677862" style="stroke: #000000; stroke-width: 0.8"/>
      </g>
     </g>
     <g id="text_13">
      <!-- 300 -->
      <g transform="translate(7.2 213.477081) scale(0.1 -0.1)">
       <use xlink:href="#DejaVuSans-33"/>
       <use xlink:href="#DejaVuSans-30" x="63.623047"/>
       <use xlink:href="#DejaVuSans-30" x="127.246094"/>
      </g>
     </g>
    </g>
    <g id="ytick_5">
     <g id="line2d_14">
      <g>
       <use xlink:href="#ma1df912cd1" x="33.2875" y="154.627108" style="stroke: #000000; stroke-width: 0.8"/>
      </g>
     </g>
     <g id="text_14">
      <!-- 400 -->
      <g transform="translate(7.2 158.426327) scale(0.1 -0.1)">
       <use xlink:href="#DejaVuSans-34"/>
       <use xlink:href="#DejaVuSans-30" x="63.623047"/>
       <use xlink:href="#DejaVuSans-30" x="127.246094"/>
      </g>
     </g>
    </g>
    <g id="ytick_6">
     <g id="line2d_15">
      <g>
       <use xlink:href="#ma1df912cd1" x="33.2875" y="99.576354" style="stroke: #000000; stroke-width: 0.8"/>
      </g>
     </g>
     <g id="text_15">
      <!-- 500 -->
      <g transform="translate(7.2 103.375572) scale(0.1 -0.1)">
       <use xlink:href="#DejaVuSans-35"/>
       <use xlink:href="#DejaVuSans-30" x="63.623047"/>
       <use xlink:href="#DejaVuSans-30" x="127.246094"/>
      </g>
     </g>
    </g>
    <g id="ytick_7">
     <g id="line2d_16">
      <g>
       <use xlink:href="#ma1df912cd1" x="33.2875" y="44.525599" style="stroke: #000000; stroke-width: 0.8"/>
      </g>
     </g>
     <g id="text_16">
      <!-- 600 -->
      <g transform="translate(7.2 48.324818) scale(0.1 -0.1)">
       <defs>
        <path id="DejaVuSans-36" d="M 2113 2584 
Q 1688 2584 1439 2293 
Q 1191 2003 1191 1497 
Q 1191 994 1439 701 
Q 1688 409 2113 409 
Q 2538 409 2786 701 
Q 3034 994 3034 1497 
Q 3034 2003 2786 2293 
Q 2538 2584 2113 2584 
z
M 3366 4563 
L 3366 3988 
Q 3128 4100 2886 4159 
Q 2644 4219 2406 4219 
Q 1781 4219 1451 3797 
Q 1122 3375 1075 2522 
Q 1259 2794 1537 2939 
Q 1816 3084 2150 3084 
Q 2853 3084 3261 2657 
Q 3669 2231 3669 1497 
Q 3669 778 3244 343 
Q 2819 -91 2113 -91 
Q 1303 -91 875 529 
Q 447 1150 447 2328 
Q 447 3434 972 4092 
Q 1497 4750 2381 4750 
Q 2619 4750 2861 4703 
Q 3103 4656 3366 4563 
z
" transform="scale(0.015625)"/>
       </defs>
       <use xlink:href="#DejaVuSans-36"/>
       <use xlink:href="#DejaVuSans-30" x="63.623047"/>
       <use xlink:href="#DejaVuSans-30" x="127.246094"/>
      </g>
     </g>
    </g>
   </g>
   <g id="line2d_17">
    <path d="M 38.539265 31.313418 
L 48.180621 31.313418 
L 48.289763 34.616464 
L 49.639613 34.616464 
L 50.133736 43.975092 
L 129.785332 43.975092 
L 130.181901 38.470016 
L 143.436414 38.470016 
L 144.215021 39.020524 
L 150.431048 39.020524 
L 150.648429 50.030675 
L 156.952188 50.030675 
L 158.258577 48.379152 
L 266.254045 48.379152 
L 266.561628 44.525599 
L 275.025833 44.525599 
L 275.327933 43.424584 
L 317.81165 43.424584 
L 318.023217 42.323569 
L 386.675363 42.323569 
L 386.872035 37.919509 
L 438.918963 37.919509 
L 439.008479 37.369001 
L 478.763103 37.369001 
L 479.128445 36.818494 
L 482.744653 36.818494 
L 482.864641 34.616464 
L 484.315876 34.616464 
L 484.69295 35.166971 
L 509.778529 35.166971 
L 510.08822 34.616464 
L 562.907421 34.616464 
L 563.087731 25.808343 
L 563.715735 25.808343 
L 563.715735 25.808343 
" clip-path="url(#pc7f6d8a547)" style="fill: none; stroke: #0000ff; stroke-width: 1.5; stroke-linecap: square"/>
   </g>
   <g id="line2d_18">
    <path d="M 38.539265 172.243349 
L 39.864827 171.142334 
L 41.18611 172.243349 
L 44.31504 172.243349 
L 47.765059 173.344364 
L 48.020999 172.793857 
L 48.180621 172.793857 
L 48.289763 176.096902 
L 48.541662 175.546394 
L 48.914228 176.096902 
L 49.639613 176.096902 
L 50.043617 188.208068 
L 50.133736 185.45553 
L 50.343435 188.758576 
L 50.410122 188.208068 
L 50.645107 188.208068 
L 51.020994 188.758576 
L 51.925665 188.758576 
L 51.95267 189.309083 
L 52.443059 189.309083 
L 52.650634 188.758576 
L 53.257513 192.612128 
L 53.327612 192.061621 
L 53.62561 192.612128 
L 54.202054 194.263651 
L 54.593043 193.162636 
L 55.211049 193.162636 
L 55.556422 194.263651 
L 55.789899 194.263651 
L 56.493292 194.814158 
L 56.808925 194.814158 
L 57.152144 195.915174 
L 57.459052 195.364666 
L 57.799858 196.465681 
L 58.153971 198.667711 
L 59.523208 199.768726 
L 60.104636 199.768726 
L 60.353694 200.319234 
L 60.750518 200.319234 
L 61.042662 200.869741 
L 61.340251 200.319234 
L 61.672047 200.319234 
L 61.866348 200.869741 
L 65.227726 200.869741 
L 65.566978 201.420249 
L 65.892072 201.420249 
L 66.018301 200.869741 
L 66.8212 201.420249 
L 67.157709 200.869741 
L 68.085497 200.869741 
L 68.383372 201.420249 
L 68.749592 200.869741 
L 70.438263 200.869741 
L 70.784248 201.420249 
L 70.974158 203.071772 
L 71.436378 201.970757 
L 72.511167 201.970757 
L 73.044417 202.521264 
L 73.366846 202.521264 
L 73.679994 203.071772 
L 74.029518 203.071772 
L 74.350438 202.521264 
L 74.657094 204.172787 
L 74.929344 204.172787 
L 75.66953 205.273802 
L 79.555729 205.273802 
L 79.864655 206.374817 
L 80.523056 206.374817 
L 80.815287 206.925324 
L 81.795419 206.925324 
L 82.733625 209.127355 
L 83.730844 209.127355 
L 84.088016 209.677862 
L 90.112902 209.677862 
L 90.836219 210.778877 
L 91.000073 209.677862 
L 92.160295 209.677862 
L 92.475357 210.22837 
L 92.822963 209.677862 
L 93.650008 209.677862 
L 94.106828 210.22837 
L 94.445957 209.677862 
L 99.567635 209.677862 
L 99.847522 214.63243 
L 100.041572 209.677862 
L 101.897674 209.677862 
L 102.234618 210.22837 
L 102.426941 215.182938 
L 102.881251 210.22837 
L 103.202119 210.22837 
L 103.415116 209.677862 
L 106.775743 209.677862 
L 106.945929 210.22837 
L 107.251338 210.22837 
L 107.754314 211.879892 
L 112.823791 211.879892 
L 113.930186 212.4304 
L 120.739057 212.4304 
L 121.022584 214.63243 
L 121.384879 214.63243 
L 121.706145 212.4304 
L 122.036676 212.4304 
L 122.264429 214.63243 
L 122.511269 212.4304 
L 122.921479 214.63243 
L 123.284844 215.733445 
L 127.498196 215.733445 
L 127.86186 216.283953 
L 129.785332 216.283953 
L 130.181901 210.22837 
L 130.465185 210.778877 
L 130.785385 212.4304 
L 131.180693 212.4304 
L 131.710734 213.531415 
L 132.076533 213.531415 
L 132.346168 214.081922 
L 132.70835 211.879892 
L 135.360187 217.384968 
L 135.630959 215.733445 
L 136.084972 215.182938 
L 137.526964 215.182938 
L 137.896862 214.63243 
L 138.223047 213.531415 
L 139.528877 213.531415 
L 139.76763 212.4304 
L 140.187575 213.531415 
L 141.135951 213.531415 
L 141.45871 214.63243 
L 141.770038 214.63243 
L 142.138754 215.182938 
L 142.287541 215.182938 
L 142.453827 216.83446 
L 142.679243 216.83446 
L 143.436414 217.384968 
L 144.062039 216.283953 
L 144.215021 216.283953 
L 144.705459 216.83446 
L 145.020127 217.935475 
L 146.646276 217.935475 
L 146.960246 218.485983 
L 147.297405 218.485983 
L 147.609555 219.03649 
L 147.901969 219.03649 
L 148.581438 219.586998 
L 148.932355 219.586998 
L 149.282288 221.238521 
L 149.489187 221.238521 
L 149.852881 220.688013 
L 150.431048 220.688013 
L 150.648429 222.339536 
L 151.184665 222.339536 
L 151.50237 223.440551 
L 151.926668 223.440551 
L 152.145223 223.991058 
L 152.62584 223.991058 
L 152.673665 224.541566 
L 152.917102 224.541566 
L 153.430788 225.092073 
L 154.598999 228.395119 
L 156.055132 228.395119 
L 156.351993 229.496134 
L 156.463774 228.945626 
L 156.593219 228.945626 
L 156.952188 228.395119 
L 158.258577 226.743596 
L 161.527002 226.743596 
L 161.90573 226.193088 
L 163.487634 226.193088 
L 163.712776 225.642581 
L 166.675179 225.642581 
L 167.056591 226.193088 
L 167.589769 226.193088 
L 168.021768 226.743596 
L 168.239137 226.193088 
L 170.3216 226.193088 
L 170.978812 227.294104 
L 172.377505 227.294104 
L 172.612993 235.001209 
L 172.878461 235.001209 
L 175.140815 236.652732 
L 175.279837 236.102224 
L 175.424871 236.652732 
L 175.801329 236.102224 
L 176.117108 236.102224 
L 176.449467 236.652732 
L 176.69905 236.652732 
L 177.099747 237.753747 
L 177.26454 237.753747 
L 177.417049 237.203239 
L 177.75888 238.304254 
L 180.031516 238.304254 
L 180.252608 238.854762 
L 181.475163 238.854762 
L 181.961927 238.304254 
L 182.32662 241.056792 
L 182.586249 239.405269 
L 182.924864 239.405269 
L 183.196277 242.708315 
L 183.38618 242.157807 
L 183.588339 242.708315 
L 183.69016 242.157807 
L 183.814783 243.80933 
L 184.137872 243.80933 
L 184.547235 244.359837 
L 185.348996 243.80933 
L 185.531559 244.910345 
L 185.829917 244.910345 
L 186.041203 243.258822 
L 186.758411 244.910345 
L 187.471562 245.460852 
L 188.097873 245.460852 
L 188.42643 247.112375 
L 188.728433 247.112375 
L 188.907321 246.561868 
L 189.221295 246.561868 
L 190.435639 248.763898 
L 190.638162 247.662883 
L 191.027999 247.112375 
L 191.485231 248.763898 
L 192.714249 248.763898 
L 192.819462 249.314405 
L 193.309176 249.864913 
L 194.614634 249.864913 
L 195.212184 252.61745 
L 198.57012 252.61745 
L 198.835278 253.167958 
L 199.184017 252.066943 
L 199.387047 253.167958 
L 203.047876 253.167958 
L 203.353743 253.718466 
L 204.091351 257.021511 
L 204.368078 255.369988 
L 204.697863 255.920496 
L 205.063028 255.369988 
L 205.319997 255.369988 
L 205.709365 253.718466 
L 205.918148 253.718466 
L 205.95867 254.268973 
L 206.615668 254.268973 
L 206.985461 250.965928 
L 207.311485 250.965928 
L 208.292229 251.516435 
L 208.354285 250.965928 
L 208.886784 250.41542 
L 208.965874 250.965928 
L 211.531701 250.965928 
L 211.710236 251.516435 
L 212.189074 252.066943 
L 212.828486 253.167958 
L 212.994795 254.268973 
L 213.219531 254.268973 
L 213.471291 255.369988 
L 213.774412 254.819481 
L 214.113822 254.819481 
L 214.369568 254.268973 
L 214.730106 254.819481 
L 215.051826 254.819481 
L 215.360174 255.369988 
L 215.609784 255.369988 
L 216.079641 254.819481 
L 216.323907 255.369988 
L 216.576721 254.819481 
L 217.31088 250.41542 
L 218.017088 251.516435 
L 218.120339 255.369988 
L 218.277758 255.369988 
L 218.565796 255.920496 
L 218.900429 255.369988 
L 219.205947 255.369988 
L 219.582304 254.819481 
L 219.908287 255.920496 
L 221.084795 255.920496 
L 221.552359 256.471003 
L 221.819566 256.471003 
L 221.8403 257.021511 
L 223.173439 257.021511 
L 223.552978 258.122526 
L 225.418285 258.122526 
L 225.790127 259.223541 
L 227.05635 259.223541 
L 229.363061 258.673033 
L 229.577049 259.223541 
L 230.15418 259.223541 
L 230.639803 259.774049 
L 230.965106 260.875064 
L 231.062379 260.324556 
L 231.41596 261.425571 
L 232.20253 261.425571 
L 235.388273 262.526586 
L 243.262889 262.526586 
L 243.583648 261.976079 
L 245.123217 261.976079 
L 245.442339 262.526586 
L 246.499862 262.526586 
L 246.864855 263.077094 
L 247.127306 262.526586 
L 247.431898 263.077094 
L 247.768922 262.526586 
L 248.045533 263.627601 
L 248.469182 263.077094 
L 248.778299 263.627601 
L 255.497602 263.627601 
L 255.844694 262.526586 
L 256.212401 263.077094 
L 256.544955 262.526586 
L 256.917449 262.526586 
L 257.216179 261.976079 
L 258.462921 261.976079 
L 258.779492 262.526586 
L 259.137073 261.976079 
L 259.46285 260.875064 
L 260.108822 260.875064 
L 260.473278 260.324556 
L 260.746005 261.425571 
L 261.096839 261.425571 
L 261.367888 260.875064 
L 262.223375 261.976079 
L 262.72384 261.425571 
L 263.021178 261.976079 
L 263.653764 261.976079 
L 264.010793 261.425571 
L 264.361376 263.077094 
L 264.698808 262.526586 
L 265.346623 262.526586 
L 265.593564 261.976079 
L 265.909384 262.526586 
L 266.254045 262.526586 
L 266.561628 257.572018 
L 266.683826 258.122526 
L 266.925536 258.122526 
L 267.093916 258.673033 
L 267.240666 258.673033 
L 267.433874 259.223541 
L 267.564809 258.122526 
L 268.211225 259.223541 
L 268.766608 259.223541 
L 269.036697 260.324556 
L 269.304372 259.223541 
L 269.478644 259.774049 
L 270.461201 259.774049 
L 270.753705 259.223541 
L 271.031108 259.223541 
L 271.379694 259.774049 
L 271.702029 259.774049 
L 272.084131 259.223541 
L 272.452865 259.774049 
L 272.738967 259.774049 
L 273.189201 260.875064 
L 275.025833 260.875064 
L 275.327933 259.223541 
L 276.751376 259.223541 
L 277.078289 259.774049 
L 277.335445 260.324556 
L 277.838935 260.324556 
L 277.996016 261.425571 
L 278.068073 260.875064 
L 278.238439 261.425571 
L 278.717641 261.425571 
L 278.952555 262.526586 
L 279.592173 262.526586 
L 279.890738 263.627601 
L 280.878132 263.627601 
L 281.114926 265.279124 
L 281.333428 265.829632 
L 281.459526 265.829632 
L 281.884887 266.380139 
L 282.034597 265.829632 
L 282.10715 266.380139 
L 282.574838 266.380139 
L 283.124097 266.930647 
L 284.356349 266.930647 
L 284.674155 266.380139 
L 284.978668 266.930647 
L 285.321932 266.930647 
L 285.486443 267.481154 
L 285.526013 266.930647 
L 285.72127 267.481154 
L 285.873987 267.481154 
L 286.0248 268.582169 
L 286.605526 269.683184 
L 287.028399 269.132677 
L 287.349904 269.683184 
L 287.981954 269.683184 
L 288.324997 270.784199 
L 288.45058 270.233692 
L 288.654597 271.885214 
L 288.943693 271.334707 
L 289.131187 271.885214 
L 289.279437 271.334707 
L 289.443262 272.435722 
L 289.777174 272.435722 
L 289.876071 272.98623 
L 290.267826 272.435722 
L 290.570815 273.536737 
L 291.254401 273.536737 
L 291.50048 274.637752 
L 291.84952 273.536737 
L 292.086647 273.536737 
L 292.173585 274.087245 
L 292.81156 274.087245 
L 293.109982 276.289275 
L 293.539159 274.087245 
L 293.6057 274.637752 
L 294.170799 274.087245 
L 294.22431 275.18826 
L 294.418671 275.18826 
L 294.81032 275.738767 
L 295.128163 275.18826 
L 295.368286 275.18826 
L 295.723619 276.289275 
L 296.110194 276.289275 
L 296.485076 275.738767 
L 296.765252 276.289275 
L 296.93549 275.738767 
L 297.104809 276.839782 
L 298.605127 276.839782 
L 299.066248 277.39029 
L 300.007745 277.39029 
L 300.341804 276.289275 
L 300.97141 276.289275 
L 301.286525 276.839782 
L 304.153194 276.839782 
L 304.54007 276.289275 
L 304.902717 277.39029 
L 309.302121 277.39029 
L 310.267231 277.940797 
L 310.840452 277.940797 
L 311.305986 278.491305 
L 311.673884 278.491305 
L 311.890071 279.041813 
L 316.787047 279.041813 
L 317.184787 278.491305 
L 317.500123 279.041813 
L 317.81165 278.491305 
L 318.023217 275.18826 
L 319.957805 275.18826 
L 320.130415 275.738767 
L 320.465003 275.738767 
L 320.57565 275.18826 
L 322.57822 275.18826 
L 322.856032 275.738767 
L 322.961024 275.18826 
L 323.436882 275.18826 
L 323.656844 276.289275 
L 323.934116 275.18826 
L 324.141127 276.289275 
L 324.288057 276.289275 
L 324.477562 275.18826 
L 324.6433 276.289275 
L 324.749512 275.18826 
L 324.79229 276.289275 
L 325.932167 276.289275 
L 326.113108 276.839782 
L 326.139644 277.39029 
L 326.720096 277.39029 
L 326.754307 277.940797 
L 327.088752 277.940797 
L 327.261929 278.491305 
L 327.409578 277.940797 
L 327.59097 278.491305 
L 327.713637 277.940797 
L 328.001338 278.491305 
L 328.123011 277.940797 
L 328.139696 278.491305 
L 328.504377 278.491305 
L 328.732874 279.041813 
L 328.876989 279.041813 
L 329.092804 280.142828 
L 329.33227 280.693335 
L 329.497656 280.142828 
L 331.339748 280.142828 
L 331.603135 280.693335 
L 333.014894 280.693335 
L 333.240096 281.243843 
L 333.537771 281.243843 
L 333.758661 281.79435 
L 333.880409 281.243843 
L 334.464509 281.243843 
L 334.661624 282.344858 
L 335.198142 282.344858 
L 335.249665 282.895365 
L 335.324529 282.344858 
L 335.440348 282.344858 
L 335.648136 283.445873 
L 335.86453 283.99638 
L 335.92501 283.445873 
L 336.170304 285.647903 
L 337.163743 285.647903 
L 337.263617 286.198411 
L 337.481252 286.198411 
L 337.608742 287.299426 
L 337.758366 286.198411 
L 339.077196 286.198411 
L 339.153509 286.748918 
L 339.406473 286.198411 
L 339.527591 286.748918 
L 339.751524 286.198411 
L 340.042403 286.198411 
L 340.220781 287.299426 
L 340.545942 287.299426 
L 340.67932 286.748918 
L 340.793596 287.849933 
L 341.131089 286.198411 
L 341.484756 287.299426 
L 341.740955 286.198411 
L 342.340697 286.198411 
L 342.807447 287.849933 
L 342.952684 287.299426 
L 343.113525 287.849933 
L 343.547524 286.748918 
L 343.686494 287.849933 
L 344.716467 287.849933 
L 344.882487 288.400441 
L 345.171801 288.400441 
L 345.32603 287.849933 
L 345.520679 288.400441 
L 345.64376 287.849933 
L 346.018698 288.950948 
L 346.530594 288.950948 
L 346.891616 290.051963 
L 348.455282 290.051963 
L 348.626244 290.602471 
L 348.835365 290.051963 
L 348.938833 290.602471 
L 349.152041 290.051963 
L 349.435204 290.051963 
L 349.617845 290.602471 
L 349.737934 290.051963 
L 350.120258 290.051963 
L 350.238512 290.602471 
L 350.774539 290.602471 
L 350.810671 291.703486 
L 353.103226 291.703486 
L 353.329392 292.253994 
L 353.477841 291.703486 
L 353.603609 292.253994 
L 353.69914 291.703486 
L 353.813732 292.804501 
L 354.341705 292.804501 
L 354.590759 293.355009 
L 354.641234 292.804501 
L 354.692947 293.355009 
L 354.977349 292.804501 
L 355.050851 293.355009 
L 355.328979 293.905516 
L 355.437915 294.456024 
L 355.645879 294.456024 
L 355.693698 295.006531 
L 355.983252 296.658054 
L 356.113579 296.107546 
L 356.289476 296.107546 
L 356.321165 297.208561 
L 357.556997 297.208561 
L 357.710494 297.759069 
L 357.952602 297.208561 
L 358.371977 297.759069 
L 358.484061 297.208561 
L 358.667551 297.759069 
L 358.893056 297.759069 
L 359.027252 298.309577 
L 359.339822 298.309577 
L 359.347486 298.860084 
L 359.443839 298.309577 
L 359.536202 299.410592 
L 359.672718 299.410592 
L 359.86169 299.961099 
L 361.15801 299.961099 
L 361.19222 299.410592 
L 361.273829 300.511607 
L 361.615693 300.511607 
L 361.790284 299.961099 
L 361.924679 300.511607 
L 362.127019 299.961099 
L 362.27862 300.511607 
L 362.448948 300.511607 
L 362.595307 299.961099 
L 362.740428 301.612622 
L 364.477675 301.612622 
L 365.000102 302.713637 
L 365.275099 302.163129 
L 371.837651 302.163129 
L 371.949072 302.713637 
L 372.148356 302.163129 
L 372.205793 302.713637 
L 372.801271 302.713637 
L 372.966162 303.264144 
L 373.801916 303.264144 
L 373.913585 303.814652 
L 374.070988 303.264144 
L 375.351239 303.264144 
L 375.528817 303.814652 
L 375.752446 303.264144 
L 375.875924 303.264144 
L 376.072702 304.36516 
L 376.180951 303.814652 
L 376.66075 303.814652 
L 376.869807 304.36516 
L 377.853846 304.36516 
L 378.014143 303.264144 
L 378.338947 304.36516 
L 380.086563 304.36516 
L 380.265744 304.915667 
L 380.42582 304.915667 
L 380.598215 305.466175 
L 380.727071 305.466175 
L 380.886576 306.016682 
L 381.259773 306.016682 
L 381.325886 306.56719 
L 381.637 306.56719 
L 381.833519 305.466175 
L 381.986971 306.016682 
L 382.221862 306.016682 
L 382.317641 306.56719 
L 382.676986 306.56719 
L 382.998386 307.117697 
L 383.348856 308.76922 
L 383.463601 308.218712 
L 383.570443 308.76922 
L 383.815677 309.319727 
L 383.931965 308.76922 
L 384.244104 309.319727 
L 384.450537 308.76922 
L 384.619135 308.76922 
L 384.949438 310.420742 
L 385.148936 309.870235 
L 385.267772 309.870235 
L 385.597448 310.97125 
L 385.662183 310.420742 
L 385.876453 310.97125 
L 386.024823 310.420742 
L 386.147142 310.97125 
L 386.675363 310.97125 
L 386.872035 303.264144 
L 387.397299 304.36516 
L 387.744113 304.36516 
L 387.865422 304.915667 
L 388.054372 304.36516 
L 388.175655 304.36516 
L 388.319165 303.814652 
L 388.484176 304.36516 
L 388.710837 304.36516 
L 388.822362 303.814652 
L 388.964057 304.36516 
L 389.157307 303.814652 
L 389.233263 304.36516 
L 389.634944 304.915667 
L 389.930108 303.814652 
L 390.19751 304.36516 
L 391.385502 304.36516 
L 391.667386 304.915667 
L 391.963354 304.36516 
L 392.495725 304.36516 
L 392.903868 305.466175 
L 393.043862 303.814652 
L 393.279489 304.36516 
L 393.579862 303.814652 
L 393.717267 305.466175 
L 393.883163 304.36516 
L 394.039947 304.36516 
L 394.144361 304.915667 
L 394.222284 307.117697 
L 394.236271 306.56719 
L 394.581941 307.117697 
L 395.435116 307.117697 
L 395.838703 308.218712 
L 396.005188 307.668205 
L 396.602873 307.668205 
L 396.765722 307.117697 
L 396.939773 307.668205 
L 397.130685 307.668205 
L 397.242841 307.117697 
L 397.584049 307.668205 
L 397.784497 307.668205 
L 397.915908 308.218712 
L 398.076629 307.668205 
L 398.249295 307.668205 
L 398.411108 307.117697 
L 398.511341 307.668205 
L 399.41271 307.668205 
L 399.638215 309.319727 
L 399.910863 308.76922 
L 400.136361 308.76922 
L 400.31892 308.218712 
L 400.401924 308.76922 
L 400.684705 308.218712 
L 400.790421 308.76922 
L 401.039539 308.76922 
L 401.136999 309.319727 
L 401.434708 308.76922 
L 402.048181 308.76922 
L 402.275623 309.319727 
L 402.654501 309.319727 
L 402.750032 309.870235 
L 402.911493 309.319727 
L 403.288934 310.420742 
L 403.40124 310.420742 
L 403.567804 310.97125 
L 403.721346 310.97125 
L 404.010247 311.521758 
L 406.360292 311.521758 
L 406.610652 312.072265 
L 406.845408 312.072265 
L 406.893203 310.97125 
L 406.952396 311.521758 
L 407.335399 311.521758 
L 407.42282 312.072265 
L 407.926775 312.072265 
L 408.167453 312.622773 
L 408.490704 312.622773 
L 408.501456 312.072265 
L 408.608913 312.622773 
L 408.707736 312.072265 
L 410.115307 312.072265 
L 410.379234 311.521758 
L 411.115468 312.072265 
L 412.642233 312.072265 
L 412.708297 312.622773 
L 414.310398 312.622773 
L 414.454712 313.17328 
L 415.93633 315.925818 
L 416.076752 315.925818 
L 416.223254 316.476325 
L 416.288496 315.925818 
L 416.604005 316.476325 
L 416.897132 317.026833 
L 417.247695 317.026833 
L 417.365421 317.577341 
L 417.808449 317.577341 
L 418.450124 317.026833 
L 418.482451 318.678356 
L 418.998881 318.678356 
L 419.158941 318.127848 
L 419.275199 318.678356 
L 420.461656 318.678356 
L 420.737081 318.127848 
L 422.00947 318.127848 
L 422.795147 318.678356 
L 424.382264 318.678356 
L 425.163787 319.228863 
L 425.26831 319.779371 
L 427.618718 319.779371 
L 427.839529 319.228863 
L 429.032734 319.228863 
L 429.903983 318.678356 
L 430.538873 318.678356 
L 430.853942 319.228863 
L 431.133664 320.329878 
L 431.300206 320.329878 
L 431.306706 319.779371 
L 433.174794 319.779371 
L 433.375287 320.329878 
L 438.094591 320.329878 
L 438.689641 320.880386 
L 438.918963 320.880386 
L 439.008479 321.430893 
L 439.300135 321.430893 
L 439.422618 320.880386 
L 439.612487 321.430893 
L 440.678547 321.430893 
L 441.153741 321.981401 
L 441.483829 323.082416 
L 444.374783 323.082416 
L 444.883617 322.531908 
L 445.030839 323.082416 
L 445.179769 322.531908 
L 445.347188 323.082416 
L 446.140082 323.082416 
L 446.505646 322.531908 
L 446.69115 323.082416 
L 447.202656 321.981401 
L 447.402012 323.082416 
L 448.63983 323.082416 
L 448.654473 323.632924 
L 450.616145 323.632924 
L 451.569933 324.183431 
L 451.856162 323.632924 
L 452.387959 323.632924 
L 452.516875 324.183431 
L 452.971267 322.531908 
L 453.271273 323.082416 
L 453.674594 322.531908 
L 453.973335 322.531908 
L 454.109009 323.082416 
L 454.932646 323.082416 
L 455.911266 322.531908 
L 456.058567 323.082416 
L 457.032346 323.082416 
L 457.348504 322.531908 
L 462.304707 323.082416 
L 462.675809 322.531908 
L 462.99653 323.082416 
L 463.283919 322.531908 
L 463.316073 323.082416 
L 463.566272 323.632924 
L 463.711171 323.632924 
L 463.843716 324.183431 
L 466.148026 324.183431 
L 466.197127 324.733939 
L 466.483556 324.733939 
L 467.24836 324.183431 
L 467.272689 324.733939 
L 467.566533 324.183431 
L 467.637953 325.284446 
L 467.827086 325.284446 
L 468.210794 325.834954 
L 468.853817 325.834954 
L 469.244265 325.284446 
L 469.68327 326.385461 
L 469.701276 326.935969 
L 470.12774 327.486476 
L 470.441399 326.935969 
L 470.882442 326.935969 
L 470.974127 327.486476 
L 471.978318 327.486476 
L 472.116657 326.935969 
L 472.286017 328.036984 
L 472.425606 328.036984 
L 472.690534 327.486476 
L 472.931475 328.036984 
L 473.468778 328.036984 
L 473.70541 329.137999 
L 475.393064 329.137999 
L 475.594829 329.688506 
L 475.718375 329.688506 
L 475.921668 329.137999 
L 475.974098 329.688506 
L 476.512601 329.688506 
L 476.620911 330.239014 
L 476.915081 330.239014 
L 476.999102 331.340029 
L 477.458069 331.340029 
L 477.630514 332.991552 
L 477.989577 332.991552 
L 478.199576 332.441044 
L 478.313027 332.991552 
L 478.465747 332.991552 
L 478.477411 334.643074 
L 478.763103 334.643074 
L 479.128445 334.092567 
L 479.294188 334.092567 
L 479.435773 334.643074 
L 479.787875 334.643074 
L 480.152737 334.092567 
L 480.190265 335.193582 
L 480.51332 335.193582 
L 480.57287 335.744089 
L 480.797966 336.294597 
L 481.3926 336.294597 
L 481.479999 337.395612 
L 481.735185 337.395612 
L 481.884794 337.94612 
L 482.028353 337.94612 
L 482.543169 338.496627 
L 482.744653 337.94612 
L 482.864641 330.239014 
L 482.994773 329.688506 
L 483.082907 331.890537 
L 483.717745 331.890537 
L 483.978677 331.340029 
L 484.168793 332.441044 
L 484.315876 332.441044 
L 484.69295 332.991552 
L 485.107682 332.991552 
L 485.296921 332.441044 
L 485.445088 332.991552 
L 486.44508 332.991552 
L 486.56821 333.542059 
L 487.024114 332.441044 
L 487.394834 332.991552 
L 487.607272 332.991552 
L 487.688865 333.542059 
L 487.876419 332.441044 
L 488.058733 333.542059 
L 488.815191 333.542059 
L 488.93244 332.991552 
L 489.201898 332.991552 
L 489.244286 333.542059 
L 489.549388 334.092567 
L 489.561296 333.542059 
L 490.135075 333.542059 
L 490.430398 334.092567 
L 491.962911 334.092567 
L 492.077822 334.643074 
L 492.381742 334.092567 
L 492.391889 334.643074 
L 492.828294 335.193582 
L 493.096439 335.193582 
L 493.405009 335.744089 
L 493.55908 336.294597 
L 493.676876 336.294597 
L 494.047551 335.193582 
L 494.120775 336.294597 
L 494.370032 335.744089 
L 494.579832 336.294597 
L 495.516158 336.294597 
L 495.621068 336.845105 
L 495.751819 336.294597 
L 496.20492 336.845105 
L 496.423779 336.294597 
L 496.645584 336.845105 
L 496.77885 336.294597 
L 497.089213 337.395612 
L 497.303652 336.845105 
L 498.037109 336.845105 
L 498.328907 337.395612 
L 498.754977 337.395612 
L 499.093967 336.294597 
L 499.184319 336.845105 
L 499.546524 336.845105 
L 499.638445 337.94612 
L 500.095265 336.845105 
L 500.254796 337.395612 
L 500.622867 336.845105 
L 500.89154 336.845105 
L 501.029185 337.395612 
L 501.221265 337.395612 
L 501.246855 334.092567 
L 501.358193 334.092567 
L 501.789059 334.643074 
L 501.844878 333.542059 
L 501.999575 334.643074 
L 502.141401 334.092567 
L 502.226526 334.643074 
L 502.564221 334.092567 
L 502.969406 334.643074 
L 503.173506 334.643074 
L 503.453674 334.092567 
L 503.851913 334.092567 
L 504.260229 335.193582 
L 504.474112 334.643074 
L 504.906606 334.643074 
L 505.108855 334.092567 
L 505.13863 333.542059 
L 505.390585 334.643074 
L 505.524203 334.092567 
L 505.68137 334.643074 
L 505.914907 334.092567 
L 506.179227 334.092567 
L 506.34903 333.542059 
L 506.671057 333.542059 
L 507.006328 334.643074 
L 507.233826 334.092567 
L 507.510873 335.193582 
L 507.655153 335.193582 
L 507.745715 334.643074 
L 508.027482 334.643074 
L 508.051132 335.193582 
L 508.985203 335.193582 
L 509.138227 335.744089 
L 509.269297 335.744089 
L 509.471347 336.294597 
L 509.64562 335.744089 
L 509.778529 336.294597 
L 509.976676 335.744089 
L 510.08822 336.294597 
L 510.232189 335.744089 
L 510.278573 336.294597 
L 510.437951 337.395612 
L 510.632668 336.845105 
L 510.693948 336.294597 
L 510.899301 336.845105 
L 511.067118 336.294597 
L 511.26939 336.845105 
L 511.600863 336.845105 
L 511.693159 337.395612 
L 511.922151 336.845105 
L 512.523544 338.496627 
L 512.685319 338.496627 
L 512.852652 337.395612 
L 512.931761 337.94612 
L 513.168341 337.94612 
L 513.275979 337.395612 
L 513.469428 337.395612 
L 513.64555 337.94612 
L 513.871971 337.94612 
L 514.252107 339.597642 
L 514.454349 339.047135 
L 517.112854 339.047135 
L 517.236569 339.597642 
L 517.393455 339.597642 
L 517.51962 339.047135 
L 517.772753 339.597642 
L 518.403403 337.395612 
L 518.508901 338.496627 
L 519.176197 337.395612 
L 519.643375 337.395612 
L 520.282641 338.496627 
L 521.412738 337.94612 
L 521.699733 338.496627 
L 522.015906 337.94612 
L 522.241716 339.047135 
L 522.332282 337.94612 
L 522.62995 339.047135 
L 522.95427 337.94612 
L 523.06163 339.047135 
L 523.269602 339.047135 
L 523.383927 338.496627 
L 523.591149 339.047135 
L 523.715509 339.047135 
L 523.831347 338.496627 
L 523.972091 340.14815 
L 524.341209 339.047135 
L 524.686447 339.047135 
L 524.897399 339.597642 
L 525.295514 339.597642 
L 525.619279 339.047135 
L 525.808555 339.047135 
L 525.951642 340.14815 
L 526.130124 339.597642 
L 526.229772 340.14815 
L 526.470379 340.698657 
L 526.617909 340.698657 
L 526.875842 339.597642 
L 527.122487 341.249165 
L 527.432494 341.249165 
L 527.456024 342.35018 
L 527.477674 341.799672 
L 527.639806 341.249165 
L 527.810239 342.35018 
L 527.881328 341.249165 
L 528.138245 341.249165 
L 528.173251 341.799672 
L 528.462707 342.35018 
L 528.635944 342.35018 
L 528.717143 341.249165 
L 529.105595 342.35018 
L 529.168503 341.249165 
L 529.380082 342.35018 
L 529.54284 340.698657 
L 530.037609 341.799672 
L 530.410333 340.14815 
L 530.439154 340.698657 
L 530.675242 340.14815 
L 530.824498 340.14815 
L 530.979448 341.249165 
L 531.16449 340.14815 
L 531.520248 341.249165 
L 531.655221 340.14815 
L 531.801362 340.698657 
L 532.099169 340.698657 
L 532.295838 340.14815 
L 532.672314 340.14815 
L 532.683805 340.698657 
L 533.276334 339.597642 
L 533.590582 341.249165 
L 533.757363 341.249165 
L 533.951747 340.698657 
L 534.006692 341.799672 
L 534.282638 340.698657 
L 534.452553 341.799672 
L 534.623846 340.698657 
L 534.694635 341.249165 
L 535.045938 341.249165 
L 535.256466 341.799672 
L 535.352755 342.900688 
L 535.548778 341.799672 
L 535.871282 342.35018 
L 536.013945 342.900688 
L 536.190217 342.35018 
L 536.340719 344.55221 
L 536.576954 344.55221 
L 536.889363 345.102718 
L 536.927052 344.001703 
L 537.234526 345.102718 
L 537.672199 344.001703 
L 537.790461 345.653225 
L 538.145348 346.203733 
L 538.531878 345.102718 
L 538.776861 344.55221 
L 539.45785 345.102718 
L 539.539417 345.653225 
L 539.794187 345.653225 
L 540.263838 346.203733 
L 540.496519 346.203733 
L 540.786456 346.75424 
L 541.079733 348.405763 
L 541.832697 347.855255 
L 542.075244 347.855255 
L 542.411573 346.203733 
L 542.731285 346.203733 
L 542.813696 345.653225 
L 543.0566 346.75424 
L 543.110715 345.653225 
L 543.376567 346.203733 
L 543.858823 346.203733 
L 544.106301 347.304748 
L 544.33345 346.203733 
L 544.64369 347.304748 
L 544.764639 346.75424 
L 544.930332 347.304748 
L 545.362928 346.203733 
L 545.612958 346.75424 
L 546.34428 346.75424 
L 546.518837 346.203733 
L 546.942404 347.304748 
L 547.114571 346.203733 
L 547.263073 346.203733 
L 547.320817 346.75424 
L 547.531345 346.75424 
L 547.758404 347.304748 
L 547.913774 346.203733 
L 548.155007 347.304748 
L 548.260948 346.203733 
L 548.556759 347.304748 
L 548.738653 347.304748 
L 548.856033 346.75424 
L 549.048386 346.75424 
L 549.102741 346.203733 
L 549.113902 346.75424 
L 549.442279 346.75424 
L 549.553384 346.203733 
L 549.85461 347.304748 
L 550.132001 346.203733 
L 550.607383 346.75424 
L 551.623268 346.75424 
L 551.866892 346.203733 
L 552.125899 346.75424 
L 552.29262 346.203733 
L 552.395608 346.75424 
L 553.117102 346.75424 
L 553.337379 346.203733 
L 553.843151 347.304748 
L 553.966126 346.75424 
L 554.370674 347.304748 
L 554.812494 346.75424 
L 555.047152 347.304748 
L 555.599233 346.203733 
L 555.744091 345.653225 
L 555.984097 345.653225 
L 556.446355 347.304748 
L 556.572093 347.304748 
L 556.731718 346.203733 
L 557.106629 346.203733 
L 557.316914 346.75424 
L 557.476381 346.75424 
L 557.64126 346.203733 
L 557.952566 346.203733 
L 558.377637 346.75424 
L 558.613598 346.75424 
L 558.710195 347.304748 
L 558.936987 346.203733 
L 559.056476 347.304748 
L 559.205034 346.75424 
L 559.298858 347.304748 
L 559.894505 347.304748 
L 559.916065 348.405763 
L 560.012253 347.855255 
L 560.192211 347.855255 
L 560.299747 347.304748 
L 560.468897 347.855255 
L 560.655403 347.304748 
L 561.131013 347.855255 
L 561.534979 347.855255 
L 561.688412 348.95627 
L 561.748922 348.405763 
L 561.929709 348.95627 
L 562.172162 348.405763 
L 562.285666 347.855255 
L 562.454856 348.405763 
L 562.621706 347.855255 
L 562.822394 348.95627 
L 562.907421 347.855255 
L 563.087731 334.092567 
L 563.580042 334.092567 
L 563.715735 333.542059 
L 563.715735 333.542059 
" clip-path="url(#pc7f6d8a547)" style="fill: none; stroke-dasharray: 3,1.5; stroke-dashoffset: 0; stroke: #808080; stroke-width: 1.5"/>
   </g>
   <g id="line2d_19">
    <path d="M 38.539265 298.309577 
L 39.864827 297.759069 
L 41.18611 296.658054 
L 44.31504 296.658054 
L 47.765059 296.107546 
L 48.020999 296.658054 
L 48.180621 296.658054 
L 48.289763 295.557039 
L 48.541662 296.107546 
L 48.914228 295.557039 
L 49.639613 295.557039 
L 50.043617 292.804501 
L 50.133736 295.557039 
L 50.343435 292.253994 
L 50.410122 292.804501 
L 50.645107 292.804501 
L 51.020994 292.253994 
L 51.637196 292.253994 
L 51.95267 290.051963 
L 52.443059 290.051963 
L 52.940845 291.152978 
L 53.257513 286.748918 
L 53.327612 287.299426 
L 53.62561 286.748918 
L 54.202054 285.097396 
L 54.593043 286.198411 
L 55.211049 286.198411 
L 55.556422 287.299426 
L 55.789899 286.748918 
L 56.493292 286.198411 
L 56.808925 286.198411 
L 57.152144 285.097396 
L 57.644627 285.097396 
L 58.153971 281.79435 
L 59.523208 280.142828 
L 59.709674 279.59232 
L 60.104636 279.59232 
L 60.353694 279.041813 
L 60.750518 279.041813 
L 61.042662 280.142828 
L 61.340251 280.693335 
L 61.672047 280.693335 
L 61.866348 280.142828 
L 64.235934 280.142828 
L 64.614688 279.59232 
L 65.227726 279.59232 
L 65.566978 279.041813 
L 65.892072 279.041813 
L 66.018301 279.59232 
L 66.8212 279.041813 
L 67.157709 279.59232 
L 68.085497 279.59232 
L 68.383372 279.041813 
L 68.749592 279.59232 
L 70.438263 279.59232 
L 70.784248 279.041813 
L 70.974158 277.39029 
L 71.436378 278.491305 
L 72.087342 278.491305 
L 72.391483 277.39029 
L 72.511167 278.491305 
L 73.044417 276.839782 
L 73.366846 276.839782 
L 73.679994 276.289275 
L 74.029518 276.289275 
L 74.350438 276.839782 
L 74.657094 275.738767 
L 74.929344 275.738767 
L 75.66953 274.637752 
L 79.555729 274.637752 
L 79.864655 273.536737 
L 80.523056 273.536737 
L 80.815287 270.784199 
L 81.795419 270.784199 
L 82.733625 268.582169 
L 83.730844 268.582169 
L 84.088016 268.031662 
L 90.112902 268.031662 
L 90.836219 266.380139 
L 91.000073 268.031662 
L 92.160295 268.031662 
L 92.475357 266.930647 
L 92.822963 268.031662 
L 93.650008 268.031662 
L 94.106828 266.930647 
L 94.445957 268.031662 
L 99.567635 268.031662 
L 99.847522 263.077094 
L 100.041572 268.031662 
L 101.897674 268.031662 
L 102.234618 267.481154 
L 102.426941 262.526586 
L 102.881251 267.481154 
L 103.202119 267.481154 
L 103.415116 268.031662 
L 106.775743 268.031662 
L 106.945929 267.481154 
L 107.251338 267.481154 
L 107.754314 265.829632 
L 112.823791 265.829632 
L 113.930186 265.279124 
L 120.739057 265.279124 
L 121.022584 262.526586 
L 121.384879 262.526586 
L 121.706145 265.279124 
L 122.036676 265.279124 
L 122.264429 262.526586 
L 122.511269 265.279124 
L 122.921479 262.526586 
L 123.284844 261.425571 
L 127.498196 261.425571 
L 127.86186 260.875064 
L 129.457346 260.875064 
L 129.785332 259.774049 
L 130.181901 257.572018 
L 130.465185 257.021511 
L 130.785385 253.718466 
L 131.180693 253.718466 
L 131.710734 252.61745 
L 132.076533 252.61745 
L 132.70835 251.516435 
L 135.360187 246.561868 
L 135.630959 247.662883 
L 137.526964 247.662883 
L 137.896862 245.460852 
L 138.223047 246.01136 
L 139.528877 246.01136 
L 139.76763 247.112375 
L 140.187575 246.01136 
L 141.135951 246.01136 
L 141.45871 244.910345 
L 141.770038 244.910345 
L 142.138754 244.359837 
L 142.287541 244.359837 
L 142.453827 242.708315 
L 142.679243 242.708315 
L 143.436414 242.157807 
L 144.062039 243.80933 
L 144.215021 243.80933 
L 144.705459 243.258822 
L 145.020127 242.157807 
L 146.646276 242.157807 
L 146.960246 241.6073 
L 147.297405 241.6073 
L 147.609555 241.056792 
L 147.901969 241.056792 
L 148.581438 240.506285 
L 148.932355 240.506285 
L 149.282288 238.854762 
L 149.852881 238.854762 
L 150.209472 238.304254 
L 150.431048 238.304254 
L 150.554751 248.21339 
L 150.648429 247.662883 
L 151.184665 247.662883 
L 151.50237 246.561868 
L 151.926668 246.561868 
L 152.145223 246.01136 
L 152.62584 246.01136 
L 152.673665 245.460852 
L 153.430788 245.460852 
L 153.837287 243.80933 
L 154.682052 242.157807 
L 156.055132 242.157807 
L 156.351993 241.056792 
L 156.463774 241.6073 
L 156.593219 241.6073 
L 156.952188 242.157807 
L 158.258577 241.6073 
L 161.527002 241.6073 
L 161.90573 242.157807 
L 163.487634 242.157807 
L 163.712776 242.708315 
L 164.125182 242.157807 
L 166.675179 242.157807 
L 167.056591 241.6073 
L 167.589769 241.6073 
L 168.021768 241.056792 
L 168.239137 241.6073 
L 170.3216 241.6073 
L 170.978812 240.506285 
L 172.377505 240.506285 
L 172.612993 232.799179 
L 172.878461 232.799179 
L 175.140815 231.147656 
L 175.279837 231.698164 
L 175.424871 231.147656 
L 175.801329 231.698164 
L 176.117108 231.698164 
L 176.449467 231.147656 
L 176.69905 231.147656 
L 177.099747 230.046641 
L 177.26454 230.046641 
L 177.417049 230.597149 
L 177.75888 229.496134 
L 180.031516 229.496134 
L 180.252608 228.945626 
L 180.621215 228.945626 
L 180.963305 228.395119 
L 181.318454 228.945626 
L 181.475163 228.945626 
L 181.961927 229.496134 
L 182.32662 226.743596 
L 182.586249 228.395119 
L 182.924864 228.395119 
L 183.196277 225.092073 
L 183.38618 225.642581 
L 183.588339 224.541566 
L 183.69016 225.092073 
L 183.814783 223.440551 
L 184.137872 223.440551 
L 184.547235 222.890043 
L 185.348996 223.440551 
L 185.531559 222.339536 
L 185.829917 222.339536 
L 186.041203 223.991058 
L 186.758411 222.339536 
L 187.471562 221.789028 
L 188.097873 221.789028 
L 188.42643 220.137505 
L 188.728433 220.137505 
L 188.907321 220.688013 
L 189.221295 220.688013 
L 190.435639 217.384968 
L 190.638162 219.586998 
L 191.027999 220.137505 
L 191.485231 217.384968 
L 192.714249 217.384968 
L 192.819462 216.83446 
L 193.309176 216.283953 
L 194.614634 216.283953 
L 195.212184 213.531415 
L 198.57012 213.531415 
L 198.835278 212.4304 
L 199.184017 214.63243 
L 199.387047 212.980907 
L 203.047876 212.980907 
L 203.353743 212.4304 
L 204.091351 209.127355 
L 204.368078 210.778877 
L 204.697863 210.22837 
L 205.063028 210.778877 
L 205.319997 210.778877 
L 205.709365 205.273802 
L 205.918148 205.273802 
L 205.95867 204.723294 
L 206.615668 204.723294 
L 206.985461 203.622279 
L 207.311485 201.970757 
L 208.292229 201.420249 
L 208.354285 201.970757 
L 208.886784 202.521264 
L 208.965874 201.970757 
L 211.531701 201.970757 
L 211.710236 201.420249 
L 212.189074 200.869741 
L 212.828486 199.768726 
L 212.994795 198.667711 
L 213.219531 198.667711 
L 213.471291 197.566696 
L 213.774412 198.117204 
L 214.113822 198.117204 
L 214.369568 198.667711 
L 214.730106 198.117204 
L 215.051826 198.117204 
L 215.360174 197.566696 
L 215.609784 197.566696 
L 216.079641 198.117204 
L 216.323907 197.566696 
L 216.576721 198.117204 
L 217.003204 200.869741 
L 217.31088 201.420249 
L 218.017088 200.319234 
L 218.120339 196.465681 
L 218.277758 196.465681 
L 218.565796 195.915174 
L 218.900429 196.465681 
L 219.205947 196.465681 
L 219.582304 197.016189 
L 219.908287 195.915174 
L 221.084795 195.915174 
L 221.552359 195.364666 
L 221.819566 195.364666 
L 221.8403 194.814158 
L 223.173439 194.814158 
L 223.552978 193.713143 
L 225.418285 193.713143 
L 225.790127 192.612128 
L 229.363061 192.612128 
L 229.577049 192.061621 
L 230.15418 192.061621 
L 230.639803 191.511113 
L 230.965106 190.410098 
L 231.062379 190.960606 
L 231.41596 189.859591 
L 232.20253 189.859591 
L 235.388273 188.758576 
L 243.262889 188.758576 
L 243.583648 189.309083 
L 245.123217 189.309083 
L 245.442339 188.758576 
L 246.499862 188.758576 
L 246.864855 188.208068 
L 247.127306 188.758576 
L 247.431898 188.208068 
L 247.768922 188.758576 
L 248.045533 187.65756 
L 248.469182 188.208068 
L 248.778299 187.65756 
L 255.497602 187.65756 
L 255.844694 188.758576 
L 256.212401 188.208068 
L 256.544955 188.758576 
L 256.917449 188.208068 
L 257.216179 188.758576 
L 258.462921 188.758576 
L 258.779492 188.208068 
L 259.137073 188.758576 
L 259.46285 187.65756 
L 260.108822 187.65756 
L 260.473278 188.208068 
L 260.746005 187.107053 
L 261.096839 187.107053 
L 261.367888 187.65756 
L 262.223375 186.556545 
L 262.72384 187.107053 
L 263.021178 186.556545 
L 263.653764 186.556545 
L 264.010793 187.107053 
L 264.361376 185.45553 
L 264.698808 186.006038 
L 265.346623 186.006038 
L 265.593564 186.556545 
L 265.909384 186.006038 
L 266.254045 186.006038 
L 266.561628 190.410098 
L 266.683826 189.859591 
L 266.925536 189.859591 
L 267.093916 189.309083 
L 267.240666 189.309083 
L 267.433874 188.758576 
L 267.564809 189.859591 
L 268.211225 188.758576 
L 268.766608 188.758576 
L 269.036697 187.65756 
L 269.304372 188.758576 
L 269.478644 188.208068 
L 270.461201 188.208068 
L 270.753705 188.758576 
L 271.031108 188.758576 
L 271.379694 188.208068 
L 271.702029 188.208068 
L 272.084131 188.758576 
L 272.452865 188.208068 
L 272.738967 188.208068 
L 273.189201 187.107053 
L 275.025833 187.107053 
L 275.327933 187.65756 
L 276.751376 187.65756 
L 277.078289 187.107053 
L 277.335445 186.556545 
L 277.838935 186.556545 
L 277.996016 185.45553 
L 278.068073 186.006038 
L 278.238439 185.45553 
L 278.717641 185.45553 
L 278.952555 184.354515 
L 279.592173 184.354515 
L 279.890738 183.2535 
L 280.878132 183.2535 
L 281.114926 181.601977 
L 281.333428 181.05147 
L 281.459526 181.05147 
L 281.884887 180.500962 
L 282.034597 181.05147 
L 282.10715 180.500962 
L 282.260654 180.500962 
L 282.440353 179.950455 
L 282.574838 179.950455 
L 283.124097 179.399947 
L 284.356349 179.399947 
L 284.674155 179.950455 
L 284.978668 179.399947 
L 285.321932 179.399947 
L 285.486443 178.84944 
L 285.526013 179.399947 
L 285.72127 178.84944 
L 285.873987 178.84944 
L 286.0248 177.748425 
L 286.605526 176.64741 
L 287.028399 177.197917 
L 287.349904 176.64741 
L 287.981954 176.64741 
L 288.324997 175.546394 
L 288.45058 176.096902 
L 288.654597 174.445379 
L 288.943693 174.995887 
L 289.131187 174.445379 
L 289.279437 174.995887 
L 289.443262 173.894872 
L 289.777174 173.894872 
L 289.876071 173.344364 
L 290.267826 173.894872 
L 290.570815 172.793857 
L 291.254401 172.793857 
L 291.50048 171.692842 
L 291.84952 172.793857 
L 292.086647 172.793857 
L 292.173585 172.243349 
L 292.81156 172.243349 
L 293.109982 170.041319 
L 293.539159 172.243349 
L 293.6057 171.692842 
L 294.170799 172.243349 
L 294.22431 171.142334 
L 294.418671 171.142334 
L 294.81032 170.591827 
L 295.128163 171.142334 
L 295.368286 171.142334 
L 295.723619 170.041319 
L 296.110194 170.041319 
L 296.485076 170.591827 
L 296.765252 170.041319 
L 296.93549 170.591827 
L 297.104809 169.490812 
L 298.605127 169.490812 
L 299.066248 168.940304 
L 300.007745 168.940304 
L 300.341804 170.041319 
L 300.97141 170.041319 
L 301.286525 169.490812 
L 304.153194 169.490812 
L 304.54007 170.041319 
L 304.902717 168.940304 
L 309.302121 168.940304 
L 310.267231 168.389796 
L 310.840452 168.389796 
L 311.305986 167.839289 
L 311.673884 167.839289 
L 311.890071 166.738274 
L 312.232821 167.288781 
L 316.787047 167.288781 
L 317.184787 167.839289 
L 317.500123 167.288781 
L 317.81165 167.839289 
L 318.023217 170.041319 
L 319.957805 170.041319 
L 320.276857 168.940304 
L 320.724655 170.041319 
L 322.57822 170.041319 
L 322.856032 168.940304 
L 322.961024 170.041319 
L 323.436882 170.041319 
L 323.656844 168.940304 
L 323.934116 170.041319 
L 324.141127 168.940304 
L 324.288057 168.940304 
L 324.477562 170.041319 
L 324.6433 168.940304 
L 324.749512 170.041319 
L 324.79229 168.940304 
L 325.932167 168.940304 
L 326.305315 167.288781 
L 326.720096 167.288781 
L 326.754307 166.738274 
L 327.088752 166.738274 
L 327.261929 166.187766 
L 327.409578 166.738274 
L 327.59097 166.187766 
L 327.713637 166.738274 
L 328.001338 166.187766 
L 328.123011 166.738274 
L 328.139696 166.187766 
L 328.504377 166.187766 
L 328.732874 165.637259 
L 328.876989 165.637259 
L 329.092804 164.536244 
L 329.33227 163.985736 
L 329.497656 164.536244 
L 331.339748 164.536244 
L 331.603135 163.985736 
L 333.014894 163.985736 
L 333.240096 163.435229 
L 333.537771 163.435229 
L 333.758661 162.884721 
L 333.880409 163.435229 
L 334.464509 163.435229 
L 334.661624 162.334213 
L 335.198142 162.334213 
L 335.249665 161.783706 
L 335.324529 162.334213 
L 335.622223 162.334213 
L 335.648136 161.783706 
L 335.86453 161.233198 
L 335.92501 161.783706 
L 336.170304 159.581676 
L 337.163743 159.581676 
L 337.263617 159.031168 
L 337.481252 159.031168 
L 337.608742 157.930153 
L 337.758366 159.031168 
L 339.077196 159.031168 
L 339.153509 158.480661 
L 339.406473 159.031168 
L 339.527591 158.480661 
L 339.751524 159.031168 
L 340.042403 159.031168 
L 340.220781 157.930153 
L 340.545942 157.930153 
L 340.67932 158.480661 
L 340.793596 157.379646 
L 341.131089 159.031168 
L 341.484756 157.930153 
L 341.740955 159.031168 
L 342.340697 159.031168 
L 342.807447 157.379646 
L 342.952684 157.930153 
L 343.113525 157.379646 
L 343.547524 158.480661 
L 343.686494 157.379646 
L 344.716467 157.379646 
L 344.882487 156.829138 
L 345.171801 156.829138 
L 345.32603 157.379646 
L 345.520679 156.829138 
L 345.64376 157.379646 
L 346.018698 156.27863 
L 346.530594 156.27863 
L 346.891616 155.177615 
L 347.518802 156.27863 
L 347.652837 155.728123 
L 347.817731 156.27863 
L 347.922299 155.728123 
L 348.132091 155.728123 
L 348.220015 156.27863 
L 348.626244 155.177615 
L 348.835365 155.728123 
L 348.938833 155.177615 
L 349.152041 155.728123 
L 349.435204 155.728123 
L 349.617845 155.177615 
L 349.737934 155.728123 
L 349.856283 155.728123 
L 350.120258 156.27863 
L 350.238512 155.177615 
L 350.774539 155.177615 
L 350.810671 154.0766 
L 353.103226 154.0766 
L 353.329392 153.526093 
L 353.477841 154.0766 
L 353.603609 153.526093 
L 353.69914 154.0766 
L 353.813732 152.975585 
L 354.341705 152.975585 
L 354.590759 152.425078 
L 354.641234 152.975585 
L 354.692947 152.425078 
L 354.977349 152.975585 
L 355.050851 152.425078 
L 355.328979 151.87457 
L 355.437915 151.324063 
L 355.645879 151.324063 
L 355.693698 150.773555 
L 355.983252 149.122032 
L 356.113579 149.67254 
L 356.289476 149.67254 
L 356.321165 148.571525 
L 357.556997 148.571525 
L 357.710494 148.021017 
L 357.952602 148.571525 
L 358.667551 146.920002 
L 358.893056 146.920002 
L 359.027252 146.369495 
L 359.339822 146.369495 
L 359.347486 145.818987 
L 359.443839 146.369495 
L 359.536202 145.26848 
L 359.672718 145.26848 
L 359.86169 144.717972 
L 361.15801 144.717972 
L 361.19222 145.26848 
L 361.273829 144.167465 
L 361.615693 144.167465 
L 361.790284 144.717972 
L 361.924679 144.167465 
L 362.127019 144.717972 
L 362.27862 144.167465 
L 362.448948 144.167465 
L 362.595307 144.717972 
L 362.740428 143.066449 
L 364.477675 143.066449 
L 365.000102 141.965434 
L 365.275099 142.515942 
L 371.837651 142.515942 
L 371.949072 141.965434 
L 372.148356 142.515942 
L 372.205793 141.965434 
L 372.801271 141.965434 
L 372.966162 141.414927 
L 373.801916 141.414927 
L 373.913585 140.864419 
L 374.070988 141.414927 
L 375.351239 141.414927 
L 375.528817 140.864419 
L 375.752446 141.414927 
L 375.875924 141.414927 
L 376.072702 140.313912 
L 376.180951 140.864419 
L 376.66075 140.864419 
L 376.869807 140.313912 
L 377.853846 140.313912 
L 378.014143 141.414927 
L 378.338947 140.313912 
L 380.086563 140.313912 
L 380.265744 139.763404 
L 380.42582 139.763404 
L 380.598215 139.212897 
L 380.727071 139.212897 
L 380.886576 138.662389 
L 381.259773 138.662389 
L 381.325886 138.111882 
L 381.637 138.111882 
L 381.833519 139.212897 
L 381.986971 138.662389 
L 382.221862 138.662389 
L 382.317641 138.111882 
L 382.676986 138.111882 
L 382.998386 137.561374 
L 383.348856 135.909851 
L 383.463601 136.460359 
L 383.570443 135.909851 
L 383.815677 135.359344 
L 383.931965 135.909851 
L 384.244104 135.359344 
L 384.450537 135.909851 
L 384.619135 135.909851 
L 384.949438 134.258329 
L 385.148936 134.808836 
L 385.267772 134.808836 
L 385.597448 133.707821 
L 385.662183 134.258329 
L 385.876453 133.707821 
L 386.024823 134.258329 
L 386.147142 133.707821 
L 386.675363 133.707821 
L 386.872035 137.010866 
L 387.397299 135.909851 
L 387.744113 135.909851 
L 387.865422 135.359344 
L 388.054372 135.909851 
L 388.175655 135.909851 
L 388.319165 136.460359 
L 388.484176 135.909851 
L 388.710837 135.909851 
L 388.822362 136.460359 
L 388.964057 135.909851 
L 389.157307 136.460359 
L 389.233263 135.909851 
L 389.634944 135.359344 
L 389.789274 135.359344 
L 389.930108 135.909851 
L 390.19751 135.359344 
L 391.289341 135.359344 
L 391.385502 132.606806 
L 391.667386 134.808836 
L 391.963354 135.359344 
L 392.495725 135.359344 
L 392.903868 134.258329 
L 393.043862 135.909851 
L 393.279489 135.359344 
L 393.579862 135.909851 
L 393.717267 134.258329 
L 393.883163 135.359344 
L 394.039947 135.359344 
L 394.144361 134.808836 
L 394.236271 130.404776 
L 394.555461 132.606806 
L 394.581941 129.854268 
L 395.435116 129.854268 
L 395.838703 128.753253 
L 396.005188 129.303761 
L 396.602873 129.303761 
L 396.765722 129.854268 
L 396.939773 129.303761 
L 397.130685 129.303761 
L 397.242841 129.854268 
L 397.584049 129.303761 
L 397.784497 129.303761 
L 397.915908 128.753253 
L 398.076629 129.303761 
L 398.249295 129.303761 
L 398.411108 129.854268 
L 398.511341 129.303761 
L 399.41271 129.303761 
L 399.638215 127.652238 
L 399.910863 128.202746 
L 400.136361 128.202746 
L 400.31892 128.753253 
L 400.401924 128.202746 
L 400.684705 128.753253 
L 400.790421 128.202746 
L 401.039539 128.202746 
L 401.136999 127.652238 
L 401.434708 128.202746 
L 402.048181 128.202746 
L 402.275623 127.652238 
L 402.654501 127.652238 
L 402.750032 127.101731 
L 402.911493 127.652238 
L 403.288934 126.551223 
L 403.40124 126.551223 
L 403.567804 126.000716 
L 403.721346 126.000716 
L 404.010247 125.450208 
L 406.360292 125.450208 
L 406.610652 124.899701 
L 406.845408 124.899701 
L 406.893203 126.000716 
L 406.952396 125.450208 
L 407.335399 125.450208 
L 407.42282 124.899701 
L 407.926775 124.899701 
L 408.167453 124.349193 
L 408.490704 124.349193 
L 408.501456 124.899701 
L 408.608913 124.349193 
L 408.707736 124.899701 
L 410.115307 124.899701 
L 410.379234 125.450208 
L 411.115468 124.899701 
L 412.642233 124.899701 
L 412.708297 124.349193 
L 414.310398 124.349193 
L 414.454712 123.798685 
L 415.93633 121.046148 
L 416.076752 121.046148 
L 416.223254 120.49564 
L 416.288496 121.046148 
L 416.604005 120.49564 
L 416.897132 119.945133 
L 417.247695 119.945133 
L 417.365421 119.394625 
L 417.808449 119.394625 
L 418.450124 119.945133 
L 418.482451 118.29361 
L 418.998881 118.29361 
L 419.158941 118.844118 
L 419.275199 118.29361 
L 420.141047 118.29361 
L 420.461656 118.844118 
L 422.00947 118.844118 
L 422.795147 118.29361 
L 424.382264 118.29361 
L 425.163787 117.743102 
L 425.26831 117.192595 
L 427.618718 117.192595 
L 427.839529 117.743102 
L 429.032734 117.743102 
L 429.903983 118.29361 
L 430.538873 118.29361 
L 430.853942 117.743102 
L 431.133664 116.642087 
L 431.300206 116.642087 
L 431.306706 117.192595 
L 433.174794 117.192595 
L 433.375287 116.642087 
L 438.094591 116.642087 
L 438.689641 116.09158 
L 438.918963 116.09158 
L 439.008479 114.990565 
L 439.300135 114.990565 
L 439.422618 115.541072 
L 439.612487 114.990565 
L 440.678547 114.990565 
L 441.153741 114.440057 
L 441.483829 113.339042 
L 444.374783 113.339042 
L 444.883617 113.88955 
L 445.030839 113.339042 
L 445.179769 113.88955 
L 445.347188 113.339042 
L 446.140082 113.339042 
L 446.505646 113.88955 
L 446.69115 113.339042 
L 447.202656 114.440057 
L 447.402012 113.339042 
L 448.63983 113.339042 
L 448.654473 112.788535 
L 450.616145 112.788535 
L 451.569933 112.238027 
L 451.856162 112.788535 
L 452.064611 112.238027 
L 452.199513 112.788535 
L 452.387959 112.788535 
L 452.516875 112.238027 
L 452.971267 113.339042 
L 453.271273 112.788535 
L 453.674594 113.339042 
L 453.973335 113.339042 
L 454.109009 112.788535 
L 454.932646 112.788535 
L 455.911266 113.339042 
L 456.058567 112.788535 
L 457.032346 112.788535 
L 457.348504 113.339042 
L 462.304707 112.788535 
L 462.675809 113.339042 
L 462.99653 112.788535 
L 463.283919 113.339042 
L 463.316073 112.788535 
L 463.566272 112.238027 
L 463.711171 112.238027 
L 463.843716 111.68752 
L 466.148026 111.68752 
L 466.197127 111.137012 
L 466.483556 111.137012 
L 467.24836 111.68752 
L 467.272689 111.137012 
L 467.566533 111.68752 
L 467.637953 110.586504 
L 467.827086 110.586504 
L 468.210794 110.035997 
L 468.853817 110.035997 
L 469.244265 110.586504 
L 469.68327 109.485489 
L 469.701276 108.934982 
L 470.12774 108.384474 
L 470.441399 108.934982 
L 470.882442 108.934982 
L 470.974127 108.384474 
L 471.978318 108.384474 
L 472.116657 108.934982 
L 472.286017 107.833967 
L 472.425606 107.833967 
L 472.690534 108.384474 
L 472.931475 107.833967 
L 473.468778 107.833967 
L 473.70541 106.182444 
L 475.393064 106.182444 
L 475.594829 105.631937 
L 475.718375 105.631937 
L 475.921668 106.182444 
L 475.974098 105.631937 
L 476.512601 105.631937 
L 476.620911 105.081429 
L 476.915081 104.530921 
L 476.999102 103.429906 
L 477.458069 103.429906 
L 477.630514 101.778384 
L 477.989577 101.778384 
L 478.199576 102.328891 
L 478.313027 101.778384 
L 478.465747 101.778384 
L 478.477411 100.126861 
L 479.294188 100.126861 
L 479.435773 99.576354 
L 479.787875 99.576354 
L 480.152737 100.126861 
L 480.190265 99.025846 
L 480.51332 99.025846 
L 480.57287 98.475338 
L 480.797966 97.924831 
L 481.3926 97.924831 
L 481.479999 96.823816 
L 481.735185 96.823816 
L 481.884794 96.273308 
L 482.028353 96.273308 
L 482.543169 95.722801 
L 482.744653 96.273308 
L 482.864641 102.328891 
L 482.994773 102.879399 
L 483.082907 100.677369 
L 483.717745 100.677369 
L 483.978677 101.227876 
L 484.168793 100.126861 
L 485.107682 100.126861 
L 485.296921 100.677369 
L 485.445088 100.126861 
L 486.44508 100.126861 
L 486.56821 99.576354 
L 487.024114 100.677369 
L 487.394834 100.126861 
L 487.607272 100.126861 
L 487.688865 99.576354 
L 487.876419 100.677369 
L 488.058733 99.576354 
L 488.815191 99.576354 
L 488.93244 100.126861 
L 489.201898 100.126861 
L 489.244286 99.576354 
L 489.549388 99.025846 
L 489.561296 99.576354 
L 489.807115 99.025846 
L 490.135075 99.025846 
L 490.430398 98.475338 
L 491.962911 98.475338 
L 492.077822 97.924831 
L 492.381742 98.475338 
L 492.391889 97.924831 
L 492.828294 97.374323 
L 493.096439 97.374323 
L 493.405009 96.823816 
L 493.55908 96.273308 
L 493.676876 96.273308 
L 494.047551 97.374323 
L 494.120775 96.273308 
L 494.370032 96.823816 
L 494.579832 96.273308 
L 495.516158 96.273308 
L 495.621068 95.722801 
L 495.751819 96.273308 
L 496.20492 95.722801 
L 496.423779 96.273308 
L 496.645584 95.722801 
L 496.77885 96.273308 
L 497.089213 95.172293 
L 497.303652 95.722801 
L 498.037109 95.722801 
L 498.328907 95.172293 
L 498.754977 95.172293 
L 499.093967 96.273308 
L 499.184319 95.722801 
L 499.546524 95.722801 
L 499.638445 94.621786 
L 500.095265 95.722801 
L 500.254796 95.172293 
L 500.622867 95.722801 
L 500.89154 95.722801 
L 501.029185 95.172293 
L 501.358193 95.172293 
L 501.789059 94.621786 
L 501.844878 95.722801 
L 501.999575 94.621786 
L 502.141401 95.172293 
L 502.226526 94.621786 
L 502.564221 95.172293 
L 502.969406 94.621786 
L 503.173506 94.621786 
L 503.453674 95.172293 
L 503.851913 95.172293 
L 504.260229 94.071278 
L 504.474112 94.621786 
L 504.906606 94.621786 
L 505.108855 95.172293 
L 505.13863 95.722801 
L 505.390585 94.621786 
L 505.524203 95.172293 
L 505.68137 94.621786 
L 505.914907 95.172293 
L 506.179227 95.172293 
L 506.34903 95.722801 
L 506.671057 95.722801 
L 507.006328 94.621786 
L 507.233826 95.172293 
L 507.510873 94.071278 
L 507.655153 94.071278 
L 507.745715 94.621786 
L 508.027482 94.621786 
L 508.051132 94.071278 
L 508.985203 94.071278 
L 509.138227 93.520771 
L 509.269297 93.520771 
L 509.471347 92.970263 
L 509.64562 93.520771 
L 509.778529 92.970263 
L 509.976676 92.970263 
L 510.08822 92.419756 
L 510.232189 92.970263 
L 510.278573 92.419756 
L 510.437951 91.31874 
L 510.632668 91.869248 
L 510.693948 92.419756 
L 510.899301 91.869248 
L 511.067118 92.419756 
L 511.26939 91.869248 
L 511.600863 91.869248 
L 511.693159 91.31874 
L 511.922151 91.869248 
L 512.523544 90.217725 
L 512.685319 90.217725 
L 512.852652 91.31874 
L 512.931761 90.768233 
L 513.168341 90.768233 
L 513.275979 91.31874 
L 513.469428 91.31874 
L 513.64555 90.768233 
L 513.871971 90.768233 
L 514.252107 89.11671 
L 514.454349 89.667218 
L 517.112854 89.667218 
L 517.236569 89.11671 
L 517.393455 89.11671 
L 517.51962 89.667218 
L 517.772753 89.11671 
L 518.403403 89.11671 
L 518.508901 88.015695 
L 519.176197 89.11671 
L 519.643375 89.11671 
L 520.282641 88.015695 
L 521.412738 88.566203 
L 521.699733 88.015695 
L 522.015906 88.566203 
L 522.241716 87.465188 
L 522.332282 88.566203 
L 522.62995 87.465188 
L 522.95427 88.566203 
L 523.06163 87.465188 
L 523.269602 87.465188 
L 523.383927 88.015695 
L 523.591149 87.465188 
L 523.715509 87.465188 
L 523.831347 88.015695 
L 523.972091 86.364173 
L 524.341209 87.465188 
L 524.686447 87.465188 
L 524.897399 86.91468 
L 525.295514 86.91468 
L 525.619279 87.465188 
L 525.808555 87.465188 
L 525.951642 86.364173 
L 526.130124 87.465188 
L 526.229772 86.91468 
L 526.470379 86.364173 
L 526.617909 86.364173 
L 526.875842 87.465188 
L 527.122487 85.813665 
L 527.432494 85.813665 
L 527.456024 84.71265 
L 527.477674 85.263157 
L 527.639806 85.813665 
L 527.810239 84.71265 
L 527.881328 85.813665 
L 528.138245 85.813665 
L 528.173251 85.263157 
L 528.462707 84.71265 
L 528.635944 84.71265 
L 528.717143 85.813665 
L 529.105595 84.71265 
L 529.168503 85.813665 
L 529.380082 84.71265 
L 529.54284 86.364173 
L 530.037609 85.263157 
L 530.410333 86.91468 
L 530.439154 86.364173 
L 530.675242 86.91468 
L 530.824498 86.91468 
L 530.979448 85.813665 
L 531.16449 86.91468 
L 531.520248 85.813665 
L 531.655221 86.91468 
L 531.801362 86.364173 
L 532.099169 86.364173 
L 532.295838 86.91468 
L 532.672314 86.91468 
L 532.683805 86.364173 
L 533.276334 87.465188 
L 533.590582 85.813665 
L 533.757363 85.813665 
L 533.951747 86.364173 
L 534.006692 85.263157 
L 534.282638 86.364173 
L 534.452553 85.263157 
L 534.623846 86.364173 
L 534.694635 85.813665 
L 535.045938 85.813665 
L 535.256466 85.263157 
L 535.352755 84.162142 
L 535.548778 85.263157 
L 535.871282 84.71265 
L 536.013945 84.162142 
L 536.190217 84.71265 
L 536.340719 82.51062 
L 536.576954 82.51062 
L 536.889363 81.960112 
L 536.927052 83.061127 
L 537.234526 81.960112 
L 537.672199 83.061127 
L 537.790461 81.409605 
L 538.145348 80.859097 
L 538.531878 81.960112 
L 538.776861 82.51062 
L 539.45785 81.960112 
L 539.539417 81.409605 
L 540.496519 81.409605 
L 540.786456 80.859097 
L 541.079733 79.207574 
L 541.832697 79.758082 
L 542.411573 79.758082 
L 542.731285 79.207574 
L 542.813696 79.758082 
L 543.0566 78.657067 
L 543.110715 79.758082 
L 543.376567 79.207574 
L 543.858823 79.207574 
L 544.106301 78.106559 
L 544.33345 79.207574 
L 544.64369 78.106559 
L 544.764639 78.657067 
L 544.930332 78.106559 
L 545.362928 78.657067 
L 545.612958 78.106559 
L 546.34428 78.106559 
L 546.518837 78.657067 
L 546.942404 77.556052 
L 547.114571 78.657067 
L 547.263073 78.657067 
L 547.320817 78.106559 
L 547.531345 78.106559 
L 547.758404 77.556052 
L 547.913774 78.657067 
L 548.155007 77.556052 
L 548.260948 78.657067 
L 548.556759 77.556052 
L 548.738653 77.556052 
L 548.856033 78.106559 
L 549.048386 78.106559 
L 549.102741 78.657067 
L 549.113902 78.106559 
L 549.442279 78.106559 
L 549.553384 78.657067 
L 549.85461 77.556052 
L 550.132001 78.657067 
L 550.607383 78.106559 
L 551.623268 78.106559 
L 551.866892 78.657067 
L 552.125899 78.106559 
L 552.29262 78.657067 
L 552.395608 78.106559 
L 553.117102 78.106559 
L 553.337379 78.657067 
L 553.843151 77.556052 
L 553.966126 78.106559 
L 554.370674 77.556052 
L 554.812494 78.106559 
L 555.047152 77.556052 
L 555.599233 78.657067 
L 555.744091 79.207574 
L 555.984097 79.207574 
L 556.446355 77.556052 
L 556.572093 77.556052 
L 556.731718 78.657067 
L 557.106629 78.657067 
L 557.316914 78.106559 
L 557.476381 78.106559 
L 557.64126 78.657067 
L 557.952566 78.657067 
L 558.377637 78.106559 
L 558.613598 78.106559 
L 558.710195 77.556052 
L 558.936987 78.657067 
L 559.056476 77.556052 
L 559.205034 78.106559 
L 559.298858 77.556052 
L 559.894505 77.556052 
L 559.916065 76.455037 
L 560.012253 77.005544 
L 560.192211 77.005544 
L 560.299747 77.556052 
L 560.468897 77.005544 
L 560.655403 77.556052 
L 561.131013 77.005544 
L 561.534979 77.005544 
L 561.688412 75.904529 
L 561.748922 76.455037 
L 561.929709 75.904529 
L 562.172162 76.455037 
L 562.285666 77.005544 
L 562.454856 76.455037 
L 562.621706 77.005544 
L 562.822394 75.904529 
L 562.907421 77.005544 
L 563.087731 85.263157 
L 563.580042 85.263157 
L 563.715735 85.813665 
L 563.715735 85.813665 
" clip-path="url(#pc7f6d8a547)" style="fill: none; stroke-dasharray: 6,1.5; stroke-dashoffset: 0; stroke: #008000; stroke-width: 1.5"/>
   </g>
   <g id="line2d_20">
    <path d="M 38.539265 362.168452 
L 39.864827 363.269467 
L 41.18611 363.269467 
L 42.464162 362.718959 
L 44.31504 362.718959 
L 48.180621 362.168452 
L 48.289763 362.718959 
L 51.637196 362.718959 
L 51.95267 363.819974 
L 52.650634 363.819974 
L 52.940845 360.516929 
L 53.327612 363.819974 
L 55.211049 363.819974 
L 55.556422 360.516929 
L 58.153971 360.516929 
L 59.523208 361.067436 
L 59.709674 361.617944 
L 60.750518 361.617944 
L 61.042662 359.966421 
L 64.235934 359.966421 
L 64.614688 360.516929 
L 74.350438 360.516929 
L 74.657094 359.966421 
L 80.523056 359.966421 
L 80.815287 362.168452 
L 129.457346 362.168452 
L 129.785332 363.269467 
L 130.181901 366.572512 
L 130.465185 366.572512 
L 130.785385 367.123019 
L 132.70835 367.123019 
L 135.360187 368.774542 
L 135.630959 368.774542 
L 136.084972 369.32505 
L 149.489187 369.32505 
L 150.209472 370.426065 
L 180.621215 370.426065 
L 180.963305 370.976572 
L 181.318454 370.426065 
L 183.38618 370.426065 
L 183.69016 370.976572 
L 189.221295 370.976572 
L 190.435639 372.077587 
L 190.638162 370.976572 
L 191.027999 370.976572 
L 191.349328 372.077587 
L 198.835278 372.077587 
L 199.184017 371.52708 
L 199.387047 372.077587 
L 217.003204 372.077587 
L 217.31088 373.178602 
L 256.544955 373.178602 
L 256.917449 373.72911 
L 346.891616 373.72911 
L 347.251431 373.178602 
L 357.952602 373.178602 
L 358.371977 373.72911 
L 358.484061 374.830125 
L 386.675363 374.830125 
L 386.872035 374.279617 
L 389.634944 374.279617 
L 389.789274 374.830125 
L 501.221265 374.830125 
L 501.246855 374.279617 
L 509.778529 374.279617 
L 510.08822 374.830125 
L 542.075244 374.830125 
L 542.411573 374.279617 
L 563.715735 374.279617 
L 563.715735 374.279617 
" clip-path="url(#pc7f6d8a547)" style="fill: none; stroke-dasharray: 9,3; stroke-dashoffset: 0; stroke: #ffa500; stroke-width: 1.5"/>
   </g>
   <g id="line2d_21">
    <path d="M 38.539265 324.183431 
L 48.180621 324.183431 
L 48.289763 324.733939 
L 51.637196 324.733939 
L 51.95267 325.284446 
L 52.650634 325.284446 
L 52.940845 326.385461 
L 53.327612 325.284446 
L 55.211049 325.284446 
L 55.789899 326.935969 
L 57.152144 326.935969 
L 57.459052 327.486476 
L 57.644627 326.935969 
L 57.799858 327.486476 
L 72.087342 327.486476 
L 72.391483 328.587491 
L 72.511167 327.486476 
L 73.044417 328.587491 
L 90.112902 328.587491 
L 90.836219 329.137999 
L 91.000073 328.587491 
L 92.160295 328.587491 
L 92.475357 329.137999 
L 92.822963 328.587491 
L 93.650008 328.587491 
L 94.106828 329.137999 
L 94.445957 328.587491 
L 120.739057 328.587491 
L 121.022584 329.137999 
L 121.384879 329.137999 
L 121.706145 328.587491 
L 122.036676 328.587491 
L 122.264429 329.137999 
L 122.511269 328.587491 
L 122.921479 329.137999 
L 129.785332 329.137999 
L 130.181901 328.587491 
L 130.465185 328.587491 
L 130.785385 329.688506 
L 132.346168 329.688506 
L 132.70835 332.441044 
L 135.360187 330.239014 
L 135.630959 330.789522 
L 137.526964 330.789522 
L 137.896862 333.542059 
L 138.223047 334.092567 
L 152.917102 334.092567 
L 153.430788 333.542059 
L 153.837287 334.092567 
L 154.743958 333.542059 
L 156.952188 333.542059 
L 158.258577 334.092567 
L 163.712776 334.092567 
L 164.125182 334.643074 
L 198.57012 334.643074 
L 198.835278 335.193582 
L 199.184017 334.643074 
L 205.319997 334.643074 
L 205.709365 341.799672 
L 206.615668 341.799672 
L 206.985461 346.203733 
L 207.311485 347.855255 
L 227.05635 347.855255 
L 229.833436 348.405763 
L 259.137073 348.405763 
L 259.46285 350.607793 
L 266.254045 350.607793 
L 266.561628 347.304748 
L 282.260654 347.304748 
L 282.440353 347.855255 
L 311.673884 347.855255 
L 311.890071 348.405763 
L 312.232821 347.855255 
L 320.130415 347.855255 
L 320.276857 348.405763 
L 320.57565 347.855255 
L 322.57822 347.855255 
L 322.856032 348.405763 
L 322.961024 347.855255 
L 325.932167 347.855255 
L 326.139644 348.405763 
L 335.440348 348.405763 
L 335.622223 347.855255 
L 347.251431 347.855255 
L 347.518802 347.304748 
L 347.652837 347.855255 
L 347.817731 347.304748 
L 347.922299 347.855255 
L 348.132091 347.855255 
L 348.220015 347.304748 
L 348.455282 347.855255 
L 349.856283 347.855255 
L 350.120258 347.304748 
L 350.238512 347.855255 
L 358.371977 347.855255 
L 358.484061 347.304748 
L 386.675363 347.304748 
L 386.872035 347.855255 
L 391.289341 347.855255 
L 391.385502 350.607793 
L 391.667386 347.855255 
L 394.222284 347.855255 
L 394.236271 350.607793 
L 394.555461 347.855255 
L 394.581941 350.607793 
L 420.141047 350.607793 
L 420.461656 350.057286 
L 420.737081 350.607793 
L 451.856162 350.607793 
L 452.064611 351.158301 
L 452.199513 350.607793 
L 452.516875 350.607793 
L 452.971267 351.158301 
L 473.468778 351.158301 
L 473.70541 351.708808 
L 476.620911 351.708808 
L 476.915081 352.259316 
L 482.744653 352.259316 
L 482.864641 351.708808 
L 489.561296 351.708808 
L 489.807115 352.259316 
L 501.221265 352.259316 
L 501.246855 356.112869 
L 509.778529 356.112869 
L 510.08822 355.562361 
L 517.772753 355.562361 
L 518.508901 357.764391 
L 525.951642 357.764391 
L 526.229772 357.213884 
L 539.794187 357.213884 
L 540.263838 356.663376 
L 542.075244 356.663376 
L 542.411573 358.865406 
L 542.813696 359.415914 
L 544.930332 359.415914 
L 545.362928 359.966421 
L 562.907421 359.966421 
L 563.087731 356.663376 
L 563.715735 356.663376 
L 563.715735 356.663376 
" clip-path="url(#pc7f6d8a547)" style="fill: none; stroke-dasharray: 12,4.5; stroke-dashoffset: 0; stroke: #ee82ee; stroke-width: 1.5"/>
   </g>
   <g id="patch_3">
    <path d="M 33.2875 374.830125 
L 33.2875 22.318125 
" style="fill: none; stroke: #000000; stroke-width: 0.8; stroke-linejoin: miter; stroke-linecap: square"/>
   </g>
   <g id="patch_4">
    <path d="M 568.9675 374.830125 
L 568.9675 22.318125 
" style="fill: none; stroke: #000000; stroke-width: 0.8; stroke-linejoin: miter; stroke-linecap: square"/>
   </g>
   <g id="patch_5">
    <path d="M 33.2875 374.830125 
L 568.9675 374.830125 
" style="fill: none; stroke: #000000; stroke-width: 0.8; stroke-linejoin: miter; stroke-linecap: square"/>
   </g>
   <g id="patch_6">
    <path d="M 33.2875 22.318125 
L 568.9675 22.318125 
" style="fill: none; stroke: #000000; stroke-width: 0.8; stroke-linejoin: miter; stroke-linecap: square"/>
   </g>
   <g id="text_17">
    <!-- Rust/Coreutils running GNU's testsuite -->
    <g transform="translate(186.090625 16.318125) scale(0.12 -0.12)">
     <defs>
      <path id="DejaVuSans-52" d="M 2841 2188 
Q 3044 2119 3236 1894 
Q 3428 1669 3622 1275 
L 4263 0 
L 3584 0 
L 2988 1197 
Q 2756 1666 2539 1819 
Q 2322 1972 1947 1972 
L 1259 1972 
L 1259 0 
L 628 0 
L 628 4666 
L 2053 4666 
Q 2853 4666 3247 4331 
Q 3641 3997 3641 3322 
Q 3641 2881 3436 2590 
Q 3231 2300 2841 2188 
z
M 1259 4147 
L 1259 2491 
L 2053 2491 
Q 2509 2491 2742 2702 
Q 2975 2913 2975 3322 
Q 2975 3731 2742 3939 
Q 2509 4147 2053 4147 
L 1259 4147 
z
" transform="scale(0.015625)"/>
      <path id="DejaVuSans-75" d="M 544 1381 
L 544 3500 
L 1119 3500 
L 1119 1403 
Q 1119 906 1312 657 
Q 1506 409 1894 409 
Q 2359 409 2629 706 
Q 2900 1003 2900 1516 
L 2900 3500 
L 3475 3500 
L 3475 0 
L 2900 0 
L 2900 538 
Q 2691 219 2414 64 
Q 2138 -91 1772 -91 
Q 1169 -91 856 284 
Q 544 659 544 1381 
z
M 1991 3584 
L 1991 3584 
z
" transform="scale(0.015625)"/>
      <path id="DejaVuSans-73" d="M 2834 3397 
L 2834 2853 
Q 2591 2978 2328 3040 
Q 2066 3103 1784 3103 
Q 1356 3103 1142 2972 
Q 928 2841 928 2578 
Q 928 2378 1081 2264 
Q 1234 2150 1697 2047 
L 1894 2003 
Q 2506 1872 2764 1633 
Q 3022 1394 3022 966 
Q 3022 478 2636 193 
Q 2250 -91 1575 -91 
Q 1294 -91 989 -36 
Q 684 19 347 128 
L 347 722 
Q 666 556 975 473 
Q 1284 391 1588 391 
Q 1994 391 2212 530 
Q 2431 669 2431 922 
Q 2431 1156 2273 1281 
Q 2116 1406 1581 1522 
L 1381 1569 
Q 847 1681 609 1914 
Q 372 2147 372 2553 
Q 372 3047 722 3315 
Q 1072 3584 1716 3584 
Q 2034 3584 2315 3537 
Q 2597 3491 2834 3397 
z
" transform="scale(0.015625)"/>
      <path id="DejaVuSans-74" d="M 1172 4494 
L 1172 3500 
L 2356 3500 
L 2356 3053 
L 1172 3053 
L 1172 1153 
Q 1172 725 1289 603 
Q 1406 481 1766 481 
L 2356 481 
L 2356 0 
L 1766 0 
Q 1100 0 847 248 
Q 594 497 594 1153 
L 594 3053 
L 172 3053 
L 172 3500 
L 594 3500 
L 594 4494 
L 1172 4494 
z
" transform="scale(0.015625)"/>
      <path id="DejaVuSans-2f" d="M 1625 4666 
L 2156 4666 
L 531 -594 
L 0 -594 
L 1625 4666 
z
" transform="scale(0.015625)"/>
      <path id="DejaVuSans-43" d="M 4122 4306 
L 4122 3641 
Q 3803 3938 3442 4084 
Q 3081 4231 2675 4231 
Q 1875 4231 1450 3742 
Q 1025 3253 1025 2328 
Q 1025 1406 1450 917 
Q 1875 428 2675 428 
Q 3081 428 3442 575 
Q 3803 722 4122 1019 
L 4122 359 
Q 3791 134 3420 21 
Q 3050 -91 2638 -91 
Q 1578 -91 968 557 
Q 359 1206 359 2328 
Q 359 3453 968 4101 
Q 1578 4750 2638 4750 
Q 3056 4750 3426 4639 
Q 3797 4528 4122 4306 
z
" transform="scale(0.015625)"/>
      <path id="DejaVuSans-6f" d="M 1959 3097 
Q 1497 3097 1228 2736 
Q 959 2375 959 1747 
Q 959 1119 1226 758 
Q 1494 397 1959 397 
Q 2419 397 2687 759 
Q 2956 1122 2956 1747 
Q 2956 2369 2687 2733 
Q 2419 3097 1959 3097 
z
M 1959 3584 
Q 2709 3584 3137 3096 
Q 3566 2609 3566 1747 
Q 3566 888 3137 398 
Q 2709 -91 1959 -91 
Q 1206 -91 779 398 
Q 353 888 353 1747 
Q 353 2609 779 3096 
Q 1206 3584 1959 3584 
z
" transform="scale(0.015625)"/>
      <path id="DejaVuSans-72" d="M 2631 2963 
Q 2534 3019 2420 3045 
Q 2306 3072 2169 3072 
Q 1681 3072 1420 2755 
Q 1159 2438 1159 1844 
L 1159 0 
L 581 0 
L 581 3500 
L 1159 3500 
L 1159 2956 
Q 1341 3275 1631 3429 
Q 1922 3584 2338 3584 
Q 2397 3584 2469 3576 
Q 2541 3569 2628 3553 
L 2631 2963 
z
" transform="scale(0.015625)"/>
      <path id="DejaVuSans-65" d="M 3597 1894 
L 3597 1613 
L 953 1613 
Q 991 1019 1311 708 
Q 1631 397 2203 397 
Q 2534 397 2845 478 
Q 3156 559 3463 722 
L 3463 178 
Q 3153 47 2828 -22 
Q 2503 -91 2169 -91 
Q 1331 -91 842 396 
Q 353 884 353 1716 
Q 353 2575 817 3079 
Q 1281 3584 2069 3584 
Q 2775 3584 3186 3129 
Q 3597 2675 3597 1894 
z
M 3022 2063 
Q 3016 2534 2758 2815 
Q 2500 3097 2075 3097 
Q 1594 3097 1305 2825 
Q 1016 2553 972 2059 
L 3022 2063 
z
" transform="scale(0.015625)"/>
      <path id="DejaVuSans-69" d="M 603 3500 
L 1178 3500 
L 1178 0 
L 603 0 
L 603 3500 
z
M 603 4863 
L 1178 4863 
L 1178 4134 
L 603 4134 
L 603 4863 
z
" transform="scale(0.015625)"/>
      <path id="DejaVuSans-6c" d="M 603 4863 
L 1178 4863 
L 1178 0 
L 603 0 
L 603 4863 
z
" transform="scale(0.015625)"/>
      <path id="DejaVuSans-20" transform="scale(0.015625)"/>
      <path id="DejaVuSans-6e" d="M 3513 2113 
L 3513 0 
L 2938 0 
L 2938 2094 
Q 2938 2591 2744 2837 
Q 2550 3084 2163 3084 
Q 1697 3084 1428 2787 
Q 1159 2491 1159 1978 
L 1159 0 
L 581 0 
L 581 3500 
L 1159 3500 
L 1159 2956 
Q 1366 3272 1645 3428 
Q 1925 3584 2291 3584 
Q 2894 3584 3203 3211 
Q 3513 2838 3513 2113 
z
" transform="scale(0.015625)"/>
      <path id="DejaVuSans-67" d="M 2906 1791 
Q 2906 2416 2648 2759 
Q 2391 3103 1925 3103 
Q 1463 3103 1205 2759 
Q 947 2416 947 1791 
Q 947 1169 1205 825 
Q 1463 481 1925 481 
Q 2391 481 2648 825 
Q 2906 1169 2906 1791 
z
M 3481 434 
Q 3481 -459 3084 -895 
Q 2688 -1331 1869 -1331 
Q 1566 -1331 1297 -1286 
Q 1028 -1241 775 -1147 
L 775 -588 
Q 1028 -725 1275 -790 
Q 1522 -856 1778 -856 
Q 2344 -856 2625 -561 
Q 2906 -266 2906 331 
L 2906 616 
Q 2728 306 2450 153 
Q 2172 0 1784 0 
Q 1141 0 747 490 
Q 353 981 353 1791 
Q 353 2603 747 3093 
Q 1141 3584 1784 3584 
Q 2172 3584 2450 3431 
Q 2728 3278 2906 2969 
L 2906 3500 
L 3481 3500 
L 3481 434 
z
" transform="scale(0.015625)"/>
      <path id="DejaVuSans-47" d="M 3809 666 
L 3809 1919 
L 2778 1919 
L 2778 2438 
L 4434 2438 
L 4434 434 
Q 4069 175 3628 42 
Q 3188 -91 2688 -91 
Q 1594 -91 976 548 
Q 359 1188 359 2328 
Q 359 3472 976 4111 
Q 1594 4750 2688 4750 
Q 3144 4750 3555 4637 
Q 3966 4525 4313 4306 
L 4313 3634 
Q 3963 3931 3569 4081 
Q 3175 4231 2741 4231 
Q 1884 4231 1454 3753 
Q 1025 3275 1025 2328 
Q 1025 1384 1454 906 
Q 1884 428 2741 428 
Q 3075 428 3337 486 
Q 3600 544 3809 666 
z
" transform="scale(0.015625)"/>
      <path id="DejaVuSans-4e" d="M 628 4666 
L 1478 4666 
L 3547 763 
L 3547 4666 
L 4159 4666 
L 4159 0 
L 3309 0 
L 1241 3903 
L 1241 0 
L 628 0 
L 628 4666 
z
" transform="scale(0.015625)"/>
      <path id="DejaVuSans-55" d="M 556 4666 
L 1191 4666 
L 1191 1831 
Q 1191 1081 1462 751 
Q 1734 422 2344 422 
Q 2950 422 3222 751 
Q 3494 1081 3494 1831 
L 3494 4666 
L 4128 4666 
L 4128 1753 
Q 4128 841 3676 375 
Q 3225 -91 2344 -91 
Q 1459 -91 1007 375 
Q 556 841 556 1753 
L 556 4666 
z
" transform="scale(0.015625)"/>
      <path id="DejaVuSans-27" d="M 1147 4666 
L 1147 2931 
L 616 2931 
L 616 4666 
L 1147 4666 
z
" transform="scale(0.015625)"/>
     </defs>
     <use xlink:href="#DejaVuSans-52"/>
     <use xlink:href="#DejaVuSans-75" x="64.982422"/>
     <use xlink:href="#DejaVuSans-73" x="128.361328"/>
     <use xlink:href="#DejaVuSans-74" x="180.460938"/>
     <use xlink:href="#DejaVuSans-2f" x="219.669922"/>
     <use xlink:href="#DejaVuSans-43" x="253.361328"/>
     <use xlink:href="#DejaVuSans-6f" x="323.185547"/>
     <use xlink:href="#DejaVuSans-72" x="384.367188"/>
     <use xlink:href="#DejaVuSans-65" x="423.230469"/>
     <use xlink:href="#DejaVuSans-75" x="484.753906"/>
     <use xlink:href="#DejaVuSans-74" x="548.132812"/>
     <use xlink:href="#DejaVuSans-69" x="587.341797"/>
     <use xlink:href="#DejaVuSans-6c" x="615.125"/>
     <use xlink:href="#DejaVuSans-73" x="642.908203"/>
     <use xlink:href="#DejaVuSans-20" x="695.007812"/>
     <use xlink:href="#DejaVuSans-72" x="726.794922"/>
     <use xlink:href="#DejaVuSans-75" x="767.908203"/>
     <use xlink:href="#DejaVuSans-6e" x="831.287109"/>
     <use xlink:href="#DejaVuSans-6e" x="894.666016"/>
     <use xlink:href="#DejaVuSans-69" x="958.044922"/>
     <use xlink:href="#DejaVuSans-6e" x="985.828125"/>
     <use xlink:href="#DejaVuSans-67" x="1049.207031"/>
     <use xlink:href="#DejaVuSans-20" x="1112.683594"/>
     <use xlink:href="#DejaVuSans-47" x="1144.470703"/>
     <use xlink:href="#DejaVuSans-4e" x="1221.960938"/>
     <use xlink:href="#DejaVuSans-55" x="1296.765625"/>
     <use xlink:href="#DejaVuSans-27" x="1369.958984"/>
     <use xlink:href="#DejaVuSans-73" x="1397.449219"/>
     <use xlink:href="#DejaVuSans-20" x="1449.548828"/>
     <use xlink:href="#DejaVuSans-74" x="1481.335938"/>
     <use xlink:href="#DejaVuSans-65" x="1520.544922"/>
     <use xlink:href="#DejaVuSans-73" x="1582.068359"/>
     <use xlink:href="#DejaVuSans-74" x="1634.167969"/>
     <use xlink:href="#DejaVuSans-73" x="1673.376953"/>
     <use xlink:href="#DejaVuSans-75" x="1725.476562"/>
     <use xlink:href="#DejaVuSans-69" x="1788.855469"/>
     <use xlink:href="#DejaVuSans-74" x="1816.638672"/>
     <use xlink:href="#DejaVuSans-65" x="1855.847656"/>
    </g>
   </g>
   <g id="legend_1">
    <g id="patch_7">
     <path d="M 505.762812 236.769437 
L 561.9675 236.769437 
Q 563.9675 236.769437 563.9675 234.769437 
L 563.9675 162.378812 
Q 563.9675 160.378812 561.9675 160.378812 
L 505.762812 160.378812 
Q 503.762812 160.378812 503.762812 162.378812 
L 503.762812 234.769437 
Q 503.762812 236.769437 505.762812 236.769437 
z
" style="fill: #ffffff; opacity: 0.8; stroke: #cccccc; stroke-linejoin: miter"/>
    </g>
    <g id="line2d_22">
     <path d="M 507.762812 168.47725 
L 517.762812 168.47725 
L 527.762812 168.47725 
" style="fill: none; stroke: #0000ff; stroke-width: 1.5; stroke-linecap: square"/>
    </g>
    <g id="text_18">
     <!-- total -->
     <g transform="translate(535.762812 171.97725) scale(0.1 -0.1)">
      <defs>
       <path id="DejaVuSans-61" d="M 2194 1759 
Q 1497 1759 1228 1600 
Q 959 1441 959 1056 
Q 959 750 1161 570 
Q 1363 391 1709 391 
Q 2188 391 2477 730 
Q 2766 1069 2766 1631 
L 2766 1759 
L 2194 1759 
z
M 3341 1997 
L 3341 0 
L 2766 0 
L 2766 531 
Q 2569 213 2275 61 
Q 1981 -91 1556 -91 
Q 1019 -91 701 211 
Q 384 513 384 1019 
Q 384 1609 779 1909 
Q 1175 2209 1959 2209 
L 2766 2209 
L 2766 2266 
Q 2766 2663 2505 2880 
Q 2244 3097 1772 3097 
Q 1472 3097 1187 3025 
Q 903 2953 641 2809 
L 641 3341 
Q 956 3463 1253 3523 
Q 1550 3584 1831 3584 
Q 2591 3584 2966 3190 
Q 3341 2797 3341 1997 
z
" transform="scale(0.015625)"/>
      </defs>
      <use xlink:href="#DejaVuSans-74"/>
      <use xlink:href="#DejaVuSans-6f" x="39.208984"/>
      <use xlink:href="#DejaVuSans-74" x="100.390625"/>
      <use xlink:href="#DejaVuSans-61" x="139.599609"/>
      <use xlink:href="#DejaVuSans-6c" x="200.878906"/>
     </g>
    </g>
    <g id="line2d_23">
     <path d="M 507.762812 183.155375 
L 517.762812 183.155375 
L 527.762812 183.155375 
" style="fill: none; stroke-dasharray: 3,1.5; stroke-dashoffset: 0; stroke: #808080; stroke-width: 1.5"/>
    </g>
    <g id="text_19">
     <!-- fail -->
     <g transform="translate(535.762812 186.655375) scale(0.1 -0.1)">
      <defs>
       <path id="DejaVuSans-66" d="M 2375 4863 
L 2375 4384 
L 1825 4384 
Q 1516 4384 1395 4259 
Q 1275 4134 1275 3809 
L 1275 3500 
L 2222 3500 
L 2222 3053 
L 1275 3053 
L 1275 0 
L 697 0 
L 697 3053 
L 147 3053 
L 147 3500 
L 697 3500 
L 697 3744 
Q 697 4328 969 4595 
Q 1241 4863 1831 4863 
L 2375 4863 
z
" transform="scale(0.015625)"/>
      </defs>
      <use xlink:href="#DejaVuSans-66"/>
      <use xlink:href="#DejaVuSans-61" x="35.205078"/>
      <use xlink:href="#DejaVuSans-69" x="96.484375"/>
      <use xlink:href="#DejaVuSans-6c" x="124.267578"/>
     </g>
    </g>
    <g id="line2d_24">
     <path d="M 507.762812 197.8335 
L 517.762812 197.8335 
L 527.762812 197.8335 
" style="fill: none; stroke-dasharray: 6,1.5; stroke-dashoffset: 0; stroke: #008000; stroke-width: 1.5"/>
    </g>
    <g id="text_20">
     <!-- pass -->
     <g transform="translate(535.762812 201.3335) scale(0.1 -0.1)">
      <defs>
       <path id="DejaVuSans-70" d="M 1159 525 
L 1159 -1331 
L 581 -1331 
L 581 3500 
L 1159 3500 
L 1159 2969 
Q 1341 3281 1617 3432 
Q 1894 3584 2278 3584 
Q 2916 3584 3314 3078 
Q 3713 2572 3713 1747 
Q 3713 922 3314 415 
Q 2916 -91 2278 -91 
Q 1894 -91 1617 61 
Q 1341 213 1159 525 
z
M 3116 1747 
Q 3116 2381 2855 2742 
Q 2594 3103 2138 3103 
Q 1681 3103 1420 2742 
Q 1159 2381 1159 1747 
Q 1159 1113 1420 752 
Q 1681 391 2138 391 
Q 2594 391 2855 752 
Q 3116 1113 3116 1747 
z
" transform="scale(0.015625)"/>
      </defs>
      <use xlink:href="#DejaVuSans-70"/>
      <use xlink:href="#DejaVuSans-61" x="63.476562"/>
      <use xlink:href="#DejaVuSans-73" x="124.755859"/>
      <use xlink:href="#DejaVuSans-73" x="176.855469"/>
     </g>
    </g>
    <g id="line2d_25">
     <path d="M 507.762812 212.511625 
L 517.762812 212.511625 
L 527.762812 212.511625 
" style="fill: none; stroke-dasharray: 9,3; stroke-dashoffset: 0; stroke: #ffa500; stroke-width: 1.5"/>
    </g>
    <g id="text_21">
     <!-- error -->
     <g transform="translate(535.762812 216.011625) scale(0.1 -0.1)">
      <use xlink:href="#DejaVuSans-65"/>
      <use xlink:href="#DejaVuSans-72" x="61.523438"/>
      <use xlink:href="#DejaVuSans-72" x="100.886719"/>
      <use xlink:href="#DejaVuSans-6f" x="139.75"/>
      <use xlink:href="#DejaVuSans-72" x="200.931641"/>
     </g>
    </g>
    <g id="line2d_26">
     <path d="M 507.762812 227.18975 
L 517.762812 227.18975 
L 527.762812 227.18975 
" style="fill: none; stroke-dasharray: 12,4.5; stroke-dashoffset: 0; stroke: #ee82ee; stroke-width: 1.5"/>
    </g>
    <g id="text_22">
     <!-- skip -->
     <g transform="translate(535.762812 230.68975) scale(0.1 -0.1)">
      <defs>
       <path id="DejaVuSans-6b" d="M 581 4863 
L 1159 4863 
L 1159 1991 
L 2875 3500 
L 3609 3500 
L 1753 1863 
L 3688 0 
L 2938 0 
L 1159 1709 
L 1159 0 
L 581 0 
L 581 4863 
z
" transform="scale(0.015625)"/>
      </defs>
      <use xlink:href="#DejaVuSans-73"/>
      <use xlink:href="#DejaVuSans-6b" x="52.099609"/>
      <use xlink:href="#DejaVuSans-69" x="110.009766"/>
      <use xlink:href="#DejaVuSans-70" x="137.792969"/>
     </g>
    </g>
   </g>
  </g>
 </g>
 <defs>
  <clipPath id="pc7f6d8a547">
   <rect x="33.2875" y="22.318125" width="535.68" height="352.512"/>
  </clipPath>
 </defs>
</svg>
