<?xml version="1.0" encoding="utf-8" standalone="no"?>
<!DOCTYPE svg PUBLIC "-//W3C//DTD SVG 1.1//EN"
  "http://www.w3.org/Graphics/SVG/1.1/DTD/svg11.dtd">
<svg xmlns:xlink="http://www.w3.org/1999/xlink" width="576.1675pt" height="418.303033pt" viewBox="0 0 576.1675 418.303033" xmlns="http://www.w3.org/2000/svg" version="1.1">
 <metadata>
  <rdf:RDF xmlns:dc="http://purl.org/dc/elements/1.1/" xmlns:cc="http://creativecommons.org/ns#" xmlns:rdf="http://www.w3.org/1999/02/22-rdf-syntax-ns#">
   <cc:Work>
    <dc:type rdf:resource="http://purl.org/dc/dcmitype/StillImage"/>
    <dc:date>2025-10-06T02:30:11.065391</dc:date>
    <dc:format>image/svg+xml</dc:format>
    <dc:creator>
     <cc:Agent>
      <dc:title>Matplotlib v3.6.3, https://matplotlib.org/</dc:title>
     </cc:Agent>
    </dc:creator>
   </cc:Work>
  </rdf:RDF>
 </metadata>
 <defs>
  <style type="text/css">*{stroke-linejoin: round; stroke-linecap: butt}</style>
 </defs>
 <g id="figure_1">
  <g id="patch_1">
   <path d="M -0 418.303033 
L 576.1675 418.303033 
L 576.1675 0 
L -0 0 
z
" style="fill: #ffffff"/>
  </g>
  <g id="axes_1">
   <g id="patch_2">
    <path d="M 33.2875 374.830125 
L 568.9675 374.830125 
L 568.9675 22.318125 
L 33.2875 22.318125 
z
" style="fill: #ffffff"/>
   </g>
   <g id="matplotlib.axis_1">
    <g id="xtick_1">
     <g id="line2d_1">
      <defs>
       <path id="m5e982e5aef" d="M 0 0 
L 0 3.5 
" style="stroke: #000000; stroke-width: 0.8"/>
      </defs>
      <g>
       <use xlink:href="#m5e982e5aef" x="61.560654" y="374.830125" style="stroke: #000000; stroke-width: 0.8"/>
      </g>
     </g>
     <g id="text_1">
      <!-- 2021-07 -->
      <g transform="translate(24.335833 409.301971) rotate(-30) scale(0.1 -0.1)">
       <defs>
        <path id="DejaVuSans-32" d="M 1228 531 
L 3431 531 
L 3431 0 
L 469 0 
L 469 531 
Q 828 903 1448 1529 
Q 2069 2156 2228 2338 
Q 2531 2678 2651 2914 
Q 2772 3150 2772 3378 
Q 2772 3750 2511 3984 
Q 2250 4219 1831 4219 
Q 1534 4219 1204 4116 
Q 875 4013 500 3803 
L 500 4441 
Q 881 4594 1212 4672 
Q 1544 4750 1819 4750 
Q 2544 4750 2975 4387 
Q 3406 4025 3406 3419 
Q 3406 3131 3298 2873 
Q 3191 2616 2906 2266 
Q 2828 2175 2409 1742 
Q 1991 1309 1228 531 
z
" transform="scale(0.015625)"/>
        <path id="DejaVuSans-30" d="M 2034 4250 
Q 1547 4250 1301 3770 
Q 1056 3291 1056 2328 
Q 1056 1369 1301 889 
Q 1547 409 2034 409 
Q 2525 409 2770 889 
Q 3016 1369 3016 2328 
Q 3016 3291 2770 3770 
Q 2525 4250 2034 4250 
z
M 2034 4750 
Q 2819 4750 3233 4129 
Q 3647 3509 3647 2328 
Q 3647 1150 3233 529 
Q 2819 -91 2034 -91 
Q 1250 -91 836 529 
Q 422 1150 422 2328 
Q 422 3509 836 4129 
Q 1250 4750 2034 4750 
z
" transform="scale(0.015625)"/>
        <path id="DejaVuSans-31" d="M 794 531 
L 1825 531 
L 1825 4091 
L 703 3866 
L 703 4441 
L 1819 4666 
L 2450 4666 
L 2450 531 
L 3481 531 
L 3481 0 
L 794 0 
L 794 531 
z
" transform="scale(0.015625)"/>
        <path id="DejaVuSans-2d" d="M 313 2009 
L 1997 2009 
L 1997 1497 
L 313 1497 
L 313 2009 
z
" transform="scale(0.015625)"/>
        <path id="DejaVuSans-37" d="M 525 4666 
L 3525 4666 
L 3525 4397 
L 1831 0 
L 1172 0 
L 2766 4134 
L 525 4134 
L 525 4666 
z
" transform="scale(0.015625)"/>
       </defs>
       <use xlink:href="#DejaVuSans-32"/>
       <use xlink:href="#DejaVuSans-30" x="63.623047"/>
       <use xlink:href="#DejaVuSans-32" x="127.246094"/>
       <use xlink:href="#DejaVuSans-31" x="190.869141"/>
       <use xlink:href="#DejaVuSans-2d" x="254.492188"/>
       <use xlink:href="#DejaVuSans-30" x="290.576172"/>
       <use xlink:href="#DejaVuSans-37" x="354.199219"/>
      </g>
     </g>
    </g>
    <g id="xtick_2">
     <g id="line2d_2">
      <g>
       <use xlink:href="#m5e982e5aef" x="120.877225" y="374.830125" style="stroke: #000000; stroke-width: 0.8"/>
      </g>
     </g>
     <g id="text_2">
      <!-- 2022-01 -->
      <g transform="translate(83.652404 409.301971) rotate(-30) scale(0.1 -0.1)">
       <use xlink:href="#DejaVuSans-32"/>
       <use xlink:href="#DejaVuSans-30" x="63.623047"/>
       <use xlink:href="#DejaVuSans-32" x="127.246094"/>
       <use xlink:href="#DejaVuSans-32" x="190.869141"/>
       <use xlink:href="#DejaVuSans-2d" x="254.492188"/>
       <use xlink:href="#DejaVuSans-30" x="290.576172"/>
       <use xlink:href="#DejaVuSans-31" x="354.199219"/>
      </g>
     </g>
    </g>
    <g id="xtick_3">
     <g id="line2d_3">
      <g>
       <use xlink:href="#m5e982e5aef" x="179.226677" y="374.830125" style="stroke: #000000; stroke-width: 0.8"/>
      </g>
     </g>
     <g id="text_3">
      <!-- 2022-07 -->
      <g transform="translate(142.001856 409.301971) rotate(-30) scale(0.1 -0.1)">
       <use xlink:href="#DejaVuSans-32"/>
       <use xlink:href="#DejaVuSans-30" x="63.623047"/>
       <use xlink:href="#DejaVuSans-32" x="127.246094"/>
       <use xlink:href="#DejaVuSans-32" x="190.869141"/>
       <use xlink:href="#DejaVuSans-2d" x="254.492188"/>
       <use xlink:href="#DejaVuSans-30" x="290.576172"/>
       <use xlink:href="#DejaVuSans-37" x="354.199219"/>
      </g>
     </g>
    </g>
    <g id="xtick_4">
     <g id="line2d_4">
      <g>
       <use xlink:href="#m5e982e5aef" x="238.543248" y="374.830125" style="stroke: #000000; stroke-width: 0.8"/>
      </g>
     </g>
     <g id="text_4">
      <!-- 2023-01 -->
      <g transform="translate(201.318427 409.301971) rotate(-30) scale(0.1 -0.1)">
       <defs>
        <path id="DejaVuSans-33" d="M 2597 2516 
Q 3050 2419 3304 2112 
Q 3559 1806 3559 1356 
Q 3559 666 3084 287 
Q 2609 -91 1734 -91 
Q 1441 -91 1130 -33 
Q 819 25 488 141 
L 488 750 
Q 750 597 1062 519 
Q 1375 441 1716 441 
Q 2309 441 2620 675 
Q 2931 909 2931 1356 
Q 2931 1769 2642 2001 
Q 2353 2234 1838 2234 
L 1294 2234 
L 1294 2753 
L 1863 2753 
Q 2328 2753 2575 2939 
Q 2822 3125 2822 3475 
Q 2822 3834 2567 4026 
Q 2313 4219 1838 4219 
Q 1578 4219 1281 4162 
Q 984 4106 628 3988 
L 628 4550 
Q 988 4650 1302 4700 
Q 1616 4750 1894 4750 
Q 2613 4750 3031 4423 
Q 3450 4097 3450 3541 
Q 3450 3153 3228 2886 
Q 3006 2619 2597 2516 
z
" transform="scale(0.015625)"/>
       </defs>
       <use xlink:href="#DejaVuSans-32"/>
       <use xlink:href="#DejaVuSans-30" x="63.623047"/>
       <use xlink:href="#DejaVuSans-32" x="127.246094"/>
       <use xlink:href="#DejaVuSans-33" x="190.869141"/>
       <use xlink:href="#DejaVuSans-2d" x="254.492188"/>
       <use xlink:href="#DejaVuSans-30" x="290.576172"/>
       <use xlink:href="#DejaVuSans-31" x="354.199219"/>
      </g>
     </g>
    </g>
    <g id="xtick_5">
     <g id="line2d_5">
      <g>
       <use xlink:href="#m5e982e5aef" x="296.8927" y="374.830125" style="stroke: #000000; stroke-width: 0.8"/>
      </g>
     </g>
     <g id="text_5">
      <!-- 2023-07 -->
      <g transform="translate(259.66788 409.301971) rotate(-30) scale(0.1 -0.1)">
       <use xlink:href="#DejaVuSans-32"/>
       <use xlink:href="#DejaVuSans-30" x="63.623047"/>
       <use xlink:href="#DejaVuSans-32" x="127.246094"/>
       <use xlink:href="#DejaVuSans-33" x="190.869141"/>
       <use xlink:href="#DejaVuSans-2d" x="254.492188"/>
       <use xlink:href="#DejaVuSans-30" x="290.576172"/>
       <use xlink:href="#DejaVuSans-37" x="354.199219"/>
      </g>
     </g>
    </g>
    <g id="xtick_6">
     <g id="line2d_6">
      <g>
       <use xlink:href="#m5e982e5aef" x="356.209271" y="374.830125" style="stroke: #000000; stroke-width: 0.8"/>
      </g>
     </g>
     <g id="text_6">
      <!-- 2024-01 -->
      <g transform="translate(318.98445 409.301971) rotate(-30) scale(0.1 -0.1)">
       <defs>
        <path id="DejaVuSans-34" d="M 2419 4116 
L 825 1625 
L 2419 1625 
L 2419 4116 
z
M 2253 4666 
L 3047 4666 
L 3047 1625 
L 3713 1625 
L 3713 1100 
L 3047 1100 
L 3047 0 
L 2419 0 
L 2419 1100 
L 313 1100 
L 313 1709 
L 2253 4666 
z
" transform="scale(0.015625)"/>
       </defs>
       <use xlink:href="#DejaVuSans-32"/>
       <use xlink:href="#DejaVuSans-30" x="63.623047"/>
       <use xlink:href="#DejaVuSans-32" x="127.246094"/>
       <use xlink:href="#DejaVuSans-34" x="190.869141"/>
       <use xlink:href="#DejaVuSans-2d" x="254.492188"/>
       <use xlink:href="#DejaVuSans-30" x="290.576172"/>
       <use xlink:href="#DejaVuSans-31" x="354.199219"/>
      </g>
     </g>
    </g>
    <g id="xtick_7">
     <g id="line2d_7">
      <g>
       <use xlink:href="#m5e982e5aef" x="414.881096" y="374.830125" style="stroke: #000000; stroke-width: 0.8"/>
      </g>
     </g>
     <g id="text_7">
      <!-- 2024-07 -->
      <g transform="translate(377.656275 409.301971) rotate(-30) scale(0.1 -0.1)">
       <use xlink:href="#DejaVuSans-32"/>
       <use xlink:href="#DejaVuSans-30" x="63.623047"/>
       <use xlink:href="#DejaVuSans-32" x="127.246094"/>
       <use xlink:href="#DejaVuSans-34" x="190.869141"/>
       <use xlink:href="#DejaVuSans-2d" x="254.492188"/>
       <use xlink:href="#DejaVuSans-30" x="290.576172"/>
       <use xlink:href="#DejaVuSans-37" x="354.199219"/>
      </g>
     </g>
    </g>
    <g id="xtick_8">
     <g id="line2d_8">
      <g>
       <use xlink:href="#m5e982e5aef" x="474.197667" y="374.830125" style="stroke: #000000; stroke-width: 0.8"/>
      </g>
     </g>
     <g id="text_8">
      <!-- 2025-01 -->
      <g transform="translate(436.972846 409.301971) rotate(-30) scale(0.1 -0.1)">
       <defs>
        <path id="DejaVuSans-35" d="M 691 4666 
L 3169 4666 
L 3169 4134 
L 1269 4134 
L 1269 2991 
Q 1406 3038 1543 3061 
Q 1681 3084 1819 3084 
Q 2600 3084 3056 2656 
Q 3513 2228 3513 1497 
Q 3513 744 3044 326 
Q 2575 -91 1722 -91 
Q 1428 -91 1123 -41 
Q 819 9 494 109 
L 494 744 
Q 775 591 1075 516 
Q 1375 441 1709 441 
Q 2250 441 2565 725 
Q 2881 1009 2881 1497 
Q 2881 1984 2565 2268 
Q 2250 2553 1709 2553 
Q 1456 2553 1204 2497 
Q 953 2441 691 2322 
L 691 4666 
z
" transform="scale(0.015625)"/>
       </defs>
       <use xlink:href="#DejaVuSans-32"/>
       <use xlink:href="#DejaVuSans-30" x="63.623047"/>
       <use xlink:href="#DejaVuSans-32" x="127.246094"/>
       <use xlink:href="#DejaVuSans-35" x="190.869141"/>
       <use xlink:href="#DejaVuSans-2d" x="254.492188"/>
       <use xlink:href="#DejaVuSans-30" x="290.576172"/>
       <use xlink:href="#DejaVuSans-31" x="354.199219"/>
      </g>
     </g>
    </g>
    <g id="xtick_9">
     <g id="line2d_9">
      <g>
       <use xlink:href="#m5e982e5aef" x="532.547119" y="374.830125" style="stroke: #000000; stroke-width: 0.8"/>
      </g>
     </g>
     <g id="text_9">
      <!-- 2025-07 -->
      <g transform="translate(495.322298 409.301971) rotate(-30) scale(0.1 -0.1)">
       <use xlink:href="#DejaVuSans-32"/>
       <use xlink:href="#DejaVuSans-30" x="63.623047"/>
       <use xlink:href="#DejaVuSans-32" x="127.246094"/>
       <use xlink:href="#DejaVuSans-35" x="190.869141"/>
       <use xlink:href="#DejaVuSans-2d" x="254.492188"/>
       <use xlink:href="#DejaVuSans-30" x="290.576172"/>
       <use xlink:href="#DejaVuSans-37" x="354.199219"/>
      </g>
     </g>
    </g>
   </g>
   <g id="matplotlib.axis_2">
    <g id="ytick_1">
     <g id="line2d_10">
      <defs>
       <path id="mfc67b2ca0f" d="M 0 0 
L -3.5 0 
" style="stroke: #000000; stroke-width: 0.8"/>
      </defs>
      <g>
       <use xlink:href="#mfc67b2ca0f" x="33.2875" y="374.830125" style="stroke: #000000; stroke-width: 0.8"/>
      </g>
     </g>
     <g id="text_10">
      <!-- 0 -->
      <g transform="translate(19.925 378.629344) scale(0.1 -0.1)">
       <use xlink:href="#DejaVuSans-30"/>
      </g>
     </g>
    </g>
    <g id="ytick_2">
     <g id="line2d_11">
      <g>
       <use xlink:href="#mfc67b2ca0f" x="33.2875" y="319.779371" style="stroke: #000000; stroke-width: 0.8"/>
      </g>
     </g>
     <g id="text_11">
      <!-- 100 -->
      <g transform="translate(7.2 323.578589) scale(0.1 -0.1)">
       <use xlink:href="#DejaVuSans-31"/>
       <use xlink:href="#DejaVuSans-30" x="63.623047"/>
       <use xlink:href="#DejaVuSans-30" x="127.246094"/>
      </g>
     </g>
    </g>
    <g id="ytick_3">
     <g id="line2d_12">
      <g>
       <use xlink:href="#mfc67b2ca0f" x="33.2875" y="264.728616" style="stroke: #000000; stroke-width: 0.8"/>
      </g>
     </g>
     <g id="text_12">
      <!-- 200 -->
      <g transform="translate(7.2 268.527835) scale(0.1 -0.1)">
       <use xlink:href="#DejaVuSans-32"/>
       <use xlink:href="#DejaVuSans-30" x="63.623047"/>
       <use xlink:href="#DejaVuSans-30" x="127.246094"/>
      </g>
     </g>
    </g>
    <g id="ytick_4">
     <g id="line2d_13">
      <g>
       <use xlink:href="#mfc67b2ca0f" x="33.2875" y="209.677862" style="stroke: #000000; stroke-width: 0.8"/>
      </g>
     </g>
     <g id="text_13">
      <!-- 300 -->
      <g transform="translate(7.2 213.477081) scale(0.1 -0.1)">
       <use xlink:href="#DejaVuSans-33"/>
       <use xlink:href="#DejaVuSans-30" x="63.623047"/>
       <use xlink:href="#DejaVuSans-30" x="127.246094"/>
      </g>
     </g>
    </g>
    <g id="ytick_5">
     <g id="line2d_14">
      <g>
       <use xlink:href="#mfc67b2ca0f" x="33.2875" y="154.627108" style="stroke: #000000; stroke-width: 0.8"/>
      </g>
     </g>
     <g id="text_14">
      <!-- 400 -->
      <g transform="translate(7.2 158.426327) scale(0.1 -0.1)">
       <use xlink:href="#DejaVuSans-34"/>
       <use xlink:href="#DejaVuSans-30" x="63.623047"/>
       <use xlink:href="#DejaVuSans-30" x="127.246094"/>
      </g>
     </g>
    </g>
    <g id="ytick_6">
     <g id="line2d_15">
      <g>
       <use xlink:href="#mfc67b2ca0f" x="33.2875" y="99.576354" style="stroke: #000000; stroke-width: 0.8"/>
      </g>
     </g>
     <g id="text_15">
      <!-- 500 -->
      <g transform="translate(7.2 103.375572) scale(0.1 -0.1)">
       <use xlink:href="#DejaVuSans-35"/>
       <use xlink:href="#DejaVuSans-30" x="63.623047"/>
       <use xlink:href="#DejaVuSans-30" x="127.246094"/>
      </g>
     </g>
    </g>
    <g id="ytick_7">
     <g id="line2d_16">
      <g>
       <use xlink:href="#mfc67b2ca0f" x="33.2875" y="44.525599" style="stroke: #000000; stroke-width: 0.8"/>
      </g>
     </g>
     <g id="text_16">
      <!-- 600 -->
      <g transform="translate(7.2 48.324818) scale(0.1 -0.1)">
       <defs>
        <path id="DejaVuSans-36" d="M 2113 2584 
Q 1688 2584 1439 2293 
Q 1191 2003 1191 1497 
Q 1191 994 1439 701 
Q 1688 409 2113 409 
Q 2538 409 2786 701 
Q 3034 994 3034 1497 
Q 3034 2003 2786 2293 
Q 2538 2584 2113 2584 
z
M 3366 4563 
L 3366 3988 
Q 3128 4100 2886 4159 
Q 2644 4219 2406 4219 
Q 1781 4219 1451 3797 
Q 1122 3375 1075 2522 
Q 1259 2794 1537 2939 
Q 1816 3084 2150 3084 
Q 2853 3084 3261 2657 
Q 3669 2231 3669 1497 
Q 3669 778 3244 343 
Q 2819 -91 2113 -91 
Q 1303 -91 875 529 
Q 447 1150 447 2328 
Q 447 3434 972 4092 
Q 1497 4750 2381 4750 
Q 2619 4750 2861 4703 
Q 3103 4656 3366 4563 
z
" transform="scale(0.015625)"/>
       </defs>
       <use xlink:href="#DejaVuSans-36"/>
       <use xlink:href="#DejaVuSans-30" x="63.623047"/>
       <use xlink:href="#DejaVuSans-30" x="127.246094"/>
      </g>
     </g>
    </g>
   </g>
   <g id="line2d_17">
    <path d="M 38.539265 31.313418 
L 48.125053 31.313418 
L 48.233567 34.616464 
L 49.575637 34.616464 
L 50.066912 43.975092 
L 129.25944 43.975092 
L 129.653724 38.470016 
L 142.831844 38.470016 
L 143.605964 39.020524 
L 149.786165 39.020524 
L 150.002293 50.030675 
L 156.269721 50.030675 
L 157.568581 48.379152 
L 264.941622 48.379152 
L 265.247432 44.525599 
L 273.662854 44.525599 
L 273.963213 43.424584 
L 316.202077 43.424584 
L 316.412425 42.323569 
L 384.668897 42.323569 
L 384.864436 37.919509 
L 436.611394 37.919509 
L 436.700394 37.369001 
L 476.225894 37.369001 
L 476.589131 36.818494 
L 480.184496 36.818494 
L 480.303793 34.616464 
L 481.746664 34.616464 
L 482.121564 35.166971 
L 507.062564 35.166971 
L 507.370471 34.616464 
L 559.88525 34.616464 
L 560.064522 25.808343 
L 563.715735 25.808343 
L 563.715735 25.808343 
" clip-path="url(#p0008b8c4e8)" style="fill: none; stroke: #0000ff; stroke-width: 1.5; stroke-linecap: square"/>
   </g>
   <g id="line2d_18">
    <path d="M 38.539265 172.243349 
L 39.857187 171.142334 
L 41.170855 172.243349 
L 44.281752 172.243349 
L 47.711886 173.344364 
L 47.966352 172.793857 
L 48.125053 172.793857 
L 48.233567 176.096902 
L 48.484014 175.546394 
L 48.854433 176.096902 
L 49.575637 176.096902 
L 49.977312 188.208068 
L 50.066912 185.45553 
L 50.275402 188.758576 
L 50.341705 188.208068 
L 50.575335 188.208068 
L 50.949056 188.758576 
L 51.848513 188.758576 
L 51.875363 189.309083 
L 52.362926 189.309083 
L 52.569304 188.758576 
L 53.172685 192.612128 
L 53.24238 192.061621 
L 53.53866 192.612128 
L 54.111782 194.263651 
L 54.500517 193.162636 
L 55.114962 193.162636 
L 55.458345 194.263651 
L 55.690476 194.263651 
L 56.389815 194.814158 
L 56.703629 194.814158 
L 57.04487 195.915174 
L 57.350008 195.364666 
L 57.68885 196.465681 
L 58.040923 198.667711 
L 59.402268 199.768726 
L 59.980345 199.768726 
L 60.227968 200.319234 
L 60.622505 200.319234 
L 60.912965 200.869741 
L 61.208839 200.319234 
L 61.538722 200.319234 
L 61.731903 200.869741 
L 65.073908 200.869741 
L 65.411205 201.420249 
L 65.734425 201.420249 
L 65.859927 200.869741 
L 66.658198 201.420249 
L 66.992768 200.869741 
L 67.915209 200.869741 
L 68.211366 201.420249 
L 68.575476 200.869741 
L 70.254414 200.869741 
L 70.598405 201.420249 
L 70.787221 203.071772 
L 71.246778 201.970757 
L 72.315372 201.970757 
L 72.845548 202.521264 
L 73.166119 202.521264 
L 73.477462 203.071772 
L 73.824972 203.071772 
L 74.144042 202.521264 
L 74.448931 204.172787 
L 74.719612 204.172787 
L 75.455532 205.273802 
L 79.319332 205.273802 
L 79.626478 206.374817 
L 80.281085 206.374817 
L 80.571631 206.925324 
L 81.546114 206.925324 
L 82.478913 209.127355 
L 83.470384 209.127355 
L 83.825498 209.677862 
L 89.815659 209.677862 
L 90.534808 210.778877 
L 90.697718 209.677862 
L 91.851253 209.677862 
L 92.164499 210.22837 
L 92.510102 209.677862 
L 93.33238 209.677862 
L 93.786567 210.22837 
L 94.123741 209.677862 
L 99.215901 209.677862 
L 99.494175 214.63243 
L 99.687106 209.677862 
L 101.53251 209.677862 
L 101.867513 210.22837 
L 102.058728 215.182938 
L 102.510419 210.22837 
L 102.829437 210.22837 
L 103.041207 209.677862 
L 106.382465 209.677862 
L 106.55167 210.22837 
L 106.85532 210.22837 
L 107.355397 211.879892 
L 112.395656 211.879892 
L 113.495674 212.4304 
L 120.265302 212.4304 
L 120.547196 214.63243 
L 120.907402 214.63243 
L 121.226816 212.4304 
L 121.555442 212.4304 
L 121.781883 214.63243 
L 122.0273 212.4304 
L 122.435147 214.63243 
L 122.796417 215.733445 
L 126.985485 215.733445 
L 127.347054 216.283953 
L 129.25944 216.283953 
L 129.653724 210.22837 
L 129.935374 210.778877 
L 130.253728 212.4304 
L 130.646758 212.4304 
L 131.173744 213.531415 
L 131.537436 213.531415 
L 131.805516 214.081922 
L 132.165611 211.879892 
L 134.802164 217.384968 
L 135.071375 215.733445 
L 135.522772 215.182938 
L 136.956453 215.182938 
L 137.324219 214.63243 
L 137.648525 213.531415 
L 138.946828 213.531415 
L 139.184205 212.4304 
L 139.60173 213.531415 
L 140.54464 213.531415 
L 140.865539 214.63243 
L 141.175073 214.63243 
L 141.541663 215.182938 
L 141.689593 215.182938 
L 141.854921 216.83446 
L 142.079037 216.83446 
L 142.831844 217.384968 
L 143.453863 216.283953 
L 143.605964 216.283953 
L 144.093575 216.83446 
L 144.40643 217.935475 
L 146.023207 217.935475 
L 146.335367 218.485983 
L 146.670583 218.485983 
L 146.980933 219.03649 
L 147.271662 219.03649 
L 147.947216 219.586998 
L 148.296109 219.586998 
L 148.644026 221.238521 
L 148.849732 221.238521 
L 149.211331 220.688013 
L 149.786165 220.688013 
L 150.002293 222.339536 
L 150.535439 222.339536 
L 150.851312 223.440551 
L 151.273165 223.440551 
L 151.490461 223.991058 
L 151.968307 223.991058 
L 152.015857 224.541566 
L 152.25789 224.541566 
L 152.768616 225.092073 
L 153.930094 228.395119 
L 155.377835 228.395119 
L 155.672985 229.496134 
L 155.784121 228.945626 
L 155.91282 228.945626 
L 156.269721 228.395119 
L 157.568581 226.743596 
L 160.818168 226.743596 
L 161.194714 226.193088 
L 162.767501 226.193088 
L 162.991344 225.642581 
L 165.936674 225.642581 
L 166.450369 226.193088 
L 166.845992 226.193088 
L 167.275502 226.743596 
L 167.491618 226.193088 
L 169.562079 226.193088 
L 170.215503 227.294104 
L 171.606134 227.294104 
L 171.840265 235.001209 
L 172.104204 235.001209 
L 174.353518 236.652732 
L 174.491739 236.102224 
L 174.635938 236.652732 
L 175.010226 236.102224 
L 175.324185 236.102224 
L 175.654628 236.652732 
L 175.902773 236.652732 
L 176.30116 237.753747 
L 176.465003 237.753747 
L 176.616634 237.203239 
L 176.956495 238.304254 
L 179.216032 238.304254 
L 179.43585 238.854762 
L 180.651359 238.854762 
L 181.135317 238.304254 
L 181.497908 241.056792 
L 181.756042 239.405269 
L 182.092705 239.405269 
L 182.362554 242.708315 
L 182.551362 242.157807 
L 182.752356 242.708315 
L 182.85359 242.157807 
L 182.977494 243.80933 
L 183.298722 243.80933 
L 183.705725 244.359837 
L 184.502866 243.80933 
L 184.684376 244.910345 
L 184.981014 244.910345 
L 185.191083 243.258822 
L 185.904157 244.910345 
L 186.613198 245.460852 
L 187.235899 245.460852 
L 187.562563 247.112375 
L 187.862825 247.112375 
L 188.040682 246.561868 
L 188.352846 246.561868 
L 189.560191 248.763898 
L 189.761547 247.662883 
L 190.149137 247.112375 
L 190.603735 248.763898 
L 191.825669 248.763898 
L 191.930276 249.314405 
L 192.417167 249.864913 
L 193.715101 249.864913 
L 194.309207 252.61745 
L 197.64779 252.61745 
L 197.911419 253.167958 
L 198.258149 252.066943 
L 198.460009 253.167958 
L 202.099738 253.167958 
L 202.403843 253.718466 
L 203.1372 257.021511 
L 203.412332 255.369988 
L 203.740216 255.920496 
L 204.103277 255.369988 
L 204.358765 255.369988 
L 204.745888 253.718466 
L 204.953467 253.718466 
L 204.993757 254.268973 
L 205.646968 254.268973 
L 206.014629 250.965928 
L 206.338774 250.965928 
L 207.313866 251.516435 
L 207.375564 250.965928 
L 207.904994 250.41542 
L 207.983629 250.965928 
L 210.534667 250.965928 
L 210.712174 251.516435 
L 211.188252 252.066943 
L 211.823979 253.167958 
L 211.989329 254.268973 
L 212.21277 254.268973 
L 212.463079 255.369988 
L 212.764453 254.819481 
L 213.101907 254.819481 
L 213.356178 254.268973 
L 213.714639 254.819481 
L 214.034504 254.819481 
L 214.341075 255.369988 
L 214.589246 255.369988 
L 215.056395 254.819481 
L 215.299253 255.369988 
L 215.550611 254.819481 
L 216.280539 250.41542 
L 216.982677 251.516435 
L 217.085332 255.369988 
L 217.241843 255.369988 
L 217.528221 255.920496 
L 217.860926 255.369988 
L 218.164684 255.369988 
L 218.538871 254.819481 
L 218.862975 255.920496 
L 220.032703 255.920496 
L 220.497572 256.471003 
L 220.763239 256.471003 
L 220.783853 257.021511 
L 222.109309 257.021511 
L 222.48666 258.122526 
L 224.341217 258.122526 
L 224.710916 259.223541 
L 225.969841 259.223541 
L 228.263257 258.673033 
L 228.476012 259.223541 
L 229.049817 259.223541 
L 229.532641 259.774049 
L 229.856069 260.875064 
L 229.952781 260.324556 
L 230.304324 261.425571 
L 231.086361 261.425571 
L 234.253744 262.526586 
L 242.082974 262.526586 
L 242.401884 261.976079 
L 243.93258 261.976079 
L 244.249863 262.526586 
L 245.301291 262.526586 
L 245.66418 263.077094 
L 245.925119 262.526586 
L 246.227955 263.077094 
L 246.563037 262.526586 
L 246.838053 263.627601 
L 247.259261 263.077094 
L 247.566597 263.627601 
L 254.247173 263.627601 
L 254.592265 262.526586 
L 254.957852 263.077094 
L 255.288489 262.526586 
L 255.658837 262.526586 
L 255.955845 261.976079 
L 257.195402 261.976079 
L 257.510148 262.526586 
L 257.865668 261.976079 
L 258.189567 260.875064 
L 258.831816 260.875064 
L 259.194172 260.324556 
L 259.465327 261.425571 
L 259.814139 261.425571 
L 260.083626 260.875064 
L 260.934182 261.976079 
L 261.431763 261.425571 
L 261.727387 261.976079 
L 262.356327 261.976079 
L 262.711299 261.425571 
L 263.059861 263.077094 
L 263.395348 262.526586 
L 264.03943 262.526586 
L 264.284948 261.976079 
L 264.598948 262.526586 
L 264.941622 262.526586 
L 265.247432 257.572018 
L 265.368926 258.122526 
L 265.609243 258.122526 
L 265.776653 258.673033 
L 265.922556 258.673033 
L 266.114651 259.223541 
L 266.244832 258.122526 
L 266.887521 259.223541 
L 267.439704 259.223541 
L 267.708236 260.324556 
L 267.974369 259.223541 
L 268.147636 259.774049 
L 269.12453 259.774049 
L 269.415348 259.223541 
L 269.691152 259.223541 
L 270.037729 259.774049 
L 270.358206 259.774049 
L 270.738106 259.223541 
L 271.104715 259.774049 
L 271.389168 259.774049 
L 271.836807 260.875064 
L 273.662854 260.875064 
L 273.963213 259.223541 
L 275.378452 259.223541 
L 275.703481 259.774049 
L 275.959155 260.324556 
L 276.459743 260.324556 
L 276.615919 261.425571 
L 276.687561 260.875064 
L 276.856944 261.425571 
L 277.333384 261.425571 
L 277.566944 262.526586 
L 278.202876 262.526586 
L 278.49972 263.627601 
L 279.481424 263.627601 
L 279.716853 265.279124 
L 279.934096 265.829632 
L 280.059467 265.829632 
L 280.482376 266.380139 
L 280.631223 265.829632 
L 280.703358 266.380139 
L 281.16835 266.380139 
L 281.714444 266.930647 
L 282.939594 266.930647 
L 283.255568 266.380139 
L 283.558326 266.930647 
L 283.899612 266.930647 
L 284.063175 267.481154 
L 284.102516 266.930647 
L 284.296649 267.481154 
L 284.448485 267.481154 
L 284.598429 268.582169 
L 285.175808 269.683184 
L 285.596244 269.132677 
L 285.915896 269.683184 
L 286.544303 269.683184 
L 286.885369 270.784199 
L 287.010228 270.233692 
L 287.213069 271.885214 
L 287.5005 271.334707 
L 287.686912 271.885214 
L 287.834308 271.334707 
L 287.997189 272.435722 
L 288.329176 272.435722 
L 288.427504 272.98623 
L 288.817 272.435722 
L 289.118243 273.536737 
L 289.79789 273.536737 
L 290.04255 274.637752 
L 290.389578 273.536737 
L 290.625339 273.536737 
L 290.711775 274.087245 
L 291.346073 274.087245 
L 291.642776 276.289275 
L 292.069479 274.087245 
L 292.135636 274.637752 
L 292.697479 274.087245 
L 292.750682 275.18826 
L 292.943922 275.18826 
L 293.333314 275.738767 
L 293.649325 275.18826 
L 293.888064 275.18826 
L 294.241349 276.289275 
L 294.625697 276.289275 
L 294.998418 275.738767 
L 295.276979 276.289275 
L 295.446236 275.738767 
L 295.614579 276.839782 
L 297.10625 276.839782 
L 297.564713 277.39029 
L 298.500784 277.39029 
L 298.832917 276.289275 
L 299.458895 276.289275 
L 299.772193 276.839782 
L 302.622341 276.839782 
L 303.006987 276.289275 
L 303.367544 277.39029 
L 307.741593 277.39029 
L 308.70114 277.940797 
L 309.271057 277.940797 
L 309.733908 278.491305 
L 310.099685 278.491305 
L 310.314627 279.041813 
L 315.183379 279.041813 
L 315.578827 278.491305 
L 315.892345 279.041813 
L 316.202077 278.491305 
L 316.412425 275.18826 
L 318.335863 275.18826 
L 318.507478 275.738767 
L 318.840137 275.738767 
L 318.950147 275.18826 
L 320.941175 275.18826 
L 321.217386 275.738767 
L 321.321773 275.18826 
L 321.794888 275.18826 
L 322.013583 276.289275 
L 322.289256 275.18826 
L 322.495075 276.289275 
L 322.641157 276.289275 
L 322.82957 275.18826 
L 322.994353 276.289275 
L 323.099953 275.18826 
L 323.142484 276.289275 
L 324.275792 276.289275 
L 324.45569 276.839782 
L 324.482073 277.39029 
L 325.05918 277.39029 
L 325.093193 277.940797 
L 325.425711 277.940797 
L 325.597889 278.491305 
L 325.744688 277.940797 
L 325.925034 278.491305 
L 326.046995 277.940797 
L 326.333037 278.491305 
L 326.454009 277.940797 
L 326.470598 278.491305 
L 326.833177 278.491305 
L 327.060357 279.041813 
L 327.203641 279.041813 
L 327.418213 280.142828 
L 327.656299 280.693335 
L 327.820731 280.142828 
L 329.652207 280.142828 
L 329.914075 280.693335 
L 331.317698 280.693335 
L 331.541602 281.243843 
L 331.837562 281.243843 
L 332.057178 281.79435 
L 332.178224 281.243843 
L 332.758958 281.243843 
L 332.954937 282.344858 
L 333.488363 282.344858 
L 333.539588 282.895365 
L 333.614021 282.344858 
L 333.729173 282.344858 
L 333.935764 283.445873 
L 334.15091 283.99638 
L 334.211041 283.445873 
L 334.454922 285.647903 
L 335.442636 285.647903 
L 335.541933 286.198411 
L 335.758315 286.198411 
L 335.88507 287.299426 
L 336.033831 286.198411 
L 337.34506 286.198411 
L 337.420933 286.748918 
L 337.67244 286.198411 
L 337.792859 286.748918 
L 338.015502 286.198411 
L 338.304704 286.198411 
L 338.482054 287.299426 
L 338.805341 287.299426 
L 338.93795 286.748918 
L 339.051568 287.849933 
L 339.387115 286.198411 
L 339.738744 287.299426 
L 339.993467 286.198411 
L 340.589752 286.198411 
L 341.053812 287.849933 
L 341.198212 287.299426 
L 341.358126 287.849933 
L 341.789624 286.748918 
L 341.927792 287.849933 
L 342.951829 287.849933 
L 343.116892 288.400441 
L 343.404539 288.400441 
L 343.557879 287.849933 
L 343.751407 288.400441 
L 343.873778 287.849933 
L 344.246555 288.950948 
L 344.755501 288.950948 
L 345.114442 290.051963 
L 346.669096 290.051963 
L 346.839073 290.602471 
L 347.046988 290.051963 
L 347.14986 290.602471 
L 347.361839 290.051963 
L 347.64337 290.051963 
L 347.824959 290.602471 
L 347.944356 290.051963 
L 348.324476 290.051963 
L 348.442048 290.602471 
L 348.974986 290.602471 
L 349.010909 291.703486 
L 351.290252 291.703486 
L 351.515114 292.253994 
L 351.662708 291.703486 
L 351.787751 292.253994 
L 351.882731 291.703486 
L 351.996662 292.804501 
L 352.521593 292.804501 
L 352.769211 293.355009 
L 352.819395 292.804501 
L 352.870811 293.355009 
L 353.153574 292.804501 
L 353.226652 293.355009 
L 353.503176 293.905516 
L 353.611484 294.456024 
L 353.818251 294.456024 
L 353.865793 295.006531 
L 354.153679 296.658054 
L 354.283255 296.107546 
L 354.458138 296.107546 
L 354.489644 297.208561 
L 355.718354 297.208561 
L 355.870966 297.759069 
L 356.111679 297.208561 
L 356.528636 297.759069 
L 356.640075 297.208561 
L 356.822507 297.759069 
L 357.046712 297.759069 
L 357.180135 298.309577 
L 357.490904 298.309577 
L 357.498523 298.860084 
L 357.59432 298.309577 
L 357.686152 299.410592 
L 357.82188 299.410592 
L 358.009763 299.961099 
L 359.298612 299.961099 
L 359.332625 299.410592 
L 359.413763 300.511607 
L 359.753658 300.511607 
L 359.927243 299.961099 
L 360.060863 300.511607 
L 360.262036 299.961099 
L 360.412764 300.511607 
L 360.582111 300.511607 
L 360.727626 299.961099 
L 360.87191 301.612622 
L 362.599145 301.612622 
L 363.11856 302.713637 
L 363.391973 302.163129 
L 369.916702 302.163129 
L 370.02748 302.713637 
L 370.225617 302.163129 
L 370.282722 302.713637 
L 370.874768 302.713637 
L 371.038708 303.264144 
L 371.869646 303.264144 
L 371.980671 303.814652 
L 372.137167 303.264144 
L 373.410039 303.264144 
L 373.586594 303.814652 
L 373.808934 303.264144 
L 373.931701 303.264144 
L 374.127344 304.36516 
L 374.23497 303.814652 
L 374.712003 303.814652 
L 374.919855 304.36516 
L 375.898223 304.36516 
L 376.057595 303.264144 
L 376.380528 304.36516 
L 378.118072 304.36516 
L 378.29622 304.915667 
L 378.455373 304.915667 
L 378.626775 305.466175 
L 378.754888 305.466175 
L 378.913474 306.016682 
L 379.28452 306.016682 
L 379.350252 306.56719 
L 379.659573 306.56719 
L 379.854959 305.466175 
L 380.007526 306.016682 
L 380.241064 306.016682 
L 380.33629 306.56719 
L 380.693564 306.56719 
L 381.013113 307.117697 
L 381.361562 308.76922 
L 381.475646 308.218712 
L 381.581873 308.76922 
L 381.825693 309.319727 
L 381.941311 308.76922 
L 382.25165 309.319727 
L 382.456894 308.76922 
L 382.624521 308.76922 
L 382.952919 310.420742 
L 383.151268 309.870235 
L 383.269419 309.870235 
L 383.597194 310.97125 
L 383.661557 310.420742 
L 383.874592 310.97125 
L 384.022107 310.420742 
L 384.143721 310.97125 
L 384.668897 310.97125 
L 384.864436 303.264144 
L 385.386672 304.36516 
L 385.731488 304.36516 
L 385.852098 304.915667 
L 386.039958 304.36516 
L 386.160542 304.36516 
L 386.303226 303.814652 
L 386.467285 304.36516 
L 386.69264 304.36516 
L 386.803523 303.814652 
L 386.9444 304.36516 
L 387.136537 303.814652 
L 387.212055 304.36516 
L 387.611421 304.915667 
L 387.904884 303.814652 
L 388.170745 304.36516 
L 389.35189 304.36516 
L 389.632149 304.915667 
L 389.926411 304.36516 
L 390.455714 304.36516 
L 390.861504 305.466175 
L 391.000692 303.814652 
L 391.23496 304.36516 
L 391.533603 303.814652 
L 391.670216 305.466175 
L 391.835156 304.36516 
L 391.991036 304.36516 
L 392.094848 304.915667 
L 392.172322 307.117697 
L 392.186228 306.56719 
L 392.529906 307.117697 
L 393.378164 307.117697 
L 393.779425 308.218712 
L 393.94495 307.668205 
L 394.539191 307.668205 
L 394.701101 307.117697 
L 394.874148 307.668205 
L 395.06396 307.668205 
L 395.17547 307.117697 
L 395.514711 307.668205 
L 395.714004 307.668205 
L 395.844658 308.218712 
L 396.004453 307.668205 
L 396.176124 307.668205 
L 396.337004 307.117697 
L 396.43666 307.668205 
L 397.332833 307.668205 
L 397.557039 309.319727 
L 397.828116 308.76922 
L 398.052314 308.76922 
L 398.23382 308.218712 
L 398.316346 308.76922 
L 398.597497 308.218712 
L 398.702604 308.76922 
L 398.950286 308.76922 
L 399.047184 309.319727 
L 399.343178 308.76922 
L 399.953115 308.76922 
L 400.179246 309.319727 
L 400.555941 309.319727 
L 400.650921 309.870235 
L 400.811451 309.319727 
L 401.186716 310.420742 
L 401.298375 310.420742 
L 401.463979 310.97125 
L 401.616636 310.97125 
L 401.903872 311.521758 
L 404.240373 311.521758 
L 404.48929 312.072265 
L 404.722693 312.072265 
L 404.770213 310.97125 
L 404.829065 311.521758 
L 405.20986 311.521758 
L 405.296778 312.072265 
L 405.797828 312.072265 
L 406.037119 312.622773 
L 406.358507 312.622773 
L 406.369197 312.072265 
L 406.476035 312.622773 
L 406.574288 312.072265 
L 407.973747 312.072265 
L 408.236152 311.521758 
L 408.968143 312.072265 
L 410.486108 312.072265 
L 410.551792 312.622773 
L 412.14466 312.622773 
L 412.288142 313.17328 
L 413.76122 315.925818 
L 413.900833 315.925818 
L 414.04649 316.476325 
L 414.111357 315.925818 
L 414.425047 316.476325 
L 414.716485 317.026833 
L 415.065028 317.026833 
L 415.182074 317.577341 
L 415.622549 317.577341 
L 416.260526 317.026833 
L 416.292667 318.678356 
L 416.80612 318.678356 
L 416.965258 318.127848 
L 417.080846 318.678356 
L 418.260465 318.678356 
L 418.534302 318.127848 
L 419.799358 318.127848 
L 420.580507 318.678356 
L 422.158476 318.678356 
L 422.935495 319.228863 
L 423.039415 319.779371 
L 425.376278 319.779371 
L 425.595816 319.228863 
L 426.782143 319.228863 
L 427.648371 318.678356 
L 428.279602 318.678356 
L 428.592856 319.228863 
L 428.870965 320.329878 
L 429.036547 320.329878 
L 429.043009 319.779371 
L 430.900331 319.779371 
L 431.099669 320.329878 
L 435.791773 320.329878 
L 436.383394 320.880386 
L 436.611394 320.880386 
L 436.700394 321.430893 
L 436.990369 321.430893 
L 437.112146 320.880386 
L 437.300921 321.430893 
L 438.360837 321.430893 
L 438.833292 321.981401 
L 439.161478 323.082416 
L 442.03577 323.082416 
L 442.541671 322.531908 
L 442.688044 323.082416 
L 442.836116 322.531908 
L 443.00257 323.082416 
L 443.790895 323.082416 
L 444.154351 322.531908 
L 444.338786 323.082416 
L 444.847344 321.981401 
L 445.045551 323.082416 
L 446.276235 323.082416 
L 446.290794 323.632924 
L 448.24116 323.632924 
L 449.18945 324.183431 
L 449.47403 323.632924 
L 450.002762 323.632924 
L 450.130935 324.183431 
L 450.582708 322.531908 
L 450.880985 323.082416 
L 451.281981 322.531908 
L 451.579 322.531908 
L 451.713893 323.082416 
L 452.532783 323.082416 
L 453.505763 322.531908 
L 453.652215 323.082416 
L 454.620381 323.082416 
L 454.934717 322.531908 
L 459.862355 323.082416 
L 460.231319 322.531908 
L 460.550191 323.082416 
L 460.835924 322.531908 
L 460.867893 323.082416 
L 461.116649 323.632924 
L 461.260713 323.632924 
L 461.392495 324.183431 
L 463.683523 324.183431 
L 463.732342 324.733939 
L 464.017119 324.733939 
L 464.777516 324.183431 
L 464.801705 324.733939 
L 465.093855 324.183431 
L 465.164863 325.284446 
L 465.352906 325.284446 
L 465.734403 325.834954 
L 466.373719 325.834954 
L 466.761917 325.284446 
L 467.198393 326.385461 
L 467.216295 326.935969 
L 467.640301 327.486476 
L 467.952151 326.935969 
L 468.390653 326.935969 
L 468.481809 327.486476 
L 469.480213 327.486476 
L 469.617755 326.935969 
L 469.786138 328.036984 
L 469.924923 328.036984 
L 470.188324 327.486476 
L 470.427876 328.036984 
L 470.962082 328.036984 
L 471.197351 329.137999 
L 472.875278 329.137999 
L 473.075881 329.688506 
L 473.198714 329.688506 
L 473.400835 329.137999 
L 473.452963 329.688506 
L 473.988363 329.688506 
L 474.096048 330.239014 
L 474.388523 330.239014 
L 474.47206 331.340029 
L 474.928382 331.340029 
L 475.099833 332.991552 
L 475.456827 332.991552 
L 475.665615 332.441044 
L 475.778412 332.991552 
L 475.930252 332.991552 
L 475.941848 334.643074 
L 476.225894 334.643074 
L 476.589131 334.092567 
L 476.753918 334.092567 
L 476.894687 334.643074 
L 477.24476 334.643074 
L 477.607519 334.092567 
L 477.64483 335.193582 
L 477.966024 335.193582 
L 478.02523 335.744089 
L 478.249029 336.294597 
L 478.840236 336.294597 
L 478.927131 337.395612 
L 479.180847 337.395612 
L 479.329593 337.94612 
L 479.472325 337.94612 
L 479.984174 338.496627 
L 480.184496 337.94612 
L 480.303793 330.239014 
L 480.433175 329.688506 
L 480.520801 331.890537 
L 481.15198 331.890537 
L 481.411408 331.340029 
L 481.600429 332.441044 
L 481.746664 332.441044 
L 482.121564 332.991552 
L 482.533907 332.991552 
L 482.722054 332.441044 
L 482.869368 332.991552 
L 483.863597 332.991552 
L 483.986016 333.542059 
L 484.439293 332.441044 
L 484.807876 332.991552 
L 485.01909 332.991552 
L 485.100213 333.542059 
L 485.286686 332.441044 
L 485.467949 333.542059 
L 486.220048 333.542059 
L 486.336621 332.991552 
L 486.604526 332.991552 
L 486.646669 333.542059 
L 486.950013 334.092567 
L 486.961852 333.542059 
L 487.532325 333.542059 
L 487.825945 334.092567 
L 489.349626 334.092567 
L 489.463874 334.643074 
L 489.766043 334.092567 
L 489.776132 334.643074 
L 490.210021 335.193582 
L 490.476621 335.193582 
L 490.783412 335.744089 
L 490.936595 336.294597 
L 491.053712 336.294597 
L 491.422251 335.193582 
L 491.495053 336.294597 
L 491.742874 335.744089 
L 491.951464 336.294597 
L 492.882394 336.294597 
L 492.986699 336.845105 
L 493.116696 336.294597 
L 493.567186 336.845105 
L 493.784784 336.294597 
L 494.00531 336.845105 
L 494.137808 336.294597 
L 494.446383 337.395612 
L 494.659585 336.845105 
L 495.388815 336.845105 
L 495.678932 337.395612 
L 496.102546 337.395612 
L 496.439582 336.294597 
L 496.529414 336.845105 
L 496.889531 336.845105 
L 496.980922 337.94612 
L 497.435109 336.845105 
L 497.593721 337.395612 
L 497.95967 336.845105 
L 498.226795 336.845105 
L 498.363647 337.395612 
L 498.554619 337.395612 
L 498.690758 334.092567 
L 499.119141 334.643074 
L 499.174638 333.542059 
L 499.328444 334.643074 
L 499.469452 334.092567 
L 499.554086 334.643074 
L 499.889835 334.092567 
L 500.292685 334.643074 
L 500.495609 334.643074 
L 500.774162 334.092567 
L 501.170106 334.092567 
L 501.576068 335.193582 
L 501.788719 334.643074 
L 502.21872 334.643074 
L 502.419804 334.092567 
L 502.449407 333.542059 
L 502.69991 334.643074 
L 502.832758 334.092567 
L 502.989019 334.643074 
L 503.22121 334.092567 
L 503.484007 334.092567 
L 503.652831 333.542059 
L 503.973002 333.542059 
L 504.306341 334.643074 
L 504.532528 334.092567 
L 504.807977 335.193582 
L 504.951426 335.193582 
L 505.041466 334.643074 
L 505.32161 334.643074 
L 505.345123 335.193582 
L 506.27381 335.193582 
L 506.425952 335.744089 
L 506.556267 335.744089 
L 506.757153 336.294597 
L 506.930421 335.744089 
L 507.062564 336.294597 
L 507.259569 335.744089 
L 507.370471 336.294597 
L 507.513609 335.744089 
L 507.559727 336.294597 
L 507.718185 337.395612 
L 507.911781 336.845105 
L 507.972707 336.294597 
L 508.176876 336.845105 
L 508.343726 336.294597 
L 508.544832 336.845105 
L 508.874395 336.845105 
L 508.966159 337.395612 
L 509.193831 336.845105 
L 509.791758 338.496627 
L 509.952601 338.496627 
L 510.11897 337.395612 
L 510.197623 337.94612 
L 510.432839 337.94612 
L 510.539857 337.395612 
L 510.732191 337.395612 
L 510.907298 337.94612 
L 511.132414 337.94612 
L 511.510359 339.597642 
L 511.711435 339.047135 
L 514.354618 339.047135 
L 514.47762 339.597642 
L 514.633601 339.597642 
L 514.759039 339.047135 
L 515.010714 339.597642 
L 515.637729 337.395612 
L 515.742619 338.496627 
L 516.406069 337.395612 
L 516.870554 337.395612 
L 517.506136 338.496627 
L 518.62972 337.94612 
L 518.915061 338.496627 
L 519.229412 337.94612 
L 519.45392 339.047135 
L 519.543964 337.94612 
L 519.839916 339.047135 
L 520.162367 337.94612 
L 520.269108 339.047135 
L 520.475882 339.047135 
L 520.589548 338.496627 
L 520.795576 339.047135 
L 520.919219 339.047135 
L 521.034389 338.496627 
L 521.174323 340.14815 
L 521.541313 339.047135 
L 521.884561 339.047135 
L 522.094297 339.597642 
L 522.490118 339.597642 
L 522.812017 339.047135 
L 523.000202 339.047135 
L 523.142464 340.14815 
L 523.319918 339.597642 
L 523.418992 340.14815 
L 523.658212 340.698657 
L 523.804891 340.698657 
L 524.061338 339.597642 
L 524.306561 341.249165 
L 524.614782 341.249165 
L 524.638176 342.35018 
L 524.659701 341.799672 
L 524.820899 341.249165 
L 524.990349 342.35018 
L 525.061029 341.249165 
L 525.316464 341.249165 
L 525.351269 341.799672 
L 525.639057 342.35018 
L 525.811295 342.35018 
L 525.892027 341.249165 
L 526.278239 342.35018 
L 526.340785 341.249165 
L 526.551144 342.35018 
L 526.712965 340.698657 
L 527.204882 341.799672 
L 527.575457 340.14815 
L 527.604113 340.698657 
L 527.83884 340.14815 
L 527.987236 340.14815 
L 528.141292 341.249165 
L 528.325269 340.14815 
L 528.678976 341.249165 
L 528.813171 340.14815 
L 528.95847 340.698657 
L 529.25456 340.698657 
L 529.450095 340.14815 
L 529.824402 340.14815 
L 529.835827 340.698657 
L 530.424941 339.597642 
L 530.737377 341.249165 
L 530.903198 341.249165 
L 531.096461 340.698657 
L 531.151089 341.799672 
L 531.425445 340.698657 
L 531.594381 341.799672 
L 531.764686 340.698657 
L 531.835067 341.249165 
L 532.184345 341.249165 
L 532.39366 341.799672 
L 532.489394 342.900688 
L 532.684288 341.799672 
L 533.004933 342.35018 
L 533.146773 342.900688 
L 533.32203 342.35018 
L 533.471665 344.55221 
L 533.706538 344.55221 
L 534.017146 345.102718 
L 534.054618 344.001703 
L 534.36032 345.102718 
L 534.795471 344.001703 
L 534.913051 345.653225 
L 535.265892 346.203733 
L 535.650195 345.102718 
L 535.893765 344.55221 
L 536.57083 345.102718 
L 536.651927 345.653225 
L 536.905228 345.653225 
L 537.372172 346.203733 
L 537.603512 346.203733 
L 537.891778 346.75424 
L 538.183365 348.405763 
L 538.93199 347.855255 
L 539.173139 347.855255 
L 539.507529 346.203733 
L 539.825398 346.203733 
L 539.907335 345.653225 
L 540.148838 346.75424 
L 540.202642 345.653225 
L 540.466961 346.203733 
L 540.946438 346.203733 
L 541.19249 347.304748 
L 541.41833 346.203733 
L 541.726782 347.304748 
L 541.847033 346.75424 
L 542.011772 347.304748 
L 542.441874 346.203733 
L 542.690463 346.75424 
L 543.41757 346.75424 
L 543.591122 346.203733 
L 544.012247 347.304748 
L 544.183422 346.203733 
L 544.331068 346.203733 
L 544.388479 346.75424 
L 544.597794 346.75424 
L 544.823544 347.304748 
L 544.978018 346.203733 
L 545.217861 347.304748 
L 545.323192 346.203733 
L 545.617297 347.304748 
L 545.798143 347.304748 
L 545.914847 346.75424 
L 546.106091 346.75424 
L 546.160133 346.203733 
L 546.17123 346.75424 
L 546.497714 346.75424 
L 546.608179 346.203733 
L 546.907669 347.304748 
L 547.183461 346.203733 
L 547.656103 346.75424 
L 548.666133 346.75424 
L 548.908353 346.203733 
L 549.165867 346.75424 
L 549.331627 346.203733 
L 549.434022 346.75424 
L 550.151357 346.75424 
L 550.370365 346.203733 
L 550.873222 347.304748 
L 550.995488 346.75424 
L 551.397704 347.304748 
L 551.836978 346.75424 
L 552.070284 347.304748 
L 552.619183 346.203733 
L 552.763206 345.653225 
L 553.001829 345.653225 
L 553.461423 347.304748 
L 553.586435 347.304748 
L 553.745141 346.203733 
L 554.117891 346.203733 
L 554.326963 346.75424 
L 554.485512 346.75424 
L 554.649441 346.203733 
L 554.958952 346.203733 
L 555.381574 346.75424 
L 555.616174 346.75424 
L 555.712214 347.304748 
L 555.9377 346.203733 
L 556.0565 347.304748 
L 556.204202 346.75424 
L 556.297485 347.304748 
L 556.889699 347.304748 
L 556.911135 348.405763 
L 557.006768 347.855255 
L 557.185689 347.855255 
L 557.292605 347.304748 
L 557.46078 347.855255 
L 557.646212 347.304748 
L 558.119081 347.855255 
L 558.520718 347.855255 
L 558.673267 348.95627 
L 558.733428 348.405763 
L 558.913174 348.95627 
L 559.154229 348.405763 
L 559.267078 347.855255 
L 559.435294 348.405763 
L 559.601182 347.855255 
L 559.800713 348.95627 
L 559.88525 347.855255 
L 560.064522 334.092567 
L 560.553994 334.092567 
L 560.688906 333.542059 
L 560.817135 335.744089 
L 561.531612 335.193582 
L 562.062471 335.193582 
L 562.165709 335.744089 
L 562.298471 335.744089 
L 562.714541 334.643074 
L 563.029264 334.643074 
L 563.042682 335.193582 
L 563.436685 335.744089 
L 563.715735 335.193582 
L 563.715735 335.193582 
" clip-path="url(#p0008b8c4e8)" style="fill: none; stroke-dasharray: 3,1.5; stroke-dashoffset: 0; stroke: #808080; stroke-width: 1.5"/>
   </g>
   <g id="line2d_19">
    <path d="M 38.539265 298.309577 
L 39.857187 297.759069 
L 41.170855 296.658054 
L 44.281752 296.658054 
L 47.711886 296.107546 
L 47.966352 296.658054 
L 48.125053 296.658054 
L 48.233567 295.557039 
L 48.484014 296.107546 
L 48.854433 295.557039 
L 49.575637 295.557039 
L 49.977312 292.804501 
L 50.066912 295.557039 
L 50.275402 292.253994 
L 50.341705 292.804501 
L 50.575335 292.804501 
L 50.949056 292.253994 
L 51.561706 292.253994 
L 51.875363 290.051963 
L 52.362926 290.051963 
L 52.857842 291.152978 
L 53.172685 286.748918 
L 53.24238 287.299426 
L 53.53866 286.748918 
L 54.111782 285.097396 
L 54.500517 286.198411 
L 55.114962 286.198411 
L 55.458345 287.299426 
L 55.690476 286.748918 
L 56.389815 286.198411 
L 56.703629 286.198411 
L 57.04487 285.097396 
L 57.534514 285.097396 
L 58.040923 281.79435 
L 59.402268 280.142828 
L 59.587659 279.59232 
L 59.980345 279.59232 
L 60.227968 279.041813 
L 60.622505 279.041813 
L 60.912965 280.142828 
L 61.208839 280.693335 
L 61.538722 280.693335 
L 61.731903 280.142828 
L 64.087832 280.142828 
L 64.464404 279.59232 
L 65.073908 279.59232 
L 65.411205 279.041813 
L 65.734425 279.041813 
L 65.859927 279.59232 
L 66.658198 279.041813 
L 66.992768 279.59232 
L 67.915209 279.59232 
L 68.211366 279.041813 
L 68.575476 279.59232 
L 70.254414 279.59232 
L 70.598405 279.041813 
L 70.787221 277.39029 
L 71.246778 278.491305 
L 71.893989 278.491305 
L 72.196378 277.39029 
L 72.315372 278.491305 
L 72.845548 276.839782 
L 73.166119 276.839782 
L 73.477462 276.289275 
L 73.824972 276.289275 
L 74.144042 276.839782 
L 74.448931 275.738767 
L 74.719612 275.738767 
L 75.455532 274.637752 
L 79.319332 274.637752 
L 79.626478 273.536737 
L 80.281085 273.536737 
L 80.571631 270.784199 
L 81.546114 270.784199 
L 82.478913 268.582169 
L 83.470384 268.582169 
L 83.825498 268.031662 
L 89.815659 268.031662 
L 90.534808 266.380139 
L 90.697718 268.031662 
L 91.851253 268.031662 
L 92.164499 266.930647 
L 92.510102 268.031662 
L 93.33238 268.031662 
L 93.786567 266.930647 
L 94.123741 268.031662 
L 99.215901 268.031662 
L 99.494175 263.077094 
L 99.687106 268.031662 
L 101.53251 268.031662 
L 101.867513 267.481154 
L 102.058728 262.526586 
L 102.510419 267.481154 
L 102.829437 267.481154 
L 103.041207 268.031662 
L 106.382465 268.031662 
L 106.55167 267.481154 
L 106.85532 267.481154 
L 107.355397 265.829632 
L 112.395656 265.829632 
L 113.495674 265.279124 
L 120.265302 265.279124 
L 120.547196 262.526586 
L 120.907402 262.526586 
L 121.226816 265.279124 
L 121.555442 265.279124 
L 121.781883 262.526586 
L 122.0273 265.279124 
L 122.435147 262.526586 
L 122.796417 261.425571 
L 126.985485 261.425571 
L 127.347054 260.875064 
L 128.933344 260.875064 
L 129.25944 259.774049 
L 129.653724 257.572018 
L 129.935374 257.021511 
L 130.253728 253.718466 
L 130.646758 253.718466 
L 131.173744 252.61745 
L 131.537436 252.61745 
L 132.165611 251.516435 
L 134.802164 246.561868 
L 135.071375 247.662883 
L 136.956453 247.662883 
L 137.324219 245.460852 
L 137.648525 246.01136 
L 138.946828 246.01136 
L 139.184205 247.112375 
L 139.60173 246.01136 
L 140.54464 246.01136 
L 140.865539 244.910345 
L 141.175073 244.910345 
L 141.541663 244.359837 
L 141.689593 244.359837 
L 141.854921 242.708315 
L 142.079037 242.708315 
L 142.831844 242.157807 
L 143.453863 243.80933 
L 143.605964 243.80933 
L 144.093575 243.258822 
L 144.40643 242.157807 
L 146.023207 242.157807 
L 146.335367 241.6073 
L 146.670583 241.6073 
L 146.980933 241.056792 
L 147.271662 241.056792 
L 147.947216 240.506285 
L 148.296109 240.506285 
L 148.644026 238.854762 
L 149.211331 238.854762 
L 149.565866 238.304254 
L 149.786165 238.304254 
L 149.909156 248.21339 
L 150.002293 247.662883 
L 150.535439 247.662883 
L 150.851312 246.561868 
L 151.273165 246.561868 
L 151.490461 246.01136 
L 151.968307 246.01136 
L 152.015857 245.460852 
L 152.768616 245.460852 
L 153.172772 243.80933 
L 154.012669 242.157807 
L 155.377835 242.157807 
L 155.672985 241.056792 
L 155.784121 241.6073 
L 155.91282 241.6073 
L 156.269721 242.157807 
L 157.568581 241.6073 
L 160.818168 241.6073 
L 161.194714 242.157807 
L 162.767501 242.157807 
L 162.991344 242.708315 
L 163.401373 242.157807 
L 165.936674 242.157807 
L 166.450369 241.6073 
L 166.845992 241.6073 
L 167.275502 241.056792 
L 167.491618 241.6073 
L 169.562079 241.6073 
L 170.215503 240.506285 
L 171.606134 240.506285 
L 171.840265 232.799179 
L 172.104204 232.799179 
L 174.353518 231.147656 
L 174.491739 231.698164 
L 174.635938 231.147656 
L 175.010226 231.698164 
L 175.324185 231.698164 
L 175.654628 231.147656 
L 175.902773 231.147656 
L 176.30116 230.046641 
L 176.465003 230.046641 
L 176.616634 230.597149 
L 176.956495 229.496134 
L 179.216032 229.496134 
L 179.43585 228.945626 
L 179.802333 228.945626 
L 180.142451 228.395119 
L 180.495553 228.945626 
L 180.651359 228.945626 
L 181.135317 229.496134 
L 181.497908 226.743596 
L 181.756042 228.395119 
L 182.092705 228.395119 
L 182.362554 225.092073 
L 182.551362 225.642581 
L 182.752356 224.541566 
L 182.85359 225.092073 
L 182.977494 223.440551 
L 183.298722 223.440551 
L 183.705725 222.890043 
L 184.502866 223.440551 
L 184.684376 222.339536 
L 184.981014 222.339536 
L 185.191083 223.991058 
L 185.904157 222.339536 
L 186.613198 221.789028 
L 187.235899 221.789028 
L 187.562563 220.137505 
L 187.862825 220.137505 
L 188.040682 220.688013 
L 188.352846 220.688013 
L 189.560191 217.384968 
L 189.761547 219.586998 
L 190.149137 220.137505 
L 190.603735 217.384968 
L 191.825669 217.384968 
L 191.930276 216.83446 
L 192.417167 216.283953 
L 193.715101 216.283953 
L 194.309207 213.531415 
L 197.64779 213.531415 
L 197.911419 212.4304 
L 198.258149 214.63243 
L 198.460009 212.980907 
L 202.099738 212.980907 
L 202.403843 212.4304 
L 203.1372 209.127355 
L 203.412332 210.778877 
L 203.740216 210.22837 
L 204.103277 210.778877 
L 204.358765 210.778877 
L 204.745888 205.273802 
L 204.953467 205.273802 
L 204.993757 204.723294 
L 205.646968 204.723294 
L 206.014629 203.622279 
L 206.338774 201.970757 
L 207.313866 201.420249 
L 207.375564 201.970757 
L 207.904994 202.521264 
L 207.983629 201.970757 
L 210.534667 201.970757 
L 210.712174 201.420249 
L 211.188252 200.869741 
L 211.823979 199.768726 
L 211.989329 198.667711 
L 212.21277 198.667711 
L 212.463079 197.566696 
L 212.764453 198.117204 
L 213.101907 198.117204 
L 213.356178 198.667711 
L 213.714639 198.117204 
L 214.034504 198.117204 
L 214.341075 197.566696 
L 214.589246 197.566696 
L 215.056395 198.117204 
L 215.299253 197.566696 
L 215.550611 198.117204 
L 215.974635 200.869741 
L 216.280539 201.420249 
L 216.982677 200.319234 
L 217.085332 196.465681 
L 217.241843 196.465681 
L 217.528221 195.915174 
L 217.860926 196.465681 
L 218.164684 196.465681 
L 218.538871 197.016189 
L 218.862975 195.915174 
L 220.032703 195.915174 
L 220.497572 195.364666 
L 220.763239 195.364666 
L 220.783853 194.814158 
L 222.109309 194.814158 
L 222.48666 193.713143 
L 224.341217 193.713143 
L 224.710916 192.612128 
L 228.263257 192.612128 
L 228.476012 192.061621 
L 229.049817 192.061621 
L 229.532641 191.511113 
L 229.856069 190.410098 
L 229.952781 190.960606 
L 230.304324 189.859591 
L 231.086361 189.859591 
L 234.253744 188.758576 
L 242.082974 188.758576 
L 242.401884 189.309083 
L 243.93258 189.309083 
L 244.249863 188.758576 
L 245.301291 188.758576 
L 245.66418 188.208068 
L 245.925119 188.758576 
L 246.227955 188.208068 
L 246.563037 188.758576 
L 246.838053 187.65756 
L 247.259261 188.208068 
L 247.566597 187.65756 
L 254.247173 187.65756 
L 254.592265 188.758576 
L 254.957852 188.208068 
L 255.288489 188.758576 
L 255.658837 188.208068 
L 255.955845 188.758576 
L 257.195402 188.758576 
L 257.510148 188.208068 
L 257.865668 188.758576 
L 258.189567 187.65756 
L 258.831816 187.65756 
L 259.194172 188.208068 
L 259.465327 187.107053 
L 259.814139 187.107053 
L 260.083626 187.65756 
L 260.934182 186.556545 
L 261.431763 187.107053 
L 261.727387 186.556545 
L 262.356327 186.556545 
L 262.711299 187.107053 
L 263.059861 185.45553 
L 263.395348 186.006038 
L 264.03943 186.006038 
L 264.284948 186.556545 
L 264.598948 186.006038 
L 264.941622 186.006038 
L 265.247432 190.410098 
L 265.368926 189.859591 
L 265.609243 189.859591 
L 265.776653 189.309083 
L 265.922556 189.309083 
L 266.114651 188.758576 
L 266.244832 189.859591 
L 266.887521 188.758576 
L 267.439704 188.758576 
L 267.708236 187.65756 
L 267.974369 188.758576 
L 268.147636 188.208068 
L 269.12453 188.208068 
L 269.415348 188.758576 
L 269.691152 188.758576 
L 270.037729 188.208068 
L 270.358206 188.208068 
L 270.738106 188.758576 
L 271.104715 188.208068 
L 271.389168 188.208068 
L 271.836807 187.107053 
L 273.662854 187.107053 
L 273.963213 187.65756 
L 275.378452 187.65756 
L 275.703481 187.107053 
L 275.959155 186.556545 
L 276.459743 186.556545 
L 276.615919 185.45553 
L 276.687561 186.006038 
L 276.856944 185.45553 
L 277.333384 185.45553 
L 277.566944 184.354515 
L 278.202876 184.354515 
L 278.49972 183.2535 
L 279.481424 183.2535 
L 279.716853 181.601977 
L 279.934096 181.05147 
L 280.059467 181.05147 
L 280.482376 180.500962 
L 280.631223 181.05147 
L 280.703358 180.500962 
L 280.855977 180.500962 
L 281.03464 179.950455 
L 281.16835 179.950455 
L 281.714444 179.399947 
L 282.939594 179.399947 
L 283.255568 179.950455 
L 283.558326 179.399947 
L 283.899612 179.399947 
L 284.063175 178.84944 
L 284.102516 179.399947 
L 284.296649 178.84944 
L 284.448485 178.84944 
L 284.598429 177.748425 
L 285.175808 176.64741 
L 285.596244 177.197917 
L 285.915896 176.64741 
L 286.544303 176.64741 
L 286.885369 175.546394 
L 287.010228 176.096902 
L 287.213069 174.445379 
L 287.5005 174.995887 
L 287.686912 174.445379 
L 287.834308 174.995887 
L 287.997189 173.894872 
L 288.329176 173.894872 
L 288.427504 173.344364 
L 288.817 173.894872 
L 289.118243 172.793857 
L 289.79789 172.793857 
L 290.04255 171.692842 
L 290.389578 172.793857 
L 290.625339 172.793857 
L 290.711775 172.243349 
L 291.346073 172.243349 
L 291.642776 170.041319 
L 292.069479 172.243349 
L 292.135636 171.692842 
L 292.697479 172.243349 
L 292.750682 171.142334 
L 292.943922 171.142334 
L 293.333314 170.591827 
L 293.649325 171.142334 
L 293.888064 171.142334 
L 294.241349 170.041319 
L 294.625697 170.041319 
L 294.998418 170.591827 
L 295.276979 170.041319 
L 295.446236 170.591827 
L 295.614579 169.490812 
L 297.10625 169.490812 
L 297.564713 168.940304 
L 298.500784 168.940304 
L 298.832917 170.041319 
L 299.458895 170.041319 
L 299.772193 169.490812 
L 302.622341 169.490812 
L 303.006987 170.041319 
L 303.367544 168.940304 
L 307.741593 168.940304 
L 308.70114 168.389796 
L 309.271057 168.389796 
L 309.733908 167.839289 
L 310.099685 167.839289 
L 310.314627 166.738274 
L 310.655401 167.288781 
L 315.183379 167.288781 
L 315.578827 167.839289 
L 315.892345 167.288781 
L 316.202077 167.839289 
L 316.412425 170.041319 
L 318.335863 170.041319 
L 318.653075 168.940304 
L 319.098293 170.041319 
L 320.941175 170.041319 
L 321.217386 168.940304 
L 321.321773 170.041319 
L 321.794888 170.041319 
L 322.013583 168.940304 
L 322.289256 170.041319 
L 322.495075 168.940304 
L 322.641157 168.940304 
L 322.82957 170.041319 
L 322.994353 168.940304 
L 323.099953 170.041319 
L 323.142484 168.940304 
L 324.275792 168.940304 
L 324.646789 167.288781 
L 325.05918 167.288781 
L 325.093193 166.738274 
L 325.425711 166.738274 
L 325.597889 166.187766 
L 325.744688 166.738274 
L 325.925034 166.187766 
L 326.046995 166.738274 
L 326.333037 166.187766 
L 326.454009 166.738274 
L 326.470598 166.187766 
L 326.833177 166.187766 
L 327.060357 165.637259 
L 327.203641 165.637259 
L 327.418213 164.536244 
L 327.656299 163.985736 
L 327.820731 164.536244 
L 329.652207 164.536244 
L 329.914075 163.985736 
L 331.317698 163.985736 
L 331.541602 163.435229 
L 331.837562 163.435229 
L 332.057178 162.884721 
L 332.178224 163.435229 
L 332.758958 163.435229 
L 332.954937 162.334213 
L 333.488363 162.334213 
L 333.539588 161.783706 
L 333.614021 162.334213 
L 333.91 162.334213 
L 333.935764 161.783706 
L 334.15091 161.233198 
L 334.211041 161.783706 
L 334.454922 159.581676 
L 335.442636 159.581676 
L 335.541933 159.031168 
L 335.758315 159.031168 
L 335.88507 157.930153 
L 336.033831 159.031168 
L 337.34506 159.031168 
L 337.420933 158.480661 
L 337.67244 159.031168 
L 337.792859 158.480661 
L 338.015502 159.031168 
L 338.304704 159.031168 
L 338.482054 157.930153 
L 338.805341 157.930153 
L 338.93795 158.480661 
L 339.051568 157.379646 
L 339.387115 159.031168 
L 339.738744 157.930153 
L 339.993467 159.031168 
L 340.589752 159.031168 
L 341.053812 157.379646 
L 341.198212 157.930153 
L 341.358126 157.379646 
L 341.789624 158.480661 
L 341.927792 157.379646 
L 342.951829 157.379646 
L 343.116892 156.829138 
L 343.404539 156.829138 
L 343.557879 157.379646 
L 343.751407 156.829138 
L 343.873778 157.379646 
L 344.246555 156.27863 
L 344.755501 156.27863 
L 345.114442 155.177615 
L 345.738013 156.27863 
L 345.871276 155.728123 
L 346.035219 156.27863 
L 346.139185 155.728123 
L 346.347768 155.728123 
L 346.435185 156.27863 
L 346.839073 155.177615 
L 347.046988 155.728123 
L 347.14986 155.177615 
L 347.361839 155.728123 
L 347.64337 155.728123 
L 347.824959 155.177615 
L 347.944356 155.728123 
L 348.062022 155.728123 
L 348.324476 156.27863 
L 348.442048 155.177615 
L 348.974986 155.177615 
L 349.010909 154.0766 
L 351.290252 154.0766 
L 351.515114 153.526093 
L 351.662708 154.0766 
L 351.787751 153.526093 
L 351.882731 154.0766 
L 351.996662 152.975585 
L 352.521593 152.975585 
L 352.769211 152.425078 
L 352.819395 152.975585 
L 352.870811 152.425078 
L 353.153574 152.975585 
L 353.226652 152.425078 
L 353.503176 151.87457 
L 353.611484 151.324063 
L 353.818251 151.324063 
L 353.865793 150.773555 
L 354.153679 149.122032 
L 354.283255 149.67254 
L 354.458138 149.67254 
L 354.489644 148.571525 
L 355.718354 148.571525 
L 355.870966 148.021017 
L 356.111679 148.571525 
L 356.822507 146.920002 
L 357.046712 146.920002 
L 357.180135 146.369495 
L 357.490904 146.369495 
L 357.498523 145.818987 
L 357.59432 146.369495 
L 357.686152 145.26848 
L 357.82188 145.26848 
L 358.009763 144.717972 
L 359.298612 144.717972 
L 359.332625 145.26848 
L 359.413763 144.167465 
L 359.753658 144.167465 
L 359.927243 144.717972 
L 360.060863 144.167465 
L 360.262036 144.717972 
L 360.412764 144.167465 
L 360.582111 144.167465 
L 360.727626 144.717972 
L 360.87191 143.066449 
L 362.599145 143.066449 
L 363.11856 141.965434 
L 363.391973 142.515942 
L 369.916702 142.515942 
L 370.02748 141.965434 
L 370.225617 142.515942 
L 370.282722 141.965434 
L 370.874768 141.965434 
L 371.038708 141.414927 
L 371.869646 141.414927 
L 371.980671 140.864419 
L 372.137167 141.414927 
L 373.410039 141.414927 
L 373.586594 140.864419 
L 373.808934 141.414927 
L 373.931701 141.414927 
L 374.127344 140.313912 
L 374.23497 140.864419 
L 374.712003 140.864419 
L 374.919855 140.313912 
L 375.898223 140.313912 
L 376.057595 141.414927 
L 376.380528 140.313912 
L 378.118072 140.313912 
L 378.29622 139.763404 
L 378.455373 139.763404 
L 378.626775 139.212897 
L 378.754888 139.212897 
L 378.913474 138.662389 
L 379.28452 138.662389 
L 379.350252 138.111882 
L 379.659573 138.111882 
L 379.854959 139.212897 
L 380.007526 138.662389 
L 380.241064 138.662389 
L 380.33629 138.111882 
L 380.693564 138.111882 
L 381.013113 137.561374 
L 381.361562 135.909851 
L 381.475646 136.460359 
L 381.581873 135.909851 
L 381.825693 135.359344 
L 381.941311 135.909851 
L 382.25165 135.359344 
L 382.456894 135.909851 
L 382.624521 135.909851 
L 382.952919 134.258329 
L 383.151268 134.808836 
L 383.269419 134.808836 
L 383.597194 133.707821 
L 383.661557 134.258329 
L 383.874592 133.707821 
L 384.022107 134.258329 
L 384.143721 133.707821 
L 384.668897 133.707821 
L 384.864436 137.010866 
L 385.386672 135.909851 
L 385.731488 135.909851 
L 385.852098 135.359344 
L 386.039958 135.909851 
L 386.160542 135.909851 
L 386.303226 136.460359 
L 386.467285 135.909851 
L 386.69264 135.909851 
L 386.803523 136.460359 
L 386.9444 135.909851 
L 387.136537 136.460359 
L 387.212055 135.909851 
L 387.611421 135.359344 
L 387.764861 135.359344 
L 387.904884 135.909851 
L 388.170745 135.359344 
L 389.256282 135.359344 
L 389.35189 132.606806 
L 389.632149 134.808836 
L 389.926411 135.359344 
L 390.455714 135.359344 
L 390.861504 134.258329 
L 391.000692 135.909851 
L 391.23496 135.359344 
L 391.533603 135.909851 
L 391.670216 134.258329 
L 391.835156 135.359344 
L 391.991036 135.359344 
L 392.094848 134.808836 
L 392.186228 130.404776 
L 392.503579 132.606806 
L 392.529906 129.854268 
L 393.378164 129.854268 
L 393.779425 128.753253 
L 393.94495 129.303761 
L 394.539191 129.303761 
L 394.701101 129.854268 
L 394.874148 129.303761 
L 395.06396 129.303761 
L 395.17547 129.854268 
L 395.514711 129.303761 
L 395.714004 129.303761 
L 395.844658 128.753253 
L 396.004453 129.303761 
L 396.176124 129.303761 
L 396.337004 129.854268 
L 396.43666 129.303761 
L 397.332833 129.303761 
L 397.557039 127.652238 
L 397.828116 128.202746 
L 398.052314 128.202746 
L 398.23382 128.753253 
L 398.316346 128.202746 
L 398.597497 128.753253 
L 398.702604 128.202746 
L 398.950286 128.202746 
L 399.047184 127.652238 
L 399.343178 128.202746 
L 399.953115 128.202746 
L 400.179246 127.652238 
L 400.555941 127.652238 
L 400.650921 127.101731 
L 400.811451 127.652238 
L 401.186716 126.551223 
L 401.298375 126.551223 
L 401.463979 126.000716 
L 401.616636 126.000716 
L 401.903872 125.450208 
L 404.240373 125.450208 
L 404.48929 124.899701 
L 404.722693 124.899701 
L 404.770213 126.000716 
L 404.829065 125.450208 
L 405.20986 125.450208 
L 405.296778 124.899701 
L 405.797828 124.899701 
L 406.037119 124.349193 
L 406.358507 124.349193 
L 406.369197 124.899701 
L 406.476035 124.349193 
L 406.574288 124.899701 
L 407.973747 124.899701 
L 408.236152 125.450208 
L 408.968143 124.899701 
L 410.486108 124.899701 
L 410.551792 124.349193 
L 412.14466 124.349193 
L 412.288142 123.798685 
L 413.76122 121.046148 
L 413.900833 121.046148 
L 414.04649 120.49564 
L 414.111357 121.046148 
L 414.425047 120.49564 
L 414.716485 119.945133 
L 415.065028 119.945133 
L 415.182074 119.394625 
L 415.622549 119.394625 
L 416.260526 119.945133 
L 416.292667 118.29361 
L 416.80612 118.29361 
L 416.965258 118.844118 
L 417.080846 118.29361 
L 417.941704 118.29361 
L 418.260465 118.844118 
L 419.799358 118.844118 
L 420.580507 118.29361 
L 422.158476 118.29361 
L 422.935495 117.743102 
L 423.039415 117.192595 
L 425.376278 117.192595 
L 425.595816 117.743102 
L 426.782143 117.743102 
L 427.648371 118.29361 
L 428.279602 118.29361 
L 428.592856 117.743102 
L 428.870965 116.642087 
L 429.036547 116.642087 
L 429.043009 117.192595 
L 430.900331 117.192595 
L 431.099669 116.642087 
L 435.791773 116.642087 
L 436.383394 116.09158 
L 436.611394 116.09158 
L 436.700394 114.990565 
L 436.990369 114.990565 
L 437.112146 115.541072 
L 437.300921 114.990565 
L 438.360837 114.990565 
L 438.833292 114.440057 
L 439.161478 113.339042 
L 442.03577 113.339042 
L 442.541671 113.88955 
L 442.688044 113.339042 
L 442.836116 113.88955 
L 443.00257 113.339042 
L 443.790895 113.339042 
L 444.154351 113.88955 
L 444.338786 113.339042 
L 444.847344 114.440057 
L 445.045551 113.339042 
L 446.276235 113.339042 
L 446.290794 112.788535 
L 448.24116 112.788535 
L 449.18945 112.238027 
L 449.47403 112.788535 
L 449.681278 112.238027 
L 449.815402 112.788535 
L 450.002762 112.788535 
L 450.130935 112.238027 
L 450.582708 113.339042 
L 450.880985 112.788535 
L 451.281981 113.339042 
L 451.579 113.339042 
L 451.713893 112.788535 
L 452.532783 112.788535 
L 453.505763 113.339042 
L 453.652215 112.788535 
L 454.620381 112.788535 
L 454.934717 113.339042 
L 459.862355 112.788535 
L 460.231319 113.339042 
L 460.550191 112.788535 
L 460.835924 113.339042 
L 460.867893 112.788535 
L 461.116649 112.238027 
L 461.260713 112.238027 
L 461.392495 111.68752 
L 463.683523 111.68752 
L 463.732342 111.137012 
L 464.017119 111.137012 
L 464.777516 111.68752 
L 464.801705 111.137012 
L 465.093855 111.68752 
L 465.164863 110.586504 
L 465.352906 110.586504 
L 465.734403 110.035997 
L 466.373719 110.035997 
L 466.761917 110.586504 
L 467.198393 109.485489 
L 467.216295 108.934982 
L 467.640301 108.384474 
L 467.952151 108.934982 
L 468.390653 108.934982 
L 468.481809 108.384474 
L 469.480213 108.384474 
L 469.617755 108.934982 
L 469.786138 107.833967 
L 469.924923 107.833967 
L 470.188324 108.384474 
L 470.427876 107.833967 
L 470.962082 107.833967 
L 471.197351 106.182444 
L 472.875278 106.182444 
L 473.075881 105.631937 
L 473.198714 105.631937 
L 473.400835 106.182444 
L 473.452963 105.631937 
L 473.988363 105.631937 
L 474.096048 105.081429 
L 474.388523 104.530921 
L 474.47206 103.429906 
L 474.928382 103.429906 
L 475.099833 101.778384 
L 475.456827 101.778384 
L 475.665615 102.328891 
L 475.778412 101.778384 
L 475.930252 101.778384 
L 475.941848 100.126861 
L 476.753918 100.126861 
L 476.894687 99.576354 
L 477.24476 99.576354 
L 477.607519 100.126861 
L 477.64483 99.025846 
L 477.966024 99.025846 
L 478.02523 98.475338 
L 478.249029 97.924831 
L 478.840236 97.924831 
L 478.927131 96.823816 
L 479.180847 96.823816 
L 479.329593 96.273308 
L 479.472325 96.273308 
L 479.984174 95.722801 
L 480.184496 96.273308 
L 480.303793 102.328891 
L 480.433175 102.879399 
L 480.520801 100.677369 
L 481.15198 100.677369 
L 481.411408 101.227876 
L 481.600429 100.126861 
L 482.533907 100.126861 
L 482.722054 100.677369 
L 482.869368 100.126861 
L 483.863597 100.126861 
L 483.986016 99.576354 
L 484.439293 100.677369 
L 484.807876 100.126861 
L 485.01909 100.126861 
L 485.100213 99.576354 
L 485.286686 100.677369 
L 485.467949 99.576354 
L 486.220048 99.576354 
L 486.336621 100.126861 
L 486.604526 100.126861 
L 486.646669 99.576354 
L 486.950013 99.025846 
L 486.961852 99.576354 
L 487.206254 99.025846 
L 487.532325 99.025846 
L 487.825945 98.475338 
L 489.349626 98.475338 
L 489.463874 97.924831 
L 489.766043 98.475338 
L 489.776132 97.924831 
L 490.210021 97.374323 
L 490.476621 97.374323 
L 490.783412 96.823816 
L 490.936595 96.273308 
L 491.053712 96.273308 
L 491.422251 97.374323 
L 491.495053 96.273308 
L 491.742874 96.823816 
L 491.951464 96.273308 
L 492.882394 96.273308 
L 492.986699 95.722801 
L 493.116696 96.273308 
L 493.567186 95.722801 
L 493.784784 96.273308 
L 494.00531 95.722801 
L 494.137808 96.273308 
L 494.446383 95.172293 
L 494.659585 95.722801 
L 495.388815 95.722801 
L 495.678932 95.172293 
L 496.102546 95.172293 
L 496.439582 96.273308 
L 496.529414 95.722801 
L 496.889531 95.722801 
L 496.980922 94.621786 
L 497.435109 95.722801 
L 497.593721 95.172293 
L 497.95967 95.722801 
L 498.226795 95.722801 
L 498.363647 95.172293 
L 498.690758 95.172293 
L 499.119141 94.621786 
L 499.174638 95.722801 
L 499.328444 94.621786 
L 499.469452 95.172293 
L 499.554086 94.621786 
L 499.889835 95.172293 
L 500.292685 94.621786 
L 500.495609 94.621786 
L 500.774162 95.172293 
L 501.170106 95.172293 
L 501.576068 94.071278 
L 501.788719 94.621786 
L 502.21872 94.621786 
L 502.419804 95.172293 
L 502.449407 95.722801 
L 502.69991 94.621786 
L 502.832758 95.172293 
L 502.989019 94.621786 
L 503.22121 95.172293 
L 503.484007 95.172293 
L 503.652831 95.722801 
L 503.973002 95.722801 
L 504.306341 94.621786 
L 504.532528 95.172293 
L 504.807977 94.071278 
L 504.951426 94.071278 
L 505.041466 94.621786 
L 505.32161 94.621786 
L 505.345123 94.071278 
L 506.27381 94.071278 
L 506.425952 93.520771 
L 506.556267 93.520771 
L 506.757153 92.970263 
L 506.930421 93.520771 
L 507.062564 92.970263 
L 507.259569 92.970263 
L 507.370471 92.419756 
L 507.513609 92.970263 
L 507.559727 92.419756 
L 507.718185 91.31874 
L 507.911781 91.869248 
L 507.972707 92.419756 
L 508.176876 91.869248 
L 508.343726 92.419756 
L 508.544832 91.869248 
L 508.874395 91.869248 
L 508.966159 91.31874 
L 509.193831 91.869248 
L 509.791758 90.217725 
L 509.952601 90.217725 
L 510.11897 91.31874 
L 510.197623 90.768233 
L 510.432839 90.768233 
L 510.539857 91.31874 
L 510.732191 91.31874 
L 510.907298 90.768233 
L 511.132414 90.768233 
L 511.510359 89.11671 
L 511.711435 89.667218 
L 514.354618 89.667218 
L 514.47762 89.11671 
L 514.633601 89.11671 
L 514.759039 89.667218 
L 515.010714 89.11671 
L 515.637729 89.11671 
L 515.742619 88.015695 
L 516.406069 89.11671 
L 516.870554 89.11671 
L 517.506136 88.015695 
L 518.62972 88.566203 
L 518.915061 88.015695 
L 519.229412 88.566203 
L 519.45392 87.465188 
L 519.543964 88.566203 
L 519.839916 87.465188 
L 520.162367 88.566203 
L 520.269108 87.465188 
L 520.475882 87.465188 
L 520.589548 88.015695 
L 520.795576 87.465188 
L 520.919219 87.465188 
L 521.034389 88.015695 
L 521.174323 86.364173 
L 521.541313 87.465188 
L 521.884561 87.465188 
L 522.094297 86.91468 
L 522.490118 86.91468 
L 522.812017 87.465188 
L 523.000202 87.465188 
L 523.142464 86.364173 
L 523.319918 87.465188 
L 523.418992 86.91468 
L 523.658212 86.364173 
L 523.804891 86.364173 
L 524.061338 87.465188 
L 524.306561 85.813665 
L 524.614782 85.813665 
L 524.638176 84.71265 
L 524.659701 85.263157 
L 524.820899 85.813665 
L 524.990349 84.71265 
L 525.061029 85.813665 
L 525.316464 85.813665 
L 525.351269 85.263157 
L 525.639057 84.71265 
L 525.811295 84.71265 
L 525.892027 85.813665 
L 526.278239 84.71265 
L 526.340785 85.813665 
L 526.551144 84.71265 
L 526.712965 86.364173 
L 527.204882 85.263157 
L 527.575457 86.91468 
L 527.604113 86.364173 
L 527.83884 86.91468 
L 527.987236 86.91468 
L 528.141292 85.813665 
L 528.325269 86.91468 
L 528.678976 85.813665 
L 528.813171 86.91468 
L 528.95847 86.364173 
L 529.25456 86.364173 
L 529.450095 86.91468 
L 529.824402 86.91468 
L 529.835827 86.364173 
L 530.424941 87.465188 
L 530.737377 85.813665 
L 530.903198 85.813665 
L 531.096461 86.364173 
L 531.151089 85.263157 
L 531.425445 86.364173 
L 531.594381 85.263157 
L 531.764686 86.364173 
L 531.835067 85.813665 
L 532.184345 85.813665 
L 532.39366 85.263157 
L 532.489394 84.162142 
L 532.684288 85.263157 
L 533.004933 84.71265 
L 533.146773 84.162142 
L 533.32203 84.71265 
L 533.471665 82.51062 
L 533.706538 82.51062 
L 534.017146 81.960112 
L 534.054618 83.061127 
L 534.36032 81.960112 
L 534.795471 83.061127 
L 534.913051 81.409605 
L 535.265892 80.859097 
L 535.650195 81.960112 
L 535.893765 82.51062 
L 536.57083 81.960112 
L 536.651927 81.409605 
L 537.603512 81.409605 
L 537.891778 80.859097 
L 538.183365 79.207574 
L 538.93199 79.758082 
L 539.507529 79.758082 
L 539.825398 79.207574 
L 539.907335 79.758082 
L 540.148838 78.657067 
L 540.202642 79.758082 
L 540.466961 79.207574 
L 540.946438 79.207574 
L 541.19249 78.106559 
L 541.41833 79.207574 
L 541.726782 78.106559 
L 541.847033 78.657067 
L 542.011772 78.106559 
L 542.441874 78.657067 
L 542.690463 78.106559 
L 543.41757 78.106559 
L 543.591122 78.657067 
L 544.012247 77.556052 
L 544.183422 78.657067 
L 544.331068 78.657067 
L 544.388479 78.106559 
L 544.597794 78.106559 
L 544.823544 77.556052 
L 544.978018 78.657067 
L 545.217861 77.556052 
L 545.323192 78.657067 
L 545.617297 77.556052 
L 545.798143 77.556052 
L 545.914847 78.106559 
L 546.106091 78.106559 
L 546.160133 78.657067 
L 546.17123 78.106559 
L 546.497714 78.106559 
L 546.608179 78.657067 
L 546.907669 77.556052 
L 547.183461 78.657067 
L 547.656103 78.106559 
L 548.666133 78.106559 
L 548.908353 78.657067 
L 549.165867 78.106559 
L 549.331627 78.657067 
L 549.434022 78.106559 
L 550.151357 78.106559 
L 550.370365 78.657067 
L 550.873222 77.556052 
L 550.995488 78.106559 
L 551.397704 77.556052 
L 551.836978 78.106559 
L 552.070284 77.556052 
L 552.619183 78.657067 
L 552.763206 79.207574 
L 553.001829 79.207574 
L 553.461423 77.556052 
L 553.586435 77.556052 
L 553.745141 78.657067 
L 554.117891 78.657067 
L 554.326963 78.106559 
L 554.485512 78.106559 
L 554.649441 78.657067 
L 554.958952 78.657067 
L 555.381574 78.106559 
L 555.616174 78.106559 
L 555.712214 77.556052 
L 555.9377 78.657067 
L 556.0565 77.556052 
L 556.204202 78.106559 
L 556.297485 77.556052 
L 556.889699 77.556052 
L 556.911135 76.455037 
L 557.006768 77.005544 
L 557.185689 77.005544 
L 557.292605 77.556052 
L 557.46078 77.005544 
L 557.646212 77.556052 
L 558.119081 77.005544 
L 558.520718 77.005544 
L 558.673267 75.904529 
L 558.733428 76.455037 
L 558.913174 75.904529 
L 559.154229 76.455037 
L 559.267078 77.005544 
L 559.435294 76.455037 
L 559.601182 77.005544 
L 559.800713 75.904529 
L 559.88525 77.005544 
L 560.064522 85.263157 
L 560.553994 85.263157 
L 560.688906 85.813665 
L 560.817135 83.611635 
L 561.531612 84.162142 
L 562.062471 84.162142 
L 562.165709 83.611635 
L 562.298471 83.611635 
L 562.714541 84.71265 
L 563.029264 84.71265 
L 563.042682 84.162142 
L 563.436685 83.611635 
L 563.715735 84.162142 
L 563.715735 84.162142 
" clip-path="url(#p0008b8c4e8)" style="fill: none; stroke-dasharray: 6,1.5; stroke-dashoffset: 0; stroke: #008000; stroke-width: 1.5"/>
   </g>
   <g id="line2d_20">
    <path d="M 38.539265 362.168452 
L 39.857187 363.269467 
L 41.170855 363.269467 
L 42.441541 362.718959 
L 44.281752 362.718959 
L 48.125053 362.168452 
L 48.233567 362.718959 
L 51.561706 362.718959 
L 51.875363 363.819974 
L 52.569304 363.819974 
L 52.857842 360.516929 
L 53.24238 363.819974 
L 55.114962 363.819974 
L 55.458345 360.516929 
L 58.040923 360.516929 
L 59.402268 361.067436 
L 59.587659 361.617944 
L 60.622505 361.617944 
L 60.912965 359.966421 
L 64.087832 359.966421 
L 64.464404 360.516929 
L 74.144042 360.516929 
L 74.448931 359.966421 
L 80.281085 359.966421 
L 80.571631 362.168452 
L 128.933344 362.168452 
L 129.25944 363.269467 
L 129.653724 366.572512 
L 129.935374 366.572512 
L 130.253728 367.123019 
L 132.165611 367.123019 
L 134.802164 368.774542 
L 135.071375 368.774542 
L 135.522772 369.32505 
L 148.849732 369.32505 
L 149.565866 370.426065 
L 179.802333 370.426065 
L 180.142451 370.976572 
L 180.495553 370.426065 
L 182.551362 370.426065 
L 182.85359 370.976572 
L 188.352846 370.976572 
L 189.560191 372.077587 
L 189.761547 370.976572 
L 190.149137 370.976572 
L 190.468614 372.077587 
L 197.911419 372.077587 
L 198.258149 371.52708 
L 198.460009 372.077587 
L 215.974635 372.077587 
L 216.280539 373.178602 
L 255.288489 373.178602 
L 255.658837 373.72911 
L 345.114442 373.72911 
L 345.472183 373.178602 
L 356.111679 373.178602 
L 356.528636 373.72911 
L 356.640075 374.830125 
L 384.668897 374.830125 
L 384.864436 374.279617 
L 387.611421 374.279617 
L 387.764861 374.830125 
L 498.554619 374.830125 
L 498.690758 374.279617 
L 507.062564 374.279617 
L 507.370471 374.830125 
L 539.173139 374.830125 
L 539.507529 374.279617 
L 563.715735 374.279617 
L 563.715735 374.279617 
" clip-path="url(#p0008b8c4e8)" style="fill: none; stroke-dasharray: 9,3; stroke-dashoffset: 0; stroke: #ffa500; stroke-width: 1.5"/>
   </g>
   <g id="line2d_21">
    <path d="M 38.539265 324.183431 
L 48.125053 324.183431 
L 48.233567 324.733939 
L 51.561706 324.733939 
L 51.875363 325.284446 
L 52.569304 325.284446 
L 52.857842 326.385461 
L 53.24238 325.284446 
L 55.114962 325.284446 
L 55.690476 326.935969 
L 57.04487 326.935969 
L 57.350008 327.486476 
L 57.534514 326.935969 
L 57.68885 327.486476 
L 71.893989 327.486476 
L 72.196378 328.587491 
L 72.315372 327.486476 
L 72.845548 328.587491 
L 89.815659 328.587491 
L 90.534808 329.137999 
L 90.697718 328.587491 
L 91.851253 328.587491 
L 92.164499 329.137999 
L 92.510102 328.587491 
L 93.33238 328.587491 
L 93.786567 329.137999 
L 94.123741 328.587491 
L 120.265302 328.587491 
L 120.547196 329.137999 
L 120.907402 329.137999 
L 121.226816 328.587491 
L 121.555442 328.587491 
L 121.781883 329.137999 
L 122.0273 328.587491 
L 122.435147 329.137999 
L 129.25944 329.137999 
L 129.653724 328.587491 
L 129.935374 328.587491 
L 130.253728 329.688506 
L 131.805516 329.688506 
L 132.165611 332.441044 
L 134.802164 330.239014 
L 135.071375 330.789522 
L 136.956453 330.789522 
L 137.324219 333.542059 
L 137.648525 334.092567 
L 152.25789 334.092567 
L 152.768616 333.542059 
L 153.172772 334.092567 
L 154.074218 333.542059 
L 156.269721 333.542059 
L 157.568581 334.092567 
L 162.991344 334.092567 
L 163.401373 334.643074 
L 197.64779 334.643074 
L 197.911419 335.193582 
L 198.258149 334.643074 
L 204.358765 334.643074 
L 204.745888 341.799672 
L 205.646968 341.799672 
L 206.014629 346.203733 
L 206.338774 347.855255 
L 225.969841 347.855255 
L 228.730922 348.405763 
L 257.865668 348.405763 
L 258.189567 350.607793 
L 264.941622 350.607793 
L 265.247432 347.304748 
L 280.855977 347.304748 
L 281.03464 347.855255 
L 310.099685 347.855255 
L 310.314627 348.405763 
L 310.655401 347.855255 
L 318.507478 347.855255 
L 318.653075 348.405763 
L 318.950147 347.855255 
L 320.941175 347.855255 
L 321.217386 348.405763 
L 321.321773 347.855255 
L 324.275792 347.855255 
L 324.482073 348.405763 
L 333.729173 348.405763 
L 333.91 347.855255 
L 345.472183 347.855255 
L 345.738013 347.304748 
L 345.871276 347.855255 
L 346.035219 347.304748 
L 346.139185 347.855255 
L 346.347768 347.855255 
L 346.435185 347.304748 
L 346.669096 347.855255 
L 348.062022 347.855255 
L 348.324476 347.304748 
L 348.442048 347.855255 
L 356.528636 347.855255 
L 356.640075 347.304748 
L 384.668897 347.304748 
L 384.864436 347.855255 
L 389.256282 347.855255 
L 389.35189 350.607793 
L 389.632149 347.855255 
L 392.172322 347.855255 
L 392.186228 350.607793 
L 392.503579 347.855255 
L 392.529906 350.607793 
L 417.941704 350.607793 
L 418.260465 350.057286 
L 418.534302 350.607793 
L 449.47403 350.607793 
L 449.681278 351.158301 
L 449.815402 350.607793 
L 450.130935 350.607793 
L 450.582708 351.158301 
L 470.962082 351.158301 
L 471.197351 351.708808 
L 474.096048 351.708808 
L 474.388523 352.259316 
L 480.184496 352.259316 
L 480.303793 351.708808 
L 486.961852 351.708808 
L 487.206254 352.259316 
L 498.554619 352.259316 
L 498.690758 356.112869 
L 507.062564 356.112869 
L 507.370471 355.562361 
L 515.010714 355.562361 
L 515.742619 357.764391 
L 523.142464 357.764391 
L 523.418992 357.213884 
L 536.905228 357.213884 
L 537.372172 356.663376 
L 539.173139 356.663376 
L 539.507529 358.865406 
L 539.907335 359.415914 
L 542.011772 359.415914 
L 542.441874 359.966421 
L 559.88525 359.966421 
L 560.064522 356.663376 
L 563.715735 356.663376 
L 563.715735 356.663376 
" clip-path="url(#p0008b8c4e8)" style="fill: none; stroke-dasharray: 12,4.5; stroke-dashoffset: 0; stroke: #ee82ee; stroke-width: 1.5"/>
   </g>
   <g id="patch_3">
    <path d="M 33.2875 374.830125 
L 33.2875 22.318125 
" style="fill: none; stroke: #000000; stroke-width: 0.8; stroke-linejoin: miter; stroke-linecap: square"/>
   </g>
   <g id="patch_4">
    <path d="M 568.9675 374.830125 
L 568.9675 22.318125 
" style="fill: none; stroke: #000000; stroke-width: 0.8; stroke-linejoin: miter; stroke-linecap: square"/>
   </g>
   <g id="patch_5">
    <path d="M 33.2875 374.830125 
L 568.9675 374.830125 
" style="fill: none; stroke: #000000; stroke-width: 0.8; stroke-linejoin: miter; stroke-linecap: square"/>
   </g>
   <g id="patch_6">
    <path d="M 33.2875 22.318125 
L 568.9675 22.318125 
" style="fill: none; stroke: #000000; stroke-width: 0.8; stroke-linejoin: miter; stroke-linecap: square"/>
   </g>
   <g id="text_17">
    <!-- Rust/Coreutils running GNU's testsuite -->
    <g transform="translate(186.090625 16.318125) scale(0.12 -0.12)">
     <defs>
      <path id="DejaVuSans-52" d="M 2841 2188 
Q 3044 2119 3236 1894 
Q 3428 1669 3622 1275 
L 4263 0 
L 3584 0 
L 2988 1197 
Q 2756 1666 2539 1819 
Q 2322 1972 1947 1972 
L 1259 1972 
L 1259 0 
L 628 0 
L 628 4666 
L 2053 4666 
Q 2853 4666 3247 4331 
Q 3641 3997 3641 3322 
Q 3641 2881 3436 2590 
Q 3231 2300 2841 2188 
z
M 1259 4147 
L 1259 2491 
L 2053 2491 
Q 2509 2491 2742 2702 
Q 2975 2913 2975 3322 
Q 2975 3731 2742 3939 
Q 2509 4147 2053 4147 
L 1259 4147 
z
" transform="scale(0.015625)"/>
      <path id="DejaVuSans-75" d="M 544 1381 
L 544 3500 
L 1119 3500 
L 1119 1403 
Q 1119 906 1312 657 
Q 1506 409 1894 409 
Q 2359 409 2629 706 
Q 2900 1003 2900 1516 
L 2900 3500 
L 3475 3500 
L 3475 0 
L 2900 0 
L 2900 538 
Q 2691 219 2414 64 
Q 2138 -91 1772 -91 
Q 1169 -91 856 284 
Q 544 659 544 1381 
z
M 1991 3584 
L 1991 3584 
z
" transform="scale(0.015625)"/>
      <path id="DejaVuSans-73" d="M 2834 3397 
L 2834 2853 
Q 2591 2978 2328 3040 
Q 2066 3103 1784 3103 
Q 1356 3103 1142 2972 
Q 928 2841 928 2578 
Q 928 2378 1081 2264 
Q 1234 2150 1697 2047 
L 1894 2003 
Q 2506 1872 2764 1633 
Q 3022 1394 3022 966 
Q 3022 478 2636 193 
Q 2250 -91 1575 -91 
Q 1294 -91 989 -36 
Q 684 19 347 128 
L 347 722 
Q 666 556 975 473 
Q 1284 391 1588 391 
Q 1994 391 2212 530 
Q 2431 669 2431 922 
Q 2431 1156 2273 1281 
Q 2116 1406 1581 1522 
L 1381 1569 
Q 847 1681 609 1914 
Q 372 2147 372 2553 
Q 372 3047 722 3315 
Q 1072 3584 1716 3584 
Q 2034 3584 2315 3537 
Q 2597 3491 2834 3397 
z
" transform="scale(0.015625)"/>
      <path id="DejaVuSans-74" d="M 1172 4494 
L 1172 3500 
L 2356 3500 
L 2356 3053 
L 1172 3053 
L 1172 1153 
Q 1172 725 1289 603 
Q 1406 481 1766 481 
L 2356 481 
L 2356 0 
L 1766 0 
Q 1100 0 847 248 
Q 594 497 594 1153 
L 594 3053 
L 172 3053 
L 172 3500 
L 594 3500 
L 594 4494 
L 1172 4494 
z
" transform="scale(0.015625)"/>
      <path id="DejaVuSans-2f" d="M 1625 4666 
L 2156 4666 
L 531 -594 
L 0 -594 
L 1625 4666 
z
" transform="scale(0.015625)"/>
      <path id="DejaVuSans-43" d="M 4122 4306 
L 4122 3641 
Q 3803 3938 3442 4084 
Q 3081 4231 2675 4231 
Q 1875 4231 1450 3742 
Q 1025 3253 1025 2328 
Q 1025 1406 1450 917 
Q 1875 428 2675 428 
Q 3081 428 3442 575 
Q 3803 722 4122 1019 
L 4122 359 
Q 3791 134 3420 21 
Q 3050 -91 2638 -91 
Q 1578 -91 968 557 
Q 359 1206 359 2328 
Q 359 3453 968 4101 
Q 1578 4750 2638 4750 
Q 3056 4750 3426 4639 
Q 3797 4528 4122 4306 
z
" transform="scale(0.015625)"/>
      <path id="DejaVuSans-6f" d="M 1959 3097 
Q 1497 3097 1228 2736 
Q 959 2375 959 1747 
Q 959 1119 1226 758 
Q 1494 397 1959 397 
Q 2419 397 2687 759 
Q 2956 1122 2956 1747 
Q 2956 2369 2687 2733 
Q 2419 3097 1959 3097 
z
M 1959 3584 
Q 2709 3584 3137 3096 
Q 3566 2609 3566 1747 
Q 3566 888 3137 398 
Q 2709 -91 1959 -91 
Q 1206 -91 779 398 
Q 353 888 353 1747 
Q 353 2609 779 3096 
Q 1206 3584 1959 3584 
z
" transform="scale(0.015625)"/>
      <path id="DejaVuSans-72" d="M 2631 2963 
Q 2534 3019 2420 3045 
Q 2306 3072 2169 3072 
Q 1681 3072 1420 2755 
Q 1159 2438 1159 1844 
L 1159 0 
L 581 0 
L 581 3500 
L 1159 3500 
L 1159 2956 
Q 1341 3275 1631 3429 
Q 1922 3584 2338 3584 
Q 2397 3584 2469 3576 
Q 2541 3569 2628 3553 
L 2631 2963 
z
" transform="scale(0.015625)"/>
      <path id="DejaVuSans-65" d="M 3597 1894 
L 3597 1613 
L 953 1613 
Q 991 1019 1311 708 
Q 1631 397 2203 397 
Q 2534 397 2845 478 
Q 3156 559 3463 722 
L 3463 178 
Q 3153 47 2828 -22 
Q 2503 -91 2169 -91 
Q 1331 -91 842 396 
Q 353 884 353 1716 
Q 353 2575 817 3079 
Q 1281 3584 2069 3584 
Q 2775 3584 3186 3129 
Q 3597 2675 3597 1894 
z
M 3022 2063 
Q 3016 2534 2758 2815 
Q 2500 3097 2075 3097 
Q 1594 3097 1305 2825 
Q 1016 2553 972 2059 
L 3022 2063 
z
" transform="scale(0.015625)"/>
      <path id="DejaVuSans-69" d="M 603 3500 
L 1178 3500 
L 1178 0 
L 603 0 
L 603 3500 
z
M 603 4863 
L 1178 4863 
L 1178 4134 
L 603 4134 
L 603 4863 
z
" transform="scale(0.015625)"/>
      <path id="DejaVuSans-6c" d="M 603 4863 
L 1178 4863 
L 1178 0 
L 603 0 
L 603 4863 
z
" transform="scale(0.015625)"/>
      <path id="DejaVuSans-20" transform="scale(0.015625)"/>
      <path id="DejaVuSans-6e" d="M 3513 2113 
L 3513 0 
L 2938 0 
L 2938 2094 
Q 2938 2591 2744 2837 
Q 2550 3084 2163 3084 
Q 1697 3084 1428 2787 
Q 1159 2491 1159 1978 
L 1159 0 
L 581 0 
L 581 3500 
L 1159 3500 
L 1159 2956 
Q 1366 3272 1645 3428 
Q 1925 3584 2291 3584 
Q 2894 3584 3203 3211 
Q 3513 2838 3513 2113 
z
" transform="scale(0.015625)"/>
      <path id="DejaVuSans-67" d="M 2906 1791 
Q 2906 2416 2648 2759 
Q 2391 3103 1925 3103 
Q 1463 3103 1205 2759 
Q 947 2416 947 1791 
Q 947 1169 1205 825 
Q 1463 481 1925 481 
Q 2391 481 2648 825 
Q 2906 1169 2906 1791 
z
M 3481 434 
Q 3481 -459 3084 -895 
Q 2688 -1331 1869 -1331 
Q 1566 -1331 1297 -1286 
Q 1028 -1241 775 -1147 
L 775 -588 
Q 1028 -725 1275 -790 
Q 1522 -856 1778 -856 
Q 2344 -856 2625 -561 
Q 2906 -266 2906 331 
L 2906 616 
Q 2728 306 2450 153 
Q 2172 0 1784 0 
Q 1141 0 747 490 
Q 353 981 353 1791 
Q 353 2603 747 3093 
Q 1141 3584 1784 3584 
Q 2172 3584 2450 3431 
Q 2728 3278 2906 2969 
L 2906 3500 
L 3481 3500 
L 3481 434 
z
" transform="scale(0.015625)"/>
      <path id="DejaVuSans-47" d="M 3809 666 
L 3809 1919 
L 2778 1919 
L 2778 2438 
L 4434 2438 
L 4434 434 
Q 4069 175 3628 42 
Q 3188 -91 2688 -91 
Q 1594 -91 976 548 
Q 359 1188 359 2328 
Q 359 3472 976 4111 
Q 1594 4750 2688 4750 
Q 3144 4750 3555 4637 
Q 3966 4525 4313 4306 
L 4313 3634 
Q 3963 3931 3569 4081 
Q 3175 4231 2741 4231 
Q 1884 4231 1454 3753 
Q 1025 3275 1025 2328 
Q 1025 1384 1454 906 
Q 1884 428 2741 428 
Q 3075 428 3337 486 
Q 3600 544 3809 666 
z
" transform="scale(0.015625)"/>
      <path id="DejaVuSans-4e" d="M 628 4666 
L 1478 4666 
L 3547 763 
L 3547 4666 
L 4159 4666 
L 4159 0 
L 3309 0 
L 1241 3903 
L 1241 0 
L 628 0 
L 628 4666 
z
" transform="scale(0.015625)"/>
      <path id="DejaVuSans-55" d="M 556 4666 
L 1191 4666 
L 1191 1831 
Q 1191 1081 1462 751 
Q 1734 422 2344 422 
Q 2950 422 3222 751 
Q 3494 1081 3494 1831 
L 3494 4666 
L 4128 4666 
L 4128 1753 
Q 4128 841 3676 375 
Q 3225 -91 2344 -91 
Q 1459 -91 1007 375 
Q 556 841 556 1753 
L 556 4666 
z
" transform="scale(0.015625)"/>
      <path id="DejaVuSans-27" d="M 1147 4666 
L 1147 2931 
L 616 2931 
L 616 4666 
L 1147 4666 
z
" transform="scale(0.015625)"/>
     </defs>
     <use xlink:href="#DejaVuSans-52"/>
     <use xlink:href="#DejaVuSans-75" x="64.982422"/>
     <use xlink:href="#DejaVuSans-73" x="128.361328"/>
     <use xlink:href="#DejaVuSans-74" x="180.460938"/>
     <use xlink:href="#DejaVuSans-2f" x="219.669922"/>
     <use xlink:href="#DejaVuSans-43" x="253.361328"/>
     <use xlink:href="#DejaVuSans-6f" x="323.185547"/>
     <use xlink:href="#DejaVuSans-72" x="384.367188"/>
     <use xlink:href="#DejaVuSans-65" x="423.230469"/>
     <use xlink:href="#DejaVuSans-75" x="484.753906"/>
     <use xlink:href="#DejaVuSans-74" x="548.132812"/>
     <use xlink:href="#DejaVuSans-69" x="587.341797"/>
     <use xlink:href="#DejaVuSans-6c" x="615.125"/>
     <use xlink:href="#DejaVuSans-73" x="642.908203"/>
     <use xlink:href="#DejaVuSans-20" x="695.007812"/>
     <use xlink:href="#DejaVuSans-72" x="726.794922"/>
     <use xlink:href="#DejaVuSans-75" x="767.908203"/>
     <use xlink:href="#DejaVuSans-6e" x="831.287109"/>
     <use xlink:href="#DejaVuSans-6e" x="894.666016"/>
     <use xlink:href="#DejaVuSans-69" x="958.044922"/>
     <use xlink:href="#DejaVuSans-6e" x="985.828125"/>
     <use xlink:href="#DejaVuSans-67" x="1049.207031"/>
     <use xlink:href="#DejaVuSans-20" x="1112.683594"/>
     <use xlink:href="#DejaVuSans-47" x="1144.470703"/>
     <use xlink:href="#DejaVuSans-4e" x="1221.960938"/>
     <use xlink:href="#DejaVuSans-55" x="1296.765625"/>
     <use xlink:href="#DejaVuSans-27" x="1369.958984"/>
     <use xlink:href="#DejaVuSans-73" x="1397.449219"/>
     <use xlink:href="#DejaVuSans-20" x="1449.548828"/>
     <use xlink:href="#DejaVuSans-74" x="1481.335938"/>
     <use xlink:href="#DejaVuSans-65" x="1520.544922"/>
     <use xlink:href="#DejaVuSans-73" x="1582.068359"/>
     <use xlink:href="#DejaVuSans-74" x="1634.167969"/>
     <use xlink:href="#DejaVuSans-73" x="1673.376953"/>
     <use xlink:href="#DejaVuSans-75" x="1725.476562"/>
     <use xlink:href="#DejaVuSans-69" x="1788.855469"/>
     <use xlink:href="#DejaVuSans-74" x="1816.638672"/>
     <use xlink:href="#DejaVuSans-65" x="1855.847656"/>
    </g>
   </g>
   <g id="legend_1">
    <g id="patch_7">
     <path d="M 505.762812 236.769437 
L 561.9675 236.769437 
Q 563.9675 236.769437 563.9675 234.769437 
L 563.9675 162.378812 
Q 563.9675 160.378812 561.9675 160.378812 
L 505.762812 160.378812 
Q 503.762812 160.378812 503.762812 162.378812 
L 503.762812 234.769437 
Q 503.762812 236.769437 505.762812 236.769437 
z
" style="fill: #ffffff; opacity: 0.8; stroke: #cccccc; stroke-linejoin: miter"/>
    </g>
    <g id="line2d_22">
     <path d="M 507.762812 168.47725 
L 517.762812 168.47725 
L 527.762812 168.47725 
" style="fill: none; stroke: #0000ff; stroke-width: 1.5; stroke-linecap: square"/>
    </g>
    <g id="text_18">
     <!-- total -->
     <g transform="translate(535.762812 171.97725) scale(0.1 -0.1)">
      <defs>
       <path id="DejaVuSans-61" d="M 2194 1759 
Q 1497 1759 1228 1600 
Q 959 1441 959 1056 
Q 959 750 1161 570 
Q 1363 391 1709 391 
Q 2188 391 2477 730 
Q 2766 1069 2766 1631 
L 2766 1759 
L 2194 1759 
z
M 3341 1997 
L 3341 0 
L 2766 0 
L 2766 531 
Q 2569 213 2275 61 
Q 1981 -91 1556 -91 
Q 1019 -91 701 211 
Q 384 513 384 1019 
Q 384 1609 779 1909 
Q 1175 2209 1959 2209 
L 2766 2209 
L 2766 2266 
Q 2766 2663 2505 2880 
Q 2244 3097 1772 3097 
Q 1472 3097 1187 3025 
Q 903 2953 641 2809 
L 641 3341 
Q 956 3463 1253 3523 
Q 1550 3584 1831 3584 
Q 2591 3584 2966 3190 
Q 3341 2797 3341 1997 
z
" transform="scale(0.015625)"/>
      </defs>
      <use xlink:href="#DejaVuSans-74"/>
      <use xlink:href="#DejaVuSans-6f" x="39.208984"/>
      <use xlink:href="#DejaVuSans-74" x="100.390625"/>
      <use xlink:href="#DejaVuSans-61" x="139.599609"/>
      <use xlink:href="#DejaVuSans-6c" x="200.878906"/>
     </g>
    </g>
    <g id="line2d_23">
     <path d="M 507.762812 183.155375 
L 517.762812 183.155375 
L 527.762812 183.155375 
" style="fill: none; stroke-dasharray: 3,1.5; stroke-dashoffset: 0; stroke: #808080; stroke-width: 1.5"/>
    </g>
    <g id="text_19">
     <!-- fail -->
     <g transform="translate(535.762812 186.655375) scale(0.1 -0.1)">
      <defs>
       <path id="DejaVuSans-66" d="M 2375 4863 
L 2375 4384 
L 1825 4384 
Q 1516 4384 1395 4259 
Q 1275 4134 1275 3809 
L 1275 3500 
L 2222 3500 
L 2222 3053 
L 1275 3053 
L 1275 0 
L 697 0 
L 697 3053 
L 147 3053 
L 147 3500 
L 697 3500 
L 697 3744 
Q 697 4328 969 4595 
Q 1241 4863 1831 4863 
L 2375 4863 
z
" transform="scale(0.015625)"/>
      </defs>
      <use xlink:href="#DejaVuSans-66"/>
      <use xlink:href="#DejaVuSans-61" x="35.205078"/>
      <use xlink:href="#DejaVuSans-69" x="96.484375"/>
      <use xlink:href="#DejaVuSans-6c" x="124.267578"/>
     </g>
    </g>
    <g id="line2d_24">
     <path d="M 507.762812 197.8335 
L 517.762812 197.8335 
L 527.762812 197.8335 
" style="fill: none; stroke-dasharray: 6,1.5; stroke-dashoffset: 0; stroke: #008000; stroke-width: 1.5"/>
    </g>
    <g id="text_20">
     <!-- pass -->
     <g transform="translate(535.762812 201.3335) scale(0.1 -0.1)">
      <defs>
       <path id="DejaVuSans-70" d="M 1159 525 
L 1159 -1331 
L 581 -1331 
L 581 3500 
L 1159 3500 
L 1159 2969 
Q 1341 3281 1617 3432 
Q 1894 3584 2278 3584 
Q 2916 3584 3314 3078 
Q 3713 2572 3713 1747 
Q 3713 922 3314 415 
Q 2916 -91 2278 -91 
Q 1894 -91 1617 61 
Q 1341 213 1159 525 
z
M 3116 1747 
Q 3116 2381 2855 2742 
Q 2594 3103 2138 3103 
Q 1681 3103 1420 2742 
Q 1159 2381 1159 1747 
Q 1159 1113 1420 752 
Q 1681 391 2138 391 
Q 2594 391 2855 752 
Q 3116 1113 3116 1747 
z
" transform="scale(0.015625)"/>
      </defs>
      <use xlink:href="#DejaVuSans-70"/>
      <use xlink:href="#DejaVuSans-61" x="63.476562"/>
      <use xlink:href="#DejaVuSans-73" x="124.755859"/>
      <use xlink:href="#DejaVuSans-73" x="176.855469"/>
     </g>
    </g>
    <g id="line2d_25">
     <path d="M 507.762812 212.511625 
L 517.762812 212.511625 
L 527.762812 212.511625 
" style="fill: none; stroke-dasharray: 9,3; stroke-dashoffset: 0; stroke: #ffa500; stroke-width: 1.5"/>
    </g>
    <g id="text_21">
     <!-- error -->
     <g transform="translate(535.762812 216.011625) scale(0.1 -0.1)">
      <use xlink:href="#DejaVuSans-65"/>
      <use xlink:href="#DejaVuSans-72" x="61.523438"/>
      <use xlink:href="#DejaVuSans-72" x="100.886719"/>
      <use xlink:href="#DejaVuSans-6f" x="139.75"/>
      <use xlink:href="#DejaVuSans-72" x="200.931641"/>
     </g>
    </g>
    <g id="line2d_26">
     <path d="M 507.762812 227.18975 
L 517.762812 227.18975 
L 527.762812 227.18975 
" style="fill: none; stroke-dasharray: 12,4.5; stroke-dashoffset: 0; stroke: #ee82ee; stroke-width: 1.5"/>
    </g>
    <g id="text_22">
     <!-- skip -->
     <g transform="translate(535.762812 230.68975) scale(0.1 -0.1)">
      <defs>
       <path id="DejaVuSans-6b" d="M 581 4863 
L 1159 4863 
L 1159 1991 
L 2875 3500 
L 3609 3500 
L 1753 1863 
L 3688 0 
L 2938 0 
L 1159 1709 
L 1159 0 
L 581 0 
L 581 4863 
z
" transform="scale(0.015625)"/>
      </defs>
      <use xlink:href="#DejaVuSans-73"/>
      <use xlink:href="#DejaVuSans-6b" x="52.099609"/>
      <use xlink:href="#DejaVuSans-69" x="110.009766"/>
      <use xlink:href="#DejaVuSans-70" x="137.792969"/>
     </g>
    </g>
   </g>
  </g>
 </g>
 <defs>
  <clipPath id="p0008b8c4e8">
   <rect x="33.2875" y="22.318125" width="535.68" height="352.512"/>
  </clipPath>
 </defs>
</svg>
