<?xml version="1.0" encoding="utf-8" standalone="no"?>
<!DOCTYPE svg PUBLIC "-//W3C//DTD SVG 1.1//EN"
  "http://www.w3.org/Graphics/SVG/1.1/DTD/svg11.dtd">
<svg xmlns:xlink="http://www.w3.org/1999/xlink" width="576.1675pt" height="418.303033pt" viewBox="0 0 576.1675 418.303033" xmlns="http://www.w3.org/2000/svg" version="1.1">
 <metadata>
  <rdf:RDF xmlns:dc="http://purl.org/dc/elements/1.1/" xmlns:cc="http://creativecommons.org/ns#" xmlns:rdf="http://www.w3.org/1999/02/22-rdf-syntax-ns#">
   <cc:Work>
    <dc:type rdf:resource="http://purl.org/dc/dcmitype/StillImage"/>
    <dc:date>2025-06-21T14:03:03.441229</dc:date>
    <dc:format>image/svg+xml</dc:format>
    <dc:creator>
     <cc:Agent>
      <dc:title>Matplotlib v3.6.3, https://matplotlib.org/</dc:title>
     </cc:Agent>
    </dc:creator>
   </cc:Work>
  </rdf:RDF>
 </metadata>
 <defs>
  <style type="text/css">*{stroke-linejoin: round; stroke-linecap: butt}</style>
 </defs>
 <g id="figure_1">
  <g id="patch_1">
   <path d="M -0 418.303033 
L 576.1675 418.303033 
L 576.1675 0 
L -0 0 
z
" style="fill: #ffffff"/>
  </g>
  <g id="axes_1">
   <g id="patch_2">
    <path d="M 33.2875 374.830125 
L 568.9675 374.830125 
L 568.9675 22.318125 
L 33.2875 22.318125 
z
" style="fill: #ffffff"/>
   </g>
   <g id="matplotlib.axis_1">
    <g id="xtick_1">
     <g id="line2d_1">
      <defs>
       <path id="m290e02c8db" d="M 0 0 
L 0 3.5 
" style="stroke: #000000; stroke-width: 0.8"/>
      </defs>
      <g>
       <use xlink:href="#m290e02c8db" x="63.16755" y="374.830125" style="stroke: #000000; stroke-width: 0.8"/>
      </g>
     </g>
     <g id="text_1">
      <!-- 2021-07 -->
      <g transform="translate(25.942729 409.301971) rotate(-30) scale(0.1 -0.1)">
       <defs>
        <path id="DejaVuSans-32" d="M 1228 531 
L 3431 531 
L 3431 0 
L 469 0 
L 469 531 
Q 828 903 1448 1529 
Q 2069 2156 2228 2338 
Q 2531 2678 2651 2914 
Q 2772 3150 2772 3378 
Q 2772 3750 2511 3984 
Q 2250 4219 1831 4219 
Q 1534 4219 1204 4116 
Q 875 4013 500 3803 
L 500 4441 
Q 881 4594 1212 4672 
Q 1544 4750 1819 4750 
Q 2544 4750 2975 4387 
Q 3406 4025 3406 3419 
Q 3406 3131 3298 2873 
Q 3191 2616 2906 2266 
Q 2828 2175 2409 1742 
Q 1991 1309 1228 531 
z
" transform="scale(0.015625)"/>
        <path id="DejaVuSans-30" d="M 2034 4250 
Q 1547 4250 1301 3770 
Q 1056 3291 1056 2328 
Q 1056 1369 1301 889 
Q 1547 409 2034 409 
Q 2525 409 2770 889 
Q 3016 1369 3016 2328 
Q 3016 3291 2770 3770 
Q 2525 4250 2034 4250 
z
M 2034 4750 
Q 2819 4750 3233 4129 
Q 3647 3509 3647 2328 
Q 3647 1150 3233 529 
Q 2819 -91 2034 -91 
Q 1250 -91 836 529 
Q 422 1150 422 2328 
Q 422 3509 836 4129 
Q 1250 4750 2034 4750 
z
" transform="scale(0.015625)"/>
        <path id="DejaVuSans-31" d="M 794 531 
L 1825 531 
L 1825 4091 
L 703 3866 
L 703 4441 
L 1819 4666 
L 2450 4666 
L 2450 531 
L 3481 531 
L 3481 0 
L 794 0 
L 794 531 
z
" transform="scale(0.015625)"/>
        <path id="DejaVuSans-2d" d="M 313 2009 
L 1997 2009 
L 1997 1497 
L 313 1497 
L 313 2009 
z
" transform="scale(0.015625)"/>
        <path id="DejaVuSans-37" d="M 525 4666 
L 3525 4666 
L 3525 4397 
L 1831 0 
L 1172 0 
L 2766 4134 
L 525 4134 
L 525 4666 
z
" transform="scale(0.015625)"/>
       </defs>
       <use xlink:href="#DejaVuSans-32"/>
       <use xlink:href="#DejaVuSans-30" x="63.623047"/>
       <use xlink:href="#DejaVuSans-32" x="127.246094"/>
       <use xlink:href="#DejaVuSans-31" x="190.869141"/>
       <use xlink:href="#DejaVuSans-2d" x="254.492188"/>
       <use xlink:href="#DejaVuSans-30" x="290.576172"/>
       <use xlink:href="#DejaVuSans-37" x="354.199219"/>
      </g>
     </g>
    </g>
    <g id="xtick_2">
     <g id="line2d_2">
      <g>
       <use xlink:href="#m290e02c8db" x="126.624425" y="374.830125" style="stroke: #000000; stroke-width: 0.8"/>
      </g>
     </g>
     <g id="text_2">
      <!-- 2022-01 -->
      <g transform="translate(89.399604 409.301971) rotate(-30) scale(0.1 -0.1)">
       <use xlink:href="#DejaVuSans-32"/>
       <use xlink:href="#DejaVuSans-30" x="63.623047"/>
       <use xlink:href="#DejaVuSans-32" x="127.246094"/>
       <use xlink:href="#DejaVuSans-32" x="190.869141"/>
       <use xlink:href="#DejaVuSans-2d" x="254.492188"/>
       <use xlink:href="#DejaVuSans-30" x="290.576172"/>
       <use xlink:href="#DejaVuSans-31" x="354.199219"/>
      </g>
     </g>
    </g>
    <g id="xtick_3">
     <g id="line2d_3">
      <g>
       <use xlink:href="#m290e02c8db" x="189.046677" y="374.830125" style="stroke: #000000; stroke-width: 0.8"/>
      </g>
     </g>
     <g id="text_3">
      <!-- 2022-07 -->
      <g transform="translate(151.821856 409.301971) rotate(-30) scale(0.1 -0.1)">
       <use xlink:href="#DejaVuSans-32"/>
       <use xlink:href="#DejaVuSans-30" x="63.623047"/>
       <use xlink:href="#DejaVuSans-32" x="127.246094"/>
       <use xlink:href="#DejaVuSans-32" x="190.869141"/>
       <use xlink:href="#DejaVuSans-2d" x="254.492188"/>
       <use xlink:href="#DejaVuSans-30" x="290.576172"/>
       <use xlink:href="#DejaVuSans-37" x="354.199219"/>
      </g>
     </g>
    </g>
    <g id="xtick_4">
     <g id="line2d_4">
      <g>
       <use xlink:href="#m290e02c8db" x="252.503552" y="374.830125" style="stroke: #000000; stroke-width: 0.8"/>
      </g>
     </g>
     <g id="text_4">
      <!-- 2023-01 -->
      <g transform="translate(215.278731 409.301971) rotate(-30) scale(0.1 -0.1)">
       <defs>
        <path id="DejaVuSans-33" d="M 2597 2516 
Q 3050 2419 3304 2112 
Q 3559 1806 3559 1356 
Q 3559 666 3084 287 
Q 2609 -91 1734 -91 
Q 1441 -91 1130 -33 
Q 819 25 488 141 
L 488 750 
Q 750 597 1062 519 
Q 1375 441 1716 441 
Q 2309 441 2620 675 
Q 2931 909 2931 1356 
Q 2931 1769 2642 2001 
Q 2353 2234 1838 2234 
L 1294 2234 
L 1294 2753 
L 1863 2753 
Q 2328 2753 2575 2939 
Q 2822 3125 2822 3475 
Q 2822 3834 2567 4026 
Q 2313 4219 1838 4219 
Q 1578 4219 1281 4162 
Q 984 4106 628 3988 
L 628 4550 
Q 988 4650 1302 4700 
Q 1616 4750 1894 4750 
Q 2613 4750 3031 4423 
Q 3450 4097 3450 3541 
Q 3450 3153 3228 2886 
Q 3006 2619 2597 2516 
z
" transform="scale(0.015625)"/>
       </defs>
       <use xlink:href="#DejaVuSans-32"/>
       <use xlink:href="#DejaVuSans-30" x="63.623047"/>
       <use xlink:href="#DejaVuSans-32" x="127.246094"/>
       <use xlink:href="#DejaVuSans-33" x="190.869141"/>
       <use xlink:href="#DejaVuSans-2d" x="254.492188"/>
       <use xlink:href="#DejaVuSans-30" x="290.576172"/>
       <use xlink:href="#DejaVuSans-31" x="354.199219"/>
      </g>
     </g>
    </g>
    <g id="xtick_5">
     <g id="line2d_5">
      <g>
       <use xlink:href="#m290e02c8db" x="314.925804" y="374.830125" style="stroke: #000000; stroke-width: 0.8"/>
      </g>
     </g>
     <g id="text_5">
      <!-- 2023-07 -->
      <g transform="translate(277.700983 409.301971) rotate(-30) scale(0.1 -0.1)">
       <use xlink:href="#DejaVuSans-32"/>
       <use xlink:href="#DejaVuSans-30" x="63.623047"/>
       <use xlink:href="#DejaVuSans-32" x="127.246094"/>
       <use xlink:href="#DejaVuSans-33" x="190.869141"/>
       <use xlink:href="#DejaVuSans-2d" x="254.492188"/>
       <use xlink:href="#DejaVuSans-30" x="290.576172"/>
       <use xlink:href="#DejaVuSans-37" x="354.199219"/>
      </g>
     </g>
    </g>
    <g id="xtick_6">
     <g id="line2d_6">
      <g>
       <use xlink:href="#m290e02c8db" x="378.382679" y="374.830125" style="stroke: #000000; stroke-width: 0.8"/>
      </g>
     </g>
     <g id="text_6">
      <!-- 2024-01 -->
      <g transform="translate(341.157858 409.301971) rotate(-30) scale(0.1 -0.1)">
       <defs>
        <path id="DejaVuSans-34" d="M 2419 4116 
L 825 1625 
L 2419 1625 
L 2419 4116 
z
M 2253 4666 
L 3047 4666 
L 3047 1625 
L 3713 1625 
L 3713 1100 
L 3047 1100 
L 3047 0 
L 2419 0 
L 2419 1100 
L 313 1100 
L 313 1709 
L 2253 4666 
z
" transform="scale(0.015625)"/>
       </defs>
       <use xlink:href="#DejaVuSans-32"/>
       <use xlink:href="#DejaVuSans-30" x="63.623047"/>
       <use xlink:href="#DejaVuSans-32" x="127.246094"/>
       <use xlink:href="#DejaVuSans-34" x="190.869141"/>
       <use xlink:href="#DejaVuSans-2d" x="254.492188"/>
       <use xlink:href="#DejaVuSans-30" x="290.576172"/>
       <use xlink:href="#DejaVuSans-31" x="354.199219"/>
      </g>
     </g>
    </g>
    <g id="xtick_7">
     <g id="line2d_7">
      <g>
       <use xlink:href="#m290e02c8db" x="441.149805" y="374.830125" style="stroke: #000000; stroke-width: 0.8"/>
      </g>
     </g>
     <g id="text_7">
      <!-- 2024-07 -->
      <g transform="translate(403.924984 409.301971) rotate(-30) scale(0.1 -0.1)">
       <use xlink:href="#DejaVuSans-32"/>
       <use xlink:href="#DejaVuSans-30" x="63.623047"/>
       <use xlink:href="#DejaVuSans-32" x="127.246094"/>
       <use xlink:href="#DejaVuSans-34" x="190.869141"/>
       <use xlink:href="#DejaVuSans-2d" x="254.492188"/>
       <use xlink:href="#DejaVuSans-30" x="290.576172"/>
       <use xlink:href="#DejaVuSans-37" x="354.199219"/>
      </g>
     </g>
    </g>
    <g id="xtick_8">
     <g id="line2d_8">
      <g>
       <use xlink:href="#m290e02c8db" x="504.60668" y="374.830125" style="stroke: #000000; stroke-width: 0.8"/>
      </g>
     </g>
     <g id="text_8">
      <!-- 2025-01 -->
      <g transform="translate(467.381859 409.301971) rotate(-30) scale(0.1 -0.1)">
       <defs>
        <path id="DejaVuSans-35" d="M 691 4666 
L 3169 4666 
L 3169 4134 
L 1269 4134 
L 1269 2991 
Q 1406 3038 1543 3061 
Q 1681 3084 1819 3084 
Q 2600 3084 3056 2656 
Q 3513 2228 3513 1497 
Q 3513 744 3044 326 
Q 2575 -91 1722 -91 
Q 1428 -91 1123 -41 
Q 819 9 494 109 
L 494 744 
Q 775 591 1075 516 
Q 1375 441 1709 441 
Q 2250 441 2565 725 
Q 2881 1009 2881 1497 
Q 2881 1984 2565 2268 
Q 2250 2553 1709 2553 
Q 1456 2553 1204 2497 
Q 953 2441 691 2322 
L 691 4666 
z
" transform="scale(0.015625)"/>
       </defs>
       <use xlink:href="#DejaVuSans-32"/>
       <use xlink:href="#DejaVuSans-30" x="63.623047"/>
       <use xlink:href="#DejaVuSans-32" x="127.246094"/>
       <use xlink:href="#DejaVuSans-35" x="190.869141"/>
       <use xlink:href="#DejaVuSans-2d" x="254.492188"/>
       <use xlink:href="#DejaVuSans-30" x="290.576172"/>
       <use xlink:href="#DejaVuSans-31" x="354.199219"/>
      </g>
     </g>
    </g>
    <g id="xtick_9">
     <g id="line2d_9">
      <g>
       <use xlink:href="#m290e02c8db" x="567.028932" y="374.830125" style="stroke: #000000; stroke-width: 0.8"/>
      </g>
     </g>
     <g id="text_9">
      <!-- 2025-07 -->
      <g transform="translate(529.804111 409.301971) rotate(-30) scale(0.1 -0.1)">
       <use xlink:href="#DejaVuSans-32"/>
       <use xlink:href="#DejaVuSans-30" x="63.623047"/>
       <use xlink:href="#DejaVuSans-32" x="127.246094"/>
       <use xlink:href="#DejaVuSans-35" x="190.869141"/>
       <use xlink:href="#DejaVuSans-2d" x="254.492188"/>
       <use xlink:href="#DejaVuSans-30" x="290.576172"/>
       <use xlink:href="#DejaVuSans-37" x="354.199219"/>
      </g>
     </g>
    </g>
   </g>
   <g id="matplotlib.axis_2">
    <g id="ytick_1">
     <g id="line2d_10">
      <defs>
       <path id="mda1c7f574e" d="M 0 0 
L -3.5 0 
" style="stroke: #000000; stroke-width: 0.8"/>
      </defs>
      <g>
       <use xlink:href="#mda1c7f574e" x="33.2875" y="374.830125" style="stroke: #000000; stroke-width: 0.8"/>
      </g>
     </g>
     <g id="text_10">
      <!-- 0 -->
      <g transform="translate(19.925 378.629344) scale(0.1 -0.1)">
       <use xlink:href="#DejaVuSans-30"/>
      </g>
     </g>
    </g>
    <g id="ytick_2">
     <g id="line2d_11">
      <g>
       <use xlink:href="#mda1c7f574e" x="33.2875" y="318.897147" style="stroke: #000000; stroke-width: 0.8"/>
      </g>
     </g>
     <g id="text_11">
      <!-- 100 -->
      <g transform="translate(7.2 322.696366) scale(0.1 -0.1)">
       <use xlink:href="#DejaVuSans-31"/>
       <use xlink:href="#DejaVuSans-30" x="63.623047"/>
       <use xlink:href="#DejaVuSans-30" x="127.246094"/>
      </g>
     </g>
    </g>
    <g id="ytick_3">
     <g id="line2d_12">
      <g>
       <use xlink:href="#mda1c7f574e" x="33.2875" y="262.964169" style="stroke: #000000; stroke-width: 0.8"/>
      </g>
     </g>
     <g id="text_12">
      <!-- 200 -->
      <g transform="translate(7.2 266.763388) scale(0.1 -0.1)">
       <use xlink:href="#DejaVuSans-32"/>
       <use xlink:href="#DejaVuSans-30" x="63.623047"/>
       <use xlink:href="#DejaVuSans-30" x="127.246094"/>
      </g>
     </g>
    </g>
    <g id="ytick_4">
     <g id="line2d_13">
      <g>
       <use xlink:href="#mda1c7f574e" x="33.2875" y="207.031191" style="stroke: #000000; stroke-width: 0.8"/>
      </g>
     </g>
     <g id="text_13">
      <!-- 300 -->
      <g transform="translate(7.2 210.83041) scale(0.1 -0.1)">
       <use xlink:href="#DejaVuSans-33"/>
       <use xlink:href="#DejaVuSans-30" x="63.623047"/>
       <use xlink:href="#DejaVuSans-30" x="127.246094"/>
      </g>
     </g>
    </g>
    <g id="ytick_5">
     <g id="line2d_14">
      <g>
       <use xlink:href="#mda1c7f574e" x="33.2875" y="151.098213" style="stroke: #000000; stroke-width: 0.8"/>
      </g>
     </g>
     <g id="text_14">
      <!-- 400 -->
      <g transform="translate(7.2 154.897432) scale(0.1 -0.1)">
       <use xlink:href="#DejaVuSans-34"/>
       <use xlink:href="#DejaVuSans-30" x="63.623047"/>
       <use xlink:href="#DejaVuSans-30" x="127.246094"/>
      </g>
     </g>
    </g>
    <g id="ytick_6">
     <g id="line2d_15">
      <g>
       <use xlink:href="#mda1c7f574e" x="33.2875" y="95.165235" style="stroke: #000000; stroke-width: 0.8"/>
      </g>
     </g>
     <g id="text_15">
      <!-- 500 -->
      <g transform="translate(7.2 98.964454) scale(0.1 -0.1)">
       <use xlink:href="#DejaVuSans-35"/>
       <use xlink:href="#DejaVuSans-30" x="63.623047"/>
       <use xlink:href="#DejaVuSans-30" x="127.246094"/>
      </g>
     </g>
    </g>
    <g id="ytick_7">
     <g id="line2d_16">
      <g>
       <use xlink:href="#mda1c7f574e" x="33.2875" y="39.232258" style="stroke: #000000; stroke-width: 0.8"/>
      </g>
     </g>
     <g id="text_16">
      <!-- 600 -->
      <g transform="translate(7.2 43.031476) scale(0.1 -0.1)">
       <defs>
        <path id="DejaVuSans-36" d="M 2113 2584 
Q 1688 2584 1439 2293 
Q 1191 2003 1191 1497 
Q 1191 994 1439 701 
Q 1688 409 2113 409 
Q 2538 409 2786 701 
Q 3034 994 3034 1497 
Q 3034 2003 2786 2293 
Q 2538 2584 2113 2584 
z
M 3366 4563 
L 3366 3988 
Q 3128 4100 2886 4159 
Q 2644 4219 2406 4219 
Q 1781 4219 1451 3797 
Q 1122 3375 1075 2522 
Q 1259 2794 1537 2939 
Q 1816 3084 2150 3084 
Q 2853 3084 3261 2657 
Q 3669 2231 3669 1497 
Q 3669 778 3244 343 
Q 2819 -91 2113 -91 
Q 1303 -91 875 529 
Q 447 1150 447 2328 
Q 447 3434 972 4092 
Q 1497 4750 2381 4750 
Q 2619 4750 2861 4703 
Q 3103 4656 3366 4563 
z
" transform="scale(0.015625)"/>
       </defs>
       <use xlink:href="#DejaVuSans-36"/>
       <use xlink:href="#DejaVuSans-30" x="63.623047"/>
       <use xlink:href="#DejaVuSans-30" x="127.246094"/>
      </g>
     </g>
    </g>
   </g>
   <g id="line2d_17">
    <path d="M 38.539265 25.808343 
L 48.794143 25.808343 
L 48.91023 29.164321 
L 50.345977 29.164321 
L 50.871543 38.672928 
L 135.59172 38.672928 
L 136.013525 33.07963 
L 150.11148 33.07963 
L 150.939633 33.63896 
L 157.551213 33.63896 
L 157.782427 44.825555 
L 164.487322 44.825555 
L 165.876843 43.147566 
L 280.744536 43.147566 
L 281.071691 39.232258 
L 290.074512 39.232258 
L 290.395835 38.113598 
L 335.582977 38.113598 
L 335.808008 36.994938 
L 408.82879 36.994938 
L 409.037978 32.5203 
L 464.396881 32.5203 
L 464.492092 31.96097 
L 506.776478 31.96097 
L 507.165068 31.401641 
L 511.011391 31.401641 
L 511.139015 29.164321 
L 512.682599 29.164321 
L 513.083667 29.723651 
L 539.765551 29.723651 
L 540.09495 29.164321 
L 563.715735 29.164321 
L 563.715735 29.164321 
" clip-path="url(#pe5b35accad)" style="fill: none; stroke: #0000ff; stroke-width: 1.5; stroke-linecap: square"/>
   </g>
   <g id="line2d_18">
    <path d="M 38.539265 168.996766 
L 39.949178 167.878107 
L 41.354541 168.996766 
L 44.682578 168.996766 
L 48.352137 170.115426 
L 48.624364 169.556096 
L 48.794143 169.556096 
L 48.91023 172.912075 
L 49.061057 172.352745 
L 49.178158 172.352745 
L 49.574433 172.912075 
L 50.345977 172.912075 
L 50.775689 185.21733 
L 50.871543 182.420681 
L 51.094586 185.77666 
L 51.165517 185.21733 
L 51.415455 185.21733 
L 51.815262 185.77666 
L 52.777501 185.77666 
L 52.806224 186.335989 
L 53.327819 186.335989 
L 53.548602 185.77666 
L 54.1941 189.691968 
L 54.268659 189.132638 
L 54.58562 189.691968 
L 55.198746 191.369957 
L 55.614615 190.251298 
L 56.271948 190.251298 
L 56.639299 191.369957 
L 56.887632 191.369957 
L 57.635786 191.929287 
L 57.971504 191.929287 
L 58.336563 193.047947 
L 58.663001 192.488617 
L 59.025494 193.607277 
L 59.402141 195.844596 
L 60.858509 196.963255 
L 61.476936 196.963255 
L 61.741842 197.522585 
L 62.163918 197.522585 
L 62.474652 198.081915 
L 62.791178 197.522585 
L 63.144088 197.522585 
L 63.350753 198.081915 
L 66.92603 198.081915 
L 67.28687 198.641245 
L 67.632651 198.641245 
L 67.766912 198.081915 
L 68.620903 198.641245 
L 68.978826 198.081915 
L 69.965654 198.081915 
L 70.282483 198.641245 
L 70.672007 198.081915 
L 72.468136 198.081915 
L 72.836138 198.641245 
L 73.038133 200.319234 
L 73.529766 199.200574 
L 74.672949 199.200574 
L 75.240131 199.759904 
L 75.583078 199.759904 
L 75.916153 200.319234 
L 76.287918 200.319234 
L 76.62926 199.759904 
L 76.95543 201.437893 
L 77.245005 201.437893 
L 78.032292 202.556553 
L 82.165786 202.556553 
L 82.494371 203.675213 
L 83.194669 203.675213 
L 83.505495 204.234542 
L 84.547998 204.234542 
L 85.545906 206.471861 
L 86.606582 206.471861 
L 86.986483 207.031191 
L 93.394758 207.031191 
L 94.164104 208.149851 
L 94.338385 207.031191 
L 95.572436 207.031191 
L 95.907547 207.590521 
L 96.277273 207.031191 
L 97.156946 207.031191 
L 97.642836 207.590521 
L 98.003545 207.031191 
L 103.451138 207.031191 
L 103.748836 212.065159 
L 103.955233 207.031191 
L 105.929447 207.031191 
L 106.287833 207.590521 
L 106.492395 212.624489 
L 106.975614 207.590521 
L 107.3169 207.590521 
L 107.543451 207.031191 
L 111.11793 207.031191 
L 111.298945 207.590521 
L 111.623789 207.590521 
L 112.158772 209.26851 
L 117.550842 209.26851 
L 118.727641 209.82784 
L 125.969791 209.82784 
L 126.27136 212.065159 
L 126.656709 212.065159 
L 126.998418 209.82784 
L 127.349982 209.82784 
L 127.592229 212.065159 
L 127.854776 209.82784 
L 128.29109 212.065159 
L 128.677577 213.183819 
L 133.159043 213.183819 
L 133.545849 213.743149 
L 135.59172 213.743149 
L 136.013525 207.590521 
L 136.314835 208.149851 
L 136.65541 209.82784 
L 137.075873 209.82784 
L 137.639643 210.9465 
L 138.02872 210.9465 
L 138.315513 211.505829 
L 138.700742 209.26851 
L 141.521327 214.861808 
L 141.809329 213.183819 
L 142.292233 212.624489 
L 143.825986 212.624489 
L 144.219422 212.065159 
L 144.566364 210.9465 
L 145.955289 210.9465 
L 146.209235 209.82784 
L 146.655903 210.9465 
L 147.664629 210.9465 
L 148.007926 212.065159 
L 148.339065 212.065159 
L 148.731244 212.624489 
L 148.889499 212.624489 
L 149.066367 214.302478 
L 149.306127 214.302478 
L 150.11148 214.861808 
L 150.776916 213.743149 
L 150.939633 213.743149 
L 151.46128 214.302478 
L 151.795971 215.421138 
L 153.5256 215.421138 
L 153.859549 215.980468 
L 154.218163 215.980468 
L 154.550176 216.539798 
L 154.861198 216.539798 
L 155.583905 217.099127 
L 155.957152 217.099127 
L 156.329352 218.777117 
L 156.549417 218.777117 
L 156.936255 218.217787 
L 157.551213 218.217787 
L 157.782427 219.895776 
L 158.352787 219.895776 
L 158.690708 221.014436 
L 159.142006 221.014436 
L 159.374469 221.573766 
L 159.885669 221.573766 
L 159.936538 222.133095 
L 160.195465 222.133095 
L 160.74184 222.692425 
L 161.984389 226.048404 
L 163.533182 226.048404 
L 163.848934 227.167063 
L 163.967828 226.607734 
L 164.10551 226.607734 
L 164.487322 226.048404 
L 165.876843 224.370414 
L 169.353252 224.370414 
L 169.75608 223.811085 
L 171.438648 223.811085 
L 171.678116 223.251755 
L 174.82903 223.251755 
L 175.234712 223.811085 
L 175.801819 223.811085 
L 176.261308 224.370414 
L 176.492509 223.811085 
L 178.707489 223.811085 
L 179.406522 224.929744 
L 180.894219 224.929744 
L 181.144692 232.760361 
L 181.427054 232.760361 
L 183.833371 234.43835 
L 183.98124 233.879021 
L 184.135503 234.43835 
L 184.535916 233.879021 
L 184.87179 233.879021 
L 185.225298 234.43835 
L 185.490763 234.43835 
L 185.916959 235.55701 
L 186.092238 235.55701 
L 186.254452 234.99768 
L 186.618035 236.11634 
L 189.035289 236.11634 
L 189.27045 236.67567 
L 190.570802 236.67567 
L 191.088541 236.11634 
L 191.47644 238.912989 
L 191.752591 237.234999 
L 192.112753 237.234999 
L 192.401438 240.590978 
L 192.603425 240.031648 
L 192.818448 240.590978 
L 192.926749 240.031648 
L 193.059302 241.709638 
L 193.402951 241.709638 
L 193.838362 242.268967 
L 194.691144 241.709638 
L 194.885323 242.828297 
L 195.202668 242.828297 
L 195.427399 241.150308 
L 196.190246 242.828297 
L 196.948777 243.387627 
L 197.614944 243.387627 
L 197.964408 245.065616 
L 198.285629 245.065616 
L 198.4759 244.506286 
L 198.809853 244.506286 
L 200.101472 246.743606 
L 200.316882 245.624946 
L 200.731526 245.065616 
L 201.037738 246.184276 
L 201.073303 246.743606 
L 202.52508 246.743606 
L 202.636988 247.302935 
L 203.157864 247.862265 
L 204.546395 247.862265 
L 205.181969 250.658914 
L 208.753586 250.658914 
L 209.035617 251.218244 
L 209.406548 250.099584 
L 209.622498 251.218244 
L 213.51628 251.218244 
L 213.841612 251.777574 
L 214.626157 255.133552 
L 214.920494 253.455563 
L 215.271264 254.014893 
L 215.659666 253.455563 
L 215.932987 253.455563 
L 216.347132 251.777574 
L 216.5692 251.777574 
L 216.612302 252.336903 
L 217.311107 252.336903 
L 217.704432 248.980925 
L 218.051202 248.980925 
L 219.094355 249.540254 
L 219.16036 248.980925 
L 219.726744 248.421595 
L 219.810867 248.980925 
L 222.539969 248.980925 
L 222.729865 249.540254 
L 223.239174 250.099584 
L 223.919275 251.218244 
L 224.096166 252.336903 
L 224.335203 252.336903 
L 224.602984 253.455563 
L 224.925393 252.896233 
L 225.286402 252.896233 
L 225.558421 252.336903 
L 225.941903 252.896233 
L 226.284095 252.896233 
L 226.612064 253.455563 
L 226.877558 253.455563 
L 227.377314 252.896233 
L 227.637123 253.455563 
L 227.906026 252.896233 
L 228.686903 248.421595 
L 229.43805 249.540254 
L 229.547871 253.455563 
L 229.715307 253.455563 
L 230.021674 254.014893 
L 230.377601 253.455563 
L 230.702561 253.455563 
L 231.102867 252.896233 
L 231.449593 254.014893 
L 232.700968 254.014893 
L 233.198286 254.574222 
L 233.482496 254.574222 
L 233.504549 255.133552 
L 234.922522 255.133552 
L 235.326212 256.252212 
L 237.310217 256.252212 
L 237.705721 257.370871 
L 239.052519 257.370871 
L 241.506017 256.811542 
L 241.733622 257.370871 
L 242.347478 257.370871 
L 242.864003 257.930201 
L 243.210007 259.048861 
L 243.31347 258.489531 
L 243.68955 259.60819 
L 244.526174 259.60819 
L 247.91464 260.72685 
L 256.290352 260.72685 
L 256.631522 260.16752 
L 258.26906 260.16752 
L 258.60849 260.72685 
L 259.733307 260.72685 
L 260.121526 261.28618 
L 260.400679 260.72685 
L 260.724653 261.28618 
L 261.083123 260.72685 
L 261.377336 261.84551 
L 261.827944 261.28618 
L 262.156732 261.84551 
L 269.303613 261.84551 
L 269.672793 260.72685 
L 270.063898 261.28618 
L 270.417613 260.72685 
L 270.813812 260.72685 
L 271.131551 260.16752 
L 272.457629 260.16752 
L 272.794344 260.72685 
L 273.17468 260.16752 
L 273.521187 259.048861 
L 274.208265 259.048861 
L 274.595913 258.489531 
L 274.885995 259.60819 
L 275.259154 259.60819 
L 275.547451 259.048861 
L 276.457377 260.16752 
L 276.989688 259.60819 
L 277.305947 260.16752 
L 277.978787 260.16752 
L 278.358536 259.60819 
L 278.731428 261.28618 
L 279.090332 260.72685 
L 279.77937 260.72685 
L 280.042026 260.16752 
L 280.377943 260.72685 
L 280.744536 260.72685 
L 281.071691 255.692882 
L 281.201666 256.252212 
L 281.458757 256.252212 
L 281.637852 256.811542 
L 281.793939 256.811542 
L 281.999443 257.370871 
L 282.13871 256.252212 
L 282.46482 256.811542 
L 282.598355 256.811542 
L 282.826259 257.370871 
L 283.416984 257.370871 
L 283.70426 258.489531 
L 283.988969 257.370871 
L 284.174331 257.930201 
L 285.219412 257.930201 
L 285.530529 257.370871 
L 285.825584 257.370871 
L 286.196352 257.930201 
L 286.539199 257.930201 
L 286.945615 257.370871 
L 287.337814 257.930201 
L 287.642122 257.930201 
L 288.121006 259.048861 
L 290.074512 259.048861 
L 290.395835 257.370871 
L 291.909858 257.370871 
L 292.257574 257.930201 
L 292.531094 258.489531 
L 293.066624 258.489531 
L 293.2337 259.60819 
L 293.310343 259.048861 
L 293.491549 259.60819 
L 294.001245 259.60819 
L 294.251107 260.72685 
L 294.931428 260.72685 
L 295.033194 261.28618 
L 295.248991 261.84551 
L 296.299218 261.84551 
L 296.55108 263.523499 
L 296.783487 264.082829 
L 296.917608 264.082829 
L 297.370036 264.642159 
L 297.529273 264.082829 
L 297.606443 264.642159 
L 298.103892 264.642159 
L 298.688103 265.201488 
L 299.998769 265.201488 
L 300.336798 264.642159 
L 300.660688 265.201488 
L 301.025796 265.201488 
L 301.200776 265.760818 
L 301.242863 265.201488 
L 301.450546 265.760818 
L 301.61298 265.760818 
L 301.773391 266.879478 
L 302.391071 267.998137 
L 302.840853 267.438807 
L 303.182817 267.998137 
L 303.855087 267.998137 
L 304.219959 269.116797 
L 304.353534 268.557467 
L 304.570533 270.235456 
L 304.878026 269.676127 
L 305.077451 270.235456 
L 305.235135 269.676127 
L 305.409384 270.794786 
L 305.764545 270.794786 
L 305.869735 271.354116 
L 306.286419 270.794786 
L 306.608689 271.913446 
L 307.335775 271.913446 
L 307.597512 273.032105 
L 307.968763 271.913446 
L 308.22098 271.913446 
L 308.313449 272.472775 
L 308.992022 272.472775 
L 309.309434 274.710095 
L 309.765921 272.472775 
L 309.836696 273.032105 
L 310.437755 272.472775 
L 310.494672 273.591435 
L 310.701401 273.591435 
L 311.117972 274.150765 
L 311.456041 273.591435 
L 311.711443 273.591435 
L 312.089388 274.710095 
L 312.500563 274.710095 
L 312.8993 274.150765 
L 313.197305 274.710095 
L 313.378376 274.150765 
L 313.558469 275.269424 
L 315.154259 275.269424 
L 315.644723 275.828754 
L 316.646132 275.828754 
L 317.001448 274.710095 
L 317.671119 274.710095 
L 318.006286 275.269424 
L 321.055374 275.269424 
L 321.466868 274.710095 
L 321.852593 275.828754 
L 326.53195 275.828754 
L 327.558474 276.388084 
L 328.168171 276.388084 
L 328.663329 276.947414 
L 329.054638 276.947414 
L 329.284582 277.506743 
L 334.493174 277.506743 
L 334.916224 276.947414 
L 335.251626 277.506743 
L 335.582977 276.947414 
L 335.808008 273.591435 
L 337.865702 273.591435 
L 338.049296 274.150765 
L 338.405175 274.150765 
L 338.522863 273.591435 
L 340.652865 273.591435 
L 340.948355 274.150765 
L 341.060028 273.591435 
L 341.566167 273.591435 
L 341.800127 274.710095 
L 341.977881 273.591435 
L 342.095043 273.591435 
L 342.315227 274.710095 
L 342.471506 274.710095 
L 342.67307 273.591435 
L 342.849355 274.710095 
L 342.962326 273.591435 
L 343.007826 274.710095 
L 344.220239 274.710095 
L 344.412694 275.269424 
L 344.440918 275.828754 
L 345.058307 275.828754 
L 345.094695 276.388084 
L 345.450422 276.388084 
L 345.634619 276.947414 
L 345.791664 276.388084 
L 345.984598 276.947414 
L 346.115072 276.388084 
L 346.301699 276.947414 
L 346.42108 276.947414 
L 346.550496 276.388084 
L 346.568242 276.947414 
L 346.95613 276.947414 
L 347.199167 277.506743 
L 347.352452 277.506743 
L 347.582001 278.625403 
L 347.836705 279.184733 
L 348.012615 278.625403 
L 349.971928 278.625403 
L 350.252075 279.184733 
L 351.753671 279.184733 
L 351.993203 279.744063 
L 352.309821 279.744063 
L 352.544766 280.303392 
L 352.674262 279.744063 
L 353.295531 279.744063 
L 353.50519 280.862722 
L 354.075849 280.862722 
L 354.130649 281.422052 
L 354.210278 280.862722 
L 354.333467 280.862722 
L 354.554478 281.981382 
L 354.784641 282.540711 
L 354.84897 281.981382 
L 355.109873 284.218701 
L 356.16653 284.218701 
L 356.272758 284.778031 
L 356.504243 284.778031 
L 356.639846 285.89669 
L 356.798991 284.778031 
L 358.201743 284.778031 
L 358.282912 285.33736 
L 358.551974 284.778031 
L 358.680799 285.33736 
L 358.918982 284.778031 
L 359.228371 284.778031 
L 359.4181 285.89669 
L 359.763952 285.89669 
L 359.905817 285.33736 
L 360.027366 286.45602 
L 360.386334 284.778031 
L 360.762507 285.89669 
L 361.035009 284.778031 
L 361.672915 284.778031 
L 362.169367 286.45602 
L 362.323845 285.89669 
L 362.494921 286.45602 
L 362.956538 285.33736 
L 363.104351 286.45602 
L 364.199866 286.45602 
L 364.37645 287.01535 
L 364.684175 287.01535 
L 364.848218 286.45602 
L 365.055254 287.01535 
L 365.186167 286.45602 
L 365.584963 287.574679 
L 366.129434 287.574679 
L 366.51343 288.693339 
L 368.176598 288.693339 
L 368.35844 289.252669 
L 368.580868 288.693339 
L 368.69092 289.252669 
L 368.917695 288.693339 
L 369.218877 288.693339 
L 369.41314 289.252669 
L 369.540871 288.693339 
L 369.947524 288.693339 
L 370.073303 289.252669 
L 370.643439 289.252669 
L 370.681871 290.371328 
L 373.120312 290.371328 
L 373.360869 290.930658 
L 373.518765 290.371328 
L 373.652536 290.930658 
L 373.754146 290.371328 
L 373.87603 291.489988 
L 374.4376 291.489988 
L 374.702502 292.049318 
L 374.756189 291.489988 
L 374.811194 292.049318 
L 375.113693 291.489988 
L 375.191873 292.049318 
L 375.487698 292.608647 
L 375.603566 293.167977 
L 375.824765 293.167977 
L 375.875626 293.727307 
L 376.183606 295.405296 
L 376.322226 294.845967 
L 376.509317 294.845967 
L 376.543022 295.964626 
L 377.857496 295.964626 
L 378.02076 296.523956 
L 378.278274 295.964626 
L 378.724336 296.523956 
L 378.843553 295.964626 
L 379.038718 296.523956 
L 379.278574 296.523956 
L 379.421309 297.083286 
L 379.75377 297.083286 
L 379.76192 297.642615 
L 379.864405 297.083286 
L 379.962646 298.201945 
L 380.107849 298.201945 
L 380.308846 298.761275 
L 381.687656 298.761275 
L 381.724044 298.201945 
L 381.810845 299.320605 
L 382.174464 299.320605 
L 382.360165 298.761275 
L 382.503113 299.320605 
L 382.718328 298.761275 
L 382.879576 299.320605 
L 383.060743 299.320605 
L 383.216416 298.761275 
L 383.370771 300.439264 
L 385.218567 300.439264 
L 385.774237 301.557924 
L 386.066734 300.998594 
L 393.04689 300.998594 
L 393.165401 301.557924 
L 393.377367 300.998594 
L 393.438458 301.557924 
L 394.07183 301.557924 
L 394.247213 302.117254 
L 395.13615 302.117254 
L 395.254924 302.676583 
L 395.422344 302.117254 
L 396.784063 302.117254 
L 396.972941 302.676583 
L 397.210801 302.117254 
L 397.342136 302.117254 
L 397.551436 303.235913 
L 397.666574 302.676583 
L 398.176904 302.676583 
L 398.399264 303.235913 
L 399.445922 303.235913 
L 399.616419 302.117254 
L 399.961892 303.235913 
L 401.820717 303.235913 
L 402.0113 303.795243 
L 402.181561 303.795243 
L 402.364928 304.354573 
L 402.501983 304.354573 
L 402.671638 304.913903 
L 403.068583 304.913903 
L 403.138903 305.473232 
L 403.469815 305.473232 
L 403.678839 304.354573 
L 403.842055 304.913903 
L 404.091894 304.913903 
L 404.193767 305.473232 
L 404.575979 305.473232 
L 404.917832 306.032562 
L 405.290603 307.710552 
L 405.412651 307.151222 
L 405.526291 307.710552 
L 405.787131 308.269881 
L 405.910818 307.710552 
L 406.120585 308.269881 
L 406.24282 308.269881 
L 406.46239 307.710552 
L 406.641716 307.710552 
L 406.993037 309.388541 
L 407.205231 308.829211 
L 407.331629 308.829211 
L 407.49756 309.388541 
L 407.541192 309.947871 
L 407.682283 309.947871 
L 407.751138 309.388541 
L 407.979042 309.947871 
L 408.136854 309.388541 
L 408.266957 309.947871 
L 408.82879 309.947871 
L 409.037978 302.117254 
L 409.596667 303.235913 
L 409.96555 303.235913 
L 410.094579 303.795243 
L 410.295552 303.235913 
L 410.424553 303.235913 
L 410.577195 302.676583 
L 410.752706 303.235913 
L 410.993791 303.235913 
L 411.112413 302.676583 
L 411.263124 303.235913 
L 411.468672 302.676583 
L 411.549462 303.235913 
L 411.846816 303.795243 
L 411.976703 303.795243 
L 412.29065 302.676583 
L 412.575067 303.235913 
L 413.838657 303.235913 
L 414.138478 303.795243 
L 414.453279 303.235913 
L 415.019528 303.235913 
L 415.453642 304.354573 
L 415.602545 302.676583 
L 415.853166 303.235913 
L 416.172654 302.676583 
L 416.318802 304.354573 
L 416.495255 303.235913 
L 416.662016 303.235913 
L 416.773074 303.795243 
L 416.855956 306.032562 
L 416.870832 305.473232 
L 417.238499 306.032562 
L 418.145965 306.032562 
L 418.575234 307.151222 
L 418.752313 306.591892 
L 419.388032 306.591892 
L 419.561243 306.032562 
L 419.74637 306.591892 
L 419.94943 306.591892 
L 420.068723 306.032562 
L 420.431644 306.591892 
L 420.644847 306.591892 
L 420.784621 307.151222 
L 420.955569 306.591892 
L 421.139223 306.591892 
L 421.311333 306.032562 
L 421.417944 306.591892 
L 422.376671 306.591892 
L 422.616526 308.269881 
L 422.906524 307.710552 
L 423.146371 307.710552 
L 423.340547 307.151222 
L 423.428833 307.710552 
L 423.729608 307.151222 
L 423.842052 307.710552 
L 424.107022 307.710552 
L 424.210684 308.269881 
L 424.527338 307.710552 
L 425.179849 307.710552 
L 425.421764 308.269881 
L 425.824752 308.269881 
L 425.926362 308.829211 
L 426.098097 308.269881 
L 426.499556 309.388541 
L 426.619008 309.388541 
L 426.796172 309.947871 
L 426.959484 309.947871 
L 427.266769 310.5072 
L 429.766358 310.5072 
L 430.032649 311.06653 
L 430.282344 311.06653 
L 430.333181 309.947871 
L 430.396141 310.5072 
L 430.803515 310.5072 
L 430.8965 311.06653 
L 431.432524 311.06653 
L 431.688517 311.62586 
L 432.032338 311.62586 
L 432.043774 311.06653 
L 432.158069 311.62586 
L 432.26318 311.06653 
L 433.760322 311.06653 
L 434.041043 310.5072 
L 434.824127 311.06653 
L 436.448046 311.06653 
L 436.518314 311.62586 
L 438.222365 311.62586 
L 438.375862 312.18519 
L 439.951762 314.981839 
L 440.10112 314.981839 
L 440.256944 315.541168 
L 440.326338 314.981839 
L 440.661924 315.541168 
L 440.973703 316.100498 
L 441.346575 316.100498 
L 441.471791 316.659828 
L 441.943012 316.659828 
L 442.62552 316.100498 
L 442.659903 317.778488 
L 443.209196 317.778488 
L 443.379441 317.219158 
L 443.503097 317.778488 
L 444.765054 317.778488 
L 445.058005 317.219158 
L 446.411362 317.219158 
L 447.247035 317.778488 
L 448.935147 317.778488 
L 449.766402 318.337817 
L 449.877576 318.897147 
L 452.377552 318.897147 
L 452.612413 318.337817 
L 453.881547 318.337817 
L 454.808237 317.778488 
L 455.483528 317.778488 
L 455.818647 318.337817 
L 456.116169 319.456477 
L 456.293308 319.456477 
L 456.300222 318.897147 
L 458.287185 318.897147 
L 458.500436 319.456477 
L 463.52005 319.456477 
L 464.152966 320.015807 
L 464.396881 320.015807 
L 464.492092 320.575136 
L 464.802308 320.575136 
L 464.932585 320.015807 
L 465.134537 320.575136 
L 466.268435 320.575136 
L 466.773867 321.134466 
L 467.12496 322.253126 
L 470.199878 322.253126 
L 470.741091 321.693796 
L 470.897682 322.253126 
L 471.056089 321.693796 
L 471.234162 322.253126 
L 472.077511 322.253126 
L 472.466337 321.693796 
L 472.663646 322.253126 
L 473.207701 321.134466 
L 473.419743 322.253126 
L 474.736329 322.253126 
L 474.751904 322.812456 
L 476.838405 322.812456 
L 477.852887 323.371785 
L 478.15733 322.812456 
L 478.722968 322.812456 
L 478.860087 323.371785 
L 479.343394 321.693796 
L 479.662491 322.253126 
L 480.091476 321.693796 
L 480.409228 321.693796 
L 480.553536 322.253126 
L 481.429585 322.253126 
L 482.470478 321.693796 
L 482.627153 322.253126 
L 483.662897 322.253126 
L 483.999174 321.693796 
L 489.270761 322.253126 
L 489.665479 321.693796 
L 490.006609 322.253126 
L 490.312286 321.693796 
L 490.346486 322.253126 
L 490.612606 322.812456 
L 490.766726 322.812456 
L 490.907705 323.371785 
L 493.358648 323.371785 
L 493.410874 323.931115 
L 493.715529 323.931115 
L 494.529001 323.371785 
L 494.554879 323.931115 
L 494.867421 323.371785 
L 494.943385 324.490445 
L 495.144554 324.490445 
L 495.552679 325.049775 
L 496.23662 325.049775 
L 496.651914 324.490445 
L 497.118856 325.609104 
L 497.138007 326.168434 
L 497.459483 326.727764 
L 497.591609 326.727764 
L 497.925227 326.168434 
L 498.394336 326.168434 
L 498.491855 326.727764 
L 499.559947 326.727764 
L 499.707089 326.168434 
L 499.887226 327.287094 
L 500.035698 327.287094 
L 500.317485 326.727764 
L 500.573758 327.287094 
L 501.145251 327.287094 
L 501.396942 328.405753 
L 503.191989 328.405753 
L 503.406593 328.965083 
L 503.538 328.965083 
L 503.75423 328.405753 
L 503.809996 328.965083 
L 504.382767 328.965083 
L 504.497969 329.524413 
L 504.810858 329.524413 
L 504.900226 330.643072 
L 505.388399 330.643072 
L 505.571817 332.321062 
L 505.953729 332.321062 
L 506.177091 331.761732 
L 506.297761 332.321062 
L 506.4602 332.321062 
L 506.472606 333.999051 
L 506.776478 333.999051 
L 507.165068 333.439721 
L 507.341358 333.439721 
L 507.491953 333.999051 
L 507.866461 333.999051 
L 508.25454 333.439721 
L 508.294456 334.558381 
L 508.638069 334.558381 
L 508.701408 335.117711 
L 508.940828 335.67704 
L 509.573301 335.67704 
L 509.666261 336.7957 
L 509.937686 336.7957 
L 510.096816 337.35503 
L 510.24951 337.35503 
L 510.797086 337.91436 
L 511.011391 337.35503 
L 511.139015 329.524413 
L 511.277427 328.965083 
L 511.37117 331.202402 
L 512.046405 331.202402 
L 512.323941 330.643072 
L 512.526156 331.761732 
L 512.682599 331.761732 
L 513.083667 332.321062 
L 513.52479 332.321062 
L 513.726071 331.761732 
L 513.883667 332.321062 
L 514.947293 332.321062 
L 515.078258 332.880392 
L 515.563173 331.761732 
L 515.957484 332.321062 
L 516.18344 332.321062 
L 516.270226 332.880392 
L 516.469714 331.761732 
L 516.66363 332.880392 
L 517.468225 332.880392 
L 517.592934 332.321062 
L 517.879539 332.321062 
L 517.924624 332.880392 
L 518.249142 333.439721 
L 518.261807 332.880392 
L 518.872099 332.880392 
L 519.186214 333.439721 
L 520.816248 333.439721 
L 520.938471 333.999051 
L 521.26173 333.439721 
L 521.272524 333.999051 
L 521.736699 334.558381 
L 522.021907 334.558381 
L 522.350112 335.117711 
L 522.513987 335.67704 
L 522.63928 335.67704 
L 523.033542 334.558381 
L 523.111426 335.67704 
L 523.376544 335.117711 
L 523.599695 335.67704 
L 524.595603 335.67704 
L 524.707189 336.23637 
L 524.84626 335.67704 
L 525.328194 336.23637 
L 525.56098 335.67704 
L 525.7969 336.23637 
L 525.938645 335.67704 
L 526.268759 336.7957 
L 526.496843 336.23637 
L 527.276973 336.23637 
L 527.58734 336.7957 
L 528.040523 336.7957 
L 528.401084 335.67704 
L 528.497186 336.23637 
L 528.882439 336.23637 
L 528.980209 337.35503 
L 529.466099 336.23637 
L 529.635782 336.7957 
L 530.027274 336.23637 
L 530.313045 336.23637 
L 530.459449 336.7957 
L 530.663751 336.7957 
L 530.69097 333.439721 
L 530.809392 333.439721 
L 531.267676 333.999051 
L 531.327047 332.880392 
L 531.491589 333.999051 
L 531.64244 333.439721 
L 531.732981 333.999051 
L 532.092165 333.439721 
L 532.523134 333.999051 
L 532.740222 333.999051 
L 533.038219 333.439721 
L 533.461799 333.439721 
L 533.896097 334.558381 
L 534.123591 333.999051 
L 534.583607 333.999051 
L 534.798726 333.439721 
L 534.830395 332.880392 
L 535.098384 333.999051 
L 535.240504 333.439721 
L 535.407673 333.999051 
L 535.65607 333.439721 
L 535.937211 333.439721 
L 536.117818 332.880392 
L 536.460338 332.880392 
L 536.816943 333.999051 
L 537.058918 333.439721 
L 537.353594 334.558381 
L 537.507055 334.558381 
L 537.603381 333.999051 
L 537.903078 333.999051 
L 537.928233 334.558381 
L 538.921742 334.558381 
L 539.084504 335.117711 
L 539.223915 335.117711 
L 539.438822 335.67704 
L 539.624184 335.117711 
L 539.765551 335.67704 
L 539.976307 335.117711 
L 540.09495 335.67704 
L 540.24808 335.117711 
L 540.297416 335.67704 
L 540.466935 336.7957 
L 540.674043 336.23637 
L 540.739222 335.67704 
L 540.957643 336.23637 
L 541.136139 335.67704 
L 541.351282 336.23637 
L 541.703848 336.23637 
L 541.802018 336.7957 
L 542.045581 336.23637 
L 542.685243 337.91436 
L 542.857313 337.91436 
L 543.035295 336.7957 
L 543.119438 337.35503 
L 543.371072 337.35503 
L 543.485559 336.7957 
L 543.691318 336.7957 
L 543.878648 337.35503 
L 544.119477 337.35503 
L 544.523803 339.033019 
L 544.738914 338.473689 
L 547.566592 338.473689 
L 547.698179 339.033019 
L 547.865048 339.033019 
L 547.999242 338.473689 
L 548.149865 339.033019 
L 548.268483 339.033019 
L 548.939264 336.7957 
L 549.051476 337.91436 
L 549.630258 336.7957 
L 550.258141 336.7957 
L 550.938086 337.91436 
L 552.140097 337.35503 
L 552.445354 337.91436 
L 552.781647 337.35503 
L 553.021825 338.473689 
L 553.118155 337.35503 
L 553.434764 338.473689 
L 553.779723 337.35503 
L 553.893914 338.473689 
L 554.115121 338.473689 
L 554.236721 337.91436 
L 554.457129 338.473689 
L 554.589403 338.473689 
L 554.712612 337.91436 
L 554.862313 339.592349 
L 555.254918 338.473689 
L 555.622126 338.473689 
L 555.846502 339.033019 
L 556.269951 339.033019 
L 556.614318 338.473689 
L 556.815638 338.473689 
L 556.96783 339.592349 
L 557.157671 339.033019 
L 557.26366 339.592349 
L 557.519577 340.151679 
L 557.676495 340.151679 
L 557.950842 339.033019 
L 558.213182 340.711008 
L 558.542916 340.711008 
L 558.567943 341.829668 
L 558.590971 341.270338 
L 558.76342 340.711008 
L 558.944698 341.829668 
L 559.020311 340.711008 
L 559.293576 340.711008 
L 559.33081 341.270338 
L 559.638686 341.829668 
L 559.822946 341.829668 
L 559.909313 340.711008 
L 560.322483 341.829668 
L 560.389395 340.711008 
L 560.614437 341.829668 
L 560.787553 340.151679 
L 561.313805 341.270338 
L 561.710247 339.592349 
L 561.740903 340.151679 
L 561.992014 339.592349 
L 562.150768 339.592349 
L 562.315577 340.711008 
L 562.512395 339.592349 
L 562.890791 340.711008 
L 563.034353 339.592349 
L 563.189794 340.151679 
L 563.506551 340.151679 
L 563.715735 339.592349 
L 563.715735 339.592349 
" clip-path="url(#pe5b35accad)" style="fill: none; stroke-dasharray: 3,1.5; stroke-dashoffset: 0; stroke: #808080; stroke-width: 1.5"/>
   </g>
   <g id="line2d_19">
    <path d="M 38.539265 297.083286 
L 39.949178 296.523956 
L 41.354541 295.405296 
L 44.682578 295.405296 
L 48.352137 294.845967 
L 48.624364 295.405296 
L 48.794143 295.405296 
L 48.91023 294.286637 
L 49.061057 294.845967 
L 49.178158 294.845967 
L 49.574433 294.286637 
L 50.345977 294.286637 
L 50.775689 291.489988 
L 50.871543 294.286637 
L 51.094586 290.930658 
L 51.165517 291.489988 
L 51.415455 291.489988 
L 51.815262 290.930658 
L 52.470674 290.930658 
L 52.806224 288.693339 
L 53.327819 288.693339 
L 53.857281 289.811999 
L 54.1941 285.33736 
L 54.268659 285.89669 
L 54.58562 285.33736 
L 55.198746 283.659371 
L 55.614615 284.778031 
L 56.271948 284.778031 
L 56.639299 285.89669 
L 56.887632 285.33736 
L 57.635786 284.778031 
L 57.971504 284.778031 
L 58.336563 283.659371 
L 58.860385 283.659371 
L 59.402141 280.303392 
L 60.858509 278.625403 
L 61.05684 278.066073 
L 61.476936 278.066073 
L 61.741842 277.506743 
L 62.163918 277.506743 
L 62.474652 278.625403 
L 62.791178 279.184733 
L 63.144088 279.184733 
L 63.350753 278.625403 
L 65.871125 278.625403 
L 66.273982 278.066073 
L 66.92603 278.066073 
L 67.28687 277.506743 
L 67.632651 277.506743 
L 67.766912 278.066073 
L 68.620903 277.506743 
L 68.978826 278.066073 
L 69.965654 278.066073 
L 70.282483 277.506743 
L 70.672007 278.066073 
L 72.468136 278.066073 
L 72.836138 277.506743 
L 73.038133 275.828754 
L 73.529766 276.947414 
L 74.222153 276.947414 
L 74.545649 275.828754 
L 74.672949 276.947414 
L 75.240131 275.269424 
L 75.583078 275.269424 
L 75.916153 274.710095 
L 76.287918 274.710095 
L 76.62926 275.269424 
L 76.95543 274.150765 
L 77.245005 274.150765 
L 78.032292 273.032105 
L 82.165786 273.032105 
L 82.494371 271.913446 
L 83.194669 271.913446 
L 83.505495 269.116797 
L 84.547998 269.116797 
L 85.545906 266.879478 
L 86.606582 266.879478 
L 86.986483 266.320148 
L 93.394758 266.320148 
L 94.164104 264.642159 
L 94.338385 266.320148 
L 95.572436 266.320148 
L 95.907547 265.201488 
L 96.277273 266.320148 
L 97.156946 266.320148 
L 97.642836 265.201488 
L 98.003545 266.320148 
L 103.451138 266.320148 
L 103.748836 261.28618 
L 103.955233 266.320148 
L 105.929447 266.320148 
L 106.287833 265.760818 
L 106.492395 260.72685 
L 106.975614 265.760818 
L 107.3169 265.760818 
L 107.543451 266.320148 
L 111.11793 266.320148 
L 111.298945 265.760818 
L 111.623789 265.760818 
L 112.158772 264.082829 
L 117.550842 264.082829 
L 118.727641 263.523499 
L 125.969791 263.523499 
L 126.27136 260.72685 
L 126.656709 260.72685 
L 126.998418 263.523499 
L 127.349982 263.523499 
L 127.592229 260.72685 
L 127.854776 263.523499 
L 128.29109 260.72685 
L 128.677577 259.60819 
L 133.159043 259.60819 
L 133.545849 259.048861 
L 135.242862 259.048861 
L 135.59172 257.930201 
L 136.013525 255.692882 
L 136.314835 255.133552 
L 136.65541 251.777574 
L 137.075873 251.777574 
L 137.639643 250.658914 
L 138.02872 250.658914 
L 138.700742 249.540254 
L 141.521327 244.506286 
L 141.809329 245.624946 
L 143.825986 245.624946 
L 144.219422 243.387627 
L 144.566364 243.946957 
L 145.955289 243.946957 
L 146.209235 245.065616 
L 146.655903 243.946957 
L 147.664629 243.946957 
L 148.007926 242.828297 
L 148.339065 242.828297 
L 148.731244 242.268967 
L 148.889499 242.268967 
L 149.066367 240.590978 
L 149.306127 240.590978 
L 150.11148 240.031648 
L 150.776916 241.709638 
L 150.939633 241.709638 
L 151.46128 241.150308 
L 151.795971 240.031648 
L 153.5256 240.031648 
L 153.859549 239.472318 
L 154.218163 239.472318 
L 154.550176 238.912989 
L 154.861198 238.912989 
L 155.583905 238.353659 
L 155.957152 238.353659 
L 156.329352 236.67567 
L 156.936255 236.67567 
L 157.315537 236.11634 
L 157.551213 236.11634 
L 157.682788 246.184276 
L 157.782427 245.624946 
L 158.352787 245.624946 
L 158.690708 244.506286 
L 159.142006 244.506286 
L 159.374469 243.946957 
L 159.885669 243.946957 
L 159.936538 243.387627 
L 160.74184 243.387627 
L 161.174206 241.709638 
L 162.072727 240.031648 
L 163.533182 240.031648 
L 163.848934 238.912989 
L 163.967828 239.472318 
L 164.10551 239.472318 
L 164.487322 240.031648 
L 165.876843 239.472318 
L 169.353252 239.472318 
L 169.75608 240.031648 
L 171.438648 240.031648 
L 171.678116 240.590978 
L 172.116765 240.031648 
L 174.82903 240.031648 
L 175.234712 239.472318 
L 175.801819 239.472318 
L 176.261308 238.912989 
L 176.492509 239.472318 
L 178.707489 239.472318 
L 179.406522 238.353659 
L 180.894219 238.353659 
L 181.144692 230.523042 
L 181.427054 230.523042 
L 183.833371 228.845053 
L 183.98124 229.404382 
L 184.135503 228.845053 
L 184.535916 229.404382 
L 184.87179 229.404382 
L 185.225298 228.845053 
L 185.490763 228.845053 
L 185.916959 227.726393 
L 186.092238 227.726393 
L 186.254452 228.285723 
L 186.618035 227.167063 
L 189.035289 227.167063 
L 189.27045 226.607734 
L 189.662513 226.607734 
L 190.026372 226.048404 
L 190.404121 226.607734 
L 190.570802 226.607734 
L 191.088541 227.167063 
L 191.47644 224.370414 
L 191.752591 226.048404 
L 192.112753 226.048404 
L 192.401438 222.692425 
L 192.603425 223.251755 
L 192.818448 222.133095 
L 192.926749 222.692425 
L 193.059302 221.014436 
L 193.402951 221.014436 
L 193.838362 220.455106 
L 194.691144 221.014436 
L 194.885323 219.895776 
L 195.202668 219.895776 
L 195.427399 221.573766 
L 196.190246 219.895776 
L 196.948777 219.336446 
L 197.614944 219.336446 
L 197.964408 217.658457 
L 198.285629 217.658457 
L 198.4759 218.217787 
L 198.809853 218.217787 
L 200.101472 214.861808 
L 200.316882 217.099127 
L 200.731526 217.658457 
L 201.217855 214.861808 
L 202.52508 214.861808 
L 202.636988 214.302478 
L 203.157864 213.743149 
L 204.546395 213.743149 
L 205.181969 210.9465 
L 208.753586 210.9465 
L 209.035617 209.82784 
L 209.406548 212.065159 
L 209.622498 210.38717 
L 213.51628 210.38717 
L 213.841612 209.82784 
L 214.626157 206.471861 
L 214.920494 208.149851 
L 215.271264 207.590521 
L 215.659666 208.149851 
L 215.932987 208.149851 
L 216.347132 202.556553 
L 216.5692 202.556553 
L 216.612302 201.997223 
L 217.311107 201.997223 
L 217.704432 200.878564 
L 218.051202 199.200574 
L 219.094355 198.641245 
L 219.16036 199.200574 
L 219.726744 199.759904 
L 219.810867 199.200574 
L 222.539969 199.200574 
L 222.729865 198.641245 
L 223.239174 198.081915 
L 223.919275 196.963255 
L 224.096166 195.844596 
L 224.335203 195.844596 
L 224.602984 194.725936 
L 224.925393 195.285266 
L 225.286402 195.285266 
L 225.558421 195.844596 
L 225.941903 195.285266 
L 226.284095 195.285266 
L 226.612064 194.725936 
L 226.877558 194.725936 
L 227.377314 195.285266 
L 227.637123 194.725936 
L 227.906026 195.285266 
L 228.359647 198.081915 
L 228.686903 198.641245 
L 229.43805 197.522585 
L 229.547871 193.607277 
L 229.715307 193.607277 
L 230.021674 193.047947 
L 230.377601 193.607277 
L 230.702561 193.607277 
L 231.102867 194.166606 
L 231.449593 193.047947 
L 232.700968 193.047947 
L 233.198286 192.488617 
L 233.482496 192.488617 
L 233.504549 191.929287 
L 234.922522 191.929287 
L 235.326212 190.810628 
L 237.310217 190.810628 
L 237.705721 189.691968 
L 241.506017 189.691968 
L 241.733622 189.132638 
L 242.347478 189.132638 
L 242.864003 188.573309 
L 243.210007 187.454649 
L 243.31347 188.013979 
L 243.68955 186.895319 
L 244.526174 186.895319 
L 247.91464 185.77666 
L 256.290352 185.77666 
L 256.631522 186.335989 
L 258.26906 186.335989 
L 258.60849 185.77666 
L 259.733307 185.77666 
L 260.121526 185.21733 
L 260.400679 185.77666 
L 260.724653 185.21733 
L 261.083123 185.77666 
L 261.377336 184.658 
L 261.827944 185.21733 
L 262.156732 184.658 
L 269.303613 184.658 
L 269.672793 185.77666 
L 270.063898 185.21733 
L 270.417613 185.77666 
L 270.813812 185.21733 
L 271.131551 185.77666 
L 272.457629 185.77666 
L 272.794344 185.21733 
L 273.17468 185.77666 
L 273.521187 184.658 
L 274.208265 184.658 
L 274.595913 185.21733 
L 274.885995 184.09867 
L 275.259154 184.09867 
L 275.547451 184.658 
L 276.457377 183.539341 
L 276.989688 184.09867 
L 277.305947 183.539341 
L 277.978787 183.539341 
L 278.358536 184.09867 
L 278.731428 182.420681 
L 279.090332 182.980011 
L 279.77937 182.980011 
L 280.042026 183.539341 
L 280.377943 182.980011 
L 280.744536 182.980011 
L 281.071691 187.454649 
L 281.201666 186.895319 
L 281.458757 186.895319 
L 281.637852 186.335989 
L 281.793939 186.335989 
L 281.999443 185.77666 
L 282.13871 186.895319 
L 282.46482 186.335989 
L 282.598355 186.335989 
L 282.826259 185.77666 
L 283.416984 185.77666 
L 283.70426 184.658 
L 283.988969 185.77666 
L 284.174331 185.21733 
L 285.219412 185.21733 
L 285.530529 185.77666 
L 285.825584 185.77666 
L 286.196352 185.21733 
L 286.539199 185.21733 
L 286.945615 185.77666 
L 287.337814 185.21733 
L 287.642122 185.21733 
L 288.121006 184.09867 
L 290.074512 184.09867 
L 290.395835 184.658 
L 291.909858 184.658 
L 292.257574 184.09867 
L 292.531094 183.539341 
L 293.066624 183.539341 
L 293.2337 182.420681 
L 293.310343 182.980011 
L 293.491549 182.420681 
L 294.001245 182.420681 
L 294.251107 181.302021 
L 294.931428 181.302021 
L 295.033194 180.742692 
L 295.248991 180.183362 
L 296.299218 180.183362 
L 296.55108 178.505373 
L 296.783487 177.946043 
L 296.917608 177.946043 
L 297.370036 177.386713 
L 297.529273 177.946043 
L 297.606443 177.386713 
L 297.769715 177.386713 
L 297.960849 176.827383 
L 298.103892 176.827383 
L 298.688103 176.268053 
L 299.998769 176.268053 
L 300.336798 176.827383 
L 300.660688 176.268053 
L 301.025796 176.268053 
L 301.200776 175.708724 
L 301.242863 176.268053 
L 301.450546 175.708724 
L 301.61298 175.708724 
L 301.773391 174.590064 
L 302.391071 173.471405 
L 302.840853 174.030734 
L 303.182817 173.471405 
L 303.855087 173.471405 
L 304.219959 172.352745 
L 304.353534 172.912075 
L 304.570533 171.234085 
L 304.878026 171.793415 
L 305.077451 171.234085 
L 305.235135 171.793415 
L 305.409384 170.674756 
L 305.764545 170.674756 
L 305.869735 170.115426 
L 306.286419 170.674756 
L 306.608689 169.556096 
L 307.335775 169.556096 
L 307.597512 168.437437 
L 307.968763 169.556096 
L 308.22098 169.556096 
L 308.313449 168.996766 
L 308.992022 168.996766 
L 309.309434 166.759447 
L 309.765921 168.996766 
L 309.836696 168.437437 
L 310.437755 168.996766 
L 310.494672 167.878107 
L 310.701401 167.878107 
L 311.117972 167.318777 
L 311.456041 167.878107 
L 311.711443 167.878107 
L 312.089388 166.759447 
L 312.500563 166.759447 
L 312.8993 167.318777 
L 313.197305 166.759447 
L 313.378376 167.318777 
L 313.558469 166.200117 
L 315.154259 166.200117 
L 315.644723 165.640788 
L 316.646132 165.640788 
L 317.001448 166.759447 
L 317.671119 166.759447 
L 318.006286 166.200117 
L 321.055374 166.200117 
L 321.466868 166.759447 
L 321.852593 165.640788 
L 326.53195 165.640788 
L 327.558474 165.081458 
L 328.168171 165.081458 
L 328.663329 164.522128 
L 329.054638 164.522128 
L 329.284582 163.403468 
L 329.649143 163.962798 
L 334.493174 163.962798 
L 334.916224 164.522128 
L 335.251626 163.962798 
L 335.582977 164.522128 
L 335.808008 166.759447 
L 337.865702 166.759447 
L 338.205056 165.640788 
L 338.68135 166.759447 
L 340.652865 166.759447 
L 340.948355 165.640788 
L 341.060028 166.759447 
L 341.566167 166.759447 
L 341.800127 165.640788 
L 341.977881 166.759447 
L 342.095043 166.759447 
L 342.315227 165.640788 
L 342.471506 165.640788 
L 342.67307 166.759447 
L 342.849355 165.640788 
L 342.962326 166.759447 
L 343.007826 165.640788 
L 344.220239 165.640788 
L 344.617132 163.962798 
L 345.058307 163.962798 
L 345.094695 163.403468 
L 345.450422 163.403468 
L 345.634619 162.844139 
L 345.791664 163.403468 
L 345.984598 162.844139 
L 346.115072 163.403468 
L 346.301699 162.844139 
L 346.42108 162.844139 
L 346.550496 163.403468 
L 346.568242 162.844139 
L 346.95613 162.844139 
L 347.199167 162.284809 
L 347.352452 162.284809 
L 347.582001 161.166149 
L 347.836705 160.60682 
L 348.012615 161.166149 
L 349.971928 161.166149 
L 350.252075 160.60682 
L 351.753671 160.60682 
L 351.993203 160.04749 
L 352.309821 160.04749 
L 352.544766 159.48816 
L 352.674262 160.04749 
L 353.295531 160.04749 
L 353.50519 158.92883 
L 354.075849 158.92883 
L 354.130649 158.3695 
L 354.210278 158.92883 
L 354.526916 158.92883 
L 354.554478 158.3695 
L 354.784641 157.810171 
L 354.84897 158.3695 
L 355.109873 156.132181 
L 356.16653 156.132181 
L 356.272758 155.572852 
L 356.504243 155.572852 
L 356.639846 154.454192 
L 356.798991 155.572852 
L 358.201743 155.572852 
L 358.282912 155.013522 
L 358.551974 155.572852 
L 358.680799 155.013522 
L 358.918982 155.572852 
L 359.228371 155.572852 
L 359.4181 154.454192 
L 359.763952 154.454192 
L 359.905817 155.013522 
L 360.027366 153.894862 
L 360.386334 155.572852 
L 360.762507 154.454192 
L 361.035009 155.572852 
L 361.672915 155.572852 
L 362.169367 153.894862 
L 362.323845 154.454192 
L 362.494921 153.894862 
L 362.956538 155.013522 
L 363.104351 153.894862 
L 364.199866 153.894862 
L 364.37645 153.335532 
L 364.684175 153.335532 
L 364.848218 153.894862 
L 365.055254 153.335532 
L 365.186167 153.894862 
L 365.584963 152.776203 
L 366.129434 152.776203 
L 366.51343 151.657543 
L 367.180526 152.776203 
L 367.32309 152.216873 
L 367.498477 152.776203 
L 367.609699 152.216873 
L 367.832841 152.216873 
L 367.926361 152.776203 
L 368.35844 151.657543 
L 368.580868 152.216873 
L 368.69092 151.657543 
L 368.917695 152.216873 
L 369.218877 152.216873 
L 369.41314 151.657543 
L 369.540871 152.216873 
L 369.666751 152.216873 
L 369.947524 152.776203 
L 370.073303 151.657543 
L 370.643439 151.657543 
L 370.681871 150.538884 
L 373.120312 150.538884 
L 373.360869 149.979554 
L 373.518765 150.538884 
L 373.652536 149.979554 
L 373.754146 150.538884 
L 373.87603 149.420224 
L 374.4376 149.420224 
L 374.702502 148.860894 
L 374.756189 149.420224 
L 374.811194 148.860894 
L 375.113693 149.420224 
L 375.191873 148.860894 
L 375.487698 148.301564 
L 375.603566 147.742235 
L 375.824765 147.742235 
L 375.875626 147.182905 
L 376.183606 145.504916 
L 376.322226 146.064245 
L 376.509317 146.064245 
L 376.543022 144.945586 
L 377.857496 144.945586 
L 378.02076 144.386256 
L 378.278274 144.945586 
L 379.038718 143.267596 
L 379.278574 143.267596 
L 379.421309 142.708267 
L 379.75377 142.708267 
L 379.76192 142.148937 
L 379.864405 142.708267 
L 379.962646 141.589607 
L 380.107849 141.589607 
L 380.308846 141.030277 
L 381.687656 141.030277 
L 381.724044 141.589607 
L 381.810845 140.470948 
L 382.174464 140.470948 
L 382.360165 141.030277 
L 382.503113 140.470948 
L 382.718328 141.030277 
L 382.879576 140.470948 
L 383.060743 140.470948 
L 383.216416 141.030277 
L 383.370771 139.352288 
L 385.218567 139.352288 
L 385.774237 138.233628 
L 386.066734 138.792958 
L 393.04689 138.792958 
L 393.165401 138.233628 
L 393.377367 138.792958 
L 393.438458 138.233628 
L 394.07183 138.233628 
L 394.247213 137.674299 
L 395.13615 137.674299 
L 395.254924 137.114969 
L 395.422344 137.674299 
L 396.784063 137.674299 
L 396.972941 137.114969 
L 397.210801 137.674299 
L 397.342136 137.674299 
L 397.551436 136.555639 
L 397.666574 137.114969 
L 398.176904 137.114969 
L 398.399264 136.555639 
L 399.445922 136.555639 
L 399.616419 137.674299 
L 399.961892 136.555639 
L 401.820717 136.555639 
L 402.0113 135.996309 
L 402.181561 135.996309 
L 402.364928 135.43698 
L 402.501983 135.43698 
L 402.671638 134.87765 
L 403.068583 134.87765 
L 403.138903 134.31832 
L 403.469815 134.31832 
L 403.678839 135.43698 
L 403.842055 134.87765 
L 404.091894 134.87765 
L 404.193767 134.31832 
L 404.575979 134.31832 
L 404.917832 133.75899 
L 405.290603 132.081001 
L 405.412651 132.640331 
L 405.526291 132.081001 
L 405.787131 131.521671 
L 405.910818 132.081001 
L 406.120585 131.521671 
L 406.24282 131.521671 
L 406.46239 132.081001 
L 406.641716 132.081001 
L 406.993037 130.403012 
L 407.205231 130.962341 
L 407.331629 130.962341 
L 407.49756 130.403012 
L 407.541192 129.843682 
L 407.682283 129.843682 
L 407.751138 130.403012 
L 407.979042 129.843682 
L 408.136854 130.403012 
L 408.266957 129.843682 
L 408.82879 129.843682 
L 409.037978 133.19966 
L 409.596667 132.081001 
L 409.96555 132.081001 
L 410.094579 131.521671 
L 410.295552 132.081001 
L 410.424553 132.081001 
L 410.577195 132.640331 
L 410.752706 132.081001 
L 410.993791 132.081001 
L 411.112413 132.640331 
L 411.263124 132.081001 
L 411.468672 132.640331 
L 411.549462 132.081001 
L 411.846816 131.521671 
L 412.140853 131.521671 
L 412.29065 132.081001 
L 412.575067 131.521671 
L 413.736376 131.521671 
L 413.838657 128.725022 
L 414.138478 130.962341 
L 414.453279 131.521671 
L 415.019528 131.521671 
L 415.453642 130.403012 
L 415.602545 132.081001 
L 415.853166 131.521671 
L 416.172654 132.081001 
L 416.318802 130.403012 
L 416.495255 131.521671 
L 416.662016 131.521671 
L 416.773074 130.962341 
L 416.870832 126.487703 
L 417.210334 128.725022 
L 417.238499 125.928373 
L 418.145965 125.928373 
L 418.575234 124.809714 
L 418.752313 125.369044 
L 419.388032 125.369044 
L 419.561243 125.928373 
L 419.74637 125.369044 
L 419.94943 125.369044 
L 420.068723 125.928373 
L 420.431644 125.369044 
L 420.644847 125.369044 
L 420.784621 124.809714 
L 420.955569 125.369044 
L 421.139223 125.369044 
L 421.311333 125.928373 
L 421.417944 125.369044 
L 422.376671 125.369044 
L 422.616526 123.691054 
L 422.906524 124.250384 
L 423.146371 124.250384 
L 423.340547 124.809714 
L 423.428833 124.250384 
L 423.729608 124.809714 
L 423.842052 124.250384 
L 424.107022 124.250384 
L 424.210684 123.691054 
L 424.527338 124.250384 
L 425.179849 124.250384 
L 425.421764 123.691054 
L 425.824752 123.691054 
L 425.926362 123.131724 
L 426.098097 123.691054 
L 426.499556 122.572395 
L 426.619008 122.572395 
L 426.796172 122.013065 
L 426.959484 122.013065 
L 427.266769 121.453735 
L 429.766358 121.453735 
L 430.032649 120.894405 
L 430.282344 120.894405 
L 430.333181 122.013065 
L 430.396141 121.453735 
L 430.803515 121.453735 
L 430.8965 120.894405 
L 431.432524 120.894405 
L 431.688517 120.335075 
L 432.032338 120.335075 
L 432.043774 120.894405 
L 432.158069 120.335075 
L 432.26318 120.894405 
L 433.760322 120.894405 
L 434.041043 121.453735 
L 434.824127 120.894405 
L 436.448046 120.894405 
L 436.518314 120.335075 
L 438.222365 120.335075 
L 438.375862 119.775746 
L 439.951762 116.979097 
L 440.10112 116.979097 
L 440.256944 116.419767 
L 440.326338 116.979097 
L 440.661924 116.419767 
L 440.973703 115.860437 
L 441.346575 115.860437 
L 441.471791 115.301107 
L 441.943012 115.301107 
L 442.62552 115.860437 
L 442.659903 114.182448 
L 443.209196 114.182448 
L 443.379441 114.741778 
L 443.503097 114.182448 
L 444.424043 114.182448 
L 444.765054 114.741778 
L 446.411362 114.741778 
L 447.247035 114.182448 
L 448.935147 114.182448 
L 449.766402 113.623118 
L 449.877576 113.063788 
L 452.377552 113.063788 
L 452.612413 113.623118 
L 453.881547 113.623118 
L 454.808237 114.182448 
L 455.483528 114.182448 
L 455.818647 113.623118 
L 456.116169 112.504459 
L 456.293308 112.504459 
L 456.300222 113.063788 
L 458.287185 113.063788 
L 458.500436 112.504459 
L 463.52005 112.504459 
L 464.152966 111.945129 
L 464.396881 111.945129 
L 464.492092 110.826469 
L 464.802308 110.826469 
L 464.932585 111.385799 
L 465.134537 110.826469 
L 466.268435 110.826469 
L 466.773867 110.267139 
L 467.12496 109.14848 
L 470.199878 109.14848 
L 470.741091 109.70781 
L 470.897682 109.14848 
L 471.056089 109.70781 
L 471.234162 109.14848 
L 472.077511 109.14848 
L 472.466337 109.70781 
L 472.663646 109.14848 
L 473.207701 110.267139 
L 473.419743 109.14848 
L 474.736329 109.14848 
L 474.751904 108.58915 
L 476.838405 108.58915 
L 477.852887 108.02982 
L 478.15733 108.58915 
L 478.379044 108.02982 
L 478.52253 108.58915 
L 478.722968 108.58915 
L 478.860087 108.02982 
L 479.343394 109.14848 
L 479.662491 108.58915 
L 480.091476 109.14848 
L 480.409228 109.14848 
L 480.553536 108.58915 
L 481.429585 108.58915 
L 482.470478 109.14848 
L 482.627153 108.58915 
L 483.662897 108.58915 
L 483.999174 109.14848 
L 489.270761 108.58915 
L 489.665479 109.14848 
L 490.006609 108.58915 
L 490.312286 109.14848 
L 490.346486 108.58915 
L 490.612606 108.02982 
L 490.766726 108.02982 
L 490.907705 107.470491 
L 493.358648 107.470491 
L 493.410874 106.911161 
L 493.715529 106.911161 
L 494.529001 107.470491 
L 494.554879 106.911161 
L 494.867421 107.470491 
L 494.943385 106.351831 
L 495.144554 106.351831 
L 495.552679 105.792501 
L 496.23662 105.792501 
L 496.651914 106.351831 
L 497.118856 105.233171 
L 497.138007 104.673842 
L 497.459483 104.114512 
L 497.591609 104.114512 
L 497.925227 104.673842 
L 498.394336 104.673842 
L 498.491855 104.114512 
L 499.559947 104.114512 
L 499.707089 104.673842 
L 499.887226 103.555182 
L 500.035698 103.555182 
L 500.317485 104.114512 
L 500.573758 103.555182 
L 501.145251 103.555182 
L 501.396942 101.877193 
L 503.191989 101.877193 
L 503.406593 101.317863 
L 503.538 101.317863 
L 503.75423 101.877193 
L 503.809996 101.317863 
L 504.382767 101.317863 
L 504.497969 100.758533 
L 504.810858 100.199203 
L 504.900226 99.080544 
L 505.388399 99.080544 
L 505.571817 97.402555 
L 505.953729 97.402555 
L 506.177091 97.961884 
L 506.297761 97.402555 
L 506.4602 97.402555 
L 506.472606 95.724565 
L 507.341358 95.724565 
L 507.491953 95.165235 
L 507.866461 95.165235 
L 508.25454 95.724565 
L 508.294456 94.605906 
L 508.638069 94.605906 
L 508.701408 94.046576 
L 508.940828 93.487246 
L 509.573301 93.487246 
L 509.666261 92.368587 
L 509.937686 92.368587 
L 510.096816 91.809257 
L 510.24951 91.809257 
L 510.797086 91.249927 
L 511.011391 91.809257 
L 511.139015 97.961884 
L 511.277427 98.521214 
L 511.37117 96.283895 
L 512.046405 96.283895 
L 512.323941 96.843225 
L 512.526156 95.724565 
L 513.52479 95.724565 
L 513.726071 96.283895 
L 513.883667 95.724565 
L 514.947293 95.724565 
L 515.078258 95.165235 
L 515.563173 96.283895 
L 515.957484 95.724565 
L 516.18344 95.724565 
L 516.270226 95.165235 
L 516.469714 96.283895 
L 516.66363 95.165235 
L 517.468225 95.165235 
L 517.592934 95.724565 
L 517.879539 95.724565 
L 517.924624 95.165235 
L 518.249142 94.605906 
L 518.261807 95.165235 
L 518.523269 94.605906 
L 518.872099 94.605906 
L 519.186214 94.046576 
L 520.816248 94.046576 
L 520.938471 93.487246 
L 521.26173 94.046576 
L 521.272524 93.487246 
L 521.736699 92.927916 
L 522.021907 92.927916 
L 522.350112 92.368587 
L 522.513987 91.809257 
L 522.63928 91.809257 
L 523.033542 92.927916 
L 523.111426 91.809257 
L 523.376544 92.368587 
L 523.599695 91.809257 
L 524.595603 91.809257 
L 524.707189 91.249927 
L 524.84626 91.809257 
L 525.328194 91.249927 
L 525.56098 91.809257 
L 525.7969 91.249927 
L 525.938645 91.809257 
L 526.268759 90.690597 
L 526.496843 91.249927 
L 527.276973 91.249927 
L 527.58734 90.690597 
L 528.040523 90.690597 
L 528.401084 91.809257 
L 528.497186 91.249927 
L 528.882439 91.249927 
L 528.980209 90.131267 
L 529.466099 91.249927 
L 529.635782 90.690597 
L 530.027274 91.249927 
L 530.313045 91.249927 
L 530.459449 90.690597 
L 530.809392 90.690597 
L 531.267676 90.131267 
L 531.327047 91.249927 
L 531.491589 90.131267 
L 531.64244 90.690597 
L 531.732981 90.131267 
L 532.092165 90.690597 
L 532.523134 90.131267 
L 532.740222 90.131267 
L 533.038219 90.690597 
L 533.461799 90.690597 
L 533.896097 89.571938 
L 534.123591 90.131267 
L 534.583607 90.131267 
L 534.798726 90.690597 
L 534.830395 91.249927 
L 535.098384 90.131267 
L 535.240504 90.690597 
L 535.407673 90.131267 
L 535.65607 90.690597 
L 535.937211 90.690597 
L 536.117818 91.249927 
L 536.460338 91.249927 
L 536.816943 90.131267 
L 537.058918 90.690597 
L 537.353594 89.571938 
L 537.507055 89.571938 
L 537.603381 90.131267 
L 537.903078 90.131267 
L 537.928233 89.571938 
L 538.921742 89.571938 
L 539.084504 89.012608 
L 539.223915 89.012608 
L 539.438822 88.453278 
L 539.624184 89.012608 
L 539.765551 88.453278 
L 539.976307 88.453278 
L 540.09495 87.893948 
L 540.24808 88.453278 
L 540.297416 87.893948 
L 540.466935 86.775289 
L 540.674043 87.334619 
L 540.739222 87.893948 
L 540.957643 87.334619 
L 541.136139 87.893948 
L 541.351282 87.334619 
L 541.703848 87.334619 
L 541.802018 86.775289 
L 542.045581 87.334619 
L 542.685243 85.656629 
L 542.857313 85.656629 
L 543.035295 86.775289 
L 543.119438 86.215959 
L 543.371072 86.215959 
L 543.485559 86.775289 
L 543.691318 86.775289 
L 543.878648 86.215959 
L 544.119477 86.215959 
L 544.523803 84.53797 
L 544.738914 85.097299 
L 547.566592 85.097299 
L 547.698179 84.53797 
L 547.865048 84.53797 
L 547.999242 85.097299 
L 548.149865 84.53797 
L 548.939264 84.53797 
L 549.051476 83.41931 
L 549.630258 84.53797 
L 550.258141 84.53797 
L 550.938086 83.41931 
L 552.140097 83.97864 
L 552.445354 83.41931 
L 552.781647 83.97864 
L 553.021825 82.85998 
L 553.118155 83.97864 
L 553.434764 82.85998 
L 553.779723 83.97864 
L 553.893914 82.85998 
L 554.115121 82.85998 
L 554.236721 83.41931 
L 554.457129 82.85998 
L 554.589403 82.85998 
L 554.712612 83.41931 
L 554.862313 81.741321 
L 555.254918 82.85998 
L 555.622126 82.85998 
L 555.846502 82.300651 
L 556.269951 82.300651 
L 556.614318 82.85998 
L 556.815638 82.85998 
L 556.96783 81.741321 
L 557.157671 82.85998 
L 557.26366 82.300651 
L 557.519577 81.741321 
L 557.676495 81.741321 
L 557.950842 82.85998 
L 558.213182 81.181991 
L 558.542916 81.181991 
L 558.567943 80.063331 
L 558.590971 80.622661 
L 558.76342 81.181991 
L 558.944698 80.063331 
L 559.020311 81.181991 
L 559.293576 81.181991 
L 559.33081 80.622661 
L 559.638686 80.063331 
L 559.822946 80.063331 
L 559.909313 81.181991 
L 560.322483 80.063331 
L 560.389395 81.181991 
L 560.614437 80.063331 
L 560.787553 81.741321 
L 561.313805 80.622661 
L 561.710247 82.300651 
L 561.740903 81.741321 
L 561.992014 82.300651 
L 562.150768 82.300651 
L 562.315577 81.181991 
L 562.512395 82.300651 
L 562.890791 81.181991 
L 563.034353 82.300651 
L 563.189794 81.741321 
L 563.506551 81.741321 
L 563.715735 82.300651 
L 563.715735 82.300651 
" clip-path="url(#pe5b35accad)" style="fill: none; stroke-dasharray: 6,1.5; stroke-dashoffset: 0; stroke: #008000; stroke-width: 1.5"/>
   </g>
   <g id="line2d_20">
    <path d="M 38.539265 361.96554 
L 39.949178 363.0842 
L 41.354541 363.0842 
L 42.71392 362.52487 
L 44.682578 362.52487 
L 48.794143 361.96554 
L 48.91023 362.52487 
L 52.470674 362.52487 
L 52.806224 363.643529 
L 53.548602 363.643529 
L 53.857281 360.287551 
L 54.268659 363.643529 
L 56.271948 363.643529 
L 56.639299 360.287551 
L 59.402141 360.287551 
L 60.858509 360.846881 
L 61.05684 361.40621 
L 62.163918 361.40621 
L 62.474652 359.728221 
L 65.871125 359.728221 
L 66.273982 360.287551 
L 76.62926 360.287551 
L 76.95543 359.728221 
L 83.194669 359.728221 
L 83.505495 361.96554 
L 135.242862 361.96554 
L 135.59172 363.0842 
L 136.013525 366.440178 
L 136.314835 366.440178 
L 136.65541 366.999508 
L 138.700742 366.999508 
L 141.521327 368.677497 
L 141.809329 368.677497 
L 142.292233 369.236827 
L 156.549417 369.236827 
L 157.315537 370.355487 
L 189.662513 370.355487 
L 190.026372 370.914817 
L 190.404121 370.355487 
L 192.603425 370.355487 
L 192.926749 370.914817 
L 198.809853 370.914817 
L 200.101472 372.033476 
L 200.316882 370.914817 
L 200.731526 370.914817 
L 201.073303 372.033476 
L 209.035617 372.033476 
L 209.406548 371.474146 
L 209.622498 372.033476 
L 228.359647 372.033476 
L 228.686903 373.152136 
L 270.417613 373.152136 
L 270.813812 373.711465 
L 366.51343 373.711465 
L 366.89614 373.152136 
L 378.278274 373.152136 
L 378.724336 373.711465 
L 378.843553 374.830125 
L 408.82879 374.830125 
L 409.037978 374.270795 
L 411.976703 374.270795 
L 412.140853 374.830125 
L 530.663751 374.830125 
L 530.69097 374.270795 
L 539.765551 374.270795 
L 540.09495 374.830125 
L 563.715735 374.830125 
L 563.715735 374.830125 
" clip-path="url(#pe5b35accad)" style="fill: none; stroke-dasharray: 9,3; stroke-dashoffset: 0; stroke: #ffa500; stroke-width: 1.5"/>
   </g>
   <g id="line2d_21">
    <path d="M 38.539265 323.371785 
L 48.794143 323.371785 
L 48.91023 323.931115 
L 52.470674 323.931115 
L 52.806224 324.490445 
L 53.548602 324.490445 
L 53.857281 325.609104 
L 54.268659 324.490445 
L 56.271948 324.490445 
L 56.887632 326.168434 
L 58.336563 326.168434 
L 58.663001 326.727764 
L 58.860385 326.168434 
L 59.025494 326.727764 
L 74.222153 326.727764 
L 74.545649 327.846424 
L 74.672949 326.727764 
L 75.240131 327.846424 
L 93.394758 327.846424 
L 94.164104 328.405753 
L 94.338385 327.846424 
L 95.572436 327.846424 
L 95.907547 328.405753 
L 96.277273 327.846424 
L 97.156946 327.846424 
L 97.642836 328.405753 
L 98.003545 327.846424 
L 125.969791 327.846424 
L 126.27136 328.405753 
L 126.656709 328.405753 
L 126.998418 327.846424 
L 127.349982 327.846424 
L 127.592229 328.405753 
L 127.854776 327.846424 
L 128.29109 328.405753 
L 135.59172 328.405753 
L 136.013525 327.846424 
L 136.314835 327.846424 
L 136.65541 328.965083 
L 138.315513 328.965083 
L 138.700742 331.761732 
L 141.521327 329.524413 
L 141.809329 330.083743 
L 143.825986 330.083743 
L 144.219422 332.880392 
L 144.566364 333.439721 
L 160.195465 333.439721 
L 160.74184 332.880392 
L 161.174206 333.439721 
L 162.138573 332.880392 
L 164.487322 332.880392 
L 165.876843 333.439721 
L 171.678116 333.439721 
L 172.116765 333.999051 
L 208.753586 333.999051 
L 209.035617 334.558381 
L 209.406548 333.999051 
L 215.932987 333.999051 
L 216.347132 341.270338 
L 217.311107 341.270338 
L 217.704432 345.744976 
L 218.051202 347.422966 
L 239.052519 347.422966 
L 241.733622 347.982296 
L 273.17468 347.982296 
L 273.521187 350.219615 
L 280.744536 350.219615 
L 281.071691 346.863636 
L 297.769715 346.863636 
L 297.960849 347.422966 
L 329.054638 347.422966 
L 329.284582 347.982296 
L 329.649143 347.422966 
L 338.049296 347.422966 
L 338.205056 347.982296 
L 338.522863 347.422966 
L 340.652865 347.422966 
L 340.948355 347.982296 
L 341.060028 347.422966 
L 344.220239 347.422966 
L 344.440918 347.982296 
L 354.333467 347.982296 
L 354.526916 347.422966 
L 366.89614 347.422966 
L 367.180526 346.863636 
L 367.32309 347.422966 
L 367.498477 346.863636 
L 367.609699 347.422966 
L 367.832841 347.422966 
L 367.926361 346.863636 
L 368.176598 347.422966 
L 369.666751 347.422966 
L 369.947524 346.863636 
L 370.073303 347.422966 
L 378.724336 347.422966 
L 378.843553 346.863636 
L 408.82879 346.863636 
L 409.037978 347.422966 
L 413.736376 347.422966 
L 413.838657 350.219615 
L 414.138478 347.422966 
L 416.855956 347.422966 
L 416.870832 350.219615 
L 417.210334 347.422966 
L 417.238499 350.219615 
L 444.424043 350.219615 
L 444.765054 349.660285 
L 445.058005 350.219615 
L 478.15733 350.219615 
L 478.379044 350.778944 
L 478.52253 350.219615 
L 478.860087 350.219615 
L 479.343394 350.778944 
L 501.145251 350.778944 
L 501.396942 351.338274 
L 504.497969 351.338274 
L 504.810858 351.897604 
L 511.011391 351.897604 
L 511.139015 351.338274 
L 518.261807 351.338274 
L 518.523269 351.897604 
L 530.663751 351.897604 
L 530.69097 355.812913 
L 539.765551 355.812913 
L 540.09495 355.253583 
L 548.268483 355.253583 
L 549.051476 357.490902 
L 556.96783 357.490902 
L 557.26366 356.931572 
L 563.715735 356.931572 
L 563.715735 356.931572 
" clip-path="url(#pe5b35accad)" style="fill: none; stroke-dasharray: 12,4.5; stroke-dashoffset: 0; stroke: #ee82ee; stroke-width: 1.5"/>
   </g>
   <g id="patch_3">
    <path d="M 33.2875 374.830125 
L 33.2875 22.318125 
" style="fill: none; stroke: #000000; stroke-width: 0.8; stroke-linejoin: miter; stroke-linecap: square"/>
   </g>
   <g id="patch_4">
    <path d="M 568.9675 374.830125 
L 568.9675 22.318125 
" style="fill: none; stroke: #000000; stroke-width: 0.8; stroke-linejoin: miter; stroke-linecap: square"/>
   </g>
   <g id="patch_5">
    <path d="M 33.2875 374.830125 
L 568.9675 374.830125 
" style="fill: none; stroke: #000000; stroke-width: 0.8; stroke-linejoin: miter; stroke-linecap: square"/>
   </g>
   <g id="patch_6">
    <path d="M 33.2875 22.318125 
L 568.9675 22.318125 
" style="fill: none; stroke: #000000; stroke-width: 0.8; stroke-linejoin: miter; stroke-linecap: square"/>
   </g>
   <g id="text_17">
    <!-- Rust/Coreutils running GNU's testsuite -->
    <g transform="translate(186.090625 16.318125) scale(0.12 -0.12)">
     <defs>
      <path id="DejaVuSans-52" d="M 2841 2188 
Q 3044 2119 3236 1894 
Q 3428 1669 3622 1275 
L 4263 0 
L 3584 0 
L 2988 1197 
Q 2756 1666 2539 1819 
Q 2322 1972 1947 1972 
L 1259 1972 
L 1259 0 
L 628 0 
L 628 4666 
L 2053 4666 
Q 2853 4666 3247 4331 
Q 3641 3997 3641 3322 
Q 3641 2881 3436 2590 
Q 3231 2300 2841 2188 
z
M 1259 4147 
L 1259 2491 
L 2053 2491 
Q 2509 2491 2742 2702 
Q 2975 2913 2975 3322 
Q 2975 3731 2742 3939 
Q 2509 4147 2053 4147 
L 1259 4147 
z
" transform="scale(0.015625)"/>
      <path id="DejaVuSans-75" d="M 544 1381 
L 544 3500 
L 1119 3500 
L 1119 1403 
Q 1119 906 1312 657 
Q 1506 409 1894 409 
Q 2359 409 2629 706 
Q 2900 1003 2900 1516 
L 2900 3500 
L 3475 3500 
L 3475 0 
L 2900 0 
L 2900 538 
Q 2691 219 2414 64 
Q 2138 -91 1772 -91 
Q 1169 -91 856 284 
Q 544 659 544 1381 
z
M 1991 3584 
L 1991 3584 
z
" transform="scale(0.015625)"/>
      <path id="DejaVuSans-73" d="M 2834 3397 
L 2834 2853 
Q 2591 2978 2328 3040 
Q 2066 3103 1784 3103 
Q 1356 3103 1142 2972 
Q 928 2841 928 2578 
Q 928 2378 1081 2264 
Q 1234 2150 1697 2047 
L 1894 2003 
Q 2506 1872 2764 1633 
Q 3022 1394 3022 966 
Q 3022 478 2636 193 
Q 2250 -91 1575 -91 
Q 1294 -91 989 -36 
Q 684 19 347 128 
L 347 722 
Q 666 556 975 473 
Q 1284 391 1588 391 
Q 1994 391 2212 530 
Q 2431 669 2431 922 
Q 2431 1156 2273 1281 
Q 2116 1406 1581 1522 
L 1381 1569 
Q 847 1681 609 1914 
Q 372 2147 372 2553 
Q 372 3047 722 3315 
Q 1072 3584 1716 3584 
Q 2034 3584 2315 3537 
Q 2597 3491 2834 3397 
z
" transform="scale(0.015625)"/>
      <path id="DejaVuSans-74" d="M 1172 4494 
L 1172 3500 
L 2356 3500 
L 2356 3053 
L 1172 3053 
L 1172 1153 
Q 1172 725 1289 603 
Q 1406 481 1766 481 
L 2356 481 
L 2356 0 
L 1766 0 
Q 1100 0 847 248 
Q 594 497 594 1153 
L 594 3053 
L 172 3053 
L 172 3500 
L 594 3500 
L 594 4494 
L 1172 4494 
z
" transform="scale(0.015625)"/>
      <path id="DejaVuSans-2f" d="M 1625 4666 
L 2156 4666 
L 531 -594 
L 0 -594 
L 1625 4666 
z
" transform="scale(0.015625)"/>
      <path id="DejaVuSans-43" d="M 4122 4306 
L 4122 3641 
Q 3803 3938 3442 4084 
Q 3081 4231 2675 4231 
Q 1875 4231 1450 3742 
Q 1025 3253 1025 2328 
Q 1025 1406 1450 917 
Q 1875 428 2675 428 
Q 3081 428 3442 575 
Q 3803 722 4122 1019 
L 4122 359 
Q 3791 134 3420 21 
Q 3050 -91 2638 -91 
Q 1578 -91 968 557 
Q 359 1206 359 2328 
Q 359 3453 968 4101 
Q 1578 4750 2638 4750 
Q 3056 4750 3426 4639 
Q 3797 4528 4122 4306 
z
" transform="scale(0.015625)"/>
      <path id="DejaVuSans-6f" d="M 1959 3097 
Q 1497 3097 1228 2736 
Q 959 2375 959 1747 
Q 959 1119 1226 758 
Q 1494 397 1959 397 
Q 2419 397 2687 759 
Q 2956 1122 2956 1747 
Q 2956 2369 2687 2733 
Q 2419 3097 1959 3097 
z
M 1959 3584 
Q 2709 3584 3137 3096 
Q 3566 2609 3566 1747 
Q 3566 888 3137 398 
Q 2709 -91 1959 -91 
Q 1206 -91 779 398 
Q 353 888 353 1747 
Q 353 2609 779 3096 
Q 1206 3584 1959 3584 
z
" transform="scale(0.015625)"/>
      <path id="DejaVuSans-72" d="M 2631 2963 
Q 2534 3019 2420 3045 
Q 2306 3072 2169 3072 
Q 1681 3072 1420 2755 
Q 1159 2438 1159 1844 
L 1159 0 
L 581 0 
L 581 3500 
L 1159 3500 
L 1159 2956 
Q 1341 3275 1631 3429 
Q 1922 3584 2338 3584 
Q 2397 3584 2469 3576 
Q 2541 3569 2628 3553 
L 2631 2963 
z
" transform="scale(0.015625)"/>
      <path id="DejaVuSans-65" d="M 3597 1894 
L 3597 1613 
L 953 1613 
Q 991 1019 1311 708 
Q 1631 397 2203 397 
Q 2534 397 2845 478 
Q 3156 559 3463 722 
L 3463 178 
Q 3153 47 2828 -22 
Q 2503 -91 2169 -91 
Q 1331 -91 842 396 
Q 353 884 353 1716 
Q 353 2575 817 3079 
Q 1281 3584 2069 3584 
Q 2775 3584 3186 3129 
Q 3597 2675 3597 1894 
z
M 3022 2063 
Q 3016 2534 2758 2815 
Q 2500 3097 2075 3097 
Q 1594 3097 1305 2825 
Q 1016 2553 972 2059 
L 3022 2063 
z
" transform="scale(0.015625)"/>
      <path id="DejaVuSans-69" d="M 603 3500 
L 1178 3500 
L 1178 0 
L 603 0 
L 603 3500 
z
M 603 4863 
L 1178 4863 
L 1178 4134 
L 603 4134 
L 603 4863 
z
" transform="scale(0.015625)"/>
      <path id="DejaVuSans-6c" d="M 603 4863 
L 1178 4863 
L 1178 0 
L 603 0 
L 603 4863 
z
" transform="scale(0.015625)"/>
      <path id="DejaVuSans-20" transform="scale(0.015625)"/>
      <path id="DejaVuSans-6e" d="M 3513 2113 
L 3513 0 
L 2938 0 
L 2938 2094 
Q 2938 2591 2744 2837 
Q 2550 3084 2163 3084 
Q 1697 3084 1428 2787 
Q 1159 2491 1159 1978 
L 1159 0 
L 581 0 
L 581 3500 
L 1159 3500 
L 1159 2956 
Q 1366 3272 1645 3428 
Q 1925 3584 2291 3584 
Q 2894 3584 3203 3211 
Q 3513 2838 3513 2113 
z
" transform="scale(0.015625)"/>
      <path id="DejaVuSans-67" d="M 2906 1791 
Q 2906 2416 2648 2759 
Q 2391 3103 1925 3103 
Q 1463 3103 1205 2759 
Q 947 2416 947 1791 
Q 947 1169 1205 825 
Q 1463 481 1925 481 
Q 2391 481 2648 825 
Q 2906 1169 2906 1791 
z
M 3481 434 
Q 3481 -459 3084 -895 
Q 2688 -1331 1869 -1331 
Q 1566 -1331 1297 -1286 
Q 1028 -1241 775 -1147 
L 775 -588 
Q 1028 -725 1275 -790 
Q 1522 -856 1778 -856 
Q 2344 -856 2625 -561 
Q 2906 -266 2906 331 
L 2906 616 
Q 2728 306 2450 153 
Q 2172 0 1784 0 
Q 1141 0 747 490 
Q 353 981 353 1791 
Q 353 2603 747 3093 
Q 1141 3584 1784 3584 
Q 2172 3584 2450 3431 
Q 2728 3278 2906 2969 
L 2906 3500 
L 3481 3500 
L 3481 434 
z
" transform="scale(0.015625)"/>
      <path id="DejaVuSans-47" d="M 3809 666 
L 3809 1919 
L 2778 1919 
L 2778 2438 
L 4434 2438 
L 4434 434 
Q 4069 175 3628 42 
Q 3188 -91 2688 -91 
Q 1594 -91 976 548 
Q 359 1188 359 2328 
Q 359 3472 976 4111 
Q 1594 4750 2688 4750 
Q 3144 4750 3555 4637 
Q 3966 4525 4313 4306 
L 4313 3634 
Q 3963 3931 3569 4081 
Q 3175 4231 2741 4231 
Q 1884 4231 1454 3753 
Q 1025 3275 1025 2328 
Q 1025 1384 1454 906 
Q 1884 428 2741 428 
Q 3075 428 3337 486 
Q 3600 544 3809 666 
z
" transform="scale(0.015625)"/>
      <path id="DejaVuSans-4e" d="M 628 4666 
L 1478 4666 
L 3547 763 
L 3547 4666 
L 4159 4666 
L 4159 0 
L 3309 0 
L 1241 3903 
L 1241 0 
L 628 0 
L 628 4666 
z
" transform="scale(0.015625)"/>
      <path id="DejaVuSans-55" d="M 556 4666 
L 1191 4666 
L 1191 1831 
Q 1191 1081 1462 751 
Q 1734 422 2344 422 
Q 2950 422 3222 751 
Q 3494 1081 3494 1831 
L 3494 4666 
L 4128 4666 
L 4128 1753 
Q 4128 841 3676 375 
Q 3225 -91 2344 -91 
Q 1459 -91 1007 375 
Q 556 841 556 1753 
L 556 4666 
z
" transform="scale(0.015625)"/>
      <path id="DejaVuSans-27" d="M 1147 4666 
L 1147 2931 
L 616 2931 
L 616 4666 
L 1147 4666 
z
" transform="scale(0.015625)"/>
     </defs>
     <use xlink:href="#DejaVuSans-52"/>
     <use xlink:href="#DejaVuSans-75" x="64.982422"/>
     <use xlink:href="#DejaVuSans-73" x="128.361328"/>
     <use xlink:href="#DejaVuSans-74" x="180.460938"/>
     <use xlink:href="#DejaVuSans-2f" x="219.669922"/>
     <use xlink:href="#DejaVuSans-43" x="253.361328"/>
     <use xlink:href="#DejaVuSans-6f" x="323.185547"/>
     <use xlink:href="#DejaVuSans-72" x="384.367188"/>
     <use xlink:href="#DejaVuSans-65" x="423.230469"/>
     <use xlink:href="#DejaVuSans-75" x="484.753906"/>
     <use xlink:href="#DejaVuSans-74" x="548.132812"/>
     <use xlink:href="#DejaVuSans-69" x="587.341797"/>
     <use xlink:href="#DejaVuSans-6c" x="615.125"/>
     <use xlink:href="#DejaVuSans-73" x="642.908203"/>
     <use xlink:href="#DejaVuSans-20" x="695.007812"/>
     <use xlink:href="#DejaVuSans-72" x="726.794922"/>
     <use xlink:href="#DejaVuSans-75" x="767.908203"/>
     <use xlink:href="#DejaVuSans-6e" x="831.287109"/>
     <use xlink:href="#DejaVuSans-6e" x="894.666016"/>
     <use xlink:href="#DejaVuSans-69" x="958.044922"/>
     <use xlink:href="#DejaVuSans-6e" x="985.828125"/>
     <use xlink:href="#DejaVuSans-67" x="1049.207031"/>
     <use xlink:href="#DejaVuSans-20" x="1112.683594"/>
     <use xlink:href="#DejaVuSans-47" x="1144.470703"/>
     <use xlink:href="#DejaVuSans-4e" x="1221.960938"/>
     <use xlink:href="#DejaVuSans-55" x="1296.765625"/>
     <use xlink:href="#DejaVuSans-27" x="1369.958984"/>
     <use xlink:href="#DejaVuSans-73" x="1397.449219"/>
     <use xlink:href="#DejaVuSans-20" x="1449.548828"/>
     <use xlink:href="#DejaVuSans-74" x="1481.335938"/>
     <use xlink:href="#DejaVuSans-65" x="1520.544922"/>
     <use xlink:href="#DejaVuSans-73" x="1582.068359"/>
     <use xlink:href="#DejaVuSans-74" x="1634.167969"/>
     <use xlink:href="#DejaVuSans-73" x="1673.376953"/>
     <use xlink:href="#DejaVuSans-75" x="1725.476562"/>
     <use xlink:href="#DejaVuSans-69" x="1788.855469"/>
     <use xlink:href="#DejaVuSans-74" x="1816.638672"/>
     <use xlink:href="#DejaVuSans-65" x="1855.847656"/>
    </g>
   </g>
   <g id="legend_1">
    <g id="patch_7">
     <path d="M 505.762812 236.769437 
L 561.9675 236.769437 
Q 563.9675 236.769437 563.9675 234.769437 
L 563.9675 162.378812 
Q 563.9675 160.378812 561.9675 160.378812 
L 505.762812 160.378812 
Q 503.762812 160.378812 503.762812 162.378812 
L 503.762812 234.769437 
Q 503.762812 236.769437 505.762812 236.769437 
z
" style="fill: #ffffff; opacity: 0.8; stroke: #cccccc; stroke-linejoin: miter"/>
    </g>
    <g id="line2d_22">
     <path d="M 507.762812 168.47725 
L 517.762812 168.47725 
L 527.762812 168.47725 
" style="fill: none; stroke: #0000ff; stroke-width: 1.5; stroke-linecap: square"/>
    </g>
    <g id="text_18">
     <!-- total -->
     <g transform="translate(535.762812 171.97725) scale(0.1 -0.1)">
      <defs>
       <path id="DejaVuSans-61" d="M 2194 1759 
Q 1497 1759 1228 1600 
Q 959 1441 959 1056 
Q 959 750 1161 570 
Q 1363 391 1709 391 
Q 2188 391 2477 730 
Q 2766 1069 2766 1631 
L 2766 1759 
L 2194 1759 
z
M 3341 1997 
L 3341 0 
L 2766 0 
L 2766 531 
Q 2569 213 2275 61 
Q 1981 -91 1556 -91 
Q 1019 -91 701 211 
Q 384 513 384 1019 
Q 384 1609 779 1909 
Q 1175 2209 1959 2209 
L 2766 2209 
L 2766 2266 
Q 2766 2663 2505 2880 
Q 2244 3097 1772 3097 
Q 1472 3097 1187 3025 
Q 903 2953 641 2809 
L 641 3341 
Q 956 3463 1253 3523 
Q 1550 3584 1831 3584 
Q 2591 3584 2966 3190 
Q 3341 2797 3341 1997 
z
" transform="scale(0.015625)"/>
      </defs>
      <use xlink:href="#DejaVuSans-74"/>
      <use xlink:href="#DejaVuSans-6f" x="39.208984"/>
      <use xlink:href="#DejaVuSans-74" x="100.390625"/>
      <use xlink:href="#DejaVuSans-61" x="139.599609"/>
      <use xlink:href="#DejaVuSans-6c" x="200.878906"/>
     </g>
    </g>
    <g id="line2d_23">
     <path d="M 507.762812 183.155375 
L 517.762812 183.155375 
L 527.762812 183.155375 
" style="fill: none; stroke-dasharray: 3,1.5; stroke-dashoffset: 0; stroke: #808080; stroke-width: 1.5"/>
    </g>
    <g id="text_19">
     <!-- fail -->
     <g transform="translate(535.762812 186.655375) scale(0.1 -0.1)">
      <defs>
       <path id="DejaVuSans-66" d="M 2375 4863 
L 2375 4384 
L 1825 4384 
Q 1516 4384 1395 4259 
Q 1275 4134 1275 3809 
L 1275 3500 
L 2222 3500 
L 2222 3053 
L 1275 3053 
L 1275 0 
L 697 0 
L 697 3053 
L 147 3053 
L 147 3500 
L 697 3500 
L 697 3744 
Q 697 4328 969 4595 
Q 1241 4863 1831 4863 
L 2375 4863 
z
" transform="scale(0.015625)"/>
      </defs>
      <use xlink:href="#DejaVuSans-66"/>
      <use xlink:href="#DejaVuSans-61" x="35.205078"/>
      <use xlink:href="#DejaVuSans-69" x="96.484375"/>
      <use xlink:href="#DejaVuSans-6c" x="124.267578"/>
     </g>
    </g>
    <g id="line2d_24">
     <path d="M 507.762812 197.8335 
L 517.762812 197.8335 
L 527.762812 197.8335 
" style="fill: none; stroke-dasharray: 6,1.5; stroke-dashoffset: 0; stroke: #008000; stroke-width: 1.5"/>
    </g>
    <g id="text_20">
     <!-- pass -->
     <g transform="translate(535.762812 201.3335) scale(0.1 -0.1)">
      <defs>
       <path id="DejaVuSans-70" d="M 1159 525 
L 1159 -1331 
L 581 -1331 
L 581 3500 
L 1159 3500 
L 1159 2969 
Q 1341 3281 1617 3432 
Q 1894 3584 2278 3584 
Q 2916 3584 3314 3078 
Q 3713 2572 3713 1747 
Q 3713 922 3314 415 
Q 2916 -91 2278 -91 
Q 1894 -91 1617 61 
Q 1341 213 1159 525 
z
M 3116 1747 
Q 3116 2381 2855 2742 
Q 2594 3103 2138 3103 
Q 1681 3103 1420 2742 
Q 1159 2381 1159 1747 
Q 1159 1113 1420 752 
Q 1681 391 2138 391 
Q 2594 391 2855 752 
Q 3116 1113 3116 1747 
z
" transform="scale(0.015625)"/>
      </defs>
      <use xlink:href="#DejaVuSans-70"/>
      <use xlink:href="#DejaVuSans-61" x="63.476562"/>
      <use xlink:href="#DejaVuSans-73" x="124.755859"/>
      <use xlink:href="#DejaVuSans-73" x="176.855469"/>
     </g>
    </g>
    <g id="line2d_25">
     <path d="M 507.762812 212.511625 
L 517.762812 212.511625 
L 527.762812 212.511625 
" style="fill: none; stroke-dasharray: 9,3; stroke-dashoffset: 0; stroke: #ffa500; stroke-width: 1.5"/>
    </g>
    <g id="text_21">
     <!-- error -->
     <g transform="translate(535.762812 216.011625) scale(0.1 -0.1)">
      <use xlink:href="#DejaVuSans-65"/>
      <use xlink:href="#DejaVuSans-72" x="61.523438"/>
      <use xlink:href="#DejaVuSans-72" x="100.886719"/>
      <use xlink:href="#DejaVuSans-6f" x="139.75"/>
      <use xlink:href="#DejaVuSans-72" x="200.931641"/>
     </g>
    </g>
    <g id="line2d_26">
     <path d="M 507.762812 227.18975 
L 517.762812 227.18975 
L 527.762812 227.18975 
" style="fill: none; stroke-dasharray: 12,4.5; stroke-dashoffset: 0; stroke: #ee82ee; stroke-width: 1.5"/>
    </g>
    <g id="text_22">
     <!-- skip -->
     <g transform="translate(535.762812 230.68975) scale(0.1 -0.1)">
      <defs>
       <path id="DejaVuSans-6b" d="M 581 4863 
L 1159 4863 
L 1159 1991 
L 2875 3500 
L 3609 3500 
L 1753 1863 
L 3688 0 
L 2938 0 
L 1159 1709 
L 1159 0 
L 581 0 
L 581 4863 
z
" transform="scale(0.015625)"/>
      </defs>
      <use xlink:href="#DejaVuSans-73"/>
      <use xlink:href="#DejaVuSans-6b" x="52.099609"/>
      <use xlink:href="#DejaVuSans-69" x="110.009766"/>
      <use xlink:href="#DejaVuSans-70" x="137.792969"/>
     </g>
    </g>
   </g>
  </g>
 </g>
 <defs>
  <clipPath id="pe5b35accad">
   <rect x="33.2875" y="22.318125" width="535.68" height="352.512"/>
  </clipPath>
 </defs>
</svg>
