<?xml version="1.0" encoding="utf-8" standalone="no"?>
<!DOCTYPE svg PUBLIC "-//W3C//DTD SVG 1.1//EN"
  "http://www.w3.org/Graphics/SVG/1.1/DTD/svg11.dtd">
<svg xmlns:xlink="http://www.w3.org/1999/xlink" width="576.1675pt" height="418.303033pt" viewBox="0 0 576.1675 418.303033" xmlns="http://www.w3.org/2000/svg" version="1.1">
 <metadata>
  <rdf:RDF xmlns:dc="http://purl.org/dc/elements/1.1/" xmlns:cc="http://creativecommons.org/ns#" xmlns:rdf="http://www.w3.org/1999/02/22-rdf-syntax-ns#">
   <cc:Work>
    <dc:type rdf:resource="http://purl.org/dc/dcmitype/StillImage"/>
    <dc:date>2025-06-09T14:02:58.566622</dc:date>
    <dc:format>image/svg+xml</dc:format>
    <dc:creator>
     <cc:Agent>
      <dc:title>Matplotlib v3.6.3, https://matplotlib.org/</dc:title>
     </cc:Agent>
    </dc:creator>
   </cc:Work>
  </rdf:RDF>
 </metadata>
 <defs>
  <style type="text/css">*{stroke-linejoin: round; stroke-linecap: butt}</style>
 </defs>
 <g id="figure_1">
  <g id="patch_1">
   <path d="M -0 418.303033 
L 576.1675 418.303033 
L 576.1675 0 
L -0 0 
z
" style="fill: #ffffff"/>
  </g>
  <g id="axes_1">
   <g id="patch_2">
    <path d="M 33.2875 374.830125 
L 568.9675 374.830125 
L 568.9675 22.318125 
L 33.2875 22.318125 
z
" style="fill: #ffffff"/>
   </g>
   <g id="matplotlib.axis_1">
    <g id="xtick_1">
     <g id="line2d_1">
      <defs>
       <path id="md83a229d58" d="M 0 0 
L 0 3.5 
" style="stroke: #000000; stroke-width: 0.8"/>
      </defs>
      <g>
       <use xlink:href="#md83a229d58" x="63.36024" y="374.830125" style="stroke: #000000; stroke-width: 0.8"/>
      </g>
     </g>
     <g id="text_1">
      <!-- 2021-07 -->
      <g transform="translate(26.13542 409.301971) rotate(-30) scale(0.1 -0.1)">
       <defs>
        <path id="DejaVuSans-32" d="M 1228 531 
L 3431 531 
L 3431 0 
L 469 0 
L 469 531 
Q 828 903 1448 1529 
Q 2069 2156 2228 2338 
Q 2531 2678 2651 2914 
Q 2772 3150 2772 3378 
Q 2772 3750 2511 3984 
Q 2250 4219 1831 4219 
Q 1534 4219 1204 4116 
Q 875 4013 500 3803 
L 500 4441 
Q 881 4594 1212 4672 
Q 1544 4750 1819 4750 
Q 2544 4750 2975 4387 
Q 3406 4025 3406 3419 
Q 3406 3131 3298 2873 
Q 3191 2616 2906 2266 
Q 2828 2175 2409 1742 
Q 1991 1309 1228 531 
z
" transform="scale(0.015625)"/>
        <path id="DejaVuSans-30" d="M 2034 4250 
Q 1547 4250 1301 3770 
Q 1056 3291 1056 2328 
Q 1056 1369 1301 889 
Q 1547 409 2034 409 
Q 2525 409 2770 889 
Q 3016 1369 3016 2328 
Q 3016 3291 2770 3770 
Q 2525 4250 2034 4250 
z
M 2034 4750 
Q 2819 4750 3233 4129 
Q 3647 3509 3647 2328 
Q 3647 1150 3233 529 
Q 2819 -91 2034 -91 
Q 1250 -91 836 529 
Q 422 1150 422 2328 
Q 422 3509 836 4129 
Q 1250 4750 2034 4750 
z
" transform="scale(0.015625)"/>
        <path id="DejaVuSans-31" d="M 794 531 
L 1825 531 
L 1825 4091 
L 703 3866 
L 703 4441 
L 1819 4666 
L 2450 4666 
L 2450 531 
L 3481 531 
L 3481 0 
L 794 0 
L 794 531 
z
" transform="scale(0.015625)"/>
        <path id="DejaVuSans-2d" d="M 313 2009 
L 1997 2009 
L 1997 1497 
L 313 1497 
L 313 2009 
z
" transform="scale(0.015625)"/>
        <path id="DejaVuSans-37" d="M 525 4666 
L 3525 4666 
L 3525 4397 
L 1831 0 
L 1172 0 
L 2766 4134 
L 525 4134 
L 525 4666 
z
" transform="scale(0.015625)"/>
       </defs>
       <use xlink:href="#DejaVuSans-32"/>
       <use xlink:href="#DejaVuSans-30" x="63.623047"/>
       <use xlink:href="#DejaVuSans-32" x="127.246094"/>
       <use xlink:href="#DejaVuSans-31" x="190.869141"/>
       <use xlink:href="#DejaVuSans-2d" x="254.492188"/>
       <use xlink:href="#DejaVuSans-30" x="290.576172"/>
       <use xlink:href="#DejaVuSans-37" x="354.199219"/>
      </g>
     </g>
    </g>
    <g id="xtick_2">
     <g id="line2d_2">
      <g>
       <use xlink:href="#md83a229d58" x="127.313598" y="374.830125" style="stroke: #000000; stroke-width: 0.8"/>
      </g>
     </g>
     <g id="text_2">
      <!-- 2022-01 -->
      <g transform="translate(90.088777 409.301971) rotate(-30) scale(0.1 -0.1)">
       <use xlink:href="#DejaVuSans-32"/>
       <use xlink:href="#DejaVuSans-30" x="63.623047"/>
       <use xlink:href="#DejaVuSans-32" x="127.246094"/>
       <use xlink:href="#DejaVuSans-32" x="190.869141"/>
       <use xlink:href="#DejaVuSans-2d" x="254.492188"/>
       <use xlink:href="#DejaVuSans-30" x="290.576172"/>
       <use xlink:href="#DejaVuSans-31" x="354.199219"/>
      </g>
     </g>
    </g>
    <g id="xtick_3">
     <g id="line2d_3">
      <g>
       <use xlink:href="#md83a229d58" x="190.224238" y="374.830125" style="stroke: #000000; stroke-width: 0.8"/>
      </g>
     </g>
     <g id="text_3">
      <!-- 2022-07 -->
      <g transform="translate(152.999417 409.301971) rotate(-30) scale(0.1 -0.1)">
       <use xlink:href="#DejaVuSans-32"/>
       <use xlink:href="#DejaVuSans-30" x="63.623047"/>
       <use xlink:href="#DejaVuSans-32" x="127.246094"/>
       <use xlink:href="#DejaVuSans-32" x="190.869141"/>
       <use xlink:href="#DejaVuSans-2d" x="254.492188"/>
       <use xlink:href="#DejaVuSans-30" x="290.576172"/>
       <use xlink:href="#DejaVuSans-37" x="354.199219"/>
      </g>
     </g>
    </g>
    <g id="xtick_4">
     <g id="line2d_4">
      <g>
       <use xlink:href="#md83a229d58" x="254.177595" y="374.830125" style="stroke: #000000; stroke-width: 0.8"/>
      </g>
     </g>
     <g id="text_4">
      <!-- 2023-01 -->
      <g transform="translate(216.952774 409.301971) rotate(-30) scale(0.1 -0.1)">
       <defs>
        <path id="DejaVuSans-33" d="M 2597 2516 
Q 3050 2419 3304 2112 
Q 3559 1806 3559 1356 
Q 3559 666 3084 287 
Q 2609 -91 1734 -91 
Q 1441 -91 1130 -33 
Q 819 25 488 141 
L 488 750 
Q 750 597 1062 519 
Q 1375 441 1716 441 
Q 2309 441 2620 675 
Q 2931 909 2931 1356 
Q 2931 1769 2642 2001 
Q 2353 2234 1838 2234 
L 1294 2234 
L 1294 2753 
L 1863 2753 
Q 2328 2753 2575 2939 
Q 2822 3125 2822 3475 
Q 2822 3834 2567 4026 
Q 2313 4219 1838 4219 
Q 1578 4219 1281 4162 
Q 984 4106 628 3988 
L 628 4550 
Q 988 4650 1302 4700 
Q 1616 4750 1894 4750 
Q 2613 4750 3031 4423 
Q 3450 4097 3450 3541 
Q 3450 3153 3228 2886 
Q 3006 2619 2597 2516 
z
" transform="scale(0.015625)"/>
       </defs>
       <use xlink:href="#DejaVuSans-32"/>
       <use xlink:href="#DejaVuSans-30" x="63.623047"/>
       <use xlink:href="#DejaVuSans-32" x="127.246094"/>
       <use xlink:href="#DejaVuSans-33" x="190.869141"/>
       <use xlink:href="#DejaVuSans-2d" x="254.492188"/>
       <use xlink:href="#DejaVuSans-30" x="290.576172"/>
       <use xlink:href="#DejaVuSans-31" x="354.199219"/>
      </g>
     </g>
    </g>
    <g id="xtick_5">
     <g id="line2d_5">
      <g>
       <use xlink:href="#md83a229d58" x="317.088235" y="374.830125" style="stroke: #000000; stroke-width: 0.8"/>
      </g>
     </g>
     <g id="text_5">
      <!-- 2023-07 -->
      <g transform="translate(279.863414 409.301971) rotate(-30) scale(0.1 -0.1)">
       <use xlink:href="#DejaVuSans-32"/>
       <use xlink:href="#DejaVuSans-30" x="63.623047"/>
       <use xlink:href="#DejaVuSans-32" x="127.246094"/>
       <use xlink:href="#DejaVuSans-33" x="190.869141"/>
       <use xlink:href="#DejaVuSans-2d" x="254.492188"/>
       <use xlink:href="#DejaVuSans-30" x="290.576172"/>
       <use xlink:href="#DejaVuSans-37" x="354.199219"/>
      </g>
     </g>
    </g>
    <g id="xtick_6">
     <g id="line2d_6">
      <g>
       <use xlink:href="#md83a229d58" x="381.041592" y="374.830125" style="stroke: #000000; stroke-width: 0.8"/>
      </g>
     </g>
     <g id="text_6">
      <!-- 2024-01 -->
      <g transform="translate(343.816771 409.301971) rotate(-30) scale(0.1 -0.1)">
       <defs>
        <path id="DejaVuSans-34" d="M 2419 4116 
L 825 1625 
L 2419 1625 
L 2419 4116 
z
M 2253 4666 
L 3047 4666 
L 3047 1625 
L 3713 1625 
L 3713 1100 
L 3047 1100 
L 3047 0 
L 2419 0 
L 2419 1100 
L 313 1100 
L 313 1709 
L 2253 4666 
z
" transform="scale(0.015625)"/>
       </defs>
       <use xlink:href="#DejaVuSans-32"/>
       <use xlink:href="#DejaVuSans-30" x="63.623047"/>
       <use xlink:href="#DejaVuSans-32" x="127.246094"/>
       <use xlink:href="#DejaVuSans-34" x="190.869141"/>
       <use xlink:href="#DejaVuSans-2d" x="254.492188"/>
       <use xlink:href="#DejaVuSans-30" x="290.576172"/>
       <use xlink:href="#DejaVuSans-31" x="354.199219"/>
      </g>
     </g>
    </g>
    <g id="xtick_7">
     <g id="line2d_7">
      <g>
       <use xlink:href="#md83a229d58" x="444.299804" y="374.830125" style="stroke: #000000; stroke-width: 0.8"/>
      </g>
     </g>
     <g id="text_7">
      <!-- 2024-07 -->
      <g transform="translate(407.074984 409.301971) rotate(-30) scale(0.1 -0.1)">
       <use xlink:href="#DejaVuSans-32"/>
       <use xlink:href="#DejaVuSans-30" x="63.623047"/>
       <use xlink:href="#DejaVuSans-32" x="127.246094"/>
       <use xlink:href="#DejaVuSans-34" x="190.869141"/>
       <use xlink:href="#DejaVuSans-2d" x="254.492188"/>
       <use xlink:href="#DejaVuSans-30" x="290.576172"/>
       <use xlink:href="#DejaVuSans-37" x="354.199219"/>
      </g>
     </g>
    </g>
    <g id="xtick_8">
     <g id="line2d_8">
      <g>
       <use xlink:href="#md83a229d58" x="508.253162" y="374.830125" style="stroke: #000000; stroke-width: 0.8"/>
      </g>
     </g>
     <g id="text_8">
      <!-- 2025-01 -->
      <g transform="translate(471.028341 409.301971) rotate(-30) scale(0.1 -0.1)">
       <defs>
        <path id="DejaVuSans-35" d="M 691 4666 
L 3169 4666 
L 3169 4134 
L 1269 4134 
L 1269 2991 
Q 1406 3038 1543 3061 
Q 1681 3084 1819 3084 
Q 2600 3084 3056 2656 
Q 3513 2228 3513 1497 
Q 3513 744 3044 326 
Q 2575 -91 1722 -91 
Q 1428 -91 1123 -41 
Q 819 9 494 109 
L 494 744 
Q 775 591 1075 516 
Q 1375 441 1709 441 
Q 2250 441 2565 725 
Q 2881 1009 2881 1497 
Q 2881 1984 2565 2268 
Q 2250 2553 1709 2553 
Q 1456 2553 1204 2497 
Q 953 2441 691 2322 
L 691 4666 
z
" transform="scale(0.015625)"/>
       </defs>
       <use xlink:href="#DejaVuSans-32"/>
       <use xlink:href="#DejaVuSans-30" x="63.623047"/>
       <use xlink:href="#DejaVuSans-32" x="127.246094"/>
       <use xlink:href="#DejaVuSans-35" x="190.869141"/>
       <use xlink:href="#DejaVuSans-2d" x="254.492188"/>
       <use xlink:href="#DejaVuSans-30" x="290.576172"/>
       <use xlink:href="#DejaVuSans-31" x="354.199219"/>
      </g>
     </g>
    </g>
   </g>
   <g id="matplotlib.axis_2">
    <g id="ytick_1">
     <g id="line2d_9">
      <defs>
       <path id="m12dda04b8c" d="M 0 0 
L -3.5 0 
" style="stroke: #000000; stroke-width: 0.8"/>
      </defs>
      <g>
       <use xlink:href="#m12dda04b8c" x="33.2875" y="374.830125" style="stroke: #000000; stroke-width: 0.8"/>
      </g>
     </g>
     <g id="text_9">
      <!-- 0 -->
      <g transform="translate(19.925 378.629344) scale(0.1 -0.1)">
       <use xlink:href="#DejaVuSans-30"/>
      </g>
     </g>
    </g>
    <g id="ytick_2">
     <g id="line2d_10">
      <g>
       <use xlink:href="#m12dda04b8c" x="33.2875" y="318.897147" style="stroke: #000000; stroke-width: 0.8"/>
      </g>
     </g>
     <g id="text_10">
      <!-- 100 -->
      <g transform="translate(7.2 322.696366) scale(0.1 -0.1)">
       <use xlink:href="#DejaVuSans-31"/>
       <use xlink:href="#DejaVuSans-30" x="63.623047"/>
       <use xlink:href="#DejaVuSans-30" x="127.246094"/>
      </g>
     </g>
    </g>
    <g id="ytick_3">
     <g id="line2d_11">
      <g>
       <use xlink:href="#m12dda04b8c" x="33.2875" y="262.964169" style="stroke: #000000; stroke-width: 0.8"/>
      </g>
     </g>
     <g id="text_11">
      <!-- 200 -->
      <g transform="translate(7.2 266.763388) scale(0.1 -0.1)">
       <use xlink:href="#DejaVuSans-32"/>
       <use xlink:href="#DejaVuSans-30" x="63.623047"/>
       <use xlink:href="#DejaVuSans-30" x="127.246094"/>
      </g>
     </g>
    </g>
    <g id="ytick_4">
     <g id="line2d_12">
      <g>
       <use xlink:href="#m12dda04b8c" x="33.2875" y="207.031191" style="stroke: #000000; stroke-width: 0.8"/>
      </g>
     </g>
     <g id="text_12">
      <!-- 300 -->
      <g transform="translate(7.2 210.83041) scale(0.1 -0.1)">
       <use xlink:href="#DejaVuSans-33"/>
       <use xlink:href="#DejaVuSans-30" x="63.623047"/>
       <use xlink:href="#DejaVuSans-30" x="127.246094"/>
      </g>
     </g>
    </g>
    <g id="ytick_5">
     <g id="line2d_13">
      <g>
       <use xlink:href="#m12dda04b8c" x="33.2875" y="151.098213" style="stroke: #000000; stroke-width: 0.8"/>
      </g>
     </g>
     <g id="text_13">
      <!-- 400 -->
      <g transform="translate(7.2 154.897432) scale(0.1 -0.1)">
       <use xlink:href="#DejaVuSans-34"/>
       <use xlink:href="#DejaVuSans-30" x="63.623047"/>
       <use xlink:href="#DejaVuSans-30" x="127.246094"/>
      </g>
     </g>
    </g>
    <g id="ytick_6">
     <g id="line2d_14">
      <g>
       <use xlink:href="#m12dda04b8c" x="33.2875" y="95.165235" style="stroke: #000000; stroke-width: 0.8"/>
      </g>
     </g>
     <g id="text_14">
      <!-- 500 -->
      <g transform="translate(7.2 98.964454) scale(0.1 -0.1)">
       <use xlink:href="#DejaVuSans-35"/>
       <use xlink:href="#DejaVuSans-30" x="63.623047"/>
       <use xlink:href="#DejaVuSans-30" x="127.246094"/>
      </g>
     </g>
    </g>
    <g id="ytick_7">
     <g id="line2d_15">
      <g>
       <use xlink:href="#m12dda04b8c" x="33.2875" y="39.232258" style="stroke: #000000; stroke-width: 0.8"/>
      </g>
     </g>
     <g id="text_15">
      <!-- 600 -->
      <g transform="translate(7.2 43.031476) scale(0.1 -0.1)">
       <defs>
        <path id="DejaVuSans-36" d="M 2113 2584 
Q 1688 2584 1439 2293 
Q 1191 2003 1191 1497 
Q 1191 994 1439 701 
Q 1688 409 2113 409 
Q 2538 409 2786 701 
Q 3034 994 3034 1497 
Q 3034 2003 2786 2293 
Q 2538 2584 2113 2584 
z
M 3366 4563 
L 3366 3988 
Q 3128 4100 2886 4159 
Q 2644 4219 2406 4219 
Q 1781 4219 1451 3797 
Q 1122 3375 1075 2522 
Q 1259 2794 1537 2939 
Q 1816 3084 2150 3084 
Q 2853 3084 3261 2657 
Q 3669 2231 3669 1497 
Q 3669 778 3244 343 
Q 2819 -91 2113 -91 
Q 1303 -91 875 529 
Q 447 1150 447 2328 
Q 447 3434 972 4092 
Q 1497 4750 2381 4750 
Q 2619 4750 2861 4703 
Q 3103 4656 3366 4563 
z
" transform="scale(0.015625)"/>
       </defs>
       <use xlink:href="#DejaVuSans-36"/>
       <use xlink:href="#DejaVuSans-30" x="63.623047"/>
       <use xlink:href="#DejaVuSans-30" x="127.246094"/>
      </g>
     </g>
    </g>
   </g>
   <g id="line2d_16">
    <path d="M 38.539265 25.808343 
L 48.874376 25.808343 
L 48.991372 29.164321 
L 50.438352 29.164321 
L 50.96803 38.672928 
L 136.351053 38.672928 
L 136.776157 33.07963 
L 150.984414 33.07963 
L 151.819047 33.63896 
L 158.482355 33.63896 
L 158.715378 44.825555 
L 165.472732 44.825555 
L 166.873124 43.147566 
L 282.639534 43.147566 
L 282.96925 39.232258 
L 292.042508 39.232258 
L 292.366345 38.113598 
L 337.907029 38.113598 
L 338.13382 36.994938 
L 411.725912 36.994938 
L 411.936737 32.5203 
L 467.728764 32.5203 
L 467.824721 31.96097 
L 510.439937 31.96097 
L 510.831567 31.401641 
L 514.707983 31.401641 
L 514.836605 29.164321 
L 516.392266 29.164321 
L 516.796472 29.723651 
L 543.687114 29.723651 
L 543.899519 29.164321 
L 563.715735 29.164321 
L 563.715735 29.164321 
" clip-path="url(#p0e0fc24a48)" style="fill: none; stroke: #0000ff; stroke-width: 1.5; stroke-linecap: square"/>
   </g>
   <g id="line2d_17">
    <path d="M 38.539265 168.996766 
L 39.960209 167.878107 
L 41.376567 168.996766 
L 44.730643 168.996766 
L 48.428912 170.115426 
L 48.703269 169.556096 
L 48.874376 169.556096 
L 48.991372 172.912075 
L 49.143379 172.352745 
L 49.261397 172.352745 
L 49.660771 172.912075 
L 50.438352 172.912075 
L 50.871426 185.21733 
L 50.96803 182.420681 
L 51.192818 185.77666 
L 51.264304 185.21733 
L 51.516197 185.21733 
L 51.919132 185.77666 
L 52.8889 185.77666 
L 52.917848 186.335989 
L 53.443524 186.335989 
L 53.666034 185.77666 
L 54.316582 189.691968 
L 54.391725 189.132638 
L 54.711166 189.691968 
L 55.329089 191.369957 
L 55.748211 190.251298 
L 56.410687 190.251298 
L 56.780912 191.369957 
L 57.031189 191.369957 
L 57.785196 191.929287 
L 58.12354 191.929287 
L 58.491456 193.047947 
L 58.820447 192.488617 
L 59.185777 193.607277 
L 59.565371 195.844596 
L 61.033133 196.963255 
L 61.656398 196.963255 
L 61.923378 197.522585 
L 62.348756 197.522585 
L 62.661921 198.081915 
L 62.980924 197.522585 
L 63.336594 197.522585 
L 63.544876 198.081915 
L 67.148126 198.081915 
L 67.51179 198.641245 
L 67.860276 198.641245 
L 67.995588 198.081915 
L 68.85626 198.641245 
L 69.216983 198.081915 
L 70.211532 198.081915 
L 70.53084 198.641245 
L 70.923412 198.081915 
L 72.733593 198.081915 
L 73.104474 198.641245 
L 73.30805 200.319234 
L 73.80353 199.200574 
L 74.955656 199.200574 
L 75.527276 199.759904 
L 75.872906 199.759904 
L 76.208587 200.319234 
L 76.583262 200.319234 
L 76.927274 199.759904 
L 77.255996 201.437893 
L 77.547836 201.437893 
L 78.341283 202.556553 
L 82.507118 202.556553 
L 82.838273 203.675213 
L 83.54405 203.675213 
L 83.857308 204.234542 
L 84.907967 204.234542 
L 85.913683 206.471861 
L 86.982658 206.471861 
L 87.365531 207.031191 
L 93.823944 207.031191 
L 94.599309 208.149851 
L 94.774954 207.031191 
L 96.01866 207.031191 
L 96.356393 207.590521 
L 96.729012 207.031191 
L 97.615567 207.031191 
L 98.105258 207.590521 
L 98.46879 207.031191 
L 103.959004 207.031191 
L 104.259031 212.065159 
L 104.467044 207.031191 
L 106.456704 207.031191 
L 106.817894 207.590521 
L 107.024056 212.624489 
L 107.511056 207.590521 
L 107.855012 207.590521 
L 108.083335 207.031191 
L 111.685781 207.031191 
L 111.868212 207.590521 
L 112.195598 207.590521 
L 112.734766 209.26851 
L 118.169023 209.26851 
L 119.35503 209.82784 
L 126.653841 209.82784 
L 126.95777 212.065159 
L 127.346134 212.065159 
L 127.690517 209.82784 
L 128.044832 209.82784 
L 128.288973 212.065159 
L 128.553575 209.82784 
L 128.993303 212.065159 
L 129.382813 213.183819 
L 133.899342 213.183819 
L 134.289175 213.743149 
L 136.351053 213.743149 
L 136.776157 207.590521 
L 137.079825 208.149851 
L 137.423065 209.82784 
L 137.846818 209.82784 
L 138.414998 210.9465 
L 138.80712 210.9465 
L 139.096156 211.505829 
L 139.484399 209.26851 
L 142.327052 214.861808 
L 142.617308 213.183819 
L 143.10399 212.624489 
L 144.649742 212.624489 
L 145.046257 212.065159 
L 145.395913 210.9465 
L 146.795706 210.9465 
L 147.051638 209.82784 
L 147.501801 210.9465 
L 148.518419 210.9465 
L 148.864402 212.065159 
L 149.198132 212.065159 
L 149.593379 212.624489 
L 149.752872 212.624489 
L 149.931124 214.302478 
L 150.17276 214.302478 
L 150.984414 214.861808 
L 151.655056 213.743149 
L 151.819047 213.743149 
L 152.344774 214.302478 
L 152.682085 215.421138 
L 154.425246 215.421138 
L 154.761808 215.980468 
L 155.123227 215.980468 
L 155.457838 216.539798 
L 155.771293 216.539798 
L 156.499655 217.099127 
L 156.875822 217.099127 
L 157.250935 218.777117 
L 157.472721 218.777117 
L 157.862586 218.217787 
L 158.482355 218.217787 
L 158.715378 219.895776 
L 159.2902 219.895776 
L 159.630765 221.014436 
L 160.085594 221.014436 
L 160.319876 221.573766 
L 160.835076 221.573766 
L 160.886343 222.133095 
L 161.147296 222.133095 
L 161.697945 222.692425 
L 162.950216 226.048404 
L 164.511127 226.048404 
L 164.829349 227.167063 
L 164.949173 226.607734 
L 165.087932 226.607734 
L 165.472732 226.048404 
L 166.873124 224.370414 
L 170.376732 224.370414 
L 170.782712 223.811085 
L 172.478444 223.811085 
L 172.719786 223.251755 
L 175.895352 223.251755 
L 176.304209 223.811085 
L 176.875752 223.811085 
L 177.338836 224.370414 
L 177.571847 223.811085 
L 179.804156 223.811085 
L 180.508658 224.929744 
L 182.007996 224.929744 
L 182.260428 232.760361 
L 182.544999 232.760361 
L 184.970143 234.43835 
L 185.119168 233.879021 
L 185.274639 234.43835 
L 185.678185 233.879021 
L 186.016686 233.879021 
L 186.37296 234.43835 
L 186.640503 234.43835 
L 187.070032 235.55701 
L 187.246683 235.55701 
L 187.410167 234.99768 
L 187.776594 236.11634 
L 190.21276 236.11634 
L 190.449761 236.67567 
L 191.760287 236.67567 
L 192.282076 236.11634 
L 192.673011 238.912989 
L 192.951323 237.234999 
L 193.314303 237.234999 
L 193.605246 240.590978 
L 193.808813 240.031648 
L 194.025519 240.590978 
L 194.134667 240.031648 
L 194.268257 241.709638 
L 194.614594 241.709638 
L 195.053413 242.268967 
L 195.912866 241.709638 
L 196.108565 242.828297 
L 196.428392 242.828297 
L 196.654882 241.150308 
L 197.423697 242.828297 
L 198.188164 243.387627 
L 198.859542 243.387627 
L 199.211741 245.065616 
L 199.535474 245.065616 
L 199.727234 244.506286 
L 200.0638 244.506286 
L 201.365524 246.743606 
L 201.58262 245.624946 
L 202.000508 245.065616 
L 202.309115 246.184276 
L 202.344959 246.743606 
L 203.808095 246.743606 
L 203.920879 247.302935 
L 204.44583 247.862265 
L 205.845224 247.862265 
L 206.485771 250.658914 
L 210.085332 250.658914 
L 210.369569 251.218244 
L 210.743403 250.099584 
L 210.961042 251.218244 
L 214.88529 251.218244 
L 215.213166 251.777574 
L 216.00385 255.133552 
L 216.300489 253.455563 
L 216.654004 254.014893 
L 217.045445 253.455563 
L 217.320905 253.455563 
L 217.738289 251.777574 
L 217.962095 251.777574 
L 218.005534 252.336903 
L 218.709807 252.336903 
L 219.106209 248.980925 
L 219.455692 248.980925 
L 220.507007 249.540254 
L 220.573528 248.980925 
L 221.144344 248.421595 
L 221.229125 248.980925 
L 223.979579 248.980925 
L 224.170961 249.540254 
L 224.684254 250.099584 
L 225.369676 251.218244 
L 225.547952 252.336903 
L 225.788859 252.336903 
L 226.058735 253.455563 
L 226.383667 252.896233 
L 226.7475 252.896233 
L 227.021648 252.336903 
L 227.408129 252.896233 
L 227.752998 252.896233 
L 228.083534 253.455563 
L 228.351105 253.455563 
L 228.854771 252.896233 
L 229.116613 253.455563 
L 229.387619 252.896233 
L 230.174606 248.421595 
L 230.93163 249.540254 
L 231.04231 253.455563 
L 231.211056 253.455563 
L 231.51982 254.014893 
L 231.878532 253.455563 
L 232.206035 253.455563 
L 232.609472 252.896233 
L 232.958912 254.014893 
L 234.220077 254.014893 
L 234.721286 254.574222 
L 235.007719 254.574222 
L 235.029945 255.133552 
L 236.459012 255.133552 
L 236.865861 256.252212 
L 238.865389 256.252212 
L 239.263987 257.370871 
L 240.621322 257.370871 
L 243.094016 256.811542 
L 243.323402 257.370871 
L 243.942061 257.370871 
L 244.462627 257.930201 
L 244.811338 259.048861 
L 244.91561 258.489531 
L 245.294633 259.60819 
L 246.137802 259.60819 
L 249.55278 260.72685 
L 257.994023 260.72685 
L 258.337862 260.16752 
L 259.988212 260.16752 
L 260.330298 260.72685 
L 261.463915 260.72685 
L 261.855172 261.28618 
L 262.136509 260.72685 
L 262.463018 261.28618 
L 262.824292 260.72685 
L 263.120807 261.84551 
L 263.57494 261.28618 
L 263.906301 261.84551 
L 271.109099 261.84551 
L 271.481167 260.72685 
L 271.875332 261.28618 
L 272.231815 260.72685 
L 272.631113 260.72685 
L 272.951339 260.16752 
L 274.287791 260.16752 
L 274.627141 260.72685 
L 275.010453 260.16752 
L 275.359671 259.048861 
L 276.052125 259.048861 
L 276.442806 258.489531 
L 276.735157 259.60819 
L 277.111235 259.60819 
L 277.401788 259.048861 
L 278.318833 260.16752 
L 278.85531 259.60819 
L 279.174043 260.16752 
L 279.852147 260.16752 
L 280.234867 259.60819 
L 280.610676 261.28618 
L 280.972389 260.72685 
L 281.666818 260.72685 
L 281.931528 260.16752 
L 282.270074 260.72685 
L 282.639534 260.72685 
L 282.96925 255.692882 
L 283.100241 256.252212 
L 283.359344 256.252212 
L 283.53984 256.811542 
L 283.697149 256.811542 
L 283.90426 257.370871 
L 284.044617 256.252212 
L 284.373278 256.811542 
L 284.507858 256.811542 
L 284.737545 257.370871 
L 285.332892 257.370871 
L 285.622415 258.489531 
L 285.909352 257.370871 
L 286.096164 257.930201 
L 287.149422 257.930201 
L 287.462973 257.370871 
L 287.760337 257.370871 
L 288.134005 257.930201 
L 288.479534 257.930201 
L 288.889131 257.370871 
L 289.284398 257.930201 
L 289.591087 257.930201 
L 290.073718 259.048861 
L 292.042508 259.048861 
L 292.366345 257.370871 
L 293.892213 257.370871 
L 294.24265 257.930201 
L 294.518311 258.489531 
L 295.05803 258.489531 
L 295.226413 259.60819 
L 295.303656 259.048861 
L 295.48628 259.60819 
L 295.999963 259.60819 
L 296.251781 260.72685 
L 296.937424 260.72685 
L 297.039986 261.28618 
L 297.257472 261.84551 
L 298.315915 261.84551 
L 298.569748 263.523499 
L 298.803973 264.082829 
L 298.939144 264.082829 
L 299.395112 264.642159 
L 299.555595 264.082829 
L 299.633368 264.642159 
L 300.13471 264.642159 
L 300.723491 265.201488 
L 302.044412 265.201488 
L 302.385085 264.642159 
L 302.71151 265.201488 
L 303.079474 265.201488 
L 303.255823 265.760818 
L 303.29824 265.201488 
L 303.507548 265.760818 
L 303.671253 265.760818 
L 303.832918 266.879478 
L 304.455431 267.998137 
L 304.908732 267.438807 
L 305.253372 267.998137 
L 305.930901 267.998137 
L 306.298628 269.116797 
L 306.433248 268.557467 
L 306.651945 270.235456 
L 306.961844 269.676127 
L 307.162829 270.235456 
L 307.321746 269.676127 
L 307.497359 270.794786 
L 307.855299 270.794786 
L 307.961312 271.354116 
L 308.381256 270.794786 
L 308.706047 271.913446 
L 309.438822 271.913446 
L 309.702607 273.032105 
L 310.076762 271.913446 
L 310.330953 271.913446 
L 310.424146 272.472775 
L 311.108027 272.472775 
L 311.427922 274.710095 
L 311.887981 272.472775 
L 311.95931 273.032105 
L 312.565072 272.472775 
L 312.622434 273.591435 
L 312.83078 273.591435 
L 313.250611 274.150765 
L 313.591325 273.591435 
L 313.848725 273.591435 
L 314.229627 274.710095 
L 314.644019 274.710095 
L 315.045876 274.150765 
L 315.346212 274.710095 
L 315.5287 274.150765 
L 315.710202 275.269424 
L 317.318477 275.269424 
L 317.812779 275.828754 
L 318.822023 275.828754 
L 319.180119 274.710095 
L 319.855029 274.710095 
L 320.192818 275.269424 
L 323.265762 275.269424 
L 323.680476 274.710095 
L 324.069218 275.828754 
L 328.785187 275.828754 
L 329.819742 276.388084 
L 330.43421 276.388084 
L 330.933242 276.947414 
L 331.327612 276.947414 
L 331.559355 277.506743 
L 336.808699 277.506743 
L 337.235059 276.947414 
L 337.573085 277.506743 
L 337.907029 276.947414 
L 338.13382 273.591435 
L 340.207613 273.591435 
L 340.392643 274.150765 
L 340.751307 274.150765 
L 340.869916 273.591435 
L 343.016583 273.591435 
L 343.314385 274.150765 
L 343.426932 273.591435 
L 343.937031 273.591435 
L 344.172821 274.710095 
L 344.351966 273.591435 
L 344.470044 273.591435 
L 344.691951 274.710095 
L 344.849453 274.710095 
L 345.052594 273.591435 
L 345.230258 274.710095 
L 345.344113 273.591435 
L 345.389969 274.710095 
L 346.611868 274.710095 
L 346.805828 275.269424 
L 346.834274 275.828754 
L 347.456493 275.828754 
L 347.493165 276.388084 
L 347.851676 276.388084 
L 348.037313 276.947414 
L 348.195588 276.388084 
L 348.390031 276.947414 
L 348.521526 276.388084 
L 348.709613 276.947414 
L 348.829928 276.947414 
L 348.960356 276.388084 
L 348.978242 276.947414 
L 349.369164 276.947414 
L 349.614102 277.506743 
L 349.768587 277.506743 
L 349.999932 278.625403 
L 350.256629 279.184733 
L 350.433915 278.625403 
L 352.408558 278.625403 
L 352.690896 279.184733 
L 354.204241 279.184733 
L 354.445647 279.744063 
L 354.764742 279.744063 
L 355.001526 280.303392 
L 355.132034 279.744063 
L 355.758164 279.744063 
L 355.969463 280.862722 
L 356.544587 280.862722 
L 356.599817 281.422052 
L 356.680068 280.862722 
L 356.804221 280.862722 
L 357.026961 281.981382 
L 357.258925 282.540711 
L 357.323757 281.981382 
L 357.586702 284.218701 
L 358.651625 284.218701 
L 358.758685 284.778031 
L 358.991981 284.778031 
L 359.128645 285.89669 
L 359.289035 284.778031 
L 360.702762 284.778031 
L 360.784567 285.33736 
L 361.055734 284.778031 
L 361.185566 285.33736 
L 361.425613 284.778031 
L 361.737422 284.778031 
L 361.928636 285.89669 
L 362.277194 285.89669 
L 362.420169 285.33736 
L 362.542668 286.45602 
L 362.904446 284.778031 
L 363.283561 285.89669 
L 363.558196 284.778031 
L 364.201093 284.778031 
L 364.701428 286.45602 
L 364.857116 285.89669 
L 365.02953 286.45602 
L 365.494759 285.33736 
L 365.643728 286.45602 
L 366.747814 286.45602 
L 366.92578 287.01535 
L 367.235912 287.01535 
L 367.401238 286.45602 
L 367.609895 287.01535 
L 367.741831 286.45602 
L 368.143748 287.574679 
L 368.692479 287.574679 
L 369.079479 288.693339 
L 370.75566 288.693339 
L 370.938924 289.252669 
L 371.163092 288.693339 
L 371.274006 289.252669 
L 371.502555 288.693339 
L 371.806094 288.693339 
L 372.001877 289.252669 
L 372.130607 288.693339 
L 372.540441 288.693339 
L 372.667205 289.252669 
L 373.241802 289.252669 
L 373.280533 290.371328 
L 375.738053 290.371328 
L 375.980493 290.930658 
L 376.139624 290.371328 
L 376.274441 290.930658 
L 376.376846 290.371328 
L 376.499683 291.489988 
L 377.065647 291.489988 
L 377.216857 292.049318 
L 377.332622 292.049318 
L 377.38673 291.489988 
L 377.442164 292.049318 
L 377.74703 291.489988 
L 377.825822 292.049318 
L 378.123962 292.608647 
L 378.240736 293.167977 
L 378.463666 293.167977 
L 378.514924 293.727307 
L 378.825314 295.405296 
L 378.965019 294.845967 
L 379.153573 294.845967 
L 379.187542 295.964626 
L 380.5123 295.964626 
L 380.676842 296.523956 
L 380.936371 295.964626 
L 381.385922 296.523956 
L 381.506072 295.964626 
L 381.702765 296.523956 
L 381.944496 296.523956 
L 382.088349 297.083286 
L 382.42341 297.083286 
L 382.431625 297.642615 
L 382.534911 297.083286 
L 382.633921 298.201945 
L 382.78026 298.201945 
L 382.982829 298.761275 
L 384.372428 298.761275 
L 384.4091 298.201945 
L 384.49658 299.320605 
L 384.863044 299.320605 
L 385.050198 298.761275 
L 385.194264 299.320605 
L 385.411163 298.761275 
L 385.573673 299.320605 
L 385.756258 299.320605 
L 385.913148 298.761275 
L 386.068711 300.439264 
L 387.930964 300.439264 
L 388.181646 300.998594 
L 388.30415 300.998594 
L 388.490982 301.557924 
L 388.785767 300.998594 
L 395.820536 300.998594 
L 395.939974 301.557924 
L 396.153598 300.998594 
L 396.215167 301.557924 
L 396.853494 301.557924 
L 397.030249 302.117254 
L 397.926142 302.117254 
L 398.045845 302.676583 
L 398.214575 302.117254 
L 399.586948 302.117254 
L 399.777304 302.676583 
L 400.017024 302.117254 
L 400.149388 302.117254 
L 400.360325 303.235913 
L 400.476363 302.676583 
L 400.990686 302.676583 
L 401.214786 303.235913 
L 402.269633 303.235913 
L 402.441464 302.117254 
L 402.78964 303.235913 
L 404.663008 303.235913 
L 404.855082 303.795243 
L 405.026676 303.795243 
L 405.211477 304.354573 
L 405.349605 304.354573 
L 405.520587 304.913903 
L 405.920637 304.913903 
L 405.991508 305.473232 
L 406.325008 305.473232 
L 406.535668 304.354573 
L 406.700161 304.913903 
L 406.951954 304.913903 
L 407.054625 305.473232 
L 407.439827 305.473232 
L 407.784355 306.032562 
L 408.160043 307.710552 
L 408.283045 307.151222 
L 408.397575 307.710552 
L 408.660455 308.269881 
L 408.78511 307.710552 
L 408.996518 308.269881 
L 409.119709 308.269881 
L 409.340997 307.710552 
L 409.521727 307.710552 
L 409.875796 309.388541 
L 410.08965 308.829211 
L 410.217037 308.829211 
L 410.384266 309.388541 
L 410.42824 309.947871 
L 410.570435 309.947871 
L 410.639828 309.388541 
L 410.869516 309.947871 
L 411.028563 309.388541 
L 411.159683 309.947871 
L 411.725912 309.947871 
L 411.936737 302.117254 
L 412.499796 303.235913 
L 412.871566 303.235913 
L 413.001604 303.795243 
L 413.20415 303.235913 
L 413.33416 303.235913 
L 413.487997 302.676583 
L 413.664881 303.235913 
L 413.907852 303.235913 
L 414.027402 302.676583 
L 414.179292 303.235913 
L 414.386448 302.676583 
L 414.46787 303.235913 
L 414.767551 303.795243 
L 414.898454 303.795243 
L 415.214857 302.676583 
L 415.5015 303.235913 
L 416.774976 303.235913 
L 417.077142 303.795243 
L 417.394407 303.235913 
L 417.965086 303.235913 
L 418.402597 304.354573 
L 418.552665 302.676583 
L 418.805246 303.235913 
L 419.127233 302.676583 
L 419.274525 304.354573 
L 419.452359 303.235913 
L 419.620424 303.235913 
L 419.732352 303.795243 
L 419.815882 306.032562 
L 419.830875 305.473232 
L 420.201418 306.032562 
L 421.115984 306.032562 
L 421.548612 307.151222 
L 421.727076 306.591892 
L 422.367769 306.591892 
L 422.542335 306.032562 
L 422.72891 306.591892 
L 422.93356 306.591892 
L 423.053786 306.032562 
L 423.419546 306.591892 
L 423.634417 306.591892 
L 423.775285 307.151222 
L 423.94757 306.591892 
L 424.132661 306.591892 
L 424.306117 306.032562 
L 424.413563 306.591892 
L 425.379791 306.591892 
L 425.621523 308.269881 
L 425.913789 307.710552 
L 426.155513 307.710552 
L 426.351208 307.151222 
L 426.440185 307.710552 
L 426.743313 307.151222 
L 426.856636 307.710552 
L 427.12368 307.710552 
L 427.228153 308.269881 
L 427.547284 307.710552 
L 428.2049 307.710552 
L 428.448708 308.269881 
L 428.854849 308.269881 
L 428.957254 308.829211 
L 429.130332 308.269881 
L 429.534933 309.388541 
L 429.65532 309.388541 
L 429.833869 309.947871 
L 429.998459 309.947871 
L 430.308149 310.5072 
L 432.827294 310.5072 
L 433.095669 311.06653 
L 433.347317 311.06653 
L 433.398552 309.947871 
L 433.462004 310.5072 
L 433.872566 310.5072 
L 433.966278 311.06653 
L 434.506496 311.06653 
L 434.764492 311.62586 
L 435.111003 311.62586 
L 435.122528 311.06653 
L 435.237718 311.62586 
L 435.343651 311.06653 
L 436.852506 311.06653 
L 437.135424 310.5072 
L 437.924635 311.06653 
L 439.56126 311.06653 
L 439.632078 311.62586 
L 441.34946 311.62586 
L 441.504158 312.18519 
L 443.092388 314.981839 
L 443.242914 314.981839 
L 443.399958 315.541168 
L 443.469894 314.981839 
L 443.808106 315.541168 
L 444.122325 316.100498 
L 444.498114 316.100498 
L 444.62431 316.659828 
L 445.099217 316.659828 
L 445.787065 316.100498 
L 445.821718 317.778488 
L 446.375308 317.778488 
L 446.546885 317.219158 
L 446.671509 317.778488 
L 447.943339 317.778488 
L 448.238582 317.219158 
L 449.602527 317.219158 
L 450.444739 317.778488 
L 452.146059 317.778488 
L 452.983817 318.337817 
L 453.095861 318.897147 
L 455.615396 318.897147 
L 455.852096 318.337817 
L 457.131159 318.337817 
L 458.065099 317.778488 
L 458.745674 317.778488 
L 459.083415 318.337817 
L 459.383264 319.456477 
L 459.56179 319.456477 
L 459.568757 318.897147 
L 461.571266 318.897147 
L 461.786186 319.456477 
L 466.845073 319.456477 
L 467.482941 320.015807 
L 467.728764 320.015807 
L 467.824721 320.575136 
L 468.137363 320.575136 
L 468.26866 320.015807 
L 468.472191 320.575136 
L 469.614961 320.575136 
L 470.124348 321.134466 
L 470.478188 322.253126 
L 473.577164 322.253126 
L 474.122611 321.693796 
L 474.280427 322.253126 
L 474.440073 321.693796 
L 474.619539 322.253126 
L 475.469487 322.253126 
L 475.861355 321.693796 
L 476.060208 322.253126 
L 476.60852 321.134466 
L 476.82222 322.253126 
L 478.149107 322.253126 
L 478.164804 322.812456 
L 480.26763 322.812456 
L 481.290049 323.371785 
L 481.596874 322.812456 
L 482.166938 322.812456 
L 482.30513 323.371785 
L 482.792218 321.693796 
L 483.113811 322.253126 
L 483.546153 321.693796 
L 483.866391 321.693796 
L 484.011828 322.253126 
L 484.894731 322.253126 
L 485.943768 321.693796 
L 486.101669 322.253126 
L 487.145517 322.253126 
L 487.484424 321.693796 
L 492.797256 322.253126 
L 493.195062 321.693796 
L 493.538861 322.253126 
L 493.84693 321.693796 
L 493.881397 322.253126 
L 494.149599 322.812456 
L 494.304925 322.812456 
L 494.447007 323.371785 
L 496.917126 323.371785 
L 496.969761 323.931115 
L 497.276799 323.931115 
L 498.096636 323.371785 
L 498.122716 323.931115 
L 498.437704 323.371785 
L 498.514262 324.490445 
L 498.717005 324.490445 
L 499.128323 325.049775 
L 499.817615 325.049775 
L 500.236159 324.490445 
L 500.706753 325.609104 
L 500.726055 326.168434 
L 501.050046 326.727764 
L 501.183206 326.727764 
L 501.519434 326.168434 
L 501.992213 326.168434 
L 502.090495 326.727764 
L 503.166944 326.727764 
L 503.315238 326.168434 
L 503.496784 327.287094 
L 503.646417 327.287094 
L 503.930409 326.727764 
L 504.188687 327.287094 
L 504.764651 327.287094 
L 505.018311 328.405753 
L 506.827402 328.405753 
L 507.043686 328.965083 
L 507.176121 328.965083 
L 507.394042 328.405753 
L 507.450245 328.965083 
L 508.027497 328.965083 
L 508.1436 329.524413 
L 508.458938 329.524413 
L 508.549005 330.643072 
L 509.040997 330.643072 
L 509.22585 332.321062 
L 509.610751 332.321062 
L 509.83586 331.761732 
L 509.957475 332.321062 
L 510.121184 332.321062 
L 510.133687 333.999051 
L 510.439937 333.999051 
L 510.831567 333.439721 
L 511.009236 333.439721 
L 511.161009 333.999051 
L 511.538447 333.999051 
L 511.929563 333.439721 
L 511.969791 334.558381 
L 512.316092 334.558381 
L 512.379927 335.117711 
L 512.62122 335.67704 
L 513.258642 335.67704 
L 513.35233 336.7957 
L 513.625878 336.7957 
L 513.786252 337.35503 
L 513.940142 337.35503 
L 514.492002 337.91436 
L 514.707983 337.35503 
L 514.836605 329.524413 
L 514.976101 328.965083 
L 515.070577 331.202402 
L 515.751095 331.202402 
L 516.030803 330.643072 
L 516.234599 331.761732 
L 516.392266 331.761732 
L 516.796472 332.321062 
L 517.241047 332.321062 
L 517.443903 331.761732 
L 517.602732 332.321062 
L 518.67468 332.321062 
L 518.806669 332.880392 
L 519.295378 331.761732 
L 519.692774 332.321062 
L 519.920498 332.321062 
L 520.007963 332.880392 
L 520.209012 331.761732 
L 520.404445 332.880392 
L 521.215335 332.880392 
L 521.34102 332.321062 
L 521.629867 332.321062 
L 521.675305 332.880392 
L 522.002361 333.439721 
L 522.015126 332.880392 
L 522.630193 332.880392 
L 522.946765 333.439721 
L 524.589553 333.439721 
L 524.712732 333.999051 
L 525.038521 333.439721 
L 525.049398 333.999051 
L 525.517205 334.558381 
L 525.804645 334.558381 
L 526.135418 335.117711 
L 526.300575 335.67704 
L 526.426848 335.67704 
L 526.824195 334.558381 
L 526.902688 335.67704 
L 527.169881 335.117711 
L 527.394777 335.67704 
L 528.398478 335.67704 
L 528.510936 336.23637 
L 528.651095 335.67704 
L 529.1368 336.23637 
L 529.371407 335.67704 
L 529.609173 336.23637 
L 529.752027 335.67704 
L 530.084724 336.7957 
L 530.314592 336.23637 
L 531.100826 336.23637 
L 531.413622 336.7957 
L 531.87035 336.7957 
L 532.233732 335.67704 
L 532.330586 336.23637 
L 532.718853 336.23637 
L 532.817388 337.35503 
L 533.30708 336.23637 
L 533.47809 336.7957 
L 533.872645 336.23637 
L 534.160652 336.23637 
L 534.308201 336.7957 
L 534.514102 336.7957 
L 534.541534 333.439721 
L 534.660883 333.439721 
L 535.122752 333.999051 
L 535.182588 332.880392 
L 535.348417 333.999051 
L 535.500448 333.439721 
L 535.591698 333.999051 
L 535.953692 333.439721 
L 536.388033 333.999051 
L 536.606819 333.999051 
L 536.789833 333.439721 
L 537.334042 333.439721 
L 537.771738 334.558381 
L 538.001011 333.999051 
L 538.464626 333.999051 
L 538.681429 333.439721 
L 538.713346 332.880392 
L 538.983431 333.999051 
L 539.126664 333.439721 
L 539.29514 333.999051 
L 539.545481 333.439721 
L 539.828821 333.439721 
L 540.010842 332.880392 
L 540.356041 332.880392 
L 540.715437 333.999051 
L 540.959305 333.439721 
L 541.256286 334.558381 
L 541.410948 334.558381 
L 541.508027 333.999051 
L 541.810069 333.999051 
L 541.835421 334.558381 
L 542.836704 334.558381 
L 543.000739 335.117711 
L 543.14124 335.117711 
L 543.357829 335.67704 
L 543.544641 335.117711 
L 543.687114 335.67704 
L 543.899519 335.117711 
L 544.01909 335.67704 
L 544.173418 335.117711 
L 544.22314 335.67704 
L 544.393986 336.7957 
L 544.602714 336.23637 
L 544.668403 335.67704 
L 544.888532 336.23637 
L 545.068425 335.67704 
L 545.285252 336.23637 
L 545.640576 336.23637 
L 545.739514 336.7957 
L 545.984983 336.23637 
L 546.62965 337.91436 
L 546.803066 337.91436 
L 546.98244 336.7957 
L 547.067241 337.35503 
L 547.320845 337.35503 
L 547.436227 336.7957 
L 547.643596 336.7957 
L 547.832392 337.35503 
L 548.075105 337.35503 
L 548.482594 339.033019 
L 548.699388 338.473689 
L 551.54919 338.473689 
L 551.681807 339.033019 
L 551.849981 339.033019 
L 551.985225 338.473689 
L 552.137026 339.033019 
L 552.256573 339.033019 
L 552.932601 336.7957 
L 553.045691 337.91436 
L 553.629002 336.7957 
L 554.261797 336.7957 
L 554.947062 337.91436 
L 556.158477 337.35503 
L 556.466123 337.91436 
L 556.805047 337.35503 
L 557.047105 338.473689 
L 557.144187 337.35503 
L 557.463274 338.473689 
L 557.810931 337.35503 
L 557.926017 338.473689 
L 558.148954 338.473689 
L 558.271505 337.91436 
L 558.493638 338.473689 
L 558.626947 338.473689 
L 558.751119 337.91436 
L 558.901992 339.592349 
L 559.297669 338.473689 
L 559.66775 338.473689 
L 559.893881 339.033019 
L 560.320643 339.033019 
L 560.667705 338.473689 
L 560.8706 338.473689 
L 561.023983 339.592349 
L 561.215309 339.033019 
L 561.322127 339.592349 
L 561.580047 340.151679 
L 561.738192 340.151679 
L 562.014685 339.033019 
L 562.279078 340.711008 
L 562.611392 340.711008 
L 562.636615 341.829668 
L 562.659823 341.270338 
L 562.833621 340.711008 
L 563.016318 341.829668 
L 563.092522 340.711008 
L 563.367925 340.711008 
L 563.40545 341.270338 
L 563.715735 341.829668 
L 563.715735 341.829668 
" clip-path="url(#p0e0fc24a48)" style="fill: none; stroke-dasharray: 3,1.5; stroke-dashoffset: 0; stroke: #808080; stroke-width: 1.5"/>
   </g>
   <g id="line2d_18">
    <path d="M 38.539265 297.083286 
L 39.960209 296.523956 
L 41.376567 295.405296 
L 44.730643 295.405296 
L 48.428912 294.845967 
L 48.703269 295.405296 
L 48.874376 295.405296 
L 48.991372 294.286637 
L 49.143379 294.845967 
L 49.261397 294.845967 
L 49.660771 294.286637 
L 50.438352 294.286637 
L 50.871426 291.489988 
L 50.96803 294.286637 
L 51.192818 290.930658 
L 51.264304 291.489988 
L 51.516197 291.489988 
L 51.919132 290.930658 
L 52.579673 290.930658 
L 52.917848 288.693339 
L 53.443524 288.693339 
L 53.977128 289.811999 
L 54.316582 285.33736 
L 54.391725 285.89669 
L 54.711166 285.33736 
L 55.329089 283.659371 
L 55.748211 284.778031 
L 56.410687 284.778031 
L 56.780912 285.89669 
L 57.031189 285.33736 
L 57.785196 284.778031 
L 58.12354 284.778031 
L 58.491456 283.659371 
L 59.019376 283.659371 
L 59.565371 280.303392 
L 61.033133 278.625403 
L 61.233016 278.066073 
L 61.656398 278.066073 
L 61.923378 277.506743 
L 62.348756 277.506743 
L 62.661921 278.625403 
L 62.980924 279.184733 
L 63.336594 279.184733 
L 63.544876 278.625403 
L 66.084968 278.625403 
L 66.490976 278.066073 
L 67.148126 278.066073 
L 67.51179 277.506743 
L 67.860276 277.506743 
L 67.995588 278.066073 
L 68.85626 277.506743 
L 69.216983 278.066073 
L 70.211532 278.066073 
L 70.53084 277.506743 
L 70.923412 278.066073 
L 72.733593 278.066073 
L 73.104474 277.506743 
L 73.30805 275.828754 
L 73.80353 276.947414 
L 74.501334 276.947414 
L 74.82736 275.828754 
L 74.955656 276.947414 
L 75.527276 275.269424 
L 75.872906 275.269424 
L 76.208587 274.710095 
L 76.583262 274.710095 
L 76.927274 275.269424 
L 77.255996 274.150765 
L 77.547836 274.150765 
L 78.341283 273.032105 
L 82.507118 273.032105 
L 82.838273 271.913446 
L 83.54405 271.913446 
L 83.857308 269.116797 
L 84.907967 269.116797 
L 85.913683 266.879478 
L 86.982658 266.879478 
L 87.365531 266.320148 
L 93.823944 266.320148 
L 94.599309 264.642159 
L 94.774954 266.320148 
L 96.01866 266.320148 
L 96.356393 265.201488 
L 96.729012 266.320148 
L 97.615567 266.320148 
L 98.105258 265.201488 
L 98.46879 266.320148 
L 103.959004 266.320148 
L 104.259031 261.28618 
L 104.467044 266.320148 
L 106.456704 266.320148 
L 106.817894 265.760818 
L 107.024056 260.72685 
L 107.511056 265.760818 
L 107.855012 265.760818 
L 108.083335 266.320148 
L 111.685781 266.320148 
L 111.868212 265.760818 
L 112.195598 265.760818 
L 112.734766 264.082829 
L 118.169023 264.082829 
L 119.35503 263.523499 
L 126.653841 263.523499 
L 126.95777 260.72685 
L 127.346134 260.72685 
L 127.690517 263.523499 
L 128.044832 263.523499 
L 128.288973 260.72685 
L 128.553575 263.523499 
L 128.993303 260.72685 
L 129.382813 259.60819 
L 133.899342 259.60819 
L 134.289175 259.048861 
L 135.999465 259.048861 
L 136.351053 257.930201 
L 136.776157 255.692882 
L 137.079825 255.133552 
L 137.423065 251.777574 
L 137.846818 251.777574 
L 138.414998 250.658914 
L 138.80712 250.658914 
L 139.484399 249.540254 
L 142.327052 244.506286 
L 142.617308 245.624946 
L 144.649742 245.624946 
L 145.046257 243.387627 
L 145.395913 243.946957 
L 146.795706 243.946957 
L 147.051638 245.065616 
L 147.501801 243.946957 
L 148.518419 243.946957 
L 148.864402 242.828297 
L 149.198132 242.828297 
L 149.593379 242.268967 
L 149.752872 242.268967 
L 149.931124 240.590978 
L 150.17276 240.590978 
L 150.984414 240.031648 
L 151.655056 241.709638 
L 151.819047 241.709638 
L 152.344774 241.150308 
L 152.682085 240.031648 
L 154.425246 240.031648 
L 154.761808 239.472318 
L 155.123227 239.472318 
L 155.457838 238.912989 
L 155.771293 238.912989 
L 156.499655 238.353659 
L 156.875822 238.353659 
L 157.250935 236.67567 
L 157.862586 236.67567 
L 158.244835 236.11634 
L 158.482355 236.11634 
L 158.61496 246.184276 
L 158.715378 245.624946 
L 159.2902 245.624946 
L 159.630765 244.506286 
L 160.085594 244.506286 
L 160.319876 243.946957 
L 160.835076 243.946957 
L 160.886343 243.387627 
L 161.697945 243.387627 
L 162.133694 241.709638 
L 163.039245 240.031648 
L 164.511127 240.031648 
L 164.829349 238.912989 
L 164.949173 239.472318 
L 165.087932 239.472318 
L 165.472732 240.031648 
L 166.873124 239.472318 
L 170.376732 239.472318 
L 170.782712 240.031648 
L 172.478444 240.031648 
L 172.719786 240.590978 
L 173.161867 240.031648 
L 175.895352 240.031648 
L 176.304209 239.472318 
L 176.875752 239.472318 
L 177.338836 238.912989 
L 177.571847 239.472318 
L 179.804156 239.472318 
L 180.508658 238.353659 
L 182.007996 238.353659 
L 182.260428 230.523042 
L 182.544999 230.523042 
L 184.970143 228.845053 
L 185.119168 229.404382 
L 185.274639 228.845053 
L 185.678185 229.404382 
L 186.016686 229.404382 
L 186.37296 228.845053 
L 186.640503 228.845053 
L 187.070032 227.726393 
L 187.246683 227.726393 
L 187.410167 228.285723 
L 187.776594 227.167063 
L 190.21276 227.167063 
L 190.449761 226.607734 
L 190.844892 226.607734 
L 191.211597 226.048404 
L 191.592302 226.607734 
L 191.760287 226.607734 
L 192.282076 227.167063 
L 192.673011 224.370414 
L 192.951323 226.048404 
L 193.314303 226.048404 
L 193.605246 222.692425 
L 193.808813 223.251755 
L 194.025519 222.133095 
L 194.134667 222.692425 
L 194.268257 221.014436 
L 194.614594 221.014436 
L 195.053413 220.455106 
L 195.912866 221.014436 
L 196.108565 219.895776 
L 196.428392 219.895776 
L 196.654882 221.573766 
L 197.423697 219.895776 
L 198.188164 219.336446 
L 198.859542 219.336446 
L 199.211741 217.658457 
L 199.535474 217.658457 
L 199.727234 218.217787 
L 200.0638 218.217787 
L 201.365524 214.861808 
L 201.58262 217.099127 
L 202.000508 217.658457 
L 202.490642 214.861808 
L 203.808095 214.861808 
L 203.920879 214.302478 
L 204.44583 213.743149 
L 205.845224 213.743149 
L 206.485771 210.9465 
L 210.085332 210.9465 
L 210.369569 209.82784 
L 210.743403 212.065159 
L 210.961042 210.38717 
L 214.88529 210.38717 
L 215.213166 209.82784 
L 216.00385 206.471861 
L 216.300489 208.149851 
L 216.654004 207.590521 
L 217.045445 208.149851 
L 217.320905 208.149851 
L 217.738289 202.556553 
L 217.962095 202.556553 
L 218.005534 201.997223 
L 218.709807 201.997223 
L 219.106209 200.878564 
L 219.455692 199.200574 
L 220.507007 198.641245 
L 220.573528 199.200574 
L 221.144344 199.759904 
L 221.229125 199.200574 
L 223.979579 199.200574 
L 224.170961 198.641245 
L 224.684254 198.081915 
L 225.369676 196.963255 
L 225.547952 195.844596 
L 225.788859 195.844596 
L 226.058735 194.725936 
L 226.383667 195.285266 
L 226.7475 195.285266 
L 227.021648 195.844596 
L 227.408129 195.285266 
L 227.752998 195.285266 
L 228.083534 194.725936 
L 228.351105 194.725936 
L 228.854771 195.285266 
L 229.116613 194.725936 
L 229.387619 195.285266 
L 229.84479 198.081915 
L 230.174606 198.641245 
L 230.93163 197.522585 
L 231.04231 193.607277 
L 231.211056 193.607277 
L 231.51982 193.047947 
L 231.878532 193.607277 
L 232.206035 193.607277 
L 232.609472 194.166606 
L 232.958912 193.047947 
L 234.220077 193.047947 
L 234.721286 192.488617 
L 235.007719 192.488617 
L 235.029945 191.929287 
L 236.459012 191.929287 
L 236.865861 190.810628 
L 238.865389 190.810628 
L 239.263987 189.691968 
L 243.094016 189.691968 
L 243.323402 189.132638 
L 243.942061 189.132638 
L 244.462627 188.573309 
L 244.811338 187.454649 
L 244.91561 188.013979 
L 245.294633 186.895319 
L 246.137802 186.895319 
L 249.55278 185.77666 
L 257.994023 185.77666 
L 258.337862 186.335989 
L 259.988212 186.335989 
L 260.330298 185.77666 
L 261.463915 185.77666 
L 261.855172 185.21733 
L 262.136509 185.77666 
L 262.463018 185.21733 
L 262.824292 185.77666 
L 263.120807 184.658 
L 263.57494 185.21733 
L 263.906301 184.658 
L 271.109099 184.658 
L 271.481167 185.77666 
L 271.875332 185.21733 
L 272.231815 185.77666 
L 272.631113 185.21733 
L 272.951339 185.77666 
L 274.287791 185.77666 
L 274.627141 185.21733 
L 275.010453 185.77666 
L 275.359671 184.658 
L 276.052125 184.658 
L 276.442806 185.21733 
L 276.735157 184.09867 
L 277.111235 184.09867 
L 277.401788 184.658 
L 278.318833 183.539341 
L 278.85531 184.09867 
L 279.174043 183.539341 
L 279.852147 183.539341 
L 280.234867 184.09867 
L 280.610676 182.420681 
L 280.972389 182.980011 
L 281.666818 182.980011 
L 281.931528 183.539341 
L 282.270074 182.980011 
L 282.639534 182.980011 
L 282.96925 187.454649 
L 283.100241 186.895319 
L 283.359344 186.895319 
L 283.53984 186.335989 
L 283.697149 186.335989 
L 283.90426 185.77666 
L 284.044617 186.895319 
L 284.373278 186.335989 
L 284.507858 186.335989 
L 284.737545 185.77666 
L 285.332892 185.77666 
L 285.622415 184.658 
L 285.909352 185.77666 
L 286.096164 185.21733 
L 287.149422 185.21733 
L 287.462973 185.77666 
L 287.760337 185.77666 
L 288.134005 185.21733 
L 288.479534 185.21733 
L 288.889131 185.77666 
L 289.284398 185.21733 
L 289.591087 185.21733 
L 290.073718 184.09867 
L 292.042508 184.09867 
L 292.366345 184.658 
L 293.892213 184.658 
L 294.24265 184.09867 
L 294.518311 183.539341 
L 295.05803 183.539341 
L 295.226413 182.420681 
L 295.303656 182.980011 
L 295.48628 182.420681 
L 295.999963 182.420681 
L 296.251781 181.302021 
L 296.937424 181.302021 
L 297.039986 180.742692 
L 297.257472 180.183362 
L 298.315915 180.183362 
L 298.569748 178.505373 
L 298.803973 177.946043 
L 298.939144 177.946043 
L 299.395112 177.386713 
L 299.555595 177.946043 
L 299.633368 177.386713 
L 299.797918 177.386713 
L 299.990547 176.827383 
L 300.13471 176.827383 
L 300.723491 176.268053 
L 302.044412 176.268053 
L 302.385085 176.827383 
L 302.71151 176.268053 
L 303.079474 176.268053 
L 303.255823 175.708724 
L 303.29824 176.268053 
L 303.507548 175.708724 
L 303.671253 175.708724 
L 303.832918 174.590064 
L 304.455431 173.471405 
L 304.908732 174.030734 
L 305.253372 173.471405 
L 305.930901 173.471405 
L 306.298628 172.352745 
L 306.433248 172.912075 
L 306.651945 171.234085 
L 306.961844 171.793415 
L 307.162829 171.234085 
L 307.321746 171.793415 
L 307.497359 170.674756 
L 307.855299 170.674756 
L 307.961312 170.115426 
L 308.381256 170.674756 
L 308.706047 169.556096 
L 309.438822 169.556096 
L 309.702607 168.437437 
L 310.076762 169.556096 
L 310.330953 169.556096 
L 310.424146 168.996766 
L 311.108027 168.996766 
L 311.427922 166.759447 
L 311.887981 168.996766 
L 311.95931 168.437437 
L 312.565072 168.996766 
L 312.622434 167.878107 
L 312.83078 167.878107 
L 313.250611 167.318777 
L 313.591325 167.878107 
L 313.848725 167.878107 
L 314.229627 166.759447 
L 314.644019 166.759447 
L 315.045876 167.318777 
L 315.346212 166.759447 
L 315.5287 167.318777 
L 315.710202 166.200117 
L 317.318477 166.200117 
L 317.812779 165.640788 
L 318.822023 165.640788 
L 319.180119 166.759447 
L 319.855029 166.759447 
L 320.192818 166.200117 
L 323.265762 166.200117 
L 323.680476 166.759447 
L 324.069218 165.640788 
L 328.785187 165.640788 
L 329.819742 165.081458 
L 330.43421 165.081458 
L 330.933242 164.522128 
L 331.327612 164.522128 
L 331.559355 163.403468 
L 331.926769 163.962798 
L 336.808699 163.962798 
L 337.235059 164.522128 
L 337.573085 163.962798 
L 337.907029 164.522128 
L 338.13382 166.759447 
L 340.207613 166.759447 
L 340.549622 165.640788 
L 341.029642 166.759447 
L 343.016583 166.759447 
L 343.314385 165.640788 
L 343.426932 166.759447 
L 343.937031 166.759447 
L 344.172821 165.640788 
L 344.351966 166.759447 
L 344.470044 166.759447 
L 344.691951 165.640788 
L 344.849453 165.640788 
L 345.052594 166.759447 
L 345.230258 165.640788 
L 345.344113 166.759447 
L 345.389969 165.640788 
L 346.611868 165.640788 
L 347.011866 163.962798 
L 347.456493 163.962798 
L 347.493165 163.403468 
L 347.851676 163.403468 
L 348.037313 162.844139 
L 348.195588 163.403468 
L 348.390031 162.844139 
L 348.521526 163.403468 
L 348.709613 162.844139 
L 348.829928 162.844139 
L 348.960356 163.403468 
L 348.978242 162.844139 
L 349.369164 162.844139 
L 349.614102 162.284809 
L 349.768587 162.284809 
L 349.999932 161.166149 
L 350.256629 160.60682 
L 350.433915 161.166149 
L 352.408558 161.166149 
L 352.690896 160.60682 
L 354.204241 160.60682 
L 354.445647 160.04749 
L 354.764742 160.04749 
L 355.001526 159.48816 
L 355.132034 160.04749 
L 355.758164 160.04749 
L 355.969463 158.92883 
L 356.544587 158.92883 
L 356.599817 158.3695 
L 356.680068 158.92883 
L 356.999183 158.92883 
L 357.026961 158.3695 
L 357.258925 157.810171 
L 357.323757 158.3695 
L 357.586702 156.132181 
L 358.651625 156.132181 
L 358.758685 155.572852 
L 358.991981 155.572852 
L 359.128645 154.454192 
L 359.289035 155.572852 
L 360.702762 155.572852 
L 360.784567 155.013522 
L 361.055734 155.572852 
L 361.185566 155.013522 
L 361.425613 155.572852 
L 361.737422 155.572852 
L 361.928636 154.454192 
L 362.277194 154.454192 
L 362.420169 155.013522 
L 362.542668 153.894862 
L 362.904446 155.572852 
L 363.283561 154.454192 
L 363.558196 155.572852 
L 364.201093 155.572852 
L 364.701428 153.894862 
L 364.857116 154.454192 
L 365.02953 153.894862 
L 365.494759 155.013522 
L 365.643728 153.894862 
L 366.747814 153.894862 
L 366.92578 153.335532 
L 367.235912 153.335532 
L 367.401238 153.894862 
L 367.609895 153.335532 
L 367.741831 153.894862 
L 368.143748 152.776203 
L 368.692479 152.776203 
L 369.079479 151.657543 
L 369.751795 152.776203 
L 369.895474 152.216873 
L 370.072233 152.776203 
L 370.184325 152.216873 
L 370.409214 152.216873 
L 370.503465 152.776203 
L 370.938924 151.657543 
L 371.163092 152.216873 
L 371.274006 151.657543 
L 371.502555 152.216873 
L 371.806094 152.216873 
L 372.001877 151.657543 
L 372.130607 152.216873 
L 372.257471 152.216873 
L 372.540441 152.776203 
L 372.667205 151.657543 
L 373.241802 151.657543 
L 373.280533 150.538884 
L 375.738053 150.538884 
L 375.980493 149.979554 
L 376.139624 150.538884 
L 376.274441 149.979554 
L 376.376846 150.538884 
L 376.499683 149.420224 
L 377.065647 149.420224 
L 377.216857 148.860894 
L 377.332622 148.860894 
L 377.38673 149.420224 
L 377.442164 148.860894 
L 377.74703 149.420224 
L 377.825822 148.860894 
L 378.123962 148.301564 
L 378.240736 147.742235 
L 378.463666 147.742235 
L 378.514924 147.182905 
L 378.825314 145.504916 
L 378.965019 146.064245 
L 379.153573 146.064245 
L 379.187542 144.945586 
L 380.5123 144.945586 
L 380.676842 144.386256 
L 380.936371 144.945586 
L 381.385922 143.826926 
L 381.506072 143.826926 
L 381.702765 143.267596 
L 381.944496 143.267596 
L 382.088349 142.708267 
L 382.42341 142.708267 
L 382.431625 142.148937 
L 382.534911 142.708267 
L 382.633921 141.589607 
L 382.78026 141.589607 
L 382.982829 141.030277 
L 384.372428 141.030277 
L 384.4091 141.589607 
L 384.49658 140.470948 
L 384.863044 140.470948 
L 385.050198 141.030277 
L 385.194264 140.470948 
L 385.411163 141.030277 
L 385.573673 140.470948 
L 385.756258 140.470948 
L 385.913148 141.030277 
L 386.068711 139.352288 
L 387.930964 139.352288 
L 388.181646 138.792958 
L 388.30415 138.792958 
L 388.490982 138.233628 
L 388.785767 138.792958 
L 395.820536 138.792958 
L 395.939974 138.233628 
L 396.153598 138.792958 
L 396.215167 138.233628 
L 396.853494 138.233628 
L 397.030249 137.674299 
L 397.926142 137.674299 
L 398.045845 137.114969 
L 398.214575 137.674299 
L 399.586948 137.674299 
L 399.777304 137.114969 
L 400.017024 137.674299 
L 400.149388 137.674299 
L 400.360325 136.555639 
L 400.476363 137.114969 
L 400.990686 137.114969 
L 401.214786 136.555639 
L 402.269633 136.555639 
L 402.441464 137.674299 
L 402.78964 136.555639 
L 404.663008 136.555639 
L 404.855082 135.996309 
L 405.026676 135.996309 
L 405.211477 135.43698 
L 405.349605 135.43698 
L 405.520587 134.87765 
L 405.920637 134.87765 
L 405.991508 134.31832 
L 406.325008 134.31832 
L 406.535668 135.43698 
L 406.700161 134.87765 
L 406.951954 134.87765 
L 407.054625 134.31832 
L 407.439827 134.31832 
L 407.784355 133.75899 
L 408.160043 132.081001 
L 408.283045 132.640331 
L 408.397575 132.081001 
L 408.660455 131.521671 
L 408.78511 132.081001 
L 408.996518 131.521671 
L 409.119709 131.521671 
L 409.340997 132.081001 
L 409.521727 132.081001 
L 409.875796 130.403012 
L 410.08965 130.962341 
L 410.217037 130.962341 
L 410.384266 130.403012 
L 410.42824 129.843682 
L 410.570435 129.843682 
L 410.639828 130.403012 
L 410.869516 129.843682 
L 411.028563 130.403012 
L 411.159683 129.843682 
L 411.725912 129.843682 
L 411.936737 133.19966 
L 412.499796 132.081001 
L 412.871566 132.081001 
L 413.001604 131.521671 
L 413.20415 132.081001 
L 413.33416 132.081001 
L 413.487997 132.640331 
L 413.664881 132.081001 
L 413.907852 132.081001 
L 414.027402 132.640331 
L 414.179292 132.081001 
L 414.386448 132.640331 
L 414.46787 132.081001 
L 414.767551 131.521671 
L 415.063889 131.521671 
L 415.214857 132.081001 
L 415.5015 131.521671 
L 416.671895 131.521671 
L 416.774976 128.725022 
L 417.077142 130.962341 
L 417.394407 131.521671 
L 417.965086 131.521671 
L 418.402597 130.403012 
L 418.552665 132.081001 
L 418.805246 131.521671 
L 419.127233 132.081001 
L 419.274525 130.403012 
L 419.452359 131.521671 
L 419.620424 131.521671 
L 419.732352 130.962341 
L 419.830875 126.487703 
L 420.173033 128.725022 
L 420.201418 125.928373 
L 421.115984 125.928373 
L 421.548612 124.809714 
L 421.727076 125.369044 
L 422.367769 125.369044 
L 422.542335 125.928373 
L 422.72891 125.369044 
L 422.93356 125.369044 
L 423.053786 125.928373 
L 423.419546 125.369044 
L 423.634417 125.369044 
L 423.775285 124.809714 
L 423.94757 125.369044 
L 424.132661 125.369044 
L 424.306117 125.928373 
L 424.413563 125.369044 
L 425.379791 125.369044 
L 425.621523 123.691054 
L 425.913789 124.250384 
L 426.155513 124.250384 
L 426.351208 124.809714 
L 426.440185 124.250384 
L 426.743313 124.809714 
L 426.856636 124.250384 
L 427.12368 124.250384 
L 427.228153 123.691054 
L 427.547284 124.250384 
L 428.2049 124.250384 
L 428.448708 123.691054 
L 428.854849 123.691054 
L 428.957254 123.131724 
L 429.130332 123.691054 
L 429.534933 122.572395 
L 429.65532 122.572395 
L 429.833869 122.013065 
L 429.998459 122.013065 
L 430.308149 121.453735 
L 432.827294 121.453735 
L 433.095669 120.894405 
L 433.347317 120.894405 
L 433.398552 122.013065 
L 433.462004 121.453735 
L 433.872566 121.453735 
L 433.966278 120.894405 
L 434.506496 120.894405 
L 434.764492 120.335075 
L 435.111003 120.335075 
L 435.122528 120.894405 
L 435.237718 120.335075 
L 435.343651 120.894405 
L 436.852506 120.894405 
L 437.135424 121.453735 
L 437.924635 120.894405 
L 439.56126 120.894405 
L 439.632078 120.335075 
L 441.34946 120.335075 
L 441.504158 119.775746 
L 443.092388 116.979097 
L 443.242914 116.979097 
L 443.399958 116.419767 
L 443.469894 116.979097 
L 443.808106 116.419767 
L 444.122325 115.860437 
L 444.498114 115.860437 
L 444.62431 115.301107 
L 445.099217 115.301107 
L 445.787065 115.860437 
L 445.821718 114.182448 
L 446.375308 114.182448 
L 446.546885 114.741778 
L 446.671509 114.182448 
L 447.59966 114.182448 
L 447.943339 114.741778 
L 449.602527 114.741778 
L 450.444739 114.182448 
L 452.146059 114.182448 
L 452.983817 113.623118 
L 453.095861 113.063788 
L 455.615396 113.063788 
L 455.852096 113.623118 
L 457.131159 113.623118 
L 458.065099 114.182448 
L 458.745674 114.182448 
L 459.083415 113.623118 
L 459.383264 112.504459 
L 459.56179 112.504459 
L 459.568757 113.063788 
L 461.571266 113.063788 
L 461.786186 112.504459 
L 466.845073 112.504459 
L 467.482941 111.945129 
L 467.728764 111.945129 
L 467.824721 110.826469 
L 468.137363 110.826469 
L 468.26866 111.385799 
L 468.472191 110.826469 
L 469.614961 110.826469 
L 470.124348 110.267139 
L 470.478188 109.14848 
L 473.577164 109.14848 
L 474.122611 109.70781 
L 474.280427 109.14848 
L 474.440073 109.70781 
L 474.619539 109.14848 
L 475.469487 109.14848 
L 475.861355 109.70781 
L 476.060208 109.14848 
L 476.60852 110.267139 
L 476.82222 109.14848 
L 478.149107 109.14848 
L 478.164804 108.58915 
L 480.26763 108.58915 
L 481.290049 108.02982 
L 481.596874 108.58915 
L 481.820322 108.02982 
L 481.964931 108.58915 
L 482.166938 108.58915 
L 482.30513 108.02982 
L 482.792218 109.14848 
L 483.113811 108.58915 
L 483.546153 109.14848 
L 483.866391 109.14848 
L 484.011828 108.58915 
L 484.894731 108.58915 
L 485.943768 109.14848 
L 486.101669 108.58915 
L 487.145517 108.58915 
L 487.484424 109.14848 
L 492.797256 108.58915 
L 493.195062 109.14848 
L 493.538861 108.58915 
L 493.84693 109.14848 
L 493.881397 108.58915 
L 494.149599 108.02982 
L 494.304925 108.02982 
L 494.447007 107.470491 
L 496.917126 107.470491 
L 496.969761 106.911161 
L 497.276799 106.911161 
L 498.096636 107.470491 
L 498.122716 106.911161 
L 498.437704 107.470491 
L 498.514262 106.351831 
L 498.717005 106.351831 
L 499.128323 105.792501 
L 499.817615 105.792501 
L 500.236159 106.351831 
L 500.706753 105.233171 
L 500.726055 104.673842 
L 501.050046 104.114512 
L 501.183206 104.114512 
L 501.519434 104.673842 
L 501.992213 104.673842 
L 502.090495 104.114512 
L 503.166944 104.114512 
L 503.315238 104.673842 
L 503.496784 103.555182 
L 503.646417 103.555182 
L 503.930409 104.114512 
L 504.188687 103.555182 
L 504.764651 103.555182 
L 505.018311 101.877193 
L 506.827402 101.877193 
L 507.043686 101.317863 
L 507.176121 101.317863 
L 507.394042 101.877193 
L 507.450245 101.317863 
L 508.027497 101.317863 
L 508.1436 100.758533 
L 508.458938 100.199203 
L 508.549005 99.080544 
L 509.040997 99.080544 
L 509.22585 97.402555 
L 509.610751 97.402555 
L 509.83586 97.961884 
L 509.957475 97.402555 
L 510.121184 97.402555 
L 510.133687 95.724565 
L 511.009236 95.724565 
L 511.161009 95.165235 
L 511.538447 95.165235 
L 511.929563 95.724565 
L 511.969791 94.605906 
L 512.316092 94.605906 
L 512.379927 94.046576 
L 512.62122 93.487246 
L 513.258642 93.487246 
L 513.35233 92.368587 
L 513.625878 92.368587 
L 513.786252 91.809257 
L 513.940142 91.809257 
L 514.492002 91.249927 
L 514.707983 91.809257 
L 514.836605 97.961884 
L 514.976101 98.521214 
L 515.070577 96.283895 
L 515.751095 96.283895 
L 516.030803 96.843225 
L 516.234599 95.724565 
L 517.241047 95.724565 
L 517.443903 96.283895 
L 517.602732 95.724565 
L 518.67468 95.724565 
L 518.806669 95.165235 
L 519.295378 96.283895 
L 519.692774 95.724565 
L 519.920498 95.724565 
L 520.007963 95.165235 
L 520.209012 96.283895 
L 520.404445 95.165235 
L 521.215335 95.165235 
L 521.34102 95.724565 
L 521.629867 95.724565 
L 521.675305 95.165235 
L 522.002361 94.605906 
L 522.015126 95.165235 
L 522.278633 94.605906 
L 522.630193 94.605906 
L 522.946765 94.046576 
L 524.589553 94.046576 
L 524.712732 93.487246 
L 525.038521 94.046576 
L 525.049398 93.487246 
L 525.517205 92.927916 
L 525.804645 92.927916 
L 526.135418 92.368587 
L 526.300575 91.809257 
L 526.426848 91.809257 
L 526.824195 92.927916 
L 526.902688 91.809257 
L 527.169881 92.368587 
L 527.394777 91.809257 
L 528.398478 91.809257 
L 528.510936 91.249927 
L 528.651095 91.809257 
L 529.1368 91.249927 
L 529.371407 91.809257 
L 529.609173 91.249927 
L 529.752027 91.809257 
L 530.084724 90.690597 
L 530.314592 91.249927 
L 531.100826 91.249927 
L 531.413622 90.690597 
L 531.87035 90.690597 
L 532.233732 91.809257 
L 532.330586 91.249927 
L 532.718853 91.249927 
L 532.817388 90.131267 
L 533.30708 91.249927 
L 533.47809 90.690597 
L 533.872645 91.249927 
L 534.160652 91.249927 
L 534.308201 90.690597 
L 534.660883 90.690597 
L 535.122752 90.131267 
L 535.182588 91.249927 
L 535.348417 90.131267 
L 535.500448 90.690597 
L 535.591698 90.131267 
L 535.953692 90.690597 
L 536.388033 90.131267 
L 536.606819 90.131267 
L 536.789833 90.690597 
L 537.334042 90.690597 
L 537.771738 89.571938 
L 538.001011 90.131267 
L 538.464626 90.131267 
L 538.681429 90.690597 
L 538.713346 91.249927 
L 538.983431 90.131267 
L 539.126664 90.690597 
L 539.29514 90.131267 
L 539.545481 90.690597 
L 539.828821 90.690597 
L 540.010842 91.249927 
L 540.356041 91.249927 
L 540.715437 90.131267 
L 540.959305 90.690597 
L 541.256286 89.571938 
L 541.410948 89.571938 
L 541.508027 90.131267 
L 541.810069 90.131267 
L 541.835421 89.571938 
L 542.836704 89.571938 
L 543.000739 89.012608 
L 543.14124 89.012608 
L 543.357829 88.453278 
L 543.544641 89.012608 
L 543.687114 88.453278 
L 543.899519 88.453278 
L 544.01909 87.893948 
L 544.173418 88.453278 
L 544.22314 87.893948 
L 544.393986 86.775289 
L 544.602714 87.334619 
L 544.668403 87.893948 
L 544.888532 87.334619 
L 545.068425 87.893948 
L 545.285252 87.334619 
L 545.640576 87.334619 
L 545.739514 86.775289 
L 545.984983 87.334619 
L 546.62965 85.656629 
L 546.803066 85.656629 
L 546.98244 86.775289 
L 547.067241 86.215959 
L 547.320845 86.215959 
L 547.436227 86.775289 
L 547.643596 86.775289 
L 547.832392 86.215959 
L 548.075105 86.215959 
L 548.482594 84.53797 
L 548.699388 85.097299 
L 551.54919 85.097299 
L 551.681807 84.53797 
L 551.849981 84.53797 
L 551.985225 85.097299 
L 552.137026 84.53797 
L 552.932601 84.53797 
L 553.045691 83.41931 
L 553.629002 84.53797 
L 554.261797 84.53797 
L 554.947062 83.41931 
L 556.158477 83.97864 
L 556.466123 83.41931 
L 556.805047 83.97864 
L 557.047105 82.85998 
L 557.144187 83.97864 
L 557.463274 82.85998 
L 557.810931 83.97864 
L 557.926017 82.85998 
L 558.148954 82.85998 
L 558.271505 83.41931 
L 558.493638 82.85998 
L 558.626947 82.85998 
L 558.751119 83.41931 
L 558.901992 81.741321 
L 559.297669 82.85998 
L 559.66775 82.85998 
L 559.893881 82.300651 
L 560.320643 82.300651 
L 560.667705 82.85998 
L 560.8706 82.85998 
L 561.023983 81.741321 
L 561.215309 82.85998 
L 561.322127 82.300651 
L 561.580047 81.741321 
L 561.738192 81.741321 
L 562.014685 82.85998 
L 562.279078 81.181991 
L 562.611392 81.181991 
L 562.636615 80.063331 
L 562.659823 80.622661 
L 562.833621 81.181991 
L 563.016318 80.063331 
L 563.092522 81.181991 
L 563.367925 81.181991 
L 563.40545 80.622661 
L 563.715735 80.063331 
L 563.715735 80.063331 
" clip-path="url(#p0e0fc24a48)" style="fill: none; stroke-dasharray: 6,1.5; stroke-dashoffset: 0; stroke: #008000; stroke-width: 1.5"/>
   </g>
   <g id="line2d_19">
    <path d="M 38.539265 361.96554 
L 39.960209 363.0842 
L 41.376567 363.0842 
L 42.746583 362.52487 
L 44.730643 362.52487 
L 48.874376 361.96554 
L 48.991372 362.52487 
L 52.579673 362.52487 
L 52.917848 363.643529 
L 53.666034 363.643529 
L 53.977128 360.287551 
L 54.391725 363.643529 
L 56.410687 363.643529 
L 56.780912 360.287551 
L 59.565371 360.287551 
L 61.033133 360.846881 
L 61.233016 361.40621 
L 62.348756 361.40621 
L 62.661921 359.728221 
L 66.084968 359.728221 
L 66.490976 360.287551 
L 76.927274 360.287551 
L 77.255996 359.728221 
L 83.54405 359.728221 
L 83.857308 361.96554 
L 135.999465 361.96554 
L 136.351053 363.0842 
L 136.776157 366.440178 
L 137.079825 366.440178 
L 137.423065 366.999508 
L 139.484399 366.999508 
L 142.327052 368.677497 
L 142.617308 368.677497 
L 143.10399 369.236827 
L 157.472721 369.236827 
L 158.244835 370.355487 
L 190.844892 370.355487 
L 191.211597 370.914817 
L 191.592302 370.355487 
L 193.808813 370.355487 
L 194.134667 370.914817 
L 200.0638 370.914817 
L 201.365524 372.033476 
L 201.58262 370.914817 
L 202.000508 370.914817 
L 202.344959 372.033476 
L 210.369569 372.033476 
L 210.743403 371.474146 
L 210.961042 372.033476 
L 229.84479 372.033476 
L 230.174606 373.152136 
L 272.231815 373.152136 
L 272.631113 373.711465 
L 369.079479 373.711465 
L 369.465184 373.152136 
L 380.936371 373.152136 
L 381.385922 373.711465 
L 381.506072 374.830125 
L 411.725912 374.830125 
L 411.936737 374.270795 
L 414.898454 374.270795 
L 415.063889 374.830125 
L 534.514102 374.830125 
L 534.541534 374.270795 
L 543.687114 374.270795 
L 543.899519 374.830125 
L 563.715735 374.830125 
L 563.715735 374.830125 
" clip-path="url(#p0e0fc24a48)" style="fill: none; stroke-dasharray: 9,3; stroke-dashoffset: 0; stroke: #ffa500; stroke-width: 1.5"/>
   </g>
   <g id="line2d_20">
    <path d="M 38.539265 323.371785 
L 48.874376 323.371785 
L 48.991372 323.931115 
L 52.579673 323.931115 
L 52.917848 324.490445 
L 53.666034 324.490445 
L 53.977128 325.609104 
L 54.391725 324.490445 
L 56.410687 324.490445 
L 57.031189 326.168434 
L 58.491456 326.168434 
L 58.820447 326.727764 
L 59.019376 326.168434 
L 59.185777 326.727764 
L 74.501334 326.727764 
L 74.82736 327.846424 
L 74.955656 326.727764 
L 75.527276 327.846424 
L 93.823944 327.846424 
L 94.599309 328.405753 
L 94.774954 327.846424 
L 96.01866 327.846424 
L 96.356393 328.405753 
L 96.729012 327.846424 
L 97.615567 327.846424 
L 98.105258 328.405753 
L 98.46879 327.846424 
L 126.653841 327.846424 
L 126.95777 328.405753 
L 127.346134 328.405753 
L 127.690517 327.846424 
L 128.044832 327.846424 
L 128.288973 328.405753 
L 128.553575 327.846424 
L 128.993303 328.405753 
L 136.351053 328.405753 
L 136.776157 327.846424 
L 137.079825 327.846424 
L 137.423065 328.965083 
L 139.096156 328.965083 
L 139.484399 331.761732 
L 142.327052 329.524413 
L 142.617308 330.083743 
L 144.649742 330.083743 
L 145.046257 332.880392 
L 145.395913 333.439721 
L 161.147296 333.439721 
L 161.697945 332.880392 
L 162.133694 333.439721 
L 163.105606 332.880392 
L 165.472732 332.880392 
L 166.873124 333.439721 
L 172.719786 333.439721 
L 173.161867 333.999051 
L 210.085332 333.999051 
L 210.369569 334.558381 
L 210.743403 333.999051 
L 217.320905 333.999051 
L 217.738289 341.270338 
L 218.709807 341.270338 
L 219.106209 345.744976 
L 219.455692 347.422966 
L 240.621322 347.422966 
L 243.323402 347.982296 
L 275.010453 347.982296 
L 275.359671 350.219615 
L 282.639534 350.219615 
L 282.96925 346.863636 
L 299.797918 346.863636 
L 299.990547 347.422966 
L 331.327612 347.422966 
L 331.559355 347.982296 
L 331.926769 347.422966 
L 340.392643 347.422966 
L 340.549622 347.982296 
L 340.751307 347.422966 
L 343.016583 347.422966 
L 343.314385 347.982296 
L 343.426932 347.422966 
L 346.611868 347.422966 
L 346.834274 347.982296 
L 356.804221 347.982296 
L 356.999183 347.422966 
L 369.465184 347.422966 
L 369.751795 346.863636 
L 369.895474 347.422966 
L 370.072233 346.863636 
L 370.184325 347.422966 
L 370.409214 347.422966 
L 370.503465 346.863636 
L 370.75566 347.422966 
L 372.257471 347.422966 
L 372.540441 346.863636 
L 372.667205 347.422966 
L 381.385922 347.422966 
L 381.506072 346.863636 
L 411.725912 346.863636 
L 411.936737 347.422966 
L 416.671895 347.422966 
L 416.774976 350.219615 
L 417.077142 347.422966 
L 419.815882 347.422966 
L 419.830875 350.219615 
L 420.173033 347.422966 
L 420.201418 350.219615 
L 447.59966 350.219615 
L 447.943339 349.660285 
L 448.238582 350.219615 
L 481.596874 350.219615 
L 481.820322 350.778944 
L 481.964931 350.219615 
L 482.30513 350.219615 
L 482.792218 350.778944 
L 504.764651 350.778944 
L 505.018311 351.338274 
L 508.1436 351.338274 
L 508.458938 351.897604 
L 514.707983 351.897604 
L 514.836605 351.338274 
L 522.015126 351.338274 
L 522.278633 351.897604 
L 534.514102 351.897604 
L 534.541534 355.812913 
L 543.687114 355.812913 
L 543.899519 355.253583 
L 552.256573 355.253583 
L 553.045691 357.490902 
L 561.023983 357.490902 
L 561.322127 356.931572 
L 563.715735 356.931572 
L 563.715735 356.931572 
" clip-path="url(#p0e0fc24a48)" style="fill: none; stroke-dasharray: 12,4.5; stroke-dashoffset: 0; stroke: #ee82ee; stroke-width: 1.5"/>
   </g>
   <g id="patch_3">
    <path d="M 33.2875 374.830125 
L 33.2875 22.318125 
" style="fill: none; stroke: #000000; stroke-width: 0.8; stroke-linejoin: miter; stroke-linecap: square"/>
   </g>
   <g id="patch_4">
    <path d="M 568.9675 374.830125 
L 568.9675 22.318125 
" style="fill: none; stroke: #000000; stroke-width: 0.8; stroke-linejoin: miter; stroke-linecap: square"/>
   </g>
   <g id="patch_5">
    <path d="M 33.2875 374.830125 
L 568.9675 374.830125 
" style="fill: none; stroke: #000000; stroke-width: 0.8; stroke-linejoin: miter; stroke-linecap: square"/>
   </g>
   <g id="patch_6">
    <path d="M 33.2875 22.318125 
L 568.9675 22.318125 
" style="fill: none; stroke: #000000; stroke-width: 0.8; stroke-linejoin: miter; stroke-linecap: square"/>
   </g>
   <g id="text_16">
    <!-- Rust/Coreutils running GNU's testsuite -->
    <g transform="translate(186.090625 16.318125) scale(0.12 -0.12)">
     <defs>
      <path id="DejaVuSans-52" d="M 2841 2188 
Q 3044 2119 3236 1894 
Q 3428 1669 3622 1275 
L 4263 0 
L 3584 0 
L 2988 1197 
Q 2756 1666 2539 1819 
Q 2322 1972 1947 1972 
L 1259 1972 
L 1259 0 
L 628 0 
L 628 4666 
L 2053 4666 
Q 2853 4666 3247 4331 
Q 3641 3997 3641 3322 
Q 3641 2881 3436 2590 
Q 3231 2300 2841 2188 
z
M 1259 4147 
L 1259 2491 
L 2053 2491 
Q 2509 2491 2742 2702 
Q 2975 2913 2975 3322 
Q 2975 3731 2742 3939 
Q 2509 4147 2053 4147 
L 1259 4147 
z
" transform="scale(0.015625)"/>
      <path id="DejaVuSans-75" d="M 544 1381 
L 544 3500 
L 1119 3500 
L 1119 1403 
Q 1119 906 1312 657 
Q 1506 409 1894 409 
Q 2359 409 2629 706 
Q 2900 1003 2900 1516 
L 2900 3500 
L 3475 3500 
L 3475 0 
L 2900 0 
L 2900 538 
Q 2691 219 2414 64 
Q 2138 -91 1772 -91 
Q 1169 -91 856 284 
Q 544 659 544 1381 
z
M 1991 3584 
L 1991 3584 
z
" transform="scale(0.015625)"/>
      <path id="DejaVuSans-73" d="M 2834 3397 
L 2834 2853 
Q 2591 2978 2328 3040 
Q 2066 3103 1784 3103 
Q 1356 3103 1142 2972 
Q 928 2841 928 2578 
Q 928 2378 1081 2264 
Q 1234 2150 1697 2047 
L 1894 2003 
Q 2506 1872 2764 1633 
Q 3022 1394 3022 966 
Q 3022 478 2636 193 
Q 2250 -91 1575 -91 
Q 1294 -91 989 -36 
Q 684 19 347 128 
L 347 722 
Q 666 556 975 473 
Q 1284 391 1588 391 
Q 1994 391 2212 530 
Q 2431 669 2431 922 
Q 2431 1156 2273 1281 
Q 2116 1406 1581 1522 
L 1381 1569 
Q 847 1681 609 1914 
Q 372 2147 372 2553 
Q 372 3047 722 3315 
Q 1072 3584 1716 3584 
Q 2034 3584 2315 3537 
Q 2597 3491 2834 3397 
z
" transform="scale(0.015625)"/>
      <path id="DejaVuSans-74" d="M 1172 4494 
L 1172 3500 
L 2356 3500 
L 2356 3053 
L 1172 3053 
L 1172 1153 
Q 1172 725 1289 603 
Q 1406 481 1766 481 
L 2356 481 
L 2356 0 
L 1766 0 
Q 1100 0 847 248 
Q 594 497 594 1153 
L 594 3053 
L 172 3053 
L 172 3500 
L 594 3500 
L 594 4494 
L 1172 4494 
z
" transform="scale(0.015625)"/>
      <path id="DejaVuSans-2f" d="M 1625 4666 
L 2156 4666 
L 531 -594 
L 0 -594 
L 1625 4666 
z
" transform="scale(0.015625)"/>
      <path id="DejaVuSans-43" d="M 4122 4306 
L 4122 3641 
Q 3803 3938 3442 4084 
Q 3081 4231 2675 4231 
Q 1875 4231 1450 3742 
Q 1025 3253 1025 2328 
Q 1025 1406 1450 917 
Q 1875 428 2675 428 
Q 3081 428 3442 575 
Q 3803 722 4122 1019 
L 4122 359 
Q 3791 134 3420 21 
Q 3050 -91 2638 -91 
Q 1578 -91 968 557 
Q 359 1206 359 2328 
Q 359 3453 968 4101 
Q 1578 4750 2638 4750 
Q 3056 4750 3426 4639 
Q 3797 4528 4122 4306 
z
" transform="scale(0.015625)"/>
      <path id="DejaVuSans-6f" d="M 1959 3097 
Q 1497 3097 1228 2736 
Q 959 2375 959 1747 
Q 959 1119 1226 758 
Q 1494 397 1959 397 
Q 2419 397 2687 759 
Q 2956 1122 2956 1747 
Q 2956 2369 2687 2733 
Q 2419 3097 1959 3097 
z
M 1959 3584 
Q 2709 3584 3137 3096 
Q 3566 2609 3566 1747 
Q 3566 888 3137 398 
Q 2709 -91 1959 -91 
Q 1206 -91 779 398 
Q 353 888 353 1747 
Q 353 2609 779 3096 
Q 1206 3584 1959 3584 
z
" transform="scale(0.015625)"/>
      <path id="DejaVuSans-72" d="M 2631 2963 
Q 2534 3019 2420 3045 
Q 2306 3072 2169 3072 
Q 1681 3072 1420 2755 
Q 1159 2438 1159 1844 
L 1159 0 
L 581 0 
L 581 3500 
L 1159 3500 
L 1159 2956 
Q 1341 3275 1631 3429 
Q 1922 3584 2338 3584 
Q 2397 3584 2469 3576 
Q 2541 3569 2628 3553 
L 2631 2963 
z
" transform="scale(0.015625)"/>
      <path id="DejaVuSans-65" d="M 3597 1894 
L 3597 1613 
L 953 1613 
Q 991 1019 1311 708 
Q 1631 397 2203 397 
Q 2534 397 2845 478 
Q 3156 559 3463 722 
L 3463 178 
Q 3153 47 2828 -22 
Q 2503 -91 2169 -91 
Q 1331 -91 842 396 
Q 353 884 353 1716 
Q 353 2575 817 3079 
Q 1281 3584 2069 3584 
Q 2775 3584 3186 3129 
Q 3597 2675 3597 1894 
z
M 3022 2063 
Q 3016 2534 2758 2815 
Q 2500 3097 2075 3097 
Q 1594 3097 1305 2825 
Q 1016 2553 972 2059 
L 3022 2063 
z
" transform="scale(0.015625)"/>
      <path id="DejaVuSans-69" d="M 603 3500 
L 1178 3500 
L 1178 0 
L 603 0 
L 603 3500 
z
M 603 4863 
L 1178 4863 
L 1178 4134 
L 603 4134 
L 603 4863 
z
" transform="scale(0.015625)"/>
      <path id="DejaVuSans-6c" d="M 603 4863 
L 1178 4863 
L 1178 0 
L 603 0 
L 603 4863 
z
" transform="scale(0.015625)"/>
      <path id="DejaVuSans-20" transform="scale(0.015625)"/>
      <path id="DejaVuSans-6e" d="M 3513 2113 
L 3513 0 
L 2938 0 
L 2938 2094 
Q 2938 2591 2744 2837 
Q 2550 3084 2163 3084 
Q 1697 3084 1428 2787 
Q 1159 2491 1159 1978 
L 1159 0 
L 581 0 
L 581 3500 
L 1159 3500 
L 1159 2956 
Q 1366 3272 1645 3428 
Q 1925 3584 2291 3584 
Q 2894 3584 3203 3211 
Q 3513 2838 3513 2113 
z
" transform="scale(0.015625)"/>
      <path id="DejaVuSans-67" d="M 2906 1791 
Q 2906 2416 2648 2759 
Q 2391 3103 1925 3103 
Q 1463 3103 1205 2759 
Q 947 2416 947 1791 
Q 947 1169 1205 825 
Q 1463 481 1925 481 
Q 2391 481 2648 825 
Q 2906 1169 2906 1791 
z
M 3481 434 
Q 3481 -459 3084 -895 
Q 2688 -1331 1869 -1331 
Q 1566 -1331 1297 -1286 
Q 1028 -1241 775 -1147 
L 775 -588 
Q 1028 -725 1275 -790 
Q 1522 -856 1778 -856 
Q 2344 -856 2625 -561 
Q 2906 -266 2906 331 
L 2906 616 
Q 2728 306 2450 153 
Q 2172 0 1784 0 
Q 1141 0 747 490 
Q 353 981 353 1791 
Q 353 2603 747 3093 
Q 1141 3584 1784 3584 
Q 2172 3584 2450 3431 
Q 2728 3278 2906 2969 
L 2906 3500 
L 3481 3500 
L 3481 434 
z
" transform="scale(0.015625)"/>
      <path id="DejaVuSans-47" d="M 3809 666 
L 3809 1919 
L 2778 1919 
L 2778 2438 
L 4434 2438 
L 4434 434 
Q 4069 175 3628 42 
Q 3188 -91 2688 -91 
Q 1594 -91 976 548 
Q 359 1188 359 2328 
Q 359 3472 976 4111 
Q 1594 4750 2688 4750 
Q 3144 4750 3555 4637 
Q 3966 4525 4313 4306 
L 4313 3634 
Q 3963 3931 3569 4081 
Q 3175 4231 2741 4231 
Q 1884 4231 1454 3753 
Q 1025 3275 1025 2328 
Q 1025 1384 1454 906 
Q 1884 428 2741 428 
Q 3075 428 3337 486 
Q 3600 544 3809 666 
z
" transform="scale(0.015625)"/>
      <path id="DejaVuSans-4e" d="M 628 4666 
L 1478 4666 
L 3547 763 
L 3547 4666 
L 4159 4666 
L 4159 0 
L 3309 0 
L 1241 3903 
L 1241 0 
L 628 0 
L 628 4666 
z
" transform="scale(0.015625)"/>
      <path id="DejaVuSans-55" d="M 556 4666 
L 1191 4666 
L 1191 1831 
Q 1191 1081 1462 751 
Q 1734 422 2344 422 
Q 2950 422 3222 751 
Q 3494 1081 3494 1831 
L 3494 4666 
L 4128 4666 
L 4128 1753 
Q 4128 841 3676 375 
Q 3225 -91 2344 -91 
Q 1459 -91 1007 375 
Q 556 841 556 1753 
L 556 4666 
z
" transform="scale(0.015625)"/>
      <path id="DejaVuSans-27" d="M 1147 4666 
L 1147 2931 
L 616 2931 
L 616 4666 
L 1147 4666 
z
" transform="scale(0.015625)"/>
     </defs>
     <use xlink:href="#DejaVuSans-52"/>
     <use xlink:href="#DejaVuSans-75" x="64.982422"/>
     <use xlink:href="#DejaVuSans-73" x="128.361328"/>
     <use xlink:href="#DejaVuSans-74" x="180.460938"/>
     <use xlink:href="#DejaVuSans-2f" x="219.669922"/>
     <use xlink:href="#DejaVuSans-43" x="253.361328"/>
     <use xlink:href="#DejaVuSans-6f" x="323.185547"/>
     <use xlink:href="#DejaVuSans-72" x="384.367188"/>
     <use xlink:href="#DejaVuSans-65" x="423.230469"/>
     <use xlink:href="#DejaVuSans-75" x="484.753906"/>
     <use xlink:href="#DejaVuSans-74" x="548.132812"/>
     <use xlink:href="#DejaVuSans-69" x="587.341797"/>
     <use xlink:href="#DejaVuSans-6c" x="615.125"/>
     <use xlink:href="#DejaVuSans-73" x="642.908203"/>
     <use xlink:href="#DejaVuSans-20" x="695.007812"/>
     <use xlink:href="#DejaVuSans-72" x="726.794922"/>
     <use xlink:href="#DejaVuSans-75" x="767.908203"/>
     <use xlink:href="#DejaVuSans-6e" x="831.287109"/>
     <use xlink:href="#DejaVuSans-6e" x="894.666016"/>
     <use xlink:href="#DejaVuSans-69" x="958.044922"/>
     <use xlink:href="#DejaVuSans-6e" x="985.828125"/>
     <use xlink:href="#DejaVuSans-67" x="1049.207031"/>
     <use xlink:href="#DejaVuSans-20" x="1112.683594"/>
     <use xlink:href="#DejaVuSans-47" x="1144.470703"/>
     <use xlink:href="#DejaVuSans-4e" x="1221.960938"/>
     <use xlink:href="#DejaVuSans-55" x="1296.765625"/>
     <use xlink:href="#DejaVuSans-27" x="1369.958984"/>
     <use xlink:href="#DejaVuSans-73" x="1397.449219"/>
     <use xlink:href="#DejaVuSans-20" x="1449.548828"/>
     <use xlink:href="#DejaVuSans-74" x="1481.335938"/>
     <use xlink:href="#DejaVuSans-65" x="1520.544922"/>
     <use xlink:href="#DejaVuSans-73" x="1582.068359"/>
     <use xlink:href="#DejaVuSans-74" x="1634.167969"/>
     <use xlink:href="#DejaVuSans-73" x="1673.376953"/>
     <use xlink:href="#DejaVuSans-75" x="1725.476562"/>
     <use xlink:href="#DejaVuSans-69" x="1788.855469"/>
     <use xlink:href="#DejaVuSans-74" x="1816.638672"/>
     <use xlink:href="#DejaVuSans-65" x="1855.847656"/>
    </g>
   </g>
   <g id="legend_1">
    <g id="patch_7">
     <path d="M 505.762812 236.769437 
L 561.9675 236.769437 
Q 563.9675 236.769437 563.9675 234.769437 
L 563.9675 162.378812 
Q 563.9675 160.378812 561.9675 160.378812 
L 505.762812 160.378812 
Q 503.762812 160.378812 503.762812 162.378812 
L 503.762812 234.769437 
Q 503.762812 236.769437 505.762812 236.769437 
z
" style="fill: #ffffff; opacity: 0.8; stroke: #cccccc; stroke-linejoin: miter"/>
    </g>
    <g id="line2d_21">
     <path d="M 507.762812 168.47725 
L 517.762812 168.47725 
L 527.762812 168.47725 
" style="fill: none; stroke: #0000ff; stroke-width: 1.5; stroke-linecap: square"/>
    </g>
    <g id="text_17">
     <!-- total -->
     <g transform="translate(535.762812 171.97725) scale(0.1 -0.1)">
      <defs>
       <path id="DejaVuSans-61" d="M 2194 1759 
Q 1497 1759 1228 1600 
Q 959 1441 959 1056 
Q 959 750 1161 570 
Q 1363 391 1709 391 
Q 2188 391 2477 730 
Q 2766 1069 2766 1631 
L 2766 1759 
L 2194 1759 
z
M 3341 1997 
L 3341 0 
L 2766 0 
L 2766 531 
Q 2569 213 2275 61 
Q 1981 -91 1556 -91 
Q 1019 -91 701 211 
Q 384 513 384 1019 
Q 384 1609 779 1909 
Q 1175 2209 1959 2209 
L 2766 2209 
L 2766 2266 
Q 2766 2663 2505 2880 
Q 2244 3097 1772 3097 
Q 1472 3097 1187 3025 
Q 903 2953 641 2809 
L 641 3341 
Q 956 3463 1253 3523 
Q 1550 3584 1831 3584 
Q 2591 3584 2966 3190 
Q 3341 2797 3341 1997 
z
" transform="scale(0.015625)"/>
      </defs>
      <use xlink:href="#DejaVuSans-74"/>
      <use xlink:href="#DejaVuSans-6f" x="39.208984"/>
      <use xlink:href="#DejaVuSans-74" x="100.390625"/>
      <use xlink:href="#DejaVuSans-61" x="139.599609"/>
      <use xlink:href="#DejaVuSans-6c" x="200.878906"/>
     </g>
    </g>
    <g id="line2d_22">
     <path d="M 507.762812 183.155375 
L 517.762812 183.155375 
L 527.762812 183.155375 
" style="fill: none; stroke-dasharray: 3,1.5; stroke-dashoffset: 0; stroke: #808080; stroke-width: 1.5"/>
    </g>
    <g id="text_18">
     <!-- fail -->
     <g transform="translate(535.762812 186.655375) scale(0.1 -0.1)">
      <defs>
       <path id="DejaVuSans-66" d="M 2375 4863 
L 2375 4384 
L 1825 4384 
Q 1516 4384 1395 4259 
Q 1275 4134 1275 3809 
L 1275 3500 
L 2222 3500 
L 2222 3053 
L 1275 3053 
L 1275 0 
L 697 0 
L 697 3053 
L 147 3053 
L 147 3500 
L 697 3500 
L 697 3744 
Q 697 4328 969 4595 
Q 1241 4863 1831 4863 
L 2375 4863 
z
" transform="scale(0.015625)"/>
      </defs>
      <use xlink:href="#DejaVuSans-66"/>
      <use xlink:href="#DejaVuSans-61" x="35.205078"/>
      <use xlink:href="#DejaVuSans-69" x="96.484375"/>
      <use xlink:href="#DejaVuSans-6c" x="124.267578"/>
     </g>
    </g>
    <g id="line2d_23">
     <path d="M 507.762812 197.8335 
L 517.762812 197.8335 
L 527.762812 197.8335 
" style="fill: none; stroke-dasharray: 6,1.5; stroke-dashoffset: 0; stroke: #008000; stroke-width: 1.5"/>
    </g>
    <g id="text_19">
     <!-- pass -->
     <g transform="translate(535.762812 201.3335) scale(0.1 -0.1)">
      <defs>
       <path id="DejaVuSans-70" d="M 1159 525 
L 1159 -1331 
L 581 -1331 
L 581 3500 
L 1159 3500 
L 1159 2969 
Q 1341 3281 1617 3432 
Q 1894 3584 2278 3584 
Q 2916 3584 3314 3078 
Q 3713 2572 3713 1747 
Q 3713 922 3314 415 
Q 2916 -91 2278 -91 
Q 1894 -91 1617 61 
Q 1341 213 1159 525 
z
M 3116 1747 
Q 3116 2381 2855 2742 
Q 2594 3103 2138 3103 
Q 1681 3103 1420 2742 
Q 1159 2381 1159 1747 
Q 1159 1113 1420 752 
Q 1681 391 2138 391 
Q 2594 391 2855 752 
Q 3116 1113 3116 1747 
z
" transform="scale(0.015625)"/>
      </defs>
      <use xlink:href="#DejaVuSans-70"/>
      <use xlink:href="#DejaVuSans-61" x="63.476562"/>
      <use xlink:href="#DejaVuSans-73" x="124.755859"/>
      <use xlink:href="#DejaVuSans-73" x="176.855469"/>
     </g>
    </g>
    <g id="line2d_24">
     <path d="M 507.762812 212.511625 
L 517.762812 212.511625 
L 527.762812 212.511625 
" style="fill: none; stroke-dasharray: 9,3; stroke-dashoffset: 0; stroke: #ffa500; stroke-width: 1.5"/>
    </g>
    <g id="text_20">
     <!-- error -->
     <g transform="translate(535.762812 216.011625) scale(0.1 -0.1)">
      <use xlink:href="#DejaVuSans-65"/>
      <use xlink:href="#DejaVuSans-72" x="61.523438"/>
      <use xlink:href="#DejaVuSans-72" x="100.886719"/>
      <use xlink:href="#DejaVuSans-6f" x="139.75"/>
      <use xlink:href="#DejaVuSans-72" x="200.931641"/>
     </g>
    </g>
    <g id="line2d_25">
     <path d="M 507.762812 227.18975 
L 517.762812 227.18975 
L 527.762812 227.18975 
" style="fill: none; stroke-dasharray: 12,4.5; stroke-dashoffset: 0; stroke: #ee82ee; stroke-width: 1.5"/>
    </g>
    <g id="text_21">
     <!-- skip -->
     <g transform="translate(535.762812 230.68975) scale(0.1 -0.1)">
      <defs>
       <path id="DejaVuSans-6b" d="M 581 4863 
L 1159 4863 
L 1159 1991 
L 2875 3500 
L 3609 3500 
L 1753 1863 
L 3688 0 
L 2938 0 
L 1159 1709 
L 1159 0 
L 581 0 
L 581 4863 
z
" transform="scale(0.015625)"/>
      </defs>
      <use xlink:href="#DejaVuSans-73"/>
      <use xlink:href="#DejaVuSans-6b" x="52.099609"/>
      <use xlink:href="#DejaVuSans-69" x="110.009766"/>
      <use xlink:href="#DejaVuSans-70" x="137.792969"/>
     </g>
    </g>
   </g>
  </g>
 </g>
 <defs>
  <clipPath id="p0e0fc24a48">
   <rect x="33.2875" y="22.318125" width="535.68" height="352.512"/>
  </clipPath>
 </defs>
</svg>
