<?xml version="1.0" encoding="utf-8" standalone="no"?>
<!DOCTYPE svg PUBLIC "-//W3C//DTD SVG 1.1//EN"
  "http://www.w3.org/Graphics/SVG/1.1/DTD/svg11.dtd">
<svg xmlns:xlink="http://www.w3.org/1999/xlink" width="576.1675pt" height="418.303033pt" viewBox="0 0 576.1675 418.303033" xmlns="http://www.w3.org/2000/svg" version="1.1">
 <metadata>
  <rdf:RDF xmlns:dc="http://purl.org/dc/elements/1.1/" xmlns:cc="http://creativecommons.org/ns#" xmlns:rdf="http://www.w3.org/1999/02/22-rdf-syntax-ns#">
   <cc:Work>
    <dc:type rdf:resource="http://purl.org/dc/dcmitype/StillImage"/>
    <dc:date>2025-08-23T02:29:28.259866</dc:date>
    <dc:format>image/svg+xml</dc:format>
    <dc:creator>
     <cc:Agent>
      <dc:title>Matplotlib v3.6.3, https://matplotlib.org/</dc:title>
     </cc:Agent>
    </dc:creator>
   </cc:Work>
  </rdf:RDF>
 </metadata>
 <defs>
  <style type="text/css">*{stroke-linejoin: round; stroke-linecap: butt}</style>
 </defs>
 <g id="figure_1">
  <g id="patch_1">
   <path d="M -0 418.303033 
L 576.1675 418.303033 
L 576.1675 0 
L -0 0 
z
" style="fill: #ffffff"/>
  </g>
  <g id="axes_1">
   <g id="patch_2">
    <path d="M 33.2875 374.830125 
L 568.9675 374.830125 
L 568.9675 22.318125 
L 33.2875 22.318125 
z
" style="fill: #ffffff"/>
   </g>
   <g id="matplotlib.axis_1">
    <g id="xtick_1">
     <g id="line2d_1">
      <defs>
       <path id="m626ca6c4f5" d="M 0 0 
L 0 3.5 
" style="stroke: #000000; stroke-width: 0.8"/>
      </defs>
      <g>
       <use xlink:href="#m626ca6c4f5" x="62.196199" y="374.830125" style="stroke: #000000; stroke-width: 0.8"/>
      </g>
     </g>
     <g id="text_1">
      <!-- 2021-07 -->
      <g transform="translate(24.971378 409.301971) rotate(-30) scale(0.1 -0.1)">
       <defs>
        <path id="DejaVuSans-32" d="M 1228 531 
L 3431 531 
L 3431 0 
L 469 0 
L 469 531 
Q 828 903 1448 1529 
Q 2069 2156 2228 2338 
Q 2531 2678 2651 2914 
Q 2772 3150 2772 3378 
Q 2772 3750 2511 3984 
Q 2250 4219 1831 4219 
Q 1534 4219 1204 4116 
Q 875 4013 500 3803 
L 500 4441 
Q 881 4594 1212 4672 
Q 1544 4750 1819 4750 
Q 2544 4750 2975 4387 
Q 3406 4025 3406 3419 
Q 3406 3131 3298 2873 
Q 3191 2616 2906 2266 
Q 2828 2175 2409 1742 
Q 1991 1309 1228 531 
z
" transform="scale(0.015625)"/>
        <path id="DejaVuSans-30" d="M 2034 4250 
Q 1547 4250 1301 3770 
Q 1056 3291 1056 2328 
Q 1056 1369 1301 889 
Q 1547 409 2034 409 
Q 2525 409 2770 889 
Q 3016 1369 3016 2328 
Q 3016 3291 2770 3770 
Q 2525 4250 2034 4250 
z
M 2034 4750 
Q 2819 4750 3233 4129 
Q 3647 3509 3647 2328 
Q 3647 1150 3233 529 
Q 2819 -91 2034 -91 
Q 1250 -91 836 529 
Q 422 1150 422 2328 
Q 422 3509 836 4129 
Q 1250 4750 2034 4750 
z
" transform="scale(0.015625)"/>
        <path id="DejaVuSans-31" d="M 794 531 
L 1825 531 
L 1825 4091 
L 703 3866 
L 703 4441 
L 1819 4666 
L 2450 4666 
L 2450 531 
L 3481 531 
L 3481 0 
L 794 0 
L 794 531 
z
" transform="scale(0.015625)"/>
        <path id="DejaVuSans-2d" d="M 313 2009 
L 1997 2009 
L 1997 1497 
L 313 1497 
L 313 2009 
z
" transform="scale(0.015625)"/>
        <path id="DejaVuSans-37" d="M 525 4666 
L 3525 4666 
L 3525 4397 
L 1831 0 
L 1172 0 
L 2766 4134 
L 525 4134 
L 525 4666 
z
" transform="scale(0.015625)"/>
       </defs>
       <use xlink:href="#DejaVuSans-32"/>
       <use xlink:href="#DejaVuSans-30" x="63.623047"/>
       <use xlink:href="#DejaVuSans-32" x="127.246094"/>
       <use xlink:href="#DejaVuSans-31" x="190.869141"/>
       <use xlink:href="#DejaVuSans-2d" x="254.492188"/>
       <use xlink:href="#DejaVuSans-30" x="290.576172"/>
       <use xlink:href="#DejaVuSans-37" x="354.199219"/>
      </g>
     </g>
    </g>
    <g id="xtick_2">
     <g id="line2d_2">
      <g>
       <use xlink:href="#m626ca6c4f5" x="123.150304" y="374.830125" style="stroke: #000000; stroke-width: 0.8"/>
      </g>
     </g>
     <g id="text_2">
      <!-- 2022-01 -->
      <g transform="translate(85.925483 409.301971) rotate(-30) scale(0.1 -0.1)">
       <use xlink:href="#DejaVuSans-32"/>
       <use xlink:href="#DejaVuSans-30" x="63.623047"/>
       <use xlink:href="#DejaVuSans-32" x="127.246094"/>
       <use xlink:href="#DejaVuSans-32" x="190.869141"/>
       <use xlink:href="#DejaVuSans-2d" x="254.492188"/>
       <use xlink:href="#DejaVuSans-30" x="290.576172"/>
       <use xlink:href="#DejaVuSans-31" x="354.199219"/>
      </g>
     </g>
    </g>
    <g id="xtick_3">
     <g id="line2d_3">
      <g>
       <use xlink:href="#m626ca6c4f5" x="183.110593" y="374.830125" style="stroke: #000000; stroke-width: 0.8"/>
      </g>
     </g>
     <g id="text_3">
      <!-- 2022-07 -->
      <g transform="translate(145.885772 409.301971) rotate(-30) scale(0.1 -0.1)">
       <use xlink:href="#DejaVuSans-32"/>
       <use xlink:href="#DejaVuSans-30" x="63.623047"/>
       <use xlink:href="#DejaVuSans-32" x="127.246094"/>
       <use xlink:href="#DejaVuSans-32" x="190.869141"/>
       <use xlink:href="#DejaVuSans-2d" x="254.492188"/>
       <use xlink:href="#DejaVuSans-30" x="290.576172"/>
       <use xlink:href="#DejaVuSans-37" x="354.199219"/>
      </g>
     </g>
    </g>
    <g id="xtick_4">
     <g id="line2d_4">
      <g>
       <use xlink:href="#m626ca6c4f5" x="244.064698" y="374.830125" style="stroke: #000000; stroke-width: 0.8"/>
      </g>
     </g>
     <g id="text_4">
      <!-- 2023-01 -->
      <g transform="translate(206.839877 409.301971) rotate(-30) scale(0.1 -0.1)">
       <defs>
        <path id="DejaVuSans-33" d="M 2597 2516 
Q 3050 2419 3304 2112 
Q 3559 1806 3559 1356 
Q 3559 666 3084 287 
Q 2609 -91 1734 -91 
Q 1441 -91 1130 -33 
Q 819 25 488 141 
L 488 750 
Q 750 597 1062 519 
Q 1375 441 1716 441 
Q 2309 441 2620 675 
Q 2931 909 2931 1356 
Q 2931 1769 2642 2001 
Q 2353 2234 1838 2234 
L 1294 2234 
L 1294 2753 
L 1863 2753 
Q 2328 2753 2575 2939 
Q 2822 3125 2822 3475 
Q 2822 3834 2567 4026 
Q 2313 4219 1838 4219 
Q 1578 4219 1281 4162 
Q 984 4106 628 3988 
L 628 4550 
Q 988 4650 1302 4700 
Q 1616 4750 1894 4750 
Q 2613 4750 3031 4423 
Q 3450 4097 3450 3541 
Q 3450 3153 3228 2886 
Q 3006 2619 2597 2516 
z
" transform="scale(0.015625)"/>
       </defs>
       <use xlink:href="#DejaVuSans-32"/>
       <use xlink:href="#DejaVuSans-30" x="63.623047"/>
       <use xlink:href="#DejaVuSans-32" x="127.246094"/>
       <use xlink:href="#DejaVuSans-33" x="190.869141"/>
       <use xlink:href="#DejaVuSans-2d" x="254.492188"/>
       <use xlink:href="#DejaVuSans-30" x="290.576172"/>
       <use xlink:href="#DejaVuSans-31" x="354.199219"/>
      </g>
     </g>
    </g>
    <g id="xtick_5">
     <g id="line2d_5">
      <g>
       <use xlink:href="#m626ca6c4f5" x="304.024986" y="374.830125" style="stroke: #000000; stroke-width: 0.8"/>
      </g>
     </g>
     <g id="text_5">
      <!-- 2023-07 -->
      <g transform="translate(266.800165 409.301971) rotate(-30) scale(0.1 -0.1)">
       <use xlink:href="#DejaVuSans-32"/>
       <use xlink:href="#DejaVuSans-30" x="63.623047"/>
       <use xlink:href="#DejaVuSans-32" x="127.246094"/>
       <use xlink:href="#DejaVuSans-33" x="190.869141"/>
       <use xlink:href="#DejaVuSans-2d" x="254.492188"/>
       <use xlink:href="#DejaVuSans-30" x="290.576172"/>
       <use xlink:href="#DejaVuSans-37" x="354.199219"/>
      </g>
     </g>
    </g>
    <g id="xtick_6">
     <g id="line2d_6">
      <g>
       <use xlink:href="#m626ca6c4f5" x="364.979092" y="374.830125" style="stroke: #000000; stroke-width: 0.8"/>
      </g>
     </g>
     <g id="text_6">
      <!-- 2024-01 -->
      <g transform="translate(327.754271 409.301971) rotate(-30) scale(0.1 -0.1)">
       <defs>
        <path id="DejaVuSans-34" d="M 2419 4116 
L 825 1625 
L 2419 1625 
L 2419 4116 
z
M 2253 4666 
L 3047 4666 
L 3047 1625 
L 3713 1625 
L 3713 1100 
L 3047 1100 
L 3047 0 
L 2419 0 
L 2419 1100 
L 313 1100 
L 313 1709 
L 2253 4666 
z
" transform="scale(0.015625)"/>
       </defs>
       <use xlink:href="#DejaVuSans-32"/>
       <use xlink:href="#DejaVuSans-30" x="63.623047"/>
       <use xlink:href="#DejaVuSans-32" x="127.246094"/>
       <use xlink:href="#DejaVuSans-34" x="190.869141"/>
       <use xlink:href="#DejaVuSans-2d" x="254.492188"/>
       <use xlink:href="#DejaVuSans-30" x="290.576172"/>
       <use xlink:href="#DejaVuSans-31" x="354.199219"/>
      </g>
     </g>
    </g>
    <g id="xtick_7">
     <g id="line2d_7">
      <g>
       <use xlink:href="#m626ca6c4f5" x="425.270652" y="374.830125" style="stroke: #000000; stroke-width: 0.8"/>
      </g>
     </g>
     <g id="text_7">
      <!-- 2024-07 -->
      <g transform="translate(388.045832 409.301971) rotate(-30) scale(0.1 -0.1)">
       <use xlink:href="#DejaVuSans-32"/>
       <use xlink:href="#DejaVuSans-30" x="63.623047"/>
       <use xlink:href="#DejaVuSans-32" x="127.246094"/>
       <use xlink:href="#DejaVuSans-34" x="190.869141"/>
       <use xlink:href="#DejaVuSans-2d" x="254.492188"/>
       <use xlink:href="#DejaVuSans-30" x="290.576172"/>
       <use xlink:href="#DejaVuSans-37" x="354.199219"/>
      </g>
     </g>
    </g>
    <g id="xtick_8">
     <g id="line2d_8">
      <g>
       <use xlink:href="#m626ca6c4f5" x="486.224758" y="374.830125" style="stroke: #000000; stroke-width: 0.8"/>
      </g>
     </g>
     <g id="text_8">
      <!-- 2025-01 -->
      <g transform="translate(448.999937 409.301971) rotate(-30) scale(0.1 -0.1)">
       <defs>
        <path id="DejaVuSans-35" d="M 691 4666 
L 3169 4666 
L 3169 4134 
L 1269 4134 
L 1269 2991 
Q 1406 3038 1543 3061 
Q 1681 3084 1819 3084 
Q 2600 3084 3056 2656 
Q 3513 2228 3513 1497 
Q 3513 744 3044 326 
Q 2575 -91 1722 -91 
Q 1428 -91 1123 -41 
Q 819 9 494 109 
L 494 744 
Q 775 591 1075 516 
Q 1375 441 1709 441 
Q 2250 441 2565 725 
Q 2881 1009 2881 1497 
Q 2881 1984 2565 2268 
Q 2250 2553 1709 2553 
Q 1456 2553 1204 2497 
Q 953 2441 691 2322 
L 691 4666 
z
" transform="scale(0.015625)"/>
       </defs>
       <use xlink:href="#DejaVuSans-32"/>
       <use xlink:href="#DejaVuSans-30" x="63.623047"/>
       <use xlink:href="#DejaVuSans-32" x="127.246094"/>
       <use xlink:href="#DejaVuSans-35" x="190.869141"/>
       <use xlink:href="#DejaVuSans-2d" x="254.492188"/>
       <use xlink:href="#DejaVuSans-30" x="290.576172"/>
       <use xlink:href="#DejaVuSans-31" x="354.199219"/>
      </g>
     </g>
    </g>
    <g id="xtick_9">
     <g id="line2d_9">
      <g>
       <use xlink:href="#m626ca6c4f5" x="546.185046" y="374.830125" style="stroke: #000000; stroke-width: 0.8"/>
      </g>
     </g>
     <g id="text_9">
      <!-- 2025-07 -->
      <g transform="translate(508.960225 409.301971) rotate(-30) scale(0.1 -0.1)">
       <use xlink:href="#DejaVuSans-32"/>
       <use xlink:href="#DejaVuSans-30" x="63.623047"/>
       <use xlink:href="#DejaVuSans-32" x="127.246094"/>
       <use xlink:href="#DejaVuSans-35" x="190.869141"/>
       <use xlink:href="#DejaVuSans-2d" x="254.492188"/>
       <use xlink:href="#DejaVuSans-30" x="290.576172"/>
       <use xlink:href="#DejaVuSans-37" x="354.199219"/>
      </g>
     </g>
    </g>
   </g>
   <g id="matplotlib.axis_2">
    <g id="ytick_1">
     <g id="line2d_10">
      <defs>
       <path id="m0ca53bd7ff" d="M 0 0 
L -3.5 0 
" style="stroke: #000000; stroke-width: 0.8"/>
      </defs>
      <g>
       <use xlink:href="#m0ca53bd7ff" x="33.2875" y="374.830125" style="stroke: #000000; stroke-width: 0.8"/>
      </g>
     </g>
     <g id="text_10">
      <!-- 0 -->
      <g transform="translate(19.925 378.629344) scale(0.1 -0.1)">
       <use xlink:href="#DejaVuSans-30"/>
      </g>
     </g>
    </g>
    <g id="ytick_2">
     <g id="line2d_11">
      <g>
       <use xlink:href="#m0ca53bd7ff" x="33.2875" y="318.897147" style="stroke: #000000; stroke-width: 0.8"/>
      </g>
     </g>
     <g id="text_11">
      <!-- 100 -->
      <g transform="translate(7.2 322.696366) scale(0.1 -0.1)">
       <use xlink:href="#DejaVuSans-31"/>
       <use xlink:href="#DejaVuSans-30" x="63.623047"/>
       <use xlink:href="#DejaVuSans-30" x="127.246094"/>
      </g>
     </g>
    </g>
    <g id="ytick_3">
     <g id="line2d_12">
      <g>
       <use xlink:href="#m0ca53bd7ff" x="33.2875" y="262.964169" style="stroke: #000000; stroke-width: 0.8"/>
      </g>
     </g>
     <g id="text_12">
      <!-- 200 -->
      <g transform="translate(7.2 266.763388) scale(0.1 -0.1)">
       <use xlink:href="#DejaVuSans-32"/>
       <use xlink:href="#DejaVuSans-30" x="63.623047"/>
       <use xlink:href="#DejaVuSans-30" x="127.246094"/>
      </g>
     </g>
    </g>
    <g id="ytick_4">
     <g id="line2d_13">
      <g>
       <use xlink:href="#m0ca53bd7ff" x="33.2875" y="207.031191" style="stroke: #000000; stroke-width: 0.8"/>
      </g>
     </g>
     <g id="text_13">
      <!-- 300 -->
      <g transform="translate(7.2 210.83041) scale(0.1 -0.1)">
       <use xlink:href="#DejaVuSans-33"/>
       <use xlink:href="#DejaVuSans-30" x="63.623047"/>
       <use xlink:href="#DejaVuSans-30" x="127.246094"/>
      </g>
     </g>
    </g>
    <g id="ytick_5">
     <g id="line2d_14">
      <g>
       <use xlink:href="#m0ca53bd7ff" x="33.2875" y="151.098213" style="stroke: #000000; stroke-width: 0.8"/>
      </g>
     </g>
     <g id="text_14">
      <!-- 400 -->
      <g transform="translate(7.2 154.897432) scale(0.1 -0.1)">
       <use xlink:href="#DejaVuSans-34"/>
       <use xlink:href="#DejaVuSans-30" x="63.623047"/>
       <use xlink:href="#DejaVuSans-30" x="127.246094"/>
      </g>
     </g>
    </g>
    <g id="ytick_6">
     <g id="line2d_15">
      <g>
       <use xlink:href="#m0ca53bd7ff" x="33.2875" y="95.165235" style="stroke: #000000; stroke-width: 0.8"/>
      </g>
     </g>
     <g id="text_15">
      <!-- 500 -->
      <g transform="translate(7.2 98.964454) scale(0.1 -0.1)">
       <use xlink:href="#DejaVuSans-35"/>
       <use xlink:href="#DejaVuSans-30" x="63.623047"/>
       <use xlink:href="#DejaVuSans-30" x="127.246094"/>
      </g>
     </g>
    </g>
    <g id="ytick_7">
     <g id="line2d_16">
      <g>
       <use xlink:href="#m0ca53bd7ff" x="33.2875" y="39.232258" style="stroke: #000000; stroke-width: 0.8"/>
      </g>
     </g>
     <g id="text_16">
      <!-- 600 -->
      <g transform="translate(7.2 43.031476) scale(0.1 -0.1)">
       <defs>
        <path id="DejaVuSans-36" d="M 2113 2584 
Q 1688 2584 1439 2293 
Q 1191 2003 1191 1497 
Q 1191 994 1439 701 
Q 1688 409 2113 409 
Q 2538 409 2786 701 
Q 3034 994 3034 1497 
Q 3034 2003 2786 2293 
Q 2538 2584 2113 2584 
z
M 3366 4563 
L 3366 3988 
Q 3128 4100 2886 4159 
Q 2644 4219 2406 4219 
Q 1781 4219 1451 3797 
Q 1122 3375 1075 2522 
Q 1259 2794 1537 2939 
Q 1816 3084 2150 3084 
Q 2853 3084 3261 2657 
Q 3669 2231 3669 1497 
Q 3669 778 3244 343 
Q 2819 -91 2113 -91 
Q 1303 -91 875 529 
Q 447 1150 447 2328 
Q 447 3434 972 4092 
Q 1497 4750 2381 4750 
Q 2619 4750 2861 4703 
Q 3103 4656 3366 4563 
z
" transform="scale(0.015625)"/>
       </defs>
       <use xlink:href="#DejaVuSans-36"/>
       <use xlink:href="#DejaVuSans-30" x="63.623047"/>
       <use xlink:href="#DejaVuSans-30" x="127.246094"/>
      </g>
     </g>
    </g>
   </g>
   <g id="line2d_17">
    <path d="M 38.539265 25.808343 
L 48.389685 25.808343 
L 48.501194 29.164321 
L 49.880315 29.164321 
L 50.385152 38.672928 
L 131.763925 38.672928 
L 132.169093 33.07963 
L 145.711018 33.07963 
L 146.506509 33.63896 
L 152.857325 33.63896 
L 153.079419 44.825555 
L 159.519871 44.825555 
L 160.854588 43.147566 
L 271.191844 43.147566 
L 271.506096 39.232258 
L 280.153841 39.232258 
L 280.462492 38.113598 
L 323.867431 38.113598 
L 324.083586 36.994938 
L 394.224394 36.994938 
L 394.425331 32.5203 
L 447.600852 32.5203 
L 447.692309 31.96097 
L 488.308978 31.96097 
L 488.682242 31.401641 
L 492.376864 31.401641 
L 492.499454 29.164321 
L 493.982158 29.164321 
L 494.367408 29.723651 
L 519.996946 29.723651 
L 520.313353 29.164321 
L 563.715735 29.164321 
L 563.715735 29.164321 
" clip-path="url(#p4a624a29db)" style="fill: none; stroke: #0000ff; stroke-width: 1.5; stroke-linecap: square"/>
   </g>
   <g id="line2d_18">
    <path d="M 38.539265 168.996766 
L 39.89357 167.878107 
L 41.243505 168.996766 
L 44.440283 168.996766 
L 47.965112 170.115426 
L 48.226603 169.556096 
L 48.389685 169.556096 
L 48.501194 172.912075 
L 48.758555 172.352745 
L 49.1392 172.912075 
L 49.880315 172.912075 
L 50.293079 185.21733 
L 50.385152 182.420681 
L 50.599398 185.77666 
L 50.667531 185.21733 
L 50.907612 185.21733 
L 51.29165 185.77666 
L 52.215938 185.77666 
L 52.243529 186.335989 
L 52.744551 186.335989 
L 52.956627 185.77666 
L 53.576666 189.691968 
L 53.648284 189.132638 
L 53.952744 189.691968 
L 54.541688 191.369957 
L 54.941155 190.251298 
L 55.572562 190.251298 
L 55.925425 191.369957 
L 56.163964 191.369957 
L 56.88261 191.929287 
L 57.205087 191.929287 
L 57.555749 193.047947 
L 57.869311 192.488617 
L 58.217507 193.607277 
L 58.579299 195.844596 
L 59.978227 196.963255 
L 60.572263 196.963255 
L 60.826721 197.522585 
L 61.23215 197.522585 
L 61.530629 198.081915 
L 61.834671 197.522585 
L 62.173662 197.522585 
L 62.372176 198.081915 
L 65.806442 198.081915 
L 66.153051 198.641245 
L 66.485194 198.641245 
L 66.61416 198.081915 
L 67.434469 198.641245 
L 67.778275 198.081915 
L 68.726182 198.081915 
L 69.030515 198.641245 
L 69.404677 198.081915 
L 71.129965 198.081915 
L 71.483453 198.641245 
L 71.677481 200.319234 
L 72.149724 199.200574 
L 73.247819 199.200574 
L 73.792631 199.759904 
L 74.122052 199.759904 
L 74.44199 200.319234 
L 74.799094 200.319234 
L 75.126973 199.759904 
L 75.440278 201.437893 
L 75.718432 201.437893 
L 76.474668 202.556553 
L 80.445135 202.556553 
L 80.760761 203.675213 
L 81.433439 203.675213 
L 81.732006 204.234542 
L 82.733391 204.234542 
L 83.691942 206.471861 
L 84.710784 206.471861 
L 85.075701 207.031191 
L 91.231232 207.031191 
L 91.970233 208.149851 
L 92.137641 207.031191 
L 93.323021 207.031191 
L 93.644915 207.590521 
L 94.000058 207.031191 
L 94.845037 207.031191 
L 95.311763 207.590521 
L 95.658245 207.031191 
L 100.890983 207.031191 
L 101.176939 212.065159 
L 101.375196 207.031191 
L 103.271546 207.031191 
L 103.615797 207.590521 
L 103.812291 212.624489 
L 104.276451 207.590521 
L 104.604277 207.590521 
L 104.821893 207.031191 
L 108.255392 207.031191 
L 108.429268 207.590521 
L 108.741301 207.590521 
L 109.255183 209.26851 
L 114.434587 209.26851 
L 115.564973 209.82784 
L 122.521489 209.82784 
L 122.811164 212.065159 
L 123.181315 212.065159 
L 123.509547 209.82784 
L 123.847245 209.82784 
L 124.079937 212.065159 
L 124.33213 209.82784 
L 124.751235 212.065159 
L 125.122479 213.183819 
L 129.427194 213.183819 
L 129.798744 213.743149 
L 131.763925 213.743149 
L 132.169093 207.590521 
L 132.458519 208.149851 
L 132.785662 209.82784 
L 133.189542 209.82784 
L 133.731077 210.9465 
L 134.104809 210.9465 
L 134.38029 211.505829 
L 134.750326 209.26851 
L 137.459665 214.861808 
L 137.736308 213.183819 
L 138.200166 212.624489 
L 139.673427 212.624489 
L 140.051346 212.065159 
L 140.384604 210.9465 
L 141.71875 210.9465 
L 141.96268 209.82784 
L 142.391731 210.9465 
L 143.360672 210.9465 
L 143.69043 212.065159 
L 144.008509 212.065159 
L 144.38522 212.624489 
L 144.537233 212.624489 
L 144.707125 214.302478 
L 144.937428 214.302478 
L 145.711018 214.861808 
L 146.350209 213.743149 
L 146.506509 213.743149 
L 147.007581 214.302478 
L 147.329073 215.421138 
L 148.990484 215.421138 
L 149.311262 215.980468 
L 149.655732 215.980468 
L 149.97465 216.539798 
L 150.273405 216.539798 
L 150.967608 217.099127 
L 151.326134 217.099127 
L 151.683655 218.777117 
L 151.89504 218.777117 
L 152.266621 218.217787 
L 152.857325 218.217787 
L 153.079419 219.895776 
L 153.627284 219.895776 
L 153.951877 221.014436 
L 154.385376 221.014436 
L 154.608671 221.573766 
L 155.099709 221.573766 
L 155.148572 222.133095 
L 155.397287 222.133095 
L 155.922112 222.692425 
L 157.115654 226.048404 
L 158.603362 226.048404 
L 158.90666 227.167063 
L 159.020865 226.607734 
L 159.153117 226.607734 
L 159.519871 226.048404 
L 160.854588 224.370414 
L 164.193885 224.370414 
L 164.580826 223.811085 
L 166.197032 223.811085 
L 166.427056 223.251755 
L 169.453696 223.251755 
L 169.843378 223.811085 
L 170.388118 223.811085 
L 170.829484 224.370414 
L 171.051567 223.811085 
L 173.179187 223.811085 
L 173.85065 224.929744 
L 175.279672 224.929744 
L 175.520266 232.760361 
L 175.791491 232.760361 
L 178.102902 234.43835 
L 178.244938 233.879021 
L 178.393118 234.43835 
L 178.777739 233.879021 
L 179.100365 233.879021 
L 179.43993 234.43835 
L 179.694926 234.43835 
L 180.104312 235.55701 
L 180.272678 235.55701 
L 180.428495 234.99768 
L 180.777738 236.11634 
L 183.099654 236.11634 
L 183.32554 236.67567 
L 184.574605 236.67567 
L 185.071924 236.11634 
L 185.444525 238.912989 
L 185.709784 237.234999 
L 186.055741 237.234999 
L 186.33304 240.590978 
L 186.527061 240.031648 
L 186.733604 240.590978 
L 186.837632 240.031648 
L 186.964957 241.709638 
L 187.295053 241.709638 
L 187.713292 242.268967 
L 188.532439 241.709638 
L 188.71896 242.828297 
L 189.023788 242.828297 
L 189.239656 241.150308 
L 189.972415 242.828297 
L 190.70103 243.387627 
L 191.340923 243.387627 
L 191.676604 245.065616 
L 191.985155 245.065616 
L 192.167923 244.506286 
L 192.488705 244.506286 
L 193.729381 246.743606 
L 193.936296 245.624946 
L 194.334585 245.065616 
L 194.801733 246.743606 
L 196.057401 246.743606 
L 196.164896 247.302935 
L 196.665228 247.862265 
L 197.998994 247.862265 
L 198.609501 250.658914 
L 202.040252 250.658914 
L 202.311159 251.218244 
L 202.667461 250.099584 
L 202.874893 251.218244 
L 206.615103 251.218244 
L 206.927603 251.777574 
L 207.681206 255.133552 
L 207.963933 253.455563 
L 208.300869 254.014893 
L 208.673953 253.455563 
L 208.936494 253.455563 
L 209.334304 251.777574 
L 209.547615 251.777574 
L 209.589016 252.336903 
L 210.26026 252.336903 
L 210.638072 248.980925 
L 210.971165 248.980925 
L 211.973176 249.540254 
L 212.036578 248.980925 
L 212.580623 248.421595 
L 212.661429 248.980925 
L 215.282893 248.980925 
L 215.4653 249.540254 
L 215.954521 250.099584 
L 216.607798 251.218244 
L 216.777713 252.336903 
L 217.007323 252.336903 
L 217.264542 253.455563 
L 217.574235 252.896233 
L 217.921005 252.896233 
L 218.182296 252.336903 
L 218.550653 252.896233 
L 218.879348 252.896233 
L 219.194383 253.455563 
L 219.449405 253.455563 
L 219.929451 252.896233 
L 220.179013 253.455563 
L 220.43731 252.896233 
L 221.187389 248.421595 
L 221.90891 249.540254 
L 222.0144 253.455563 
L 222.175232 253.455563 
L 222.469516 254.014893 
L 222.811405 253.455563 
L 223.123549 253.455563 
L 223.508066 252.896233 
L 223.841118 254.014893 
L 225.043138 254.014893 
L 225.520841 254.574222 
L 225.793841 254.574222 
L 225.815025 255.133552 
L 227.177072 255.133552 
L 227.564841 256.252212 
L 229.470596 256.252212 
L 229.850501 257.370871 
L 231.144181 257.370871 
L 233.500911 256.811542 
L 233.719539 257.370871 
L 234.309185 257.370871 
L 234.805338 257.930201 
L 235.137695 259.048861 
L 235.237077 258.489531 
L 235.598325 259.60819 
L 236.401951 259.60819 
L 239.656775 260.72685 
L 247.702145 260.72685 
L 248.029859 260.16752 
L 249.602812 260.16752 
L 249.928854 260.72685 
L 251.009308 260.72685 
L 251.382216 261.28618 
L 251.650358 260.72685 
L 251.961555 261.28618 
L 252.305886 260.72685 
L 252.588496 261.84551 
L 253.021331 261.28618 
L 253.337152 261.84551 
L 260.202157 261.84551 
L 260.556776 260.72685 
L 260.932455 261.28618 
L 261.27222 260.72685 
L 261.652792 260.72685 
L 261.958 260.16752 
L 263.231776 260.16752 
L 263.555212 260.72685 
L 263.920547 260.16752 
L 264.253387 259.048861 
L 264.913367 259.048861 
L 265.285726 258.489531 
L 265.564367 259.60819 
L 265.922808 259.60819 
L 266.199735 259.048861 
L 267.073772 260.16752 
L 267.58509 259.60819 
L 267.888875 260.16752 
L 268.535178 260.16752 
L 268.899949 259.60819 
L 269.258134 261.28618 
L 269.602883 260.72685 
L 270.264745 260.72685 
L 270.517041 260.16752 
L 270.83971 260.72685 
L 271.191844 260.72685 
L 271.506096 255.692882 
L 271.630944 256.252212 
L 271.877896 256.252212 
L 272.049927 256.811542 
L 272.199859 256.811542 
L 272.397257 257.370871 
L 272.531031 256.252212 
L 272.844279 256.811542 
L 272.972547 256.811542 
L 273.191463 257.370871 
L 273.75889 257.370871 
L 274.034835 258.489531 
L 274.308315 257.370871 
L 274.486366 257.930201 
L 275.490228 257.930201 
L 275.789075 257.370871 
L 276.072493 257.370871 
L 276.428638 257.930201 
L 276.757962 257.930201 
L 277.14835 257.370871 
L 277.52508 257.930201 
L 277.817386 257.930201 
L 278.277383 259.048861 
L 280.153841 259.048861 
L 280.462492 257.370871 
L 281.9168 257.370871 
L 282.250802 257.930201 
L 282.513535 258.489531 
L 283.027943 258.489531 
L 283.18843 259.60819 
L 283.262049 259.048861 
L 283.436109 259.60819 
L 283.925702 259.60819 
L 284.16571 260.72685 
L 284.819198 260.72685 
L 285.124237 261.84551 
L 286.133042 261.84551 
L 286.37497 263.523499 
L 286.598211 264.082829 
L 286.727043 264.082829 
L 287.161627 264.642159 
L 287.314583 264.082829 
L 287.388709 264.642159 
L 287.866539 264.642159 
L 288.427708 265.201488 
L 289.686681 265.201488 
L 290.011378 264.642159 
L 290.322494 265.201488 
L 290.673201 265.201488 
L 290.84128 265.760818 
L 290.881708 265.201488 
L 291.081199 265.760818 
L 291.237227 265.760818 
L 291.391311 266.879478 
L 291.98463 267.998137 
L 292.416672 267.438807 
L 292.745149 267.998137 
L 293.390904 267.998137 
L 293.741385 269.116797 
L 293.869692 268.557467 
L 294.078133 270.235456 
L 294.373498 269.676127 
L 294.565057 270.235456 
L 294.716522 269.676127 
L 294.883899 270.794786 
L 295.225052 270.794786 
L 295.326094 271.354116 
L 295.726343 270.794786 
L 296.035902 271.913446 
L 296.734312 271.913446 
L 296.985726 273.032105 
L 297.342334 271.913446 
L 297.584604 271.913446 
L 297.673426 272.472775 
L 298.325235 272.472775 
L 298.630129 274.710095 
L 299.068612 272.472775 
L 299.136596 273.032105 
L 299.713949 272.472775 
L 299.76862 273.591435 
L 299.967196 273.591435 
L 300.367337 274.150765 
L 300.692072 273.591435 
L 300.937402 273.591435 
L 301.30044 274.710095 
L 301.695398 274.710095 
L 302.078409 274.150765 
L 302.36466 274.710095 
L 302.53859 274.150765 
L 302.71158 275.269424 
L 304.244431 275.269424 
L 304.715551 275.828754 
L 305.677464 275.828754 
L 306.018766 274.710095 
L 306.662025 274.710095 
L 306.983973 275.269424 
L 309.912803 275.269424 
L 310.308068 274.710095 
L 310.678579 275.828754 
L 315.173381 275.828754 
L 316.159418 276.388084 
L 316.745069 276.388084 
L 317.220697 276.947414 
L 317.596573 276.947414 
L 317.817448 277.506743 
L 322.82061 277.506743 
L 323.226975 276.947414 
L 323.549149 277.506743 
L 323.867431 276.947414 
L 324.083586 273.591435 
L 326.060124 273.591435 
L 326.236477 274.150765 
L 326.57832 274.150765 
L 326.691366 273.591435 
L 328.73736 273.591435 
L 329.021196 274.150765 
L 329.128465 273.591435 
L 329.614641 273.591435 
L 329.839374 274.710095 
L 330.010117 273.591435 
L 330.122657 273.591435 
L 330.334158 274.710095 
L 330.484273 274.710095 
L 330.677887 273.591435 
L 330.84722 274.710095 
L 330.955734 273.591435 
L 330.99944 274.710095 
L 332.164035 274.710095 
L 332.348899 275.269424 
L 332.376011 275.828754 
L 332.96905 275.828754 
L 333.004002 276.388084 
L 333.345699 276.388084 
L 333.522631 276.947414 
L 333.673482 276.388084 
L 333.858807 276.947414 
L 333.984135 276.388084 
L 334.278074 276.947414 
L 334.402385 276.388084 
L 334.419432 276.947414 
L 334.792021 276.947414 
L 335.025472 277.506743 
L 335.172712 277.506743 
L 335.393208 278.625403 
L 335.637866 279.184733 
L 335.806838 278.625403 
L 337.688875 278.625403 
L 337.957972 279.184733 
L 339.400345 279.184733 
L 339.63043 279.744063 
L 339.93456 279.744063 
L 340.160239 280.303392 
L 340.284627 279.744063 
L 340.881393 279.744063 
L 341.082783 280.862722 
L 341.630935 280.862722 
L 341.683574 281.422052 
L 341.760062 280.862722 
L 341.878392 280.862722 
L 342.090686 281.981382 
L 342.311772 282.540711 
L 342.373564 281.981382 
L 342.624177 284.218701 
L 343.639158 284.218701 
L 343.741197 284.778031 
L 343.963552 284.778031 
L 344.093806 285.89669 
L 344.246675 284.778031 
L 345.594102 284.778031 
L 345.67207 285.33736 
L 345.93052 284.778031 
L 346.054264 285.33736 
L 346.283052 284.778031 
L 346.580239 284.778031 
L 346.762485 285.89669 
L 347.094696 285.89669 
L 347.230967 285.33736 
L 347.347721 286.45602 
L 347.692532 284.778031 
L 348.053868 285.89669 
L 348.315623 284.778031 
L 348.928369 284.778031 
L 349.40524 286.45602 
L 349.553627 285.89669 
L 349.717955 286.45602 
L 350.161366 285.33736 
L 350.303349 286.45602 
L 351.355656 286.45602 
L 351.525276 287.01535 
L 351.820863 287.01535 
L 351.978436 286.45602 
L 352.177307 287.01535 
L 352.303056 286.45602 
L 352.686124 287.574679 
L 353.209121 287.574679 
L 353.577972 288.693339 
L 355.175544 288.693339 
L 355.350213 289.252669 
L 355.563869 288.693339 
L 355.669581 289.252669 
L 355.887411 288.693339 
L 356.176715 288.693339 
L 356.363316 289.252669 
L 356.48601 288.693339 
L 356.876623 288.693339 
L 356.997442 289.252669 
L 357.545092 289.252669 
L 357.582007 290.371328 
L 359.924275 290.371328 
L 360.155345 290.930658 
L 360.307013 290.371328 
L 360.435508 290.930658 
L 360.53311 290.371328 
L 360.650187 291.489988 
L 361.189609 291.489988 
L 361.444063 292.049318 
L 361.495633 291.489988 
L 361.548468 292.049318 
L 361.839037 291.489988 
L 361.914133 292.049318 
L 362.198291 292.608647 
L 362.309589 293.167977 
L 362.522063 293.167977 
L 362.570918 293.727307 
L 362.866751 295.405296 
L 362.999904 294.845967 
L 363.179616 294.845967 
L 363.211992 295.964626 
L 364.474622 295.964626 
L 364.631447 296.523956 
L 364.878805 295.964626 
L 365.307274 296.523956 
L 365.421789 295.964626 
L 365.609257 296.523956 
L 365.839652 296.523956 
L 365.976758 297.083286 
L 366.296106 297.083286 
L 366.303936 297.642615 
L 366.402378 297.083286 
L 366.496744 298.201945 
L 366.63622 298.201945 
L 366.82929 298.761275 
L 368.153719 298.761275 
L 368.188672 298.201945 
L 368.27205 299.320605 
L 368.621327 299.320605 
L 368.799704 298.761275 
L 368.937014 299.320605 
L 369.143741 298.761275 
L 369.29863 299.320605 
L 369.472651 299.320605 
L 369.622184 298.761275 
L 369.770451 300.439264 
L 371.545369 300.439264 
L 372.079124 301.557924 
L 372.360084 300.998594 
L 379.06494 300.998594 
L 379.178776 301.557924 
L 379.382382 300.998594 
L 379.441064 301.557924 
L 380.049455 301.557924 
L 380.217921 302.117254 
L 381.071798 302.117254 
L 381.185888 302.676583 
L 381.346704 302.117254 
L 382.654716 302.117254 
L 382.836145 302.676583 
L 383.064624 302.117254 
L 383.190779 302.117254 
L 383.391824 303.235913 
L 383.502421 302.676583 
L 383.992623 302.676583 
L 384.206213 303.235913 
L 385.21159 303.235913 
L 385.375363 302.117254 
L 385.70721 303.235913 
L 387.492722 303.235913 
L 387.675788 303.795243 
L 387.839335 303.795243 
L 388.015469 304.354573 
L 388.147119 304.354573 
L 388.310083 304.913903 
L 388.691372 304.913903 
L 388.758919 305.473232 
L 389.076779 305.473232 
L 389.277559 304.354573 
L 389.434338 304.913903 
L 389.674323 304.913903 
L 389.772179 305.473232 
L 390.139316 305.473232 
L 390.467686 306.032562 
L 390.825755 307.710552 
L 390.942989 307.151222 
L 391.052147 307.710552 
L 391.302699 308.269881 
L 391.421508 307.710552 
L 391.740415 308.269881 
L 391.951325 307.710552 
L 392.123579 307.710552 
L 392.461044 309.388541 
L 392.664868 308.829211 
L 392.786281 308.829211 
L 392.945668 309.388541 
L 392.987579 309.947871 
L 393.123105 309.947871 
L 393.189245 309.388541 
L 393.408161 309.947871 
L 393.559748 309.388541 
L 393.684719 309.947871 
L 394.224394 309.947871 
L 394.425331 302.117254 
L 394.961985 303.235913 
L 395.31632 303.235913 
L 395.440259 303.795243 
L 395.633306 303.235913 
L 395.757219 303.235913 
L 395.903841 302.676583 
L 396.07243 303.235913 
L 396.304006 303.235913 
L 396.41795 302.676583 
L 396.562717 303.235913 
L 396.760157 302.676583 
L 396.837761 303.235913 
L 397.123387 303.795243 
L 397.248151 303.795243 
L 397.549716 302.676583 
L 397.822916 303.235913 
L 399.036669 303.235913 
L 399.324665 303.795243 
L 399.627051 303.235913 
L 400.170966 303.235913 
L 400.587959 304.354573 
L 400.730989 302.676583 
L 400.971725 303.235913 
L 401.278612 302.676583 
L 401.418996 304.354573 
L 401.588489 303.235913 
L 401.748673 303.235913 
L 401.855352 303.795243 
L 401.934964 306.032562 
L 401.949254 305.473232 
L 402.30242 306.032562 
L 403.174095 306.032562 
L 403.586433 307.151222 
L 403.756529 306.591892 
L 404.367174 306.591892 
L 404.533554 306.032562 
L 404.711379 306.591892 
L 404.906431 306.591892 
L 405.021019 306.032562 
L 405.369625 306.591892 
L 405.57442 306.591892 
L 405.708681 307.151222 
L 405.872887 306.591892 
L 406.049297 306.591892 
L 406.214619 306.032562 
L 406.317026 306.591892 
L 407.23794 306.591892 
L 407.468335 308.269881 
L 407.746895 307.710552 
L 407.977283 307.710552 
L 408.1638 307.151222 
L 408.248604 307.710552 
L 408.537517 307.151222 
L 408.645525 307.710552 
L 408.900045 307.710552 
L 408.999618 308.269881 
L 409.303783 307.710552 
L 409.930559 307.710552 
L 410.162933 308.269881 
L 410.550027 308.269881 
L 410.647629 308.829211 
L 410.812591 308.269881 
L 411.198216 309.388541 
L 411.312957 309.388541 
L 411.483133 309.947871 
L 411.640005 309.947871 
L 411.93517 310.5072 
L 414.336174 310.5072 
L 414.591963 311.06653 
L 414.831809 311.06653 
L 414.880641 309.947871 
L 414.941118 310.5072 
L 415.332426 310.5072 
L 415.421743 311.06653 
L 415.936626 311.06653 
L 416.182522 311.62586 
L 416.512782 311.62586 
L 416.523767 311.06653 
L 416.633555 311.62586 
L 416.73452 311.06653 
L 418.172614 311.06653 
L 418.442264 310.5072 
L 419.194463 311.06653 
L 420.754333 311.06653 
L 420.82183 311.62586 
L 422.458672 311.62586 
L 422.606115 312.18519 
L 424.119861 314.981839 
L 424.263328 314.981839 
L 424.413006 315.541168 
L 424.479663 314.981839 
L 424.802013 315.541168 
L 425.101496 316.100498 
L 425.459662 316.100498 
L 425.57994 316.659828 
L 426.032575 316.659828 
L 426.688164 316.100498 
L 426.721192 317.778488 
L 427.24882 317.778488 
L 427.412351 317.219158 
L 427.53113 317.778488 
L 428.743314 317.778488 
L 429.024711 317.219158 
L 430.324691 317.219158 
L 431.127405 317.778488 
L 432.748937 317.778488 
L 433.547407 318.337817 
L 433.654196 318.897147 
L 436.055571 318.897147 
L 436.28117 318.337817 
L 437.500248 318.337817 
L 438.390389 317.778488 
L 439.039047 317.778488 
L 439.360948 318.337817 
L 439.646736 319.456477 
L 439.816889 319.456477 
L 439.823529 318.897147 
L 441.732126 318.897147 
L 441.936966 319.456477 
L 446.758604 319.456477 
L 447.366558 320.015807 
L 447.600852 320.015807 
L 447.692309 320.575136 
L 447.990289 320.575136 
L 448.115429 320.015807 
L 448.309415 320.575136 
L 449.398591 320.575136 
L 449.884089 321.134466 
L 450.221335 322.253126 
L 453.174977 322.253126 
L 453.694844 321.693796 
L 453.845259 322.253126 
L 453.997418 321.693796 
L 454.168468 322.253126 
L 454.978555 322.253126 
L 455.352046 321.693796 
L 455.541572 322.253126 
L 456.06417 321.134466 
L 456.267849 322.253126 
L 457.532507 322.253126 
L 457.547468 322.812456 
L 459.551677 322.812456 
L 460.526147 323.371785 
L 460.818583 322.812456 
L 461.361912 322.812456 
L 461.493623 323.371785 
L 461.957868 321.693796 
L 462.26438 322.253126 
L 462.676446 321.693796 
L 462.981665 321.693796 
L 463.120282 322.253126 
L 463.961778 322.253126 
L 464.961619 321.693796 
L 465.112114 322.253126 
L 466.107008 322.253126 
L 466.430022 321.693796 
L 471.493695 322.253126 
L 471.872845 321.693796 
L 472.200521 322.253126 
L 472.494142 321.693796 
L 472.526993 322.253126 
L 472.782617 322.812456 
L 472.930658 322.812456 
L 473.066077 323.371785 
L 475.420353 323.371785 
L 475.47052 323.931115 
L 475.763159 323.931115 
L 476.544548 323.371785 
L 476.569404 323.931115 
L 476.86962 323.371785 
L 476.942588 324.490445 
L 477.135823 324.490445 
L 477.527851 325.049775 
L 478.184817 325.049775 
L 478.583732 324.490445 
L 479.032257 325.609104 
L 479.050653 326.168434 
L 479.486364 326.727764 
L 479.806824 326.168434 
L 480.257431 326.168434 
L 480.351104 326.727764 
L 481.377071 326.727764 
L 481.51841 326.168434 
L 481.691442 327.287094 
L 481.834058 327.287094 
L 482.104731 326.727764 
L 482.350896 327.287094 
L 482.89985 327.287094 
L 483.141613 328.405753 
L 484.865863 328.405753 
L 485.072003 328.965083 
L 485.198228 328.965083 
L 485.405928 328.405753 
L 485.459496 328.965083 
L 486.009676 328.965083 
L 486.120334 329.524413 
L 486.420883 329.524413 
L 486.506726 330.643072 
L 486.975645 330.643072 
L 487.151829 332.321062 
L 487.518679 332.321062 
L 487.733231 331.761732 
L 487.849142 332.321062 
L 488.005174 332.321062 
L 488.01709 333.999051 
L 488.308978 333.999051 
L 488.682242 333.439721 
L 488.851578 333.439721 
L 488.996234 333.999051 
L 489.355971 333.999051 
L 489.728745 333.439721 
L 489.767086 334.558381 
L 490.097147 334.558381 
L 490.157988 335.117711 
L 490.387965 335.67704 
L 490.995493 335.67704 
L 491.084787 336.7957 
L 491.345507 336.7957 
L 491.49836 337.35503 
L 491.645032 337.35503 
L 492.171011 337.91436 
L 492.376864 337.35503 
L 492.499454 329.524413 
L 492.632408 328.965083 
L 492.722453 331.202402 
L 493.371057 331.202402 
L 493.637647 330.643072 
L 493.831886 331.761732 
L 493.982158 331.761732 
L 494.367408 332.321062 
L 494.791134 332.321062 
L 494.984476 331.761732 
L 495.135856 332.321062 
L 496.157532 332.321062 
L 496.283332 332.880392 
L 496.749122 331.761732 
L 497.12788 332.321062 
L 497.344925 332.321062 
L 497.428288 332.880392 
L 497.619908 331.761732 
L 497.806176 332.880392 
L 498.579037 332.880392 
L 498.698828 332.321062 
L 498.974129 332.321062 
L 499.017436 332.880392 
L 499.329154 333.439721 
L 499.34132 332.880392 
L 499.927542 332.880392 
L 500.229268 333.439721 
L 501.795013 333.439721 
L 501.912415 333.999051 
L 502.222925 333.439721 
L 502.233293 333.999051 
L 502.679161 334.558381 
L 502.95312 334.558381 
L 503.268381 335.117711 
L 503.425793 335.67704 
L 503.546143 335.67704 
L 503.924856 334.558381 
L 503.999668 335.67704 
L 504.25433 335.117711 
L 504.468679 335.67704 
L 505.425309 335.67704 
L 505.532493 336.23637 
L 505.666079 335.67704 
L 506.129005 336.23637 
L 506.35261 335.67704 
L 506.579225 336.23637 
L 506.71538 335.67704 
L 507.032474 336.7957 
L 507.251562 336.23637 
L 508.000924 336.23637 
L 508.29905 336.7957 
L 508.734359 336.7957 
L 509.080699 335.67704 
L 509.173011 336.23637 
L 509.543069 336.23637 
L 509.636984 337.35503 
L 510.103709 336.23637 
L 510.2667 336.7957 
L 510.642752 336.23637 
L 510.917251 336.23637 
L 511.057881 336.7957 
L 511.254125 336.7957 
L 511.280271 333.439721 
L 511.394023 333.439721 
L 511.834232 333.999051 
L 511.891261 332.880392 
L 512.049313 333.999051 
L 512.194214 333.439721 
L 512.281185 333.999051 
L 512.626202 333.439721 
L 513.040174 333.999051 
L 513.248699 333.999051 
L 513.534943 333.439721 
L 513.941817 333.439721 
L 514.358987 334.558381 
L 514.577508 333.999051 
L 515.01938 333.999051 
L 515.226015 333.439721 
L 515.256436 332.880392 
L 515.513854 333.999051 
L 515.65037 333.439721 
L 515.810945 333.999051 
L 516.049545 333.439721 
L 516.319597 333.439721 
L 516.493082 332.880392 
L 516.822092 332.880392 
L 517.164633 333.999051 
L 517.397064 333.439721 
L 517.680118 334.558381 
L 517.827527 334.558381 
L 517.920053 333.999051 
L 518.20793 333.999051 
L 518.232093 334.558381 
L 519.186418 334.558381 
L 519.34276 335.117711 
L 519.476672 335.117711 
L 519.683104 335.67704 
L 519.861155 335.117711 
L 519.996946 335.67704 
L 520.19939 335.117711 
L 520.313353 335.67704 
L 520.460444 335.117711 
L 520.507834 335.67704 
L 520.670667 336.7957 
L 520.869607 336.23637 
L 520.932215 335.67704 
L 521.142021 336.23637 
L 521.313478 335.67704 
L 521.520135 336.23637 
L 521.858796 336.23637 
L 521.953094 336.7957 
L 522.187051 336.23637 
L 522.801485 337.91436 
L 522.966768 337.91436 
L 523.13773 336.7957 
L 523.218554 337.35503 
L 523.460264 337.35503 
L 523.570236 336.7957 
L 523.767879 336.7957 
L 523.947821 337.35503 
L 524.179152 337.35503 
L 524.56753 339.033019 
L 524.774157 338.473689 
L 527.490311 338.473689 
L 527.616708 339.033019 
L 527.776995 339.033019 
L 527.905896 338.473689 
L 528.164519 339.033019 
L 528.808843 336.7957 
L 528.91663 337.91436 
L 529.472584 336.7957 
L 530.075703 336.7957 
L 530.728831 337.91436 
L 531.883434 337.35503 
L 532.176652 337.91436 
L 532.499681 337.35503 
L 532.730387 338.473689 
L 532.822917 337.35503 
L 533.127039 338.473689 
L 533.458392 337.35503 
L 533.56808 338.473689 
L 533.780562 338.473689 
L 533.897366 337.91436 
L 534.109081 338.473689 
L 534.236138 338.473689 
L 534.354488 337.91436 
L 534.498284 339.592349 
L 534.875406 338.473689 
L 535.22813 338.473689 
L 535.443656 339.033019 
L 535.850404 339.033019 
L 536.18119 338.473689 
L 536.37457 338.473689 
L 536.520759 339.592349 
L 536.703112 339.033019 
L 536.804921 339.592349 
L 537.050745 340.151679 
L 537.201474 340.151679 
L 537.465 339.033019 
L 537.716994 340.711008 
L 538.033723 340.711008 
L 538.057763 341.829668 
L 538.079882 341.270338 
L 538.24553 340.711008 
L 538.419659 341.829668 
L 538.49229 340.711008 
L 538.754777 340.711008 
L 538.790542 341.270338 
L 539.086275 341.829668 
L 539.263268 341.829668 
L 539.346228 340.711008 
L 539.743103 341.829668 
L 539.807375 340.711008 
L 540.023542 341.829668 
L 540.18983 340.151679 
L 540.695327 341.270338 
L 541.076133 339.592349 
L 541.10558 340.151679 
L 541.346787 339.592349 
L 541.49928 339.592349 
L 541.657589 340.711008 
L 541.846644 339.592349 
L 542.210116 340.711008 
L 542.348016 339.592349 
L 542.497326 340.151679 
L 542.80159 340.151679 
L 543.002524 339.592349 
L 543.387164 339.592349 
L 543.398904 340.151679 
L 544.004281 339.033019 
L 544.325343 340.711008 
L 544.495741 340.711008 
L 544.69434 340.151679 
L 544.750476 341.270338 
L 545.032406 340.151679 
L 545.206006 341.270338 
L 545.381013 340.151679 
L 545.453337 340.711008 
L 545.812257 340.711008 
L 546.027351 341.270338 
L 546.125728 342.388998 
L 546.326002 341.270338 
L 546.655499 341.829668 
L 546.801255 342.388998 
L 546.98135 341.829668 
L 547.135115 344.066987 
L 547.376472 344.066987 
L 547.695656 344.626317 
L 547.734162 343.507657 
L 548.048303 344.626317 
L 548.495467 343.507657 
L 548.616293 345.185647 
L 548.978876 345.744976 
L 549.373788 344.626317 
L 549.624082 344.066987 
L 550.319838 344.626317 
L 550.403174 345.185647 
L 550.663468 345.185647 
L 551.143303 345.744976 
L 551.381029 345.744976 
L 551.677253 346.304306 
L 551.97689 347.982296 
L 552.746182 347.422966 
L 552.993988 347.422966 
L 553.33761 345.744976 
L 553.664255 345.744976 
L 553.748453 345.185647 
L 553.996624 346.304306 
L 554.051912 345.185647 
L 554.323529 345.744976 
L 554.816243 345.744976 
L 555.069087 346.863636 
L 555.301162 345.744976 
L 555.618129 346.863636 
L 555.7417 346.304306 
L 555.910986 346.863636 
L 556.352963 345.744976 
L 556.608414 346.304306 
L 557.355594 346.304306 
L 557.533937 345.744976 
L 557.966688 346.863636 
L 558.142589 345.744976 
L 558.294311 345.744976 
L 558.353307 346.304306 
L 558.5684 346.304306 
L 558.800383 346.863636 
L 558.959121 345.744976 
L 559.205585 346.863636 
L 559.313824 345.744976 
L 559.616049 346.863636 
L 559.801887 346.863636 
L 559.921812 346.304306 
L 560.118337 346.304306 
L 560.173871 345.744976 
L 560.185273 346.304306 
L 560.520771 346.304306 
L 560.634285 345.744976 
L 560.942043 346.863636 
L 561.225449 345.744976 
L 561.711139 346.304306 
L 562.749053 346.304306 
L 562.997959 345.744976 
L 563.262582 346.304306 
L 563.432919 345.744976 
L 563.53814 346.304306 
L 563.715735 346.304306 
L 563.715735 346.304306 
" clip-path="url(#p4a624a29db)" style="fill: none; stroke-dasharray: 3,1.5; stroke-dashoffset: 0; stroke: #808080; stroke-width: 1.5"/>
   </g>
   <g id="line2d_19">
    <path d="M 38.539265 297.083286 
L 39.89357 296.523956 
L 41.243505 295.405296 
L 44.440283 295.405296 
L 47.965112 294.845967 
L 48.226603 295.405296 
L 48.389685 295.405296 
L 48.501194 294.286637 
L 48.758555 294.845967 
L 49.1392 294.286637 
L 49.880315 294.286637 
L 50.293079 291.489988 
L 50.385152 294.286637 
L 50.599398 290.930658 
L 50.667531 291.489988 
L 50.907612 291.489988 
L 51.29165 290.930658 
L 51.921213 290.930658 
L 52.243529 288.693339 
L 52.744551 288.693339 
L 53.253131 289.811999 
L 53.576666 285.33736 
L 53.648284 285.89669 
L 53.952744 285.33736 
L 54.541688 283.659371 
L 54.941155 284.778031 
L 55.572562 284.778031 
L 55.925425 285.89669 
L 56.163964 285.33736 
L 56.88261 284.778031 
L 57.205087 284.778031 
L 57.555749 283.659371 
L 58.058911 283.659371 
L 58.579299 280.303392 
L 59.978227 278.625403 
L 60.168736 278.066073 
L 60.572263 278.066073 
L 60.826721 277.506743 
L 61.23215 277.506743 
L 61.530629 278.625403 
L 61.834671 279.184733 
L 62.173662 279.184733 
L 62.372176 278.625403 
L 64.793144 278.625403 
L 65.180111 278.066073 
L 65.806442 278.066073 
L 66.153051 277.506743 
L 66.485194 277.506743 
L 66.61416 278.066073 
L 67.434469 277.506743 
L 67.778275 278.066073 
L 68.726182 278.066073 
L 69.030515 277.506743 
L 69.404677 278.066073 
L 71.129965 278.066073 
L 71.483453 277.506743 
L 71.677481 275.828754 
L 72.149724 276.947414 
L 72.814803 276.947414 
L 73.12554 275.828754 
L 73.247819 276.947414 
L 73.792631 275.269424 
L 74.122052 275.269424 
L 74.44199 274.710095 
L 74.799094 274.710095 
L 75.126973 275.269424 
L 75.440278 274.150765 
L 75.718432 274.150765 
L 76.474668 273.032105 
L 80.445135 273.032105 
L 80.760761 271.913446 
L 81.433439 271.913446 
L 81.732006 269.116797 
L 82.733391 269.116797 
L 83.691942 266.879478 
L 84.710784 266.879478 
L 85.075701 266.320148 
L 91.231232 266.320148 
L 91.970233 264.642159 
L 92.137641 266.320148 
L 93.323021 266.320148 
L 93.644915 265.201488 
L 94.000058 266.320148 
L 94.845037 266.320148 
L 95.311763 265.201488 
L 95.658245 266.320148 
L 100.890983 266.320148 
L 101.176939 261.28618 
L 101.375196 266.320148 
L 103.271546 266.320148 
L 103.615797 265.760818 
L 103.812291 260.72685 
L 104.276451 265.760818 
L 104.604277 265.760818 
L 104.821893 266.320148 
L 108.255392 266.320148 
L 108.429268 265.760818 
L 108.741301 265.760818 
L 109.255183 264.082829 
L 114.434587 264.082829 
L 115.564973 263.523499 
L 122.521489 263.523499 
L 122.811164 260.72685 
L 123.181315 260.72685 
L 123.509547 263.523499 
L 123.847245 263.523499 
L 124.079937 260.72685 
L 124.33213 263.523499 
L 124.751235 260.72685 
L 125.122479 259.60819 
L 129.427194 259.60819 
L 129.798744 259.048861 
L 131.428826 259.048861 
L 131.763925 257.930201 
L 132.169093 255.692882 
L 132.458519 255.133552 
L 132.785662 251.777574 
L 133.189542 251.777574 
L 133.731077 250.658914 
L 134.104809 250.658914 
L 134.750326 249.540254 
L 137.459665 244.506286 
L 137.736308 245.624946 
L 139.673427 245.624946 
L 140.051346 243.387627 
L 140.384604 243.946957 
L 141.71875 243.946957 
L 141.96268 245.065616 
L 142.391731 243.946957 
L 143.360672 243.946957 
L 143.69043 242.828297 
L 144.008509 242.828297 
L 144.38522 242.268967 
L 144.537233 242.268967 
L 144.707125 240.590978 
L 144.937428 240.590978 
L 145.711018 240.031648 
L 146.350209 241.709638 
L 146.506509 241.709638 
L 147.007581 241.150308 
L 147.329073 240.031648 
L 148.990484 240.031648 
L 149.311262 239.472318 
L 149.655732 239.472318 
L 149.97465 238.912989 
L 150.273405 238.912989 
L 150.967608 238.353659 
L 151.326134 238.353659 
L 151.683655 236.67567 
L 152.266621 236.67567 
L 152.630944 236.11634 
L 152.857325 236.11634 
L 152.983711 246.184276 
L 153.079419 245.624946 
L 153.627284 245.624946 
L 153.951877 244.506286 
L 154.385376 244.506286 
L 154.608671 243.946957 
L 155.099709 243.946957 
L 155.148572 243.387627 
L 155.922112 243.387627 
L 156.337425 241.709638 
L 157.200508 240.031648 
L 158.603362 240.031648 
L 158.90666 238.912989 
L 159.020865 239.472318 
L 159.153117 239.472318 
L 159.519871 240.031648 
L 160.854588 239.472318 
L 164.193885 239.472318 
L 164.580826 240.031648 
L 166.197032 240.031648 
L 166.427056 240.590978 
L 166.848404 240.031648 
L 169.453696 240.031648 
L 169.843378 239.472318 
L 170.388118 239.472318 
L 170.829484 238.912989 
L 171.051567 239.472318 
L 173.179187 239.472318 
L 173.85065 238.353659 
L 175.279672 238.353659 
L 175.520266 230.523042 
L 175.791491 230.523042 
L 178.102902 228.845053 
L 178.244938 229.404382 
L 178.393118 228.845053 
L 178.777739 229.404382 
L 179.100365 229.404382 
L 179.43993 228.845053 
L 179.694926 228.845053 
L 180.104312 227.726393 
L 180.272678 227.726393 
L 180.428495 228.285723 
L 180.777738 227.167063 
L 183.099654 227.167063 
L 183.32554 226.607734 
L 183.70214 226.607734 
L 184.051647 226.048404 
L 184.414498 226.607734 
L 184.574605 226.607734 
L 185.071924 227.167063 
L 185.444525 224.370414 
L 185.709784 226.048404 
L 186.055741 226.048404 
L 186.33304 222.692425 
L 186.527061 223.251755 
L 186.733604 222.133095 
L 186.837632 222.692425 
L 186.964957 221.014436 
L 187.295053 221.014436 
L 187.713292 220.455106 
L 188.532439 221.014436 
L 188.71896 219.895776 
L 189.023788 219.895776 
L 189.239656 221.573766 
L 189.972415 219.895776 
L 190.70103 219.336446 
L 191.340923 219.336446 
L 191.676604 217.658457 
L 191.985155 217.658457 
L 192.167923 218.217787 
L 192.488705 218.217787 
L 193.729381 214.861808 
L 193.936296 217.099127 
L 194.334585 217.658457 
L 194.801733 214.861808 
L 196.057401 214.861808 
L 196.164896 214.302478 
L 196.665228 213.743149 
L 197.998994 213.743149 
L 198.609501 210.9465 
L 202.040252 210.9465 
L 202.311159 209.82784 
L 202.667461 212.065159 
L 202.874893 210.38717 
L 206.615103 210.38717 
L 206.927603 209.82784 
L 207.681206 206.471861 
L 207.963933 208.149851 
L 208.300869 207.590521 
L 208.673953 208.149851 
L 208.936494 208.149851 
L 209.334304 202.556553 
L 209.547615 202.556553 
L 209.589016 201.997223 
L 210.26026 201.997223 
L 210.638072 200.878564 
L 210.971165 199.200574 
L 211.973176 198.641245 
L 212.036578 199.200574 
L 212.580623 199.759904 
L 212.661429 199.200574 
L 215.282893 199.200574 
L 215.4653 198.641245 
L 215.954521 198.081915 
L 216.607798 196.963255 
L 216.777713 195.844596 
L 217.007323 195.844596 
L 217.264542 194.725936 
L 217.574235 195.285266 
L 217.921005 195.285266 
L 218.182296 195.844596 
L 218.550653 195.285266 
L 218.879348 195.285266 
L 219.194383 194.725936 
L 219.449405 194.725936 
L 219.929451 195.285266 
L 220.179013 194.725936 
L 220.43731 195.285266 
L 220.87304 198.081915 
L 221.187389 198.641245 
L 221.90891 197.522585 
L 222.0144 193.607277 
L 222.175232 193.607277 
L 222.469516 193.047947 
L 222.811405 193.607277 
L 223.123549 193.607277 
L 223.508066 194.166606 
L 223.841118 193.047947 
L 225.043138 193.047947 
L 225.520841 192.488617 
L 225.793841 192.488617 
L 225.815025 191.929287 
L 227.177072 191.929287 
L 227.564841 190.810628 
L 229.470596 190.810628 
L 229.850501 189.691968 
L 233.500911 189.691968 
L 233.719539 189.132638 
L 234.309185 189.132638 
L 234.805338 188.573309 
L 235.137695 187.454649 
L 235.237077 188.013979 
L 235.598325 186.895319 
L 236.401951 186.895319 
L 239.656775 185.77666 
L 247.702145 185.77666 
L 248.029859 186.335989 
L 249.602812 186.335989 
L 249.928854 185.77666 
L 251.009308 185.77666 
L 251.382216 185.21733 
L 251.650358 185.77666 
L 251.961555 185.21733 
L 252.305886 185.77666 
L 252.588496 184.658 
L 253.021331 185.21733 
L 253.337152 184.658 
L 260.202157 184.658 
L 260.556776 185.77666 
L 260.932455 185.21733 
L 261.27222 185.77666 
L 261.652792 185.21733 
L 261.958 185.77666 
L 263.231776 185.77666 
L 263.555212 185.21733 
L 263.920547 185.77666 
L 264.253387 184.658 
L 264.913367 184.658 
L 265.285726 185.21733 
L 265.564367 184.09867 
L 265.922808 184.09867 
L 266.199735 184.658 
L 267.073772 183.539341 
L 267.58509 184.09867 
L 267.888875 183.539341 
L 268.535178 183.539341 
L 268.899949 184.09867 
L 269.258134 182.420681 
L 269.602883 182.980011 
L 270.264745 182.980011 
L 270.517041 183.539341 
L 270.83971 182.980011 
L 271.191844 182.980011 
L 271.506096 187.454649 
L 271.630944 186.895319 
L 271.877896 186.895319 
L 272.049927 186.335989 
L 272.199859 186.335989 
L 272.397257 185.77666 
L 272.531031 186.895319 
L 272.844279 186.335989 
L 272.972547 186.335989 
L 273.191463 185.77666 
L 273.75889 185.77666 
L 274.034835 184.658 
L 274.308315 185.77666 
L 274.486366 185.21733 
L 275.490228 185.21733 
L 275.789075 185.77666 
L 276.072493 185.77666 
L 276.428638 185.21733 
L 276.757962 185.21733 
L 277.14835 185.77666 
L 277.52508 185.21733 
L 277.817386 185.21733 
L 278.277383 184.09867 
L 280.153841 184.09867 
L 280.462492 184.658 
L 281.9168 184.658 
L 282.250802 184.09867 
L 282.513535 183.539341 
L 283.027943 183.539341 
L 283.18843 182.420681 
L 283.262049 182.980011 
L 283.436109 182.420681 
L 283.925702 182.420681 
L 284.16571 181.302021 
L 284.819198 181.302021 
L 285.124237 180.183362 
L 286.133042 180.183362 
L 286.37497 178.505373 
L 286.598211 177.946043 
L 286.727043 177.946043 
L 287.161627 177.386713 
L 287.314583 177.946043 
L 287.388709 177.386713 
L 287.545542 177.386713 
L 287.729138 176.827383 
L 287.866539 176.827383 
L 288.427708 176.268053 
L 289.686681 176.268053 
L 290.011378 176.827383 
L 290.322494 176.268053 
L 290.673201 176.268053 
L 290.84128 175.708724 
L 290.881708 176.268053 
L 291.081199 175.708724 
L 291.237227 175.708724 
L 291.391311 174.590064 
L 291.98463 173.471405 
L 292.416672 174.030734 
L 292.745149 173.471405 
L 293.390904 173.471405 
L 293.741385 172.352745 
L 293.869692 172.912075 
L 294.078133 171.234085 
L 294.373498 171.793415 
L 294.565057 171.234085 
L 294.716522 171.793415 
L 294.883899 170.674756 
L 295.225052 170.674756 
L 295.326094 170.115426 
L 295.726343 170.674756 
L 296.035902 169.556096 
L 296.734312 169.556096 
L 296.985726 168.437437 
L 297.342334 169.556096 
L 297.584604 169.556096 
L 297.673426 168.996766 
L 298.325235 168.996766 
L 298.630129 166.759447 
L 299.068612 168.996766 
L 299.136596 168.437437 
L 299.713949 168.996766 
L 299.76862 167.878107 
L 299.967196 167.878107 
L 300.367337 167.318777 
L 300.692072 167.878107 
L 300.937402 167.878107 
L 301.30044 166.759447 
L 301.695398 166.759447 
L 302.078409 167.318777 
L 302.36466 166.759447 
L 302.53859 167.318777 
L 302.71158 166.200117 
L 304.244431 166.200117 
L 304.715551 165.640788 
L 305.677464 165.640788 
L 306.018766 166.759447 
L 306.662025 166.759447 
L 306.983973 166.200117 
L 309.912803 166.200117 
L 310.308068 166.759447 
L 310.678579 165.640788 
L 315.173381 165.640788 
L 316.159418 165.081458 
L 316.745069 165.081458 
L 317.220697 164.522128 
L 317.596573 164.522128 
L 317.817448 163.403468 
L 318.16763 163.962798 
L 322.82061 163.962798 
L 323.226975 164.522128 
L 323.549149 163.962798 
L 323.867431 164.522128 
L 324.083586 166.759447 
L 326.060124 166.759447 
L 326.386094 165.640788 
L 326.843602 166.759447 
L 328.73736 166.759447 
L 329.021196 165.640788 
L 329.128465 166.759447 
L 329.614641 166.759447 
L 329.839374 165.640788 
L 330.010117 166.759447 
L 330.122657 166.759447 
L 330.334158 165.640788 
L 330.484273 165.640788 
L 330.677887 166.759447 
L 330.84722 165.640788 
L 330.955734 166.759447 
L 330.99944 165.640788 
L 332.164035 165.640788 
L 332.545274 163.962798 
L 332.96905 163.962798 
L 333.004002 163.403468 
L 333.345699 163.403468 
L 333.522631 162.844139 
L 333.673482 163.403468 
L 333.858807 162.844139 
L 333.984135 163.403468 
L 334.278074 162.844139 
L 334.402385 163.403468 
L 334.419432 162.844139 
L 334.792021 162.844139 
L 335.025472 162.284809 
L 335.172712 162.284809 
L 335.393208 161.166149 
L 335.637866 160.60682 
L 335.806838 161.166149 
L 337.688875 161.166149 
L 337.957972 160.60682 
L 339.400345 160.60682 
L 339.63043 160.04749 
L 339.93456 160.04749 
L 340.160239 159.48816 
L 340.284627 160.04749 
L 340.881393 160.04749 
L 341.082783 158.92883 
L 341.630935 158.92883 
L 341.683574 158.3695 
L 341.760062 158.92883 
L 342.064211 158.92883 
L 342.090686 158.3695 
L 342.311772 157.810171 
L 342.373564 158.3695 
L 342.624177 156.132181 
L 343.639158 156.132181 
L 343.741197 155.572852 
L 343.963552 155.572852 
L 344.093806 154.454192 
L 344.246675 155.572852 
L 345.594102 155.572852 
L 345.67207 155.013522 
L 345.93052 155.572852 
L 346.054264 155.013522 
L 346.283052 155.572852 
L 346.580239 155.572852 
L 346.762485 154.454192 
L 347.094696 154.454192 
L 347.230967 155.013522 
L 347.347721 153.894862 
L 347.692532 155.572852 
L 348.053868 154.454192 
L 348.315623 155.572852 
L 348.928369 155.572852 
L 349.40524 153.894862 
L 349.553627 154.454192 
L 349.717955 153.894862 
L 350.161366 155.013522 
L 350.303349 153.894862 
L 351.355656 153.894862 
L 351.525276 153.335532 
L 351.820863 153.335532 
L 351.978436 153.894862 
L 352.177307 153.335532 
L 352.303056 153.894862 
L 352.686124 152.776203 
L 353.209121 152.776203 
L 353.577972 151.657543 
L 354.218757 152.776203 
L 354.355699 152.216873 
L 354.524168 152.776203 
L 354.631003 152.216873 
L 354.845345 152.216873 
L 354.935176 152.776203 
L 355.350213 151.657543 
L 355.563869 152.216873 
L 355.669581 151.657543 
L 355.887411 152.216873 
L 356.176715 152.216873 
L 356.363316 151.657543 
L 356.48601 152.216873 
L 356.606924 152.216873 
L 356.876623 152.776203 
L 356.997442 151.657543 
L 357.545092 151.657543 
L 357.582007 150.538884 
L 359.924275 150.538884 
L 360.155345 149.979554 
L 360.307013 150.538884 
L 360.435508 149.979554 
L 360.53311 150.538884 
L 360.650187 149.420224 
L 361.189609 149.420224 
L 361.444063 148.860894 
L 361.495633 149.420224 
L 361.548468 148.860894 
L 361.839037 149.420224 
L 361.914133 148.860894 
L 362.198291 148.301564 
L 362.309589 147.742235 
L 362.522063 147.742235 
L 362.570918 147.182905 
L 362.866751 145.504916 
L 362.999904 146.064245 
L 363.179616 146.064245 
L 363.211992 144.945586 
L 364.474622 144.945586 
L 364.631447 144.386256 
L 364.878805 144.945586 
L 365.609257 143.267596 
L 365.839652 143.267596 
L 365.976758 142.708267 
L 366.296106 142.708267 
L 366.303936 142.148937 
L 366.402378 142.708267 
L 366.496744 141.589607 
L 366.63622 141.589607 
L 366.82929 141.030277 
L 368.153719 141.030277 
L 368.188672 141.589607 
L 368.27205 140.470948 
L 368.621327 140.470948 
L 368.799704 141.030277 
L 368.937014 140.470948 
L 369.143741 141.030277 
L 369.29863 140.470948 
L 369.472651 140.470948 
L 369.622184 141.030277 
L 369.770451 139.352288 
L 371.545369 139.352288 
L 372.079124 138.233628 
L 372.360084 138.792958 
L 379.06494 138.792958 
L 379.178776 138.233628 
L 379.382382 138.792958 
L 379.441064 138.233628 
L 380.049455 138.233628 
L 380.217921 137.674299 
L 381.071798 137.674299 
L 381.185888 137.114969 
L 381.346704 137.674299 
L 382.654716 137.674299 
L 382.836145 137.114969 
L 383.064624 137.674299 
L 383.190779 137.674299 
L 383.391824 136.555639 
L 383.502421 137.114969 
L 383.992623 137.114969 
L 384.206213 136.555639 
L 385.21159 136.555639 
L 385.375363 137.674299 
L 385.70721 136.555639 
L 387.492722 136.555639 
L 387.675788 135.996309 
L 387.839335 135.996309 
L 388.015469 135.43698 
L 388.147119 135.43698 
L 388.310083 134.87765 
L 388.691372 134.87765 
L 388.758919 134.31832 
L 389.076779 134.31832 
L 389.277559 135.43698 
L 389.434338 134.87765 
L 389.674323 134.87765 
L 389.772179 134.31832 
L 390.139316 134.31832 
L 390.467686 133.75899 
L 390.825755 132.081001 
L 390.942989 132.640331 
L 391.052147 132.081001 
L 391.302699 131.521671 
L 391.421508 132.081001 
L 391.740415 131.521671 
L 391.951325 132.081001 
L 392.123579 132.081001 
L 392.461044 130.403012 
L 392.664868 130.962341 
L 392.786281 130.962341 
L 392.945668 130.403012 
L 392.987579 129.843682 
L 393.123105 129.843682 
L 393.189245 130.403012 
L 393.408161 129.843682 
L 393.559748 130.403012 
L 393.684719 129.843682 
L 394.224394 129.843682 
L 394.425331 133.19966 
L 394.961985 132.081001 
L 395.31632 132.081001 
L 395.440259 131.521671 
L 395.633306 132.081001 
L 395.757219 132.081001 
L 395.903841 132.640331 
L 396.07243 132.081001 
L 396.304006 132.081001 
L 396.41795 132.640331 
L 396.562717 132.081001 
L 396.760157 132.640331 
L 396.837761 132.081001 
L 397.123387 131.521671 
L 397.405828 131.521671 
L 397.549716 132.081001 
L 397.822916 131.521671 
L 398.938422 131.521671 
L 399.036669 128.725022 
L 399.324665 130.962341 
L 399.627051 131.521671 
L 400.170966 131.521671 
L 400.587959 130.403012 
L 400.730989 132.081001 
L 400.971725 131.521671 
L 401.278612 132.081001 
L 401.418996 130.403012 
L 401.588489 131.521671 
L 401.748673 131.521671 
L 401.855352 130.962341 
L 401.949254 126.487703 
L 402.275366 128.725022 
L 402.30242 125.928373 
L 403.174095 125.928373 
L 403.586433 124.809714 
L 403.756529 125.369044 
L 404.367174 125.369044 
L 404.533554 125.928373 
L 404.711379 125.369044 
L 404.906431 125.369044 
L 405.021019 125.928373 
L 405.369625 125.369044 
L 405.57442 125.369044 
L 405.708681 124.809714 
L 405.872887 125.369044 
L 406.049297 125.369044 
L 406.214619 125.928373 
L 406.317026 125.369044 
L 407.23794 125.369044 
L 407.468335 123.691054 
L 407.746895 124.250384 
L 407.977283 124.250384 
L 408.1638 124.809714 
L 408.248604 124.250384 
L 408.537517 124.809714 
L 408.645525 124.250384 
L 408.900045 124.250384 
L 408.999618 123.691054 
L 409.303783 124.250384 
L 409.930559 124.250384 
L 410.162933 123.691054 
L 410.550027 123.691054 
L 410.647629 123.131724 
L 410.812591 123.691054 
L 411.198216 122.572395 
L 411.312957 122.572395 
L 411.483133 122.013065 
L 411.640005 122.013065 
L 411.93517 121.453735 
L 414.336174 121.453735 
L 414.591963 120.894405 
L 414.831809 120.894405 
L 414.880641 122.013065 
L 414.941118 121.453735 
L 415.332426 121.453735 
L 415.421743 120.894405 
L 415.936626 120.894405 
L 416.182522 120.335075 
L 416.512782 120.335075 
L 416.523767 120.894405 
L 416.633555 120.335075 
L 416.73452 120.894405 
L 418.172614 120.894405 
L 418.442264 121.453735 
L 419.194463 120.894405 
L 420.754333 120.894405 
L 420.82183 120.335075 
L 422.458672 120.335075 
L 422.606115 119.775746 
L 424.119861 116.979097 
L 424.263328 116.979097 
L 424.413006 116.419767 
L 424.479663 116.979097 
L 424.802013 116.419767 
L 425.101496 115.860437 
L 425.459662 115.860437 
L 425.57994 115.301107 
L 426.032575 115.301107 
L 426.688164 115.860437 
L 426.721192 114.182448 
L 427.24882 114.182448 
L 427.412351 114.741778 
L 427.53113 114.182448 
L 428.415753 114.182448 
L 428.743314 114.741778 
L 430.324691 114.741778 
L 431.127405 114.182448 
L 432.748937 114.182448 
L 433.547407 113.623118 
L 433.654196 113.063788 
L 436.055571 113.063788 
L 436.28117 113.623118 
L 437.500248 113.623118 
L 438.390389 114.182448 
L 439.039047 114.182448 
L 439.360948 113.623118 
L 439.646736 112.504459 
L 439.816889 112.504459 
L 439.823529 113.063788 
L 441.732126 113.063788 
L 441.936966 112.504459 
L 446.758604 112.504459 
L 447.366558 111.945129 
L 447.600852 111.945129 
L 447.692309 110.826469 
L 447.990289 110.826469 
L 448.115429 111.385799 
L 448.309415 110.826469 
L 449.398591 110.826469 
L 449.884089 110.267139 
L 450.221335 109.14848 
L 453.174977 109.14848 
L 453.694844 109.70781 
L 453.845259 109.14848 
L 453.997418 109.70781 
L 454.168468 109.14848 
L 454.978555 109.14848 
L 455.352046 109.70781 
L 455.541572 109.14848 
L 456.06417 110.267139 
L 456.267849 109.14848 
L 457.532507 109.14848 
L 457.547468 108.58915 
L 459.551677 108.58915 
L 460.526147 108.02982 
L 460.818583 108.58915 
L 461.031552 108.02982 
L 461.169379 108.58915 
L 461.361912 108.58915 
L 461.493623 108.02982 
L 461.957868 109.14848 
L 462.26438 108.58915 
L 462.676446 109.14848 
L 462.981665 109.14848 
L 463.120282 108.58915 
L 463.961778 108.58915 
L 464.961619 109.14848 
L 465.112114 108.58915 
L 466.107008 108.58915 
L 466.430022 109.14848 
L 471.493695 108.58915 
L 471.872845 109.14848 
L 472.200521 108.58915 
L 472.494142 109.14848 
L 472.526993 108.58915 
L 472.782617 108.02982 
L 472.930658 108.02982 
L 473.066077 107.470491 
L 475.420353 107.470491 
L 475.47052 106.911161 
L 475.763159 106.911161 
L 476.544548 107.470491 
L 476.569404 106.911161 
L 476.86962 107.470491 
L 476.942588 106.351831 
L 477.135823 106.351831 
L 477.527851 105.792501 
L 478.184817 105.792501 
L 478.583732 106.351831 
L 479.032257 105.233171 
L 479.050653 104.673842 
L 479.486364 104.114512 
L 479.806824 104.673842 
L 480.257431 104.673842 
L 480.351104 104.114512 
L 481.377071 104.114512 
L 481.51841 104.673842 
L 481.691442 103.555182 
L 481.834058 103.555182 
L 482.104731 104.114512 
L 482.350896 103.555182 
L 482.89985 103.555182 
L 483.141613 101.877193 
L 484.865863 101.877193 
L 485.072003 101.317863 
L 485.198228 101.317863 
L 485.405928 101.877193 
L 485.459496 101.317863 
L 486.009676 101.317863 
L 486.120334 100.758533 
L 486.420883 100.199203 
L 486.506726 99.080544 
L 486.975645 99.080544 
L 487.151829 97.402555 
L 487.518679 97.402555 
L 487.733231 97.961884 
L 487.849142 97.402555 
L 488.005174 97.402555 
L 488.01709 95.724565 
L 488.851578 95.724565 
L 488.996234 95.165235 
L 489.355971 95.165235 
L 489.728745 95.724565 
L 489.767086 94.605906 
L 490.097147 94.605906 
L 490.157988 94.046576 
L 490.387965 93.487246 
L 490.995493 93.487246 
L 491.084787 92.368587 
L 491.345507 92.368587 
L 491.49836 91.809257 
L 491.645032 91.809257 
L 492.171011 91.249927 
L 492.376864 91.809257 
L 492.499454 97.961884 
L 492.632408 98.521214 
L 492.722453 96.283895 
L 493.371057 96.283895 
L 493.637647 96.843225 
L 493.831886 95.724565 
L 494.791134 95.724565 
L 494.984476 96.283895 
L 495.135856 95.724565 
L 496.157532 95.724565 
L 496.283332 95.165235 
L 496.749122 96.283895 
L 497.12788 95.724565 
L 497.344925 95.724565 
L 497.428288 95.165235 
L 497.619908 96.283895 
L 497.806176 95.165235 
L 498.579037 95.165235 
L 498.698828 95.724565 
L 498.974129 95.724565 
L 499.017436 95.165235 
L 499.329154 94.605906 
L 499.34132 95.165235 
L 499.59247 94.605906 
L 499.927542 94.605906 
L 500.229268 94.046576 
L 501.795013 94.046576 
L 501.912415 93.487246 
L 502.222925 94.046576 
L 502.233293 93.487246 
L 502.679161 92.927916 
L 502.95312 92.927916 
L 503.268381 92.368587 
L 503.425793 91.809257 
L 503.546143 91.809257 
L 503.924856 92.927916 
L 503.999668 91.809257 
L 504.25433 92.368587 
L 504.468679 91.809257 
L 505.425309 91.809257 
L 505.532493 91.249927 
L 505.666079 91.809257 
L 506.129005 91.249927 
L 506.35261 91.809257 
L 506.579225 91.249927 
L 506.71538 91.809257 
L 507.032474 90.690597 
L 507.251562 91.249927 
L 508.000924 91.249927 
L 508.29905 90.690597 
L 508.734359 90.690597 
L 509.080699 91.809257 
L 509.173011 91.249927 
L 509.543069 91.249927 
L 509.636984 90.131267 
L 510.103709 91.249927 
L 510.2667 90.690597 
L 510.642752 91.249927 
L 510.917251 91.249927 
L 511.057881 90.690597 
L 511.394023 90.690597 
L 511.834232 90.131267 
L 511.891261 91.249927 
L 512.049313 90.131267 
L 512.194214 90.690597 
L 512.281185 90.131267 
L 512.626202 90.690597 
L 513.040174 90.131267 
L 513.248699 90.131267 
L 513.534943 90.690597 
L 513.941817 90.690597 
L 514.358987 89.571938 
L 514.577508 90.131267 
L 515.01938 90.131267 
L 515.226015 90.690597 
L 515.256436 91.249927 
L 515.513854 90.131267 
L 515.65037 90.690597 
L 515.810945 90.131267 
L 516.049545 90.690597 
L 516.319597 90.690597 
L 516.493082 91.249927 
L 516.822092 91.249927 
L 517.164633 90.131267 
L 517.397064 90.690597 
L 517.680118 89.571938 
L 517.827527 89.571938 
L 517.920053 90.131267 
L 518.20793 90.131267 
L 518.232093 89.571938 
L 519.186418 89.571938 
L 519.34276 89.012608 
L 519.476672 89.012608 
L 519.683104 88.453278 
L 519.861155 89.012608 
L 519.996946 88.453278 
L 520.19939 88.453278 
L 520.313353 87.893948 
L 520.460444 88.453278 
L 520.507834 87.893948 
L 520.670667 86.775289 
L 520.869607 87.334619 
L 520.932215 87.893948 
L 521.142021 87.334619 
L 521.313478 87.893948 
L 521.520135 87.334619 
L 521.858796 87.334619 
L 521.953094 86.775289 
L 522.187051 87.334619 
L 522.801485 85.656629 
L 522.966768 85.656629 
L 523.13773 86.775289 
L 523.218554 86.215959 
L 523.460264 86.215959 
L 523.570236 86.775289 
L 523.767879 86.775289 
L 523.947821 86.215959 
L 524.179152 86.215959 
L 524.56753 84.53797 
L 524.774157 85.097299 
L 527.490311 85.097299 
L 527.616708 84.53797 
L 527.776995 84.53797 
L 527.905896 85.097299 
L 528.164519 84.53797 
L 528.808843 84.53797 
L 528.91663 83.41931 
L 529.472584 84.53797 
L 530.075703 84.53797 
L 530.728831 83.41931 
L 531.883434 83.97864 
L 532.176652 83.41931 
L 532.499681 83.97864 
L 532.730387 82.85998 
L 532.822917 83.97864 
L 533.127039 82.85998 
L 533.458392 83.97864 
L 533.56808 82.85998 
L 533.780562 82.85998 
L 533.897366 83.41931 
L 534.109081 82.85998 
L 534.236138 82.85998 
L 534.354488 83.41931 
L 534.498284 81.741321 
L 534.875406 82.85998 
L 535.22813 82.85998 
L 535.443656 82.300651 
L 535.850404 82.300651 
L 536.18119 82.85998 
L 536.37457 82.85998 
L 536.520759 81.741321 
L 536.703112 82.85998 
L 536.804921 82.300651 
L 537.050745 81.741321 
L 537.201474 81.741321 
L 537.465 82.85998 
L 537.716994 81.181991 
L 538.033723 81.181991 
L 538.057763 80.063331 
L 538.079882 80.622661 
L 538.24553 81.181991 
L 538.419659 80.063331 
L 538.49229 81.181991 
L 538.754777 81.181991 
L 538.790542 80.622661 
L 539.086275 80.063331 
L 539.263268 80.063331 
L 539.346228 81.181991 
L 539.743103 80.063331 
L 539.807375 81.181991 
L 540.023542 80.063331 
L 540.18983 81.741321 
L 540.695327 80.622661 
L 541.076133 82.300651 
L 541.10558 81.741321 
L 541.346787 82.300651 
L 541.49928 82.300651 
L 541.657589 81.181991 
L 541.846644 82.300651 
L 542.210116 81.181991 
L 542.348016 82.300651 
L 542.497326 81.741321 
L 542.80159 81.741321 
L 543.002524 82.300651 
L 543.387164 82.300651 
L 543.398904 81.741321 
L 544.004281 82.85998 
L 544.325343 81.181991 
L 544.495741 81.181991 
L 544.69434 81.741321 
L 544.750476 80.622661 
L 545.032406 81.741321 
L 545.206006 80.622661 
L 545.381013 81.741321 
L 545.453337 81.181991 
L 545.812257 81.181991 
L 546.027351 80.622661 
L 546.125728 79.504002 
L 546.326002 80.622661 
L 546.655499 80.063331 
L 546.801255 79.504002 
L 546.98135 80.063331 
L 547.135115 77.826012 
L 547.376472 77.826012 
L 547.695656 77.266683 
L 547.734162 78.385342 
L 548.048303 77.266683 
L 548.495467 78.385342 
L 548.616293 76.707353 
L 548.978876 76.148023 
L 549.373788 77.266683 
L 549.624082 77.826012 
L 550.319838 77.266683 
L 550.403174 76.707353 
L 551.381029 76.707353 
L 551.677253 76.148023 
L 551.97689 74.470034 
L 552.746182 75.029363 
L 553.33761 75.029363 
L 553.664255 74.470034 
L 553.748453 75.029363 
L 553.996624 73.910704 
L 554.051912 75.029363 
L 554.323529 74.470034 
L 554.816243 74.470034 
L 555.069087 73.351374 
L 555.301162 74.470034 
L 555.618129 73.351374 
L 555.7417 73.910704 
L 555.910986 73.351374 
L 556.352963 73.910704 
L 556.608414 73.351374 
L 557.355594 73.351374 
L 557.533937 73.910704 
L 557.966688 72.792044 
L 558.142589 73.910704 
L 558.294311 73.910704 
L 558.353307 73.351374 
L 558.5684 73.351374 
L 558.800383 72.792044 
L 558.959121 73.910704 
L 559.205585 72.792044 
L 559.313824 73.910704 
L 559.616049 72.792044 
L 559.801887 72.792044 
L 559.921812 73.351374 
L 560.118337 73.351374 
L 560.173871 73.910704 
L 560.185273 73.351374 
L 560.520771 73.351374 
L 560.634285 73.910704 
L 560.942043 72.792044 
L 561.225449 73.910704 
L 561.711139 73.351374 
L 562.749053 73.351374 
L 562.997959 73.910704 
L 563.262582 73.351374 
L 563.432919 73.910704 
L 563.53814 73.351374 
L 563.715735 73.351374 
L 563.715735 73.351374 
" clip-path="url(#p4a624a29db)" style="fill: none; stroke-dasharray: 6,1.5; stroke-dashoffset: 0; stroke: #008000; stroke-width: 1.5"/>
   </g>
   <g id="line2d_20">
    <path d="M 38.539265 361.96554 
L 39.89357 363.0842 
L 41.243505 363.0842 
L 42.54927 362.52487 
L 44.440283 362.52487 
L 48.389685 361.96554 
L 48.501194 362.52487 
L 51.921213 362.52487 
L 52.243529 363.643529 
L 52.956627 363.643529 
L 53.253131 360.287551 
L 53.648284 363.643529 
L 55.572562 363.643529 
L 55.925425 360.287551 
L 58.579299 360.287551 
L 59.978227 360.846881 
L 60.168736 361.40621 
L 61.23215 361.40621 
L 61.530629 359.728221 
L 64.793144 359.728221 
L 65.180111 360.287551 
L 75.126973 360.287551 
L 75.440278 359.728221 
L 81.433439 359.728221 
L 81.732006 361.96554 
L 131.428826 361.96554 
L 131.763925 363.0842 
L 132.169093 366.440178 
L 132.458519 366.440178 
L 132.785662 366.999508 
L 134.750326 366.999508 
L 137.459665 368.677497 
L 137.736308 368.677497 
L 138.200166 369.236827 
L 151.89504 369.236827 
L 152.630944 370.355487 
L 183.70214 370.355487 
L 184.051647 370.914817 
L 184.414498 370.355487 
L 186.527061 370.355487 
L 186.837632 370.914817 
L 192.488705 370.914817 
L 193.729381 372.033476 
L 193.936296 370.914817 
L 194.334585 370.914817 
L 194.662882 372.033476 
L 202.311159 372.033476 
L 202.667461 371.474146 
L 202.874893 372.033476 
L 220.87304 372.033476 
L 221.187389 373.152136 
L 261.27222 373.152136 
L 261.652792 373.711465 
L 353.577972 373.711465 
L 353.945588 373.152136 
L 364.878805 373.152136 
L 365.307274 373.711465 
L 365.421789 374.830125 
L 394.224394 374.830125 
L 394.425331 374.270795 
L 397.248151 374.270795 
L 397.405828 374.830125 
L 511.254125 374.830125 
L 511.280271 374.270795 
L 519.996946 374.270795 
L 520.313353 374.830125 
L 552.993988 374.830125 
L 553.33761 374.270795 
L 563.715735 374.270795 
L 563.715735 374.270795 
" clip-path="url(#p4a624a29db)" style="fill: none; stroke-dasharray: 9,3; stroke-dashoffset: 0; stroke: #ffa500; stroke-width: 1.5"/>
   </g>
   <g id="line2d_21">
    <path d="M 38.539265 323.371785 
L 48.389685 323.371785 
L 48.501194 323.931115 
L 51.921213 323.931115 
L 52.243529 324.490445 
L 52.956627 324.490445 
L 53.253131 325.609104 
L 53.648284 324.490445 
L 55.572562 324.490445 
L 56.163964 326.168434 
L 57.555749 326.168434 
L 57.869311 326.727764 
L 58.058911 326.168434 
L 58.217507 326.727764 
L 72.814803 326.727764 
L 73.12554 327.846424 
L 73.247819 326.727764 
L 73.792631 327.846424 
L 91.231232 327.846424 
L 91.970233 328.405753 
L 92.137641 327.846424 
L 93.323021 327.846424 
L 93.644915 328.405753 
L 94.000058 327.846424 
L 94.845037 327.846424 
L 95.311763 328.405753 
L 95.658245 327.846424 
L 122.521489 327.846424 
L 122.811164 328.405753 
L 123.181315 328.405753 
L 123.509547 327.846424 
L 123.847245 327.846424 
L 124.079937 328.405753 
L 124.33213 327.846424 
L 124.751235 328.405753 
L 131.763925 328.405753 
L 132.169093 327.846424 
L 132.458519 327.846424 
L 132.785662 328.965083 
L 134.38029 328.965083 
L 134.750326 331.761732 
L 137.459665 329.524413 
L 137.736308 330.083743 
L 139.673427 330.083743 
L 140.051346 332.880392 
L 140.384604 333.439721 
L 155.397287 333.439721 
L 155.922112 332.880392 
L 156.337425 333.439721 
L 157.263757 332.880392 
L 159.519871 332.880392 
L 160.854588 333.439721 
L 166.427056 333.439721 
L 166.848404 333.999051 
L 202.040252 333.999051 
L 202.311159 334.558381 
L 202.667461 333.999051 
L 208.936494 333.999051 
L 209.334304 341.270338 
L 210.26026 341.270338 
L 210.638072 345.744976 
L 210.971165 347.422966 
L 231.144181 347.422966 
L 233.981486 347.982296 
L 263.920547 347.982296 
L 264.253387 350.219615 
L 271.191844 350.219615 
L 271.506096 346.863636 
L 287.545542 346.863636 
L 287.729138 347.422966 
L 317.596573 347.422966 
L 317.817448 347.982296 
L 318.16763 347.422966 
L 326.236477 347.422966 
L 326.386094 347.982296 
L 326.691366 347.422966 
L 328.73736 347.422966 
L 329.021196 347.982296 
L 329.128465 347.422966 
L 332.164035 347.422966 
L 332.376011 347.982296 
L 341.878392 347.982296 
L 342.064211 347.422966 
L 353.945588 347.422966 
L 354.218757 346.863636 
L 354.355699 347.422966 
L 354.524168 346.863636 
L 354.631003 347.422966 
L 354.845345 347.422966 
L 354.935176 346.863636 
L 355.175544 347.422966 
L 356.606924 347.422966 
L 356.876623 346.863636 
L 356.997442 347.422966 
L 365.307274 347.422966 
L 365.421789 346.863636 
L 394.224394 346.863636 
L 394.425331 347.422966 
L 398.938422 347.422966 
L 399.036669 350.219615 
L 399.324665 347.422966 
L 401.934964 347.422966 
L 401.949254 350.219615 
L 402.275366 347.422966 
L 402.30242 350.219615 
L 428.415753 350.219615 
L 428.743314 349.660285 
L 429.024711 350.219615 
L 460.818583 350.219615 
L 461.031552 350.778944 
L 461.169379 350.219615 
L 461.493623 350.219615 
L 461.957868 350.778944 
L 482.89985 350.778944 
L 483.141613 351.338274 
L 486.120334 351.338274 
L 486.420883 351.897604 
L 492.376864 351.897604 
L 492.499454 351.338274 
L 499.34132 351.338274 
L 499.59247 351.897604 
L 511.254125 351.897604 
L 511.280271 355.812913 
L 519.996946 355.812913 
L 520.313353 355.253583 
L 528.164519 355.253583 
L 528.91663 357.490902 
L 536.520759 357.490902 
L 536.804921 356.931572 
L 550.663468 356.931572 
L 551.143303 356.372242 
L 552.993988 356.372242 
L 553.33761 358.609561 
L 553.748453 359.168891 
L 555.910986 359.168891 
L 556.352963 359.728221 
L 563.715735 359.728221 
L 563.715735 359.728221 
" clip-path="url(#p4a624a29db)" style="fill: none; stroke-dasharray: 12,4.5; stroke-dashoffset: 0; stroke: #ee82ee; stroke-width: 1.5"/>
   </g>
   <g id="patch_3">
    <path d="M 33.2875 374.830125 
L 33.2875 22.318125 
" style="fill: none; stroke: #000000; stroke-width: 0.8; stroke-linejoin: miter; stroke-linecap: square"/>
   </g>
   <g id="patch_4">
    <path d="M 568.9675 374.830125 
L 568.9675 22.318125 
" style="fill: none; stroke: #000000; stroke-width: 0.8; stroke-linejoin: miter; stroke-linecap: square"/>
   </g>
   <g id="patch_5">
    <path d="M 33.2875 374.830125 
L 568.9675 374.830125 
" style="fill: none; stroke: #000000; stroke-width: 0.8; stroke-linejoin: miter; stroke-linecap: square"/>
   </g>
   <g id="patch_6">
    <path d="M 33.2875 22.318125 
L 568.9675 22.318125 
" style="fill: none; stroke: #000000; stroke-width: 0.8; stroke-linejoin: miter; stroke-linecap: square"/>
   </g>
   <g id="text_17">
    <!-- Rust/Coreutils running GNU's testsuite -->
    <g transform="translate(186.090625 16.318125) scale(0.12 -0.12)">
     <defs>
      <path id="DejaVuSans-52" d="M 2841 2188 
Q 3044 2119 3236 1894 
Q 3428 1669 3622 1275 
L 4263 0 
L 3584 0 
L 2988 1197 
Q 2756 1666 2539 1819 
Q 2322 1972 1947 1972 
L 1259 1972 
L 1259 0 
L 628 0 
L 628 4666 
L 2053 4666 
Q 2853 4666 3247 4331 
Q 3641 3997 3641 3322 
Q 3641 2881 3436 2590 
Q 3231 2300 2841 2188 
z
M 1259 4147 
L 1259 2491 
L 2053 2491 
Q 2509 2491 2742 2702 
Q 2975 2913 2975 3322 
Q 2975 3731 2742 3939 
Q 2509 4147 2053 4147 
L 1259 4147 
z
" transform="scale(0.015625)"/>
      <path id="DejaVuSans-75" d="M 544 1381 
L 544 3500 
L 1119 3500 
L 1119 1403 
Q 1119 906 1312 657 
Q 1506 409 1894 409 
Q 2359 409 2629 706 
Q 2900 1003 2900 1516 
L 2900 3500 
L 3475 3500 
L 3475 0 
L 2900 0 
L 2900 538 
Q 2691 219 2414 64 
Q 2138 -91 1772 -91 
Q 1169 -91 856 284 
Q 544 659 544 1381 
z
M 1991 3584 
L 1991 3584 
z
" transform="scale(0.015625)"/>
      <path id="DejaVuSans-73" d="M 2834 3397 
L 2834 2853 
Q 2591 2978 2328 3040 
Q 2066 3103 1784 3103 
Q 1356 3103 1142 2972 
Q 928 2841 928 2578 
Q 928 2378 1081 2264 
Q 1234 2150 1697 2047 
L 1894 2003 
Q 2506 1872 2764 1633 
Q 3022 1394 3022 966 
Q 3022 478 2636 193 
Q 2250 -91 1575 -91 
Q 1294 -91 989 -36 
Q 684 19 347 128 
L 347 722 
Q 666 556 975 473 
Q 1284 391 1588 391 
Q 1994 391 2212 530 
Q 2431 669 2431 922 
Q 2431 1156 2273 1281 
Q 2116 1406 1581 1522 
L 1381 1569 
Q 847 1681 609 1914 
Q 372 2147 372 2553 
Q 372 3047 722 3315 
Q 1072 3584 1716 3584 
Q 2034 3584 2315 3537 
Q 2597 3491 2834 3397 
z
" transform="scale(0.015625)"/>
      <path id="DejaVuSans-74" d="M 1172 4494 
L 1172 3500 
L 2356 3500 
L 2356 3053 
L 1172 3053 
L 1172 1153 
Q 1172 725 1289 603 
Q 1406 481 1766 481 
L 2356 481 
L 2356 0 
L 1766 0 
Q 1100 0 847 248 
Q 594 497 594 1153 
L 594 3053 
L 172 3053 
L 172 3500 
L 594 3500 
L 594 4494 
L 1172 4494 
z
" transform="scale(0.015625)"/>
      <path id="DejaVuSans-2f" d="M 1625 4666 
L 2156 4666 
L 531 -594 
L 0 -594 
L 1625 4666 
z
" transform="scale(0.015625)"/>
      <path id="DejaVuSans-43" d="M 4122 4306 
L 4122 3641 
Q 3803 3938 3442 4084 
Q 3081 4231 2675 4231 
Q 1875 4231 1450 3742 
Q 1025 3253 1025 2328 
Q 1025 1406 1450 917 
Q 1875 428 2675 428 
Q 3081 428 3442 575 
Q 3803 722 4122 1019 
L 4122 359 
Q 3791 134 3420 21 
Q 3050 -91 2638 -91 
Q 1578 -91 968 557 
Q 359 1206 359 2328 
Q 359 3453 968 4101 
Q 1578 4750 2638 4750 
Q 3056 4750 3426 4639 
Q 3797 4528 4122 4306 
z
" transform="scale(0.015625)"/>
      <path id="DejaVuSans-6f" d="M 1959 3097 
Q 1497 3097 1228 2736 
Q 959 2375 959 1747 
Q 959 1119 1226 758 
Q 1494 397 1959 397 
Q 2419 397 2687 759 
Q 2956 1122 2956 1747 
Q 2956 2369 2687 2733 
Q 2419 3097 1959 3097 
z
M 1959 3584 
Q 2709 3584 3137 3096 
Q 3566 2609 3566 1747 
Q 3566 888 3137 398 
Q 2709 -91 1959 -91 
Q 1206 -91 779 398 
Q 353 888 353 1747 
Q 353 2609 779 3096 
Q 1206 3584 1959 3584 
z
" transform="scale(0.015625)"/>
      <path id="DejaVuSans-72" d="M 2631 2963 
Q 2534 3019 2420 3045 
Q 2306 3072 2169 3072 
Q 1681 3072 1420 2755 
Q 1159 2438 1159 1844 
L 1159 0 
L 581 0 
L 581 3500 
L 1159 3500 
L 1159 2956 
Q 1341 3275 1631 3429 
Q 1922 3584 2338 3584 
Q 2397 3584 2469 3576 
Q 2541 3569 2628 3553 
L 2631 2963 
z
" transform="scale(0.015625)"/>
      <path id="DejaVuSans-65" d="M 3597 1894 
L 3597 1613 
L 953 1613 
Q 991 1019 1311 708 
Q 1631 397 2203 397 
Q 2534 397 2845 478 
Q 3156 559 3463 722 
L 3463 178 
Q 3153 47 2828 -22 
Q 2503 -91 2169 -91 
Q 1331 -91 842 396 
Q 353 884 353 1716 
Q 353 2575 817 3079 
Q 1281 3584 2069 3584 
Q 2775 3584 3186 3129 
Q 3597 2675 3597 1894 
z
M 3022 2063 
Q 3016 2534 2758 2815 
Q 2500 3097 2075 3097 
Q 1594 3097 1305 2825 
Q 1016 2553 972 2059 
L 3022 2063 
z
" transform="scale(0.015625)"/>
      <path id="DejaVuSans-69" d="M 603 3500 
L 1178 3500 
L 1178 0 
L 603 0 
L 603 3500 
z
M 603 4863 
L 1178 4863 
L 1178 4134 
L 603 4134 
L 603 4863 
z
" transform="scale(0.015625)"/>
      <path id="DejaVuSans-6c" d="M 603 4863 
L 1178 4863 
L 1178 0 
L 603 0 
L 603 4863 
z
" transform="scale(0.015625)"/>
      <path id="DejaVuSans-20" transform="scale(0.015625)"/>
      <path id="DejaVuSans-6e" d="M 3513 2113 
L 3513 0 
L 2938 0 
L 2938 2094 
Q 2938 2591 2744 2837 
Q 2550 3084 2163 3084 
Q 1697 3084 1428 2787 
Q 1159 2491 1159 1978 
L 1159 0 
L 581 0 
L 581 3500 
L 1159 3500 
L 1159 2956 
Q 1366 3272 1645 3428 
Q 1925 3584 2291 3584 
Q 2894 3584 3203 3211 
Q 3513 2838 3513 2113 
z
" transform="scale(0.015625)"/>
      <path id="DejaVuSans-67" d="M 2906 1791 
Q 2906 2416 2648 2759 
Q 2391 3103 1925 3103 
Q 1463 3103 1205 2759 
Q 947 2416 947 1791 
Q 947 1169 1205 825 
Q 1463 481 1925 481 
Q 2391 481 2648 825 
Q 2906 1169 2906 1791 
z
M 3481 434 
Q 3481 -459 3084 -895 
Q 2688 -1331 1869 -1331 
Q 1566 -1331 1297 -1286 
Q 1028 -1241 775 -1147 
L 775 -588 
Q 1028 -725 1275 -790 
Q 1522 -856 1778 -856 
Q 2344 -856 2625 -561 
Q 2906 -266 2906 331 
L 2906 616 
Q 2728 306 2450 153 
Q 2172 0 1784 0 
Q 1141 0 747 490 
Q 353 981 353 1791 
Q 353 2603 747 3093 
Q 1141 3584 1784 3584 
Q 2172 3584 2450 3431 
Q 2728 3278 2906 2969 
L 2906 3500 
L 3481 3500 
L 3481 434 
z
" transform="scale(0.015625)"/>
      <path id="DejaVuSans-47" d="M 3809 666 
L 3809 1919 
L 2778 1919 
L 2778 2438 
L 4434 2438 
L 4434 434 
Q 4069 175 3628 42 
Q 3188 -91 2688 -91 
Q 1594 -91 976 548 
Q 359 1188 359 2328 
Q 359 3472 976 4111 
Q 1594 4750 2688 4750 
Q 3144 4750 3555 4637 
Q 3966 4525 4313 4306 
L 4313 3634 
Q 3963 3931 3569 4081 
Q 3175 4231 2741 4231 
Q 1884 4231 1454 3753 
Q 1025 3275 1025 2328 
Q 1025 1384 1454 906 
Q 1884 428 2741 428 
Q 3075 428 3337 486 
Q 3600 544 3809 666 
z
" transform="scale(0.015625)"/>
      <path id="DejaVuSans-4e" d="M 628 4666 
L 1478 4666 
L 3547 763 
L 3547 4666 
L 4159 4666 
L 4159 0 
L 3309 0 
L 1241 3903 
L 1241 0 
L 628 0 
L 628 4666 
z
" transform="scale(0.015625)"/>
      <path id="DejaVuSans-55" d="M 556 4666 
L 1191 4666 
L 1191 1831 
Q 1191 1081 1462 751 
Q 1734 422 2344 422 
Q 2950 422 3222 751 
Q 3494 1081 3494 1831 
L 3494 4666 
L 4128 4666 
L 4128 1753 
Q 4128 841 3676 375 
Q 3225 -91 2344 -91 
Q 1459 -91 1007 375 
Q 556 841 556 1753 
L 556 4666 
z
" transform="scale(0.015625)"/>
      <path id="DejaVuSans-27" d="M 1147 4666 
L 1147 2931 
L 616 2931 
L 616 4666 
L 1147 4666 
z
" transform="scale(0.015625)"/>
     </defs>
     <use xlink:href="#DejaVuSans-52"/>
     <use xlink:href="#DejaVuSans-75" x="64.982422"/>
     <use xlink:href="#DejaVuSans-73" x="128.361328"/>
     <use xlink:href="#DejaVuSans-74" x="180.460938"/>
     <use xlink:href="#DejaVuSans-2f" x="219.669922"/>
     <use xlink:href="#DejaVuSans-43" x="253.361328"/>
     <use xlink:href="#DejaVuSans-6f" x="323.185547"/>
     <use xlink:href="#DejaVuSans-72" x="384.367188"/>
     <use xlink:href="#DejaVuSans-65" x="423.230469"/>
     <use xlink:href="#DejaVuSans-75" x="484.753906"/>
     <use xlink:href="#DejaVuSans-74" x="548.132812"/>
     <use xlink:href="#DejaVuSans-69" x="587.341797"/>
     <use xlink:href="#DejaVuSans-6c" x="615.125"/>
     <use xlink:href="#DejaVuSans-73" x="642.908203"/>
     <use xlink:href="#DejaVuSans-20" x="695.007812"/>
     <use xlink:href="#DejaVuSans-72" x="726.794922"/>
     <use xlink:href="#DejaVuSans-75" x="767.908203"/>
     <use xlink:href="#DejaVuSans-6e" x="831.287109"/>
     <use xlink:href="#DejaVuSans-6e" x="894.666016"/>
     <use xlink:href="#DejaVuSans-69" x="958.044922"/>
     <use xlink:href="#DejaVuSans-6e" x="985.828125"/>
     <use xlink:href="#DejaVuSans-67" x="1049.207031"/>
     <use xlink:href="#DejaVuSans-20" x="1112.683594"/>
     <use xlink:href="#DejaVuSans-47" x="1144.470703"/>
     <use xlink:href="#DejaVuSans-4e" x="1221.960938"/>
     <use xlink:href="#DejaVuSans-55" x="1296.765625"/>
     <use xlink:href="#DejaVuSans-27" x="1369.958984"/>
     <use xlink:href="#DejaVuSans-73" x="1397.449219"/>
     <use xlink:href="#DejaVuSans-20" x="1449.548828"/>
     <use xlink:href="#DejaVuSans-74" x="1481.335938"/>
     <use xlink:href="#DejaVuSans-65" x="1520.544922"/>
     <use xlink:href="#DejaVuSans-73" x="1582.068359"/>
     <use xlink:href="#DejaVuSans-74" x="1634.167969"/>
     <use xlink:href="#DejaVuSans-73" x="1673.376953"/>
     <use xlink:href="#DejaVuSans-75" x="1725.476562"/>
     <use xlink:href="#DejaVuSans-69" x="1788.855469"/>
     <use xlink:href="#DejaVuSans-74" x="1816.638672"/>
     <use xlink:href="#DejaVuSans-65" x="1855.847656"/>
    </g>
   </g>
   <g id="legend_1">
    <g id="patch_7">
     <path d="M 505.762812 236.769437 
L 561.9675 236.769437 
Q 563.9675 236.769437 563.9675 234.769437 
L 563.9675 162.378812 
Q 563.9675 160.378812 561.9675 160.378812 
L 505.762812 160.378812 
Q 503.762812 160.378812 503.762812 162.378812 
L 503.762812 234.769437 
Q 503.762812 236.769437 505.762812 236.769437 
z
" style="fill: #ffffff; opacity: 0.8; stroke: #cccccc; stroke-linejoin: miter"/>
    </g>
    <g id="line2d_22">
     <path d="M 507.762812 168.47725 
L 517.762812 168.47725 
L 527.762812 168.47725 
" style="fill: none; stroke: #0000ff; stroke-width: 1.5; stroke-linecap: square"/>
    </g>
    <g id="text_18">
     <!-- total -->
     <g transform="translate(535.762812 171.97725) scale(0.1 -0.1)">
      <defs>
       <path id="DejaVuSans-61" d="M 2194 1759 
Q 1497 1759 1228 1600 
Q 959 1441 959 1056 
Q 959 750 1161 570 
Q 1363 391 1709 391 
Q 2188 391 2477 730 
Q 2766 1069 2766 1631 
L 2766 1759 
L 2194 1759 
z
M 3341 1997 
L 3341 0 
L 2766 0 
L 2766 531 
Q 2569 213 2275 61 
Q 1981 -91 1556 -91 
Q 1019 -91 701 211 
Q 384 513 384 1019 
Q 384 1609 779 1909 
Q 1175 2209 1959 2209 
L 2766 2209 
L 2766 2266 
Q 2766 2663 2505 2880 
Q 2244 3097 1772 3097 
Q 1472 3097 1187 3025 
Q 903 2953 641 2809 
L 641 3341 
Q 956 3463 1253 3523 
Q 1550 3584 1831 3584 
Q 2591 3584 2966 3190 
Q 3341 2797 3341 1997 
z
" transform="scale(0.015625)"/>
      </defs>
      <use xlink:href="#DejaVuSans-74"/>
      <use xlink:href="#DejaVuSans-6f" x="39.208984"/>
      <use xlink:href="#DejaVuSans-74" x="100.390625"/>
      <use xlink:href="#DejaVuSans-61" x="139.599609"/>
      <use xlink:href="#DejaVuSans-6c" x="200.878906"/>
     </g>
    </g>
    <g id="line2d_23">
     <path d="M 507.762812 183.155375 
L 517.762812 183.155375 
L 527.762812 183.155375 
" style="fill: none; stroke-dasharray: 3,1.5; stroke-dashoffset: 0; stroke: #808080; stroke-width: 1.5"/>
    </g>
    <g id="text_19">
     <!-- fail -->
     <g transform="translate(535.762812 186.655375) scale(0.1 -0.1)">
      <defs>
       <path id="DejaVuSans-66" d="M 2375 4863 
L 2375 4384 
L 1825 4384 
Q 1516 4384 1395 4259 
Q 1275 4134 1275 3809 
L 1275 3500 
L 2222 3500 
L 2222 3053 
L 1275 3053 
L 1275 0 
L 697 0 
L 697 3053 
L 147 3053 
L 147 3500 
L 697 3500 
L 697 3744 
Q 697 4328 969 4595 
Q 1241 4863 1831 4863 
L 2375 4863 
z
" transform="scale(0.015625)"/>
      </defs>
      <use xlink:href="#DejaVuSans-66"/>
      <use xlink:href="#DejaVuSans-61" x="35.205078"/>
      <use xlink:href="#DejaVuSans-69" x="96.484375"/>
      <use xlink:href="#DejaVuSans-6c" x="124.267578"/>
     </g>
    </g>
    <g id="line2d_24">
     <path d="M 507.762812 197.8335 
L 517.762812 197.8335 
L 527.762812 197.8335 
" style="fill: none; stroke-dasharray: 6,1.5; stroke-dashoffset: 0; stroke: #008000; stroke-width: 1.5"/>
    </g>
    <g id="text_20">
     <!-- pass -->
     <g transform="translate(535.762812 201.3335) scale(0.1 -0.1)">
      <defs>
       <path id="DejaVuSans-70" d="M 1159 525 
L 1159 -1331 
L 581 -1331 
L 581 3500 
L 1159 3500 
L 1159 2969 
Q 1341 3281 1617 3432 
Q 1894 3584 2278 3584 
Q 2916 3584 3314 3078 
Q 3713 2572 3713 1747 
Q 3713 922 3314 415 
Q 2916 -91 2278 -91 
Q 1894 -91 1617 61 
Q 1341 213 1159 525 
z
M 3116 1747 
Q 3116 2381 2855 2742 
Q 2594 3103 2138 3103 
Q 1681 3103 1420 2742 
Q 1159 2381 1159 1747 
Q 1159 1113 1420 752 
Q 1681 391 2138 391 
Q 2594 391 2855 752 
Q 3116 1113 3116 1747 
z
" transform="scale(0.015625)"/>
      </defs>
      <use xlink:href="#DejaVuSans-70"/>
      <use xlink:href="#DejaVuSans-61" x="63.476562"/>
      <use xlink:href="#DejaVuSans-73" x="124.755859"/>
      <use xlink:href="#DejaVuSans-73" x="176.855469"/>
     </g>
    </g>
    <g id="line2d_25">
     <path d="M 507.762812 212.511625 
L 517.762812 212.511625 
L 527.762812 212.511625 
" style="fill: none; stroke-dasharray: 9,3; stroke-dashoffset: 0; stroke: #ffa500; stroke-width: 1.5"/>
    </g>
    <g id="text_21">
     <!-- error -->
     <g transform="translate(535.762812 216.011625) scale(0.1 -0.1)">
      <use xlink:href="#DejaVuSans-65"/>
      <use xlink:href="#DejaVuSans-72" x="61.523438"/>
      <use xlink:href="#DejaVuSans-72" x="100.886719"/>
      <use xlink:href="#DejaVuSans-6f" x="139.75"/>
      <use xlink:href="#DejaVuSans-72" x="200.931641"/>
     </g>
    </g>
    <g id="line2d_26">
     <path d="M 507.762812 227.18975 
L 517.762812 227.18975 
L 527.762812 227.18975 
" style="fill: none; stroke-dasharray: 12,4.5; stroke-dashoffset: 0; stroke: #ee82ee; stroke-width: 1.5"/>
    </g>
    <g id="text_22">
     <!-- skip -->
     <g transform="translate(535.762812 230.68975) scale(0.1 -0.1)">
      <defs>
       <path id="DejaVuSans-6b" d="M 581 4863 
L 1159 4863 
L 1159 1991 
L 2875 3500 
L 3609 3500 
L 1753 1863 
L 3688 0 
L 2938 0 
L 1159 1709 
L 1159 0 
L 581 0 
L 581 4863 
z
" transform="scale(0.015625)"/>
      </defs>
      <use xlink:href="#DejaVuSans-73"/>
      <use xlink:href="#DejaVuSans-6b" x="52.099609"/>
      <use xlink:href="#DejaVuSans-69" x="110.009766"/>
      <use xlink:href="#DejaVuSans-70" x="137.792969"/>
     </g>
    </g>
   </g>
  </g>
 </g>
 <defs>
  <clipPath id="p4a624a29db">
   <rect x="33.2875" y="22.318125" width="535.68" height="352.512"/>
  </clipPath>
 </defs>
</svg>
