<?xml version="1.0" encoding="utf-8" standalone="no"?>
<!DOCTYPE svg PUBLIC "-//W3C//DTD SVG 1.1//EN"
  "http://www.w3.org/Graphics/SVG/1.1/DTD/svg11.dtd">
<svg xmlns:xlink="http://www.w3.org/1999/xlink" width="576.1675pt" height="418.303033pt" viewBox="0 0 576.1675 418.303033" xmlns="http://www.w3.org/2000/svg" version="1.1">
 <metadata>
  <rdf:RDF xmlns:dc="http://purl.org/dc/elements/1.1/" xmlns:cc="http://creativecommons.org/ns#" xmlns:rdf="http://www.w3.org/1999/02/22-rdf-syntax-ns#">
   <cc:Work>
    <dc:type rdf:resource="http://purl.org/dc/dcmitype/StillImage"/>
    <dc:date>2025-06-10T14:03:10.425523</dc:date>
    <dc:format>image/svg+xml</dc:format>
    <dc:creator>
     <cc:Agent>
      <dc:title>Matplotlib v3.6.3, https://matplotlib.org/</dc:title>
     </cc:Agent>
    </dc:creator>
   </cc:Work>
  </rdf:RDF>
 </metadata>
 <defs>
  <style type="text/css">*{stroke-linejoin: round; stroke-linecap: butt}</style>
 </defs>
 <g id="figure_1">
  <g id="patch_1">
   <path d="M -0 418.303033 
L 576.1675 418.303033 
L 576.1675 0 
L -0 0 
z
" style="fill: #ffffff"/>
  </g>
  <g id="axes_1">
   <g id="patch_2">
    <path d="M 33.2875 374.830125 
L 568.9675 374.830125 
L 568.9675 22.318125 
L 33.2875 22.318125 
z
" style="fill: #ffffff"/>
   </g>
   <g id="matplotlib.axis_1">
    <g id="xtick_1">
     <g id="line2d_1">
      <defs>
       <path id="m7aa421feb7" d="M 0 0 
L 0 3.5 
" style="stroke: #000000; stroke-width: 0.8"/>
      </defs>
      <g>
       <use xlink:href="#m7aa421feb7" x="63.347357" y="374.830125" style="stroke: #000000; stroke-width: 0.8"/>
      </g>
     </g>
     <g id="text_1">
      <!-- 2021-07 -->
      <g transform="translate(26.122536 409.301971) rotate(-30) scale(0.1 -0.1)">
       <defs>
        <path id="DejaVuSans-32" d="M 1228 531 
L 3431 531 
L 3431 0 
L 469 0 
L 469 531 
Q 828 903 1448 1529 
Q 2069 2156 2228 2338 
Q 2531 2678 2651 2914 
Q 2772 3150 2772 3378 
Q 2772 3750 2511 3984 
Q 2250 4219 1831 4219 
Q 1534 4219 1204 4116 
Q 875 4013 500 3803 
L 500 4441 
Q 881 4594 1212 4672 
Q 1544 4750 1819 4750 
Q 2544 4750 2975 4387 
Q 3406 4025 3406 3419 
Q 3406 3131 3298 2873 
Q 3191 2616 2906 2266 
Q 2828 2175 2409 1742 
Q 1991 1309 1228 531 
z
" transform="scale(0.015625)"/>
        <path id="DejaVuSans-30" d="M 2034 4250 
Q 1547 4250 1301 3770 
Q 1056 3291 1056 2328 
Q 1056 1369 1301 889 
Q 1547 409 2034 409 
Q 2525 409 2770 889 
Q 3016 1369 3016 2328 
Q 3016 3291 2770 3770 
Q 2525 4250 2034 4250 
z
M 2034 4750 
Q 2819 4750 3233 4129 
Q 3647 3509 3647 2328 
Q 3647 1150 3233 529 
Q 2819 -91 2034 -91 
Q 1250 -91 836 529 
Q 422 1150 422 2328 
Q 422 3509 836 4129 
Q 1250 4750 2034 4750 
z
" transform="scale(0.015625)"/>
        <path id="DejaVuSans-31" d="M 794 531 
L 1825 531 
L 1825 4091 
L 703 3866 
L 703 4441 
L 1819 4666 
L 2450 4666 
L 2450 531 
L 3481 531 
L 3481 0 
L 794 0 
L 794 531 
z
" transform="scale(0.015625)"/>
        <path id="DejaVuSans-2d" d="M 313 2009 
L 1997 2009 
L 1997 1497 
L 313 1497 
L 313 2009 
z
" transform="scale(0.015625)"/>
        <path id="DejaVuSans-37" d="M 525 4666 
L 3525 4666 
L 3525 4397 
L 1831 0 
L 1172 0 
L 2766 4134 
L 525 4134 
L 525 4666 
z
" transform="scale(0.015625)"/>
       </defs>
       <use xlink:href="#DejaVuSans-32"/>
       <use xlink:href="#DejaVuSans-30" x="63.623047"/>
       <use xlink:href="#DejaVuSans-32" x="127.246094"/>
       <use xlink:href="#DejaVuSans-31" x="190.869141"/>
       <use xlink:href="#DejaVuSans-2d" x="254.492188"/>
       <use xlink:href="#DejaVuSans-30" x="290.576172"/>
       <use xlink:href="#DejaVuSans-37" x="354.199219"/>
      </g>
     </g>
    </g>
    <g id="xtick_2">
     <g id="line2d_2">
      <g>
       <use xlink:href="#m7aa421feb7" x="127.267518" y="374.830125" style="stroke: #000000; stroke-width: 0.8"/>
      </g>
     </g>
     <g id="text_2">
      <!-- 2022-01 -->
      <g transform="translate(90.042697 409.301971) rotate(-30) scale(0.1 -0.1)">
       <use xlink:href="#DejaVuSans-32"/>
       <use xlink:href="#DejaVuSans-30" x="63.623047"/>
       <use xlink:href="#DejaVuSans-32" x="127.246094"/>
       <use xlink:href="#DejaVuSans-32" x="190.869141"/>
       <use xlink:href="#DejaVuSans-2d" x="254.492188"/>
       <use xlink:href="#DejaVuSans-30" x="290.576172"/>
       <use xlink:href="#DejaVuSans-31" x="354.199219"/>
      </g>
     </g>
    </g>
    <g id="xtick_3">
     <g id="line2d_3">
      <g>
       <use xlink:href="#m7aa421feb7" x="190.145503" y="374.830125" style="stroke: #000000; stroke-width: 0.8"/>
      </g>
     </g>
     <g id="text_3">
      <!-- 2022-07 -->
      <g transform="translate(152.920682 409.301971) rotate(-30) scale(0.1 -0.1)">
       <use xlink:href="#DejaVuSans-32"/>
       <use xlink:href="#DejaVuSans-30" x="63.623047"/>
       <use xlink:href="#DejaVuSans-32" x="127.246094"/>
       <use xlink:href="#DejaVuSans-32" x="190.869141"/>
       <use xlink:href="#DejaVuSans-2d" x="254.492188"/>
       <use xlink:href="#DejaVuSans-30" x="290.576172"/>
       <use xlink:href="#DejaVuSans-37" x="354.199219"/>
      </g>
     </g>
    </g>
    <g id="xtick_4">
     <g id="line2d_4">
      <g>
       <use xlink:href="#m7aa421feb7" x="254.065664" y="374.830125" style="stroke: #000000; stroke-width: 0.8"/>
      </g>
     </g>
     <g id="text_4">
      <!-- 2023-01 -->
      <g transform="translate(216.840843 409.301971) rotate(-30) scale(0.1 -0.1)">
       <defs>
        <path id="DejaVuSans-33" d="M 2597 2516 
Q 3050 2419 3304 2112 
Q 3559 1806 3559 1356 
Q 3559 666 3084 287 
Q 2609 -91 1734 -91 
Q 1441 -91 1130 -33 
Q 819 25 488 141 
L 488 750 
Q 750 597 1062 519 
Q 1375 441 1716 441 
Q 2309 441 2620 675 
Q 2931 909 2931 1356 
Q 2931 1769 2642 2001 
Q 2353 2234 1838 2234 
L 1294 2234 
L 1294 2753 
L 1863 2753 
Q 2328 2753 2575 2939 
Q 2822 3125 2822 3475 
Q 2822 3834 2567 4026 
Q 2313 4219 1838 4219 
Q 1578 4219 1281 4162 
Q 984 4106 628 3988 
L 628 4550 
Q 988 4650 1302 4700 
Q 1616 4750 1894 4750 
Q 2613 4750 3031 4423 
Q 3450 4097 3450 3541 
Q 3450 3153 3228 2886 
Q 3006 2619 2597 2516 
z
" transform="scale(0.015625)"/>
       </defs>
       <use xlink:href="#DejaVuSans-32"/>
       <use xlink:href="#DejaVuSans-30" x="63.623047"/>
       <use xlink:href="#DejaVuSans-32" x="127.246094"/>
       <use xlink:href="#DejaVuSans-33" x="190.869141"/>
       <use xlink:href="#DejaVuSans-2d" x="254.492188"/>
       <use xlink:href="#DejaVuSans-30" x="290.576172"/>
       <use xlink:href="#DejaVuSans-31" x="354.199219"/>
      </g>
     </g>
    </g>
    <g id="xtick_5">
     <g id="line2d_5">
      <g>
       <use xlink:href="#m7aa421feb7" x="316.943649" y="374.830125" style="stroke: #000000; stroke-width: 0.8"/>
      </g>
     </g>
     <g id="text_5">
      <!-- 2023-07 -->
      <g transform="translate(279.718828 409.301971) rotate(-30) scale(0.1 -0.1)">
       <use xlink:href="#DejaVuSans-32"/>
       <use xlink:href="#DejaVuSans-30" x="63.623047"/>
       <use xlink:href="#DejaVuSans-32" x="127.246094"/>
       <use xlink:href="#DejaVuSans-33" x="190.869141"/>
       <use xlink:href="#DejaVuSans-2d" x="254.492188"/>
       <use xlink:href="#DejaVuSans-30" x="290.576172"/>
       <use xlink:href="#DejaVuSans-37" x="354.199219"/>
      </g>
     </g>
    </g>
    <g id="xtick_6">
     <g id="line2d_6">
      <g>
       <use xlink:href="#m7aa421feb7" x="380.86381" y="374.830125" style="stroke: #000000; stroke-width: 0.8"/>
      </g>
     </g>
     <g id="text_6">
      <!-- 2024-01 -->
      <g transform="translate(343.638989 409.301971) rotate(-30) scale(0.1 -0.1)">
       <defs>
        <path id="DejaVuSans-34" d="M 2419 4116 
L 825 1625 
L 2419 1625 
L 2419 4116 
z
M 2253 4666 
L 3047 4666 
L 3047 1625 
L 3713 1625 
L 3713 1100 
L 3047 1100 
L 3047 0 
L 2419 0 
L 2419 1100 
L 313 1100 
L 313 1709 
L 2253 4666 
z
" transform="scale(0.015625)"/>
       </defs>
       <use xlink:href="#DejaVuSans-32"/>
       <use xlink:href="#DejaVuSans-30" x="63.623047"/>
       <use xlink:href="#DejaVuSans-32" x="127.246094"/>
       <use xlink:href="#DejaVuSans-34" x="190.869141"/>
       <use xlink:href="#DejaVuSans-2d" x="254.492188"/>
       <use xlink:href="#DejaVuSans-30" x="290.576172"/>
       <use xlink:href="#DejaVuSans-31" x="354.199219"/>
      </g>
     </g>
    </g>
    <g id="xtick_7">
     <g id="line2d_7">
      <g>
       <use xlink:href="#m7aa421feb7" x="444.089187" y="374.830125" style="stroke: #000000; stroke-width: 0.8"/>
      </g>
     </g>
     <g id="text_7">
      <!-- 2024-07 -->
      <g transform="translate(406.864366 409.301971) rotate(-30) scale(0.1 -0.1)">
       <use xlink:href="#DejaVuSans-32"/>
       <use xlink:href="#DejaVuSans-30" x="63.623047"/>
       <use xlink:href="#DejaVuSans-32" x="127.246094"/>
       <use xlink:href="#DejaVuSans-34" x="190.869141"/>
       <use xlink:href="#DejaVuSans-2d" x="254.492188"/>
       <use xlink:href="#DejaVuSans-30" x="290.576172"/>
       <use xlink:href="#DejaVuSans-37" x="354.199219"/>
      </g>
     </g>
    </g>
    <g id="xtick_8">
     <g id="line2d_8">
      <g>
       <use xlink:href="#m7aa421feb7" x="508.009348" y="374.830125" style="stroke: #000000; stroke-width: 0.8"/>
      </g>
     </g>
     <g id="text_8">
      <!-- 2025-01 -->
      <g transform="translate(470.784528 409.301971) rotate(-30) scale(0.1 -0.1)">
       <defs>
        <path id="DejaVuSans-35" d="M 691 4666 
L 3169 4666 
L 3169 4134 
L 1269 4134 
L 1269 2991 
Q 1406 3038 1543 3061 
Q 1681 3084 1819 3084 
Q 2600 3084 3056 2656 
Q 3513 2228 3513 1497 
Q 3513 744 3044 326 
Q 2575 -91 1722 -91 
Q 1428 -91 1123 -41 
Q 819 9 494 109 
L 494 744 
Q 775 591 1075 516 
Q 1375 441 1709 441 
Q 2250 441 2565 725 
Q 2881 1009 2881 1497 
Q 2881 1984 2565 2268 
Q 2250 2553 1709 2553 
Q 1456 2553 1204 2497 
Q 953 2441 691 2322 
L 691 4666 
z
" transform="scale(0.015625)"/>
       </defs>
       <use xlink:href="#DejaVuSans-32"/>
       <use xlink:href="#DejaVuSans-30" x="63.623047"/>
       <use xlink:href="#DejaVuSans-32" x="127.246094"/>
       <use xlink:href="#DejaVuSans-35" x="190.869141"/>
       <use xlink:href="#DejaVuSans-2d" x="254.492188"/>
       <use xlink:href="#DejaVuSans-30" x="290.576172"/>
       <use xlink:href="#DejaVuSans-31" x="354.199219"/>
      </g>
     </g>
    </g>
   </g>
   <g id="matplotlib.axis_2">
    <g id="ytick_1">
     <g id="line2d_9">
      <defs>
       <path id="m5c3b693c6b" d="M 0 0 
L -3.5 0 
" style="stroke: #000000; stroke-width: 0.8"/>
      </defs>
      <g>
       <use xlink:href="#m5c3b693c6b" x="33.2875" y="374.830125" style="stroke: #000000; stroke-width: 0.8"/>
      </g>
     </g>
     <g id="text_9">
      <!-- 0 -->
      <g transform="translate(19.925 378.629344) scale(0.1 -0.1)">
       <use xlink:href="#DejaVuSans-30"/>
      </g>
     </g>
    </g>
    <g id="ytick_2">
     <g id="line2d_10">
      <g>
       <use xlink:href="#m5c3b693c6b" x="33.2875" y="318.897147" style="stroke: #000000; stroke-width: 0.8"/>
      </g>
     </g>
     <g id="text_10">
      <!-- 100 -->
      <g transform="translate(7.2 322.696366) scale(0.1 -0.1)">
       <use xlink:href="#DejaVuSans-31"/>
       <use xlink:href="#DejaVuSans-30" x="63.623047"/>
       <use xlink:href="#DejaVuSans-30" x="127.246094"/>
      </g>
     </g>
    </g>
    <g id="ytick_3">
     <g id="line2d_11">
      <g>
       <use xlink:href="#m5c3b693c6b" x="33.2875" y="262.964169" style="stroke: #000000; stroke-width: 0.8"/>
      </g>
     </g>
     <g id="text_11">
      <!-- 200 -->
      <g transform="translate(7.2 266.763388) scale(0.1 -0.1)">
       <use xlink:href="#DejaVuSans-32"/>
       <use xlink:href="#DejaVuSans-30" x="63.623047"/>
       <use xlink:href="#DejaVuSans-30" x="127.246094"/>
      </g>
     </g>
    </g>
    <g id="ytick_4">
     <g id="line2d_12">
      <g>
       <use xlink:href="#m5c3b693c6b" x="33.2875" y="207.031191" style="stroke: #000000; stroke-width: 0.8"/>
      </g>
     </g>
     <g id="text_12">
      <!-- 300 -->
      <g transform="translate(7.2 210.83041) scale(0.1 -0.1)">
       <use xlink:href="#DejaVuSans-33"/>
       <use xlink:href="#DejaVuSans-30" x="63.623047"/>
       <use xlink:href="#DejaVuSans-30" x="127.246094"/>
      </g>
     </g>
    </g>
    <g id="ytick_5">
     <g id="line2d_13">
      <g>
       <use xlink:href="#m5c3b693c6b" x="33.2875" y="151.098213" style="stroke: #000000; stroke-width: 0.8"/>
      </g>
     </g>
     <g id="text_13">
      <!-- 400 -->
      <g transform="translate(7.2 154.897432) scale(0.1 -0.1)">
       <use xlink:href="#DejaVuSans-34"/>
       <use xlink:href="#DejaVuSans-30" x="63.623047"/>
       <use xlink:href="#DejaVuSans-30" x="127.246094"/>
      </g>
     </g>
    </g>
    <g id="ytick_6">
     <g id="line2d_14">
      <g>
       <use xlink:href="#m5c3b693c6b" x="33.2875" y="95.165235" style="stroke: #000000; stroke-width: 0.8"/>
      </g>
     </g>
     <g id="text_14">
      <!-- 500 -->
      <g transform="translate(7.2 98.964454) scale(0.1 -0.1)">
       <use xlink:href="#DejaVuSans-35"/>
       <use xlink:href="#DejaVuSans-30" x="63.623047"/>
       <use xlink:href="#DejaVuSans-30" x="127.246094"/>
      </g>
     </g>
    </g>
    <g id="ytick_7">
     <g id="line2d_15">
      <g>
       <use xlink:href="#m5c3b693c6b" x="33.2875" y="39.232258" style="stroke: #000000; stroke-width: 0.8"/>
      </g>
     </g>
     <g id="text_15">
      <!-- 600 -->
      <g transform="translate(7.2 43.031476) scale(0.1 -0.1)">
       <defs>
        <path id="DejaVuSans-36" d="M 2113 2584 
Q 1688 2584 1439 2293 
Q 1191 2003 1191 1497 
Q 1191 994 1439 701 
Q 1688 409 2113 409 
Q 2538 409 2786 701 
Q 3034 994 3034 1497 
Q 3034 2003 2786 2293 
Q 2538 2584 2113 2584 
z
M 3366 4563 
L 3366 3988 
Q 3128 4100 2886 4159 
Q 2644 4219 2406 4219 
Q 1781 4219 1451 3797 
Q 1122 3375 1075 2522 
Q 1259 2794 1537 2939 
Q 1816 3084 2150 3084 
Q 2853 3084 3261 2657 
Q 3669 2231 3669 1497 
Q 3669 778 3244 343 
Q 2819 -91 2113 -91 
Q 1303 -91 875 529 
Q 447 1150 447 2328 
Q 447 3434 972 4092 
Q 1497 4750 2381 4750 
Q 2619 4750 2861 4703 
Q 3103 4656 3366 4563 
z
" transform="scale(0.015625)"/>
       </defs>
       <use xlink:href="#DejaVuSans-36"/>
       <use xlink:href="#DejaVuSans-30" x="63.623047"/>
       <use xlink:href="#DejaVuSans-30" x="127.246094"/>
      </g>
     </g>
    </g>
   </g>
   <g id="line2d_16">
    <path d="M 38.539265 25.808343 
L 48.869011 25.808343 
L 48.985947 29.164321 
L 50.432176 29.164321 
L 50.961579 38.672928 
L 136.300282 38.672928 
L 136.725166 33.07963 
L 150.926047 33.07963 
L 151.760247 33.63896 
L 158.420097 33.63896 
L 158.652998 44.825555 
L 165.406845 44.825555 
L 166.80651 43.147566 
L 282.51283 43.147566 
L 282.842374 39.232258 
L 291.910922 39.232258 
L 292.234592 38.113598 
L 337.751636 38.113598 
L 337.97831 36.994938 
L 411.532203 36.994938 
L 411.742918 32.5203 
L 467.505985 32.5203 
L 467.601892 31.96097 
L 510.194988 31.96097 
L 510.586415 31.401641 
L 514.460819 31.401641 
L 514.589375 29.164321 
L 516.144228 29.164321 
L 516.548224 29.723651 
L 543.424908 29.723651 
L 543.637203 29.164321 
L 563.715735 29.164321 
L 563.715735 29.164321 
" clip-path="url(#p9c90c6683d)" style="fill: none; stroke: #0000ff; stroke-width: 1.5; stroke-linecap: square"/>
   </g>
   <g id="line2d_17">
    <path d="M 38.539265 168.996766 
L 39.959471 167.878107 
L 41.375095 168.996766 
L 44.727429 168.996766 
L 48.423778 170.115426 
L 48.697993 169.556096 
L 48.869011 169.556096 
L 48.985947 172.912075 
L 49.137874 172.352745 
L 49.255831 172.352745 
L 49.654998 172.912075 
L 50.432176 172.912075 
L 50.865025 185.21733 
L 50.961579 182.420681 
L 51.18625 185.77666 
L 51.257699 185.21733 
L 51.509461 185.21733 
L 51.912187 185.77666 
L 52.881451 185.77666 
L 52.910385 186.335989 
L 53.435787 186.335989 
L 53.658183 185.77666 
L 54.308393 189.691968 
L 54.383496 189.132638 
L 54.702772 189.691968 
L 55.320374 191.369957 
L 55.739279 190.251298 
L 56.401411 190.251298 
L 56.771444 191.369957 
L 57.02159 191.369957 
L 57.775206 191.929287 
L 58.113375 191.929287 
L 58.4811 193.047947 
L 58.80992 192.488617 
L 59.17506 193.607277 
L 59.554457 195.844596 
L 61.021457 196.963255 
L 61.644399 196.963255 
L 61.91124 197.522585 
L 62.336397 197.522585 
L 62.6494 198.081915 
L 62.968237 197.522585 
L 63.323723 197.522585 
L 63.531897 198.081915 
L 67.133276 198.081915 
L 67.496751 198.641245 
L 67.845056 198.641245 
L 67.980298 198.081915 
L 68.840524 198.641245 
L 69.20106 198.081915 
L 70.195092 198.081915 
L 70.514234 198.641245 
L 70.906602 198.081915 
L 72.715844 198.081915 
L 73.086533 198.641245 
L 73.290002 200.319234 
L 73.785225 199.200574 
L 74.936754 199.200574 
L 75.508077 199.759904 
L 75.853527 199.759904 
L 76.189034 200.319234 
L 76.563514 200.319234 
L 76.907348 199.759904 
L 77.235899 201.437893 
L 77.527588 201.437893 
L 78.320623 202.556553 
L 82.484295 202.556553 
L 82.815279 203.675213 
L 83.52069 203.675213 
L 83.833785 204.234542 
L 84.883899 204.234542 
L 85.889092 206.471861 
L 86.957512 206.471861 
L 87.340187 207.031191 
L 93.795248 207.031191 
L 94.57021 208.149851 
L 94.745764 207.031191 
L 95.988824 207.031191 
L 96.326382 207.590521 
L 96.698807 207.031191 
L 97.584903 207.031191 
L 98.07434 207.590521 
L 98.437682 207.031191 
L 103.925047 207.031191 
L 104.224918 212.065159 
L 104.432823 207.031191 
L 106.42145 207.031191 
L 106.782452 207.590521 
L 106.988507 212.624489 
L 107.475254 207.590521 
L 107.819032 207.590521 
L 108.047237 207.031191 
L 111.647813 207.031191 
L 111.830149 207.590521 
L 112.157365 207.590521 
L 112.696253 209.26851 
L 118.12769 209.26851 
L 119.313081 209.82784 
L 126.608104 209.82784 
L 126.911875 212.065159 
L 127.300038 212.065159 
L 127.644241 209.82784 
L 127.998372 209.82784 
L 128.242387 212.065159 
L 128.506852 209.82784 
L 128.946351 212.065159 
L 129.335659 213.183819 
L 133.849844 213.183819 
L 134.239474 213.743149 
L 136.300282 213.743149 
L 136.725166 207.590521 
L 137.028675 208.149851 
L 137.371737 209.82784 
L 137.79527 209.82784 
L 138.363156 210.9465 
L 138.755074 210.9465 
L 139.04396 211.505829 
L 139.432002 209.26851 
L 142.273179 214.861808 
L 142.563284 213.183819 
L 143.049714 212.624489 
L 144.594664 212.624489 
L 144.990972 212.065159 
L 145.340447 210.9465 
L 146.739513 210.9465 
L 146.995313 209.82784 
L 147.445242 210.9465 
L 148.461332 210.9465 
L 148.807136 212.065159 
L 149.140693 212.065159 
L 149.535735 212.624489 
L 149.695145 212.624489 
L 149.873304 214.302478 
L 150.114814 214.302478 
L 150.926047 214.861808 
L 151.596341 213.743149 
L 151.760247 213.743149 
L 152.285702 214.302478 
L 152.622837 215.421138 
L 154.365093 215.421138 
L 154.701481 215.980468 
L 155.062712 215.980468 
L 155.397149 216.539798 
L 155.710442 216.539798 
L 156.438425 217.099127 
L 156.814397 217.099127 
L 157.189315 218.777117 
L 157.410987 218.777117 
L 157.800649 218.217787 
L 158.420097 218.217787 
L 158.652998 219.895776 
L 159.227522 219.895776 
L 159.56791 221.014436 
L 160.022503 221.014436 
L 160.256663 221.573766 
L 160.771596 221.573766 
L 160.822836 222.133095 
L 161.083654 222.133095 
L 161.634017 222.692425 
L 162.885638 226.048404 
L 164.445739 226.048404 
L 164.763796 227.167063 
L 164.883557 226.607734 
L 165.022245 226.607734 
L 165.406845 226.048404 
L 166.80651 224.370414 
L 170.308299 224.370414 
L 170.714069 223.811085 
L 172.40892 223.811085 
L 172.650137 223.251755 
L 175.824055 223.251755 
L 176.232699 223.811085 
L 176.803946 223.811085 
L 177.26679 224.370414 
L 177.499679 223.811085 
L 179.73083 223.811085 
L 180.434966 224.929744 
L 181.933525 224.929744 
L 182.185827 232.760361 
L 182.47025 232.760361 
L 184.894135 234.43835 
L 185.043084 233.879021 
L 185.198473 234.43835 
L 185.60181 233.879021 
L 185.940135 233.879021 
L 186.296224 234.43835 
L 186.563628 234.43835 
L 186.992935 235.55701 
L 187.169494 235.55701 
L 187.332893 234.99768 
L 187.69913 236.11634 
L 190.134032 236.11634 
L 190.37091 236.67567 
L 191.680755 236.67567 
L 192.202273 236.11634 
L 192.593005 238.912989 
L 192.871172 237.234999 
L 193.233964 237.234999 
L 193.524756 240.590978 
L 193.728218 240.031648 
L 193.944811 240.590978 
L 194.053902 240.031648 
L 194.187423 241.709638 
L 194.533581 241.709638 
L 194.972171 242.268967 
L 195.831179 241.709638 
L 196.026776 242.828297 
L 196.346437 242.828297 
L 196.572809 241.150308 
L 197.341225 242.828297 
L 198.105295 243.387627 
L 198.776325 243.387627 
L 199.128341 245.065616 
L 199.451906 245.065616 
L 199.643567 244.506286 
L 199.979958 244.506286 
L 201.281006 246.743606 
L 201.49799 245.624946 
L 201.91566 245.065616 
L 202.224108 246.184276 
L 202.259933 246.743606 
L 203.722309 246.743606 
L 203.835034 247.302935 
L 204.359713 247.862265 
L 205.758381 247.862265 
L 206.398596 250.658914 
L 209.996288 250.658914 
L 210.280378 251.218244 
L 210.654017 250.099584 
L 210.871543 251.218244 
L 214.793754 251.218244 
L 215.121461 251.777574 
L 215.911734 255.133552 
L 216.208219 253.455563 
L 216.56155 254.014893 
L 216.952788 253.455563 
L 217.228105 253.455563 
L 217.645273 251.777574 
L 217.868963 251.777574 
L 217.912379 252.336903 
L 218.616286 252.336903 
L 219.012482 248.980925 
L 219.361784 248.980925 
L 220.412553 249.540254 
L 220.47904 248.980925 
L 221.049559 248.421595 
L 221.134297 248.980925 
L 223.883323 248.980925 
L 224.074605 249.540254 
L 224.587632 250.099584 
L 225.272698 251.218244 
L 225.450882 252.336903 
L 225.691664 252.336903 
L 225.961399 253.455563 
L 226.286163 252.896233 
L 226.649807 252.896233 
L 226.923812 252.336903 
L 227.310093 252.896233 
L 227.654783 252.896233 
L 227.985148 253.455563 
L 228.252579 253.455563 
L 228.755984 252.896233 
L 229.017691 253.455563 
L 229.288556 252.896233 
L 230.075134 248.421595 
L 230.831765 249.540254 
L 230.942388 253.455563 
L 231.111046 253.455563 
L 231.41965 254.014893 
L 231.778176 253.455563 
L 232.105509 253.455563 
L 232.508737 252.896233 
L 232.857995 254.014893 
L 234.118506 254.014893 
L 234.619454 254.574222 
L 234.905739 254.574222 
L 234.927953 255.133552 
L 236.356278 255.133552 
L 236.762916 256.252212 
L 238.761406 256.252212 
L 239.159797 257.370871 
L 240.516428 257.370871 
L 242.987838 256.811542 
L 243.217105 257.370871 
L 243.835443 257.370871 
L 244.355739 257.930201 
L 244.704269 259.048861 
L 244.808487 258.489531 
L 245.187313 259.60819 
L 246.030045 259.60819 
L 249.443249 260.72685 
L 257.880111 260.72685 
L 258.223772 260.16752 
L 259.873265 260.16752 
L 260.215173 260.72685 
L 261.348202 260.72685 
L 261.739256 261.28618 
L 262.020446 260.72685 
L 262.346786 261.28618 
L 262.707873 260.72685 
L 263.004234 261.84551 
L 263.458131 261.28618 
L 263.78932 261.84551 
L 270.98838 261.84551 
L 271.360254 260.72685 
L 271.754214 261.28618 
L 272.110513 260.72685 
L 272.509604 260.72685 
L 272.829663 260.16752 
L 274.165422 260.16752 
L 274.504596 260.72685 
L 274.887708 260.16752 
L 275.236745 259.048861 
L 275.928839 259.048861 
L 276.319318 258.489531 
L 276.611517 259.60819 
L 276.9874 259.60819 
L 277.277802 259.048861 
L 278.194371 260.16752 
L 278.730569 259.60819 
L 279.049137 260.16752 
L 279.726889 260.16752 
L 280.109411 259.60819 
L 280.485024 261.28618 
L 280.846549 260.72685 
L 281.540618 260.72685 
L 281.805191 260.16752 
L 282.143561 260.72685 
L 282.51283 260.72685 
L 282.842374 255.692882 
L 282.973297 256.252212 
L 283.232265 256.252212 
L 283.412668 256.811542 
L 283.569895 256.811542 
L 283.776899 257.370871 
L 283.917183 256.252212 
L 284.245673 256.811542 
L 284.380183 256.811542 
L 284.609752 257.370871 
L 285.204789 257.370871 
L 285.494162 258.489531 
L 285.78095 257.370871 
L 285.967665 257.930201 
L 287.020376 257.930201 
L 287.333765 257.370871 
L 287.630974 257.370871 
L 288.004449 257.930201 
L 288.349798 257.930201 
L 288.759182 257.370871 
L 289.154244 257.930201 
L 289.460774 257.930201 
L 289.943154 259.048861 
L 291.910922 259.048861 
L 292.234592 257.370871 
L 293.759668 257.370871 
L 294.109923 257.930201 
L 294.38544 258.489531 
L 294.924879 258.489531 
L 295.093175 259.60819 
L 295.170377 259.048861 
L 295.352907 259.60819 
L 295.866324 259.60819 
L 296.11801 260.72685 
L 296.803298 260.72685 
L 296.905806 261.28618 
L 297.12318 261.84551 
L 298.181074 261.84551 
L 298.434774 263.523499 
L 298.668878 264.082829 
L 298.803979 264.082829 
L 299.25971 264.642159 
L 299.42011 264.082829 
L 299.497843 264.642159 
L 299.998924 264.642159 
L 300.5874 265.201488 
L 301.907635 265.201488 
L 302.248131 264.642159 
L 302.574386 265.201488 
L 302.94216 265.201488 
L 303.118417 265.760818 
L 303.160812 265.201488 
L 303.370011 265.760818 
L 303.533631 265.760818 
L 303.695213 266.879478 
L 304.317403 267.998137 
L 304.770468 267.438807 
L 305.114929 267.998137 
L 305.792107 267.998137 
L 306.159643 269.116797 
L 306.294193 268.557467 
L 306.512776 270.235456 
L 306.822514 269.676127 
L 307.023395 270.235456 
L 307.18223 269.676127 
L 307.357752 270.794786 
L 307.715505 270.794786 
L 307.821464 271.354116 
L 308.241189 270.794786 
L 308.565812 271.913446 
L 309.298206 271.913446 
L 309.561854 273.032105 
L 309.935816 271.913446 
L 310.189874 271.913446 
L 310.283019 272.472775 
L 310.966545 272.472775 
L 311.286275 274.710095 
L 311.746095 272.472775 
L 311.817387 273.032105 
L 312.422834 272.472775 
L 312.480166 273.591435 
L 312.688404 273.591435 
L 313.108017 274.150765 
L 313.448554 273.591435 
L 313.705821 273.591435 
L 314.086525 274.710095 
L 314.500702 274.710095 
L 314.90235 274.150765 
L 315.20253 274.710095 
L 315.384923 274.150765 
L 315.566331 275.269424 
L 317.173772 275.269424 
L 317.667817 275.828754 
L 318.676537 275.828754 
L 319.034447 274.710095 
L 319.709007 274.710095 
L 320.046621 275.269424 
L 323.11797 275.269424 
L 323.532468 274.710095 
L 323.921009 275.828754 
L 328.63453 275.828754 
L 329.668548 276.388084 
L 330.282696 276.388084 
L 330.78147 276.947414 
L 331.175635 276.947414 
L 331.407258 277.506743 
L 336.653877 277.506743 
L 337.080015 276.947414 
L 337.417866 277.506743 
L 337.751636 276.947414 
L 337.97831 273.591435 
L 340.051027 273.591435 
L 340.235961 274.150765 
L 340.594438 274.150765 
L 340.712986 273.591435 
L 342.858539 273.591435 
L 343.156186 274.150765 
L 343.268674 273.591435 
L 343.778509 273.591435 
L 344.014177 274.710095 
L 344.193228 273.591435 
L 344.311245 273.591435 
L 344.533037 274.710095 
L 344.690457 274.710095 
L 344.893493 273.591435 
L 345.071065 274.710095 
L 345.18486 273.591435 
L 345.230692 274.710095 
L 346.451957 274.710095 
L 346.645817 275.269424 
L 346.674248 275.828754 
L 347.296144 275.828754 
L 347.332797 276.388084 
L 347.691122 276.388084 
L 347.876663 276.947414 
L 348.034855 276.388084 
L 348.229198 276.947414 
L 348.360624 276.388084 
L 348.548613 276.947414 
L 348.668866 276.947414 
L 348.799226 276.388084 
L 348.817103 276.947414 
L 349.207822 276.947414 
L 349.452633 277.506743 
L 349.607038 277.506743 
L 349.838263 278.625403 
L 350.094826 279.184733 
L 350.27202 278.625403 
L 352.245638 278.625403 
L 352.52783 279.184733 
L 354.040389 279.184733 
L 354.28167 279.744063 
L 354.600599 279.744063 
L 354.83726 280.303392 
L 354.967701 279.744063 
L 355.593506 279.744063 
L 355.804695 280.862722 
L 356.379521 280.862722 
L 356.434722 281.422052 
L 356.514931 280.862722 
L 356.63902 280.862722 
L 356.861644 281.981382 
L 357.093488 282.540711 
L 357.158286 281.981382 
L 357.421094 284.218701 
L 358.485465 284.218701 
L 358.592469 284.778031 
L 358.825644 284.778031 
L 358.962237 285.89669 
L 359.122544 284.778031 
L 360.535537 284.778031 
L 360.617299 285.33736 
L 360.888326 284.778031 
L 361.018091 285.33736 
L 361.258013 284.778031 
L 361.56966 284.778031 
L 361.760774 285.89669 
L 362.109152 285.89669 
L 362.252053 285.33736 
L 362.374489 286.45602 
L 362.736078 284.778031 
L 363.114997 285.89669 
L 363.389489 284.778031 
L 364.032052 284.778031 
L 364.532128 286.45602 
L 364.687734 285.89669 
L 364.86006 286.45602 
L 365.325046 285.33736 
L 365.473938 286.45602 
L 366.577451 286.45602 
L 366.755325 287.01535 
L 367.065296 287.01535 
L 367.230537 286.45602 
L 367.439085 287.01535 
L 367.570953 286.45602 
L 367.972661 287.574679 
L 368.521107 287.574679 
L 368.907906 288.693339 
L 370.583217 288.693339 
L 370.766386 289.252669 
L 370.990438 288.693339 
L 371.101294 289.252669 
L 371.329724 288.693339 
L 371.633105 288.693339 
L 371.828787 289.252669 
L 371.957451 288.693339 
L 372.367072 288.693339 
L 372.493769 289.252669 
L 373.068068 289.252669 
L 373.10678 290.371328 
L 375.563024 290.371328 
L 375.805338 290.930658 
L 375.964386 290.371328 
L 376.099133 290.930658 
L 376.201485 290.371328 
L 376.324259 291.489988 
L 376.889929 291.489988 
L 377.041061 292.049318 
L 377.156766 292.049318 
L 377.210845 291.489988 
L 377.266251 292.049318 
L 377.570958 291.489988 
L 377.649709 292.049318 
L 377.947694 292.608647 
L 378.064408 293.167977 
L 378.287222 293.167977 
L 378.338454 293.727307 
L 378.648682 295.405296 
L 378.788315 294.845967 
L 378.976771 294.845967 
L 379.010722 295.964626 
L 380.334793 295.964626 
L 380.499249 296.523956 
L 380.758644 295.964626 
L 381.207962 296.523956 
L 381.328049 295.964626 
L 381.524639 296.523956 
L 381.766246 296.523956 
L 381.910024 297.083286 
L 382.244911 297.083286 
L 382.253122 297.642615 
L 382.356354 297.083286 
L 382.455313 298.201945 
L 382.601575 298.201945 
L 382.80404 298.761275 
L 384.192917 298.761275 
L 384.22957 298.201945 
L 384.317005 299.320605 
L 384.683279 299.320605 
L 384.870336 298.761275 
L 385.014326 299.320605 
L 385.231113 298.761275 
L 385.393539 299.320605 
L 385.576028 299.320605 
L 385.732837 298.761275 
L 385.888319 300.439264 
L 387.749606 300.439264 
L 388.000158 300.998594 
L 388.122598 300.998594 
L 388.309333 301.557924 
L 388.603965 300.998594 
L 395.635083 300.998594 
L 395.754458 301.557924 
L 395.967972 300.998594 
L 396.029509 301.557924 
L 396.667505 301.557924 
L 396.844168 302.117254 
L 397.739596 302.117254 
L 397.859237 302.676583 
L 398.027879 302.117254 
L 399.399539 302.117254 
L 399.589797 302.676583 
L 399.829393 302.117254 
L 399.961687 302.117254 
L 400.172515 303.235913 
L 400.288493 302.676583 
L 400.802549 302.676583 
L 401.026533 303.235913 
L 402.080832 303.235913 
L 402.252574 302.117254 
L 402.600569 303.235913 
L 404.472965 303.235913 
L 404.664939 303.795243 
L 404.836444 303.795243 
L 405.021149 304.354573 
L 405.159205 304.354573 
L 405.330099 304.913903 
L 405.729941 304.913903 
L 405.800775 305.473232 
L 406.134102 305.473232 
L 406.344653 304.354573 
L 406.509061 304.913903 
L 406.760723 304.913903 
L 406.863341 305.473232 
L 407.248343 305.473232 
L 407.592691 306.032562 
L 407.968184 307.710552 
L 408.091123 307.151222 
L 408.205593 307.710552 
L 408.468337 308.269881 
L 408.592927 307.710552 
L 408.804226 308.269881 
L 408.927353 308.269881 
L 409.148526 307.710552 
L 409.329162 307.710552 
L 409.683047 309.388541 
L 409.89679 308.829211 
L 410.024111 308.829211 
L 410.191253 309.388541 
L 410.235204 309.947871 
L 410.377325 309.947871 
L 410.446683 309.388541 
L 410.676251 309.947871 
L 410.835215 309.388541 
L 410.966267 309.947871 
L 411.532203 309.947871 
L 411.742918 302.117254 
L 412.305685 303.235913 
L 412.677262 303.235913 
L 412.807233 303.795243 
L 413.009673 303.235913 
L 413.139616 303.235913 
L 413.293373 302.676583 
L 413.470165 303.235913 
L 413.71301 303.235913 
L 413.832498 302.676583 
L 413.984309 303.235913 
L 414.191358 302.676583 
L 414.272737 303.235913 
L 414.572263 303.795243 
L 414.703098 303.795243 
L 415.019337 302.676583 
L 415.305831 303.235913 
L 416.578645 303.235913 
L 416.880655 303.795243 
L 417.197755 303.235913 
L 417.768138 303.235913 
L 418.205422 304.354573 
L 418.355412 302.676583 
L 418.607862 303.235913 
L 418.929682 302.676583 
L 419.076898 304.354573 
L 419.254639 303.235913 
L 419.422617 303.235913 
L 419.534486 303.795243 
L 419.617973 306.032562 
L 419.632959 305.473232 
L 420.003309 306.032562 
L 420.917401 306.032562 
L 421.349804 307.151222 
L 421.528176 306.591892 
L 422.168535 306.591892 
L 422.343012 306.032562 
L 422.52949 306.591892 
L 422.734033 306.591892 
L 422.854197 306.032562 
L 423.219767 306.591892 
L 423.434527 306.591892 
L 423.575321 307.151222 
L 423.747517 306.591892 
L 423.932512 306.591892 
L 424.105878 306.032562 
L 424.213268 306.591892 
L 425.178994 306.591892 
L 425.420601 308.269881 
L 425.712716 307.710552 
L 425.954314 307.710552 
L 426.149907 307.151222 
L 426.238838 307.710552 
L 426.541809 307.151222 
L 426.655073 307.710552 
L 426.921978 307.710552 
L 427.026397 308.269881 
L 427.345362 307.710552 
L 428.002637 307.710552 
L 428.246318 308.269881 
L 428.652249 308.269881 
L 428.754601 308.829211 
L 428.927589 308.269881 
L 429.331979 309.388541 
L 429.452304 309.388541 
L 429.630761 309.947871 
L 429.795265 309.947871 
L 430.104794 310.5072 
L 432.622632 310.5072 
L 432.890867 311.06653 
L 433.142385 311.06653 
L 433.193593 309.947871 
L 433.257012 310.5072 
L 433.667361 310.5072 
L 433.761025 311.06653 
L 434.300962 311.06653 
L 434.558824 311.62586 
L 434.905155 311.62586 
L 434.916675 311.06653 
L 435.031804 311.62586 
L 435.137683 311.06653 
L 436.645755 311.06653 
L 436.928526 310.5072 
L 437.717327 311.06653 
L 439.353102 311.06653 
L 439.423883 311.62586 
L 441.140374 311.62586 
L 441.294992 312.18519 
L 442.882397 314.981839 
L 443.032846 314.981839 
L 443.189807 315.541168 
L 443.259708 314.981839 
L 443.597744 315.541168 
L 443.9118 316.100498 
L 444.287394 316.100498 
L 444.413524 316.659828 
L 444.888185 316.659828 
L 445.575676 316.100498 
L 445.610311 317.778488 
L 446.163613 317.778488 
L 446.335102 317.219158 
L 446.45966 317.778488 
L 447.73083 317.778488 
L 448.025921 317.219158 
L 449.389157 317.219158 
L 450.230932 317.778488 
L 451.931369 317.778488 
L 452.768692 318.337817 
L 452.880678 318.897147 
L 455.398905 318.897147 
L 455.635482 318.337817 
L 456.913881 318.337817 
L 457.847337 317.778488 
L 458.527558 317.778488 
L 458.865124 318.337817 
L 459.164818 319.456477 
L 459.34325 319.456477 
L 459.350214 318.897147 
L 461.351684 318.897147 
L 461.566492 319.456477 
L 466.622753 319.456477 
L 467.26029 320.015807 
L 467.505985 320.015807 
L 467.601892 320.575136 
L 467.914372 320.575136 
L 468.045601 320.015807 
L 468.249027 320.575136 
L 469.391203 320.575136 
L 469.900326 321.134466 
L 470.253982 322.253126 
L 473.351349 322.253126 
L 473.896514 321.693796 
L 474.054248 322.253126 
L 474.213811 321.693796 
L 474.393184 322.253126 
L 475.242691 322.253126 
L 475.634355 321.693796 
L 475.833105 322.253126 
L 476.381132 321.134466 
L 476.594722 322.253126 
L 477.92092 322.253126 
L 477.936609 322.812456 
L 480.038343 322.812456 
L 481.060231 323.371785 
L 481.366897 322.812456 
L 481.936665 322.812456 
L 482.074785 323.371785 
L 482.561621 321.693796 
L 482.883047 322.253126 
L 483.315164 321.693796 
L 483.635235 321.693796 
L 483.780597 322.253126 
L 484.663042 322.253126 
L 485.711535 321.693796 
L 485.869353 322.253126 
L 486.91266 322.253126 
L 487.251391 321.693796 
L 492.561466 322.253126 
L 492.959065 321.693796 
L 493.302685 322.253126 
L 493.610594 321.693796 
L 493.645044 322.253126 
L 493.913107 322.812456 
L 494.068351 322.812456 
L 494.21036 323.371785 
L 496.679197 323.371785 
L 496.731804 323.931115 
L 497.038683 323.931115 
L 497.858095 323.371785 
L 497.884161 323.931115 
L 498.198985 323.371785 
L 498.275504 324.490445 
L 498.478141 324.490445 
L 498.889246 325.049775 
L 499.57818 325.049775 
L 499.996507 324.490445 
L 500.466857 325.609104 
L 500.486149 326.168434 
L 500.809971 326.727764 
L 500.943062 326.727764 
L 501.279115 326.168434 
L 501.751649 326.168434 
L 501.84988 326.727764 
L 502.925771 326.727764 
L 503.073987 326.168434 
L 503.255439 327.287094 
L 503.404995 327.287094 
L 503.688839 326.727764 
L 503.946983 327.287094 
L 504.522649 327.287094 
L 504.776177 328.405753 
L 506.584329 328.405753 
L 506.8005 328.965083 
L 506.932867 328.965083 
L 507.150675 328.405753 
L 507.206848 328.965083 
L 507.783801 328.965083 
L 507.899844 329.524413 
L 508.215018 329.524413 
L 508.305038 330.643072 
L 508.796775 330.643072 
L 508.981532 332.321062 
L 509.366233 332.321062 
L 509.591225 331.761732 
L 509.712776 332.321062 
L 509.876401 332.321062 
L 509.888897 333.999051 
L 510.194988 333.999051 
L 510.586415 333.439721 
L 510.763992 333.439721 
L 510.915686 333.999051 
L 511.292928 333.999051 
L 511.683841 333.439721 
L 511.724048 334.558381 
L 512.07017 334.558381 
L 512.133971 335.117711 
L 512.375139 335.67704 
L 513.01223 335.67704 
L 513.105869 336.7957 
L 513.379276 336.7957 
L 513.539567 337.35503 
L 513.693376 337.35503 
L 514.24495 337.91436 
L 514.460819 337.35503 
L 514.589375 329.524413 
L 514.728798 328.965083 
L 514.823225 331.202402 
L 515.50339 331.202402 
L 515.782952 330.643072 
L 515.986643 331.761732 
L 516.144228 331.761732 
L 516.548224 332.321062 
L 516.992569 332.321062 
L 517.195318 331.761732 
L 517.354065 332.321062 
L 518.425457 332.321062 
L 518.557377 332.880392 
L 519.045833 331.761732 
L 519.443022 332.321062 
L 519.670629 332.321062 
L 519.758047 332.880392 
L 519.958992 331.761732 
L 520.154324 332.880392 
L 520.964793 332.880392 
L 521.090413 332.321062 
L 521.37911 332.321062 
L 521.424525 332.880392 
L 521.751411 333.439721 
L 521.764169 332.880392 
L 522.378916 332.880392 
L 522.695325 333.439721 
L 524.337259 333.439721 
L 524.460375 333.999051 
L 524.785994 333.439721 
L 524.796867 333.999051 
L 525.264431 334.558381 
L 525.551721 334.558381 
L 525.882322 335.117711 
L 526.047394 335.67704 
L 526.173601 335.67704 
L 526.570742 334.558381 
L 526.649195 335.67704 
L 526.916248 335.117711 
L 527.141028 335.67704 
L 528.144207 335.67704 
L 528.256607 336.23637 
L 528.396694 335.67704 
L 528.882146 336.23637 
L 529.116632 335.67704 
L 529.354274 336.23637 
L 529.497055 335.67704 
L 529.829578 336.7957 
L 530.059327 336.23637 
L 530.845153 336.23637 
L 531.157786 336.7957 
L 531.614277 336.7957 
L 531.977471 335.67704 
L 532.074274 336.23637 
L 532.46234 336.23637 
L 532.560824 337.35503 
L 533.050261 336.23637 
L 533.221183 336.7957 
L 533.615534 336.23637 
L 533.903391 336.23637 
L 534.050864 336.7957 
L 534.256657 336.7957 
L 534.284075 333.439721 
L 534.403362 333.439721 
L 534.864992 333.999051 
L 534.924796 332.880392 
L 535.090539 333.999051 
L 535.242491 333.439721 
L 535.333694 333.999051 
L 535.6955 333.439721 
L 536.129616 333.999051 
L 536.348288 333.999051 
L 536.531207 333.439721 
L 537.075134 333.439721 
L 537.512602 334.558381 
L 537.741757 333.999051 
L 538.205131 333.999051 
L 538.421821 333.439721 
L 538.453722 332.880392 
L 538.723666 333.999051 
L 538.866825 333.439721 
L 539.035214 333.999051 
L 539.285424 333.439721 
L 539.568617 333.439721 
L 539.750544 332.880392 
L 540.095564 332.880392 
L 540.454773 333.999051 
L 540.698514 333.439721 
L 540.995342 334.558381 
L 541.149923 334.558381 
L 541.246952 333.999051 
L 541.548837 333.999051 
L 541.574176 334.558381 
L 542.574939 334.558381 
L 542.738889 335.117711 
L 542.879317 335.117711 
L 543.095794 335.67704 
L 543.282509 335.117711 
L 543.424908 335.67704 
L 543.637203 335.117711 
L 543.756712 335.67704 
L 543.910959 335.117711 
L 543.960656 335.67704 
L 544.131413 336.7957 
L 544.340033 336.23637 
L 544.405688 335.67704 
L 544.625703 336.23637 
L 544.805502 335.67704 
L 545.022216 336.23637 
L 545.377356 336.23637 
L 545.476243 336.7957 
L 545.721584 336.23637 
L 546.365916 337.91436 
L 546.539243 337.91436 
L 546.718523 336.7957 
L 546.803281 337.35503 
L 547.056752 337.35503 
L 547.172075 336.7957 
L 547.379337 336.7957 
L 547.568034 337.35503 
L 547.810622 337.35503 
L 548.217899 339.033019 
L 548.43458 338.473689 
L 551.282903 338.473689 
L 551.415451 339.033019 
L 551.583538 339.033019 
L 551.718711 338.473689 
L 551.870434 339.033019 
L 551.989918 339.033019 
L 552.665596 336.7957 
L 552.778627 337.91436 
L 553.361635 336.7957 
L 553.994102 336.7957 
L 554.679011 337.91436 
L 555.889798 337.35503 
L 556.197284 337.91436 
L 556.536032 337.35503 
L 556.777964 338.473689 
L 556.874996 337.35503 
L 557.193918 338.473689 
L 557.541394 337.35503 
L 557.65642 338.473689 
L 557.879241 338.473689 
L 558.001729 337.91436 
L 558.223746 338.473689 
L 558.356986 338.473689 
L 558.481094 337.91436 
L 558.631888 339.592349 
L 559.02736 338.473689 
L 559.397248 338.473689 
L 559.623262 339.033019 
L 560.049803 339.033019 
L 560.396684 338.473689 
L 560.599475 338.473689 
L 560.752778 339.592349 
L 560.944004 339.033019 
L 561.050767 339.592349 
L 561.308553 340.151679 
L 561.466616 340.151679 
L 561.742966 339.033019 
L 562.007221 340.711008 
L 562.339363 340.711008 
L 562.364573 341.829668 
L 562.387768 341.270338 
L 562.561477 340.711008 
L 562.744079 341.829668 
L 562.820243 340.711008 
L 563.095504 340.711008 
L 563.133009 341.270338 
L 563.443133 341.829668 
L 563.628738 341.829668 
L 563.715735 340.711008 
L 563.715735 340.711008 
" clip-path="url(#p9c90c6683d)" style="fill: none; stroke-dasharray: 3,1.5; stroke-dashoffset: 0; stroke: #808080; stroke-width: 1.5"/>
   </g>
   <g id="line2d_18">
    <path d="M 38.539265 297.083286 
L 39.959471 296.523956 
L 41.375095 295.405296 
L 44.727429 295.405296 
L 48.423778 294.845967 
L 48.697993 295.405296 
L 48.869011 295.405296 
L 48.985947 294.286637 
L 49.137874 294.845967 
L 49.255831 294.845967 
L 49.654998 294.286637 
L 50.432176 294.286637 
L 50.865025 291.489988 
L 50.961579 294.286637 
L 51.18625 290.930658 
L 51.257699 291.489988 
L 51.509461 291.489988 
L 51.912187 290.930658 
L 52.572385 290.930658 
L 52.910385 288.693339 
L 53.435787 288.693339 
L 53.969115 289.811999 
L 54.308393 285.33736 
L 54.383496 285.89669 
L 54.702772 285.33736 
L 55.320374 283.659371 
L 55.739279 284.778031 
L 56.401411 284.778031 
L 56.771444 285.89669 
L 57.02159 285.33736 
L 57.775206 284.778031 
L 58.113375 284.778031 
L 58.4811 283.659371 
L 59.008746 283.659371 
L 59.554457 280.303392 
L 61.021457 278.625403 
L 61.221236 278.066073 
L 61.644399 278.066073 
L 61.91124 277.506743 
L 62.336397 277.506743 
L 62.6494 278.625403 
L 62.968237 279.184733 
L 63.323723 279.184733 
L 63.531897 278.625403 
L 66.07067 278.625403 
L 66.476468 278.066073 
L 67.133276 278.066073 
L 67.496751 277.506743 
L 67.845056 277.506743 
L 67.980298 278.066073 
L 68.840524 277.506743 
L 69.20106 278.066073 
L 70.195092 278.066073 
L 70.514234 277.506743 
L 70.906602 278.066073 
L 72.715844 278.066073 
L 73.086533 277.506743 
L 73.290002 275.828754 
L 73.785225 276.947414 
L 74.482667 276.947414 
L 74.808524 275.828754 
L 74.936754 276.947414 
L 75.508077 275.269424 
L 75.853527 275.269424 
L 76.189034 274.710095 
L 76.563514 274.710095 
L 76.907348 275.269424 
L 77.235899 274.150765 
L 77.527588 274.150765 
L 78.320623 273.032105 
L 82.484295 273.032105 
L 82.815279 271.913446 
L 83.52069 271.913446 
L 83.833785 269.116797 
L 84.883899 269.116797 
L 85.889092 266.879478 
L 86.957512 266.879478 
L 87.340187 266.320148 
L 93.795248 266.320148 
L 94.57021 264.642159 
L 94.745764 266.320148 
L 95.988824 266.320148 
L 96.326382 265.201488 
L 96.698807 266.320148 
L 97.584903 266.320148 
L 98.07434 265.201488 
L 98.437682 266.320148 
L 103.925047 266.320148 
L 104.224918 261.28618 
L 104.432823 266.320148 
L 106.42145 266.320148 
L 106.782452 265.760818 
L 106.988507 260.72685 
L 107.475254 265.760818 
L 107.819032 265.760818 
L 108.047237 266.320148 
L 111.647813 266.320148 
L 111.830149 265.760818 
L 112.157365 265.760818 
L 112.696253 264.082829 
L 118.12769 264.082829 
L 119.313081 263.523499 
L 126.608104 263.523499 
L 126.911875 260.72685 
L 127.300038 260.72685 
L 127.644241 263.523499 
L 127.998372 263.523499 
L 128.242387 260.72685 
L 128.506852 263.523499 
L 128.946351 260.72685 
L 129.335659 259.60819 
L 133.849844 259.60819 
L 134.239474 259.048861 
L 135.948877 259.048861 
L 136.300282 257.930201 
L 136.725166 255.692882 
L 137.028675 255.133552 
L 137.371737 251.777574 
L 137.79527 251.777574 
L 138.363156 250.658914 
L 138.755074 250.658914 
L 139.432002 249.540254 
L 142.273179 244.506286 
L 142.563284 245.624946 
L 144.594664 245.624946 
L 144.990972 243.387627 
L 145.340447 243.946957 
L 146.739513 243.946957 
L 146.995313 245.065616 
L 147.445242 243.946957 
L 148.461332 243.946957 
L 148.807136 242.828297 
L 149.140693 242.828297 
L 149.535735 242.268967 
L 149.695145 242.268967 
L 149.873304 240.590978 
L 150.114814 240.590978 
L 150.926047 240.031648 
L 151.596341 241.709638 
L 151.760247 241.709638 
L 152.285702 241.150308 
L 152.622837 240.031648 
L 154.365093 240.031648 
L 154.701481 239.472318 
L 155.062712 239.472318 
L 155.397149 238.912989 
L 155.710442 238.912989 
L 156.438425 238.353659 
L 156.814397 238.353659 
L 157.189315 236.67567 
L 157.800649 236.67567 
L 158.1827 236.11634 
L 158.420097 236.11634 
L 158.552632 246.184276 
L 158.652998 245.624946 
L 159.227522 245.624946 
L 159.56791 244.506286 
L 160.022503 244.506286 
L 160.256663 243.946957 
L 160.771596 243.946957 
L 160.822836 243.387627 
L 161.634017 243.387627 
L 162.06954 241.709638 
L 162.974621 240.031648 
L 164.445739 240.031648 
L 164.763796 238.912989 
L 164.883557 239.472318 
L 165.022245 239.472318 
L 165.406845 240.031648 
L 166.80651 239.472318 
L 170.308299 239.472318 
L 170.714069 240.031648 
L 172.40892 240.031648 
L 172.650137 240.590978 
L 173.091988 240.031648 
L 175.824055 240.031648 
L 176.232699 239.472318 
L 176.803946 239.472318 
L 177.26679 238.912989 
L 177.499679 239.472318 
L 179.73083 239.472318 
L 180.434966 238.353659 
L 181.933525 238.353659 
L 182.185827 230.523042 
L 182.47025 230.523042 
L 184.894135 228.845053 
L 185.043084 229.404382 
L 185.198473 228.845053 
L 185.60181 229.404382 
L 185.940135 229.404382 
L 186.296224 228.845053 
L 186.563628 228.845053 
L 186.992935 227.726393 
L 187.169494 227.726393 
L 187.332893 228.285723 
L 187.69913 227.167063 
L 190.134032 227.167063 
L 190.37091 226.607734 
L 190.765835 226.607734 
L 191.13235 226.048404 
L 191.512857 226.607734 
L 191.680755 226.607734 
L 192.202273 227.167063 
L 192.593005 224.370414 
L 192.871172 226.048404 
L 193.233964 226.048404 
L 193.524756 222.692425 
L 193.728218 223.251755 
L 193.944811 222.133095 
L 194.053902 222.692425 
L 194.187423 221.014436 
L 194.533581 221.014436 
L 194.972171 220.455106 
L 195.831179 221.014436 
L 196.026776 219.895776 
L 196.346437 219.895776 
L 196.572809 221.573766 
L 197.341225 219.895776 
L 198.105295 219.336446 
L 198.776325 219.336446 
L 199.128341 217.658457 
L 199.451906 217.658457 
L 199.643567 218.217787 
L 199.979958 218.217787 
L 201.281006 214.861808 
L 201.49799 217.099127 
L 201.91566 217.658457 
L 202.40554 214.861808 
L 203.722309 214.861808 
L 203.835034 214.302478 
L 204.359713 213.743149 
L 205.758381 213.743149 
L 206.398596 210.9465 
L 209.996288 210.9465 
L 210.280378 209.82784 
L 210.654017 212.065159 
L 210.871543 210.38717 
L 214.793754 210.38717 
L 215.121461 209.82784 
L 215.911734 206.471861 
L 216.208219 208.149851 
L 216.56155 207.590521 
L 216.952788 208.149851 
L 217.228105 208.149851 
L 217.645273 202.556553 
L 217.868963 202.556553 
L 217.912379 201.997223 
L 218.616286 201.997223 
L 219.012482 200.878564 
L 219.361784 199.200574 
L 220.412553 198.641245 
L 220.47904 199.200574 
L 221.049559 199.759904 
L 221.134297 199.200574 
L 223.883323 199.200574 
L 224.074605 198.641245 
L 224.587632 198.081915 
L 225.272698 196.963255 
L 225.450882 195.844596 
L 225.691664 195.844596 
L 225.961399 194.725936 
L 226.286163 195.285266 
L 226.649807 195.285266 
L 226.923812 195.844596 
L 227.310093 195.285266 
L 227.654783 195.285266 
L 227.985148 194.725936 
L 228.252579 194.725936 
L 228.755984 195.285266 
L 229.017691 194.725936 
L 229.288556 195.285266 
L 229.745489 198.081915 
L 230.075134 198.641245 
L 230.831765 197.522585 
L 230.942388 193.607277 
L 231.111046 193.607277 
L 231.41965 193.047947 
L 231.778176 193.607277 
L 232.105509 193.607277 
L 232.508737 194.166606 
L 232.857995 193.047947 
L 234.118506 193.047947 
L 234.619454 192.488617 
L 234.905739 192.488617 
L 234.927953 191.929287 
L 236.356278 191.929287 
L 236.762916 190.810628 
L 238.761406 190.810628 
L 239.159797 189.691968 
L 242.987838 189.691968 
L 243.217105 189.132638 
L 243.835443 189.132638 
L 244.355739 188.573309 
L 244.704269 187.454649 
L 244.808487 188.013979 
L 245.187313 186.895319 
L 246.030045 186.895319 
L 249.443249 185.77666 
L 257.880111 185.77666 
L 258.223772 186.335989 
L 259.873265 186.335989 
L 260.215173 185.77666 
L 261.348202 185.77666 
L 261.739256 185.21733 
L 262.020446 185.77666 
L 262.346786 185.21733 
L 262.707873 185.77666 
L 263.004234 184.658 
L 263.458131 185.21733 
L 263.78932 184.658 
L 270.98838 184.658 
L 271.360254 185.77666 
L 271.754214 185.21733 
L 272.110513 185.77666 
L 272.509604 185.21733 
L 272.829663 185.77666 
L 274.165422 185.77666 
L 274.504596 185.21733 
L 274.887708 185.77666 
L 275.236745 184.658 
L 275.928839 184.658 
L 276.319318 185.21733 
L 276.611517 184.09867 
L 276.9874 184.09867 
L 277.277802 184.658 
L 278.194371 183.539341 
L 278.730569 184.09867 
L 279.049137 183.539341 
L 279.726889 183.539341 
L 280.109411 184.09867 
L 280.485024 182.420681 
L 280.846549 182.980011 
L 281.540618 182.980011 
L 281.805191 183.539341 
L 282.143561 182.980011 
L 282.51283 182.980011 
L 282.842374 187.454649 
L 282.973297 186.895319 
L 283.232265 186.895319 
L 283.412668 186.335989 
L 283.569895 186.335989 
L 283.776899 185.77666 
L 283.917183 186.895319 
L 284.245673 186.335989 
L 284.380183 186.335989 
L 284.609752 185.77666 
L 285.204789 185.77666 
L 285.494162 184.658 
L 285.78095 185.77666 
L 285.967665 185.21733 
L 287.020376 185.21733 
L 287.333765 185.77666 
L 287.630974 185.77666 
L 288.004449 185.21733 
L 288.349798 185.21733 
L 288.759182 185.77666 
L 289.154244 185.21733 
L 289.460774 185.21733 
L 289.943154 184.09867 
L 291.910922 184.09867 
L 292.234592 184.658 
L 293.759668 184.658 
L 294.109923 184.09867 
L 294.38544 183.539341 
L 294.924879 183.539341 
L 295.093175 182.420681 
L 295.170377 182.980011 
L 295.352907 182.420681 
L 295.866324 182.420681 
L 296.11801 181.302021 
L 296.803298 181.302021 
L 296.905806 180.742692 
L 297.12318 180.183362 
L 298.181074 180.183362 
L 298.434774 178.505373 
L 298.668878 177.946043 
L 298.803979 177.946043 
L 299.25971 177.386713 
L 299.42011 177.946043 
L 299.497843 177.386713 
L 299.662307 177.386713 
L 299.854836 176.827383 
L 299.998924 176.827383 
L 300.5874 176.268053 
L 301.907635 176.268053 
L 302.248131 176.827383 
L 302.574386 176.268053 
L 302.94216 176.268053 
L 303.118417 175.708724 
L 303.160812 176.268053 
L 303.370011 175.708724 
L 303.533631 175.708724 
L 303.695213 174.590064 
L 304.317403 173.471405 
L 304.770468 174.030734 
L 305.114929 173.471405 
L 305.792107 173.471405 
L 306.159643 172.352745 
L 306.294193 172.912075 
L 306.512776 171.234085 
L 306.822514 171.793415 
L 307.023395 171.234085 
L 307.18223 171.793415 
L 307.357752 170.674756 
L 307.715505 170.674756 
L 307.821464 170.115426 
L 308.241189 170.674756 
L 308.565812 169.556096 
L 309.298206 169.556096 
L 309.561854 168.437437 
L 309.935816 169.556096 
L 310.189874 169.556096 
L 310.283019 168.996766 
L 310.966545 168.996766 
L 311.286275 166.759447 
L 311.746095 168.996766 
L 311.817387 168.437437 
L 312.422834 168.996766 
L 312.480166 167.878107 
L 312.688404 167.878107 
L 313.108017 167.318777 
L 313.448554 167.878107 
L 313.705821 167.878107 
L 314.086525 166.759447 
L 314.500702 166.759447 
L 314.90235 167.318777 
L 315.20253 166.759447 
L 315.384923 167.318777 
L 315.566331 166.200117 
L 317.173772 166.200117 
L 317.667817 165.640788 
L 318.676537 165.640788 
L 319.034447 166.759447 
L 319.709007 166.759447 
L 320.046621 166.200117 
L 323.11797 166.200117 
L 323.532468 166.759447 
L 323.921009 165.640788 
L 328.63453 165.640788 
L 329.668548 165.081458 
L 330.282696 165.081458 
L 330.78147 164.522128 
L 331.175635 164.522128 
L 331.407258 163.403468 
L 331.77448 163.962798 
L 336.653877 163.962798 
L 337.080015 164.522128 
L 337.417866 163.962798 
L 337.751636 164.522128 
L 337.97831 166.759447 
L 340.051027 166.759447 
L 340.392858 165.640788 
L 340.872629 166.759447 
L 342.858539 166.759447 
L 343.156186 165.640788 
L 343.268674 166.759447 
L 343.778509 166.759447 
L 344.014177 165.640788 
L 344.193228 166.759447 
L 344.311245 166.759447 
L 344.533037 165.640788 
L 344.690457 165.640788 
L 344.893493 166.759447 
L 345.071065 165.640788 
L 345.18486 166.759447 
L 345.230692 165.640788 
L 346.451957 165.640788 
L 346.851747 163.962798 
L 347.296144 163.962798 
L 347.332797 163.403468 
L 347.691122 163.403468 
L 347.876663 162.844139 
L 348.034855 163.403468 
L 348.229198 162.844139 
L 348.360624 163.403468 
L 348.548613 162.844139 
L 348.668866 162.844139 
L 348.799226 163.403468 
L 348.817103 162.844139 
L 349.207822 162.844139 
L 349.452633 162.284809 
L 349.607038 162.284809 
L 349.838263 161.166149 
L 350.094826 160.60682 
L 350.27202 161.166149 
L 352.245638 161.166149 
L 352.52783 160.60682 
L 354.040389 160.60682 
L 354.28167 160.04749 
L 354.600599 160.04749 
L 354.83726 159.48816 
L 354.967701 160.04749 
L 355.593506 160.04749 
L 355.804695 158.92883 
L 356.379521 158.92883 
L 356.434722 158.3695 
L 356.514931 158.92883 
L 356.833881 158.92883 
L 356.861644 158.3695 
L 357.093488 157.810171 
L 357.158286 158.3695 
L 357.421094 156.132181 
L 358.485465 156.132181 
L 358.592469 155.572852 
L 358.825644 155.572852 
L 358.962237 154.454192 
L 359.122544 155.572852 
L 360.535537 155.572852 
L 360.617299 155.013522 
L 360.888326 155.572852 
L 361.018091 155.013522 
L 361.258013 155.572852 
L 361.56966 155.572852 
L 361.760774 154.454192 
L 362.109152 154.454192 
L 362.252053 155.013522 
L 362.374489 153.894862 
L 362.736078 155.572852 
L 363.114997 154.454192 
L 363.389489 155.572852 
L 364.032052 155.572852 
L 364.532128 153.894862 
L 364.687734 154.454192 
L 364.86006 153.894862 
L 365.325046 155.013522 
L 365.473938 153.894862 
L 366.577451 153.894862 
L 366.755325 153.335532 
L 367.065296 153.335532 
L 367.230537 153.894862 
L 367.439085 153.335532 
L 367.570953 153.894862 
L 367.972661 152.776203 
L 368.521107 152.776203 
L 368.907906 151.657543 
L 369.579873 152.776203 
L 369.723478 152.216873 
L 369.900145 152.776203 
L 370.012179 152.216873 
L 370.236951 152.216873 
L 370.331153 152.776203 
L 370.766386 151.657543 
L 370.990438 152.216873 
L 371.101294 151.657543 
L 371.329724 152.216873 
L 371.633105 152.216873 
L 371.828787 151.657543 
L 371.957451 152.216873 
L 372.084249 152.216873 
L 372.367072 152.776203 
L 372.493769 151.657543 
L 373.068068 151.657543 
L 373.10678 150.538884 
L 375.563024 150.538884 
L 375.805338 149.979554 
L 375.964386 150.538884 
L 376.099133 149.979554 
L 376.201485 150.538884 
L 376.324259 149.420224 
L 376.889929 149.420224 
L 377.041061 148.860894 
L 377.156766 148.860894 
L 377.210845 149.420224 
L 377.266251 148.860894 
L 377.570958 149.420224 
L 377.649709 148.860894 
L 377.947694 148.301564 
L 378.064408 147.742235 
L 378.287222 147.742235 
L 378.338454 147.182905 
L 378.648682 145.504916 
L 378.788315 146.064245 
L 378.976771 146.064245 
L 379.010722 144.945586 
L 380.334793 144.945586 
L 380.499249 144.386256 
L 380.758644 144.945586 
L 381.207962 143.826926 
L 381.328049 143.826926 
L 381.524639 143.267596 
L 381.766246 143.267596 
L 381.910024 142.708267 
L 382.244911 142.708267 
L 382.253122 142.148937 
L 382.356354 142.708267 
L 382.455313 141.589607 
L 382.601575 141.589607 
L 382.80404 141.030277 
L 384.192917 141.030277 
L 384.22957 141.589607 
L 384.317005 140.470948 
L 384.683279 140.470948 
L 384.870336 141.030277 
L 385.014326 140.470948 
L 385.231113 141.030277 
L 385.393539 140.470948 
L 385.576028 140.470948 
L 385.732837 141.030277 
L 385.888319 139.352288 
L 387.749606 139.352288 
L 388.000158 138.792958 
L 388.122598 138.792958 
L 388.309333 138.233628 
L 388.603965 138.792958 
L 395.635083 138.792958 
L 395.754458 138.233628 
L 395.967972 138.792958 
L 396.029509 138.233628 
L 396.667505 138.233628 
L 396.844168 137.674299 
L 397.739596 137.674299 
L 397.859237 137.114969 
L 398.027879 137.674299 
L 399.399539 137.674299 
L 399.589797 137.114969 
L 399.829393 137.674299 
L 399.961687 137.674299 
L 400.172515 136.555639 
L 400.288493 137.114969 
L 400.802549 137.114969 
L 401.026533 136.555639 
L 402.080832 136.555639 
L 402.252574 137.674299 
L 402.600569 136.555639 
L 404.472965 136.555639 
L 404.664939 135.996309 
L 404.836444 135.996309 
L 405.021149 135.43698 
L 405.159205 135.43698 
L 405.330099 134.87765 
L 405.729941 134.87765 
L 405.800775 134.31832 
L 406.134102 134.31832 
L 406.344653 135.43698 
L 406.509061 134.87765 
L 406.760723 134.87765 
L 406.863341 134.31832 
L 407.248343 134.31832 
L 407.592691 133.75899 
L 407.968184 132.081001 
L 408.091123 132.640331 
L 408.205593 132.081001 
L 408.468337 131.521671 
L 408.592927 132.081001 
L 408.804226 131.521671 
L 408.927353 131.521671 
L 409.148526 132.081001 
L 409.329162 132.081001 
L 409.683047 130.403012 
L 409.89679 130.962341 
L 410.024111 130.962341 
L 410.191253 130.403012 
L 410.235204 129.843682 
L 410.377325 129.843682 
L 410.446683 130.403012 
L 410.676251 129.843682 
L 410.835215 130.403012 
L 410.966267 129.843682 
L 411.532203 129.843682 
L 411.742918 133.19966 
L 412.305685 132.081001 
L 412.677262 132.081001 
L 412.807233 131.521671 
L 413.009673 132.081001 
L 413.139616 132.081001 
L 413.293373 132.640331 
L 413.470165 132.081001 
L 413.71301 132.081001 
L 413.832498 132.640331 
L 413.984309 132.081001 
L 414.191358 132.640331 
L 414.272737 132.081001 
L 414.572263 131.521671 
L 414.868447 131.521671 
L 415.019337 132.081001 
L 415.305831 131.521671 
L 416.475618 131.521671 
L 416.578645 128.725022 
L 416.880655 130.962341 
L 417.197755 131.521671 
L 417.768138 131.521671 
L 418.205422 130.403012 
L 418.355412 132.081001 
L 418.607862 131.521671 
L 418.929682 132.081001 
L 419.076898 130.403012 
L 419.254639 131.521671 
L 419.422617 131.521671 
L 419.534486 130.962341 
L 419.632959 126.487703 
L 419.974939 128.725022 
L 420.003309 125.928373 
L 420.917401 125.928373 
L 421.349804 124.809714 
L 421.528176 125.369044 
L 422.168535 125.369044 
L 422.343012 125.928373 
L 422.52949 125.369044 
L 422.734033 125.369044 
L 422.854197 125.928373 
L 423.219767 125.369044 
L 423.434527 125.369044 
L 423.575321 124.809714 
L 423.747517 125.369044 
L 423.932512 125.369044 
L 424.105878 125.928373 
L 424.213268 125.369044 
L 425.178994 125.369044 
L 425.420601 123.691054 
L 425.712716 124.250384 
L 425.954314 124.250384 
L 426.149907 124.809714 
L 426.238838 124.250384 
L 426.541809 124.809714 
L 426.655073 124.250384 
L 426.921978 124.250384 
L 427.026397 123.691054 
L 427.345362 124.250384 
L 428.002637 124.250384 
L 428.246318 123.691054 
L 428.652249 123.691054 
L 428.754601 123.131724 
L 428.927589 123.691054 
L 429.331979 122.572395 
L 429.452304 122.572395 
L 429.630761 122.013065 
L 429.795265 122.013065 
L 430.104794 121.453735 
L 432.622632 121.453735 
L 432.890867 120.894405 
L 433.142385 120.894405 
L 433.193593 122.013065 
L 433.257012 121.453735 
L 433.667361 121.453735 
L 433.761025 120.894405 
L 434.300962 120.894405 
L 434.558824 120.335075 
L 434.905155 120.335075 
L 434.916675 120.894405 
L 435.031804 120.335075 
L 435.137683 120.894405 
L 436.645755 120.894405 
L 436.928526 121.453735 
L 437.717327 120.894405 
L 439.353102 120.894405 
L 439.423883 120.335075 
L 441.140374 120.335075 
L 441.294992 119.775746 
L 442.882397 116.979097 
L 443.032846 116.979097 
L 443.189807 116.419767 
L 443.259708 116.979097 
L 443.597744 116.419767 
L 443.9118 115.860437 
L 444.287394 115.860437 
L 444.413524 115.301107 
L 444.888185 115.301107 
L 445.575676 115.860437 
L 445.610311 114.182448 
L 446.163613 114.182448 
L 446.335102 114.741778 
L 446.45966 114.182448 
L 447.38733 114.182448 
L 447.73083 114.741778 
L 449.389157 114.741778 
L 450.230932 114.182448 
L 451.931369 114.182448 
L 452.768692 113.623118 
L 452.880678 113.063788 
L 455.398905 113.063788 
L 455.635482 113.623118 
L 456.913881 113.623118 
L 457.847337 114.182448 
L 458.527558 114.182448 
L 458.865124 113.623118 
L 459.164818 112.504459 
L 459.34325 112.504459 
L 459.350214 113.063788 
L 461.351684 113.063788 
L 461.566492 112.504459 
L 466.622753 112.504459 
L 467.26029 111.945129 
L 467.505985 111.945129 
L 467.601892 110.826469 
L 467.914372 110.826469 
L 468.045601 111.385799 
L 468.249027 110.826469 
L 469.391203 110.826469 
L 469.900326 110.267139 
L 470.253982 109.14848 
L 473.351349 109.14848 
L 473.896514 109.70781 
L 474.054248 109.14848 
L 474.213811 109.70781 
L 474.393184 109.14848 
L 475.242691 109.14848 
L 475.634355 109.70781 
L 475.833105 109.14848 
L 476.381132 110.267139 
L 476.594722 109.14848 
L 477.92092 109.14848 
L 477.936609 108.58915 
L 480.038343 108.58915 
L 481.060231 108.02982 
L 481.366897 108.58915 
L 481.590229 108.02982 
L 481.734763 108.58915 
L 481.936665 108.58915 
L 482.074785 108.02982 
L 482.561621 109.14848 
L 482.883047 108.58915 
L 483.315164 109.14848 
L 483.635235 109.14848 
L 483.780597 108.58915 
L 484.663042 108.58915 
L 485.711535 109.14848 
L 485.869353 108.58915 
L 486.91266 108.58915 
L 487.251391 109.14848 
L 492.561466 108.58915 
L 492.959065 109.14848 
L 493.302685 108.58915 
L 493.610594 109.14848 
L 493.645044 108.58915 
L 493.913107 108.02982 
L 494.068351 108.02982 
L 494.21036 107.470491 
L 496.679197 107.470491 
L 496.731804 106.911161 
L 497.038683 106.911161 
L 497.858095 107.470491 
L 497.884161 106.911161 
L 498.198985 107.470491 
L 498.275504 106.351831 
L 498.478141 106.351831 
L 498.889246 105.792501 
L 499.57818 105.792501 
L 499.996507 106.351831 
L 500.466857 105.233171 
L 500.486149 104.673842 
L 500.809971 104.114512 
L 500.943062 104.114512 
L 501.279115 104.673842 
L 501.751649 104.673842 
L 501.84988 104.114512 
L 502.925771 104.114512 
L 503.073987 104.673842 
L 503.255439 103.555182 
L 503.404995 103.555182 
L 503.688839 104.114512 
L 503.946983 103.555182 
L 504.522649 103.555182 
L 504.776177 101.877193 
L 506.584329 101.877193 
L 506.8005 101.317863 
L 506.932867 101.317863 
L 507.150675 101.877193 
L 507.206848 101.317863 
L 507.783801 101.317863 
L 507.899844 100.758533 
L 508.215018 100.199203 
L 508.305038 99.080544 
L 508.796775 99.080544 
L 508.981532 97.402555 
L 509.366233 97.402555 
L 509.591225 97.961884 
L 509.712776 97.402555 
L 509.876401 97.402555 
L 509.888897 95.724565 
L 510.763992 95.724565 
L 510.915686 95.165235 
L 511.292928 95.165235 
L 511.683841 95.724565 
L 511.724048 94.605906 
L 512.07017 94.605906 
L 512.133971 94.046576 
L 512.375139 93.487246 
L 513.01223 93.487246 
L 513.105869 92.368587 
L 513.379276 92.368587 
L 513.539567 91.809257 
L 513.693376 91.809257 
L 514.24495 91.249927 
L 514.460819 91.809257 
L 514.589375 97.961884 
L 514.728798 98.521214 
L 514.823225 96.283895 
L 515.50339 96.283895 
L 515.782952 96.843225 
L 515.986643 95.724565 
L 516.992569 95.724565 
L 517.195318 96.283895 
L 517.354065 95.724565 
L 518.425457 95.724565 
L 518.557377 95.165235 
L 519.045833 96.283895 
L 519.443022 95.724565 
L 519.670629 95.724565 
L 519.758047 95.165235 
L 519.958992 96.283895 
L 520.154324 95.165235 
L 520.964793 95.165235 
L 521.090413 95.724565 
L 521.37911 95.724565 
L 521.424525 95.165235 
L 521.751411 94.605906 
L 521.764169 95.165235 
L 522.02754 94.605906 
L 522.378916 94.605906 
L 522.695325 94.046576 
L 524.337259 94.046576 
L 524.460375 93.487246 
L 524.785994 94.046576 
L 524.796867 93.487246 
L 525.264431 92.927916 
L 525.551721 92.927916 
L 525.882322 92.368587 
L 526.047394 91.809257 
L 526.173601 91.809257 
L 526.570742 92.927916 
L 526.649195 91.809257 
L 526.916248 92.368587 
L 527.141028 91.809257 
L 528.144207 91.809257 
L 528.256607 91.249927 
L 528.396694 91.809257 
L 528.882146 91.249927 
L 529.116632 91.809257 
L 529.354274 91.249927 
L 529.497055 91.809257 
L 529.829578 90.690597 
L 530.059327 91.249927 
L 530.845153 91.249927 
L 531.157786 90.690597 
L 531.614277 90.690597 
L 531.977471 91.809257 
L 532.074274 91.249927 
L 532.46234 91.249927 
L 532.560824 90.131267 
L 533.050261 91.249927 
L 533.221183 90.690597 
L 533.615534 91.249927 
L 533.903391 91.249927 
L 534.050864 90.690597 
L 534.403362 90.690597 
L 534.864992 90.131267 
L 534.924796 91.249927 
L 535.090539 90.131267 
L 535.242491 90.690597 
L 535.333694 90.131267 
L 535.6955 90.690597 
L 536.129616 90.131267 
L 536.348288 90.131267 
L 536.531207 90.690597 
L 537.075134 90.690597 
L 537.512602 89.571938 
L 537.741757 90.131267 
L 538.205131 90.131267 
L 538.421821 90.690597 
L 538.453722 91.249927 
L 538.723666 90.131267 
L 538.866825 90.690597 
L 539.035214 90.131267 
L 539.285424 90.690597 
L 539.568617 90.690597 
L 539.750544 91.249927 
L 540.095564 91.249927 
L 540.454773 90.131267 
L 540.698514 90.690597 
L 540.995342 89.571938 
L 541.149923 89.571938 
L 541.246952 90.131267 
L 541.548837 90.131267 
L 541.574176 89.571938 
L 542.574939 89.571938 
L 542.738889 89.012608 
L 542.879317 89.012608 
L 543.095794 88.453278 
L 543.282509 89.012608 
L 543.424908 88.453278 
L 543.637203 88.453278 
L 543.756712 87.893948 
L 543.910959 88.453278 
L 543.960656 87.893948 
L 544.131413 86.775289 
L 544.340033 87.334619 
L 544.405688 87.893948 
L 544.625703 87.334619 
L 544.805502 87.893948 
L 545.022216 87.334619 
L 545.377356 87.334619 
L 545.476243 86.775289 
L 545.721584 87.334619 
L 546.365916 85.656629 
L 546.539243 85.656629 
L 546.718523 86.775289 
L 546.803281 86.215959 
L 547.056752 86.215959 
L 547.172075 86.775289 
L 547.379337 86.775289 
L 547.568034 86.215959 
L 547.810622 86.215959 
L 548.217899 84.53797 
L 548.43458 85.097299 
L 551.282903 85.097299 
L 551.415451 84.53797 
L 551.583538 84.53797 
L 551.718711 85.097299 
L 551.870434 84.53797 
L 552.665596 84.53797 
L 552.778627 83.41931 
L 553.361635 84.53797 
L 553.994102 84.53797 
L 554.679011 83.41931 
L 555.889798 83.97864 
L 556.197284 83.41931 
L 556.536032 83.97864 
L 556.777964 82.85998 
L 556.874996 83.97864 
L 557.193918 82.85998 
L 557.541394 83.97864 
L 557.65642 82.85998 
L 557.879241 82.85998 
L 558.001729 83.41931 
L 558.223746 82.85998 
L 558.356986 82.85998 
L 558.481094 83.41931 
L 558.631888 81.741321 
L 559.02736 82.85998 
L 559.397248 82.85998 
L 559.623262 82.300651 
L 560.049803 82.300651 
L 560.396684 82.85998 
L 560.599475 82.85998 
L 560.752778 81.741321 
L 560.944004 82.85998 
L 561.050767 82.300651 
L 561.308553 81.741321 
L 561.466616 81.741321 
L 561.742966 82.85998 
L 562.007221 81.181991 
L 562.339363 81.181991 
L 562.364573 80.063331 
L 562.387768 80.622661 
L 562.561477 81.181991 
L 562.744079 80.063331 
L 562.820243 81.181991 
L 563.095504 81.181991 
L 563.133009 80.622661 
L 563.443133 80.063331 
L 563.628738 80.063331 
L 563.715735 81.181991 
L 563.715735 81.181991 
" clip-path="url(#p9c90c6683d)" style="fill: none; stroke-dasharray: 6,1.5; stroke-dashoffset: 0; stroke: #008000; stroke-width: 1.5"/>
   </g>
   <g id="line2d_19">
    <path d="M 38.539265 361.96554 
L 39.959471 363.0842 
L 41.375095 363.0842 
L 42.744399 362.52487 
L 44.727429 362.52487 
L 48.869011 361.96554 
L 48.985947 362.52487 
L 52.572385 362.52487 
L 52.910385 363.643529 
L 53.658183 363.643529 
L 53.969115 360.287551 
L 54.383496 363.643529 
L 56.401411 363.643529 
L 56.771444 360.287551 
L 59.554457 360.287551 
L 61.021457 360.846881 
L 61.221236 361.40621 
L 62.336397 361.40621 
L 62.6494 359.728221 
L 66.07067 359.728221 
L 66.476468 360.287551 
L 76.907348 360.287551 
L 77.235899 359.728221 
L 83.52069 359.728221 
L 83.833785 361.96554 
L 135.948877 361.96554 
L 136.300282 363.0842 
L 136.725166 366.440178 
L 137.028675 366.440178 
L 137.371737 366.999508 
L 139.432002 366.999508 
L 142.273179 368.677497 
L 142.563284 368.677497 
L 143.049714 369.236827 
L 157.410987 369.236827 
L 158.1827 370.355487 
L 190.765835 370.355487 
L 191.13235 370.914817 
L 191.512857 370.355487 
L 193.728218 370.355487 
L 194.053902 370.914817 
L 199.979958 370.914817 
L 201.281006 372.033476 
L 201.49799 370.914817 
L 201.91566 370.914817 
L 202.259933 372.033476 
L 210.280378 372.033476 
L 210.654017 371.474146 
L 210.871543 372.033476 
L 229.745489 372.033476 
L 230.075134 373.152136 
L 272.110513 373.152136 
L 272.509604 373.711465 
L 368.907906 373.711465 
L 369.293411 373.152136 
L 380.758644 373.152136 
L 381.207962 373.711465 
L 381.328049 374.830125 
L 411.532203 374.830125 
L 411.742918 374.270795 
L 414.703098 374.270795 
L 414.868447 374.830125 
L 534.256657 374.830125 
L 534.284075 374.270795 
L 543.424908 374.270795 
L 543.637203 374.830125 
L 563.715735 374.830125 
L 563.715735 374.830125 
" clip-path="url(#p9c90c6683d)" style="fill: none; stroke-dasharray: 9,3; stroke-dashoffset: 0; stroke: #ffa500; stroke-width: 1.5"/>
   </g>
   <g id="line2d_20">
    <path d="M 38.539265 323.371785 
L 48.869011 323.371785 
L 48.985947 323.931115 
L 52.572385 323.931115 
L 52.910385 324.490445 
L 53.658183 324.490445 
L 53.969115 325.609104 
L 54.383496 324.490445 
L 56.401411 324.490445 
L 57.02159 326.168434 
L 58.4811 326.168434 
L 58.80992 326.727764 
L 59.008746 326.168434 
L 59.17506 326.727764 
L 74.482667 326.727764 
L 74.808524 327.846424 
L 74.936754 326.727764 
L 75.508077 327.846424 
L 93.795248 327.846424 
L 94.57021 328.405753 
L 94.745764 327.846424 
L 95.988824 327.846424 
L 96.326382 328.405753 
L 96.698807 327.846424 
L 97.584903 327.846424 
L 98.07434 328.405753 
L 98.437682 327.846424 
L 126.608104 327.846424 
L 126.911875 328.405753 
L 127.300038 328.405753 
L 127.644241 327.846424 
L 127.998372 327.846424 
L 128.242387 328.405753 
L 128.506852 327.846424 
L 128.946351 328.405753 
L 136.300282 328.405753 
L 136.725166 327.846424 
L 137.028675 327.846424 
L 137.371737 328.965083 
L 139.04396 328.965083 
L 139.432002 331.761732 
L 142.273179 329.524413 
L 142.563284 330.083743 
L 144.594664 330.083743 
L 144.990972 332.880392 
L 145.340447 333.439721 
L 161.083654 333.439721 
L 161.634017 332.880392 
L 162.06954 333.439721 
L 163.040947 332.880392 
L 165.406845 332.880392 
L 166.80651 333.439721 
L 172.650137 333.439721 
L 173.091988 333.999051 
L 209.996288 333.999051 
L 210.280378 334.558381 
L 210.654017 333.999051 
L 217.228105 333.999051 
L 217.645273 341.270338 
L 218.616286 341.270338 
L 219.012482 345.744976 
L 219.361784 347.422966 
L 240.516428 347.422966 
L 243.217105 347.982296 
L 274.887708 347.982296 
L 275.236745 350.219615 
L 282.51283 350.219615 
L 282.842374 346.863636 
L 299.662307 346.863636 
L 299.854836 347.422966 
L 331.175635 347.422966 
L 331.407258 347.982296 
L 331.77448 347.422966 
L 340.235961 347.422966 
L 340.392858 347.982296 
L 340.594438 347.422966 
L 342.858539 347.422966 
L 343.156186 347.982296 
L 343.268674 347.422966 
L 346.451957 347.422966 
L 346.674248 347.982296 
L 356.63902 347.982296 
L 356.833881 347.422966 
L 369.293411 347.422966 
L 369.579873 346.863636 
L 369.723478 347.422966 
L 369.900145 346.863636 
L 370.012179 347.422966 
L 370.236951 347.422966 
L 370.331153 346.863636 
L 370.583217 347.422966 
L 372.084249 347.422966 
L 372.367072 346.863636 
L 372.493769 347.422966 
L 381.207962 347.422966 
L 381.328049 346.863636 
L 411.532203 346.863636 
L 411.742918 347.422966 
L 416.475618 347.422966 
L 416.578645 350.219615 
L 416.880655 347.422966 
L 419.617973 347.422966 
L 419.632959 350.219615 
L 419.974939 347.422966 
L 420.003309 350.219615 
L 447.38733 350.219615 
L 447.73083 349.660285 
L 448.025921 350.219615 
L 481.366897 350.219615 
L 481.590229 350.778944 
L 481.734763 350.219615 
L 482.074785 350.219615 
L 482.561621 350.778944 
L 504.522649 350.778944 
L 504.776177 351.338274 
L 507.899844 351.338274 
L 508.215018 351.897604 
L 514.460819 351.897604 
L 514.589375 351.338274 
L 521.764169 351.338274 
L 522.02754 351.897604 
L 534.256657 351.897604 
L 534.284075 355.812913 
L 543.424908 355.812913 
L 543.637203 355.253583 
L 551.989918 355.253583 
L 552.778627 357.490902 
L 560.752778 357.490902 
L 561.050767 356.931572 
L 563.715735 356.931572 
L 563.715735 356.931572 
" clip-path="url(#p9c90c6683d)" style="fill: none; stroke-dasharray: 12,4.5; stroke-dashoffset: 0; stroke: #ee82ee; stroke-width: 1.5"/>
   </g>
   <g id="patch_3">
    <path d="M 33.2875 374.830125 
L 33.2875 22.318125 
" style="fill: none; stroke: #000000; stroke-width: 0.8; stroke-linejoin: miter; stroke-linecap: square"/>
   </g>
   <g id="patch_4">
    <path d="M 568.9675 374.830125 
L 568.9675 22.318125 
" style="fill: none; stroke: #000000; stroke-width: 0.8; stroke-linejoin: miter; stroke-linecap: square"/>
   </g>
   <g id="patch_5">
    <path d="M 33.2875 374.830125 
L 568.9675 374.830125 
" style="fill: none; stroke: #000000; stroke-width: 0.8; stroke-linejoin: miter; stroke-linecap: square"/>
   </g>
   <g id="patch_6">
    <path d="M 33.2875 22.318125 
L 568.9675 22.318125 
" style="fill: none; stroke: #000000; stroke-width: 0.8; stroke-linejoin: miter; stroke-linecap: square"/>
   </g>
   <g id="text_16">
    <!-- Rust/Coreutils running GNU's testsuite -->
    <g transform="translate(186.090625 16.318125) scale(0.12 -0.12)">
     <defs>
      <path id="DejaVuSans-52" d="M 2841 2188 
Q 3044 2119 3236 1894 
Q 3428 1669 3622 1275 
L 4263 0 
L 3584 0 
L 2988 1197 
Q 2756 1666 2539 1819 
Q 2322 1972 1947 1972 
L 1259 1972 
L 1259 0 
L 628 0 
L 628 4666 
L 2053 4666 
Q 2853 4666 3247 4331 
Q 3641 3997 3641 3322 
Q 3641 2881 3436 2590 
Q 3231 2300 2841 2188 
z
M 1259 4147 
L 1259 2491 
L 2053 2491 
Q 2509 2491 2742 2702 
Q 2975 2913 2975 3322 
Q 2975 3731 2742 3939 
Q 2509 4147 2053 4147 
L 1259 4147 
z
" transform="scale(0.015625)"/>
      <path id="DejaVuSans-75" d="M 544 1381 
L 544 3500 
L 1119 3500 
L 1119 1403 
Q 1119 906 1312 657 
Q 1506 409 1894 409 
Q 2359 409 2629 706 
Q 2900 1003 2900 1516 
L 2900 3500 
L 3475 3500 
L 3475 0 
L 2900 0 
L 2900 538 
Q 2691 219 2414 64 
Q 2138 -91 1772 -91 
Q 1169 -91 856 284 
Q 544 659 544 1381 
z
M 1991 3584 
L 1991 3584 
z
" transform="scale(0.015625)"/>
      <path id="DejaVuSans-73" d="M 2834 3397 
L 2834 2853 
Q 2591 2978 2328 3040 
Q 2066 3103 1784 3103 
Q 1356 3103 1142 2972 
Q 928 2841 928 2578 
Q 928 2378 1081 2264 
Q 1234 2150 1697 2047 
L 1894 2003 
Q 2506 1872 2764 1633 
Q 3022 1394 3022 966 
Q 3022 478 2636 193 
Q 2250 -91 1575 -91 
Q 1294 -91 989 -36 
Q 684 19 347 128 
L 347 722 
Q 666 556 975 473 
Q 1284 391 1588 391 
Q 1994 391 2212 530 
Q 2431 669 2431 922 
Q 2431 1156 2273 1281 
Q 2116 1406 1581 1522 
L 1381 1569 
Q 847 1681 609 1914 
Q 372 2147 372 2553 
Q 372 3047 722 3315 
Q 1072 3584 1716 3584 
Q 2034 3584 2315 3537 
Q 2597 3491 2834 3397 
z
" transform="scale(0.015625)"/>
      <path id="DejaVuSans-74" d="M 1172 4494 
L 1172 3500 
L 2356 3500 
L 2356 3053 
L 1172 3053 
L 1172 1153 
Q 1172 725 1289 603 
Q 1406 481 1766 481 
L 2356 481 
L 2356 0 
L 1766 0 
Q 1100 0 847 248 
Q 594 497 594 1153 
L 594 3053 
L 172 3053 
L 172 3500 
L 594 3500 
L 594 4494 
L 1172 4494 
z
" transform="scale(0.015625)"/>
      <path id="DejaVuSans-2f" d="M 1625 4666 
L 2156 4666 
L 531 -594 
L 0 -594 
L 1625 4666 
z
" transform="scale(0.015625)"/>
      <path id="DejaVuSans-43" d="M 4122 4306 
L 4122 3641 
Q 3803 3938 3442 4084 
Q 3081 4231 2675 4231 
Q 1875 4231 1450 3742 
Q 1025 3253 1025 2328 
Q 1025 1406 1450 917 
Q 1875 428 2675 428 
Q 3081 428 3442 575 
Q 3803 722 4122 1019 
L 4122 359 
Q 3791 134 3420 21 
Q 3050 -91 2638 -91 
Q 1578 -91 968 557 
Q 359 1206 359 2328 
Q 359 3453 968 4101 
Q 1578 4750 2638 4750 
Q 3056 4750 3426 4639 
Q 3797 4528 4122 4306 
z
" transform="scale(0.015625)"/>
      <path id="DejaVuSans-6f" d="M 1959 3097 
Q 1497 3097 1228 2736 
Q 959 2375 959 1747 
Q 959 1119 1226 758 
Q 1494 397 1959 397 
Q 2419 397 2687 759 
Q 2956 1122 2956 1747 
Q 2956 2369 2687 2733 
Q 2419 3097 1959 3097 
z
M 1959 3584 
Q 2709 3584 3137 3096 
Q 3566 2609 3566 1747 
Q 3566 888 3137 398 
Q 2709 -91 1959 -91 
Q 1206 -91 779 398 
Q 353 888 353 1747 
Q 353 2609 779 3096 
Q 1206 3584 1959 3584 
z
" transform="scale(0.015625)"/>
      <path id="DejaVuSans-72" d="M 2631 2963 
Q 2534 3019 2420 3045 
Q 2306 3072 2169 3072 
Q 1681 3072 1420 2755 
Q 1159 2438 1159 1844 
L 1159 0 
L 581 0 
L 581 3500 
L 1159 3500 
L 1159 2956 
Q 1341 3275 1631 3429 
Q 1922 3584 2338 3584 
Q 2397 3584 2469 3576 
Q 2541 3569 2628 3553 
L 2631 2963 
z
" transform="scale(0.015625)"/>
      <path id="DejaVuSans-65" d="M 3597 1894 
L 3597 1613 
L 953 1613 
Q 991 1019 1311 708 
Q 1631 397 2203 397 
Q 2534 397 2845 478 
Q 3156 559 3463 722 
L 3463 178 
Q 3153 47 2828 -22 
Q 2503 -91 2169 -91 
Q 1331 -91 842 396 
Q 353 884 353 1716 
Q 353 2575 817 3079 
Q 1281 3584 2069 3584 
Q 2775 3584 3186 3129 
Q 3597 2675 3597 1894 
z
M 3022 2063 
Q 3016 2534 2758 2815 
Q 2500 3097 2075 3097 
Q 1594 3097 1305 2825 
Q 1016 2553 972 2059 
L 3022 2063 
z
" transform="scale(0.015625)"/>
      <path id="DejaVuSans-69" d="M 603 3500 
L 1178 3500 
L 1178 0 
L 603 0 
L 603 3500 
z
M 603 4863 
L 1178 4863 
L 1178 4134 
L 603 4134 
L 603 4863 
z
" transform="scale(0.015625)"/>
      <path id="DejaVuSans-6c" d="M 603 4863 
L 1178 4863 
L 1178 0 
L 603 0 
L 603 4863 
z
" transform="scale(0.015625)"/>
      <path id="DejaVuSans-20" transform="scale(0.015625)"/>
      <path id="DejaVuSans-6e" d="M 3513 2113 
L 3513 0 
L 2938 0 
L 2938 2094 
Q 2938 2591 2744 2837 
Q 2550 3084 2163 3084 
Q 1697 3084 1428 2787 
Q 1159 2491 1159 1978 
L 1159 0 
L 581 0 
L 581 3500 
L 1159 3500 
L 1159 2956 
Q 1366 3272 1645 3428 
Q 1925 3584 2291 3584 
Q 2894 3584 3203 3211 
Q 3513 2838 3513 2113 
z
" transform="scale(0.015625)"/>
      <path id="DejaVuSans-67" d="M 2906 1791 
Q 2906 2416 2648 2759 
Q 2391 3103 1925 3103 
Q 1463 3103 1205 2759 
Q 947 2416 947 1791 
Q 947 1169 1205 825 
Q 1463 481 1925 481 
Q 2391 481 2648 825 
Q 2906 1169 2906 1791 
z
M 3481 434 
Q 3481 -459 3084 -895 
Q 2688 -1331 1869 -1331 
Q 1566 -1331 1297 -1286 
Q 1028 -1241 775 -1147 
L 775 -588 
Q 1028 -725 1275 -790 
Q 1522 -856 1778 -856 
Q 2344 -856 2625 -561 
Q 2906 -266 2906 331 
L 2906 616 
Q 2728 306 2450 153 
Q 2172 0 1784 0 
Q 1141 0 747 490 
Q 353 981 353 1791 
Q 353 2603 747 3093 
Q 1141 3584 1784 3584 
Q 2172 3584 2450 3431 
Q 2728 3278 2906 2969 
L 2906 3500 
L 3481 3500 
L 3481 434 
z
" transform="scale(0.015625)"/>
      <path id="DejaVuSans-47" d="M 3809 666 
L 3809 1919 
L 2778 1919 
L 2778 2438 
L 4434 2438 
L 4434 434 
Q 4069 175 3628 42 
Q 3188 -91 2688 -91 
Q 1594 -91 976 548 
Q 359 1188 359 2328 
Q 359 3472 976 4111 
Q 1594 4750 2688 4750 
Q 3144 4750 3555 4637 
Q 3966 4525 4313 4306 
L 4313 3634 
Q 3963 3931 3569 4081 
Q 3175 4231 2741 4231 
Q 1884 4231 1454 3753 
Q 1025 3275 1025 2328 
Q 1025 1384 1454 906 
Q 1884 428 2741 428 
Q 3075 428 3337 486 
Q 3600 544 3809 666 
z
" transform="scale(0.015625)"/>
      <path id="DejaVuSans-4e" d="M 628 4666 
L 1478 4666 
L 3547 763 
L 3547 4666 
L 4159 4666 
L 4159 0 
L 3309 0 
L 1241 3903 
L 1241 0 
L 628 0 
L 628 4666 
z
" transform="scale(0.015625)"/>
      <path id="DejaVuSans-55" d="M 556 4666 
L 1191 4666 
L 1191 1831 
Q 1191 1081 1462 751 
Q 1734 422 2344 422 
Q 2950 422 3222 751 
Q 3494 1081 3494 1831 
L 3494 4666 
L 4128 4666 
L 4128 1753 
Q 4128 841 3676 375 
Q 3225 -91 2344 -91 
Q 1459 -91 1007 375 
Q 556 841 556 1753 
L 556 4666 
z
" transform="scale(0.015625)"/>
      <path id="DejaVuSans-27" d="M 1147 4666 
L 1147 2931 
L 616 2931 
L 616 4666 
L 1147 4666 
z
" transform="scale(0.015625)"/>
     </defs>
     <use xlink:href="#DejaVuSans-52"/>
     <use xlink:href="#DejaVuSans-75" x="64.982422"/>
     <use xlink:href="#DejaVuSans-73" x="128.361328"/>
     <use xlink:href="#DejaVuSans-74" x="180.460938"/>
     <use xlink:href="#DejaVuSans-2f" x="219.669922"/>
     <use xlink:href="#DejaVuSans-43" x="253.361328"/>
     <use xlink:href="#DejaVuSans-6f" x="323.185547"/>
     <use xlink:href="#DejaVuSans-72" x="384.367188"/>
     <use xlink:href="#DejaVuSans-65" x="423.230469"/>
     <use xlink:href="#DejaVuSans-75" x="484.753906"/>
     <use xlink:href="#DejaVuSans-74" x="548.132812"/>
     <use xlink:href="#DejaVuSans-69" x="587.341797"/>
     <use xlink:href="#DejaVuSans-6c" x="615.125"/>
     <use xlink:href="#DejaVuSans-73" x="642.908203"/>
     <use xlink:href="#DejaVuSans-20" x="695.007812"/>
     <use xlink:href="#DejaVuSans-72" x="726.794922"/>
     <use xlink:href="#DejaVuSans-75" x="767.908203"/>
     <use xlink:href="#DejaVuSans-6e" x="831.287109"/>
     <use xlink:href="#DejaVuSans-6e" x="894.666016"/>
     <use xlink:href="#DejaVuSans-69" x="958.044922"/>
     <use xlink:href="#DejaVuSans-6e" x="985.828125"/>
     <use xlink:href="#DejaVuSans-67" x="1049.207031"/>
     <use xlink:href="#DejaVuSans-20" x="1112.683594"/>
     <use xlink:href="#DejaVuSans-47" x="1144.470703"/>
     <use xlink:href="#DejaVuSans-4e" x="1221.960938"/>
     <use xlink:href="#DejaVuSans-55" x="1296.765625"/>
     <use xlink:href="#DejaVuSans-27" x="1369.958984"/>
     <use xlink:href="#DejaVuSans-73" x="1397.449219"/>
     <use xlink:href="#DejaVuSans-20" x="1449.548828"/>
     <use xlink:href="#DejaVuSans-74" x="1481.335938"/>
     <use xlink:href="#DejaVuSans-65" x="1520.544922"/>
     <use xlink:href="#DejaVuSans-73" x="1582.068359"/>
     <use xlink:href="#DejaVuSans-74" x="1634.167969"/>
     <use xlink:href="#DejaVuSans-73" x="1673.376953"/>
     <use xlink:href="#DejaVuSans-75" x="1725.476562"/>
     <use xlink:href="#DejaVuSans-69" x="1788.855469"/>
     <use xlink:href="#DejaVuSans-74" x="1816.638672"/>
     <use xlink:href="#DejaVuSans-65" x="1855.847656"/>
    </g>
   </g>
   <g id="legend_1">
    <g id="patch_7">
     <path d="M 505.762812 236.769437 
L 561.9675 236.769437 
Q 563.9675 236.769437 563.9675 234.769437 
L 563.9675 162.378812 
Q 563.9675 160.378812 561.9675 160.378812 
L 505.762812 160.378812 
Q 503.762812 160.378812 503.762812 162.378812 
L 503.762812 234.769437 
Q 503.762812 236.769437 505.762812 236.769437 
z
" style="fill: #ffffff; opacity: 0.8; stroke: #cccccc; stroke-linejoin: miter"/>
    </g>
    <g id="line2d_21">
     <path d="M 507.762812 168.47725 
L 517.762812 168.47725 
L 527.762812 168.47725 
" style="fill: none; stroke: #0000ff; stroke-width: 1.5; stroke-linecap: square"/>
    </g>
    <g id="text_17">
     <!-- total -->
     <g transform="translate(535.762812 171.97725) scale(0.1 -0.1)">
      <defs>
       <path id="DejaVuSans-61" d="M 2194 1759 
Q 1497 1759 1228 1600 
Q 959 1441 959 1056 
Q 959 750 1161 570 
Q 1363 391 1709 391 
Q 2188 391 2477 730 
Q 2766 1069 2766 1631 
L 2766 1759 
L 2194 1759 
z
M 3341 1997 
L 3341 0 
L 2766 0 
L 2766 531 
Q 2569 213 2275 61 
Q 1981 -91 1556 -91 
Q 1019 -91 701 211 
Q 384 513 384 1019 
Q 384 1609 779 1909 
Q 1175 2209 1959 2209 
L 2766 2209 
L 2766 2266 
Q 2766 2663 2505 2880 
Q 2244 3097 1772 3097 
Q 1472 3097 1187 3025 
Q 903 2953 641 2809 
L 641 3341 
Q 956 3463 1253 3523 
Q 1550 3584 1831 3584 
Q 2591 3584 2966 3190 
Q 3341 2797 3341 1997 
z
" transform="scale(0.015625)"/>
      </defs>
      <use xlink:href="#DejaVuSans-74"/>
      <use xlink:href="#DejaVuSans-6f" x="39.208984"/>
      <use xlink:href="#DejaVuSans-74" x="100.390625"/>
      <use xlink:href="#DejaVuSans-61" x="139.599609"/>
      <use xlink:href="#DejaVuSans-6c" x="200.878906"/>
     </g>
    </g>
    <g id="line2d_22">
     <path d="M 507.762812 183.155375 
L 517.762812 183.155375 
L 527.762812 183.155375 
" style="fill: none; stroke-dasharray: 3,1.5; stroke-dashoffset: 0; stroke: #808080; stroke-width: 1.5"/>
    </g>
    <g id="text_18">
     <!-- fail -->
     <g transform="translate(535.762812 186.655375) scale(0.1 -0.1)">
      <defs>
       <path id="DejaVuSans-66" d="M 2375 4863 
L 2375 4384 
L 1825 4384 
Q 1516 4384 1395 4259 
Q 1275 4134 1275 3809 
L 1275 3500 
L 2222 3500 
L 2222 3053 
L 1275 3053 
L 1275 0 
L 697 0 
L 697 3053 
L 147 3053 
L 147 3500 
L 697 3500 
L 697 3744 
Q 697 4328 969 4595 
Q 1241 4863 1831 4863 
L 2375 4863 
z
" transform="scale(0.015625)"/>
      </defs>
      <use xlink:href="#DejaVuSans-66"/>
      <use xlink:href="#DejaVuSans-61" x="35.205078"/>
      <use xlink:href="#DejaVuSans-69" x="96.484375"/>
      <use xlink:href="#DejaVuSans-6c" x="124.267578"/>
     </g>
    </g>
    <g id="line2d_23">
     <path d="M 507.762812 197.8335 
L 517.762812 197.8335 
L 527.762812 197.8335 
" style="fill: none; stroke-dasharray: 6,1.5; stroke-dashoffset: 0; stroke: #008000; stroke-width: 1.5"/>
    </g>
    <g id="text_19">
     <!-- pass -->
     <g transform="translate(535.762812 201.3335) scale(0.1 -0.1)">
      <defs>
       <path id="DejaVuSans-70" d="M 1159 525 
L 1159 -1331 
L 581 -1331 
L 581 3500 
L 1159 3500 
L 1159 2969 
Q 1341 3281 1617 3432 
Q 1894 3584 2278 3584 
Q 2916 3584 3314 3078 
Q 3713 2572 3713 1747 
Q 3713 922 3314 415 
Q 2916 -91 2278 -91 
Q 1894 -91 1617 61 
Q 1341 213 1159 525 
z
M 3116 1747 
Q 3116 2381 2855 2742 
Q 2594 3103 2138 3103 
Q 1681 3103 1420 2742 
Q 1159 2381 1159 1747 
Q 1159 1113 1420 752 
Q 1681 391 2138 391 
Q 2594 391 2855 752 
Q 3116 1113 3116 1747 
z
" transform="scale(0.015625)"/>
      </defs>
      <use xlink:href="#DejaVuSans-70"/>
      <use xlink:href="#DejaVuSans-61" x="63.476562"/>
      <use xlink:href="#DejaVuSans-73" x="124.755859"/>
      <use xlink:href="#DejaVuSans-73" x="176.855469"/>
     </g>
    </g>
    <g id="line2d_24">
     <path d="M 507.762812 212.511625 
L 517.762812 212.511625 
L 527.762812 212.511625 
" style="fill: none; stroke-dasharray: 9,3; stroke-dashoffset: 0; stroke: #ffa500; stroke-width: 1.5"/>
    </g>
    <g id="text_20">
     <!-- error -->
     <g transform="translate(535.762812 216.011625) scale(0.1 -0.1)">
      <use xlink:href="#DejaVuSans-65"/>
      <use xlink:href="#DejaVuSans-72" x="61.523438"/>
      <use xlink:href="#DejaVuSans-72" x="100.886719"/>
      <use xlink:href="#DejaVuSans-6f" x="139.75"/>
      <use xlink:href="#DejaVuSans-72" x="200.931641"/>
     </g>
    </g>
    <g id="line2d_25">
     <path d="M 507.762812 227.18975 
L 517.762812 227.18975 
L 527.762812 227.18975 
" style="fill: none; stroke-dasharray: 12,4.5; stroke-dashoffset: 0; stroke: #ee82ee; stroke-width: 1.5"/>
    </g>
    <g id="text_21">
     <!-- skip -->
     <g transform="translate(535.762812 230.68975) scale(0.1 -0.1)">
      <defs>
       <path id="DejaVuSans-6b" d="M 581 4863 
L 1159 4863 
L 1159 1991 
L 2875 3500 
L 3609 3500 
L 1753 1863 
L 3688 0 
L 2938 0 
L 1159 1709 
L 1159 0 
L 581 0 
L 581 4863 
z
" transform="scale(0.015625)"/>
      </defs>
      <use xlink:href="#DejaVuSans-73"/>
      <use xlink:href="#DejaVuSans-6b" x="52.099609"/>
      <use xlink:href="#DejaVuSans-69" x="110.009766"/>
      <use xlink:href="#DejaVuSans-70" x="137.792969"/>
     </g>
    </g>
   </g>
  </g>
 </g>
 <defs>
  <clipPath id="p9c90c6683d">
   <rect x="33.2875" y="22.318125" width="535.68" height="352.512"/>
  </clipPath>
 </defs>
</svg>
