<?xml version="1.0" encoding="utf-8" standalone="no"?>
<!DOCTYPE svg PUBLIC "-//W3C//DTD SVG 1.1//EN"
  "http://www.w3.org/Graphics/SVG/1.1/DTD/svg11.dtd">
<svg xmlns:xlink="http://www.w3.org/1999/xlink" width="576.1675pt" height="418.303033pt" viewBox="0 0 576.1675 418.303033" xmlns="http://www.w3.org/2000/svg" version="1.1">
 <metadata>
  <rdf:RDF xmlns:dc="http://purl.org/dc/elements/1.1/" xmlns:cc="http://creativecommons.org/ns#" xmlns:rdf="http://www.w3.org/1999/02/22-rdf-syntax-ns#">
   <cc:Work>
    <dc:type rdf:resource="http://purl.org/dc/dcmitype/StillImage"/>
    <dc:date>2025-08-10T02:45:55.867509</dc:date>
    <dc:format>image/svg+xml</dc:format>
    <dc:creator>
     <cc:Agent>
      <dc:title>Matplotlib v3.6.3, https://matplotlib.org/</dc:title>
     </cc:Agent>
    </dc:creator>
   </cc:Work>
  </rdf:RDF>
 </metadata>
 <defs>
  <style type="text/css">*{stroke-linejoin: round; stroke-linecap: butt}</style>
 </defs>
 <g id="figure_1">
  <g id="patch_1">
   <path d="M -0 418.303033 
L 576.1675 418.303033 
L 576.1675 0 
L -0 0 
z
" style="fill: #ffffff"/>
  </g>
  <g id="axes_1">
   <g id="patch_2">
    <path d="M 33.2875 374.830125 
L 568.9675 374.830125 
L 568.9675 22.318125 
L 33.2875 22.318125 
z
" style="fill: #ffffff"/>
   </g>
   <g id="matplotlib.axis_1">
    <g id="xtick_1">
     <g id="line2d_1">
      <defs>
       <path id="m65e06d4625" d="M 0 0 
L 0 3.5 
" style="stroke: #000000; stroke-width: 0.8"/>
      </defs>
      <g>
       <use xlink:href="#m65e06d4625" x="62.396162" y="374.830125" style="stroke: #000000; stroke-width: 0.8"/>
      </g>
     </g>
     <g id="text_1">
      <!-- 2021-07 -->
      <g transform="translate(25.171341 409.301971) rotate(-30) scale(0.1 -0.1)">
       <defs>
        <path id="DejaVuSans-32" d="M 1228 531 
L 3431 531 
L 3431 0 
L 469 0 
L 469 531 
Q 828 903 1448 1529 
Q 2069 2156 2228 2338 
Q 2531 2678 2651 2914 
Q 2772 3150 2772 3378 
Q 2772 3750 2511 3984 
Q 2250 4219 1831 4219 
Q 1534 4219 1204 4116 
Q 875 4013 500 3803 
L 500 4441 
Q 881 4594 1212 4672 
Q 1544 4750 1819 4750 
Q 2544 4750 2975 4387 
Q 3406 4025 3406 3419 
Q 3406 3131 3298 2873 
Q 3191 2616 2906 2266 
Q 2828 2175 2409 1742 
Q 1991 1309 1228 531 
z
" transform="scale(0.015625)"/>
        <path id="DejaVuSans-30" d="M 2034 4250 
Q 1547 4250 1301 3770 
Q 1056 3291 1056 2328 
Q 1056 1369 1301 889 
Q 1547 409 2034 409 
Q 2525 409 2770 889 
Q 3016 1369 3016 2328 
Q 3016 3291 2770 3770 
Q 2525 4250 2034 4250 
z
M 2034 4750 
Q 2819 4750 3233 4129 
Q 3647 3509 3647 2328 
Q 3647 1150 3233 529 
Q 2819 -91 2034 -91 
Q 1250 -91 836 529 
Q 422 1150 422 2328 
Q 422 3509 836 4129 
Q 1250 4750 2034 4750 
z
" transform="scale(0.015625)"/>
        <path id="DejaVuSans-31" d="M 794 531 
L 1825 531 
L 1825 4091 
L 703 3866 
L 703 4441 
L 1819 4666 
L 2450 4666 
L 2450 531 
L 3481 531 
L 3481 0 
L 794 0 
L 794 531 
z
" transform="scale(0.015625)"/>
        <path id="DejaVuSans-2d" d="M 313 2009 
L 1997 2009 
L 1997 1497 
L 313 1497 
L 313 2009 
z
" transform="scale(0.015625)"/>
        <path id="DejaVuSans-37" d="M 525 4666 
L 3525 4666 
L 3525 4397 
L 1831 0 
L 1172 0 
L 2766 4134 
L 525 4134 
L 525 4666 
z
" transform="scale(0.015625)"/>
       </defs>
       <use xlink:href="#DejaVuSans-32"/>
       <use xlink:href="#DejaVuSans-30" x="63.623047"/>
       <use xlink:href="#DejaVuSans-32" x="127.246094"/>
       <use xlink:href="#DejaVuSans-31" x="190.869141"/>
       <use xlink:href="#DejaVuSans-2d" x="254.492188"/>
       <use xlink:href="#DejaVuSans-30" x="290.576172"/>
       <use xlink:href="#DejaVuSans-37" x="354.199219"/>
      </g>
     </g>
    </g>
    <g id="xtick_2">
     <g id="line2d_2">
      <g>
       <use xlink:href="#m65e06d4625" x="123.865489" y="374.830125" style="stroke: #000000; stroke-width: 0.8"/>
      </g>
     </g>
     <g id="text_2">
      <!-- 2022-01 -->
      <g transform="translate(86.640669 409.301971) rotate(-30) scale(0.1 -0.1)">
       <use xlink:href="#DejaVuSans-32"/>
       <use xlink:href="#DejaVuSans-30" x="63.623047"/>
       <use xlink:href="#DejaVuSans-32" x="127.246094"/>
       <use xlink:href="#DejaVuSans-32" x="190.869141"/>
       <use xlink:href="#DejaVuSans-2d" x="254.492188"/>
       <use xlink:href="#DejaVuSans-30" x="290.576172"/>
       <use xlink:href="#DejaVuSans-31" x="354.199219"/>
      </g>
     </g>
    </g>
    <g id="xtick_3">
     <g id="line2d_3">
      <g>
       <use xlink:href="#m65e06d4625" x="184.3326" y="374.830125" style="stroke: #000000; stroke-width: 0.8"/>
      </g>
     </g>
     <g id="text_3">
      <!-- 2022-07 -->
      <g transform="translate(147.107779 409.301971) rotate(-30) scale(0.1 -0.1)">
       <use xlink:href="#DejaVuSans-32"/>
       <use xlink:href="#DejaVuSans-30" x="63.623047"/>
       <use xlink:href="#DejaVuSans-32" x="127.246094"/>
       <use xlink:href="#DejaVuSans-32" x="190.869141"/>
       <use xlink:href="#DejaVuSans-2d" x="254.492188"/>
       <use xlink:href="#DejaVuSans-30" x="290.576172"/>
       <use xlink:href="#DejaVuSans-37" x="354.199219"/>
      </g>
     </g>
    </g>
    <g id="xtick_4">
     <g id="line2d_4">
      <g>
       <use xlink:href="#m65e06d4625" x="245.801927" y="374.830125" style="stroke: #000000; stroke-width: 0.8"/>
      </g>
     </g>
     <g id="text_4">
      <!-- 2023-01 -->
      <g transform="translate(208.577106 409.301971) rotate(-30) scale(0.1 -0.1)">
       <defs>
        <path id="DejaVuSans-33" d="M 2597 2516 
Q 3050 2419 3304 2112 
Q 3559 1806 3559 1356 
Q 3559 666 3084 287 
Q 2609 -91 1734 -91 
Q 1441 -91 1130 -33 
Q 819 25 488 141 
L 488 750 
Q 750 597 1062 519 
Q 1375 441 1716 441 
Q 2309 441 2620 675 
Q 2931 909 2931 1356 
Q 2931 1769 2642 2001 
Q 2353 2234 1838 2234 
L 1294 2234 
L 1294 2753 
L 1863 2753 
Q 2328 2753 2575 2939 
Q 2822 3125 2822 3475 
Q 2822 3834 2567 4026 
Q 2313 4219 1838 4219 
Q 1578 4219 1281 4162 
Q 984 4106 628 3988 
L 628 4550 
Q 988 4650 1302 4700 
Q 1616 4750 1894 4750 
Q 2613 4750 3031 4423 
Q 3450 4097 3450 3541 
Q 3450 3153 3228 2886 
Q 3006 2619 2597 2516 
z
" transform="scale(0.015625)"/>
       </defs>
       <use xlink:href="#DejaVuSans-32"/>
       <use xlink:href="#DejaVuSans-30" x="63.623047"/>
       <use xlink:href="#DejaVuSans-32" x="127.246094"/>
       <use xlink:href="#DejaVuSans-33" x="190.869141"/>
       <use xlink:href="#DejaVuSans-2d" x="254.492188"/>
       <use xlink:href="#DejaVuSans-30" x="290.576172"/>
       <use xlink:href="#DejaVuSans-31" x="354.199219"/>
      </g>
     </g>
    </g>
    <g id="xtick_5">
     <g id="line2d_5">
      <g>
       <use xlink:href="#m65e06d4625" x="306.269037" y="374.830125" style="stroke: #000000; stroke-width: 0.8"/>
      </g>
     </g>
     <g id="text_5">
      <!-- 2023-07 -->
      <g transform="translate(269.044216 409.301971) rotate(-30) scale(0.1 -0.1)">
       <use xlink:href="#DejaVuSans-32"/>
       <use xlink:href="#DejaVuSans-30" x="63.623047"/>
       <use xlink:href="#DejaVuSans-32" x="127.246094"/>
       <use xlink:href="#DejaVuSans-33" x="190.869141"/>
       <use xlink:href="#DejaVuSans-2d" x="254.492188"/>
       <use xlink:href="#DejaVuSans-30" x="290.576172"/>
       <use xlink:href="#DejaVuSans-37" x="354.199219"/>
      </g>
     </g>
    </g>
    <g id="xtick_6">
     <g id="line2d_6">
      <g>
       <use xlink:href="#m65e06d4625" x="367.738365" y="374.830125" style="stroke: #000000; stroke-width: 0.8"/>
      </g>
     </g>
     <g id="text_6">
      <!-- 2024-01 -->
      <g transform="translate(330.513544 409.301971) rotate(-30) scale(0.1 -0.1)">
       <defs>
        <path id="DejaVuSans-34" d="M 2419 4116 
L 825 1625 
L 2419 1625 
L 2419 4116 
z
M 2253 4666 
L 3047 4666 
L 3047 1625 
L 3713 1625 
L 3713 1100 
L 3047 1100 
L 3047 0 
L 2419 0 
L 2419 1100 
L 313 1100 
L 313 1709 
L 2253 4666 
z
" transform="scale(0.015625)"/>
       </defs>
       <use xlink:href="#DejaVuSans-32"/>
       <use xlink:href="#DejaVuSans-30" x="63.623047"/>
       <use xlink:href="#DejaVuSans-32" x="127.246094"/>
       <use xlink:href="#DejaVuSans-34" x="190.869141"/>
       <use xlink:href="#DejaVuSans-2d" x="254.492188"/>
       <use xlink:href="#DejaVuSans-30" x="290.576172"/>
       <use xlink:href="#DejaVuSans-31" x="354.199219"/>
      </g>
     </g>
    </g>
    <g id="xtick_7">
     <g id="line2d_7">
      <g>
       <use xlink:href="#m65e06d4625" x="428.539547" y="374.830125" style="stroke: #000000; stroke-width: 0.8"/>
      </g>
     </g>
     <g id="text_7">
      <!-- 2024-07 -->
      <g transform="translate(391.314726 409.301971) rotate(-30) scale(0.1 -0.1)">
       <use xlink:href="#DejaVuSans-32"/>
       <use xlink:href="#DejaVuSans-30" x="63.623047"/>
       <use xlink:href="#DejaVuSans-32" x="127.246094"/>
       <use xlink:href="#DejaVuSans-34" x="190.869141"/>
       <use xlink:href="#DejaVuSans-2d" x="254.492188"/>
       <use xlink:href="#DejaVuSans-30" x="290.576172"/>
       <use xlink:href="#DejaVuSans-37" x="354.199219"/>
      </g>
     </g>
    </g>
    <g id="xtick_8">
     <g id="line2d_8">
      <g>
       <use xlink:href="#m65e06d4625" x="490.008875" y="374.830125" style="stroke: #000000; stroke-width: 0.8"/>
      </g>
     </g>
     <g id="text_8">
      <!-- 2025-01 -->
      <g transform="translate(452.784054 409.301971) rotate(-30) scale(0.1 -0.1)">
       <defs>
        <path id="DejaVuSans-35" d="M 691 4666 
L 3169 4666 
L 3169 4134 
L 1269 4134 
L 1269 2991 
Q 1406 3038 1543 3061 
Q 1681 3084 1819 3084 
Q 2600 3084 3056 2656 
Q 3513 2228 3513 1497 
Q 3513 744 3044 326 
Q 2575 -91 1722 -91 
Q 1428 -91 1123 -41 
Q 819 9 494 109 
L 494 744 
Q 775 591 1075 516 
Q 1375 441 1709 441 
Q 2250 441 2565 725 
Q 2881 1009 2881 1497 
Q 2881 1984 2565 2268 
Q 2250 2553 1709 2553 
Q 1456 2553 1204 2497 
Q 953 2441 691 2322 
L 691 4666 
z
" transform="scale(0.015625)"/>
       </defs>
       <use xlink:href="#DejaVuSans-32"/>
       <use xlink:href="#DejaVuSans-30" x="63.623047"/>
       <use xlink:href="#DejaVuSans-32" x="127.246094"/>
       <use xlink:href="#DejaVuSans-35" x="190.869141"/>
       <use xlink:href="#DejaVuSans-2d" x="254.492188"/>
       <use xlink:href="#DejaVuSans-30" x="290.576172"/>
       <use xlink:href="#DejaVuSans-31" x="354.199219"/>
      </g>
     </g>
    </g>
    <g id="xtick_9">
     <g id="line2d_9">
      <g>
       <use xlink:href="#m65e06d4625" x="550.475985" y="374.830125" style="stroke: #000000; stroke-width: 0.8"/>
      </g>
     </g>
     <g id="text_9">
      <!-- 2025-07 -->
      <g transform="translate(513.251164 409.301971) rotate(-30) scale(0.1 -0.1)">
       <use xlink:href="#DejaVuSans-32"/>
       <use xlink:href="#DejaVuSans-30" x="63.623047"/>
       <use xlink:href="#DejaVuSans-32" x="127.246094"/>
       <use xlink:href="#DejaVuSans-35" x="190.869141"/>
       <use xlink:href="#DejaVuSans-2d" x="254.492188"/>
       <use xlink:href="#DejaVuSans-30" x="290.576172"/>
       <use xlink:href="#DejaVuSans-37" x="354.199219"/>
      </g>
     </g>
    </g>
   </g>
   <g id="matplotlib.axis_2">
    <g id="ytick_1">
     <g id="line2d_10">
      <defs>
       <path id="maa248e0f18" d="M 0 0 
L -3.5 0 
" style="stroke: #000000; stroke-width: 0.8"/>
      </defs>
      <g>
       <use xlink:href="#maa248e0f18" x="33.2875" y="374.830125" style="stroke: #000000; stroke-width: 0.8"/>
      </g>
     </g>
     <g id="text_10">
      <!-- 0 -->
      <g transform="translate(19.925 378.629344) scale(0.1 -0.1)">
       <use xlink:href="#DejaVuSans-30"/>
      </g>
     </g>
    </g>
    <g id="ytick_2">
     <g id="line2d_11">
      <g>
       <use xlink:href="#maa248e0f18" x="33.2875" y="318.897147" style="stroke: #000000; stroke-width: 0.8"/>
      </g>
     </g>
     <g id="text_11">
      <!-- 100 -->
      <g transform="translate(7.2 322.696366) scale(0.1 -0.1)">
       <use xlink:href="#DejaVuSans-31"/>
       <use xlink:href="#DejaVuSans-30" x="63.623047"/>
       <use xlink:href="#DejaVuSans-30" x="127.246094"/>
      </g>
     </g>
    </g>
    <g id="ytick_3">
     <g id="line2d_12">
      <g>
       <use xlink:href="#maa248e0f18" x="33.2875" y="262.964169" style="stroke: #000000; stroke-width: 0.8"/>
      </g>
     </g>
     <g id="text_12">
      <!-- 200 -->
      <g transform="translate(7.2 266.763388) scale(0.1 -0.1)">
       <use xlink:href="#DejaVuSans-32"/>
       <use xlink:href="#DejaVuSans-30" x="63.623047"/>
       <use xlink:href="#DejaVuSans-30" x="127.246094"/>
      </g>
     </g>
    </g>
    <g id="ytick_4">
     <g id="line2d_13">
      <g>
       <use xlink:href="#maa248e0f18" x="33.2875" y="207.031191" style="stroke: #000000; stroke-width: 0.8"/>
      </g>
     </g>
     <g id="text_13">
      <!-- 300 -->
      <g transform="translate(7.2 210.83041) scale(0.1 -0.1)">
       <use xlink:href="#DejaVuSans-33"/>
       <use xlink:href="#DejaVuSans-30" x="63.623047"/>
       <use xlink:href="#DejaVuSans-30" x="127.246094"/>
      </g>
     </g>
    </g>
    <g id="ytick_5">
     <g id="line2d_14">
      <g>
       <use xlink:href="#maa248e0f18" x="33.2875" y="151.098213" style="stroke: #000000; stroke-width: 0.8"/>
      </g>
     </g>
     <g id="text_14">
      <!-- 400 -->
      <g transform="translate(7.2 154.897432) scale(0.1 -0.1)">
       <use xlink:href="#DejaVuSans-34"/>
       <use xlink:href="#DejaVuSans-30" x="63.623047"/>
       <use xlink:href="#DejaVuSans-30" x="127.246094"/>
      </g>
     </g>
    </g>
    <g id="ytick_6">
     <g id="line2d_15">
      <g>
       <use xlink:href="#maa248e0f18" x="33.2875" y="95.165235" style="stroke: #000000; stroke-width: 0.8"/>
      </g>
     </g>
     <g id="text_15">
      <!-- 500 -->
      <g transform="translate(7.2 98.964454) scale(0.1 -0.1)">
       <use xlink:href="#DejaVuSans-35"/>
       <use xlink:href="#DejaVuSans-30" x="63.623047"/>
       <use xlink:href="#DejaVuSans-30" x="127.246094"/>
      </g>
     </g>
    </g>
    <g id="ytick_7">
     <g id="line2d_16">
      <g>
       <use xlink:href="#maa248e0f18" x="33.2875" y="39.232258" style="stroke: #000000; stroke-width: 0.8"/>
      </g>
     </g>
     <g id="text_16">
      <!-- 600 -->
      <g transform="translate(7.2 43.031476) scale(0.1 -0.1)">
       <defs>
        <path id="DejaVuSans-36" d="M 2113 2584 
Q 1688 2584 1439 2293 
Q 1191 2003 1191 1497 
Q 1191 994 1439 701 
Q 1688 409 2113 409 
Q 2538 409 2786 701 
Q 3034 994 3034 1497 
Q 3034 2003 2786 2293 
Q 2538 2584 2113 2584 
z
M 3366 4563 
L 3366 3988 
Q 3128 4100 2886 4159 
Q 2644 4219 2406 4219 
Q 1781 4219 1451 3797 
Q 1122 3375 1075 2522 
Q 1259 2794 1537 2939 
Q 1816 3084 2150 3084 
Q 2853 3084 3261 2657 
Q 3669 2231 3669 1497 
Q 3669 778 3244 343 
Q 2819 -91 2113 -91 
Q 1303 -91 875 529 
Q 447 1150 447 2328 
Q 447 3434 972 4092 
Q 1497 4750 2381 4750 
Q 2619 4750 2861 4703 
Q 3103 4656 3366 4563 
z
" transform="scale(0.015625)"/>
       </defs>
       <use xlink:href="#DejaVuSans-36"/>
       <use xlink:href="#DejaVuSans-30" x="63.623047"/>
       <use xlink:href="#DejaVuSans-30" x="127.246094"/>
      </g>
     </g>
    </g>
   </g>
   <g id="line2d_17">
    <path d="M 38.539265 25.808343 
L 48.472947 25.808343 
L 48.585399 29.164321 
L 49.976176 29.164321 
L 50.485281 38.672928 
L 132.551918 38.672928 
L 132.960511 33.07963 
L 146.616901 33.07963 
L 147.419115 33.63896 
L 153.823613 33.63896 
L 154.047584 44.825555 
L 160.542474 44.825555 
L 161.888473 43.147566 
L 273.158368 43.147566 
L 273.475277 39.232258 
L 282.196118 39.232258 
L 282.507378 38.113598 
L 326.279202 38.113598 
L 326.497185 36.994938 
L 397.230867 36.994938 
L 397.433502 32.5203 
L 451.058496 32.5203 
L 451.150725 31.96097 
L 492.110712 31.96097 
L 492.487131 31.401641 
L 496.212982 31.401641 
L 496.336609 29.164321 
L 497.831846 29.164321 
L 498.220352 29.723651 
L 524.066527 29.723651 
L 524.385608 29.164321 
L 563.715735 29.164321 
L 563.715735 29.164321 
" clip-path="url(#p82fb5906d8)" style="fill: none; stroke: #0000ff; stroke-width: 1.5; stroke-linecap: square"/>
   </g>
   <g id="line2d_18">
    <path d="M 38.539265 168.996766 
L 39.905018 167.878107 
L 41.266363 168.996766 
L 44.490162 168.996766 
L 48.044785 170.115426 
L 48.308486 169.556096 
L 48.472947 169.556096 
L 48.585399 172.912075 
L 48.844935 172.352745 
L 49.228798 172.912075 
L 49.976176 172.912075 
L 50.392429 185.21733 
L 50.485281 182.420681 
L 50.701338 185.77666 
L 50.770047 185.21733 
L 51.012157 185.21733 
L 51.399441 185.77666 
L 52.331542 185.77666 
L 52.359366 186.335989 
L 52.864623 186.335989 
L 53.078491 185.77666 
L 53.703771 189.691968 
L 53.775995 189.132638 
L 54.083029 189.691968 
L 54.676951 191.369957 
L 55.079794 190.251298 
L 55.716538 190.251298 
L 56.072383 191.369957 
L 56.312939 191.369957 
L 57.037659 191.929287 
L 57.362862 191.929287 
L 57.716488 193.047947 
L 58.0327 192.488617 
L 58.38384 193.607277 
L 58.74869 195.844596 
L 60.159443 196.963255 
L 60.758499 196.963255 
L 61.015109 197.522585 
L 61.423965 197.522585 
L 61.724966 198.081915 
L 62.031578 197.522585 
L 62.373434 197.522585 
L 62.573626 198.081915 
L 66.036921 198.081915 
L 66.38646 198.641245 
L 66.72141 198.641245 
L 66.851466 198.081915 
L 67.678709 198.641245 
L 68.025422 198.081915 
L 68.981341 198.081915 
L 69.288246 198.641245 
L 69.66557 198.081915 
L 71.405442 198.081915 
L 71.761917 198.641245 
L 71.957586 200.319234 
L 72.433821 199.200574 
L 73.541197 199.200574 
L 74.090615 199.759904 
L 74.42282 199.759904 
L 74.745463 200.319234 
L 75.105584 200.319234 
L 75.436235 199.759904 
L 75.752188 201.437893 
L 76.032693 201.437893 
L 76.795322 202.556553 
L 80.79935 202.556553 
L 81.117643 203.675213 
L 81.796007 203.675213 
L 82.097098 204.234542 
L 83.106948 204.234542 
L 84.0736 206.471861 
L 85.101055 206.471861 
L 85.469056 207.031191 
L 91.676617 207.031191 
L 92.421865 208.149851 
L 92.590688 207.031191 
L 93.786087 207.031191 
L 94.110702 207.590521 
L 94.468848 207.031191 
L 95.320968 207.031191 
L 95.791639 207.590521 
L 96.14105 207.031191 
L 101.418018 207.031191 
L 101.706392 212.065159 
L 101.906325 207.031191 
L 103.818704 207.031191 
L 104.165864 207.590521 
L 104.364019 212.624489 
L 104.832103 207.590521 
L 105.1627 207.590521 
L 105.382155 207.031191 
L 108.844676 207.031191 
L 109.020022 207.590521 
L 109.334692 207.590521 
L 109.852918 209.26851 
L 115.076102 209.26851 
L 116.216043 209.82784 
L 123.231359 209.82784 
L 123.523483 212.065159 
L 123.896762 212.065159 
L 124.227769 209.82784 
L 124.568321 209.82784 
L 124.80298 212.065159 
L 125.057304 209.82784 
L 125.479952 212.065159 
L 125.854334 213.183819 
L 130.195435 213.183819 
L 130.570126 213.743149 
L 132.551918 213.743149 
L 132.960511 207.590521 
L 133.252383 208.149851 
L 133.582292 209.82784 
L 133.989585 209.82784 
L 134.535697 210.9465 
L 134.912588 210.9465 
L 135.190398 211.505829 
L 135.563561 209.26851 
L 138.295802 214.861808 
L 138.574784 213.183819 
L 139.042562 212.624489 
L 140.528276 212.624489 
L 140.909389 212.065159 
L 141.245465 210.9465 
L 142.590887 210.9465 
L 142.836879 209.82784 
L 143.269557 210.9465 
L 144.246688 210.9465 
L 144.579233 212.065159 
L 144.9 212.065159 
L 145.279896 212.624489 
L 145.433194 212.624489 
L 145.604522 214.302478 
L 145.836772 214.302478 
L 146.616901 214.861808 
L 147.261494 213.743149 
L 147.419115 213.743149 
L 147.924423 214.302478 
L 148.248632 215.421138 
L 149.924086 215.421138 
L 150.247576 215.980468 
L 150.594957 215.980468 
L 150.916572 216.539798 
L 151.217851 216.539798 
L 151.917923 217.099127 
L 152.279479 217.099127 
L 152.640022 218.777117 
L 152.853194 218.777117 
L 153.227916 218.217787 
L 153.823613 218.217787 
L 154.047584 219.895776 
L 154.60008 219.895776 
L 154.927417 221.014436 
L 155.36458 221.014436 
L 155.589762 221.573766 
L 156.08495 221.573766 
L 156.134226 222.133095 
L 156.385043 222.133095 
L 156.914305 222.692425 
L 158.117936 226.048404 
L 159.618219 226.048404 
L 159.924081 227.167063 
L 160.039251 226.607734 
L 160.17262 226.607734 
L 160.542474 226.048404 
L 161.888473 224.370414 
L 165.255997 224.370414 
L 165.646208 223.811085 
L 167.276075 223.811085 
L 167.508043 223.251755 
L 170.560266 223.251755 
L 170.953242 223.811085 
L 171.502586 223.811085 
L 171.947684 224.370414 
L 172.171644 223.811085 
L 174.317247 223.811085 
L 174.994386 224.929744 
L 176.435487 224.929744 
L 176.678115 232.760361 
L 176.951633 232.760361 
L 179.28258 234.43835 
L 179.425818 233.879021 
L 179.57525 234.43835 
L 179.963122 233.879021 
L 180.288475 233.879021 
L 180.630911 234.43835 
L 180.888061 234.43835 
L 181.300908 235.55701 
L 181.470697 235.55701 
L 181.627831 234.99768 
L 181.980026 236.11634 
L 184.321568 236.11634 
L 184.549364 236.67567 
L 185.808987 236.67567 
L 186.310509 236.11634 
L 186.68626 238.912989 
L 186.953761 237.234999 
L 187.302643 237.234999 
L 187.582285 240.590978 
L 187.777946 240.031648 
L 187.986235 240.590978 
L 188.091143 240.031648 
L 188.219544 241.709638 
L 188.552429 241.709638 
L 188.974203 242.268967 
L 189.800275 241.709638 
L 189.988372 242.828297 
L 190.295777 242.828297 
L 190.513469 241.150308 
L 191.252423 242.828297 
L 191.987197 243.387627 
L 192.632498 243.387627 
L 192.971017 245.065616 
L 193.282176 245.065616 
L 193.466488 244.506286 
L 193.789981 244.506286 
L 195.041144 246.743606 
L 195.249808 245.624946 
L 195.651465 245.065616 
L 196.122561 246.743606 
L 197.388842 246.743606 
L 197.497246 247.302935 
L 198.001807 247.862265 
L 199.346847 247.862265 
L 199.962515 250.658914 
L 203.422264 250.658914 
L 203.695461 251.218244 
L 204.054774 250.099584 
L 204.26396 251.218244 
L 208.035785 251.218244 
L 208.350926 251.777574 
L 209.110899 255.133552 
L 209.396016 253.455563 
L 209.7358 254.014893 
L 210.112037 253.455563 
L 210.376797 253.455563 
L 210.77797 251.777574 
L 210.993084 251.777574 
L 211.034835 252.336903 
L 211.711753 252.336903 
L 212.092758 248.980925 
L 212.428667 248.980925 
L 213.439147 249.540254 
L 213.503085 248.980925 
L 214.051729 248.421595 
L 214.133218 248.980925 
L 216.77684 248.980925 
L 216.960789 249.540254 
L 217.454145 250.099584 
L 218.112944 251.218244 
L 218.284296 252.336903 
L 218.515846 252.336903 
L 218.775239 253.455563 
L 219.08755 252.896233 
L 219.437252 252.896233 
L 219.700751 252.336903 
L 220.072221 252.896233 
L 220.403695 252.896233 
L 220.721393 253.455563 
L 220.978571 253.455563 
L 221.462674 252.896233 
L 221.714346 253.455563 
L 221.974826 252.896233 
L 222.731244 248.421595 
L 223.458865 249.540254 
L 223.565246 253.455563 
L 223.727438 253.455563 
L 224.024209 254.014893 
L 224.368988 253.455563 
L 224.68377 253.455563 
L 225.071538 252.896233 
L 225.407404 254.014893 
L 226.619585 254.014893 
L 227.101326 254.574222 
L 227.376634 254.574222 
L 227.397997 255.133552 
L 228.771556 255.133552 
L 229.162603 256.252212 
L 231.084467 256.252212 
L 231.467583 257.370871 
L 232.772197 257.370871 
L 235.148848 256.811542 
L 235.369324 257.370871 
L 235.963954 257.370871 
L 236.464301 257.930201 
L 236.799468 259.048861 
L 236.899689 258.489531 
L 237.263991 259.60819 
L 238.07441 259.60819 
L 241.356745 260.72685 
L 249.47012 260.72685 
L 249.800604 260.16752 
L 251.386852 260.16752 
L 251.715651 260.72685 
L 252.805237 260.72685 
L 253.181297 261.28618 
L 253.451706 260.72685 
L 253.765533 261.28618 
L 254.112775 260.72685 
L 254.397773 261.84551 
L 254.834267 261.28618 
L 255.152757 261.84551 
L 262.07579 261.84551 
L 262.433406 260.72685 
L 262.812261 261.28618 
L 263.154898 260.72685 
L 263.538687 260.72685 
L 263.846474 260.16752 
L 265.131018 260.16752 
L 265.457187 260.72685 
L 265.82561 260.16752 
L 266.161264 259.048861 
L 266.826822 259.048861 
L 267.202329 258.489531 
L 267.483324 259.60819 
L 267.844795 259.60819 
L 268.124063 259.048861 
L 269.005488 260.16752 
L 269.521128 259.60819 
L 269.827481 260.16752 
L 270.479247 260.16752 
L 270.847101 259.60819 
L 271.208313 261.28618 
L 271.555977 260.72685 
L 272.223433 260.72685 
L 272.477862 260.16752 
L 272.803258 260.72685 
L 273.158368 260.72685 
L 273.475277 255.692882 
L 273.601181 256.252212 
L 273.850219 256.252212 
L 274.023705 256.811542 
L 274.174904 256.811542 
L 274.37397 257.370871 
L 274.508875 256.252212 
L 274.824771 256.811542 
L 274.954124 256.811542 
L 275.17489 257.370871 
L 275.747113 257.370871 
L 276.02539 258.489531 
L 276.301182 257.370871 
L 276.480738 257.930201 
L 277.493086 257.930201 
L 277.794458 257.370871 
L 278.080272 257.370871 
L 278.439427 257.930201 
L 278.771535 257.930201 
L 279.165223 257.370871 
L 279.545137 257.930201 
L 279.839914 257.930201 
L 280.303799 259.048861 
L 282.196118 259.048861 
L 282.507378 257.370871 
L 283.973979 257.370871 
L 284.310804 257.930201 
L 284.575758 258.489531 
L 285.094513 258.489531 
L 285.256357 259.60819 
L 285.330599 259.048861 
L 285.50613 259.60819 
L 285.999861 259.60819 
L 286.241897 260.72685 
L 286.900909 260.72685 
L 287.208527 261.84551 
L 288.225859 261.84551 
L 288.469832 263.523499 
L 288.69496 264.082829 
L 288.824881 264.082829 
L 289.263138 264.642159 
L 289.417387 264.082829 
L 289.49214 264.642159 
L 289.974009 264.642159 
L 290.539921 265.201488 
L 291.809535 265.201488 
L 292.136977 264.642159 
L 292.450723 265.201488 
L 292.804395 265.201488 
L 292.973894 265.760818 
L 293.014663 265.201488 
L 293.215841 265.760818 
L 293.373188 265.760818 
L 293.528574 266.879478 
L 294.126908 267.998137 
L 294.562602 267.438807 
L 294.893855 267.998137 
L 295.545068 267.998137 
L 295.898512 269.116797 
L 296.027904 268.557467 
L 296.238106 270.235456 
L 296.535968 269.676127 
L 296.729146 270.235456 
L 296.881892 269.676127 
L 297.050683 270.794786 
L 297.39472 270.794786 
L 297.496616 271.354116 
L 297.900248 270.794786 
L 298.212424 271.913446 
L 298.916737 271.913446 
L 299.170276 273.032105 
L 299.529899 271.913446 
L 299.774217 271.913446 
L 299.86379 272.472775 
L 300.521108 272.472775 
L 300.828579 274.710095 
L 301.270768 272.472775 
L 301.339327 273.032105 
L 301.92156 272.472775 
L 301.976694 273.591435 
L 302.176948 273.591435 
L 302.580471 274.150765 
L 302.907951 273.591435 
L 303.155354 273.591435 
L 303.521461 274.710095 
L 303.919758 274.710095 
L 304.306006 274.150765 
L 304.594677 274.710095 
L 304.770077 274.150765 
L 304.944529 275.269424 
L 306.490337 275.269424 
L 306.965439 275.828754 
L 307.935482 275.828754 
L 308.27967 274.710095 
L 308.928366 274.710095 
L 309.253035 275.269424 
L 312.206622 275.269424 
L 312.605227 274.710095 
L 312.97887 275.828754 
L 317.511665 275.828754 
L 318.506037 276.388084 
L 319.096637 276.388084 
L 319.576287 276.947414 
L 319.955339 276.947414 
L 320.178081 277.506743 
L 325.223534 277.506743 
L 325.633333 276.947414 
L 325.95823 277.506743 
L 326.279202 276.947414 
L 326.497185 273.591435 
L 328.490429 273.591435 
L 328.668273 274.150765 
L 329.013005 274.150765 
L 329.127008 273.591435 
L 331.190295 273.591435 
L 331.47653 274.150765 
L 331.584706 273.591435 
L 332.074992 273.591435 
L 332.301624 274.710095 
L 332.47381 273.591435 
L 332.587302 273.591435 
L 332.80059 274.710095 
L 332.951974 274.710095 
L 333.147225 273.591435 
L 333.317989 274.710095 
L 333.427421 273.591435 
L 333.471496 274.710095 
L 334.645934 274.710095 
L 334.832361 275.269424 
L 334.859702 275.828754 
L 335.457754 275.828754 
L 335.493001 276.388084 
L 335.837587 276.388084 
L 336.016014 276.947414 
L 336.168141 276.388084 
L 336.355032 276.947414 
L 336.481419 276.388084 
L 336.777842 276.947414 
L 336.903205 276.388084 
L 336.920395 276.947414 
L 337.296134 276.947414 
L 337.531558 277.506743 
L 337.680043 277.506743 
L 337.902402 278.625403 
L 338.149128 279.184733 
L 338.319529 278.625403 
L 340.217474 278.625403 
L 340.488846 279.184733 
L 341.94341 279.184733 
L 342.17544 279.744063 
L 342.482141 279.744063 
L 342.709728 280.303392 
L 342.835167 279.744063 
L 343.436977 279.744063 
L 343.640069 280.862722 
L 344.192855 280.862722 
L 344.245939 281.422052 
L 344.323073 280.862722 
L 344.442404 280.862722 
L 344.656492 281.981382 
L 344.879447 282.540711 
L 344.941761 281.981382 
L 345.194492 284.218701 
L 346.218053 284.218701 
L 346.320954 284.778031 
L 346.545188 284.778031 
L 346.676544 285.89669 
L 346.830704 284.778031 
L 348.189521 284.778031 
L 348.268148 285.33736 
L 348.528782 284.778031 
L 348.653572 285.33736 
L 348.884295 284.778031 
L 349.183993 284.778031 
L 349.36778 285.89669 
L 349.702799 285.89669 
L 349.840221 285.33736 
L 349.957963 286.45602 
L 350.305688 284.778031 
L 350.670078 285.89669 
L 350.934046 284.778031 
L 351.551971 284.778031 
L 352.032873 286.45602 
L 352.182514 285.89669 
L 352.348231 286.45602 
L 352.79539 285.33736 
L 352.938573 286.45602 
L 353.999775 286.45602 
L 354.170829 287.01535 
L 354.468915 287.01535 
L 354.62782 286.45602 
L 354.828371 287.01535 
L 354.955183 286.45602 
L 355.34149 287.574679 
L 355.868906 287.574679 
L 356.240875 288.693339 
L 357.851951 288.693339 
L 358.028097 289.252669 
L 358.243558 288.693339 
L 358.350164 289.252669 
L 358.569836 288.693339 
L 358.861584 288.693339 
L 359.049763 289.252669 
L 359.173494 288.693339 
L 359.567409 288.693339 
L 359.689249 289.252669 
L 360.241528 289.252669 
L 360.278755 290.371328 
L 362.640821 290.371328 
L 362.873845 290.930658 
L 363.026795 290.371328 
L 363.156376 290.930658 
L 363.254803 290.371328 
L 363.372869 291.489988 
L 363.91685 291.489988 
L 364.173456 292.049318 
L 364.225461 291.489988 
L 364.278743 292.049318 
L 364.571768 291.489988 
L 364.647499 292.049318 
L 364.934058 292.608647 
L 365.046298 293.167977 
L 365.260568 293.167977 
L 365.309836 293.727307 
L 365.608169 295.405296 
L 365.742448 294.845967 
L 365.923678 294.845967 
L 365.956328 295.964626 
L 367.229631 295.964626 
L 367.387782 296.523956 
L 367.63723 295.964626 
L 368.069321 296.523956 
L 368.184804 295.964626 
L 368.373856 296.523956 
L 368.606199 296.523956 
L 368.744464 297.083286 
L 369.066511 297.083286 
L 369.074407 297.642615 
L 369.173681 297.083286 
L 369.268845 298.201945 
L 369.4095 298.201945 
L 369.604202 298.761275 
L 370.939826 298.761275 
L 370.975074 298.201945 
L 371.059157 299.320605 
L 371.411387 299.320605 
L 371.591271 298.761275 
L 371.729741 299.320605 
L 371.938216 298.761275 
L 372.094414 299.320605 
L 372.269906 299.320605 
L 372.420703 298.761275 
L 372.570223 300.439264 
L 374.360144 300.439264 
L 374.898411 301.557924 
L 375.181746 300.998594 
L 381.943275 300.998594 
L 382.058074 301.557924 
L 382.263401 300.998594 
L 382.322579 301.557924 
L 382.936112 301.557924 
L 383.106002 302.117254 
L 383.967097 302.117254 
L 384.082151 302.676583 
L 384.244327 302.117254 
L 385.563395 302.117254 
L 385.746357 302.676583 
L 385.976767 302.117254 
L 386.103989 302.117254 
L 386.306733 303.235913 
L 386.418264 302.676583 
L 386.91261 302.676583 
L 387.128006 303.235913 
L 388.141881 303.235913 
L 388.307038 302.117254 
L 388.64169 303.235913 
L 390.442294 303.235913 
L 390.626908 303.795243 
L 390.791837 303.795243 
L 390.96946 304.354573 
L 391.102223 304.354573 
L 391.266564 304.913903 
L 391.651076 304.913903 
L 391.719193 305.473232 
L 392.039741 305.473232 
L 392.242218 304.354573 
L 392.400322 304.913903 
L 392.642335 304.913903 
L 392.741018 305.473232 
L 393.111259 305.473232 
L 393.442404 306.032562 
L 393.8035 307.710552 
L 393.921724 307.151222 
L 394.031806 307.710552 
L 394.284475 308.269881 
L 394.404289 307.710552 
L 394.607485 308.269881 
L 394.725892 308.269881 
L 394.938584 307.710552 
L 395.112294 307.710552 
L 395.452611 309.388541 
L 395.658159 308.829211 
L 395.780598 308.829211 
L 395.941331 309.388541 
L 395.983597 309.947871 
L 396.120269 309.947871 
L 396.186968 309.388541 
L 396.407734 309.947871 
L 396.560603 309.388541 
L 396.68663 309.947871 
L 397.230867 309.947871 
L 397.433502 302.117254 
L 397.974692 303.235913 
L 398.332022 303.235913 
L 398.457009 303.795243 
L 398.651687 303.235913 
L 398.776648 303.235913 
L 398.924509 302.676583 
L 399.094523 303.235913 
L 399.328057 303.235913 
L 399.442963 302.676583 
L 399.588954 303.235913 
L 399.788063 302.676583 
L 399.866323 303.235913 
L 400.154364 303.795243 
L 400.280182 303.795243 
L 400.584296 302.676583 
L 400.859806 303.235913 
L 402.083818 303.235913 
L 402.374248 303.795243 
L 402.67919 303.235913 
L 403.227703 303.235913 
L 403.64822 304.354573 
L 403.792459 302.676583 
L 404.03523 303.235913 
L 404.344711 302.676583 
L 404.486282 304.354573 
L 404.657208 303.235913 
L 404.818746 303.235913 
L 404.926326 303.795243 
L 405.006611 306.032562 
L 405.021022 305.473232 
L 405.377173 306.032562 
L 406.256216 306.032562 
L 406.67204 307.151222 
L 406.843573 306.591892 
L 407.459379 306.591892 
L 407.627166 306.032562 
L 407.806494 306.591892 
L 408.003195 306.591892 
L 408.118751 306.032562 
L 408.470304 306.591892 
L 408.67683 306.591892 
L 408.812226 307.151222 
L 408.97782 306.591892 
L 409.155721 306.591892 
L 409.32244 306.032562 
L 409.425713 306.591892 
L 410.354411 306.591892 
L 410.586754 308.269881 
L 410.867668 307.710552 
L 411.100003 307.710552 
L 411.288097 307.151222 
L 411.373618 307.710552 
L 411.664972 307.151222 
L 411.773894 307.710552 
L 412.030565 307.710552 
L 412.13098 308.269881 
L 412.437716 307.710552 
L 413.06979 307.710552 
L 413.304127 308.269881 
L 413.694493 308.269881 
L 413.792921 308.829211 
L 413.959277 308.269881 
L 414.348162 309.388541 
L 414.463873 309.388541 
L 414.635487 309.947871 
L 414.793685 309.947871 
L 415.091345 310.5072 
L 417.512644 310.5072 
L 417.770595 311.06653 
L 418.012469 311.06653 
L 418.061713 309.947871 
L 418.122701 310.5072 
L 418.517316 310.5072 
L 418.607388 311.06653 
L 419.126623 311.06653 
L 419.374599 311.62586 
L 419.70765 311.62586 
L 419.718728 311.06653 
L 419.829444 311.62586 
L 419.931262 311.06653 
L 421.381512 311.06653 
L 421.65344 310.5072 
L 422.411998 311.06653 
L 423.985053 311.06653 
L 424.053121 311.62586 
L 425.703798 311.62586 
L 425.852487 312.18519 
L 427.379028 314.981839 
L 427.523708 314.981839 
L 427.674651 315.541168 
L 427.741872 314.981839 
L 428.066947 315.541168 
L 428.368961 316.100498 
L 428.730154 316.100498 
L 428.851449 316.659828 
L 429.30791 316.659828 
L 429.969041 316.100498 
L 430.002347 317.778488 
L 430.534435 317.778488 
L 430.699349 317.219158 
L 430.819131 317.778488 
L 432.041562 317.778488 
L 432.325338 317.219158 
L 433.636305 317.219158 
L 434.445805 317.778488 
L 436.081043 317.778488 
L 436.886262 318.337817 
L 436.993954 318.897147 
L 439.415627 318.897147 
L 439.643133 318.337817 
L 440.872515 318.337817 
L 441.77018 317.778488 
L 442.42432 317.778488 
L 442.748943 318.337817 
L 443.037146 319.456477 
L 443.208737 319.456477 
L 443.215434 318.897147 
L 445.140163 318.897147 
L 445.346735 319.456477 
L 450.209128 319.456477 
L 450.822221 320.015807 
L 451.058496 320.015807 
L 451.150725 320.575136 
L 451.451224 320.575136 
L 451.577422 320.015807 
L 451.773047 320.575136 
L 452.87143 320.575136 
L 453.361032 321.134466 
L 453.701129 322.253126 
L 456.679736 322.253126 
L 457.203998 321.693796 
L 457.355684 322.253126 
L 457.509129 321.693796 
L 457.681625 322.253126 
L 458.49856 322.253126 
L 458.875207 321.693796 
L 459.066336 322.253126 
L 459.593351 321.134466 
L 459.798751 322.253126 
L 461.0741 322.253126 
L 461.089187 322.812456 
L 463.110337 322.812456 
L 464.093043 323.371785 
L 464.387951 322.812456 
L 464.935872 322.812456 
L 465.068697 323.371785 
L 465.536866 321.693796 
L 465.845968 322.253126 
L 466.261517 321.693796 
L 466.569317 321.693796 
L 466.709105 322.253126 
L 467.557715 322.253126 
L 468.566006 321.693796 
L 468.717773 322.253126 
L 469.721077 322.253126 
L 470.046821 321.693796 
L 475.153296 322.253126 
L 475.53565 321.693796 
L 475.866096 322.253126 
L 476.162199 321.693796 
L 476.195328 322.253126 
L 476.453112 322.812456 
L 476.602405 322.812456 
L 476.738969 323.371785 
L 479.113145 323.371785 
L 479.163735 323.931115 
L 479.458848 323.931115 
L 480.246841 323.371785 
L 480.271908 323.931115 
L 480.574661 323.371785 
L 480.648246 324.490445 
L 480.843114 324.490445 
L 481.238456 325.049775 
L 481.900975 325.049775 
L 482.303262 324.490445 
L 482.755578 325.609104 
L 482.77413 326.168434 
L 483.085537 326.727764 
L 483.213524 326.727764 
L 483.536693 326.168434 
L 483.991109 326.168434 
L 484.085573 326.727764 
L 485.120212 326.727764 
L 485.262745 326.168434 
L 485.43724 327.287094 
L 485.581062 327.287094 
L 485.854023 326.727764 
L 486.102269 327.287094 
L 486.655862 327.287094 
L 486.899669 328.405753 
L 488.638493 328.405753 
L 488.846376 328.965083 
L 488.973668 328.965083 
L 489.183124 328.405753 
L 489.237144 328.965083 
L 489.791975 328.965083 
L 489.903568 329.524413 
L 490.206658 329.524413 
L 490.293227 330.643072 
L 490.766109 330.643072 
L 490.943782 332.321062 
L 491.313733 332.321062 
L 491.530099 331.761732 
L 491.646989 332.321062 
L 491.80434 332.321062 
L 491.816357 333.999051 
L 492.110712 333.999051 
L 492.487131 333.439721 
L 492.657899 333.439721 
L 492.803777 333.999051 
L 493.166555 333.999051 
L 493.542479 333.439721 
L 493.581145 334.558381 
L 493.913996 334.558381 
L 493.975351 335.117711 
L 494.207272 335.67704 
L 494.819935 335.67704 
L 494.909984 336.7957 
L 495.172907 336.7957 
L 495.327052 337.35503 
L 495.474965 337.35503 
L 496.00539 337.91436 
L 496.212982 337.35503 
L 496.336609 329.524413 
L 496.470686 328.965083 
L 496.561493 331.202402 
L 497.215579 331.202402 
L 497.484422 330.643072 
L 497.680303 331.761732 
L 497.831846 331.761732 
L 498.220352 332.321062 
L 498.647659 332.321062 
L 498.842635 331.761732 
L 498.995295 332.321062 
L 500.025607 332.321062 
L 500.15247 332.880392 
L 500.622197 331.761732 
L 501.004157 332.321062 
L 501.223037 332.321062 
L 501.307104 332.880392 
L 501.500344 331.761732 
L 501.688186 332.880392 
L 502.46758 332.880392 
L 502.588384 332.321062 
L 502.866012 332.321062 
L 502.909685 332.880392 
L 503.224038 333.439721 
L 503.236306 332.880392 
L 503.827483 332.880392 
L 504.13176 333.439721 
L 505.710739 333.439721 
L 505.829134 333.999051 
L 506.142269 333.439721 
L 506.152724 333.999051 
L 506.602361 334.558381 
L 506.878635 334.558381 
L 507.196561 335.117711 
L 507.355303 335.67704 
L 507.476671 335.67704 
L 507.858585 334.558381 
L 507.93403 335.67704 
L 508.190844 335.117711 
L 508.407005 335.67704 
L 509.37172 335.67704 
L 509.479811 336.23637 
L 509.614526 335.67704 
L 510.081365 336.23637 
L 510.30686 335.67704 
L 510.535391 336.23637 
L 510.672697 335.67704 
L 510.992471 336.7957 
L 511.213411 336.23637 
L 511.969107 336.23637 
L 512.269752 336.7957 
L 512.708741 336.7957 
L 513.058009 335.67704 
L 513.1511 336.23637 
L 513.524287 336.23637 
L 513.618995 337.35503 
L 514.089666 336.23637 
L 514.254034 336.7957 
L 514.633265 336.23637 
L 514.910085 336.23637 
L 515.051903 336.7957 
L 515.249806 336.7957 
L 515.276172 333.439721 
L 515.390886 333.439721 
L 515.834816 333.999051 
L 515.892327 332.880392 
L 516.051715 333.999051 
L 516.197841 333.439721 
L 516.285547 333.999051 
L 516.633481 333.439721 
L 517.050951 333.999051 
L 517.261239 333.999051 
L 517.549902 333.439721 
L 517.960216 333.439721 
L 518.380912 334.558381 
L 518.601279 333.999051 
L 519.046887 333.999051 
L 519.255269 333.439721 
L 519.285946 332.880392 
L 519.545541 333.999051 
L 519.68321 333.439721 
L 519.845142 333.999051 
L 520.08576 333.439721 
L 520.358094 333.439721 
L 520.533046 332.880392 
L 520.864837 332.880392 
L 521.210273 333.999051 
L 521.444669 333.439721 
L 521.730115 334.558381 
L 521.87877 334.558381 
L 521.972078 333.999051 
L 522.262389 333.999051 
L 522.286756 334.558381 
L 523.249147 334.558381 
L 523.406811 335.117711 
L 523.541855 335.117711 
L 523.750032 335.67704 
L 523.929588 335.117711 
L 524.066527 335.67704 
L 524.270682 335.117711 
L 524.385608 335.67704 
L 524.533942 335.117711 
L 524.581733 335.67704 
L 524.745943 336.7957 
L 524.946564 336.23637 
L 525.009701 335.67704 
L 525.22128 336.23637 
L 525.394186 335.67704 
L 525.602591 336.23637 
L 525.944114 336.23637 
L 526.039209 336.7957 
L 526.275144 336.23637 
L 526.894771 337.91436 
L 527.061451 337.91436 
L 527.233858 336.7957 
L 527.315366 337.35503 
L 527.559119 337.35503 
L 527.67002 336.7957 
L 527.869334 336.7957 
L 528.050797 337.35503 
L 528.284083 337.35503 
L 528.675744 339.033019 
L 528.884118 338.473689 
L 531.62323 338.473689 
L 531.750695 339.033019 
L 531.912338 339.033019 
L 532.042328 338.473689 
L 532.188233 339.033019 
L 532.303137 339.033019 
L 532.952907 336.7957 
L 533.061605 337.91436 
L 533.622259 336.7957 
L 534.230475 336.7957 
L 534.889124 337.91436 
L 536.053486 337.35503 
L 536.349183 337.91436 
L 536.674942 337.35503 
L 536.907598 338.473689 
L 537.00091 337.35503 
L 537.307603 338.473689 
L 537.641757 337.35503 
L 537.752372 338.473689 
L 537.96665 338.473689 
L 538.084442 337.91436 
L 538.297946 338.473689 
L 538.426077 338.473689 
L 538.545427 337.91436 
L 538.690439 339.592349 
L 539.070748 338.473689 
L 539.426454 338.473689 
L 539.643802 339.033019 
L 540.053988 339.033019 
L 540.38757 338.473689 
L 540.582584 338.473689 
L 540.730009 339.592349 
L 540.913904 339.033019 
L 541.016573 339.592349 
L 541.264475 340.151679 
L 541.416478 340.151679 
L 541.682232 339.033019 
L 541.936355 340.711008 
L 542.255761 340.711008 
L 542.280005 341.829668 
L 542.302311 341.270338 
L 542.469359 340.711008 
L 542.64496 341.829668 
L 542.718204 340.711008 
L 542.98291 340.711008 
L 543.018978 341.270338 
L 543.317211 341.829668 
L 543.4957 341.829668 
L 543.579361 340.711008 
L 543.979591 341.829668 
L 544.044406 340.711008 
L 544.2624 341.829668 
L 544.430093 340.151679 
L 544.939863 341.270338 
L 545.323888 339.592349 
L 545.353583 340.151679 
L 545.59683 339.592349 
L 545.750611 339.592349 
L 545.910259 340.711008 
L 546.100912 339.592349 
L 546.467456 340.711008 
L 546.606521 339.592349 
L 546.757093 340.151679 
L 547.06393 340.151679 
L 547.266562 339.592349 
L 547.654453 339.592349 
L 547.666292 340.151679 
L 548.276787 339.033019 
L 548.600562 340.711008 
L 548.772401 340.711008 
L 548.972678 340.151679 
L 549.029289 341.270338 
L 549.313602 340.151679 
L 549.488669 341.270338 
L 549.665155 340.151679 
L 549.738091 340.711008 
L 550.100045 340.711008 
L 550.316956 341.270338 
L 550.416165 342.388998 
L 550.618132 341.270338 
L 550.950414 341.829668 
L 551.097402 342.388998 
L 551.279019 341.829668 
L 551.434084 344.066987 
L 551.677482 344.066987 
L 551.999363 344.626317 
L 552.038195 343.507657 
L 552.354991 344.626317 
L 552.805935 343.507657 
L 552.927782 345.185647 
L 553.293429 345.744976 
L 553.691679 344.626317 
L 553.94409 344.066987 
L 554.645727 344.626317 
L 554.729767 345.185647 
L 554.992261 345.185647 
L 555.476152 345.744976 
L 555.715888 345.744976 
L 556.014616 346.304306 
L 556.316785 347.982296 
L 557.092579 347.422966 
L 557.34248 347.422966 
L 557.689007 345.744976 
L 558.018412 345.744976 
L 558.103322 345.185647 
L 558.353591 346.304306 
L 558.409347 345.185647 
L 558.683259 345.744976 
L 559.180138 345.744976 
L 559.435119 346.863636 
L 559.669155 345.744976 
L 559.988802 346.863636 
L 560.113418 346.304306 
L 560.284135 346.863636 
L 560.729847 345.744976 
L 560.987458 346.304306 
L 561.740953 346.304306 
L 561.920804 345.744976 
L 562.357213 346.863636 
L 562.5346 345.744976 
L 562.687604 345.744976 
L 562.747099 346.304306 
L 562.96401 346.304306 
L 563.197954 346.863636 
L 563.358034 345.744976 
L 563.606582 346.863636 
L 563.715735 345.744976 
L 563.715735 345.744976 
" clip-path="url(#p82fb5906d8)" style="fill: none; stroke-dasharray: 3,1.5; stroke-dashoffset: 0; stroke: #808080; stroke-width: 1.5"/>
   </g>
   <g id="line2d_19">
    <path d="M 38.539265 297.083286 
L 39.905018 296.523956 
L 41.266363 295.405296 
L 44.490162 295.405296 
L 48.044785 294.845967 
L 48.308486 295.405296 
L 48.472947 295.405296 
L 48.585399 294.286637 
L 48.844935 294.845967 
L 49.228798 294.286637 
L 49.976176 294.286637 
L 50.392429 291.489988 
L 50.485281 294.286637 
L 50.701338 290.930658 
L 50.770047 291.489988 
L 51.012157 291.489988 
L 51.399441 290.930658 
L 52.034326 290.930658 
L 52.359366 288.693339 
L 52.864623 288.693339 
L 53.377502 289.811999 
L 53.703771 285.33736 
L 53.775995 285.89669 
L 54.083029 285.33736 
L 54.676951 283.659371 
L 55.079794 284.778031 
L 55.716538 284.778031 
L 56.072383 285.89669 
L 56.312939 285.33736 
L 57.037659 284.778031 
L 57.362862 284.778031 
L 57.716488 283.659371 
L 58.223903 283.659371 
L 58.74869 280.303392 
L 60.159443 278.625403 
L 60.351561 278.066073 
L 60.758499 278.066073 
L 61.015109 277.506743 
L 61.423965 277.506743 
L 61.724966 278.625403 
L 62.031578 279.184733 
L 62.373434 279.184733 
L 62.573626 278.625403 
L 65.015058 278.625403 
L 65.405296 278.066073 
L 66.036921 278.066073 
L 66.38646 277.506743 
L 66.72141 277.506743 
L 66.851466 278.066073 
L 67.678709 277.506743 
L 68.025422 278.066073 
L 68.981341 278.066073 
L 69.288246 277.506743 
L 69.66557 278.066073 
L 71.405442 278.066073 
L 71.761917 277.506743 
L 71.957586 275.828754 
L 72.433821 276.947414 
L 73.104521 276.947414 
L 73.417884 275.828754 
L 73.541197 276.947414 
L 74.090615 275.269424 
L 74.42282 275.269424 
L 74.745463 274.710095 
L 75.105584 274.710095 
L 75.436235 275.269424 
L 75.752188 274.150765 
L 76.032693 274.150765 
L 76.795322 273.032105 
L 80.79935 273.032105 
L 81.117643 271.913446 
L 81.796007 271.913446 
L 82.097098 269.116797 
L 83.106948 269.116797 
L 84.0736 266.879478 
L 85.101055 266.879478 
L 85.469056 266.320148 
L 91.676617 266.320148 
L 92.421865 264.642159 
L 92.590688 266.320148 
L 93.786087 266.320148 
L 94.110702 265.201488 
L 94.468848 266.320148 
L 95.320968 266.320148 
L 95.791639 265.201488 
L 96.14105 266.320148 
L 101.418018 266.320148 
L 101.706392 261.28618 
L 101.906325 266.320148 
L 103.818704 266.320148 
L 104.165864 265.760818 
L 104.364019 260.72685 
L 104.832103 265.760818 
L 105.1627 265.760818 
L 105.382155 266.320148 
L 108.844676 266.320148 
L 109.020022 265.760818 
L 109.334692 265.760818 
L 109.852918 264.082829 
L 115.076102 264.082829 
L 116.216043 263.523499 
L 123.231359 263.523499 
L 123.523483 260.72685 
L 123.896762 260.72685 
L 124.227769 263.523499 
L 124.568321 263.523499 
L 124.80298 260.72685 
L 125.057304 263.523499 
L 125.479952 260.72685 
L 125.854334 259.60819 
L 130.195435 259.60819 
L 130.570126 259.048861 
L 132.213987 259.048861 
L 132.551918 257.930201 
L 132.960511 255.692882 
L 133.252383 255.133552 
L 133.582292 251.777574 
L 133.989585 251.777574 
L 134.535697 250.658914 
L 134.912588 250.658914 
L 135.563561 249.540254 
L 138.295802 244.506286 
L 138.574784 245.624946 
L 140.528276 245.624946 
L 140.909389 243.387627 
L 141.245465 243.946957 
L 142.590887 243.946957 
L 142.836879 245.065616 
L 143.269557 243.946957 
L 144.246688 243.946957 
L 144.579233 242.828297 
L 144.9 242.828297 
L 145.279896 242.268967 
L 145.433194 242.268967 
L 145.604522 240.590978 
L 145.836772 240.590978 
L 146.616901 240.031648 
L 147.261494 241.709638 
L 147.419115 241.709638 
L 147.924423 241.150308 
L 148.248632 240.031648 
L 149.924086 240.031648 
L 150.247576 239.472318 
L 150.594957 239.472318 
L 150.916572 238.912989 
L 151.217851 238.912989 
L 151.917923 238.353659 
L 152.279479 238.353659 
L 152.640022 236.67567 
L 153.227916 236.67567 
L 153.595318 236.11634 
L 153.823613 236.11634 
L 153.951067 246.184276 
L 154.047584 245.624946 
L 154.60008 245.624946 
L 154.927417 244.506286 
L 155.36458 244.506286 
L 155.589762 243.946957 
L 156.08495 243.946957 
L 156.134226 243.387627 
L 156.914305 243.387627 
L 157.333129 241.709638 
L 158.203507 240.031648 
L 159.618219 240.031648 
L 159.924081 238.912989 
L 160.039251 239.472318 
L 160.17262 239.472318 
L 160.542474 240.031648 
L 161.888473 239.472318 
L 165.255997 239.472318 
L 165.646208 240.031648 
L 167.276075 240.031648 
L 167.508043 240.590978 
L 167.932953 240.031648 
L 170.560266 240.031648 
L 170.953242 239.472318 
L 171.502586 239.472318 
L 171.947684 238.912989 
L 172.171644 239.472318 
L 174.317247 239.472318 
L 174.994386 238.353659 
L 176.435487 238.353659 
L 176.678115 230.523042 
L 176.951633 230.523042 
L 179.28258 228.845053 
L 179.425818 229.404382 
L 179.57525 228.845053 
L 179.963122 229.404382 
L 180.288475 229.404382 
L 180.630911 228.845053 
L 180.888061 228.845053 
L 181.300908 227.726393 
L 181.470697 227.726393 
L 181.627831 228.285723 
L 181.980026 227.167063 
L 184.321568 227.167063 
L 184.549364 226.607734 
L 184.929147 226.607734 
L 185.281609 226.048404 
L 185.647526 226.607734 
L 185.808987 226.607734 
L 186.310509 227.167063 
L 186.68626 224.370414 
L 186.953761 226.048404 
L 187.302643 226.048404 
L 187.582285 222.692425 
L 187.777946 223.251755 
L 187.986235 222.133095 
L 188.091143 222.692425 
L 188.219544 221.014436 
L 188.552429 221.014436 
L 188.974203 220.455106 
L 189.800275 221.014436 
L 189.988372 219.895776 
L 190.295777 219.895776 
L 190.513469 221.573766 
L 191.252423 219.895776 
L 191.987197 219.336446 
L 192.632498 219.336446 
L 192.971017 217.658457 
L 193.282176 217.658457 
L 193.466488 218.217787 
L 193.789981 218.217787 
L 195.041144 214.861808 
L 195.249808 217.099127 
L 195.651465 217.658457 
L 196.122561 214.861808 
L 197.388842 214.861808 
L 197.497246 214.302478 
L 198.001807 213.743149 
L 199.346847 213.743149 
L 199.962515 210.9465 
L 203.422264 210.9465 
L 203.695461 209.82784 
L 204.054774 212.065159 
L 204.26396 210.38717 
L 208.035785 210.38717 
L 208.350926 209.82784 
L 209.110899 206.471861 
L 209.396016 208.149851 
L 209.7358 207.590521 
L 210.112037 208.149851 
L 210.376797 208.149851 
L 210.77797 202.556553 
L 210.993084 202.556553 
L 211.034835 201.997223 
L 211.711753 201.997223 
L 212.092758 200.878564 
L 212.428667 199.200574 
L 213.439147 198.641245 
L 213.503085 199.200574 
L 214.051729 199.759904 
L 214.133218 199.200574 
L 216.77684 199.200574 
L 216.960789 198.641245 
L 217.454145 198.081915 
L 218.112944 196.963255 
L 218.284296 195.844596 
L 218.515846 195.844596 
L 218.775239 194.725936 
L 219.08755 195.285266 
L 219.437252 195.285266 
L 219.700751 195.844596 
L 220.072221 195.285266 
L 220.403695 195.285266 
L 220.721393 194.725936 
L 220.978571 194.725936 
L 221.462674 195.285266 
L 221.714346 194.725936 
L 221.974826 195.285266 
L 222.414239 198.081915 
L 222.731244 198.641245 
L 223.458865 197.522585 
L 223.565246 193.607277 
L 223.727438 193.607277 
L 224.024209 193.047947 
L 224.368988 193.607277 
L 224.68377 193.607277 
L 225.071538 194.166606 
L 225.407404 193.047947 
L 226.619585 193.047947 
L 227.101326 192.488617 
L 227.376634 192.488617 
L 227.397997 191.929287 
L 228.771556 191.929287 
L 229.162603 190.810628 
L 231.084467 190.810628 
L 231.467583 189.691968 
L 235.148848 189.691968 
L 235.369324 189.132638 
L 235.963954 189.132638 
L 236.464301 188.573309 
L 236.799468 187.454649 
L 236.899689 188.013979 
L 237.263991 186.895319 
L 238.07441 186.895319 
L 241.356745 185.77666 
L 249.47012 185.77666 
L 249.800604 186.335989 
L 251.386852 186.335989 
L 251.715651 185.77666 
L 252.805237 185.77666 
L 253.181297 185.21733 
L 253.451706 185.77666 
L 253.765533 185.21733 
L 254.112775 185.77666 
L 254.397773 184.658 
L 254.834267 185.21733 
L 255.152757 184.658 
L 262.07579 184.658 
L 262.433406 185.77666 
L 262.812261 185.21733 
L 263.154898 185.77666 
L 263.538687 185.21733 
L 263.846474 185.77666 
L 265.131018 185.77666 
L 265.457187 185.21733 
L 265.82561 185.77666 
L 266.161264 184.658 
L 266.826822 184.658 
L 267.202329 185.21733 
L 267.483324 184.09867 
L 267.844795 184.09867 
L 268.124063 184.658 
L 269.005488 183.539341 
L 269.521128 184.09867 
L 269.827481 183.539341 
L 270.479247 183.539341 
L 270.847101 184.09867 
L 271.208313 182.420681 
L 271.555977 182.980011 
L 272.223433 182.980011 
L 272.477862 183.539341 
L 272.803258 182.980011 
L 273.158368 182.980011 
L 273.475277 187.454649 
L 273.601181 186.895319 
L 273.850219 186.895319 
L 274.023705 186.335989 
L 274.174904 186.335989 
L 274.37397 185.77666 
L 274.508875 186.895319 
L 274.824771 186.335989 
L 274.954124 186.335989 
L 275.17489 185.77666 
L 275.747113 185.77666 
L 276.02539 184.658 
L 276.301182 185.77666 
L 276.480738 185.21733 
L 277.493086 185.21733 
L 277.794458 185.77666 
L 278.080272 185.77666 
L 278.439427 185.21733 
L 278.771535 185.21733 
L 279.165223 185.77666 
L 279.545137 185.21733 
L 279.839914 185.21733 
L 280.303799 184.09867 
L 282.196118 184.09867 
L 282.507378 184.658 
L 283.973979 184.658 
L 284.310804 184.09867 
L 284.575758 183.539341 
L 285.094513 183.539341 
L 285.256357 182.420681 
L 285.330599 182.980011 
L 285.50613 182.420681 
L 285.999861 182.420681 
L 286.241897 181.302021 
L 286.900909 181.302021 
L 287.208527 180.183362 
L 288.225859 180.183362 
L 288.469832 178.505373 
L 288.69496 177.946043 
L 288.824881 177.946043 
L 289.263138 177.386713 
L 289.417387 177.946043 
L 289.49214 177.386713 
L 289.650299 177.386713 
L 289.835446 176.827383 
L 289.974009 176.827383 
L 290.539921 176.268053 
L 291.809535 176.268053 
L 292.136977 176.827383 
L 292.450723 176.268053 
L 292.804395 176.268053 
L 292.973894 175.708724 
L 293.014663 176.268053 
L 293.215841 175.708724 
L 293.373188 175.708724 
L 293.528574 174.590064 
L 294.126908 173.471405 
L 294.562602 174.030734 
L 294.893855 173.471405 
L 295.545068 173.471405 
L 295.898512 172.352745 
L 296.027904 172.912075 
L 296.238106 171.234085 
L 296.535968 171.793415 
L 296.729146 171.234085 
L 296.881892 171.793415 
L 297.050683 170.674756 
L 297.39472 170.674756 
L 297.496616 170.115426 
L 297.900248 170.674756 
L 298.212424 169.556096 
L 298.916737 169.556096 
L 299.170276 168.437437 
L 299.529899 169.556096 
L 299.774217 169.556096 
L 299.86379 168.996766 
L 300.521108 168.996766 
L 300.828579 166.759447 
L 301.270768 168.996766 
L 301.339327 168.437437 
L 301.92156 168.996766 
L 301.976694 167.878107 
L 302.176948 167.878107 
L 302.580471 167.318777 
L 302.907951 167.878107 
L 303.155354 167.878107 
L 303.521461 166.759447 
L 303.919758 166.759447 
L 304.306006 167.318777 
L 304.594677 166.759447 
L 304.770077 167.318777 
L 304.944529 166.200117 
L 306.490337 166.200117 
L 306.965439 165.640788 
L 307.935482 165.640788 
L 308.27967 166.759447 
L 308.928366 166.759447 
L 309.253035 166.200117 
L 312.206622 166.200117 
L 312.605227 166.759447 
L 312.97887 165.640788 
L 317.511665 165.640788 
L 318.506037 165.081458 
L 319.096637 165.081458 
L 319.576287 164.522128 
L 319.955339 164.522128 
L 320.178081 163.403468 
L 320.531223 163.962798 
L 325.223534 163.962798 
L 325.633333 164.522128 
L 325.95823 163.962798 
L 326.279202 164.522128 
L 326.497185 166.759447 
L 328.490429 166.759447 
L 328.819154 165.640788 
L 329.28053 166.759447 
L 331.190295 166.759447 
L 331.47653 165.640788 
L 331.584706 166.759447 
L 332.074992 166.759447 
L 332.301624 165.640788 
L 332.47381 166.759447 
L 332.587302 166.759447 
L 332.80059 165.640788 
L 332.951974 165.640788 
L 333.147225 166.759447 
L 333.317989 165.640788 
L 333.427421 166.759447 
L 333.471496 165.640788 
L 334.645934 165.640788 
L 335.030396 163.962798 
L 335.457754 163.962798 
L 335.493001 163.403468 
L 335.837587 163.403468 
L 336.016014 162.844139 
L 336.168141 163.403468 
L 336.355032 162.844139 
L 336.481419 163.403468 
L 336.777842 162.844139 
L 336.903205 163.403468 
L 336.920395 162.844139 
L 337.296134 162.844139 
L 337.531558 162.284809 
L 337.680043 162.284809 
L 337.902402 161.166149 
L 338.149128 160.60682 
L 338.319529 161.166149 
L 340.217474 161.166149 
L 340.488846 160.60682 
L 341.94341 160.60682 
L 342.17544 160.04749 
L 342.482141 160.04749 
L 342.709728 159.48816 
L 342.835167 160.04749 
L 343.436977 160.04749 
L 343.640069 158.92883 
L 344.192855 158.92883 
L 344.245939 158.3695 
L 344.323073 158.92883 
L 344.629793 158.92883 
L 344.656492 158.3695 
L 344.879447 157.810171 
L 344.941761 158.3695 
L 345.194492 156.132181 
L 346.218053 156.132181 
L 346.320954 155.572852 
L 346.545188 155.572852 
L 346.676544 154.454192 
L 346.830704 155.572852 
L 348.189521 155.572852 
L 348.268148 155.013522 
L 348.528782 155.572852 
L 348.653572 155.013522 
L 348.884295 155.572852 
L 349.183993 155.572852 
L 349.36778 154.454192 
L 349.702799 154.454192 
L 349.840221 155.013522 
L 349.957963 153.894862 
L 350.305688 155.572852 
L 350.670078 154.454192 
L 350.934046 155.572852 
L 351.551971 155.572852 
L 352.032873 153.894862 
L 352.182514 154.454192 
L 352.348231 153.894862 
L 352.79539 155.013522 
L 352.938573 153.894862 
L 353.999775 153.894862 
L 354.170829 153.335532 
L 354.468915 153.335532 
L 354.62782 153.894862 
L 354.828371 153.335532 
L 354.955183 153.894862 
L 355.34149 152.776203 
L 355.868906 152.776203 
L 356.240875 151.657543 
L 356.887077 152.776203 
L 357.025176 152.216873 
L 357.19507 152.776203 
L 357.302808 152.216873 
L 357.518961 152.216873 
L 357.609551 152.776203 
L 358.028097 151.657543 
L 358.243558 152.216873 
L 358.350164 151.657543 
L 358.569836 152.216873 
L 358.861584 152.216873 
L 359.049763 151.657543 
L 359.173494 152.216873 
L 359.29543 152.216873 
L 359.567409 152.776203 
L 359.689249 151.657543 
L 360.241528 151.657543 
L 360.278755 150.538884 
L 362.640821 150.538884 
L 362.873845 149.979554 
L 363.026795 150.538884 
L 363.156376 149.979554 
L 363.254803 150.538884 
L 363.372869 149.420224 
L 363.91685 149.420224 
L 364.173456 148.860894 
L 364.225461 149.420224 
L 364.278743 148.860894 
L 364.571768 149.420224 
L 364.647499 148.860894 
L 364.934058 148.301564 
L 365.046298 147.742235 
L 365.260568 147.742235 
L 365.309836 147.182905 
L 365.608169 145.504916 
L 365.742448 146.064245 
L 365.923678 146.064245 
L 365.956328 144.945586 
L 367.229631 144.945586 
L 367.387782 144.386256 
L 367.63723 144.945586 
L 368.373856 143.267596 
L 368.606199 143.267596 
L 368.744464 142.708267 
L 369.066511 142.708267 
L 369.074407 142.148937 
L 369.173681 142.708267 
L 369.268845 141.589607 
L 369.4095 141.589607 
L 369.604202 141.030277 
L 370.939826 141.030277 
L 370.975074 141.589607 
L 371.059157 140.470948 
L 371.411387 140.470948 
L 371.591271 141.030277 
L 371.729741 140.470948 
L 371.938216 141.030277 
L 372.094414 140.470948 
L 372.269906 140.470948 
L 372.420703 141.030277 
L 372.570223 139.352288 
L 374.360144 139.352288 
L 374.898411 138.233628 
L 375.181746 138.792958 
L 381.943275 138.792958 
L 382.058074 138.233628 
L 382.263401 138.792958 
L 382.322579 138.233628 
L 382.936112 138.233628 
L 383.106002 137.674299 
L 383.967097 137.674299 
L 384.082151 137.114969 
L 384.244327 137.674299 
L 385.563395 137.674299 
L 385.746357 137.114969 
L 385.976767 137.674299 
L 386.103989 137.674299 
L 386.306733 136.555639 
L 386.418264 137.114969 
L 386.91261 137.114969 
L 387.128006 136.555639 
L 388.141881 136.555639 
L 388.307038 137.674299 
L 388.64169 136.555639 
L 390.442294 136.555639 
L 390.626908 135.996309 
L 390.791837 135.996309 
L 390.96946 135.43698 
L 391.102223 135.43698 
L 391.266564 134.87765 
L 391.651076 134.87765 
L 391.719193 134.31832 
L 392.039741 134.31832 
L 392.242218 135.43698 
L 392.400322 134.87765 
L 392.642335 134.87765 
L 392.741018 134.31832 
L 393.111259 134.31832 
L 393.442404 133.75899 
L 393.8035 132.081001 
L 393.921724 132.640331 
L 394.031806 132.081001 
L 394.284475 131.521671 
L 394.404289 132.081001 
L 394.607485 131.521671 
L 394.725892 131.521671 
L 394.938584 132.081001 
L 395.112294 132.081001 
L 395.452611 130.403012 
L 395.658159 130.962341 
L 395.780598 130.962341 
L 395.941331 130.403012 
L 395.983597 129.843682 
L 396.120269 129.843682 
L 396.186968 130.403012 
L 396.407734 129.843682 
L 396.560603 130.403012 
L 396.68663 129.843682 
L 397.230867 129.843682 
L 397.433502 133.19966 
L 397.974692 132.081001 
L 398.332022 132.081001 
L 398.457009 131.521671 
L 398.651687 132.081001 
L 398.776648 132.081001 
L 398.924509 132.640331 
L 399.094523 132.081001 
L 399.328057 132.081001 
L 399.442963 132.640331 
L 399.588954 132.081001 
L 399.788063 132.640331 
L 399.866323 132.081001 
L 400.154364 131.521671 
L 400.439191 131.521671 
L 400.584296 132.081001 
L 400.859806 131.521671 
L 401.98474 131.521671 
L 402.083818 128.725022 
L 402.374248 130.962341 
L 402.67919 131.521671 
L 403.227703 131.521671 
L 403.64822 130.403012 
L 403.792459 132.081001 
L 404.03523 131.521671 
L 404.344711 132.081001 
L 404.486282 130.403012 
L 404.657208 131.521671 
L 404.818746 131.521671 
L 404.926326 130.962341 
L 405.021022 126.487703 
L 405.34989 128.725022 
L 405.377173 125.928373 
L 406.256216 125.928373 
L 406.67204 124.809714 
L 406.843573 125.369044 
L 407.459379 125.369044 
L 407.627166 125.928373 
L 407.806494 125.369044 
L 408.003195 125.369044 
L 408.118751 125.928373 
L 408.470304 125.369044 
L 408.67683 125.369044 
L 408.812226 124.809714 
L 408.97782 125.369044 
L 409.155721 125.369044 
L 409.32244 125.928373 
L 409.425713 125.369044 
L 410.354411 125.369044 
L 410.586754 123.691054 
L 410.867668 124.250384 
L 411.100003 124.250384 
L 411.288097 124.809714 
L 411.373618 124.250384 
L 411.664972 124.809714 
L 411.773894 124.250384 
L 412.030565 124.250384 
L 412.13098 123.691054 
L 412.437716 124.250384 
L 413.06979 124.250384 
L 413.304127 123.691054 
L 413.694493 123.691054 
L 413.792921 123.131724 
L 413.959277 123.691054 
L 414.348162 122.572395 
L 414.463873 122.572395 
L 414.635487 122.013065 
L 414.793685 122.013065 
L 415.091345 121.453735 
L 417.512644 121.453735 
L 417.770595 120.894405 
L 418.012469 120.894405 
L 418.061713 122.013065 
L 418.122701 121.453735 
L 418.517316 121.453735 
L 418.607388 120.894405 
L 419.126623 120.894405 
L 419.374599 120.335075 
L 419.70765 120.335075 
L 419.718728 120.894405 
L 419.829444 120.335075 
L 419.931262 120.894405 
L 421.381512 120.894405 
L 421.65344 121.453735 
L 422.411998 120.894405 
L 423.985053 120.894405 
L 424.053121 120.335075 
L 425.703798 120.335075 
L 425.852487 119.775746 
L 427.379028 116.979097 
L 427.523708 116.979097 
L 427.674651 116.419767 
L 427.741872 116.979097 
L 428.066947 116.419767 
L 428.368961 115.860437 
L 428.730154 115.860437 
L 428.851449 115.301107 
L 429.30791 115.301107 
L 429.969041 115.860437 
L 430.002347 114.182448 
L 430.534435 114.182448 
L 430.699349 114.741778 
L 430.819131 114.182448 
L 431.711232 114.182448 
L 432.041562 114.741778 
L 433.636305 114.741778 
L 434.445805 114.182448 
L 436.081043 114.182448 
L 436.886262 113.623118 
L 436.993954 113.063788 
L 439.415627 113.063788 
L 439.643133 113.623118 
L 440.872515 113.623118 
L 441.77018 114.182448 
L 442.42432 114.182448 
L 442.748943 113.623118 
L 443.037146 112.504459 
L 443.208737 112.504459 
L 443.215434 113.063788 
L 445.140163 113.063788 
L 445.346735 112.504459 
L 450.209128 112.504459 
L 450.822221 111.945129 
L 451.058496 111.945129 
L 451.150725 110.826469 
L 451.451224 110.826469 
L 451.577422 111.385799 
L 451.773047 110.826469 
L 452.87143 110.826469 
L 453.361032 110.267139 
L 453.701129 109.14848 
L 456.679736 109.14848 
L 457.203998 109.70781 
L 457.355684 109.14848 
L 457.509129 109.70781 
L 457.681625 109.14848 
L 458.49856 109.14848 
L 458.875207 109.70781 
L 459.066336 109.14848 
L 459.593351 110.267139 
L 459.798751 109.14848 
L 461.0741 109.14848 
L 461.089187 108.58915 
L 463.110337 108.58915 
L 464.093043 108.02982 
L 464.387951 108.58915 
L 464.60272 108.02982 
L 464.741712 108.58915 
L 464.935872 108.58915 
L 465.068697 108.02982 
L 465.536866 109.14848 
L 465.845968 108.58915 
L 466.261517 109.14848 
L 466.569317 109.14848 
L 466.709105 108.58915 
L 467.557715 108.58915 
L 468.566006 109.14848 
L 468.717773 108.58915 
L 469.721077 108.58915 
L 470.046821 109.14848 
L 475.153296 108.58915 
L 475.53565 109.14848 
L 475.866096 108.58915 
L 476.162199 109.14848 
L 476.195328 108.58915 
L 476.453112 108.02982 
L 476.602405 108.02982 
L 476.738969 107.470491 
L 479.113145 107.470491 
L 479.163735 106.911161 
L 479.458848 106.911161 
L 480.246841 107.470491 
L 480.271908 106.911161 
L 480.574661 107.470491 
L 480.648246 106.351831 
L 480.843114 106.351831 
L 481.238456 105.792501 
L 481.900975 105.792501 
L 482.303262 106.351831 
L 482.755578 105.233171 
L 482.77413 104.673842 
L 483.085537 104.114512 
L 483.213524 104.114512 
L 483.536693 104.673842 
L 483.991109 104.673842 
L 484.085573 104.114512 
L 485.120212 104.114512 
L 485.262745 104.673842 
L 485.43724 103.555182 
L 485.581062 103.555182 
L 485.854023 104.114512 
L 486.102269 103.555182 
L 486.655862 103.555182 
L 486.899669 101.877193 
L 488.638493 101.877193 
L 488.846376 101.317863 
L 488.973668 101.317863 
L 489.183124 101.877193 
L 489.237144 101.317863 
L 489.791975 101.317863 
L 489.903568 100.758533 
L 490.206658 100.199203 
L 490.293227 99.080544 
L 490.766109 99.080544 
L 490.943782 97.402555 
L 491.313733 97.402555 
L 491.530099 97.961884 
L 491.646989 97.402555 
L 491.80434 97.402555 
L 491.816357 95.724565 
L 492.657899 95.724565 
L 492.803777 95.165235 
L 493.166555 95.165235 
L 493.542479 95.724565 
L 493.581145 94.605906 
L 493.913996 94.605906 
L 493.975351 94.046576 
L 494.207272 93.487246 
L 494.819935 93.487246 
L 494.909984 92.368587 
L 495.172907 92.368587 
L 495.327052 91.809257 
L 495.474965 91.809257 
L 496.00539 91.249927 
L 496.212982 91.809257 
L 496.336609 97.961884 
L 496.470686 98.521214 
L 496.561493 96.283895 
L 497.215579 96.283895 
L 497.484422 96.843225 
L 497.680303 95.724565 
L 498.647659 95.724565 
L 498.842635 96.283895 
L 498.995295 95.724565 
L 500.025607 95.724565 
L 500.15247 95.165235 
L 500.622197 96.283895 
L 501.004157 95.724565 
L 501.223037 95.724565 
L 501.307104 95.165235 
L 501.500344 96.283895 
L 501.688186 95.165235 
L 502.46758 95.165235 
L 502.588384 95.724565 
L 502.866012 95.724565 
L 502.909685 95.165235 
L 503.224038 94.605906 
L 503.236306 95.165235 
L 503.489579 94.605906 
L 503.827483 94.605906 
L 504.13176 94.046576 
L 505.710739 94.046576 
L 505.829134 93.487246 
L 506.142269 94.046576 
L 506.152724 93.487246 
L 506.602361 92.927916 
L 506.878635 92.927916 
L 507.196561 92.368587 
L 507.355303 91.809257 
L 507.476671 91.809257 
L 507.858585 92.927916 
L 507.93403 91.809257 
L 508.190844 92.368587 
L 508.407005 91.809257 
L 509.37172 91.809257 
L 509.479811 91.249927 
L 509.614526 91.809257 
L 510.081365 91.249927 
L 510.30686 91.809257 
L 510.535391 91.249927 
L 510.672697 91.809257 
L 510.992471 90.690597 
L 511.213411 91.249927 
L 511.969107 91.249927 
L 512.269752 90.690597 
L 512.708741 90.690597 
L 513.058009 91.809257 
L 513.1511 91.249927 
L 513.524287 91.249927 
L 513.618995 90.131267 
L 514.089666 91.249927 
L 514.254034 90.690597 
L 514.633265 91.249927 
L 514.910085 91.249927 
L 515.051903 90.690597 
L 515.390886 90.690597 
L 515.834816 90.131267 
L 515.892327 91.249927 
L 516.051715 90.131267 
L 516.197841 90.690597 
L 516.285547 90.131267 
L 516.633481 90.690597 
L 517.050951 90.131267 
L 517.261239 90.131267 
L 517.549902 90.690597 
L 517.960216 90.690597 
L 518.380912 89.571938 
L 518.601279 90.131267 
L 519.046887 90.131267 
L 519.255269 90.690597 
L 519.285946 91.249927 
L 519.545541 90.131267 
L 519.68321 90.690597 
L 519.845142 90.131267 
L 520.08576 90.690597 
L 520.358094 90.690597 
L 520.533046 91.249927 
L 520.864837 91.249927 
L 521.210273 90.131267 
L 521.444669 90.690597 
L 521.730115 89.571938 
L 521.87877 89.571938 
L 521.972078 90.131267 
L 522.262389 90.131267 
L 522.286756 89.571938 
L 523.249147 89.571938 
L 523.406811 89.012608 
L 523.541855 89.012608 
L 523.750032 88.453278 
L 523.929588 89.012608 
L 524.066527 88.453278 
L 524.270682 88.453278 
L 524.385608 87.893948 
L 524.533942 88.453278 
L 524.581733 87.893948 
L 524.745943 86.775289 
L 524.946564 87.334619 
L 525.009701 87.893948 
L 525.22128 87.334619 
L 525.394186 87.893948 
L 525.602591 87.334619 
L 525.944114 87.334619 
L 526.039209 86.775289 
L 526.275144 87.334619 
L 526.894771 85.656629 
L 527.061451 85.656629 
L 527.233858 86.775289 
L 527.315366 86.215959 
L 527.559119 86.215959 
L 527.67002 86.775289 
L 527.869334 86.775289 
L 528.050797 86.215959 
L 528.284083 86.215959 
L 528.675744 84.53797 
L 528.884118 85.097299 
L 531.62323 85.097299 
L 531.750695 84.53797 
L 531.912338 84.53797 
L 532.042328 85.097299 
L 532.188233 84.53797 
L 532.952907 84.53797 
L 533.061605 83.41931 
L 533.622259 84.53797 
L 534.230475 84.53797 
L 534.889124 83.41931 
L 536.053486 83.97864 
L 536.349183 83.41931 
L 536.674942 83.97864 
L 536.907598 82.85998 
L 537.00091 83.97864 
L 537.307603 82.85998 
L 537.641757 83.97864 
L 537.752372 82.85998 
L 537.96665 82.85998 
L 538.084442 83.41931 
L 538.297946 82.85998 
L 538.426077 82.85998 
L 538.545427 83.41931 
L 538.690439 81.741321 
L 539.070748 82.85998 
L 539.426454 82.85998 
L 539.643802 82.300651 
L 540.053988 82.300651 
L 540.38757 82.85998 
L 540.582584 82.85998 
L 540.730009 81.741321 
L 540.913904 82.85998 
L 541.016573 82.300651 
L 541.264475 81.741321 
L 541.416478 81.741321 
L 541.682232 82.85998 
L 541.936355 81.181991 
L 542.255761 81.181991 
L 542.280005 80.063331 
L 542.302311 80.622661 
L 542.469359 81.181991 
L 542.64496 80.063331 
L 542.718204 81.181991 
L 542.98291 81.181991 
L 543.018978 80.622661 
L 543.317211 80.063331 
L 543.4957 80.063331 
L 543.579361 81.181991 
L 543.979591 80.063331 
L 544.044406 81.181991 
L 544.2624 80.063331 
L 544.430093 81.741321 
L 544.939863 80.622661 
L 545.323888 82.300651 
L 545.353583 81.741321 
L 545.59683 82.300651 
L 545.750611 82.300651 
L 545.910259 81.181991 
L 546.100912 82.300651 
L 546.467456 81.181991 
L 546.606521 82.300651 
L 546.757093 81.741321 
L 547.06393 81.741321 
L 547.266562 82.300651 
L 547.654453 82.300651 
L 547.666292 81.741321 
L 548.276787 82.85998 
L 548.600562 81.181991 
L 548.772401 81.181991 
L 548.972678 81.741321 
L 549.029289 80.622661 
L 549.313602 81.741321 
L 549.488669 80.622661 
L 549.665155 81.741321 
L 549.738091 81.181991 
L 550.100045 81.181991 
L 550.316956 80.622661 
L 550.416165 79.504002 
L 550.618132 80.622661 
L 550.950414 80.063331 
L 551.097402 79.504002 
L 551.279019 80.063331 
L 551.434084 77.826012 
L 551.677482 77.826012 
L 551.999363 77.266683 
L 552.038195 78.385342 
L 552.354991 77.266683 
L 552.805935 78.385342 
L 552.927782 76.707353 
L 553.293429 76.148023 
L 553.691679 77.266683 
L 553.94409 77.826012 
L 554.645727 77.266683 
L 554.729767 76.707353 
L 555.715888 76.707353 
L 556.014616 76.148023 
L 556.316785 74.470034 
L 557.092579 75.029363 
L 557.689007 75.029363 
L 558.018412 74.470034 
L 558.103322 75.029363 
L 558.353591 73.910704 
L 558.409347 75.029363 
L 558.683259 74.470034 
L 559.180138 74.470034 
L 559.435119 73.351374 
L 559.669155 74.470034 
L 559.988802 73.351374 
L 560.113418 73.910704 
L 560.284135 73.351374 
L 560.729847 73.910704 
L 560.987458 73.351374 
L 561.740953 73.351374 
L 561.920804 73.910704 
L 562.357213 72.792044 
L 562.5346 73.910704 
L 562.687604 73.910704 
L 562.747099 73.351374 
L 562.96401 73.351374 
L 563.197954 72.792044 
L 563.358034 73.910704 
L 563.606582 72.792044 
L 563.715735 73.910704 
L 563.715735 73.910704 
" clip-path="url(#p82fb5906d8)" style="fill: none; stroke-dasharray: 6,1.5; stroke-dashoffset: 0; stroke: #008000; stroke-width: 1.5"/>
   </g>
   <g id="line2d_20">
    <path d="M 38.539265 361.96554 
L 39.905018 363.0842 
L 41.266363 363.0842 
L 42.583165 362.52487 
L 44.490162 362.52487 
L 48.472947 361.96554 
L 48.585399 362.52487 
L 52.034326 362.52487 
L 52.359366 363.643529 
L 53.078491 363.643529 
L 53.377502 360.287551 
L 53.775995 363.643529 
L 55.716538 363.643529 
L 56.072383 360.287551 
L 58.74869 360.287551 
L 60.159443 360.846881 
L 60.351561 361.40621 
L 61.423965 361.40621 
L 61.724966 359.728221 
L 65.015058 359.728221 
L 65.405296 360.287551 
L 75.436235 360.287551 
L 75.752188 359.728221 
L 81.796007 359.728221 
L 82.097098 361.96554 
L 132.213987 361.96554 
L 132.551918 363.0842 
L 132.960511 366.440178 
L 133.252383 366.440178 
L 133.582292 366.999508 
L 135.563561 366.999508 
L 138.295802 368.677497 
L 138.574784 368.677497 
L 139.042562 369.236827 
L 152.853194 369.236827 
L 153.595318 370.355487 
L 184.929147 370.355487 
L 185.281609 370.914817 
L 185.647526 370.355487 
L 187.777946 370.355487 
L 188.091143 370.914817 
L 193.789981 370.914817 
L 195.041144 372.033476 
L 195.249808 370.914817 
L 195.651465 370.914817 
L 195.982537 372.033476 
L 203.695461 372.033476 
L 204.054774 371.474146 
L 204.26396 372.033476 
L 222.414239 372.033476 
L 222.731244 373.152136 
L 263.154898 373.152136 
L 263.538687 373.711465 
L 356.240875 373.711465 
L 356.611599 373.152136 
L 367.63723 373.152136 
L 368.069321 373.711465 
L 368.184804 374.830125 
L 397.230867 374.830125 
L 397.433502 374.270795 
L 400.280182 374.270795 
L 400.439191 374.830125 
L 515.249806 374.830125 
L 515.276172 374.270795 
L 524.066527 374.270795 
L 524.385608 374.830125 
L 557.34248 374.830125 
L 557.689007 374.270795 
L 563.715735 374.270795 
L 563.715735 374.270795 
" clip-path="url(#p82fb5906d8)" style="fill: none; stroke-dasharray: 9,3; stroke-dashoffset: 0; stroke: #ffa500; stroke-width: 1.5"/>
   </g>
   <g id="line2d_21">
    <path d="M 38.539265 323.371785 
L 48.472947 323.371785 
L 48.585399 323.931115 
L 52.034326 323.931115 
L 52.359366 324.490445 
L 53.078491 324.490445 
L 53.377502 325.609104 
L 53.775995 324.490445 
L 55.716538 324.490445 
L 56.312939 326.168434 
L 57.716488 326.168434 
L 58.0327 326.727764 
L 58.223903 326.168434 
L 58.38384 326.727764 
L 73.104521 326.727764 
L 73.417884 327.846424 
L 73.541197 326.727764 
L 74.090615 327.846424 
L 91.676617 327.846424 
L 92.421865 328.405753 
L 92.590688 327.846424 
L 93.786087 327.846424 
L 94.110702 328.405753 
L 94.468848 327.846424 
L 95.320968 327.846424 
L 95.791639 328.405753 
L 96.14105 327.846424 
L 123.231359 327.846424 
L 123.523483 328.405753 
L 123.896762 328.405753 
L 124.227769 327.846424 
L 124.568321 327.846424 
L 124.80298 328.405753 
L 125.057304 327.846424 
L 125.479952 328.405753 
L 132.551918 328.405753 
L 132.960511 327.846424 
L 133.252383 327.846424 
L 133.582292 328.965083 
L 135.190398 328.965083 
L 135.563561 331.761732 
L 138.295802 329.524413 
L 138.574784 330.083743 
L 140.528276 330.083743 
L 140.909389 332.880392 
L 141.245465 333.439721 
L 156.385043 333.439721 
L 156.914305 332.880392 
L 157.333129 333.439721 
L 158.26729 332.880392 
L 160.542474 332.880392 
L 161.888473 333.439721 
L 167.508043 333.439721 
L 167.932953 333.999051 
L 203.422264 333.999051 
L 203.695461 334.558381 
L 204.054774 333.999051 
L 210.376797 333.999051 
L 210.77797 341.270338 
L 211.711753 341.270338 
L 212.092758 345.744976 
L 212.428667 347.422966 
L 232.772197 347.422966 
L 235.633485 347.982296 
L 265.82561 347.982296 
L 266.161264 350.219615 
L 273.158368 350.219615 
L 273.475277 346.863636 
L 289.650299 346.863636 
L 289.835446 347.422966 
L 319.955339 347.422966 
L 320.178081 347.982296 
L 320.531223 347.422966 
L 328.668273 347.422966 
L 328.819154 347.982296 
L 329.127008 347.422966 
L 331.190295 347.422966 
L 331.47653 347.982296 
L 331.584706 347.422966 
L 334.645934 347.422966 
L 334.859702 347.982296 
L 344.442404 347.982296 
L 344.629793 347.422966 
L 356.611599 347.422966 
L 356.887077 346.863636 
L 357.025176 347.422966 
L 357.19507 346.863636 
L 357.302808 347.422966 
L 357.518961 347.422966 
L 357.609551 346.863636 
L 357.851951 347.422966 
L 359.29543 347.422966 
L 359.567409 346.863636 
L 359.689249 347.422966 
L 368.069321 347.422966 
L 368.184804 346.863636 
L 397.230867 346.863636 
L 397.433502 347.422966 
L 401.98474 347.422966 
L 402.083818 350.219615 
L 402.374248 347.422966 
L 405.006611 347.422966 
L 405.021022 350.219615 
L 405.34989 347.422966 
L 405.377173 350.219615 
L 431.711232 350.219615 
L 432.041562 349.660285 
L 432.325338 350.219615 
L 464.387951 350.219615 
L 464.60272 350.778944 
L 464.741712 350.219615 
L 465.068697 350.219615 
L 465.536866 350.778944 
L 486.655862 350.778944 
L 486.899669 351.338274 
L 489.903568 351.338274 
L 490.206658 351.897604 
L 496.212982 351.897604 
L 496.336609 351.338274 
L 503.236306 351.338274 
L 503.489579 351.897604 
L 515.249806 351.897604 
L 515.276172 355.812913 
L 524.066527 355.812913 
L 524.385608 355.253583 
L 532.303137 355.253583 
L 533.061605 357.490902 
L 540.730009 357.490902 
L 541.016573 356.931572 
L 554.992261 356.931572 
L 555.476152 356.372242 
L 557.34248 356.372242 
L 557.689007 358.609561 
L 558.103322 359.168891 
L 560.284135 359.168891 
L 560.729847 359.728221 
L 563.715735 359.728221 
L 563.715735 359.728221 
" clip-path="url(#p82fb5906d8)" style="fill: none; stroke-dasharray: 12,4.5; stroke-dashoffset: 0; stroke: #ee82ee; stroke-width: 1.5"/>
   </g>
   <g id="patch_3">
    <path d="M 33.2875 374.830125 
L 33.2875 22.318125 
" style="fill: none; stroke: #000000; stroke-width: 0.8; stroke-linejoin: miter; stroke-linecap: square"/>
   </g>
   <g id="patch_4">
    <path d="M 568.9675 374.830125 
L 568.9675 22.318125 
" style="fill: none; stroke: #000000; stroke-width: 0.8; stroke-linejoin: miter; stroke-linecap: square"/>
   </g>
   <g id="patch_5">
    <path d="M 33.2875 374.830125 
L 568.9675 374.830125 
" style="fill: none; stroke: #000000; stroke-width: 0.8; stroke-linejoin: miter; stroke-linecap: square"/>
   </g>
   <g id="patch_6">
    <path d="M 33.2875 22.318125 
L 568.9675 22.318125 
" style="fill: none; stroke: #000000; stroke-width: 0.8; stroke-linejoin: miter; stroke-linecap: square"/>
   </g>
   <g id="text_17">
    <!-- Rust/Coreutils running GNU's testsuite -->
    <g transform="translate(186.090625 16.318125) scale(0.12 -0.12)">
     <defs>
      <path id="DejaVuSans-52" d="M 2841 2188 
Q 3044 2119 3236 1894 
Q 3428 1669 3622 1275 
L 4263 0 
L 3584 0 
L 2988 1197 
Q 2756 1666 2539 1819 
Q 2322 1972 1947 1972 
L 1259 1972 
L 1259 0 
L 628 0 
L 628 4666 
L 2053 4666 
Q 2853 4666 3247 4331 
Q 3641 3997 3641 3322 
Q 3641 2881 3436 2590 
Q 3231 2300 2841 2188 
z
M 1259 4147 
L 1259 2491 
L 2053 2491 
Q 2509 2491 2742 2702 
Q 2975 2913 2975 3322 
Q 2975 3731 2742 3939 
Q 2509 4147 2053 4147 
L 1259 4147 
z
" transform="scale(0.015625)"/>
      <path id="DejaVuSans-75" d="M 544 1381 
L 544 3500 
L 1119 3500 
L 1119 1403 
Q 1119 906 1312 657 
Q 1506 409 1894 409 
Q 2359 409 2629 706 
Q 2900 1003 2900 1516 
L 2900 3500 
L 3475 3500 
L 3475 0 
L 2900 0 
L 2900 538 
Q 2691 219 2414 64 
Q 2138 -91 1772 -91 
Q 1169 -91 856 284 
Q 544 659 544 1381 
z
M 1991 3584 
L 1991 3584 
z
" transform="scale(0.015625)"/>
      <path id="DejaVuSans-73" d="M 2834 3397 
L 2834 2853 
Q 2591 2978 2328 3040 
Q 2066 3103 1784 3103 
Q 1356 3103 1142 2972 
Q 928 2841 928 2578 
Q 928 2378 1081 2264 
Q 1234 2150 1697 2047 
L 1894 2003 
Q 2506 1872 2764 1633 
Q 3022 1394 3022 966 
Q 3022 478 2636 193 
Q 2250 -91 1575 -91 
Q 1294 -91 989 -36 
Q 684 19 347 128 
L 347 722 
Q 666 556 975 473 
Q 1284 391 1588 391 
Q 1994 391 2212 530 
Q 2431 669 2431 922 
Q 2431 1156 2273 1281 
Q 2116 1406 1581 1522 
L 1381 1569 
Q 847 1681 609 1914 
Q 372 2147 372 2553 
Q 372 3047 722 3315 
Q 1072 3584 1716 3584 
Q 2034 3584 2315 3537 
Q 2597 3491 2834 3397 
z
" transform="scale(0.015625)"/>
      <path id="DejaVuSans-74" d="M 1172 4494 
L 1172 3500 
L 2356 3500 
L 2356 3053 
L 1172 3053 
L 1172 1153 
Q 1172 725 1289 603 
Q 1406 481 1766 481 
L 2356 481 
L 2356 0 
L 1766 0 
Q 1100 0 847 248 
Q 594 497 594 1153 
L 594 3053 
L 172 3053 
L 172 3500 
L 594 3500 
L 594 4494 
L 1172 4494 
z
" transform="scale(0.015625)"/>
      <path id="DejaVuSans-2f" d="M 1625 4666 
L 2156 4666 
L 531 -594 
L 0 -594 
L 1625 4666 
z
" transform="scale(0.015625)"/>
      <path id="DejaVuSans-43" d="M 4122 4306 
L 4122 3641 
Q 3803 3938 3442 4084 
Q 3081 4231 2675 4231 
Q 1875 4231 1450 3742 
Q 1025 3253 1025 2328 
Q 1025 1406 1450 917 
Q 1875 428 2675 428 
Q 3081 428 3442 575 
Q 3803 722 4122 1019 
L 4122 359 
Q 3791 134 3420 21 
Q 3050 -91 2638 -91 
Q 1578 -91 968 557 
Q 359 1206 359 2328 
Q 359 3453 968 4101 
Q 1578 4750 2638 4750 
Q 3056 4750 3426 4639 
Q 3797 4528 4122 4306 
z
" transform="scale(0.015625)"/>
      <path id="DejaVuSans-6f" d="M 1959 3097 
Q 1497 3097 1228 2736 
Q 959 2375 959 1747 
Q 959 1119 1226 758 
Q 1494 397 1959 397 
Q 2419 397 2687 759 
Q 2956 1122 2956 1747 
Q 2956 2369 2687 2733 
Q 2419 3097 1959 3097 
z
M 1959 3584 
Q 2709 3584 3137 3096 
Q 3566 2609 3566 1747 
Q 3566 888 3137 398 
Q 2709 -91 1959 -91 
Q 1206 -91 779 398 
Q 353 888 353 1747 
Q 353 2609 779 3096 
Q 1206 3584 1959 3584 
z
" transform="scale(0.015625)"/>
      <path id="DejaVuSans-72" d="M 2631 2963 
Q 2534 3019 2420 3045 
Q 2306 3072 2169 3072 
Q 1681 3072 1420 2755 
Q 1159 2438 1159 1844 
L 1159 0 
L 581 0 
L 581 3500 
L 1159 3500 
L 1159 2956 
Q 1341 3275 1631 3429 
Q 1922 3584 2338 3584 
Q 2397 3584 2469 3576 
Q 2541 3569 2628 3553 
L 2631 2963 
z
" transform="scale(0.015625)"/>
      <path id="DejaVuSans-65" d="M 3597 1894 
L 3597 1613 
L 953 1613 
Q 991 1019 1311 708 
Q 1631 397 2203 397 
Q 2534 397 2845 478 
Q 3156 559 3463 722 
L 3463 178 
Q 3153 47 2828 -22 
Q 2503 -91 2169 -91 
Q 1331 -91 842 396 
Q 353 884 353 1716 
Q 353 2575 817 3079 
Q 1281 3584 2069 3584 
Q 2775 3584 3186 3129 
Q 3597 2675 3597 1894 
z
M 3022 2063 
Q 3016 2534 2758 2815 
Q 2500 3097 2075 3097 
Q 1594 3097 1305 2825 
Q 1016 2553 972 2059 
L 3022 2063 
z
" transform="scale(0.015625)"/>
      <path id="DejaVuSans-69" d="M 603 3500 
L 1178 3500 
L 1178 0 
L 603 0 
L 603 3500 
z
M 603 4863 
L 1178 4863 
L 1178 4134 
L 603 4134 
L 603 4863 
z
" transform="scale(0.015625)"/>
      <path id="DejaVuSans-6c" d="M 603 4863 
L 1178 4863 
L 1178 0 
L 603 0 
L 603 4863 
z
" transform="scale(0.015625)"/>
      <path id="DejaVuSans-20" transform="scale(0.015625)"/>
      <path id="DejaVuSans-6e" d="M 3513 2113 
L 3513 0 
L 2938 0 
L 2938 2094 
Q 2938 2591 2744 2837 
Q 2550 3084 2163 3084 
Q 1697 3084 1428 2787 
Q 1159 2491 1159 1978 
L 1159 0 
L 581 0 
L 581 3500 
L 1159 3500 
L 1159 2956 
Q 1366 3272 1645 3428 
Q 1925 3584 2291 3584 
Q 2894 3584 3203 3211 
Q 3513 2838 3513 2113 
z
" transform="scale(0.015625)"/>
      <path id="DejaVuSans-67" d="M 2906 1791 
Q 2906 2416 2648 2759 
Q 2391 3103 1925 3103 
Q 1463 3103 1205 2759 
Q 947 2416 947 1791 
Q 947 1169 1205 825 
Q 1463 481 1925 481 
Q 2391 481 2648 825 
Q 2906 1169 2906 1791 
z
M 3481 434 
Q 3481 -459 3084 -895 
Q 2688 -1331 1869 -1331 
Q 1566 -1331 1297 -1286 
Q 1028 -1241 775 -1147 
L 775 -588 
Q 1028 -725 1275 -790 
Q 1522 -856 1778 -856 
Q 2344 -856 2625 -561 
Q 2906 -266 2906 331 
L 2906 616 
Q 2728 306 2450 153 
Q 2172 0 1784 0 
Q 1141 0 747 490 
Q 353 981 353 1791 
Q 353 2603 747 3093 
Q 1141 3584 1784 3584 
Q 2172 3584 2450 3431 
Q 2728 3278 2906 2969 
L 2906 3500 
L 3481 3500 
L 3481 434 
z
" transform="scale(0.015625)"/>
      <path id="DejaVuSans-47" d="M 3809 666 
L 3809 1919 
L 2778 1919 
L 2778 2438 
L 4434 2438 
L 4434 434 
Q 4069 175 3628 42 
Q 3188 -91 2688 -91 
Q 1594 -91 976 548 
Q 359 1188 359 2328 
Q 359 3472 976 4111 
Q 1594 4750 2688 4750 
Q 3144 4750 3555 4637 
Q 3966 4525 4313 4306 
L 4313 3634 
Q 3963 3931 3569 4081 
Q 3175 4231 2741 4231 
Q 1884 4231 1454 3753 
Q 1025 3275 1025 2328 
Q 1025 1384 1454 906 
Q 1884 428 2741 428 
Q 3075 428 3337 486 
Q 3600 544 3809 666 
z
" transform="scale(0.015625)"/>
      <path id="DejaVuSans-4e" d="M 628 4666 
L 1478 4666 
L 3547 763 
L 3547 4666 
L 4159 4666 
L 4159 0 
L 3309 0 
L 1241 3903 
L 1241 0 
L 628 0 
L 628 4666 
z
" transform="scale(0.015625)"/>
      <path id="DejaVuSans-55" d="M 556 4666 
L 1191 4666 
L 1191 1831 
Q 1191 1081 1462 751 
Q 1734 422 2344 422 
Q 2950 422 3222 751 
Q 3494 1081 3494 1831 
L 3494 4666 
L 4128 4666 
L 4128 1753 
Q 4128 841 3676 375 
Q 3225 -91 2344 -91 
Q 1459 -91 1007 375 
Q 556 841 556 1753 
L 556 4666 
z
" transform="scale(0.015625)"/>
      <path id="DejaVuSans-27" d="M 1147 4666 
L 1147 2931 
L 616 2931 
L 616 4666 
L 1147 4666 
z
" transform="scale(0.015625)"/>
     </defs>
     <use xlink:href="#DejaVuSans-52"/>
     <use xlink:href="#DejaVuSans-75" x="64.982422"/>
     <use xlink:href="#DejaVuSans-73" x="128.361328"/>
     <use xlink:href="#DejaVuSans-74" x="180.460938"/>
     <use xlink:href="#DejaVuSans-2f" x="219.669922"/>
     <use xlink:href="#DejaVuSans-43" x="253.361328"/>
     <use xlink:href="#DejaVuSans-6f" x="323.185547"/>
     <use xlink:href="#DejaVuSans-72" x="384.367188"/>
     <use xlink:href="#DejaVuSans-65" x="423.230469"/>
     <use xlink:href="#DejaVuSans-75" x="484.753906"/>
     <use xlink:href="#DejaVuSans-74" x="548.132812"/>
     <use xlink:href="#DejaVuSans-69" x="587.341797"/>
     <use xlink:href="#DejaVuSans-6c" x="615.125"/>
     <use xlink:href="#DejaVuSans-73" x="642.908203"/>
     <use xlink:href="#DejaVuSans-20" x="695.007812"/>
     <use xlink:href="#DejaVuSans-72" x="726.794922"/>
     <use xlink:href="#DejaVuSans-75" x="767.908203"/>
     <use xlink:href="#DejaVuSans-6e" x="831.287109"/>
     <use xlink:href="#DejaVuSans-6e" x="894.666016"/>
     <use xlink:href="#DejaVuSans-69" x="958.044922"/>
     <use xlink:href="#DejaVuSans-6e" x="985.828125"/>
     <use xlink:href="#DejaVuSans-67" x="1049.207031"/>
     <use xlink:href="#DejaVuSans-20" x="1112.683594"/>
     <use xlink:href="#DejaVuSans-47" x="1144.470703"/>
     <use xlink:href="#DejaVuSans-4e" x="1221.960938"/>
     <use xlink:href="#DejaVuSans-55" x="1296.765625"/>
     <use xlink:href="#DejaVuSans-27" x="1369.958984"/>
     <use xlink:href="#DejaVuSans-73" x="1397.449219"/>
     <use xlink:href="#DejaVuSans-20" x="1449.548828"/>
     <use xlink:href="#DejaVuSans-74" x="1481.335938"/>
     <use xlink:href="#DejaVuSans-65" x="1520.544922"/>
     <use xlink:href="#DejaVuSans-73" x="1582.068359"/>
     <use xlink:href="#DejaVuSans-74" x="1634.167969"/>
     <use xlink:href="#DejaVuSans-73" x="1673.376953"/>
     <use xlink:href="#DejaVuSans-75" x="1725.476562"/>
     <use xlink:href="#DejaVuSans-69" x="1788.855469"/>
     <use xlink:href="#DejaVuSans-74" x="1816.638672"/>
     <use xlink:href="#DejaVuSans-65" x="1855.847656"/>
    </g>
   </g>
   <g id="legend_1">
    <g id="patch_7">
     <path d="M 505.762812 236.769437 
L 561.9675 236.769437 
Q 563.9675 236.769437 563.9675 234.769437 
L 563.9675 162.378812 
Q 563.9675 160.378812 561.9675 160.378812 
L 505.762812 160.378812 
Q 503.762812 160.378812 503.762812 162.378812 
L 503.762812 234.769437 
Q 503.762812 236.769437 505.762812 236.769437 
z
" style="fill: #ffffff; opacity: 0.8; stroke: #cccccc; stroke-linejoin: miter"/>
    </g>
    <g id="line2d_22">
     <path d="M 507.762812 168.47725 
L 517.762812 168.47725 
L 527.762812 168.47725 
" style="fill: none; stroke: #0000ff; stroke-width: 1.5; stroke-linecap: square"/>
    </g>
    <g id="text_18">
     <!-- total -->
     <g transform="translate(535.762812 171.97725) scale(0.1 -0.1)">
      <defs>
       <path id="DejaVuSans-61" d="M 2194 1759 
Q 1497 1759 1228 1600 
Q 959 1441 959 1056 
Q 959 750 1161 570 
Q 1363 391 1709 391 
Q 2188 391 2477 730 
Q 2766 1069 2766 1631 
L 2766 1759 
L 2194 1759 
z
M 3341 1997 
L 3341 0 
L 2766 0 
L 2766 531 
Q 2569 213 2275 61 
Q 1981 -91 1556 -91 
Q 1019 -91 701 211 
Q 384 513 384 1019 
Q 384 1609 779 1909 
Q 1175 2209 1959 2209 
L 2766 2209 
L 2766 2266 
Q 2766 2663 2505 2880 
Q 2244 3097 1772 3097 
Q 1472 3097 1187 3025 
Q 903 2953 641 2809 
L 641 3341 
Q 956 3463 1253 3523 
Q 1550 3584 1831 3584 
Q 2591 3584 2966 3190 
Q 3341 2797 3341 1997 
z
" transform="scale(0.015625)"/>
      </defs>
      <use xlink:href="#DejaVuSans-74"/>
      <use xlink:href="#DejaVuSans-6f" x="39.208984"/>
      <use xlink:href="#DejaVuSans-74" x="100.390625"/>
      <use xlink:href="#DejaVuSans-61" x="139.599609"/>
      <use xlink:href="#DejaVuSans-6c" x="200.878906"/>
     </g>
    </g>
    <g id="line2d_23">
     <path d="M 507.762812 183.155375 
L 517.762812 183.155375 
L 527.762812 183.155375 
" style="fill: none; stroke-dasharray: 3,1.5; stroke-dashoffset: 0; stroke: #808080; stroke-width: 1.5"/>
    </g>
    <g id="text_19">
     <!-- fail -->
     <g transform="translate(535.762812 186.655375) scale(0.1 -0.1)">
      <defs>
       <path id="DejaVuSans-66" d="M 2375 4863 
L 2375 4384 
L 1825 4384 
Q 1516 4384 1395 4259 
Q 1275 4134 1275 3809 
L 1275 3500 
L 2222 3500 
L 2222 3053 
L 1275 3053 
L 1275 0 
L 697 0 
L 697 3053 
L 147 3053 
L 147 3500 
L 697 3500 
L 697 3744 
Q 697 4328 969 4595 
Q 1241 4863 1831 4863 
L 2375 4863 
z
" transform="scale(0.015625)"/>
      </defs>
      <use xlink:href="#DejaVuSans-66"/>
      <use xlink:href="#DejaVuSans-61" x="35.205078"/>
      <use xlink:href="#DejaVuSans-69" x="96.484375"/>
      <use xlink:href="#DejaVuSans-6c" x="124.267578"/>
     </g>
    </g>
    <g id="line2d_24">
     <path d="M 507.762812 197.8335 
L 517.762812 197.8335 
L 527.762812 197.8335 
" style="fill: none; stroke-dasharray: 6,1.5; stroke-dashoffset: 0; stroke: #008000; stroke-width: 1.5"/>
    </g>
    <g id="text_20">
     <!-- pass -->
     <g transform="translate(535.762812 201.3335) scale(0.1 -0.1)">
      <defs>
       <path id="DejaVuSans-70" d="M 1159 525 
L 1159 -1331 
L 581 -1331 
L 581 3500 
L 1159 3500 
L 1159 2969 
Q 1341 3281 1617 3432 
Q 1894 3584 2278 3584 
Q 2916 3584 3314 3078 
Q 3713 2572 3713 1747 
Q 3713 922 3314 415 
Q 2916 -91 2278 -91 
Q 1894 -91 1617 61 
Q 1341 213 1159 525 
z
M 3116 1747 
Q 3116 2381 2855 2742 
Q 2594 3103 2138 3103 
Q 1681 3103 1420 2742 
Q 1159 2381 1159 1747 
Q 1159 1113 1420 752 
Q 1681 391 2138 391 
Q 2594 391 2855 752 
Q 3116 1113 3116 1747 
z
" transform="scale(0.015625)"/>
      </defs>
      <use xlink:href="#DejaVuSans-70"/>
      <use xlink:href="#DejaVuSans-61" x="63.476562"/>
      <use xlink:href="#DejaVuSans-73" x="124.755859"/>
      <use xlink:href="#DejaVuSans-73" x="176.855469"/>
     </g>
    </g>
    <g id="line2d_25">
     <path d="M 507.762812 212.511625 
L 517.762812 212.511625 
L 527.762812 212.511625 
" style="fill: none; stroke-dasharray: 9,3; stroke-dashoffset: 0; stroke: #ffa500; stroke-width: 1.5"/>
    </g>
    <g id="text_21">
     <!-- error -->
     <g transform="translate(535.762812 216.011625) scale(0.1 -0.1)">
      <use xlink:href="#DejaVuSans-65"/>
      <use xlink:href="#DejaVuSans-72" x="61.523438"/>
      <use xlink:href="#DejaVuSans-72" x="100.886719"/>
      <use xlink:href="#DejaVuSans-6f" x="139.75"/>
      <use xlink:href="#DejaVuSans-72" x="200.931641"/>
     </g>
    </g>
    <g id="line2d_26">
     <path d="M 507.762812 227.18975 
L 517.762812 227.18975 
L 527.762812 227.18975 
" style="fill: none; stroke-dasharray: 12,4.5; stroke-dashoffset: 0; stroke: #ee82ee; stroke-width: 1.5"/>
    </g>
    <g id="text_22">
     <!-- skip -->
     <g transform="translate(535.762812 230.68975) scale(0.1 -0.1)">
      <defs>
       <path id="DejaVuSans-6b" d="M 581 4863 
L 1159 4863 
L 1159 1991 
L 2875 3500 
L 3609 3500 
L 1753 1863 
L 3688 0 
L 2938 0 
L 1159 1709 
L 1159 0 
L 581 0 
L 581 4863 
z
" transform="scale(0.015625)"/>
      </defs>
      <use xlink:href="#DejaVuSans-73"/>
      <use xlink:href="#DejaVuSans-6b" x="52.099609"/>
      <use xlink:href="#DejaVuSans-69" x="110.009766"/>
      <use xlink:href="#DejaVuSans-70" x="137.792969"/>
     </g>
    </g>
   </g>
  </g>
 </g>
 <defs>
  <clipPath id="p82fb5906d8">
   <rect x="33.2875" y="22.318125" width="535.68" height="352.512"/>
  </clipPath>
 </defs>
</svg>
