<?xml version="1.0" encoding="utf-8" standalone="no"?>
<!DOCTYPE svg PUBLIC "-//W3C//DTD SVG 1.1//EN"
  "http://www.w3.org/Graphics/SVG/1.1/DTD/svg11.dtd">
<svg xmlns:xlink="http://www.w3.org/1999/xlink" width="576.1675pt" height="418.303033pt" viewBox="0 0 576.1675 418.303033" xmlns="http://www.w3.org/2000/svg" version="1.1">
 <metadata>
  <rdf:RDF xmlns:dc="http://purl.org/dc/elements/1.1/" xmlns:cc="http://creativecommons.org/ns#" xmlns:rdf="http://www.w3.org/1999/02/22-rdf-syntax-ns#">
   <cc:Work>
    <dc:type rdf:resource="http://purl.org/dc/dcmitype/StillImage"/>
    <dc:date>2025-08-21T14:03:59.817446</dc:date>
    <dc:format>image/svg+xml</dc:format>
    <dc:creator>
     <cc:Agent>
      <dc:title>Matplotlib v3.6.3, https://matplotlib.org/</dc:title>
     </cc:Agent>
    </dc:creator>
   </cc:Work>
  </rdf:RDF>
 </metadata>
 <defs>
  <style type="text/css">*{stroke-linejoin: round; stroke-linecap: butt}</style>
 </defs>
 <g id="figure_1">
  <g id="patch_1">
   <path d="M -0 418.303033 
L 576.1675 418.303033 
L 576.1675 0 
L -0 0 
z
" style="fill: #ffffff"/>
  </g>
  <g id="axes_1">
   <g id="patch_2">
    <path d="M 33.2875 374.830125 
L 568.9675 374.830125 
L 568.9675 22.318125 
L 33.2875 22.318125 
z
" style="fill: #ffffff"/>
   </g>
   <g id="matplotlib.axis_1">
    <g id="xtick_1">
     <g id="line2d_1">
      <defs>
       <path id="m3714c33cdd" d="M 0 0 
L 0 3.5 
" style="stroke: #000000; stroke-width: 0.8"/>
      </defs>
      <g>
       <use xlink:href="#m3714c33cdd" x="62.216629" y="374.830125" style="stroke: #000000; stroke-width: 0.8"/>
      </g>
     </g>
     <g id="text_1">
      <!-- 2021-07 -->
      <g transform="translate(24.991808 409.301971) rotate(-30) scale(0.1 -0.1)">
       <defs>
        <path id="DejaVuSans-32" d="M 1228 531 
L 3431 531 
L 3431 0 
L 469 0 
L 469 531 
Q 828 903 1448 1529 
Q 2069 2156 2228 2338 
Q 2531 2678 2651 2914 
Q 2772 3150 2772 3378 
Q 2772 3750 2511 3984 
Q 2250 4219 1831 4219 
Q 1534 4219 1204 4116 
Q 875 4013 500 3803 
L 500 4441 
Q 881 4594 1212 4672 
Q 1544 4750 1819 4750 
Q 2544 4750 2975 4387 
Q 3406 4025 3406 3419 
Q 3406 3131 3298 2873 
Q 3191 2616 2906 2266 
Q 2828 2175 2409 1742 
Q 1991 1309 1228 531 
z
" transform="scale(0.015625)"/>
        <path id="DejaVuSans-30" d="M 2034 4250 
Q 1547 4250 1301 3770 
Q 1056 3291 1056 2328 
Q 1056 1369 1301 889 
Q 1547 409 2034 409 
Q 2525 409 2770 889 
Q 3016 1369 3016 2328 
Q 3016 3291 2770 3770 
Q 2525 4250 2034 4250 
z
M 2034 4750 
Q 2819 4750 3233 4129 
Q 3647 3509 3647 2328 
Q 3647 1150 3233 529 
Q 2819 -91 2034 -91 
Q 1250 -91 836 529 
Q 422 1150 422 2328 
Q 422 3509 836 4129 
Q 1250 4750 2034 4750 
z
" transform="scale(0.015625)"/>
        <path id="DejaVuSans-31" d="M 794 531 
L 1825 531 
L 1825 4091 
L 703 3866 
L 703 4441 
L 1819 4666 
L 2450 4666 
L 2450 531 
L 3481 531 
L 3481 0 
L 794 0 
L 794 531 
z
" transform="scale(0.015625)"/>
        <path id="DejaVuSans-2d" d="M 313 2009 
L 1997 2009 
L 1997 1497 
L 313 1497 
L 313 2009 
z
" transform="scale(0.015625)"/>
        <path id="DejaVuSans-37" d="M 525 4666 
L 3525 4666 
L 3525 4397 
L 1831 0 
L 1172 0 
L 2766 4134 
L 525 4134 
L 525 4666 
z
" transform="scale(0.015625)"/>
       </defs>
       <use xlink:href="#DejaVuSans-32"/>
       <use xlink:href="#DejaVuSans-30" x="63.623047"/>
       <use xlink:href="#DejaVuSans-32" x="127.246094"/>
       <use xlink:href="#DejaVuSans-31" x="190.869141"/>
       <use xlink:href="#DejaVuSans-2d" x="254.492188"/>
       <use xlink:href="#DejaVuSans-30" x="290.576172"/>
       <use xlink:href="#DejaVuSans-37" x="354.199219"/>
      </g>
     </g>
    </g>
    <g id="xtick_2">
     <g id="line2d_2">
      <g>
       <use xlink:href="#m3714c33cdd" x="123.223375" y="374.830125" style="stroke: #000000; stroke-width: 0.8"/>
      </g>
     </g>
     <g id="text_2">
      <!-- 2022-01 -->
      <g transform="translate(85.998554 409.301971) rotate(-30) scale(0.1 -0.1)">
       <use xlink:href="#DejaVuSans-32"/>
       <use xlink:href="#DejaVuSans-30" x="63.623047"/>
       <use xlink:href="#DejaVuSans-32" x="127.246094"/>
       <use xlink:href="#DejaVuSans-32" x="190.869141"/>
       <use xlink:href="#DejaVuSans-2d" x="254.492188"/>
       <use xlink:href="#DejaVuSans-30" x="290.576172"/>
       <use xlink:href="#DejaVuSans-31" x="354.199219"/>
      </g>
     </g>
    </g>
    <g id="xtick_3">
     <g id="line2d_3">
      <g>
       <use xlink:href="#m3714c33cdd" x="183.235445" y="374.830125" style="stroke: #000000; stroke-width: 0.8"/>
      </g>
     </g>
     <g id="text_3">
      <!-- 2022-07 -->
      <g transform="translate(146.010624 409.301971) rotate(-30) scale(0.1 -0.1)">
       <use xlink:href="#DejaVuSans-32"/>
       <use xlink:href="#DejaVuSans-30" x="63.623047"/>
       <use xlink:href="#DejaVuSans-32" x="127.246094"/>
       <use xlink:href="#DejaVuSans-32" x="190.869141"/>
       <use xlink:href="#DejaVuSans-2d" x="254.492188"/>
       <use xlink:href="#DejaVuSans-30" x="290.576172"/>
       <use xlink:href="#DejaVuSans-37" x="354.199219"/>
      </g>
     </g>
    </g>
    <g id="xtick_4">
     <g id="line2d_4">
      <g>
       <use xlink:href="#m3714c33cdd" x="244.24219" y="374.830125" style="stroke: #000000; stroke-width: 0.8"/>
      </g>
     </g>
     <g id="text_4">
      <!-- 2023-01 -->
      <g transform="translate(207.01737 409.301971) rotate(-30) scale(0.1 -0.1)">
       <defs>
        <path id="DejaVuSans-33" d="M 2597 2516 
Q 3050 2419 3304 2112 
Q 3559 1806 3559 1356 
Q 3559 666 3084 287 
Q 2609 -91 1734 -91 
Q 1441 -91 1130 -33 
Q 819 25 488 141 
L 488 750 
Q 750 597 1062 519 
Q 1375 441 1716 441 
Q 2309 441 2620 675 
Q 2931 909 2931 1356 
Q 2931 1769 2642 2001 
Q 2353 2234 1838 2234 
L 1294 2234 
L 1294 2753 
L 1863 2753 
Q 2328 2753 2575 2939 
Q 2822 3125 2822 3475 
Q 2822 3834 2567 4026 
Q 2313 4219 1838 4219 
Q 1578 4219 1281 4162 
Q 984 4106 628 3988 
L 628 4550 
Q 988 4650 1302 4700 
Q 1616 4750 1894 4750 
Q 2613 4750 3031 4423 
Q 3450 4097 3450 3541 
Q 3450 3153 3228 2886 
Q 3006 2619 2597 2516 
z
" transform="scale(0.015625)"/>
       </defs>
       <use xlink:href="#DejaVuSans-32"/>
       <use xlink:href="#DejaVuSans-30" x="63.623047"/>
       <use xlink:href="#DejaVuSans-32" x="127.246094"/>
       <use xlink:href="#DejaVuSans-33" x="190.869141"/>
       <use xlink:href="#DejaVuSans-2d" x="254.492188"/>
       <use xlink:href="#DejaVuSans-30" x="290.576172"/>
       <use xlink:href="#DejaVuSans-31" x="354.199219"/>
      </g>
     </g>
    </g>
    <g id="xtick_5">
     <g id="line2d_5">
      <g>
       <use xlink:href="#m3714c33cdd" x="304.254261" y="374.830125" style="stroke: #000000; stroke-width: 0.8"/>
      </g>
     </g>
     <g id="text_5">
      <!-- 2023-07 -->
      <g transform="translate(267.02944 409.301971) rotate(-30) scale(0.1 -0.1)">
       <use xlink:href="#DejaVuSans-32"/>
       <use xlink:href="#DejaVuSans-30" x="63.623047"/>
       <use xlink:href="#DejaVuSans-32" x="127.246094"/>
       <use xlink:href="#DejaVuSans-33" x="190.869141"/>
       <use xlink:href="#DejaVuSans-2d" x="254.492188"/>
       <use xlink:href="#DejaVuSans-30" x="290.576172"/>
       <use xlink:href="#DejaVuSans-37" x="354.199219"/>
      </g>
     </g>
    </g>
    <g id="xtick_6">
     <g id="line2d_6">
      <g>
       <use xlink:href="#m3714c33cdd" x="365.261006" y="374.830125" style="stroke: #000000; stroke-width: 0.8"/>
      </g>
     </g>
     <g id="text_6">
      <!-- 2024-01 -->
      <g transform="translate(328.036185 409.301971) rotate(-30) scale(0.1 -0.1)">
       <defs>
        <path id="DejaVuSans-34" d="M 2419 4116 
L 825 1625 
L 2419 1625 
L 2419 4116 
z
M 2253 4666 
L 3047 4666 
L 3047 1625 
L 3713 1625 
L 3713 1100 
L 3047 1100 
L 3047 0 
L 2419 0 
L 2419 1100 
L 313 1100 
L 313 1709 
L 2253 4666 
z
" transform="scale(0.015625)"/>
       </defs>
       <use xlink:href="#DejaVuSans-32"/>
       <use xlink:href="#DejaVuSans-30" x="63.623047"/>
       <use xlink:href="#DejaVuSans-32" x="127.246094"/>
       <use xlink:href="#DejaVuSans-34" x="190.869141"/>
       <use xlink:href="#DejaVuSans-2d" x="254.492188"/>
       <use xlink:href="#DejaVuSans-30" x="290.576172"/>
       <use xlink:href="#DejaVuSans-31" x="354.199219"/>
      </g>
     </g>
    </g>
    <g id="xtick_7">
     <g id="line2d_7">
      <g>
       <use xlink:href="#m3714c33cdd" x="425.604635" y="374.830125" style="stroke: #000000; stroke-width: 0.8"/>
      </g>
     </g>
     <g id="text_7">
      <!-- 2024-07 -->
      <g transform="translate(388.379814 409.301971) rotate(-30) scale(0.1 -0.1)">
       <use xlink:href="#DejaVuSans-32"/>
       <use xlink:href="#DejaVuSans-30" x="63.623047"/>
       <use xlink:href="#DejaVuSans-32" x="127.246094"/>
       <use xlink:href="#DejaVuSans-34" x="190.869141"/>
       <use xlink:href="#DejaVuSans-2d" x="254.492188"/>
       <use xlink:href="#DejaVuSans-30" x="290.576172"/>
       <use xlink:href="#DejaVuSans-37" x="354.199219"/>
      </g>
     </g>
    </g>
    <g id="xtick_8">
     <g id="line2d_8">
      <g>
       <use xlink:href="#m3714c33cdd" x="486.61138" y="374.830125" style="stroke: #000000; stroke-width: 0.8"/>
      </g>
     </g>
     <g id="text_8">
      <!-- 2025-01 -->
      <g transform="translate(449.38656 409.301971) rotate(-30) scale(0.1 -0.1)">
       <defs>
        <path id="DejaVuSans-35" d="M 691 4666 
L 3169 4666 
L 3169 4134 
L 1269 4134 
L 1269 2991 
Q 1406 3038 1543 3061 
Q 1681 3084 1819 3084 
Q 2600 3084 3056 2656 
Q 3513 2228 3513 1497 
Q 3513 744 3044 326 
Q 2575 -91 1722 -91 
Q 1428 -91 1123 -41 
Q 819 9 494 109 
L 494 744 
Q 775 591 1075 516 
Q 1375 441 1709 441 
Q 2250 441 2565 725 
Q 2881 1009 2881 1497 
Q 2881 1984 2565 2268 
Q 2250 2553 1709 2553 
Q 1456 2553 1204 2497 
Q 953 2441 691 2322 
L 691 4666 
z
" transform="scale(0.015625)"/>
       </defs>
       <use xlink:href="#DejaVuSans-32"/>
       <use xlink:href="#DejaVuSans-30" x="63.623047"/>
       <use xlink:href="#DejaVuSans-32" x="127.246094"/>
       <use xlink:href="#DejaVuSans-35" x="190.869141"/>
       <use xlink:href="#DejaVuSans-2d" x="254.492188"/>
       <use xlink:href="#DejaVuSans-30" x="290.576172"/>
       <use xlink:href="#DejaVuSans-31" x="354.199219"/>
      </g>
     </g>
    </g>
    <g id="xtick_9">
     <g id="line2d_9">
      <g>
       <use xlink:href="#m3714c33cdd" x="546.623451" y="374.830125" style="stroke: #000000; stroke-width: 0.8"/>
      </g>
     </g>
     <g id="text_9">
      <!-- 2025-07 -->
      <g transform="translate(509.39863 409.301971) rotate(-30) scale(0.1 -0.1)">
       <use xlink:href="#DejaVuSans-32"/>
       <use xlink:href="#DejaVuSans-30" x="63.623047"/>
       <use xlink:href="#DejaVuSans-32" x="127.246094"/>
       <use xlink:href="#DejaVuSans-35" x="190.869141"/>
       <use xlink:href="#DejaVuSans-2d" x="254.492188"/>
       <use xlink:href="#DejaVuSans-30" x="290.576172"/>
       <use xlink:href="#DejaVuSans-37" x="354.199219"/>
      </g>
     </g>
    </g>
   </g>
   <g id="matplotlib.axis_2">
    <g id="ytick_1">
     <g id="line2d_10">
      <defs>
       <path id="m34cc473f4e" d="M 0 0 
L -3.5 0 
" style="stroke: #000000; stroke-width: 0.8"/>
      </defs>
      <g>
       <use xlink:href="#m34cc473f4e" x="33.2875" y="374.830125" style="stroke: #000000; stroke-width: 0.8"/>
      </g>
     </g>
     <g id="text_10">
      <!-- 0 -->
      <g transform="translate(19.925 378.629344) scale(0.1 -0.1)">
       <use xlink:href="#DejaVuSans-30"/>
      </g>
     </g>
    </g>
    <g id="ytick_2">
     <g id="line2d_11">
      <g>
       <use xlink:href="#m34cc473f4e" x="33.2875" y="318.897147" style="stroke: #000000; stroke-width: 0.8"/>
      </g>
     </g>
     <g id="text_11">
      <!-- 100 -->
      <g transform="translate(7.2 322.696366) scale(0.1 -0.1)">
       <use xlink:href="#DejaVuSans-31"/>
       <use xlink:href="#DejaVuSans-30" x="63.623047"/>
       <use xlink:href="#DejaVuSans-30" x="127.246094"/>
      </g>
     </g>
    </g>
    <g id="ytick_3">
     <g id="line2d_12">
      <g>
       <use xlink:href="#m34cc473f4e" x="33.2875" y="262.964169" style="stroke: #000000; stroke-width: 0.8"/>
      </g>
     </g>
     <g id="text_12">
      <!-- 200 -->
      <g transform="translate(7.2 266.763388) scale(0.1 -0.1)">
       <use xlink:href="#DejaVuSans-32"/>
       <use xlink:href="#DejaVuSans-30" x="63.623047"/>
       <use xlink:href="#DejaVuSans-30" x="127.246094"/>
      </g>
     </g>
    </g>
    <g id="ytick_4">
     <g id="line2d_13">
      <g>
       <use xlink:href="#m34cc473f4e" x="33.2875" y="207.031191" style="stroke: #000000; stroke-width: 0.8"/>
      </g>
     </g>
     <g id="text_13">
      <!-- 300 -->
      <g transform="translate(7.2 210.83041) scale(0.1 -0.1)">
       <use xlink:href="#DejaVuSans-33"/>
       <use xlink:href="#DejaVuSans-30" x="63.623047"/>
       <use xlink:href="#DejaVuSans-30" x="127.246094"/>
      </g>
     </g>
    </g>
    <g id="ytick_5">
     <g id="line2d_14">
      <g>
       <use xlink:href="#m34cc473f4e" x="33.2875" y="151.098213" style="stroke: #000000; stroke-width: 0.8"/>
      </g>
     </g>
     <g id="text_14">
      <!-- 400 -->
      <g transform="translate(7.2 154.897432) scale(0.1 -0.1)">
       <use xlink:href="#DejaVuSans-34"/>
       <use xlink:href="#DejaVuSans-30" x="63.623047"/>
       <use xlink:href="#DejaVuSans-30" x="127.246094"/>
      </g>
     </g>
    </g>
    <g id="ytick_6">
     <g id="line2d_15">
      <g>
       <use xlink:href="#m34cc473f4e" x="33.2875" y="95.165235" style="stroke: #000000; stroke-width: 0.8"/>
      </g>
     </g>
     <g id="text_15">
      <!-- 500 -->
      <g transform="translate(7.2 98.964454) scale(0.1 -0.1)">
       <use xlink:href="#DejaVuSans-35"/>
       <use xlink:href="#DejaVuSans-30" x="63.623047"/>
       <use xlink:href="#DejaVuSans-30" x="127.246094"/>
      </g>
     </g>
    </g>
    <g id="ytick_7">
     <g id="line2d_16">
      <g>
       <use xlink:href="#m34cc473f4e" x="33.2875" y="39.232258" style="stroke: #000000; stroke-width: 0.8"/>
      </g>
     </g>
     <g id="text_16">
      <!-- 600 -->
      <g transform="translate(7.2 43.031476) scale(0.1 -0.1)">
       <defs>
        <path id="DejaVuSans-36" d="M 2113 2584 
Q 1688 2584 1439 2293 
Q 1191 2003 1191 1497 
Q 1191 994 1439 701 
Q 1688 409 2113 409 
Q 2538 409 2786 701 
Q 3034 994 3034 1497 
Q 3034 2003 2786 2293 
Q 2538 2584 2113 2584 
z
M 3366 4563 
L 3366 3988 
Q 3128 4100 2886 4159 
Q 2644 4219 2406 4219 
Q 1781 4219 1451 3797 
Q 1122 3375 1075 2522 
Q 1259 2794 1537 2939 
Q 1816 3084 2150 3084 
Q 2853 3084 3261 2657 
Q 3669 2231 3669 1497 
Q 3669 778 3244 343 
Q 2819 -91 2113 -91 
Q 1303 -91 875 529 
Q 447 1150 447 2328 
Q 447 3434 972 4092 
Q 1497 4750 2381 4750 
Q 2619 4750 2861 4703 
Q 3103 4656 3366 4563 
z
" transform="scale(0.015625)"/>
       </defs>
       <use xlink:href="#DejaVuSans-36"/>
       <use xlink:href="#DejaVuSans-30" x="63.623047"/>
       <use xlink:href="#DejaVuSans-30" x="127.246094"/>
      </g>
     </g>
    </g>
   </g>
   <g id="line2d_17">
    <path d="M 38.539265 25.808343 
L 48.398192 25.808343 
L 48.509798 29.164321 
L 49.890109 29.164321 
L 50.395382 38.672928 
L 131.844434 38.672928 
L 132.249952 33.07963 
L 145.803572 33.07963 
L 146.59975 33.63896 
L 152.956051 33.63896 
L 153.178337 44.825555 
L 159.62435 44.825555 
L 160.96022 43.147566 
L 271.392763 43.147566 
L 271.707287 39.232258 
L 280.3625 39.232258 
L 280.671417 38.113598 
L 324.113841 38.113598 
L 324.330183 36.994938 
L 394.531565 36.994938 
L 394.732676 32.5203 
L 447.954119 32.5203 
L 448.045655 31.96097 
L 488.697401 31.96097 
L 489.070987 31.401641 
L 492.7688 31.401641 
L 492.891496 29.164321 
L 494.37548 29.164321 
L 494.761063 29.723651 
L 520.412735 29.723651 
L 520.729415 29.164321 
L 563.715735 29.164321 
L 563.715735 29.164321 
" clip-path="url(#pcc957f89c6)" style="fill: none; stroke: #0000ff; stroke-width: 1.5; stroke-linecap: square"/>
   </g>
   <g id="line2d_18">
    <path d="M 38.539265 168.996766 
L 39.89474 167.878107 
L 41.24584 168.996766 
L 44.445379 168.996766 
L 47.973252 170.115426 
L 48.234969 169.556096 
L 48.398192 169.556096 
L 48.509798 172.912075 
L 48.767381 172.352745 
L 49.148354 172.912075 
L 49.890109 172.912075 
L 50.303229 185.21733 
L 50.395382 182.420681 
L 50.609813 185.77666 
L 50.678005 185.21733 
L 50.918293 185.21733 
L 51.302663 185.77666 
L 52.227749 185.77666 
L 52.255364 186.335989 
L 52.756819 186.335989 
L 52.969078 185.77666 
L 53.589652 189.691968 
L 53.661332 189.132638 
L 53.966055 189.691968 
L 54.555508 191.369957 
L 54.95532 190.251298 
L 55.587272 190.251298 
L 55.94044 191.369957 
L 56.179185 191.369957 
L 56.898451 191.929287 
L 57.221207 191.929287 
L 57.572171 193.047947 
L 57.886004 192.488617 
L 58.234501 193.607277 
L 58.596606 195.844596 
L 59.996742 196.963255 
L 60.591291 196.963255 
L 60.845969 197.522585 
L 61.251748 197.522585 
L 61.550484 198.081915 
L 61.854789 197.522585 
L 62.194072 197.522585 
L 62.392758 198.081915 
L 65.82999 198.081915 
L 66.176898 198.641245 
L 66.509328 198.641245 
L 66.638405 198.081915 
L 67.459423 198.641245 
L 67.803526 198.081915 
L 68.752251 198.081915 
L 69.056848 198.641245 
L 69.431332 198.081915 
L 71.158111 198.081915 
L 71.511903 198.641245 
L 71.706099 200.319234 
L 72.17875 199.200574 
L 73.277793 199.200574 
L 73.823076 199.759904 
L 74.152781 199.759904 
L 74.472996 200.319234 
L 74.830408 200.319234 
L 75.15857 199.759904 
L 75.472146 201.437893 
L 75.75054 201.437893 
L 76.507429 202.556553 
L 80.481326 202.556553 
L 80.797223 203.675213 
L 81.470482 203.675213 
L 81.769307 204.234542 
L 82.771557 204.234542 
L 83.730936 206.471861 
L 84.750658 206.471861 
L 85.11589 207.031191 
L 91.276737 207.031191 
L 92.016377 208.149851 
L 92.183929 207.031191 
L 93.370332 207.031191 
L 93.692504 207.590521 
L 94.047955 207.031191 
L 94.893663 207.031191 
L 95.360792 207.590521 
L 95.707573 207.031191 
L 100.94483 207.031191 
L 101.231033 212.065159 
L 101.429461 207.031191 
L 103.327449 207.031191 
L 103.671997 207.590521 
L 103.868661 212.624489 
L 104.333222 207.590521 
L 104.661331 207.590521 
L 104.879135 207.031191 
L 108.315599 207.031191 
L 108.489625 207.590521 
L 108.801927 207.590521 
L 109.316253 209.26851 
L 114.500131 209.26851 
L 115.631493 209.82784 
L 122.594016 209.82784 
L 122.883942 212.065159 
L 123.254412 212.065159 
L 123.582927 209.82784 
L 123.920917 209.82784 
L 124.15381 212.065159 
L 124.406221 209.82784 
L 124.825688 212.065159 
L 125.197252 213.183819 
L 129.505685 213.183819 
L 129.877556 213.743149 
L 131.844434 213.743149 
L 132.249952 207.590521 
L 132.539628 208.149851 
L 132.867054 209.82784 
L 133.271283 209.82784 
L 133.813285 210.9465 
L 134.187339 210.9465 
L 134.463058 211.505829 
L 134.833414 209.26851 
L 137.545093 214.861808 
L 137.821975 213.183819 
L 138.286234 212.624489 
L 139.760767 212.624489 
L 140.139012 212.065159 
L 140.472558 210.9465 
L 141.807856 210.9465 
L 142.051997 209.82784 
L 142.481418 210.9465 
L 143.451196 210.9465 
L 143.781239 212.065159 
L 144.099592 212.065159 
L 144.476629 212.624489 
L 144.628773 212.624489 
L 144.798812 214.302478 
L 145.029314 214.302478 
L 145.803572 214.861808 
L 146.443315 213.743149 
L 146.59975 213.743149 
L 147.101255 214.302478 
L 147.423024 215.421138 
L 149.08587 215.421138 
L 149.406925 215.980468 
L 149.751692 215.980468 
L 150.070886 216.539798 
L 150.369899 216.539798 
L 151.064702 217.099127 
L 151.423537 217.099127 
L 151.781367 218.777117 
L 151.992935 218.777117 
L 152.364837 218.217787 
L 152.956051 218.217787 
L 153.178337 219.895776 
L 153.726674 219.895776 
L 154.051548 221.014436 
L 154.485421 221.014436 
L 154.708908 221.573766 
L 155.200371 221.573766 
L 155.249276 222.133095 
L 155.498206 222.133095 
L 156.023484 222.692425 
L 157.218057 226.048404 
L 158.70705 226.048404 
L 159.01061 227.167063 
L 159.124913 226.607734 
L 159.25728 226.607734 
L 159.62435 226.048404 
L 160.96022 224.370414 
L 164.302401 224.370414 
L 164.689676 223.811085 
L 166.307278 223.811085 
L 166.5375 223.251755 
L 169.566754 223.251755 
L 169.956773 223.811085 
L 170.501983 223.811085 
L 170.943731 224.370414 
L 171.166005 223.811085 
L 173.295462 223.811085 
L 173.967505 224.929744 
L 175.397761 224.929744 
L 175.638563 232.760361 
L 175.910023 232.760361 
L 178.223429 234.43835 
L 178.365589 233.879021 
L 178.513896 234.43835 
L 178.898849 233.879021 
L 179.221754 233.879021 
L 179.561613 234.43835 
L 179.816828 234.43835 
L 180.226568 235.55701 
L 180.395079 235.55701 
L 180.551031 234.99768 
L 180.900575 236.11634 
L 183.224497 236.11634 
L 183.450578 236.67567 
L 184.700722 236.67567 
L 185.19847 236.11634 
L 185.571393 238.912989 
L 185.836881 237.234999 
L 186.183137 237.234999 
L 186.460675 240.590978 
L 186.654863 240.031648 
L 186.861585 240.590978 
L 186.965703 240.031648 
L 187.093138 241.709638 
L 187.423519 241.709638 
L 187.842119 242.268967 
L 188.661974 241.709638 
L 188.848656 242.828297 
L 189.153747 242.828297 
L 189.369801 241.150308 
L 190.103194 242.828297 
L 190.832438 243.387627 
L 191.472883 243.387627 
L 191.808854 245.065616 
L 192.117672 245.065616 
L 192.300597 244.506286 
L 192.621656 244.506286 
L 193.863404 246.743606 
L 194.070497 245.624946 
L 194.469131 245.065616 
L 194.936682 246.743606 
L 196.193434 246.743606 
L 196.301022 247.302935 
L 196.801786 247.862265 
L 198.136704 247.862265 
L 198.747738 250.658914 
L 202.181452 250.658914 
L 202.452593 251.218244 
L 202.809202 250.099584 
L 203.016814 251.218244 
L 206.760254 251.218244 
L 207.073024 251.777574 
L 207.827277 255.133552 
L 208.110249 253.455563 
L 208.447476 254.014893 
L 208.820882 253.455563 
L 209.083649 253.455563 
L 209.481803 251.777574 
L 209.695298 251.777574 
L 209.736735 252.336903 
L 210.408559 252.336903 
L 210.786697 248.980925 
L 211.120078 248.980925 
L 212.122954 249.540254 
L 212.186411 248.980925 
L 212.730926 248.421595 
L 212.811801 248.980925 
L 215.435529 248.980925 
L 215.618094 249.540254 
L 216.107737 250.099584 
L 216.761579 251.218244 
L 216.931641 252.336903 
L 217.161448 252.336903 
L 217.418889 253.455563 
L 217.728851 252.896233 
L 218.07592 252.896233 
L 218.337437 252.336903 
L 218.706111 252.896233 
L 219.035091 252.896233 
L 219.350397 253.455563 
L 219.60564 253.455563 
L 220.0861 252.896233 
L 220.335878 253.455563 
L 220.594398 252.896233 
L 221.345124 248.421595 
L 222.067269 249.540254 
L 222.17285 253.455563 
L 222.333821 253.455563 
L 222.628359 254.014893 
L 222.970543 253.455563 
L 223.282956 253.455563 
L 223.667806 252.896233 
L 224.001145 254.014893 
L 225.204203 254.014893 
L 225.682319 254.574222 
L 225.955555 254.574222 
L 225.976757 255.133552 
L 227.33998 255.133552 
L 227.728084 256.252212 
L 229.635485 256.252212 
L 230.015718 257.370871 
L 231.310515 257.370871 
L 233.66928 256.811542 
L 233.888097 257.370871 
L 234.478252 257.370871 
L 234.974834 257.930201 
L 235.307478 259.048861 
L 235.406946 258.489531 
L 235.768506 259.60819 
L 236.572826 259.60819 
L 239.830461 260.72685 
L 247.882778 260.72685 
L 248.210776 260.16752 
L 249.785087 260.16752 
L 250.111411 260.72685 
L 251.192798 260.72685 
L 251.566028 261.28618 
L 251.834402 260.72685 
L 252.145867 261.28618 
L 252.490496 260.72685 
L 252.773349 261.84551 
L 253.206559 261.28618 
L 253.522652 261.84551 
L 260.393586 261.84551 
L 260.748511 260.72685 
L 261.124515 261.28618 
L 261.464573 260.72685 
L 261.845474 260.72685 
L 262.150945 260.16752 
L 263.425822 260.16752 
L 263.749536 260.72685 
L 264.115187 260.16752 
L 264.448315 259.048861 
L 265.108864 259.048861 
L 265.481545 258.489531 
L 265.760426 259.60819 
L 266.119177 259.60819 
L 266.396343 259.048861 
L 267.271135 260.16752 
L 267.782894 259.60819 
L 268.086942 260.16752 
L 268.733803 260.16752 
L 269.09889 259.60819 
L 269.457383 261.28618 
L 269.80243 260.72685 
L 270.464864 260.72685 
L 270.717378 260.16752 
L 271.040325 260.72685 
L 271.392763 260.72685 
L 271.707287 255.692882 
L 271.832243 256.252212 
L 272.079408 256.252212 
L 272.251588 256.811542 
L 272.401649 256.811542 
L 272.599218 257.370871 
L 272.733107 256.252212 
L 273.046626 256.811542 
L 273.175005 256.811542 
L 273.39411 257.370871 
L 273.962026 257.370871 
L 274.23821 258.489531 
L 274.511926 257.370871 
L 274.690131 257.930201 
L 275.69486 257.930201 
L 275.993965 257.370871 
L 276.277628 257.370871 
L 276.63408 257.930201 
L 276.963689 257.930201 
L 277.354414 257.370871 
L 277.731469 257.930201 
L 278.024027 257.930201 
L 278.484421 259.048861 
L 280.3625 259.048861 
L 280.671417 257.370871 
L 282.126982 257.370871 
L 282.461272 257.930201 
L 282.724232 258.489531 
L 283.239084 258.489531 
L 283.399709 259.60819 
L 283.473393 259.048861 
L 283.647603 259.60819 
L 284.137619 259.60819 
L 284.377834 260.72685 
L 285.031886 260.72685 
L 285.337189 261.84551 
L 286.346864 261.84551 
L 286.589002 263.523499 
L 286.812435 264.082829 
L 286.941379 264.082829 
L 287.376338 264.642159 
L 287.529427 264.082829 
L 287.603617 264.642159 
L 288.081859 264.642159 
L 288.643513 265.201488 
L 289.903573 265.201488 
L 290.22855 264.642159 
L 290.539935 265.201488 
L 290.890945 265.201488 
L 291.059169 265.760818 
L 291.099631 265.201488 
L 291.299295 265.760818 
L 291.455458 265.760818 
L 291.609675 266.879478 
L 292.203506 267.998137 
L 292.635921 267.438807 
L 292.964682 267.998137 
L 293.610994 267.998137 
L 293.961779 269.116797 
L 294.090196 268.557467 
L 294.298817 270.235456 
L 294.594437 269.676127 
L 294.786162 270.235456 
L 294.937758 269.676127 
L 295.105279 270.794786 
L 295.446727 270.794786 
L 295.547856 271.354116 
L 295.94845 270.794786 
L 296.258277 271.913446 
L 296.95729 271.913446 
L 297.208921 273.032105 
L 297.565838 271.913446 
L 297.808316 271.913446 
L 297.897216 272.472775 
L 298.549587 272.472775 
L 298.854744 274.710095 
L 299.293606 272.472775 
L 299.361648 273.032105 
L 299.9395 272.472775 
L 299.994219 273.591435 
L 300.192966 273.591435 
L 300.593453 274.150765 
L 300.918469 273.591435 
L 301.16401 273.591435 
L 301.527362 274.710095 
L 301.922661 274.710095 
L 302.306002 274.150765 
L 302.592501 274.710095 
L 302.76658 274.150765 
L 302.93972 275.269424 
L 304.473895 275.269424 
L 304.945422 275.828754 
L 305.908165 275.828754 
L 306.249763 274.710095 
L 306.893577 274.710095 
L 307.215803 275.269424 
L 310.147163 275.269424 
L 310.542768 274.710095 
L 310.9136 275.828754 
L 315.412283 275.828754 
L 316.399172 276.388084 
L 316.985328 276.388084 
L 317.461368 276.947414 
L 317.837567 276.947414 
L 318.058633 277.506743 
L 323.066117 277.506743 
L 323.472832 276.947414 
L 323.795284 277.506743 
L 324.113841 276.947414 
L 324.330183 273.591435 
L 326.308428 273.591435 
L 326.484933 274.150765 
L 326.827071 274.150765 
L 326.940216 273.591435 
L 328.987976 273.591435 
L 329.272057 274.150765 
L 329.379419 273.591435 
L 329.866015 273.591435 
L 330.090941 274.710095 
L 330.261832 273.591435 
L 330.37447 273.591435 
L 330.586153 274.710095 
L 330.736398 274.710095 
L 330.930179 273.591435 
L 331.099658 274.710095 
L 331.208266 273.591435 
L 331.25201 274.710095 
L 332.41761 274.710095 
L 332.602634 275.269424 
L 332.629769 275.828754 
L 333.22332 275.828754 
L 333.258303 276.388084 
L 333.600295 276.388084 
L 333.77738 276.947414 
L 333.928361 276.388084 
L 334.113846 276.947414 
L 334.239282 276.388084 
L 334.533475 276.947414 
L 334.657893 276.388084 
L 334.674955 276.947414 
L 335.047866 276.947414 
L 335.281519 277.506743 
L 335.428886 277.506743 
L 335.649572 278.625403 
L 335.894441 279.184733 
L 336.063559 278.625403 
L 337.947221 278.625403 
L 338.216551 279.184733 
L 339.66017 279.184733 
L 339.890453 279.744063 
L 340.194846 279.744063 
L 340.42072 280.303392 
L 340.545216 279.744063 
L 341.142497 279.744063 
L 341.34406 280.862722 
L 341.892686 280.862722 
L 341.945371 281.422052 
L 342.021925 280.862722 
L 342.140357 280.862722 
L 342.352834 281.981382 
L 342.574111 282.540711 
L 342.635956 281.981382 
L 342.886785 284.218701 
L 343.902643 284.218701 
L 344.00477 284.778031 
L 344.227317 284.778031 
L 344.357684 285.89669 
L 344.510685 284.778031 
L 345.859276 284.778031 
L 345.937311 285.33736 
L 346.195984 284.778031 
L 346.319835 285.33736 
L 346.548821 284.778031 
L 346.846264 284.778031 
L 347.028667 285.89669 
L 347.361166 285.89669 
L 347.497554 285.33736 
L 347.614409 286.45602 
L 347.959518 284.778031 
L 348.321166 285.89669 
L 348.583147 284.778031 
L 349.196422 284.778031 
L 349.673705 286.45602 
L 349.82222 285.89669 
L 349.98669 286.45602 
L 350.430483 285.33736 
L 350.572589 286.45602 
L 351.625805 286.45602 
L 351.795572 287.01535 
L 352.091415 287.01535 
L 352.249123 286.45602 
L 352.448166 287.01535 
L 352.574024 286.45602 
L 352.957423 287.574679 
L 353.480871 287.574679 
L 353.85004 288.693339 
L 355.448992 288.693339 
L 355.623812 289.252669 
L 355.837652 288.693339 
L 355.943455 289.252669 
L 356.161474 288.693339 
L 356.451028 288.693339 
L 356.63779 289.252669 
L 356.76059 288.693339 
L 357.151541 288.693339 
L 357.272463 289.252669 
L 357.820586 289.252669 
L 357.857534 290.371328 
L 360.201824 290.371328 
L 360.433094 290.930658 
L 360.584893 290.371328 
L 360.713499 290.930658 
L 360.811186 290.371328 
L 360.928363 291.489988 
L 361.468251 291.489988 
L 361.722925 292.049318 
L 361.774539 291.489988 
L 361.82742 292.049318 
L 362.118239 291.489988 
L 362.1934 292.049318 
L 362.477804 292.608647 
L 362.589198 293.167977 
L 362.801856 293.167977 
L 362.850753 293.727307 
L 363.146842 295.405296 
L 363.28011 294.845967 
L 363.459976 294.845967 
L 363.49238 295.964626 
L 364.756101 295.964626 
L 364.913062 296.523956 
L 365.160633 295.964626 
L 365.589472 296.523956 
L 365.704086 295.964626 
L 365.891716 296.523956 
L 366.12231 296.523956 
L 366.259534 297.083286 
L 366.579158 297.083286 
L 366.586994 297.642615 
L 366.685522 297.083286 
L 366.77997 298.201945 
L 366.919566 298.201945 
L 367.112802 298.761275 
L 368.438376 298.761275 
L 368.473358 298.201945 
L 368.556808 299.320605 
L 368.906387 299.320605 
L 369.084918 298.761275 
L 369.222346 299.320605 
L 369.429252 298.761275 
L 369.584274 299.320605 
L 369.758446 299.320605 
L 369.908108 298.761275 
L 370.056503 300.439264 
L 371.832954 300.439264 
L 372.36717 301.557924 
L 372.648373 300.998594 
L 379.359019 300.998594 
L 379.472954 301.557924 
L 379.676736 300.998594 
L 379.735468 301.557924 
L 380.344385 301.557924 
L 380.512996 302.117254 
L 381.367611 302.117254 
L 381.481799 302.676583 
L 381.642754 302.117254 
L 382.951896 302.117254 
L 383.133481 302.676583 
L 383.362157 302.117254 
L 383.488422 302.117254 
L 383.68964 303.235913 
L 383.800332 302.676583 
L 384.290958 302.676583 
L 384.504733 303.235913 
L 385.510978 303.235913 
L 385.674892 302.117254 
L 386.007026 303.235913 
L 387.79408 303.235913 
L 387.977304 303.795243 
L 388.140992 303.795243 
L 388.317278 304.354573 
L 388.449042 304.354573 
L 388.612146 304.913903 
L 388.993765 304.913903 
L 389.06137 305.473232 
L 389.379504 305.473232 
L 389.580458 304.354573 
L 389.737373 304.913903 
L 389.977564 304.913903 
L 390.075505 305.473232 
L 390.442959 305.473232 
L 390.771612 306.032562 
L 391.129991 307.710552 
L 391.247326 307.151222 
L 391.356579 307.710552 
L 391.607347 308.269881 
L 391.726259 307.710552 
L 392.045441 308.269881 
L 392.256533 307.710552 
L 392.428936 307.710552 
L 392.766692 309.388541 
L 392.970692 308.829211 
L 393.09221 308.829211 
L 393.251734 309.388541 
L 393.293682 309.947871 
L 393.429325 309.947871 
L 393.495522 309.388541 
L 393.714627 309.947871 
L 393.866345 309.388541 
L 393.991424 309.947871 
L 394.531565 309.947871 
L 394.732676 302.117254 
L 395.269793 303.235913 
L 395.624434 303.235913 
L 395.74848 303.795243 
L 395.941694 303.235913 
L 396.065713 303.235913 
L 396.212463 302.676583 
L 396.381197 303.235913 
L 396.612973 303.235913 
L 396.727015 302.676583 
L 396.871907 303.235913 
L 397.069518 302.676583 
L 397.147189 303.235913 
L 397.433062 303.795243 
L 397.557933 303.795243 
L 397.859759 302.676583 
L 398.133195 303.235913 
L 399.347996 303.235913 
L 399.63624 303.795243 
L 399.938887 303.235913 
L 400.483272 303.235913 
L 400.900625 304.354573 
L 401.043779 302.676583 
L 401.284723 303.235913 
L 401.591875 302.676583 
L 401.73238 304.354573 
L 401.90202 303.235913 
L 402.062342 303.235913 
L 402.169113 303.795243 
L 402.248794 306.032562 
L 402.263096 305.473232 
L 402.616567 306.032562 
L 403.488995 306.032562 
L 403.901689 307.151222 
L 404.071932 306.591892 
L 404.683104 306.591892 
L 404.849628 306.032562 
L 405.027606 306.591892 
L 405.222827 306.591892 
L 405.337514 306.032562 
L 405.686421 306.591892 
L 405.891393 306.591892 
L 406.02577 307.151222 
L 406.190118 306.591892 
L 406.36668 306.591892 
L 406.532145 306.032562 
L 406.63464 306.591892 
L 407.556349 306.591892 
L 407.786944 308.269881 
L 408.065744 307.710552 
L 408.296331 307.710552 
L 408.483009 307.151222 
L 408.567887 307.710552 
L 408.857048 307.151222 
L 408.96515 307.710552 
L 409.21989 307.710552 
L 409.319549 308.269881 
L 409.623977 307.710552 
L 410.251294 307.710552 
L 410.483868 308.269881 
L 410.871296 308.269881 
L 410.968983 308.829211 
L 411.134087 308.269881 
L 411.520046 309.388541 
L 411.634886 309.388541 
L 411.805209 309.947871 
L 411.962216 309.947871 
L 412.257636 310.5072 
L 414.660713 310.5072 
L 414.916723 311.06653 
L 415.156777 311.06653 
L 415.205651 309.947871 
L 415.26618 310.5072 
L 415.657825 310.5072 
L 415.74722 311.06653 
L 416.262547 311.06653 
L 416.508656 311.62586 
L 416.839202 311.62586 
L 416.850196 311.06653 
L 416.960079 311.62586 
L 417.061131 311.06653 
L 418.500467 311.06653 
L 418.770349 310.5072 
L 419.523198 311.06653 
L 421.084416 311.06653 
L 421.151971 311.62586 
L 422.790226 311.62586 
L 422.937796 312.18519 
L 424.452849 314.981839 
L 424.59644 314.981839 
L 424.746248 315.541168 
L 424.812963 314.981839 
L 425.135591 315.541168 
L 425.435333 316.100498 
L 425.793807 316.100498 
L 425.914189 316.659828 
L 426.367215 316.659828 
L 427.023371 316.100498 
L 427.056427 317.778488 
L 427.584511 317.778488 
L 427.748183 317.219158 
L 427.867064 317.778488 
L 429.080296 317.778488 
L 429.361936 317.219158 
L 430.663038 317.219158 
L 431.466445 317.778488 
L 433.089378 317.778488 
L 433.888537 318.337817 
L 433.995419 318.897147 
L 436.398868 318.897147 
L 436.624661 318.337817 
L 437.844793 318.337817 
L 438.735702 317.778488 
L 439.38492 317.778488 
L 439.707099 318.337817 
L 439.993134 319.456477 
L 440.163433 319.456477 
L 440.17008 318.897147 
L 442.080324 318.897147 
L 442.285342 319.456477 
L 447.111144 319.456477 
L 447.719622 320.015807 
L 447.954119 320.015807 
L 448.045655 320.575136 
L 448.343892 320.575136 
L 448.46914 320.015807 
L 448.663294 320.575136 
L 449.753411 320.575136 
L 450.239328 321.134466 
L 450.576865 322.253126 
L 453.533058 322.253126 
L 454.053374 321.693796 
L 454.203918 322.253126 
L 454.356209 321.693796 
L 454.527407 322.253126 
L 455.338194 322.253126 
L 455.712007 321.693796 
L 455.901697 322.253126 
L 456.424746 321.134466 
L 456.6286 322.253126 
L 457.894352 322.253126 
L 457.909325 322.812456 
L 459.915265 322.812456 
L 460.890576 323.371785 
L 461.183265 322.812456 
L 461.727063 322.812456 
L 461.858888 323.371785 
L 462.323534 321.693796 
L 462.63031 322.253126 
L 463.042732 321.693796 
L 463.348215 321.693796 
L 463.486951 322.253126 
L 464.329175 322.253126 
L 465.329879 321.693796 
L 465.480504 322.253126 
L 466.476257 322.253126 
L 466.79955 321.693796 
L 471.867596 322.253126 
L 472.247073 321.693796 
L 472.575032 322.253126 
L 472.868906 321.693796 
L 472.901786 322.253126 
L 473.157631 322.812456 
L 473.3058 322.812456 
L 473.441336 323.371785 
L 475.797645 323.371785 
L 475.847855 323.931115 
L 476.140747 323.931115 
L 476.92281 323.371785 
L 476.947689 323.931115 
L 477.248164 323.371785 
L 477.321195 324.490445 
L 477.514596 324.490445 
L 477.906963 325.049775 
L 478.564497 325.049775 
L 478.963756 324.490445 
L 479.412668 325.609104 
L 479.43108 326.168434 
L 479.740143 326.727764 
L 479.867168 326.727764 
L 480.187905 326.168434 
L 480.638901 326.168434 
L 480.732654 326.727764 
L 481.759507 326.727764 
L 481.900968 326.168434 
L 482.07415 327.287094 
L 482.216889 327.287094 
L 482.487796 326.727764 
L 482.734173 327.287094 
L 483.283601 327.287094 
L 483.525573 328.405753 
L 485.251312 328.405753 
L 485.45763 328.965083 
L 485.583964 328.965083 
L 485.791844 328.405753 
L 485.845458 328.965083 
L 486.396113 328.965083 
L 486.506867 329.524413 
L 486.807675 329.524413 
L 486.893593 330.643072 
L 487.362917 330.643072 
L 487.539253 332.321062 
L 487.906419 332.321062 
L 488.121157 331.761732 
L 488.237168 332.321062 
L 488.393334 332.321062 
L 488.405261 333.999051 
L 488.697401 333.999051 
L 489.070987 333.439721 
L 489.24047 333.439721 
L 489.38525 333.999051 
L 489.745298 333.999051 
L 490.118393 333.439721 
L 490.156768 334.558381 
L 490.487114 334.558381 
L 490.548007 335.117711 
L 490.778183 335.67704 
L 491.386236 335.67704 
L 491.475607 336.7957 
L 491.736552 336.7957 
L 491.889537 337.35503 
L 492.036336 337.35503 
L 492.562769 337.91436 
L 492.7688 337.35503 
L 492.891496 329.524413 
L 493.024564 328.965083 
L 493.114687 331.202402 
L 493.763851 331.202402 
L 494.030671 330.643072 
L 494.225078 331.761732 
L 494.37548 331.761732 
L 494.761063 332.321062 
L 495.185155 332.321062 
L 495.378663 331.761732 
L 495.530175 332.321062 
L 496.552733 332.321062 
L 496.678641 332.880392 
L 497.144834 331.761732 
L 497.523919 332.321062 
L 497.741151 332.321062 
L 497.824586 332.880392 
L 498.016372 331.761732 
L 498.2028 332.880392 
L 498.976329 332.880392 
L 499.096224 332.321062 
L 499.371762 332.321062 
L 499.415107 332.880392 
L 499.727094 333.439721 
L 499.73927 332.880392 
L 500.325998 332.880392 
L 500.627985 333.439721 
L 502.195082 333.439721 
L 502.312586 333.999051 
L 502.623364 333.439721 
L 502.633741 333.999051 
L 503.079994 334.558381 
L 503.354189 334.558381 
L 503.669722 335.117711 
L 503.82727 335.67704 
L 503.947725 335.67704 
L 504.326765 334.558381 
L 504.401641 335.67704 
L 504.656523 335.117711 
L 504.871058 335.67704 
L 505.828513 335.67704 
L 505.93579 336.23637 
L 506.069491 335.67704 
L 506.532817 336.23637 
L 506.756616 335.67704 
L 506.983426 336.23637 
L 507.119699 335.67704 
L 507.437066 336.7957 
L 507.656344 336.23637 
L 508.406353 336.23637 
L 508.704736 336.7957 
L 509.140421 336.7957 
L 509.48706 335.67704 
L 509.579452 336.23637 
L 509.94983 336.23637 
L 510.043825 337.35503 
L 510.510954 336.23637 
L 510.674086 336.7957 
L 511.050462 336.23637 
L 511.325199 336.23637 
L 511.46595 336.7957 
L 511.662364 336.7957 
L 511.688531 333.439721 
L 511.802382 333.439721 
L 512.242971 333.999051 
L 512.300049 332.880392 
L 512.458238 333.999051 
L 512.603264 333.439721 
L 512.69031 333.999051 
L 513.035626 333.439721 
L 513.449955 333.999051 
L 513.65866 333.999051 
L 513.945151 333.439721 
L 514.352377 333.439721 
L 514.769906 334.558381 
L 514.988616 333.999051 
L 515.43087 333.999051 
L 515.637684 333.439721 
L 515.66813 332.880392 
L 515.925771 333.999051 
L 516.062405 333.439721 
L 516.223118 333.999051 
L 516.461925 333.439721 
L 516.73221 333.439721 
L 516.905845 332.880392 
L 517.235139 332.880392 
L 517.577976 333.999051 
L 517.810608 333.439721 
L 518.093906 334.558381 
L 518.241442 334.558381 
L 518.334048 333.999051 
L 518.622174 333.999051 
L 518.646357 334.558381 
L 519.601506 334.558381 
L 519.757984 335.117711 
L 519.892012 335.117711 
L 520.098622 335.67704 
L 520.276826 335.117711 
L 520.412735 335.67704 
L 520.615354 335.117711 
L 520.729415 335.67704 
L 520.876633 335.117711 
L 520.924064 335.67704 
L 521.087038 336.7957 
L 521.286149 336.23637 
L 521.348812 335.67704 
L 521.558799 336.23637 
L 521.730403 335.67704 
L 521.937239 336.23637 
L 522.276193 336.23637 
L 522.370572 336.7957 
L 522.604731 336.23637 
L 523.219695 337.91436 
L 523.385121 337.91436 
L 523.556231 336.7957 
L 523.637125 337.35503 
L 523.879043 337.35503 
L 523.98911 336.7957 
L 524.186925 336.7957 
L 524.367021 337.35503 
L 524.598552 337.35503 
L 524.987266 339.033019 
L 525.194072 338.473689 
L 527.91257 338.473689 
L 528.039077 339.033019 
L 528.199503 339.033019 
L 528.328515 338.473689 
L 528.587361 339.033019 
L 529.232242 336.7957 
L 529.340121 337.91436 
L 529.896556 336.7957 
L 530.500196 336.7957 
L 531.153888 337.91436 
L 532.309488 337.35503 
L 532.602959 337.91436 
L 532.926267 337.35503 
L 533.157172 338.473689 
L 533.249782 337.35503 
L 533.554167 338.473689 
L 533.885806 337.35503 
L 533.995589 338.473689 
L 534.208254 338.473689 
L 534.325159 337.91436 
L 534.537057 338.473689 
L 534.664224 338.473689 
L 534.782675 337.91436 
L 534.926596 339.592349 
L 535.304043 338.473689 
L 535.657072 338.473689 
L 535.872785 339.033019 
L 536.279884 339.033019 
L 536.610955 338.473689 
L 536.804502 338.473689 
L 536.950818 339.592349 
L 537.133328 339.033019 
L 537.235225 339.592349 
L 537.481261 340.151679 
L 537.63212 340.151679 
L 537.895874 339.033019 
L 538.148085 340.711008 
L 538.465088 340.711008 
L 538.489149 341.829668 
L 538.511287 341.270338 
L 538.677078 340.711008 
L 538.851357 341.829668 
L 538.924051 340.711008 
L 539.186765 340.711008 
L 539.222561 341.270338 
L 539.51855 341.829668 
L 539.695695 341.829668 
L 539.778727 340.711008 
L 540.175945 341.829668 
L 540.240272 340.711008 
L 540.456626 341.829668 
L 540.623057 340.151679 
L 541.128991 341.270338 
L 541.510126 339.592349 
L 541.539598 340.151679 
L 541.781014 339.592349 
L 541.933638 339.592349 
L 542.092084 340.711008 
L 542.281302 339.592349 
L 542.645088 340.711008 
L 542.783107 339.592349 
L 542.932546 340.151679 
L 543.237073 340.151679 
L 543.43818 339.592349 
L 543.823152 339.592349 
L 543.834903 340.151679 
L 544.440803 339.033019 
L 544.762142 340.711008 
L 544.932687 340.711008 
L 545.131457 340.151679 
L 545.187642 341.270338 
L 545.469816 340.151679 
L 545.643565 341.270338 
L 545.818723 340.151679 
L 545.89111 340.711008 
L 546.25034 340.711008 
L 546.465619 341.270338 
L 546.564081 342.388998 
L 546.764528 341.270338 
L 547.09431 341.829668 
L 547.240192 342.388998 
L 547.420442 341.829668 
L 547.57434 344.066987 
L 547.815906 344.066987 
L 548.135365 344.626317 
L 548.173905 343.507657 
L 548.488317 344.626317 
L 548.935867 343.507657 
L 549.056798 345.185647 
L 549.419693 345.744976 
L 549.814946 344.626317 
L 550.065457 344.066987 
L 550.761814 344.626317 
L 550.845222 345.185647 
L 551.10574 345.185647 
L 551.58599 345.744976 
L 551.823921 345.744976 
L 552.120401 346.304306 
L 552.420297 347.982296 
L 553.190253 347.422966 
L 553.438273 347.422966 
L 553.782192 345.744976 
L 554.109118 345.744976 
L 554.19339 345.185647 
L 554.441774 346.304306 
L 554.497111 345.185647 
L 554.768962 345.744976 
L 555.262101 345.744976 
L 555.515164 346.863636 
L 555.747439 345.744976 
L 556.06468 346.863636 
L 556.188358 346.304306 
L 556.357791 346.863636 
L 556.800149 345.744976 
L 557.055821 346.304306 
L 557.803646 346.304306 
L 557.982143 345.744976 
L 558.415268 346.863636 
L 558.59132 345.744976 
L 558.743173 345.744976 
L 558.80222 346.304306 
L 559.017499 346.304306 
L 559.249682 346.863636 
L 559.408558 345.744976 
L 559.655235 346.863636 
L 559.763567 345.744976 
L 560.066052 346.863636 
L 560.252051 346.863636 
L 560.37208 346.304306 
L 560.568774 346.304306 
L 560.624356 345.744976 
L 560.635769 346.304306 
L 560.971556 346.304306 
L 561.085169 345.744976 
L 561.393192 346.863636 
L 561.676843 345.744976 
L 562.162952 346.304306 
L 563.201762 346.304306 
L 563.450884 345.744976 
L 563.715735 346.304306 
L 563.715735 346.304306 
" clip-path="url(#pcc957f89c6)" style="fill: none; stroke-dasharray: 3,1.5; stroke-dashoffset: 0; stroke: #808080; stroke-width: 1.5"/>
   </g>
   <g id="line2d_19">
    <path d="M 38.539265 297.083286 
L 39.89474 296.523956 
L 41.24584 295.405296 
L 44.445379 295.405296 
L 47.973252 294.845967 
L 48.234969 295.405296 
L 48.398192 295.405296 
L 48.509798 294.286637 
L 48.767381 294.845967 
L 49.148354 294.286637 
L 49.890109 294.286637 
L 50.303229 291.489988 
L 50.395382 294.286637 
L 50.609813 290.930658 
L 50.678005 291.489988 
L 50.918293 291.489988 
L 51.302663 290.930658 
L 51.93277 290.930658 
L 52.255364 288.693339 
L 52.756819 288.693339 
L 53.265838 289.811999 
L 53.589652 285.33736 
L 53.661332 285.89669 
L 53.966055 285.33736 
L 54.555508 283.659371 
L 54.95532 284.778031 
L 55.587272 284.778031 
L 55.94044 285.89669 
L 56.179185 285.33736 
L 56.898451 284.778031 
L 57.221207 284.778031 
L 57.572171 283.659371 
L 58.075768 283.659371 
L 58.596606 280.303392 
L 59.996742 278.625403 
L 60.187415 278.066073 
L 60.591291 278.066073 
L 60.845969 277.506743 
L 61.251748 277.506743 
L 61.550484 278.625403 
L 61.854789 279.184733 
L 62.194072 279.184733 
L 62.392758 278.625403 
L 64.815817 278.625403 
L 65.203118 278.066073 
L 65.82999 278.066073 
L 66.176898 277.506743 
L 66.509328 277.506743 
L 66.638405 278.066073 
L 67.459423 277.506743 
L 67.803526 278.066073 
L 68.752251 278.066073 
L 69.056848 277.506743 
L 69.431332 278.066073 
L 71.158111 278.066073 
L 71.511903 277.506743 
L 71.706099 275.828754 
L 72.17875 276.947414 
L 72.844404 276.947414 
L 73.155408 275.828754 
L 73.277793 276.947414 
L 73.823076 275.269424 
L 74.152781 275.269424 
L 74.472996 274.710095 
L 74.830408 274.710095 
L 75.15857 275.269424 
L 75.472146 274.150765 
L 75.75054 274.150765 
L 76.507429 273.032105 
L 80.481326 273.032105 
L 80.797223 271.913446 
L 81.470482 271.913446 
L 81.769307 269.116797 
L 82.771557 269.116797 
L 83.730936 266.879478 
L 84.750658 266.879478 
L 85.11589 266.320148 
L 91.276737 266.320148 
L 92.016377 264.642159 
L 92.183929 266.320148 
L 93.370332 266.320148 
L 93.692504 265.201488 
L 94.047955 266.320148 
L 94.893663 266.320148 
L 95.360792 265.201488 
L 95.707573 266.320148 
L 100.94483 266.320148 
L 101.231033 261.28618 
L 101.429461 266.320148 
L 103.327449 266.320148 
L 103.671997 265.760818 
L 103.868661 260.72685 
L 104.333222 265.760818 
L 104.661331 265.760818 
L 104.879135 266.320148 
L 108.315599 266.320148 
L 108.489625 265.760818 
L 108.801927 265.760818 
L 109.316253 264.082829 
L 114.500131 264.082829 
L 115.631493 263.523499 
L 122.594016 263.523499 
L 122.883942 260.72685 
L 123.254412 260.72685 
L 123.582927 263.523499 
L 123.920917 263.523499 
L 124.15381 260.72685 
L 124.406221 263.523499 
L 124.825688 260.72685 
L 125.197252 259.60819 
L 129.505685 259.60819 
L 129.877556 259.048861 
L 131.509046 259.048861 
L 131.844434 257.930201 
L 132.249952 255.692882 
L 132.539628 255.133552 
L 132.867054 251.777574 
L 133.271283 251.777574 
L 133.813285 250.658914 
L 134.187339 250.658914 
L 134.833414 249.540254 
L 137.545093 244.506286 
L 137.821975 245.624946 
L 139.760767 245.624946 
L 140.139012 243.387627 
L 140.472558 243.946957 
L 141.807856 243.946957 
L 142.051997 245.065616 
L 142.481418 243.946957 
L 143.451196 243.946957 
L 143.781239 242.828297 
L 144.099592 242.828297 
L 144.476629 242.268967 
L 144.628773 242.268967 
L 144.798812 240.590978 
L 145.029314 240.590978 
L 145.803572 240.031648 
L 146.443315 241.709638 
L 146.59975 241.709638 
L 147.101255 241.150308 
L 147.423024 240.031648 
L 149.08587 240.031648 
L 149.406925 239.472318 
L 149.751692 239.472318 
L 150.070886 238.912989 
L 150.369899 238.912989 
L 151.064702 238.353659 
L 151.423537 238.353659 
L 151.781367 236.67567 
L 152.364837 236.67567 
L 152.729474 236.11634 
L 152.956051 236.11634 
L 153.082545 246.184276 
L 153.178337 245.624946 
L 153.726674 245.624946 
L 154.051548 244.506286 
L 154.485421 244.506286 
L 154.708908 243.946957 
L 155.200371 243.946957 
L 155.249276 243.387627 
L 156.023484 243.387627 
L 156.439156 241.709638 
L 157.302985 240.031648 
L 158.70705 240.031648 
L 159.01061 238.912989 
L 159.124913 239.472318 
L 159.25728 239.472318 
L 159.62435 240.031648 
L 160.96022 239.472318 
L 164.302401 239.472318 
L 164.689676 240.031648 
L 166.307278 240.031648 
L 166.5375 240.590978 
L 166.959212 240.031648 
L 169.566754 240.031648 
L 169.956773 239.472318 
L 170.501983 239.472318 
L 170.943731 238.912989 
L 171.166005 239.472318 
L 173.295462 239.472318 
L 173.967505 238.353659 
L 175.397761 238.353659 
L 175.638563 230.523042 
L 175.910023 230.523042 
L 178.223429 228.845053 
L 178.365589 229.404382 
L 178.513896 228.845053 
L 178.898849 229.404382 
L 179.221754 229.404382 
L 179.561613 228.845053 
L 179.816828 228.845053 
L 180.226568 227.726393 
L 180.395079 227.726393 
L 180.551031 228.285723 
L 180.900575 227.167063 
L 183.224497 227.167063 
L 183.450578 226.607734 
L 183.827503 226.607734 
L 184.177312 226.048404 
L 184.540476 226.607734 
L 184.700722 226.607734 
L 185.19847 227.167063 
L 185.571393 224.370414 
L 185.836881 226.048404 
L 186.183137 226.048404 
L 186.460675 222.692425 
L 186.654863 223.251755 
L 186.861585 222.133095 
L 186.965703 222.692425 
L 187.093138 221.014436 
L 187.423519 221.014436 
L 187.842119 220.455106 
L 188.661974 221.014436 
L 188.848656 219.895776 
L 189.153747 219.895776 
L 189.369801 221.573766 
L 190.103194 219.895776 
L 190.832438 219.336446 
L 191.472883 219.336446 
L 191.808854 217.658457 
L 192.117672 217.658457 
L 192.300597 218.217787 
L 192.621656 218.217787 
L 193.863404 214.861808 
L 194.070497 217.099127 
L 194.469131 217.658457 
L 194.936682 214.861808 
L 196.193434 214.861808 
L 196.301022 214.302478 
L 196.801786 213.743149 
L 198.136704 213.743149 
L 198.747738 210.9465 
L 202.181452 210.9465 
L 202.452593 209.82784 
L 202.809202 212.065159 
L 203.016814 210.38717 
L 206.760254 210.38717 
L 207.073024 209.82784 
L 207.827277 206.471861 
L 208.110249 208.149851 
L 208.447476 207.590521 
L 208.820882 208.149851 
L 209.083649 208.149851 
L 209.481803 202.556553 
L 209.695298 202.556553 
L 209.736735 201.997223 
L 210.408559 201.997223 
L 210.786697 200.878564 
L 211.120078 199.200574 
L 212.122954 198.641245 
L 212.186411 199.200574 
L 212.730926 199.759904 
L 212.811801 199.200574 
L 215.435529 199.200574 
L 215.618094 198.641245 
L 216.107737 198.081915 
L 216.761579 196.963255 
L 216.931641 195.844596 
L 217.161448 195.844596 
L 217.418889 194.725936 
L 217.728851 195.285266 
L 218.07592 195.285266 
L 218.337437 195.844596 
L 218.706111 195.285266 
L 219.035091 195.285266 
L 219.350397 194.725936 
L 219.60564 194.725936 
L 220.0861 195.285266 
L 220.335878 194.725936 
L 220.594398 195.285266 
L 221.030504 198.081915 
L 221.345124 198.641245 
L 222.067269 197.522585 
L 222.17285 193.607277 
L 222.333821 193.607277 
L 222.628359 193.047947 
L 222.970543 193.607277 
L 223.282956 193.607277 
L 223.667806 194.166606 
L 224.001145 193.047947 
L 225.204203 193.047947 
L 225.682319 192.488617 
L 225.955555 192.488617 
L 225.976757 191.929287 
L 227.33998 191.929287 
L 227.728084 190.810628 
L 229.635485 190.810628 
L 230.015718 189.691968 
L 233.66928 189.691968 
L 233.888097 189.132638 
L 234.478252 189.132638 
L 234.974834 188.573309 
L 235.307478 187.454649 
L 235.406946 188.013979 
L 235.768506 186.895319 
L 236.572826 186.895319 
L 239.830461 185.77666 
L 247.882778 185.77666 
L 248.210776 186.335989 
L 249.785087 186.335989 
L 250.111411 185.77666 
L 251.192798 185.77666 
L 251.566028 185.21733 
L 251.834402 185.77666 
L 252.145867 185.21733 
L 252.490496 185.77666 
L 252.773349 184.658 
L 253.206559 185.21733 
L 253.522652 184.658 
L 260.393586 184.658 
L 260.748511 185.77666 
L 261.124515 185.21733 
L 261.464573 185.77666 
L 261.845474 185.21733 
L 262.150945 185.77666 
L 263.425822 185.77666 
L 263.749536 185.21733 
L 264.115187 185.77666 
L 264.448315 184.658 
L 265.108864 184.658 
L 265.481545 185.21733 
L 265.760426 184.09867 
L 266.119177 184.09867 
L 266.396343 184.658 
L 267.271135 183.539341 
L 267.782894 184.09867 
L 268.086942 183.539341 
L 268.733803 183.539341 
L 269.09889 184.09867 
L 269.457383 182.420681 
L 269.80243 182.980011 
L 270.464864 182.980011 
L 270.717378 183.539341 
L 271.040325 182.980011 
L 271.392763 182.980011 
L 271.707287 187.454649 
L 271.832243 186.895319 
L 272.079408 186.895319 
L 272.251588 186.335989 
L 272.401649 186.335989 
L 272.599218 185.77666 
L 272.733107 186.895319 
L 273.046626 186.335989 
L 273.175005 186.335989 
L 273.39411 185.77666 
L 273.962026 185.77666 
L 274.23821 184.658 
L 274.511926 185.77666 
L 274.690131 185.21733 
L 275.69486 185.21733 
L 275.993965 185.77666 
L 276.277628 185.77666 
L 276.63408 185.21733 
L 276.963689 185.21733 
L 277.354414 185.77666 
L 277.731469 185.21733 
L 278.024027 185.21733 
L 278.484421 184.09867 
L 280.3625 184.09867 
L 280.671417 184.658 
L 282.126982 184.658 
L 282.461272 184.09867 
L 282.724232 183.539341 
L 283.239084 183.539341 
L 283.399709 182.420681 
L 283.473393 182.980011 
L 283.647603 182.420681 
L 284.137619 182.420681 
L 284.377834 181.302021 
L 285.031886 181.302021 
L 285.337189 180.183362 
L 286.346864 180.183362 
L 286.589002 178.505373 
L 286.812435 177.946043 
L 286.941379 177.946043 
L 287.376338 177.386713 
L 287.529427 177.946043 
L 287.603617 177.386713 
L 287.760585 177.386713 
L 287.944339 176.827383 
L 288.081859 176.827383 
L 288.643513 176.268053 
L 289.903573 176.268053 
L 290.22855 176.827383 
L 290.539935 176.268053 
L 290.890945 176.268053 
L 291.059169 175.708724 
L 291.099631 176.268053 
L 291.299295 175.708724 
L 291.455458 175.708724 
L 291.609675 174.590064 
L 292.203506 173.471405 
L 292.635921 174.030734 
L 292.964682 173.471405 
L 293.610994 173.471405 
L 293.961779 172.352745 
L 294.090196 172.912075 
L 294.298817 171.234085 
L 294.594437 171.793415 
L 294.786162 171.234085 
L 294.937758 171.793415 
L 295.105279 170.674756 
L 295.446727 170.674756 
L 295.547856 170.115426 
L 295.94845 170.674756 
L 296.258277 169.556096 
L 296.95729 169.556096 
L 297.208921 168.437437 
L 297.565838 169.556096 
L 297.808316 169.556096 
L 297.897216 168.996766 
L 298.549587 168.996766 
L 298.854744 166.759447 
L 299.293606 168.996766 
L 299.361648 168.437437 
L 299.9395 168.996766 
L 299.994219 167.878107 
L 300.192966 167.878107 
L 300.593453 167.318777 
L 300.918469 167.878107 
L 301.16401 167.878107 
L 301.527362 166.759447 
L 301.922661 166.759447 
L 302.306002 167.318777 
L 302.592501 166.759447 
L 302.76658 167.318777 
L 302.93972 166.200117 
L 304.473895 166.200117 
L 304.945422 165.640788 
L 305.908165 165.640788 
L 306.249763 166.759447 
L 306.893577 166.759447 
L 307.215803 166.200117 
L 310.147163 166.200117 
L 310.542768 166.759447 
L 310.9136 165.640788 
L 315.412283 165.640788 
L 316.399172 165.081458 
L 316.985328 165.081458 
L 317.461368 164.522128 
L 317.837567 164.522128 
L 318.058633 163.403468 
L 318.409118 163.962798 
L 323.066117 163.962798 
L 323.472832 164.522128 
L 323.795284 163.962798 
L 324.113841 164.522128 
L 324.330183 166.759447 
L 326.308428 166.759447 
L 326.634679 165.640788 
L 327.092583 166.759447 
L 328.987976 166.759447 
L 329.272057 165.640788 
L 329.379419 166.759447 
L 329.866015 166.759447 
L 330.090941 165.640788 
L 330.261832 166.759447 
L 330.37447 166.759447 
L 330.586153 165.640788 
L 330.736398 165.640788 
L 330.930179 166.759447 
L 331.099658 165.640788 
L 331.208266 166.759447 
L 331.25201 165.640788 
L 332.41761 165.640788 
L 332.799179 163.962798 
L 333.22332 163.962798 
L 333.258303 163.403468 
L 333.600295 163.403468 
L 333.77738 162.844139 
L 333.928361 163.403468 
L 334.113846 162.844139 
L 334.239282 163.403468 
L 334.533475 162.844139 
L 334.657893 163.403468 
L 334.674955 162.844139 
L 335.047866 162.844139 
L 335.281519 162.284809 
L 335.428886 162.284809 
L 335.649572 161.166149 
L 335.894441 160.60682 
L 336.063559 161.166149 
L 337.947221 161.166149 
L 338.216551 160.60682 
L 339.66017 160.60682 
L 339.890453 160.04749 
L 340.194846 160.04749 
L 340.42072 159.48816 
L 340.545216 160.04749 
L 341.142497 160.04749 
L 341.34406 158.92883 
L 341.892686 158.92883 
L 341.945371 158.3695 
L 342.021925 158.92883 
L 342.326337 158.92883 
L 342.352834 158.3695 
L 342.574111 157.810171 
L 342.635956 158.3695 
L 342.886785 156.132181 
L 343.902643 156.132181 
L 344.00477 155.572852 
L 344.227317 155.572852 
L 344.357684 154.454192 
L 344.510685 155.572852 
L 345.859276 155.572852 
L 345.937311 155.013522 
L 346.195984 155.572852 
L 346.319835 155.013522 
L 346.548821 155.572852 
L 346.846264 155.572852 
L 347.028667 154.454192 
L 347.361166 154.454192 
L 347.497554 155.013522 
L 347.614409 153.894862 
L 347.959518 155.572852 
L 348.321166 154.454192 
L 348.583147 155.572852 
L 349.196422 155.572852 
L 349.673705 153.894862 
L 349.82222 154.454192 
L 349.98669 153.894862 
L 350.430483 155.013522 
L 350.572589 153.894862 
L 351.625805 153.894862 
L 351.795572 153.335532 
L 352.091415 153.335532 
L 352.249123 153.894862 
L 352.448166 153.335532 
L 352.574024 153.894862 
L 352.957423 152.776203 
L 353.480871 152.776203 
L 353.85004 151.657543 
L 354.491379 152.776203 
L 354.628439 152.216873 
L 354.797054 152.776203 
L 354.903981 152.216873 
L 355.118508 152.216873 
L 355.208417 152.776203 
L 355.623812 151.657543 
L 355.837652 152.216873 
L 355.943455 151.657543 
L 356.161474 152.216873 
L 356.451028 152.216873 
L 356.63779 151.657543 
L 356.76059 152.216873 
L 356.881608 152.216873 
L 357.151541 152.776203 
L 357.272463 151.657543 
L 357.820586 151.657543 
L 357.857534 150.538884 
L 360.201824 150.538884 
L 360.433094 149.979554 
L 360.584893 150.538884 
L 360.713499 149.979554 
L 360.811186 150.538884 
L 360.928363 149.420224 
L 361.468251 149.420224 
L 361.722925 148.860894 
L 361.774539 149.420224 
L 361.82742 148.860894 
L 362.118239 149.420224 
L 362.1934 148.860894 
L 362.477804 148.301564 
L 362.589198 147.742235 
L 362.801856 147.742235 
L 362.850753 147.182905 
L 363.146842 145.504916 
L 363.28011 146.064245 
L 363.459976 146.064245 
L 363.49238 144.945586 
L 364.756101 144.945586 
L 364.913062 144.386256 
L 365.160633 144.945586 
L 365.891716 143.267596 
L 366.12231 143.267596 
L 366.259534 142.708267 
L 366.579158 142.708267 
L 366.586994 142.148937 
L 366.685522 142.708267 
L 366.77997 141.589607 
L 366.919566 141.589607 
L 367.112802 141.030277 
L 368.438376 141.030277 
L 368.473358 141.589607 
L 368.556808 140.470948 
L 368.906387 140.470948 
L 369.084918 141.030277 
L 369.222346 140.470948 
L 369.429252 141.030277 
L 369.584274 140.470948 
L 369.758446 140.470948 
L 369.908108 141.030277 
L 370.056503 139.352288 
L 371.832954 139.352288 
L 372.36717 138.233628 
L 372.648373 138.792958 
L 379.359019 138.792958 
L 379.472954 138.233628 
L 379.676736 138.792958 
L 379.735468 138.233628 
L 380.344385 138.233628 
L 380.512996 137.674299 
L 381.367611 137.674299 
L 381.481799 137.114969 
L 381.642754 137.674299 
L 382.951896 137.674299 
L 383.133481 137.114969 
L 383.362157 137.674299 
L 383.488422 137.674299 
L 383.68964 136.555639 
L 383.800332 137.114969 
L 384.290958 137.114969 
L 384.504733 136.555639 
L 385.510978 136.555639 
L 385.674892 137.674299 
L 386.007026 136.555639 
L 387.79408 136.555639 
L 387.977304 135.996309 
L 388.140992 135.996309 
L 388.317278 135.43698 
L 388.449042 135.43698 
L 388.612146 134.87765 
L 388.993765 134.87765 
L 389.06137 134.31832 
L 389.379504 134.31832 
L 389.580458 135.43698 
L 389.737373 134.87765 
L 389.977564 134.87765 
L 390.075505 134.31832 
L 390.442959 134.31832 
L 390.771612 133.75899 
L 391.129991 132.081001 
L 391.247326 132.640331 
L 391.356579 132.081001 
L 391.607347 131.521671 
L 391.726259 132.081001 
L 392.045441 131.521671 
L 392.256533 132.081001 
L 392.428936 132.081001 
L 392.766692 130.403012 
L 392.970692 130.962341 
L 393.09221 130.962341 
L 393.251734 130.403012 
L 393.293682 129.843682 
L 393.429325 129.843682 
L 393.495522 130.403012 
L 393.714627 129.843682 
L 393.866345 130.403012 
L 393.991424 129.843682 
L 394.531565 129.843682 
L 394.732676 133.19966 
L 395.269793 132.081001 
L 395.624434 132.081001 
L 395.74848 131.521671 
L 395.941694 132.081001 
L 396.065713 132.081001 
L 396.212463 132.640331 
L 396.381197 132.081001 
L 396.612973 132.081001 
L 396.727015 132.640331 
L 396.871907 132.081001 
L 397.069518 132.640331 
L 397.147189 132.081001 
L 397.433062 131.521671 
L 397.715746 131.521671 
L 397.859759 132.081001 
L 398.133195 131.521671 
L 399.249664 131.521671 
L 399.347996 128.725022 
L 399.63624 130.962341 
L 399.938887 131.521671 
L 400.483272 131.521671 
L 400.900625 130.403012 
L 401.043779 132.081001 
L 401.284723 131.521671 
L 401.591875 132.081001 
L 401.73238 130.403012 
L 401.90202 131.521671 
L 402.062342 131.521671 
L 402.169113 130.962341 
L 402.263096 126.487703 
L 402.589489 128.725022 
L 402.616567 125.928373 
L 403.488995 125.928373 
L 403.901689 124.809714 
L 404.071932 125.369044 
L 404.683104 125.369044 
L 404.849628 125.928373 
L 405.027606 125.369044 
L 405.222827 125.369044 
L 405.337514 125.928373 
L 405.686421 125.369044 
L 405.891393 125.369044 
L 406.02577 124.809714 
L 406.190118 125.369044 
L 406.36668 125.369044 
L 406.532145 125.928373 
L 406.63464 125.369044 
L 407.556349 125.369044 
L 407.786944 123.691054 
L 408.065744 124.250384 
L 408.296331 124.250384 
L 408.483009 124.809714 
L 408.567887 124.250384 
L 408.857048 124.809714 
L 408.96515 124.250384 
L 409.21989 124.250384 
L 409.319549 123.691054 
L 409.623977 124.250384 
L 410.251294 124.250384 
L 410.483868 123.691054 
L 410.871296 123.691054 
L 410.968983 123.131724 
L 411.134087 123.691054 
L 411.520046 122.572395 
L 411.634886 122.572395 
L 411.805209 122.013065 
L 411.962216 122.013065 
L 412.257636 121.453735 
L 414.660713 121.453735 
L 414.916723 120.894405 
L 415.156777 120.894405 
L 415.205651 122.013065 
L 415.26618 121.453735 
L 415.657825 121.453735 
L 415.74722 120.894405 
L 416.262547 120.894405 
L 416.508656 120.335075 
L 416.839202 120.335075 
L 416.850196 120.894405 
L 416.960079 120.335075 
L 417.061131 120.894405 
L 418.500467 120.894405 
L 418.770349 121.453735 
L 419.523198 120.894405 
L 421.084416 120.894405 
L 421.151971 120.335075 
L 422.790226 120.335075 
L 422.937796 119.775746 
L 424.452849 116.979097 
L 424.59644 116.979097 
L 424.746248 116.419767 
L 424.812963 116.979097 
L 425.135591 116.419767 
L 425.435333 115.860437 
L 425.793807 115.860437 
L 425.914189 115.301107 
L 426.367215 115.301107 
L 427.023371 115.860437 
L 427.056427 114.182448 
L 427.584511 114.182448 
L 427.748183 114.741778 
L 427.867064 114.182448 
L 428.752452 114.182448 
L 429.080296 114.741778 
L 430.663038 114.741778 
L 431.466445 114.182448 
L 433.089378 114.182448 
L 433.888537 113.623118 
L 433.995419 113.063788 
L 436.398868 113.063788 
L 436.624661 113.623118 
L 437.844793 113.623118 
L 438.735702 114.182448 
L 439.38492 114.182448 
L 439.707099 113.623118 
L 439.993134 112.504459 
L 440.163433 112.504459 
L 440.17008 113.063788 
L 442.080324 113.063788 
L 442.285342 112.504459 
L 447.111144 112.504459 
L 447.719622 111.945129 
L 447.954119 111.945129 
L 448.045655 110.826469 
L 448.343892 110.826469 
L 448.46914 111.385799 
L 448.663294 110.826469 
L 449.753411 110.826469 
L 450.239328 110.267139 
L 450.576865 109.14848 
L 453.533058 109.14848 
L 454.053374 109.70781 
L 454.203918 109.14848 
L 454.356209 109.70781 
L 454.527407 109.14848 
L 455.338194 109.14848 
L 455.712007 109.70781 
L 455.901697 109.14848 
L 456.424746 110.267139 
L 456.6286 109.14848 
L 457.894352 109.14848 
L 457.909325 108.58915 
L 459.915265 108.58915 
L 460.890576 108.02982 
L 461.183265 108.58915 
L 461.396418 108.02982 
L 461.534364 108.58915 
L 461.727063 108.58915 
L 461.858888 108.02982 
L 462.323534 109.14848 
L 462.63031 108.58915 
L 463.042732 109.14848 
L 463.348215 109.14848 
L 463.486951 108.58915 
L 464.329175 108.58915 
L 465.329879 109.14848 
L 465.480504 108.58915 
L 466.476257 108.58915 
L 466.79955 109.14848 
L 471.867596 108.58915 
L 472.247073 109.14848 
L 472.575032 108.58915 
L 472.868906 109.14848 
L 472.901786 108.58915 
L 473.157631 108.02982 
L 473.3058 108.02982 
L 473.441336 107.470491 
L 475.797645 107.470491 
L 475.847855 106.911161 
L 476.140747 106.911161 
L 476.92281 107.470491 
L 476.947689 106.911161 
L 477.248164 107.470491 
L 477.321195 106.351831 
L 477.514596 106.351831 
L 477.906963 105.792501 
L 478.564497 105.792501 
L 478.963756 106.351831 
L 479.412668 105.233171 
L 479.43108 104.673842 
L 479.740143 104.114512 
L 479.867168 104.114512 
L 480.187905 104.673842 
L 480.638901 104.673842 
L 480.732654 104.114512 
L 481.759507 104.114512 
L 481.900968 104.673842 
L 482.07415 103.555182 
L 482.216889 103.555182 
L 482.487796 104.114512 
L 482.734173 103.555182 
L 483.283601 103.555182 
L 483.525573 101.877193 
L 485.251312 101.877193 
L 485.45763 101.317863 
L 485.583964 101.317863 
L 485.791844 101.877193 
L 485.845458 101.317863 
L 486.396113 101.317863 
L 486.506867 100.758533 
L 486.807675 100.199203 
L 486.893593 99.080544 
L 487.362917 99.080544 
L 487.539253 97.402555 
L 487.906419 97.402555 
L 488.121157 97.961884 
L 488.237168 97.402555 
L 488.393334 97.402555 
L 488.405261 95.724565 
L 489.24047 95.724565 
L 489.38525 95.165235 
L 489.745298 95.165235 
L 490.118393 95.724565 
L 490.156768 94.605906 
L 490.487114 94.605906 
L 490.548007 94.046576 
L 490.778183 93.487246 
L 491.386236 93.487246 
L 491.475607 92.368587 
L 491.736552 92.368587 
L 491.889537 91.809257 
L 492.036336 91.809257 
L 492.562769 91.249927 
L 492.7688 91.809257 
L 492.891496 97.961884 
L 493.024564 98.521214 
L 493.114687 96.283895 
L 493.763851 96.283895 
L 494.030671 96.843225 
L 494.225078 95.724565 
L 495.185155 95.724565 
L 495.378663 96.283895 
L 495.530175 95.724565 
L 496.552733 95.724565 
L 496.678641 95.165235 
L 497.144834 96.283895 
L 497.523919 95.724565 
L 497.741151 95.724565 
L 497.824586 95.165235 
L 498.016372 96.283895 
L 498.2028 95.165235 
L 498.976329 95.165235 
L 499.096224 95.724565 
L 499.371762 95.724565 
L 499.415107 95.165235 
L 499.727094 94.605906 
L 499.73927 95.165235 
L 499.990637 94.605906 
L 500.325998 94.605906 
L 500.627985 94.046576 
L 502.195082 94.046576 
L 502.312586 93.487246 
L 502.623364 94.046576 
L 502.633741 93.487246 
L 503.079994 92.927916 
L 503.354189 92.927916 
L 503.669722 92.368587 
L 503.82727 91.809257 
L 503.947725 91.809257 
L 504.326765 92.927916 
L 504.401641 91.809257 
L 504.656523 92.368587 
L 504.871058 91.809257 
L 505.828513 91.809257 
L 505.93579 91.249927 
L 506.069491 91.809257 
L 506.532817 91.249927 
L 506.756616 91.809257 
L 506.983426 91.249927 
L 507.119699 91.809257 
L 507.437066 90.690597 
L 507.656344 91.249927 
L 508.406353 91.249927 
L 508.704736 90.690597 
L 509.140421 90.690597 
L 509.48706 91.809257 
L 509.579452 91.249927 
L 509.94983 91.249927 
L 510.043825 90.131267 
L 510.510954 91.249927 
L 510.674086 90.690597 
L 511.050462 91.249927 
L 511.325199 91.249927 
L 511.46595 90.690597 
L 511.802382 90.690597 
L 512.242971 90.131267 
L 512.300049 91.249927 
L 512.458238 90.131267 
L 512.603264 90.690597 
L 512.69031 90.131267 
L 513.035626 90.690597 
L 513.449955 90.131267 
L 513.65866 90.131267 
L 513.945151 90.690597 
L 514.352377 90.690597 
L 514.769906 89.571938 
L 514.988616 90.131267 
L 515.43087 90.131267 
L 515.637684 90.690597 
L 515.66813 91.249927 
L 515.925771 90.131267 
L 516.062405 90.690597 
L 516.223118 90.131267 
L 516.461925 90.690597 
L 516.73221 90.690597 
L 516.905845 91.249927 
L 517.235139 91.249927 
L 517.577976 90.131267 
L 517.810608 90.690597 
L 518.093906 89.571938 
L 518.241442 89.571938 
L 518.334048 90.131267 
L 518.622174 90.131267 
L 518.646357 89.571938 
L 519.601506 89.571938 
L 519.757984 89.012608 
L 519.892012 89.012608 
L 520.098622 88.453278 
L 520.276826 89.012608 
L 520.412735 88.453278 
L 520.615354 88.453278 
L 520.729415 87.893948 
L 520.876633 88.453278 
L 520.924064 87.893948 
L 521.087038 86.775289 
L 521.286149 87.334619 
L 521.348812 87.893948 
L 521.558799 87.334619 
L 521.730403 87.893948 
L 521.937239 87.334619 
L 522.276193 87.334619 
L 522.370572 86.775289 
L 522.604731 87.334619 
L 523.219695 85.656629 
L 523.385121 85.656629 
L 523.556231 86.775289 
L 523.637125 86.215959 
L 523.879043 86.215959 
L 523.98911 86.775289 
L 524.186925 86.775289 
L 524.367021 86.215959 
L 524.598552 86.215959 
L 524.987266 84.53797 
L 525.194072 85.097299 
L 527.91257 85.097299 
L 528.039077 84.53797 
L 528.199503 84.53797 
L 528.328515 85.097299 
L 528.587361 84.53797 
L 529.232242 84.53797 
L 529.340121 83.41931 
L 529.896556 84.53797 
L 530.500196 84.53797 
L 531.153888 83.41931 
L 532.309488 83.97864 
L 532.602959 83.41931 
L 532.926267 83.97864 
L 533.157172 82.85998 
L 533.249782 83.97864 
L 533.554167 82.85998 
L 533.885806 83.97864 
L 533.995589 82.85998 
L 534.208254 82.85998 
L 534.325159 83.41931 
L 534.537057 82.85998 
L 534.664224 82.85998 
L 534.782675 83.41931 
L 534.926596 81.741321 
L 535.304043 82.85998 
L 535.657072 82.85998 
L 535.872785 82.300651 
L 536.279884 82.300651 
L 536.610955 82.85998 
L 536.804502 82.85998 
L 536.950818 81.741321 
L 537.133328 82.85998 
L 537.235225 82.300651 
L 537.481261 81.741321 
L 537.63212 81.741321 
L 537.895874 82.85998 
L 538.148085 81.181991 
L 538.465088 81.181991 
L 538.489149 80.063331 
L 538.511287 80.622661 
L 538.677078 81.181991 
L 538.851357 80.063331 
L 538.924051 81.181991 
L 539.186765 81.181991 
L 539.222561 80.622661 
L 539.51855 80.063331 
L 539.695695 80.063331 
L 539.778727 81.181991 
L 540.175945 80.063331 
L 540.240272 81.181991 
L 540.456626 80.063331 
L 540.623057 81.741321 
L 541.128991 80.622661 
L 541.510126 82.300651 
L 541.539598 81.741321 
L 541.781014 82.300651 
L 541.933638 82.300651 
L 542.092084 81.181991 
L 542.281302 82.300651 
L 542.645088 81.181991 
L 542.783107 82.300651 
L 542.932546 81.741321 
L 543.237073 81.741321 
L 543.43818 82.300651 
L 543.823152 82.300651 
L 543.834903 81.741321 
L 544.440803 82.85998 
L 544.762142 81.181991 
L 544.932687 81.181991 
L 545.131457 81.741321 
L 545.187642 80.622661 
L 545.469816 81.741321 
L 545.643565 80.622661 
L 545.818723 81.741321 
L 545.89111 81.181991 
L 546.25034 81.181991 
L 546.465619 80.622661 
L 546.564081 79.504002 
L 546.764528 80.622661 
L 547.09431 80.063331 
L 547.240192 79.504002 
L 547.420442 80.063331 
L 547.57434 77.826012 
L 547.815906 77.826012 
L 548.135365 77.266683 
L 548.173905 78.385342 
L 548.488317 77.266683 
L 548.935867 78.385342 
L 549.056798 76.707353 
L 549.419693 76.148023 
L 549.814946 77.266683 
L 550.065457 77.826012 
L 550.761814 77.266683 
L 550.845222 76.707353 
L 551.823921 76.707353 
L 552.120401 76.148023 
L 552.420297 74.470034 
L 553.190253 75.029363 
L 553.782192 75.029363 
L 554.109118 74.470034 
L 554.19339 75.029363 
L 554.441774 73.910704 
L 554.497111 75.029363 
L 554.768962 74.470034 
L 555.262101 74.470034 
L 555.515164 73.351374 
L 555.747439 74.470034 
L 556.06468 73.351374 
L 556.188358 73.910704 
L 556.357791 73.351374 
L 556.800149 73.910704 
L 557.055821 73.351374 
L 557.803646 73.351374 
L 557.982143 73.910704 
L 558.415268 72.792044 
L 558.59132 73.910704 
L 558.743173 73.910704 
L 558.80222 73.351374 
L 559.017499 73.351374 
L 559.249682 72.792044 
L 559.408558 73.910704 
L 559.655235 72.792044 
L 559.763567 73.910704 
L 560.066052 72.792044 
L 560.252051 72.792044 
L 560.37208 73.351374 
L 560.568774 73.351374 
L 560.624356 73.910704 
L 560.635769 73.351374 
L 560.971556 73.351374 
L 561.085169 73.910704 
L 561.393192 72.792044 
L 561.676843 73.910704 
L 562.162952 73.351374 
L 563.201762 73.351374 
L 563.450884 73.910704 
L 563.715735 73.351374 
L 563.715735 73.351374 
" clip-path="url(#pcc957f89c6)" style="fill: none; stroke-dasharray: 6,1.5; stroke-dashoffset: 0; stroke: #008000; stroke-width: 1.5"/>
   </g>
   <g id="line2d_20">
    <path d="M 38.539265 361.96554 
L 39.89474 363.0842 
L 41.24584 363.0842 
L 42.552733 362.52487 
L 44.445379 362.52487 
L 48.398192 361.96554 
L 48.509798 362.52487 
L 51.93277 362.52487 
L 52.255364 363.643529 
L 52.969078 363.643529 
L 53.265838 360.287551 
L 53.661332 363.643529 
L 55.587272 363.643529 
L 55.94044 360.287551 
L 58.596606 360.287551 
L 59.996742 360.846881 
L 60.187415 361.40621 
L 61.251748 361.40621 
L 61.550484 359.728221 
L 64.815817 359.728221 
L 65.203118 360.287551 
L 75.15857 360.287551 
L 75.472146 359.728221 
L 81.470482 359.728221 
L 81.769307 361.96554 
L 131.509046 361.96554 
L 131.844434 363.0842 
L 132.249952 366.440178 
L 132.539628 366.440178 
L 132.867054 366.999508 
L 134.833414 366.999508 
L 137.545093 368.677497 
L 137.821975 368.677497 
L 138.286234 369.236827 
L 151.992935 369.236827 
L 152.729474 370.355487 
L 183.827503 370.355487 
L 184.177312 370.914817 
L 184.540476 370.355487 
L 186.654863 370.355487 
L 186.965703 370.914817 
L 192.621656 370.914817 
L 193.863404 372.033476 
L 194.070497 370.914817 
L 194.469131 370.914817 
L 194.797711 372.033476 
L 202.452593 372.033476 
L 202.809202 371.474146 
L 203.016814 372.033476 
L 221.030504 372.033476 
L 221.345124 373.152136 
L 261.464573 373.152136 
L 261.845474 373.711465 
L 353.85004 373.711465 
L 354.217974 373.152136 
L 365.160633 373.152136 
L 365.589472 373.711465 
L 365.704086 374.830125 
L 394.531565 374.830125 
L 394.732676 374.270795 
L 397.557933 374.270795 
L 397.715746 374.830125 
L 511.662364 374.830125 
L 511.688531 374.270795 
L 520.412735 374.270795 
L 520.729415 374.830125 
L 553.438273 374.830125 
L 553.782192 374.270795 
L 563.715735 374.270795 
L 563.715735 374.270795 
" clip-path="url(#pcc957f89c6)" style="fill: none; stroke-dasharray: 9,3; stroke-dashoffset: 0; stroke: #ffa500; stroke-width: 1.5"/>
   </g>
   <g id="line2d_21">
    <path d="M 38.539265 323.371785 
L 48.398192 323.371785 
L 48.509798 323.931115 
L 51.93277 323.931115 
L 52.255364 324.490445 
L 52.969078 324.490445 
L 53.265838 325.609104 
L 53.661332 324.490445 
L 55.587272 324.490445 
L 56.179185 326.168434 
L 57.572171 326.168434 
L 57.886004 326.727764 
L 58.075768 326.168434 
L 58.234501 326.727764 
L 72.844404 326.727764 
L 73.155408 327.846424 
L 73.277793 326.727764 
L 73.823076 327.846424 
L 91.276737 327.846424 
L 92.016377 328.405753 
L 92.183929 327.846424 
L 93.370332 327.846424 
L 93.692504 328.405753 
L 94.047955 327.846424 
L 94.893663 327.846424 
L 95.360792 328.405753 
L 95.707573 327.846424 
L 122.594016 327.846424 
L 122.883942 328.405753 
L 123.254412 328.405753 
L 123.582927 327.846424 
L 123.920917 327.846424 
L 124.15381 328.405753 
L 124.406221 327.846424 
L 124.825688 328.405753 
L 131.844434 328.405753 
L 132.249952 327.846424 
L 132.539628 327.846424 
L 132.867054 328.965083 
L 134.463058 328.965083 
L 134.833414 331.761732 
L 137.545093 329.524413 
L 137.821975 330.083743 
L 139.760767 330.083743 
L 140.139012 332.880392 
L 140.472558 333.439721 
L 155.498206 333.439721 
L 156.023484 332.880392 
L 156.439156 333.439721 
L 157.366288 332.880392 
L 159.62435 332.880392 
L 160.96022 333.439721 
L 166.5375 333.439721 
L 166.959212 333.999051 
L 202.181452 333.999051 
L 202.452593 334.558381 
L 202.809202 333.999051 
L 209.083649 333.999051 
L 209.481803 341.270338 
L 210.408559 341.270338 
L 210.786697 345.744976 
L 211.120078 347.422966 
L 231.310515 347.422966 
L 234.15027 347.982296 
L 264.115187 347.982296 
L 264.448315 350.219615 
L 271.392763 350.219615 
L 271.707287 346.863636 
L 287.760585 346.863636 
L 287.944339 347.422966 
L 317.837567 347.422966 
L 318.058633 347.982296 
L 318.409118 347.422966 
L 326.484933 347.422966 
L 326.634679 347.982296 
L 326.940216 347.422966 
L 328.987976 347.422966 
L 329.272057 347.982296 
L 329.379419 347.422966 
L 332.41761 347.422966 
L 332.629769 347.982296 
L 342.140357 347.982296 
L 342.326337 347.422966 
L 354.217974 347.422966 
L 354.491379 346.863636 
L 354.628439 347.422966 
L 354.797054 346.863636 
L 354.903981 347.422966 
L 355.118508 347.422966 
L 355.208417 346.863636 
L 355.448992 347.422966 
L 356.881608 347.422966 
L 357.151541 346.863636 
L 357.272463 347.422966 
L 365.589472 347.422966 
L 365.704086 346.863636 
L 394.531565 346.863636 
L 394.732676 347.422966 
L 399.249664 347.422966 
L 399.347996 350.219615 
L 399.63624 347.422966 
L 402.248794 347.422966 
L 402.263096 350.219615 
L 402.589489 347.422966 
L 402.616567 350.219615 
L 428.752452 350.219615 
L 429.080296 349.660285 
L 429.361936 350.219615 
L 461.183265 350.219615 
L 461.396418 350.778944 
L 461.534364 350.219615 
L 461.858888 350.219615 
L 462.323534 350.778944 
L 483.283601 350.778944 
L 483.525573 351.338274 
L 486.506867 351.338274 
L 486.807675 351.897604 
L 492.7688 351.897604 
L 492.891496 351.338274 
L 499.73927 351.338274 
L 499.990637 351.897604 
L 511.662364 351.897604 
L 511.688531 355.812913 
L 520.412735 355.812913 
L 520.729415 355.253583 
L 528.587361 355.253583 
L 529.340121 357.490902 
L 536.950818 357.490902 
L 537.235225 356.931572 
L 551.10574 356.931572 
L 551.58599 356.372242 
L 553.438273 356.372242 
L 553.782192 358.609561 
L 554.19339 359.168891 
L 556.357791 359.168891 
L 556.800149 359.728221 
L 563.715735 359.728221 
L 563.715735 359.728221 
" clip-path="url(#pcc957f89c6)" style="fill: none; stroke-dasharray: 12,4.5; stroke-dashoffset: 0; stroke: #ee82ee; stroke-width: 1.5"/>
   </g>
   <g id="patch_3">
    <path d="M 33.2875 374.830125 
L 33.2875 22.318125 
" style="fill: none; stroke: #000000; stroke-width: 0.8; stroke-linejoin: miter; stroke-linecap: square"/>
   </g>
   <g id="patch_4">
    <path d="M 568.9675 374.830125 
L 568.9675 22.318125 
" style="fill: none; stroke: #000000; stroke-width: 0.8; stroke-linejoin: miter; stroke-linecap: square"/>
   </g>
   <g id="patch_5">
    <path d="M 33.2875 374.830125 
L 568.9675 374.830125 
" style="fill: none; stroke: #000000; stroke-width: 0.8; stroke-linejoin: miter; stroke-linecap: square"/>
   </g>
   <g id="patch_6">
    <path d="M 33.2875 22.318125 
L 568.9675 22.318125 
" style="fill: none; stroke: #000000; stroke-width: 0.8; stroke-linejoin: miter; stroke-linecap: square"/>
   </g>
   <g id="text_17">
    <!-- Rust/Coreutils running GNU's testsuite -->
    <g transform="translate(186.090625 16.318125) scale(0.12 -0.12)">
     <defs>
      <path id="DejaVuSans-52" d="M 2841 2188 
Q 3044 2119 3236 1894 
Q 3428 1669 3622 1275 
L 4263 0 
L 3584 0 
L 2988 1197 
Q 2756 1666 2539 1819 
Q 2322 1972 1947 1972 
L 1259 1972 
L 1259 0 
L 628 0 
L 628 4666 
L 2053 4666 
Q 2853 4666 3247 4331 
Q 3641 3997 3641 3322 
Q 3641 2881 3436 2590 
Q 3231 2300 2841 2188 
z
M 1259 4147 
L 1259 2491 
L 2053 2491 
Q 2509 2491 2742 2702 
Q 2975 2913 2975 3322 
Q 2975 3731 2742 3939 
Q 2509 4147 2053 4147 
L 1259 4147 
z
" transform="scale(0.015625)"/>
      <path id="DejaVuSans-75" d="M 544 1381 
L 544 3500 
L 1119 3500 
L 1119 1403 
Q 1119 906 1312 657 
Q 1506 409 1894 409 
Q 2359 409 2629 706 
Q 2900 1003 2900 1516 
L 2900 3500 
L 3475 3500 
L 3475 0 
L 2900 0 
L 2900 538 
Q 2691 219 2414 64 
Q 2138 -91 1772 -91 
Q 1169 -91 856 284 
Q 544 659 544 1381 
z
M 1991 3584 
L 1991 3584 
z
" transform="scale(0.015625)"/>
      <path id="DejaVuSans-73" d="M 2834 3397 
L 2834 2853 
Q 2591 2978 2328 3040 
Q 2066 3103 1784 3103 
Q 1356 3103 1142 2972 
Q 928 2841 928 2578 
Q 928 2378 1081 2264 
Q 1234 2150 1697 2047 
L 1894 2003 
Q 2506 1872 2764 1633 
Q 3022 1394 3022 966 
Q 3022 478 2636 193 
Q 2250 -91 1575 -91 
Q 1294 -91 989 -36 
Q 684 19 347 128 
L 347 722 
Q 666 556 975 473 
Q 1284 391 1588 391 
Q 1994 391 2212 530 
Q 2431 669 2431 922 
Q 2431 1156 2273 1281 
Q 2116 1406 1581 1522 
L 1381 1569 
Q 847 1681 609 1914 
Q 372 2147 372 2553 
Q 372 3047 722 3315 
Q 1072 3584 1716 3584 
Q 2034 3584 2315 3537 
Q 2597 3491 2834 3397 
z
" transform="scale(0.015625)"/>
      <path id="DejaVuSans-74" d="M 1172 4494 
L 1172 3500 
L 2356 3500 
L 2356 3053 
L 1172 3053 
L 1172 1153 
Q 1172 725 1289 603 
Q 1406 481 1766 481 
L 2356 481 
L 2356 0 
L 1766 0 
Q 1100 0 847 248 
Q 594 497 594 1153 
L 594 3053 
L 172 3053 
L 172 3500 
L 594 3500 
L 594 4494 
L 1172 4494 
z
" transform="scale(0.015625)"/>
      <path id="DejaVuSans-2f" d="M 1625 4666 
L 2156 4666 
L 531 -594 
L 0 -594 
L 1625 4666 
z
" transform="scale(0.015625)"/>
      <path id="DejaVuSans-43" d="M 4122 4306 
L 4122 3641 
Q 3803 3938 3442 4084 
Q 3081 4231 2675 4231 
Q 1875 4231 1450 3742 
Q 1025 3253 1025 2328 
Q 1025 1406 1450 917 
Q 1875 428 2675 428 
Q 3081 428 3442 575 
Q 3803 722 4122 1019 
L 4122 359 
Q 3791 134 3420 21 
Q 3050 -91 2638 -91 
Q 1578 -91 968 557 
Q 359 1206 359 2328 
Q 359 3453 968 4101 
Q 1578 4750 2638 4750 
Q 3056 4750 3426 4639 
Q 3797 4528 4122 4306 
z
" transform="scale(0.015625)"/>
      <path id="DejaVuSans-6f" d="M 1959 3097 
Q 1497 3097 1228 2736 
Q 959 2375 959 1747 
Q 959 1119 1226 758 
Q 1494 397 1959 397 
Q 2419 397 2687 759 
Q 2956 1122 2956 1747 
Q 2956 2369 2687 2733 
Q 2419 3097 1959 3097 
z
M 1959 3584 
Q 2709 3584 3137 3096 
Q 3566 2609 3566 1747 
Q 3566 888 3137 398 
Q 2709 -91 1959 -91 
Q 1206 -91 779 398 
Q 353 888 353 1747 
Q 353 2609 779 3096 
Q 1206 3584 1959 3584 
z
" transform="scale(0.015625)"/>
      <path id="DejaVuSans-72" d="M 2631 2963 
Q 2534 3019 2420 3045 
Q 2306 3072 2169 3072 
Q 1681 3072 1420 2755 
Q 1159 2438 1159 1844 
L 1159 0 
L 581 0 
L 581 3500 
L 1159 3500 
L 1159 2956 
Q 1341 3275 1631 3429 
Q 1922 3584 2338 3584 
Q 2397 3584 2469 3576 
Q 2541 3569 2628 3553 
L 2631 2963 
z
" transform="scale(0.015625)"/>
      <path id="DejaVuSans-65" d="M 3597 1894 
L 3597 1613 
L 953 1613 
Q 991 1019 1311 708 
Q 1631 397 2203 397 
Q 2534 397 2845 478 
Q 3156 559 3463 722 
L 3463 178 
Q 3153 47 2828 -22 
Q 2503 -91 2169 -91 
Q 1331 -91 842 396 
Q 353 884 353 1716 
Q 353 2575 817 3079 
Q 1281 3584 2069 3584 
Q 2775 3584 3186 3129 
Q 3597 2675 3597 1894 
z
M 3022 2063 
Q 3016 2534 2758 2815 
Q 2500 3097 2075 3097 
Q 1594 3097 1305 2825 
Q 1016 2553 972 2059 
L 3022 2063 
z
" transform="scale(0.015625)"/>
      <path id="DejaVuSans-69" d="M 603 3500 
L 1178 3500 
L 1178 0 
L 603 0 
L 603 3500 
z
M 603 4863 
L 1178 4863 
L 1178 4134 
L 603 4134 
L 603 4863 
z
" transform="scale(0.015625)"/>
      <path id="DejaVuSans-6c" d="M 603 4863 
L 1178 4863 
L 1178 0 
L 603 0 
L 603 4863 
z
" transform="scale(0.015625)"/>
      <path id="DejaVuSans-20" transform="scale(0.015625)"/>
      <path id="DejaVuSans-6e" d="M 3513 2113 
L 3513 0 
L 2938 0 
L 2938 2094 
Q 2938 2591 2744 2837 
Q 2550 3084 2163 3084 
Q 1697 3084 1428 2787 
Q 1159 2491 1159 1978 
L 1159 0 
L 581 0 
L 581 3500 
L 1159 3500 
L 1159 2956 
Q 1366 3272 1645 3428 
Q 1925 3584 2291 3584 
Q 2894 3584 3203 3211 
Q 3513 2838 3513 2113 
z
" transform="scale(0.015625)"/>
      <path id="DejaVuSans-67" d="M 2906 1791 
Q 2906 2416 2648 2759 
Q 2391 3103 1925 3103 
Q 1463 3103 1205 2759 
Q 947 2416 947 1791 
Q 947 1169 1205 825 
Q 1463 481 1925 481 
Q 2391 481 2648 825 
Q 2906 1169 2906 1791 
z
M 3481 434 
Q 3481 -459 3084 -895 
Q 2688 -1331 1869 -1331 
Q 1566 -1331 1297 -1286 
Q 1028 -1241 775 -1147 
L 775 -588 
Q 1028 -725 1275 -790 
Q 1522 -856 1778 -856 
Q 2344 -856 2625 -561 
Q 2906 -266 2906 331 
L 2906 616 
Q 2728 306 2450 153 
Q 2172 0 1784 0 
Q 1141 0 747 490 
Q 353 981 353 1791 
Q 353 2603 747 3093 
Q 1141 3584 1784 3584 
Q 2172 3584 2450 3431 
Q 2728 3278 2906 2969 
L 2906 3500 
L 3481 3500 
L 3481 434 
z
" transform="scale(0.015625)"/>
      <path id="DejaVuSans-47" d="M 3809 666 
L 3809 1919 
L 2778 1919 
L 2778 2438 
L 4434 2438 
L 4434 434 
Q 4069 175 3628 42 
Q 3188 -91 2688 -91 
Q 1594 -91 976 548 
Q 359 1188 359 2328 
Q 359 3472 976 4111 
Q 1594 4750 2688 4750 
Q 3144 4750 3555 4637 
Q 3966 4525 4313 4306 
L 4313 3634 
Q 3963 3931 3569 4081 
Q 3175 4231 2741 4231 
Q 1884 4231 1454 3753 
Q 1025 3275 1025 2328 
Q 1025 1384 1454 906 
Q 1884 428 2741 428 
Q 3075 428 3337 486 
Q 3600 544 3809 666 
z
" transform="scale(0.015625)"/>
      <path id="DejaVuSans-4e" d="M 628 4666 
L 1478 4666 
L 3547 763 
L 3547 4666 
L 4159 4666 
L 4159 0 
L 3309 0 
L 1241 3903 
L 1241 0 
L 628 0 
L 628 4666 
z
" transform="scale(0.015625)"/>
      <path id="DejaVuSans-55" d="M 556 4666 
L 1191 4666 
L 1191 1831 
Q 1191 1081 1462 751 
Q 1734 422 2344 422 
Q 2950 422 3222 751 
Q 3494 1081 3494 1831 
L 3494 4666 
L 4128 4666 
L 4128 1753 
Q 4128 841 3676 375 
Q 3225 -91 2344 -91 
Q 1459 -91 1007 375 
Q 556 841 556 1753 
L 556 4666 
z
" transform="scale(0.015625)"/>
      <path id="DejaVuSans-27" d="M 1147 4666 
L 1147 2931 
L 616 2931 
L 616 4666 
L 1147 4666 
z
" transform="scale(0.015625)"/>
     </defs>
     <use xlink:href="#DejaVuSans-52"/>
     <use xlink:href="#DejaVuSans-75" x="64.982422"/>
     <use xlink:href="#DejaVuSans-73" x="128.361328"/>
     <use xlink:href="#DejaVuSans-74" x="180.460938"/>
     <use xlink:href="#DejaVuSans-2f" x="219.669922"/>
     <use xlink:href="#DejaVuSans-43" x="253.361328"/>
     <use xlink:href="#DejaVuSans-6f" x="323.185547"/>
     <use xlink:href="#DejaVuSans-72" x="384.367188"/>
     <use xlink:href="#DejaVuSans-65" x="423.230469"/>
     <use xlink:href="#DejaVuSans-75" x="484.753906"/>
     <use xlink:href="#DejaVuSans-74" x="548.132812"/>
     <use xlink:href="#DejaVuSans-69" x="587.341797"/>
     <use xlink:href="#DejaVuSans-6c" x="615.125"/>
     <use xlink:href="#DejaVuSans-73" x="642.908203"/>
     <use xlink:href="#DejaVuSans-20" x="695.007812"/>
     <use xlink:href="#DejaVuSans-72" x="726.794922"/>
     <use xlink:href="#DejaVuSans-75" x="767.908203"/>
     <use xlink:href="#DejaVuSans-6e" x="831.287109"/>
     <use xlink:href="#DejaVuSans-6e" x="894.666016"/>
     <use xlink:href="#DejaVuSans-69" x="958.044922"/>
     <use xlink:href="#DejaVuSans-6e" x="985.828125"/>
     <use xlink:href="#DejaVuSans-67" x="1049.207031"/>
     <use xlink:href="#DejaVuSans-20" x="1112.683594"/>
     <use xlink:href="#DejaVuSans-47" x="1144.470703"/>
     <use xlink:href="#DejaVuSans-4e" x="1221.960938"/>
     <use xlink:href="#DejaVuSans-55" x="1296.765625"/>
     <use xlink:href="#DejaVuSans-27" x="1369.958984"/>
     <use xlink:href="#DejaVuSans-73" x="1397.449219"/>
     <use xlink:href="#DejaVuSans-20" x="1449.548828"/>
     <use xlink:href="#DejaVuSans-74" x="1481.335938"/>
     <use xlink:href="#DejaVuSans-65" x="1520.544922"/>
     <use xlink:href="#DejaVuSans-73" x="1582.068359"/>
     <use xlink:href="#DejaVuSans-74" x="1634.167969"/>
     <use xlink:href="#DejaVuSans-73" x="1673.376953"/>
     <use xlink:href="#DejaVuSans-75" x="1725.476562"/>
     <use xlink:href="#DejaVuSans-69" x="1788.855469"/>
     <use xlink:href="#DejaVuSans-74" x="1816.638672"/>
     <use xlink:href="#DejaVuSans-65" x="1855.847656"/>
    </g>
   </g>
   <g id="legend_1">
    <g id="patch_7">
     <path d="M 505.762812 236.769437 
L 561.9675 236.769437 
Q 563.9675 236.769437 563.9675 234.769437 
L 563.9675 162.378812 
Q 563.9675 160.378812 561.9675 160.378812 
L 505.762812 160.378812 
Q 503.762812 160.378812 503.762812 162.378812 
L 503.762812 234.769437 
Q 503.762812 236.769437 505.762812 236.769437 
z
" style="fill: #ffffff; opacity: 0.8; stroke: #cccccc; stroke-linejoin: miter"/>
    </g>
    <g id="line2d_22">
     <path d="M 507.762812 168.47725 
L 517.762812 168.47725 
L 527.762812 168.47725 
" style="fill: none; stroke: #0000ff; stroke-width: 1.5; stroke-linecap: square"/>
    </g>
    <g id="text_18">
     <!-- total -->
     <g transform="translate(535.762812 171.97725) scale(0.1 -0.1)">
      <defs>
       <path id="DejaVuSans-61" d="M 2194 1759 
Q 1497 1759 1228 1600 
Q 959 1441 959 1056 
Q 959 750 1161 570 
Q 1363 391 1709 391 
Q 2188 391 2477 730 
Q 2766 1069 2766 1631 
L 2766 1759 
L 2194 1759 
z
M 3341 1997 
L 3341 0 
L 2766 0 
L 2766 531 
Q 2569 213 2275 61 
Q 1981 -91 1556 -91 
Q 1019 -91 701 211 
Q 384 513 384 1019 
Q 384 1609 779 1909 
Q 1175 2209 1959 2209 
L 2766 2209 
L 2766 2266 
Q 2766 2663 2505 2880 
Q 2244 3097 1772 3097 
Q 1472 3097 1187 3025 
Q 903 2953 641 2809 
L 641 3341 
Q 956 3463 1253 3523 
Q 1550 3584 1831 3584 
Q 2591 3584 2966 3190 
Q 3341 2797 3341 1997 
z
" transform="scale(0.015625)"/>
      </defs>
      <use xlink:href="#DejaVuSans-74"/>
      <use xlink:href="#DejaVuSans-6f" x="39.208984"/>
      <use xlink:href="#DejaVuSans-74" x="100.390625"/>
      <use xlink:href="#DejaVuSans-61" x="139.599609"/>
      <use xlink:href="#DejaVuSans-6c" x="200.878906"/>
     </g>
    </g>
    <g id="line2d_23">
     <path d="M 507.762812 183.155375 
L 517.762812 183.155375 
L 527.762812 183.155375 
" style="fill: none; stroke-dasharray: 3,1.5; stroke-dashoffset: 0; stroke: #808080; stroke-width: 1.5"/>
    </g>
    <g id="text_19">
     <!-- fail -->
     <g transform="translate(535.762812 186.655375) scale(0.1 -0.1)">
      <defs>
       <path id="DejaVuSans-66" d="M 2375 4863 
L 2375 4384 
L 1825 4384 
Q 1516 4384 1395 4259 
Q 1275 4134 1275 3809 
L 1275 3500 
L 2222 3500 
L 2222 3053 
L 1275 3053 
L 1275 0 
L 697 0 
L 697 3053 
L 147 3053 
L 147 3500 
L 697 3500 
L 697 3744 
Q 697 4328 969 4595 
Q 1241 4863 1831 4863 
L 2375 4863 
z
" transform="scale(0.015625)"/>
      </defs>
      <use xlink:href="#DejaVuSans-66"/>
      <use xlink:href="#DejaVuSans-61" x="35.205078"/>
      <use xlink:href="#DejaVuSans-69" x="96.484375"/>
      <use xlink:href="#DejaVuSans-6c" x="124.267578"/>
     </g>
    </g>
    <g id="line2d_24">
     <path d="M 507.762812 197.8335 
L 517.762812 197.8335 
L 527.762812 197.8335 
" style="fill: none; stroke-dasharray: 6,1.5; stroke-dashoffset: 0; stroke: #008000; stroke-width: 1.5"/>
    </g>
    <g id="text_20">
     <!-- pass -->
     <g transform="translate(535.762812 201.3335) scale(0.1 -0.1)">
      <defs>
       <path id="DejaVuSans-70" d="M 1159 525 
L 1159 -1331 
L 581 -1331 
L 581 3500 
L 1159 3500 
L 1159 2969 
Q 1341 3281 1617 3432 
Q 1894 3584 2278 3584 
Q 2916 3584 3314 3078 
Q 3713 2572 3713 1747 
Q 3713 922 3314 415 
Q 2916 -91 2278 -91 
Q 1894 -91 1617 61 
Q 1341 213 1159 525 
z
M 3116 1747 
Q 3116 2381 2855 2742 
Q 2594 3103 2138 3103 
Q 1681 3103 1420 2742 
Q 1159 2381 1159 1747 
Q 1159 1113 1420 752 
Q 1681 391 2138 391 
Q 2594 391 2855 752 
Q 3116 1113 3116 1747 
z
" transform="scale(0.015625)"/>
      </defs>
      <use xlink:href="#DejaVuSans-70"/>
      <use xlink:href="#DejaVuSans-61" x="63.476562"/>
      <use xlink:href="#DejaVuSans-73" x="124.755859"/>
      <use xlink:href="#DejaVuSans-73" x="176.855469"/>
     </g>
    </g>
    <g id="line2d_25">
     <path d="M 507.762812 212.511625 
L 517.762812 212.511625 
L 527.762812 212.511625 
" style="fill: none; stroke-dasharray: 9,3; stroke-dashoffset: 0; stroke: #ffa500; stroke-width: 1.5"/>
    </g>
    <g id="text_21">
     <!-- error -->
     <g transform="translate(535.762812 216.011625) scale(0.1 -0.1)">
      <use xlink:href="#DejaVuSans-65"/>
      <use xlink:href="#DejaVuSans-72" x="61.523438"/>
      <use xlink:href="#DejaVuSans-72" x="100.886719"/>
      <use xlink:href="#DejaVuSans-6f" x="139.75"/>
      <use xlink:href="#DejaVuSans-72" x="200.931641"/>
     </g>
    </g>
    <g id="line2d_26">
     <path d="M 507.762812 227.18975 
L 517.762812 227.18975 
L 527.762812 227.18975 
" style="fill: none; stroke-dasharray: 12,4.5; stroke-dashoffset: 0; stroke: #ee82ee; stroke-width: 1.5"/>
    </g>
    <g id="text_22">
     <!-- skip -->
     <g transform="translate(535.762812 230.68975) scale(0.1 -0.1)">
      <defs>
       <path id="DejaVuSans-6b" d="M 581 4863 
L 1159 4863 
L 1159 1991 
L 2875 3500 
L 3609 3500 
L 1753 1863 
L 3688 0 
L 2938 0 
L 1159 1709 
L 1159 0 
L 581 0 
L 581 4863 
z
" transform="scale(0.015625)"/>
      </defs>
      <use xlink:href="#DejaVuSans-73"/>
      <use xlink:href="#DejaVuSans-6b" x="52.099609"/>
      <use xlink:href="#DejaVuSans-69" x="110.009766"/>
      <use xlink:href="#DejaVuSans-70" x="137.792969"/>
     </g>
    </g>
   </g>
  </g>
 </g>
 <defs>
  <clipPath id="pcc957f89c6">
   <rect x="33.2875" y="22.318125" width="535.68" height="352.512"/>
  </clipPath>
 </defs>
</svg>
