<?xml version="1.0" encoding="utf-8" standalone="no"?>
<!DOCTYPE svg PUBLIC "-//W3C//DTD SVG 1.1//EN"
  "http://www.w3.org/Graphics/SVG/1.1/DTD/svg11.dtd">
<svg xmlns:xlink="http://www.w3.org/1999/xlink" width="576.1675pt" height="418.303033pt" viewBox="0 0 576.1675 418.303033" xmlns="http://www.w3.org/2000/svg" version="1.1">
 <metadata>
  <rdf:RDF xmlns:dc="http://purl.org/dc/elements/1.1/" xmlns:cc="http://creativecommons.org/ns#" xmlns:rdf="http://www.w3.org/1999/02/22-rdf-syntax-ns#">
   <cc:Work>
    <dc:type rdf:resource="http://purl.org/dc/dcmitype/StillImage"/>
    <dc:date>2025-06-29T14:02:54.847903</dc:date>
    <dc:format>image/svg+xml</dc:format>
    <dc:creator>
     <cc:Agent>
      <dc:title>Matplotlib v3.6.3, https://matplotlib.org/</dc:title>
     </cc:Agent>
    </dc:creator>
   </cc:Work>
  </rdf:RDF>
 </metadata>
 <defs>
  <style type="text/css">*{stroke-linejoin: round; stroke-linecap: butt}</style>
 </defs>
 <g id="figure_1">
  <g id="patch_1">
   <path d="M -0 418.303033 
L 576.1675 418.303033 
L 576.1675 0 
L -0 0 
z
" style="fill: #ffffff"/>
  </g>
  <g id="axes_1">
   <g id="patch_2">
    <path d="M 33.2875 374.830125 
L 568.9675 374.830125 
L 568.9675 22.318125 
L 33.2875 22.318125 
z
" style="fill: #ffffff"/>
   </g>
   <g id="matplotlib.axis_1">
    <g id="xtick_1">
     <g id="line2d_1">
      <defs>
       <path id="mbf9d5f4df7" d="M 0 0 
L 0 3.5 
" style="stroke: #000000; stroke-width: 0.8"/>
      </defs>
      <g>
       <use xlink:href="#mbf9d5f4df7" x="63.036096" y="374.830125" style="stroke: #000000; stroke-width: 0.8"/>
      </g>
     </g>
     <g id="text_1">
      <!-- 2021-07 -->
      <g transform="translate(25.811275 409.301971) rotate(-30) scale(0.1 -0.1)">
       <defs>
        <path id="DejaVuSans-32" d="M 1228 531 
L 3431 531 
L 3431 0 
L 469 0 
L 469 531 
Q 828 903 1448 1529 
Q 2069 2156 2228 2338 
Q 2531 2678 2651 2914 
Q 2772 3150 2772 3378 
Q 2772 3750 2511 3984 
Q 2250 4219 1831 4219 
Q 1534 4219 1204 4116 
Q 875 4013 500 3803 
L 500 4441 
Q 881 4594 1212 4672 
Q 1544 4750 1819 4750 
Q 2544 4750 2975 4387 
Q 3406 4025 3406 3419 
Q 3406 3131 3298 2873 
Q 3191 2616 2906 2266 
Q 2828 2175 2409 1742 
Q 1991 1309 1228 531 
z
" transform="scale(0.015625)"/>
        <path id="DejaVuSans-30" d="M 2034 4250 
Q 1547 4250 1301 3770 
Q 1056 3291 1056 2328 
Q 1056 1369 1301 889 
Q 1547 409 2034 409 
Q 2525 409 2770 889 
Q 3016 1369 3016 2328 
Q 3016 3291 2770 3770 
Q 2525 4250 2034 4250 
z
M 2034 4750 
Q 2819 4750 3233 4129 
Q 3647 3509 3647 2328 
Q 3647 1150 3233 529 
Q 2819 -91 2034 -91 
Q 1250 -91 836 529 
Q 422 1150 422 2328 
Q 422 3509 836 4129 
Q 1250 4750 2034 4750 
z
" transform="scale(0.015625)"/>
        <path id="DejaVuSans-31" d="M 794 531 
L 1825 531 
L 1825 4091 
L 703 3866 
L 703 4441 
L 1819 4666 
L 2450 4666 
L 2450 531 
L 3481 531 
L 3481 0 
L 794 0 
L 794 531 
z
" transform="scale(0.015625)"/>
        <path id="DejaVuSans-2d" d="M 313 2009 
L 1997 2009 
L 1997 1497 
L 313 1497 
L 313 2009 
z
" transform="scale(0.015625)"/>
        <path id="DejaVuSans-37" d="M 525 4666 
L 3525 4666 
L 3525 4397 
L 1831 0 
L 1172 0 
L 2766 4134 
L 525 4134 
L 525 4666 
z
" transform="scale(0.015625)"/>
       </defs>
       <use xlink:href="#DejaVuSans-32"/>
       <use xlink:href="#DejaVuSans-30" x="63.623047"/>
       <use xlink:href="#DejaVuSans-32" x="127.246094"/>
       <use xlink:href="#DejaVuSans-31" x="190.869141"/>
       <use xlink:href="#DejaVuSans-2d" x="254.492188"/>
       <use xlink:href="#DejaVuSans-30" x="290.576172"/>
       <use xlink:href="#DejaVuSans-37" x="354.199219"/>
      </g>
     </g>
    </g>
    <g id="xtick_2">
     <g id="line2d_2">
      <g>
       <use xlink:href="#mbf9d5f4df7" x="126.154267" y="374.830125" style="stroke: #000000; stroke-width: 0.8"/>
      </g>
     </g>
     <g id="text_2">
      <!-- 2022-01 -->
      <g transform="translate(88.929446 409.301971) rotate(-30) scale(0.1 -0.1)">
       <use xlink:href="#DejaVuSans-32"/>
       <use xlink:href="#DejaVuSans-30" x="63.623047"/>
       <use xlink:href="#DejaVuSans-32" x="127.246094"/>
       <use xlink:href="#DejaVuSans-32" x="190.869141"/>
       <use xlink:href="#DejaVuSans-2d" x="254.492188"/>
       <use xlink:href="#DejaVuSans-30" x="290.576172"/>
       <use xlink:href="#DejaVuSans-31" x="354.199219"/>
      </g>
     </g>
    </g>
    <g id="xtick_3">
     <g id="line2d_3">
      <g>
       <use xlink:href="#mbf9d5f4df7" x="188.243337" y="374.830125" style="stroke: #000000; stroke-width: 0.8"/>
      </g>
     </g>
     <g id="text_3">
      <!-- 2022-07 -->
      <g transform="translate(151.018516 409.301971) rotate(-30) scale(0.1 -0.1)">
       <use xlink:href="#DejaVuSans-32"/>
       <use xlink:href="#DejaVuSans-30" x="63.623047"/>
       <use xlink:href="#DejaVuSans-32" x="127.246094"/>
       <use xlink:href="#DejaVuSans-32" x="190.869141"/>
       <use xlink:href="#DejaVuSans-2d" x="254.492188"/>
       <use xlink:href="#DejaVuSans-30" x="290.576172"/>
       <use xlink:href="#DejaVuSans-37" x="354.199219"/>
      </g>
     </g>
    </g>
    <g id="xtick_4">
     <g id="line2d_4">
      <g>
       <use xlink:href="#mbf9d5f4df7" x="251.361508" y="374.830125" style="stroke: #000000; stroke-width: 0.8"/>
      </g>
     </g>
     <g id="text_4">
      <!-- 2023-01 -->
      <g transform="translate(214.136688 409.301971) rotate(-30) scale(0.1 -0.1)">
       <defs>
        <path id="DejaVuSans-33" d="M 2597 2516 
Q 3050 2419 3304 2112 
Q 3559 1806 3559 1356 
Q 3559 666 3084 287 
Q 2609 -91 1734 -91 
Q 1441 -91 1130 -33 
Q 819 25 488 141 
L 488 750 
Q 750 597 1062 519 
Q 1375 441 1716 441 
Q 2309 441 2620 675 
Q 2931 909 2931 1356 
Q 2931 1769 2642 2001 
Q 2353 2234 1838 2234 
L 1294 2234 
L 1294 2753 
L 1863 2753 
Q 2328 2753 2575 2939 
Q 2822 3125 2822 3475 
Q 2822 3834 2567 4026 
Q 2313 4219 1838 4219 
Q 1578 4219 1281 4162 
Q 984 4106 628 3988 
L 628 4550 
Q 988 4650 1302 4700 
Q 1616 4750 1894 4750 
Q 2613 4750 3031 4423 
Q 3450 4097 3450 3541 
Q 3450 3153 3228 2886 
Q 3006 2619 2597 2516 
z
" transform="scale(0.015625)"/>
       </defs>
       <use xlink:href="#DejaVuSans-32"/>
       <use xlink:href="#DejaVuSans-30" x="63.623047"/>
       <use xlink:href="#DejaVuSans-32" x="127.246094"/>
       <use xlink:href="#DejaVuSans-33" x="190.869141"/>
       <use xlink:href="#DejaVuSans-2d" x="254.492188"/>
       <use xlink:href="#DejaVuSans-30" x="290.576172"/>
       <use xlink:href="#DejaVuSans-31" x="354.199219"/>
      </g>
     </g>
    </g>
    <g id="xtick_5">
     <g id="line2d_5">
      <g>
       <use xlink:href="#mbf9d5f4df7" x="313.450579" y="374.830125" style="stroke: #000000; stroke-width: 0.8"/>
      </g>
     </g>
     <g id="text_5">
      <!-- 2023-07 -->
      <g transform="translate(276.225758 409.301971) rotate(-30) scale(0.1 -0.1)">
       <use xlink:href="#DejaVuSans-32"/>
       <use xlink:href="#DejaVuSans-30" x="63.623047"/>
       <use xlink:href="#DejaVuSans-32" x="127.246094"/>
       <use xlink:href="#DejaVuSans-33" x="190.869141"/>
       <use xlink:href="#DejaVuSans-2d" x="254.492188"/>
       <use xlink:href="#DejaVuSans-30" x="290.576172"/>
       <use xlink:href="#DejaVuSans-37" x="354.199219"/>
      </g>
     </g>
    </g>
    <g id="xtick_6">
     <g id="line2d_6">
      <g>
       <use xlink:href="#mbf9d5f4df7" x="376.56875" y="374.830125" style="stroke: #000000; stroke-width: 0.8"/>
      </g>
     </g>
     <g id="text_6">
      <!-- 2024-01 -->
      <g transform="translate(339.343929 409.301971) rotate(-30) scale(0.1 -0.1)">
       <defs>
        <path id="DejaVuSans-34" d="M 2419 4116 
L 825 1625 
L 2419 1625 
L 2419 4116 
z
M 2253 4666 
L 3047 4666 
L 3047 1625 
L 3713 1625 
L 3713 1100 
L 3047 1100 
L 3047 0 
L 2419 0 
L 2419 1100 
L 313 1100 
L 313 1709 
L 2253 4666 
z
" transform="scale(0.015625)"/>
       </defs>
       <use xlink:href="#DejaVuSans-32"/>
       <use xlink:href="#DejaVuSans-30" x="63.623047"/>
       <use xlink:href="#DejaVuSans-32" x="127.246094"/>
       <use xlink:href="#DejaVuSans-34" x="190.869141"/>
       <use xlink:href="#DejaVuSans-2d" x="254.492188"/>
       <use xlink:href="#DejaVuSans-30" x="290.576172"/>
       <use xlink:href="#DejaVuSans-31" x="354.199219"/>
      </g>
     </g>
    </g>
    <g id="xtick_7">
     <g id="line2d_7">
      <g>
       <use xlink:href="#mbf9d5f4df7" x="439.000854" y="374.830125" style="stroke: #000000; stroke-width: 0.8"/>
      </g>
     </g>
     <g id="text_7">
      <!-- 2024-07 -->
      <g transform="translate(401.776033 409.301971) rotate(-30) scale(0.1 -0.1)">
       <use xlink:href="#DejaVuSans-32"/>
       <use xlink:href="#DejaVuSans-30" x="63.623047"/>
       <use xlink:href="#DejaVuSans-32" x="127.246094"/>
       <use xlink:href="#DejaVuSans-34" x="190.869141"/>
       <use xlink:href="#DejaVuSans-2d" x="254.492188"/>
       <use xlink:href="#DejaVuSans-30" x="290.576172"/>
       <use xlink:href="#DejaVuSans-37" x="354.199219"/>
      </g>
     </g>
    </g>
    <g id="xtick_8">
     <g id="line2d_8">
      <g>
       <use xlink:href="#mbf9d5f4df7" x="502.119025" y="374.830125" style="stroke: #000000; stroke-width: 0.8"/>
      </g>
     </g>
     <g id="text_8">
      <!-- 2025-01 -->
      <g transform="translate(464.894204 409.301971) rotate(-30) scale(0.1 -0.1)">
       <defs>
        <path id="DejaVuSans-35" d="M 691 4666 
L 3169 4666 
L 3169 4134 
L 1269 4134 
L 1269 2991 
Q 1406 3038 1543 3061 
Q 1681 3084 1819 3084 
Q 2600 3084 3056 2656 
Q 3513 2228 3513 1497 
Q 3513 744 3044 326 
Q 2575 -91 1722 -91 
Q 1428 -91 1123 -41 
Q 819 9 494 109 
L 494 744 
Q 775 591 1075 516 
Q 1375 441 1709 441 
Q 2250 441 2565 725 
Q 2881 1009 2881 1497 
Q 2881 1984 2565 2268 
Q 2250 2553 1709 2553 
Q 1456 2553 1204 2497 
Q 953 2441 691 2322 
L 691 4666 
z
" transform="scale(0.015625)"/>
       </defs>
       <use xlink:href="#DejaVuSans-32"/>
       <use xlink:href="#DejaVuSans-30" x="63.623047"/>
       <use xlink:href="#DejaVuSans-32" x="127.246094"/>
       <use xlink:href="#DejaVuSans-35" x="190.869141"/>
       <use xlink:href="#DejaVuSans-2d" x="254.492188"/>
       <use xlink:href="#DejaVuSans-30" x="290.576172"/>
       <use xlink:href="#DejaVuSans-31" x="354.199219"/>
      </g>
     </g>
    </g>
    <g id="xtick_9">
     <g id="line2d_9">
      <g>
       <use xlink:href="#mbf9d5f4df7" x="564.208096" y="374.830125" style="stroke: #000000; stroke-width: 0.8"/>
      </g>
     </g>
     <g id="text_9">
      <!-- 2025-07 -->
      <g transform="translate(526.983275 409.301971) rotate(-30) scale(0.1 -0.1)">
       <use xlink:href="#DejaVuSans-32"/>
       <use xlink:href="#DejaVuSans-30" x="63.623047"/>
       <use xlink:href="#DejaVuSans-32" x="127.246094"/>
       <use xlink:href="#DejaVuSans-35" x="190.869141"/>
       <use xlink:href="#DejaVuSans-2d" x="254.492188"/>
       <use xlink:href="#DejaVuSans-30" x="290.576172"/>
       <use xlink:href="#DejaVuSans-37" x="354.199219"/>
      </g>
     </g>
    </g>
   </g>
   <g id="matplotlib.axis_2">
    <g id="ytick_1">
     <g id="line2d_10">
      <defs>
       <path id="m651bfc8a67" d="M 0 0 
L -3.5 0 
" style="stroke: #000000; stroke-width: 0.8"/>
      </defs>
      <g>
       <use xlink:href="#m651bfc8a67" x="33.2875" y="374.830125" style="stroke: #000000; stroke-width: 0.8"/>
      </g>
     </g>
     <g id="text_10">
      <!-- 0 -->
      <g transform="translate(19.925 378.629344) scale(0.1 -0.1)">
       <use xlink:href="#DejaVuSans-30"/>
      </g>
     </g>
    </g>
    <g id="ytick_2">
     <g id="line2d_11">
      <g>
       <use xlink:href="#m651bfc8a67" x="33.2875" y="318.897147" style="stroke: #000000; stroke-width: 0.8"/>
      </g>
     </g>
     <g id="text_11">
      <!-- 100 -->
      <g transform="translate(7.2 322.696366) scale(0.1 -0.1)">
       <use xlink:href="#DejaVuSans-31"/>
       <use xlink:href="#DejaVuSans-30" x="63.623047"/>
       <use xlink:href="#DejaVuSans-30" x="127.246094"/>
      </g>
     </g>
    </g>
    <g id="ytick_3">
     <g id="line2d_12">
      <g>
       <use xlink:href="#m651bfc8a67" x="33.2875" y="262.964169" style="stroke: #000000; stroke-width: 0.8"/>
      </g>
     </g>
     <g id="text_12">
      <!-- 200 -->
      <g transform="translate(7.2 266.763388) scale(0.1 -0.1)">
       <use xlink:href="#DejaVuSans-32"/>
       <use xlink:href="#DejaVuSans-30" x="63.623047"/>
       <use xlink:href="#DejaVuSans-30" x="127.246094"/>
      </g>
     </g>
    </g>
    <g id="ytick_4">
     <g id="line2d_13">
      <g>
       <use xlink:href="#m651bfc8a67" x="33.2875" y="207.031191" style="stroke: #000000; stroke-width: 0.8"/>
      </g>
     </g>
     <g id="text_13">
      <!-- 300 -->
      <g transform="translate(7.2 210.83041) scale(0.1 -0.1)">
       <use xlink:href="#DejaVuSans-33"/>
       <use xlink:href="#DejaVuSans-30" x="63.623047"/>
       <use xlink:href="#DejaVuSans-30" x="127.246094"/>
      </g>
     </g>
    </g>
    <g id="ytick_5">
     <g id="line2d_14">
      <g>
       <use xlink:href="#m651bfc8a67" x="33.2875" y="151.098213" style="stroke: #000000; stroke-width: 0.8"/>
      </g>
     </g>
     <g id="text_14">
      <!-- 400 -->
      <g transform="translate(7.2 154.897432) scale(0.1 -0.1)">
       <use xlink:href="#DejaVuSans-34"/>
       <use xlink:href="#DejaVuSans-30" x="63.623047"/>
       <use xlink:href="#DejaVuSans-30" x="127.246094"/>
      </g>
     </g>
    </g>
    <g id="ytick_6">
     <g id="line2d_15">
      <g>
       <use xlink:href="#m651bfc8a67" x="33.2875" y="95.165235" style="stroke: #000000; stroke-width: 0.8"/>
      </g>
     </g>
     <g id="text_15">
      <!-- 500 -->
      <g transform="translate(7.2 98.964454) scale(0.1 -0.1)">
       <use xlink:href="#DejaVuSans-35"/>
       <use xlink:href="#DejaVuSans-30" x="63.623047"/>
       <use xlink:href="#DejaVuSans-30" x="127.246094"/>
      </g>
     </g>
    </g>
    <g id="ytick_7">
     <g id="line2d_16">
      <g>
       <use xlink:href="#m651bfc8a67" x="33.2875" y="39.232258" style="stroke: #000000; stroke-width: 0.8"/>
      </g>
     </g>
     <g id="text_16">
      <!-- 600 -->
      <g transform="translate(7.2 43.031476) scale(0.1 -0.1)">
       <defs>
        <path id="DejaVuSans-36" d="M 2113 2584 
Q 1688 2584 1439 2293 
Q 1191 2003 1191 1497 
Q 1191 994 1439 701 
Q 1688 409 2113 409 
Q 2538 409 2786 701 
Q 3034 994 3034 1497 
Q 3034 2003 2786 2293 
Q 2538 2584 2113 2584 
z
M 3366 4563 
L 3366 3988 
Q 3128 4100 2886 4159 
Q 2644 4219 2406 4219 
Q 1781 4219 1451 3797 
Q 1122 3375 1075 2522 
Q 1259 2794 1537 2939 
Q 1816 3084 2150 3084 
Q 2853 3084 3261 2657 
Q 3669 2231 3669 1497 
Q 3669 778 3244 343 
Q 2819 -91 2113 -91 
Q 1303 -91 875 529 
Q 447 1150 447 2328 
Q 447 3434 972 4092 
Q 1497 4750 2381 4750 
Q 2619 4750 2861 4703 
Q 3103 4656 3366 4563 
z
" transform="scale(0.015625)"/>
       </defs>
       <use xlink:href="#DejaVuSans-36"/>
       <use xlink:href="#DejaVuSans-30" x="63.623047"/>
       <use xlink:href="#DejaVuSans-30" x="127.246094"/>
      </g>
     </g>
    </g>
   </g>
   <g id="line2d_17">
    <path d="M 38.539265 25.808343 
L 48.739407 25.808343 
L 48.854875 29.164321 
L 50.282958 29.164321 
L 50.805719 38.672928 
L 135.073699 38.672928 
L 135.493252 33.07963 
L 149.515958 33.07963 
L 150.339692 33.63896 
L 156.915982 33.63896 
L 157.145961 44.825555 
L 163.815069 44.825555 
L 165.197173 43.147566 
L 279.451755 43.147566 
L 279.777164 39.232258 
L 288.731931 39.232258 
L 289.05154 38.113598 
L 333.997494 38.113598 
L 334.221323 36.994938 
L 406.852354 36.994938 
L 407.060426 32.5203 
L 462.123848 32.5203 
L 462.218551 31.96097 
L 504.277242 31.96097 
L 504.663758 31.401641 
L 508.489551 31.401641 
L 508.616493 29.164321 
L 510.151838 29.164321 
L 510.550766 29.723651 
L 537.090234 29.723651 
L 537.417875 29.164321 
L 563.715735 29.164321 
L 563.715735 29.164321 
" clip-path="url(#padde8f5098)" style="fill: none; stroke: #0000ff; stroke-width: 1.5; stroke-linecap: square"/>
   </g>
   <g id="line2d_18">
    <path d="M 38.539265 168.996766 
L 39.941653 167.878107 
L 41.339514 168.996766 
L 44.649788 168.996766 
L 48.29976 170.115426 
L 48.570534 169.556096 
L 48.739407 169.556096 
L 48.854875 172.912075 
L 49.004896 172.352745 
L 49.121373 172.352745 
L 49.515532 172.912075 
L 50.282958 172.912075 
L 50.710377 185.21733 
L 50.805719 182.420681 
L 51.027571 185.77666 
L 51.098124 185.21733 
L 51.346728 185.21733 
L 51.7444 185.77666 
L 52.701504 185.77666 
L 52.730074 186.335989 
L 53.248884 186.335989 
L 53.468489 185.77666 
L 54.110542 189.691968 
L 54.184703 189.132638 
L 54.499972 189.691968 
L 55.109825 191.369957 
L 55.523475 190.251298 
L 56.177299 190.251298 
L 56.542689 191.369957 
L 56.789697 191.369957 
L 57.533858 191.929287 
L 57.867783 191.929287 
L 58.230895 193.047947 
L 58.555589 192.488617 
L 58.916148 193.607277 
L 59.290785 195.844596 
L 60.739379 196.963255 
L 61.354505 196.963255 
L 61.617997 197.522585 
L 62.03782 197.522585 
L 62.346896 198.081915 
L 62.661733 197.522585 
L 63.012758 197.522585 
L 63.21832 198.081915 
L 66.774514 198.081915 
L 67.133429 198.641245 
L 67.477364 198.641245 
L 67.610908 198.081915 
L 68.460341 198.641245 
L 68.816354 198.081915 
L 69.797914 198.081915 
L 70.113052 198.641245 
L 70.500498 198.081915 
L 72.287039 198.081915 
L 72.653077 198.641245 
L 72.853993 200.319234 
L 73.343003 199.200574 
L 74.480084 199.200574 
L 75.044239 199.759904 
L 75.385355 199.759904 
L 75.716652 200.319234 
L 76.086433 200.319234 
L 76.425953 199.759904 
L 76.750382 201.437893 
L 77.038411 201.437893 
L 77.821496 202.556553 
L 81.932928 202.556553 
L 82.259759 203.675213 
L 82.956319 203.675213 
L 83.265486 204.234542 
L 84.302424 204.234542 
L 85.295006 206.471861 
L 86.350021 206.471861 
L 86.727894 207.031191 
L 93.101965 207.031191 
L 93.867204 208.149851 
L 94.040555 207.031191 
L 95.268019 207.031191 
L 95.601341 207.590521 
L 95.969094 207.031191 
L 96.844072 207.031191 
L 97.327368 207.590521 
L 97.686152 207.031191 
L 103.104668 207.031191 
L 103.400777 212.065159 
L 103.606073 207.031191 
L 105.569749 207.031191 
L 105.926222 207.590521 
L 106.129692 212.624489 
L 106.610332 207.590521 
L 106.949796 207.590521 
L 107.175138 207.031191 
L 110.730538 207.031191 
L 110.910587 207.590521 
L 111.233697 207.590521 
L 111.765824 209.26851 
L 117.129114 209.26851 
L 118.299633 209.82784 
L 125.503126 209.82784 
L 125.803086 212.065159 
L 126.186379 212.065159 
L 126.526264 209.82784 
L 126.875951 209.82784 
L 127.116905 212.065159 
L 127.378051 209.82784 
L 127.812036 212.065159 
L 128.19646 213.183819 
L 132.654006 213.183819 
L 133.038747 213.743149 
L 135.073699 213.743149 
L 135.493252 207.590521 
L 135.792953 208.149851 
L 136.131711 209.82784 
L 136.54993 209.82784 
L 137.110691 210.9465 
L 137.497691 210.9465 
L 137.782953 211.505829 
L 138.166126 209.26851 
L 140.971656 214.861808 
L 141.258121 213.183819 
L 141.738447 212.624489 
L 143.264013 212.624489 
L 143.65535 212.065159 
L 144.00044 210.9465 
L 145.381952 210.9465 
L 145.634542 209.82784 
L 146.078826 210.9465 
L 147.082167 210.9465 
L 147.423633 212.065159 
L 147.753004 212.065159 
L 148.14309 212.624489 
L 148.3005 212.624489 
L 148.476424 214.302478 
L 148.714904 214.302478 
L 149.515958 214.861808 
L 150.177842 213.743149 
L 150.339692 213.743149 
L 150.858554 214.302478 
L 151.191459 215.421138 
L 152.911856 215.421138 
L 153.244022 215.980468 
L 153.600722 215.980468 
L 153.930963 216.539798 
L 154.240324 216.539798 
L 154.959174 217.099127 
L 155.330429 217.099127 
L 155.700643 218.777117 
L 155.919533 218.777117 
L 156.304306 218.217787 
L 156.915982 218.217787 
L 157.145961 219.895776 
L 157.713277 219.895776 
L 158.049394 221.014436 
L 158.498284 221.014436 
L 158.729506 221.573766 
L 159.237978 221.573766 
L 159.288575 222.133095 
L 159.54612 222.133095 
L 160.089578 222.692425 
L 161.325495 226.048404 
L 162.866022 226.048404 
L 163.180088 227.167063 
L 163.298347 226.607734 
L 163.435295 226.607734 
L 163.815069 226.048404 
L 165.197173 224.370414 
L 168.655026 224.370414 
L 169.055705 223.811085 
L 170.729291 223.811085 
L 170.967481 223.251755 
L 174.101577 223.251755 
L 174.505094 223.811085 
L 175.069174 223.811085 
L 175.526211 224.370414 
L 175.756178 223.811085 
L 177.959335 223.811085 
L 178.654637 224.929744 
L 180.134394 224.929744 
L 180.38353 232.760361 
L 180.664384 232.760361 
L 183.057857 234.43835 
L 183.204937 233.879021 
L 183.358377 234.43835 
L 183.756653 233.879021 
L 184.090734 233.879021 
L 184.442355 234.43835 
L 184.706403 234.43835 
L 185.130324 235.55701 
L 185.304667 235.55701 
L 185.466016 234.99768 
L 185.827659 236.11634 
L 188.23201 236.11634 
L 188.465916 236.67567 
L 189.759327 236.67567 
L 190.274302 236.11634 
L 190.660132 238.912989 
L 190.934809 237.234999 
L 191.293048 237.234999 
L 191.580192 240.590978 
L 191.781101 240.031648 
L 191.994977 240.590978 
L 192.102699 240.031648 
L 192.234544 241.709638 
L 192.576359 241.709638 
L 193.009447 242.268967 
L 193.857677 241.709638 
L 194.05082 242.828297 
L 194.36647 242.828297 
L 194.590002 241.150308 
L 195.348777 242.828297 
L 196.10326 243.387627 
L 196.765871 243.387627 
L 197.11347 245.065616 
L 197.432975 245.065616 
L 197.622232 244.506286 
L 197.954402 244.506286 
L 199.239126 246.743606 
L 199.453387 245.624946 
L 199.865818 245.065616 
L 200.170395 246.184276 
L 200.20577 246.743606 
L 201.649799 246.743606 
L 201.76111 247.302935 
L 202.279206 247.862265 
L 203.660325 247.862265 
L 204.292507 250.658914 
L 207.84506 250.658914 
L 208.125585 251.218244 
L 208.494537 250.099584 
L 208.709334 251.218244 
L 212.582333 251.218244 
L 212.905928 251.777574 
L 213.686286 255.133552 
L 213.979051 253.455563 
L 214.327949 254.014893 
L 214.714279 253.455563 
L 214.986141 253.455563 
L 215.398075 251.777574 
L 215.618958 251.777574 
L 215.661829 252.336903 
L 216.356905 252.336903 
L 216.74813 248.980925 
L 217.093049 248.980925 
L 218.130635 249.540254 
L 218.196287 248.980925 
L 218.759649 248.421595 
L 218.843322 248.980925 
L 221.557857 248.980925 
L 221.74674 249.540254 
L 222.25333 250.099584 
L 222.929801 251.218244 
L 223.105748 252.336903 
L 223.34351 252.336903 
L 223.609861 253.455563 
L 223.93055 252.896233 
L 224.289631 252.896233 
L 224.560199 252.336903 
L 224.941633 252.896233 
L 225.281998 252.896233 
L 225.608218 253.455563 
L 225.872294 253.455563 
L 226.369383 252.896233 
L 226.627806 253.455563 
L 226.895273 252.896233 
L 227.671981 248.421595 
L 228.41912 249.540254 
L 228.528354 253.455563 
L 228.694896 253.455563 
L 228.999628 254.014893 
L 229.353656 253.455563 
L 229.676881 253.455563 
L 230.07505 252.896233 
L 230.419926 254.014893 
L 231.664622 254.014893 
L 232.159285 254.574222 
L 232.441978 254.574222 
L 232.463914 255.133552 
L 233.874318 255.133552 
L 234.275853 256.252212 
L 236.249269 256.252212 
L 236.642662 257.370871 
L 237.982271 257.370871 
L 240.422673 256.811542 
L 240.649063 257.370871 
L 241.259643 257.370871 
L 241.773411 257.930201 
L 242.117568 259.048861 
L 242.220478 258.489531 
L 242.594552 259.60819 
L 243.42671 259.60819 
L 246.79709 260.72685 
L 255.128096 260.72685 
L 255.467445 260.16752 
L 257.096243 260.16752 
L 257.433861 260.72685 
L 258.552675 260.72685 
L 258.938821 261.28618 
L 259.216484 260.72685 
L 259.538729 261.28618 
L 259.895286 260.72685 
L 260.187928 261.84551 
L 260.636131 261.28618 
L 260.963164 261.84551 
L 268.071899 261.84551 
L 268.439108 260.72685 
L 268.828125 261.28618 
L 269.179953 260.72685 
L 269.574036 260.72685 
L 269.89008 260.16752 
L 271.20908 260.16752 
L 271.543998 260.72685 
L 271.922303 260.16752 
L 272.266961 259.048861 
L 272.950372 259.048861 
L 273.335951 258.489531 
L 273.624484 259.60819 
L 273.995651 259.60819 
L 274.28241 259.048861 
L 275.187479 260.16752 
L 275.716949 259.60819 
L 276.03152 260.16752 
L 276.700769 260.16752 
L 277.078491 259.60819 
L 277.449392 261.28618 
L 277.806381 260.72685 
L 278.491741 260.72685 
L 278.752995 260.16752 
L 279.087119 260.72685 
L 279.451755 260.72685 
L 279.777164 255.692882 
L 279.906445 256.252212 
L 280.162164 256.252212 
L 280.340303 256.811542 
L 280.495557 256.811542 
L 280.699964 257.370871 
L 280.838488 256.252212 
L 281.162857 256.811542 
L 281.295679 256.811542 
L 281.522367 257.370871 
L 282.109939 257.370871 
L 282.395681 258.489531 
L 282.67887 257.370871 
L 282.863243 257.930201 
L 283.902746 257.930201 
L 284.212203 257.370871 
L 284.505683 257.370871 
L 284.874472 257.930201 
L 285.215488 257.930201 
L 285.619736 257.370871 
L 286.009841 257.930201 
L 286.312525 257.930201 
L 286.788853 259.048861 
L 288.731931 259.048861 
L 289.05154 257.370871 
L 290.557481 257.370871 
L 290.903342 257.930201 
L 291.175402 258.489531 
L 291.708073 258.489531 
L 291.874258 259.60819 
L 291.950491 259.048861 
L 292.130731 259.60819 
L 292.637706 259.60819 
L 292.886234 260.72685 
L 293.562924 260.72685 
L 293.664146 261.28618 
L 293.878792 261.84551 
L 294.923413 261.84551 
L 295.173931 263.523499 
L 295.405097 264.082829 
L 295.538503 264.082829 
L 295.988516 264.642159 
L 296.146903 264.082829 
L 296.223661 264.642159 
L 296.718455 264.642159 
L 297.299547 265.201488 
L 298.603218 265.201488 
L 298.939442 264.642159 
L 299.261604 265.201488 
L 299.624763 265.201488 
L 299.798809 265.760818 
L 299.840672 265.201488 
L 300.047246 265.760818 
L 300.208813 265.760818 
L 300.368368 266.879478 
L 300.982751 267.998137 
L 301.430132 267.438807 
L 301.770271 267.998137 
L 302.438952 267.998137 
L 302.801877 269.116797 
L 302.934739 268.557467 
L 303.15058 270.235456 
L 303.456432 269.676127 
L 303.654792 270.235456 
L 303.811634 269.676127 
L 303.984953 270.794786 
L 304.338218 270.794786 
L 304.442848 271.354116 
L 304.857307 270.794786 
L 305.177857 271.913446 
L 305.901062 271.913446 
L 306.161402 273.032105 
L 306.530671 271.913446 
L 306.781542 271.913446 
L 306.873518 272.472775 
L 307.548468 272.472775 
L 307.864186 274.710095 
L 308.318237 272.472775 
L 308.388635 273.032105 
L 308.986486 272.472775 
L 309.043098 273.591435 
L 309.248724 273.591435 
L 309.663072 274.150765 
L 309.999336 273.591435 
L 310.253375 273.591435 
L 310.629303 274.710095 
L 311.038283 274.710095 
L 311.434892 274.150765 
L 311.731306 274.710095 
L 311.91141 274.150765 
L 312.090542 275.269424 
L 313.677815 275.269424 
L 314.165661 275.828754 
L 315.161725 275.828754 
L 315.515144 274.710095 
L 316.181241 274.710095 
L 316.514619 275.269424 
L 319.547432 275.269424 
L 319.95673 274.710095 
L 320.340396 275.828754 
L 324.994777 275.828754 
L 326.015822 276.388084 
L 326.622265 276.388084 
L 327.11478 276.947414 
L 327.504 276.947414 
L 327.732717 277.506743 
L 332.913508 277.506743 
L 333.3343 276.947414 
L 333.667912 277.506743 
L 333.997494 276.947414 
L 334.221323 273.591435 
L 336.268034 273.591435 
L 336.450648 274.150765 
L 336.804628 274.150765 
L 336.921688 273.591435 
L 339.040321 273.591435 
L 339.334234 274.150765 
L 339.445311 273.591435 
L 339.948748 273.591435 
L 340.181459 274.710095 
L 340.358265 273.591435 
L 340.474801 273.591435 
L 340.69381 274.710095 
L 340.849255 274.710095 
L 341.049743 273.591435 
L 341.225087 274.710095 
L 341.337455 273.591435 
L 341.382712 274.710095 
L 342.588654 274.710095 
L 342.780081 275.269424 
L 342.808155 275.828754 
L 343.422249 275.828754 
L 343.458442 276.388084 
L 343.812271 276.388084 
L 343.995484 276.947414 
L 344.151691 276.388084 
L 344.343596 276.947414 
L 344.473373 276.388084 
L 344.659004 276.947414 
L 344.777748 276.947414 
L 344.906472 276.388084 
L 344.924124 276.947414 
L 345.309942 276.947414 
L 345.551681 277.506743 
L 345.704149 277.506743 
L 345.932472 278.625403 
L 346.185817 279.184733 
L 346.360788 278.625403 
L 348.309643 278.625403 
L 348.588294 279.184733 
L 350.081876 279.184733 
L 350.320129 279.744063 
L 350.635057 279.744063 
L 350.868749 280.303392 
L 350.997553 279.744063 
L 351.615506 279.744063 
L 351.824046 280.862722 
L 352.391659 280.862722 
L 352.446167 281.422052 
L 352.52537 280.862722 
L 352.647902 280.862722 
L 352.867733 281.981382 
L 353.096668 282.540711 
L 353.160653 281.981382 
L 353.420164 284.218701 
L 354.471181 284.218701 
L 354.576842 284.778031 
L 354.807091 284.778031 
L 354.94197 285.89669 
L 355.100266 284.778031 
L 356.495531 284.778031 
L 356.576267 285.33736 
L 356.843893 284.778031 
L 356.97203 285.33736 
L 357.208942 284.778031 
L 357.516679 284.778031 
L 357.705395 285.89669 
L 358.049402 285.89669 
L 358.19051 285.33736 
L 358.311409 286.45602 
L 358.668462 284.778031 
L 359.042627 285.89669 
L 359.313675 284.778031 
L 359.948176 284.778031 
L 360.441977 286.45602 
L 360.595631 285.89669 
L 360.765794 286.45602 
L 361.224947 285.33736 
L 361.371971 286.45602 
L 362.461639 286.45602 
L 362.637281 287.01535 
L 362.943363 287.01535 
L 363.10653 286.45602 
L 363.312461 287.01535 
L 363.442675 286.45602 
L 363.839343 287.574679 
L 364.380907 287.574679 
L 364.762854 288.693339 
L 366.417145 288.693339 
L 366.598016 289.252669 
L 366.819256 288.693339 
L 366.928721 289.252669 
L 367.154286 288.693339 
L 367.453861 288.693339 
L 367.647087 289.252669 
L 367.774136 288.693339 
L 368.178618 288.693339 
L 368.303726 289.252669 
L 368.870819 289.252669 
L 368.909045 290.371328 
L 371.334471 290.371328 
L 371.573745 290.930658 
L 371.730798 290.371328 
L 371.863854 290.930658 
L 371.964922 290.371328 
L 372.086155 291.489988 
L 372.644728 291.489988 
L 372.908217 292.049318 
L 372.961617 291.489988 
L 373.016328 292.049318 
L 373.317213 291.489988 
L 373.394975 292.049318 
L 373.689222 292.608647 
L 373.804471 293.167977 
L 374.024489 293.167977 
L 374.075079 293.727307 
L 374.381415 295.405296 
L 374.519295 294.845967 
L 374.705387 294.845967 
L 374.738912 295.964626 
L 376.04637 295.964626 
L 376.208763 296.523956 
L 376.464903 295.964626 
L 376.908583 296.523956 
L 377.027164 295.964626 
L 377.221288 296.523956 
L 377.459863 296.523956 
L 377.601837 297.083286 
L 377.932523 297.083286 
L 377.94063 297.642615 
L 378.042567 297.083286 
L 378.140284 298.201945 
L 378.284712 298.201945 
L 378.484636 298.761275 
L 379.856087 298.761275 
L 379.89228 298.201945 
L 379.978618 299.320605 
L 380.340297 299.320605 
L 380.525007 298.761275 
L 380.667191 299.320605 
L 380.881257 298.761275 
L 381.041645 299.320605 
L 381.221845 299.320605 
L 381.376687 298.761275 
L 381.530218 300.439264 
L 383.368151 300.439264 
L 383.920856 301.557924 
L 384.211791 300.998594 
L 391.154691 300.998594 
L 391.272569 301.557924 
L 391.483404 300.998594 
L 391.544169 301.557924 
L 392.17416 301.557924 
L 392.348606 302.117254 
L 393.232799 302.117254 
L 393.350939 302.676583 
L 393.517465 302.117254 
L 394.871916 302.117254 
L 395.059786 302.676583 
L 395.296376 302.117254 
L 395.427011 302.117254 
L 395.635193 303.235913 
L 395.749716 302.676583 
L 396.257323 302.676583 
L 396.478496 303.235913 
L 397.519567 303.235913 
L 397.689154 302.117254 
L 398.032783 303.235913 
L 399.881686 303.235913 
L 400.071252 303.795243 
L 400.240605 303.795243 
L 400.422993 304.354573 
L 400.559317 304.354573 
L 400.728066 304.913903 
L 401.122892 304.913903 
L 401.192837 305.473232 
L 401.521982 305.473232 
L 401.729891 304.354573 
L 401.892236 304.913903 
L 402.140741 304.913903 
L 402.242071 305.473232 
L 402.622243 305.473232 
L 402.962271 306.032562 
L 403.333052 307.710552 
L 403.454448 307.151222 
L 403.567483 307.710552 
L 403.826929 308.269881 
L 403.949957 307.710552 
L 404.158604 308.269881 
L 404.280186 308.269881 
L 404.498584 307.710552 
L 404.676954 307.710552 
L 405.026399 309.388541 
L 405.23746 308.829211 
L 405.363184 308.829211 
L 405.528229 309.388541 
L 405.571628 309.947871 
L 405.711966 309.947871 
L 405.780454 309.388541 
L 406.007142 309.947871 
L 406.164111 309.388541 
L 406.293519 309.947871 
L 406.852354 309.947871 
L 407.060426 302.117254 
L 407.616132 303.235913 
L 407.983047 303.235913 
L 408.111387 303.795243 
L 408.311287 303.235913 
L 408.439599 303.235913 
L 408.591427 302.676583 
L 408.766001 303.235913 
L 409.005799 303.235913 
L 409.123788 302.676583 
L 409.273695 303.235913 
L 409.478145 302.676583 
L 409.558504 303.235913 
L 409.854271 303.795243 
L 409.983464 303.795243 
L 410.295736 302.676583 
L 410.578635 303.235913 
L 411.83548 303.235913 
L 412.133701 303.795243 
L 412.446822 303.235913 
L 413.010048 303.235913 
L 413.441846 304.354573 
L 413.589954 302.676583 
L 413.839237 303.235913 
L 414.157019 302.676583 
L 414.302388 304.354573 
L 414.477899 303.235913 
L 414.64377 303.235913 
L 414.754235 303.795243 
L 414.836674 306.032562 
L 414.851472 305.473232 
L 415.217175 306.032562 
L 416.119798 306.032562 
L 416.546776 307.151222 
L 416.72291 306.591892 
L 417.355235 306.591892 
L 417.527522 306.032562 
L 417.711661 306.591892 
L 417.913637 306.591892 
L 418.032294 306.032562 
L 418.393277 306.591892 
L 418.605342 306.591892 
L 418.74437 307.151222 
L 418.914406 306.591892 
L 419.097079 306.591892 
L 419.268271 306.032562 
L 419.374313 306.591892 
L 420.327923 306.591892 
L 420.566498 308.269881 
L 420.854948 307.710552 
L 421.093515 307.710552 
L 421.286654 307.151222 
L 421.374469 307.710552 
L 421.673638 307.151222 
L 421.785482 307.710552 
L 422.049038 307.710552 
L 422.152146 308.269881 
L 422.46711 307.710552 
L 423.116138 307.710552 
L 423.356762 308.269881 
L 423.757599 308.269881 
L 423.858667 308.829211 
L 424.029485 308.269881 
L 424.428801 309.388541 
L 424.547616 309.388541 
L 424.723834 309.947871 
L 424.886275 309.947871 
L 425.19192 310.5072 
L 427.678167 310.5072 
L 427.943037 311.06653 
L 428.191399 311.06653 
L 428.241964 309.947871 
L 428.304588 310.5072 
L 428.709788 310.5072 
L 428.802276 311.06653 
L 429.335439 311.06653 
L 429.590066 311.62586 
L 429.932052 311.62586 
L 429.943427 311.06653 
L 430.057112 311.62586 
L 430.161662 311.06653 
L 431.650813 311.06653 
L 431.930035 310.5072 
L 432.70894 311.06653 
L 434.324191 311.06653 
L 434.394084 311.62586 
L 436.089039 311.62586 
L 436.241717 312.18519 
L 437.809206 314.981839 
L 437.957766 314.981839 
L 438.112758 315.541168 
L 438.181782 314.981839 
L 438.515577 315.541168 
L 438.825693 316.100498 
L 439.196574 316.100498 
L 439.321122 316.659828 
L 439.789827 316.659828 
L 440.468692 316.100498 
L 440.502892 317.778488 
L 441.049253 317.778488 
L 441.21859 317.219158 
L 441.341585 317.778488 
L 442.596806 317.778488 
L 442.888194 317.219158 
L 444.234327 317.219158 
L 445.06554 317.778488 
L 446.744642 317.778488 
L 447.57146 318.337817 
L 447.68204 318.897147 
L 450.168672 318.897147 
L 450.40228 318.337817 
L 451.66464 318.337817 
L 452.586384 317.778488 
L 453.25807 317.778488 
L 453.5914 318.337817 
L 453.887334 319.456477 
L 454.063528 319.456477 
L 454.070405 318.897147 
L 456.046762 318.897147 
L 456.258875 319.456477 
L 461.251697 319.456477 
L 461.881235 320.015807 
L 462.123848 320.015807 
L 462.218551 320.575136 
L 462.52711 320.575136 
L 462.656693 320.015807 
L 462.857566 320.575136 
L 463.985412 320.575136 
L 464.488147 321.134466 
L 464.837366 322.253126 
L 467.895871 322.253126 
L 468.434196 321.693796 
L 468.58995 322.253126 
L 468.747512 321.693796 
L 468.924634 322.253126 
L 469.763482 322.253126 
L 470.150233 321.693796 
L 470.346489 322.253126 
L 470.88764 321.134466 
L 471.09855 322.253126 
L 472.408108 322.253126 
L 472.4236 322.812456 
L 474.498965 322.812456 
L 475.508032 323.371785 
L 475.81085 322.812456 
L 476.373469 322.812456 
L 476.509856 323.371785 
L 476.990584 321.693796 
L 477.307977 322.253126 
L 477.734673 321.693796 
L 478.050728 321.693796 
L 478.194266 322.253126 
L 479.065639 322.253126 
L 480.100977 321.693796 
L 480.256815 322.253126 
L 481.287031 322.253126 
L 481.621513 321.693796 
L 486.864963 322.253126 
L 487.257574 321.693796 
L 487.596883 322.253126 
L 487.900928 321.693796 
L 487.934946 322.253126 
L 488.199645 322.812456 
L 488.352942 322.812456 
L 488.493169 323.371785 
L 490.93103 323.371785 
L 490.982977 323.931115 
L 491.286006 323.931115 
L 492.095136 323.371785 
L 492.120876 323.931115 
L 492.43175 323.371785 
L 492.507309 324.490445 
L 492.707404 324.490445 
L 493.113351 325.049775 
L 493.793641 325.049775 
L 494.206718 324.490445 
L 494.671167 325.609104 
L 494.690217 326.168434 
L 495.009977 326.727764 
L 495.141397 326.727764 
L 495.473235 326.168434 
L 495.93984 326.168434 
L 496.036838 326.727764 
L 497.09923 326.727764 
L 497.245587 326.168434 
L 497.424762 327.287094 
L 497.572441 327.287094 
L 497.852724 326.727764 
L 498.107629 327.287094 
L 498.676072 327.287094 
L 498.926419 328.405753 
L 500.711885 328.405753 
L 500.925344 328.965083 
L 501.05605 328.965083 
L 501.271125 328.405753 
L 501.326594 328.965083 
L 501.896307 328.965083 
L 502.010894 329.524413 
L 502.322114 329.524413 
L 502.411005 330.643072 
L 502.896572 330.643072 
L 503.079011 332.321062 
L 503.458885 332.321062 
L 503.681055 331.761732 
L 503.801081 332.321062 
L 503.962652 332.321062 
L 503.974991 333.999051 
L 504.277242 333.999051 
L 504.663758 333.439721 
L 504.839106 333.439721 
L 504.988898 333.999051 
L 505.361407 333.999051 
L 505.747415 333.439721 
L 505.787118 334.558381 
L 506.128897 334.558381 
L 506.191897 335.117711 
L 506.43004 335.67704 
L 507.059137 335.67704 
L 507.151601 336.7957 
L 507.421577 336.7957 
L 507.579857 337.35503 
L 507.731737 337.35503 
L 508.27639 337.91436 
L 508.489551 337.35503 
L 508.616493 329.524413 
L 508.754167 328.965083 
L 508.84741 331.202402 
L 509.519041 331.202402 
L 509.795095 330.643072 
L 509.996231 331.761732 
L 510.151838 331.761732 
L 510.550766 332.321062 
L 510.989535 332.321062 
L 511.189741 331.761732 
L 511.346496 332.321062 
L 512.404445 332.321062 
L 512.53471 332.880392 
L 513.017038 331.761732 
L 513.409244 332.321062 
L 513.633994 332.321062 
L 513.720316 332.880392 
L 513.91874 331.761732 
L 514.111621 332.880392 
L 514.911921 332.880392 
L 515.035965 332.321062 
L 515.32104 332.321062 
L 515.365885 332.880392 
L 515.68867 333.439721 
L 515.701267 332.880392 
L 516.308302 332.880392 
L 516.62074 333.439721 
L 518.242074 333.439721 
L 518.363644 333.999051 
L 518.685179 333.439721 
L 518.695914 333.999051 
L 519.157612 334.558381 
L 519.441298 334.558381 
L 519.767751 335.117711 
L 519.930752 335.67704 
L 520.055375 335.67704 
L 520.447533 334.558381 
L 520.525002 335.67704 
L 520.788705 335.117711 
L 521.010664 335.67704 
L 522.001257 335.67704 
L 522.112247 336.23637 
L 522.250576 335.67704 
L 522.729937 336.23637 
L 522.961481 335.67704 
L 523.196141 336.23637 
L 523.33713 335.67704 
L 523.665482 336.7957 
L 523.892348 336.23637 
L 524.668315 336.23637 
L 524.977025 336.7957 
L 525.427789 336.7957 
L 525.786426 335.67704 
L 525.882014 336.23637 
L 526.265211 336.23637 
L 526.36246 337.35503 
L 526.845756 336.23637 
L 527.014533 336.7957 
L 527.403936 336.23637 
L 527.688181 336.23637 
L 527.833804 336.7957 
L 528.037015 336.7957 
L 528.064089 333.439721 
L 528.18188 333.439721 
L 528.637717 333.999051 
L 528.696771 332.880392 
L 528.860435 333.999051 
L 529.01048 333.439721 
L 529.100539 333.999051 
L 529.457806 333.439721 
L 529.886474 333.999051 
L 530.102403 333.999051 
L 530.398809 333.439721 
L 530.820129 333.439721 
L 531.252109 334.558381 
L 531.478388 333.999051 
L 531.935949 333.999051 
L 532.14992 333.439721 
L 532.18142 332.880392 
L 532.447978 333.999051 
L 532.58934 333.439721 
L 532.755616 333.999051 
L 533.002688 333.439721 
L 533.282328 333.439721 
L 533.461972 332.880392 
L 533.802663 332.880392 
L 534.157365 333.999051 
L 534.398048 333.439721 
L 534.691151 334.558381 
L 534.843793 334.558381 
L 534.939605 333.999051 
L 535.237702 333.999051 
L 535.262723 334.558381 
L 536.25093 334.558381 
L 536.412822 335.117711 
L 536.551489 335.117711 
L 536.76525 335.67704 
L 536.949622 335.117711 
L 537.090234 335.67704 
L 537.299866 335.117711 
L 537.417875 335.67704 
L 537.570187 335.117711 
L 537.61926 335.67704 
L 537.787875 336.7957 
L 537.993878 336.23637 
L 538.058709 335.67704 
L 538.275963 336.23637 
L 538.453507 335.67704 
L 538.667502 336.23637 
L 539.018186 336.23637 
L 539.115831 336.7957 
L 539.358095 336.23637 
L 539.994343 337.91436 
L 540.165494 337.91436 
L 540.342526 336.7957 
L 540.42622 337.35503 
L 540.676511 337.35503 
L 540.790387 336.7957 
L 540.995048 336.7957 
L 541.181378 337.35503 
L 541.420922 337.35503 
L 541.823089 339.033019 
L 542.037052 338.473689 
L 544.849637 338.473689 
L 544.980522 339.033019 
L 545.1465 339.033019 
L 545.279977 338.473689 
L 545.429797 339.033019 
L 545.547782 339.033019 
L 546.214982 336.7957 
L 546.326595 337.91436 
L 546.902288 336.7957 
L 547.526819 336.7957 
L 548.203135 337.91436 
L 549.39873 337.35503 
L 549.702359 337.91436 
L 550.036856 337.35503 
L 550.275753 338.473689 
L 550.371568 337.35503 
L 550.686488 338.473689 
L 551.029605 337.35503 
L 551.143187 338.473689 
L 551.363213 338.473689 
L 551.484164 337.91436 
L 551.703396 338.473689 
L 551.834963 338.473689 
L 551.957514 337.91436 
L 552.106416 339.592349 
L 552.496927 338.473689 
L 552.862174 338.473689 
L 553.085352 339.033019 
L 553.506541 339.033019 
L 553.84907 338.473689 
L 554.049316 338.473689 
L 554.200696 339.592349 
L 554.389523 339.033019 
L 554.494946 339.592349 
L 554.749498 340.151679 
L 554.905578 340.151679 
L 555.17846 339.033019 
L 555.4394 340.711008 
L 555.767374 340.711008 
L 555.792268 341.829668 
L 555.815173 341.270338 
L 555.986701 340.711008 
L 556.167012 341.829668 
L 556.242222 340.711008 
L 556.514028 340.711008 
L 556.551063 341.270338 
L 556.857296 341.829668 
L 557.040573 341.829668 
L 557.126478 340.711008 
L 557.537443 341.829668 
L 557.603997 340.711008 
L 557.827839 341.829668 
L 558.00003 340.151679 
L 558.523474 341.270338 
L 558.9178 339.592349 
L 558.948292 340.151679 
L 559.198063 339.592349 
L 559.35597 339.592349 
L 559.519899 340.711008 
L 559.715666 339.592349 
L 560.092043 340.711008 
L 560.234838 339.592349 
L 560.389449 340.151679 
L 560.704516 340.151679 
L 560.912584 339.592349 
L 561.31088 339.592349 
L 561.323037 340.151679 
L 561.949907 339.033019 
L 562.282367 340.711008 
L 562.458815 340.711008 
L 562.664465 340.151679 
L 562.722594 341.270338 
L 563.014533 340.151679 
L 563.194297 341.270338 
L 563.375517 340.151679 
L 563.450408 340.711008 
L 563.715735 340.711008 
L 563.715735 340.711008 
" clip-path="url(#padde8f5098)" style="fill: none; stroke-dasharray: 3,1.5; stroke-dashoffset: 0; stroke: #808080; stroke-width: 1.5"/>
   </g>
   <g id="line2d_19">
    <path d="M 38.539265 297.083286 
L 39.941653 296.523956 
L 41.339514 295.405296 
L 44.649788 295.405296 
L 48.29976 294.845967 
L 48.570534 295.405296 
L 48.739407 295.405296 
L 48.854875 294.286637 
L 49.004896 294.845967 
L 49.121373 294.845967 
L 49.515532 294.286637 
L 50.282958 294.286637 
L 50.710377 291.489988 
L 50.805719 294.286637 
L 51.027571 290.930658 
L 51.098124 291.489988 
L 51.346728 291.489988 
L 51.7444 290.930658 
L 52.396315 290.930658 
L 52.730074 288.693339 
L 53.248884 288.693339 
L 53.77552 289.811999 
L 54.110542 285.33736 
L 54.184703 285.89669 
L 54.499972 285.33736 
L 55.109825 283.659371 
L 55.523475 284.778031 
L 56.177299 284.778031 
L 56.542689 285.89669 
L 56.789697 285.33736 
L 57.533858 284.778031 
L 57.867783 284.778031 
L 58.230895 283.659371 
L 58.75192 283.659371 
L 59.290785 280.303392 
L 60.739379 278.625403 
L 60.936651 278.066073 
L 61.354505 278.066073 
L 61.617997 277.506743 
L 62.03782 277.506743 
L 62.346896 278.625403 
L 62.661733 279.184733 
L 63.012758 279.184733 
L 63.21832 278.625403 
L 65.72524 278.625403 
L 66.125946 278.066073 
L 66.774514 278.066073 
L 67.133429 277.506743 
L 67.477364 277.506743 
L 67.610908 278.066073 
L 68.460341 277.506743 
L 68.816354 278.066073 
L 69.797914 278.066073 
L 70.113052 277.506743 
L 70.500498 278.066073 
L 72.287039 278.066073 
L 72.653077 277.506743 
L 72.853993 275.828754 
L 73.343003 276.947414 
L 74.031694 276.947414 
L 74.353463 275.828754 
L 74.480084 276.947414 
L 75.044239 275.269424 
L 75.385355 275.269424 
L 75.716652 274.710095 
L 76.086433 274.710095 
L 76.425953 275.269424 
L 76.750382 274.150765 
L 77.038411 274.150765 
L 77.821496 273.032105 
L 81.932928 273.032105 
L 82.259759 271.913446 
L 82.956319 271.913446 
L 83.265486 269.116797 
L 84.302424 269.116797 
L 85.295006 266.879478 
L 86.350021 266.879478 
L 86.727894 266.320148 
L 93.101965 266.320148 
L 93.867204 264.642159 
L 94.040555 266.320148 
L 95.268019 266.320148 
L 95.601341 265.201488 
L 95.969094 266.320148 
L 96.844072 266.320148 
L 97.327368 265.201488 
L 97.686152 266.320148 
L 103.104668 266.320148 
L 103.400777 261.28618 
L 103.606073 266.320148 
L 105.569749 266.320148 
L 105.926222 265.760818 
L 106.129692 260.72685 
L 106.610332 265.760818 
L 106.949796 265.760818 
L 107.175138 266.320148 
L 110.730538 266.320148 
L 110.910587 265.760818 
L 111.233697 265.760818 
L 111.765824 264.082829 
L 117.129114 264.082829 
L 118.299633 263.523499 
L 125.503126 263.523499 
L 125.803086 260.72685 
L 126.186379 260.72685 
L 126.526264 263.523499 
L 126.875951 263.523499 
L 127.116905 260.72685 
L 127.378051 263.523499 
L 127.812036 260.72685 
L 128.19646 259.60819 
L 132.654006 259.60819 
L 133.038747 259.048861 
L 134.726703 259.048861 
L 135.073699 257.930201 
L 135.493252 255.692882 
L 135.792953 255.133552 
L 136.131711 251.777574 
L 136.54993 251.777574 
L 137.110691 250.658914 
L 137.497691 250.658914 
L 138.166126 249.540254 
L 140.971656 244.506286 
L 141.258121 245.624946 
L 143.264013 245.624946 
L 143.65535 243.387627 
L 144.00044 243.946957 
L 145.381952 243.946957 
L 145.634542 245.065616 
L 146.078826 243.946957 
L 147.082167 243.946957 
L 147.423633 242.828297 
L 147.753004 242.828297 
L 148.14309 242.268967 
L 148.3005 242.268967 
L 148.476424 240.590978 
L 148.714904 240.590978 
L 149.515958 240.031648 
L 150.177842 241.709638 
L 150.339692 241.709638 
L 150.858554 241.150308 
L 151.191459 240.031648 
L 152.911856 240.031648 
L 153.244022 239.472318 
L 153.600722 239.472318 
L 153.930963 238.912989 
L 154.240324 238.912989 
L 154.959174 238.353659 
L 155.330429 238.353659 
L 155.700643 236.67567 
L 156.304306 236.67567 
L 156.681564 236.11634 
L 156.915982 236.11634 
L 157.046855 246.184276 
L 157.145961 245.624946 
L 157.713277 245.624946 
L 158.049394 244.506286 
L 158.498284 244.506286 
L 158.729506 243.946957 
L 159.237978 243.946957 
L 159.288575 243.387627 
L 160.089578 243.387627 
L 160.519637 241.709638 
L 161.413362 240.031648 
L 162.866022 240.031648 
L 163.180088 238.912989 
L 163.298347 239.472318 
L 163.435295 239.472318 
L 163.815069 240.031648 
L 165.197173 239.472318 
L 168.655026 239.472318 
L 169.055705 240.031648 
L 170.729291 240.031648 
L 170.967481 240.590978 
L 171.403789 240.031648 
L 174.101577 240.031648 
L 174.505094 239.472318 
L 175.069174 239.472318 
L 175.526211 238.912989 
L 175.756178 239.472318 
L 177.959335 239.472318 
L 178.654637 238.353659 
L 180.134394 238.353659 
L 180.38353 230.523042 
L 180.664384 230.523042 
L 183.057857 228.845053 
L 183.204937 229.404382 
L 183.358377 228.845053 
L 183.756653 229.404382 
L 184.090734 229.404382 
L 184.442355 228.845053 
L 184.706403 228.845053 
L 185.130324 227.726393 
L 185.304667 227.726393 
L 185.466016 228.285723 
L 185.827659 227.167063 
L 188.23201 227.167063 
L 188.465916 226.607734 
L 188.855886 226.607734 
L 189.217803 226.048404 
L 189.593536 226.607734 
L 189.759327 226.607734 
L 190.274302 227.167063 
L 190.660132 224.370414 
L 190.934809 226.048404 
L 191.293048 226.048404 
L 191.580192 222.692425 
L 191.781101 223.251755 
L 191.994977 222.133095 
L 192.102699 222.692425 
L 192.234544 221.014436 
L 192.576359 221.014436 
L 193.009447 220.455106 
L 193.857677 221.014436 
L 194.05082 219.895776 
L 194.36647 219.895776 
L 194.590002 221.573766 
L 195.348777 219.895776 
L 196.10326 219.336446 
L 196.765871 219.336446 
L 197.11347 217.658457 
L 197.432975 217.658457 
L 197.622232 218.217787 
L 197.954402 218.217787 
L 199.239126 214.861808 
L 199.453387 217.099127 
L 199.865818 217.658457 
L 200.349551 214.861808 
L 201.649799 214.861808 
L 201.76111 214.302478 
L 202.279206 213.743149 
L 203.660325 213.743149 
L 204.292507 210.9465 
L 207.84506 210.9465 
L 208.125585 209.82784 
L 208.494537 212.065159 
L 208.709334 210.38717 
L 212.582333 210.38717 
L 212.905928 209.82784 
L 213.686286 206.471861 
L 213.979051 208.149851 
L 214.327949 207.590521 
L 214.714279 208.149851 
L 214.986141 208.149851 
L 215.398075 202.556553 
L 215.618958 202.556553 
L 215.661829 201.997223 
L 216.356905 201.997223 
L 216.74813 200.878564 
L 217.093049 199.200574 
L 218.130635 198.641245 
L 218.196287 199.200574 
L 218.759649 199.759904 
L 218.843322 199.200574 
L 221.557857 199.200574 
L 221.74674 198.641245 
L 222.25333 198.081915 
L 222.929801 196.963255 
L 223.105748 195.844596 
L 223.34351 195.844596 
L 223.609861 194.725936 
L 223.93055 195.285266 
L 224.289631 195.285266 
L 224.560199 195.844596 
L 224.941633 195.285266 
L 225.281998 195.285266 
L 225.608218 194.725936 
L 225.872294 194.725936 
L 226.369383 195.285266 
L 226.627806 194.725936 
L 226.895273 195.285266 
L 227.346473 198.081915 
L 227.671981 198.641245 
L 228.41912 197.522585 
L 228.528354 193.607277 
L 228.694896 193.607277 
L 228.999628 193.047947 
L 229.353656 193.607277 
L 229.676881 193.607277 
L 230.07505 194.166606 
L 230.419926 193.047947 
L 231.664622 193.047947 
L 232.159285 192.488617 
L 232.441978 192.488617 
L 232.463914 191.929287 
L 233.874318 191.929287 
L 234.275853 190.810628 
L 236.249269 190.810628 
L 236.642662 189.691968 
L 240.422673 189.691968 
L 240.649063 189.132638 
L 241.259643 189.132638 
L 241.773411 188.573309 
L 242.117568 187.454649 
L 242.220478 188.013979 
L 242.594552 186.895319 
L 243.42671 186.895319 
L 246.79709 185.77666 
L 255.128096 185.77666 
L 255.467445 186.335989 
L 257.096243 186.335989 
L 257.433861 185.77666 
L 258.552675 185.77666 
L 258.938821 185.21733 
L 259.216484 185.77666 
L 259.538729 185.21733 
L 259.895286 185.77666 
L 260.187928 184.658 
L 260.636131 185.21733 
L 260.963164 184.658 
L 268.071899 184.658 
L 268.439108 185.77666 
L 268.828125 185.21733 
L 269.179953 185.77666 
L 269.574036 185.21733 
L 269.89008 185.77666 
L 271.20908 185.77666 
L 271.543998 185.21733 
L 271.922303 185.77666 
L 272.266961 184.658 
L 272.950372 184.658 
L 273.335951 185.21733 
L 273.624484 184.09867 
L 273.995651 184.09867 
L 274.28241 184.658 
L 275.187479 183.539341 
L 275.716949 184.09867 
L 276.03152 183.539341 
L 276.700769 183.539341 
L 277.078491 184.09867 
L 277.449392 182.420681 
L 277.806381 182.980011 
L 278.491741 182.980011 
L 278.752995 183.539341 
L 279.087119 182.980011 
L 279.451755 182.980011 
L 279.777164 187.454649 
L 279.906445 186.895319 
L 280.162164 186.895319 
L 280.340303 186.335989 
L 280.495557 186.335989 
L 280.699964 185.77666 
L 280.838488 186.895319 
L 281.162857 186.335989 
L 281.295679 186.335989 
L 281.522367 185.77666 
L 282.109939 185.77666 
L 282.395681 184.658 
L 282.67887 185.77666 
L 282.863243 185.21733 
L 283.902746 185.21733 
L 284.212203 185.77666 
L 284.505683 185.77666 
L 284.874472 185.21733 
L 285.215488 185.21733 
L 285.619736 185.77666 
L 286.009841 185.21733 
L 286.312525 185.21733 
L 286.788853 184.09867 
L 288.731931 184.09867 
L 289.05154 184.658 
L 290.557481 184.658 
L 290.903342 184.09867 
L 291.175402 183.539341 
L 291.708073 183.539341 
L 291.874258 182.420681 
L 291.950491 182.980011 
L 292.130731 182.420681 
L 292.637706 182.420681 
L 292.886234 181.302021 
L 293.562924 181.302021 
L 293.664146 180.742692 
L 293.878792 180.183362 
L 294.923413 180.183362 
L 295.173931 178.505373 
L 295.405097 177.946043 
L 295.538503 177.946043 
L 295.988516 177.386713 
L 296.146903 177.946043 
L 296.223661 177.386713 
L 296.386062 177.386713 
L 296.576175 176.827383 
L 296.718455 176.827383 
L 297.299547 176.268053 
L 298.603218 176.268053 
L 298.939442 176.827383 
L 299.261604 176.268053 
L 299.624763 176.268053 
L 299.798809 175.708724 
L 299.840672 176.268053 
L 300.047246 175.708724 
L 300.208813 175.708724 
L 300.368368 174.590064 
L 300.982751 173.471405 
L 301.430132 174.030734 
L 301.770271 173.471405 
L 302.438952 173.471405 
L 302.801877 172.352745 
L 302.934739 172.912075 
L 303.15058 171.234085 
L 303.456432 171.793415 
L 303.654792 171.234085 
L 303.811634 171.793415 
L 303.984953 170.674756 
L 304.338218 170.674756 
L 304.442848 170.115426 
L 304.857307 170.674756 
L 305.177857 169.556096 
L 305.901062 169.556096 
L 306.161402 168.437437 
L 306.530671 169.556096 
L 306.781542 169.556096 
L 306.873518 168.996766 
L 307.548468 168.996766 
L 307.864186 166.759447 
L 308.318237 168.996766 
L 308.388635 168.437437 
L 308.986486 168.996766 
L 309.043098 167.878107 
L 309.248724 167.878107 
L 309.663072 167.318777 
L 309.999336 167.878107 
L 310.253375 167.878107 
L 310.629303 166.759447 
L 311.038283 166.759447 
L 311.434892 167.318777 
L 311.731306 166.759447 
L 311.91141 167.318777 
L 312.090542 166.200117 
L 313.677815 166.200117 
L 314.165661 165.640788 
L 315.161725 165.640788 
L 315.515144 166.759447 
L 316.181241 166.759447 
L 316.514619 166.200117 
L 319.547432 166.200117 
L 319.95673 166.759447 
L 320.340396 165.640788 
L 324.994777 165.640788 
L 326.015822 165.081458 
L 326.622265 165.081458 
L 327.11478 164.522128 
L 327.504 164.522128 
L 327.732717 163.403468 
L 328.095332 163.962798 
L 332.913508 163.962798 
L 333.3343 164.522128 
L 333.667912 163.962798 
L 333.997494 164.522128 
L 334.221323 166.759447 
L 336.268034 166.759447 
L 336.605577 165.640788 
L 337.079329 166.759447 
L 339.040321 166.759447 
L 339.334234 165.640788 
L 339.445311 166.759447 
L 339.948748 166.759447 
L 340.181459 165.640788 
L 340.358265 166.759447 
L 340.474801 166.759447 
L 340.69381 165.640788 
L 340.849255 165.640788 
L 341.049743 166.759447 
L 341.225087 165.640788 
L 341.337455 166.759447 
L 341.382712 165.640788 
L 342.588654 165.640788 
L 342.983428 163.962798 
L 343.422249 163.962798 
L 343.458442 163.403468 
L 343.812271 163.403468 
L 343.995484 162.844139 
L 344.151691 163.403468 
L 344.343596 162.844139 
L 344.473373 163.403468 
L 344.659004 162.844139 
L 344.777748 162.844139 
L 344.906472 163.403468 
L 344.924124 162.844139 
L 345.309942 162.844139 
L 345.551681 162.284809 
L 345.704149 162.284809 
L 345.932472 161.166149 
L 346.185817 160.60682 
L 346.360788 161.166149 
L 348.309643 161.166149 
L 348.588294 160.60682 
L 350.081876 160.60682 
L 350.320129 160.04749 
L 350.635057 160.04749 
L 350.868749 159.48816 
L 350.997553 160.04749 
L 351.615506 160.04749 
L 351.824046 158.92883 
L 352.391659 158.92883 
L 352.446167 158.3695 
L 352.52537 158.92883 
L 352.840318 158.92883 
L 352.867733 158.3695 
L 353.096668 157.810171 
L 353.160653 158.3695 
L 353.420164 156.132181 
L 354.471181 156.132181 
L 354.576842 155.572852 
L 354.807091 155.572852 
L 354.94197 154.454192 
L 355.100266 155.572852 
L 356.495531 155.572852 
L 356.576267 155.013522 
L 356.843893 155.572852 
L 356.97203 155.013522 
L 357.208942 155.572852 
L 357.516679 155.572852 
L 357.705395 154.454192 
L 358.049402 154.454192 
L 358.19051 155.013522 
L 358.311409 153.894862 
L 358.668462 155.572852 
L 359.042627 154.454192 
L 359.313675 155.572852 
L 359.948176 155.572852 
L 360.441977 153.894862 
L 360.595631 154.454192 
L 360.765794 153.894862 
L 361.224947 155.013522 
L 361.371971 153.894862 
L 362.461639 153.894862 
L 362.637281 153.335532 
L 362.943363 153.335532 
L 363.10653 153.894862 
L 363.312461 153.335532 
L 363.442675 153.894862 
L 363.839343 152.776203 
L 364.380907 152.776203 
L 364.762854 151.657543 
L 365.426389 152.776203 
L 365.568192 152.216873 
L 365.742643 152.776203 
L 365.853272 152.216873 
L 366.075223 152.216873 
L 366.168243 152.776203 
L 366.598016 151.657543 
L 366.819256 152.216873 
L 366.928721 151.657543 
L 367.154286 152.216873 
L 367.453861 152.216873 
L 367.647087 151.657543 
L 367.774136 152.216873 
L 367.899344 152.216873 
L 368.178618 152.776203 
L 368.303726 151.657543 
L 368.870819 151.657543 
L 368.909045 150.538884 
L 371.334471 150.538884 
L 371.573745 149.979554 
L 371.730798 150.538884 
L 371.863854 149.979554 
L 371.964922 150.538884 
L 372.086155 149.420224 
L 372.644728 149.420224 
L 372.908217 148.860894 
L 372.961617 149.420224 
L 373.016328 148.860894 
L 373.317213 149.420224 
L 373.394975 148.860894 
L 373.689222 148.301564 
L 373.804471 147.742235 
L 374.024489 147.742235 
L 374.075079 147.182905 
L 374.381415 145.504916 
L 374.519295 146.064245 
L 374.705387 146.064245 
L 374.738912 144.945586 
L 376.04637 144.945586 
L 376.208763 144.386256 
L 376.464903 144.945586 
L 377.221288 143.267596 
L 377.459863 143.267596 
L 377.601837 142.708267 
L 377.932523 142.708267 
L 377.94063 142.148937 
L 378.042567 142.708267 
L 378.140284 141.589607 
L 378.284712 141.589607 
L 378.484636 141.030277 
L 379.856087 141.030277 
L 379.89228 141.589607 
L 379.978618 140.470948 
L 380.340297 140.470948 
L 380.525007 141.030277 
L 380.667191 140.470948 
L 380.881257 141.030277 
L 381.041645 140.470948 
L 381.221845 140.470948 
L 381.376687 141.030277 
L 381.530218 139.352288 
L 383.368151 139.352288 
L 383.920856 138.233628 
L 384.211791 138.792958 
L 391.154691 138.792958 
L 391.272569 138.233628 
L 391.483404 138.792958 
L 391.544169 138.233628 
L 392.17416 138.233628 
L 392.348606 137.674299 
L 393.232799 137.674299 
L 393.350939 137.114969 
L 393.517465 137.674299 
L 394.871916 137.674299 
L 395.059786 137.114969 
L 395.296376 137.674299 
L 395.427011 137.674299 
L 395.635193 136.555639 
L 395.749716 137.114969 
L 396.257323 137.114969 
L 396.478496 136.555639 
L 397.519567 136.555639 
L 397.689154 137.674299 
L 398.032783 136.555639 
L 399.881686 136.555639 
L 400.071252 135.996309 
L 400.240605 135.996309 
L 400.422993 135.43698 
L 400.559317 135.43698 
L 400.728066 134.87765 
L 401.122892 134.87765 
L 401.192837 134.31832 
L 401.521982 134.31832 
L 401.729891 135.43698 
L 401.892236 134.87765 
L 402.140741 134.87765 
L 402.242071 134.31832 
L 402.622243 134.31832 
L 402.962271 133.75899 
L 403.333052 132.081001 
L 403.454448 132.640331 
L 403.567483 132.081001 
L 403.826929 131.521671 
L 403.949957 132.081001 
L 404.158604 131.521671 
L 404.280186 131.521671 
L 404.498584 132.081001 
L 404.676954 132.081001 
L 405.026399 130.403012 
L 405.23746 130.962341 
L 405.363184 130.962341 
L 405.528229 130.403012 
L 405.571628 129.843682 
L 405.711966 129.843682 
L 405.780454 130.403012 
L 406.007142 129.843682 
L 406.164111 130.403012 
L 406.293519 129.843682 
L 406.852354 129.843682 
L 407.060426 133.19966 
L 407.616132 132.081001 
L 407.983047 132.081001 
L 408.111387 131.521671 
L 408.311287 132.081001 
L 408.439599 132.081001 
L 408.591427 132.640331 
L 408.766001 132.081001 
L 409.005799 132.081001 
L 409.123788 132.640331 
L 409.273695 132.081001 
L 409.478145 132.640331 
L 409.558504 132.081001 
L 409.854271 131.521671 
L 410.146739 131.521671 
L 410.295736 132.081001 
L 410.578635 131.521671 
L 411.733745 131.521671 
L 411.83548 128.725022 
L 412.133701 130.962341 
L 412.446822 131.521671 
L 413.010048 131.521671 
L 413.441846 130.403012 
L 413.589954 132.081001 
L 413.839237 131.521671 
L 414.157019 132.081001 
L 414.302388 130.403012 
L 414.477899 131.521671 
L 414.64377 131.521671 
L 414.754235 130.962341 
L 414.851472 126.487703 
L 415.189161 128.725022 
L 415.217175 125.928373 
L 416.119798 125.928373 
L 416.546776 124.809714 
L 416.72291 125.369044 
L 417.355235 125.369044 
L 417.527522 125.928373 
L 417.711661 125.369044 
L 417.913637 125.369044 
L 418.032294 125.928373 
L 418.393277 125.369044 
L 418.605342 125.369044 
L 418.74437 124.809714 
L 418.914406 125.369044 
L 419.097079 125.369044 
L 419.268271 125.928373 
L 419.374313 125.369044 
L 420.327923 125.369044 
L 420.566498 123.691054 
L 420.854948 124.250384 
L 421.093515 124.250384 
L 421.286654 124.809714 
L 421.374469 124.250384 
L 421.673638 124.809714 
L 421.785482 124.250384 
L 422.049038 124.250384 
L 422.152146 123.691054 
L 422.46711 124.250384 
L 423.116138 124.250384 
L 423.356762 123.691054 
L 423.757599 123.691054 
L 423.858667 123.131724 
L 424.029485 123.691054 
L 424.428801 122.572395 
L 424.547616 122.572395 
L 424.723834 122.013065 
L 424.886275 122.013065 
L 425.19192 121.453735 
L 427.678167 121.453735 
L 427.943037 120.894405 
L 428.191399 120.894405 
L 428.241964 122.013065 
L 428.304588 121.453735 
L 428.709788 121.453735 
L 428.802276 120.894405 
L 429.335439 120.894405 
L 429.590066 120.335075 
L 429.932052 120.335075 
L 429.943427 120.894405 
L 430.057112 120.335075 
L 430.161662 120.894405 
L 431.650813 120.894405 
L 431.930035 121.453735 
L 432.70894 120.894405 
L 434.324191 120.894405 
L 434.394084 120.335075 
L 436.089039 120.335075 
L 436.241717 119.775746 
L 437.809206 116.979097 
L 437.957766 116.979097 
L 438.112758 116.419767 
L 438.181782 116.979097 
L 438.515577 116.419767 
L 438.825693 115.860437 
L 439.196574 115.860437 
L 439.321122 115.301107 
L 439.789827 115.301107 
L 440.468692 115.860437 
L 440.502892 114.182448 
L 441.049253 114.182448 
L 441.21859 114.741778 
L 441.341585 114.182448 
L 442.257616 114.182448 
L 442.596806 114.741778 
L 444.234327 114.741778 
L 445.06554 114.182448 
L 446.744642 114.182448 
L 447.57146 113.623118 
L 447.68204 113.063788 
L 450.168672 113.063788 
L 450.40228 113.623118 
L 451.66464 113.623118 
L 452.586384 114.182448 
L 453.25807 114.182448 
L 453.5914 113.623118 
L 453.887334 112.504459 
L 454.063528 112.504459 
L 454.070405 113.063788 
L 456.046762 113.063788 
L 456.258875 112.504459 
L 461.251697 112.504459 
L 461.881235 111.945129 
L 462.123848 111.945129 
L 462.218551 110.826469 
L 462.52711 110.826469 
L 462.656693 111.385799 
L 462.857566 110.826469 
L 463.985412 110.826469 
L 464.488147 110.267139 
L 464.837366 109.14848 
L 467.895871 109.14848 
L 468.434196 109.70781 
L 468.58995 109.14848 
L 468.747512 109.70781 
L 468.924634 109.14848 
L 469.763482 109.14848 
L 470.150233 109.70781 
L 470.346489 109.14848 
L 470.88764 110.267139 
L 471.09855 109.14848 
L 472.408108 109.14848 
L 472.4236 108.58915 
L 474.498965 108.58915 
L 475.508032 108.02982 
L 475.81085 108.58915 
L 476.03138 108.02982 
L 476.1741 108.58915 
L 476.373469 108.58915 
L 476.509856 108.02982 
L 476.990584 109.14848 
L 477.307977 108.58915 
L 477.734673 109.14848 
L 478.050728 109.14848 
L 478.194266 108.58915 
L 479.065639 108.58915 
L 480.100977 109.14848 
L 480.256815 108.58915 
L 481.287031 108.58915 
L 481.621513 109.14848 
L 486.864963 108.58915 
L 487.257574 109.14848 
L 487.596883 108.58915 
L 487.900928 109.14848 
L 487.934946 108.58915 
L 488.199645 108.02982 
L 488.352942 108.02982 
L 488.493169 107.470491 
L 490.93103 107.470491 
L 490.982977 106.911161 
L 491.286006 106.911161 
L 492.095136 107.470491 
L 492.120876 106.911161 
L 492.43175 107.470491 
L 492.507309 106.351831 
L 492.707404 106.351831 
L 493.113351 105.792501 
L 493.793641 105.792501 
L 494.206718 106.351831 
L 494.671167 105.233171 
L 494.690217 104.673842 
L 495.009977 104.114512 
L 495.141397 104.114512 
L 495.473235 104.673842 
L 495.93984 104.673842 
L 496.036838 104.114512 
L 497.09923 104.114512 
L 497.245587 104.673842 
L 497.424762 103.555182 
L 497.572441 103.555182 
L 497.852724 104.114512 
L 498.107629 103.555182 
L 498.676072 103.555182 
L 498.926419 101.877193 
L 500.711885 101.877193 
L 500.925344 101.317863 
L 501.05605 101.317863 
L 501.271125 101.877193 
L 501.326594 101.317863 
L 501.896307 101.317863 
L 502.010894 100.758533 
L 502.322114 100.199203 
L 502.411005 99.080544 
L 502.896572 99.080544 
L 503.079011 97.402555 
L 503.458885 97.402555 
L 503.681055 97.961884 
L 503.801081 97.402555 
L 503.962652 97.402555 
L 503.974991 95.724565 
L 504.839106 95.724565 
L 504.988898 95.165235 
L 505.361407 95.165235 
L 505.747415 95.724565 
L 505.787118 94.605906 
L 506.128897 94.605906 
L 506.191897 94.046576 
L 506.43004 93.487246 
L 507.059137 93.487246 
L 507.151601 92.368587 
L 507.421577 92.368587 
L 507.579857 91.809257 
L 507.731737 91.809257 
L 508.27639 91.249927 
L 508.489551 91.809257 
L 508.616493 97.961884 
L 508.754167 98.521214 
L 508.84741 96.283895 
L 509.519041 96.283895 
L 509.795095 96.843225 
L 509.996231 95.724565 
L 510.989535 95.724565 
L 511.189741 96.283895 
L 511.346496 95.724565 
L 512.404445 95.724565 
L 512.53471 95.165235 
L 513.017038 96.283895 
L 513.409244 95.724565 
L 513.633994 95.724565 
L 513.720316 95.165235 
L 513.91874 96.283895 
L 514.111621 95.165235 
L 514.911921 95.165235 
L 515.035965 95.724565 
L 515.32104 95.724565 
L 515.365885 95.165235 
L 515.68867 94.605906 
L 515.701267 95.165235 
L 515.961334 94.605906 
L 516.308302 94.605906 
L 516.62074 94.046576 
L 518.242074 94.046576 
L 518.363644 93.487246 
L 518.685179 94.046576 
L 518.695914 93.487246 
L 519.157612 92.927916 
L 519.441298 92.927916 
L 519.767751 92.368587 
L 519.930752 91.809257 
L 520.055375 91.809257 
L 520.447533 92.927916 
L 520.525002 91.809257 
L 520.788705 92.368587 
L 521.010664 91.809257 
L 522.001257 91.809257 
L 522.112247 91.249927 
L 522.250576 91.809257 
L 522.729937 91.249927 
L 522.961481 91.809257 
L 523.196141 91.249927 
L 523.33713 91.809257 
L 523.665482 90.690597 
L 523.892348 91.249927 
L 524.668315 91.249927 
L 524.977025 90.690597 
L 525.427789 90.690597 
L 525.786426 91.809257 
L 525.882014 91.249927 
L 526.265211 91.249927 
L 526.36246 90.131267 
L 526.845756 91.249927 
L 527.014533 90.690597 
L 527.403936 91.249927 
L 527.688181 91.249927 
L 527.833804 90.690597 
L 528.18188 90.690597 
L 528.637717 90.131267 
L 528.696771 91.249927 
L 528.860435 90.131267 
L 529.01048 90.690597 
L 529.100539 90.131267 
L 529.457806 90.690597 
L 529.886474 90.131267 
L 530.102403 90.131267 
L 530.398809 90.690597 
L 530.820129 90.690597 
L 531.252109 89.571938 
L 531.478388 90.131267 
L 531.935949 90.131267 
L 532.14992 90.690597 
L 532.18142 91.249927 
L 532.447978 90.131267 
L 532.58934 90.690597 
L 532.755616 90.131267 
L 533.002688 90.690597 
L 533.282328 90.690597 
L 533.461972 91.249927 
L 533.802663 91.249927 
L 534.157365 90.131267 
L 534.398048 90.690597 
L 534.691151 89.571938 
L 534.843793 89.571938 
L 534.939605 90.131267 
L 535.237702 90.131267 
L 535.262723 89.571938 
L 536.25093 89.571938 
L 536.412822 89.012608 
L 536.551489 89.012608 
L 536.76525 88.453278 
L 536.949622 89.012608 
L 537.090234 88.453278 
L 537.299866 88.453278 
L 537.417875 87.893948 
L 537.570187 88.453278 
L 537.61926 87.893948 
L 537.787875 86.775289 
L 537.993878 87.334619 
L 538.058709 87.893948 
L 538.275963 87.334619 
L 538.453507 87.893948 
L 538.667502 87.334619 
L 539.018186 87.334619 
L 539.115831 86.775289 
L 539.358095 87.334619 
L 539.994343 85.656629 
L 540.165494 85.656629 
L 540.342526 86.775289 
L 540.42622 86.215959 
L 540.676511 86.215959 
L 540.790387 86.775289 
L 540.995048 86.775289 
L 541.181378 86.215959 
L 541.420922 86.215959 
L 541.823089 84.53797 
L 542.037052 85.097299 
L 544.849637 85.097299 
L 544.980522 84.53797 
L 545.1465 84.53797 
L 545.279977 85.097299 
L 545.429797 84.53797 
L 546.214982 84.53797 
L 546.326595 83.41931 
L 546.902288 84.53797 
L 547.526819 84.53797 
L 548.203135 83.41931 
L 549.39873 83.97864 
L 549.702359 83.41931 
L 550.036856 83.97864 
L 550.275753 82.85998 
L 550.371568 83.97864 
L 550.686488 82.85998 
L 551.029605 83.97864 
L 551.143187 82.85998 
L 551.363213 82.85998 
L 551.484164 83.41931 
L 551.703396 82.85998 
L 551.834963 82.85998 
L 551.957514 83.41931 
L 552.106416 81.741321 
L 552.496927 82.85998 
L 552.862174 82.85998 
L 553.085352 82.300651 
L 553.506541 82.300651 
L 553.84907 82.85998 
L 554.049316 82.85998 
L 554.200696 81.741321 
L 554.389523 82.85998 
L 554.494946 82.300651 
L 554.749498 81.741321 
L 554.905578 81.741321 
L 555.17846 82.85998 
L 555.4394 81.181991 
L 555.767374 81.181991 
L 555.792268 80.063331 
L 555.815173 80.622661 
L 555.986701 81.181991 
L 556.167012 80.063331 
L 556.242222 81.181991 
L 556.514028 81.181991 
L 556.551063 80.622661 
L 556.857296 80.063331 
L 557.040573 80.063331 
L 557.126478 81.181991 
L 557.537443 80.063331 
L 557.603997 81.181991 
L 557.827839 80.063331 
L 558.00003 81.741321 
L 558.523474 80.622661 
L 558.9178 82.300651 
L 558.948292 81.741321 
L 559.198063 82.300651 
L 559.35597 82.300651 
L 559.519899 81.181991 
L 559.715666 82.300651 
L 560.092043 81.181991 
L 560.234838 82.300651 
L 560.389449 81.741321 
L 560.704516 81.741321 
L 560.912584 82.300651 
L 561.31088 82.300651 
L 561.323037 81.741321 
L 561.949907 82.85998 
L 562.282367 81.181991 
L 562.458815 81.181991 
L 562.664465 81.741321 
L 562.722594 80.622661 
L 563.014533 81.741321 
L 563.194297 80.622661 
L 563.375517 81.741321 
L 563.450408 81.181991 
L 563.715735 81.181991 
L 563.715735 81.181991 
" clip-path="url(#padde8f5098)" style="fill: none; stroke-dasharray: 6,1.5; stroke-dashoffset: 0; stroke: #008000; stroke-width: 1.5"/>
   </g>
   <g id="line2d_20">
    <path d="M 38.539265 361.96554 
L 39.941653 363.0842 
L 41.339514 363.0842 
L 42.691638 362.52487 
L 44.649788 362.52487 
L 48.739407 361.96554 
L 48.854875 362.52487 
L 52.396315 362.52487 
L 52.730074 363.643529 
L 53.468489 363.643529 
L 53.77552 360.287551 
L 54.184703 363.643529 
L 56.177299 363.643529 
L 56.542689 360.287551 
L 59.290785 360.287551 
L 60.739379 360.846881 
L 60.936651 361.40621 
L 62.03782 361.40621 
L 62.346896 359.728221 
L 65.72524 359.728221 
L 66.125946 360.287551 
L 76.425953 360.287551 
L 76.750382 359.728221 
L 82.956319 359.728221 
L 83.265486 361.96554 
L 134.726703 361.96554 
L 135.073699 363.0842 
L 135.493252 366.440178 
L 135.792953 366.440178 
L 136.131711 366.999508 
L 138.166126 366.999508 
L 140.971656 368.677497 
L 141.258121 368.677497 
L 141.738447 369.236827 
L 155.919533 369.236827 
L 156.681564 370.355487 
L 188.855886 370.355487 
L 189.217803 370.914817 
L 189.593536 370.355487 
L 191.781101 370.355487 
L 192.102699 370.914817 
L 197.954402 370.914817 
L 199.239126 372.033476 
L 199.453387 370.914817 
L 199.865818 370.914817 
L 200.20577 372.033476 
L 208.125585 372.033476 
L 208.494537 371.474146 
L 208.709334 372.033476 
L 227.346473 372.033476 
L 227.671981 373.152136 
L 269.179953 373.152136 
L 269.574036 373.711465 
L 364.762854 373.711465 
L 365.143522 373.152136 
L 376.464903 373.152136 
L 376.908583 373.711465 
L 377.027164 374.830125 
L 406.852354 374.830125 
L 407.060426 374.270795 
L 409.983464 374.270795 
L 410.146739 374.830125 
L 528.037015 374.830125 
L 528.064089 374.270795 
L 537.090234 374.270795 
L 537.417875 374.830125 
L 563.715735 374.830125 
L 563.715735 374.830125 
" clip-path="url(#padde8f5098)" style="fill: none; stroke-dasharray: 9,3; stroke-dashoffset: 0; stroke: #ffa500; stroke-width: 1.5"/>
   </g>
   <g id="line2d_21">
    <path d="M 38.539265 323.371785 
L 48.739407 323.371785 
L 48.854875 323.931115 
L 52.396315 323.931115 
L 52.730074 324.490445 
L 53.468489 324.490445 
L 53.77552 325.609104 
L 54.184703 324.490445 
L 56.177299 324.490445 
L 56.789697 326.168434 
L 58.230895 326.168434 
L 58.555589 326.727764 
L 58.75192 326.168434 
L 58.916148 326.727764 
L 74.031694 326.727764 
L 74.353463 327.846424 
L 74.480084 326.727764 
L 75.044239 327.846424 
L 93.101965 327.846424 
L 93.867204 328.405753 
L 94.040555 327.846424 
L 95.268019 327.846424 
L 95.601341 328.405753 
L 95.969094 327.846424 
L 96.844072 327.846424 
L 97.327368 328.405753 
L 97.686152 327.846424 
L 125.503126 327.846424 
L 125.803086 328.405753 
L 126.186379 328.405753 
L 126.526264 327.846424 
L 126.875951 327.846424 
L 127.116905 328.405753 
L 127.378051 327.846424 
L 127.812036 328.405753 
L 135.073699 328.405753 
L 135.493252 327.846424 
L 135.792953 327.846424 
L 136.131711 328.965083 
L 137.782953 328.965083 
L 138.166126 331.761732 
L 140.971656 329.524413 
L 141.258121 330.083743 
L 143.264013 330.083743 
L 143.65535 332.880392 
L 144.00044 333.439721 
L 159.54612 333.439721 
L 160.089578 332.880392 
L 160.519637 333.439721 
L 161.478856 332.880392 
L 163.815069 332.880392 
L 165.197173 333.439721 
L 170.967481 333.439721 
L 171.403789 333.999051 
L 207.84506 333.999051 
L 208.125585 334.558381 
L 208.494537 333.999051 
L 214.986141 333.999051 
L 215.398075 341.270338 
L 216.356905 341.270338 
L 216.74813 345.744976 
L 217.093049 347.422966 
L 237.982271 347.422966 
L 240.649063 347.982296 
L 271.922303 347.982296 
L 272.266961 350.219615 
L 279.451755 350.219615 
L 279.777164 346.863636 
L 296.386062 346.863636 
L 296.576175 347.422966 
L 327.504 347.422966 
L 327.732717 347.982296 
L 328.095332 347.422966 
L 336.450648 347.422966 
L 336.605577 347.982296 
L 336.921688 347.422966 
L 339.040321 347.422966 
L 339.334234 347.982296 
L 339.445311 347.422966 
L 342.588654 347.422966 
L 342.808155 347.982296 
L 352.647902 347.982296 
L 352.840318 347.422966 
L 365.143522 347.422966 
L 365.426389 346.863636 
L 365.568192 347.422966 
L 365.742643 346.863636 
L 365.853272 347.422966 
L 366.075223 347.422966 
L 366.168243 346.863636 
L 366.417145 347.422966 
L 367.899344 347.422966 
L 368.178618 346.863636 
L 368.303726 347.422966 
L 376.908583 347.422966 
L 377.027164 346.863636 
L 406.852354 346.863636 
L 407.060426 347.422966 
L 411.733745 347.422966 
L 411.83548 350.219615 
L 412.133701 347.422966 
L 414.836674 347.422966 
L 414.851472 350.219615 
L 415.189161 347.422966 
L 415.217175 350.219615 
L 442.257616 350.219615 
L 442.596806 349.660285 
L 442.888194 350.219615 
L 475.81085 350.219615 
L 476.03138 350.778944 
L 476.1741 350.219615 
L 476.509856 350.219615 
L 476.990584 350.778944 
L 498.676072 350.778944 
L 498.926419 351.338274 
L 502.010894 351.338274 
L 502.322114 351.897604 
L 508.489551 351.897604 
L 508.616493 351.338274 
L 515.701267 351.338274 
L 515.961334 351.897604 
L 528.037015 351.897604 
L 528.064089 355.812913 
L 537.090234 355.812913 
L 537.417875 355.253583 
L 545.547782 355.253583 
L 546.326595 357.490902 
L 554.200696 357.490902 
L 554.494946 356.931572 
L 563.715735 356.931572 
L 563.715735 356.931572 
" clip-path="url(#padde8f5098)" style="fill: none; stroke-dasharray: 12,4.5; stroke-dashoffset: 0; stroke: #ee82ee; stroke-width: 1.5"/>
   </g>
   <g id="patch_3">
    <path d="M 33.2875 374.830125 
L 33.2875 22.318125 
" style="fill: none; stroke: #000000; stroke-width: 0.8; stroke-linejoin: miter; stroke-linecap: square"/>
   </g>
   <g id="patch_4">
    <path d="M 568.9675 374.830125 
L 568.9675 22.318125 
" style="fill: none; stroke: #000000; stroke-width: 0.8; stroke-linejoin: miter; stroke-linecap: square"/>
   </g>
   <g id="patch_5">
    <path d="M 33.2875 374.830125 
L 568.9675 374.830125 
" style="fill: none; stroke: #000000; stroke-width: 0.8; stroke-linejoin: miter; stroke-linecap: square"/>
   </g>
   <g id="patch_6">
    <path d="M 33.2875 22.318125 
L 568.9675 22.318125 
" style="fill: none; stroke: #000000; stroke-width: 0.8; stroke-linejoin: miter; stroke-linecap: square"/>
   </g>
   <g id="text_17">
    <!-- Rust/Coreutils running GNU's testsuite -->
    <g transform="translate(186.090625 16.318125) scale(0.12 -0.12)">
     <defs>
      <path id="DejaVuSans-52" d="M 2841 2188 
Q 3044 2119 3236 1894 
Q 3428 1669 3622 1275 
L 4263 0 
L 3584 0 
L 2988 1197 
Q 2756 1666 2539 1819 
Q 2322 1972 1947 1972 
L 1259 1972 
L 1259 0 
L 628 0 
L 628 4666 
L 2053 4666 
Q 2853 4666 3247 4331 
Q 3641 3997 3641 3322 
Q 3641 2881 3436 2590 
Q 3231 2300 2841 2188 
z
M 1259 4147 
L 1259 2491 
L 2053 2491 
Q 2509 2491 2742 2702 
Q 2975 2913 2975 3322 
Q 2975 3731 2742 3939 
Q 2509 4147 2053 4147 
L 1259 4147 
z
" transform="scale(0.015625)"/>
      <path id="DejaVuSans-75" d="M 544 1381 
L 544 3500 
L 1119 3500 
L 1119 1403 
Q 1119 906 1312 657 
Q 1506 409 1894 409 
Q 2359 409 2629 706 
Q 2900 1003 2900 1516 
L 2900 3500 
L 3475 3500 
L 3475 0 
L 2900 0 
L 2900 538 
Q 2691 219 2414 64 
Q 2138 -91 1772 -91 
Q 1169 -91 856 284 
Q 544 659 544 1381 
z
M 1991 3584 
L 1991 3584 
z
" transform="scale(0.015625)"/>
      <path id="DejaVuSans-73" d="M 2834 3397 
L 2834 2853 
Q 2591 2978 2328 3040 
Q 2066 3103 1784 3103 
Q 1356 3103 1142 2972 
Q 928 2841 928 2578 
Q 928 2378 1081 2264 
Q 1234 2150 1697 2047 
L 1894 2003 
Q 2506 1872 2764 1633 
Q 3022 1394 3022 966 
Q 3022 478 2636 193 
Q 2250 -91 1575 -91 
Q 1294 -91 989 -36 
Q 684 19 347 128 
L 347 722 
Q 666 556 975 473 
Q 1284 391 1588 391 
Q 1994 391 2212 530 
Q 2431 669 2431 922 
Q 2431 1156 2273 1281 
Q 2116 1406 1581 1522 
L 1381 1569 
Q 847 1681 609 1914 
Q 372 2147 372 2553 
Q 372 3047 722 3315 
Q 1072 3584 1716 3584 
Q 2034 3584 2315 3537 
Q 2597 3491 2834 3397 
z
" transform="scale(0.015625)"/>
      <path id="DejaVuSans-74" d="M 1172 4494 
L 1172 3500 
L 2356 3500 
L 2356 3053 
L 1172 3053 
L 1172 1153 
Q 1172 725 1289 603 
Q 1406 481 1766 481 
L 2356 481 
L 2356 0 
L 1766 0 
Q 1100 0 847 248 
Q 594 497 594 1153 
L 594 3053 
L 172 3053 
L 172 3500 
L 594 3500 
L 594 4494 
L 1172 4494 
z
" transform="scale(0.015625)"/>
      <path id="DejaVuSans-2f" d="M 1625 4666 
L 2156 4666 
L 531 -594 
L 0 -594 
L 1625 4666 
z
" transform="scale(0.015625)"/>
      <path id="DejaVuSans-43" d="M 4122 4306 
L 4122 3641 
Q 3803 3938 3442 4084 
Q 3081 4231 2675 4231 
Q 1875 4231 1450 3742 
Q 1025 3253 1025 2328 
Q 1025 1406 1450 917 
Q 1875 428 2675 428 
Q 3081 428 3442 575 
Q 3803 722 4122 1019 
L 4122 359 
Q 3791 134 3420 21 
Q 3050 -91 2638 -91 
Q 1578 -91 968 557 
Q 359 1206 359 2328 
Q 359 3453 968 4101 
Q 1578 4750 2638 4750 
Q 3056 4750 3426 4639 
Q 3797 4528 4122 4306 
z
" transform="scale(0.015625)"/>
      <path id="DejaVuSans-6f" d="M 1959 3097 
Q 1497 3097 1228 2736 
Q 959 2375 959 1747 
Q 959 1119 1226 758 
Q 1494 397 1959 397 
Q 2419 397 2687 759 
Q 2956 1122 2956 1747 
Q 2956 2369 2687 2733 
Q 2419 3097 1959 3097 
z
M 1959 3584 
Q 2709 3584 3137 3096 
Q 3566 2609 3566 1747 
Q 3566 888 3137 398 
Q 2709 -91 1959 -91 
Q 1206 -91 779 398 
Q 353 888 353 1747 
Q 353 2609 779 3096 
Q 1206 3584 1959 3584 
z
" transform="scale(0.015625)"/>
      <path id="DejaVuSans-72" d="M 2631 2963 
Q 2534 3019 2420 3045 
Q 2306 3072 2169 3072 
Q 1681 3072 1420 2755 
Q 1159 2438 1159 1844 
L 1159 0 
L 581 0 
L 581 3500 
L 1159 3500 
L 1159 2956 
Q 1341 3275 1631 3429 
Q 1922 3584 2338 3584 
Q 2397 3584 2469 3576 
Q 2541 3569 2628 3553 
L 2631 2963 
z
" transform="scale(0.015625)"/>
      <path id="DejaVuSans-65" d="M 3597 1894 
L 3597 1613 
L 953 1613 
Q 991 1019 1311 708 
Q 1631 397 2203 397 
Q 2534 397 2845 478 
Q 3156 559 3463 722 
L 3463 178 
Q 3153 47 2828 -22 
Q 2503 -91 2169 -91 
Q 1331 -91 842 396 
Q 353 884 353 1716 
Q 353 2575 817 3079 
Q 1281 3584 2069 3584 
Q 2775 3584 3186 3129 
Q 3597 2675 3597 1894 
z
M 3022 2063 
Q 3016 2534 2758 2815 
Q 2500 3097 2075 3097 
Q 1594 3097 1305 2825 
Q 1016 2553 972 2059 
L 3022 2063 
z
" transform="scale(0.015625)"/>
      <path id="DejaVuSans-69" d="M 603 3500 
L 1178 3500 
L 1178 0 
L 603 0 
L 603 3500 
z
M 603 4863 
L 1178 4863 
L 1178 4134 
L 603 4134 
L 603 4863 
z
" transform="scale(0.015625)"/>
      <path id="DejaVuSans-6c" d="M 603 4863 
L 1178 4863 
L 1178 0 
L 603 0 
L 603 4863 
z
" transform="scale(0.015625)"/>
      <path id="DejaVuSans-20" transform="scale(0.015625)"/>
      <path id="DejaVuSans-6e" d="M 3513 2113 
L 3513 0 
L 2938 0 
L 2938 2094 
Q 2938 2591 2744 2837 
Q 2550 3084 2163 3084 
Q 1697 3084 1428 2787 
Q 1159 2491 1159 1978 
L 1159 0 
L 581 0 
L 581 3500 
L 1159 3500 
L 1159 2956 
Q 1366 3272 1645 3428 
Q 1925 3584 2291 3584 
Q 2894 3584 3203 3211 
Q 3513 2838 3513 2113 
z
" transform="scale(0.015625)"/>
      <path id="DejaVuSans-67" d="M 2906 1791 
Q 2906 2416 2648 2759 
Q 2391 3103 1925 3103 
Q 1463 3103 1205 2759 
Q 947 2416 947 1791 
Q 947 1169 1205 825 
Q 1463 481 1925 481 
Q 2391 481 2648 825 
Q 2906 1169 2906 1791 
z
M 3481 434 
Q 3481 -459 3084 -895 
Q 2688 -1331 1869 -1331 
Q 1566 -1331 1297 -1286 
Q 1028 -1241 775 -1147 
L 775 -588 
Q 1028 -725 1275 -790 
Q 1522 -856 1778 -856 
Q 2344 -856 2625 -561 
Q 2906 -266 2906 331 
L 2906 616 
Q 2728 306 2450 153 
Q 2172 0 1784 0 
Q 1141 0 747 490 
Q 353 981 353 1791 
Q 353 2603 747 3093 
Q 1141 3584 1784 3584 
Q 2172 3584 2450 3431 
Q 2728 3278 2906 2969 
L 2906 3500 
L 3481 3500 
L 3481 434 
z
" transform="scale(0.015625)"/>
      <path id="DejaVuSans-47" d="M 3809 666 
L 3809 1919 
L 2778 1919 
L 2778 2438 
L 4434 2438 
L 4434 434 
Q 4069 175 3628 42 
Q 3188 -91 2688 -91 
Q 1594 -91 976 548 
Q 359 1188 359 2328 
Q 359 3472 976 4111 
Q 1594 4750 2688 4750 
Q 3144 4750 3555 4637 
Q 3966 4525 4313 4306 
L 4313 3634 
Q 3963 3931 3569 4081 
Q 3175 4231 2741 4231 
Q 1884 4231 1454 3753 
Q 1025 3275 1025 2328 
Q 1025 1384 1454 906 
Q 1884 428 2741 428 
Q 3075 428 3337 486 
Q 3600 544 3809 666 
z
" transform="scale(0.015625)"/>
      <path id="DejaVuSans-4e" d="M 628 4666 
L 1478 4666 
L 3547 763 
L 3547 4666 
L 4159 4666 
L 4159 0 
L 3309 0 
L 1241 3903 
L 1241 0 
L 628 0 
L 628 4666 
z
" transform="scale(0.015625)"/>
      <path id="DejaVuSans-55" d="M 556 4666 
L 1191 4666 
L 1191 1831 
Q 1191 1081 1462 751 
Q 1734 422 2344 422 
Q 2950 422 3222 751 
Q 3494 1081 3494 1831 
L 3494 4666 
L 4128 4666 
L 4128 1753 
Q 4128 841 3676 375 
Q 3225 -91 2344 -91 
Q 1459 -91 1007 375 
Q 556 841 556 1753 
L 556 4666 
z
" transform="scale(0.015625)"/>
      <path id="DejaVuSans-27" d="M 1147 4666 
L 1147 2931 
L 616 2931 
L 616 4666 
L 1147 4666 
z
" transform="scale(0.015625)"/>
     </defs>
     <use xlink:href="#DejaVuSans-52"/>
     <use xlink:href="#DejaVuSans-75" x="64.982422"/>
     <use xlink:href="#DejaVuSans-73" x="128.361328"/>
     <use xlink:href="#DejaVuSans-74" x="180.460938"/>
     <use xlink:href="#DejaVuSans-2f" x="219.669922"/>
     <use xlink:href="#DejaVuSans-43" x="253.361328"/>
     <use xlink:href="#DejaVuSans-6f" x="323.185547"/>
     <use xlink:href="#DejaVuSans-72" x="384.367188"/>
     <use xlink:href="#DejaVuSans-65" x="423.230469"/>
     <use xlink:href="#DejaVuSans-75" x="484.753906"/>
     <use xlink:href="#DejaVuSans-74" x="548.132812"/>
     <use xlink:href="#DejaVuSans-69" x="587.341797"/>
     <use xlink:href="#DejaVuSans-6c" x="615.125"/>
     <use xlink:href="#DejaVuSans-73" x="642.908203"/>
     <use xlink:href="#DejaVuSans-20" x="695.007812"/>
     <use xlink:href="#DejaVuSans-72" x="726.794922"/>
     <use xlink:href="#DejaVuSans-75" x="767.908203"/>
     <use xlink:href="#DejaVuSans-6e" x="831.287109"/>
     <use xlink:href="#DejaVuSans-6e" x="894.666016"/>
     <use xlink:href="#DejaVuSans-69" x="958.044922"/>
     <use xlink:href="#DejaVuSans-6e" x="985.828125"/>
     <use xlink:href="#DejaVuSans-67" x="1049.207031"/>
     <use xlink:href="#DejaVuSans-20" x="1112.683594"/>
     <use xlink:href="#DejaVuSans-47" x="1144.470703"/>
     <use xlink:href="#DejaVuSans-4e" x="1221.960938"/>
     <use xlink:href="#DejaVuSans-55" x="1296.765625"/>
     <use xlink:href="#DejaVuSans-27" x="1369.958984"/>
     <use xlink:href="#DejaVuSans-73" x="1397.449219"/>
     <use xlink:href="#DejaVuSans-20" x="1449.548828"/>
     <use xlink:href="#DejaVuSans-74" x="1481.335938"/>
     <use xlink:href="#DejaVuSans-65" x="1520.544922"/>
     <use xlink:href="#DejaVuSans-73" x="1582.068359"/>
     <use xlink:href="#DejaVuSans-74" x="1634.167969"/>
     <use xlink:href="#DejaVuSans-73" x="1673.376953"/>
     <use xlink:href="#DejaVuSans-75" x="1725.476562"/>
     <use xlink:href="#DejaVuSans-69" x="1788.855469"/>
     <use xlink:href="#DejaVuSans-74" x="1816.638672"/>
     <use xlink:href="#DejaVuSans-65" x="1855.847656"/>
    </g>
   </g>
   <g id="legend_1">
    <g id="patch_7">
     <path d="M 505.762812 236.769437 
L 561.9675 236.769437 
Q 563.9675 236.769437 563.9675 234.769437 
L 563.9675 162.378812 
Q 563.9675 160.378812 561.9675 160.378812 
L 505.762812 160.378812 
Q 503.762812 160.378812 503.762812 162.378812 
L 503.762812 234.769437 
Q 503.762812 236.769437 505.762812 236.769437 
z
" style="fill: #ffffff; opacity: 0.8; stroke: #cccccc; stroke-linejoin: miter"/>
    </g>
    <g id="line2d_22">
     <path d="M 507.762812 168.47725 
L 517.762812 168.47725 
L 527.762812 168.47725 
" style="fill: none; stroke: #0000ff; stroke-width: 1.5; stroke-linecap: square"/>
    </g>
    <g id="text_18">
     <!-- total -->
     <g transform="translate(535.762812 171.97725) scale(0.1 -0.1)">
      <defs>
       <path id="DejaVuSans-61" d="M 2194 1759 
Q 1497 1759 1228 1600 
Q 959 1441 959 1056 
Q 959 750 1161 570 
Q 1363 391 1709 391 
Q 2188 391 2477 730 
Q 2766 1069 2766 1631 
L 2766 1759 
L 2194 1759 
z
M 3341 1997 
L 3341 0 
L 2766 0 
L 2766 531 
Q 2569 213 2275 61 
Q 1981 -91 1556 -91 
Q 1019 -91 701 211 
Q 384 513 384 1019 
Q 384 1609 779 1909 
Q 1175 2209 1959 2209 
L 2766 2209 
L 2766 2266 
Q 2766 2663 2505 2880 
Q 2244 3097 1772 3097 
Q 1472 3097 1187 3025 
Q 903 2953 641 2809 
L 641 3341 
Q 956 3463 1253 3523 
Q 1550 3584 1831 3584 
Q 2591 3584 2966 3190 
Q 3341 2797 3341 1997 
z
" transform="scale(0.015625)"/>
      </defs>
      <use xlink:href="#DejaVuSans-74"/>
      <use xlink:href="#DejaVuSans-6f" x="39.208984"/>
      <use xlink:href="#DejaVuSans-74" x="100.390625"/>
      <use xlink:href="#DejaVuSans-61" x="139.599609"/>
      <use xlink:href="#DejaVuSans-6c" x="200.878906"/>
     </g>
    </g>
    <g id="line2d_23">
     <path d="M 507.762812 183.155375 
L 517.762812 183.155375 
L 527.762812 183.155375 
" style="fill: none; stroke-dasharray: 3,1.5; stroke-dashoffset: 0; stroke: #808080; stroke-width: 1.5"/>
    </g>
    <g id="text_19">
     <!-- fail -->
     <g transform="translate(535.762812 186.655375) scale(0.1 -0.1)">
      <defs>
       <path id="DejaVuSans-66" d="M 2375 4863 
L 2375 4384 
L 1825 4384 
Q 1516 4384 1395 4259 
Q 1275 4134 1275 3809 
L 1275 3500 
L 2222 3500 
L 2222 3053 
L 1275 3053 
L 1275 0 
L 697 0 
L 697 3053 
L 147 3053 
L 147 3500 
L 697 3500 
L 697 3744 
Q 697 4328 969 4595 
Q 1241 4863 1831 4863 
L 2375 4863 
z
" transform="scale(0.015625)"/>
      </defs>
      <use xlink:href="#DejaVuSans-66"/>
      <use xlink:href="#DejaVuSans-61" x="35.205078"/>
      <use xlink:href="#DejaVuSans-69" x="96.484375"/>
      <use xlink:href="#DejaVuSans-6c" x="124.267578"/>
     </g>
    </g>
    <g id="line2d_24">
     <path d="M 507.762812 197.8335 
L 517.762812 197.8335 
L 527.762812 197.8335 
" style="fill: none; stroke-dasharray: 6,1.5; stroke-dashoffset: 0; stroke: #008000; stroke-width: 1.5"/>
    </g>
    <g id="text_20">
     <!-- pass -->
     <g transform="translate(535.762812 201.3335) scale(0.1 -0.1)">
      <defs>
       <path id="DejaVuSans-70" d="M 1159 525 
L 1159 -1331 
L 581 -1331 
L 581 3500 
L 1159 3500 
L 1159 2969 
Q 1341 3281 1617 3432 
Q 1894 3584 2278 3584 
Q 2916 3584 3314 3078 
Q 3713 2572 3713 1747 
Q 3713 922 3314 415 
Q 2916 -91 2278 -91 
Q 1894 -91 1617 61 
Q 1341 213 1159 525 
z
M 3116 1747 
Q 3116 2381 2855 2742 
Q 2594 3103 2138 3103 
Q 1681 3103 1420 2742 
Q 1159 2381 1159 1747 
Q 1159 1113 1420 752 
Q 1681 391 2138 391 
Q 2594 391 2855 752 
Q 3116 1113 3116 1747 
z
" transform="scale(0.015625)"/>
      </defs>
      <use xlink:href="#DejaVuSans-70"/>
      <use xlink:href="#DejaVuSans-61" x="63.476562"/>
      <use xlink:href="#DejaVuSans-73" x="124.755859"/>
      <use xlink:href="#DejaVuSans-73" x="176.855469"/>
     </g>
    </g>
    <g id="line2d_25">
     <path d="M 507.762812 212.511625 
L 517.762812 212.511625 
L 527.762812 212.511625 
" style="fill: none; stroke-dasharray: 9,3; stroke-dashoffset: 0; stroke: #ffa500; stroke-width: 1.5"/>
    </g>
    <g id="text_21">
     <!-- error -->
     <g transform="translate(535.762812 216.011625) scale(0.1 -0.1)">
      <use xlink:href="#DejaVuSans-65"/>
      <use xlink:href="#DejaVuSans-72" x="61.523438"/>
      <use xlink:href="#DejaVuSans-72" x="100.886719"/>
      <use xlink:href="#DejaVuSans-6f" x="139.75"/>
      <use xlink:href="#DejaVuSans-72" x="200.931641"/>
     </g>
    </g>
    <g id="line2d_26">
     <path d="M 507.762812 227.18975 
L 517.762812 227.18975 
L 527.762812 227.18975 
" style="fill: none; stroke-dasharray: 12,4.5; stroke-dashoffset: 0; stroke: #ee82ee; stroke-width: 1.5"/>
    </g>
    <g id="text_22">
     <!-- skip -->
     <g transform="translate(535.762812 230.68975) scale(0.1 -0.1)">
      <defs>
       <path id="DejaVuSans-6b" d="M 581 4863 
L 1159 4863 
L 1159 1991 
L 2875 3500 
L 3609 3500 
L 1753 1863 
L 3688 0 
L 2938 0 
L 1159 1709 
L 1159 0 
L 581 0 
L 581 4863 
z
" transform="scale(0.015625)"/>
      </defs>
      <use xlink:href="#DejaVuSans-73"/>
      <use xlink:href="#DejaVuSans-6b" x="52.099609"/>
      <use xlink:href="#DejaVuSans-69" x="110.009766"/>
      <use xlink:href="#DejaVuSans-70" x="137.792969"/>
     </g>
    </g>
   </g>
  </g>
 </g>
 <defs>
  <clipPath id="padde8f5098">
   <rect x="33.2875" y="22.318125" width="535.68" height="352.512"/>
  </clipPath>
 </defs>
</svg>
