<?xml version="1.0" encoding="utf-8" standalone="no"?>
<!DOCTYPE svg PUBLIC "-//W3C//DTD SVG 1.1//EN"
  "http://www.w3.org/Graphics/SVG/1.1/DTD/svg11.dtd">
<svg xmlns:xlink="http://www.w3.org/1999/xlink" width="576.1675pt" height="418.303033pt" viewBox="0 0 576.1675 418.303033" xmlns="http://www.w3.org/2000/svg" version="1.1">
 <metadata>
  <rdf:RDF xmlns:dc="http://purl.org/dc/elements/1.1/" xmlns:cc="http://creativecommons.org/ns#" xmlns:rdf="http://www.w3.org/1999/02/22-rdf-syntax-ns#">
   <cc:Work>
    <dc:type rdf:resource="http://purl.org/dc/dcmitype/StillImage"/>
    <dc:date>2025-06-27T02:34:28.266880</dc:date>
    <dc:format>image/svg+xml</dc:format>
    <dc:creator>
     <cc:Agent>
      <dc:title>Matplotlib v3.6.3, https://matplotlib.org/</dc:title>
     </cc:Agent>
    </dc:creator>
   </cc:Work>
  </rdf:RDF>
 </metadata>
 <defs>
  <style type="text/css">*{stroke-linejoin: round; stroke-linecap: butt}</style>
 </defs>
 <g id="figure_1">
  <g id="patch_1">
   <path d="M -0 418.303033 
L 576.1675 418.303033 
L 576.1675 0 
L -0 0 
z
" style="fill: #ffffff"/>
  </g>
  <g id="axes_1">
   <g id="patch_2">
    <path d="M 33.2875 374.830125 
L 568.9675 374.830125 
L 568.9675 22.318125 
L 33.2875 22.318125 
z
" style="fill: #ffffff"/>
   </g>
   <g id="matplotlib.axis_1">
    <g id="xtick_1">
     <g id="line2d_1">
      <defs>
       <path id="m9d2d6ddcdb" d="M 0 0 
L 0 3.5 
" style="stroke: #000000; stroke-width: 0.8"/>
      </defs>
      <g>
       <use xlink:href="#m9d2d6ddcdb" x="63.082508" y="374.830125" style="stroke: #000000; stroke-width: 0.8"/>
      </g>
     </g>
     <g id="text_1">
      <!-- 2021-07 -->
      <g transform="translate(25.857688 409.301971) rotate(-30) scale(0.1 -0.1)">
       <defs>
        <path id="DejaVuSans-32" d="M 1228 531 
L 3431 531 
L 3431 0 
L 469 0 
L 469 531 
Q 828 903 1448 1529 
Q 2069 2156 2228 2338 
Q 2531 2678 2651 2914 
Q 2772 3150 2772 3378 
Q 2772 3750 2511 3984 
Q 2250 4219 1831 4219 
Q 1534 4219 1204 4116 
Q 875 4013 500 3803 
L 500 4441 
Q 881 4594 1212 4672 
Q 1544 4750 1819 4750 
Q 2544 4750 2975 4387 
Q 3406 4025 3406 3419 
Q 3406 3131 3298 2873 
Q 3191 2616 2906 2266 
Q 2828 2175 2409 1742 
Q 1991 1309 1228 531 
z
" transform="scale(0.015625)"/>
        <path id="DejaVuSans-30" d="M 2034 4250 
Q 1547 4250 1301 3770 
Q 1056 3291 1056 2328 
Q 1056 1369 1301 889 
Q 1547 409 2034 409 
Q 2525 409 2770 889 
Q 3016 1369 3016 2328 
Q 3016 3291 2770 3770 
Q 2525 4250 2034 4250 
z
M 2034 4750 
Q 2819 4750 3233 4129 
Q 3647 3509 3647 2328 
Q 3647 1150 3233 529 
Q 2819 -91 2034 -91 
Q 1250 -91 836 529 
Q 422 1150 422 2328 
Q 422 3509 836 4129 
Q 1250 4750 2034 4750 
z
" transform="scale(0.015625)"/>
        <path id="DejaVuSans-31" d="M 794 531 
L 1825 531 
L 1825 4091 
L 703 3866 
L 703 4441 
L 1819 4666 
L 2450 4666 
L 2450 531 
L 3481 531 
L 3481 0 
L 794 0 
L 794 531 
z
" transform="scale(0.015625)"/>
        <path id="DejaVuSans-2d" d="M 313 2009 
L 1997 2009 
L 1997 1497 
L 313 1497 
L 313 2009 
z
" transform="scale(0.015625)"/>
        <path id="DejaVuSans-37" d="M 525 4666 
L 3525 4666 
L 3525 4397 
L 1831 0 
L 1172 0 
L 2766 4134 
L 525 4134 
L 525 4666 
z
" transform="scale(0.015625)"/>
       </defs>
       <use xlink:href="#DejaVuSans-32"/>
       <use xlink:href="#DejaVuSans-30" x="63.623047"/>
       <use xlink:href="#DejaVuSans-32" x="127.246094"/>
       <use xlink:href="#DejaVuSans-31" x="190.869141"/>
       <use xlink:href="#DejaVuSans-2d" x="254.492188"/>
       <use xlink:href="#DejaVuSans-30" x="290.576172"/>
       <use xlink:href="#DejaVuSans-37" x="354.199219"/>
      </g>
     </g>
    </g>
    <g id="xtick_2">
     <g id="line2d_2">
      <g>
       <use xlink:href="#m9d2d6ddcdb" x="126.320266" y="374.830125" style="stroke: #000000; stroke-width: 0.8"/>
      </g>
     </g>
     <g id="text_2">
      <!-- 2022-01 -->
      <g transform="translate(89.095445 409.301971) rotate(-30) scale(0.1 -0.1)">
       <use xlink:href="#DejaVuSans-32"/>
       <use xlink:href="#DejaVuSans-30" x="63.623047"/>
       <use xlink:href="#DejaVuSans-32" x="127.246094"/>
       <use xlink:href="#DejaVuSans-32" x="190.869141"/>
       <use xlink:href="#DejaVuSans-2d" x="254.492188"/>
       <use xlink:href="#DejaVuSans-30" x="290.576172"/>
       <use xlink:href="#DejaVuSans-31" x="354.199219"/>
      </g>
     </g>
    </g>
    <g id="xtick_3">
     <g id="line2d_3">
      <g>
       <use xlink:href="#m9d2d6ddcdb" x="188.526973" y="374.830125" style="stroke: #000000; stroke-width: 0.8"/>
      </g>
     </g>
     <g id="text_3">
      <!-- 2022-07 -->
      <g transform="translate(151.302153 409.301971) rotate(-30) scale(0.1 -0.1)">
       <use xlink:href="#DejaVuSans-32"/>
       <use xlink:href="#DejaVuSans-30" x="63.623047"/>
       <use xlink:href="#DejaVuSans-32" x="127.246094"/>
       <use xlink:href="#DejaVuSans-32" x="190.869141"/>
       <use xlink:href="#DejaVuSans-2d" x="254.492188"/>
       <use xlink:href="#DejaVuSans-30" x="290.576172"/>
       <use xlink:href="#DejaVuSans-37" x="354.199219"/>
      </g>
     </g>
    </g>
    <g id="xtick_4">
     <g id="line2d_4">
      <g>
       <use xlink:href="#m9d2d6ddcdb" x="251.764731" y="374.830125" style="stroke: #000000; stroke-width: 0.8"/>
      </g>
     </g>
     <g id="text_4">
      <!-- 2023-01 -->
      <g transform="translate(214.53991 409.301971) rotate(-30) scale(0.1 -0.1)">
       <defs>
        <path id="DejaVuSans-33" d="M 2597 2516 
Q 3050 2419 3304 2112 
Q 3559 1806 3559 1356 
Q 3559 666 3084 287 
Q 2609 -91 1734 -91 
Q 1441 -91 1130 -33 
Q 819 25 488 141 
L 488 750 
Q 750 597 1062 519 
Q 1375 441 1716 441 
Q 2309 441 2620 675 
Q 2931 909 2931 1356 
Q 2931 1769 2642 2001 
Q 2353 2234 1838 2234 
L 1294 2234 
L 1294 2753 
L 1863 2753 
Q 2328 2753 2575 2939 
Q 2822 3125 2822 3475 
Q 2822 3834 2567 4026 
Q 2313 4219 1838 4219 
Q 1578 4219 1281 4162 
Q 984 4106 628 3988 
L 628 4550 
Q 988 4650 1302 4700 
Q 1616 4750 1894 4750 
Q 2613 4750 3031 4423 
Q 3450 4097 3450 3541 
Q 3450 3153 3228 2886 
Q 3006 2619 2597 2516 
z
" transform="scale(0.015625)"/>
       </defs>
       <use xlink:href="#DejaVuSans-32"/>
       <use xlink:href="#DejaVuSans-30" x="63.623047"/>
       <use xlink:href="#DejaVuSans-32" x="127.246094"/>
       <use xlink:href="#DejaVuSans-33" x="190.869141"/>
       <use xlink:href="#DejaVuSans-2d" x="254.492188"/>
       <use xlink:href="#DejaVuSans-30" x="290.576172"/>
       <use xlink:href="#DejaVuSans-31" x="354.199219"/>
      </g>
     </g>
    </g>
    <g id="xtick_5">
     <g id="line2d_5">
      <g>
       <use xlink:href="#m9d2d6ddcdb" x="313.971438" y="374.830125" style="stroke: #000000; stroke-width: 0.8"/>
      </g>
     </g>
     <g id="text_5">
      <!-- 2023-07 -->
      <g transform="translate(276.746618 409.301971) rotate(-30) scale(0.1 -0.1)">
       <use xlink:href="#DejaVuSans-32"/>
       <use xlink:href="#DejaVuSans-30" x="63.623047"/>
       <use xlink:href="#DejaVuSans-32" x="127.246094"/>
       <use xlink:href="#DejaVuSans-33" x="190.869141"/>
       <use xlink:href="#DejaVuSans-2d" x="254.492188"/>
       <use xlink:href="#DejaVuSans-30" x="290.576172"/>
       <use xlink:href="#DejaVuSans-37" x="354.199219"/>
      </g>
     </g>
    </g>
    <g id="xtick_6">
     <g id="line2d_6">
      <g>
       <use xlink:href="#m9d2d6ddcdb" x="377.209196" y="374.830125" style="stroke: #000000; stroke-width: 0.8"/>
      </g>
     </g>
     <g id="text_6">
      <!-- 2024-01 -->
      <g transform="translate(339.984375 409.301971) rotate(-30) scale(0.1 -0.1)">
       <defs>
        <path id="DejaVuSans-34" d="M 2419 4116 
L 825 1625 
L 2419 1625 
L 2419 4116 
z
M 2253 4666 
L 3047 4666 
L 3047 1625 
L 3713 1625 
L 3713 1100 
L 3047 1100 
L 3047 0 
L 2419 0 
L 2419 1100 
L 313 1100 
L 313 1709 
L 2253 4666 
z
" transform="scale(0.015625)"/>
       </defs>
       <use xlink:href="#DejaVuSans-32"/>
       <use xlink:href="#DejaVuSans-30" x="63.623047"/>
       <use xlink:href="#DejaVuSans-32" x="127.246094"/>
       <use xlink:href="#DejaVuSans-34" x="190.869141"/>
       <use xlink:href="#DejaVuSans-2d" x="254.492188"/>
       <use xlink:href="#DejaVuSans-30" x="290.576172"/>
       <use xlink:href="#DejaVuSans-31" x="354.199219"/>
      </g>
     </g>
    </g>
    <g id="xtick_7">
     <g id="line2d_7">
      <g>
       <use xlink:href="#m9d2d6ddcdb" x="439.759587" y="374.830125" style="stroke: #000000; stroke-width: 0.8"/>
      </g>
     </g>
     <g id="text_7">
      <!-- 2024-07 -->
      <g transform="translate(402.534766 409.301971) rotate(-30) scale(0.1 -0.1)">
       <use xlink:href="#DejaVuSans-32"/>
       <use xlink:href="#DejaVuSans-30" x="63.623047"/>
       <use xlink:href="#DejaVuSans-32" x="127.246094"/>
       <use xlink:href="#DejaVuSans-34" x="190.869141"/>
       <use xlink:href="#DejaVuSans-2d" x="254.492188"/>
       <use xlink:href="#DejaVuSans-30" x="290.576172"/>
       <use xlink:href="#DejaVuSans-37" x="354.199219"/>
      </g>
     </g>
    </g>
    <g id="xtick_8">
     <g id="line2d_8">
      <g>
       <use xlink:href="#m9d2d6ddcdb" x="502.997344" y="374.830125" style="stroke: #000000; stroke-width: 0.8"/>
      </g>
     </g>
     <g id="text_8">
      <!-- 2025-01 -->
      <g transform="translate(465.772524 409.301971) rotate(-30) scale(0.1 -0.1)">
       <defs>
        <path id="DejaVuSans-35" d="M 691 4666 
L 3169 4666 
L 3169 4134 
L 1269 4134 
L 1269 2991 
Q 1406 3038 1543 3061 
Q 1681 3084 1819 3084 
Q 2600 3084 3056 2656 
Q 3513 2228 3513 1497 
Q 3513 744 3044 326 
Q 2575 -91 1722 -91 
Q 1428 -91 1123 -41 
Q 819 9 494 109 
L 494 744 
Q 775 591 1075 516 
Q 1375 441 1709 441 
Q 2250 441 2565 725 
Q 2881 1009 2881 1497 
Q 2881 1984 2565 2268 
Q 2250 2553 1709 2553 
Q 1456 2553 1204 2497 
Q 953 2441 691 2322 
L 691 4666 
z
" transform="scale(0.015625)"/>
       </defs>
       <use xlink:href="#DejaVuSans-32"/>
       <use xlink:href="#DejaVuSans-30" x="63.623047"/>
       <use xlink:href="#DejaVuSans-32" x="127.246094"/>
       <use xlink:href="#DejaVuSans-35" x="190.869141"/>
       <use xlink:href="#DejaVuSans-2d" x="254.492188"/>
       <use xlink:href="#DejaVuSans-30" x="290.576172"/>
       <use xlink:href="#DejaVuSans-31" x="354.199219"/>
      </g>
     </g>
    </g>
    <g id="xtick_9">
     <g id="line2d_9">
      <g>
       <use xlink:href="#m9d2d6ddcdb" x="565.204052" y="374.830125" style="stroke: #000000; stroke-width: 0.8"/>
      </g>
     </g>
     <g id="text_9">
      <!-- 2025-07 -->
      <g transform="translate(527.979231 409.301971) rotate(-30) scale(0.1 -0.1)">
       <use xlink:href="#DejaVuSans-32"/>
       <use xlink:href="#DejaVuSans-30" x="63.623047"/>
       <use xlink:href="#DejaVuSans-32" x="127.246094"/>
       <use xlink:href="#DejaVuSans-35" x="190.869141"/>
       <use xlink:href="#DejaVuSans-2d" x="254.492188"/>
       <use xlink:href="#DejaVuSans-30" x="290.576172"/>
       <use xlink:href="#DejaVuSans-37" x="354.199219"/>
      </g>
     </g>
    </g>
   </g>
   <g id="matplotlib.axis_2">
    <g id="ytick_1">
     <g id="line2d_10">
      <defs>
       <path id="mb44b8a99e3" d="M 0 0 
L -3.5 0 
" style="stroke: #000000; stroke-width: 0.8"/>
      </defs>
      <g>
       <use xlink:href="#mb44b8a99e3" x="33.2875" y="374.830125" style="stroke: #000000; stroke-width: 0.8"/>
      </g>
     </g>
     <g id="text_10">
      <!-- 0 -->
      <g transform="translate(19.925 378.629344) scale(0.1 -0.1)">
       <use xlink:href="#DejaVuSans-30"/>
      </g>
     </g>
    </g>
    <g id="ytick_2">
     <g id="line2d_11">
      <g>
       <use xlink:href="#mb44b8a99e3" x="33.2875" y="318.897147" style="stroke: #000000; stroke-width: 0.8"/>
      </g>
     </g>
     <g id="text_11">
      <!-- 100 -->
      <g transform="translate(7.2 322.696366) scale(0.1 -0.1)">
       <use xlink:href="#DejaVuSans-31"/>
       <use xlink:href="#DejaVuSans-30" x="63.623047"/>
       <use xlink:href="#DejaVuSans-30" x="127.246094"/>
      </g>
     </g>
    </g>
    <g id="ytick_3">
     <g id="line2d_12">
      <g>
       <use xlink:href="#mb44b8a99e3" x="33.2875" y="262.964169" style="stroke: #000000; stroke-width: 0.8"/>
      </g>
     </g>
     <g id="text_12">
      <!-- 200 -->
      <g transform="translate(7.2 266.763388) scale(0.1 -0.1)">
       <use xlink:href="#DejaVuSans-32"/>
       <use xlink:href="#DejaVuSans-30" x="63.623047"/>
       <use xlink:href="#DejaVuSans-30" x="127.246094"/>
      </g>
     </g>
    </g>
    <g id="ytick_4">
     <g id="line2d_13">
      <g>
       <use xlink:href="#mb44b8a99e3" x="33.2875" y="207.031191" style="stroke: #000000; stroke-width: 0.8"/>
      </g>
     </g>
     <g id="text_13">
      <!-- 300 -->
      <g transform="translate(7.2 210.83041) scale(0.1 -0.1)">
       <use xlink:href="#DejaVuSans-33"/>
       <use xlink:href="#DejaVuSans-30" x="63.623047"/>
       <use xlink:href="#DejaVuSans-30" x="127.246094"/>
      </g>
     </g>
    </g>
    <g id="ytick_5">
     <g id="line2d_14">
      <g>
       <use xlink:href="#mb44b8a99e3" x="33.2875" y="151.098213" style="stroke: #000000; stroke-width: 0.8"/>
      </g>
     </g>
     <g id="text_14">
      <!-- 400 -->
      <g transform="translate(7.2 154.897432) scale(0.1 -0.1)">
       <use xlink:href="#DejaVuSans-34"/>
       <use xlink:href="#DejaVuSans-30" x="63.623047"/>
       <use xlink:href="#DejaVuSans-30" x="127.246094"/>
      </g>
     </g>
    </g>
    <g id="ytick_6">
     <g id="line2d_15">
      <g>
       <use xlink:href="#mb44b8a99e3" x="33.2875" y="95.165235" style="stroke: #000000; stroke-width: 0.8"/>
      </g>
     </g>
     <g id="text_15">
      <!-- 500 -->
      <g transform="translate(7.2 98.964454) scale(0.1 -0.1)">
       <use xlink:href="#DejaVuSans-35"/>
       <use xlink:href="#DejaVuSans-30" x="63.623047"/>
       <use xlink:href="#DejaVuSans-30" x="127.246094"/>
      </g>
     </g>
    </g>
    <g id="ytick_7">
     <g id="line2d_16">
      <g>
       <use xlink:href="#mb44b8a99e3" x="33.2875" y="39.232258" style="stroke: #000000; stroke-width: 0.8"/>
      </g>
     </g>
     <g id="text_16">
      <!-- 600 -->
      <g transform="translate(7.2 43.031476) scale(0.1 -0.1)">
       <defs>
        <path id="DejaVuSans-36" d="M 2113 2584 
Q 1688 2584 1439 2293 
Q 1191 2003 1191 1497 
Q 1191 994 1439 701 
Q 1688 409 2113 409 
Q 2538 409 2786 701 
Q 3034 994 3034 1497 
Q 3034 2003 2786 2293 
Q 2538 2584 2113 2584 
z
M 3366 4563 
L 3366 3988 
Q 3128 4100 2886 4159 
Q 2644 4219 2406 4219 
Q 1781 4219 1451 3797 
Q 1122 3375 1075 2522 
Q 1259 2794 1537 2939 
Q 1816 3084 2150 3084 
Q 2853 3084 3261 2657 
Q 3669 2231 3669 1497 
Q 3669 778 3244 343 
Q 2819 -91 2113 -91 
Q 1303 -91 875 529 
Q 447 1150 447 2328 
Q 447 3434 972 4092 
Q 1497 4750 2381 4750 
Q 2619 4750 2861 4703 
Q 3103 4656 3366 4563 
z
" transform="scale(0.015625)"/>
       </defs>
       <use xlink:href="#DejaVuSans-36"/>
       <use xlink:href="#DejaVuSans-30" x="63.623047"/>
       <use xlink:href="#DejaVuSans-30" x="127.246094"/>
      </g>
     </g>
    </g>
   </g>
   <g id="line2d_17">
    <path d="M 38.539265 25.808343 
L 48.758732 25.808343 
L 48.874419 29.164321 
L 50.305208 29.164321 
L 50.82896 38.672928 
L 135.256597 38.672928 
L 135.676945 33.07963 
L 149.72622 33.07963 
L 150.551514 33.63896 
L 157.140264 33.63896 
L 157.370679 44.825555 
L 164.052423 44.825555 
L 165.437145 43.147566 
L 279.908198 43.147566 
L 280.234224 39.232258 
L 289.205958 39.232258 
L 289.526172 38.113598 
L 334.557282 38.113598 
L 334.781536 36.994938 
L 407.550177 36.994938 
L 407.758643 32.5203 
L 462.92639 32.5203 
L 463.021273 31.96097 
L 505.15965 31.96097 
L 505.546899 31.401641 
L 509.37994 31.401641 
L 509.507123 29.164321 
L 511.045377 29.164321 
L 511.44506 29.723651 
L 538.034812 29.723651 
L 538.363073 29.164321 
L 563.715735 29.164321 
L 563.715735 29.164321 
" clip-path="url(#p98f10a47a1)" style="fill: none; stroke: #0000ff; stroke-width: 1.5; stroke-linecap: square"/>
   </g>
   <g id="line2d_18">
    <path d="M 38.539265 168.996766 
L 39.94431 167.878107 
L 41.34482 168.996766 
L 44.661365 168.996766 
L 48.318253 170.115426 
L 48.58954 169.556096 
L 48.758732 169.556096 
L 48.874419 172.912075 
L 49.024725 172.352745 
L 49.141422 172.352745 
L 49.536328 172.912075 
L 50.305208 172.912075 
L 50.733436 185.21733 
L 50.82896 182.420681 
L 51.051232 185.77666 
L 51.121918 185.21733 
L 51.370993 185.21733 
L 51.769419 185.77666 
L 52.728336 185.77666 
L 52.75696 186.335989 
L 53.276754 186.335989 
L 53.496775 185.77666 
L 54.140044 189.691968 
L 54.214345 189.132638 
L 54.530212 189.691968 
L 55.141221 191.369957 
L 55.555654 190.251298 
L 56.210717 190.251298 
L 56.576799 191.369957 
L 56.824275 191.369957 
L 57.569846 191.929287 
L 57.904404 191.929287 
L 58.268203 193.047947 
L 58.593513 192.488617 
L 58.954755 193.607277 
L 59.330102 195.844596 
L 60.78144 196.963255 
L 61.397732 196.963255 
L 61.661723 197.522585 
L 62.082342 197.522585 
L 62.392003 198.081915 
L 62.707436 197.522585 
L 63.059127 197.522585 
L 63.265078 198.081915 
L 66.82801 198.081915 
L 67.187605 198.641245 
L 67.532191 198.641245 
L 67.665989 198.081915 
L 68.517031 198.641245 
L 68.873718 198.081915 
L 69.857138 198.081915 
L 70.172873 198.641245 
L 70.561053 198.081915 
L 72.350979 198.081915 
L 72.71771 198.641245 
L 72.919008 200.319234 
L 73.408944 199.200574 
L 74.548179 199.200574 
L 75.113403 199.759904 
L 75.455165 199.759904 
L 75.78709 200.319234 
L 76.157572 200.319234 
L 76.497735 199.759904 
L 76.822779 201.437893 
L 77.111353 201.437893 
L 77.895922 202.556553 
L 82.015144 202.556553 
L 82.342594 203.675213 
L 83.040474 203.675213 
L 83.350227 204.234542 
L 84.389129 204.234542 
L 85.383592 206.471861 
L 86.440605 206.471861 
L 86.819194 207.031191 
L 93.205342 207.031191 
L 93.972031 208.149851 
L 94.14571 207.031191 
L 95.3755 207.031191 
L 95.709454 207.590521 
L 96.077903 207.031191 
L 96.954539 207.031191 
L 97.438751 207.590521 
L 97.798214 207.031191 
L 103.226997 207.031191 
L 103.523666 212.065159 
L 103.729351 207.031191 
L 105.696748 207.031191 
L 106.053897 207.590521 
L 106.257752 212.624489 
L 106.739302 207.590521 
L 107.07941 207.590521 
L 107.305179 207.031191 
L 110.867315 207.031191 
L 111.047705 207.590521 
L 111.371428 207.590521 
L 111.904563 209.26851 
L 117.278014 209.26851 
L 118.45075 209.82784 
L 125.667892 209.82784 
L 125.96842 212.065159 
L 126.352439 212.065159 
L 126.692968 209.82784 
L 127.043318 209.82784 
L 127.284728 212.065159 
L 127.546369 209.82784 
L 127.981176 212.065159 
L 128.366328 213.183819 
L 132.83232 213.183819 
L 133.21779 213.743149 
L 135.256597 213.743149 
L 135.676945 207.590521 
L 135.977215 208.149851 
L 136.316614 209.82784 
L 136.735625 209.82784 
L 137.297448 210.9465 
L 137.685182 210.9465 
L 137.970984 211.505829 
L 138.354884 209.26851 
L 141.165729 214.861808 
L 141.452737 213.183819 
L 141.933973 212.624489 
L 143.46243 212.624489 
L 143.854507 212.065159 
L 144.200251 210.9465 
L 145.584381 210.9465 
L 145.83745 209.82784 
L 146.282575 210.9465 
L 147.287818 210.9465 
L 147.62993 212.065159 
L 147.959926 212.065159 
L 148.35075 212.624489 
L 148.508459 212.624489 
L 148.684716 214.302478 
L 148.923647 214.302478 
L 149.72622 214.861808 
L 150.389358 213.743149 
L 150.551514 213.743149 
L 151.071359 214.302478 
L 151.404895 215.421138 
L 153.128551 215.421138 
L 153.461347 215.980468 
L 153.818722 215.980468 
L 154.149589 216.539798 
L 154.459537 216.539798 
L 155.179749 217.099127 
L 155.551706 217.099127 
L 155.922622 218.777117 
L 156.141927 218.777117 
L 156.527429 218.217787 
L 157.140264 218.217787 
L 157.370679 219.895776 
L 157.939069 219.895776 
L 158.275824 221.014436 
L 158.725564 221.014436 
L 158.957224 221.573766 
L 159.466659 221.573766 
L 159.517352 222.133095 
L 159.775385 222.133095 
L 160.319873 222.692425 
L 161.558132 226.048404 
L 163.101577 226.048404 
L 163.416238 227.167063 
L 163.534722 226.607734 
L 163.671928 226.607734 
L 164.052423 226.048404 
L 165.437145 224.370414 
L 168.90155 224.370414 
L 169.302987 223.811085 
L 170.979745 223.811085 
L 171.218386 223.251755 
L 174.35842 223.251755 
L 174.762701 223.811085 
L 175.32785 223.811085 
L 175.785752 224.370414 
L 176.016155 223.811085 
L 178.223486 223.811085 
L 178.920106 224.929744 
L 180.402666 224.929744 
L 180.652274 232.760361 
L 180.933661 232.760361 
L 183.331669 234.43835 
L 183.479027 233.879021 
L 183.632758 234.43835 
L 184.031789 233.879021 
L 184.366502 233.879021 
L 184.71879 234.43835 
L 184.983338 234.43835 
L 185.408062 235.55701 
L 185.582736 235.55701 
L 185.74439 234.99768 
L 186.106718 236.11634 
L 188.515625 236.11634 
L 188.749974 236.67567 
L 190.045836 236.67567 
L 190.561786 236.11634 
L 190.948347 238.912989 
L 191.223544 237.234999 
L 191.582463 237.234999 
L 191.87015 240.590978 
L 192.07144 240.031648 
L 192.285721 240.590978 
L 192.393647 240.031648 
L 192.525742 241.709638 
L 192.868205 241.709638 
L 193.302113 242.268967 
L 194.15195 241.709638 
L 194.345459 242.828297 
L 194.661707 242.828297 
L 194.885663 241.150308 
L 195.645875 242.828297 
L 196.401788 243.387627 
L 197.065654 243.387627 
L 197.413912 245.065616 
L 197.734023 245.065616 
L 197.923637 244.506286 
L 198.256438 244.506286 
L 199.543596 246.743606 
L 199.758263 245.624946 
L 200.171474 245.065616 
L 200.476629 246.184276 
L 200.512071 246.743606 
L 201.958835 246.743606 
L 202.070357 247.302935 
L 202.589435 247.862265 
L 203.97317 247.862265 
L 204.60655 250.658914 
L 208.165834 250.658914 
L 208.446891 251.218244 
L 208.816542 250.099584 
L 209.031746 251.218244 
L 212.912083 251.218244 
L 213.236291 251.777574 
L 214.018127 255.133552 
L 214.311448 253.455563 
L 214.661006 254.014893 
L 215.048068 253.455563 
L 215.320445 253.455563 
L 215.733159 251.777574 
L 215.954461 251.777574 
L 215.997414 252.336903 
L 216.693806 252.336903 
L 217.085773 248.980925 
L 217.431346 248.980925 
L 218.470897 249.540254 
L 218.536674 248.980925 
L 219.101102 248.421595 
L 219.184935 248.980925 
L 221.904613 248.980925 
L 222.093853 249.540254 
L 222.601403 250.099584 
L 223.279156 251.218244 
L 223.455437 252.336903 
L 223.693648 252.336903 
L 223.960504 253.455563 
L 224.2818 252.896233 
L 224.641562 252.896233 
L 224.912642 252.336903 
L 225.294799 252.896233 
L 225.63581 252.896233 
L 225.962647 253.455563 
L 226.227224 253.455563 
L 226.725255 252.896233 
L 226.984167 253.455563 
L 227.25214 252.896233 
L 228.030321 248.421595 
L 228.778875 249.540254 
L 228.888316 253.455563 
L 229.055174 253.455563 
L 229.360483 254.014893 
L 229.715181 253.455563 
L 230.03902 253.455563 
L 230.437943 252.896233 
L 230.783472 254.014893 
L 232.030526 254.014893 
L 232.526126 254.574222 
L 232.809355 254.574222 
L 232.831332 255.133552 
L 234.244408 255.133552 
L 234.646705 256.252212 
L 236.623859 256.252212 
L 237.017998 257.370871 
L 238.360145 257.370871 
L 240.805171 256.811542 
L 241.03199 257.370871 
L 241.643726 257.370871 
L 242.158468 257.930201 
L 242.503277 259.048861 
L 242.606382 258.489531 
L 242.981164 259.60819 
L 243.814899 259.60819 
L 247.191665 260.72685 
L 255.538455 260.72685 
L 255.878447 260.16752 
L 257.510331 260.16752 
L 257.848589 260.72685 
L 258.969522 260.72685 
L 259.356401 261.28618 
L 259.634589 260.72685 
L 259.957445 261.28618 
L 260.314677 260.72685 
L 260.607874 261.84551 
L 261.056926 261.28618 
L 261.384578 261.84551 
L 268.506782 261.84551 
L 268.874686 260.72685 
L 269.264441 261.28618 
L 269.616935 260.72685 
L 270.011765 260.72685 
L 270.328408 260.16752 
L 271.649906 260.16752 
L 271.985459 260.72685 
L 272.364482 260.16752 
L 272.709792 259.048861 
L 273.394498 259.048861 
L 273.780808 258.489531 
L 274.069887 259.60819 
L 274.441758 259.60819 
L 274.72906 259.048861 
L 275.635843 260.16752 
L 276.166317 259.60819 
L 276.481483 260.16752 
L 277.152 260.16752 
L 277.530438 259.60819 
L 277.902042 261.28618 
L 278.259707 260.72685 
L 278.946366 260.72685 
L 279.208114 260.16752 
L 279.542872 260.72685 
L 279.908198 260.72685 
L 280.234224 255.692882 
L 280.36375 256.252212 
L 280.619953 256.252212 
L 280.79843 256.811542 
L 280.953979 256.811542 
L 281.158773 257.370871 
L 281.297559 256.252212 
L 281.622542 256.811542 
L 281.755616 256.811542 
L 281.982734 257.370871 
L 282.571419 257.370871 
L 282.857703 258.489531 
L 283.141428 257.370871 
L 283.32615 257.930201 
L 284.367623 257.930201 
L 284.677666 257.370871 
L 284.971702 257.370871 
L 285.34119 257.930201 
L 285.682852 257.930201 
L 286.087866 257.370871 
L 286.47871 257.930201 
L 286.781967 257.930201 
L 287.259198 259.048861 
L 289.205958 259.048861 
L 289.526172 257.370871 
L 291.034967 257.370871 
L 291.381482 257.930201 
L 291.654058 258.489531 
L 292.187738 258.489531 
L 292.354238 259.60819 
L 292.430616 259.048861 
L 292.611197 259.60819 
L 293.119132 259.60819 
L 293.368132 260.72685 
L 294.046103 260.72685 
L 294.147518 261.28618 
L 294.36257 261.84551 
L 295.40917 261.84551 
L 295.660162 263.523499 
L 295.891767 264.082829 
L 296.025425 264.082829 
L 296.476291 264.642159 
L 296.634978 264.082829 
L 296.711881 264.642159 
L 297.207613 264.642159 
L 297.789806 265.201488 
L 299.095947 265.201488 
L 299.432808 264.642159 
L 299.75558 265.201488 
L 300.119427 265.201488 
L 300.293803 265.760818 
L 300.335745 265.201488 
L 300.542711 265.760818 
L 300.704584 265.760818 
L 300.864441 266.879478 
L 301.479988 267.998137 
L 301.928217 267.438807 
L 302.269 267.998137 
L 302.938949 267.998137 
L 303.302561 269.116797 
L 303.435675 268.557467 
L 303.651925 270.235456 
L 303.958356 269.676127 
L 304.157092 270.235456 
L 304.314231 269.676127 
L 304.487879 270.794786 
L 304.841813 270.794786 
L 304.946641 271.354116 
L 305.361885 270.794786 
L 305.683042 271.913446 
L 306.407618 271.913446 
L 306.668451 273.032105 
L 307.03842 271.913446 
L 307.289766 271.913446 
L 307.381917 272.472775 
L 308.058146 272.472775 
L 308.374462 274.710095 
L 308.829373 272.472775 
L 308.899904 273.032105 
L 309.498887 272.472775 
L 309.555607 273.591435 
L 309.761622 273.591435 
L 310.176755 274.150765 
L 310.513657 273.591435 
L 310.768177 273.591435 
L 311.144817 274.710095 
L 311.554572 274.710095 
L 311.951932 274.150765 
L 312.248908 274.710095 
L 312.429354 274.150765 
L 312.608825 275.269424 
L 314.199105 275.269424 
L 314.687875 275.828754 
L 315.685826 275.828754 
L 316.039916 274.710095 
L 316.707274 274.710095 
L 317.041284 275.269424 
L 320.079843 275.269424 
L 320.489916 274.710095 
L 320.874309 275.828754 
L 325.537509 275.828754 
L 326.560488 276.388084 
L 327.16808 276.388084 
L 327.661528 276.947414 
L 328.051486 276.947414 
L 328.280636 277.506743 
L 333.471243 277.506743 
L 333.892832 276.947414 
L 334.227076 277.506743 
L 334.557282 276.947414 
L 334.781536 273.591435 
L 336.832125 273.591435 
L 337.015085 274.150765 
L 337.369735 274.150765 
L 337.487017 273.591435 
L 339.609664 273.591435 
L 339.904134 274.150765 
L 340.015421 273.591435 
L 340.519813 273.591435 
L 340.752964 274.710095 
L 340.930105 273.591435 
L 341.046862 273.591435 
L 341.266286 274.710095 
L 341.422026 274.710095 
L 341.622893 273.591435 
L 341.79857 274.710095 
L 341.91115 273.591435 
L 341.956493 274.710095 
L 343.164719 274.710095 
L 343.35651 275.269424 
L 343.384637 275.828754 
L 343.999894 275.828754 
L 344.036156 276.388084 
L 344.390655 276.388084 
L 344.574215 276.947414 
L 344.730719 276.388084 
L 344.922987 276.947414 
L 345.05301 276.388084 
L 345.238992 276.947414 
L 345.357961 276.947414 
L 345.48693 276.388084 
L 345.504615 276.947414 
L 345.891164 276.947414 
L 346.133361 277.506743 
L 346.286117 277.506743 
L 346.514873 278.625403 
L 346.768698 279.184733 
L 346.944 278.625403 
L 348.896548 278.625403 
L 349.175727 279.184733 
L 350.672139 279.184733 
L 350.910844 279.744063 
L 351.226368 279.744063 
L 351.460502 280.303392 
L 351.589551 279.744063 
L 352.208674 279.744063 
L 352.417609 280.862722 
L 352.986298 280.862722 
L 353.040909 281.422052 
L 353.120263 280.862722 
L 353.243026 280.862722 
L 353.463274 281.981382 
L 353.692643 282.540711 
L 353.75675 281.981382 
L 354.016752 284.218701 
L 355.06976 284.218701 
L 355.175621 284.778031 
L 355.406307 284.778031 
L 355.541441 285.89669 
L 355.700037 284.778031 
L 357.097945 284.778031 
L 357.178834 285.33736 
L 357.446967 284.778031 
L 357.575347 285.33736 
L 357.812708 284.778031 
L 358.121028 284.778031 
L 358.310102 285.89669 
L 358.65476 285.89669 
L 358.796136 285.33736 
L 358.917264 286.45602 
L 359.274993 284.778031 
L 359.649867 285.89669 
L 359.921428 284.778031 
L 360.557132 284.778031 
L 361.051869 286.45602 
L 361.205814 285.89669 
L 361.376299 286.45602 
L 361.836322 285.33736 
L 361.983625 286.45602 
L 363.075357 286.45602 
L 363.251331 287.01535 
L 363.557993 287.01535 
L 363.72147 286.45602 
L 363.927791 287.01535 
L 364.058252 286.45602 
L 364.455671 287.574679 
L 364.998262 287.574679 
L 365.380932 288.693339 
L 367.038357 288.693339 
L 367.219571 289.252669 
L 367.441231 288.693339 
L 367.550903 289.252669 
L 367.776895 288.693339 
L 368.077037 288.693339 
L 368.27063 289.252669 
L 368.39792 288.693339 
L 368.803168 288.693339 
L 368.928513 289.252669 
L 369.496681 289.252669 
L 369.534979 290.371328 
L 371.965 290.371328 
L 372.204727 290.930658 
L 372.362078 290.371328 
L 372.495386 290.930658 
L 372.596646 290.371328 
L 372.718108 291.489988 
L 373.27774 291.489988 
L 373.541728 292.049318 
L 373.595229 291.489988 
L 373.650044 292.049318 
L 373.951498 291.489988 
L 374.029408 292.049318 
L 374.324212 292.608647 
L 374.43968 293.167977 
L 374.660115 293.167977 
L 374.7108 293.727307 
L 375.017717 295.405296 
L 375.155858 294.845967 
L 375.342303 294.845967 
L 375.375891 295.964626 
L 376.685827 295.964626 
L 376.848527 296.523956 
L 377.105152 295.964626 
L 377.549673 296.523956 
L 377.668479 295.964626 
L 377.86297 296.523956 
L 378.101997 296.523956 
L 378.24424 297.083286 
L 378.575553 297.083286 
L 378.583675 297.642615 
L 378.685806 297.083286 
L 378.783708 298.201945 
L 378.928409 298.201945 
L 379.128712 298.761275 
L 380.502762 298.761275 
L 380.539023 298.201945 
L 380.625525 299.320605 
L 380.987888 299.320605 
L 381.172948 298.761275 
L 381.315402 299.320605 
L 381.529874 298.761275 
L 381.690566 299.320605 
L 381.871107 299.320605 
L 382.026242 298.761275 
L 382.180064 300.439264 
L 384.02148 300.439264 
L 384.575232 301.557924 
L 384.866718 300.998594 
L 391.822772 300.998594 
L 391.940874 301.557924 
L 392.152108 300.998594 
L 392.212988 301.557924 
L 392.844172 301.557924 
L 393.01895 302.117254 
L 393.904818 302.117254 
L 394.023182 302.676583 
L 394.190023 302.117254 
L 395.54704 302.117254 
L 395.735266 302.676583 
L 395.972304 302.117254 
L 396.103187 302.117254 
L 396.311764 303.235913 
L 396.426504 302.676583 
L 396.935072 302.676583 
L 397.156664 303.235913 
L 398.199707 303.235913 
L 398.369616 302.117254 
L 398.713896 303.235913 
L 400.566302 303.235913 
L 400.756227 303.795243 
L 400.925901 303.795243 
L 401.108634 304.354573 
L 401.245216 304.354573 
L 401.414286 304.913903 
L 401.80986 304.913903 
L 401.879937 305.473232 
L 402.209706 305.473232 
L 402.418008 304.354573 
L 402.580661 304.913903 
L 402.829637 304.913903 
L 402.931159 305.473232 
L 403.312051 305.473232 
L 403.652723 306.032562 
L 404.024207 307.710552 
L 404.145833 307.151222 
L 404.259082 307.710552 
L 404.51902 308.269881 
L 404.642281 307.710552 
L 404.851323 308.269881 
L 404.973136 308.269881 
L 405.191948 307.710552 
L 405.370655 307.710552 
L 405.720763 309.388541 
L 405.932223 308.829211 
L 406.058185 308.829211 
L 406.223543 309.388541 
L 406.267024 309.947871 
L 406.407628 309.947871 
L 406.476246 309.388541 
L 406.703363 309.947871 
L 406.86063 309.388541 
L 406.990283 309.947871 
L 407.550177 309.947871 
L 407.758643 302.117254 
L 408.315402 303.235913 
L 408.683012 303.235913 
L 408.811595 303.795243 
L 409.011874 303.235913 
L 409.140429 303.235913 
L 409.292545 302.676583 
L 409.467449 303.235913 
L 409.707702 303.235913 
L 409.825915 302.676583 
L 409.976105 303.235913 
L 410.180943 302.676583 
L 410.261454 303.235913 
L 410.557781 303.795243 
L 410.687219 303.795243 
L 411.000083 302.676583 
L 411.283518 303.235913 
L 412.542744 303.235913 
L 412.84153 303.795243 
L 413.155245 303.235913 
L 413.719538 303.235913 
L 414.152153 304.354573 
L 414.300542 302.676583 
L 414.550297 303.235913 
L 414.868682 302.676583 
L 415.014326 304.354573 
L 415.190169 303.235913 
L 415.356354 303.235913 
L 415.467029 303.795243 
L 415.549625 306.032562 
L 415.56445 305.473232 
L 415.930847 306.032562 
L 416.83518 306.032562 
L 417.262966 307.151222 
L 417.439434 306.591892 
L 418.072957 306.591892 
L 418.245571 306.032562 
L 418.430058 306.591892 
L 418.632417 306.591892 
L 418.751299 306.032562 
L 419.112966 306.591892 
L 419.325433 306.591892 
L 419.464724 307.151222 
L 419.635082 306.591892 
L 419.818102 306.591892 
L 419.989617 306.032562 
L 420.095861 306.591892 
L 421.051277 306.591892 
L 421.290304 308.269881 
L 421.5793 307.710552 
L 421.818319 307.710552 
L 422.011824 307.151222 
L 422.099806 307.710552 
L 422.399542 307.151222 
L 422.511597 307.710552 
L 422.775653 307.710552 
L 422.878957 308.269881 
L 423.194517 307.710552 
L 423.844775 307.710552 
L 424.085855 308.269881 
L 424.487451 308.269881 
L 424.58871 308.829211 
L 424.759852 308.269881 
L 425.159925 309.388541 
L 425.278965 309.388541 
L 425.455517 309.947871 
L 425.618265 309.947871 
L 425.92449 310.5072 
L 428.415447 310.5072 
L 428.680819 311.06653 
L 428.929651 311.06653 
L 428.980313 309.947871 
L 429.043055 310.5072 
L 429.449023 310.5072 
L 429.541686 311.06653 
L 430.07586 311.06653 
L 430.330969 311.62586 
L 430.673602 311.62586 
L 430.684999 311.06653 
L 430.7989 311.62586 
L 430.903648 311.06653 
L 432.39562 311.06653 
L 432.675372 310.5072 
L 433.455752 311.06653 
L 435.074063 311.06653 
L 435.144089 311.62586 
L 436.842255 311.62586 
L 436.995222 312.18519 
L 438.565681 314.981839 
L 438.714523 314.981839 
L 438.869809 315.541168 
L 438.938963 314.981839 
L 439.27339 315.541168 
L 439.584093 316.100498 
L 439.955677 316.100498 
L 440.080461 316.659828 
L 440.550055 316.659828 
L 441.230206 316.100498 
L 441.264471 317.778488 
L 441.811866 317.778488 
L 441.981524 317.219158 
L 442.104753 317.778488 
L 443.362352 317.778488 
L 443.654292 317.219158 
L 445.002975 317.219158 
L 445.835763 317.778488 
L 447.518046 317.778488 
L 448.346431 318.337817 
L 448.457221 318.897147 
L 450.948564 318.897147 
L 451.182615 318.337817 
L 452.447366 318.337817 
L 453.370856 317.778488 
L 454.043815 317.778488 
L 454.377777 318.337817 
L 454.674272 319.456477 
L 454.850799 319.456477 
L 454.857689 318.897147 
L 456.837791 318.897147 
L 457.050306 319.456477 
L 462.052587 319.456477 
L 462.683318 320.015807 
L 462.92639 320.015807 
L 463.021273 320.575136 
L 463.330417 320.575136 
L 463.460245 320.015807 
L 463.661499 320.575136 
L 464.791482 320.575136 
L 465.295169 321.134466 
L 465.64505 322.253126 
L 468.70935 322.253126 
L 469.248694 321.693796 
L 469.404744 322.253126 
L 469.562604 321.693796 
L 469.740062 322.253126 
L 470.580499 322.253126 
L 470.967983 321.693796 
L 471.16461 322.253126 
L 471.706787 321.134466 
L 471.918096 322.253126 
L 473.230136 322.253126 
L 473.245657 322.812456 
L 475.324954 322.812456 
L 476.335933 323.371785 
L 476.639325 322.812456 
L 477.203009 322.812456 
L 477.339655 323.371785 
L 477.821294 321.693796 
L 478.139288 322.253126 
L 478.566792 321.693796 
L 478.883446 321.693796 
L 479.027257 322.253126 
L 479.90028 322.253126 
L 480.93758 321.693796 
L 481.093713 322.253126 
L 482.125881 322.253126 
L 482.460996 321.693796 
L 487.714381 322.253126 
L 488.107736 321.693796 
L 488.447688 322.253126 
L 488.752309 321.693796 
L 488.786391 322.253126 
L 489.051592 322.812456 
L 489.20518 322.812456 
L 489.345672 323.371785 
L 491.788152 323.371785 
L 491.840198 323.931115 
L 492.143801 323.931115 
L 492.954464 323.371785 
L 492.980252 323.931115 
L 493.291715 323.371785 
L 493.367417 324.490445 
L 493.567891 324.490445 
L 493.974607 325.049775 
L 494.656187 325.049775 
L 495.070047 324.490445 
L 495.535376 325.609104 
L 495.554461 326.168434 
L 495.874827 326.727764 
L 496.006497 326.727764 
L 496.338963 326.168434 
L 496.806452 326.168434 
L 496.903634 326.727764 
L 497.968038 326.727764 
L 498.114672 326.168434 
L 498.294187 327.287094 
L 498.442146 327.287094 
L 498.72296 326.727764 
L 498.978348 327.287094 
L 499.547868 327.287094 
L 499.79869 328.405753 
L 501.587538 328.405753 
L 501.801402 328.965083 
L 501.932355 328.965083 
L 502.147838 328.405753 
L 502.203412 328.965083 
L 502.774205 328.965083 
L 502.889009 329.524413 
L 503.200818 329.524413 
L 503.289877 330.643072 
L 503.776364 330.643072 
L 503.959149 332.321062 
L 504.339743 332.321062 
L 504.562333 331.761732 
L 504.682587 332.321062 
L 504.844464 332.321062 
L 504.856827 333.999051 
L 505.15965 333.999051 
L 505.546899 333.439721 
L 505.722579 333.439721 
L 505.872654 333.999051 
L 506.245869 333.999051 
L 506.632609 333.439721 
L 506.672387 334.558381 
L 507.014813 334.558381 
L 507.077933 335.117711 
L 507.316527 335.67704 
L 507.946816 335.67704 
L 508.039455 336.7957 
L 508.309943 336.7957 
L 508.468523 337.35503 
L 508.62069 337.35503 
L 509.166375 337.91436 
L 509.37994 337.35503 
L 509.507123 329.524413 
L 509.645058 328.965083 
L 509.738477 331.202402 
L 510.41138 331.202402 
L 510.687958 330.643072 
L 510.889474 331.761732 
L 511.045377 331.761732 
L 511.44506 332.321062 
L 511.884661 332.321062 
L 512.085246 331.761732 
L 512.242298 332.321062 
L 513.302252 332.321062 
L 513.432764 332.880392 
L 513.916005 331.761732 
L 514.308954 332.321062 
L 514.53413 332.321062 
L 514.620616 332.880392 
L 514.819415 331.761732 
L 515.012662 332.880392 
L 515.814478 332.880392 
L 515.938757 332.321062 
L 516.224373 332.321062 
L 516.269302 332.880392 
L 516.592699 333.439721 
L 516.60532 332.880392 
L 517.213505 332.880392 
L 517.526535 333.439721 
L 519.150941 333.439721 
L 519.272742 333.999051 
L 519.594885 333.439721 
L 519.605641 333.999051 
L 520.068214 334.558381 
L 520.352437 334.558381 
L 520.679509 335.117711 
L 520.842818 335.67704 
L 520.967678 335.67704 
L 521.360579 334.558381 
L 521.438194 335.67704 
L 521.702397 335.117711 
L 521.924777 335.67704 
L 522.917246 335.67704 
L 523.028446 336.23637 
L 523.167037 335.67704 
L 523.647307 336.23637 
L 523.879289 335.67704 
L 524.114394 336.23637 
L 524.255651 335.67704 
L 524.584624 336.7957 
L 524.811921 336.23637 
L 525.589357 336.23637 
L 525.898652 336.7957 
L 526.35027 336.7957 
L 526.709586 335.67704 
L 526.805356 336.23637 
L 527.189279 336.23637 
L 527.286712 337.35503 
L 527.770924 336.23637 
L 527.940021 336.7957 
L 528.330161 336.23637 
L 528.614945 336.23637 
L 528.760844 336.7957 
L 528.96444 336.7957 
L 528.991565 333.439721 
L 529.109579 333.439721 
L 529.56628 333.999051 
L 529.625446 332.880392 
L 529.78942 333.999051 
L 529.939749 333.439721 
L 530.029978 333.999051 
L 530.387922 333.439721 
L 530.817403 333.999051 
L 531.033741 333.999051 
L 531.330709 333.439721 
L 531.752827 333.439721 
L 532.185625 334.558381 
L 532.412333 333.999051 
L 532.870761 333.999051 
L 533.085137 333.439721 
L 533.116697 332.880392 
L 533.38376 333.999051 
L 533.52539 333.439721 
L 533.691981 333.999051 
L 533.939521 333.439721 
L 534.219691 333.439721 
L 534.399675 332.880392 
L 534.741011 332.880392 
L 535.096386 333.999051 
L 535.337525 333.439721 
L 535.631183 334.558381 
L 535.784115 334.558381 
L 535.880107 333.999051 
L 536.17877 333.999051 
L 536.203838 334.558381 
L 537.193917 334.558381 
L 537.356116 335.117711 
L 537.495046 335.117711 
L 537.709211 335.67704 
L 537.893933 335.117711 
L 538.034812 335.67704 
L 538.244841 335.117711 
L 538.363073 335.67704 
L 538.515674 335.117711 
L 538.56484 335.67704 
L 538.733774 336.7957 
L 538.940167 336.23637 
L 539.005121 335.67704 
L 539.222787 336.23637 
L 539.400667 335.67704 
L 539.615068 336.23637 
L 539.966416 336.23637 
L 540.064247 336.7957 
L 540.306969 336.23637 
L 540.944422 337.91436 
L 541.115898 337.91436 
L 541.293265 336.7957 
L 541.377118 337.35503 
L 541.627883 337.35503 
L 541.741975 336.7957 
L 541.947023 336.7957 
L 542.133706 337.35503 
L 542.373704 337.35503 
L 542.776633 339.033019 
L 542.991002 338.473689 
L 545.808916 338.473689 
L 545.940049 339.033019 
L 546.106341 339.033019 
L 546.240071 338.473689 
L 546.390174 339.033019 
L 546.508383 339.033019 
L 547.176848 336.7957 
L 547.288672 337.91436 
L 547.865456 336.7957 
L 548.49117 336.7957 
L 549.168768 337.91436 
L 550.366628 337.35503 
L 550.670832 337.91436 
L 551.005963 337.35503 
L 551.245312 338.473689 
L 551.341309 337.35503 
L 551.656825 338.473689 
L 552.000592 337.35503 
L 552.11439 338.473689 
L 552.334832 338.473689 
L 552.456013 337.91436 
L 552.67566 338.473689 
L 552.807477 338.473689 
L 552.93026 337.91436 
L 553.079444 339.592349 
L 553.470694 338.473689 
L 553.836634 338.473689 
L 554.060235 339.033019 
L 554.482222 339.033019 
L 554.8254 338.473689 
L 555.026025 338.473689 
L 555.177691 339.592349 
L 555.366876 339.033019 
L 555.472499 339.592349 
L 555.727533 340.151679 
L 555.883909 340.151679 
L 556.157308 339.033019 
L 556.418743 340.711008 
L 556.747338 340.711008 
L 556.772279 341.829668 
L 556.795227 341.270338 
L 556.967081 340.711008 
L 557.147733 341.829668 
L 557.223085 340.711008 
L 557.495407 340.711008 
L 557.532512 341.270338 
L 557.839325 341.829668 
L 558.022949 341.829668 
L 558.109017 340.711008 
L 558.520761 341.829668 
L 558.587441 340.711008 
L 558.811706 341.829668 
L 558.984224 340.151679 
L 559.50866 341.270338 
L 559.903733 339.592349 
L 559.934282 340.151679 
L 560.184527 339.592349 
L 560.342733 339.592349 
L 560.506973 340.711008 
L 560.703111 339.592349 
L 561.0802 340.711008 
L 561.223266 339.592349 
L 561.378171 340.151679 
L 561.693834 340.151679 
L 561.902296 339.592349 
L 562.301347 339.592349 
L 562.313527 340.151679 
L 562.941584 339.033019 
L 563.274675 340.711008 
L 563.451457 340.711008 
L 563.657496 340.151679 
L 563.715735 341.270338 
L 563.715735 341.270338 
" clip-path="url(#p98f10a47a1)" style="fill: none; stroke-dasharray: 3,1.5; stroke-dashoffset: 0; stroke: #808080; stroke-width: 1.5"/>
   </g>
   <g id="line2d_19">
    <path d="M 38.539265 297.083286 
L 39.94431 296.523956 
L 41.34482 295.405296 
L 44.661365 295.405296 
L 48.318253 294.845967 
L 48.58954 295.405296 
L 48.758732 295.405296 
L 48.874419 294.286637 
L 49.024725 294.845967 
L 49.141422 294.845967 
L 49.536328 294.286637 
L 50.305208 294.286637 
L 50.733436 291.489988 
L 50.82896 294.286637 
L 51.051232 290.930658 
L 51.121918 291.489988 
L 51.370993 291.489988 
L 51.769419 290.930658 
L 52.422569 290.930658 
L 52.75696 288.693339 
L 53.276754 288.693339 
L 53.804387 289.811999 
L 54.140044 285.33736 
L 54.214345 285.89669 
L 54.530212 285.33736 
L 55.141221 283.659371 
L 55.555654 284.778031 
L 56.210717 284.778031 
L 56.576799 285.89669 
L 56.824275 285.33736 
L 57.569846 284.778031 
L 57.904404 284.778031 
L 58.268203 283.659371 
L 58.790216 283.659371 
L 59.330102 280.303392 
L 60.78144 278.625403 
L 60.979086 278.066073 
L 61.397732 278.066073 
L 61.661723 277.506743 
L 62.082342 277.506743 
L 62.392003 278.625403 
L 62.707436 279.184733 
L 63.059127 279.184733 
L 63.265078 278.625403 
L 65.776748 278.625403 
L 66.178213 278.066073 
L 66.82801 278.066073 
L 67.187605 277.506743 
L 67.532191 277.506743 
L 67.665989 278.066073 
L 68.517031 277.506743 
L 68.873718 278.066073 
L 69.857138 278.066073 
L 70.172873 277.506743 
L 70.561053 278.066073 
L 72.350979 278.066073 
L 72.71771 277.506743 
L 72.919008 275.828754 
L 73.408944 276.947414 
L 74.09894 276.947414 
L 74.421318 275.828754 
L 74.548179 276.947414 
L 75.113403 275.269424 
L 75.455165 275.269424 
L 75.78709 274.710095 
L 76.157572 274.710095 
L 76.497735 275.269424 
L 76.822779 274.150765 
L 77.111353 274.150765 
L 77.895922 273.032105 
L 82.015144 273.032105 
L 82.342594 271.913446 
L 83.040474 271.913446 
L 83.350227 269.116797 
L 84.389129 269.116797 
L 85.383592 266.879478 
L 86.440605 266.879478 
L 86.819194 266.320148 
L 93.205342 266.320148 
L 93.972031 264.642159 
L 94.14571 266.320148 
L 95.3755 266.320148 
L 95.709454 265.201488 
L 96.077903 266.320148 
L 96.954539 266.320148 
L 97.438751 265.201488 
L 97.798214 266.320148 
L 103.226997 266.320148 
L 103.523666 261.28618 
L 103.729351 266.320148 
L 105.696748 266.320148 
L 106.053897 265.760818 
L 106.257752 260.72685 
L 106.739302 265.760818 
L 107.07941 265.760818 
L 107.305179 266.320148 
L 110.867315 266.320148 
L 111.047705 265.760818 
L 111.371428 265.760818 
L 111.904563 264.082829 
L 117.278014 264.082829 
L 118.45075 263.523499 
L 125.667892 263.523499 
L 125.96842 260.72685 
L 126.352439 260.72685 
L 126.692968 263.523499 
L 127.043318 263.523499 
L 127.284728 260.72685 
L 127.546369 263.523499 
L 127.981176 260.72685 
L 128.366328 259.60819 
L 132.83232 259.60819 
L 133.21779 259.048861 
L 134.908944 259.048861 
L 135.256597 257.930201 
L 135.676945 255.692882 
L 135.977215 255.133552 
L 136.316614 251.777574 
L 136.735625 251.777574 
L 137.297448 250.658914 
L 137.685182 250.658914 
L 138.354884 249.540254 
L 141.165729 244.506286 
L 141.452737 245.624946 
L 143.46243 245.624946 
L 143.854507 243.387627 
L 144.200251 243.946957 
L 145.584381 243.946957 
L 145.83745 245.065616 
L 146.282575 243.946957 
L 147.287818 243.946957 
L 147.62993 242.828297 
L 147.959926 242.828297 
L 148.35075 242.268967 
L 148.508459 242.268967 
L 148.684716 240.590978 
L 148.923647 240.590978 
L 149.72622 240.031648 
L 150.389358 241.709638 
L 150.551514 241.709638 
L 151.071359 241.150308 
L 151.404895 240.031648 
L 153.128551 240.031648 
L 153.461347 239.472318 
L 153.818722 239.472318 
L 154.149589 238.912989 
L 154.459537 238.912989 
L 155.179749 238.353659 
L 155.551706 238.353659 
L 155.922622 236.67567 
L 156.527429 236.67567 
L 156.905402 236.11634 
L 157.140264 236.11634 
L 157.271385 246.184276 
L 157.370679 245.624946 
L 157.939069 245.624946 
L 158.275824 244.506286 
L 158.725564 244.506286 
L 158.957224 243.946957 
L 159.466659 243.946957 
L 159.517352 243.387627 
L 160.319873 243.387627 
L 160.750746 241.709638 
L 161.646165 240.031648 
L 163.101577 240.031648 
L 163.416238 238.912989 
L 163.534722 239.472318 
L 163.671928 239.472318 
L 164.052423 240.031648 
L 165.437145 239.472318 
L 168.90155 239.472318 
L 169.302987 240.031648 
L 170.979745 240.031648 
L 171.218386 240.590978 
L 171.65552 240.031648 
L 174.35842 240.031648 
L 174.762701 239.472318 
L 175.32785 239.472318 
L 175.785752 238.912989 
L 176.016155 239.472318 
L 178.223486 239.472318 
L 178.920106 238.353659 
L 180.402666 238.353659 
L 180.652274 230.523042 
L 180.933661 230.523042 
L 183.331669 228.845053 
L 183.479027 229.404382 
L 183.632758 228.845053 
L 184.031789 229.404382 
L 184.366502 229.404382 
L 184.71879 228.845053 
L 184.983338 228.845053 
L 185.408062 227.726393 
L 185.582736 227.726393 
L 185.74439 228.285723 
L 186.106718 227.167063 
L 188.515625 227.167063 
L 188.749974 226.607734 
L 189.140683 226.607734 
L 189.503285 226.048404 
L 189.87973 226.607734 
L 190.045836 226.607734 
L 190.561786 227.167063 
L 190.948347 224.370414 
L 191.223544 226.048404 
L 191.582463 226.048404 
L 191.87015 222.692425 
L 192.07144 223.251755 
L 192.285721 222.133095 
L 192.393647 222.692425 
L 192.525742 221.014436 
L 192.868205 221.014436 
L 193.302113 220.455106 
L 194.15195 221.014436 
L 194.345459 219.895776 
L 194.661707 219.895776 
L 194.885663 221.573766 
L 195.645875 219.895776 
L 196.401788 219.336446 
L 197.065654 219.336446 
L 197.413912 217.658457 
L 197.734023 217.658457 
L 197.923637 218.217787 
L 198.256438 218.217787 
L 199.543596 214.861808 
L 199.758263 217.099127 
L 200.171474 217.658457 
L 200.656124 214.861808 
L 201.958835 214.861808 
L 202.070357 214.302478 
L 202.589435 213.743149 
L 203.97317 213.743149 
L 204.60655 210.9465 
L 208.165834 210.9465 
L 208.446891 209.82784 
L 208.816542 212.065159 
L 209.031746 210.38717 
L 212.912083 210.38717 
L 213.236291 209.82784 
L 214.018127 206.471861 
L 214.311448 208.149851 
L 214.661006 207.590521 
L 215.048068 208.149851 
L 215.320445 208.149851 
L 215.733159 202.556553 
L 215.954461 202.556553 
L 215.997414 201.997223 
L 216.693806 201.997223 
L 217.085773 200.878564 
L 217.431346 199.200574 
L 218.470897 198.641245 
L 218.536674 199.200574 
L 219.101102 199.759904 
L 219.184935 199.200574 
L 221.904613 199.200574 
L 222.093853 198.641245 
L 222.601403 198.081915 
L 223.279156 196.963255 
L 223.455437 195.844596 
L 223.693648 195.844596 
L 223.960504 194.725936 
L 224.2818 195.285266 
L 224.641562 195.285266 
L 224.912642 195.844596 
L 225.294799 195.285266 
L 225.63581 195.285266 
L 225.962647 194.725936 
L 226.227224 194.725936 
L 226.725255 195.285266 
L 226.984167 194.725936 
L 227.25214 195.285266 
L 227.704196 198.081915 
L 228.030321 198.641245 
L 228.778875 197.522585 
L 228.888316 193.607277 
L 229.055174 193.607277 
L 229.360483 193.047947 
L 229.715181 193.607277 
L 230.03902 193.607277 
L 230.437943 194.166606 
L 230.783472 193.047947 
L 232.030526 193.047947 
L 232.526126 192.488617 
L 232.809355 192.488617 
L 232.831332 191.929287 
L 234.244408 191.929287 
L 234.646705 190.810628 
L 236.623859 190.810628 
L 237.017998 189.691968 
L 240.805171 189.691968 
L 241.03199 189.132638 
L 241.643726 189.132638 
L 242.158468 188.573309 
L 242.503277 187.454649 
L 242.606382 188.013979 
L 242.981164 186.895319 
L 243.814899 186.895319 
L 247.191665 185.77666 
L 255.538455 185.77666 
L 255.878447 186.335989 
L 257.510331 186.335989 
L 257.848589 185.77666 
L 258.969522 185.77666 
L 259.356401 185.21733 
L 259.634589 185.77666 
L 259.957445 185.21733 
L 260.314677 185.77666 
L 260.607874 184.658 
L 261.056926 185.21733 
L 261.384578 184.658 
L 268.506782 184.658 
L 268.874686 185.77666 
L 269.264441 185.21733 
L 269.616935 185.77666 
L 270.011765 185.21733 
L 270.328408 185.77666 
L 271.649906 185.77666 
L 271.985459 185.21733 
L 272.364482 185.77666 
L 272.709792 184.658 
L 273.394498 184.658 
L 273.780808 185.21733 
L 274.069887 184.09867 
L 274.441758 184.09867 
L 274.72906 184.658 
L 275.635843 183.539341 
L 276.166317 184.09867 
L 276.481483 183.539341 
L 277.152 183.539341 
L 277.530438 184.09867 
L 277.902042 182.420681 
L 278.259707 182.980011 
L 278.946366 182.980011 
L 279.208114 183.539341 
L 279.542872 182.980011 
L 279.908198 182.980011 
L 280.234224 187.454649 
L 280.36375 186.895319 
L 280.619953 186.895319 
L 280.79843 186.335989 
L 280.953979 186.335989 
L 281.158773 185.77666 
L 281.297559 186.895319 
L 281.622542 186.335989 
L 281.755616 186.335989 
L 281.982734 185.77666 
L 282.571419 185.77666 
L 282.857703 184.658 
L 283.141428 185.77666 
L 283.32615 185.21733 
L 284.367623 185.21733 
L 284.677666 185.77666 
L 284.971702 185.77666 
L 285.34119 185.21733 
L 285.682852 185.21733 
L 286.087866 185.77666 
L 286.47871 185.21733 
L 286.781967 185.21733 
L 287.259198 184.09867 
L 289.205958 184.09867 
L 289.526172 184.658 
L 291.034967 184.658 
L 291.381482 184.09867 
L 291.654058 183.539341 
L 292.187738 183.539341 
L 292.354238 182.420681 
L 292.430616 182.980011 
L 292.611197 182.420681 
L 293.119132 182.420681 
L 293.368132 181.302021 
L 294.046103 181.302021 
L 294.147518 180.742692 
L 294.36257 180.183362 
L 295.40917 180.183362 
L 295.660162 178.505373 
L 295.891767 177.946043 
L 296.025425 177.946043 
L 296.476291 177.386713 
L 296.634978 177.946043 
L 296.711881 177.386713 
L 296.87459 177.386713 
L 297.065064 176.827383 
L 297.207613 176.827383 
L 297.789806 176.268053 
L 299.095947 176.268053 
L 299.432808 176.827383 
L 299.75558 176.268053 
L 300.119427 176.268053 
L 300.293803 175.708724 
L 300.335745 176.268053 
L 300.542711 175.708724 
L 300.704584 175.708724 
L 300.864441 174.590064 
L 301.479988 173.471405 
L 301.928217 174.030734 
L 302.269 173.471405 
L 302.938949 173.471405 
L 303.302561 172.352745 
L 303.435675 172.912075 
L 303.651925 171.234085 
L 303.958356 171.793415 
L 304.157092 171.234085 
L 304.314231 171.793415 
L 304.487879 170.674756 
L 304.841813 170.674756 
L 304.946641 170.115426 
L 305.361885 170.674756 
L 305.683042 169.556096 
L 306.407618 169.556096 
L 306.668451 168.437437 
L 307.03842 169.556096 
L 307.289766 169.556096 
L 307.381917 168.996766 
L 308.058146 168.996766 
L 308.374462 166.759447 
L 308.829373 168.996766 
L 308.899904 168.437437 
L 309.498887 168.996766 
L 309.555607 167.878107 
L 309.761622 167.878107 
L 310.176755 167.318777 
L 310.513657 167.878107 
L 310.768177 167.878107 
L 311.144817 166.759447 
L 311.554572 166.759447 
L 311.951932 167.318777 
L 312.248908 166.759447 
L 312.429354 167.318777 
L 312.608825 166.200117 
L 314.199105 166.200117 
L 314.687875 165.640788 
L 315.685826 165.640788 
L 316.039916 166.759447 
L 316.707274 166.759447 
L 317.041284 166.200117 
L 320.079843 166.200117 
L 320.489916 166.759447 
L 320.874309 165.640788 
L 325.537509 165.640788 
L 326.560488 165.081458 
L 327.16808 165.081458 
L 327.661528 164.522128 
L 328.051486 164.522128 
L 328.280636 163.403468 
L 328.643938 163.962798 
L 333.471243 163.962798 
L 333.892832 164.522128 
L 334.227076 163.962798 
L 334.557282 164.522128 
L 334.781536 166.759447 
L 336.832125 166.759447 
L 337.170307 165.640788 
L 337.644956 166.759447 
L 339.609664 166.759447 
L 339.904134 165.640788 
L 340.015421 166.759447 
L 340.519813 166.759447 
L 340.752964 165.640788 
L 340.930105 166.759447 
L 341.046862 166.759447 
L 341.266286 165.640788 
L 341.422026 165.640788 
L 341.622893 166.759447 
L 341.79857 165.640788 
L 341.91115 166.759447 
L 341.956493 165.640788 
L 343.164719 165.640788 
L 343.560242 163.962798 
L 343.999894 163.962798 
L 344.036156 163.403468 
L 344.390655 163.403468 
L 344.574215 162.844139 
L 344.730719 163.403468 
L 344.922987 162.844139 
L 345.05301 163.403468 
L 345.238992 162.844139 
L 345.357961 162.844139 
L 345.48693 163.403468 
L 345.504615 162.844139 
L 345.891164 162.844139 
L 346.133361 162.284809 
L 346.286117 162.284809 
L 346.514873 161.166149 
L 346.768698 160.60682 
L 346.944 161.166149 
L 348.896548 161.166149 
L 349.175727 160.60682 
L 350.672139 160.60682 
L 350.910844 160.04749 
L 351.226368 160.04749 
L 351.460502 159.48816 
L 351.589551 160.04749 
L 352.208674 160.04749 
L 352.417609 158.92883 
L 352.986298 158.92883 
L 353.040909 158.3695 
L 353.120263 158.92883 
L 353.435807 158.92883 
L 353.463274 158.3695 
L 353.692643 157.810171 
L 353.75675 158.3695 
L 354.016752 156.132181 
L 355.06976 156.132181 
L 355.175621 155.572852 
L 355.406307 155.572852 
L 355.541441 154.454192 
L 355.700037 155.572852 
L 357.097945 155.572852 
L 357.178834 155.013522 
L 357.446967 155.572852 
L 357.575347 155.013522 
L 357.812708 155.572852 
L 358.121028 155.572852 
L 358.310102 154.454192 
L 358.65476 154.454192 
L 358.796136 155.013522 
L 358.917264 153.894862 
L 359.274993 155.572852 
L 359.649867 154.454192 
L 359.921428 155.572852 
L 360.557132 155.572852 
L 361.051869 153.894862 
L 361.205814 154.454192 
L 361.376299 153.894862 
L 361.836322 155.013522 
L 361.983625 153.894862 
L 363.075357 153.894862 
L 363.251331 153.335532 
L 363.557993 153.335532 
L 363.72147 153.894862 
L 363.927791 153.335532 
L 364.058252 153.894862 
L 364.455671 152.776203 
L 364.998262 152.776203 
L 365.380932 151.657543 
L 366.045725 152.776203 
L 366.187796 152.216873 
L 366.362578 152.776203 
L 366.473416 152.216873 
L 366.695788 152.216873 
L 366.788984 152.776203 
L 367.219571 151.657543 
L 367.441231 152.216873 
L 367.550903 151.657543 
L 367.776895 152.216873 
L 368.077037 152.216873 
L 368.27063 151.657543 
L 368.39792 152.216873 
L 368.523364 152.216873 
L 368.803168 152.776203 
L 368.928513 151.657543 
L 369.496681 151.657543 
L 369.534979 150.538884 
L 371.965 150.538884 
L 372.204727 149.979554 
L 372.362078 150.538884 
L 372.495386 149.979554 
L 372.596646 150.538884 
L 372.718108 149.420224 
L 373.27774 149.420224 
L 373.541728 148.860894 
L 373.595229 149.420224 
L 373.650044 148.860894 
L 373.951498 149.420224 
L 374.029408 148.860894 
L 374.324212 148.301564 
L 374.43968 147.742235 
L 374.660115 147.742235 
L 374.7108 147.182905 
L 375.017717 145.504916 
L 375.155858 146.064245 
L 375.342303 146.064245 
L 375.375891 144.945586 
L 376.685827 144.945586 
L 376.848527 144.386256 
L 377.105152 144.945586 
L 377.86297 143.267596 
L 378.101997 143.267596 
L 378.24424 142.708267 
L 378.575553 142.708267 
L 378.583675 142.148937 
L 378.685806 142.708267 
L 378.783708 141.589607 
L 378.928409 141.589607 
L 379.128712 141.030277 
L 380.502762 141.030277 
L 380.539023 141.589607 
L 380.625525 140.470948 
L 380.987888 140.470948 
L 381.172948 141.030277 
L 381.315402 140.470948 
L 381.529874 141.030277 
L 381.690566 140.470948 
L 381.871107 140.470948 
L 382.026242 141.030277 
L 382.180064 139.352288 
L 384.02148 139.352288 
L 384.575232 138.233628 
L 384.866718 138.792958 
L 391.822772 138.792958 
L 391.940874 138.233628 
L 392.152108 138.792958 
L 392.212988 138.233628 
L 392.844172 138.233628 
L 393.01895 137.674299 
L 393.904818 137.674299 
L 394.023182 137.114969 
L 394.190023 137.674299 
L 395.54704 137.674299 
L 395.735266 137.114969 
L 395.972304 137.674299 
L 396.103187 137.674299 
L 396.311764 136.555639 
L 396.426504 137.114969 
L 396.935072 137.114969 
L 397.156664 136.555639 
L 398.199707 136.555639 
L 398.369616 137.674299 
L 398.713896 136.555639 
L 400.566302 136.555639 
L 400.756227 135.996309 
L 400.925901 135.996309 
L 401.108634 135.43698 
L 401.245216 135.43698 
L 401.414286 134.87765 
L 401.80986 134.87765 
L 401.879937 134.31832 
L 402.209706 134.31832 
L 402.418008 135.43698 
L 402.580661 134.87765 
L 402.829637 134.87765 
L 402.931159 134.31832 
L 403.312051 134.31832 
L 403.652723 133.75899 
L 404.024207 132.081001 
L 404.145833 132.640331 
L 404.259082 132.081001 
L 404.51902 131.521671 
L 404.642281 132.081001 
L 404.851323 131.521671 
L 404.973136 131.521671 
L 405.191948 132.081001 
L 405.370655 132.081001 
L 405.720763 130.403012 
L 405.932223 130.962341 
L 406.058185 130.962341 
L 406.223543 130.403012 
L 406.267024 129.843682 
L 406.407628 129.843682 
L 406.476246 130.403012 
L 406.703363 129.843682 
L 406.86063 130.403012 
L 406.990283 129.843682 
L 407.550177 129.843682 
L 407.758643 133.19966 
L 408.315402 132.081001 
L 408.683012 132.081001 
L 408.811595 131.521671 
L 409.011874 132.081001 
L 409.140429 132.081001 
L 409.292545 132.640331 
L 409.467449 132.081001 
L 409.707702 132.081001 
L 409.825915 132.640331 
L 409.976105 132.081001 
L 410.180943 132.640331 
L 410.261454 132.081001 
L 410.557781 131.521671 
L 410.850803 131.521671 
L 411.000083 132.081001 
L 411.283518 131.521671 
L 412.440817 131.521671 
L 412.542744 128.725022 
L 412.84153 130.962341 
L 413.155245 131.521671 
L 413.719538 131.521671 
L 414.152153 130.403012 
L 414.300542 132.081001 
L 414.550297 131.521671 
L 414.868682 132.081001 
L 415.014326 130.403012 
L 415.190169 131.521671 
L 415.356354 131.521671 
L 415.467029 130.962341 
L 415.56445 126.487703 
L 415.902779 128.725022 
L 415.930847 125.928373 
L 416.83518 125.928373 
L 417.262966 124.809714 
L 417.439434 125.369044 
L 418.072957 125.369044 
L 418.245571 125.928373 
L 418.430058 125.369044 
L 418.632417 125.369044 
L 418.751299 125.928373 
L 419.112966 125.369044 
L 419.325433 125.369044 
L 419.464724 124.809714 
L 419.635082 125.369044 
L 419.818102 125.369044 
L 419.989617 125.928373 
L 420.095861 125.369044 
L 421.051277 125.369044 
L 421.290304 123.691054 
L 421.5793 124.250384 
L 421.818319 124.250384 
L 422.011824 124.809714 
L 422.099806 124.250384 
L 422.399542 124.809714 
L 422.511597 124.250384 
L 422.775653 124.250384 
L 422.878957 123.691054 
L 423.194517 124.250384 
L 423.844775 124.250384 
L 424.085855 123.691054 
L 424.487451 123.691054 
L 424.58871 123.131724 
L 424.759852 123.691054 
L 425.159925 122.572395 
L 425.278965 122.572395 
L 425.455517 122.013065 
L 425.618265 122.013065 
L 425.92449 121.453735 
L 428.415447 121.453735 
L 428.680819 120.894405 
L 428.929651 120.894405 
L 428.980313 122.013065 
L 429.043055 121.453735 
L 429.449023 121.453735 
L 429.541686 120.894405 
L 430.07586 120.894405 
L 430.330969 120.335075 
L 430.673602 120.335075 
L 430.684999 120.894405 
L 430.7989 120.335075 
L 430.903648 120.894405 
L 432.39562 120.894405 
L 432.675372 121.453735 
L 433.455752 120.894405 
L 435.074063 120.894405 
L 435.144089 120.335075 
L 436.842255 120.335075 
L 436.995222 119.775746 
L 438.565681 116.979097 
L 438.714523 116.979097 
L 438.869809 116.419767 
L 438.938963 116.979097 
L 439.27339 116.419767 
L 439.584093 115.860437 
L 439.955677 115.860437 
L 440.080461 115.301107 
L 440.550055 115.301107 
L 441.230206 115.860437 
L 441.264471 114.182448 
L 441.811866 114.182448 
L 441.981524 114.741778 
L 442.104753 114.182448 
L 443.022519 114.182448 
L 443.362352 114.741778 
L 445.002975 114.741778 
L 445.835763 114.182448 
L 447.518046 114.182448 
L 448.346431 113.623118 
L 448.457221 113.063788 
L 450.948564 113.063788 
L 451.182615 113.623118 
L 452.447366 113.623118 
L 453.370856 114.182448 
L 454.043815 114.182448 
L 454.377777 113.623118 
L 454.674272 112.504459 
L 454.850799 112.504459 
L 454.857689 113.063788 
L 456.837791 113.063788 
L 457.050306 112.504459 
L 462.052587 112.504459 
L 462.683318 111.945129 
L 462.92639 111.945129 
L 463.021273 110.826469 
L 463.330417 110.826469 
L 463.460245 111.385799 
L 463.661499 110.826469 
L 464.791482 110.826469 
L 465.295169 110.267139 
L 465.64505 109.14848 
L 468.70935 109.14848 
L 469.248694 109.70781 
L 469.404744 109.14848 
L 469.562604 109.70781 
L 469.740062 109.14848 
L 470.580499 109.14848 
L 470.967983 109.70781 
L 471.16461 109.14848 
L 471.706787 110.267139 
L 471.918096 109.14848 
L 473.230136 109.14848 
L 473.245657 108.58915 
L 475.324954 108.58915 
L 476.335933 108.02982 
L 476.639325 108.58915 
L 476.860273 108.02982 
L 477.003263 108.58915 
L 477.203009 108.58915 
L 477.339655 108.02982 
L 477.821294 109.14848 
L 478.139288 108.58915 
L 478.566792 109.14848 
L 478.883446 109.14848 
L 479.027257 108.58915 
L 479.90028 108.58915 
L 480.93758 109.14848 
L 481.093713 108.58915 
L 482.125881 108.58915 
L 482.460996 109.14848 
L 487.714381 108.58915 
L 488.107736 109.14848 
L 488.447688 108.58915 
L 488.752309 109.14848 
L 488.786391 108.58915 
L 489.051592 108.02982 
L 489.20518 108.02982 
L 489.345672 107.470491 
L 491.788152 107.470491 
L 491.840198 106.911161 
L 492.143801 106.911161 
L 492.954464 107.470491 
L 492.980252 106.911161 
L 493.291715 107.470491 
L 493.367417 106.351831 
L 493.567891 106.351831 
L 493.974607 105.792501 
L 494.656187 105.792501 
L 495.070047 106.351831 
L 495.535376 105.233171 
L 495.554461 104.673842 
L 495.874827 104.114512 
L 496.006497 104.114512 
L 496.338963 104.673842 
L 496.806452 104.673842 
L 496.903634 104.114512 
L 497.968038 104.114512 
L 498.114672 104.673842 
L 498.294187 103.555182 
L 498.442146 103.555182 
L 498.72296 104.114512 
L 498.978348 103.555182 
L 499.547868 103.555182 
L 499.79869 101.877193 
L 501.587538 101.877193 
L 501.801402 101.317863 
L 501.932355 101.317863 
L 502.147838 101.877193 
L 502.203412 101.317863 
L 502.774205 101.317863 
L 502.889009 100.758533 
L 503.200818 100.199203 
L 503.289877 99.080544 
L 503.776364 99.080544 
L 503.959149 97.402555 
L 504.339743 97.402555 
L 504.562333 97.961884 
L 504.682587 97.402555 
L 504.844464 97.402555 
L 504.856827 95.724565 
L 505.722579 95.724565 
L 505.872654 95.165235 
L 506.245869 95.165235 
L 506.632609 95.724565 
L 506.672387 94.605906 
L 507.014813 94.605906 
L 507.077933 94.046576 
L 507.316527 93.487246 
L 507.946816 93.487246 
L 508.039455 92.368587 
L 508.309943 92.368587 
L 508.468523 91.809257 
L 508.62069 91.809257 
L 509.166375 91.249927 
L 509.37994 91.809257 
L 509.507123 97.961884 
L 509.645058 98.521214 
L 509.738477 96.283895 
L 510.41138 96.283895 
L 510.687958 96.843225 
L 510.889474 95.724565 
L 511.884661 95.724565 
L 512.085246 96.283895 
L 512.242298 95.724565 
L 513.302252 95.724565 
L 513.432764 95.165235 
L 513.916005 96.283895 
L 514.308954 95.724565 
L 514.53413 95.724565 
L 514.620616 95.165235 
L 514.819415 96.283895 
L 515.012662 95.165235 
L 515.814478 95.165235 
L 515.938757 95.724565 
L 516.224373 95.724565 
L 516.269302 95.165235 
L 516.592699 94.605906 
L 516.60532 95.165235 
L 516.865879 94.605906 
L 517.213505 94.605906 
L 517.526535 94.046576 
L 519.150941 94.046576 
L 519.272742 93.487246 
L 519.594885 94.046576 
L 519.605641 93.487246 
L 520.068214 92.927916 
L 520.352437 92.927916 
L 520.679509 92.368587 
L 520.842818 91.809257 
L 520.967678 91.809257 
L 521.360579 92.927916 
L 521.438194 91.809257 
L 521.702397 92.368587 
L 521.924777 91.809257 
L 522.917246 91.809257 
L 523.028446 91.249927 
L 523.167037 91.809257 
L 523.647307 91.249927 
L 523.879289 91.809257 
L 524.114394 91.249927 
L 524.255651 91.809257 
L 524.584624 90.690597 
L 524.811921 91.249927 
L 525.589357 91.249927 
L 525.898652 90.690597 
L 526.35027 90.690597 
L 526.709586 91.809257 
L 526.805356 91.249927 
L 527.189279 91.249927 
L 527.286712 90.131267 
L 527.770924 91.249927 
L 527.940021 90.690597 
L 528.330161 91.249927 
L 528.614945 91.249927 
L 528.760844 90.690597 
L 529.109579 90.690597 
L 529.56628 90.131267 
L 529.625446 91.249927 
L 529.78942 90.131267 
L 529.939749 90.690597 
L 530.029978 90.131267 
L 530.387922 90.690597 
L 530.817403 90.131267 
L 531.033741 90.131267 
L 531.330709 90.690597 
L 531.752827 90.690597 
L 532.185625 89.571938 
L 532.412333 90.131267 
L 532.870761 90.131267 
L 533.085137 90.690597 
L 533.116697 91.249927 
L 533.38376 90.131267 
L 533.52539 90.690597 
L 533.691981 90.131267 
L 533.939521 90.690597 
L 534.219691 90.690597 
L 534.399675 91.249927 
L 534.741011 91.249927 
L 535.096386 90.131267 
L 535.337525 90.690597 
L 535.631183 89.571938 
L 535.784115 89.571938 
L 535.880107 90.131267 
L 536.17877 90.131267 
L 536.203838 89.571938 
L 537.193917 89.571938 
L 537.356116 89.012608 
L 537.495046 89.012608 
L 537.709211 88.453278 
L 537.893933 89.012608 
L 538.034812 88.453278 
L 538.244841 88.453278 
L 538.363073 87.893948 
L 538.515674 88.453278 
L 538.56484 87.893948 
L 538.733774 86.775289 
L 538.940167 87.334619 
L 539.005121 87.893948 
L 539.222787 87.334619 
L 539.400667 87.893948 
L 539.615068 87.334619 
L 539.966416 87.334619 
L 540.064247 86.775289 
L 540.306969 87.334619 
L 540.944422 85.656629 
L 541.115898 85.656629 
L 541.293265 86.775289 
L 541.377118 86.215959 
L 541.627883 86.215959 
L 541.741975 86.775289 
L 541.947023 86.775289 
L 542.133706 86.215959 
L 542.373704 86.215959 
L 542.776633 84.53797 
L 542.991002 85.097299 
L 545.808916 85.097299 
L 545.940049 84.53797 
L 546.106341 84.53797 
L 546.240071 85.097299 
L 546.390174 84.53797 
L 547.176848 84.53797 
L 547.288672 83.41931 
L 547.865456 84.53797 
L 548.49117 84.53797 
L 549.168768 83.41931 
L 550.366628 83.97864 
L 550.670832 83.41931 
L 551.005963 83.97864 
L 551.245312 82.85998 
L 551.341309 83.97864 
L 551.656825 82.85998 
L 552.000592 83.97864 
L 552.11439 82.85998 
L 552.334832 82.85998 
L 552.456013 83.41931 
L 552.67566 82.85998 
L 552.807477 82.85998 
L 552.93026 83.41931 
L 553.079444 81.741321 
L 553.470694 82.85998 
L 553.836634 82.85998 
L 554.060235 82.300651 
L 554.482222 82.300651 
L 554.8254 82.85998 
L 555.026025 82.85998 
L 555.177691 81.741321 
L 555.366876 82.85998 
L 555.472499 82.300651 
L 555.727533 81.741321 
L 555.883909 81.741321 
L 556.157308 82.85998 
L 556.418743 81.181991 
L 556.747338 81.181991 
L 556.772279 80.063331 
L 556.795227 80.622661 
L 556.967081 81.181991 
L 557.147733 80.063331 
L 557.223085 81.181991 
L 557.495407 81.181991 
L 557.532512 80.622661 
L 557.839325 80.063331 
L 558.022949 80.063331 
L 558.109017 81.181991 
L 558.520761 80.063331 
L 558.587441 81.181991 
L 558.811706 80.063331 
L 558.984224 81.741321 
L 559.50866 80.622661 
L 559.903733 82.300651 
L 559.934282 81.741321 
L 560.184527 82.300651 
L 560.342733 82.300651 
L 560.506973 81.181991 
L 560.703111 82.300651 
L 561.0802 81.181991 
L 561.223266 82.300651 
L 561.378171 81.741321 
L 561.693834 81.741321 
L 561.902296 82.300651 
L 562.301347 82.300651 
L 562.313527 81.741321 
L 562.941584 82.85998 
L 563.274675 81.181991 
L 563.451457 81.181991 
L 563.657496 81.741321 
L 563.715735 80.622661 
L 563.715735 80.622661 
" clip-path="url(#p98f10a47a1)" style="fill: none; stroke-dasharray: 6,1.5; stroke-dashoffset: 0; stroke: #008000; stroke-width: 1.5"/>
   </g>
   <g id="line2d_20">
    <path d="M 38.539265 361.96554 
L 39.94431 363.0842 
L 41.34482 363.0842 
L 42.699505 362.52487 
L 44.661365 362.52487 
L 48.758732 361.96554 
L 48.874419 362.52487 
L 52.422569 362.52487 
L 52.75696 363.643529 
L 53.496775 363.643529 
L 53.804387 360.287551 
L 54.214345 363.643529 
L 56.210717 363.643529 
L 56.576799 360.287551 
L 59.330102 360.287551 
L 60.78144 360.846881 
L 60.979086 361.40621 
L 62.082342 361.40621 
L 62.392003 359.728221 
L 65.776748 359.728221 
L 66.178213 360.287551 
L 76.497735 360.287551 
L 76.822779 359.728221 
L 83.040474 359.728221 
L 83.350227 361.96554 
L 134.908944 361.96554 
L 135.256597 363.0842 
L 135.676945 366.440178 
L 135.977215 366.440178 
L 136.316614 366.999508 
L 138.354884 366.999508 
L 141.165729 368.677497 
L 141.452737 368.677497 
L 141.933973 369.236827 
L 156.141927 369.236827 
L 156.905402 370.355487 
L 189.140683 370.355487 
L 189.503285 370.914817 
L 189.87973 370.355487 
L 192.07144 370.355487 
L 192.393647 370.914817 
L 198.256438 370.914817 
L 199.543596 372.033476 
L 199.758263 370.914817 
L 200.171474 370.914817 
L 200.512071 372.033476 
L 208.446891 372.033476 
L 208.816542 371.474146 
L 209.031746 372.033476 
L 227.704196 372.033476 
L 228.030321 373.152136 
L 269.616935 373.152136 
L 270.011765 373.711465 
L 365.380932 373.711465 
L 365.762321 373.152136 
L 377.105152 373.152136 
L 377.549673 373.711465 
L 377.668479 374.830125 
L 407.550177 374.830125 
L 407.758643 374.270795 
L 410.687219 374.270795 
L 410.850803 374.830125 
L 528.96444 374.830125 
L 528.991565 374.270795 
L 538.034812 374.270795 
L 538.363073 374.830125 
L 563.715735 374.830125 
L 563.715735 374.830125 
" clip-path="url(#p98f10a47a1)" style="fill: none; stroke-dasharray: 9,3; stroke-dashoffset: 0; stroke: #ffa500; stroke-width: 1.5"/>
   </g>
   <g id="line2d_21">
    <path d="M 38.539265 323.371785 
L 48.758732 323.371785 
L 48.874419 323.931115 
L 52.422569 323.931115 
L 52.75696 324.490445 
L 53.496775 324.490445 
L 53.804387 325.609104 
L 54.214345 324.490445 
L 56.210717 324.490445 
L 56.824275 326.168434 
L 58.268203 326.168434 
L 58.593513 326.727764 
L 58.790216 326.168434 
L 58.954755 326.727764 
L 74.09894 326.727764 
L 74.421318 327.846424 
L 74.548179 326.727764 
L 75.113403 327.846424 
L 93.205342 327.846424 
L 93.972031 328.405753 
L 94.14571 327.846424 
L 95.3755 327.846424 
L 95.709454 328.405753 
L 96.077903 327.846424 
L 96.954539 327.846424 
L 97.438751 328.405753 
L 97.798214 327.846424 
L 125.667892 327.846424 
L 125.96842 328.405753 
L 126.352439 328.405753 
L 126.692968 327.846424 
L 127.043318 327.846424 
L 127.284728 328.405753 
L 127.546369 327.846424 
L 127.981176 328.405753 
L 135.256597 328.405753 
L 135.676945 327.846424 
L 135.977215 327.846424 
L 136.316614 328.965083 
L 137.970984 328.965083 
L 138.354884 331.761732 
L 141.165729 329.524413 
L 141.452737 330.083743 
L 143.46243 330.083743 
L 143.854507 332.880392 
L 144.200251 333.439721 
L 159.775385 333.439721 
L 160.319873 332.880392 
L 160.750746 333.439721 
L 161.711783 332.880392 
L 164.052423 332.880392 
L 165.437145 333.439721 
L 171.218386 333.439721 
L 171.65552 333.999051 
L 208.165834 333.999051 
L 208.446891 334.558381 
L 208.816542 333.999051 
L 215.320445 333.999051 
L 215.733159 341.270338 
L 216.693806 341.270338 
L 217.085773 345.744976 
L 217.431346 347.422966 
L 238.360145 347.422966 
L 241.03199 347.982296 
L 272.364482 347.982296 
L 272.709792 350.219615 
L 279.908198 350.219615 
L 280.234224 346.863636 
L 296.87459 346.863636 
L 297.065064 347.422966 
L 328.051486 347.422966 
L 328.280636 347.982296 
L 328.643938 347.422966 
L 337.015085 347.422966 
L 337.170307 347.982296 
L 337.487017 347.422966 
L 339.609664 347.422966 
L 339.904134 347.982296 
L 340.015421 347.422966 
L 343.164719 347.422966 
L 343.384637 347.982296 
L 353.243026 347.982296 
L 353.435807 347.422966 
L 365.762321 347.422966 
L 366.045725 346.863636 
L 366.187796 347.422966 
L 366.362578 346.863636 
L 366.473416 347.422966 
L 366.695788 347.422966 
L 366.788984 346.863636 
L 367.038357 347.422966 
L 368.523364 347.422966 
L 368.803168 346.863636 
L 368.928513 347.422966 
L 377.549673 347.422966 
L 377.668479 346.863636 
L 407.550177 346.863636 
L 407.758643 347.422966 
L 412.440817 347.422966 
L 412.542744 350.219615 
L 412.84153 347.422966 
L 415.549625 347.422966 
L 415.56445 350.219615 
L 415.902779 347.422966 
L 415.930847 350.219615 
L 443.022519 350.219615 
L 443.362352 349.660285 
L 443.654292 350.219615 
L 476.639325 350.219615 
L 476.860273 350.778944 
L 477.003263 350.219615 
L 477.339655 350.219615 
L 477.821294 350.778944 
L 499.547868 350.778944 
L 499.79869 351.338274 
L 502.889009 351.338274 
L 503.200818 351.897604 
L 509.37994 351.897604 
L 509.507123 351.338274 
L 516.60532 351.338274 
L 516.865879 351.897604 
L 528.96444 351.897604 
L 528.991565 355.812913 
L 538.034812 355.812913 
L 538.363073 355.253583 
L 546.508383 355.253583 
L 547.288672 357.490902 
L 555.177691 357.490902 
L 555.472499 356.931572 
L 563.715735 356.931572 
L 563.715735 356.931572 
" clip-path="url(#p98f10a47a1)" style="fill: none; stroke-dasharray: 12,4.5; stroke-dashoffset: 0; stroke: #ee82ee; stroke-width: 1.5"/>
   </g>
   <g id="patch_3">
    <path d="M 33.2875 374.830125 
L 33.2875 22.318125 
" style="fill: none; stroke: #000000; stroke-width: 0.8; stroke-linejoin: miter; stroke-linecap: square"/>
   </g>
   <g id="patch_4">
    <path d="M 568.9675 374.830125 
L 568.9675 22.318125 
" style="fill: none; stroke: #000000; stroke-width: 0.8; stroke-linejoin: miter; stroke-linecap: square"/>
   </g>
   <g id="patch_5">
    <path d="M 33.2875 374.830125 
L 568.9675 374.830125 
" style="fill: none; stroke: #000000; stroke-width: 0.8; stroke-linejoin: miter; stroke-linecap: square"/>
   </g>
   <g id="patch_6">
    <path d="M 33.2875 22.318125 
L 568.9675 22.318125 
" style="fill: none; stroke: #000000; stroke-width: 0.8; stroke-linejoin: miter; stroke-linecap: square"/>
   </g>
   <g id="text_17">
    <!-- Rust/Coreutils running GNU's testsuite -->
    <g transform="translate(186.090625 16.318125) scale(0.12 -0.12)">
     <defs>
      <path id="DejaVuSans-52" d="M 2841 2188 
Q 3044 2119 3236 1894 
Q 3428 1669 3622 1275 
L 4263 0 
L 3584 0 
L 2988 1197 
Q 2756 1666 2539 1819 
Q 2322 1972 1947 1972 
L 1259 1972 
L 1259 0 
L 628 0 
L 628 4666 
L 2053 4666 
Q 2853 4666 3247 4331 
Q 3641 3997 3641 3322 
Q 3641 2881 3436 2590 
Q 3231 2300 2841 2188 
z
M 1259 4147 
L 1259 2491 
L 2053 2491 
Q 2509 2491 2742 2702 
Q 2975 2913 2975 3322 
Q 2975 3731 2742 3939 
Q 2509 4147 2053 4147 
L 1259 4147 
z
" transform="scale(0.015625)"/>
      <path id="DejaVuSans-75" d="M 544 1381 
L 544 3500 
L 1119 3500 
L 1119 1403 
Q 1119 906 1312 657 
Q 1506 409 1894 409 
Q 2359 409 2629 706 
Q 2900 1003 2900 1516 
L 2900 3500 
L 3475 3500 
L 3475 0 
L 2900 0 
L 2900 538 
Q 2691 219 2414 64 
Q 2138 -91 1772 -91 
Q 1169 -91 856 284 
Q 544 659 544 1381 
z
M 1991 3584 
L 1991 3584 
z
" transform="scale(0.015625)"/>
      <path id="DejaVuSans-73" d="M 2834 3397 
L 2834 2853 
Q 2591 2978 2328 3040 
Q 2066 3103 1784 3103 
Q 1356 3103 1142 2972 
Q 928 2841 928 2578 
Q 928 2378 1081 2264 
Q 1234 2150 1697 2047 
L 1894 2003 
Q 2506 1872 2764 1633 
Q 3022 1394 3022 966 
Q 3022 478 2636 193 
Q 2250 -91 1575 -91 
Q 1294 -91 989 -36 
Q 684 19 347 128 
L 347 722 
Q 666 556 975 473 
Q 1284 391 1588 391 
Q 1994 391 2212 530 
Q 2431 669 2431 922 
Q 2431 1156 2273 1281 
Q 2116 1406 1581 1522 
L 1381 1569 
Q 847 1681 609 1914 
Q 372 2147 372 2553 
Q 372 3047 722 3315 
Q 1072 3584 1716 3584 
Q 2034 3584 2315 3537 
Q 2597 3491 2834 3397 
z
" transform="scale(0.015625)"/>
      <path id="DejaVuSans-74" d="M 1172 4494 
L 1172 3500 
L 2356 3500 
L 2356 3053 
L 1172 3053 
L 1172 1153 
Q 1172 725 1289 603 
Q 1406 481 1766 481 
L 2356 481 
L 2356 0 
L 1766 0 
Q 1100 0 847 248 
Q 594 497 594 1153 
L 594 3053 
L 172 3053 
L 172 3500 
L 594 3500 
L 594 4494 
L 1172 4494 
z
" transform="scale(0.015625)"/>
      <path id="DejaVuSans-2f" d="M 1625 4666 
L 2156 4666 
L 531 -594 
L 0 -594 
L 1625 4666 
z
" transform="scale(0.015625)"/>
      <path id="DejaVuSans-43" d="M 4122 4306 
L 4122 3641 
Q 3803 3938 3442 4084 
Q 3081 4231 2675 4231 
Q 1875 4231 1450 3742 
Q 1025 3253 1025 2328 
Q 1025 1406 1450 917 
Q 1875 428 2675 428 
Q 3081 428 3442 575 
Q 3803 722 4122 1019 
L 4122 359 
Q 3791 134 3420 21 
Q 3050 -91 2638 -91 
Q 1578 -91 968 557 
Q 359 1206 359 2328 
Q 359 3453 968 4101 
Q 1578 4750 2638 4750 
Q 3056 4750 3426 4639 
Q 3797 4528 4122 4306 
z
" transform="scale(0.015625)"/>
      <path id="DejaVuSans-6f" d="M 1959 3097 
Q 1497 3097 1228 2736 
Q 959 2375 959 1747 
Q 959 1119 1226 758 
Q 1494 397 1959 397 
Q 2419 397 2687 759 
Q 2956 1122 2956 1747 
Q 2956 2369 2687 2733 
Q 2419 3097 1959 3097 
z
M 1959 3584 
Q 2709 3584 3137 3096 
Q 3566 2609 3566 1747 
Q 3566 888 3137 398 
Q 2709 -91 1959 -91 
Q 1206 -91 779 398 
Q 353 888 353 1747 
Q 353 2609 779 3096 
Q 1206 3584 1959 3584 
z
" transform="scale(0.015625)"/>
      <path id="DejaVuSans-72" d="M 2631 2963 
Q 2534 3019 2420 3045 
Q 2306 3072 2169 3072 
Q 1681 3072 1420 2755 
Q 1159 2438 1159 1844 
L 1159 0 
L 581 0 
L 581 3500 
L 1159 3500 
L 1159 2956 
Q 1341 3275 1631 3429 
Q 1922 3584 2338 3584 
Q 2397 3584 2469 3576 
Q 2541 3569 2628 3553 
L 2631 2963 
z
" transform="scale(0.015625)"/>
      <path id="DejaVuSans-65" d="M 3597 1894 
L 3597 1613 
L 953 1613 
Q 991 1019 1311 708 
Q 1631 397 2203 397 
Q 2534 397 2845 478 
Q 3156 559 3463 722 
L 3463 178 
Q 3153 47 2828 -22 
Q 2503 -91 2169 -91 
Q 1331 -91 842 396 
Q 353 884 353 1716 
Q 353 2575 817 3079 
Q 1281 3584 2069 3584 
Q 2775 3584 3186 3129 
Q 3597 2675 3597 1894 
z
M 3022 2063 
Q 3016 2534 2758 2815 
Q 2500 3097 2075 3097 
Q 1594 3097 1305 2825 
Q 1016 2553 972 2059 
L 3022 2063 
z
" transform="scale(0.015625)"/>
      <path id="DejaVuSans-69" d="M 603 3500 
L 1178 3500 
L 1178 0 
L 603 0 
L 603 3500 
z
M 603 4863 
L 1178 4863 
L 1178 4134 
L 603 4134 
L 603 4863 
z
" transform="scale(0.015625)"/>
      <path id="DejaVuSans-6c" d="M 603 4863 
L 1178 4863 
L 1178 0 
L 603 0 
L 603 4863 
z
" transform="scale(0.015625)"/>
      <path id="DejaVuSans-20" transform="scale(0.015625)"/>
      <path id="DejaVuSans-6e" d="M 3513 2113 
L 3513 0 
L 2938 0 
L 2938 2094 
Q 2938 2591 2744 2837 
Q 2550 3084 2163 3084 
Q 1697 3084 1428 2787 
Q 1159 2491 1159 1978 
L 1159 0 
L 581 0 
L 581 3500 
L 1159 3500 
L 1159 2956 
Q 1366 3272 1645 3428 
Q 1925 3584 2291 3584 
Q 2894 3584 3203 3211 
Q 3513 2838 3513 2113 
z
" transform="scale(0.015625)"/>
      <path id="DejaVuSans-67" d="M 2906 1791 
Q 2906 2416 2648 2759 
Q 2391 3103 1925 3103 
Q 1463 3103 1205 2759 
Q 947 2416 947 1791 
Q 947 1169 1205 825 
Q 1463 481 1925 481 
Q 2391 481 2648 825 
Q 2906 1169 2906 1791 
z
M 3481 434 
Q 3481 -459 3084 -895 
Q 2688 -1331 1869 -1331 
Q 1566 -1331 1297 -1286 
Q 1028 -1241 775 -1147 
L 775 -588 
Q 1028 -725 1275 -790 
Q 1522 -856 1778 -856 
Q 2344 -856 2625 -561 
Q 2906 -266 2906 331 
L 2906 616 
Q 2728 306 2450 153 
Q 2172 0 1784 0 
Q 1141 0 747 490 
Q 353 981 353 1791 
Q 353 2603 747 3093 
Q 1141 3584 1784 3584 
Q 2172 3584 2450 3431 
Q 2728 3278 2906 2969 
L 2906 3500 
L 3481 3500 
L 3481 434 
z
" transform="scale(0.015625)"/>
      <path id="DejaVuSans-47" d="M 3809 666 
L 3809 1919 
L 2778 1919 
L 2778 2438 
L 4434 2438 
L 4434 434 
Q 4069 175 3628 42 
Q 3188 -91 2688 -91 
Q 1594 -91 976 548 
Q 359 1188 359 2328 
Q 359 3472 976 4111 
Q 1594 4750 2688 4750 
Q 3144 4750 3555 4637 
Q 3966 4525 4313 4306 
L 4313 3634 
Q 3963 3931 3569 4081 
Q 3175 4231 2741 4231 
Q 1884 4231 1454 3753 
Q 1025 3275 1025 2328 
Q 1025 1384 1454 906 
Q 1884 428 2741 428 
Q 3075 428 3337 486 
Q 3600 544 3809 666 
z
" transform="scale(0.015625)"/>
      <path id="DejaVuSans-4e" d="M 628 4666 
L 1478 4666 
L 3547 763 
L 3547 4666 
L 4159 4666 
L 4159 0 
L 3309 0 
L 1241 3903 
L 1241 0 
L 628 0 
L 628 4666 
z
" transform="scale(0.015625)"/>
      <path id="DejaVuSans-55" d="M 556 4666 
L 1191 4666 
L 1191 1831 
Q 1191 1081 1462 751 
Q 1734 422 2344 422 
Q 2950 422 3222 751 
Q 3494 1081 3494 1831 
L 3494 4666 
L 4128 4666 
L 4128 1753 
Q 4128 841 3676 375 
Q 3225 -91 2344 -91 
Q 1459 -91 1007 375 
Q 556 841 556 1753 
L 556 4666 
z
" transform="scale(0.015625)"/>
      <path id="DejaVuSans-27" d="M 1147 4666 
L 1147 2931 
L 616 2931 
L 616 4666 
L 1147 4666 
z
" transform="scale(0.015625)"/>
     </defs>
     <use xlink:href="#DejaVuSans-52"/>
     <use xlink:href="#DejaVuSans-75" x="64.982422"/>
     <use xlink:href="#DejaVuSans-73" x="128.361328"/>
     <use xlink:href="#DejaVuSans-74" x="180.460938"/>
     <use xlink:href="#DejaVuSans-2f" x="219.669922"/>
     <use xlink:href="#DejaVuSans-43" x="253.361328"/>
     <use xlink:href="#DejaVuSans-6f" x="323.185547"/>
     <use xlink:href="#DejaVuSans-72" x="384.367188"/>
     <use xlink:href="#DejaVuSans-65" x="423.230469"/>
     <use xlink:href="#DejaVuSans-75" x="484.753906"/>
     <use xlink:href="#DejaVuSans-74" x="548.132812"/>
     <use xlink:href="#DejaVuSans-69" x="587.341797"/>
     <use xlink:href="#DejaVuSans-6c" x="615.125"/>
     <use xlink:href="#DejaVuSans-73" x="642.908203"/>
     <use xlink:href="#DejaVuSans-20" x="695.007812"/>
     <use xlink:href="#DejaVuSans-72" x="726.794922"/>
     <use xlink:href="#DejaVuSans-75" x="767.908203"/>
     <use xlink:href="#DejaVuSans-6e" x="831.287109"/>
     <use xlink:href="#DejaVuSans-6e" x="894.666016"/>
     <use xlink:href="#DejaVuSans-69" x="958.044922"/>
     <use xlink:href="#DejaVuSans-6e" x="985.828125"/>
     <use xlink:href="#DejaVuSans-67" x="1049.207031"/>
     <use xlink:href="#DejaVuSans-20" x="1112.683594"/>
     <use xlink:href="#DejaVuSans-47" x="1144.470703"/>
     <use xlink:href="#DejaVuSans-4e" x="1221.960938"/>
     <use xlink:href="#DejaVuSans-55" x="1296.765625"/>
     <use xlink:href="#DejaVuSans-27" x="1369.958984"/>
     <use xlink:href="#DejaVuSans-73" x="1397.449219"/>
     <use xlink:href="#DejaVuSans-20" x="1449.548828"/>
     <use xlink:href="#DejaVuSans-74" x="1481.335938"/>
     <use xlink:href="#DejaVuSans-65" x="1520.544922"/>
     <use xlink:href="#DejaVuSans-73" x="1582.068359"/>
     <use xlink:href="#DejaVuSans-74" x="1634.167969"/>
     <use xlink:href="#DejaVuSans-73" x="1673.376953"/>
     <use xlink:href="#DejaVuSans-75" x="1725.476562"/>
     <use xlink:href="#DejaVuSans-69" x="1788.855469"/>
     <use xlink:href="#DejaVuSans-74" x="1816.638672"/>
     <use xlink:href="#DejaVuSans-65" x="1855.847656"/>
    </g>
   </g>
   <g id="legend_1">
    <g id="patch_7">
     <path d="M 505.762812 236.769437 
L 561.9675 236.769437 
Q 563.9675 236.769437 563.9675 234.769437 
L 563.9675 162.378812 
Q 563.9675 160.378812 561.9675 160.378812 
L 505.762812 160.378812 
Q 503.762812 160.378812 503.762812 162.378812 
L 503.762812 234.769437 
Q 503.762812 236.769437 505.762812 236.769437 
z
" style="fill: #ffffff; opacity: 0.8; stroke: #cccccc; stroke-linejoin: miter"/>
    </g>
    <g id="line2d_22">
     <path d="M 507.762812 168.47725 
L 517.762812 168.47725 
L 527.762812 168.47725 
" style="fill: none; stroke: #0000ff; stroke-width: 1.5; stroke-linecap: square"/>
    </g>
    <g id="text_18">
     <!-- total -->
     <g transform="translate(535.762812 171.97725) scale(0.1 -0.1)">
      <defs>
       <path id="DejaVuSans-61" d="M 2194 1759 
Q 1497 1759 1228 1600 
Q 959 1441 959 1056 
Q 959 750 1161 570 
Q 1363 391 1709 391 
Q 2188 391 2477 730 
Q 2766 1069 2766 1631 
L 2766 1759 
L 2194 1759 
z
M 3341 1997 
L 3341 0 
L 2766 0 
L 2766 531 
Q 2569 213 2275 61 
Q 1981 -91 1556 -91 
Q 1019 -91 701 211 
Q 384 513 384 1019 
Q 384 1609 779 1909 
Q 1175 2209 1959 2209 
L 2766 2209 
L 2766 2266 
Q 2766 2663 2505 2880 
Q 2244 3097 1772 3097 
Q 1472 3097 1187 3025 
Q 903 2953 641 2809 
L 641 3341 
Q 956 3463 1253 3523 
Q 1550 3584 1831 3584 
Q 2591 3584 2966 3190 
Q 3341 2797 3341 1997 
z
" transform="scale(0.015625)"/>
      </defs>
      <use xlink:href="#DejaVuSans-74"/>
      <use xlink:href="#DejaVuSans-6f" x="39.208984"/>
      <use xlink:href="#DejaVuSans-74" x="100.390625"/>
      <use xlink:href="#DejaVuSans-61" x="139.599609"/>
      <use xlink:href="#DejaVuSans-6c" x="200.878906"/>
     </g>
    </g>
    <g id="line2d_23">
     <path d="M 507.762812 183.155375 
L 517.762812 183.155375 
L 527.762812 183.155375 
" style="fill: none; stroke-dasharray: 3,1.5; stroke-dashoffset: 0; stroke: #808080; stroke-width: 1.5"/>
    </g>
    <g id="text_19">
     <!-- fail -->
     <g transform="translate(535.762812 186.655375) scale(0.1 -0.1)">
      <defs>
       <path id="DejaVuSans-66" d="M 2375 4863 
L 2375 4384 
L 1825 4384 
Q 1516 4384 1395 4259 
Q 1275 4134 1275 3809 
L 1275 3500 
L 2222 3500 
L 2222 3053 
L 1275 3053 
L 1275 0 
L 697 0 
L 697 3053 
L 147 3053 
L 147 3500 
L 697 3500 
L 697 3744 
Q 697 4328 969 4595 
Q 1241 4863 1831 4863 
L 2375 4863 
z
" transform="scale(0.015625)"/>
      </defs>
      <use xlink:href="#DejaVuSans-66"/>
      <use xlink:href="#DejaVuSans-61" x="35.205078"/>
      <use xlink:href="#DejaVuSans-69" x="96.484375"/>
      <use xlink:href="#DejaVuSans-6c" x="124.267578"/>
     </g>
    </g>
    <g id="line2d_24">
     <path d="M 507.762812 197.8335 
L 517.762812 197.8335 
L 527.762812 197.8335 
" style="fill: none; stroke-dasharray: 6,1.5; stroke-dashoffset: 0; stroke: #008000; stroke-width: 1.5"/>
    </g>
    <g id="text_20">
     <!-- pass -->
     <g transform="translate(535.762812 201.3335) scale(0.1 -0.1)">
      <defs>
       <path id="DejaVuSans-70" d="M 1159 525 
L 1159 -1331 
L 581 -1331 
L 581 3500 
L 1159 3500 
L 1159 2969 
Q 1341 3281 1617 3432 
Q 1894 3584 2278 3584 
Q 2916 3584 3314 3078 
Q 3713 2572 3713 1747 
Q 3713 922 3314 415 
Q 2916 -91 2278 -91 
Q 1894 -91 1617 61 
Q 1341 213 1159 525 
z
M 3116 1747 
Q 3116 2381 2855 2742 
Q 2594 3103 2138 3103 
Q 1681 3103 1420 2742 
Q 1159 2381 1159 1747 
Q 1159 1113 1420 752 
Q 1681 391 2138 391 
Q 2594 391 2855 752 
Q 3116 1113 3116 1747 
z
" transform="scale(0.015625)"/>
      </defs>
      <use xlink:href="#DejaVuSans-70"/>
      <use xlink:href="#DejaVuSans-61" x="63.476562"/>
      <use xlink:href="#DejaVuSans-73" x="124.755859"/>
      <use xlink:href="#DejaVuSans-73" x="176.855469"/>
     </g>
    </g>
    <g id="line2d_25">
     <path d="M 507.762812 212.511625 
L 517.762812 212.511625 
L 527.762812 212.511625 
" style="fill: none; stroke-dasharray: 9,3; stroke-dashoffset: 0; stroke: #ffa500; stroke-width: 1.5"/>
    </g>
    <g id="text_21">
     <!-- error -->
     <g transform="translate(535.762812 216.011625) scale(0.1 -0.1)">
      <use xlink:href="#DejaVuSans-65"/>
      <use xlink:href="#DejaVuSans-72" x="61.523438"/>
      <use xlink:href="#DejaVuSans-72" x="100.886719"/>
      <use xlink:href="#DejaVuSans-6f" x="139.75"/>
      <use xlink:href="#DejaVuSans-72" x="200.931641"/>
     </g>
    </g>
    <g id="line2d_26">
     <path d="M 507.762812 227.18975 
L 517.762812 227.18975 
L 527.762812 227.18975 
" style="fill: none; stroke-dasharray: 12,4.5; stroke-dashoffset: 0; stroke: #ee82ee; stroke-width: 1.5"/>
    </g>
    <g id="text_22">
     <!-- skip -->
     <g transform="translate(535.762812 230.68975) scale(0.1 -0.1)">
      <defs>
       <path id="DejaVuSans-6b" d="M 581 4863 
L 1159 4863 
L 1159 1991 
L 2875 3500 
L 3609 3500 
L 1753 1863 
L 3688 0 
L 2938 0 
L 1159 1709 
L 1159 0 
L 581 0 
L 581 4863 
z
" transform="scale(0.015625)"/>
      </defs>
      <use xlink:href="#DejaVuSans-73"/>
      <use xlink:href="#DejaVuSans-6b" x="52.099609"/>
      <use xlink:href="#DejaVuSans-69" x="110.009766"/>
      <use xlink:href="#DejaVuSans-70" x="137.792969"/>
     </g>
    </g>
   </g>
  </g>
 </g>
 <defs>
  <clipPath id="p98f10a47a1">
   <rect x="33.2875" y="22.318125" width="535.68" height="352.512"/>
  </clipPath>
 </defs>
</svg>
