<?xml version="1.0" encoding="utf-8" standalone="no"?>
<!DOCTYPE svg PUBLIC "-//W3C//DTD SVG 1.1//EN"
  "http://www.w3.org/Graphics/SVG/1.1/DTD/svg11.dtd">
<svg xmlns:xlink="http://www.w3.org/1999/xlink" width="576.1675pt" height="418.303033pt" viewBox="0 0 576.1675 418.303033" xmlns="http://www.w3.org/2000/svg" version="1.1">
 <metadata>
  <rdf:RDF xmlns:dc="http://purl.org/dc/elements/1.1/" xmlns:cc="http://creativecommons.org/ns#" xmlns:rdf="http://www.w3.org/1999/02/22-rdf-syntax-ns#">
   <cc:Work>
    <dc:type rdf:resource="http://purl.org/dc/dcmitype/StillImage"/>
    <dc:date>2025-11-20T20:42:59.230725</dc:date>
    <dc:format>image/svg+xml</dc:format>
    <dc:creator>
     <cc:Agent>
      <dc:title>Matplotlib v3.6.3, https://matplotlib.org/</dc:title>
     </cc:Agent>
    </dc:creator>
   </cc:Work>
  </rdf:RDF>
 </metadata>
 <defs>
  <style type="text/css">*{stroke-linejoin: round; stroke-linecap: butt}</style>
 </defs>
 <g id="figure_1">
  <g id="patch_1">
   <path d="M -0 418.303033 
L 576.1675 418.303033 
L 576.1675 0 
L -0 0 
z
" style="fill: #ffffff"/>
  </g>
  <g id="axes_1">
   <g id="patch_2">
    <path d="M 33.2875 374.830125 
L 568.9675 374.830125 
L 568.9675 22.318125 
L 33.2875 22.318125 
z
" style="fill: #ffffff"/>
   </g>
   <g id="matplotlib.axis_1">
    <g id="xtick_1">
     <g id="line2d_1">
      <defs>
       <path id="ma97e77387a" d="M 0 0 
L 0 3.5 
" style="stroke: #000000; stroke-width: 0.8"/>
      </defs>
      <g>
       <use xlink:href="#ma97e77387a" x="60.932674" y="374.830125" style="stroke: #000000; stroke-width: 0.8"/>
      </g>
     </g>
     <g id="text_1">
      <!-- 2021-07 -->
      <g transform="translate(23.707853 409.301971) rotate(-30) scale(0.1 -0.1)">
       <defs>
        <path id="DejaVuSans-32" d="M 1228 531 
L 3431 531 
L 3431 0 
L 469 0 
L 469 531 
Q 828 903 1448 1529 
Q 2069 2156 2228 2338 
Q 2531 2678 2651 2914 
Q 2772 3150 2772 3378 
Q 2772 3750 2511 3984 
Q 2250 4219 1831 4219 
Q 1534 4219 1204 4116 
Q 875 4013 500 3803 
L 500 4441 
Q 881 4594 1212 4672 
Q 1544 4750 1819 4750 
Q 2544 4750 2975 4387 
Q 3406 4025 3406 3419 
Q 3406 3131 3298 2873 
Q 3191 2616 2906 2266 
Q 2828 2175 2409 1742 
Q 1991 1309 1228 531 
z
" transform="scale(0.015625)"/>
        <path id="DejaVuSans-30" d="M 2034 4250 
Q 1547 4250 1301 3770 
Q 1056 3291 1056 2328 
Q 1056 1369 1301 889 
Q 1547 409 2034 409 
Q 2525 409 2770 889 
Q 3016 1369 3016 2328 
Q 3016 3291 2770 3770 
Q 2525 4250 2034 4250 
z
M 2034 4750 
Q 2819 4750 3233 4129 
Q 3647 3509 3647 2328 
Q 3647 1150 3233 529 
Q 2819 -91 2034 -91 
Q 1250 -91 836 529 
Q 422 1150 422 2328 
Q 422 3509 836 4129 
Q 1250 4750 2034 4750 
z
" transform="scale(0.015625)"/>
        <path id="DejaVuSans-31" d="M 794 531 
L 1825 531 
L 1825 4091 
L 703 3866 
L 703 4441 
L 1819 4666 
L 2450 4666 
L 2450 531 
L 3481 531 
L 3481 0 
L 794 0 
L 794 531 
z
" transform="scale(0.015625)"/>
        <path id="DejaVuSans-2d" d="M 313 2009 
L 1997 2009 
L 1997 1497 
L 313 1497 
L 313 2009 
z
" transform="scale(0.015625)"/>
        <path id="DejaVuSans-37" d="M 525 4666 
L 3525 4666 
L 3525 4397 
L 1831 0 
L 1172 0 
L 2766 4134 
L 525 4134 
L 525 4666 
z
" transform="scale(0.015625)"/>
       </defs>
       <use xlink:href="#DejaVuSans-32"/>
       <use xlink:href="#DejaVuSans-30" x="63.623047"/>
       <use xlink:href="#DejaVuSans-32" x="127.246094"/>
       <use xlink:href="#DejaVuSans-31" x="190.869141"/>
       <use xlink:href="#DejaVuSans-2d" x="254.492188"/>
       <use xlink:href="#DejaVuSans-30" x="290.576172"/>
       <use xlink:href="#DejaVuSans-37" x="354.199219"/>
      </g>
     </g>
    </g>
    <g id="xtick_2">
     <g id="line2d_2">
      <g>
       <use xlink:href="#ma97e77387a" x="118.631199" y="374.830125" style="stroke: #000000; stroke-width: 0.8"/>
      </g>
     </g>
     <g id="text_2">
      <!-- 2022-01 -->
      <g transform="translate(81.406378 409.301971) rotate(-30) scale(0.1 -0.1)">
       <use xlink:href="#DejaVuSans-32"/>
       <use xlink:href="#DejaVuSans-30" x="63.623047"/>
       <use xlink:href="#DejaVuSans-32" x="127.246094"/>
       <use xlink:href="#DejaVuSans-32" x="190.869141"/>
       <use xlink:href="#DejaVuSans-2d" x="254.492188"/>
       <use xlink:href="#DejaVuSans-30" x="290.576172"/>
       <use xlink:href="#DejaVuSans-31" x="354.199219"/>
      </g>
     </g>
    </g>
    <g id="xtick_3">
     <g id="line2d_3">
      <g>
       <use xlink:href="#ma97e77387a" x="175.388988" y="374.830125" style="stroke: #000000; stroke-width: 0.8"/>
      </g>
     </g>
     <g id="text_3">
      <!-- 2022-07 -->
      <g transform="translate(138.164167 409.301971) rotate(-30) scale(0.1 -0.1)">
       <use xlink:href="#DejaVuSans-32"/>
       <use xlink:href="#DejaVuSans-30" x="63.623047"/>
       <use xlink:href="#DejaVuSans-32" x="127.246094"/>
       <use xlink:href="#DejaVuSans-32" x="190.869141"/>
       <use xlink:href="#DejaVuSans-2d" x="254.492188"/>
       <use xlink:href="#DejaVuSans-30" x="290.576172"/>
       <use xlink:href="#DejaVuSans-37" x="354.199219"/>
      </g>
     </g>
    </g>
    <g id="xtick_4">
     <g id="line2d_4">
      <g>
       <use xlink:href="#ma97e77387a" x="233.087513" y="374.830125" style="stroke: #000000; stroke-width: 0.8"/>
      </g>
     </g>
     <g id="text_4">
      <!-- 2023-01 -->
      <g transform="translate(195.862692 409.301971) rotate(-30) scale(0.1 -0.1)">
       <defs>
        <path id="DejaVuSans-33" d="M 2597 2516 
Q 3050 2419 3304 2112 
Q 3559 1806 3559 1356 
Q 3559 666 3084 287 
Q 2609 -91 1734 -91 
Q 1441 -91 1130 -33 
Q 819 25 488 141 
L 488 750 
Q 750 597 1062 519 
Q 1375 441 1716 441 
Q 2309 441 2620 675 
Q 2931 909 2931 1356 
Q 2931 1769 2642 2001 
Q 2353 2234 1838 2234 
L 1294 2234 
L 1294 2753 
L 1863 2753 
Q 2328 2753 2575 2939 
Q 2822 3125 2822 3475 
Q 2822 3834 2567 4026 
Q 2313 4219 1838 4219 
Q 1578 4219 1281 4162 
Q 984 4106 628 3988 
L 628 4550 
Q 988 4650 1302 4700 
Q 1616 4750 1894 4750 
Q 2613 4750 3031 4423 
Q 3450 4097 3450 3541 
Q 3450 3153 3228 2886 
Q 3006 2619 2597 2516 
z
" transform="scale(0.015625)"/>
       </defs>
       <use xlink:href="#DejaVuSans-32"/>
       <use xlink:href="#DejaVuSans-30" x="63.623047"/>
       <use xlink:href="#DejaVuSans-32" x="127.246094"/>
       <use xlink:href="#DejaVuSans-33" x="190.869141"/>
       <use xlink:href="#DejaVuSans-2d" x="254.492188"/>
       <use xlink:href="#DejaVuSans-30" x="290.576172"/>
       <use xlink:href="#DejaVuSans-31" x="354.199219"/>
      </g>
     </g>
    </g>
    <g id="xtick_5">
     <g id="line2d_5">
      <g>
       <use xlink:href="#ma97e77387a" x="289.845302" y="374.830125" style="stroke: #000000; stroke-width: 0.8"/>
      </g>
     </g>
     <g id="text_5">
      <!-- 2023-07 -->
      <g transform="translate(252.620481 409.301971) rotate(-30) scale(0.1 -0.1)">
       <use xlink:href="#DejaVuSans-32"/>
       <use xlink:href="#DejaVuSans-30" x="63.623047"/>
       <use xlink:href="#DejaVuSans-32" x="127.246094"/>
       <use xlink:href="#DejaVuSans-33" x="190.869141"/>
       <use xlink:href="#DejaVuSans-2d" x="254.492188"/>
       <use xlink:href="#DejaVuSans-30" x="290.576172"/>
       <use xlink:href="#DejaVuSans-37" x="354.199219"/>
      </g>
     </g>
    </g>
    <g id="xtick_6">
     <g id="line2d_6">
      <g>
       <use xlink:href="#ma97e77387a" x="347.543827" y="374.830125" style="stroke: #000000; stroke-width: 0.8"/>
      </g>
     </g>
     <g id="text_6">
      <!-- 2024-01 -->
      <g transform="translate(310.319006 409.301971) rotate(-30) scale(0.1 -0.1)">
       <defs>
        <path id="DejaVuSans-34" d="M 2419 4116 
L 825 1625 
L 2419 1625 
L 2419 4116 
z
M 2253 4666 
L 3047 4666 
L 3047 1625 
L 3713 1625 
L 3713 1100 
L 3047 1100 
L 3047 0 
L 2419 0 
L 2419 1100 
L 313 1100 
L 313 1709 
L 2253 4666 
z
" transform="scale(0.015625)"/>
       </defs>
       <use xlink:href="#DejaVuSans-32"/>
       <use xlink:href="#DejaVuSans-30" x="63.623047"/>
       <use xlink:href="#DejaVuSans-32" x="127.246094"/>
       <use xlink:href="#DejaVuSans-34" x="190.869141"/>
       <use xlink:href="#DejaVuSans-2d" x="254.492188"/>
       <use xlink:href="#DejaVuSans-30" x="290.576172"/>
       <use xlink:href="#DejaVuSans-31" x="354.199219"/>
      </g>
     </g>
    </g>
    <g id="xtick_7">
     <g id="line2d_7">
      <g>
       <use xlink:href="#ma97e77387a" x="404.615195" y="374.830125" style="stroke: #000000; stroke-width: 0.8"/>
      </g>
     </g>
     <g id="text_7">
      <!-- 2024-07 -->
      <g transform="translate(367.390374 409.301971) rotate(-30) scale(0.1 -0.1)">
       <use xlink:href="#DejaVuSans-32"/>
       <use xlink:href="#DejaVuSans-30" x="63.623047"/>
       <use xlink:href="#DejaVuSans-32" x="127.246094"/>
       <use xlink:href="#DejaVuSans-34" x="190.869141"/>
       <use xlink:href="#DejaVuSans-2d" x="254.492188"/>
       <use xlink:href="#DejaVuSans-30" x="290.576172"/>
       <use xlink:href="#DejaVuSans-37" x="354.199219"/>
      </g>
     </g>
    </g>
    <g id="xtick_8">
     <g id="line2d_8">
      <g>
       <use xlink:href="#ma97e77387a" x="462.31372" y="374.830125" style="stroke: #000000; stroke-width: 0.8"/>
      </g>
     </g>
     <g id="text_8">
      <!-- 2025-01 -->
      <g transform="translate(425.088899 409.301971) rotate(-30) scale(0.1 -0.1)">
       <defs>
        <path id="DejaVuSans-35" d="M 691 4666 
L 3169 4666 
L 3169 4134 
L 1269 4134 
L 1269 2991 
Q 1406 3038 1543 3061 
Q 1681 3084 1819 3084 
Q 2600 3084 3056 2656 
Q 3513 2228 3513 1497 
Q 3513 744 3044 326 
Q 2575 -91 1722 -91 
Q 1428 -91 1123 -41 
Q 819 9 494 109 
L 494 744 
Q 775 591 1075 516 
Q 1375 441 1709 441 
Q 2250 441 2565 725 
Q 2881 1009 2881 1497 
Q 2881 1984 2565 2268 
Q 2250 2553 1709 2553 
Q 1456 2553 1204 2497 
Q 953 2441 691 2322 
L 691 4666 
z
" transform="scale(0.015625)"/>
       </defs>
       <use xlink:href="#DejaVuSans-32"/>
       <use xlink:href="#DejaVuSans-30" x="63.623047"/>
       <use xlink:href="#DejaVuSans-32" x="127.246094"/>
       <use xlink:href="#DejaVuSans-35" x="190.869141"/>
       <use xlink:href="#DejaVuSans-2d" x="254.492188"/>
       <use xlink:href="#DejaVuSans-30" x="290.576172"/>
       <use xlink:href="#DejaVuSans-31" x="354.199219"/>
      </g>
     </g>
    </g>
    <g id="xtick_9">
     <g id="line2d_9">
      <g>
       <use xlink:href="#ma97e77387a" x="519.071509" y="374.830125" style="stroke: #000000; stroke-width: 0.8"/>
      </g>
     </g>
     <g id="text_9">
      <!-- 2025-07 -->
      <g transform="translate(481.846688 409.301971) rotate(-30) scale(0.1 -0.1)">
       <use xlink:href="#DejaVuSans-32"/>
       <use xlink:href="#DejaVuSans-30" x="63.623047"/>
       <use xlink:href="#DejaVuSans-32" x="127.246094"/>
       <use xlink:href="#DejaVuSans-35" x="190.869141"/>
       <use xlink:href="#DejaVuSans-2d" x="254.492188"/>
       <use xlink:href="#DejaVuSans-30" x="290.576172"/>
       <use xlink:href="#DejaVuSans-37" x="354.199219"/>
      </g>
     </g>
    </g>
   </g>
   <g id="matplotlib.axis_2">
    <g id="ytick_1">
     <g id="line2d_10">
      <defs>
       <path id="m2cf705da96" d="M 0 0 
L -3.5 0 
" style="stroke: #000000; stroke-width: 0.8"/>
      </defs>
      <g>
       <use xlink:href="#m2cf705da96" x="33.2875" y="374.830125" style="stroke: #000000; stroke-width: 0.8"/>
      </g>
     </g>
     <g id="text_10">
      <!-- 0 -->
      <g transform="translate(19.925 378.629344) scale(0.1 -0.1)">
       <use xlink:href="#DejaVuSans-30"/>
      </g>
     </g>
    </g>
    <g id="ytick_2">
     <g id="line2d_11">
      <g>
       <use xlink:href="#m2cf705da96" x="33.2875" y="320.718221" style="stroke: #000000; stroke-width: 0.8"/>
      </g>
     </g>
     <g id="text_11">
      <!-- 100 -->
      <g transform="translate(7.2 324.51744) scale(0.1 -0.1)">
       <use xlink:href="#DejaVuSans-31"/>
       <use xlink:href="#DejaVuSans-30" x="63.623047"/>
       <use xlink:href="#DejaVuSans-30" x="127.246094"/>
      </g>
     </g>
    </g>
    <g id="ytick_3">
     <g id="line2d_12">
      <g>
       <use xlink:href="#m2cf705da96" x="33.2875" y="266.606317" style="stroke: #000000; stroke-width: 0.8"/>
      </g>
     </g>
     <g id="text_12">
      <!-- 200 -->
      <g transform="translate(7.2 270.405535) scale(0.1 -0.1)">
       <use xlink:href="#DejaVuSans-32"/>
       <use xlink:href="#DejaVuSans-30" x="63.623047"/>
       <use xlink:href="#DejaVuSans-30" x="127.246094"/>
      </g>
     </g>
    </g>
    <g id="ytick_4">
     <g id="line2d_13">
      <g>
       <use xlink:href="#m2cf705da96" x="33.2875" y="212.494412" style="stroke: #000000; stroke-width: 0.8"/>
      </g>
     </g>
     <g id="text_13">
      <!-- 300 -->
      <g transform="translate(7.2 216.293631) scale(0.1 -0.1)">
       <use xlink:href="#DejaVuSans-33"/>
       <use xlink:href="#DejaVuSans-30" x="63.623047"/>
       <use xlink:href="#DejaVuSans-30" x="127.246094"/>
      </g>
     </g>
    </g>
    <g id="ytick_5">
     <g id="line2d_14">
      <g>
       <use xlink:href="#m2cf705da96" x="33.2875" y="158.382508" style="stroke: #000000; stroke-width: 0.8"/>
      </g>
     </g>
     <g id="text_14">
      <!-- 400 -->
      <g transform="translate(7.2 162.181727) scale(0.1 -0.1)">
       <use xlink:href="#DejaVuSans-34"/>
       <use xlink:href="#DejaVuSans-30" x="63.623047"/>
       <use xlink:href="#DejaVuSans-30" x="127.246094"/>
      </g>
     </g>
    </g>
    <g id="ytick_6">
     <g id="line2d_15">
      <g>
       <use xlink:href="#m2cf705da96" x="33.2875" y="104.270604" style="stroke: #000000; stroke-width: 0.8"/>
      </g>
     </g>
     <g id="text_15">
      <!-- 500 -->
      <g transform="translate(7.2 108.069823) scale(0.1 -0.1)">
       <use xlink:href="#DejaVuSans-35"/>
       <use xlink:href="#DejaVuSans-30" x="63.623047"/>
       <use xlink:href="#DejaVuSans-30" x="127.246094"/>
      </g>
     </g>
    </g>
    <g id="ytick_7">
     <g id="line2d_16">
      <g>
       <use xlink:href="#m2cf705da96" x="33.2875" y="50.1587" style="stroke: #000000; stroke-width: 0.8"/>
      </g>
     </g>
     <g id="text_16">
      <!-- 600 -->
      <g transform="translate(7.2 53.957918) scale(0.1 -0.1)">
       <defs>
        <path id="DejaVuSans-36" d="M 2113 2584 
Q 1688 2584 1439 2293 
Q 1191 2003 1191 1497 
Q 1191 994 1439 701 
Q 1688 409 2113 409 
Q 2538 409 2786 701 
Q 3034 994 3034 1497 
Q 3034 2003 2786 2293 
Q 2538 2584 2113 2584 
z
M 3366 4563 
L 3366 3988 
Q 3128 4100 2886 4159 
Q 2644 4219 2406 4219 
Q 1781 4219 1451 3797 
Q 1122 3375 1075 2522 
Q 1259 2794 1537 2939 
Q 1816 3084 2150 3084 
Q 2853 3084 3261 2657 
Q 3669 2231 3669 1497 
Q 3669 778 3244 343 
Q 2819 -91 2113 -91 
Q 1303 -91 875 529 
Q 447 1150 447 2328 
Q 447 3434 972 4092 
Q 1497 4750 2381 4750 
Q 2619 4750 2861 4703 
Q 3103 4656 3366 4563 
z
" transform="scale(0.015625)"/>
       </defs>
       <use xlink:href="#DejaVuSans-36"/>
       <use xlink:href="#DejaVuSans-30" x="63.623047"/>
       <use xlink:href="#DejaVuSans-30" x="127.246094"/>
      </g>
     </g>
    </g>
   </g>
   <g id="line2d_17">
    <path d="M 38.539265 37.171843 
L 47.863571 37.171843 
L 47.969124 40.418557 
L 49.274585 40.418557 
L 49.752459 49.617581 
L 126.784763 49.617581 
L 127.168291 44.20639 
L 139.986938 44.20639 
L 140.739941 44.747509 
L 146.751558 44.747509 
L 146.96179 55.56989 
L 153.058255 55.56989 
L 154.321684 53.946533 
L 258.765789 53.946533 
L 259.063257 50.1587 
L 267.249122 50.1587 
L 267.541288 49.076462 
L 308.627954 49.076462 
L 308.832565 47.994224 
L 375.227128 47.994224 
L 375.417333 43.665271 
L 425.752731 43.665271 
L 425.839303 43.124152 
L 464.286621 43.124152 
L 464.639949 42.583033 
L 468.13724 42.583033 
L 468.253283 40.418557 
L 469.656795 40.418557 
L 470.021469 40.959676 
L 494.282124 40.959676 
L 494.581632 40.418557 
L 545.663907 40.418557 
L 545.838288 31.760652 
L 560.449698 31.760652 
L 560.72842 25.808343 
L 563.715735 25.808343 
L 563.715735 25.808343 
" clip-path="url(#p2ebaafad85)" style="fill: none; stroke: #0000ff; stroke-width: 1.5; stroke-linecap: square"/>
   </g>
   <g id="line2d_18">
    <path d="M 38.539265 175.698317 
L 39.821236 174.616079 
L 41.099071 175.698317 
L 44.125107 175.698317 
L 47.461674 176.780556 
L 47.709199 176.239437 
L 47.863571 176.239437 
L 47.969124 179.486151 
L 48.21274 178.945032 
L 48.573054 179.486151 
L 49.274585 179.486151 
L 49.665303 191.39077 
L 49.752459 188.685175 
L 49.955262 191.931889 
L 50.019756 191.39077 
L 50.247014 191.39077 
L 50.610541 191.931889 
L 51.485462 191.931889 
L 51.511579 192.473008 
L 51.985842 192.473008 
L 52.18659 191.931889 
L 52.773513 195.719722 
L 52.841306 195.178603 
L 53.129505 195.719722 
L 53.686993 197.343079 
L 54.065124 196.260841 
L 54.662808 196.260841 
L 54.996824 197.343079 
L 55.222623 197.343079 
L 55.902886 197.884198 
L 56.208139 197.884198 
L 56.540072 198.966436 
L 56.836886 198.425317 
L 57.166485 199.507555 
L 57.508954 201.672032 
L 58.833165 202.75427 
L 59.395473 202.75427 
L 59.636341 203.295389 
L 60.020115 203.295389 
L 60.302652 203.836508 
L 60.590455 203.295389 
L 60.91134 203.295389 
L 61.099252 203.836508 
L 64.350093 203.836508 
L 64.678189 204.377627 
L 64.992592 204.377627 
L 65.11467 203.836508 
L 65.891166 204.377627 
L 66.21661 203.836508 
L 67.113888 203.836508 
L 67.401967 204.377627 
L 67.756144 203.836508 
L 69.389284 203.836508 
L 69.723892 204.377627 
L 69.907557 206.000984 
L 70.354578 204.918746 
L 71.394023 204.918746 
L 71.909737 205.459865 
L 72.221563 205.459865 
L 72.524413 206.000984 
L 72.862443 206.000984 
L 73.17281 205.459865 
L 73.469382 207.083222 
L 73.732679 207.083222 
L 74.448525 208.16546 
L 78.206928 208.16546 
L 78.505696 209.247698 
L 79.142446 209.247698 
L 79.425066 209.788817 
L 80.372968 209.788817 
L 81.280321 211.953293 
L 82.244747 211.953293 
L 82.590174 212.494412 
L 88.416935 212.494412 
L 89.116467 213.57665 
L 89.274933 212.494412 
L 90.397001 212.494412 
L 90.701703 213.035531 
L 91.037878 212.494412 
L 91.837726 212.494412 
L 92.279524 213.035531 
L 92.6075 212.494412 
L 97.560756 212.494412 
L 97.831439 217.364484 
L 98.019107 212.494412 
L 99.814172 212.494412 
L 100.140037 213.035531 
L 100.326036 217.905603 
L 100.765405 213.035531 
L 101.075722 213.035531 
L 101.281715 212.494412 
L 104.53183 212.494412 
L 104.696419 213.035531 
L 104.991785 213.035531 
L 105.478221 214.658889 
L 110.380992 214.658889 
L 111.451004 215.200008 
L 118.035969 215.200008 
L 118.310173 217.364484 
L 118.660554 217.364484 
L 118.971254 215.200008 
L 119.290916 215.200008 
L 119.51118 217.364484 
L 119.749903 215.200008 
L 120.146624 217.364484 
L 120.498039 218.446722 
L 124.572838 218.446722 
L 124.924543 218.987841 
L 126.784763 218.987841 
L 127.168291 213.035531 
L 127.442259 213.57665 
L 127.751929 215.200008 
L 128.134238 215.200008 
L 128.646849 216.282246 
L 129.00062 216.282246 
L 129.261387 216.823365 
L 129.611659 214.658889 
L 132.176292 220.070079 
L 132.43816 218.446722 
L 132.877243 217.905603 
L 134.271816 217.905603 
L 134.62955 217.364484 
L 134.945009 216.282246 
L 136.207898 216.282246 
L 136.438799 215.200008 
L 136.844935 216.282246 
L 137.762124 216.282246 
L 138.074269 217.364484 
L 138.37536 217.364484 
L 138.731951 217.905603 
L 138.875845 217.905603 
L 139.036663 219.52896 
L 139.254666 219.52896 
L 139.986938 220.070079 
L 140.591989 218.987841 
L 140.739941 218.987841 
L 141.214251 219.52896 
L 141.518571 220.611198 
L 143.091246 220.611198 
L 143.394891 221.152317 
L 143.720962 221.152317 
L 144.022848 221.693436 
L 144.305646 221.693436 
L 144.962771 222.234555 
L 145.302148 222.234555 
L 145.640574 223.857912 
L 145.840669 223.857912 
L 146.192404 223.316793 
L 146.751558 223.316793 
L 146.96179 224.94015 
L 147.480393 224.94015 
L 147.787649 226.022388 
L 148.197995 226.022388 
L 148.409363 226.563507 
L 148.874175 226.563507 
L 148.920428 227.104626 
L 149.155859 227.104626 
L 149.652653 227.645746 
L 150.782448 230.89246 
L 152.190697 230.89246 
L 152.477796 231.974698 
L 152.585901 231.433579 
L 152.711089 231.433579 
L 153.058255 230.89246 
L 154.321684 229.269103 
L 157.482628 229.269103 
L 157.848902 228.727984 
L 159.378787 228.727984 
L 159.596524 228.186865 
L 162.461511 228.186865 
L 162.961194 228.727984 
L 163.346025 228.727984 
L 163.763818 229.269103 
L 163.974039 228.727984 
L 165.988022 228.727984 
L 166.623622 229.810222 
L 167.976319 229.810222 
L 168.204063 237.385888 
L 168.460802 237.385888 
L 170.648759 239.009245 
L 170.78321 238.468126 
L 170.923475 239.009245 
L 171.287553 238.468126 
L 171.592948 238.468126 
L 171.914377 239.009245 
L 172.155753 239.009245 
L 172.543273 240.091484 
L 172.702647 240.091484 
L 172.850142 239.550364 
L 173.180731 240.632603 
L 175.378633 240.632603 
L 175.592455 241.173722 
L 176.774807 241.173722 
L 177.245564 240.632603 
L 177.598264 243.338198 
L 177.849356 241.714841 
L 178.176835 241.714841 
L 178.439323 244.961555 
L 178.622981 244.420436 
L 178.818492 244.961555 
L 178.916965 244.420436 
L 179.03749 246.043793 
L 179.349954 246.043793 
L 179.745855 246.584912 
L 180.521252 246.043793 
L 180.69781 247.126031 
L 180.986357 247.126031 
L 181.190695 245.502674 
L 181.884318 247.126031 
L 182.574018 247.66715 
L 183.179733 247.66715 
L 183.497486 249.290507 
L 183.789557 249.290507 
L 183.962563 248.749388 
L 184.266212 248.749388 
L 185.440623 250.913864 
L 185.636486 249.831626 
L 186.013503 249.290507 
L 186.4557 250.913864 
L 187.644302 250.913864 
L 187.746056 251.454983 
L 188.219665 251.996102 
L 189.482194 251.996102 
L 190.060094 254.701698 
L 193.307607 254.701698 
L 193.564045 255.242817 
L 193.901317 254.160579 
L 194.09767 255.242817 
L 197.638114 255.242817 
L 197.933924 255.783936 
L 198.647276 259.03065 
L 198.914903 257.407293 
L 199.233843 257.948412 
L 199.587 257.407293 
L 199.835519 257.407293 
L 200.212082 255.783936 
L 200.413999 255.783936 
L 200.453189 256.325055 
L 201.088582 256.325055 
L 201.446215 253.078341 
L 201.761518 253.078341 
L 202.71001 253.61946 
L 202.770026 253.078341 
L 203.285014 252.537221 
L 203.361503 253.078341 
L 205.842954 253.078341 
L 206.015619 253.61946 
L 206.47871 254.160579 
L 207.097096 255.242817 
L 207.257936 256.325055 
L 207.475282 256.325055 
L 207.718763 257.407293 
L 208.011915 256.866174 
L 208.340164 256.866174 
L 208.5875 256.325055 
L 208.936182 256.866174 
L 209.247322 256.866174 
L 209.54553 257.407293 
L 209.786932 257.407293 
L 210.241338 256.866174 
L 210.477571 257.407293 
L 210.722072 256.866174 
L 211.432089 252.537221 
L 212.115074 253.61946 
L 212.214929 257.407293 
L 212.367171 257.407293 
L 212.645737 257.948412 
L 212.969366 257.407293 
L 213.264838 257.407293 
L 213.628818 256.866174 
L 213.944081 257.948412 
L 215.081901 257.948412 
L 215.53409 258.489531 
L 215.792509 258.489531 
L 215.812562 259.03065 
L 217.101861 259.03065 
L 217.468919 260.112888 
L 219.272887 260.112888 
L 219.632501 261.195126 
L 220.857085 261.195126 
L 223.087942 260.654007 
L 223.294893 261.195126 
L 223.853045 261.195126 
L 224.322699 261.736245 
L 224.637305 262.818483 
L 224.731378 262.277364 
L 225.073332 263.359602 
L 225.834037 263.359602 
L 228.915019 264.44184 
L 236.530682 264.44184 
L 236.840893 263.900721 
L 238.329834 263.900721 
L 238.638463 264.44184 
L 239.661209 264.44184 
L 240.0142 264.982959 
L 240.268021 264.44184 
L 240.562596 264.982959 
L 240.888537 264.44184 
L 241.156052 265.524078 
L 241.565769 264.982959 
L 241.864722 265.524078 
L 248.363065 265.524078 
L 248.698743 264.44184 
L 249.054358 264.982959 
L 249.375976 264.44184 
L 249.736221 264.44184 
L 250.025128 263.900721 
L 251.230871 263.900721 
L 251.537032 264.44184 
L 251.882854 263.900721 
L 252.313045 262.818483 
L 252.822647 262.818483 
L 253.175119 262.277364 
L 253.438877 263.359602 
L 253.778174 263.359602 
L 254.04031 262.818483 
L 254.867665 263.900721 
L 255.351672 263.359602 
L 255.639232 263.900721 
L 256.251016 263.900721 
L 256.596305 263.359602 
L 256.935359 264.982959 
L 257.261695 264.44184 
L 257.888207 264.44184 
L 258.127028 263.900721 
L 258.432462 264.44184 
L 258.765789 264.44184 
L 259.063257 259.571769 
L 259.181437 260.112888 
L 259.415198 260.112888 
L 259.578042 260.654007 
L 259.719965 260.654007 
L 259.90682 261.195126 
L 260.03345 260.112888 
L 260.658608 261.195126 
L 261.195728 261.195126 
L 261.456935 262.277364 
L 261.715808 261.195126 
L 261.884349 261.736245 
L 262.834595 261.736245 
L 263.11748 261.195126 
L 263.385761 261.195126 
L 263.722884 261.736245 
L 264.034619 261.736245 
L 264.404156 261.195126 
L 264.760765 261.736245 
L 265.037458 261.736245 
L 265.472886 262.818483 
L 267.249122 262.818483 
L 267.541288 261.195126 
L 268.917921 261.195126 
L 269.234084 261.736245 
L 269.482784 262.277364 
L 269.969717 262.277364 
L 270.121633 263.359602 
L 270.19132 262.818483 
L 270.356084 263.359602 
L 270.819527 263.359602 
L 271.046716 264.44184 
L 271.665301 264.44184 
L 271.954048 265.524078 
L 272.908972 265.524078 
L 273.137979 267.147436 
L 273.349296 267.688555 
L 273.471247 267.688555 
L 273.88262 268.229674 
L 274.027407 267.688555 
L 274.097574 268.229674 
L 274.549883 268.229674 
L 275.08108 268.770793 
L 276.27281 268.770793 
L 276.580165 268.229674 
L 276.874664 268.770793 
L 277.20664 268.770793 
L 277.365742 269.311912 
L 277.40401 268.770793 
L 277.592847 269.311912 
L 277.740541 269.311912 
L 277.886395 270.39415 
L 278.448025 271.476388 
L 278.856991 270.935269 
L 279.167924 271.476388 
L 279.779189 271.476388 
L 280.110951 272.558626 
L 280.232405 272.017507 
L 280.429713 273.640864 
L 280.709303 273.099745 
L 280.89063 273.640864 
L 281.034006 273.099745 
L 281.192443 274.181983 
L 281.515375 274.181983 
L 281.61102 274.723102 
L 281.989891 274.181983 
L 282.282917 275.264221 
L 282.944024 275.264221 
L 283.18201 276.346459 
L 283.519572 275.264221 
L 283.748902 275.264221 
L 283.832981 275.80534 
L 284.449976 275.80534 
L 284.738585 277.969816 
L 285.153649 275.80534 
L 285.218002 276.346459 
L 285.764518 275.80534 
L 285.81627 276.887578 
L 286.004239 276.887578 
L 286.383009 277.428697 
L 286.6904 276.887578 
L 286.922626 276.887578 
L 287.266275 277.969816 
L 287.640138 277.969816 
L 288.002691 277.428697 
L 288.273654 277.969816 
L 288.438294 277.428697 
L 288.602045 278.510935 
L 290.053026 278.510935 
L 290.498983 279.052055 
L 291.40952 279.052055 
L 291.732593 277.969816 
L 292.341495 277.969816 
L 292.646248 278.510935 
L 295.418648 278.510935 
L 295.792802 277.969816 
L 296.143524 279.052055 
L 300.398257 279.052055 
L 301.331629 279.593174 
L 301.886 279.593174 
L 302.336225 280.134293 
L 302.692025 280.134293 
L 302.901103 280.675412 
L 307.637045 280.675412 
L 308.021705 280.134293 
L 308.326672 280.675412 
L 308.627954 280.134293 
L 308.832565 276.887578 
L 310.703535 276.887578 
L 310.870469 277.428697 
L 311.194054 277.428697 
L 311.301062 276.887578 
L 313.237779 276.887578 
L 313.506455 277.428697 
L 313.607995 276.887578 
L 314.068204 276.887578 
L 314.280933 277.969816 
L 314.549087 276.887578 
L 314.749291 277.969816 
L 314.891389 277.969816 
L 315.074662 276.887578 
L 315.23495 277.969816 
L 315.337669 276.887578 
L 315.37904 277.969816 
L 316.481434 277.969816 
L 316.656425 278.510935 
L 316.682088 279.052055 
L 317.243452 279.052055 
L 317.276538 279.593174 
L 317.599985 279.593174 
L 317.767467 280.134293 
L 317.910261 279.593174 
L 318.085688 280.134293 
L 318.204321 279.593174 
L 318.482561 280.134293 
L 318.600233 279.593174 
L 318.616369 280.134293 
L 318.969058 280.134293 
L 319.190041 280.675412 
L 319.329417 280.675412 
L 319.538135 281.75765 
L 319.769726 282.298769 
L 319.929673 281.75765 
L 321.71119 281.75765 
L 321.965915 282.298769 
L 323.33125 282.298769 
L 323.549046 282.839888 
L 323.836932 282.839888 
L 324.050558 283.381007 
L 324.281797 282.839888 
L 324.733195 282.839888 
L 324.923828 283.922126 
L 325.442703 283.922126 
L 325.492531 284.463245 
L 325.676944 283.922126 
L 325.877899 285.004364 
L 326.087177 285.545483 
L 326.145668 285.004364 
L 326.382896 287.16884 
L 327.343667 287.16884 
L 327.440256 287.709959 
L 327.650735 287.709959 
L 327.774032 288.792197 
L 327.918736 287.709959 
L 329.194196 287.709959 
L 329.268 288.251078 
L 329.512646 287.709959 
L 329.629781 288.251078 
L 329.84635 287.709959 
L 330.127663 287.709959 
L 330.300175 288.792197 
L 330.614644 288.792197 
L 330.743636 288.251078 
L 330.854154 289.333316 
L 331.180548 287.709959 
L 331.522585 288.792197 
L 331.77036 287.709959 
L 332.350379 287.709959 
L 332.801781 289.333316 
L 332.942241 288.792197 
L 333.097793 289.333316 
L 333.517521 288.251078 
L 333.651921 289.333316 
L 334.648024 289.333316 
L 334.808584 289.874435 
L 335.088384 289.874435 
L 335.237541 289.333316 
L 335.42579 289.874435 
L 335.544823 289.333316 
L 335.907432 290.415554 
L 336.402494 290.415554 
L 336.751645 291.497793 
L 338.26389 291.497793 
L 338.42923 292.038912 
L 338.631474 291.497793 
L 338.73154 292.038912 
L 338.937736 291.497793 
L 339.211588 291.497793 
L 339.388223 292.038912 
L 339.504363 291.497793 
L 339.874114 291.497793 
L 339.98848 292.038912 
L 340.50688 292.038912 
L 340.541823 293.12115 
L 342.75899 293.12115 
L 342.977718 293.662269 
L 343.121286 293.12115 
L 343.242918 293.662269 
L 343.335307 293.12115 
L 343.446131 294.203388 
L 343.956742 294.203388 
L 344.197606 294.744507 
L 344.246421 294.203388 
L 344.296434 294.744507 
L 344.571483 294.203388 
L 344.642569 294.744507 
L 344.91155 295.285626 
L 345.016903 295.826745 
L 345.218029 295.826745 
L 345.264275 296.367864 
L 345.544308 297.991221 
L 345.670349 297.450102 
L 345.840462 297.450102 
L 345.871108 298.53234 
L 347.066301 298.53234 
L 347.214751 299.073459 
L 347.448897 298.53234 
L 347.854481 299.073459 
L 347.96288 298.53234 
L 348.140335 299.073459 
L 348.358425 299.073459 
L 348.488208 299.614578 
L 348.790499 299.614578 
L 348.797911 300.155697 
L 348.891095 299.614578 
L 348.980421 300.696816 
L 349.112448 300.696816 
L 349.295205 301.237935 
L 350.548897 301.237935 
L 350.581982 300.696816 
L 350.660907 301.779054 
L 350.99153 301.779054 
L 351.160379 301.237935 
L 351.290355 301.779054 
L 351.486041 301.237935 
L 351.632657 301.779054 
L 351.797384 301.779054 
L 351.93893 301.237935 
L 352.079278 302.861292 
L 353.759397 302.861292 
L 354.264644 303.94353 
L 354.530598 303.402411 
L 360.877345 303.402411 
L 360.985102 303.94353 
L 361.177833 303.402411 
L 361.233381 303.94353 
L 361.809277 303.94353 
L 361.968745 304.48465 
L 362.777017 304.48465 
L 362.885013 305.025769 
L 363.03724 304.48465 
L 364.27539 304.48465 
L 364.447129 305.025769 
L 364.782822 304.48465 
L 364.973129 305.566888 
L 365.077819 305.025769 
L 365.541839 305.025769 
L 365.744021 305.566888 
L 366.695701 305.566888 
L 366.850726 304.48465 
L 367.16485 305.566888 
L 368.854997 305.566888 
L 369.143733 306.108007 
L 369.183097 306.108007 
L 369.349824 306.649126 
L 369.474442 306.649126 
L 369.628702 307.190245 
L 369.989626 307.190245 
L 370.053565 307.731364 
L 370.354449 307.731364 
L 370.544505 306.649126 
L 370.692911 307.190245 
L 370.920077 307.190245 
L 371.012707 307.731364 
L 371.360235 307.731364 
L 371.671066 308.272483 
L 372.010011 309.89584 
L 372.120983 309.354721 
L 372.224312 309.89584 
L 372.461481 310.436959 
L 372.573945 309.89584 
L 372.875819 310.436959 
L 373.075464 309.89584 
L 373.238518 309.89584 
L 373.557959 311.519197 
L 373.865825 310.978078 
L 374.184659 312.060316 
L 374.247266 311.519197 
L 374.45449 312.060316 
L 374.597981 311.519197 
L 374.716277 312.060316 
L 375.227128 312.060316 
L 375.417333 304.48465 
L 375.925324 305.566888 
L 376.260733 305.566888 
L 376.378053 306.108007 
L 376.560789 305.566888 
L 376.678084 305.566888 
L 376.816875 305.025769 
L 376.976459 305.566888 
L 377.195667 305.566888 
L 377.303525 305.025769 
L 377.44056 305.566888 
L 377.627455 305.025769 
L 377.700914 305.566888 
L 378.089385 306.108007 
L 378.374843 305.025769 
L 378.633452 305.566888 
L 379.782377 305.566888 
L 380.054991 306.108007 
L 380.341226 305.566888 
L 380.856091 305.566888 
L 381.250812 306.649126 
L 381.386203 305.025769 
L 381.614081 305.566888 
L 381.904577 305.025769 
L 382.037464 306.649126 
L 382.197904 305.566888 
L 382.349533 305.566888 
L 382.450513 306.108007 
L 382.525874 308.272483 
L 382.5394 307.731364 
L 382.873703 308.272483 
L 383.698822 308.272483 
L 384.089137 309.354721 
L 384.250148 308.813602 
L 384.828178 308.813602 
L 384.985672 308.272483 
L 385.153999 308.813602 
L 385.338633 308.813602 
L 385.447101 308.272483 
L 385.777088 308.813602 
L 385.970945 308.813602 
L 386.098035 309.354721 
L 386.253471 308.813602 
L 386.420459 308.813602 
L 386.576951 308.272483 
L 386.673888 308.813602 
L 387.545616 308.813602 
L 387.763705 310.436959 
L 388.027388 309.89584 
L 388.24547 309.89584 
L 388.422025 309.354721 
L 388.5023 309.89584 
L 388.775781 309.354721 
L 388.878021 309.89584 
L 389.118947 309.89584 
L 389.213202 310.436959 
L 389.501121 309.89584 
L 390.094421 309.89584 
L 390.314383 310.436959 
L 390.680803 310.436959 
L 390.773192 310.978078 
L 390.929343 310.436959 
L 391.564072 312.060316 
L 391.712564 312.060316 
L 391.991965 312.601435 
L 394.26473 312.601435 
L 394.506858 313.142554 
L 394.733894 313.142554 
L 394.780118 312.060316 
L 394.837364 312.601435 
L 395.207772 312.601435 
L 395.292318 313.142554 
L 395.779701 313.142554 
L 396.012465 313.683673 
L 396.325086 313.683673 
L 396.335484 313.142554 
L 396.439408 313.683673 
L 396.53498 313.142554 
L 397.896265 313.142554 
L 398.151512 312.601435 
L 398.863536 313.142554 
L 400.340094 313.142554 
L 400.403985 313.683673 
L 401.953403 313.683673 
L 402.092971 314.224792 
L 403.525867 316.930387 
L 403.661671 316.930387 
L 403.803355 317.471507 
L 403.866452 316.930387 
L 404.171586 317.471507 
L 404.455073 318.012626 
L 404.794109 318.012626 
L 404.907963 318.553745 
L 405.336423 318.553745 
L 405.956997 318.012626 
L 405.98826 319.635983 
L 406.487707 319.635983 
L 406.642504 319.094864 
L 406.754939 319.635983 
L 407.90238 319.635983 
L 408.168748 319.094864 
L 409.399295 319.094864 
L 410.159136 319.635983 
L 411.694061 319.635983 
L 412.449885 320.177102 
L 412.55097 320.718221 
L 414.824087 320.718221 
L 415.037637 320.177102 
L 416.191604 320.177102 
L 417.034202 319.635983 
L 417.648214 319.635983 
L 417.952923 320.177102 
L 418.223446 321.25934 
L 418.384511 321.25934 
L 418.390797 320.718221 
L 420.197455 320.718221 
L 420.391355 321.25934 
L 424.955467 321.25934 
L 425.53095 321.800459 
L 425.752731 321.800459 
L 425.839303 322.341578 
L 426.121368 322.341578 
L 426.239823 321.800459 
L 426.423449 322.341578 
L 427.454452 322.341578 
L 427.914019 322.882697 
L 428.233253 323.964935 
L 431.029139 323.964935 
L 431.52124 323.423816 
L 431.663621 323.964935 
L 431.807653 323.423816 
L 431.969568 323.964935 
L 432.736388 323.964935 
L 433.08993 323.423816 
L 433.269334 323.964935 
L 433.76402 322.882697 
L 433.95682 323.964935 
L 435.153933 323.964935 
L 435.168095 324.506054 
L 437.065258 324.506054 
L 437.987681 325.047173 
L 438.264498 324.506054 
L 438.778807 324.506054 
L 438.903484 325.047173 
L 439.342934 323.423816 
L 439.633074 323.964935 
L 440.159705 323.423816 
L 440.312049 323.423816 
L 440.443262 323.964935 
L 441.239814 323.964935 
L 442.186253 323.423816 
L 442.32871 323.964935 
L 443.270466 323.964935 
L 443.576228 323.423816 
L 448.369449 323.964935 
L 448.728348 323.423816 
L 449.038522 323.964935 
L 449.316461 323.423816 
L 449.347557 323.964935 
L 449.589528 324.506054 
L 449.729663 324.506054 
L 449.857849 325.047173 
L 452.086383 325.047173 
L 452.13387 325.588292 
L 452.410879 325.588292 
L 453.150533 325.047173 
L 453.174062 325.588292 
L 453.458243 325.047173 
L 453.527314 326.129411 
L 453.710228 326.129411 
L 454.081318 326.67053 
L 454.703195 326.67053 
L 455.080804 326.129411 
L 455.505373 327.211649 
L 455.522787 327.752768 
L 455.935227 328.293887 
L 456.238571 327.752768 
L 456.665111 327.752768 
L 456.75378 328.293887 
L 457.724949 328.293887 
L 457.858739 327.752768 
L 458.02253 328.835006 
L 458.157529 328.835006 
L 458.413745 328.293887 
L 458.646763 328.835006 
L 459.166396 328.835006 
L 459.395247 329.917245 
L 461.027404 329.917245 
L 461.222534 330.458364 
L 461.342017 330.458364 
L 461.538625 329.917245 
L 461.589331 330.458364 
L 462.110126 330.458364 
L 462.214874 330.999483 
L 462.49937 330.999483 
L 462.580629 332.081721 
L 463.024503 332.081721 
L 463.191276 333.705078 
L 463.538532 333.705078 
L 463.741626 333.163959 
L 463.851346 333.705078 
L 463.999043 333.705078 
L 464.010324 335.328435 
L 464.286621 335.328435 
L 464.639949 334.787316 
L 464.800241 334.787316 
L 464.937171 335.328435 
L 465.277694 335.328435 
L 465.630558 334.787316 
L 465.666852 335.869554 
L 465.979284 335.869554 
L 466.036875 336.410673 
L 466.254569 336.951792 
L 466.829649 336.951792 
L 466.914173 338.03403 
L 467.160968 338.03403 
L 467.305657 338.575149 
L 467.444496 338.575149 
L 467.942382 339.116268 
L 468.13724 338.575149 
L 468.253283 330.999483 
L 468.379135 330.458364 
L 468.464371 332.62284 
L 469.078333 332.62284 
L 469.330684 332.081721 
L 469.514549 333.163959 
L 469.656795 333.163959 
L 470.021469 333.705078 
L 470.422563 333.705078 
L 470.605578 333.163959 
L 470.748874 333.705078 
L 471.715982 333.705078 
L 471.835062 334.246197 
L 472.275974 333.163959 
L 472.634503 333.705078 
L 472.839955 333.705078 
L 472.918865 334.246197 
L 473.100251 333.163959 
L 473.27657 334.246197 
L 474.008153 334.246197 
L 474.121546 333.705078 
L 474.382143 333.705078 
L 474.423137 334.246197 
L 474.718206 334.787316 
L 474.729722 334.246197 
L 475.284633 334.246197 
L 475.570244 334.787316 
L 477.052362 334.787316 
L 477.163494 335.328435 
L 477.45742 334.787316 
L 477.467234 335.328435 
L 477.889288 335.869554 
L 478.148615 335.869554 
L 478.447037 336.410673 
L 478.709964 336.951792 
L 479.06845 335.869554 
L 479.139266 336.951792 
L 479.380326 336.410673 
L 479.583227 336.951792 
L 480.488763 336.951792 
L 480.590222 337.492911 
L 480.716674 336.951792 
L 481.154875 337.492911 
L 481.366537 336.951792 
L 481.581048 337.492911 
L 481.709931 336.951792 
L 482.010089 338.03403 
L 482.217476 337.492911 
L 482.926814 337.492911 
L 483.209016 338.03403 
L 483.621075 338.03403 
L 483.948918 336.951792 
L 484.036299 337.492911 
L 484.386593 337.492911 
L 484.475491 338.575149 
L 484.917289 337.492911 
L 485.071574 338.03403 
L 485.42754 337.492911 
L 485.687379 337.492911 
L 485.820498 338.03403 
L 486.00626 338.03403 
L 486.138686 334.787316 
L 486.555383 335.328435 
L 486.609366 334.246197 
L 486.758977 335.328435 
L 486.896139 334.787316 
L 486.978464 335.328435 
L 487.305054 334.787316 
L 487.696915 335.328435 
L 487.894303 335.328435 
L 488.165259 334.787316 
L 488.550402 334.787316 
L 488.94529 335.869554 
L 489.15214 335.328435 
L 489.570412 335.328435 
L 489.76601 334.787316 
L 489.794806 334.246197 
L 490.038476 335.328435 
L 490.1677 334.787316 
L 490.319698 335.328435 
L 490.545555 334.787316 
L 490.801184 334.787316 
L 490.965403 334.246197 
L 491.27684 334.246197 
L 491.601086 335.328435 
L 491.821103 334.787316 
L 492.089039 335.869554 
L 492.228574 335.869554 
L 492.316158 335.328435 
L 492.58866 335.328435 
L 492.611532 335.869554 
L 493.514886 335.869554 
L 493.662878 336.410673 
L 493.789638 336.410673 
L 493.985044 336.951792 
L 494.153586 336.410673 
L 494.282124 336.951792 
L 494.473756 336.410673 
L 494.581632 336.951792 
L 494.720866 336.410673 
L 494.765725 336.951792 
L 494.919862 338.03403 
L 495.108176 337.492911 
L 495.16744 336.951792 
L 495.36604 337.492911 
L 495.528339 336.951792 
L 495.83965 337.492911 
L 496.044532 337.492911 
L 496.133793 338.03403 
L 496.355255 337.492911 
L 496.936871 339.116268 
L 497.093327 339.116268 
L 497.255157 338.03403 
L 497.331665 338.575149 
L 497.560465 338.575149 
L 497.664563 338.03403 
L 497.851651 338.03403 
L 498.021981 338.575149 
L 498.240957 338.575149 
L 498.608592 340.198506 
L 498.804183 339.657387 
L 501.375265 339.657387 
L 501.494912 340.198506 
L 501.646638 340.198506 
L 501.768654 339.657387 
L 502.013464 340.198506 
L 502.623375 338.03403 
L 502.725404 339.116268 
L 503.370756 338.03403 
L 503.822571 338.03403 
L 504.440815 339.116268 
L 505.53375 338.575149 
L 505.811308 339.116268 
L 506.117083 338.575149 
L 506.335467 339.657387 
L 506.423055 338.575149 
L 506.710934 339.657387 
L 507.02459 338.575149 
L 507.128419 339.657387 
L 507.329552 339.657387 
L 507.440118 339.116268 
L 507.640525 339.657387 
L 507.760796 339.657387 
L 507.872824 339.116268 
L 508.008941 340.739625 
L 508.36592 339.657387 
L 508.699805 339.657387 
L 508.90382 340.198506 
L 509.288844 340.198506 
L 509.601962 339.657387 
L 509.785013 339.657387 
L 509.923395 340.739625 
L 510.096008 340.198506 
L 510.192379 340.739625 
L 510.425074 341.280744 
L 510.567752 341.280744 
L 510.817203 340.198506 
L 511.055738 341.821863 
L 511.35555 341.821863 
L 511.378306 342.904102 
L 511.399244 342.362982 
L 511.556045 341.821863 
L 511.720873 342.904102 
L 511.789625 341.821863 
L 512.038093 341.821863 
L 512.071947 342.362982 
L 512.351886 342.904102 
L 512.519425 342.904102 
L 512.597954 341.821863 
L 512.973632 342.904102 
L 513.034471 341.821863 
L 513.239093 342.904102 
L 513.396499 341.280744 
L 513.874997 342.362982 
L 514.235464 340.739625 
L 514.263338 341.280744 
L 514.491663 340.739625 
L 514.636011 340.739625 
L 514.785864 341.821863 
L 514.964822 340.739625 
L 515.308881 341.821863 
L 515.439415 340.739625 
L 515.580751 341.280744 
L 515.868764 341.280744 
L 516.058966 340.739625 
L 516.423062 340.739625 
L 516.434175 341.280744 
L 517.007219 340.198506 
L 517.311133 341.821863 
L 517.47243 341.821863 
L 517.660421 341.280744 
L 517.713559 342.362982 
L 517.980432 341.280744 
L 518.144759 342.362982 
L 518.310419 341.280744 
L 518.37888 341.821863 
L 518.718631 341.821863 
L 518.922236 342.362982 
L 519.015358 343.445221 
L 519.204936 342.362982 
L 519.516834 342.904102 
L 519.654805 343.445221 
L 519.825281 342.904102 
L 519.970834 345.068578 
L 520.1993 345.068578 
L 520.501436 345.609697 
L 520.537886 344.527459 
L 520.835249 345.609697 
L 521.258529 344.527459 
L 521.372902 346.150816 
L 521.716119 346.691935 
L 522.089938 345.609697 
L 522.326864 345.068578 
L 522.98546 345.609697 
L 523.064345 346.150816 
L 523.310737 346.150816 
L 523.764943 346.691935 
L 523.989972 346.691935 
L 524.270375 347.233054 
L 524.554008 348.856411 
L 525.282212 348.315292 
L 525.516783 348.315292 
L 525.842052 346.691935 
L 526.15125 346.691935 
L 526.230951 346.150816 
L 526.465867 347.233054 
L 526.518203 346.150816 
L 526.775312 346.691935 
L 527.24171 346.691935 
L 527.48105 347.774173 
L 527.700729 346.691935 
L 528.000767 347.774173 
L 528.117738 347.233054 
L 528.277983 347.774173 
L 528.696353 346.691935 
L 528.938161 347.233054 
L 529.645434 347.233054 
L 529.814251 346.691935 
L 530.223889 347.774173 
L 530.390395 346.691935 
L 530.534013 346.691935 
L 530.589858 347.233054 
L 530.793463 347.233054 
L 531.013056 347.774173 
L 531.163316 346.691935 
L 531.396616 347.774173 
L 531.499074 346.691935 
L 531.785157 347.774173 
L 531.961069 347.774173 
L 532.074589 347.233054 
L 532.260617 347.233054 
L 532.313185 346.691935 
L 532.323979 347.233054 
L 532.641557 347.233054 
L 532.749009 346.691935 
L 533.040329 347.774173 
L 533.308599 346.691935 
L 533.768347 347.233054 
L 534.750826 347.233054 
L 534.986438 346.691935 
L 535.236928 347.233054 
L 535.398167 346.691935 
L 535.497768 347.233054 
L 536.195536 347.233054 
L 536.40857 346.691935 
L 536.897709 347.774173 
L 537.016641 347.233054 
L 537.407885 347.774173 
L 537.835176 347.233054 
L 538.062118 347.774173 
L 538.596044 346.691935 
L 538.736138 346.150816 
L 538.968252 346.150816 
L 539.415309 347.774173 
L 539.536912 347.774173 
L 539.691287 346.691935 
L 540.05387 346.691935 
L 540.257239 347.233054 
L 540.411463 347.233054 
L 540.57092 346.691935 
L 540.871988 346.691935 
L 541.283082 347.233054 
L 541.511283 347.233054 
L 541.604703 347.774173 
L 541.824038 346.691935 
L 541.939598 347.774173 
L 542.083271 347.233054 
L 542.174009 347.774173 
L 542.750069 347.774173 
L 542.770919 348.856411 
L 542.863944 348.315292 
L 543.037984 348.315292 
L 543.141984 347.774173 
L 543.305572 348.315292 
L 543.485945 347.774173 
L 543.945915 348.315292 
L 544.336597 348.315292 
L 544.484984 349.39753 
L 544.543504 348.856411 
L 544.718346 349.39753 
L 544.952826 348.856411 
L 545.062597 348.315292 
L 545.226224 348.856411 
L 545.387587 348.315292 
L 545.581676 349.39753 
L 545.663907 348.315292 
L 545.838288 334.787316 
L 546.314409 334.787316 
L 546.44564 334.246197 
L 546.570371 336.410673 
L 547.265359 335.869554 
L 547.781737 335.869554 
L 547.882158 336.410673 
L 548.011299 336.410673 
L 548.416019 335.328435 
L 548.722158 335.328435 
L 548.735209 335.869554 
L 549.118465 336.410673 
L 549.389903 335.869554 
L 549.662579 334.787316 
L 549.697435 335.869554 
L 549.905755 334.787316 
L 549.986781 335.328435 
L 550.609108 335.328435 
L 550.642742 335.869554 
L 550.897572 335.869554 
L 551.071162 335.328435 
L 551.238447 335.328435 
L 551.291941 334.787316 
L 551.651635 335.869554 
L 551.971852 334.787316 
L 552.138535 334.787316 
L 552.650772 335.328435 
L 552.750333 334.787316 
L 552.832289 335.869554 
L 553.164091 336.951792 
L 553.387309 335.869554 
L 553.718102 336.951792 
L 554.04638 335.869554 
L 554.165863 336.951792 
L 554.461574 335.869554 
L 554.584806 335.869554 
L 554.634398 336.951792 
L 554.78165 336.410673 
L 554.953414 336.951792 
L 555.231505 336.951792 
L 555.265048 338.03403 
L 555.479388 337.492911 
L 555.601731 337.492911 
L 555.691381 336.951792 
L 555.943344 337.492911 
L 556.204449 338.575149 
L 556.218026 340.198506 
L 556.368381 339.116268 
L 556.372889 340.739625 
L 556.552678 340.739625 
L 556.678182 341.280744 
L 556.923539 340.739625 
L 557.302923 341.280744 
L 557.509504 340.739625 
L 557.749954 340.739625 
L 557.850448 341.280744 
L 558.13055 341.821863 
L 558.282508 340.739625 
L 558.40246 340.739625 
L 558.699674 342.362982 
L 558.885426 342.904102 
L 559.467666 342.362982 
L 559.689077 342.362982 
L 559.831537 341.821863 
L 560.142532 344.527459 
L 560.306831 344.527459 
L 560.449698 345.068578 
L 560.72842 341.821863 
L 560.945389 341.280744 
L 561.21168 342.362982 
L 561.307086 341.280744 
L 561.554483 342.904102 
L 561.590505 343.445221 
L 561.846961 343.98634 
L 562.033511 343.445221 
L 562.216487 343.98634 
L 562.529721 342.904102 
L 562.561569 343.445221 
L 562.793977 343.445221 
L 562.90778 342.904102 
L 563.113823 342.904102 
L 563.715735 343.98634 
L 563.715735 343.98634 
" clip-path="url(#p2ebaafad85)" style="fill: none; stroke-dasharray: 3,1.5; stroke-dashoffset: 0; stroke: #808080; stroke-width: 1.5"/>
   </g>
   <g id="line2d_19">
    <path d="M 38.539265 299.614578 
L 39.821236 299.073459 
L 41.099071 297.991221 
L 44.125107 297.991221 
L 47.461674 297.450102 
L 47.709199 297.991221 
L 47.863571 297.991221 
L 47.969124 296.908983 
L 48.21274 297.450102 
L 48.573054 296.908983 
L 49.274585 296.908983 
L 49.665303 294.203388 
L 49.752459 296.908983 
L 49.955262 293.662269 
L 50.019756 294.203388 
L 50.247014 294.203388 
L 50.610541 293.662269 
L 51.206478 293.662269 
L 51.511579 291.497793 
L 51.985842 291.497793 
L 52.467258 292.580031 
L 52.773513 288.251078 
L 52.841306 288.792197 
L 53.129505 288.251078 
L 53.686993 286.627721 
L 54.065124 287.709959 
L 54.662808 287.709959 
L 54.996824 288.792197 
L 55.222623 288.251078 
L 55.902886 287.709959 
L 56.208139 287.709959 
L 56.540072 286.627721 
L 57.016359 286.627721 
L 57.508954 283.381007 
L 58.833165 281.75765 
L 59.013498 281.216531 
L 59.395473 281.216531 
L 59.636341 280.675412 
L 60.020115 280.675412 
L 60.302652 281.75765 
L 60.590455 282.298769 
L 60.91134 282.298769 
L 61.099252 281.75765 
L 63.390915 281.75765 
L 63.757214 281.216531 
L 64.350093 281.216531 
L 64.678189 280.675412 
L 64.992592 280.675412 
L 65.11467 281.216531 
L 65.891166 280.675412 
L 66.21661 281.216531 
L 67.113888 281.216531 
L 67.401967 280.675412 
L 67.756144 281.216531 
L 69.389284 281.216531 
L 69.723892 280.675412 
L 69.907557 279.052055 
L 70.354578 280.134293 
L 70.984135 280.134293 
L 71.278275 279.052055 
L 71.394023 280.134293 
L 71.909737 278.510935 
L 72.221563 278.510935 
L 72.524413 277.969816 
L 72.862443 277.969816 
L 73.17281 278.510935 
L 73.469382 277.428697 
L 73.732679 277.428697 
L 74.448525 276.346459 
L 78.206928 276.346459 
L 78.505696 275.264221 
L 79.142446 275.264221 
L 79.425066 272.558626 
L 80.372968 272.558626 
L 81.280321 270.39415 
L 82.244747 270.39415 
L 82.590174 269.853031 
L 88.416935 269.853031 
L 89.116467 268.229674 
L 89.274933 269.853031 
L 90.397001 269.853031 
L 90.701703 268.770793 
L 91.037878 269.853031 
L 91.837726 269.853031 
L 92.279524 268.770793 
L 92.6075 269.853031 
L 97.560756 269.853031 
L 97.831439 264.982959 
L 98.019107 269.853031 
L 99.814172 269.853031 
L 100.140037 269.311912 
L 100.326036 264.44184 
L 100.765405 269.311912 
L 101.075722 269.311912 
L 101.281715 269.853031 
L 104.53183 269.853031 
L 104.696419 269.311912 
L 104.991785 269.311912 
L 105.478221 267.688555 
L 110.380992 267.688555 
L 111.451004 267.147436 
L 118.035969 267.147436 
L 118.310173 264.44184 
L 118.660554 264.44184 
L 118.971254 267.147436 
L 119.290916 267.147436 
L 119.51118 264.44184 
L 119.749903 267.147436 
L 120.146624 264.44184 
L 120.498039 263.359602 
L 124.572838 263.359602 
L 124.924543 262.818483 
L 126.467562 262.818483 
L 126.784763 261.736245 
L 127.168291 259.571769 
L 127.442259 259.03065 
L 127.751929 255.783936 
L 128.134238 255.783936 
L 128.646849 254.701698 
L 129.00062 254.701698 
L 129.611659 253.61946 
L 132.176292 248.749388 
L 132.43816 249.831626 
L 134.271816 249.831626 
L 134.62955 247.66715 
L 134.945009 248.208269 
L 136.207898 248.208269 
L 136.438799 249.290507 
L 136.844935 248.208269 
L 137.762124 248.208269 
L 138.074269 247.126031 
L 138.37536 247.126031 
L 138.731951 246.584912 
L 138.875845 246.584912 
L 139.036663 244.961555 
L 139.254666 244.961555 
L 139.986938 244.420436 
L 140.591989 246.043793 
L 140.739941 246.043793 
L 141.214251 245.502674 
L 141.518571 244.420436 
L 143.091246 244.420436 
L 143.394891 243.879317 
L 143.720962 243.879317 
L 144.022848 243.338198 
L 144.305646 243.338198 
L 144.962771 242.797079 
L 145.302148 242.797079 
L 145.640574 241.173722 
L 146.192404 241.173722 
L 146.537268 240.632603 
L 146.751558 240.632603 
L 146.871193 250.372745 
L 146.96179 249.831626 
L 147.480393 249.831626 
L 147.787649 248.749388 
L 148.197995 248.749388 
L 148.409363 248.208269 
L 148.874175 248.208269 
L 148.920428 247.66715 
L 149.652653 247.66715 
L 150.045784 246.043793 
L 150.86277 244.420436 
L 152.190697 244.420436 
L 152.477796 243.338198 
L 152.585901 243.879317 
L 152.711089 243.879317 
L 153.058255 244.420436 
L 154.321684 243.879317 
L 157.482628 243.879317 
L 157.848902 244.420436 
L 159.378787 244.420436 
L 159.596524 244.961555 
L 159.995368 244.420436 
L 162.461511 244.420436 
L 162.961194 243.879317 
L 163.346025 243.879317 
L 163.763818 243.338198 
L 163.974039 243.879317 
L 165.988022 243.879317 
L 166.623622 242.797079 
L 167.976319 242.797079 
L 168.204063 235.221412 
L 168.460802 235.221412 
L 170.648759 233.598055 
L 170.78321 234.139174 
L 170.923475 233.598055 
L 171.287553 234.139174 
L 171.592948 234.139174 
L 171.914377 233.598055 
L 172.155753 233.598055 
L 172.543273 232.515817 
L 172.702647 232.515817 
L 172.850142 233.056936 
L 173.180731 231.974698 
L 175.378633 231.974698 
L 175.592455 231.433579 
L 175.94894 231.433579 
L 176.279781 230.89246 
L 176.623251 231.433579 
L 176.774807 231.433579 
L 177.245564 231.974698 
L 177.598264 229.269103 
L 177.849356 230.89246 
L 178.176835 230.89246 
L 178.439323 227.645746 
L 178.622981 228.186865 
L 178.818492 227.104626 
L 178.916965 227.645746 
L 179.03749 226.022388 
L 179.349954 226.022388 
L 179.745855 225.481269 
L 180.521252 226.022388 
L 180.69781 224.94015 
L 180.986357 224.94015 
L 181.190695 226.563507 
L 181.884318 224.94015 
L 182.574018 224.399031 
L 183.179733 224.399031 
L 183.497486 222.775674 
L 183.789557 222.775674 
L 183.962563 223.316793 
L 184.266212 223.316793 
L 185.440623 220.070079 
L 185.636486 222.234555 
L 186.013503 222.775674 
L 186.4557 220.070079 
L 187.644302 220.070079 
L 187.746056 219.52896 
L 188.219665 218.987841 
L 189.482194 218.987841 
L 190.060094 216.282246 
L 193.307607 216.282246 
L 193.564045 215.200008 
L 193.901317 217.364484 
L 194.09767 215.741127 
L 197.638114 215.741127 
L 197.933924 215.200008 
L 198.647276 211.953293 
L 198.914903 213.57665 
L 199.233843 213.035531 
L 199.587 213.57665 
L 199.835519 213.57665 
L 200.212082 208.16546 
L 200.413999 208.16546 
L 200.453189 207.624341 
L 201.088582 207.624341 
L 201.446215 206.542103 
L 201.761518 204.918746 
L 202.71001 204.377627 
L 202.770026 204.918746 
L 203.285014 205.459865 
L 203.361503 204.918746 
L 205.842954 204.918746 
L 206.015619 204.377627 
L 206.47871 203.836508 
L 207.097096 202.75427 
L 207.257936 201.672032 
L 207.475282 201.672032 
L 207.718763 200.589793 
L 208.011915 201.130912 
L 208.340164 201.130912 
L 208.5875 201.672032 
L 208.936182 201.130912 
L 209.247322 201.130912 
L 209.54553 200.589793 
L 209.786932 200.589793 
L 210.241338 201.130912 
L 210.477571 200.589793 
L 210.722072 201.130912 
L 211.13453 203.836508 
L 211.432089 204.377627 
L 212.115074 203.295389 
L 212.214929 199.507555 
L 212.367171 199.507555 
L 212.645737 198.966436 
L 212.969366 199.507555 
L 213.264838 199.507555 
L 213.628818 200.048674 
L 213.944081 198.966436 
L 215.081901 198.966436 
L 215.53409 198.425317 
L 215.792509 198.425317 
L 215.812562 197.884198 
L 217.101861 197.884198 
L 217.468919 196.80196 
L 219.272887 196.80196 
L 219.632501 195.719722 
L 223.087942 195.719722 
L 223.294893 195.178603 
L 223.853045 195.178603 
L 224.322699 194.637484 
L 224.637305 193.555246 
L 224.731378 194.096365 
L 225.073332 193.014127 
L 225.834037 193.014127 
L 228.915019 191.931889 
L 236.530682 191.931889 
L 236.840893 192.473008 
L 238.329834 192.473008 
L 238.638463 191.931889 
L 239.661209 191.931889 
L 240.0142 191.39077 
L 240.268021 191.931889 
L 240.562596 191.39077 
L 240.888537 191.931889 
L 241.156052 190.849651 
L 241.565769 191.39077 
L 241.864722 190.849651 
L 248.363065 190.849651 
L 248.698743 191.931889 
L 249.054358 191.39077 
L 249.375976 191.931889 
L 249.736221 191.39077 
L 250.025128 191.931889 
L 251.230871 191.931889 
L 251.537032 191.39077 
L 251.882854 191.931889 
L 252.313045 190.849651 
L 252.822647 190.849651 
L 253.175119 191.39077 
L 253.438877 190.308532 
L 253.778174 190.308532 
L 254.04031 190.849651 
L 254.867665 189.767413 
L 255.351672 190.308532 
L 255.639232 189.767413 
L 256.251016 189.767413 
L 256.596305 190.308532 
L 256.935359 188.685175 
L 257.261695 189.226294 
L 257.888207 189.226294 
L 258.127028 189.767413 
L 258.432462 189.226294 
L 258.765789 189.226294 
L 259.063257 193.555246 
L 259.181437 193.014127 
L 259.415198 193.014127 
L 259.578042 192.473008 
L 259.719965 192.473008 
L 259.90682 191.931889 
L 260.03345 193.014127 
L 260.658608 191.931889 
L 261.195728 191.931889 
L 261.456935 190.849651 
L 261.715808 191.931889 
L 261.884349 191.39077 
L 262.834595 191.39077 
L 263.11748 191.931889 
L 263.385761 191.931889 
L 263.722884 191.39077 
L 264.034619 191.39077 
L 264.404156 191.931889 
L 264.760765 191.39077 
L 265.037458 191.39077 
L 265.472886 190.308532 
L 267.249122 190.308532 
L 267.541288 190.849651 
L 268.917921 190.849651 
L 269.234084 190.308532 
L 269.482784 189.767413 
L 269.969717 189.767413 
L 270.121633 188.685175 
L 270.19132 189.226294 
L 270.356084 188.685175 
L 270.819527 188.685175 
L 271.046716 187.602936 
L 271.665301 187.602936 
L 271.954048 186.520698 
L 272.908972 186.520698 
L 273.137979 184.897341 
L 273.349296 184.356222 
L 273.471247 184.356222 
L 273.88262 183.815103 
L 274.027407 184.356222 
L 274.097574 183.815103 
L 274.24603 183.815103 
L 274.41982 183.273984 
L 274.549883 183.273984 
L 275.08108 182.732865 
L 276.27281 182.732865 
L 276.580165 183.273984 
L 276.874664 182.732865 
L 277.20664 182.732865 
L 277.365742 182.191746 
L 277.40401 182.732865 
L 277.592847 182.191746 
L 277.740541 182.191746 
L 277.886395 181.109508 
L 278.448025 180.02727 
L 278.856991 180.568389 
L 279.167924 180.02727 
L 279.779189 180.02727 
L 280.110951 178.945032 
L 280.232405 179.486151 
L 280.429713 177.862794 
L 280.709303 178.403913 
L 280.89063 177.862794 
L 281.034006 178.403913 
L 281.192443 177.321675 
L 281.515375 177.321675 
L 281.61102 176.780556 
L 281.989891 177.321675 
L 282.282917 176.239437 
L 282.944024 176.239437 
L 283.18201 175.157198 
L 283.519572 176.239437 
L 283.748902 176.239437 
L 283.832981 175.698317 
L 284.449976 175.698317 
L 284.738585 173.533841 
L 285.153649 175.698317 
L 285.218002 175.157198 
L 285.764518 175.698317 
L 285.81627 174.616079 
L 286.004239 174.616079 
L 286.383009 174.07496 
L 286.6904 174.616079 
L 286.922626 174.616079 
L 287.266275 173.533841 
L 287.640138 173.533841 
L 288.002691 174.07496 
L 288.273654 173.533841 
L 288.438294 174.07496 
L 288.602045 172.992722 
L 290.053026 172.992722 
L 290.498983 172.451603 
L 291.40952 172.451603 
L 291.732593 173.533841 
L 292.341495 173.533841 
L 292.646248 172.992722 
L 295.418648 172.992722 
L 295.792802 173.533841 
L 296.143524 172.451603 
L 300.398257 172.451603 
L 301.331629 171.910484 
L 301.886 171.910484 
L 302.336225 171.369365 
L 302.692025 171.369365 
L 302.901103 170.287127 
L 303.232582 170.828246 
L 307.637045 170.828246 
L 308.021705 171.369365 
L 308.326672 170.828246 
L 308.627954 171.369365 
L 308.832565 173.533841 
L 310.703535 173.533841 
L 311.012094 172.451603 
L 311.445167 173.533841 
L 313.237779 173.533841 
L 313.506455 172.451603 
L 313.607995 173.533841 
L 314.068204 173.533841 
L 314.280933 172.451603 
L 314.549087 173.533841 
L 314.749291 172.451603 
L 314.891389 172.451603 
L 315.074662 173.533841 
L 315.23495 172.451603 
L 315.337669 173.533841 
L 315.37904 172.451603 
L 316.481434 172.451603 
L 316.842311 170.828246 
L 317.243452 170.828246 
L 317.276538 170.287127 
L 317.599985 170.287127 
L 317.767467 169.746008 
L 317.910261 170.287127 
L 318.085688 169.746008 
L 318.204321 170.287127 
L 318.482561 169.746008 
L 318.600233 170.287127 
L 318.616369 169.746008 
L 318.969058 169.746008 
L 319.190041 169.204889 
L 319.329417 169.204889 
L 319.538135 168.122651 
L 319.769726 167.581532 
L 319.929673 168.122651 
L 321.71119 168.122651 
L 321.965915 167.581532 
L 323.33125 167.581532 
L 323.549046 167.040413 
L 323.836932 167.040413 
L 324.050558 166.499294 
L 324.281797 167.040413 
L 324.733195 167.040413 
L 324.923828 165.958175 
L 325.442703 165.958175 
L 325.492531 165.417056 
L 325.676944 165.958175 
L 325.852838 165.958175 
L 325.877899 165.417056 
L 326.087177 164.875937 
L 326.145668 165.417056 
L 326.382896 163.25258 
L 327.343667 163.25258 
L 327.440256 162.71146 
L 327.650735 162.71146 
L 327.774032 161.629222 
L 327.918736 162.71146 
L 329.194196 162.71146 
L 329.268 162.170341 
L 329.512646 162.71146 
L 329.629781 162.170341 
L 329.84635 162.71146 
L 330.127663 162.71146 
L 330.300175 161.629222 
L 330.614644 161.629222 
L 330.743636 162.170341 
L 330.854154 161.088103 
L 331.180548 162.71146 
L 331.522585 161.629222 
L 331.77036 162.71146 
L 332.350379 162.71146 
L 332.801781 161.088103 
L 332.942241 161.629222 
L 333.097793 161.088103 
L 333.517521 162.170341 
L 333.651921 161.088103 
L 334.648024 161.088103 
L 334.808584 160.546984 
L 335.088384 160.546984 
L 335.237541 161.088103 
L 335.42579 160.546984 
L 335.544823 161.088103 
L 335.907432 160.005865 
L 336.402494 160.005865 
L 336.751645 158.923627 
L 337.358206 160.005865 
L 337.487833 159.464746 
L 337.647305 160.005865 
L 337.748434 159.464746 
L 337.951327 159.464746 
L 338.03636 160.005865 
L 338.42923 158.923627 
L 338.631474 159.464746 
L 338.73154 158.923627 
L 338.937736 159.464746 
L 339.211588 159.464746 
L 339.388223 158.923627 
L 339.504363 159.464746 
L 339.61882 159.464746 
L 339.874114 160.005865 
L 339.98848 158.923627 
L 340.50688 158.923627 
L 340.541823 157.841389 
L 342.75899 157.841389 
L 342.977718 157.30027 
L 343.121286 157.841389 
L 343.242918 157.30027 
L 343.335307 157.841389 
L 343.446131 156.759151 
L 343.956742 156.759151 
L 344.197606 156.218032 
L 344.246421 156.759151 
L 344.296434 156.218032 
L 344.571483 156.759151 
L 344.642569 156.218032 
L 344.91155 155.676913 
L 345.016903 155.135794 
L 345.218029 155.135794 
L 345.264275 154.594675 
L 345.544308 152.971318 
L 345.670349 153.512437 
L 345.840462 153.512437 
L 345.871108 152.430199 
L 347.066301 152.430199 
L 347.214751 151.88908 
L 347.448897 152.430199 
L 348.140335 150.806842 
L 348.358425 150.806842 
L 348.488208 150.265723 
L 348.790499 150.265723 
L 348.797911 149.724603 
L 348.891095 150.265723 
L 348.980421 149.183484 
L 349.112448 149.183484 
L 349.295205 148.642365 
L 350.548897 148.642365 
L 350.581982 149.183484 
L 350.660907 148.101246 
L 350.99153 148.101246 
L 351.160379 148.642365 
L 351.290355 148.101246 
L 351.486041 148.642365 
L 351.632657 148.101246 
L 351.797384 148.101246 
L 351.93893 148.642365 
L 352.079278 147.019008 
L 353.759397 147.019008 
L 354.264644 145.93677 
L 354.530598 146.477889 
L 360.877345 146.477889 
L 360.985102 145.93677 
L 361.177833 146.477889 
L 361.233381 145.93677 
L 361.809277 145.93677 
L 361.968745 145.395651 
L 362.777017 145.395651 
L 362.885013 144.854532 
L 363.03724 145.395651 
L 364.27539 145.395651 
L 364.447129 144.854532 
L 364.782822 145.395651 
L 364.973129 144.313413 
L 365.077819 144.854532 
L 365.541839 144.854532 
L 365.744021 144.313413 
L 366.695701 144.313413 
L 366.850726 145.395651 
L 367.16485 144.313413 
L 368.854997 144.313413 
L 369.143733 143.772294 
L 369.183097 143.772294 
L 369.349824 143.231175 
L 369.474442 143.231175 
L 369.628702 142.690056 
L 369.989626 142.690056 
L 370.053565 142.148937 
L 370.354449 142.148937 
L 370.544505 143.231175 
L 370.692911 142.690056 
L 370.920077 142.690056 
L 371.012707 142.148937 
L 371.360235 142.148937 
L 371.671066 141.607818 
L 372.010011 139.984461 
L 372.120983 140.52558 
L 372.224312 139.984461 
L 372.461481 139.443342 
L 372.573945 139.984461 
L 372.875819 139.443342 
L 373.075464 139.984461 
L 373.238518 139.984461 
L 373.557959 138.361104 
L 373.865825 138.902223 
L 374.184659 137.819985 
L 374.247266 138.361104 
L 374.45449 137.819985 
L 374.597981 138.361104 
L 374.716277 137.819985 
L 375.227128 137.819985 
L 375.417333 141.066699 
L 375.925324 139.984461 
L 376.260733 139.984461 
L 376.378053 139.443342 
L 376.560789 139.984461 
L 376.678084 139.984461 
L 376.816875 140.52558 
L 376.976459 139.984461 
L 377.195667 139.984461 
L 377.303525 140.52558 
L 377.44056 139.984461 
L 377.627455 140.52558 
L 377.700914 139.984461 
L 378.089385 139.443342 
L 378.23864 139.443342 
L 378.374843 139.984461 
L 378.633452 139.443342 
L 379.689378 139.443342 
L 379.782377 136.737746 
L 380.054991 138.902223 
L 380.341226 139.443342 
L 380.856091 139.443342 
L 381.250812 138.361104 
L 381.386203 139.984461 
L 381.614081 139.443342 
L 381.904577 139.984461 
L 382.037464 138.361104 
L 382.197904 139.443342 
L 382.349533 139.443342 
L 382.450513 138.902223 
L 382.5394 134.57327 
L 382.848094 136.737746 
L 382.873703 134.032151 
L 383.698822 134.032151 
L 384.089137 132.949913 
L 384.250148 133.491032 
L 384.828178 133.491032 
L 384.985672 134.032151 
L 385.153999 133.491032 
L 385.338633 133.491032 
L 385.447101 134.032151 
L 385.777088 133.491032 
L 385.970945 133.491032 
L 386.098035 132.949913 
L 386.253471 133.491032 
L 386.420459 133.491032 
L 386.576951 134.032151 
L 386.673888 133.491032 
L 387.545616 133.491032 
L 387.763705 131.867675 
L 388.027388 132.408794 
L 388.24547 132.408794 
L 388.422025 132.949913 
L 388.5023 132.408794 
L 388.775781 132.949913 
L 388.878021 132.408794 
L 389.118947 132.408794 
L 389.213202 131.867675 
L 389.501121 132.408794 
L 390.094421 132.408794 
L 390.314383 131.867675 
L 390.680803 131.867675 
L 390.773192 131.326556 
L 390.929343 131.867675 
L 391.564072 130.244318 
L 391.712564 130.244318 
L 391.991965 129.703199 
L 394.26473 129.703199 
L 394.506858 129.16208 
L 394.733894 129.16208 
L 394.780118 130.244318 
L 394.837364 129.703199 
L 395.207772 129.703199 
L 395.292318 129.16208 
L 395.779701 129.16208 
L 396.012465 128.620961 
L 396.325086 128.620961 
L 396.335484 129.16208 
L 396.439408 128.620961 
L 396.53498 129.16208 
L 397.896265 129.16208 
L 398.151512 129.703199 
L 398.863536 129.16208 
L 400.340094 129.16208 
L 400.403985 128.620961 
L 401.953403 128.620961 
L 402.092971 128.079842 
L 403.525867 125.374247 
L 403.661671 125.374247 
L 403.803355 124.833128 
L 403.866452 125.374247 
L 404.171586 124.833128 
L 404.455073 124.292008 
L 404.794109 124.292008 
L 404.907963 123.750889 
L 405.336423 123.750889 
L 405.956997 124.292008 
L 405.98826 122.668651 
L 406.487707 122.668651 
L 406.642504 123.20977 
L 406.754939 122.668651 
L 407.592314 122.668651 
L 407.90238 123.20977 
L 409.399295 123.20977 
L 410.159136 122.668651 
L 411.694061 122.668651 
L 412.449885 122.127532 
L 412.55097 121.586413 
L 414.824087 121.586413 
L 415.037637 122.127532 
L 416.191604 122.127532 
L 417.034202 122.668651 
L 417.648214 122.668651 
L 417.952923 122.127532 
L 418.223446 121.045294 
L 418.384511 121.045294 
L 418.390797 121.586413 
L 420.197455 121.586413 
L 420.391355 121.045294 
L 424.955467 121.045294 
L 425.53095 120.504175 
L 425.752731 120.504175 
L 425.839303 119.421937 
L 426.121368 119.421937 
L 426.239823 119.963056 
L 426.423449 119.421937 
L 427.454452 119.421937 
L 427.914019 118.880818 
L 428.233253 117.79858 
L 431.029139 117.79858 
L 431.52124 118.339699 
L 431.663621 117.79858 
L 431.807653 118.339699 
L 431.969568 117.79858 
L 432.736388 117.79858 
L 433.08993 118.339699 
L 433.269334 117.79858 
L 433.76402 118.880818 
L 433.95682 117.79858 
L 435.153933 117.79858 
L 435.168095 117.257461 
L 437.065258 117.257461 
L 437.987681 116.716342 
L 438.264498 117.257461 
L 438.466092 116.716342 
L 438.596558 117.257461 
L 438.778807 117.257461 
L 438.903484 116.716342 
L 439.342934 117.79858 
L 439.633074 117.257461 
L 440.159705 117.79858 
L 440.312049 117.79858 
L 440.443262 117.257461 
L 441.239814 117.257461 
L 442.186253 117.79858 
L 442.32871 117.257461 
L 443.270466 117.257461 
L 443.576228 117.79858 
L 448.369449 117.257461 
L 448.728348 117.79858 
L 449.038522 117.257461 
L 449.316461 117.79858 
L 449.347557 117.257461 
L 449.589528 116.716342 
L 449.729663 116.716342 
L 449.857849 116.175223 
L 452.086383 116.175223 
L 452.13387 115.634104 
L 452.410879 115.634104 
L 453.150533 116.175223 
L 453.174062 115.634104 
L 453.458243 116.175223 
L 453.527314 115.092985 
L 453.710228 115.092985 
L 454.081318 114.551866 
L 454.703195 114.551866 
L 455.080804 115.092985 
L 455.505373 114.010747 
L 455.522787 113.469628 
L 455.935227 112.928509 
L 456.238571 113.469628 
L 456.665111 113.469628 
L 456.75378 112.928509 
L 457.724949 112.928509 
L 457.858739 113.469628 
L 458.02253 112.38739 
L 458.157529 112.38739 
L 458.413745 112.928509 
L 458.646763 112.38739 
L 459.166396 112.38739 
L 459.395247 110.764032 
L 461.027404 110.764032 
L 461.222534 110.222913 
L 461.342017 110.222913 
L 461.538625 110.764032 
L 461.589331 110.222913 
L 462.110126 110.222913 
L 462.214874 109.681794 
L 462.49937 109.140675 
L 462.580629 108.058437 
L 463.024503 108.058437 
L 463.191276 106.43508 
L 463.538532 106.43508 
L 463.741626 106.976199 
L 463.851346 106.43508 
L 463.999043 106.43508 
L 464.010324 104.811723 
L 464.800241 104.811723 
L 464.937171 104.270604 
L 465.277694 104.270604 
L 465.630558 104.811723 
L 465.666852 103.729485 
L 465.979284 103.729485 
L 466.036875 103.188366 
L 466.254569 102.647247 
L 466.829649 102.647247 
L 466.914173 101.565009 
L 467.160968 101.565009 
L 467.305657 101.02389 
L 467.444496 101.02389 
L 467.942382 100.482771 
L 468.13724 101.02389 
L 468.253283 106.976199 
L 468.379135 107.517318 
L 468.464371 105.352842 
L 469.078333 105.352842 
L 469.330684 105.893961 
L 469.514549 104.811723 
L 470.422563 104.811723 
L 470.605578 105.352842 
L 470.748874 104.811723 
L 471.715982 104.811723 
L 471.835062 104.270604 
L 472.275974 105.352842 
L 472.634503 104.811723 
L 472.839955 104.811723 
L 472.918865 104.270604 
L 473.100251 105.352842 
L 473.27657 104.270604 
L 474.008153 104.270604 
L 474.121546 104.811723 
L 474.382143 104.811723 
L 474.423137 104.270604 
L 474.718206 103.729485 
L 474.729722 104.270604 
L 474.967458 103.729485 
L 475.284633 103.729485 
L 475.570244 103.188366 
L 477.052362 103.188366 
L 477.163494 102.647247 
L 477.45742 103.188366 
L 477.467234 102.647247 
L 477.889288 102.106128 
L 478.148615 102.106128 
L 478.447037 101.565009 
L 478.709964 101.02389 
L 479.06845 102.106128 
L 479.139266 101.02389 
L 479.380326 101.565009 
L 479.583227 101.02389 
L 480.488763 101.02389 
L 480.590222 100.482771 
L 480.716674 101.02389 
L 481.154875 100.482771 
L 481.366537 101.02389 
L 481.581048 100.482771 
L 481.709931 101.02389 
L 482.010089 99.941652 
L 482.217476 100.482771 
L 482.926814 100.482771 
L 483.209016 99.941652 
L 483.621075 99.941652 
L 483.948918 101.02389 
L 484.036299 100.482771 
L 484.386593 100.482771 
L 484.475491 99.400533 
L 484.917289 100.482771 
L 485.071574 99.941652 
L 485.42754 100.482771 
L 485.687379 100.482771 
L 485.820498 99.941652 
L 486.138686 99.941652 
L 486.555383 99.400533 
L 486.609366 100.482771 
L 486.758977 99.400533 
L 486.896139 99.941652 
L 486.978464 99.400533 
L 487.305054 99.941652 
L 487.696915 99.400533 
L 487.894303 99.400533 
L 488.165259 99.941652 
L 488.550402 99.941652 
L 488.94529 98.859414 
L 489.15214 99.400533 
L 489.570412 99.400533 
L 489.76601 99.941652 
L 489.794806 100.482771 
L 490.038476 99.400533 
L 490.1677 99.941652 
L 490.319698 99.400533 
L 490.545555 99.941652 
L 490.801184 99.941652 
L 490.965403 100.482771 
L 491.27684 100.482771 
L 491.601086 99.400533 
L 491.821103 99.941652 
L 492.089039 98.859414 
L 492.228574 98.859414 
L 492.316158 99.400533 
L 492.58866 99.400533 
L 492.611532 98.859414 
L 493.514886 98.859414 
L 493.662878 98.318294 
L 493.789638 98.318294 
L 493.985044 97.777175 
L 494.153586 98.318294 
L 494.282124 97.777175 
L 494.473756 97.777175 
L 494.581632 97.236056 
L 494.720866 97.777175 
L 494.765725 97.236056 
L 494.919862 96.153818 
L 495.108176 96.694937 
L 495.16744 97.236056 
L 495.36604 96.694937 
L 495.528339 97.236056 
L 495.83965 96.694937 
L 496.044532 96.694937 
L 496.133793 96.153818 
L 496.355255 96.694937 
L 496.936871 95.07158 
L 497.093327 95.07158 
L 497.255157 96.153818 
L 497.331665 95.612699 
L 497.560465 95.612699 
L 497.664563 96.153818 
L 497.851651 96.153818 
L 498.021981 95.612699 
L 498.240957 95.612699 
L 498.608592 93.989342 
L 498.804183 94.530461 
L 501.375265 94.530461 
L 501.494912 93.989342 
L 501.646638 93.989342 
L 501.768654 94.530461 
L 502.013464 93.989342 
L 502.623375 93.989342 
L 502.725404 92.907104 
L 503.370756 93.989342 
L 503.822571 93.989342 
L 504.440815 92.907104 
L 505.53375 93.448223 
L 505.811308 92.907104 
L 506.117083 93.448223 
L 506.335467 92.365985 
L 506.423055 93.448223 
L 506.710934 92.365985 
L 507.02459 93.448223 
L 507.128419 92.365985 
L 507.329552 92.365985 
L 507.440118 92.907104 
L 507.640525 92.365985 
L 507.760796 92.365985 
L 507.872824 92.907104 
L 508.008941 91.283747 
L 508.36592 92.365985 
L 508.699805 92.365985 
L 508.90382 91.824866 
L 509.288844 91.824866 
L 509.601962 92.365985 
L 509.785013 92.365985 
L 509.923395 91.283747 
L 510.096008 92.365985 
L 510.192379 91.824866 
L 510.425074 91.283747 
L 510.567752 91.283747 
L 510.817203 92.365985 
L 511.055738 90.742628 
L 511.35555 90.742628 
L 511.378306 89.66039 
L 511.399244 90.201509 
L 511.556045 90.742628 
L 511.720873 89.66039 
L 511.789625 90.742628 
L 512.038093 90.742628 
L 512.071947 90.201509 
L 512.351886 89.66039 
L 512.519425 89.66039 
L 512.597954 90.742628 
L 512.973632 89.66039 
L 513.034471 90.742628 
L 513.239093 89.66039 
L 513.396499 91.283747 
L 513.874997 90.201509 
L 514.235464 91.824866 
L 514.263338 91.283747 
L 514.491663 91.824866 
L 514.636011 91.824866 
L 514.785864 90.742628 
L 514.964822 91.824866 
L 515.308881 90.742628 
L 515.439415 91.824866 
L 515.580751 91.283747 
L 515.868764 91.283747 
L 516.058966 91.824866 
L 516.423062 91.824866 
L 516.434175 91.283747 
L 517.007219 92.365985 
L 517.311133 90.742628 
L 517.47243 90.742628 
L 517.660421 91.283747 
L 517.713559 90.201509 
L 517.980432 91.283747 
L 518.144759 90.201509 
L 518.310419 91.283747 
L 518.37888 90.742628 
L 518.718631 90.742628 
L 518.922236 90.201509 
L 519.015358 89.119271 
L 519.204936 90.201509 
L 519.516834 89.66039 
L 519.654805 89.119271 
L 519.825281 89.66039 
L 519.970834 87.495914 
L 520.1993 87.495914 
L 520.501436 86.954795 
L 520.537886 88.037033 
L 520.835249 86.954795 
L 521.258529 88.037033 
L 521.372902 86.413676 
L 521.716119 85.872556 
L 522.089938 86.954795 
L 522.326864 87.495914 
L 522.98546 86.954795 
L 523.064345 86.413676 
L 523.989972 86.413676 
L 524.270375 85.872556 
L 524.554008 84.249199 
L 525.282212 84.790318 
L 525.842052 84.790318 
L 526.15125 84.249199 
L 526.230951 84.790318 
L 526.465867 83.70808 
L 526.518203 84.790318 
L 526.775312 84.249199 
L 527.24171 84.249199 
L 527.48105 83.166961 
L 527.700729 84.249199 
L 528.000767 83.166961 
L 528.117738 83.70808 
L 528.277983 83.166961 
L 528.696353 83.70808 
L 528.938161 83.166961 
L 529.645434 83.166961 
L 529.814251 83.70808 
L 530.223889 82.625842 
L 530.390395 83.70808 
L 530.534013 83.70808 
L 530.589858 83.166961 
L 530.793463 83.166961 
L 531.013056 82.625842 
L 531.163316 83.70808 
L 531.396616 82.625842 
L 531.499074 83.70808 
L 531.785157 82.625842 
L 531.961069 82.625842 
L 532.074589 83.166961 
L 532.260617 83.166961 
L 532.313185 83.70808 
L 532.323979 83.166961 
L 532.641557 83.166961 
L 532.749009 83.70808 
L 533.040329 82.625842 
L 533.308599 83.70808 
L 533.768347 83.166961 
L 534.750826 83.166961 
L 534.986438 83.70808 
L 535.236928 83.166961 
L 535.398167 83.70808 
L 535.497768 83.166961 
L 536.195536 83.166961 
L 536.40857 83.70808 
L 536.897709 82.625842 
L 537.016641 83.166961 
L 537.407885 82.625842 
L 537.835176 83.166961 
L 538.062118 82.625842 
L 538.596044 83.70808 
L 538.736138 84.249199 
L 538.968252 84.249199 
L 539.415309 82.625842 
L 539.536912 82.625842 
L 539.691287 83.70808 
L 540.05387 83.70808 
L 540.257239 83.166961 
L 540.411463 83.166961 
L 540.57092 83.70808 
L 540.871988 83.70808 
L 541.283082 83.166961 
L 541.511283 83.166961 
L 541.604703 82.625842 
L 541.824038 83.70808 
L 541.939598 82.625842 
L 542.083271 83.166961 
L 542.174009 82.625842 
L 542.750069 82.625842 
L 542.770919 81.543604 
L 542.863944 82.084723 
L 543.037984 82.084723 
L 543.141984 82.625842 
L 543.305572 82.084723 
L 543.485945 82.625842 
L 543.945915 82.084723 
L 544.336597 82.084723 
L 544.484984 81.002485 
L 544.543504 81.543604 
L 544.718346 81.002485 
L 544.952826 81.543604 
L 545.062597 82.084723 
L 545.226224 81.543604 
L 545.387587 82.084723 
L 545.581676 81.002485 
L 545.663907 82.084723 
L 545.838288 90.201509 
L 546.314409 90.201509 
L 546.44564 90.742628 
L 546.570371 88.578152 
L 547.265359 89.119271 
L 547.781737 89.119271 
L 547.882158 88.578152 
L 548.011299 88.578152 
L 548.416019 89.66039 
L 548.722158 89.66039 
L 548.735209 89.119271 
L 549.118465 88.578152 
L 549.389903 89.119271 
L 549.662579 90.201509 
L 549.697435 89.119271 
L 549.905755 90.201509 
L 549.986781 89.66039 
L 550.609108 89.66039 
L 550.642742 89.119271 
L 550.897572 89.119271 
L 551.071162 89.66039 
L 551.238447 89.66039 
L 551.291941 90.201509 
L 551.651635 89.119271 
L 551.971852 90.201509 
L 552.138535 90.201509 
L 552.650772 89.66039 
L 552.750333 90.201509 
L 552.832289 89.119271 
L 553.164091 88.037033 
L 553.387309 89.119271 
L 553.718102 88.037033 
L 554.04638 89.119271 
L 554.165863 88.037033 
L 554.461574 89.119271 
L 554.584806 89.119271 
L 554.634398 88.037033 
L 554.78165 88.578152 
L 554.953414 88.037033 
L 555.231505 88.037033 
L 555.265048 86.954795 
L 555.479388 87.495914 
L 555.601731 87.495914 
L 555.691381 88.037033 
L 555.943344 87.495914 
L 556.204449 86.413676 
L 556.218026 84.790318 
L 556.368381 85.872556 
L 556.372889 84.249199 
L 556.552678 84.249199 
L 556.678182 83.70808 
L 556.923539 84.249199 
L 557.302923 83.70808 
L 557.509504 84.249199 
L 557.749954 84.249199 
L 557.850448 83.70808 
L 558.13055 83.166961 
L 558.282508 84.249199 
L 558.40246 84.249199 
L 558.699674 82.625842 
L 558.885426 82.084723 
L 559.467666 82.625842 
L 559.689077 82.625842 
L 559.831537 83.166961 
L 560.142532 80.461366 
L 560.306831 80.461366 
L 560.449698 79.920247 
L 560.72842 77.214652 
L 560.945389 77.755771 
L 561.21168 76.673533 
L 561.307086 77.755771 
L 561.554483 76.132414 
L 561.590505 75.591295 
L 561.846961 75.050176 
L 562.033511 75.591295 
L 562.216487 75.050176 
L 562.529721 76.132414 
L 562.561569 75.591295 
L 562.793977 75.591295 
L 562.90778 76.132414 
L 563.113823 76.132414 
L 563.715735 75.050176 
L 563.715735 75.050176 
" clip-path="url(#p2ebaafad85)" style="fill: none; stroke-dasharray: 6,1.5; stroke-dashoffset: 0; stroke: #008000; stroke-width: 1.5"/>
   </g>
   <g id="line2d_20">
    <path d="M 38.539265 362.384387 
L 39.821236 363.466625 
L 41.099071 363.466625 
L 42.335094 362.925506 
L 44.125107 362.925506 
L 47.863571 362.384387 
L 47.969124 362.925506 
L 51.206478 362.925506 
L 51.511579 364.007744 
L 52.18659 364.007744 
L 52.467258 360.76103 
L 52.841306 364.007744 
L 54.662808 364.007744 
L 54.996824 360.76103 
L 57.508954 360.76103 
L 58.833165 361.302149 
L 59.013498 361.843268 
L 60.020115 361.843268 
L 60.302652 360.219911 
L 63.390915 360.219911 
L 63.757214 360.76103 
L 73.17281 360.76103 
L 73.469382 360.219911 
L 79.142446 360.219911 
L 79.425066 362.384387 
L 126.467562 362.384387 
L 126.784763 363.466625 
L 127.168291 366.713339 
L 127.442259 366.713339 
L 127.751929 367.254458 
L 129.611659 367.254458 
L 132.176292 368.877816 
L 132.43816 368.877816 
L 132.877243 369.418935 
L 145.840669 369.418935 
L 146.537268 370.501173 
L 175.94894 370.501173 
L 176.279781 371.042292 
L 176.623251 370.501173 
L 178.622981 370.501173 
L 178.916965 371.042292 
L 184.266212 371.042292 
L 185.440623 372.12453 
L 185.636486 371.042292 
L 186.013503 371.042292 
L 186.324266 372.12453 
L 193.564045 372.12453 
L 193.901317 371.583411 
L 194.09767 372.12453 
L 211.13453 372.12453 
L 211.432089 373.206768 
L 249.375976 373.206768 
L 249.736221 373.747887 
L 336.751645 373.747887 
L 337.099627 373.206768 
L 347.448897 373.206768 
L 347.854481 373.747887 
L 347.96288 374.830125 
L 375.227128 374.830125 
L 375.417333 374.289006 
L 378.089385 374.289006 
L 378.23864 374.830125 
L 486.00626 374.830125 
L 486.138686 374.289006 
L 494.282124 374.289006 
L 494.581632 374.830125 
L 525.516783 374.830125 
L 525.842052 374.289006 
L 563.715735 374.289006 
L 563.715735 374.289006 
" clip-path="url(#p2ebaafad85)" style="fill: none; stroke-dasharray: 9,3; stroke-dashoffset: 0; stroke: #ffa500; stroke-width: 1.5"/>
   </g>
   <g id="line2d_21">
    <path d="M 38.539265 325.047173 
L 47.863571 325.047173 
L 47.969124 325.588292 
L 51.206478 325.588292 
L 51.511579 326.129411 
L 52.18659 326.129411 
L 52.467258 327.211649 
L 52.841306 326.129411 
L 54.662808 326.129411 
L 55.222623 327.752768 
L 56.540072 327.752768 
L 56.836886 328.293887 
L 57.016359 327.752768 
L 57.166485 328.293887 
L 70.984135 328.293887 
L 71.278275 329.376125 
L 71.394023 328.293887 
L 71.909737 329.376125 
L 88.416935 329.376125 
L 89.116467 329.917245 
L 89.274933 329.376125 
L 90.397001 329.376125 
L 90.701703 329.917245 
L 91.037878 329.376125 
L 91.837726 329.376125 
L 92.279524 329.917245 
L 92.6075 329.376125 
L 118.035969 329.376125 
L 118.310173 329.917245 
L 118.660554 329.917245 
L 118.971254 329.376125 
L 119.290916 329.376125 
L 119.51118 329.917245 
L 119.749903 329.376125 
L 120.146624 329.917245 
L 126.784763 329.917245 
L 127.168291 329.376125 
L 127.442259 329.376125 
L 127.751929 330.458364 
L 129.261387 330.458364 
L 129.611659 333.163959 
L 132.176292 330.999483 
L 132.43816 331.540602 
L 134.271816 331.540602 
L 134.62955 334.246197 
L 134.945009 334.787316 
L 149.155859 334.787316 
L 149.652653 334.246197 
L 150.045784 334.787316 
L 150.92264 334.246197 
L 153.058255 334.246197 
L 154.321684 334.787316 
L 159.596524 334.787316 
L 159.995368 335.328435 
L 193.307607 335.328435 
L 193.564045 335.869554 
L 193.901317 335.328435 
L 199.835519 335.328435 
L 200.212082 342.362982 
L 201.088582 342.362982 
L 201.446215 346.691935 
L 201.761518 348.315292 
L 220.857085 348.315292 
L 223.542849 348.856411 
L 251.882854 348.856411 
L 252.197918 351.020887 
L 258.765789 351.020887 
L 259.063257 347.774173 
L 274.24603 347.774173 
L 274.41982 348.315292 
L 302.692025 348.315292 
L 302.901103 348.856411 
L 303.232582 348.315292 
L 310.870469 348.315292 
L 311.012094 348.856411 
L 311.301062 348.315292 
L 313.237779 348.315292 
L 313.506455 348.856411 
L 313.607995 348.315292 
L 316.481434 348.315292 
L 316.682088 348.856411 
L 325.676944 348.856411 
L 325.877899 348.315292 
L 337.099627 348.315292 
L 337.358206 347.774173 
L 337.487833 348.315292 
L 337.647305 347.774173 
L 337.748434 348.315292 
L 337.951327 348.315292 
L 338.03636 347.774173 
L 338.26389 348.315292 
L 339.61882 348.315292 
L 339.874114 347.774173 
L 339.98848 348.315292 
L 347.854481 348.315292 
L 347.96288 347.774173 
L 375.227128 347.774173 
L 375.417333 348.315292 
L 379.689378 348.315292 
L 379.782377 351.020887 
L 380.054991 348.315292 
L 382.525874 348.315292 
L 382.5394 351.020887 
L 382.848094 348.315292 
L 382.873703 351.020887 
L 407.592314 351.020887 
L 407.90238 350.479768 
L 408.168748 351.020887 
L 438.264498 351.020887 
L 438.466092 351.562006 
L 438.596558 351.020887 
L 438.903484 351.020887 
L 439.342934 351.562006 
L 459.166396 351.562006 
L 459.395247 352.103125 
L 462.214874 352.103125 
L 462.49937 352.644244 
L 468.13724 352.644244 
L 468.253283 352.103125 
L 474.729722 352.103125 
L 474.967458 352.644244 
L 486.00626 352.644244 
L 486.138686 356.432078 
L 494.282124 356.432078 
L 494.581632 355.890959 
L 502.013464 355.890959 
L 502.725404 358.055435 
L 509.923395 358.055435 
L 510.192379 357.514316 
L 523.310737 357.514316 
L 523.764943 356.973197 
L 525.516783 356.973197 
L 525.842052 359.137673 
L 526.230951 359.678792 
L 528.277983 359.678792 
L 528.696353 360.219911 
L 545.663907 360.219911 
L 545.838288 356.973197 
L 563.715735 356.973197 
L 563.715735 356.973197 
" clip-path="url(#p2ebaafad85)" style="fill: none; stroke-dasharray: 12,4.5; stroke-dashoffset: 0; stroke: #ee82ee; stroke-width: 1.5"/>
   </g>
   <g id="patch_3">
    <path d="M 33.2875 374.830125 
L 33.2875 22.318125 
" style="fill: none; stroke: #000000; stroke-width: 0.8; stroke-linejoin: miter; stroke-linecap: square"/>
   </g>
   <g id="patch_4">
    <path d="M 568.9675 374.830125 
L 568.9675 22.318125 
" style="fill: none; stroke: #000000; stroke-width: 0.8; stroke-linejoin: miter; stroke-linecap: square"/>
   </g>
   <g id="patch_5">
    <path d="M 33.2875 374.830125 
L 568.9675 374.830125 
" style="fill: none; stroke: #000000; stroke-width: 0.8; stroke-linejoin: miter; stroke-linecap: square"/>
   </g>
   <g id="patch_6">
    <path d="M 33.2875 22.318125 
L 568.9675 22.318125 
" style="fill: none; stroke: #000000; stroke-width: 0.8; stroke-linejoin: miter; stroke-linecap: square"/>
   </g>
   <g id="text_17">
    <!-- Rust/Coreutils running GNU's testsuite -->
    <g transform="translate(186.090625 16.318125) scale(0.12 -0.12)">
     <defs>
      <path id="DejaVuSans-52" d="M 2841 2188 
Q 3044 2119 3236 1894 
Q 3428 1669 3622 1275 
L 4263 0 
L 3584 0 
L 2988 1197 
Q 2756 1666 2539 1819 
Q 2322 1972 1947 1972 
L 1259 1972 
L 1259 0 
L 628 0 
L 628 4666 
L 2053 4666 
Q 2853 4666 3247 4331 
Q 3641 3997 3641 3322 
Q 3641 2881 3436 2590 
Q 3231 2300 2841 2188 
z
M 1259 4147 
L 1259 2491 
L 2053 2491 
Q 2509 2491 2742 2702 
Q 2975 2913 2975 3322 
Q 2975 3731 2742 3939 
Q 2509 4147 2053 4147 
L 1259 4147 
z
" transform="scale(0.015625)"/>
      <path id="DejaVuSans-75" d="M 544 1381 
L 544 3500 
L 1119 3500 
L 1119 1403 
Q 1119 906 1312 657 
Q 1506 409 1894 409 
Q 2359 409 2629 706 
Q 2900 1003 2900 1516 
L 2900 3500 
L 3475 3500 
L 3475 0 
L 2900 0 
L 2900 538 
Q 2691 219 2414 64 
Q 2138 -91 1772 -91 
Q 1169 -91 856 284 
Q 544 659 544 1381 
z
M 1991 3584 
L 1991 3584 
z
" transform="scale(0.015625)"/>
      <path id="DejaVuSans-73" d="M 2834 3397 
L 2834 2853 
Q 2591 2978 2328 3040 
Q 2066 3103 1784 3103 
Q 1356 3103 1142 2972 
Q 928 2841 928 2578 
Q 928 2378 1081 2264 
Q 1234 2150 1697 2047 
L 1894 2003 
Q 2506 1872 2764 1633 
Q 3022 1394 3022 966 
Q 3022 478 2636 193 
Q 2250 -91 1575 -91 
Q 1294 -91 989 -36 
Q 684 19 347 128 
L 347 722 
Q 666 556 975 473 
Q 1284 391 1588 391 
Q 1994 391 2212 530 
Q 2431 669 2431 922 
Q 2431 1156 2273 1281 
Q 2116 1406 1581 1522 
L 1381 1569 
Q 847 1681 609 1914 
Q 372 2147 372 2553 
Q 372 3047 722 3315 
Q 1072 3584 1716 3584 
Q 2034 3584 2315 3537 
Q 2597 3491 2834 3397 
z
" transform="scale(0.015625)"/>
      <path id="DejaVuSans-74" d="M 1172 4494 
L 1172 3500 
L 2356 3500 
L 2356 3053 
L 1172 3053 
L 1172 1153 
Q 1172 725 1289 603 
Q 1406 481 1766 481 
L 2356 481 
L 2356 0 
L 1766 0 
Q 1100 0 847 248 
Q 594 497 594 1153 
L 594 3053 
L 172 3053 
L 172 3500 
L 594 3500 
L 594 4494 
L 1172 4494 
z
" transform="scale(0.015625)"/>
      <path id="DejaVuSans-2f" d="M 1625 4666 
L 2156 4666 
L 531 -594 
L 0 -594 
L 1625 4666 
z
" transform="scale(0.015625)"/>
      <path id="DejaVuSans-43" d="M 4122 4306 
L 4122 3641 
Q 3803 3938 3442 4084 
Q 3081 4231 2675 4231 
Q 1875 4231 1450 3742 
Q 1025 3253 1025 2328 
Q 1025 1406 1450 917 
Q 1875 428 2675 428 
Q 3081 428 3442 575 
Q 3803 722 4122 1019 
L 4122 359 
Q 3791 134 3420 21 
Q 3050 -91 2638 -91 
Q 1578 -91 968 557 
Q 359 1206 359 2328 
Q 359 3453 968 4101 
Q 1578 4750 2638 4750 
Q 3056 4750 3426 4639 
Q 3797 4528 4122 4306 
z
" transform="scale(0.015625)"/>
      <path id="DejaVuSans-6f" d="M 1959 3097 
Q 1497 3097 1228 2736 
Q 959 2375 959 1747 
Q 959 1119 1226 758 
Q 1494 397 1959 397 
Q 2419 397 2687 759 
Q 2956 1122 2956 1747 
Q 2956 2369 2687 2733 
Q 2419 3097 1959 3097 
z
M 1959 3584 
Q 2709 3584 3137 3096 
Q 3566 2609 3566 1747 
Q 3566 888 3137 398 
Q 2709 -91 1959 -91 
Q 1206 -91 779 398 
Q 353 888 353 1747 
Q 353 2609 779 3096 
Q 1206 3584 1959 3584 
z
" transform="scale(0.015625)"/>
      <path id="DejaVuSans-72" d="M 2631 2963 
Q 2534 3019 2420 3045 
Q 2306 3072 2169 3072 
Q 1681 3072 1420 2755 
Q 1159 2438 1159 1844 
L 1159 0 
L 581 0 
L 581 3500 
L 1159 3500 
L 1159 2956 
Q 1341 3275 1631 3429 
Q 1922 3584 2338 3584 
Q 2397 3584 2469 3576 
Q 2541 3569 2628 3553 
L 2631 2963 
z
" transform="scale(0.015625)"/>
      <path id="DejaVuSans-65" d="M 3597 1894 
L 3597 1613 
L 953 1613 
Q 991 1019 1311 708 
Q 1631 397 2203 397 
Q 2534 397 2845 478 
Q 3156 559 3463 722 
L 3463 178 
Q 3153 47 2828 -22 
Q 2503 -91 2169 -91 
Q 1331 -91 842 396 
Q 353 884 353 1716 
Q 353 2575 817 3079 
Q 1281 3584 2069 3584 
Q 2775 3584 3186 3129 
Q 3597 2675 3597 1894 
z
M 3022 2063 
Q 3016 2534 2758 2815 
Q 2500 3097 2075 3097 
Q 1594 3097 1305 2825 
Q 1016 2553 972 2059 
L 3022 2063 
z
" transform="scale(0.015625)"/>
      <path id="DejaVuSans-69" d="M 603 3500 
L 1178 3500 
L 1178 0 
L 603 0 
L 603 3500 
z
M 603 4863 
L 1178 4863 
L 1178 4134 
L 603 4134 
L 603 4863 
z
" transform="scale(0.015625)"/>
      <path id="DejaVuSans-6c" d="M 603 4863 
L 1178 4863 
L 1178 0 
L 603 0 
L 603 4863 
z
" transform="scale(0.015625)"/>
      <path id="DejaVuSans-20" transform="scale(0.015625)"/>
      <path id="DejaVuSans-6e" d="M 3513 2113 
L 3513 0 
L 2938 0 
L 2938 2094 
Q 2938 2591 2744 2837 
Q 2550 3084 2163 3084 
Q 1697 3084 1428 2787 
Q 1159 2491 1159 1978 
L 1159 0 
L 581 0 
L 581 3500 
L 1159 3500 
L 1159 2956 
Q 1366 3272 1645 3428 
Q 1925 3584 2291 3584 
Q 2894 3584 3203 3211 
Q 3513 2838 3513 2113 
z
" transform="scale(0.015625)"/>
      <path id="DejaVuSans-67" d="M 2906 1791 
Q 2906 2416 2648 2759 
Q 2391 3103 1925 3103 
Q 1463 3103 1205 2759 
Q 947 2416 947 1791 
Q 947 1169 1205 825 
Q 1463 481 1925 481 
Q 2391 481 2648 825 
Q 2906 1169 2906 1791 
z
M 3481 434 
Q 3481 -459 3084 -895 
Q 2688 -1331 1869 -1331 
Q 1566 -1331 1297 -1286 
Q 1028 -1241 775 -1147 
L 775 -588 
Q 1028 -725 1275 -790 
Q 1522 -856 1778 -856 
Q 2344 -856 2625 -561 
Q 2906 -266 2906 331 
L 2906 616 
Q 2728 306 2450 153 
Q 2172 0 1784 0 
Q 1141 0 747 490 
Q 353 981 353 1791 
Q 353 2603 747 3093 
Q 1141 3584 1784 3584 
Q 2172 3584 2450 3431 
Q 2728 3278 2906 2969 
L 2906 3500 
L 3481 3500 
L 3481 434 
z
" transform="scale(0.015625)"/>
      <path id="DejaVuSans-47" d="M 3809 666 
L 3809 1919 
L 2778 1919 
L 2778 2438 
L 4434 2438 
L 4434 434 
Q 4069 175 3628 42 
Q 3188 -91 2688 -91 
Q 1594 -91 976 548 
Q 359 1188 359 2328 
Q 359 3472 976 4111 
Q 1594 4750 2688 4750 
Q 3144 4750 3555 4637 
Q 3966 4525 4313 4306 
L 4313 3634 
Q 3963 3931 3569 4081 
Q 3175 4231 2741 4231 
Q 1884 4231 1454 3753 
Q 1025 3275 1025 2328 
Q 1025 1384 1454 906 
Q 1884 428 2741 428 
Q 3075 428 3337 486 
Q 3600 544 3809 666 
z
" transform="scale(0.015625)"/>
      <path id="DejaVuSans-4e" d="M 628 4666 
L 1478 4666 
L 3547 763 
L 3547 4666 
L 4159 4666 
L 4159 0 
L 3309 0 
L 1241 3903 
L 1241 0 
L 628 0 
L 628 4666 
z
" transform="scale(0.015625)"/>
      <path id="DejaVuSans-55" d="M 556 4666 
L 1191 4666 
L 1191 1831 
Q 1191 1081 1462 751 
Q 1734 422 2344 422 
Q 2950 422 3222 751 
Q 3494 1081 3494 1831 
L 3494 4666 
L 4128 4666 
L 4128 1753 
Q 4128 841 3676 375 
Q 3225 -91 2344 -91 
Q 1459 -91 1007 375 
Q 556 841 556 1753 
L 556 4666 
z
" transform="scale(0.015625)"/>
      <path id="DejaVuSans-27" d="M 1147 4666 
L 1147 2931 
L 616 2931 
L 616 4666 
L 1147 4666 
z
" transform="scale(0.015625)"/>
     </defs>
     <use xlink:href="#DejaVuSans-52"/>
     <use xlink:href="#DejaVuSans-75" x="64.982422"/>
     <use xlink:href="#DejaVuSans-73" x="128.361328"/>
     <use xlink:href="#DejaVuSans-74" x="180.460938"/>
     <use xlink:href="#DejaVuSans-2f" x="219.669922"/>
     <use xlink:href="#DejaVuSans-43" x="253.361328"/>
     <use xlink:href="#DejaVuSans-6f" x="323.185547"/>
     <use xlink:href="#DejaVuSans-72" x="384.367188"/>
     <use xlink:href="#DejaVuSans-65" x="423.230469"/>
     <use xlink:href="#DejaVuSans-75" x="484.753906"/>
     <use xlink:href="#DejaVuSans-74" x="548.132812"/>
     <use xlink:href="#DejaVuSans-69" x="587.341797"/>
     <use xlink:href="#DejaVuSans-6c" x="615.125"/>
     <use xlink:href="#DejaVuSans-73" x="642.908203"/>
     <use xlink:href="#DejaVuSans-20" x="695.007812"/>
     <use xlink:href="#DejaVuSans-72" x="726.794922"/>
     <use xlink:href="#DejaVuSans-75" x="767.908203"/>
     <use xlink:href="#DejaVuSans-6e" x="831.287109"/>
     <use xlink:href="#DejaVuSans-6e" x="894.666016"/>
     <use xlink:href="#DejaVuSans-69" x="958.044922"/>
     <use xlink:href="#DejaVuSans-6e" x="985.828125"/>
     <use xlink:href="#DejaVuSans-67" x="1049.207031"/>
     <use xlink:href="#DejaVuSans-20" x="1112.683594"/>
     <use xlink:href="#DejaVuSans-47" x="1144.470703"/>
     <use xlink:href="#DejaVuSans-4e" x="1221.960938"/>
     <use xlink:href="#DejaVuSans-55" x="1296.765625"/>
     <use xlink:href="#DejaVuSans-27" x="1369.958984"/>
     <use xlink:href="#DejaVuSans-73" x="1397.449219"/>
     <use xlink:href="#DejaVuSans-20" x="1449.548828"/>
     <use xlink:href="#DejaVuSans-74" x="1481.335938"/>
     <use xlink:href="#DejaVuSans-65" x="1520.544922"/>
     <use xlink:href="#DejaVuSans-73" x="1582.068359"/>
     <use xlink:href="#DejaVuSans-74" x="1634.167969"/>
     <use xlink:href="#DejaVuSans-73" x="1673.376953"/>
     <use xlink:href="#DejaVuSans-75" x="1725.476562"/>
     <use xlink:href="#DejaVuSans-69" x="1788.855469"/>
     <use xlink:href="#DejaVuSans-74" x="1816.638672"/>
     <use xlink:href="#DejaVuSans-65" x="1855.847656"/>
    </g>
   </g>
   <g id="legend_1">
    <g id="patch_7">
     <path d="M 505.762812 236.769437 
L 561.9675 236.769437 
Q 563.9675 236.769437 563.9675 234.769437 
L 563.9675 162.378812 
Q 563.9675 160.378812 561.9675 160.378812 
L 505.762812 160.378812 
Q 503.762812 160.378812 503.762812 162.378812 
L 503.762812 234.769437 
Q 503.762812 236.769437 505.762812 236.769437 
z
" style="fill: #ffffff; opacity: 0.8; stroke: #cccccc; stroke-linejoin: miter"/>
    </g>
    <g id="line2d_22">
     <path d="M 507.762812 168.47725 
L 517.762812 168.47725 
L 527.762812 168.47725 
" style="fill: none; stroke: #0000ff; stroke-width: 1.5; stroke-linecap: square"/>
    </g>
    <g id="text_18">
     <!-- total -->
     <g transform="translate(535.762812 171.97725) scale(0.1 -0.1)">
      <defs>
       <path id="DejaVuSans-61" d="M 2194 1759 
Q 1497 1759 1228 1600 
Q 959 1441 959 1056 
Q 959 750 1161 570 
Q 1363 391 1709 391 
Q 2188 391 2477 730 
Q 2766 1069 2766 1631 
L 2766 1759 
L 2194 1759 
z
M 3341 1997 
L 3341 0 
L 2766 0 
L 2766 531 
Q 2569 213 2275 61 
Q 1981 -91 1556 -91 
Q 1019 -91 701 211 
Q 384 513 384 1019 
Q 384 1609 779 1909 
Q 1175 2209 1959 2209 
L 2766 2209 
L 2766 2266 
Q 2766 2663 2505 2880 
Q 2244 3097 1772 3097 
Q 1472 3097 1187 3025 
Q 903 2953 641 2809 
L 641 3341 
Q 956 3463 1253 3523 
Q 1550 3584 1831 3584 
Q 2591 3584 2966 3190 
Q 3341 2797 3341 1997 
z
" transform="scale(0.015625)"/>
      </defs>
      <use xlink:href="#DejaVuSans-74"/>
      <use xlink:href="#DejaVuSans-6f" x="39.208984"/>
      <use xlink:href="#DejaVuSans-74" x="100.390625"/>
      <use xlink:href="#DejaVuSans-61" x="139.599609"/>
      <use xlink:href="#DejaVuSans-6c" x="200.878906"/>
     </g>
    </g>
    <g id="line2d_23">
     <path d="M 507.762812 183.155375 
L 517.762812 183.155375 
L 527.762812 183.155375 
" style="fill: none; stroke-dasharray: 3,1.5; stroke-dashoffset: 0; stroke: #808080; stroke-width: 1.5"/>
    </g>
    <g id="text_19">
     <!-- fail -->
     <g transform="translate(535.762812 186.655375) scale(0.1 -0.1)">
      <defs>
       <path id="DejaVuSans-66" d="M 2375 4863 
L 2375 4384 
L 1825 4384 
Q 1516 4384 1395 4259 
Q 1275 4134 1275 3809 
L 1275 3500 
L 2222 3500 
L 2222 3053 
L 1275 3053 
L 1275 0 
L 697 0 
L 697 3053 
L 147 3053 
L 147 3500 
L 697 3500 
L 697 3744 
Q 697 4328 969 4595 
Q 1241 4863 1831 4863 
L 2375 4863 
z
" transform="scale(0.015625)"/>
      </defs>
      <use xlink:href="#DejaVuSans-66"/>
      <use xlink:href="#DejaVuSans-61" x="35.205078"/>
      <use xlink:href="#DejaVuSans-69" x="96.484375"/>
      <use xlink:href="#DejaVuSans-6c" x="124.267578"/>
     </g>
    </g>
    <g id="line2d_24">
     <path d="M 507.762812 197.8335 
L 517.762812 197.8335 
L 527.762812 197.8335 
" style="fill: none; stroke-dasharray: 6,1.5; stroke-dashoffset: 0; stroke: #008000; stroke-width: 1.5"/>
    </g>
    <g id="text_20">
     <!-- pass -->
     <g transform="translate(535.762812 201.3335) scale(0.1 -0.1)">
      <defs>
       <path id="DejaVuSans-70" d="M 1159 525 
L 1159 -1331 
L 581 -1331 
L 581 3500 
L 1159 3500 
L 1159 2969 
Q 1341 3281 1617 3432 
Q 1894 3584 2278 3584 
Q 2916 3584 3314 3078 
Q 3713 2572 3713 1747 
Q 3713 922 3314 415 
Q 2916 -91 2278 -91 
Q 1894 -91 1617 61 
Q 1341 213 1159 525 
z
M 3116 1747 
Q 3116 2381 2855 2742 
Q 2594 3103 2138 3103 
Q 1681 3103 1420 2742 
Q 1159 2381 1159 1747 
Q 1159 1113 1420 752 
Q 1681 391 2138 391 
Q 2594 391 2855 752 
Q 3116 1113 3116 1747 
z
" transform="scale(0.015625)"/>
      </defs>
      <use xlink:href="#DejaVuSans-70"/>
      <use xlink:href="#DejaVuSans-61" x="63.476562"/>
      <use xlink:href="#DejaVuSans-73" x="124.755859"/>
      <use xlink:href="#DejaVuSans-73" x="176.855469"/>
     </g>
    </g>
    <g id="line2d_25">
     <path d="M 507.762812 212.511625 
L 517.762812 212.511625 
L 527.762812 212.511625 
" style="fill: none; stroke-dasharray: 9,3; stroke-dashoffset: 0; stroke: #ffa500; stroke-width: 1.5"/>
    </g>
    <g id="text_21">
     <!-- error -->
     <g transform="translate(535.762812 216.011625) scale(0.1 -0.1)">
      <use xlink:href="#DejaVuSans-65"/>
      <use xlink:href="#DejaVuSans-72" x="61.523438"/>
      <use xlink:href="#DejaVuSans-72" x="100.886719"/>
      <use xlink:href="#DejaVuSans-6f" x="139.75"/>
      <use xlink:href="#DejaVuSans-72" x="200.931641"/>
     </g>
    </g>
    <g id="line2d_26">
     <path d="M 507.762812 227.18975 
L 517.762812 227.18975 
L 527.762812 227.18975 
" style="fill: none; stroke-dasharray: 12,4.5; stroke-dashoffset: 0; stroke: #ee82ee; stroke-width: 1.5"/>
    </g>
    <g id="text_22">
     <!-- skip -->
     <g transform="translate(535.762812 230.68975) scale(0.1 -0.1)">
      <defs>
       <path id="DejaVuSans-6b" d="M 581 4863 
L 1159 4863 
L 1159 1991 
L 2875 3500 
L 3609 3500 
L 1753 1863 
L 3688 0 
L 2938 0 
L 1159 1709 
L 1159 0 
L 581 0 
L 581 4863 
z
" transform="scale(0.015625)"/>
      </defs>
      <use xlink:href="#DejaVuSans-73"/>
      <use xlink:href="#DejaVuSans-6b" x="52.099609"/>
      <use xlink:href="#DejaVuSans-69" x="110.009766"/>
      <use xlink:href="#DejaVuSans-70" x="137.792969"/>
     </g>
    </g>
   </g>
  </g>
 </g>
 <defs>
  <clipPath id="p2ebaafad85">
   <rect x="33.2875" y="22.318125" width="535.68" height="352.512"/>
  </clipPath>
 </defs>
</svg>
