<?xml version="1.0" encoding="utf-8" standalone="no"?>
<!DOCTYPE svg PUBLIC "-//W3C//DTD SVG 1.1//EN"
  "http://www.w3.org/Graphics/SVG/1.1/DTD/svg11.dtd">
<svg xmlns:xlink="http://www.w3.org/1999/xlink" width="576.1675pt" height="418.303033pt" viewBox="0 0 576.1675 418.303033" xmlns="http://www.w3.org/2000/svg" version="1.1">
 <metadata>
  <rdf:RDF xmlns:dc="http://purl.org/dc/elements/1.1/" xmlns:cc="http://creativecommons.org/ns#" xmlns:rdf="http://www.w3.org/1999/02/22-rdf-syntax-ns#">
   <cc:Work>
    <dc:type rdf:resource="http://purl.org/dc/dcmitype/StillImage"/>
    <dc:date>2025-11-29T02:31:09.198092</dc:date>
    <dc:format>image/svg+xml</dc:format>
    <dc:creator>
     <cc:Agent>
      <dc:title>Matplotlib v3.6.3, https://matplotlib.org/</dc:title>
     </cc:Agent>
    </dc:creator>
   </cc:Work>
  </rdf:RDF>
 </metadata>
 <defs>
  <style type="text/css">*{stroke-linejoin: round; stroke-linecap: butt}</style>
 </defs>
 <g id="figure_1">
  <g id="patch_1">
   <path d="M -0 418.303033 
L 576.1675 418.303033 
L 576.1675 0 
L -0 0 
z
" style="fill: #ffffff"/>
  </g>
  <g id="axes_1">
   <g id="patch_2">
    <path d="M 33.2875 374.830125 
L 568.9675 374.830125 
L 568.9675 22.318125 
L 33.2875 22.318125 
z
" style="fill: #ffffff"/>
   </g>
   <g id="matplotlib.axis_1">
    <g id="xtick_1">
     <g id="line2d_1">
      <defs>
       <path id="m53b8015ca7" d="M 0 0 
L 0 3.5 
" style="stroke: #000000; stroke-width: 0.8"/>
      </defs>
      <g>
       <use xlink:href="#m53b8015ca7" x="60.81954" y="374.830125" style="stroke: #000000; stroke-width: 0.8"/>
      </g>
     </g>
     <g id="text_1">
      <!-- 2021-07 -->
      <g transform="translate(23.59472 409.301971) rotate(-30) scale(0.1 -0.1)">
       <defs>
        <path id="DejaVuSans-32" d="M 1228 531 
L 3431 531 
L 3431 0 
L 469 0 
L 469 531 
Q 828 903 1448 1529 
Q 2069 2156 2228 2338 
Q 2531 2678 2651 2914 
Q 2772 3150 2772 3378 
Q 2772 3750 2511 3984 
Q 2250 4219 1831 4219 
Q 1534 4219 1204 4116 
Q 875 4013 500 3803 
L 500 4441 
Q 881 4594 1212 4672 
Q 1544 4750 1819 4750 
Q 2544 4750 2975 4387 
Q 3406 4025 3406 3419 
Q 3406 3131 3298 2873 
Q 3191 2616 2906 2266 
Q 2828 2175 2409 1742 
Q 1991 1309 1228 531 
z
" transform="scale(0.015625)"/>
        <path id="DejaVuSans-30" d="M 2034 4250 
Q 1547 4250 1301 3770 
Q 1056 3291 1056 2328 
Q 1056 1369 1301 889 
Q 1547 409 2034 409 
Q 2525 409 2770 889 
Q 3016 1369 3016 2328 
Q 3016 3291 2770 3770 
Q 2525 4250 2034 4250 
z
M 2034 4750 
Q 2819 4750 3233 4129 
Q 3647 3509 3647 2328 
Q 3647 1150 3233 529 
Q 2819 -91 2034 -91 
Q 1250 -91 836 529 
Q 422 1150 422 2328 
Q 422 3509 836 4129 
Q 1250 4750 2034 4750 
z
" transform="scale(0.015625)"/>
        <path id="DejaVuSans-31" d="M 794 531 
L 1825 531 
L 1825 4091 
L 703 3866 
L 703 4441 
L 1819 4666 
L 2450 4666 
L 2450 531 
L 3481 531 
L 3481 0 
L 794 0 
L 794 531 
z
" transform="scale(0.015625)"/>
        <path id="DejaVuSans-2d" d="M 313 2009 
L 1997 2009 
L 1997 1497 
L 313 1497 
L 313 2009 
z
" transform="scale(0.015625)"/>
        <path id="DejaVuSans-37" d="M 525 4666 
L 3525 4666 
L 3525 4397 
L 1831 0 
L 1172 0 
L 2766 4134 
L 525 4134 
L 525 4666 
z
" transform="scale(0.015625)"/>
       </defs>
       <use xlink:href="#DejaVuSans-32"/>
       <use xlink:href="#DejaVuSans-30" x="63.623047"/>
       <use xlink:href="#DejaVuSans-32" x="127.246094"/>
       <use xlink:href="#DejaVuSans-31" x="190.869141"/>
       <use xlink:href="#DejaVuSans-2d" x="254.492188"/>
       <use xlink:href="#DejaVuSans-30" x="290.576172"/>
       <use xlink:href="#DejaVuSans-37" x="354.199219"/>
      </g>
     </g>
    </g>
    <g id="xtick_2">
     <g id="line2d_2">
      <g>
       <use xlink:href="#m53b8015ca7" x="118.226568" y="374.830125" style="stroke: #000000; stroke-width: 0.8"/>
      </g>
     </g>
     <g id="text_2">
      <!-- 2022-01 -->
      <g transform="translate(81.001747 409.301971) rotate(-30) scale(0.1 -0.1)">
       <use xlink:href="#DejaVuSans-32"/>
       <use xlink:href="#DejaVuSans-30" x="63.623047"/>
       <use xlink:href="#DejaVuSans-32" x="127.246094"/>
       <use xlink:href="#DejaVuSans-32" x="190.869141"/>
       <use xlink:href="#DejaVuSans-2d" x="254.492188"/>
       <use xlink:href="#DejaVuSans-30" x="290.576172"/>
       <use xlink:href="#DejaVuSans-31" x="354.199219"/>
      </g>
     </g>
    </g>
    <g id="xtick_3">
     <g id="line2d_3">
      <g>
       <use xlink:href="#m53b8015ca7" x="174.697612" y="374.830125" style="stroke: #000000; stroke-width: 0.8"/>
      </g>
     </g>
     <g id="text_3">
      <!-- 2022-07 -->
      <g transform="translate(137.472791 409.301971) rotate(-30) scale(0.1 -0.1)">
       <use xlink:href="#DejaVuSans-32"/>
       <use xlink:href="#DejaVuSans-30" x="63.623047"/>
       <use xlink:href="#DejaVuSans-32" x="127.246094"/>
       <use xlink:href="#DejaVuSans-32" x="190.869141"/>
       <use xlink:href="#DejaVuSans-2d" x="254.492188"/>
       <use xlink:href="#DejaVuSans-30" x="290.576172"/>
       <use xlink:href="#DejaVuSans-37" x="354.199219"/>
      </g>
     </g>
    </g>
    <g id="xtick_4">
     <g id="line2d_4">
      <g>
       <use xlink:href="#m53b8015ca7" x="232.10464" y="374.830125" style="stroke: #000000; stroke-width: 0.8"/>
      </g>
     </g>
     <g id="text_4">
      <!-- 2023-01 -->
      <g transform="translate(194.879819 409.301971) rotate(-30) scale(0.1 -0.1)">
       <defs>
        <path id="DejaVuSans-33" d="M 2597 2516 
Q 3050 2419 3304 2112 
Q 3559 1806 3559 1356 
Q 3559 666 3084 287 
Q 2609 -91 1734 -91 
Q 1441 -91 1130 -33 
Q 819 25 488 141 
L 488 750 
Q 750 597 1062 519 
Q 1375 441 1716 441 
Q 2309 441 2620 675 
Q 2931 909 2931 1356 
Q 2931 1769 2642 2001 
Q 2353 2234 1838 2234 
L 1294 2234 
L 1294 2753 
L 1863 2753 
Q 2328 2753 2575 2939 
Q 2822 3125 2822 3475 
Q 2822 3834 2567 4026 
Q 2313 4219 1838 4219 
Q 1578 4219 1281 4162 
Q 984 4106 628 3988 
L 628 4550 
Q 988 4650 1302 4700 
Q 1616 4750 1894 4750 
Q 2613 4750 3031 4423 
Q 3450 4097 3450 3541 
Q 3450 3153 3228 2886 
Q 3006 2619 2597 2516 
z
" transform="scale(0.015625)"/>
       </defs>
       <use xlink:href="#DejaVuSans-32"/>
       <use xlink:href="#DejaVuSans-30" x="63.623047"/>
       <use xlink:href="#DejaVuSans-32" x="127.246094"/>
       <use xlink:href="#DejaVuSans-33" x="190.869141"/>
       <use xlink:href="#DejaVuSans-2d" x="254.492188"/>
       <use xlink:href="#DejaVuSans-30" x="290.576172"/>
       <use xlink:href="#DejaVuSans-31" x="354.199219"/>
      </g>
     </g>
    </g>
    <g id="xtick_5">
     <g id="line2d_5">
      <g>
       <use xlink:href="#m53b8015ca7" x="288.575684" y="374.830125" style="stroke: #000000; stroke-width: 0.8"/>
      </g>
     </g>
     <g id="text_5">
      <!-- 2023-07 -->
      <g transform="translate(251.350863 409.301971) rotate(-30) scale(0.1 -0.1)">
       <use xlink:href="#DejaVuSans-32"/>
       <use xlink:href="#DejaVuSans-30" x="63.623047"/>
       <use xlink:href="#DejaVuSans-32" x="127.246094"/>
       <use xlink:href="#DejaVuSans-33" x="190.869141"/>
       <use xlink:href="#DejaVuSans-2d" x="254.492188"/>
       <use xlink:href="#DejaVuSans-30" x="290.576172"/>
       <use xlink:href="#DejaVuSans-37" x="354.199219"/>
      </g>
     </g>
    </g>
    <g id="xtick_6">
     <g id="line2d_6">
      <g>
       <use xlink:href="#m53b8015ca7" x="345.982711" y="374.830125" style="stroke: #000000; stroke-width: 0.8"/>
      </g>
     </g>
     <g id="text_6">
      <!-- 2024-01 -->
      <g transform="translate(308.757891 409.301971) rotate(-30) scale(0.1 -0.1)">
       <defs>
        <path id="DejaVuSans-34" d="M 2419 4116 
L 825 1625 
L 2419 1625 
L 2419 4116 
z
M 2253 4666 
L 3047 4666 
L 3047 1625 
L 3713 1625 
L 3713 1100 
L 3047 1100 
L 3047 0 
L 2419 0 
L 2419 1100 
L 313 1100 
L 313 1709 
L 2253 4666 
z
" transform="scale(0.015625)"/>
       </defs>
       <use xlink:href="#DejaVuSans-32"/>
       <use xlink:href="#DejaVuSans-30" x="63.623047"/>
       <use xlink:href="#DejaVuSans-32" x="127.246094"/>
       <use xlink:href="#DejaVuSans-34" x="190.869141"/>
       <use xlink:href="#DejaVuSans-2d" x="254.492188"/>
       <use xlink:href="#DejaVuSans-30" x="290.576172"/>
       <use xlink:href="#DejaVuSans-31" x="354.199219"/>
      </g>
     </g>
    </g>
    <g id="xtick_7">
     <g id="line2d_7">
      <g>
       <use xlink:href="#m53b8015ca7" x="402.76575" y="374.830125" style="stroke: #000000; stroke-width: 0.8"/>
      </g>
     </g>
     <g id="text_7">
      <!-- 2024-07 -->
      <g transform="translate(365.540929 409.301971) rotate(-30) scale(0.1 -0.1)">
       <use xlink:href="#DejaVuSans-32"/>
       <use xlink:href="#DejaVuSans-30" x="63.623047"/>
       <use xlink:href="#DejaVuSans-32" x="127.246094"/>
       <use xlink:href="#DejaVuSans-34" x="190.869141"/>
       <use xlink:href="#DejaVuSans-2d" x="254.492188"/>
       <use xlink:href="#DejaVuSans-30" x="290.576172"/>
       <use xlink:href="#DejaVuSans-37" x="354.199219"/>
      </g>
     </g>
    </g>
    <g id="xtick_8">
     <g id="line2d_8">
      <g>
       <use xlink:href="#m53b8015ca7" x="460.172778" y="374.830125" style="stroke: #000000; stroke-width: 0.8"/>
      </g>
     </g>
     <g id="text_8">
      <!-- 2025-01 -->
      <g transform="translate(422.947957 409.301971) rotate(-30) scale(0.1 -0.1)">
       <defs>
        <path id="DejaVuSans-35" d="M 691 4666 
L 3169 4666 
L 3169 4134 
L 1269 4134 
L 1269 2991 
Q 1406 3038 1543 3061 
Q 1681 3084 1819 3084 
Q 2600 3084 3056 2656 
Q 3513 2228 3513 1497 
Q 3513 744 3044 326 
Q 2575 -91 1722 -91 
Q 1428 -91 1123 -41 
Q 819 9 494 109 
L 494 744 
Q 775 591 1075 516 
Q 1375 441 1709 441 
Q 2250 441 2565 725 
Q 2881 1009 2881 1497 
Q 2881 1984 2565 2268 
Q 2250 2553 1709 2553 
Q 1456 2553 1204 2497 
Q 953 2441 691 2322 
L 691 4666 
z
" transform="scale(0.015625)"/>
       </defs>
       <use xlink:href="#DejaVuSans-32"/>
       <use xlink:href="#DejaVuSans-30" x="63.623047"/>
       <use xlink:href="#DejaVuSans-32" x="127.246094"/>
       <use xlink:href="#DejaVuSans-35" x="190.869141"/>
       <use xlink:href="#DejaVuSans-2d" x="254.492188"/>
       <use xlink:href="#DejaVuSans-30" x="290.576172"/>
       <use xlink:href="#DejaVuSans-31" x="354.199219"/>
      </g>
     </g>
    </g>
    <g id="xtick_9">
     <g id="line2d_9">
      <g>
       <use xlink:href="#m53b8015ca7" x="516.643821" y="374.830125" style="stroke: #000000; stroke-width: 0.8"/>
      </g>
     </g>
     <g id="text_9">
      <!-- 2025-07 -->
      <g transform="translate(479.419001 409.301971) rotate(-30) scale(0.1 -0.1)">
       <use xlink:href="#DejaVuSans-32"/>
       <use xlink:href="#DejaVuSans-30" x="63.623047"/>
       <use xlink:href="#DejaVuSans-32" x="127.246094"/>
       <use xlink:href="#DejaVuSans-35" x="190.869141"/>
       <use xlink:href="#DejaVuSans-2d" x="254.492188"/>
       <use xlink:href="#DejaVuSans-30" x="290.576172"/>
       <use xlink:href="#DejaVuSans-37" x="354.199219"/>
      </g>
     </g>
    </g>
   </g>
   <g id="matplotlib.axis_2">
    <g id="ytick_1">
     <g id="line2d_10">
      <defs>
       <path id="m7d30495e0e" d="M 0 0 
L -3.5 0 
" style="stroke: #000000; stroke-width: 0.8"/>
      </defs>
      <g>
       <use xlink:href="#m7d30495e0e" x="33.2875" y="374.830125" style="stroke: #000000; stroke-width: 0.8"/>
      </g>
     </g>
     <g id="text_10">
      <!-- 0 -->
      <g transform="translate(19.925 378.629344) scale(0.1 -0.1)">
       <use xlink:href="#DejaVuSans-30"/>
      </g>
     </g>
    </g>
    <g id="ytick_2">
     <g id="line2d_11">
      <g>
       <use xlink:href="#m7d30495e0e" x="33.2875" y="320.718221" style="stroke: #000000; stroke-width: 0.8"/>
      </g>
     </g>
     <g id="text_11">
      <!-- 100 -->
      <g transform="translate(7.2 324.51744) scale(0.1 -0.1)">
       <use xlink:href="#DejaVuSans-31"/>
       <use xlink:href="#DejaVuSans-30" x="63.623047"/>
       <use xlink:href="#DejaVuSans-30" x="127.246094"/>
      </g>
     </g>
    </g>
    <g id="ytick_3">
     <g id="line2d_12">
      <g>
       <use xlink:href="#m7d30495e0e" x="33.2875" y="266.606317" style="stroke: #000000; stroke-width: 0.8"/>
      </g>
     </g>
     <g id="text_12">
      <!-- 200 -->
      <g transform="translate(7.2 270.405535) scale(0.1 -0.1)">
       <use xlink:href="#DejaVuSans-32"/>
       <use xlink:href="#DejaVuSans-30" x="63.623047"/>
       <use xlink:href="#DejaVuSans-30" x="127.246094"/>
      </g>
     </g>
    </g>
    <g id="ytick_4">
     <g id="line2d_13">
      <g>
       <use xlink:href="#m7d30495e0e" x="33.2875" y="212.494412" style="stroke: #000000; stroke-width: 0.8"/>
      </g>
     </g>
     <g id="text_13">
      <!-- 300 -->
      <g transform="translate(7.2 216.293631) scale(0.1 -0.1)">
       <use xlink:href="#DejaVuSans-33"/>
       <use xlink:href="#DejaVuSans-30" x="63.623047"/>
       <use xlink:href="#DejaVuSans-30" x="127.246094"/>
      </g>
     </g>
    </g>
    <g id="ytick_5">
     <g id="line2d_14">
      <g>
       <use xlink:href="#m7d30495e0e" x="33.2875" y="158.382508" style="stroke: #000000; stroke-width: 0.8"/>
      </g>
     </g>
     <g id="text_14">
      <!-- 400 -->
      <g transform="translate(7.2 162.181727) scale(0.1 -0.1)">
       <use xlink:href="#DejaVuSans-34"/>
       <use xlink:href="#DejaVuSans-30" x="63.623047"/>
       <use xlink:href="#DejaVuSans-30" x="127.246094"/>
      </g>
     </g>
    </g>
    <g id="ytick_6">
     <g id="line2d_15">
      <g>
       <use xlink:href="#m7d30495e0e" x="33.2875" y="104.270604" style="stroke: #000000; stroke-width: 0.8"/>
      </g>
     </g>
     <g id="text_15">
      <!-- 500 -->
      <g transform="translate(7.2 108.069823) scale(0.1 -0.1)">
       <use xlink:href="#DejaVuSans-35"/>
       <use xlink:href="#DejaVuSans-30" x="63.623047"/>
       <use xlink:href="#DejaVuSans-30" x="127.246094"/>
      </g>
     </g>
    </g>
    <g id="ytick_7">
     <g id="line2d_16">
      <g>
       <use xlink:href="#m7d30495e0e" x="33.2875" y="50.1587" style="stroke: #000000; stroke-width: 0.8"/>
      </g>
     </g>
     <g id="text_16">
      <!-- 600 -->
      <g transform="translate(7.2 53.957918) scale(0.1 -0.1)">
       <defs>
        <path id="DejaVuSans-36" d="M 2113 2584 
Q 1688 2584 1439 2293 
Q 1191 2003 1191 1497 
Q 1191 994 1439 701 
Q 1688 409 2113 409 
Q 2538 409 2786 701 
Q 3034 994 3034 1497 
Q 3034 2003 2786 2293 
Q 2538 2584 2113 2584 
z
M 3366 4563 
L 3366 3988 
Q 3128 4100 2886 4159 
Q 2644 4219 2406 4219 
Q 1781 4219 1451 3797 
Q 1122 3375 1075 2522 
Q 1259 2794 1537 2939 
Q 1816 3084 2150 3084 
Q 2853 3084 3261 2657 
Q 3669 2231 3669 1497 
Q 3669 778 3244 343 
Q 2819 -91 2113 -91 
Q 1303 -91 875 529 
Q 447 1150 447 2328 
Q 447 3434 972 4092 
Q 1497 4750 2381 4750 
Q 2619 4750 2861 4703 
Q 3103 4656 3366 4563 
z
" transform="scale(0.015625)"/>
       </defs>
       <use xlink:href="#DejaVuSans-36"/>
       <use xlink:href="#DejaVuSans-30" x="63.623047"/>
       <use xlink:href="#DejaVuSans-30" x="127.246094"/>
      </g>
     </g>
    </g>
   </g>
   <g id="line2d_17">
    <path d="M 38.539265 37.171843 
L 47.816464 37.171843 
L 47.921484 40.418557 
L 49.22035 40.418557 
L 49.695809 49.617581 
L 126.33894 49.617581 
L 126.720531 44.20639 
L 139.474416 44.20639 
L 140.223615 44.747509 
L 146.204861 44.747509 
L 146.414031 55.56989 
L 152.479695 55.56989 
L 153.736742 53.946533 
L 257.653187 53.946533 
L 257.949152 50.1587 
L 266.093662 50.1587 
L 266.384352 49.076462 
L 307.263445 49.076462 
L 307.467021 47.994224 
L 373.526154 47.994224 
L 373.715398 43.665271 
L 423.796498 43.665271 
L 423.882632 43.124152 
L 462.135712 43.124152 
L 462.487255 42.583033 
L 465.966877 42.583033 
L 466.082333 40.418557 
L 467.478755 40.418557 
L 467.841586 40.959676 
L 491.979675 40.959676 
L 492.27767 40.418557 
L 543.101872 40.418557 
L 543.275373 31.760652 
L 557.812965 31.760652 
L 558.090279 25.808343 
L 563.715735 25.808343 
L 563.715735 25.808343 
" clip-path="url(#p7afb04687f)" style="fill: none; stroke: #0000ff; stroke-width: 1.5; stroke-linecap: square"/>
   </g>
   <g id="line2d_18">
    <path d="M 38.539265 175.698317 
L 39.81476 174.616079 
L 41.086138 175.698317 
L 44.096887 175.698317 
L 47.416598 176.780556 
L 47.662871 176.239437 
L 47.816464 176.239437 
L 47.921484 179.486151 
L 48.163868 178.945032 
L 48.522363 179.486151 
L 49.22035 179.486151 
L 49.609094 191.39077 
L 49.695809 188.685175 
L 49.897588 191.931889 
L 49.961756 191.39077 
L 50.187865 191.39077 
L 50.549555 191.931889 
L 51.420057 191.931889 
L 51.446042 192.473008 
L 51.917909 192.473008 
L 52.117643 191.931889 
L 52.7016 195.719722 
L 52.769051 195.178603 
L 53.055794 195.719722 
L 53.610466 197.343079 
L 53.986686 196.260841 
L 54.581351 196.260841 
L 54.913679 197.343079 
L 55.138337 197.343079 
L 55.815163 197.884198 
L 56.118874 197.884198 
L 56.44913 198.966436 
L 56.744445 198.425317 
L 57.072379 199.507555 
L 57.413118 201.672032 
L 58.730638 202.75427 
L 59.290106 202.75427 
L 59.529756 203.295389 
L 59.911592 203.295389 
L 60.192702 203.836508 
L 60.479051 203.295389 
L 60.798315 203.295389 
L 60.985277 203.836508 
L 64.219694 203.836508 
L 64.546133 204.377627 
L 64.858948 204.377627 
L 64.980409 203.836508 
L 65.752982 204.377627 
L 66.076781 203.836508 
L 66.969527 203.836508 
L 67.25615 204.377627 
L 67.608538 203.836508 
L 69.233428 203.836508 
L 69.566345 204.377627 
L 69.749082 206.000984 
L 70.193844 204.918746 
L 71.228038 204.918746 
L 71.741147 205.459865 
L 72.051397 205.459865 
L 72.352718 206.000984 
L 72.68904 206.000984 
L 72.997839 205.459865 
L 73.292912 207.083222 
L 73.55488 207.083222 
L 74.267109 208.16546 
L 78.006524 208.16546 
L 78.303782 209.247698 
L 78.937316 209.247698 
L 79.218508 209.788817 
L 80.16162 209.788817 
L 81.06439 211.953293 
L 82.023944 211.953293 
L 82.367625 212.494412 
L 88.164949 212.494412 
L 88.860947 213.57665 
L 89.018612 212.494412 
L 90.135012 212.494412 
L 90.438174 213.035531 
L 90.772651 212.494412 
L 91.568458 212.494412 
L 92.008024 213.035531 
L 92.334343 212.494412 
L 97.262574 212.494412 
L 97.53189 217.364484 
L 97.71861 212.494412 
L 99.504607 212.494412 
L 99.828825 213.035531 
L 100.013884 217.905603 
L 100.451034 213.035531 
L 100.759782 213.035531 
L 100.964735 212.494412 
L 104.19843 212.494412 
L 104.362188 213.035531 
L 104.656062 213.035531 
L 105.14004 214.658889 
L 110.018041 214.658889 
L 111.082648 215.200008 
L 117.634345 215.200008 
L 117.907164 217.364484 
L 118.255774 217.364484 
L 118.564906 215.200008 
L 118.882952 215.200008 
L 119.102103 217.364484 
L 119.33962 215.200008 
L 119.734337 217.364484 
L 120.083977 218.446722 
L 124.138189 218.446722 
L 124.488118 218.987841 
L 126.33894 218.987841 
L 126.720531 213.035531 
L 126.993114 213.57665 
L 127.30122 215.200008 
L 127.681597 215.200008 
L 128.191618 216.282246 
L 128.543602 216.282246 
L 128.803052 216.823365 
L 129.151554 214.658889 
L 131.703231 220.070079 
L 131.963775 218.446722 
L 132.40064 217.905603 
L 133.788168 217.905603 
L 134.144095 217.364484 
L 134.45796 216.282246 
L 135.714468 216.282246 
L 135.944203 215.200008 
L 136.348287 216.282246 
L 137.260842 216.282246 
L 137.571411 217.364484 
L 137.87098 217.364484 
L 138.225769 217.905603 
L 138.368936 217.905603 
L 138.528942 219.52896 
L 138.745843 219.52896 
L 139.474416 220.070079 
L 140.076411 218.987841 
L 140.223615 218.987841 
L 140.695529 219.52896 
L 140.998312 220.611198 
L 142.563041 220.611198 
L 142.865152 221.152317 
L 143.189576 221.152317 
L 143.489936 221.693436 
L 143.771305 221.693436 
L 144.425111 222.234555 
L 144.762773 222.234555 
L 145.099489 223.857912 
L 145.298574 223.857912 
L 145.648531 223.316793 
L 146.204861 223.316793 
L 146.414031 224.94015 
L 146.930014 224.94015 
L 147.235718 226.022388 
L 147.64399 226.022388 
L 147.854291 226.563507 
L 148.316754 226.563507 
L 148.362774 227.104626 
L 148.597015 227.104626 
L 149.091299 227.645746 
L 150.215387 230.89246 
L 151.616521 230.89246 
L 151.902169 231.974698 
L 152.009728 231.433579 
L 152.134284 231.433579 
L 152.479695 230.89246 
L 153.736742 229.269103 
L 156.881717 229.269103 
L 157.246141 228.727984 
L 158.768296 228.727984 
L 158.984933 228.186865 
L 161.835446 228.186865 
L 162.332604 228.727984 
L 162.715491 228.727984 
L 163.131173 229.269103 
L 163.340333 228.727984 
L 165.34414 228.727984 
L 165.976529 229.810222 
L 167.322393 229.810222 
L 167.548986 237.385888 
L 167.804428 237.385888 
L 169.981332 239.009245 
L 170.115103 238.468126 
L 170.254659 239.009245 
L 170.616898 238.468126 
L 170.92075 238.468126 
L 171.240555 239.009245 
L 171.480712 239.009245 
L 171.866274 240.091484 
L 172.024843 240.091484 
L 172.171592 239.550364 
L 172.500512 240.632603 
L 174.68731 240.632603 
L 174.900051 241.173722 
L 176.07643 241.173722 
L 176.544808 240.632603 
L 176.895727 243.338198 
L 177.14555 241.714841 
L 177.471375 241.714841 
L 177.732537 244.961555 
L 177.915267 244.420436 
L 178.109791 244.961555 
L 178.207766 244.420436 
L 178.327681 246.043793 
L 178.638567 246.043793 
L 179.032468 246.584912 
L 179.803947 246.043793 
L 179.979614 247.126031 
L 180.266703 247.126031 
L 180.470009 245.502674 
L 181.160128 247.126031 
L 181.846343 247.66715 
L 182.448998 247.66715 
L 182.765145 249.290507 
L 183.055741 249.290507 
L 183.227873 248.749388 
L 183.529987 248.749388 
L 184.698465 250.913864 
L 184.893339 249.831626 
L 185.268452 249.290507 
L 185.708415 250.913864 
L 186.891012 250.913864 
L 186.992251 251.454983 
L 187.463468 251.996102 
L 188.719619 251.996102 
L 189.294599 254.701698 
L 192.525705 254.701698 
L 192.780847 255.242817 
L 193.116415 254.160579 
L 193.311776 255.242817 
L 196.834334 255.242817 
L 197.128649 255.783936 
L 197.838397 259.03065 
L 198.104673 257.407293 
L 198.422001 257.948412 
L 198.773374 257.407293 
L 199.020637 257.407293 
L 199.395298 255.783936 
L 199.596195 255.783936 
L 199.635187 256.325055 
L 200.26737 256.325055 
L 200.623196 253.078341 
L 200.936906 253.078341 
L 201.880607 253.61946 
L 201.940319 253.078341 
L 202.452705 252.537221 
L 202.528808 253.078341 
L 204.997723 253.078341 
L 205.169515 253.61946 
L 205.630267 254.160579 
L 206.245528 255.242817 
L 206.405556 256.325055 
L 206.621803 256.325055 
L 206.864054 257.407293 
L 207.155726 256.866174 
L 207.482317 256.866174 
L 207.728402 256.325055 
L 208.075323 256.866174 
L 208.384891 256.866174 
L 208.681593 257.407293 
L 208.921775 257.407293 
L 209.373886 256.866174 
L 209.608925 257.407293 
L 209.852191 256.866174 
L 210.558621 252.537221 
L 211.238155 253.61946 
L 211.337506 257.407293 
L 211.488979 257.407293 
L 211.766138 257.948412 
L 212.088131 257.407293 
L 212.38211 257.407293 
L 212.744252 256.866174 
L 213.057922 257.948412 
L 214.189993 257.948412 
L 214.639898 258.489531 
L 214.897012 258.489531 
L 214.916963 259.03065 
L 216.199749 259.03065 
L 216.564952 260.112888 
L 218.359806 260.112888 
L 218.717604 261.195126 
L 219.936001 261.195126 
L 222.155587 260.654007 
L 222.361493 261.195126 
L 222.916825 261.195126 
L 223.384106 261.736245 
L 223.697122 262.818483 
L 223.790721 262.277364 
L 224.130947 263.359602 
L 224.887808 263.359602 
L 227.953225 264.44184 
L 235.530414 264.44184 
L 235.839058 263.900721 
L 237.320477 263.900721 
L 237.627546 264.44184 
L 238.645125 264.44184 
L 238.996332 264.982959 
L 239.248871 264.44184 
L 239.541958 264.982959 
L 239.866252 264.44184 
L 240.132416 265.524078 
L 240.540063 264.982959 
L 240.837506 265.524078 
L 247.303018 265.524078 
L 247.637001 264.44184 
L 247.990819 264.982959 
L 248.310812 264.44184 
L 248.669237 264.44184 
L 248.956684 263.900721 
L 250.156336 263.900721 
L 250.46095 264.44184 
L 250.805025 263.900721 
L 251.233043 262.818483 
L 251.740071 262.818483 
L 252.090761 262.277364 
L 252.353187 263.359602 
L 252.69077 263.359602 
L 252.951582 262.818483 
L 253.774756 263.900721 
L 254.256319 263.359602 
L 254.542426 263.900721 
L 255.151119 263.900721 
L 255.494663 263.359602 
L 255.832004 264.982959 
L 256.156692 264.44184 
L 256.780038 264.44184 
L 257.017653 263.900721 
L 257.321544 264.44184 
L 257.653187 264.44184 
L 257.949152 259.571769 
L 258.066735 260.112888 
L 258.299315 260.112888 
L 258.461336 260.654007 
L 258.602542 260.654007 
L 258.788454 261.195126 
L 258.914443 260.112888 
L 259.536443 261.195126 
L 260.07085 261.195126 
L 260.330737 262.277364 
L 260.588302 261.195126 
L 260.755992 261.736245 
L 261.701437 261.736245 
L 261.982893 261.195126 
L 262.249819 261.195126 
L 262.585238 261.736245 
L 262.895398 261.736245 
L 263.263068 261.195126 
L 263.617876 261.736245 
L 263.893171 261.736245 
L 264.3264 262.818483 
L 266.093662 262.818483 
L 266.384352 261.195126 
L 267.75403 261.195126 
L 268.068596 261.736245 
L 268.316039 262.277364 
L 268.800512 262.277364 
L 268.95166 263.359602 
L 269.020996 262.818483 
L 269.184927 263.359602 
L 269.646029 263.359602 
L 269.87207 264.44184 
L 270.48753 264.44184 
L 270.774818 265.524078 
L 271.724918 265.524078 
L 271.952768 267.147436 
L 272.163017 267.688555 
L 272.284352 267.688555 
L 272.693647 268.229674 
L 272.837702 267.688555 
L 272.907515 268.229674 
L 273.357538 268.229674 
L 273.886051 268.770793 
L 275.071761 268.770793 
L 275.377563 268.229674 
L 275.670575 268.770793 
L 276.000874 268.770793 
L 276.159171 269.311912 
L 276.197246 268.770793 
L 276.385129 269.311912 
L 276.532077 269.311912 
L 276.677194 270.39415 
L 277.235986 271.476388 
L 277.642887 270.935269 
L 277.952249 271.476388 
L 278.560426 271.476388 
L 278.890512 272.558626 
L 279.011352 272.017507 
L 279.207663 273.640864 
L 279.48584 273.099745 
L 279.666252 273.640864 
L 279.808903 273.099745 
L 279.96654 274.181983 
L 280.28784 274.181983 
L 280.383002 274.723102 
L 280.759959 274.181983 
L 281.051505 275.264221 
L 281.709272 275.264221 
L 281.946056 276.346459 
L 282.281912 275.264221 
L 282.510084 275.264221 
L 282.593737 275.80534 
L 283.207616 275.80534 
L 283.494767 277.969816 
L 283.907733 275.80534 
L 283.971761 276.346459 
L 284.515516 275.80534 
L 284.567006 276.887578 
L 284.754026 276.887578 
L 285.130883 277.428697 
L 285.436721 276.887578 
L 285.667774 276.887578 
L 286.009686 277.969816 
L 286.38166 277.969816 
L 286.742382 277.428697 
L 287.011976 277.969816 
L 287.175784 277.428697 
L 287.338708 278.510935 
L 288.782358 278.510935 
L 289.226063 279.052055 
L 290.131999 279.052055 
L 290.45344 277.969816 
L 291.059266 277.969816 
L 291.362479 278.510935 
L 294.120873 278.510935 
L 294.493136 277.969816 
L 294.842087 279.052055 
L 299.075324 279.052055 
L 300.003981 279.593174 
L 300.555551 279.593174 
L 301.003502 280.134293 
L 301.357504 280.134293 
L 301.565526 280.675412 
L 306.277542 280.675412 
L 306.660259 280.134293 
L 306.963684 280.675412 
L 307.263445 280.134293 
L 307.467021 276.887578 
L 309.328539 276.887578 
L 309.49463 277.428697 
L 309.81658 277.428697 
L 309.923048 276.887578 
L 311.84998 276.887578 
L 312.117299 277.428697 
L 312.218325 276.887578 
L 312.67621 276.887578 
L 312.887865 277.969816 
L 313.154663 276.887578 
L 313.353856 277.969816 
L 313.495236 277.969816 
L 313.677583 276.887578 
L 313.837062 277.969816 
L 313.939262 276.887578 
L 313.980424 277.969816 
L 315.077248 277.969816 
L 315.251355 278.510935 
L 315.276888 279.052055 
L 315.835417 279.052055 
L 315.868335 279.593174 
L 316.190148 279.593174 
L 316.356784 280.134293 
L 316.498857 279.593174 
L 316.673397 280.134293 
L 316.791431 279.593174 
L 317.068265 280.134293 
L 317.185343 279.593174 
L 317.201397 280.134293 
L 317.552305 280.134293 
L 317.772171 280.675412 
L 317.910842 280.675412 
L 318.118507 281.75765 
L 318.348928 282.298769 
L 318.508067 281.75765 
L 320.280583 281.75765 
L 320.534021 282.298769 
L 321.892458 282.298769 
L 322.109154 282.839888 
L 322.395586 282.839888 
L 322.608132 283.381007 
L 322.838203 282.839888 
L 323.28732 282.839888 
L 323.476991 283.922126 
L 323.993244 283.922126 
L 324.04282 284.463245 
L 324.226301 283.922126 
L 324.426242 285.004364 
L 324.634462 285.545483 
L 324.692658 285.004364 
L 324.928687 287.16884 
L 325.884604 287.16884 
L 325.980705 287.709959 
L 326.19012 287.709959 
L 326.312795 288.792197 
L 326.456768 287.709959 
L 327.725784 287.709959 
L 327.799215 288.251078 
L 328.042625 287.709959 
L 328.159168 288.251078 
L 328.374643 287.709959 
L 328.654536 287.709959 
L 328.826176 288.792197 
L 329.139056 288.792197 
L 329.267396 288.251078 
L 329.377356 289.333316 
L 329.702101 287.709959 
L 330.04241 288.792197 
L 330.288933 287.709959 
L 330.866022 287.709959 
L 331.315143 289.333316 
L 331.454894 288.792197 
L 331.60966 289.333316 
L 332.027267 288.251078 
L 332.160988 289.333316 
L 333.152059 289.333316 
L 333.311808 289.874435 
L 333.590195 289.874435 
L 333.738598 289.333316 
L 333.925896 289.874435 
L 334.044327 289.333316 
L 334.405104 290.415554 
L 334.897665 290.415554 
L 335.245052 291.497793 
L 336.749657 291.497793 
L 336.914162 292.038912 
L 337.115385 291.497793 
L 337.214945 292.038912 
L 337.420099 291.497793 
L 337.692568 291.497793 
L 337.86831 292.038912 
L 337.983864 291.497793 
L 338.351747 291.497793 
L 338.465535 292.038912 
L 338.981315 292.038912 
L 339.016082 293.12115 
L 341.222048 293.12115 
L 341.439671 293.662269 
L 341.582513 293.12115 
L 341.703531 293.662269 
L 341.795453 293.12115 
L 341.816015 293.662269 
L 341.905717 294.203388 
L 342.413748 294.203388 
L 342.653396 294.744507 
L 342.701964 294.203388 
L 342.751724 294.744507 
L 343.025384 294.203388 
L 343.09611 294.744507 
L 343.363732 295.285626 
L 343.468554 295.826745 
L 343.668664 295.826745 
L 343.714676 296.367864 
L 343.993294 297.991221 
L 344.118698 297.450102 
L 344.287952 297.450102 
L 344.318443 298.53234 
L 345.507598 298.53234 
L 345.655297 299.073459 
L 345.888261 298.53234 
L 346.291796 299.073459 
L 346.399647 298.53234 
L 346.576205 299.073459 
L 346.793193 299.073459 
L 346.922321 299.614578 
L 347.223085 299.614578 
L 347.230459 300.155697 
L 347.323173 299.614578 
L 347.412048 300.696816 
L 347.543407 300.696816 
L 347.725242 301.237935 
L 348.972599 301.237935 
L 349.005518 300.696816 
L 349.084044 301.779054 
L 349.412996 301.779054 
L 349.580993 301.237935 
L 349.710312 301.779054 
L 349.905009 301.237935 
L 350.050884 301.779054 
L 350.214779 301.779054 
L 350.35561 301.237935 
L 350.495249 302.861292 
L 352.16688 302.861292 
L 352.669574 303.94353 
L 352.934185 303.402411 
L 359.248868 303.402411 
L 359.35608 303.94353 
L 359.547837 303.402411 
L 359.603104 303.94353 
L 360.176091 303.94353 
L 360.334754 304.48465 
L 361.138942 304.48465 
L 361.246392 305.025769 
L 361.39785 304.48465 
L 362.629746 304.48465 
L 362.800617 305.025769 
L 363.134614 304.48465 
L 363.323959 305.566888 
L 363.42812 305.025769 
L 363.889796 305.025769 
L 364.090957 305.566888 
L 365.037828 305.566888 
L 365.192071 304.48465 
L 365.504607 305.566888 
L 367.186215 305.566888 
L 367.473492 306.108007 
L 367.512658 306.108007 
L 367.678542 306.649126 
L 367.802531 306.649126 
L 367.956012 307.190245 
L 368.315113 307.190245 
L 368.378728 307.731364 
L 368.678092 307.731364 
L 368.867188 306.649126 
L 369.014844 307.190245 
L 369.240863 307.190245 
L 369.333024 307.731364 
L 369.678797 307.731364 
L 369.988058 308.272483 
L 370.32529 309.89584 
L 370.435702 309.354721 
L 370.538508 309.89584 
L 370.77448 310.436959 
L 370.886375 309.89584 
L 371.186724 310.436959 
L 371.385361 309.89584 
L 371.547591 309.89584 
L 371.865418 311.519197 
L 372.171728 310.978078 
L 372.488952 312.060316 
L 372.551243 311.519197 
L 372.757419 312.060316 
L 372.900186 311.519197 
L 373.017884 312.060316 
L 373.526154 312.060316 
L 373.715398 304.48465 
L 374.220822 305.566888 
L 374.554538 305.566888 
L 374.671265 306.108007 
L 375.10787 305.025769 
L 375.266647 305.566888 
L 375.484748 305.566888 
L 375.592061 305.025769 
L 375.728403 305.566888 
L 375.914354 305.025769 
L 375.987442 305.566888 
L 376.373951 306.108007 
L 376.657967 305.025769 
L 376.915269 305.566888 
L 378.05839 305.566888 
L 378.329627 306.108007 
L 378.614416 305.566888 
L 379.126679 305.566888 
L 379.519406 306.649126 
L 379.654113 305.025769 
L 379.88084 305.566888 
L 380.169868 305.025769 
L 380.302083 306.649126 
L 380.461713 305.566888 
L 380.612576 305.566888 
L 380.713046 306.108007 
L 380.788026 308.272483 
L 380.801484 307.731364 
L 381.134098 308.272483 
L 381.955049 308.272483 
L 382.343392 309.354721 
L 382.503589 308.813602 
L 383.078699 308.813602 
L 383.235397 308.272483 
L 383.402874 308.813602 
L 383.586575 308.813602 
L 383.694495 308.272483 
L 384.022815 308.813602 
L 384.215692 308.813602 
L 384.34214 309.354721 
L 384.496791 308.813602 
L 384.662935 308.813602 
L 384.818636 308.272483 
L 384.915084 308.813602 
L 385.782408 308.813602 
L 385.999396 310.436959 
L 386.261746 309.89584 
L 386.478726 309.89584 
L 386.65439 309.354721 
L 386.734259 309.89584 
L 387.006359 309.354721 
L 387.108082 309.89584 
L 387.347791 309.89584 
L 387.44157 310.436959 
L 387.728034 309.89584 
L 388.318336 309.89584 
L 388.537187 310.436959 
L 388.901755 310.436959 
L 388.993678 310.978078 
L 389.14904 310.436959 
L 389.780562 312.060316 
L 389.928305 312.060316 
L 390.206294 312.601435 
L 392.467577 312.601435 
L 392.708481 313.142554 
L 392.93437 313.142554 
L 392.98036 312.060316 
L 393.037318 312.601435 
L 393.405854 312.601435 
L 393.489974 313.142554 
L 393.974894 313.142554 
L 394.206482 313.683673 
L 394.517523 313.683673 
L 394.527869 313.142554 
L 394.631268 313.683673 
L 394.726357 313.142554 
L 396.080765 313.142554 
L 396.334723 312.601435 
L 397.043149 313.142554 
L 398.512247 313.142554 
L 398.575816 313.683673 
L 400.117406 313.683673 
L 400.256269 314.224792 
L 401.681926 316.930387 
L 401.817044 316.930387 
L 401.958012 317.471507 
L 402.02079 316.930387 
L 402.324382 317.471507 
L 402.606437 318.012626 
L 402.94376 318.012626 
L 403.057039 318.553745 
L 403.483334 318.553745 
L 404.100773 318.012626 
L 404.131879 319.635983 
L 404.628802 319.635983 
L 404.782817 319.094864 
L 404.894684 319.635983 
L 406.036328 319.635983 
L 406.30135 319.094864 
L 407.525681 319.094864 
L 408.281683 319.635983 
L 409.808854 319.635983 
L 410.560858 320.177102 
L 410.661433 320.718221 
L 412.923066 320.718221 
L 413.135537 320.177102 
L 414.283674 320.177102 
L 415.122015 319.635983 
L 415.732925 319.635983 
L 416.036095 320.177102 
L 416.305252 321.25934 
L 416.465503 321.25934 
L 416.471757 320.718221 
L 418.269287 320.718221 
L 418.462208 321.25934 
L 423.003262 321.25934 
L 423.575837 321.800459 
L 423.796498 321.800459 
L 423.882632 322.341578 
L 424.163272 322.341578 
L 424.281129 321.800459 
L 424.463827 322.341578 
L 425.489621 322.341578 
L 425.946867 322.882697 
L 426.264488 323.964935 
L 429.046249 323.964935 
L 429.535864 323.423816 
L 429.677526 323.964935 
L 429.82083 323.423816 
L 429.981926 323.964935 
L 430.744873 323.964935 
L 431.096629 323.423816 
L 431.275126 323.964935 
L 431.767313 322.882697 
L 431.959139 323.964935 
L 433.150204 323.964935 
L 433.164294 324.506054 
L 435.051873 324.506054 
L 435.969636 325.047173 
L 436.245054 324.506054 
L 436.756765 324.506054 
L 436.880812 325.047173 
L 437.318042 323.423816 
L 437.606716 323.964935 
L 438.130687 323.423816 
L 438.282261 323.423816 
L 438.412811 323.964935 
L 439.205339 323.964935 
L 440.146996 323.423816 
L 440.288733 323.964935 
L 441.225732 323.964935 
L 441.529949 323.423816 
L 446.298954 323.964935 
L 446.65604 323.423816 
L 446.964647 323.964935 
L 447.241182 323.423816 
L 447.272121 323.964935 
L 447.51287 324.506054 
L 447.652296 324.506054 
L 447.779835 325.047173 
L 449.99711 325.047173 
L 450.044357 325.588292 
L 450.319966 325.588292 
L 451.055884 325.047173 
L 451.079294 325.588292 
L 451.36204 325.047173 
L 451.430762 326.129411 
L 451.612751 326.129411 
L 451.981967 326.67053 
L 452.600702 326.67053 
L 452.976403 326.129411 
L 453.398827 327.211649 
L 453.416153 327.752768 
L 453.826509 328.293887 
L 454.128321 327.752768 
L 454.552706 327.752768 
L 454.640927 328.293887 
L 455.60719 328.293887 
L 455.740304 327.752768 
L 455.903267 328.835006 
L 456.037584 328.835006 
L 456.292506 328.293887 
L 456.524346 328.835006 
L 457.041355 328.835006 
L 457.269049 329.917245 
L 458.89296 329.917245 
L 459.087105 330.458364 
L 459.205984 330.458364 
L 459.401598 329.917245 
L 459.452048 330.458364 
L 459.970212 330.458364 
L 460.074431 330.999483 
L 460.35749 330.999483 
L 460.438338 332.081721 
L 460.879969 332.081721 
L 461.045901 333.705078 
L 461.391402 333.705078 
L 461.593469 333.163959 
L 461.702635 333.705078 
L 461.849587 333.705078 
L 461.86081 335.328435 
L 462.135712 335.328435 
L 462.487255 334.787316 
L 462.646737 334.787316 
L 462.782975 335.328435 
L 463.121778 335.328435 
L 463.472858 334.787316 
L 463.508969 335.869554 
L 463.819823 335.869554 
L 463.877123 336.410673 
L 464.093717 336.951792 
L 464.665892 336.951792 
L 464.749989 338.03403 
L 464.995537 338.03403 
L 465.139495 338.575149 
L 465.277632 338.575149 
L 465.773003 339.116268 
L 465.966877 338.575149 
L 466.082333 330.999483 
L 466.20755 330.458364 
L 466.292355 332.62284 
L 466.903215 332.62284 
L 467.154291 332.081721 
L 467.337227 333.163959 
L 467.478755 333.163959 
L 467.841586 333.705078 
L 468.240654 333.705078 
L 468.422745 333.163959 
L 468.565316 333.705078 
L 469.527538 333.705078 
L 469.646017 334.246197 
L 470.084702 333.163959 
L 470.441419 333.705078 
L 470.645834 333.705078 
L 470.724345 334.246197 
L 470.904814 333.163959 
L 471.080243 334.246197 
L 471.808129 334.246197 
L 471.92095 333.705078 
L 472.18023 333.705078 
L 472.221017 334.246197 
L 472.514595 334.787316 
L 472.526053 334.246197 
L 473.078161 334.246197 
L 473.362329 334.787316 
L 474.836959 334.787316 
L 474.947529 335.328435 
L 475.23997 334.787316 
L 475.249735 335.328435 
L 475.669656 335.869554 
L 475.927673 335.869554 
L 476.224588 336.410673 
L 476.486187 336.951792 
L 476.842861 335.869554 
L 476.91332 336.951792 
L 477.153162 336.410673 
L 477.355038 336.951792 
L 478.255999 336.951792 
L 478.356946 337.492911 
L 478.482758 336.951792 
L 478.918745 337.492911 
L 479.129338 336.951792 
L 479.342766 337.492911 
L 479.470998 336.951792 
L 479.769639 338.03403 
L 479.975978 337.492911 
L 480.681732 337.492911 
L 480.962509 338.03403 
L 481.372486 338.03403 
L 481.698673 336.951792 
L 481.785612 337.492911 
L 482.134136 337.492911 
L 482.222585 338.575149 
L 482.662151 337.492911 
L 482.815657 338.03403 
L 483.169825 337.492911 
L 483.428351 337.492911 
L 483.560797 338.03403 
L 483.745621 338.03403 
L 483.877378 334.787316 
L 484.29197 335.328435 
L 484.34568 334.246197 
L 484.494535 335.328435 
L 484.631004 334.787316 
L 484.712913 335.328435 
L 485.037854 334.787316 
L 485.427735 335.328435 
L 485.624126 335.328435 
L 485.893712 334.787316 
L 486.27691 334.787316 
L 486.669803 335.869554 
L 486.875607 335.328435 
L 487.291766 335.328435 
L 487.486377 334.787316 
L 487.515027 334.246197 
L 487.757465 335.328435 
L 487.886037 334.787316 
L 488.037268 335.328435 
L 488.261983 334.787316 
L 488.51632 334.787316 
L 488.67971 334.246197 
L 488.989574 334.246197 
L 489.312181 335.328435 
L 489.531087 334.787316 
L 489.797669 335.869554 
L 489.936499 335.869554 
L 490.023641 335.328435 
L 490.294766 335.328435 
L 490.317523 335.869554 
L 491.216313 335.869554 
L 491.363557 336.410673 
L 491.489677 336.410673 
L 491.684096 336.951792 
L 491.851786 336.410673 
L 491.979675 336.951792 
L 492.170338 336.410673 
L 492.27767 336.951792 
L 492.4162 336.410673 
L 492.460833 336.951792 
L 492.61419 338.03403 
L 492.801553 337.492911 
L 492.860518 336.951792 
L 493.058115 337.492911 
L 493.219594 336.951792 
L 493.529332 337.492911 
L 493.733179 337.492911 
L 493.821989 338.03403 
L 494.042332 337.492911 
L 494.62101 339.116268 
L 494.776675 339.116268 
L 494.937688 338.03403 
L 495.013809 338.575149 
L 495.241453 338.575149 
L 495.345025 338.03403 
L 495.531168 338.03403 
L 495.700638 338.575149 
L 495.918507 338.575149 
L 496.284285 340.198506 
L 496.478888 339.657387 
L 499.036981 339.657387 
L 499.156023 340.198506 
L 499.306983 340.198506 
L 499.428383 339.657387 
L 499.671955 340.198506 
L 500.278785 338.03403 
L 500.380299 339.116268 
L 501.02239 338.03403 
L 501.471923 338.03403 
L 502.087043 339.116268 
L 503.174457 338.575149 
L 503.450612 339.116268 
L 503.754843 338.575149 
L 503.972123 339.657387 
L 504.059269 338.575149 
L 504.345694 339.657387 
L 504.657764 338.575149 
L 504.761069 339.657387 
L 504.961186 339.657387 
L 505.071193 339.116268 
L 505.270588 339.657387 
L 505.390251 339.657387 
L 505.501714 339.116268 
L 505.637142 340.739625 
L 505.992318 339.657387 
L 506.324517 339.657387 
L 506.527501 340.198506 
L 506.910579 340.198506 
L 507.222115 339.657387 
L 507.404242 339.657387 
L 507.541924 340.739625 
L 507.713666 340.198506 
L 507.80955 340.739625 
L 508.041069 341.280744 
L 508.183027 341.280744 
L 508.431218 340.198506 
L 508.668547 341.821863 
L 508.966845 341.821863 
L 508.989486 342.904102 
L 509.010318 342.362982 
L 509.166326 341.821863 
L 509.330322 342.904102 
L 509.398726 341.821863 
L 509.645939 341.821863 
L 509.679623 342.362982 
L 509.958146 342.904102 
L 510.12484 342.904102 
L 510.202972 341.821863 
L 510.576752 342.904102 
L 510.637284 341.821863 
L 510.840871 342.904102 
L 510.997482 341.280744 
L 511.473563 342.362982 
L 511.832209 340.739625 
L 511.859942 341.280744 
L 512.087113 340.739625 
L 512.230732 340.739625 
L 512.379829 341.821863 
L 512.557882 340.739625 
L 512.900202 341.821863 
L 513.030078 340.739625 
L 513.170699 341.280744 
L 513.457258 341.280744 
L 513.646498 340.739625 
L 514.008755 340.739625 
L 514.019812 341.280744 
L 514.589961 340.198506 
L 514.892339 341.821863 
L 515.052822 341.821863 
L 515.239863 341.280744 
L 515.292733 342.362982 
L 515.558257 341.280744 
L 515.721754 342.362982 
L 515.886577 341.280744 
L 515.954692 341.821863 
L 516.292726 341.821863 
L 516.495302 342.362982 
L 516.587955 343.445221 
L 516.776574 342.362982 
L 517.086897 342.904102 
L 517.224171 343.445221 
L 517.393786 342.904102 
L 517.538603 345.068578 
L 517.765915 345.068578 
L 518.066524 345.609697 
L 518.10279 344.527459 
L 518.398651 345.609697 
L 518.819793 344.527459 
L 518.933588 346.150816 
L 519.275071 346.691935 
L 519.647002 345.609697 
L 519.882731 345.068578 
L 520.537999 345.609697 
L 520.616485 346.150816 
L 520.861632 346.150816 
L 521.313544 346.691935 
L 521.537437 346.691935 
L 521.816423 347.233054 
L 522.098623 348.856411 
L 522.823148 348.315292 
L 523.056533 348.315292 
L 523.380159 346.691935 
L 523.687795 346.691935 
L 523.767094 346.150816 
L 524.000823 347.233054 
L 524.052894 346.150816 
L 524.308705 346.691935 
L 524.772746 346.691935 
L 525.010877 347.774173 
L 525.229446 346.691935 
L 525.527968 347.774173 
L 525.644349 347.233054 
L 525.803784 347.774173 
L 526.220041 346.691935 
L 526.460627 347.233054 
L 527.164326 347.233054 
L 527.332291 346.691935 
L 527.739859 347.774173 
L 527.905523 346.691935 
L 528.048416 346.691935 
L 528.103979 347.233054 
L 528.306556 347.233054 
L 528.525039 347.774173 
L 528.67454 346.691935 
L 528.906662 347.774173 
L 529.008602 346.691935 
L 529.293239 347.774173 
L 529.468263 347.774173 
L 529.581209 347.233054 
L 529.766297 347.233054 
L 529.8186 346.691935 
L 529.829339 347.233054 
L 530.145313 347.233054 
L 530.252222 346.691935 
L 530.54207 347.774173 
L 530.808984 346.691935 
L 531.266411 347.233054 
L 532.243925 347.233054 
L 532.478348 346.691935 
L 532.727571 347.233054 
L 532.887996 346.691935 
L 532.987094 347.233054 
L 533.681336 347.233054 
L 533.893294 346.691935 
L 534.379963 347.774173 
L 534.498293 347.233054 
L 534.887561 347.774173 
L 535.312693 347.233054 
L 535.538489 347.774173 
L 536.069717 346.691935 
L 536.209104 346.150816 
L 536.440045 346.150816 
L 536.884843 347.774173 
L 537.005832 347.774173 
L 537.159428 346.691935 
L 537.520179 346.691935 
L 537.72252 347.233054 
L 537.875965 347.233054 
L 538.034616 346.691935 
L 538.334163 346.691935 
L 538.74318 347.233054 
L 538.970228 347.233054 
L 539.063177 347.774173 
L 539.281403 346.691935 
L 539.396379 347.774173 
L 539.539326 347.233054 
L 539.629606 347.774173 
L 540.202755 347.774173 
L 540.223501 348.856411 
L 540.316056 348.315292 
L 540.489216 348.315292 
L 540.592691 347.774173 
L 540.755452 348.315292 
L 540.934914 347.774173 
L 541.39256 348.315292 
L 541.781268 348.315292 
L 541.928906 349.39753 
L 541.98713 348.856411 
L 542.161089 349.39753 
L 542.394385 348.856411 
L 542.503601 348.315292 
L 542.666401 348.856411 
L 542.826949 348.315292 
L 543.020057 349.39753 
L 543.101872 348.315292 
L 543.275373 334.787316 
L 543.749088 334.787316 
L 543.879656 334.246197 
L 544.003757 336.410673 
L 544.695234 335.869554 
L 545.209003 335.869554 
L 545.308917 336.410673 
L 545.437406 336.410673 
L 545.840081 335.328435 
L 546.144673 335.328435 
L 546.157658 335.869554 
L 546.538978 336.410673 
L 546.809045 335.869554 
L 547.080343 334.787316 
L 547.115024 335.869554 
L 547.322291 334.787316 
L 547.402907 335.328435 
L 548.022091 335.328435 
L 548.055554 335.869554 
L 548.309097 335.869554 
L 548.48181 335.328435 
L 548.64825 335.328435 
L 548.701473 334.787316 
L 549.05935 335.869554 
L 549.377949 334.787316 
L 549.543791 334.787316 
L 550.05344 335.328435 
L 550.152498 334.787316 
L 550.234039 335.869554 
L 550.564165 336.951792 
L 550.786255 335.869554 
L 551.115377 336.951792 
L 551.441997 335.869554 
L 551.560876 336.951792 
L 551.855094 335.869554 
L 551.977703 335.869554 
L 552.027045 336.951792 
L 552.173552 336.410673 
L 552.344449 336.951792 
L 552.621135 336.951792 
L 552.654508 338.03403 
L 552.867766 337.492911 
L 552.989491 337.492911 
L 553.078687 336.951792 
L 553.329377 337.492911 
L 553.589163 338.575149 
L 553.602672 340.198506 
L 553.752267 339.116268 
L 553.756752 340.739625 
L 553.935633 340.739625 
L 554.060503 341.280744 
L 554.30462 340.739625 
L 554.682087 341.280744 
L 554.887625 340.739625 
L 555.12686 340.739625 
L 555.226847 341.280744 
L 555.505533 341.821863 
L 555.656724 340.739625 
L 555.776069 340.739625 
L 556.071782 342.362982 
L 556.256595 342.904102 
L 556.835894 342.362982 
L 557.056186 342.362982 
L 557.197927 341.821863 
L 557.507351 344.527459 
L 557.67082 344.527459 
L 557.812965 345.068578 
L 558.090279 341.821863 
L 558.306151 341.280744 
L 558.571098 342.362982 
L 558.666021 341.280744 
L 558.912169 342.904102 
L 558.948008 343.445221 
L 559.203169 343.98634 
L 559.388777 343.445221 
L 559.570828 343.98634 
L 559.882479 342.904102 
L 559.914166 343.445221 
L 560.1454 343.445221 
L 560.258628 342.904102 
L 560.463631 342.904102 
L 561.429081 345.068578 
L 561.556902 344.527459 
L 561.836985 344.527459 
L 562.374526 342.904102 
L 562.633886 343.445221 
L 562.971946 343.445221 
L 563.116507 342.362982 
L 563.392709 342.362982 
L 563.715735 342.904102 
L 563.715735 342.904102 
" clip-path="url(#p7afb04687f)" style="fill: none; stroke-dasharray: 3,1.5; stroke-dashoffset: 0; stroke: #808080; stroke-width: 1.5"/>
   </g>
   <g id="line2d_19">
    <path d="M 38.539265 299.614578 
L 39.81476 299.073459 
L 41.086138 297.991221 
L 44.096887 297.991221 
L 47.416598 297.450102 
L 47.662871 297.991221 
L 47.816464 297.991221 
L 47.921484 296.908983 
L 48.163868 297.450102 
L 48.522363 296.908983 
L 49.22035 296.908983 
L 49.609094 294.203388 
L 49.695809 296.908983 
L 49.897588 293.662269 
L 49.961756 294.203388 
L 50.187865 294.203388 
L 50.549555 293.662269 
L 51.142483 293.662269 
L 51.446042 291.497793 
L 51.917909 291.497793 
L 52.396893 292.580031 
L 52.7016 288.251078 
L 52.769051 288.792197 
L 53.055794 288.251078 
L 53.610466 286.627721 
L 53.986686 287.709959 
L 54.581351 287.709959 
L 54.913679 288.792197 
L 55.138337 288.251078 
L 55.815163 287.709959 
L 56.118874 287.709959 
L 56.44913 286.627721 
L 56.923012 286.627721 
L 57.413118 283.381007 
L 58.730638 281.75765 
L 58.910061 281.216531 
L 59.290106 281.216531 
L 59.529756 280.675412 
L 59.911592 280.675412 
L 60.192702 281.75765 
L 60.479051 282.298769 
L 60.798315 282.298769 
L 60.985277 281.75765 
L 63.265362 281.75765 
L 63.629811 281.216531 
L 64.219694 281.216531 
L 64.546133 280.675412 
L 64.858948 280.675412 
L 64.980409 281.216531 
L 65.752982 280.675412 
L 66.076781 281.216531 
L 66.969527 281.216531 
L 67.25615 280.675412 
L 67.608538 281.216531 
L 69.233428 281.216531 
L 69.566345 280.675412 
L 69.749082 279.052055 
L 70.193844 280.134293 
L 70.820221 280.134293 
L 71.112874 279.052055 
L 71.228038 280.134293 
L 71.741147 278.510935 
L 72.051397 278.510935 
L 72.352718 277.969816 
L 72.68904 277.969816 
L 72.997839 278.510935 
L 73.292912 277.428697 
L 73.55488 277.428697 
L 74.267109 276.346459 
L 78.006524 276.346459 
L 78.303782 275.264221 
L 78.937316 275.264221 
L 79.218508 272.558626 
L 80.16162 272.558626 
L 81.06439 270.39415 
L 82.023944 270.39415 
L 82.367625 269.853031 
L 88.164949 269.853031 
L 88.860947 268.229674 
L 89.018612 269.853031 
L 90.135012 269.853031 
L 90.438174 268.770793 
L 90.772651 269.853031 
L 91.568458 269.853031 
L 92.008024 268.770793 
L 92.334343 269.853031 
L 97.262574 269.853031 
L 97.53189 264.982959 
L 97.71861 269.853031 
L 99.504607 269.853031 
L 99.828825 269.311912 
L 100.013884 264.44184 
L 100.451034 269.311912 
L 100.759782 269.311912 
L 100.964735 269.853031 
L 104.19843 269.853031 
L 104.362188 269.311912 
L 104.656062 269.311912 
L 105.14004 267.688555 
L 110.018041 267.688555 
L 111.082648 267.147436 
L 117.634345 267.147436 
L 117.907164 264.44184 
L 118.255774 264.44184 
L 118.564906 267.147436 
L 118.882952 267.147436 
L 119.102103 264.44184 
L 119.33962 267.147436 
L 119.734337 264.44184 
L 120.083977 263.359602 
L 124.138189 263.359602 
L 124.488118 262.818483 
L 126.023342 262.818483 
L 126.33894 261.736245 
L 126.720531 259.571769 
L 126.993114 259.03065 
L 127.30122 255.783936 
L 127.681597 255.783936 
L 128.191618 254.701698 
L 128.543602 254.701698 
L 129.151554 253.61946 
L 131.703231 248.749388 
L 131.963775 249.831626 
L 133.788168 249.831626 
L 134.144095 247.66715 
L 134.45796 248.208269 
L 135.714468 248.208269 
L 135.944203 249.290507 
L 136.348287 248.208269 
L 137.260842 248.208269 
L 137.571411 247.126031 
L 137.87098 247.126031 
L 138.225769 246.584912 
L 138.368936 246.584912 
L 138.528942 244.961555 
L 138.745843 244.961555 
L 139.474416 244.420436 
L 140.076411 246.043793 
L 140.223615 246.043793 
L 140.695529 245.502674 
L 140.998312 244.420436 
L 142.563041 244.420436 
L 142.865152 243.879317 
L 143.189576 243.879317 
L 143.489936 243.338198 
L 143.771305 243.338198 
L 144.425111 242.797079 
L 144.762773 242.797079 
L 145.099489 241.173722 
L 145.648531 241.173722 
L 145.991653 240.632603 
L 146.204861 240.632603 
L 146.323892 250.372745 
L 146.414031 249.831626 
L 146.930014 249.831626 
L 147.235718 248.749388 
L 147.64399 248.749388 
L 147.854291 248.208269 
L 148.316754 248.208269 
L 148.362774 247.66715 
L 149.091299 247.66715 
L 149.482445 246.043793 
L 150.295303 244.420436 
L 151.616521 244.420436 
L 151.902169 243.338198 
L 152.009728 243.879317 
L 152.134284 243.879317 
L 152.479695 244.420436 
L 153.736742 243.879317 
L 156.881717 243.879317 
L 157.246141 244.420436 
L 158.768296 244.420436 
L 158.984933 244.961555 
L 159.381762 244.420436 
L 161.835446 244.420436 
L 162.332604 243.879317 
L 162.715491 243.879317 
L 163.131173 243.338198 
L 163.340333 243.879317 
L 165.34414 243.879317 
L 165.976529 242.797079 
L 167.322393 242.797079 
L 167.548986 235.221412 
L 167.804428 235.221412 
L 169.981332 233.598055 
L 170.115103 234.139174 
L 170.254659 233.598055 
L 170.616898 234.139174 
L 170.92075 234.139174 
L 171.240555 233.598055 
L 171.480712 233.598055 
L 171.866274 232.515817 
L 172.024843 232.515817 
L 172.171592 233.056936 
L 172.500512 231.974698 
L 174.68731 231.974698 
L 174.900051 231.433579 
L 175.254736 231.433579 
L 175.583904 230.89246 
L 175.92564 231.433579 
L 176.07643 231.433579 
L 176.544808 231.974698 
L 176.895727 229.269103 
L 177.14555 230.89246 
L 177.471375 230.89246 
L 177.732537 227.645746 
L 177.915267 228.186865 
L 178.109791 227.104626 
L 178.207766 227.645746 
L 178.327681 226.022388 
L 178.638567 226.022388 
L 179.032468 225.481269 
L 179.803947 226.022388 
L 179.979614 224.94015 
L 180.266703 224.94015 
L 180.470009 226.563507 
L 181.160128 224.94015 
L 181.846343 224.399031 
L 182.448998 224.399031 
L 182.765145 222.775674 
L 183.055741 222.775674 
L 183.227873 223.316793 
L 183.529987 223.316793 
L 184.698465 220.070079 
L 184.893339 222.234555 
L 185.268452 222.775674 
L 185.708415 220.070079 
L 186.891012 220.070079 
L 186.992251 219.52896 
L 187.463468 218.987841 
L 188.719619 218.987841 
L 189.294599 216.282246 
L 192.525705 216.282246 
L 192.780847 215.200008 
L 193.116415 217.364484 
L 193.311776 215.741127 
L 196.834334 215.741127 
L 197.128649 215.200008 
L 197.838397 211.953293 
L 198.104673 213.57665 
L 198.422001 213.035531 
L 198.773374 213.57665 
L 199.020637 213.57665 
L 199.395298 208.16546 
L 199.596195 208.16546 
L 199.635187 207.624341 
L 200.26737 207.624341 
L 200.623196 206.542103 
L 200.936906 204.918746 
L 201.880607 204.377627 
L 201.940319 204.918746 
L 202.452705 205.459865 
L 202.528808 204.918746 
L 204.997723 204.918746 
L 205.169515 204.377627 
L 205.630267 203.836508 
L 206.245528 202.75427 
L 206.405556 201.672032 
L 206.621803 201.672032 
L 206.864054 200.589793 
L 207.155726 201.130912 
L 207.482317 201.130912 
L 207.728402 201.672032 
L 208.075323 201.130912 
L 208.384891 201.130912 
L 208.681593 200.589793 
L 208.921775 200.589793 
L 209.373886 201.130912 
L 209.608925 200.589793 
L 209.852191 201.130912 
L 210.262565 203.836508 
L 210.558621 204.377627 
L 211.238155 203.295389 
L 211.337506 199.507555 
L 211.488979 199.507555 
L 211.766138 198.966436 
L 212.088131 199.507555 
L 212.38211 199.507555 
L 212.744252 200.048674 
L 213.057922 198.966436 
L 214.189993 198.966436 
L 214.639898 198.425317 
L 214.897012 198.425317 
L 214.916963 197.884198 
L 216.199749 197.884198 
L 216.564952 196.80196 
L 218.359806 196.80196 
L 218.717604 195.719722 
L 222.155587 195.719722 
L 222.361493 195.178603 
L 222.916825 195.178603 
L 223.384106 194.637484 
L 223.697122 193.555246 
L 223.790721 194.096365 
L 224.130947 193.014127 
L 224.887808 193.014127 
L 227.953225 191.931889 
L 235.530414 191.931889 
L 235.839058 192.473008 
L 237.320477 192.473008 
L 237.627546 191.931889 
L 238.645125 191.931889 
L 238.996332 191.39077 
L 239.248871 191.931889 
L 239.541958 191.39077 
L 239.866252 191.931889 
L 240.132416 190.849651 
L 240.540063 191.39077 
L 240.837506 190.849651 
L 247.303018 190.849651 
L 247.637001 191.931889 
L 247.990819 191.39077 
L 248.310812 191.931889 
L 248.669237 191.39077 
L 248.956684 191.931889 
L 250.156336 191.931889 
L 250.46095 191.39077 
L 250.805025 191.931889 
L 251.233043 190.849651 
L 251.740071 190.849651 
L 252.090761 191.39077 
L 252.353187 190.308532 
L 252.69077 190.308532 
L 252.951582 190.849651 
L 253.774756 189.767413 
L 254.256319 190.308532 
L 254.542426 189.767413 
L 255.151119 189.767413 
L 255.494663 190.308532 
L 255.832004 188.685175 
L 256.156692 189.226294 
L 256.780038 189.226294 
L 257.017653 189.767413 
L 257.321544 189.226294 
L 257.653187 189.226294 
L 257.949152 193.555246 
L 258.066735 193.014127 
L 258.299315 193.014127 
L 258.461336 192.473008 
L 258.602542 192.473008 
L 258.788454 191.931889 
L 258.914443 193.014127 
L 259.536443 191.931889 
L 260.07085 191.931889 
L 260.330737 190.849651 
L 260.588302 191.931889 
L 260.755992 191.39077 
L 261.701437 191.39077 
L 261.982893 191.931889 
L 262.249819 191.931889 
L 262.585238 191.39077 
L 262.895398 191.39077 
L 263.263068 191.931889 
L 263.617876 191.39077 
L 263.893171 191.39077 
L 264.3264 190.308532 
L 266.093662 190.308532 
L 266.384352 190.849651 
L 267.75403 190.849651 
L 268.068596 190.308532 
L 268.316039 189.767413 
L 268.800512 189.767413 
L 268.95166 188.685175 
L 269.020996 189.226294 
L 269.184927 188.685175 
L 269.646029 188.685175 
L 269.87207 187.602936 
L 270.48753 187.602936 
L 270.774818 186.520698 
L 271.724918 186.520698 
L 271.952768 184.897341 
L 272.163017 184.356222 
L 272.284352 184.356222 
L 272.693647 183.815103 
L 272.837702 184.356222 
L 272.907515 183.815103 
L 273.055221 183.815103 
L 273.228133 183.273984 
L 273.357538 183.273984 
L 273.886051 182.732865 
L 275.071761 182.732865 
L 275.377563 183.273984 
L 275.670575 182.732865 
L 276.000874 182.732865 
L 276.159171 182.191746 
L 276.197246 182.732865 
L 276.385129 182.191746 
L 276.532077 182.191746 
L 276.677194 181.109508 
L 277.235986 180.02727 
L 277.642887 180.568389 
L 277.952249 180.02727 
L 278.560426 180.02727 
L 278.890512 178.945032 
L 279.011352 179.486151 
L 279.207663 177.862794 
L 279.48584 178.403913 
L 279.666252 177.862794 
L 279.808903 178.403913 
L 279.96654 177.321675 
L 280.28784 177.321675 
L 280.383002 176.780556 
L 280.759959 177.321675 
L 281.051505 176.239437 
L 281.709272 176.239437 
L 281.946056 175.157198 
L 282.281912 176.239437 
L 282.510084 176.239437 
L 282.593737 175.698317 
L 283.207616 175.698317 
L 283.494767 173.533841 
L 283.907733 175.698317 
L 283.971761 175.157198 
L 284.515516 175.698317 
L 284.567006 174.616079 
L 284.754026 174.616079 
L 285.130883 174.07496 
L 285.436721 174.616079 
L 285.667774 174.616079 
L 286.009686 173.533841 
L 286.38166 173.533841 
L 286.742382 174.07496 
L 287.011976 173.533841 
L 287.175784 174.07496 
L 287.338708 172.992722 
L 288.782358 172.992722 
L 289.226063 172.451603 
L 290.131999 172.451603 
L 290.45344 173.533841 
L 291.059266 173.533841 
L 291.362479 172.992722 
L 294.120873 172.992722 
L 294.493136 173.533841 
L 294.842087 172.451603 
L 299.075324 172.451603 
L 300.003981 171.910484 
L 300.555551 171.910484 
L 301.003502 171.369365 
L 301.357504 171.369365 
L 301.565526 170.287127 
L 301.89533 170.828246 
L 306.277542 170.828246 
L 306.660259 171.369365 
L 306.963684 170.828246 
L 307.263445 171.369365 
L 307.467021 173.533841 
L 309.328539 173.533841 
L 309.63554 172.451603 
L 310.066425 173.533841 
L 311.84998 173.533841 
L 312.117299 172.451603 
L 312.218325 173.533841 
L 312.67621 173.533841 
L 312.887865 172.451603 
L 313.154663 173.533841 
L 313.353856 172.451603 
L 313.495236 172.451603 
L 313.677583 173.533841 
L 313.837062 172.451603 
L 313.939262 173.533841 
L 313.980424 172.451603 
L 315.077248 172.451603 
L 315.436302 170.828246 
L 315.835417 170.828246 
L 315.868335 170.287127 
L 316.190148 170.287127 
L 316.356784 169.746008 
L 316.498857 170.287127 
L 316.673397 169.746008 
L 316.791431 170.287127 
L 317.068265 169.746008 
L 317.185343 170.287127 
L 317.201397 169.746008 
L 317.552305 169.746008 
L 317.772171 169.204889 
L 317.910842 169.204889 
L 318.118507 168.122651 
L 318.348928 167.581532 
L 318.508067 168.122651 
L 320.280583 168.122651 
L 320.534021 167.581532 
L 321.892458 167.581532 
L 322.109154 167.040413 
L 322.395586 167.040413 
L 322.608132 166.499294 
L 322.838203 167.040413 
L 323.28732 167.040413 
L 323.476991 165.958175 
L 323.993244 165.958175 
L 324.04282 165.417056 
L 324.226301 165.958175 
L 324.401307 165.958175 
L 324.426242 165.417056 
L 324.634462 164.875937 
L 324.692658 165.417056 
L 324.928687 163.25258 
L 325.884604 163.25258 
L 325.980705 162.71146 
L 326.19012 162.71146 
L 326.312795 161.629222 
L 326.456768 162.71146 
L 327.725784 162.71146 
L 327.799215 162.170341 
L 328.042625 162.71146 
L 328.159168 162.170341 
L 328.374643 162.71146 
L 328.654536 162.71146 
L 328.826176 161.629222 
L 329.139056 161.629222 
L 329.267396 162.170341 
L 329.377356 161.088103 
L 329.702101 162.71146 
L 330.04241 161.629222 
L 330.288933 162.71146 
L 330.866022 162.71146 
L 331.315143 161.088103 
L 331.454894 161.629222 
L 331.60966 161.088103 
L 332.027267 162.170341 
L 332.160988 161.088103 
L 333.152059 161.088103 
L 333.311808 160.546984 
L 333.590195 160.546984 
L 333.738598 161.088103 
L 333.925896 160.546984 
L 334.044327 161.088103 
L 334.405104 160.005865 
L 334.897665 160.005865 
L 335.245052 158.923627 
L 335.848549 160.005865 
L 335.977521 159.464746 
L 336.136187 160.005865 
L 336.236805 159.464746 
L 336.438674 159.464746 
L 336.523277 160.005865 
L 336.914162 158.923627 
L 337.115385 159.464746 
L 337.214945 158.923627 
L 337.420099 159.464746 
L 337.692568 159.464746 
L 337.86831 158.923627 
L 337.983864 159.464746 
L 338.097742 159.464746 
L 338.351747 160.005865 
L 338.465535 158.923627 
L 338.981315 158.923627 
L 339.016082 157.841389 
L 341.222048 157.841389 
L 341.439671 157.30027 
L 341.582513 157.841389 
L 341.703531 157.30027 
L 341.795453 157.841389 
L 341.816015 157.30027 
L 341.905717 156.759151 
L 342.413748 156.759151 
L 342.653396 156.218032 
L 342.701964 156.759151 
L 342.751724 156.218032 
L 343.025384 156.759151 
L 343.09611 156.218032 
L 343.363732 155.676913 
L 343.468554 155.135794 
L 343.668664 155.135794 
L 343.714676 154.594675 
L 343.993294 152.971318 
L 344.118698 153.512437 
L 344.287952 153.512437 
L 344.318443 152.430199 
L 345.507598 152.430199 
L 345.655297 151.88908 
L 345.888261 152.430199 
L 346.576205 150.806842 
L 346.793193 150.806842 
L 346.922321 150.265723 
L 347.223085 150.265723 
L 347.230459 149.724603 
L 347.323173 150.265723 
L 347.412048 149.183484 
L 347.543407 149.183484 
L 347.725242 148.642365 
L 348.972599 148.642365 
L 349.005518 149.183484 
L 349.084044 148.101246 
L 349.412996 148.101246 
L 349.580993 148.642365 
L 349.710312 148.101246 
L 349.905009 148.642365 
L 350.050884 148.101246 
L 350.214779 148.101246 
L 350.35561 148.642365 
L 350.495249 147.019008 
L 352.16688 147.019008 
L 352.669574 145.93677 
L 352.934185 146.477889 
L 359.248868 146.477889 
L 359.35608 145.93677 
L 359.547837 146.477889 
L 359.603104 145.93677 
L 360.176091 145.93677 
L 360.334754 145.395651 
L 361.138942 145.395651 
L 361.246392 144.854532 
L 361.39785 145.395651 
L 362.629746 145.395651 
L 362.800617 144.854532 
L 363.134614 145.395651 
L 363.323959 144.313413 
L 363.42812 144.854532 
L 363.889796 144.854532 
L 364.090957 144.313413 
L 365.037828 144.313413 
L 365.192071 145.395651 
L 365.504607 144.313413 
L 367.186215 144.313413 
L 367.473492 143.772294 
L 367.512658 143.772294 
L 367.678542 143.231175 
L 367.802531 143.231175 
L 367.956012 142.690056 
L 368.315113 142.690056 
L 368.378728 142.148937 
L 368.678092 142.148937 
L 368.867188 143.231175 
L 369.014844 142.690056 
L 369.240863 142.690056 
L 369.333024 142.148937 
L 369.678797 142.148937 
L 369.988058 141.607818 
L 370.32529 139.984461 
L 370.435702 140.52558 
L 370.538508 139.984461 
L 370.77448 139.443342 
L 370.886375 139.984461 
L 371.186724 139.443342 
L 371.385361 139.984461 
L 371.547591 139.984461 
L 371.865418 138.361104 
L 372.171728 138.902223 
L 372.488952 137.819985 
L 372.551243 138.361104 
L 372.757419 137.819985 
L 372.900186 138.361104 
L 373.017884 137.819985 
L 373.526154 137.819985 
L 373.715398 141.066699 
L 374.220822 139.984461 
L 374.554538 139.984461 
L 374.671265 139.443342 
L 375.10787 140.52558 
L 375.266647 139.984461 
L 375.484748 139.984461 
L 375.592061 140.52558 
L 375.728403 139.984461 
L 375.914354 140.52558 
L 375.987442 139.984461 
L 376.373951 139.443342 
L 376.522451 139.443342 
L 376.657967 139.984461 
L 376.915269 139.443342 
L 377.96586 139.443342 
L 378.05839 136.737746 
L 378.329627 138.902223 
L 378.614416 139.443342 
L 379.126679 139.443342 
L 379.519406 138.361104 
L 379.654113 139.984461 
L 379.88084 139.443342 
L 380.169868 139.984461 
L 380.302083 138.361104 
L 380.461713 139.443342 
L 380.612576 139.443342 
L 380.713046 138.902223 
L 380.801484 134.57327 
L 381.108618 136.737746 
L 381.134098 134.032151 
L 381.955049 134.032151 
L 382.343392 132.949913 
L 382.503589 133.491032 
L 383.078699 133.491032 
L 383.235397 134.032151 
L 383.402874 133.491032 
L 383.586575 133.491032 
L 383.694495 134.032151 
L 384.022815 133.491032 
L 384.215692 133.491032 
L 384.34214 132.949913 
L 384.496791 133.491032 
L 384.662935 133.491032 
L 384.818636 134.032151 
L 384.915084 133.491032 
L 385.782408 133.491032 
L 385.999396 131.867675 
L 386.261746 132.408794 
L 386.478726 132.408794 
L 386.65439 132.949913 
L 386.734259 132.408794 
L 387.006359 132.949913 
L 387.108082 132.408794 
L 387.347791 132.408794 
L 387.44157 131.867675 
L 387.728034 132.408794 
L 388.318336 132.408794 
L 388.537187 131.867675 
L 388.901755 131.867675 
L 388.993678 131.326556 
L 389.14904 131.867675 
L 389.780562 130.244318 
L 389.928305 130.244318 
L 390.206294 129.703199 
L 392.467577 129.703199 
L 392.708481 129.16208 
L 392.93437 129.16208 
L 392.98036 130.244318 
L 393.037318 129.703199 
L 393.405854 129.703199 
L 393.489974 129.16208 
L 393.974894 129.16208 
L 394.206482 128.620961 
L 394.517523 128.620961 
L 394.527869 129.16208 
L 394.631268 128.620961 
L 394.726357 129.16208 
L 396.080765 129.16208 
L 396.334723 129.703199 
L 397.043149 129.16208 
L 398.512247 129.16208 
L 398.575816 128.620961 
L 400.117406 128.620961 
L 400.256269 128.079842 
L 401.681926 125.374247 
L 401.817044 125.374247 
L 401.958012 124.833128 
L 402.02079 125.374247 
L 402.324382 124.833128 
L 402.606437 124.292008 
L 402.94376 124.292008 
L 403.057039 123.750889 
L 403.483334 123.750889 
L 404.100773 124.292008 
L 404.131879 122.668651 
L 404.628802 122.668651 
L 404.782817 123.20977 
L 404.894684 122.668651 
L 405.727829 122.668651 
L 406.036328 123.20977 
L 407.525681 123.20977 
L 408.281683 122.668651 
L 409.808854 122.668651 
L 410.560858 122.127532 
L 410.661433 121.586413 
L 412.923066 121.586413 
L 413.135537 122.127532 
L 414.283674 122.127532 
L 415.122015 122.668651 
L 415.732925 122.668651 
L 416.036095 122.127532 
L 416.305252 121.045294 
L 416.465503 121.045294 
L 416.471757 121.586413 
L 418.269287 121.586413 
L 418.462208 121.045294 
L 423.003262 121.045294 
L 423.575837 120.504175 
L 423.796498 120.504175 
L 423.882632 119.421937 
L 424.163272 119.421937 
L 424.281129 119.963056 
L 424.463827 119.421937 
L 425.489621 119.421937 
L 425.946867 118.880818 
L 426.264488 117.79858 
L 429.046249 117.79858 
L 429.535864 118.339699 
L 429.677526 117.79858 
L 429.82083 118.339699 
L 429.981926 117.79858 
L 430.744873 117.79858 
L 431.096629 118.339699 
L 431.275126 117.79858 
L 431.767313 118.880818 
L 431.959139 117.79858 
L 433.150204 117.79858 
L 433.164294 117.257461 
L 435.051873 117.257461 
L 435.969636 116.716342 
L 436.245054 117.257461 
L 436.44563 116.716342 
L 436.575436 117.257461 
L 436.756765 117.257461 
L 436.880812 116.716342 
L 437.318042 117.79858 
L 437.606716 117.257461 
L 438.130687 117.79858 
L 438.282261 117.79858 
L 438.412811 117.257461 
L 439.205339 117.257461 
L 440.146996 117.79858 
L 440.288733 117.257461 
L 441.225732 117.257461 
L 441.529949 117.79858 
L 446.298954 117.257461 
L 446.65604 117.79858 
L 446.964647 117.257461 
L 447.241182 117.79858 
L 447.272121 117.257461 
L 447.51287 116.716342 
L 447.652296 116.716342 
L 447.779835 116.175223 
L 449.99711 116.175223 
L 450.044357 115.634104 
L 450.319966 115.634104 
L 451.055884 116.175223 
L 451.079294 115.634104 
L 451.36204 116.175223 
L 451.430762 115.092985 
L 451.612751 115.092985 
L 451.981967 114.551866 
L 452.600702 114.551866 
L 452.976403 115.092985 
L 453.398827 114.010747 
L 453.416153 113.469628 
L 453.826509 112.928509 
L 454.128321 113.469628 
L 454.552706 113.469628 
L 454.640927 112.928509 
L 455.60719 112.928509 
L 455.740304 113.469628 
L 455.903267 112.38739 
L 456.037584 112.38739 
L 456.292506 112.928509 
L 456.524346 112.38739 
L 457.041355 112.38739 
L 457.269049 110.764032 
L 458.89296 110.764032 
L 459.087105 110.222913 
L 459.205984 110.222913 
L 459.401598 110.764032 
L 459.452048 110.222913 
L 459.970212 110.222913 
L 460.074431 109.681794 
L 460.35749 109.140675 
L 460.438338 108.058437 
L 460.879969 108.058437 
L 461.045901 106.43508 
L 461.391402 106.43508 
L 461.593469 106.976199 
L 461.702635 106.43508 
L 461.849587 106.43508 
L 461.86081 104.811723 
L 462.646737 104.811723 
L 462.782975 104.270604 
L 463.121778 104.270604 
L 463.472858 104.811723 
L 463.508969 103.729485 
L 463.819823 103.729485 
L 463.877123 103.188366 
L 464.093717 102.647247 
L 464.665892 102.647247 
L 464.749989 101.565009 
L 464.995537 101.565009 
L 465.139495 101.02389 
L 465.277632 101.02389 
L 465.773003 100.482771 
L 465.966877 101.02389 
L 466.082333 106.976199 
L 466.20755 107.517318 
L 466.292355 105.352842 
L 466.903215 105.352842 
L 467.154291 105.893961 
L 467.337227 104.811723 
L 468.240654 104.811723 
L 468.422745 105.352842 
L 468.565316 104.811723 
L 469.527538 104.811723 
L 469.646017 104.270604 
L 470.084702 105.352842 
L 470.441419 104.811723 
L 470.645834 104.811723 
L 470.724345 104.270604 
L 470.904814 105.352842 
L 471.080243 104.270604 
L 471.808129 104.270604 
L 471.92095 104.811723 
L 472.18023 104.811723 
L 472.221017 104.270604 
L 472.514595 103.729485 
L 472.526053 104.270604 
L 472.762588 103.729485 
L 473.078161 103.729485 
L 473.362329 103.188366 
L 474.836959 103.188366 
L 474.947529 102.647247 
L 475.23997 103.188366 
L 475.249735 102.647247 
L 475.669656 102.106128 
L 475.927673 102.106128 
L 476.224588 101.565009 
L 476.486187 101.02389 
L 476.842861 102.106128 
L 476.91332 101.02389 
L 477.153162 101.565009 
L 477.355038 101.02389 
L 478.255999 101.02389 
L 478.356946 100.482771 
L 478.482758 101.02389 
L 478.918745 100.482771 
L 479.129338 101.02389 
L 479.342766 100.482771 
L 479.470998 101.02389 
L 479.769639 99.941652 
L 479.975978 100.482771 
L 480.681732 100.482771 
L 480.962509 99.941652 
L 481.372486 99.941652 
L 481.698673 101.02389 
L 481.785612 100.482771 
L 482.134136 100.482771 
L 482.222585 99.400533 
L 482.662151 100.482771 
L 482.815657 99.941652 
L 483.169825 100.482771 
L 483.428351 100.482771 
L 483.560797 99.941652 
L 483.877378 99.941652 
L 484.29197 99.400533 
L 484.34568 100.482771 
L 484.494535 99.400533 
L 484.631004 99.941652 
L 484.712913 99.400533 
L 485.037854 99.941652 
L 485.427735 99.400533 
L 485.624126 99.400533 
L 485.893712 99.941652 
L 486.27691 99.941652 
L 486.669803 98.859414 
L 486.875607 99.400533 
L 487.291766 99.400533 
L 487.486377 99.941652 
L 487.515027 100.482771 
L 487.757465 99.400533 
L 487.886037 99.941652 
L 488.037268 99.400533 
L 488.261983 99.941652 
L 488.51632 99.941652 
L 488.67971 100.482771 
L 488.989574 100.482771 
L 489.312181 99.400533 
L 489.531087 99.941652 
L 489.797669 98.859414 
L 489.936499 98.859414 
L 490.023641 99.400533 
L 490.294766 99.400533 
L 490.317523 98.859414 
L 491.216313 98.859414 
L 491.363557 98.318294 
L 491.489677 98.318294 
L 491.684096 97.777175 
L 491.851786 98.318294 
L 491.979675 97.777175 
L 492.170338 97.777175 
L 492.27767 97.236056 
L 492.4162 97.777175 
L 492.460833 97.236056 
L 492.61419 96.153818 
L 492.801553 96.694937 
L 492.860518 97.236056 
L 493.058115 96.694937 
L 493.219594 97.236056 
L 493.529332 96.694937 
L 493.733179 96.694937 
L 493.821989 96.153818 
L 494.042332 96.694937 
L 494.62101 95.07158 
L 494.776675 95.07158 
L 494.937688 96.153818 
L 495.013809 95.612699 
L 495.241453 95.612699 
L 495.345025 96.153818 
L 495.531168 96.153818 
L 495.700638 95.612699 
L 495.918507 95.612699 
L 496.284285 93.989342 
L 496.478888 94.530461 
L 499.036981 94.530461 
L 499.156023 93.989342 
L 499.306983 93.989342 
L 499.428383 94.530461 
L 499.671955 93.989342 
L 500.278785 93.989342 
L 500.380299 92.907104 
L 501.02239 93.989342 
L 501.471923 93.989342 
L 502.087043 92.907104 
L 503.174457 93.448223 
L 503.450612 92.907104 
L 503.754843 93.448223 
L 503.972123 92.365985 
L 504.059269 93.448223 
L 504.345694 92.365985 
L 504.657764 93.448223 
L 504.761069 92.365985 
L 504.961186 92.365985 
L 505.071193 92.907104 
L 505.270588 92.365985 
L 505.390251 92.365985 
L 505.501714 92.907104 
L 505.637142 91.283747 
L 505.992318 92.365985 
L 506.324517 92.365985 
L 506.527501 91.824866 
L 506.910579 91.824866 
L 507.222115 92.365985 
L 507.404242 92.365985 
L 507.541924 91.283747 
L 507.713666 92.365985 
L 507.80955 91.824866 
L 508.041069 91.283747 
L 508.183027 91.283747 
L 508.431218 92.365985 
L 508.668547 90.742628 
L 508.966845 90.742628 
L 508.989486 89.66039 
L 509.010318 90.201509 
L 509.166326 90.742628 
L 509.330322 89.66039 
L 509.398726 90.742628 
L 509.645939 90.742628 
L 509.679623 90.201509 
L 509.958146 89.66039 
L 510.12484 89.66039 
L 510.202972 90.742628 
L 510.576752 89.66039 
L 510.637284 90.742628 
L 510.840871 89.66039 
L 510.997482 91.283747 
L 511.473563 90.201509 
L 511.832209 91.824866 
L 511.859942 91.283747 
L 512.087113 91.824866 
L 512.230732 91.824866 
L 512.379829 90.742628 
L 512.557882 91.824866 
L 512.900202 90.742628 
L 513.030078 91.824866 
L 513.170699 91.283747 
L 513.457258 91.283747 
L 513.646498 91.824866 
L 514.008755 91.824866 
L 514.019812 91.283747 
L 514.589961 92.365985 
L 514.892339 90.742628 
L 515.052822 90.742628 
L 515.239863 91.283747 
L 515.292733 90.201509 
L 515.558257 91.283747 
L 515.721754 90.201509 
L 515.886577 91.283747 
L 515.954692 90.742628 
L 516.292726 90.742628 
L 516.495302 90.201509 
L 516.587955 89.119271 
L 516.776574 90.201509 
L 517.086897 89.66039 
L 517.224171 89.119271 
L 517.393786 89.66039 
L 517.538603 87.495914 
L 517.765915 87.495914 
L 518.066524 86.954795 
L 518.10279 88.037033 
L 518.398651 86.954795 
L 518.819793 88.037033 
L 518.933588 86.413676 
L 519.275071 85.872556 
L 519.647002 86.954795 
L 519.882731 87.495914 
L 520.537999 86.954795 
L 520.616485 86.413676 
L 521.537437 86.413676 
L 521.816423 85.872556 
L 522.098623 84.249199 
L 522.823148 84.790318 
L 523.380159 84.790318 
L 523.687795 84.249199 
L 523.767094 84.790318 
L 524.000823 83.70808 
L 524.052894 84.790318 
L 524.308705 84.249199 
L 524.772746 84.249199 
L 525.010877 83.166961 
L 525.229446 84.249199 
L 525.527968 83.166961 
L 525.644349 83.70808 
L 525.803784 83.166961 
L 526.220041 83.70808 
L 526.460627 83.166961 
L 527.164326 83.166961 
L 527.332291 83.70808 
L 527.739859 82.625842 
L 527.905523 83.70808 
L 528.048416 83.70808 
L 528.103979 83.166961 
L 528.306556 83.166961 
L 528.525039 82.625842 
L 528.67454 83.70808 
L 528.906662 82.625842 
L 529.008602 83.70808 
L 529.293239 82.625842 
L 529.468263 82.625842 
L 529.581209 83.166961 
L 529.766297 83.166961 
L 529.8186 83.70808 
L 529.829339 83.166961 
L 530.145313 83.166961 
L 530.252222 83.70808 
L 530.54207 82.625842 
L 530.808984 83.70808 
L 531.266411 83.166961 
L 532.243925 83.166961 
L 532.478348 83.70808 
L 532.727571 83.166961 
L 532.887996 83.70808 
L 532.987094 83.166961 
L 533.681336 83.166961 
L 533.893294 83.70808 
L 534.379963 82.625842 
L 534.498293 83.166961 
L 534.887561 82.625842 
L 535.312693 83.166961 
L 535.538489 82.625842 
L 536.069717 83.70808 
L 536.209104 84.249199 
L 536.440045 84.249199 
L 536.884843 82.625842 
L 537.005832 82.625842 
L 537.159428 83.70808 
L 537.520179 83.70808 
L 537.72252 83.166961 
L 537.875965 83.166961 
L 538.034616 83.70808 
L 538.334163 83.70808 
L 538.74318 83.166961 
L 538.970228 83.166961 
L 539.063177 82.625842 
L 539.281403 83.70808 
L 539.396379 82.625842 
L 539.539326 83.166961 
L 539.629606 82.625842 
L 540.202755 82.625842 
L 540.223501 81.543604 
L 540.316056 82.084723 
L 540.489216 82.084723 
L 540.592691 82.625842 
L 540.755452 82.084723 
L 540.934914 82.625842 
L 541.39256 82.084723 
L 541.781268 82.084723 
L 541.928906 81.002485 
L 541.98713 81.543604 
L 542.161089 81.002485 
L 542.394385 81.543604 
L 542.503601 82.084723 
L 542.666401 81.543604 
L 542.826949 82.084723 
L 543.020057 81.002485 
L 543.101872 82.084723 
L 543.275373 90.201509 
L 543.749088 90.201509 
L 543.879656 90.742628 
L 544.003757 88.578152 
L 544.695234 89.119271 
L 545.209003 89.119271 
L 545.308917 88.578152 
L 545.437406 88.578152 
L 545.840081 89.66039 
L 546.144673 89.66039 
L 546.157658 89.119271 
L 546.538978 88.578152 
L 546.809045 89.119271 
L 547.080343 90.201509 
L 547.115024 89.119271 
L 547.322291 90.201509 
L 547.402907 89.66039 
L 548.022091 89.66039 
L 548.055554 89.119271 
L 548.309097 89.119271 
L 548.48181 89.66039 
L 548.64825 89.66039 
L 548.701473 90.201509 
L 549.05935 89.119271 
L 549.377949 90.201509 
L 549.543791 90.201509 
L 550.05344 89.66039 
L 550.152498 90.201509 
L 550.234039 89.119271 
L 550.564165 88.037033 
L 550.786255 89.119271 
L 551.115377 88.037033 
L 551.441997 89.119271 
L 551.560876 88.037033 
L 551.855094 89.119271 
L 551.977703 89.119271 
L 552.027045 88.037033 
L 552.173552 88.578152 
L 552.344449 88.037033 
L 552.621135 88.037033 
L 552.654508 86.954795 
L 552.867766 87.495914 
L 552.989491 87.495914 
L 553.078687 88.037033 
L 553.329377 87.495914 
L 553.589163 86.413676 
L 553.602672 84.790318 
L 553.752267 85.872556 
L 553.756752 84.249199 
L 553.935633 84.249199 
L 554.060503 83.70808 
L 554.30462 84.249199 
L 554.682087 83.70808 
L 554.887625 84.249199 
L 555.12686 84.249199 
L 555.226847 83.70808 
L 555.505533 83.166961 
L 555.656724 84.249199 
L 555.776069 84.249199 
L 556.071782 82.625842 
L 556.256595 82.084723 
L 556.835894 82.625842 
L 557.056186 82.625842 
L 557.197927 83.166961 
L 557.507351 80.461366 
L 557.67082 80.461366 
L 557.812965 79.920247 
L 558.090279 77.214652 
L 558.306151 77.755771 
L 558.571098 76.673533 
L 558.666021 77.755771 
L 558.912169 76.132414 
L 558.948008 75.591295 
L 559.203169 75.050176 
L 559.388777 75.591295 
L 559.570828 75.050176 
L 559.882479 76.132414 
L 559.914166 75.591295 
L 560.1454 75.591295 
L 560.258628 76.132414 
L 560.463631 76.132414 
L 561.429081 73.967938 
L 561.556902 74.509057 
L 561.836985 74.509057 
L 562.044252 75.050176 
L 562.151082 73.967938 
L 562.374526 74.509057 
L 562.633886 73.967938 
L 562.971946 73.967938 
L 563.116507 74.509057 
L 563.715735 73.426819 
L 563.715735 73.426819 
" clip-path="url(#p7afb04687f)" style="fill: none; stroke-dasharray: 6,1.5; stroke-dashoffset: 0; stroke: #008000; stroke-width: 1.5"/>
   </g>
   <g id="line2d_20">
    <path d="M 38.539265 362.384387 
L 39.81476 363.466625 
L 41.086138 363.466625 
L 42.315917 362.925506 
L 44.096887 362.925506 
L 47.816464 362.384387 
L 47.921484 362.925506 
L 51.142483 362.925506 
L 51.446042 364.007744 
L 52.117643 364.007744 
L 52.396893 360.76103 
L 52.769051 364.007744 
L 54.581351 364.007744 
L 54.913679 360.76103 
L 57.413118 360.76103 
L 58.730638 361.302149 
L 58.910061 361.843268 
L 59.911592 361.843268 
L 60.192702 360.219911 
L 63.265362 360.219911 
L 63.629811 360.76103 
L 72.997839 360.76103 
L 73.292912 360.219911 
L 78.937316 360.219911 
L 79.218508 362.384387 
L 126.023342 362.384387 
L 126.33894 363.466625 
L 126.720531 366.713339 
L 126.993114 366.713339 
L 127.30122 367.254458 
L 129.151554 367.254458 
L 131.703231 368.877816 
L 131.963775 368.877816 
L 132.40064 369.418935 
L 145.298574 369.418935 
L 145.991653 370.501173 
L 175.254736 370.501173 
L 175.583904 371.042292 
L 175.92564 370.501173 
L 177.915267 370.501173 
L 178.207766 371.042292 
L 183.529987 371.042292 
L 184.698465 372.12453 
L 184.893339 371.042292 
L 185.268452 371.042292 
L 185.577644 372.12453 
L 192.780847 372.12453 
L 193.116415 371.583411 
L 193.311776 372.12453 
L 210.262565 372.12453 
L 210.558621 373.206768 
L 248.310812 373.206768 
L 248.669237 373.747887 
L 335.245052 373.747887 
L 335.591276 373.206768 
L 345.888261 373.206768 
L 346.291796 373.747887 
L 346.399647 374.830125 
L 373.526154 374.830125 
L 373.715398 374.289006 
L 376.373951 374.289006 
L 376.522451 374.830125 
L 483.745621 374.830125 
L 483.877378 374.289006 
L 491.979675 374.289006 
L 492.27767 374.830125 
L 523.056533 374.830125 
L 523.380159 374.289006 
L 562.971946 374.289006 
L 563.116507 374.830125 
L 563.715735 374.830125 
L 563.715735 374.830125 
" clip-path="url(#p7afb04687f)" style="fill: none; stroke-dasharray: 9,3; stroke-dashoffset: 0; stroke: #ffa500; stroke-width: 1.5"/>
   </g>
   <g id="line2d_21">
    <path d="M 38.539265 325.047173 
L 47.816464 325.047173 
L 47.921484 325.588292 
L 51.142483 325.588292 
L 51.446042 326.129411 
L 52.117643 326.129411 
L 52.396893 327.211649 
L 52.769051 326.129411 
L 54.581351 326.129411 
L 55.138337 327.752768 
L 56.44913 327.752768 
L 56.744445 328.293887 
L 56.923012 327.752768 
L 57.072379 328.293887 
L 70.820221 328.293887 
L 71.112874 329.376125 
L 71.228038 328.293887 
L 71.741147 329.376125 
L 88.164949 329.376125 
L 88.860947 329.917245 
L 89.018612 329.376125 
L 90.135012 329.376125 
L 90.438174 329.917245 
L 90.772651 329.376125 
L 91.568458 329.376125 
L 92.008024 329.917245 
L 92.334343 329.376125 
L 117.634345 329.376125 
L 117.907164 329.917245 
L 118.255774 329.917245 
L 118.564906 329.376125 
L 118.882952 329.376125 
L 119.102103 329.917245 
L 119.33962 329.376125 
L 119.734337 329.917245 
L 126.33894 329.917245 
L 126.720531 329.376125 
L 126.993114 329.376125 
L 127.30122 330.458364 
L 128.803052 330.458364 
L 129.151554 333.163959 
L 131.703231 330.999483 
L 131.963775 331.540602 
L 133.788168 331.540602 
L 134.144095 334.246197 
L 134.45796 334.787316 
L 148.597015 334.787316 
L 149.091299 334.246197 
L 149.482445 334.787316 
L 150.354871 334.246197 
L 152.479695 334.246197 
L 153.736742 334.787316 
L 158.984933 334.787316 
L 159.381762 335.328435 
L 192.525705 335.328435 
L 192.780847 335.869554 
L 193.116415 335.328435 
L 199.020637 335.328435 
L 199.395298 342.362982 
L 200.26737 342.362982 
L 200.623196 346.691935 
L 200.936906 348.315292 
L 219.936001 348.315292 
L 222.608196 348.856411 
L 250.805025 348.856411 
L 251.118497 351.020887 
L 257.653187 351.020887 
L 257.949152 347.774173 
L 273.055221 347.774173 
L 273.228133 348.315292 
L 301.357504 348.315292 
L 301.565526 348.856411 
L 301.89533 348.315292 
L 309.49463 348.315292 
L 309.63554 348.856411 
L 309.923048 348.315292 
L 311.84998 348.315292 
L 312.117299 348.856411 
L 312.218325 348.315292 
L 315.077248 348.315292 
L 315.276888 348.856411 
L 324.226301 348.856411 
L 324.426242 348.315292 
L 335.591276 348.315292 
L 335.848549 347.774173 
L 335.977521 348.315292 
L 336.136187 347.774173 
L 336.236805 348.315292 
L 336.438674 348.315292 
L 336.523277 347.774173 
L 336.749657 348.315292 
L 338.097742 348.315292 
L 338.351747 347.774173 
L 338.465535 348.315292 
L 346.291796 348.315292 
L 346.399647 347.774173 
L 373.526154 347.774173 
L 373.715398 348.315292 
L 377.96586 348.315292 
L 378.05839 351.020887 
L 378.329627 348.315292 
L 380.788026 348.315292 
L 380.801484 351.020887 
L 381.108618 348.315292 
L 381.134098 351.020887 
L 405.727829 351.020887 
L 406.036328 350.479768 
L 406.30135 351.020887 
L 436.245054 351.020887 
L 436.44563 351.562006 
L 436.575436 351.020887 
L 436.880812 351.020887 
L 437.318042 351.562006 
L 457.041355 351.562006 
L 457.269049 352.103125 
L 460.074431 352.103125 
L 460.35749 352.644244 
L 465.966877 352.644244 
L 466.082333 352.103125 
L 472.526053 352.103125 
L 472.762588 352.644244 
L 483.745621 352.644244 
L 483.877378 356.432078 
L 491.979675 356.432078 
L 492.27767 355.890959 
L 499.671955 355.890959 
L 500.380299 358.055435 
L 507.541924 358.055435 
L 507.80955 357.514316 
L 520.861632 357.514316 
L 521.313544 356.973197 
L 523.056533 356.973197 
L 523.380159 359.137673 
L 523.767094 359.678792 
L 525.803784 359.678792 
L 526.220041 360.219911 
L 543.101872 360.219911 
L 543.275373 356.973197 
L 562.044252 356.973197 
L 562.151082 358.596554 
L 563.116507 358.596554 
L 563.392709 359.137673 
L 563.715735 359.137673 
L 563.715735 359.137673 
" clip-path="url(#p7afb04687f)" style="fill: none; stroke-dasharray: 12,4.5; stroke-dashoffset: 0; stroke: #ee82ee; stroke-width: 1.5"/>
   </g>
   <g id="patch_3">
    <path d="M 33.2875 374.830125 
L 33.2875 22.318125 
" style="fill: none; stroke: #000000; stroke-width: 0.8; stroke-linejoin: miter; stroke-linecap: square"/>
   </g>
   <g id="patch_4">
    <path d="M 568.9675 374.830125 
L 568.9675 22.318125 
" style="fill: none; stroke: #000000; stroke-width: 0.8; stroke-linejoin: miter; stroke-linecap: square"/>
   </g>
   <g id="patch_5">
    <path d="M 33.2875 374.830125 
L 568.9675 374.830125 
" style="fill: none; stroke: #000000; stroke-width: 0.8; stroke-linejoin: miter; stroke-linecap: square"/>
   </g>
   <g id="patch_6">
    <path d="M 33.2875 22.318125 
L 568.9675 22.318125 
" style="fill: none; stroke: #000000; stroke-width: 0.8; stroke-linejoin: miter; stroke-linecap: square"/>
   </g>
   <g id="text_17">
    <!-- Rust/Coreutils running GNU's testsuite -->
    <g transform="translate(186.090625 16.318125) scale(0.12 -0.12)">
     <defs>
      <path id="DejaVuSans-52" d="M 2841 2188 
Q 3044 2119 3236 1894 
Q 3428 1669 3622 1275 
L 4263 0 
L 3584 0 
L 2988 1197 
Q 2756 1666 2539 1819 
Q 2322 1972 1947 1972 
L 1259 1972 
L 1259 0 
L 628 0 
L 628 4666 
L 2053 4666 
Q 2853 4666 3247 4331 
Q 3641 3997 3641 3322 
Q 3641 2881 3436 2590 
Q 3231 2300 2841 2188 
z
M 1259 4147 
L 1259 2491 
L 2053 2491 
Q 2509 2491 2742 2702 
Q 2975 2913 2975 3322 
Q 2975 3731 2742 3939 
Q 2509 4147 2053 4147 
L 1259 4147 
z
" transform="scale(0.015625)"/>
      <path id="DejaVuSans-75" d="M 544 1381 
L 544 3500 
L 1119 3500 
L 1119 1403 
Q 1119 906 1312 657 
Q 1506 409 1894 409 
Q 2359 409 2629 706 
Q 2900 1003 2900 1516 
L 2900 3500 
L 3475 3500 
L 3475 0 
L 2900 0 
L 2900 538 
Q 2691 219 2414 64 
Q 2138 -91 1772 -91 
Q 1169 -91 856 284 
Q 544 659 544 1381 
z
M 1991 3584 
L 1991 3584 
z
" transform="scale(0.015625)"/>
      <path id="DejaVuSans-73" d="M 2834 3397 
L 2834 2853 
Q 2591 2978 2328 3040 
Q 2066 3103 1784 3103 
Q 1356 3103 1142 2972 
Q 928 2841 928 2578 
Q 928 2378 1081 2264 
Q 1234 2150 1697 2047 
L 1894 2003 
Q 2506 1872 2764 1633 
Q 3022 1394 3022 966 
Q 3022 478 2636 193 
Q 2250 -91 1575 -91 
Q 1294 -91 989 -36 
Q 684 19 347 128 
L 347 722 
Q 666 556 975 473 
Q 1284 391 1588 391 
Q 1994 391 2212 530 
Q 2431 669 2431 922 
Q 2431 1156 2273 1281 
Q 2116 1406 1581 1522 
L 1381 1569 
Q 847 1681 609 1914 
Q 372 2147 372 2553 
Q 372 3047 722 3315 
Q 1072 3584 1716 3584 
Q 2034 3584 2315 3537 
Q 2597 3491 2834 3397 
z
" transform="scale(0.015625)"/>
      <path id="DejaVuSans-74" d="M 1172 4494 
L 1172 3500 
L 2356 3500 
L 2356 3053 
L 1172 3053 
L 1172 1153 
Q 1172 725 1289 603 
Q 1406 481 1766 481 
L 2356 481 
L 2356 0 
L 1766 0 
Q 1100 0 847 248 
Q 594 497 594 1153 
L 594 3053 
L 172 3053 
L 172 3500 
L 594 3500 
L 594 4494 
L 1172 4494 
z
" transform="scale(0.015625)"/>
      <path id="DejaVuSans-2f" d="M 1625 4666 
L 2156 4666 
L 531 -594 
L 0 -594 
L 1625 4666 
z
" transform="scale(0.015625)"/>
      <path id="DejaVuSans-43" d="M 4122 4306 
L 4122 3641 
Q 3803 3938 3442 4084 
Q 3081 4231 2675 4231 
Q 1875 4231 1450 3742 
Q 1025 3253 1025 2328 
Q 1025 1406 1450 917 
Q 1875 428 2675 428 
Q 3081 428 3442 575 
Q 3803 722 4122 1019 
L 4122 359 
Q 3791 134 3420 21 
Q 3050 -91 2638 -91 
Q 1578 -91 968 557 
Q 359 1206 359 2328 
Q 359 3453 968 4101 
Q 1578 4750 2638 4750 
Q 3056 4750 3426 4639 
Q 3797 4528 4122 4306 
z
" transform="scale(0.015625)"/>
      <path id="DejaVuSans-6f" d="M 1959 3097 
Q 1497 3097 1228 2736 
Q 959 2375 959 1747 
Q 959 1119 1226 758 
Q 1494 397 1959 397 
Q 2419 397 2687 759 
Q 2956 1122 2956 1747 
Q 2956 2369 2687 2733 
Q 2419 3097 1959 3097 
z
M 1959 3584 
Q 2709 3584 3137 3096 
Q 3566 2609 3566 1747 
Q 3566 888 3137 398 
Q 2709 -91 1959 -91 
Q 1206 -91 779 398 
Q 353 888 353 1747 
Q 353 2609 779 3096 
Q 1206 3584 1959 3584 
z
" transform="scale(0.015625)"/>
      <path id="DejaVuSans-72" d="M 2631 2963 
Q 2534 3019 2420 3045 
Q 2306 3072 2169 3072 
Q 1681 3072 1420 2755 
Q 1159 2438 1159 1844 
L 1159 0 
L 581 0 
L 581 3500 
L 1159 3500 
L 1159 2956 
Q 1341 3275 1631 3429 
Q 1922 3584 2338 3584 
Q 2397 3584 2469 3576 
Q 2541 3569 2628 3553 
L 2631 2963 
z
" transform="scale(0.015625)"/>
      <path id="DejaVuSans-65" d="M 3597 1894 
L 3597 1613 
L 953 1613 
Q 991 1019 1311 708 
Q 1631 397 2203 397 
Q 2534 397 2845 478 
Q 3156 559 3463 722 
L 3463 178 
Q 3153 47 2828 -22 
Q 2503 -91 2169 -91 
Q 1331 -91 842 396 
Q 353 884 353 1716 
Q 353 2575 817 3079 
Q 1281 3584 2069 3584 
Q 2775 3584 3186 3129 
Q 3597 2675 3597 1894 
z
M 3022 2063 
Q 3016 2534 2758 2815 
Q 2500 3097 2075 3097 
Q 1594 3097 1305 2825 
Q 1016 2553 972 2059 
L 3022 2063 
z
" transform="scale(0.015625)"/>
      <path id="DejaVuSans-69" d="M 603 3500 
L 1178 3500 
L 1178 0 
L 603 0 
L 603 3500 
z
M 603 4863 
L 1178 4863 
L 1178 4134 
L 603 4134 
L 603 4863 
z
" transform="scale(0.015625)"/>
      <path id="DejaVuSans-6c" d="M 603 4863 
L 1178 4863 
L 1178 0 
L 603 0 
L 603 4863 
z
" transform="scale(0.015625)"/>
      <path id="DejaVuSans-20" transform="scale(0.015625)"/>
      <path id="DejaVuSans-6e" d="M 3513 2113 
L 3513 0 
L 2938 0 
L 2938 2094 
Q 2938 2591 2744 2837 
Q 2550 3084 2163 3084 
Q 1697 3084 1428 2787 
Q 1159 2491 1159 1978 
L 1159 0 
L 581 0 
L 581 3500 
L 1159 3500 
L 1159 2956 
Q 1366 3272 1645 3428 
Q 1925 3584 2291 3584 
Q 2894 3584 3203 3211 
Q 3513 2838 3513 2113 
z
" transform="scale(0.015625)"/>
      <path id="DejaVuSans-67" d="M 2906 1791 
Q 2906 2416 2648 2759 
Q 2391 3103 1925 3103 
Q 1463 3103 1205 2759 
Q 947 2416 947 1791 
Q 947 1169 1205 825 
Q 1463 481 1925 481 
Q 2391 481 2648 825 
Q 2906 1169 2906 1791 
z
M 3481 434 
Q 3481 -459 3084 -895 
Q 2688 -1331 1869 -1331 
Q 1566 -1331 1297 -1286 
Q 1028 -1241 775 -1147 
L 775 -588 
Q 1028 -725 1275 -790 
Q 1522 -856 1778 -856 
Q 2344 -856 2625 -561 
Q 2906 -266 2906 331 
L 2906 616 
Q 2728 306 2450 153 
Q 2172 0 1784 0 
Q 1141 0 747 490 
Q 353 981 353 1791 
Q 353 2603 747 3093 
Q 1141 3584 1784 3584 
Q 2172 3584 2450 3431 
Q 2728 3278 2906 2969 
L 2906 3500 
L 3481 3500 
L 3481 434 
z
" transform="scale(0.015625)"/>
      <path id="DejaVuSans-47" d="M 3809 666 
L 3809 1919 
L 2778 1919 
L 2778 2438 
L 4434 2438 
L 4434 434 
Q 4069 175 3628 42 
Q 3188 -91 2688 -91 
Q 1594 -91 976 548 
Q 359 1188 359 2328 
Q 359 3472 976 4111 
Q 1594 4750 2688 4750 
Q 3144 4750 3555 4637 
Q 3966 4525 4313 4306 
L 4313 3634 
Q 3963 3931 3569 4081 
Q 3175 4231 2741 4231 
Q 1884 4231 1454 3753 
Q 1025 3275 1025 2328 
Q 1025 1384 1454 906 
Q 1884 428 2741 428 
Q 3075 428 3337 486 
Q 3600 544 3809 666 
z
" transform="scale(0.015625)"/>
      <path id="DejaVuSans-4e" d="M 628 4666 
L 1478 4666 
L 3547 763 
L 3547 4666 
L 4159 4666 
L 4159 0 
L 3309 0 
L 1241 3903 
L 1241 0 
L 628 0 
L 628 4666 
z
" transform="scale(0.015625)"/>
      <path id="DejaVuSans-55" d="M 556 4666 
L 1191 4666 
L 1191 1831 
Q 1191 1081 1462 751 
Q 1734 422 2344 422 
Q 2950 422 3222 751 
Q 3494 1081 3494 1831 
L 3494 4666 
L 4128 4666 
L 4128 1753 
Q 4128 841 3676 375 
Q 3225 -91 2344 -91 
Q 1459 -91 1007 375 
Q 556 841 556 1753 
L 556 4666 
z
" transform="scale(0.015625)"/>
      <path id="DejaVuSans-27" d="M 1147 4666 
L 1147 2931 
L 616 2931 
L 616 4666 
L 1147 4666 
z
" transform="scale(0.015625)"/>
     </defs>
     <use xlink:href="#DejaVuSans-52"/>
     <use xlink:href="#DejaVuSans-75" x="64.982422"/>
     <use xlink:href="#DejaVuSans-73" x="128.361328"/>
     <use xlink:href="#DejaVuSans-74" x="180.460938"/>
     <use xlink:href="#DejaVuSans-2f" x="219.669922"/>
     <use xlink:href="#DejaVuSans-43" x="253.361328"/>
     <use xlink:href="#DejaVuSans-6f" x="323.185547"/>
     <use xlink:href="#DejaVuSans-72" x="384.367188"/>
     <use xlink:href="#DejaVuSans-65" x="423.230469"/>
     <use xlink:href="#DejaVuSans-75" x="484.753906"/>
     <use xlink:href="#DejaVuSans-74" x="548.132812"/>
     <use xlink:href="#DejaVuSans-69" x="587.341797"/>
     <use xlink:href="#DejaVuSans-6c" x="615.125"/>
     <use xlink:href="#DejaVuSans-73" x="642.908203"/>
     <use xlink:href="#DejaVuSans-20" x="695.007812"/>
     <use xlink:href="#DejaVuSans-72" x="726.794922"/>
     <use xlink:href="#DejaVuSans-75" x="767.908203"/>
     <use xlink:href="#DejaVuSans-6e" x="831.287109"/>
     <use xlink:href="#DejaVuSans-6e" x="894.666016"/>
     <use xlink:href="#DejaVuSans-69" x="958.044922"/>
     <use xlink:href="#DejaVuSans-6e" x="985.828125"/>
     <use xlink:href="#DejaVuSans-67" x="1049.207031"/>
     <use xlink:href="#DejaVuSans-20" x="1112.683594"/>
     <use xlink:href="#DejaVuSans-47" x="1144.470703"/>
     <use xlink:href="#DejaVuSans-4e" x="1221.960938"/>
     <use xlink:href="#DejaVuSans-55" x="1296.765625"/>
     <use xlink:href="#DejaVuSans-27" x="1369.958984"/>
     <use xlink:href="#DejaVuSans-73" x="1397.449219"/>
     <use xlink:href="#DejaVuSans-20" x="1449.548828"/>
     <use xlink:href="#DejaVuSans-74" x="1481.335938"/>
     <use xlink:href="#DejaVuSans-65" x="1520.544922"/>
     <use xlink:href="#DejaVuSans-73" x="1582.068359"/>
     <use xlink:href="#DejaVuSans-74" x="1634.167969"/>
     <use xlink:href="#DejaVuSans-73" x="1673.376953"/>
     <use xlink:href="#DejaVuSans-75" x="1725.476562"/>
     <use xlink:href="#DejaVuSans-69" x="1788.855469"/>
     <use xlink:href="#DejaVuSans-74" x="1816.638672"/>
     <use xlink:href="#DejaVuSans-65" x="1855.847656"/>
    </g>
   </g>
   <g id="legend_1">
    <g id="patch_7">
     <path d="M 505.762812 236.769437 
L 561.9675 236.769437 
Q 563.9675 236.769437 563.9675 234.769437 
L 563.9675 162.378812 
Q 563.9675 160.378812 561.9675 160.378812 
L 505.762812 160.378812 
Q 503.762812 160.378812 503.762812 162.378812 
L 503.762812 234.769437 
Q 503.762812 236.769437 505.762812 236.769437 
z
" style="fill: #ffffff; opacity: 0.8; stroke: #cccccc; stroke-linejoin: miter"/>
    </g>
    <g id="line2d_22">
     <path d="M 507.762812 168.47725 
L 517.762812 168.47725 
L 527.762812 168.47725 
" style="fill: none; stroke: #0000ff; stroke-width: 1.5; stroke-linecap: square"/>
    </g>
    <g id="text_18">
     <!-- total -->
     <g transform="translate(535.762812 171.97725) scale(0.1 -0.1)">
      <defs>
       <path id="DejaVuSans-61" d="M 2194 1759 
Q 1497 1759 1228 1600 
Q 959 1441 959 1056 
Q 959 750 1161 570 
Q 1363 391 1709 391 
Q 2188 391 2477 730 
Q 2766 1069 2766 1631 
L 2766 1759 
L 2194 1759 
z
M 3341 1997 
L 3341 0 
L 2766 0 
L 2766 531 
Q 2569 213 2275 61 
Q 1981 -91 1556 -91 
Q 1019 -91 701 211 
Q 384 513 384 1019 
Q 384 1609 779 1909 
Q 1175 2209 1959 2209 
L 2766 2209 
L 2766 2266 
Q 2766 2663 2505 2880 
Q 2244 3097 1772 3097 
Q 1472 3097 1187 3025 
Q 903 2953 641 2809 
L 641 3341 
Q 956 3463 1253 3523 
Q 1550 3584 1831 3584 
Q 2591 3584 2966 3190 
Q 3341 2797 3341 1997 
z
" transform="scale(0.015625)"/>
      </defs>
      <use xlink:href="#DejaVuSans-74"/>
      <use xlink:href="#DejaVuSans-6f" x="39.208984"/>
      <use xlink:href="#DejaVuSans-74" x="100.390625"/>
      <use xlink:href="#DejaVuSans-61" x="139.599609"/>
      <use xlink:href="#DejaVuSans-6c" x="200.878906"/>
     </g>
    </g>
    <g id="line2d_23">
     <path d="M 507.762812 183.155375 
L 517.762812 183.155375 
L 527.762812 183.155375 
" style="fill: none; stroke-dasharray: 3,1.5; stroke-dashoffset: 0; stroke: #808080; stroke-width: 1.5"/>
    </g>
    <g id="text_19">
     <!-- fail -->
     <g transform="translate(535.762812 186.655375) scale(0.1 -0.1)">
      <defs>
       <path id="DejaVuSans-66" d="M 2375 4863 
L 2375 4384 
L 1825 4384 
Q 1516 4384 1395 4259 
Q 1275 4134 1275 3809 
L 1275 3500 
L 2222 3500 
L 2222 3053 
L 1275 3053 
L 1275 0 
L 697 0 
L 697 3053 
L 147 3053 
L 147 3500 
L 697 3500 
L 697 3744 
Q 697 4328 969 4595 
Q 1241 4863 1831 4863 
L 2375 4863 
z
" transform="scale(0.015625)"/>
      </defs>
      <use xlink:href="#DejaVuSans-66"/>
      <use xlink:href="#DejaVuSans-61" x="35.205078"/>
      <use xlink:href="#DejaVuSans-69" x="96.484375"/>
      <use xlink:href="#DejaVuSans-6c" x="124.267578"/>
     </g>
    </g>
    <g id="line2d_24">
     <path d="M 507.762812 197.8335 
L 517.762812 197.8335 
L 527.762812 197.8335 
" style="fill: none; stroke-dasharray: 6,1.5; stroke-dashoffset: 0; stroke: #008000; stroke-width: 1.5"/>
    </g>
    <g id="text_20">
     <!-- pass -->
     <g transform="translate(535.762812 201.3335) scale(0.1 -0.1)">
      <defs>
       <path id="DejaVuSans-70" d="M 1159 525 
L 1159 -1331 
L 581 -1331 
L 581 3500 
L 1159 3500 
L 1159 2969 
Q 1341 3281 1617 3432 
Q 1894 3584 2278 3584 
Q 2916 3584 3314 3078 
Q 3713 2572 3713 1747 
Q 3713 922 3314 415 
Q 2916 -91 2278 -91 
Q 1894 -91 1617 61 
Q 1341 213 1159 525 
z
M 3116 1747 
Q 3116 2381 2855 2742 
Q 2594 3103 2138 3103 
Q 1681 3103 1420 2742 
Q 1159 2381 1159 1747 
Q 1159 1113 1420 752 
Q 1681 391 2138 391 
Q 2594 391 2855 752 
Q 3116 1113 3116 1747 
z
" transform="scale(0.015625)"/>
      </defs>
      <use xlink:href="#DejaVuSans-70"/>
      <use xlink:href="#DejaVuSans-61" x="63.476562"/>
      <use xlink:href="#DejaVuSans-73" x="124.755859"/>
      <use xlink:href="#DejaVuSans-73" x="176.855469"/>
     </g>
    </g>
    <g id="line2d_25">
     <path d="M 507.762812 212.511625 
L 517.762812 212.511625 
L 527.762812 212.511625 
" style="fill: none; stroke-dasharray: 9,3; stroke-dashoffset: 0; stroke: #ffa500; stroke-width: 1.5"/>
    </g>
    <g id="text_21">
     <!-- error -->
     <g transform="translate(535.762812 216.011625) scale(0.1 -0.1)">
      <use xlink:href="#DejaVuSans-65"/>
      <use xlink:href="#DejaVuSans-72" x="61.523438"/>
      <use xlink:href="#DejaVuSans-72" x="100.886719"/>
      <use xlink:href="#DejaVuSans-6f" x="139.75"/>
      <use xlink:href="#DejaVuSans-72" x="200.931641"/>
     </g>
    </g>
    <g id="line2d_26">
     <path d="M 507.762812 227.18975 
L 517.762812 227.18975 
L 527.762812 227.18975 
" style="fill: none; stroke-dasharray: 12,4.5; stroke-dashoffset: 0; stroke: #ee82ee; stroke-width: 1.5"/>
    </g>
    <g id="text_22">
     <!-- skip -->
     <g transform="translate(535.762812 230.68975) scale(0.1 -0.1)">
      <defs>
       <path id="DejaVuSans-6b" d="M 581 4863 
L 1159 4863 
L 1159 1991 
L 2875 3500 
L 3609 3500 
L 1753 1863 
L 3688 0 
L 2938 0 
L 1159 1709 
L 1159 0 
L 581 0 
L 581 4863 
z
" transform="scale(0.015625)"/>
      </defs>
      <use xlink:href="#DejaVuSans-73"/>
      <use xlink:href="#DejaVuSans-6b" x="52.099609"/>
      <use xlink:href="#DejaVuSans-69" x="110.009766"/>
      <use xlink:href="#DejaVuSans-70" x="137.792969"/>
     </g>
    </g>
   </g>
  </g>
 </g>
 <defs>
  <clipPath id="p7afb04687f">
   <rect x="33.2875" y="22.318125" width="535.68" height="352.512"/>
  </clipPath>
 </defs>
</svg>
