<?xml version="1.0" encoding="utf-8" standalone="no"?>
<!DOCTYPE svg PUBLIC "-//W3C//DTD SVG 1.1//EN"
  "http://www.w3.org/Graphics/SVG/1.1/DTD/svg11.dtd">
<svg xmlns:xlink="http://www.w3.org/1999/xlink" width="576.1675pt" height="418.303033pt" viewBox="0 0 576.1675 418.303033" xmlns="http://www.w3.org/2000/svg" version="1.1">
 <metadata>
  <rdf:RDF xmlns:dc="http://purl.org/dc/elements/1.1/" xmlns:cc="http://creativecommons.org/ns#" xmlns:rdf="http://www.w3.org/1999/02/22-rdf-syntax-ns#">
   <cc:Work>
    <dc:type rdf:resource="http://purl.org/dc/dcmitype/StillImage"/>
    <dc:date>2025-12-12T02:34:56.172123</dc:date>
    <dc:format>image/svg+xml</dc:format>
    <dc:creator>
     <cc:Agent>
      <dc:title>Matplotlib v3.6.3, https://matplotlib.org/</dc:title>
     </cc:Agent>
    </dc:creator>
   </cc:Work>
  </rdf:RDF>
 </metadata>
 <defs>
  <style type="text/css">*{stroke-linejoin: round; stroke-linecap: butt}</style>
 </defs>
 <g id="figure_1">
  <g id="patch_1">
   <path d="M -0 418.303033 
L 576.1675 418.303033 
L 576.1675 0 
L -0 0 
z
" style="fill: #ffffff"/>
  </g>
  <g id="axes_1">
   <g id="patch_2">
    <path d="M 33.2875 374.830125 
L 568.9675 374.830125 
L 568.9675 22.318125 
L 33.2875 22.318125 
z
" style="fill: #ffffff"/>
   </g>
   <g id="matplotlib.axis_1">
    <g id="xtick_1">
     <g id="line2d_1">
      <defs>
       <path id="mb8f27f996b" d="M 0 0 
L 0 3.5 
" style="stroke: #000000; stroke-width: 0.8"/>
      </defs>
      <g>
       <use xlink:href="#mb8f27f996b" x="60.647105" y="374.830125" style="stroke: #000000; stroke-width: 0.8"/>
      </g>
     </g>
     <g id="text_1">
      <!-- 2021-07 -->
      <g transform="translate(23.422284 409.301971) rotate(-30) scale(0.1 -0.1)">
       <defs>
        <path id="DejaVuSans-32" d="M 1228 531 
L 3431 531 
L 3431 0 
L 469 0 
L 469 531 
Q 828 903 1448 1529 
Q 2069 2156 2228 2338 
Q 2531 2678 2651 2914 
Q 2772 3150 2772 3378 
Q 2772 3750 2511 3984 
Q 2250 4219 1831 4219 
Q 1534 4219 1204 4116 
Q 875 4013 500 3803 
L 500 4441 
Q 881 4594 1212 4672 
Q 1544 4750 1819 4750 
Q 2544 4750 2975 4387 
Q 3406 4025 3406 3419 
Q 3406 3131 3298 2873 
Q 3191 2616 2906 2266 
Q 2828 2175 2409 1742 
Q 1991 1309 1228 531 
z
" transform="scale(0.015625)"/>
        <path id="DejaVuSans-30" d="M 2034 4250 
Q 1547 4250 1301 3770 
Q 1056 3291 1056 2328 
Q 1056 1369 1301 889 
Q 1547 409 2034 409 
Q 2525 409 2770 889 
Q 3016 1369 3016 2328 
Q 3016 3291 2770 3770 
Q 2525 4250 2034 4250 
z
M 2034 4750 
Q 2819 4750 3233 4129 
Q 3647 3509 3647 2328 
Q 3647 1150 3233 529 
Q 2819 -91 2034 -91 
Q 1250 -91 836 529 
Q 422 1150 422 2328 
Q 422 3509 836 4129 
Q 1250 4750 2034 4750 
z
" transform="scale(0.015625)"/>
        <path id="DejaVuSans-31" d="M 794 531 
L 1825 531 
L 1825 4091 
L 703 3866 
L 703 4441 
L 1819 4666 
L 2450 4666 
L 2450 531 
L 3481 531 
L 3481 0 
L 794 0 
L 794 531 
z
" transform="scale(0.015625)"/>
        <path id="DejaVuSans-2d" d="M 313 2009 
L 1997 2009 
L 1997 1497 
L 313 1497 
L 313 2009 
z
" transform="scale(0.015625)"/>
        <path id="DejaVuSans-37" d="M 525 4666 
L 3525 4666 
L 3525 4397 
L 1831 0 
L 1172 0 
L 2766 4134 
L 525 4134 
L 525 4666 
z
" transform="scale(0.015625)"/>
       </defs>
       <use xlink:href="#DejaVuSans-32"/>
       <use xlink:href="#DejaVuSans-30" x="63.623047"/>
       <use xlink:href="#DejaVuSans-32" x="127.246094"/>
       <use xlink:href="#DejaVuSans-31" x="190.869141"/>
       <use xlink:href="#DejaVuSans-2d" x="254.492188"/>
       <use xlink:href="#DejaVuSans-30" x="290.576172"/>
       <use xlink:href="#DejaVuSans-37" x="354.199219"/>
      </g>
     </g>
    </g>
    <g id="xtick_2">
     <g id="line2d_2">
      <g>
       <use xlink:href="#mb8f27f996b" x="117.609837" y="374.830125" style="stroke: #000000; stroke-width: 0.8"/>
      </g>
     </g>
     <g id="text_2">
      <!-- 2022-01 -->
      <g transform="translate(80.385016 409.301971) rotate(-30) scale(0.1 -0.1)">
       <use xlink:href="#DejaVuSans-32"/>
       <use xlink:href="#DejaVuSans-30" x="63.623047"/>
       <use xlink:href="#DejaVuSans-32" x="127.246094"/>
       <use xlink:href="#DejaVuSans-32" x="190.869141"/>
       <use xlink:href="#DejaVuSans-2d" x="254.492188"/>
       <use xlink:href="#DejaVuSans-30" x="290.576172"/>
       <use xlink:href="#DejaVuSans-31" x="354.199219"/>
      </g>
     </g>
    </g>
    <g id="xtick_3">
     <g id="line2d_3">
      <g>
       <use xlink:href="#mb8f27f996b" x="173.643828" y="374.830125" style="stroke: #000000; stroke-width: 0.8"/>
      </g>
     </g>
     <g id="text_3">
      <!-- 2022-07 -->
      <g transform="translate(136.419008 409.301971) rotate(-30) scale(0.1 -0.1)">
       <use xlink:href="#DejaVuSans-32"/>
       <use xlink:href="#DejaVuSans-30" x="63.623047"/>
       <use xlink:href="#DejaVuSans-32" x="127.246094"/>
       <use xlink:href="#DejaVuSans-32" x="190.869141"/>
       <use xlink:href="#DejaVuSans-2d" x="254.492188"/>
       <use xlink:href="#DejaVuSans-30" x="290.576172"/>
       <use xlink:href="#DejaVuSans-37" x="354.199219"/>
      </g>
     </g>
    </g>
    <g id="xtick_4">
     <g id="line2d_4">
      <g>
       <use xlink:href="#mb8f27f996b" x="230.60656" y="374.830125" style="stroke: #000000; stroke-width: 0.8"/>
      </g>
     </g>
     <g id="text_4">
      <!-- 2023-01 -->
      <g transform="translate(193.38174 409.301971) rotate(-30) scale(0.1 -0.1)">
       <defs>
        <path id="DejaVuSans-33" d="M 2597 2516 
Q 3050 2419 3304 2112 
Q 3559 1806 3559 1356 
Q 3559 666 3084 287 
Q 2609 -91 1734 -91 
Q 1441 -91 1130 -33 
Q 819 25 488 141 
L 488 750 
Q 750 597 1062 519 
Q 1375 441 1716 441 
Q 2309 441 2620 675 
Q 2931 909 2931 1356 
Q 2931 1769 2642 2001 
Q 2353 2234 1838 2234 
L 1294 2234 
L 1294 2753 
L 1863 2753 
Q 2328 2753 2575 2939 
Q 2822 3125 2822 3475 
Q 2822 3834 2567 4026 
Q 2313 4219 1838 4219 
Q 1578 4219 1281 4162 
Q 984 4106 628 3988 
L 628 4550 
Q 988 4650 1302 4700 
Q 1616 4750 1894 4750 
Q 2613 4750 3031 4423 
Q 3450 4097 3450 3541 
Q 3450 3153 3228 2886 
Q 3006 2619 2597 2516 
z
" transform="scale(0.015625)"/>
       </defs>
       <use xlink:href="#DejaVuSans-32"/>
       <use xlink:href="#DejaVuSans-30" x="63.623047"/>
       <use xlink:href="#DejaVuSans-32" x="127.246094"/>
       <use xlink:href="#DejaVuSans-33" x="190.869141"/>
       <use xlink:href="#DejaVuSans-2d" x="254.492188"/>
       <use xlink:href="#DejaVuSans-30" x="290.576172"/>
       <use xlink:href="#DejaVuSans-31" x="354.199219"/>
      </g>
     </g>
    </g>
    <g id="xtick_5">
     <g id="line2d_5">
      <g>
       <use xlink:href="#mb8f27f996b" x="286.640552" y="374.830125" style="stroke: #000000; stroke-width: 0.8"/>
      </g>
     </g>
     <g id="text_5">
      <!-- 2023-07 -->
      <g transform="translate(249.415731 409.301971) rotate(-30) scale(0.1 -0.1)">
       <use xlink:href="#DejaVuSans-32"/>
       <use xlink:href="#DejaVuSans-30" x="63.623047"/>
       <use xlink:href="#DejaVuSans-32" x="127.246094"/>
       <use xlink:href="#DejaVuSans-33" x="190.869141"/>
       <use xlink:href="#DejaVuSans-2d" x="254.492188"/>
       <use xlink:href="#DejaVuSans-30" x="290.576172"/>
       <use xlink:href="#DejaVuSans-37" x="354.199219"/>
      </g>
     </g>
    </g>
    <g id="xtick_6">
     <g id="line2d_6">
      <g>
       <use xlink:href="#mb8f27f996b" x="343.603284" y="374.830125" style="stroke: #000000; stroke-width: 0.8"/>
      </g>
     </g>
     <g id="text_6">
      <!-- 2024-01 -->
      <g transform="translate(306.378463 409.301971) rotate(-30) scale(0.1 -0.1)">
       <defs>
        <path id="DejaVuSans-34" d="M 2419 4116 
L 825 1625 
L 2419 1625 
L 2419 4116 
z
M 2253 4666 
L 3047 4666 
L 3047 1625 
L 3713 1625 
L 3713 1100 
L 3047 1100 
L 3047 0 
L 2419 0 
L 2419 1100 
L 313 1100 
L 313 1709 
L 2253 4666 
z
" transform="scale(0.015625)"/>
       </defs>
       <use xlink:href="#DejaVuSans-32"/>
       <use xlink:href="#DejaVuSans-30" x="63.623047"/>
       <use xlink:href="#DejaVuSans-32" x="127.246094"/>
       <use xlink:href="#DejaVuSans-34" x="190.869141"/>
       <use xlink:href="#DejaVuSans-2d" x="254.492188"/>
       <use xlink:href="#DejaVuSans-30" x="290.576172"/>
       <use xlink:href="#DejaVuSans-31" x="354.199219"/>
      </g>
     </g>
    </g>
    <g id="xtick_7">
     <g id="line2d_7">
      <g>
       <use xlink:href="#mb8f27f996b" x="399.946856" y="374.830125" style="stroke: #000000; stroke-width: 0.8"/>
      </g>
     </g>
     <g id="text_7">
      <!-- 2024-07 -->
      <g transform="translate(362.722035 409.301971) rotate(-30) scale(0.1 -0.1)">
       <use xlink:href="#DejaVuSans-32"/>
       <use xlink:href="#DejaVuSans-30" x="63.623047"/>
       <use xlink:href="#DejaVuSans-32" x="127.246094"/>
       <use xlink:href="#DejaVuSans-34" x="190.869141"/>
       <use xlink:href="#DejaVuSans-2d" x="254.492188"/>
       <use xlink:href="#DejaVuSans-30" x="290.576172"/>
       <use xlink:href="#DejaVuSans-37" x="354.199219"/>
      </g>
     </g>
    </g>
    <g id="xtick_8">
     <g id="line2d_8">
      <g>
       <use xlink:href="#mb8f27f996b" x="456.909588" y="374.830125" style="stroke: #000000; stroke-width: 0.8"/>
      </g>
     </g>
     <g id="text_8">
      <!-- 2025-01 -->
      <g transform="translate(419.684767 409.301971) rotate(-30) scale(0.1 -0.1)">
       <defs>
        <path id="DejaVuSans-35" d="M 691 4666 
L 3169 4666 
L 3169 4134 
L 1269 4134 
L 1269 2991 
Q 1406 3038 1543 3061 
Q 1681 3084 1819 3084 
Q 2600 3084 3056 2656 
Q 3513 2228 3513 1497 
Q 3513 744 3044 326 
Q 2575 -91 1722 -91 
Q 1428 -91 1123 -41 
Q 819 9 494 109 
L 494 744 
Q 775 591 1075 516 
Q 1375 441 1709 441 
Q 2250 441 2565 725 
Q 2881 1009 2881 1497 
Q 2881 1984 2565 2268 
Q 2250 2553 1709 2553 
Q 1456 2553 1204 2497 
Q 953 2441 691 2322 
L 691 4666 
z
" transform="scale(0.015625)"/>
       </defs>
       <use xlink:href="#DejaVuSans-32"/>
       <use xlink:href="#DejaVuSans-30" x="63.623047"/>
       <use xlink:href="#DejaVuSans-32" x="127.246094"/>
       <use xlink:href="#DejaVuSans-35" x="190.869141"/>
       <use xlink:href="#DejaVuSans-2d" x="254.492188"/>
       <use xlink:href="#DejaVuSans-30" x="290.576172"/>
       <use xlink:href="#DejaVuSans-31" x="354.199219"/>
      </g>
     </g>
    </g>
    <g id="xtick_9">
     <g id="line2d_9">
      <g>
       <use xlink:href="#mb8f27f996b" x="512.94358" y="374.830125" style="stroke: #000000; stroke-width: 0.8"/>
      </g>
     </g>
     <g id="text_9">
      <!-- 2025-07 -->
      <g transform="translate(475.718759 409.301971) rotate(-30) scale(0.1 -0.1)">
       <use xlink:href="#DejaVuSans-32"/>
       <use xlink:href="#DejaVuSans-30" x="63.623047"/>
       <use xlink:href="#DejaVuSans-32" x="127.246094"/>
       <use xlink:href="#DejaVuSans-35" x="190.869141"/>
       <use xlink:href="#DejaVuSans-2d" x="254.492188"/>
       <use xlink:href="#DejaVuSans-30" x="290.576172"/>
       <use xlink:href="#DejaVuSans-37" x="354.199219"/>
      </g>
     </g>
    </g>
   </g>
   <g id="matplotlib.axis_2">
    <g id="ytick_1">
     <g id="line2d_10">
      <defs>
       <path id="m1073034d5c" d="M 0 0 
L -3.5 0 
" style="stroke: #000000; stroke-width: 0.8"/>
      </defs>
      <g>
       <use xlink:href="#m1073034d5c" x="33.2875" y="374.830125" style="stroke: #000000; stroke-width: 0.8"/>
      </g>
     </g>
     <g id="text_10">
      <!-- 0 -->
      <g transform="translate(19.925 378.629344) scale(0.1 -0.1)">
       <use xlink:href="#DejaVuSans-30"/>
      </g>
     </g>
    </g>
    <g id="ytick_2">
     <g id="line2d_11">
      <g>
       <use xlink:href="#m1073034d5c" x="33.2875" y="320.718221" style="stroke: #000000; stroke-width: 0.8"/>
      </g>
     </g>
     <g id="text_11">
      <!-- 100 -->
      <g transform="translate(7.2 324.51744) scale(0.1 -0.1)">
       <use xlink:href="#DejaVuSans-31"/>
       <use xlink:href="#DejaVuSans-30" x="63.623047"/>
       <use xlink:href="#DejaVuSans-30" x="127.246094"/>
      </g>
     </g>
    </g>
    <g id="ytick_3">
     <g id="line2d_12">
      <g>
       <use xlink:href="#m1073034d5c" x="33.2875" y="266.606317" style="stroke: #000000; stroke-width: 0.8"/>
      </g>
     </g>
     <g id="text_12">
      <!-- 200 -->
      <g transform="translate(7.2 270.405535) scale(0.1 -0.1)">
       <use xlink:href="#DejaVuSans-32"/>
       <use xlink:href="#DejaVuSans-30" x="63.623047"/>
       <use xlink:href="#DejaVuSans-30" x="127.246094"/>
      </g>
     </g>
    </g>
    <g id="ytick_4">
     <g id="line2d_13">
      <g>
       <use xlink:href="#m1073034d5c" x="33.2875" y="212.494412" style="stroke: #000000; stroke-width: 0.8"/>
      </g>
     </g>
     <g id="text_13">
      <!-- 300 -->
      <g transform="translate(7.2 216.293631) scale(0.1 -0.1)">
       <use xlink:href="#DejaVuSans-33"/>
       <use xlink:href="#DejaVuSans-30" x="63.623047"/>
       <use xlink:href="#DejaVuSans-30" x="127.246094"/>
      </g>
     </g>
    </g>
    <g id="ytick_5">
     <g id="line2d_14">
      <g>
       <use xlink:href="#m1073034d5c" x="33.2875" y="158.382508" style="stroke: #000000; stroke-width: 0.8"/>
      </g>
     </g>
     <g id="text_14">
      <!-- 400 -->
      <g transform="translate(7.2 162.181727) scale(0.1 -0.1)">
       <use xlink:href="#DejaVuSans-34"/>
       <use xlink:href="#DejaVuSans-30" x="63.623047"/>
       <use xlink:href="#DejaVuSans-30" x="127.246094"/>
      </g>
     </g>
    </g>
    <g id="ytick_6">
     <g id="line2d_15">
      <g>
       <use xlink:href="#m1073034d5c" x="33.2875" y="104.270604" style="stroke: #000000; stroke-width: 0.8"/>
      </g>
     </g>
     <g id="text_15">
      <!-- 500 -->
      <g transform="translate(7.2 108.069823) scale(0.1 -0.1)">
       <use xlink:href="#DejaVuSans-35"/>
       <use xlink:href="#DejaVuSans-30" x="63.623047"/>
       <use xlink:href="#DejaVuSans-30" x="127.246094"/>
      </g>
     </g>
    </g>
    <g id="ytick_7">
     <g id="line2d_16">
      <g>
       <use xlink:href="#m1073034d5c" x="33.2875" y="50.1587" style="stroke: #000000; stroke-width: 0.8"/>
      </g>
     </g>
     <g id="text_16">
      <!-- 600 -->
      <g transform="translate(7.2 53.957918) scale(0.1 -0.1)">
       <defs>
        <path id="DejaVuSans-36" d="M 2113 2584 
Q 1688 2584 1439 2293 
Q 1191 2003 1191 1497 
Q 1191 994 1439 701 
Q 1688 409 2113 409 
Q 2538 409 2786 701 
Q 3034 994 3034 1497 
Q 3034 2003 2786 2293 
Q 2538 2584 2113 2584 
z
M 3366 4563 
L 3366 3988 
Q 3128 4100 2886 4159 
Q 2644 4219 2406 4219 
Q 1781 4219 1451 3797 
Q 1122 3375 1075 2522 
Q 1259 2794 1537 2939 
Q 1816 3084 2150 3084 
Q 2853 3084 3261 2657 
Q 3669 2231 3669 1497 
Q 3669 778 3244 343 
Q 2819 -91 2113 -91 
Q 1303 -91 875 529 
Q 447 1150 447 2328 
Q 447 3434 972 4092 
Q 1497 4750 2381 4750 
Q 2619 4750 2861 4703 
Q 3103 4656 3366 4563 
z
" transform="scale(0.015625)"/>
       </defs>
       <use xlink:href="#DejaVuSans-36"/>
       <use xlink:href="#DejaVuSans-30" x="63.623047"/>
       <use xlink:href="#DejaVuSans-30" x="127.246094"/>
      </g>
     </g>
    </g>
   </g>
   <g id="line2d_17">
    <path d="M 38.539265 37.171843 
L 47.744664 37.171843 
L 47.848871 40.418557 
L 49.137684 40.418557 
L 49.609464 49.617581 
L 125.659423 49.617581 
L 126.038061 44.20639 
L 138.693239 44.20639 
L 139.436639 44.747509 
L 145.371594 44.747509 
L 145.579145 55.56989 
L 151.597865 55.56989 
L 152.845183 53.946533 
L 255.957377 53.946533 
L 256.251051 50.1587 
L 264.332528 50.1587 
L 264.620968 49.076462 
L 305.183681 49.076462 
L 305.385682 47.994224 
L 370.933557 47.994224 
L 371.121337 43.665271 
L 420.814838 43.665271 
L 420.900306 43.124152 
L 458.85733 43.124152 
L 459.206153 42.583033 
L 462.658845 42.583033 
L 462.773407 40.418557 
L 464.159022 40.418557 
L 464.519045 40.959676 
L 488.470319 40.959676 
L 488.766007 40.418557 
L 539.196862 40.418557 
L 539.369019 31.760652 
L 553.794099 31.760652 
L 554.069267 25.808343 
L 563.715735 25.808343 
L 563.715735 25.808343 
" clip-path="url(#p7add854556)" style="fill: none; stroke: #0000ff; stroke-width: 1.5; stroke-linecap: square"/>
   </g>
   <g id="line2d_18">
    <path d="M 38.539265 175.698317 
L 39.804888 174.616079 
L 41.066427 175.698317 
L 44.053875 175.698317 
L 47.347892 176.780556 
L 47.59226 176.239437 
L 47.744664 176.239437 
L 47.848871 179.486151 
L 48.08938 178.945032 
L 48.445099 179.486151 
L 49.137684 179.486151 
L 49.52342 191.39077 
L 49.609464 188.685175 
L 49.809681 191.931889 
L 49.873353 191.39077 
L 50.097712 191.39077 
L 50.456603 191.931889 
L 51.320367 191.931889 
L 51.346151 192.473008 
L 51.814366 192.473008 
L 52.012555 191.931889 
L 52.591992 195.719722 
L 52.658921 195.178603 
L 52.943445 195.719722 
L 53.493824 197.343079 
L 53.867133 196.260841 
L 54.457194 196.260841 
L 54.786951 197.343079 
L 55.00987 197.343079 
L 55.681458 197.884198 
L 55.982819 197.884198 
L 56.310518 198.966436 
L 56.603548 198.425317 
L 56.928944 199.507555 
L 57.267046 201.672032 
L 58.574369 202.75427 
L 59.129507 202.75427 
L 59.367303 203.295389 
L 59.746184 203.295389 
L 60.025117 203.836508 
L 60.30925 203.295389 
L 60.626043 203.295389 
L 60.811558 203.836508 
L 64.020943 203.836508 
L 64.344856 204.377627 
L 64.655249 204.377627 
L 64.77577 203.836508 
L 65.542364 204.377627 
L 65.863658 203.836508 
L 66.749494 203.836508 
L 67.033899 204.377627 
L 67.38356 203.836508 
L 68.995873 203.836508 
L 69.326214 204.377627 
L 69.507537 206.000984 
L 69.948857 204.918746 
L 70.975047 204.918746 
L 71.484184 205.459865 
L 71.792033 205.459865 
L 72.091022 206.000984 
L 72.424741 206.000984 
L 72.73115 205.459865 
L 73.02394 207.083222 
L 73.28388 207.083222 
L 73.990597 208.16546 
L 77.701071 208.16546 
L 77.996029 209.247698 
L 78.624659 209.247698 
L 78.903675 209.788817 
L 79.839488 209.788817 
L 80.735271 211.953293 
L 81.687398 211.953293 
L 82.02842 212.494412 
L 87.780876 212.494412 
L 88.471487 213.57665 
L 88.627933 212.494412 
L 89.735692 212.494412 
L 90.036508 213.035531 
L 90.368396 212.494412 
L 91.158044 212.494412 
L 91.594208 213.035531 
L 91.918002 212.494412 
L 96.808091 212.494412 
L 97.075323 217.364484 
L 97.260598 212.494412 
L 99.032772 212.494412 
L 99.354481 213.035531 
L 99.538107 217.905603 
L 99.971874 213.035531 
L 100.278233 213.035531 
L 100.481599 212.494412 
L 103.690268 212.494412 
L 103.852758 213.035531 
L 104.144358 213.035531 
L 104.62459 214.658889 
L 109.464839 214.658889 
L 110.521205 215.200008 
L 117.022197 215.200008 
L 117.292904 217.364484 
L 117.638817 217.364484 
L 117.945555 215.200008 
L 118.261141 215.200008 
L 118.478596 217.364484 
L 118.714274 215.200008 
L 119.105936 217.364484 
L 119.45287 218.446722 
L 123.475705 218.446722 
L 123.822926 218.987841 
L 125.659423 218.987841 
L 126.038061 213.035531 
L 126.308535 213.57665 
L 126.614256 215.200008 
L 126.991689 215.200008 
L 127.497763 216.282246 
L 127.847022 216.282246 
L 128.104465 216.823365 
L 128.45027 214.658889 
L 130.982198 220.070079 
L 131.240726 218.446722 
L 131.674209 217.905603 
L 133.050999 217.905603 
L 133.404171 217.364484 
L 133.715607 216.282246 
L 134.96239 216.282246 
L 135.190347 215.200008 
L 135.591304 216.282246 
L 136.496797 216.282246 
L 136.804962 217.364484 
L 137.102212 217.364484 
L 137.454256 217.905603 
L 137.596315 217.905603 
L 137.755082 219.52896 
L 137.970305 219.52896 
L 138.693239 220.070079 
L 139.290574 218.987841 
L 139.436639 218.987841 
L 139.904901 219.52896 
L 140.20534 220.611198 
L 141.757959 220.611198 
L 142.057733 221.152317 
L 142.379646 221.152317 
L 142.677681 221.693436 
L 142.956873 221.693436 
L 143.605619 222.234555 
L 143.940667 222.234555 
L 144.274777 223.857912 
L 144.472321 223.857912 
L 144.81957 223.316793 
L 145.371594 223.316793 
L 145.579145 224.94015 
L 146.091134 224.94015 
L 146.394473 226.022388 
L 146.799586 226.022388 
L 147.008258 226.563507 
L 147.467143 226.563507 
L 147.512806 227.104626 
L 147.745234 227.104626 
L 148.235693 227.645746 
L 149.351081 230.89246 
L 150.741371 230.89246 
L 151.024809 231.974698 
L 151.131535 231.433579 
L 151.255127 231.433579 
L 151.597865 230.89246 
L 152.845183 229.269103 
L 155.965818 229.269103 
L 156.327421 228.727984 
L 157.837795 228.727984 
L 158.052756 228.186865 
L 160.881207 228.186865 
L 161.374518 228.727984 
L 161.754442 228.727984 
L 162.166907 229.269103 
L 162.374448 228.727984 
L 164.362747 228.727984 
L 164.990241 229.810222 
L 166.325689 229.810222 
L 166.550529 237.385888 
L 166.803994 237.385888 
L 168.964049 239.009245 
L 169.096785 238.468126 
L 169.235261 239.009245 
L 169.594697 238.468126 
L 169.896197 238.468126 
L 170.213527 239.009245 
L 170.451825 239.009245 
L 170.834404 240.091484 
L 170.991745 240.091484 
L 171.137358 239.550364 
L 171.463733 240.632603 
L 173.633606 240.632603 
L 173.844701 241.173722 
L 175.011975 241.173722 
L 175.476729 240.632603 
L 175.824931 243.338198 
L 176.072821 241.714841 
L 176.396124 241.714841 
L 176.655265 244.961555 
L 176.836581 244.420436 
L 177.029599 244.961555 
L 177.126815 244.420436 
L 177.245803 246.043793 
L 177.554283 246.043793 
L 177.945135 246.584912 
L 178.710644 246.043793 
L 178.884951 247.126031 
L 179.169818 247.126031 
L 179.37155 245.502674 
L 180.056328 247.126031 
L 180.737232 247.66715 
L 181.335223 247.66715 
L 181.648924 249.290507 
L 181.93727 249.290507 
L 182.10807 248.749388 
L 182.407847 248.749388 
L 183.567281 250.913864 
L 183.760647 249.831626 
L 184.132856 249.290507 
L 184.569414 250.913864 
L 185.742859 250.913864 
L 185.843315 251.454983 
L 186.310884 251.996102 
L 187.557313 251.996102 
L 188.127843 254.701698 
L 191.333943 254.701698 
L 191.58711 255.242817 
L 191.920081 254.160579 
L 192.11393 255.242817 
L 195.609226 255.242817 
L 195.901263 255.783936 
L 196.605518 259.03065 
L 196.869732 257.407293 
L 197.184605 257.948412 
L 197.533258 257.407293 
L 197.778608 257.407293 
L 198.150369 255.783936 
L 198.349711 255.783936 
L 198.388402 256.325055 
L 199.015692 256.325055 
L 199.368764 253.078341 
L 199.680046 253.078341 
L 200.616443 253.61946 
L 200.675693 253.078341 
L 201.184114 252.537221 
L 201.259628 253.078341 
L 203.709434 253.078341 
L 203.879897 253.61946 
L 204.337083 254.160579 
L 204.947583 255.242817 
L 205.106372 256.325055 
L 205.320946 256.325055 
L 205.561322 257.407293 
L 205.850736 256.866174 
L 206.174799 256.866174 
L 206.41898 256.325055 
L 206.763216 256.866174 
L 207.070388 256.866174 
L 207.364794 257.407293 
L 207.603117 257.407293 
L 208.051728 256.866174 
L 208.284949 257.407293 
L 208.526332 256.866174 
L 209.227294 252.537221 
L 209.90157 253.61946 
L 210.000152 257.407293 
L 210.150452 257.407293 
L 210.425466 257.948412 
L 210.744968 257.407293 
L 211.036672 257.407293 
L 211.39601 256.866174 
L 211.707253 257.948412 
L 212.830563 257.948412 
L 213.276985 258.489531 
L 213.532109 258.489531 
L 213.551906 259.03065 
L 214.824763 259.03065 
L 215.18714 260.112888 
L 216.968104 260.112888 
L 217.323132 261.195126 
L 218.532099 261.195126 
L 220.734507 260.654007 
L 220.938819 261.195126 
L 221.489854 261.195126 
L 221.953518 261.736245 
L 222.264112 262.818483 
L 222.356986 262.277364 
L 222.694579 263.359602 
L 223.445583 263.359602 
L 226.487275 264.44184 
L 234.005821 264.44184 
L 234.312076 263.900721 
L 235.78203 263.900721 
L 236.086722 264.44184 
L 237.096426 264.44184 
L 237.444915 264.982959 
L 237.6955 264.44184 
L 237.986318 264.982959 
L 238.308103 264.44184 
L 238.572206 265.524078 
L 238.976699 264.982959 
L 239.271839 265.524078 
L 245.687312 265.524078 
L 246.01871 264.44184 
L 246.36979 264.982959 
L 246.687306 264.44184 
L 247.042958 264.44184 
L 247.32818 263.900721 
L 248.518548 263.900721 
L 248.820804 264.44184 
L 249.162216 263.900721 
L 249.586921 262.818483 
L 250.090025 262.818483 
L 250.438001 262.277364 
L 250.698396 263.359602 
L 251.033366 263.359602 
L 251.292159 262.818483 
L 252.108963 263.900721 
L 252.586799 263.359602 
L 252.870692 263.900721 
L 253.474674 263.900721 
L 253.815559 263.359602 
L 254.150289 264.982959 
L 254.472464 264.44184 
L 255.090986 264.44184 
L 255.326761 263.900721 
L 255.628301 264.44184 
L 255.957377 264.44184 
L 256.251051 259.571769 
L 256.367724 260.112888 
L 256.598505 260.112888 
L 256.759272 260.654007 
L 256.899385 260.654007 
L 257.083858 261.195126 
L 257.208872 260.112888 
L 257.826058 261.195126 
L 258.356328 261.195126 
L 258.614204 262.277364 
L 258.869776 261.195126 
L 259.036168 261.736245 
L 259.974296 261.736245 
L 260.253574 261.195126 
L 260.518433 261.195126 
L 260.851257 261.736245 
L 261.159017 261.736245 
L 261.523841 261.195126 
L 261.875903 261.736245 
L 262.149068 261.736245 
L 262.578943 262.818483 
L 264.332528 262.818483 
L 264.620968 261.195126 
L 265.980046 261.195126 
L 266.292177 261.736245 
L 266.537705 262.277364 
L 267.018429 262.277364 
L 267.168407 263.359602 
L 267.237206 262.818483 
L 267.399868 263.359602 
L 267.857402 263.359602 
L 268.081693 264.44184 
L 268.69239 264.44184 
L 268.977454 265.524078 
L 269.920201 265.524078 
L 270.146288 267.147436 
L 270.35491 267.688555 
L 270.475306 267.688555 
L 270.881433 268.229674 
L 271.024373 267.688555 
L 271.093646 268.229674 
L 271.540186 268.229674 
L 272.064609 268.770793 
L 273.241142 268.770793 
L 273.544577 268.229674 
L 273.835321 268.770793 
L 274.163064 268.770793 
L 274.320136 269.311912 
L 274.357916 268.770793 
L 274.544345 269.311912 
L 274.690156 269.311912 
L 274.83415 270.39415 
L 275.388617 271.476388 
L 275.792369 270.935269 
L 276.099337 271.476388 
L 276.702806 271.476388 
L 277.030338 272.558626 
L 277.150243 272.017507 
L 277.345034 273.640864 
L 277.621059 273.099745 
L 277.800074 273.640864 
L 277.941621 273.099745 
L 278.098038 274.181983 
L 278.416852 274.181983 
L 278.511277 274.723102 
L 278.885317 274.181983 
L 279.174606 275.264221 
L 279.827283 275.264221 
L 280.062234 276.346459 
L 280.395491 275.264221 
L 280.621896 275.264221 
L 280.704903 275.80534 
L 281.31403 275.80534 
L 281.598958 277.969816 
L 282.008729 275.80534 
L 282.072261 276.346459 
L 282.611808 275.80534 
L 282.6629 276.887578 
L 282.848472 276.887578 
L 283.222412 277.428697 
L 283.525883 276.887578 
L 283.755148 276.887578 
L 284.094414 277.969816 
L 284.463509 277.969816 
L 284.82144 277.428697 
L 285.088947 277.969816 
L 285.251487 277.428697 
L 285.41315 278.510935 
L 286.845627 278.510935 
L 287.285898 279.052055 
L 288.184823 279.052055 
L 288.503776 277.969816 
L 289.104913 277.969816 
L 289.405779 278.510935 
L 292.142825 278.510935 
L 292.512207 277.969816 
L 292.858457 279.052055 
L 297.058932 279.052055 
L 297.980402 279.593174 
L 298.527703 279.593174 
L 298.972187 280.134293 
L 299.323449 280.134293 
L 299.529861 280.675412 
L 304.205408 280.675412 
L 304.585164 280.134293 
L 304.886241 280.675412 
L 305.183681 280.134293 
L 305.385682 276.887578 
L 307.232793 276.887578 
L 307.397598 277.428697 
L 307.717057 277.428697 
L 307.822701 276.887578 
L 309.73472 276.887578 
L 309.99997 277.428697 
L 310.100214 276.887578 
L 310.554555 276.887578 
L 310.764572 277.969816 
L 311.029306 276.887578 
L 311.226957 277.969816 
L 311.367242 277.969816 
L 311.548178 276.887578 
L 311.706422 277.969816 
L 311.807831 276.887578 
L 311.848675 277.969816 
L 312.93701 277.969816 
L 313.10977 278.510935 
L 313.135106 279.052055 
L 313.689311 279.052055 
L 313.721975 279.593174 
L 314.041297 279.593174 
L 314.206643 280.134293 
L 314.347617 279.593174 
L 314.520806 280.134293 
L 314.637927 279.593174 
L 314.912618 280.134293 
L 315.02879 279.593174 
L 315.04472 280.134293 
L 315.392912 280.134293 
L 315.611076 280.675412 
L 315.748674 280.675412 
L 315.954732 281.75765 
L 316.183369 282.298769 
L 316.341277 281.75765 
L 318.100075 281.75765 
L 318.351551 282.298769 
L 319.699475 282.298769 
L 319.914493 282.839888 
L 320.198709 282.839888 
L 320.40961 283.381007 
L 320.6379 282.839888 
L 321.083542 282.839888 
L 321.271744 283.922126 
L 321.784002 283.922126 
L 321.833195 284.463245 
L 322.015256 283.922126 
L 322.213649 285.004364 
L 322.420257 285.545483 
L 322.478003 285.004364 
L 322.712205 287.16884 
L 323.660724 287.16884 
L 323.756081 287.709959 
L 323.963876 287.709959 
L 324.085601 288.792197 
L 324.228459 287.709959 
L 325.487655 287.709959 
L 325.560517 288.251078 
L 325.802043 287.709959 
L 325.917684 288.251078 
L 326.131492 287.709959 
L 326.409218 287.709959 
L 326.57953 288.792197 
L 326.889988 288.792197 
L 327.017335 288.251078 
L 327.126444 289.333316 
L 327.448676 287.709959 
L 327.786351 288.792197 
L 328.030966 287.709959 
L 328.603589 287.709959 
L 329.049234 289.333316 
L 329.187903 288.792197 
L 329.341472 289.333316 
L 329.755847 288.251078 
L 329.888533 289.333316 
L 330.871933 289.333316 
L 331.030446 289.874435 
L 331.306678 289.874435 
L 331.453933 289.333316 
L 331.639781 289.874435 
L 331.757296 289.333316 
L 332.23157 290.415554 
L 332.60403 290.415554 
L 332.948728 291.497793 
L 334.441689 291.497793 
L 334.60492 292.038912 
L 334.804585 291.497793 
L 334.903375 292.038912 
L 335.106942 291.497793 
L 335.377301 291.497793 
L 335.551684 292.038912 
L 335.77934 291.497793 
L 336.031379 291.497793 
L 336.144286 292.038912 
L 336.656075 292.038912 
L 336.690573 293.12115 
L 338.879465 293.12115 
L 339.095404 293.662269 
L 339.237141 293.12115 
L 339.357222 293.662269 
L 339.448433 293.12115 
L 339.468835 293.662269 
L 339.557843 294.203388 
L 340.061943 294.203388 
L 340.299735 294.744507 
L 340.347928 294.203388 
L 340.397303 294.744507 
L 340.668845 294.203388 
L 340.739024 294.744507 
L 341.004574 295.285626 
L 341.108585 295.826745 
L 341.307146 295.826745 
L 341.352802 296.367864 
L 341.629263 297.991221 
L 341.753697 297.450102 
L 341.921641 297.450102 
L 341.951897 298.53234 
L 343.131848 298.53234 
L 343.278404 299.073459 
L 343.509565 298.53234 
L 343.909976 299.073459 
L 344.016993 298.53234 
L 344.192185 299.073459 
L 344.407494 299.073459 
L 344.535622 299.614578 
L 344.834058 299.614578 
L 344.841375 300.155697 
L 344.933371 299.614578 
L 345.021559 300.696816 
L 345.151901 300.696816 
L 345.332328 301.237935 
L 346.570032 301.237935 
L 346.602696 300.696816 
L 346.680614 301.779054 
L 347.00702 301.779054 
L 347.173717 301.237935 
L 347.302035 301.779054 
L 347.495225 301.237935 
L 347.639972 301.779054 
L 347.802598 301.779054 
L 347.942339 301.237935 
L 348.080898 302.861292 
L 349.739591 302.861292 
L 350.238395 303.94353 
L 350.500957 303.402411 
L 356.766768 303.402411 
L 356.873151 303.94353 
L 357.063424 303.402411 
L 357.118263 303.94353 
L 357.686816 303.94353 
L 357.84425 304.48465 
L 358.642214 304.48465 
L 358.748833 305.025769 
L 358.899119 304.48465 
L 360.12148 304.48465 
L 360.291029 305.025769 
L 360.622441 304.48465 
L 360.810321 305.566888 
L 360.913676 305.025769 
L 361.371779 305.025769 
L 361.571383 305.566888 
L 362.510926 305.566888 
L 362.663975 304.48465 
L 362.974092 305.566888 
L 364.642686 305.566888 
L 364.92774 306.108007 
L 364.966602 306.108007 
L 365.131202 306.649126 
L 365.254232 306.649126 
L 365.406524 307.190245 
L 365.762846 307.190245 
L 365.82597 307.731364 
L 366.123016 307.731364 
L 366.310649 306.649126 
L 366.457162 307.190245 
L 366.681432 307.190245 
L 366.77288 307.731364 
L 367.115976 307.731364 
L 367.422844 308.272483 
L 367.757466 309.89584 
L 367.867023 309.354721 
L 367.969034 309.89584 
L 368.203179 310.436959 
L 368.314209 309.89584 
L 368.612233 310.436959 
L 368.809332 309.89584 
L 368.970307 309.89584 
L 369.285674 311.519197 
L 369.589614 310.978078 
L 369.904382 312.060316 
L 369.966191 311.519197 
L 370.170772 312.060316 
L 370.312433 311.519197 
L 370.429221 312.060316 
L 370.933557 312.060316 
L 371.121337 304.48465 
L 371.622849 305.566888 
L 371.953982 305.566888 
L 372.069805 306.108007 
L 372.503031 305.025769 
L 372.66058 305.566888 
L 372.876992 305.566888 
L 372.983475 305.025769 
L 373.118762 305.566888 
L 373.303274 305.025769 
L 373.375796 305.566888 
L 373.759313 306.108007 
L 374.041132 305.025769 
L 374.296442 305.566888 
L 375.430716 305.566888 
L 375.699854 306.108007 
L 375.982439 305.566888 
L 376.490738 305.566888 
L 376.880425 306.649126 
L 377.014089 305.025769 
L 377.239061 305.566888 
L 377.525853 305.025769 
L 377.657045 306.649126 
L 377.815439 305.566888 
L 377.965134 305.566888 
L 378.064827 306.108007 
L 378.139226 308.272483 
L 378.152581 307.731364 
L 378.48262 308.272483 
L 379.297217 308.272483 
L 379.682555 309.354721 
L 379.841512 308.813602 
L 380.412171 308.813602 
L 380.567656 308.272483 
L 380.733837 308.813602 
L 380.916117 308.813602 
L 381.023201 308.272483 
L 381.348981 308.813602 
L 381.540365 308.813602 
L 381.665834 309.354721 
L 381.819288 308.813602 
L 381.984146 308.813602 
L 382.138643 308.272483 
L 382.234344 308.813602 
L 383.094955 308.813602 
L 383.310263 310.436959 
L 383.570583 309.89584 
L 383.785884 309.89584 
L 383.960188 309.354721 
L 384.039439 309.89584 
L 384.309433 309.354721 
L 384.410369 309.89584 
L 384.648223 309.89584 
L 384.741276 310.436959 
L 385.025523 309.89584 
L 385.611257 309.89584 
L 385.828414 310.436959 
L 386.190161 310.436959 
L 386.281372 310.978078 
L 386.435531 310.436959 
L 387.062166 312.060316 
L 387.208765 312.060316 
L 387.484603 312.601435 
L 389.728385 312.601435 
L 389.967424 313.142554 
L 390.191565 313.142554 
L 390.2372 312.060316 
L 390.293716 312.601435 
L 390.6594 312.601435 
L 390.742869 313.142554 
L 391.224036 313.142554 
L 391.453831 313.683673 
L 391.762466 313.683673 
L 391.772731 313.142554 
L 391.87533 313.683673 
L 391.969684 313.142554 
L 393.313609 313.142554 
L 393.565601 312.601435 
L 394.268545 313.142554 
L 395.726273 313.142554 
L 395.78935 313.683673 
L 397.319009 313.683673 
L 397.456797 314.224792 
L 398.87142 316.930387 
L 399.005493 316.930387 
L 399.14537 317.471507 
L 399.207662 316.930387 
L 399.508904 317.471507 
L 399.788777 318.012626 
L 400.123489 318.012626 
L 400.235891 318.553745 
L 400.658887 318.553745 
L 401.271547 318.012626 
L 401.302412 319.635983 
L 401.79549 319.635983 
L 401.948313 319.094864 
L 402.059314 319.635983 
L 403.192122 319.635983 
L 403.455093 319.094864 
L 404.669948 319.094864 
L 405.420099 319.635983 
L 406.93545 319.635983 
L 407.681635 320.177102 
L 407.781432 320.718221 
L 410.025561 320.718221 
L 410.236387 320.177102 
L 411.375638 320.177102 
L 412.207491 319.635983 
L 412.813674 319.635983 
L 413.114497 320.177102 
L 413.38157 321.25934 
L 413.540581 321.25934 
L 413.546787 320.718221 
L 415.330405 320.718221 
L 415.521833 321.25934 
L 420.027742 321.25934 
L 420.595886 321.800459 
L 420.814838 321.800459 
L 420.900306 322.341578 
L 421.178774 322.341578 
L 421.295719 321.800459 
L 421.477003 322.341578 
L 422.494859 322.341578 
L 422.948565 322.882697 
L 423.263728 323.964935 
L 426.02396 323.964935 
L 426.509786 323.423816 
L 426.650351 323.964935 
L 426.792546 323.423816 
L 426.952396 323.964935 
L 427.709437 323.964935 
L 428.058471 323.423816 
L 428.235587 323.964935 
L 428.723964 322.882697 
L 428.914306 323.964935 
L 430.096153 323.964935 
L 430.110134 324.506054 
L 431.983104 324.506054 
L 432.893764 325.047173 
L 433.167051 324.506054 
L 433.674802 324.506054 
L 433.797888 325.047173 
L 434.231734 323.423816 
L 434.518174 323.964935 
L 435.03809 323.423816 
L 435.18849 323.423816 
L 435.31803 323.964935 
L 436.104425 323.964935 
L 437.038794 323.423816 
L 437.179434 323.964935 
L 438.109181 323.964935 
L 438.411043 323.423816 
L 443.143139 323.964935 
L 443.497462 323.423816 
L 443.803681 323.964935 
L 444.078075 323.423816 
L 444.108775 323.964935 
L 444.34766 324.506054 
L 444.486007 324.506054 
L 444.612559 325.047173 
L 446.812674 325.047173 
L 446.859555 325.588292 
L 447.133032 325.588292 
L 447.863254 325.047173 
L 447.886483 325.588292 
L 448.16704 325.047173 
L 448.23523 326.129411 
L 448.415811 326.129411 
L 448.782169 326.67053 
L 449.396116 326.67053 
L 449.768909 326.129411 
L 450.188064 327.211649 
L 450.205255 327.752768 
L 450.612436 328.293887 
L 450.911911 327.752768 
L 451.333012 327.752768 
L 451.420551 328.293887 
L 452.379335 328.293887 
L 452.511419 327.752768 
L 452.673121 328.835006 
L 452.806398 328.835006 
L 453.059347 328.293887 
L 453.289393 328.835006 
L 453.8024 328.835006 
L 454.028333 329.917245 
L 455.639676 329.917245 
L 455.832317 330.458364 
L 455.950277 330.458364 
L 456.144377 329.917245 
L 456.194437 330.458364 
L 456.70859 330.458364 
L 456.812002 330.999483 
L 457.092871 330.999483 
L 457.173093 332.081721 
L 457.611306 332.081721 
L 457.775954 333.705078 
L 458.118781 333.705078 
L 458.319284 333.163959 
L 458.427605 333.705078 
L 458.57342 333.705078 
L 458.584556 335.328435 
L 458.85733 335.328435 
L 459.206153 334.787316 
L 459.3644 334.787316 
L 459.499584 335.328435 
L 459.835765 335.328435 
L 460.184128 334.787316 
L 460.219959 335.869554 
L 460.528407 335.869554 
L 460.585264 336.410673 
L 460.800182 336.951792 
L 461.367928 336.951792 
L 461.451375 338.03403 
L 461.695022 338.03403 
L 461.837866 338.575149 
L 461.974934 338.575149 
L 462.466471 339.116268 
L 462.658845 338.575149 
L 462.773407 330.999483 
L 462.897655 330.458364 
L 462.981804 332.62284 
L 463.587936 332.62284 
L 463.837069 332.081721 
L 464.018589 333.163959 
L 464.159022 333.163959 
L 464.519045 333.705078 
L 464.915024 333.705078 
L 465.095705 333.163959 
L 465.237174 333.705078 
L 466.191949 333.705078 
L 466.30951 334.246197 
L 466.7448 333.163959 
L 467.098757 333.705078 
L 467.301589 333.705078 
L 467.379493 334.246197 
L 467.558565 333.163959 
L 467.732636 334.246197 
L 468.454889 334.246197 
L 468.566836 333.705078 
L 468.82411 333.705078 
L 468.864581 334.246197 
L 469.155887 334.787316 
L 469.167257 334.246197 
L 469.715092 334.246197 
L 469.99706 334.787316 
L 471.460277 334.787316 
L 471.569992 335.328435 
L 471.86017 334.787316 
L 471.869858 335.328435 
L 472.28653 335.869554 
L 472.54255 335.869554 
L 472.837167 336.410673 
L 473.096741 336.951792 
L 473.450655 335.869554 
L 473.520569 336.951792 
L 473.758555 336.410673 
L 473.958868 336.951792 
L 474.852856 336.951792 
L 474.953021 337.492911 
L 475.07786 336.951792 
L 475.510473 337.492911 
L 475.719436 336.951792 
L 475.931212 337.492911 
L 476.058452 336.951792 
L 476.354781 338.03403 
L 476.559523 337.492911 
L 477.259816 337.492911 
L 477.53842 338.03403 
L 477.945224 338.03403 
L 478.268885 336.951792 
L 478.355152 337.492911 
L 478.700979 337.492911 
L 478.788743 338.575149 
L 479.224907 337.492911 
L 479.377225 338.03403 
L 479.728652 337.492911 
L 479.985177 337.492911 
L 480.116598 338.03403 
L 480.299992 338.03403 
L 480.430729 334.787316 
L 480.842112 335.328435 
L 480.895407 334.246197 
L 481.04311 335.328435 
L 481.178522 334.787316 
L 481.259798 335.328435 
L 481.582223 334.787316 
L 481.969087 335.328435 
L 482.163958 335.328435 
L 482.431458 334.787316 
L 482.81169 334.787316 
L 483.201542 335.869554 
L 483.405754 335.328435 
L 483.818692 335.328435 
L 484.011796 334.787316 
L 484.040225 334.246197 
L 484.280787 335.328435 
L 484.408363 334.787316 
L 484.558424 335.328435 
L 484.7814 334.787316 
L 485.033769 334.787316 
L 485.195894 334.246197 
L 485.50336 334.246197 
L 485.82347 335.328435 
L 486.040682 334.787316 
L 486.305201 335.869554 
L 486.442957 335.869554 
L 486.529424 335.328435 
L 486.79845 335.328435 
L 486.821031 335.869554 
L 487.712865 335.869554 
L 487.85897 336.410673 
L 487.984113 336.410673 
L 488.177028 336.951792 
L 488.34342 336.410673 
L 488.470319 336.951792 
L 488.659507 336.410673 
L 488.766007 336.951792 
L 488.903466 336.410673 
L 488.947753 336.951792 
L 489.099924 338.03403 
L 489.285837 337.492911 
L 489.344345 336.951792 
L 489.540413 337.492911 
L 489.700642 336.951792 
L 490.007982 337.492911 
L 490.210252 337.492911 
L 490.298375 338.03403 
L 490.517012 337.492911 
L 491.091212 339.116268 
L 491.245672 339.116268 
L 491.405439 338.03403 
L 491.480971 338.575149 
L 491.706853 338.575149 
L 491.809624 338.03403 
L 491.994325 338.03403 
L 492.162484 338.575149 
L 492.378667 338.575149 
L 492.741614 340.198506 
L 492.934711 339.657387 
L 495.473006 339.657387 
L 495.591126 340.198506 
L 495.740918 340.198506 
L 495.861378 339.657387 
L 496.103066 340.198506 
L 496.705199 338.03403 
L 496.805927 339.116268 
L 497.443049 338.03403 
L 497.889103 338.03403 
L 498.499463 339.116268 
L 499.57846 338.575149 
L 499.852478 339.116268 
L 500.154354 338.575149 
L 500.369953 339.657387 
L 500.456424 338.575149 
L 500.740632 339.657387 
L 501.050288 338.575149 
L 501.152793 339.657387 
L 501.351361 339.657387 
L 501.460517 339.116268 
L 501.658369 339.657387 
L 501.777106 339.657387 
L 501.887705 339.116268 
L 502.022086 340.739625 
L 502.374513 339.657387 
L 502.70414 339.657387 
L 502.905554 340.198506 
L 503.285667 340.198506 
L 503.594792 339.657387 
L 503.77551 339.657387 
L 503.912126 340.739625 
L 504.082538 340.198506 
L 504.177681 340.739625 
L 504.407408 341.280744 
L 504.548267 341.280744 
L 504.794537 340.198506 
L 505.030029 341.821863 
L 505.326018 341.821863 
L 505.348484 342.904102 
L 505.369155 342.362982 
L 505.523956 341.821863 
L 505.686683 342.904102 
L 505.754557 341.821863 
L 505.999857 341.821863 
L 506.03328 342.362982 
L 506.309648 342.904102 
L 506.475051 342.904102 
L 506.552579 341.821863 
L 506.923466 342.904102 
L 506.983529 341.821863 
L 507.185541 342.904102 
L 507.34094 341.280744 
L 507.813337 342.362982 
L 508.169207 340.739625 
L 508.196725 341.280744 
L 508.422138 340.739625 
L 508.564645 340.739625 
L 508.712588 341.821863 
L 508.889263 340.739625 
L 509.228934 341.821863 
L 509.357804 340.739625 
L 509.497337 341.280744 
L 509.781678 341.280744 
L 509.969454 340.739625 
L 510.328907 340.739625 
L 510.339879 341.280744 
L 510.905615 340.198506 
L 511.205653 341.821863 
L 511.364893 341.821863 
L 511.550487 341.280744 
L 511.602948 342.362982 
L 511.866417 341.280744 
L 512.028649 342.362982 
L 512.192196 341.280744 
L 512.259784 341.821863 
L 512.595202 341.821863 
L 512.79621 342.362982 
L 512.888146 343.445221 
L 513.075305 342.362982 
L 513.383227 342.904102 
L 513.519438 343.445221 
L 513.68774 342.904102 
L 513.831437 345.068578 
L 514.05699 345.068578 
L 514.355272 345.609697 
L 514.391257 344.527459 
L 514.684828 345.609697 
L 515.102711 344.527459 
L 515.215625 346.150816 
L 515.554465 346.691935 
L 515.923517 345.609697 
L 516.157422 345.068578 
L 516.807619 345.609697 
L 516.885498 346.150816 
L 517.128748 346.150816 
L 517.577162 346.691935 
L 517.799322 346.691935 
L 518.076149 347.233054 
L 518.356164 348.856411 
L 519.075082 348.315292 
L 519.306661 348.315292 
L 519.627782 346.691935 
L 519.933038 346.691935 
L 520.011723 346.150816 
L 520.243643 347.233054 
L 520.295311 346.150816 
L 520.549142 346.691935 
L 521.009592 346.691935 
L 521.245879 347.774173 
L 521.462757 346.691935 
L 521.758969 347.774173 
L 521.874449 347.233054 
L 522.03265 347.774173 
L 522.445685 346.691935 
L 522.684409 347.233054 
L 523.382663 347.233054 
L 523.549327 346.691935 
L 523.953741 347.774173 
L 524.118123 346.691935 
L 524.25991 346.691935 
L 524.315043 347.233054 
L 524.516052 347.233054 
L 524.732844 347.774173 
L 524.881188 346.691935 
L 525.111513 347.774173 
L 525.212664 346.691935 
L 525.495099 347.774173 
L 525.668768 347.774173 
L 525.78084 347.233054 
L 525.964496 347.233054 
L 526.016394 346.691935 
L 526.02705 347.233054 
L 526.340578 347.233054 
L 526.44666 346.691935 
L 526.734265 347.774173 
L 526.999113 346.691935 
L 527.452999 347.233054 
L 528.422949 347.233054 
L 528.655556 346.691935 
L 528.902851 347.233054 
L 529.062034 346.691935 
L 529.160365 347.233054 
L 529.849235 347.233054 
L 530.059552 346.691935 
L 530.542454 347.774173 
L 530.659869 347.233054 
L 531.046124 347.774173 
L 531.467966 347.233054 
L 531.692014 347.774173 
L 532.219131 346.691935 
L 532.357439 346.150816 
L 532.586593 346.150816 
L 533.027948 347.774173 
L 533.148 347.774173 
L 533.300408 346.691935 
L 533.658367 346.691935 
L 533.859142 347.233054 
L 534.011399 347.233054 
L 534.168823 346.691935 
L 534.466052 346.691935 
L 534.871903 347.233054 
L 535.097194 347.233054 
L 535.189423 347.774173 
L 535.40596 346.691935 
L 535.520046 347.774173 
L 535.661887 347.233054 
L 535.751468 347.774173 
L 536.320182 347.774173 
L 536.340767 348.856411 
L 536.432605 348.315292 
L 536.604426 348.315292 
L 536.7071 347.774173 
L 536.868601 348.315292 
L 537.046674 347.774173 
L 537.500778 348.315292 
L 537.886478 348.315292 
L 538.032973 349.39753 
L 538.090747 348.856411 
L 538.263359 349.39753 
L 538.494849 348.856411 
L 538.60322 348.315292 
L 538.764761 348.856411 
L 538.924066 348.315292 
L 539.115679 349.39753 
L 539.196862 348.315292 
L 539.369019 334.787316 
L 539.839068 334.787316 
L 539.968626 334.246197 
L 540.091767 336.410673 
L 540.777891 335.869554 
L 541.287684 335.869554 
L 541.386825 336.410673 
L 541.514319 336.410673 
L 541.913878 335.328435 
L 542.216113 335.328435 
L 542.228998 335.869554 
L 542.607366 336.410673 
L 542.875343 335.869554 
L 543.144541 334.787316 
L 543.178953 335.869554 
L 543.384616 334.787316 
L 543.464609 335.328435 
L 544.079 335.328435 
L 544.112205 335.869554 
L 544.363785 335.869554 
L 544.535161 335.328435 
L 544.700314 335.328435 
L 544.753125 334.787316 
L 545.108232 335.869554 
L 545.424366 334.787316 
L 545.588923 334.787316 
L 546.094628 335.328435 
L 546.19292 334.787316 
L 546.27383 335.869554 
L 546.6014 336.951792 
L 546.821772 335.869554 
L 547.148347 336.951792 
L 547.472438 335.869554 
L 547.590398 336.951792 
L 547.882338 335.869554 
L 548.003999 335.869554 
L 548.052958 336.951792 
L 548.198332 336.410673 
L 548.367906 336.951792 
L 548.64245 336.951792 
L 548.675565 338.03403 
L 548.887173 337.492911 
L 549.007955 337.492911 
L 549.096462 336.951792 
L 549.345211 337.492911 
L 549.602987 338.575149 
L 549.616391 340.198506 
L 549.764829 339.116268 
L 549.769279 340.739625 
L 549.946775 340.739625 
L 550.070679 341.280744 
L 550.312907 340.739625 
L 550.687452 341.280744 
L 550.891399 340.739625 
L 551.128783 340.739625 
L 551.227996 341.280744 
L 551.504525 341.821863 
L 551.654546 340.739625 
L 551.772968 340.739625 
L 552.066392 342.362982 
L 552.249775 342.904102 
L 552.82459 342.362982 
L 553.043178 342.362982 
L 553.183821 341.821863 
L 553.49085 344.527459 
L 553.653054 344.527459 
L 553.794099 345.068578 
L 554.069267 341.821863 
L 554.283468 341.280744 
L 554.546364 342.362982 
L 554.640553 341.280744 
L 554.884796 342.904102 
L 554.920358 343.445221 
L 555.173543 343.98634 
L 555.357715 343.445221 
L 555.538357 343.98634 
L 555.847597 342.904102 
L 555.879038 343.445221 
L 556.108482 343.445221 
L 556.220834 342.904102 
L 556.42425 342.904102 
L 557.382229 345.068578 
L 557.50906 344.527459 
L 557.786976 344.527459 
L 558.320357 342.904102 
L 558.577709 343.445221 
L 558.913152 343.445221 
L 559.056595 342.362982 
L 559.330659 342.362982 
L 559.651186 342.904102 
L 559.791066 342.362982 
L 559.963392 342.904102 
L 560.177504 342.904102 
L 560.531303 344.527459 
L 560.799344 344.527459 
L 560.911925 343.445221 
L 561.042408 343.98634 
L 561.81075 343.98634 
L 561.836452 344.527459 
L 562.036346 344.527459 
L 562.067268 345.609697 
L 562.344743 345.609697 
L 562.441702 343.445221 
L 562.653922 343.98634 
L 562.740422 344.527459 
L 562.965896 343.98634 
L 563.116798 345.068578 
L 563.261717 344.527459 
L 563.27835 345.068578 
L 563.715735 345.068578 
L 563.715735 345.068578 
" clip-path="url(#p7add854556)" style="fill: none; stroke-dasharray: 3,1.5; stroke-dashoffset: 0; stroke: #808080; stroke-width: 1.5"/>
   </g>
   <g id="line2d_19">
    <path d="M 38.539265 299.614578 
L 39.804888 299.073459 
L 41.066427 297.991221 
L 44.053875 297.991221 
L 47.347892 297.450102 
L 47.59226 297.991221 
L 47.744664 297.991221 
L 47.848871 296.908983 
L 48.08938 297.450102 
L 48.445099 296.908983 
L 49.137684 296.908983 
L 49.52342 294.203388 
L 49.609464 296.908983 
L 49.809681 293.662269 
L 49.873353 294.203388 
L 50.097712 294.203388 
L 50.456603 293.662269 
L 51.044941 293.662269 
L 51.346151 291.497793 
L 51.814366 291.497793 
L 52.289643 292.580031 
L 52.591992 288.251078 
L 52.658921 288.792197 
L 52.943445 288.251078 
L 53.493824 286.627721 
L 53.867133 287.709959 
L 54.457194 287.709959 
L 54.786951 288.792197 
L 55.00987 288.251078 
L 55.681458 287.709959 
L 55.982819 287.709959 
L 56.310518 286.627721 
L 56.780733 286.627721 
L 57.267046 283.381007 
L 58.574369 281.75765 
L 58.752403 281.216531 
L 59.129507 281.216531 
L 59.367303 280.675412 
L 59.746184 280.675412 
L 60.025117 281.75765 
L 60.30925 282.298769 
L 60.626043 282.298769 
L 60.811558 281.75765 
L 63.073997 281.75765 
L 63.435625 281.216531 
L 64.020943 281.216531 
L 64.344856 280.675412 
L 64.655249 280.675412 
L 64.77577 281.216531 
L 65.542364 280.675412 
L 65.863658 281.216531 
L 66.749494 281.216531 
L 67.033899 280.675412 
L 67.38356 281.216531 
L 68.995873 281.216531 
L 69.326214 280.675412 
L 69.507537 279.052055 
L 69.948857 280.134293 
L 70.570385 280.134293 
L 70.860774 279.052055 
L 70.975047 280.134293 
L 71.484184 278.510935 
L 71.792033 278.510935 
L 72.091022 277.969816 
L 72.424741 277.969816 
L 72.73115 278.510935 
L 73.02394 277.428697 
L 73.28388 277.428697 
L 73.990597 276.346459 
L 77.701071 276.346459 
L 77.996029 275.264221 
L 78.624659 275.264221 
L 78.903675 272.558626 
L 79.839488 272.558626 
L 80.735271 270.39415 
L 81.687398 270.39415 
L 82.02842 269.853031 
L 87.780876 269.853031 
L 88.471487 268.229674 
L 88.627933 269.853031 
L 89.735692 269.853031 
L 90.036508 268.770793 
L 90.368396 269.853031 
L 91.158044 269.853031 
L 91.594208 268.770793 
L 91.918002 269.853031 
L 96.808091 269.853031 
L 97.075323 264.982959 
L 97.260598 269.853031 
L 99.032772 269.853031 
L 99.354481 269.311912 
L 99.538107 264.44184 
L 99.971874 269.311912 
L 100.278233 269.311912 
L 100.481599 269.853031 
L 103.690268 269.853031 
L 103.852758 269.311912 
L 104.144358 269.311912 
L 104.62459 267.688555 
L 109.464839 267.688555 
L 110.521205 267.147436 
L 117.022197 267.147436 
L 117.292904 264.44184 
L 117.638817 264.44184 
L 117.945555 267.147436 
L 118.261141 267.147436 
L 118.478596 264.44184 
L 118.714274 267.147436 
L 119.105936 264.44184 
L 119.45287 263.359602 
L 123.475705 263.359602 
L 123.822926 262.818483 
L 125.346267 262.818483 
L 125.659423 261.736245 
L 126.038061 259.571769 
L 126.308535 259.03065 
L 126.614256 255.783936 
L 126.991689 255.783936 
L 127.497763 254.701698 
L 127.847022 254.701698 
L 128.45027 253.61946 
L 130.982198 248.749388 
L 131.240726 249.831626 
L 133.050999 249.831626 
L 133.404171 247.66715 
L 133.715607 248.208269 
L 134.96239 248.208269 
L 135.190347 249.290507 
L 135.591304 248.208269 
L 136.496797 248.208269 
L 136.804962 247.126031 
L 137.102212 247.126031 
L 137.454256 246.584912 
L 137.596315 246.584912 
L 137.755082 244.961555 
L 137.970305 244.961555 
L 138.693239 244.420436 
L 139.290574 246.043793 
L 139.436639 246.043793 
L 139.904901 245.502674 
L 140.20534 244.420436 
L 141.757959 244.420436 
L 142.057733 243.879317 
L 142.379646 243.879317 
L 142.677681 243.338198 
L 142.956873 243.338198 
L 143.605619 242.797079 
L 143.940667 242.797079 
L 144.274777 241.173722 
L 144.81957 241.173722 
L 145.160037 240.632603 
L 145.371594 240.632603 
L 145.489704 250.372745 
L 145.579145 249.831626 
L 146.091134 249.831626 
L 146.394473 248.749388 
L 146.799586 248.749388 
L 147.008258 248.208269 
L 147.467143 248.208269 
L 147.512806 247.66715 
L 148.235693 247.66715 
L 148.623811 246.043793 
L 149.430378 244.420436 
L 150.741371 244.420436 
L 151.024809 243.338198 
L 151.131535 243.879317 
L 151.255127 243.879317 
L 151.597865 244.420436 
L 152.845183 243.879317 
L 155.965818 243.879317 
L 156.327421 244.420436 
L 157.837795 244.420436 
L 158.052756 244.961555 
L 158.446514 244.420436 
L 160.881207 244.420436 
L 161.374518 243.879317 
L 161.754442 243.879317 
L 162.166907 243.338198 
L 162.374448 243.879317 
L 164.362747 243.879317 
L 164.990241 242.797079 
L 166.325689 242.797079 
L 166.550529 235.221412 
L 166.803994 235.221412 
L 168.964049 233.598055 
L 169.096785 234.139174 
L 169.235261 233.598055 
L 169.594697 234.139174 
L 169.896197 234.139174 
L 170.213527 233.598055 
L 170.451825 233.598055 
L 170.834404 232.515817 
L 170.991745 232.515817 
L 171.137358 233.056936 
L 171.463733 231.974698 
L 173.633606 231.974698 
L 173.844701 231.433579 
L 174.19664 231.433579 
L 174.523261 230.89246 
L 174.862352 231.433579 
L 175.011975 231.433579 
L 175.476729 231.974698 
L 175.824931 229.269103 
L 176.072821 230.89246 
L 176.396124 230.89246 
L 176.655265 227.645746 
L 176.836581 228.186865 
L 177.029599 227.104626 
L 177.126815 227.645746 
L 177.245803 226.022388 
L 177.554283 226.022388 
L 177.945135 225.481269 
L 178.710644 226.022388 
L 178.884951 224.94015 
L 179.169818 224.94015 
L 179.37155 226.563507 
L 180.056328 224.94015 
L 180.737232 224.399031 
L 181.335223 224.399031 
L 181.648924 222.775674 
L 181.93727 222.775674 
L 182.10807 223.316793 
L 182.407847 223.316793 
L 183.567281 220.070079 
L 183.760647 222.234555 
L 184.132856 222.775674 
L 184.569414 220.070079 
L 185.742859 220.070079 
L 185.843315 219.52896 
L 186.310884 218.987841 
L 187.557313 218.987841 
L 188.127843 216.282246 
L 191.333943 216.282246 
L 191.58711 215.200008 
L 191.920081 217.364484 
L 192.11393 215.741127 
L 195.609226 215.741127 
L 195.901263 215.200008 
L 196.605518 211.953293 
L 196.869732 213.57665 
L 197.184605 213.035531 
L 197.533258 213.57665 
L 197.778608 213.57665 
L 198.150369 208.16546 
L 198.349711 208.16546 
L 198.388402 207.624341 
L 199.015692 207.624341 
L 199.368764 206.542103 
L 199.680046 204.918746 
L 200.616443 204.377627 
L 200.675693 204.918746 
L 201.184114 205.459865 
L 201.259628 204.918746 
L 203.709434 204.918746 
L 203.879897 204.377627 
L 204.337083 203.836508 
L 204.947583 202.75427 
L 205.106372 201.672032 
L 205.320946 201.672032 
L 205.561322 200.589793 
L 205.850736 201.130912 
L 206.174799 201.130912 
L 206.41898 201.672032 
L 206.763216 201.130912 
L 207.070388 201.130912 
L 207.364794 200.589793 
L 207.603117 200.589793 
L 208.051728 201.130912 
L 208.284949 200.589793 
L 208.526332 201.130912 
L 208.93353 203.836508 
L 209.227294 204.377627 
L 209.90157 203.295389 
L 210.000152 199.507555 
L 210.150452 199.507555 
L 210.425466 198.966436 
L 210.744968 199.507555 
L 211.036672 199.507555 
L 211.39601 200.048674 
L 211.707253 198.966436 
L 212.830563 198.966436 
L 213.276985 198.425317 
L 213.532109 198.425317 
L 213.551906 197.884198 
L 214.824763 197.884198 
L 215.18714 196.80196 
L 216.968104 196.80196 
L 217.323132 195.719722 
L 220.734507 195.719722 
L 220.938819 195.178603 
L 221.489854 195.178603 
L 221.953518 194.637484 
L 222.264112 193.555246 
L 222.356986 194.096365 
L 222.694579 193.014127 
L 223.445583 193.014127 
L 226.487275 191.931889 
L 234.005821 191.931889 
L 234.312076 192.473008 
L 235.78203 192.473008 
L 236.086722 191.931889 
L 237.096426 191.931889 
L 237.444915 191.39077 
L 237.6955 191.931889 
L 237.986318 191.39077 
L 238.308103 191.931889 
L 238.572206 190.849651 
L 238.976699 191.39077 
L 239.271839 190.849651 
L 245.687312 190.849651 
L 246.01871 191.931889 
L 246.36979 191.39077 
L 246.687306 191.931889 
L 247.042958 191.39077 
L 247.32818 191.931889 
L 248.518548 191.931889 
L 248.820804 191.39077 
L 249.162216 191.931889 
L 249.586921 190.849651 
L 250.090025 190.849651 
L 250.438001 191.39077 
L 250.698396 190.308532 
L 251.033366 190.308532 
L 251.292159 190.849651 
L 252.108963 189.767413 
L 252.586799 190.308532 
L 252.870692 189.767413 
L 253.474674 189.767413 
L 253.815559 190.308532 
L 254.150289 188.685175 
L 254.472464 189.226294 
L 255.090986 189.226294 
L 255.326761 189.767413 
L 255.628301 189.226294 
L 255.957377 189.226294 
L 256.251051 193.555246 
L 256.367724 193.014127 
L 256.598505 193.014127 
L 256.759272 192.473008 
L 256.899385 192.473008 
L 257.083858 191.931889 
L 257.208872 193.014127 
L 257.826058 191.931889 
L 258.356328 191.931889 
L 258.614204 190.849651 
L 258.869776 191.931889 
L 259.036168 191.39077 
L 259.974296 191.39077 
L 260.253574 191.931889 
L 260.518433 191.931889 
L 260.851257 191.39077 
L 261.159017 191.39077 
L 261.523841 191.931889 
L 261.875903 191.39077 
L 262.149068 191.39077 
L 262.578943 190.308532 
L 264.332528 190.308532 
L 264.620968 190.849651 
L 265.980046 190.849651 
L 266.292177 190.308532 
L 266.537705 189.767413 
L 267.018429 189.767413 
L 267.168407 188.685175 
L 267.237206 189.226294 
L 267.399868 188.685175 
L 267.857402 188.685175 
L 268.081693 187.602936 
L 268.69239 187.602936 
L 268.977454 186.520698 
L 269.920201 186.520698 
L 270.146288 184.897341 
L 270.35491 184.356222 
L 270.475306 184.356222 
L 270.881433 183.815103 
L 271.024373 184.356222 
L 271.093646 183.815103 
L 271.240209 183.815103 
L 271.411782 183.273984 
L 271.540186 183.273984 
L 272.064609 182.732865 
L 273.241142 182.732865 
L 273.544577 183.273984 
L 273.835321 182.732865 
L 274.163064 182.732865 
L 274.320136 182.191746 
L 274.357916 182.732865 
L 274.544345 182.191746 
L 274.690156 182.191746 
L 274.83415 181.109508 
L 275.388617 180.02727 
L 275.792369 180.568389 
L 276.099337 180.02727 
L 276.702806 180.02727 
L 277.030338 178.945032 
L 277.150243 179.486151 
L 277.345034 177.862794 
L 277.621059 178.403913 
L 277.800074 177.862794 
L 277.941621 178.403913 
L 278.098038 177.321675 
L 278.416852 177.321675 
L 278.511277 176.780556 
L 278.885317 177.321675 
L 279.174606 176.239437 
L 279.827283 176.239437 
L 280.062234 175.157198 
L 280.395491 176.239437 
L 280.621896 176.239437 
L 280.704903 175.698317 
L 281.31403 175.698317 
L 281.598958 173.533841 
L 282.008729 175.698317 
L 282.072261 175.157198 
L 282.611808 175.698317 
L 282.6629 174.616079 
L 282.848472 174.616079 
L 283.222412 174.07496 
L 283.525883 174.616079 
L 283.755148 174.616079 
L 284.094414 173.533841 
L 284.463509 173.533841 
L 284.82144 174.07496 
L 285.088947 173.533841 
L 285.251487 174.07496 
L 285.41315 172.992722 
L 286.845627 172.992722 
L 287.285898 172.451603 
L 288.184823 172.451603 
L 288.503776 173.533841 
L 289.104913 173.533841 
L 289.405779 172.992722 
L 292.142825 172.992722 
L 292.512207 173.533841 
L 292.858457 172.451603 
L 297.058932 172.451603 
L 297.980402 171.910484 
L 298.527703 171.910484 
L 298.972187 171.369365 
L 299.323449 171.369365 
L 299.529861 170.287127 
L 299.857113 170.828246 
L 304.205408 170.828246 
L 304.585164 171.369365 
L 304.886241 170.828246 
L 305.183681 171.369365 
L 305.385682 173.533841 
L 307.232793 173.533841 
L 307.537418 172.451603 
L 307.964968 173.533841 
L 309.73472 173.533841 
L 309.99997 172.451603 
L 310.100214 173.533841 
L 310.554555 173.533841 
L 310.764572 172.451603 
L 311.029306 173.533841 
L 311.226957 172.451603 
L 311.367242 172.451603 
L 311.548178 173.533841 
L 311.706422 172.451603 
L 311.807831 173.533841 
L 311.848675 172.451603 
L 312.93701 172.451603 
L 313.293285 170.828246 
L 313.689311 170.828246 
L 313.721975 170.287127 
L 314.041297 170.287127 
L 314.206643 169.746008 
L 314.347617 170.287127 
L 314.520806 169.746008 
L 314.637927 170.287127 
L 314.912618 169.746008 
L 315.02879 170.287127 
L 315.04472 169.746008 
L 315.392912 169.746008 
L 315.611076 169.204889 
L 315.748674 169.204889 
L 315.954732 168.122651 
L 316.183369 167.581532 
L 316.341277 168.122651 
L 318.100075 168.122651 
L 318.351551 167.581532 
L 319.699475 167.581532 
L 319.914493 167.040413 
L 320.198709 167.040413 
L 320.40961 166.499294 
L 320.6379 167.040413 
L 321.083542 167.040413 
L 321.271744 165.958175 
L 321.784002 165.958175 
L 321.833195 165.417056 
L 322.015256 165.958175 
L 322.188907 165.958175 
L 322.213649 165.417056 
L 322.420257 164.875937 
L 322.478003 165.417056 
L 322.712205 163.25258 
L 323.660724 163.25258 
L 323.756081 162.71146 
L 323.963876 162.71146 
L 324.085601 161.629222 
L 324.228459 162.71146 
L 325.487655 162.71146 
L 325.560517 162.170341 
L 325.802043 162.71146 
L 325.917684 162.170341 
L 326.131492 162.71146 
L 326.409218 162.71146 
L 326.57953 161.629222 
L 326.889988 161.629222 
L 327.017335 162.170341 
L 327.126444 161.088103 
L 327.448676 162.71146 
L 327.786351 161.629222 
L 328.030966 162.71146 
L 328.603589 162.71146 
L 329.049234 161.088103 
L 329.187903 161.629222 
L 329.341472 161.088103 
L 329.755847 162.170341 
L 329.888533 161.088103 
L 330.871933 161.088103 
L 331.030446 160.546984 
L 331.306678 160.546984 
L 331.453933 161.088103 
L 331.639781 160.546984 
L 331.757296 161.088103 
L 332.23157 160.005865 
L 332.60403 160.005865 
L 332.948728 158.923627 
L 333.547554 160.005865 
L 333.675528 159.464746 
L 333.832966 160.005865 
L 333.932806 159.464746 
L 334.133112 159.464746 
L 334.21706 160.005865 
L 334.60492 158.923627 
L 334.804585 159.464746 
L 334.903375 158.923627 
L 335.106942 159.464746 
L 335.377301 159.464746 
L 335.551684 158.923627 
L 335.77934 159.464746 
L 336.031379 160.005865 
L 336.144286 158.923627 
L 336.656075 158.923627 
L 336.690573 157.841389 
L 338.879465 157.841389 
L 339.095404 157.30027 
L 339.237141 157.841389 
L 339.357222 157.30027 
L 339.448433 157.841389 
L 339.468835 157.30027 
L 339.557843 156.759151 
L 340.061943 156.759151 
L 340.299735 156.218032 
L 340.347928 156.759151 
L 340.397303 156.218032 
L 340.668845 156.759151 
L 340.739024 156.218032 
L 341.004574 155.676913 
L 341.108585 155.135794 
L 341.307146 155.135794 
L 341.352802 154.594675 
L 341.629263 152.971318 
L 341.753697 153.512437 
L 341.921641 153.512437 
L 341.951897 152.430199 
L 343.131848 152.430199 
L 343.278404 151.88908 
L 343.509565 152.430199 
L 344.192185 150.806842 
L 344.407494 150.806842 
L 344.535622 150.265723 
L 344.834058 150.265723 
L 344.841375 149.724603 
L 344.933371 150.265723 
L 345.021559 149.183484 
L 345.151901 149.183484 
L 345.332328 148.642365 
L 346.570032 148.642365 
L 346.602696 149.183484 
L 346.680614 148.101246 
L 347.00702 148.101246 
L 347.173717 148.642365 
L 347.302035 148.101246 
L 347.495225 148.642365 
L 347.639972 148.101246 
L 347.802598 148.101246 
L 347.942339 148.642365 
L 348.080898 147.019008 
L 349.739591 147.019008 
L 350.238395 145.93677 
L 350.500957 146.477889 
L 356.766768 146.477889 
L 356.873151 145.93677 
L 357.063424 146.477889 
L 357.118263 145.93677 
L 357.686816 145.93677 
L 357.84425 145.395651 
L 358.642214 145.395651 
L 358.748833 144.854532 
L 358.899119 145.395651 
L 360.12148 145.395651 
L 360.291029 144.854532 
L 360.622441 145.395651 
L 360.810321 144.313413 
L 360.913676 144.854532 
L 361.371779 144.854532 
L 361.571383 144.313413 
L 362.510926 144.313413 
L 362.663975 145.395651 
L 362.974092 144.313413 
L 364.642686 144.313413 
L 364.92774 143.772294 
L 364.966602 143.772294 
L 365.131202 143.231175 
L 365.254232 143.231175 
L 365.406524 142.690056 
L 365.762846 142.690056 
L 365.82597 142.148937 
L 366.123016 142.148937 
L 366.310649 143.231175 
L 366.457162 142.690056 
L 366.681432 142.690056 
L 366.77288 142.148937 
L 367.115976 142.148937 
L 367.422844 141.607818 
L 367.757466 139.984461 
L 367.867023 140.52558 
L 367.969034 139.984461 
L 368.203179 139.443342 
L 368.314209 139.984461 
L 368.612233 139.443342 
L 368.809332 139.984461 
L 368.970307 139.984461 
L 369.285674 138.361104 
L 369.589614 138.902223 
L 369.904382 137.819985 
L 369.966191 138.361104 
L 370.170772 137.819985 
L 370.312433 138.361104 
L 370.429221 137.819985 
L 370.933557 137.819985 
L 371.121337 141.066699 
L 371.622849 139.984461 
L 371.953982 139.984461 
L 372.069805 139.443342 
L 372.503031 140.52558 
L 372.66058 139.984461 
L 372.876992 139.984461 
L 372.983475 140.52558 
L 373.118762 139.984461 
L 373.303274 140.52558 
L 373.375796 139.984461 
L 373.759313 139.443342 
L 373.906665 139.443342 
L 374.041132 139.984461 
L 374.296442 139.443342 
L 375.338903 139.443342 
L 375.430716 136.737746 
L 375.699854 138.902223 
L 375.982439 139.443342 
L 376.490738 139.443342 
L 376.880425 138.361104 
L 377.014089 139.984461 
L 377.239061 139.443342 
L 377.525853 139.984461 
L 377.657045 138.361104 
L 377.815439 139.443342 
L 377.965134 139.443342 
L 378.064827 138.902223 
L 378.152581 134.57327 
L 378.457338 136.737746 
L 378.48262 134.032151 
L 379.297217 134.032151 
L 379.682555 132.949913 
L 379.841512 133.491032 
L 380.412171 133.491032 
L 380.567656 134.032151 
L 380.733837 133.491032 
L 380.916117 133.491032 
L 381.023201 134.032151 
L 381.348981 133.491032 
L 381.540365 133.491032 
L 381.665834 132.949913 
L 381.819288 133.491032 
L 381.984146 133.491032 
L 382.138643 134.032151 
L 382.234344 133.491032 
L 383.094955 133.491032 
L 383.310263 131.867675 
L 383.570583 132.408794 
L 383.785884 132.408794 
L 383.960188 132.949913 
L 384.039439 132.408794 
L 384.309433 132.949913 
L 384.410369 132.408794 
L 384.648223 132.408794 
L 384.741276 131.867675 
L 385.025523 132.408794 
L 385.611257 132.408794 
L 385.828414 131.867675 
L 386.190161 131.867675 
L 386.281372 131.326556 
L 386.435531 131.867675 
L 387.062166 130.244318 
L 387.208765 130.244318 
L 387.484603 129.703199 
L 389.728385 129.703199 
L 389.967424 129.16208 
L 390.191565 129.16208 
L 390.2372 130.244318 
L 390.293716 129.703199 
L 390.6594 129.703199 
L 390.742869 129.16208 
L 391.224036 129.16208 
L 391.453831 128.620961 
L 391.762466 128.620961 
L 391.772731 129.16208 
L 391.87533 128.620961 
L 391.969684 129.16208 
L 393.313609 129.16208 
L 393.565601 129.703199 
L 394.268545 129.16208 
L 395.726273 129.16208 
L 395.78935 128.620961 
L 397.319009 128.620961 
L 397.456797 128.079842 
L 398.87142 125.374247 
L 399.005493 125.374247 
L 399.14537 124.833128 
L 399.207662 125.374247 
L 399.508904 124.833128 
L 399.788777 124.292008 
L 400.123489 124.292008 
L 400.235891 123.750889 
L 400.658887 123.750889 
L 401.271547 124.292008 
L 401.302412 122.668651 
L 401.79549 122.668651 
L 401.948313 123.20977 
L 402.059314 122.668651 
L 402.886011 122.668651 
L 403.192122 123.20977 
L 404.669948 123.20977 
L 405.420099 122.668651 
L 406.93545 122.668651 
L 407.681635 122.127532 
L 407.781432 121.586413 
L 410.025561 121.586413 
L 410.236387 122.127532 
L 411.375638 122.127532 
L 412.207491 122.668651 
L 412.813674 122.668651 
L 413.114497 122.127532 
L 413.38157 121.045294 
L 413.540581 121.045294 
L 413.546787 121.586413 
L 415.330405 121.586413 
L 415.521833 121.045294 
L 420.027742 121.045294 
L 420.595886 120.504175 
L 420.814838 120.504175 
L 420.900306 119.421937 
L 421.178774 119.421937 
L 421.295719 119.963056 
L 421.477003 119.421937 
L 422.494859 119.421937 
L 422.948565 118.880818 
L 423.263728 117.79858 
L 426.02396 117.79858 
L 426.509786 118.339699 
L 426.650351 117.79858 
L 426.792546 118.339699 
L 426.952396 117.79858 
L 427.709437 117.79858 
L 428.058471 118.339699 
L 428.235587 117.79858 
L 428.723964 118.880818 
L 428.914306 117.79858 
L 430.096153 117.79858 
L 430.110134 117.257461 
L 431.983104 117.257461 
L 432.893764 116.716342 
L 433.167051 117.257461 
L 433.366074 116.716342 
L 433.494876 117.257461 
L 433.674802 117.257461 
L 433.797888 116.716342 
L 434.231734 117.79858 
L 434.518174 117.257461 
L 435.03809 117.79858 
L 435.18849 117.79858 
L 435.31803 117.257461 
L 436.104425 117.257461 
L 437.038794 117.79858 
L 437.179434 117.257461 
L 438.109181 117.257461 
L 438.411043 117.79858 
L 443.143139 117.257461 
L 443.497462 117.79858 
L 443.803681 117.257461 
L 444.078075 117.79858 
L 444.108775 117.257461 
L 444.34766 116.716342 
L 444.486007 116.716342 
L 444.612559 116.175223 
L 446.812674 116.175223 
L 446.859555 115.634104 
L 447.133032 115.634104 
L 447.863254 116.175223 
L 447.886483 115.634104 
L 448.16704 116.175223 
L 448.23523 115.092985 
L 448.415811 115.092985 
L 448.782169 114.551866 
L 449.396116 114.551866 
L 449.768909 115.092985 
L 450.188064 114.010747 
L 450.205255 113.469628 
L 450.612436 112.928509 
L 450.911911 113.469628 
L 451.333012 113.469628 
L 451.420551 112.928509 
L 452.379335 112.928509 
L 452.511419 113.469628 
L 452.673121 112.38739 
L 452.806398 112.38739 
L 453.059347 112.928509 
L 453.289393 112.38739 
L 453.8024 112.38739 
L 454.028333 110.764032 
L 455.639676 110.764032 
L 455.832317 110.222913 
L 455.950277 110.222913 
L 456.144377 110.764032 
L 456.194437 110.222913 
L 456.70859 110.222913 
L 456.812002 109.681794 
L 457.092871 109.140675 
L 457.173093 108.058437 
L 457.611306 108.058437 
L 457.775954 106.43508 
L 458.118781 106.43508 
L 458.319284 106.976199 
L 458.427605 106.43508 
L 458.57342 106.43508 
L 458.584556 104.811723 
L 459.3644 104.811723 
L 459.499584 104.270604 
L 459.835765 104.270604 
L 460.184128 104.811723 
L 460.219959 103.729485 
L 460.528407 103.729485 
L 460.585264 103.188366 
L 460.800182 102.647247 
L 461.367928 102.647247 
L 461.451375 101.565009 
L 461.695022 101.565009 
L 461.837866 101.02389 
L 461.974934 101.02389 
L 462.466471 100.482771 
L 462.658845 101.02389 
L 462.773407 106.976199 
L 462.897655 107.517318 
L 462.981804 105.352842 
L 463.587936 105.352842 
L 463.837069 105.893961 
L 464.018589 104.811723 
L 464.915024 104.811723 
L 465.095705 105.352842 
L 465.237174 104.811723 
L 466.191949 104.811723 
L 466.30951 104.270604 
L 466.7448 105.352842 
L 467.098757 104.811723 
L 467.301589 104.811723 
L 467.379493 104.270604 
L 467.558565 105.352842 
L 467.732636 104.270604 
L 468.454889 104.270604 
L 468.566836 104.811723 
L 468.82411 104.811723 
L 468.864581 104.270604 
L 469.155887 103.729485 
L 469.167257 104.270604 
L 469.401961 103.729485 
L 469.715092 103.729485 
L 469.99706 103.188366 
L 471.460277 103.188366 
L 471.569992 102.647247 
L 471.86017 103.188366 
L 471.869858 102.647247 
L 472.28653 102.106128 
L 472.54255 102.106128 
L 472.837167 101.565009 
L 473.096741 101.02389 
L 473.450655 102.106128 
L 473.520569 101.02389 
L 473.758555 101.565009 
L 473.958868 101.02389 
L 474.852856 101.02389 
L 474.953021 100.482771 
L 475.07786 101.02389 
L 475.510473 100.482771 
L 475.719436 101.02389 
L 475.931212 100.482771 
L 476.058452 101.02389 
L 476.354781 99.941652 
L 476.559523 100.482771 
L 477.259816 100.482771 
L 477.53842 99.941652 
L 477.945224 99.941652 
L 478.268885 101.02389 
L 478.355152 100.482771 
L 478.700979 100.482771 
L 478.788743 99.400533 
L 479.224907 100.482771 
L 479.377225 99.941652 
L 479.728652 100.482771 
L 479.985177 100.482771 
L 480.116598 99.941652 
L 480.430729 99.941652 
L 480.842112 99.400533 
L 480.895407 100.482771 
L 481.04311 99.400533 
L 481.178522 99.941652 
L 481.259798 99.400533 
L 481.582223 99.941652 
L 481.969087 99.400533 
L 482.163958 99.400533 
L 482.431458 99.941652 
L 482.81169 99.941652 
L 483.201542 98.859414 
L 483.405754 99.400533 
L 483.818692 99.400533 
L 484.011796 99.941652 
L 484.040225 100.482771 
L 484.280787 99.400533 
L 484.408363 99.941652 
L 484.558424 99.400533 
L 484.7814 99.941652 
L 485.033769 99.941652 
L 485.195894 100.482771 
L 485.50336 100.482771 
L 485.82347 99.400533 
L 486.040682 99.941652 
L 486.305201 98.859414 
L 486.442957 98.859414 
L 486.529424 99.400533 
L 486.79845 99.400533 
L 486.821031 98.859414 
L 487.712865 98.859414 
L 487.85897 98.318294 
L 487.984113 98.318294 
L 488.177028 97.777175 
L 488.34342 98.318294 
L 488.470319 97.777175 
L 488.659507 97.777175 
L 488.766007 97.236056 
L 488.903466 97.777175 
L 488.947753 97.236056 
L 489.099924 96.153818 
L 489.285837 96.694937 
L 489.344345 97.236056 
L 489.540413 96.694937 
L 489.700642 97.236056 
L 490.007982 96.694937 
L 490.210252 96.694937 
L 490.298375 96.153818 
L 490.517012 96.694937 
L 491.091212 95.07158 
L 491.245672 95.07158 
L 491.405439 96.153818 
L 491.480971 95.612699 
L 491.706853 95.612699 
L 491.809624 96.153818 
L 491.994325 96.153818 
L 492.162484 95.612699 
L 492.378667 95.612699 
L 492.741614 93.989342 
L 492.934711 94.530461 
L 495.473006 94.530461 
L 495.591126 93.989342 
L 495.740918 93.989342 
L 495.861378 94.530461 
L 496.103066 93.989342 
L 496.705199 93.989342 
L 496.805927 92.907104 
L 497.443049 93.989342 
L 497.889103 93.989342 
L 498.499463 92.907104 
L 499.57846 93.448223 
L 499.852478 92.907104 
L 500.154354 93.448223 
L 500.369953 92.365985 
L 500.456424 93.448223 
L 500.740632 92.365985 
L 501.050288 93.448223 
L 501.152793 92.365985 
L 501.351361 92.365985 
L 501.460517 92.907104 
L 501.658369 92.365985 
L 501.777106 92.365985 
L 501.887705 92.907104 
L 502.022086 91.283747 
L 502.374513 92.365985 
L 502.70414 92.365985 
L 502.905554 91.824866 
L 503.285667 91.824866 
L 503.594792 92.365985 
L 503.77551 92.365985 
L 503.912126 91.283747 
L 504.082538 92.365985 
L 504.177681 91.824866 
L 504.407408 91.283747 
L 504.548267 91.283747 
L 504.794537 92.365985 
L 505.030029 90.742628 
L 505.326018 90.742628 
L 505.348484 89.66039 
L 505.369155 90.201509 
L 505.523956 90.742628 
L 505.686683 89.66039 
L 505.754557 90.742628 
L 505.999857 90.742628 
L 506.03328 90.201509 
L 506.309648 89.66039 
L 506.475051 89.66039 
L 506.552579 90.742628 
L 506.923466 89.66039 
L 506.983529 90.742628 
L 507.185541 89.66039 
L 507.34094 91.283747 
L 507.813337 90.201509 
L 508.169207 91.824866 
L 508.196725 91.283747 
L 508.422138 91.824866 
L 508.564645 91.824866 
L 508.712588 90.742628 
L 508.889263 91.824866 
L 509.228934 90.742628 
L 509.357804 91.824866 
L 509.497337 91.283747 
L 509.781678 91.283747 
L 509.969454 91.824866 
L 510.328907 91.824866 
L 510.339879 91.283747 
L 510.905615 92.365985 
L 511.205653 90.742628 
L 511.364893 90.742628 
L 511.550487 91.283747 
L 511.602948 90.201509 
L 511.866417 91.283747 
L 512.028649 90.201509 
L 512.192196 91.283747 
L 512.259784 90.742628 
L 512.595202 90.742628 
L 512.79621 90.201509 
L 512.888146 89.119271 
L 513.075305 90.201509 
L 513.383227 89.66039 
L 513.519438 89.119271 
L 513.68774 89.66039 
L 513.831437 87.495914 
L 514.05699 87.495914 
L 514.355272 86.954795 
L 514.391257 88.037033 
L 514.684828 86.954795 
L 515.102711 88.037033 
L 515.215625 86.413676 
L 515.554465 85.872556 
L 515.923517 86.954795 
L 516.157422 87.495914 
L 516.807619 86.954795 
L 516.885498 86.413676 
L 517.799322 86.413676 
L 518.076149 85.872556 
L 518.356164 84.249199 
L 519.075082 84.790318 
L 519.627782 84.790318 
L 519.933038 84.249199 
L 520.011723 84.790318 
L 520.243643 83.70808 
L 520.295311 84.790318 
L 520.549142 84.249199 
L 521.009592 84.249199 
L 521.245879 83.166961 
L 521.462757 84.249199 
L 521.758969 83.166961 
L 521.874449 83.70808 
L 522.03265 83.166961 
L 522.445685 83.70808 
L 522.684409 83.166961 
L 523.382663 83.166961 
L 523.549327 83.70808 
L 523.953741 82.625842 
L 524.118123 83.70808 
L 524.25991 83.70808 
L 524.315043 83.166961 
L 524.516052 83.166961 
L 524.732844 82.625842 
L 524.881188 83.70808 
L 525.111513 82.625842 
L 525.212664 83.70808 
L 525.495099 82.625842 
L 525.668768 82.625842 
L 525.78084 83.166961 
L 525.964496 83.166961 
L 526.016394 83.70808 
L 526.02705 83.166961 
L 526.340578 83.166961 
L 526.44666 83.70808 
L 526.734265 82.625842 
L 526.999113 83.70808 
L 527.452999 83.166961 
L 528.422949 83.166961 
L 528.655556 83.70808 
L 528.902851 83.166961 
L 529.062034 83.70808 
L 529.160365 83.166961 
L 529.849235 83.166961 
L 530.059552 83.70808 
L 530.542454 82.625842 
L 530.659869 83.166961 
L 531.046124 82.625842 
L 531.467966 83.166961 
L 531.692014 82.625842 
L 532.219131 83.70808 
L 532.357439 84.249199 
L 532.586593 84.249199 
L 533.027948 82.625842 
L 533.148 82.625842 
L 533.300408 83.70808 
L 533.658367 83.70808 
L 533.859142 83.166961 
L 534.011399 83.166961 
L 534.168823 83.70808 
L 534.466052 83.70808 
L 534.871903 83.166961 
L 535.097194 83.166961 
L 535.189423 82.625842 
L 535.40596 83.70808 
L 535.520046 82.625842 
L 535.661887 83.166961 
L 535.751468 82.625842 
L 536.320182 82.625842 
L 536.340767 81.543604 
L 536.432605 82.084723 
L 536.604426 82.084723 
L 536.7071 82.625842 
L 536.868601 82.084723 
L 537.046674 82.625842 
L 537.500778 82.084723 
L 537.886478 82.084723 
L 538.032973 81.002485 
L 538.090747 81.543604 
L 538.263359 81.002485 
L 538.494849 81.543604 
L 538.60322 82.084723 
L 538.764761 81.543604 
L 538.924066 82.084723 
L 539.115679 81.002485 
L 539.196862 82.084723 
L 539.369019 90.201509 
L 539.839068 90.201509 
L 539.968626 90.742628 
L 540.091767 88.578152 
L 540.777891 89.119271 
L 541.287684 89.119271 
L 541.386825 88.578152 
L 541.514319 88.578152 
L 541.913878 89.66039 
L 542.216113 89.66039 
L 542.228998 89.119271 
L 542.607366 88.578152 
L 542.875343 89.119271 
L 543.144541 90.201509 
L 543.178953 89.119271 
L 543.384616 90.201509 
L 543.464609 89.66039 
L 544.079 89.66039 
L 544.112205 89.119271 
L 544.363785 89.119271 
L 544.535161 89.66039 
L 544.700314 89.66039 
L 544.753125 90.201509 
L 545.108232 89.119271 
L 545.424366 90.201509 
L 545.588923 90.201509 
L 546.094628 89.66039 
L 546.19292 90.201509 
L 546.27383 89.119271 
L 546.6014 88.037033 
L 546.821772 89.119271 
L 547.148347 88.037033 
L 547.472438 89.119271 
L 547.590398 88.037033 
L 547.882338 89.119271 
L 548.003999 89.119271 
L 548.052958 88.037033 
L 548.198332 88.578152 
L 548.367906 88.037033 
L 548.64245 88.037033 
L 548.675565 86.954795 
L 548.887173 87.495914 
L 549.007955 87.495914 
L 549.096462 88.037033 
L 549.345211 87.495914 
L 549.602987 86.413676 
L 549.616391 84.790318 
L 549.764829 85.872556 
L 549.769279 84.249199 
L 549.946775 84.249199 
L 550.070679 83.70808 
L 550.312907 84.249199 
L 550.687452 83.70808 
L 550.891399 84.249199 
L 551.128783 84.249199 
L 551.227996 83.70808 
L 551.504525 83.166961 
L 551.654546 84.249199 
L 551.772968 84.249199 
L 552.066392 82.625842 
L 552.249775 82.084723 
L 552.82459 82.625842 
L 553.043178 82.625842 
L 553.183821 83.166961 
L 553.49085 80.461366 
L 553.653054 80.461366 
L 553.794099 79.920247 
L 554.069267 77.214652 
L 554.283468 77.755771 
L 554.546364 76.673533 
L 554.640553 77.755771 
L 554.884796 76.132414 
L 554.920358 75.591295 
L 555.173543 75.050176 
L 555.357715 75.591295 
L 555.538357 75.050176 
L 555.847597 76.132414 
L 555.879038 75.591295 
L 556.108482 75.591295 
L 556.220834 76.132414 
L 556.42425 76.132414 
L 557.382229 73.967938 
L 557.50906 74.509057 
L 557.786976 74.509057 
L 557.992639 75.050176 
L 558.098641 73.967938 
L 558.320357 74.509057 
L 558.577709 73.967938 
L 558.913152 73.967938 
L 559.056595 74.509057 
L 559.651186 73.426819 
L 559.791066 73.967938 
L 559.963392 73.426819 
L 560.177504 73.426819 
L 560.531303 71.803461 
L 560.799344 71.803461 
L 560.911925 72.885699 
L 561.042408 72.34458 
L 561.81075 72.34458 
L 561.836452 71.803461 
L 562.036346 71.803461 
L 562.067268 70.721223 
L 562.344743 70.721223 
L 562.384598 71.262342 
L 562.441702 70.180104 
L 562.653922 69.638985 
L 562.740422 69.097866 
L 562.965896 69.638985 
L 563.116798 68.556747 
L 563.261717 69.097866 
L 563.27835 68.556747 
L 563.715735 68.556747 
L 563.715735 68.556747 
" clip-path="url(#p7add854556)" style="fill: none; stroke-dasharray: 6,1.5; stroke-dashoffset: 0; stroke: #008000; stroke-width: 1.5"/>
   </g>
   <g id="line2d_20">
    <path d="M 38.539265 362.384387 
L 39.804888 363.466625 
L 41.066427 363.466625 
L 42.286688 362.925506 
L 44.053875 362.925506 
L 47.744664 362.384387 
L 47.848871 362.925506 
L 51.044941 362.925506 
L 51.346151 364.007744 
L 52.012555 364.007744 
L 52.289643 360.76103 
L 52.658921 364.007744 
L 54.457194 364.007744 
L 54.786951 360.76103 
L 57.267046 360.76103 
L 58.574369 361.302149 
L 58.752403 361.843268 
L 59.746184 361.843268 
L 60.025117 360.219911 
L 63.073997 360.219911 
L 63.435625 360.76103 
L 72.73115 360.76103 
L 73.02394 360.219911 
L 78.624659 360.219911 
L 78.903675 362.384387 
L 125.346267 362.384387 
L 125.659423 363.466625 
L 126.038061 366.713339 
L 126.308535 366.713339 
L 126.614256 367.254458 
L 128.45027 367.254458 
L 130.982198 368.877816 
L 131.240726 368.877816 
L 131.674209 369.418935 
L 144.472321 369.418935 
L 145.160037 370.501173 
L 174.19664 370.501173 
L 174.523261 371.042292 
L 174.862352 370.501173 
L 176.836581 370.501173 
L 177.126815 371.042292 
L 182.407847 371.042292 
L 183.567281 372.12453 
L 183.760647 371.042292 
L 184.132856 371.042292 
L 184.439656 372.12453 
L 191.58711 372.12453 
L 191.920081 371.583411 
L 192.11393 372.12453 
L 208.93353 372.12453 
L 209.227294 373.206768 
L 246.687306 373.206768 
L 247.042958 373.747887 
L 332.948728 373.747887 
L 333.292272 373.206768 
L 343.509565 373.206768 
L 343.909976 373.747887 
L 344.016993 374.830125 
L 370.933557 374.830125 
L 371.121337 374.289006 
L 373.759313 374.289006 
L 373.906665 374.830125 
L 480.299992 374.830125 
L 480.430729 374.289006 
L 488.470319 374.289006 
L 488.766007 374.830125 
L 519.306661 374.830125 
L 519.627782 374.289006 
L 558.913152 374.289006 
L 559.056595 374.830125 
L 562.344743 374.830125 
L 562.441702 374.289006 
L 563.715735 374.289006 
L 563.715735 374.289006 
" clip-path="url(#p7add854556)" style="fill: none; stroke-dasharray: 9,3; stroke-dashoffset: 0; stroke: #ffa500; stroke-width: 1.5"/>
   </g>
   <g id="line2d_21">
    <path d="M 38.539265 325.047173 
L 47.744664 325.047173 
L 47.848871 325.588292 
L 51.044941 325.588292 
L 51.346151 326.129411 
L 52.012555 326.129411 
L 52.289643 327.211649 
L 52.658921 326.129411 
L 54.457194 326.129411 
L 55.00987 327.752768 
L 56.310518 327.752768 
L 56.603548 328.293887 
L 56.780733 327.752768 
L 56.928944 328.293887 
L 70.570385 328.293887 
L 70.860774 329.376125 
L 70.975047 328.293887 
L 71.484184 329.376125 
L 87.780876 329.376125 
L 88.471487 329.917245 
L 88.627933 329.376125 
L 89.735692 329.376125 
L 90.036508 329.917245 
L 90.368396 329.376125 
L 91.158044 329.376125 
L 91.594208 329.917245 
L 91.918002 329.376125 
L 117.022197 329.376125 
L 117.292904 329.917245 
L 117.638817 329.917245 
L 117.945555 329.376125 
L 118.261141 329.376125 
L 118.478596 329.917245 
L 118.714274 329.376125 
L 119.105936 329.917245 
L 125.659423 329.917245 
L 126.038061 329.376125 
L 126.308535 329.376125 
L 126.614256 330.458364 
L 128.104465 330.458364 
L 128.45027 333.163959 
L 130.982198 330.999483 
L 131.240726 331.540602 
L 133.050999 331.540602 
L 133.404171 334.246197 
L 133.715607 334.787316 
L 147.745234 334.787316 
L 148.235693 334.246197 
L 148.623811 334.787316 
L 149.489485 334.246197 
L 151.597865 334.246197 
L 152.845183 334.787316 
L 158.052756 334.787316 
L 158.446514 335.328435 
L 191.333943 335.328435 
L 191.58711 335.869554 
L 191.920081 335.328435 
L 197.778608 335.328435 
L 198.150369 342.362982 
L 199.015692 342.362982 
L 199.368764 346.691935 
L 199.680046 348.315292 
L 218.532099 348.315292 
L 221.183613 348.856411 
L 249.162216 348.856411 
L 249.473262 351.020887 
L 255.957377 351.020887 
L 256.251051 347.774173 
L 271.240209 347.774173 
L 271.411782 348.315292 
L 299.323449 348.315292 
L 299.529861 348.856411 
L 299.857113 348.315292 
L 307.397598 348.315292 
L 307.537418 348.856411 
L 307.822701 348.315292 
L 309.73472 348.315292 
L 309.99997 348.856411 
L 310.100214 348.315292 
L 312.93701 348.315292 
L 313.135106 348.856411 
L 322.015256 348.856411 
L 322.213649 348.315292 
L 333.292272 348.315292 
L 333.547554 347.774173 
L 333.675528 348.315292 
L 333.832966 347.774173 
L 333.932806 348.315292 
L 334.133112 348.315292 
L 334.21706 347.774173 
L 334.441689 348.315292 
L 335.77934 348.315292 
L 336.031379 347.774173 
L 336.144286 348.315292 
L 343.909976 348.315292 
L 344.016993 347.774173 
L 370.933557 347.774173 
L 371.121337 348.315292 
L 375.338903 348.315292 
L 375.430716 351.020887 
L 375.699854 348.315292 
L 378.139226 348.315292 
L 378.152581 351.020887 
L 378.457338 348.315292 
L 378.48262 351.020887 
L 402.886011 351.020887 
L 403.192122 350.479768 
L 403.455093 351.020887 
L 433.167051 351.020887 
L 433.366074 351.562006 
L 433.494876 351.020887 
L 433.797888 351.020887 
L 434.231734 351.562006 
L 453.8024 351.562006 
L 454.028333 352.103125 
L 456.812002 352.103125 
L 457.092871 352.644244 
L 462.658845 352.644244 
L 462.773407 352.103125 
L 469.167257 352.103125 
L 469.401961 352.644244 
L 480.299992 352.644244 
L 480.430729 356.432078 
L 488.470319 356.432078 
L 488.766007 355.890959 
L 496.103066 355.890959 
L 496.805927 358.055435 
L 503.912126 358.055435 
L 504.177681 357.514316 
L 517.128748 357.514316 
L 517.577162 356.973197 
L 519.306661 356.973197 
L 519.627782 359.137673 
L 520.011723 359.678792 
L 522.03265 359.678792 
L 522.445685 360.219911 
L 539.196862 360.219911 
L 539.369019 356.973197 
L 557.992639 356.973197 
L 558.098641 358.596554 
L 559.056595 358.596554 
L 559.330659 359.137673 
L 562.344743 359.137673 
L 562.384598 359.678792 
L 562.441702 362.384387 
L 563.715735 362.384387 
L 563.715735 362.384387 
" clip-path="url(#p7add854556)" style="fill: none; stroke-dasharray: 12,4.5; stroke-dashoffset: 0; stroke: #ee82ee; stroke-width: 1.5"/>
   </g>
   <g id="patch_3">
    <path d="M 33.2875 374.830125 
L 33.2875 22.318125 
" style="fill: none; stroke: #000000; stroke-width: 0.8; stroke-linejoin: miter; stroke-linecap: square"/>
   </g>
   <g id="patch_4">
    <path d="M 568.9675 374.830125 
L 568.9675 22.318125 
" style="fill: none; stroke: #000000; stroke-width: 0.8; stroke-linejoin: miter; stroke-linecap: square"/>
   </g>
   <g id="patch_5">
    <path d="M 33.2875 374.830125 
L 568.9675 374.830125 
" style="fill: none; stroke: #000000; stroke-width: 0.8; stroke-linejoin: miter; stroke-linecap: square"/>
   </g>
   <g id="patch_6">
    <path d="M 33.2875 22.318125 
L 568.9675 22.318125 
" style="fill: none; stroke: #000000; stroke-width: 0.8; stroke-linejoin: miter; stroke-linecap: square"/>
   </g>
   <g id="text_17">
    <!-- Rust/Coreutils running GNU's testsuite -->
    <g transform="translate(186.090625 16.318125) scale(0.12 -0.12)">
     <defs>
      <path id="DejaVuSans-52" d="M 2841 2188 
Q 3044 2119 3236 1894 
Q 3428 1669 3622 1275 
L 4263 0 
L 3584 0 
L 2988 1197 
Q 2756 1666 2539 1819 
Q 2322 1972 1947 1972 
L 1259 1972 
L 1259 0 
L 628 0 
L 628 4666 
L 2053 4666 
Q 2853 4666 3247 4331 
Q 3641 3997 3641 3322 
Q 3641 2881 3436 2590 
Q 3231 2300 2841 2188 
z
M 1259 4147 
L 1259 2491 
L 2053 2491 
Q 2509 2491 2742 2702 
Q 2975 2913 2975 3322 
Q 2975 3731 2742 3939 
Q 2509 4147 2053 4147 
L 1259 4147 
z
" transform="scale(0.015625)"/>
      <path id="DejaVuSans-75" d="M 544 1381 
L 544 3500 
L 1119 3500 
L 1119 1403 
Q 1119 906 1312 657 
Q 1506 409 1894 409 
Q 2359 409 2629 706 
Q 2900 1003 2900 1516 
L 2900 3500 
L 3475 3500 
L 3475 0 
L 2900 0 
L 2900 538 
Q 2691 219 2414 64 
Q 2138 -91 1772 -91 
Q 1169 -91 856 284 
Q 544 659 544 1381 
z
M 1991 3584 
L 1991 3584 
z
" transform="scale(0.015625)"/>
      <path id="DejaVuSans-73" d="M 2834 3397 
L 2834 2853 
Q 2591 2978 2328 3040 
Q 2066 3103 1784 3103 
Q 1356 3103 1142 2972 
Q 928 2841 928 2578 
Q 928 2378 1081 2264 
Q 1234 2150 1697 2047 
L 1894 2003 
Q 2506 1872 2764 1633 
Q 3022 1394 3022 966 
Q 3022 478 2636 193 
Q 2250 -91 1575 -91 
Q 1294 -91 989 -36 
Q 684 19 347 128 
L 347 722 
Q 666 556 975 473 
Q 1284 391 1588 391 
Q 1994 391 2212 530 
Q 2431 669 2431 922 
Q 2431 1156 2273 1281 
Q 2116 1406 1581 1522 
L 1381 1569 
Q 847 1681 609 1914 
Q 372 2147 372 2553 
Q 372 3047 722 3315 
Q 1072 3584 1716 3584 
Q 2034 3584 2315 3537 
Q 2597 3491 2834 3397 
z
" transform="scale(0.015625)"/>
      <path id="DejaVuSans-74" d="M 1172 4494 
L 1172 3500 
L 2356 3500 
L 2356 3053 
L 1172 3053 
L 1172 1153 
Q 1172 725 1289 603 
Q 1406 481 1766 481 
L 2356 481 
L 2356 0 
L 1766 0 
Q 1100 0 847 248 
Q 594 497 594 1153 
L 594 3053 
L 172 3053 
L 172 3500 
L 594 3500 
L 594 4494 
L 1172 4494 
z
" transform="scale(0.015625)"/>
      <path id="DejaVuSans-2f" d="M 1625 4666 
L 2156 4666 
L 531 -594 
L 0 -594 
L 1625 4666 
z
" transform="scale(0.015625)"/>
      <path id="DejaVuSans-43" d="M 4122 4306 
L 4122 3641 
Q 3803 3938 3442 4084 
Q 3081 4231 2675 4231 
Q 1875 4231 1450 3742 
Q 1025 3253 1025 2328 
Q 1025 1406 1450 917 
Q 1875 428 2675 428 
Q 3081 428 3442 575 
Q 3803 722 4122 1019 
L 4122 359 
Q 3791 134 3420 21 
Q 3050 -91 2638 -91 
Q 1578 -91 968 557 
Q 359 1206 359 2328 
Q 359 3453 968 4101 
Q 1578 4750 2638 4750 
Q 3056 4750 3426 4639 
Q 3797 4528 4122 4306 
z
" transform="scale(0.015625)"/>
      <path id="DejaVuSans-6f" d="M 1959 3097 
Q 1497 3097 1228 2736 
Q 959 2375 959 1747 
Q 959 1119 1226 758 
Q 1494 397 1959 397 
Q 2419 397 2687 759 
Q 2956 1122 2956 1747 
Q 2956 2369 2687 2733 
Q 2419 3097 1959 3097 
z
M 1959 3584 
Q 2709 3584 3137 3096 
Q 3566 2609 3566 1747 
Q 3566 888 3137 398 
Q 2709 -91 1959 -91 
Q 1206 -91 779 398 
Q 353 888 353 1747 
Q 353 2609 779 3096 
Q 1206 3584 1959 3584 
z
" transform="scale(0.015625)"/>
      <path id="DejaVuSans-72" d="M 2631 2963 
Q 2534 3019 2420 3045 
Q 2306 3072 2169 3072 
Q 1681 3072 1420 2755 
Q 1159 2438 1159 1844 
L 1159 0 
L 581 0 
L 581 3500 
L 1159 3500 
L 1159 2956 
Q 1341 3275 1631 3429 
Q 1922 3584 2338 3584 
Q 2397 3584 2469 3576 
Q 2541 3569 2628 3553 
L 2631 2963 
z
" transform="scale(0.015625)"/>
      <path id="DejaVuSans-65" d="M 3597 1894 
L 3597 1613 
L 953 1613 
Q 991 1019 1311 708 
Q 1631 397 2203 397 
Q 2534 397 2845 478 
Q 3156 559 3463 722 
L 3463 178 
Q 3153 47 2828 -22 
Q 2503 -91 2169 -91 
Q 1331 -91 842 396 
Q 353 884 353 1716 
Q 353 2575 817 3079 
Q 1281 3584 2069 3584 
Q 2775 3584 3186 3129 
Q 3597 2675 3597 1894 
z
M 3022 2063 
Q 3016 2534 2758 2815 
Q 2500 3097 2075 3097 
Q 1594 3097 1305 2825 
Q 1016 2553 972 2059 
L 3022 2063 
z
" transform="scale(0.015625)"/>
      <path id="DejaVuSans-69" d="M 603 3500 
L 1178 3500 
L 1178 0 
L 603 0 
L 603 3500 
z
M 603 4863 
L 1178 4863 
L 1178 4134 
L 603 4134 
L 603 4863 
z
" transform="scale(0.015625)"/>
      <path id="DejaVuSans-6c" d="M 603 4863 
L 1178 4863 
L 1178 0 
L 603 0 
L 603 4863 
z
" transform="scale(0.015625)"/>
      <path id="DejaVuSans-20" transform="scale(0.015625)"/>
      <path id="DejaVuSans-6e" d="M 3513 2113 
L 3513 0 
L 2938 0 
L 2938 2094 
Q 2938 2591 2744 2837 
Q 2550 3084 2163 3084 
Q 1697 3084 1428 2787 
Q 1159 2491 1159 1978 
L 1159 0 
L 581 0 
L 581 3500 
L 1159 3500 
L 1159 2956 
Q 1366 3272 1645 3428 
Q 1925 3584 2291 3584 
Q 2894 3584 3203 3211 
Q 3513 2838 3513 2113 
z
" transform="scale(0.015625)"/>
      <path id="DejaVuSans-67" d="M 2906 1791 
Q 2906 2416 2648 2759 
Q 2391 3103 1925 3103 
Q 1463 3103 1205 2759 
Q 947 2416 947 1791 
Q 947 1169 1205 825 
Q 1463 481 1925 481 
Q 2391 481 2648 825 
Q 2906 1169 2906 1791 
z
M 3481 434 
Q 3481 -459 3084 -895 
Q 2688 -1331 1869 -1331 
Q 1566 -1331 1297 -1286 
Q 1028 -1241 775 -1147 
L 775 -588 
Q 1028 -725 1275 -790 
Q 1522 -856 1778 -856 
Q 2344 -856 2625 -561 
Q 2906 -266 2906 331 
L 2906 616 
Q 2728 306 2450 153 
Q 2172 0 1784 0 
Q 1141 0 747 490 
Q 353 981 353 1791 
Q 353 2603 747 3093 
Q 1141 3584 1784 3584 
Q 2172 3584 2450 3431 
Q 2728 3278 2906 2969 
L 2906 3500 
L 3481 3500 
L 3481 434 
z
" transform="scale(0.015625)"/>
      <path id="DejaVuSans-47" d="M 3809 666 
L 3809 1919 
L 2778 1919 
L 2778 2438 
L 4434 2438 
L 4434 434 
Q 4069 175 3628 42 
Q 3188 -91 2688 -91 
Q 1594 -91 976 548 
Q 359 1188 359 2328 
Q 359 3472 976 4111 
Q 1594 4750 2688 4750 
Q 3144 4750 3555 4637 
Q 3966 4525 4313 4306 
L 4313 3634 
Q 3963 3931 3569 4081 
Q 3175 4231 2741 4231 
Q 1884 4231 1454 3753 
Q 1025 3275 1025 2328 
Q 1025 1384 1454 906 
Q 1884 428 2741 428 
Q 3075 428 3337 486 
Q 3600 544 3809 666 
z
" transform="scale(0.015625)"/>
      <path id="DejaVuSans-4e" d="M 628 4666 
L 1478 4666 
L 3547 763 
L 3547 4666 
L 4159 4666 
L 4159 0 
L 3309 0 
L 1241 3903 
L 1241 0 
L 628 0 
L 628 4666 
z
" transform="scale(0.015625)"/>
      <path id="DejaVuSans-55" d="M 556 4666 
L 1191 4666 
L 1191 1831 
Q 1191 1081 1462 751 
Q 1734 422 2344 422 
Q 2950 422 3222 751 
Q 3494 1081 3494 1831 
L 3494 4666 
L 4128 4666 
L 4128 1753 
Q 4128 841 3676 375 
Q 3225 -91 2344 -91 
Q 1459 -91 1007 375 
Q 556 841 556 1753 
L 556 4666 
z
" transform="scale(0.015625)"/>
      <path id="DejaVuSans-27" d="M 1147 4666 
L 1147 2931 
L 616 2931 
L 616 4666 
L 1147 4666 
z
" transform="scale(0.015625)"/>
     </defs>
     <use xlink:href="#DejaVuSans-52"/>
     <use xlink:href="#DejaVuSans-75" x="64.982422"/>
     <use xlink:href="#DejaVuSans-73" x="128.361328"/>
     <use xlink:href="#DejaVuSans-74" x="180.460938"/>
     <use xlink:href="#DejaVuSans-2f" x="219.669922"/>
     <use xlink:href="#DejaVuSans-43" x="253.361328"/>
     <use xlink:href="#DejaVuSans-6f" x="323.185547"/>
     <use xlink:href="#DejaVuSans-72" x="384.367188"/>
     <use xlink:href="#DejaVuSans-65" x="423.230469"/>
     <use xlink:href="#DejaVuSans-75" x="484.753906"/>
     <use xlink:href="#DejaVuSans-74" x="548.132812"/>
     <use xlink:href="#DejaVuSans-69" x="587.341797"/>
     <use xlink:href="#DejaVuSans-6c" x="615.125"/>
     <use xlink:href="#DejaVuSans-73" x="642.908203"/>
     <use xlink:href="#DejaVuSans-20" x="695.007812"/>
     <use xlink:href="#DejaVuSans-72" x="726.794922"/>
     <use xlink:href="#DejaVuSans-75" x="767.908203"/>
     <use xlink:href="#DejaVuSans-6e" x="831.287109"/>
     <use xlink:href="#DejaVuSans-6e" x="894.666016"/>
     <use xlink:href="#DejaVuSans-69" x="958.044922"/>
     <use xlink:href="#DejaVuSans-6e" x="985.828125"/>
     <use xlink:href="#DejaVuSans-67" x="1049.207031"/>
     <use xlink:href="#DejaVuSans-20" x="1112.683594"/>
     <use xlink:href="#DejaVuSans-47" x="1144.470703"/>
     <use xlink:href="#DejaVuSans-4e" x="1221.960938"/>
     <use xlink:href="#DejaVuSans-55" x="1296.765625"/>
     <use xlink:href="#DejaVuSans-27" x="1369.958984"/>
     <use xlink:href="#DejaVuSans-73" x="1397.449219"/>
     <use xlink:href="#DejaVuSans-20" x="1449.548828"/>
     <use xlink:href="#DejaVuSans-74" x="1481.335938"/>
     <use xlink:href="#DejaVuSans-65" x="1520.544922"/>
     <use xlink:href="#DejaVuSans-73" x="1582.068359"/>
     <use xlink:href="#DejaVuSans-74" x="1634.167969"/>
     <use xlink:href="#DejaVuSans-73" x="1673.376953"/>
     <use xlink:href="#DejaVuSans-75" x="1725.476562"/>
     <use xlink:href="#DejaVuSans-69" x="1788.855469"/>
     <use xlink:href="#DejaVuSans-74" x="1816.638672"/>
     <use xlink:href="#DejaVuSans-65" x="1855.847656"/>
    </g>
   </g>
   <g id="legend_1">
    <g id="patch_7">
     <path d="M 505.762812 236.769437 
L 561.9675 236.769437 
Q 563.9675 236.769437 563.9675 234.769437 
L 563.9675 162.378812 
Q 563.9675 160.378812 561.9675 160.378812 
L 505.762812 160.378812 
Q 503.762812 160.378812 503.762812 162.378812 
L 503.762812 234.769437 
Q 503.762812 236.769437 505.762812 236.769437 
z
" style="fill: #ffffff; opacity: 0.8; stroke: #cccccc; stroke-linejoin: miter"/>
    </g>
    <g id="line2d_22">
     <path d="M 507.762812 168.47725 
L 517.762812 168.47725 
L 527.762812 168.47725 
" style="fill: none; stroke: #0000ff; stroke-width: 1.5; stroke-linecap: square"/>
    </g>
    <g id="text_18">
     <!-- total -->
     <g transform="translate(535.762812 171.97725) scale(0.1 -0.1)">
      <defs>
       <path id="DejaVuSans-61" d="M 2194 1759 
Q 1497 1759 1228 1600 
Q 959 1441 959 1056 
Q 959 750 1161 570 
Q 1363 391 1709 391 
Q 2188 391 2477 730 
Q 2766 1069 2766 1631 
L 2766 1759 
L 2194 1759 
z
M 3341 1997 
L 3341 0 
L 2766 0 
L 2766 531 
Q 2569 213 2275 61 
Q 1981 -91 1556 -91 
Q 1019 -91 701 211 
Q 384 513 384 1019 
Q 384 1609 779 1909 
Q 1175 2209 1959 2209 
L 2766 2209 
L 2766 2266 
Q 2766 2663 2505 2880 
Q 2244 3097 1772 3097 
Q 1472 3097 1187 3025 
Q 903 2953 641 2809 
L 641 3341 
Q 956 3463 1253 3523 
Q 1550 3584 1831 3584 
Q 2591 3584 2966 3190 
Q 3341 2797 3341 1997 
z
" transform="scale(0.015625)"/>
      </defs>
      <use xlink:href="#DejaVuSans-74"/>
      <use xlink:href="#DejaVuSans-6f" x="39.208984"/>
      <use xlink:href="#DejaVuSans-74" x="100.390625"/>
      <use xlink:href="#DejaVuSans-61" x="139.599609"/>
      <use xlink:href="#DejaVuSans-6c" x="200.878906"/>
     </g>
    </g>
    <g id="line2d_23">
     <path d="M 507.762812 183.155375 
L 517.762812 183.155375 
L 527.762812 183.155375 
" style="fill: none; stroke-dasharray: 3,1.5; stroke-dashoffset: 0; stroke: #808080; stroke-width: 1.5"/>
    </g>
    <g id="text_19">
     <!-- fail -->
     <g transform="translate(535.762812 186.655375) scale(0.1 -0.1)">
      <defs>
       <path id="DejaVuSans-66" d="M 2375 4863 
L 2375 4384 
L 1825 4384 
Q 1516 4384 1395 4259 
Q 1275 4134 1275 3809 
L 1275 3500 
L 2222 3500 
L 2222 3053 
L 1275 3053 
L 1275 0 
L 697 0 
L 697 3053 
L 147 3053 
L 147 3500 
L 697 3500 
L 697 3744 
Q 697 4328 969 4595 
Q 1241 4863 1831 4863 
L 2375 4863 
z
" transform="scale(0.015625)"/>
      </defs>
      <use xlink:href="#DejaVuSans-66"/>
      <use xlink:href="#DejaVuSans-61" x="35.205078"/>
      <use xlink:href="#DejaVuSans-69" x="96.484375"/>
      <use xlink:href="#DejaVuSans-6c" x="124.267578"/>
     </g>
    </g>
    <g id="line2d_24">
     <path d="M 507.762812 197.8335 
L 517.762812 197.8335 
L 527.762812 197.8335 
" style="fill: none; stroke-dasharray: 6,1.5; stroke-dashoffset: 0; stroke: #008000; stroke-width: 1.5"/>
    </g>
    <g id="text_20">
     <!-- pass -->
     <g transform="translate(535.762812 201.3335) scale(0.1 -0.1)">
      <defs>
       <path id="DejaVuSans-70" d="M 1159 525 
L 1159 -1331 
L 581 -1331 
L 581 3500 
L 1159 3500 
L 1159 2969 
Q 1341 3281 1617 3432 
Q 1894 3584 2278 3584 
Q 2916 3584 3314 3078 
Q 3713 2572 3713 1747 
Q 3713 922 3314 415 
Q 2916 -91 2278 -91 
Q 1894 -91 1617 61 
Q 1341 213 1159 525 
z
M 3116 1747 
Q 3116 2381 2855 2742 
Q 2594 3103 2138 3103 
Q 1681 3103 1420 2742 
Q 1159 2381 1159 1747 
Q 1159 1113 1420 752 
Q 1681 391 2138 391 
Q 2594 391 2855 752 
Q 3116 1113 3116 1747 
z
" transform="scale(0.015625)"/>
      </defs>
      <use xlink:href="#DejaVuSans-70"/>
      <use xlink:href="#DejaVuSans-61" x="63.476562"/>
      <use xlink:href="#DejaVuSans-73" x="124.755859"/>
      <use xlink:href="#DejaVuSans-73" x="176.855469"/>
     </g>
    </g>
    <g id="line2d_25">
     <path d="M 507.762812 212.511625 
L 517.762812 212.511625 
L 527.762812 212.511625 
" style="fill: none; stroke-dasharray: 9,3; stroke-dashoffset: 0; stroke: #ffa500; stroke-width: 1.5"/>
    </g>
    <g id="text_21">
     <!-- error -->
     <g transform="translate(535.762812 216.011625) scale(0.1 -0.1)">
      <use xlink:href="#DejaVuSans-65"/>
      <use xlink:href="#DejaVuSans-72" x="61.523438"/>
      <use xlink:href="#DejaVuSans-72" x="100.886719"/>
      <use xlink:href="#DejaVuSans-6f" x="139.75"/>
      <use xlink:href="#DejaVuSans-72" x="200.931641"/>
     </g>
    </g>
    <g id="line2d_26">
     <path d="M 507.762812 227.18975 
L 517.762812 227.18975 
L 527.762812 227.18975 
" style="fill: none; stroke-dasharray: 12,4.5; stroke-dashoffset: 0; stroke: #ee82ee; stroke-width: 1.5"/>
    </g>
    <g id="text_22">
     <!-- skip -->
     <g transform="translate(535.762812 230.68975) scale(0.1 -0.1)">
      <defs>
       <path id="DejaVuSans-6b" d="M 581 4863 
L 1159 4863 
L 1159 1991 
L 2875 3500 
L 3609 3500 
L 1753 1863 
L 3688 0 
L 2938 0 
L 1159 1709 
L 1159 0 
L 581 0 
L 581 4863 
z
" transform="scale(0.015625)"/>
      </defs>
      <use xlink:href="#DejaVuSans-73"/>
      <use xlink:href="#DejaVuSans-6b" x="52.099609"/>
      <use xlink:href="#DejaVuSans-69" x="110.009766"/>
      <use xlink:href="#DejaVuSans-70" x="137.792969"/>
     </g>
    </g>
   </g>
  </g>
 </g>
 <defs>
  <clipPath id="p7add854556">
   <rect x="33.2875" y="22.318125" width="535.68" height="352.512"/>
  </clipPath>
 </defs>
</svg>
