<?xml version="1.0" encoding="utf-8" standalone="no"?>
<!DOCTYPE svg PUBLIC "-//W3C//DTD SVG 1.1//EN"
  "http://www.w3.org/Graphics/SVG/1.1/DTD/svg11.dtd">
<svg xmlns:xlink="http://www.w3.org/1999/xlink" width="576.1675pt" height="418.303033pt" viewBox="0 0 576.1675 418.303033" xmlns="http://www.w3.org/2000/svg" version="1.1">
 <metadata>
  <rdf:RDF xmlns:dc="http://purl.org/dc/elements/1.1/" xmlns:cc="http://creativecommons.org/ns#" xmlns:rdf="http://www.w3.org/1999/02/22-rdf-syntax-ns#">
   <cc:Work>
    <dc:type rdf:resource="http://purl.org/dc/dcmitype/StillImage"/>
    <dc:date>2025-10-29T14:03:24.403490</dc:date>
    <dc:format>image/svg+xml</dc:format>
    <dc:creator>
     <cc:Agent>
      <dc:title>Matplotlib v3.6.3, https://matplotlib.org/</dc:title>
     </cc:Agent>
    </dc:creator>
   </cc:Work>
  </rdf:RDF>
 </metadata>
 <defs>
  <style type="text/css">*{stroke-linejoin: round; stroke-linecap: butt}</style>
 </defs>
 <g id="figure_1">
  <g id="patch_1">
   <path d="M -0 418.303033 
L 576.1675 418.303033 
L 576.1675 0 
L -0 0 
z
" style="fill: #ffffff"/>
  </g>
  <g id="axes_1">
   <g id="patch_2">
    <path d="M 33.2875 374.830125 
L 568.9675 374.830125 
L 568.9675 22.318125 
L 33.2875 22.318125 
z
" style="fill: #ffffff"/>
   </g>
   <g id="matplotlib.axis_1">
    <g id="xtick_1">
     <g id="line2d_1">
      <defs>
       <path id="maa9f4b1e1e" d="M 0 0 
L 0 3.5 
" style="stroke: #000000; stroke-width: 0.8"/>
      </defs>
      <g>
       <use xlink:href="#maa9f4b1e1e" x="61.236829" y="374.830125" style="stroke: #000000; stroke-width: 0.8"/>
      </g>
     </g>
     <g id="text_1">
      <!-- 2021-07 -->
      <g transform="translate(24.012008 409.301971) rotate(-30) scale(0.1 -0.1)">
       <defs>
        <path id="DejaVuSans-32" d="M 1228 531 
L 3431 531 
L 3431 0 
L 469 0 
L 469 531 
Q 828 903 1448 1529 
Q 2069 2156 2228 2338 
Q 2531 2678 2651 2914 
Q 2772 3150 2772 3378 
Q 2772 3750 2511 3984 
Q 2250 4219 1831 4219 
Q 1534 4219 1204 4116 
Q 875 4013 500 3803 
L 500 4441 
Q 881 4594 1212 4672 
Q 1544 4750 1819 4750 
Q 2544 4750 2975 4387 
Q 3406 4025 3406 3419 
Q 3406 3131 3298 2873 
Q 3191 2616 2906 2266 
Q 2828 2175 2409 1742 
Q 1991 1309 1228 531 
z
" transform="scale(0.015625)"/>
        <path id="DejaVuSans-30" d="M 2034 4250 
Q 1547 4250 1301 3770 
Q 1056 3291 1056 2328 
Q 1056 1369 1301 889 
Q 1547 409 2034 409 
Q 2525 409 2770 889 
Q 3016 1369 3016 2328 
Q 3016 3291 2770 3770 
Q 2525 4250 2034 4250 
z
M 2034 4750 
Q 2819 4750 3233 4129 
Q 3647 3509 3647 2328 
Q 3647 1150 3233 529 
Q 2819 -91 2034 -91 
Q 1250 -91 836 529 
Q 422 1150 422 2328 
Q 422 3509 836 4129 
Q 1250 4750 2034 4750 
z
" transform="scale(0.015625)"/>
        <path id="DejaVuSans-31" d="M 794 531 
L 1825 531 
L 1825 4091 
L 703 3866 
L 703 4441 
L 1819 4666 
L 2450 4666 
L 2450 531 
L 3481 531 
L 3481 0 
L 794 0 
L 794 531 
z
" transform="scale(0.015625)"/>
        <path id="DejaVuSans-2d" d="M 313 2009 
L 1997 2009 
L 1997 1497 
L 313 1497 
L 313 2009 
z
" transform="scale(0.015625)"/>
        <path id="DejaVuSans-37" d="M 525 4666 
L 3525 4666 
L 3525 4397 
L 1831 0 
L 1172 0 
L 2766 4134 
L 525 4134 
L 525 4666 
z
" transform="scale(0.015625)"/>
       </defs>
       <use xlink:href="#DejaVuSans-32"/>
       <use xlink:href="#DejaVuSans-30" x="63.623047"/>
       <use xlink:href="#DejaVuSans-32" x="127.246094"/>
       <use xlink:href="#DejaVuSans-31" x="190.869141"/>
       <use xlink:href="#DejaVuSans-2d" x="254.492188"/>
       <use xlink:href="#DejaVuSans-30" x="290.576172"/>
       <use xlink:href="#DejaVuSans-37" x="354.199219"/>
      </g>
     </g>
    </g>
    <g id="xtick_2">
     <g id="line2d_2">
      <g>
       <use xlink:href="#maa9f4b1e1e" x="119.719037" y="374.830125" style="stroke: #000000; stroke-width: 0.8"/>
      </g>
     </g>
     <g id="text_2">
      <!-- 2022-01 -->
      <g transform="translate(82.494216 409.301971) rotate(-30) scale(0.1 -0.1)">
       <use xlink:href="#DejaVuSans-32"/>
       <use xlink:href="#DejaVuSans-30" x="63.623047"/>
       <use xlink:href="#DejaVuSans-32" x="127.246094"/>
       <use xlink:href="#DejaVuSans-32" x="190.869141"/>
       <use xlink:href="#DejaVuSans-2d" x="254.492188"/>
       <use xlink:href="#DejaVuSans-30" x="290.576172"/>
       <use xlink:href="#DejaVuSans-31" x="354.199219"/>
      </g>
     </g>
    </g>
    <g id="xtick_3">
     <g id="line2d_3">
      <g>
       <use xlink:href="#maa9f4b1e1e" x="177.247731" y="374.830125" style="stroke: #000000; stroke-width: 0.8"/>
      </g>
     </g>
     <g id="text_3">
      <!-- 2022-07 -->
      <g transform="translate(140.02291 409.301971) rotate(-30) scale(0.1 -0.1)">
       <use xlink:href="#DejaVuSans-32"/>
       <use xlink:href="#DejaVuSans-30" x="63.623047"/>
       <use xlink:href="#DejaVuSans-32" x="127.246094"/>
       <use xlink:href="#DejaVuSans-32" x="190.869141"/>
       <use xlink:href="#DejaVuSans-2d" x="254.492188"/>
       <use xlink:href="#DejaVuSans-30" x="290.576172"/>
       <use xlink:href="#DejaVuSans-37" x="354.199219"/>
      </g>
     </g>
    </g>
    <g id="xtick_4">
     <g id="line2d_4">
      <g>
       <use xlink:href="#maa9f4b1e1e" x="235.729939" y="374.830125" style="stroke: #000000; stroke-width: 0.8"/>
      </g>
     </g>
     <g id="text_4">
      <!-- 2023-01 -->
      <g transform="translate(198.505118 409.301971) rotate(-30) scale(0.1 -0.1)">
       <defs>
        <path id="DejaVuSans-33" d="M 2597 2516 
Q 3050 2419 3304 2112 
Q 3559 1806 3559 1356 
Q 3559 666 3084 287 
Q 2609 -91 1734 -91 
Q 1441 -91 1130 -33 
Q 819 25 488 141 
L 488 750 
Q 750 597 1062 519 
Q 1375 441 1716 441 
Q 2309 441 2620 675 
Q 2931 909 2931 1356 
Q 2931 1769 2642 2001 
Q 2353 2234 1838 2234 
L 1294 2234 
L 1294 2753 
L 1863 2753 
Q 2328 2753 2575 2939 
Q 2822 3125 2822 3475 
Q 2822 3834 2567 4026 
Q 2313 4219 1838 4219 
Q 1578 4219 1281 4162 
Q 984 4106 628 3988 
L 628 4550 
Q 988 4650 1302 4700 
Q 1616 4750 1894 4750 
Q 2613 4750 3031 4423 
Q 3450 4097 3450 3541 
Q 3450 3153 3228 2886 
Q 3006 2619 2597 2516 
z
" transform="scale(0.015625)"/>
       </defs>
       <use xlink:href="#DejaVuSans-32"/>
       <use xlink:href="#DejaVuSans-30" x="63.623047"/>
       <use xlink:href="#DejaVuSans-32" x="127.246094"/>
       <use xlink:href="#DejaVuSans-33" x="190.869141"/>
       <use xlink:href="#DejaVuSans-2d" x="254.492188"/>
       <use xlink:href="#DejaVuSans-30" x="290.576172"/>
       <use xlink:href="#DejaVuSans-31" x="354.199219"/>
      </g>
     </g>
    </g>
    <g id="xtick_5">
     <g id="line2d_5">
      <g>
       <use xlink:href="#maa9f4b1e1e" x="293.258633" y="374.830125" style="stroke: #000000; stroke-width: 0.8"/>
      </g>
     </g>
     <g id="text_5">
      <!-- 2023-07 -->
      <g transform="translate(256.033812 409.301971) rotate(-30) scale(0.1 -0.1)">
       <use xlink:href="#DejaVuSans-32"/>
       <use xlink:href="#DejaVuSans-30" x="63.623047"/>
       <use xlink:href="#DejaVuSans-32" x="127.246094"/>
       <use xlink:href="#DejaVuSans-33" x="190.869141"/>
       <use xlink:href="#DejaVuSans-2d" x="254.492188"/>
       <use xlink:href="#DejaVuSans-30" x="290.576172"/>
       <use xlink:href="#DejaVuSans-37" x="354.199219"/>
      </g>
     </g>
    </g>
    <g id="xtick_6">
     <g id="line2d_6">
      <g>
       <use xlink:href="#maa9f4b1e1e" x="351.740841" y="374.830125" style="stroke: #000000; stroke-width: 0.8"/>
      </g>
     </g>
     <g id="text_6">
      <!-- 2024-01 -->
      <g transform="translate(314.51602 409.301971) rotate(-30) scale(0.1 -0.1)">
       <defs>
        <path id="DejaVuSans-34" d="M 2419 4116 
L 825 1625 
L 2419 1625 
L 2419 4116 
z
M 2253 4666 
L 3047 4666 
L 3047 1625 
L 3713 1625 
L 3713 1100 
L 3047 1100 
L 3047 0 
L 2419 0 
L 2419 1100 
L 313 1100 
L 313 1709 
L 2253 4666 
z
" transform="scale(0.015625)"/>
       </defs>
       <use xlink:href="#DejaVuSans-32"/>
       <use xlink:href="#DejaVuSans-30" x="63.623047"/>
       <use xlink:href="#DejaVuSans-32" x="127.246094"/>
       <use xlink:href="#DejaVuSans-34" x="190.869141"/>
       <use xlink:href="#DejaVuSans-2d" x="254.492188"/>
       <use xlink:href="#DejaVuSans-30" x="290.576172"/>
       <use xlink:href="#DejaVuSans-31" x="354.199219"/>
      </g>
     </g>
    </g>
    <g id="xtick_7">
     <g id="line2d_7">
      <g>
       <use xlink:href="#maa9f4b1e1e" x="409.587373" y="374.830125" style="stroke: #000000; stroke-width: 0.8"/>
      </g>
     </g>
     <g id="text_7">
      <!-- 2024-07 -->
      <g transform="translate(372.362552 409.301971) rotate(-30) scale(0.1 -0.1)">
       <use xlink:href="#DejaVuSans-32"/>
       <use xlink:href="#DejaVuSans-30" x="63.623047"/>
       <use xlink:href="#DejaVuSans-32" x="127.246094"/>
       <use xlink:href="#DejaVuSans-34" x="190.869141"/>
       <use xlink:href="#DejaVuSans-2d" x="254.492188"/>
       <use xlink:href="#DejaVuSans-30" x="290.576172"/>
       <use xlink:href="#DejaVuSans-37" x="354.199219"/>
      </g>
     </g>
    </g>
    <g id="xtick_8">
     <g id="line2d_8">
      <g>
       <use xlink:href="#maa9f4b1e1e" x="468.069581" y="374.830125" style="stroke: #000000; stroke-width: 0.8"/>
      </g>
     </g>
     <g id="text_8">
      <!-- 2025-01 -->
      <g transform="translate(430.84476 409.301971) rotate(-30) scale(0.1 -0.1)">
       <defs>
        <path id="DejaVuSans-35" d="M 691 4666 
L 3169 4666 
L 3169 4134 
L 1269 4134 
L 1269 2991 
Q 1406 3038 1543 3061 
Q 1681 3084 1819 3084 
Q 2600 3084 3056 2656 
Q 3513 2228 3513 1497 
Q 3513 744 3044 326 
Q 2575 -91 1722 -91 
Q 1428 -91 1123 -41 
Q 819 9 494 109 
L 494 744 
Q 775 591 1075 516 
Q 1375 441 1709 441 
Q 2250 441 2565 725 
Q 2881 1009 2881 1497 
Q 2881 1984 2565 2268 
Q 2250 2553 1709 2553 
Q 1456 2553 1204 2497 
Q 953 2441 691 2322 
L 691 4666 
z
" transform="scale(0.015625)"/>
       </defs>
       <use xlink:href="#DejaVuSans-32"/>
       <use xlink:href="#DejaVuSans-30" x="63.623047"/>
       <use xlink:href="#DejaVuSans-32" x="127.246094"/>
       <use xlink:href="#DejaVuSans-35" x="190.869141"/>
       <use xlink:href="#DejaVuSans-2d" x="254.492188"/>
       <use xlink:href="#DejaVuSans-30" x="290.576172"/>
       <use xlink:href="#DejaVuSans-31" x="354.199219"/>
      </g>
     </g>
    </g>
    <g id="xtick_9">
     <g id="line2d_9">
      <g>
       <use xlink:href="#maa9f4b1e1e" x="525.598274" y="374.830125" style="stroke: #000000; stroke-width: 0.8"/>
      </g>
     </g>
     <g id="text_9">
      <!-- 2025-07 -->
      <g transform="translate(488.373454 409.301971) rotate(-30) scale(0.1 -0.1)">
       <use xlink:href="#DejaVuSans-32"/>
       <use xlink:href="#DejaVuSans-30" x="63.623047"/>
       <use xlink:href="#DejaVuSans-32" x="127.246094"/>
       <use xlink:href="#DejaVuSans-35" x="190.869141"/>
       <use xlink:href="#DejaVuSans-2d" x="254.492188"/>
       <use xlink:href="#DejaVuSans-30" x="290.576172"/>
       <use xlink:href="#DejaVuSans-37" x="354.199219"/>
      </g>
     </g>
    </g>
   </g>
   <g id="matplotlib.axis_2">
    <g id="ytick_1">
     <g id="line2d_10">
      <defs>
       <path id="m1b30af685c" d="M 0 0 
L -3.5 0 
" style="stroke: #000000; stroke-width: 0.8"/>
      </defs>
      <g>
       <use xlink:href="#m1b30af685c" x="33.2875" y="374.830125" style="stroke: #000000; stroke-width: 0.8"/>
      </g>
     </g>
     <g id="text_10">
      <!-- 0 -->
      <g transform="translate(19.925 378.629344) scale(0.1 -0.1)">
       <use xlink:href="#DejaVuSans-30"/>
      </g>
     </g>
    </g>
    <g id="ytick_2">
     <g id="line2d_11">
      <g>
       <use xlink:href="#m1b30af685c" x="33.2875" y="319.779371" style="stroke: #000000; stroke-width: 0.8"/>
      </g>
     </g>
     <g id="text_11">
      <!-- 100 -->
      <g transform="translate(7.2 323.578589) scale(0.1 -0.1)">
       <use xlink:href="#DejaVuSans-31"/>
       <use xlink:href="#DejaVuSans-30" x="63.623047"/>
       <use xlink:href="#DejaVuSans-30" x="127.246094"/>
      </g>
     </g>
    </g>
    <g id="ytick_3">
     <g id="line2d_12">
      <g>
       <use xlink:href="#m1b30af685c" x="33.2875" y="264.728616" style="stroke: #000000; stroke-width: 0.8"/>
      </g>
     </g>
     <g id="text_12">
      <!-- 200 -->
      <g transform="translate(7.2 268.527835) scale(0.1 -0.1)">
       <use xlink:href="#DejaVuSans-32"/>
       <use xlink:href="#DejaVuSans-30" x="63.623047"/>
       <use xlink:href="#DejaVuSans-30" x="127.246094"/>
      </g>
     </g>
    </g>
    <g id="ytick_4">
     <g id="line2d_13">
      <g>
       <use xlink:href="#m1b30af685c" x="33.2875" y="209.677862" style="stroke: #000000; stroke-width: 0.8"/>
      </g>
     </g>
     <g id="text_13">
      <!-- 300 -->
      <g transform="translate(7.2 213.477081) scale(0.1 -0.1)">
       <use xlink:href="#DejaVuSans-33"/>
       <use xlink:href="#DejaVuSans-30" x="63.623047"/>
       <use xlink:href="#DejaVuSans-30" x="127.246094"/>
      </g>
     </g>
    </g>
    <g id="ytick_5">
     <g id="line2d_14">
      <g>
       <use xlink:href="#m1b30af685c" x="33.2875" y="154.627108" style="stroke: #000000; stroke-width: 0.8"/>
      </g>
     </g>
     <g id="text_14">
      <!-- 400 -->
      <g transform="translate(7.2 158.426327) scale(0.1 -0.1)">
       <use xlink:href="#DejaVuSans-34"/>
       <use xlink:href="#DejaVuSans-30" x="63.623047"/>
       <use xlink:href="#DejaVuSans-30" x="127.246094"/>
      </g>
     </g>
    </g>
    <g id="ytick_6">
     <g id="line2d_15">
      <g>
       <use xlink:href="#m1b30af685c" x="33.2875" y="99.576354" style="stroke: #000000; stroke-width: 0.8"/>
      </g>
     </g>
     <g id="text_15">
      <!-- 500 -->
      <g transform="translate(7.2 103.375572) scale(0.1 -0.1)">
       <use xlink:href="#DejaVuSans-35"/>
       <use xlink:href="#DejaVuSans-30" x="63.623047"/>
       <use xlink:href="#DejaVuSans-30" x="127.246094"/>
      </g>
     </g>
    </g>
    <g id="ytick_7">
     <g id="line2d_16">
      <g>
       <use xlink:href="#m1b30af685c" x="33.2875" y="44.525599" style="stroke: #000000; stroke-width: 0.8"/>
      </g>
     </g>
     <g id="text_16">
      <!-- 600 -->
      <g transform="translate(7.2 48.324818) scale(0.1 -0.1)">
       <defs>
        <path id="DejaVuSans-36" d="M 2113 2584 
Q 1688 2584 1439 2293 
Q 1191 2003 1191 1497 
Q 1191 994 1439 701 
Q 1688 409 2113 409 
Q 2538 409 2786 701 
Q 3034 994 3034 1497 
Q 3034 2003 2786 2293 
Q 2538 2584 2113 2584 
z
M 3366 4563 
L 3366 3988 
Q 3128 4100 2886 4159 
Q 2644 4219 2406 4219 
Q 1781 4219 1451 3797 
Q 1122 3375 1075 2522 
Q 1259 2794 1537 2939 
Q 1816 3084 2150 3084 
Q 2853 3084 3261 2657 
Q 3669 2231 3669 1497 
Q 3669 778 3244 343 
Q 2819 -91 2113 -91 
Q 1303 -91 875 529 
Q 447 1150 447 2328 
Q 447 3434 972 4092 
Q 1497 4750 2381 4750 
Q 2619 4750 2861 4703 
Q 3103 4656 3366 4563 
z
" transform="scale(0.015625)"/>
       </defs>
       <use xlink:href="#DejaVuSans-36"/>
       <use xlink:href="#DejaVuSans-30" x="63.623047"/>
       <use xlink:href="#DejaVuSans-30" x="127.246094"/>
      </g>
     </g>
    </g>
   </g>
   <g id="line2d_17">
    <path d="M 38.539265 31.313418 
L 47.990217 31.313418 
L 48.097204 34.616464 
L 49.420396 34.616464 
L 49.904761 43.975092 
L 127.983346 43.975092 
L 128.372084 38.470016 
L 141.364837 38.470016 
L 142.128068 39.020524 
L 148.221337 39.020524 
L 148.434425 50.030675 
L 154.613694 50.030675 
L 155.894283 48.379152 
L 261.756986 48.379152 
L 262.058495 44.525599 
L 270.355544 44.525599 
L 270.651678 43.424584 
L 312.296398 43.424584 
L 312.503788 42.323569 
L 379.800146 42.323569 
L 379.992935 37.919509 
L 431.012007 37.919509 
L 431.099754 37.369001 
L 470.069279 37.369001 
L 470.427406 36.818494 
L 473.972198 36.818494 
L 474.089817 34.616464 
L 475.512392 34.616464 
L 475.882019 35.166971 
L 500.472191 35.166971 
L 500.775767 34.616464 
L 552.55186 34.616464 
L 552.72861 25.808343 
L 563.715735 25.808343 
L 563.715735 25.808343 
" clip-path="url(#p7a3f0e772b)" style="fill: none; stroke: #0000ff; stroke-width: 1.5; stroke-linecap: square"/>
   </g>
   <g id="line2d_18">
    <path d="M 38.539265 172.243349 
L 39.838649 171.142334 
L 41.133839 172.243349 
L 44.200976 172.243349 
L 47.582862 173.344364 
L 47.833748 172.793857 
L 47.990217 172.793857 
L 48.097204 176.096902 
L 48.344128 175.546394 
L 48.709337 176.096902 
L 49.420396 176.096902 
L 49.816421 188.208068 
L 49.904761 185.45553 
L 50.110318 188.758576 
L 50.175689 188.208068 
L 50.406033 188.208068 
L 50.774497 188.758576 
L 51.661302 188.758576 
L 51.687774 189.309083 
L 52.168478 189.309083 
L 52.371953 188.758576 
L 52.966848 192.612128 
L 53.035562 192.061621 
L 53.327675 192.612128 
L 53.892735 194.263651 
L 54.276002 193.162636 
L 54.881804 193.162636 
L 55.220357 194.263651 
L 55.449222 194.263651 
L 56.138725 194.814158 
L 56.448124 194.814158 
L 56.784565 195.915174 
L 57.085411 195.364666 
L 57.419487 196.465681 
L 57.766608 198.667711 
L 59.108804 199.768726 
L 59.678749 199.768726 
L 59.922889 200.319234 
L 60.311876 200.319234 
L 60.598251 200.869741 
L 60.889963 200.319234 
L 61.215206 200.319234 
L 61.40567 200.869741 
L 64.700665 200.869741 
L 65.033218 201.420249 
L 65.351891 201.420249 
L 65.475627 200.869741 
L 66.26267 201.420249 
L 66.592533 200.869741 
L 67.501999 200.869741 
L 67.793991 201.420249 
L 68.152979 200.869741 
L 69.808301 200.869741 
L 70.147453 201.420249 
L 70.333613 203.071772 
L 70.786705 201.970757 
L 71.840268 201.970757 
L 72.362987 202.521264 
L 72.679048 202.521264 
L 72.986012 203.071772 
L 73.328633 203.071772 
L 73.643216 202.521264 
L 73.943816 204.172787 
L 74.210689 204.172787 
L 74.936258 205.273802 
L 78.745709 205.273802 
L 79.048535 206.374817 
L 79.693933 206.374817 
L 79.980392 206.925324 
L 80.941168 206.925324 
L 81.860846 209.127355 
L 82.838371 209.127355 
L 83.18849 209.677862 
L 89.094392 209.677862 
L 89.803425 210.778877 
L 89.964044 209.677862 
L 91.101352 209.677862 
L 91.410192 210.22837 
L 91.750934 209.677862 
L 92.561645 209.677862 
L 93.009444 210.22837 
L 93.341875 209.677862 
L 98.362407 209.677862 
L 98.636767 214.63243 
L 98.826984 209.677862 
L 100.646431 209.677862 
L 100.976721 210.22837 
L 101.165246 215.182938 
L 101.610584 210.22837 
L 101.925115 210.22837 
L 102.133906 209.677862 
L 105.428165 209.677862 
L 105.59499 210.22837 
L 105.894368 210.22837 
L 106.387411 211.879892 
L 111.356772 211.879892 
L 112.441318 212.4304 
L 119.115722 212.4304 
L 119.393651 214.63243 
L 119.74879 214.63243 
L 120.063711 212.4304 
L 120.387715 212.4304 
L 120.61097 214.63243 
L 120.852936 212.4304 
L 121.255045 214.63243 
L 121.611233 215.733445 
L 125.741377 215.733445 
L 126.09786 216.283953 
L 127.983346 216.283953 
L 128.372084 210.22837 
L 128.649773 210.778877 
L 128.963649 212.4304 
L 129.35115 212.4304 
L 129.870723 213.531415 
L 130.229299 213.531415 
L 130.493609 214.081922 
L 130.848638 211.879892 
L 133.448105 217.384968 
L 133.713529 215.733445 
L 134.158576 215.182938 
L 135.572091 215.182938 
L 135.934684 214.63243 
L 136.254428 213.531415 
L 137.534469 213.531415 
L 137.768507 212.4304 
L 138.180159 213.531415 
L 139.109806 213.531415 
L 139.426191 214.63243 
L 139.73137 214.63243 
L 140.092804 215.182938 
L 140.238653 215.182938 
L 140.401656 216.83446 
L 140.622619 216.83446 
L 141.364837 217.384968 
L 141.978107 216.283953 
L 142.128068 216.283953 
L 142.60882 216.83446 
L 142.917274 217.935475 
L 144.511309 217.935475 
L 144.819079 218.485983 
L 145.149579 218.485983 
L 145.455564 219.03649 
L 145.742204 219.03649 
L 146.408255 219.586998 
L 146.752241 219.586998 
L 147.095263 221.238521 
L 147.298076 221.238521 
L 147.654588 220.688013 
L 148.221337 220.688013 
L 148.434425 222.339536 
L 148.960071 222.339536 
L 149.271501 223.440551 
L 149.68742 223.440551 
L 149.901659 223.991058 
L 150.372784 223.991058 
L 150.419666 224.541566 
L 150.658294 224.541566 
L 151.161836 225.092073 
L 152.306976 228.395119 
L 153.734353 228.395119 
L 154.025351 229.496134 
L 154.134924 228.945626 
L 154.261813 228.945626 
L 154.613694 228.395119 
L 155.894283 226.743596 
L 159.098161 226.743596 
L 159.46941 226.193088 
L 161.020073 226.193088 
L 161.240769 225.642581 
L 164.144668 225.642581 
L 164.651138 226.193088 
L 165.041196 226.193088 
L 165.464664 226.743596 
L 165.67774 226.193088 
L 167.719078 226.193088 
L 168.36331 227.294104 
L 169.734381 227.294104 
L 169.965218 235.001209 
L 170.225444 235.001209 
L 172.443119 236.652732 
L 172.579396 236.102224 
L 172.721566 236.652732 
L 173.090589 236.102224 
L 173.400132 236.102224 
L 173.725927 236.652732 
L 173.970581 236.652732 
L 174.363365 237.753747 
L 174.524903 237.753747 
L 174.674401 237.203239 
L 175.009481 238.304254 
L 177.237236 238.304254 
L 177.453962 238.854762 
L 178.652373 238.854762 
L 179.129524 238.304254 
L 179.487014 241.056792 
L 179.741517 239.405269 
L 180.073444 239.405269 
L 180.339497 242.708315 
L 180.52565 242.157807 
L 180.723817 242.708315 
L 180.823627 242.157807 
L 180.945788 243.80933 
L 181.262497 243.80933 
L 181.663775 244.359837 
L 182.449703 243.80933 
L 182.62866 244.910345 
L 182.921126 244.910345 
L 183.12824 243.258822 
L 183.831283 244.910345 
L 184.530351 245.460852 
L 185.144293 245.460852 
L 185.466362 247.112375 
L 185.7624 247.112375 
L 185.937755 246.561868 
L 186.245529 246.561868 
L 187.435891 248.763898 
L 187.634415 247.662883 
L 188.016553 247.112375 
L 188.464756 248.763898 
L 189.669502 248.763898 
L 189.772637 249.314405 
L 190.25268 249.864913 
L 191.532357 249.864913 
L 192.118106 252.61745 
L 195.409728 252.61745 
L 195.669649 253.167958 
L 196.011501 252.066943 
L 196.210521 253.167958 
L 199.799053 253.167958 
L 200.098881 253.718466 
L 200.821922 257.021511 
L 201.093184 255.369988 
L 201.416456 255.920496 
L 201.77441 255.369988 
L 202.026304 255.369988 
L 202.407982 253.718466 
L 202.612641 253.718466 
L 202.652364 254.268973 
L 203.296387 254.268973 
L 203.658877 250.965928 
L 203.978462 250.965928 
L 204.939838 251.516435 
L 205.000669 250.965928 
L 205.522651 250.41542 
L 205.60018 250.965928 
L 208.115335 250.965928 
L 208.290344 251.516435 
L 208.759726 252.066943 
L 209.38651 253.167958 
L 209.549535 254.268973 
L 209.769833 254.268973 
L 210.016621 255.369988 
L 210.313755 254.819481 
L 210.646463 254.819481 
L 210.897157 254.268973 
L 211.250576 254.819481 
L 211.565942 254.819481 
L 211.8682 255.369988 
L 212.112881 255.369988 
L 212.573459 254.819481 
L 212.812901 255.369988 
L 213.060722 254.819481 
L 213.780383 250.41542 
L 214.472645 251.516435 
L 214.573856 255.369988 
L 214.728166 255.369988 
L 215.010516 255.920496 
L 215.33854 255.369988 
L 215.638025 255.369988 
L 216.006949 254.819481 
L 216.326494 255.920496 
L 217.479768 255.920496 
L 217.938099 256.471003 
L 218.200028 256.471003 
L 218.220353 257.021511 
L 219.527164 257.021511 
L 219.899207 258.122526 
L 221.727678 258.122526 
L 222.092176 259.223541 
L 223.333393 259.223541 
L 225.59455 258.673033 
L 225.804312 259.223541 
L 226.370045 259.223541 
L 226.846078 259.774049 
L 227.164957 260.875064 
L 227.260308 260.324556 
L 227.606906 261.425571 
L 228.377943 261.425571 
L 231.500772 262.526586 
L 239.219875 262.526586 
L 239.534299 261.976079 
L 241.043463 261.976079 
L 241.356284 262.526586 
L 242.392922 262.526586 
L 242.750706 263.077094 
L 243.007975 262.526586 
L 243.306552 263.077094 
L 243.636919 262.526586 
L 243.908067 263.627601 
L 244.32335 263.077094 
L 244.626363 263.627601 
L 251.212969 263.627601 
L 251.553207 262.526586 
L 251.913651 263.077094 
L 252.239637 262.526586 
L 252.604776 262.526586 
L 252.897606 261.976079 
L 254.119727 261.976079 
L 254.430046 262.526586 
L 254.780565 261.976079 
L 255.099908 260.875064 
L 255.733123 260.875064 
L 256.090382 260.324556 
L 256.357723 261.425571 
L 256.701628 261.425571 
L 256.967325 260.875064 
L 257.805917 261.976079 
L 258.296498 261.425571 
L 258.587964 261.976079 
L 259.208057 261.976079 
L 259.558036 261.425571 
L 259.901695 263.077094 
L 260.232463 262.526586 
L 260.867485 262.526586 
L 261.109549 261.976079 
L 261.419133 262.526586 
L 261.756986 262.526586 
L 262.058495 257.572018 
L 262.17828 258.122526 
L 262.415216 258.122526 
L 262.580272 258.673033 
L 262.724123 258.673033 
L 262.913516 259.223541 
L 263.041865 258.122526 
L 263.675514 259.223541 
L 264.21993 259.223541 
L 264.484685 260.324556 
L 264.747074 259.223541 
L 264.917904 259.774049 
L 265.881057 259.774049 
L 266.167784 259.223541 
L 266.439709 259.223541 
L 266.781411 259.774049 
L 267.09738 259.774049 
L 267.471936 259.223541 
L 267.833388 259.774049 
L 268.11384 259.774049 
L 268.555182 260.875064 
L 270.355544 260.875064 
L 270.651678 259.223541 
L 272.047009 259.223541 
L 272.367466 259.774049 
L 272.619544 260.324556 
L 273.113091 260.324556 
L 273.26707 261.425571 
L 273.337704 260.875064 
L 273.504705 261.425571 
L 273.974443 261.425571 
L 274.204718 262.526586 
L 274.831705 262.526586 
L 275.124373 263.627601 
L 276.092268 263.627601 
L 276.324385 265.279124 
L 276.538573 265.829632 
L 276.66218 265.829632 
L 277.07914 266.380139 
L 277.225894 265.829632 
L 277.297014 266.380139 
L 277.755466 266.380139 
L 278.293878 266.930647 
L 279.501795 266.930647 
L 279.813324 266.380139 
L 280.111823 266.930647 
L 280.448308 266.930647 
L 280.609571 267.481154 
L 280.648359 266.930647 
L 280.839761 267.481154 
L 280.989461 267.481154 
L 281.137296 268.582169 
L 281.706554 269.683184 
L 282.121075 269.132677 
L 282.436231 269.683184 
L 283.055798 269.683184 
L 283.392067 270.784199 
L 283.51517 270.233692 
L 283.715158 271.885214 
L 283.998545 271.334707 
L 284.182336 271.885214 
L 284.327658 271.334707 
L 284.488248 272.435722 
L 284.815566 272.435722 
L 284.91251 272.98623 
L 285.296527 272.435722 
L 285.593533 273.536737 
L 286.26362 273.536737 
L 286.504838 274.637752 
L 286.846985 273.536737 
L 287.07943 273.536737 
L 287.16465 274.087245 
L 287.790026 274.087245 
L 288.082555 276.289275 
L 288.503256 274.087245 
L 288.568483 274.637752 
L 289.122423 274.087245 
L 289.174877 275.18826 
L 289.365399 275.18826 
L 289.749314 275.738767 
L 290.06088 275.18826 
L 290.29626 275.18826 
L 290.644576 276.289275 
L 291.023517 276.289275 
L 291.390996 275.738767 
L 291.665639 276.289275 
L 291.832515 275.738767 
L 291.998489 276.839782 
L 293.469178 276.839782 
L 293.921193 277.39029 
L 294.844097 277.39029 
L 295.171558 276.289275 
L 295.788731 276.289275 
L 296.097622 276.839782 
L 298.907679 276.839782 
L 299.286914 276.289275 
L 299.6424 277.39029 
L 303.954922 277.39029 
L 304.900972 277.940797 
L 305.462872 277.940797 
L 305.919213 278.491305 
L 306.279845 278.491305 
L 306.491763 279.041813 
L 311.29203 279.041813 
L 311.681915 278.491305 
L 311.991024 279.041813 
L 312.296398 278.491305 
L 312.503788 275.18826 
L 314.40017 275.18826 
L 314.569371 275.738767 
L 314.897351 275.738767 
L 315.005814 275.18826 
L 316.968835 275.18826 
L 317.241161 275.738767 
L 317.344079 275.18826 
L 317.81054 275.18826 
L 318.026158 276.289275 
L 318.297954 275.18826 
L 318.500877 276.289275 
L 318.644905 276.289275 
L 318.830668 275.18826 
L 318.993133 276.289275 
L 319.097247 275.18826 
L 319.13918 276.289275 
L 320.256547 276.289275 
L 320.433914 276.839782 
L 320.459926 277.39029 
L 321.028915 277.39029 
L 321.06245 277.940797 
L 321.390291 277.940797 
L 321.560047 278.491305 
L 321.704781 277.940797 
L 321.88259 278.491305 
L 322.002835 277.940797 
L 322.284854 278.491305 
L 322.404124 277.940797 
L 322.42048 278.491305 
L 322.777959 278.491305 
L 323.001943 279.041813 
L 323.143212 279.041813 
L 323.354765 280.142828 
L 323.589502 280.693335 
L 323.751622 280.142828 
L 325.557335 280.142828 
L 325.81552 280.693335 
L 327.1994 280.693335 
L 327.420154 281.243843 
L 327.71195 281.243843 
L 327.928478 281.79435 
L 328.047821 281.243843 
L 328.620386 281.243843 
L 328.813609 282.344858 
L 329.339531 282.344858 
L 329.390036 282.895365 
L 329.463422 282.344858 
L 329.576954 282.344858 
L 329.780638 283.445873 
L 329.992759 283.99638 
L 330.052044 283.445873 
L 330.292494 285.647903 
L 331.266315 285.647903 
L 331.364215 286.198411 
L 331.577553 286.198411 
L 331.702525 287.299426 
L 331.849194 286.198411 
L 333.141979 286.198411 
L 333.216785 286.748918 
L 333.464753 286.198411 
L 333.583479 286.748918 
L 333.80299 286.198411 
L 334.088124 286.198411 
L 334.26298 287.299426 
L 334.581719 287.299426 
L 334.712463 286.748918 
L 334.824482 287.849933 
L 335.15531 286.198411 
L 335.501993 287.299426 
L 335.753133 286.198411 
L 336.34103 286.198411 
L 336.798562 287.849933 
L 336.940931 287.299426 
L 337.098596 287.849933 
L 337.524024 286.748918 
L 337.660249 287.849933 
L 338.669882 287.849933 
L 338.832623 288.400441 
L 339.116224 288.400441 
L 339.267406 287.849933 
L 339.458212 288.400441 
L 339.578862 287.849933 
L 339.946395 288.950948 
L 340.448182 288.950948 
L 340.802075 290.051963 
L 342.33486 290.051963 
L 342.502446 290.602471 
L 342.707437 290.051963 
L 342.808862 290.602471 
L 343.017859 290.051963 
L 343.29543 290.051963 
L 343.474464 290.602471 
L 343.592182 290.051963 
L 343.966955 290.051963 
L 344.082874 290.602471 
L 344.608315 290.602471 
L 344.643733 291.703486 
L 346.891014 291.703486 
L 347.112714 292.253994 
L 347.258231 291.703486 
L 347.381515 292.253994 
L 347.475159 291.703486 
L 347.587488 292.804501 
L 348.105034 292.804501 
L 348.34917 293.355009 
L 348.398648 292.804501 
L 348.44934 293.355009 
L 348.728126 292.804501 
L 348.800176 293.355009 
L 349.072811 293.905516 
L 349.179596 294.456024 
L 349.383453 294.456024 
L 349.430327 295.006531 
L 349.714163 296.658054 
L 349.841916 296.107546 
L 350.01434 296.107546 
L 350.045403 297.208561 
L 351.256829 297.208561 
L 351.407295 297.759069 
L 351.644621 297.208561 
L 352.055714 297.759069 
L 352.165585 297.208561 
L 352.34545 297.759069 
L 352.566502 297.759069 
L 352.698048 298.309577 
L 353.004446 298.309577 
L 353.011958 298.860084 
L 353.106408 298.309577 
L 353.196948 299.410592 
L 353.330767 299.410592 
L 353.516007 299.961099 
L 354.786727 299.961099 
L 354.820261 299.410592 
L 354.900258 300.511607 
L 355.235371 300.511607 
L 355.406515 299.961099 
L 355.538255 300.511607 
L 355.736599 299.961099 
L 355.885207 300.511607 
L 356.052171 300.511607 
L 356.19564 299.961099 
L 356.337894 301.612622 
L 358.040833 301.612622 
L 358.552942 302.713637 
L 358.822509 302.163129 
L 365.25546 302.163129 
L 365.36468 302.713637 
L 365.560029 302.163129 
L 365.616331 302.713637 
L 366.200049 302.713637 
L 366.361683 303.264144 
L 367.180933 303.264144 
L 367.290396 303.814652 
L 367.444691 303.264144 
L 368.699658 303.264144 
L 368.87373 303.814652 
L 369.092943 303.264144 
L 369.213982 303.264144 
L 369.406874 304.36516 
L 369.512985 303.814652 
L 369.983309 303.814652 
L 370.188237 304.36516 
L 371.152842 304.36516 
L 371.309974 303.264144 
L 371.628363 304.36516 
L 373.341467 304.36516 
L 373.517109 304.915667 
L 373.674023 304.915667 
L 373.843014 305.466175 
L 373.969326 305.466175 
L 374.125681 306.016682 
L 374.491507 306.016682 
L 374.556314 306.56719 
L 374.861284 306.56719 
L 375.053922 305.466175 
L 375.204344 306.016682 
L 375.434596 306.016682 
L 375.528483 306.56719 
L 375.880732 306.56719 
L 376.195785 307.117697 
L 376.539333 308.76922 
L 376.651813 308.218712 
L 376.756545 308.76922 
L 376.996936 309.319727 
L 377.110927 308.76922 
L 377.416901 309.319727 
L 377.619258 308.76922 
L 377.784527 308.76922 
L 378.108306 310.420742 
L 378.420354 309.870235 
L 378.743519 310.97125 
L 378.806976 310.420742 
L 379.017014 310.97125 
L 379.162454 310.420742 
L 379.282357 310.97125 
L 379.800146 310.97125 
L 379.992935 303.264144 
L 380.507825 304.36516 
L 380.847791 304.36516 
L 380.966704 304.915667 
L 381.151922 304.36516 
L 381.27081 304.36516 
L 381.411486 303.814652 
L 381.573238 304.36516 
L 381.795423 304.36516 
L 381.904746 303.814652 
L 382.043642 304.36516 
L 382.233075 303.814652 
L 382.307532 304.36516 
L 382.70128 304.915667 
L 382.990615 303.814652 
L 383.252736 304.36516 
L 384.417267 304.36516 
L 384.693584 304.915667 
L 384.983707 304.36516 
L 385.505564 304.36516 
L 385.905647 305.466175 
L 386.042876 303.814652 
L 386.27385 304.36516 
L 386.568291 303.814652 
L 386.702983 305.466175 
L 386.865602 304.36516 
L 387.01929 304.36516 
L 387.121642 304.915667 
L 387.198026 307.117697 
L 387.211737 306.56719 
L 387.55058 307.117697 
L 388.386906 307.117697 
L 388.782523 308.218712 
L 388.94572 307.668205 
L 389.531602 307.668205 
L 389.691234 307.117697 
L 389.861848 307.668205 
L 390.04899 307.668205 
L 390.158931 307.117697 
L 390.4934 307.668205 
L 390.68989 307.668205 
L 390.818706 308.218712 
L 390.976253 307.668205 
L 391.145509 307.668205 
L 391.304127 307.117697 
L 391.40238 307.668205 
L 392.285948 307.668205 
L 392.507 309.319727 
L 392.774264 308.76922 
L 392.995308 308.76922 
L 393.174262 308.218712 
L 393.255627 308.76922 
L 393.532823 308.218712 
L 393.636451 308.76922 
L 393.880649 308.76922 
L 393.976185 309.319727 
L 394.268015 308.76922 
L 394.869372 308.76922 
L 395.092322 309.319727 
L 395.463719 309.319727 
L 395.557363 309.870235 
L 395.715635 309.319727 
L 396.085622 310.420742 
L 396.19571 310.420742 
L 396.358985 310.97125 
L 396.509494 310.97125 
L 396.79269 311.521758 
L 399.096325 311.521758 
L 399.34174 312.072265 
L 399.57186 312.072265 
L 399.618712 310.97125 
L 399.676736 311.521758 
L 400.052175 311.521758 
L 400.13787 312.072265 
L 400.631872 312.072265 
L 400.867797 312.622773 
L 401.184664 312.622773 
L 401.195204 312.072265 
L 401.300539 312.622773 
L 401.39741 312.072265 
L 402.777184 312.072265 
L 403.035898 311.521758 
L 403.757593 312.072265 
L 405.254206 312.072265 
L 405.318965 312.622773 
L 406.889428 312.622773 
L 407.030891 313.17328 
L 408.483249 315.925818 
L 408.620898 315.925818 
L 408.764507 316.476325 
L 408.828461 315.925818 
L 409.137738 316.476325 
L 409.425077 317.026833 
L 409.768717 317.026833 
L 409.884117 317.577341 
L 410.318397 317.577341 
L 410.9474 317.026833 
L 410.979088 318.678356 
L 411.485318 318.678356 
L 411.642218 318.127848 
L 411.75618 318.678356 
L 412.919206 318.678356 
L 413.189192 318.127848 
L 414.436452 318.127848 
L 415.206614 318.678356 
L 416.762387 318.678356 
L 417.528476 319.228863 
L 417.630935 319.779371 
L 419.934926 319.779371 
L 420.151376 319.228863 
L 421.321017 319.228863 
L 422.175059 318.678356 
L 422.797411 318.678356 
L 423.106259 319.228863 
L 423.380457 320.329878 
L 423.543709 320.329878 
L 423.550081 319.779371 
L 425.381277 319.779371 
L 425.57781 320.329878 
L 430.203914 320.329878 
L 430.787213 320.880386 
L 431.012007 320.880386 
L 431.099754 321.430893 
L 431.38565 321.430893 
L 431.505715 320.880386 
L 431.691834 321.430893 
L 432.736841 321.430893 
L 433.20265 321.981401 
L 433.52622 323.082416 
L 436.360081 323.082416 
L 436.858866 322.531908 
L 437.003181 323.082416 
L 437.149169 322.531908 
L 437.313283 323.082416 
L 438.090518 323.082416 
L 438.448862 322.531908 
L 438.630703 323.082416 
L 439.132108 321.981401 
L 439.327527 323.082416 
L 440.540899 323.082416 
L 440.555253 323.632924 
L 442.478185 323.632924 
L 443.413136 324.183431 
L 443.693713 323.632924 
L 444.215008 323.632924 
L 444.341378 324.183431 
L 444.786797 322.531908 
L 445.080878 323.082416 
L 445.476233 322.531908 
L 445.769075 322.531908 
L 445.90207 323.082416 
L 446.709441 323.082416 
L 447.668735 322.531908 
L 447.813127 323.082416 
L 448.767675 323.082416 
L 449.077589 322.531908 
L 453.935913 323.082416 
L 454.299687 322.531908 
L 454.614074 323.082416 
L 454.895788 322.531908 
L 454.927307 323.082416 
L 455.172564 323.632924 
L 455.314602 323.632924 
L 455.444529 324.183431 
L 457.703332 324.183431 
L 457.751464 324.733939 
L 458.032235 324.733939 
L 458.781936 324.183431 
L 458.805785 324.733939 
L 459.093826 324.183431 
L 459.163835 325.284446 
L 459.349233 325.284446 
L 459.725363 325.834954 
L 460.355687 325.834954 
L 460.738424 325.284446 
L 461.16876 326.385461 
L 461.186411 326.935969 
L 461.604452 327.486476 
L 461.911916 326.935969 
L 462.34425 326.935969 
L 462.434124 327.486476 
L 463.418484 327.486476 
L 463.554091 326.935969 
L 463.720106 328.036984 
L 463.856938 328.036984 
L 464.116635 327.486476 
L 464.352817 328.036984 
L 464.879509 328.036984 
L 465.111468 329.137999 
L 466.765793 329.137999 
L 466.963574 329.688506 
L 467.08468 329.688506 
L 467.283958 329.137999 
L 467.335353 329.688506 
L 467.863221 329.688506 
L 467.969392 330.239014 
L 468.257753 330.239014 
L 468.340115 331.340029 
L 468.790017 331.340029 
L 468.959056 332.991552 
L 469.311029 332.991552 
L 469.516881 332.441044 
L 469.628091 332.991552 
L 469.777795 332.991552 
L 469.789228 334.643074 
L 470.069279 334.643074 
L 470.427406 334.092567 
L 470.589875 334.092567 
L 470.728664 334.643074 
L 471.073813 334.643074 
L 471.431469 334.092567 
L 471.468256 335.193582 
L 471.784931 335.193582 
L 471.843305 335.744089 
L 472.063956 336.294597 
L 472.646846 336.294597 
L 472.732519 337.395612 
L 472.982666 337.395612 
L 473.12932 337.94612 
L 473.270044 337.94612 
L 473.774693 338.496627 
L 473.972198 337.94612 
L 474.089817 330.239014 
L 474.217379 329.688506 
L 474.303772 331.890537 
L 474.926073 331.890537 
L 475.181852 331.340029 
L 475.368214 332.441044 
L 475.512392 332.441044 
L 475.882019 332.991552 
L 476.288561 332.991552 
L 476.474062 332.441044 
L 476.619304 332.991552 
L 477.599547 332.991552 
L 477.720245 333.542059 
L 478.167146 332.441044 
L 478.530544 332.991552 
L 478.738787 332.991552 
L 478.818769 333.542059 
L 479.002619 332.441044 
L 479.181333 333.542059 
L 479.922852 333.542059 
L 480.037785 332.991552 
L 480.301921 332.991552 
L 480.343472 333.542059 
L 480.642549 334.092567 
L 480.654221 333.542059 
L 481.21667 333.542059 
L 481.50616 334.092567 
L 483.008408 334.092567 
L 483.12105 334.643074 
L 483.418968 334.092567 
L 483.428915 334.643074 
L 483.856701 335.193582 
L 484.119551 335.193582 
L 484.422026 335.744089 
L 484.573055 336.294597 
L 484.688525 336.294597 
L 485.051879 335.193582 
L 485.123658 336.294597 
L 485.367992 335.744089 
L 485.573649 336.294597 
L 486.491483 336.294597 
L 486.594321 336.845105 
L 486.72249 336.294597 
L 487.166643 336.845105 
L 487.38118 336.294597 
L 487.598605 336.845105 
L 487.729238 336.294597 
L 488.033473 337.395612 
L 488.243676 336.845105 
L 488.962649 336.845105 
L 489.248685 337.395612 
L 489.66634 337.395612 
L 489.998635 336.294597 
L 490.087203 336.845105 
L 490.442255 336.845105 
L 490.532361 337.94612 
L 490.980159 336.845105 
L 491.13654 337.395612 
L 491.497341 336.845105 
L 491.760709 336.845105 
L 491.895636 337.395612 
L 492.083922 337.395612 
L 492.218146 334.092567 
L 492.640503 334.643074 
L 492.695219 333.542059 
L 492.846862 334.643074 
L 492.985887 334.092567 
L 493.06933 334.643074 
L 493.400356 334.092567 
L 493.79754 334.643074 
L 493.997609 334.643074 
L 494.272244 334.092567 
L 494.662619 334.092567 
L 495.06287 335.193582 
L 495.272529 334.643074 
L 495.696483 334.643074 
L 495.894738 334.092567 
L 495.923925 333.542059 
L 496.170904 334.643074 
L 496.301883 334.092567 
L 496.455947 334.643074 
L 496.684871 334.092567 
L 496.943972 334.092567 
L 497.110421 333.542059 
L 497.426089 333.542059 
L 497.754738 334.643074 
L 497.977744 334.092567 
L 498.249319 335.193582 
L 498.390749 335.193582 
L 498.479523 334.643074 
L 498.755726 334.643074 
L 498.778909 335.193582 
L 499.694533 335.193582 
L 499.844535 335.744089 
L 499.973016 335.744089 
L 500.171077 336.294597 
L 500.341907 335.744089 
L 500.472191 336.294597 
L 500.666426 335.744089 
L 500.775767 336.294597 
L 500.916892 335.744089 
L 500.962361 336.294597 
L 501.118591 337.395612 
L 501.309463 336.845105 
L 501.369532 336.294597 
L 501.57083 336.845105 
L 501.735333 336.294597 
L 502.050872 336.845105 
L 502.258537 336.845105 
L 502.349011 337.395612 
L 502.57348 336.845105 
L 503.162996 338.496627 
L 503.321577 338.496627 
L 503.485605 337.395612 
L 503.563152 337.94612 
L 503.79506 337.94612 
L 503.900572 337.395612 
L 504.0902 337.395612 
L 504.262845 337.94612 
L 504.484794 337.94612 
L 504.857423 339.597642 
L 505.05567 339.047135 
L 507.661674 339.047135 
L 507.782946 339.597642 
L 507.936733 339.597642 
L 508.060406 339.047135 
L 508.308541 339.597642 
L 508.926736 337.395612 
L 509.030151 338.496627 
L 509.684268 337.395612 
L 510.14222 337.395612 
L 510.768862 338.496627 
L 511.876641 337.94612 
L 512.157968 338.496627 
L 512.467897 337.94612 
L 512.689247 339.047135 
L 512.778025 337.94612 
L 513.069814 339.047135 
L 513.38773 337.94612 
L 513.492969 339.047135 
L 513.696835 339.047135 
L 513.808902 338.496627 
L 514.012031 339.047135 
L 514.133935 339.047135 
L 514.247485 338.496627 
L 514.385451 340.14815 
L 514.747278 339.047135 
L 515.085699 339.047135 
L 515.292485 339.597642 
L 515.682738 339.597642 
L 516.000109 339.047135 
L 516.185647 339.047135 
L 516.325907 340.14815 
L 516.500865 339.597642 
L 516.598545 340.14815 
L 516.8344 340.698657 
L 516.979017 340.698657 
L 517.231856 339.597642 
L 517.47363 341.249165 
L 517.777515 341.249165 
L 517.80058 342.35018 
L 517.821803 341.799672 
L 517.980733 341.249165 
L 518.1478 342.35018 
L 518.217485 341.249165 
L 518.469328 341.249165 
L 518.503643 341.799672 
L 518.787383 342.35018 
L 518.957198 342.35018 
L 519.036794 341.249165 
L 519.417574 342.35018 
L 519.47924 341.249165 
L 519.68664 342.35018 
L 519.846185 340.698657 
L 520.331182 341.799672 
L 520.696545 340.14815 
L 520.724797 340.698657 
L 520.956223 340.14815 
L 521.102532 340.14815 
L 521.254421 341.249165 
L 521.435809 340.14815 
L 521.784541 341.249165 
L 521.916848 340.14815 
L 522.060104 340.698657 
L 522.352029 340.698657 
L 522.544814 340.14815 
L 522.913856 340.14815 
L 522.92512 340.698657 
L 523.505947 339.597642 
L 523.813989 341.249165 
L 523.977477 341.249165 
L 524.168021 340.698657 
L 524.221881 341.799672 
L 524.492378 340.698657 
L 524.658938 341.799672 
L 524.826847 340.698657 
L 524.896238 341.249165 
L 525.240603 341.249165 
L 525.446974 341.799672 
L 525.541361 342.900688 
L 525.733514 341.799672 
L 526.049649 342.35018 
L 526.189494 342.900688 
L 526.362285 342.35018 
L 526.509815 344.55221 
L 526.741384 344.55221 
L 527.047623 345.102718 
L 527.084568 344.001703 
L 527.38597 345.102718 
L 527.815 344.001703 
L 527.930926 345.653225 
L 528.278805 346.203733 
L 528.657701 345.102718 
L 528.897846 344.55221 
L 529.565387 345.102718 
L 529.645343 345.653225 
L 529.895081 345.653225 
L 530.355457 346.203733 
L 530.583543 346.203733 
L 530.867754 346.75424 
L 531.155239 348.405763 
L 531.893334 347.855255 
L 532.13109 347.855255 
L 532.460778 346.203733 
L 532.774175 346.203733 
L 532.854959 345.653225 
L 533.093066 346.75424 
L 533.146112 345.653225 
L 533.406714 346.203733 
L 533.879446 346.203733 
L 534.122037 347.304748 
L 534.3447 346.203733 
L 534.648813 347.304748 
L 534.767373 346.75424 
L 534.929795 347.304748 
L 535.353847 346.203733 
L 535.598939 346.75424 
L 536.315819 346.75424 
L 536.486929 346.203733 
L 536.902131 347.304748 
L 537.070898 346.203733 
L 537.216467 346.203733 
L 537.273071 346.75424 
L 537.479441 346.75424 
L 537.702016 347.304748 
L 537.854317 346.203733 
L 538.090786 347.304748 
L 538.194635 346.203733 
L 538.484604 347.304748 
L 538.662906 347.304748 
L 538.777968 346.75424 
L 538.966522 346.75424 
L 539.019804 346.203733 
L 539.030745 346.75424 
L 539.352637 346.75424 
L 539.461548 346.203733 
L 539.756824 347.304748 
L 540.028738 346.203733 
L 540.494731 346.75424 
L 541.490554 346.75424 
L 541.729367 346.203733 
L 541.983258 346.75424 
L 542.146687 346.203733 
L 542.247641 346.75424 
L 542.954886 346.75424 
L 543.170814 346.203733 
L 543.666597 347.304748 
L 543.787144 346.75424 
L 544.183702 347.304748 
L 544.616797 346.75424 
L 544.846821 347.304748 
L 545.387999 346.203733 
L 545.529996 345.653225 
L 545.765263 345.653225 
L 546.218392 347.304748 
L 546.341646 347.304748 
L 546.498119 346.203733 
L 546.865626 346.203733 
L 547.071758 346.75424 
L 547.228076 346.75424 
L 547.389699 346.203733 
L 547.694856 346.203733 
L 548.111533 346.75424 
L 548.342834 346.75424 
L 548.437523 347.304748 
L 548.659837 346.203733 
L 548.776966 347.304748 
L 548.922591 346.75424 
L 549.014561 347.304748 
L 549.598445 347.304748 
L 549.619579 348.405763 
L 549.713868 347.855255 
L 549.890271 347.855255 
L 549.995684 347.304748 
L 550.161493 347.855255 
L 550.344316 347.304748 
L 550.810534 347.855255 
L 551.206522 347.855255 
L 551.356925 348.95627 
L 551.41624 348.405763 
L 551.593457 348.95627 
L 551.831122 348.405763 
L 551.942383 347.855255 
L 552.108233 348.405763 
L 552.271787 347.855255 
L 552.468512 348.95627 
L 552.55186 347.855255 
L 552.72861 334.092567 
L 553.211198 334.092567 
L 553.344211 333.542059 
L 553.470637 335.744089 
L 554.175064 335.193582 
L 554.698455 335.193582 
L 554.800241 335.744089 
L 554.931136 335.744089 
L 555.341353 334.643074 
L 555.65165 334.643074 
L 555.664878 335.193582 
L 556.05334 335.744089 
L 556.328464 335.193582 
L 556.604844 334.092567 
L 556.640174 335.193582 
L 556.851323 334.092567 
L 556.933449 334.643074 
L 557.564229 334.643074 
L 557.59832 335.193582 
L 557.856611 335.193582 
L 558.032559 334.643074 
L 558.202116 334.643074 
L 558.256336 334.092567 
L 558.620916 335.193582 
L 558.945482 334.092567 
L 559.114429 334.092567 
L 559.633624 334.643074 
L 559.734537 334.092567 
L 559.817606 335.193582 
L 560.153914 336.294597 
L 560.380164 335.193582 
L 560.71545 336.294597 
L 561.048187 335.193582 
L 561.169293 336.294597 
L 561.356233 335.193582 
L 561.593927 335.193582 
L 561.644192 336.294597 
L 561.793444 335.744089 
L 561.967541 336.294597 
L 562.249409 336.294597 
L 562.283408 337.395612 
L 562.500659 336.845105 
L 562.624664 336.845105 
L 562.715531 336.294597 
L 562.970916 336.845105 
L 563.235568 337.94612 
L 563.24933 339.597642 
L 563.401727 338.496627 
L 563.406296 340.14815 
L 563.588526 340.14815 
L 563.715735 340.698657 
L 563.715735 340.698657 
" clip-path="url(#p7a3f0e772b)" style="fill: none; stroke-dasharray: 3,1.5; stroke-dashoffset: 0; stroke: #808080; stroke-width: 1.5"/>
   </g>
   <g id="line2d_19">
    <path d="M 38.539265 298.309577 
L 39.838649 297.759069 
L 41.133839 296.658054 
L 44.200976 296.658054 
L 47.582862 296.107546 
L 47.833748 296.658054 
L 47.990217 296.658054 
L 48.097204 295.557039 
L 48.344128 296.107546 
L 48.709337 295.557039 
L 49.420396 295.557039 
L 49.816421 292.804501 
L 49.904761 295.557039 
L 50.110318 292.253994 
L 50.175689 292.804501 
L 50.406033 292.804501 
L 50.774497 292.253994 
L 51.378529 292.253994 
L 51.687774 290.051963 
L 52.168478 290.051963 
L 52.656433 291.152978 
L 52.966848 286.748918 
L 53.035562 287.299426 
L 53.327675 286.748918 
L 53.892735 285.097396 
L 54.276002 286.198411 
L 54.881804 286.198411 
L 55.220357 287.299426 
L 55.449222 286.748918 
L 56.138725 286.198411 
L 56.448124 286.198411 
L 56.784565 285.097396 
L 57.267322 285.097396 
L 57.766608 281.79435 
L 59.108804 280.142828 
L 59.291587 279.59232 
L 59.678749 279.59232 
L 59.922889 279.041813 
L 60.311876 279.041813 
L 60.598251 280.142828 
L 60.889963 280.693335 
L 61.215206 280.693335 
L 61.40567 280.142828 
L 63.728459 280.142828 
L 64.099734 279.59232 
L 64.700665 279.59232 
L 65.033218 279.041813 
L 65.351891 279.041813 
L 65.475627 279.59232 
L 66.26267 279.041813 
L 66.592533 279.59232 
L 67.501999 279.59232 
L 67.793991 279.041813 
L 68.152979 279.59232 
L 69.808301 279.59232 
L 70.147453 279.041813 
L 70.333613 277.39029 
L 70.786705 278.491305 
L 71.424813 278.491305 
L 71.722948 277.39029 
L 71.840268 278.491305 
L 72.362987 276.839782 
L 72.679048 276.839782 
L 72.986012 276.289275 
L 73.328633 276.289275 
L 73.643216 276.839782 
L 73.943816 275.738767 
L 74.210689 275.738767 
L 74.936258 274.637752 
L 78.745709 274.637752 
L 79.048535 273.536737 
L 79.693933 273.536737 
L 79.980392 270.784199 
L 80.941168 270.784199 
L 81.860846 268.582169 
L 82.838371 268.582169 
L 83.18849 268.031662 
L 89.094392 268.031662 
L 89.803425 266.380139 
L 89.964044 268.031662 
L 91.101352 268.031662 
L 91.410192 266.930647 
L 91.750934 268.031662 
L 92.561645 268.031662 
L 93.009444 266.930647 
L 93.341875 268.031662 
L 98.362407 268.031662 
L 98.636767 263.077094 
L 98.826984 268.031662 
L 100.646431 268.031662 
L 100.976721 267.481154 
L 101.165246 262.526586 
L 101.610584 267.481154 
L 101.925115 267.481154 
L 102.133906 268.031662 
L 105.428165 268.031662 
L 105.59499 267.481154 
L 105.894368 267.481154 
L 106.387411 265.829632 
L 111.356772 265.829632 
L 112.441318 265.279124 
L 119.115722 265.279124 
L 119.393651 262.526586 
L 119.74879 262.526586 
L 120.063711 265.279124 
L 120.387715 265.279124 
L 120.61097 262.526586 
L 120.852936 265.279124 
L 121.255045 262.526586 
L 121.611233 261.425571 
L 125.741377 261.425571 
L 126.09786 260.875064 
L 127.661837 260.875064 
L 127.983346 259.774049 
L 128.372084 257.572018 
L 128.649773 257.021511 
L 128.963649 253.718466 
L 129.35115 253.718466 
L 129.870723 252.61745 
L 130.229299 252.61745 
L 130.848638 251.516435 
L 133.448105 246.561868 
L 133.713529 247.662883 
L 135.572091 247.662883 
L 135.934684 245.460852 
L 136.254428 246.01136 
L 137.534469 246.01136 
L 137.768507 247.112375 
L 138.180159 246.01136 
L 139.109806 246.01136 
L 139.426191 244.910345 
L 139.73137 244.910345 
L 140.092804 244.359837 
L 140.238653 244.359837 
L 140.401656 242.708315 
L 140.622619 242.708315 
L 141.364837 242.157807 
L 141.978107 243.80933 
L 142.128068 243.80933 
L 142.60882 243.258822 
L 142.917274 242.157807 
L 144.511309 242.157807 
L 144.819079 241.6073 
L 145.149579 241.6073 
L 145.455564 241.056792 
L 145.742204 241.056792 
L 146.408255 240.506285 
L 146.752241 240.506285 
L 147.095263 238.854762 
L 147.654588 238.854762 
L 148.004137 238.304254 
L 148.221337 238.304254 
L 148.342597 248.21339 
L 148.434425 247.662883 
L 148.960071 247.662883 
L 149.271501 246.561868 
L 149.68742 246.561868 
L 149.901659 246.01136 
L 150.372784 246.01136 
L 150.419666 245.460852 
L 151.161836 245.460852 
L 151.560307 243.80933 
L 152.388389 242.157807 
L 153.734353 242.157807 
L 154.025351 241.056792 
L 154.134924 241.6073 
L 154.261813 241.6073 
L 154.613694 242.157807 
L 155.894283 241.6073 
L 159.098161 241.6073 
L 159.46941 242.157807 
L 161.020073 242.157807 
L 161.240769 242.708315 
L 161.64503 242.157807 
L 164.144668 242.157807 
L 164.651138 241.6073 
L 165.041196 241.6073 
L 165.464664 241.056792 
L 165.67774 241.6073 
L 167.719078 241.6073 
L 168.36331 240.506285 
L 169.734381 240.506285 
L 169.965218 232.799179 
L 170.225444 232.799179 
L 172.443119 231.147656 
L 172.579396 231.698164 
L 172.721566 231.147656 
L 173.090589 231.698164 
L 173.400132 231.698164 
L 173.725927 231.147656 
L 173.970581 231.147656 
L 174.363365 230.046641 
L 174.524903 230.046641 
L 174.674401 230.597149 
L 175.009481 229.496134 
L 177.237236 229.496134 
L 177.453962 228.945626 
L 177.815289 228.945626 
L 178.150623 228.395119 
L 178.498759 228.945626 
L 178.652373 228.945626 
L 179.129524 229.496134 
L 179.487014 226.743596 
L 179.741517 228.395119 
L 180.073444 228.395119 
L 180.339497 225.092073 
L 180.52565 225.642581 
L 180.723817 224.541566 
L 180.823627 225.092073 
L 180.945788 223.440551 
L 181.262497 223.440551 
L 181.663775 222.890043 
L 182.449703 223.440551 
L 182.62866 222.339536 
L 182.921126 222.339536 
L 183.12824 223.991058 
L 183.831283 222.339536 
L 184.530351 221.789028 
L 185.144293 221.789028 
L 185.466362 220.137505 
L 185.7624 220.137505 
L 185.937755 220.688013 
L 186.245529 220.688013 
L 187.435891 217.384968 
L 187.634415 219.586998 
L 188.016553 220.137505 
L 188.464756 217.384968 
L 189.669502 217.384968 
L 189.772637 216.83446 
L 190.25268 216.283953 
L 191.532357 216.283953 
L 192.118106 213.531415 
L 195.409728 213.531415 
L 195.669649 212.4304 
L 196.011501 214.63243 
L 196.210521 212.980907 
L 199.799053 212.980907 
L 200.098881 212.4304 
L 200.821922 209.127355 
L 201.093184 210.778877 
L 201.416456 210.22837 
L 201.77441 210.778877 
L 202.026304 210.778877 
L 202.407982 205.273802 
L 202.612641 205.273802 
L 202.652364 204.723294 
L 203.296387 204.723294 
L 203.658877 203.622279 
L 203.978462 201.970757 
L 204.939838 201.420249 
L 205.000669 201.970757 
L 205.522651 202.521264 
L 205.60018 201.970757 
L 208.115335 201.970757 
L 208.290344 201.420249 
L 208.759726 200.869741 
L 209.38651 199.768726 
L 209.549535 198.667711 
L 209.769833 198.667711 
L 210.016621 197.566696 
L 210.313755 198.117204 
L 210.646463 198.117204 
L 210.897157 198.667711 
L 211.250576 198.117204 
L 211.565942 198.117204 
L 211.8682 197.566696 
L 212.112881 197.566696 
L 212.573459 198.117204 
L 212.812901 197.566696 
L 213.060722 198.117204 
L 213.478782 200.869741 
L 213.780383 201.420249 
L 214.472645 200.319234 
L 214.573856 196.465681 
L 214.728166 196.465681 
L 215.010516 195.915174 
L 215.33854 196.465681 
L 215.638025 196.465681 
L 216.006949 197.016189 
L 216.326494 195.915174 
L 217.479768 195.915174 
L 217.938099 195.364666 
L 218.200028 195.364666 
L 218.220353 194.814158 
L 219.527164 194.814158 
L 219.899207 193.713143 
L 221.727678 193.713143 
L 222.092176 192.612128 
L 225.59455 192.612128 
L 225.804312 192.061621 
L 226.370045 192.061621 
L 226.846078 191.511113 
L 227.164957 190.410098 
L 227.260308 190.960606 
L 227.606906 189.859591 
L 228.377943 189.859591 
L 231.500772 188.758576 
L 239.219875 188.758576 
L 239.534299 189.309083 
L 241.043463 189.309083 
L 241.356284 188.758576 
L 242.392922 188.758576 
L 242.750706 188.208068 
L 243.007975 188.758576 
L 243.306552 188.208068 
L 243.636919 188.758576 
L 243.908067 187.65756 
L 244.32335 188.208068 
L 244.626363 187.65756 
L 251.212969 187.65756 
L 251.553207 188.758576 
L 251.913651 188.208068 
L 252.239637 188.758576 
L 252.604776 188.208068 
L 252.897606 188.758576 
L 254.119727 188.758576 
L 254.430046 188.208068 
L 254.780565 188.758576 
L 255.099908 187.65756 
L 255.733123 187.65756 
L 256.090382 188.208068 
L 256.357723 187.107053 
L 256.701628 187.107053 
L 256.967325 187.65756 
L 257.805917 186.556545 
L 258.296498 187.107053 
L 258.587964 186.556545 
L 259.208057 186.556545 
L 259.558036 187.107053 
L 259.901695 185.45553 
L 260.232463 186.006038 
L 260.867485 186.006038 
L 261.109549 186.556545 
L 261.419133 186.006038 
L 261.756986 186.006038 
L 262.058495 190.410098 
L 262.17828 189.859591 
L 262.415216 189.859591 
L 262.580272 189.309083 
L 262.724123 189.309083 
L 262.913516 188.758576 
L 263.041865 189.859591 
L 263.675514 188.758576 
L 264.21993 188.758576 
L 264.484685 187.65756 
L 264.747074 188.758576 
L 264.917904 188.208068 
L 265.881057 188.208068 
L 266.167784 188.758576 
L 266.439709 188.758576 
L 266.781411 188.208068 
L 267.09738 188.208068 
L 267.471936 188.758576 
L 267.833388 188.208068 
L 268.11384 188.208068 
L 268.555182 187.107053 
L 270.355544 187.107053 
L 270.651678 187.65756 
L 272.047009 187.65756 
L 272.367466 187.107053 
L 272.619544 186.556545 
L 273.113091 186.556545 
L 273.26707 185.45553 
L 273.337704 186.006038 
L 273.504705 185.45553 
L 273.974443 185.45553 
L 274.204718 184.354515 
L 274.831705 184.354515 
L 275.124373 183.2535 
L 276.092268 183.2535 
L 276.324385 181.601977 
L 276.538573 181.05147 
L 276.66218 181.05147 
L 277.07914 180.500962 
L 277.225894 181.05147 
L 277.297014 180.500962 
L 277.447487 180.500962 
L 277.623636 179.950455 
L 277.755466 179.950455 
L 278.293878 179.399947 
L 279.501795 179.399947 
L 279.813324 179.950455 
L 280.111823 179.399947 
L 280.448308 179.399947 
L 280.609571 178.84944 
L 280.648359 179.399947 
L 280.839761 178.84944 
L 280.989461 178.84944 
L 281.137296 177.748425 
L 281.706554 176.64741 
L 282.121075 177.197917 
L 282.436231 176.64741 
L 283.055798 176.64741 
L 283.392067 175.546394 
L 283.51517 176.096902 
L 283.715158 174.445379 
L 283.998545 174.995887 
L 284.182336 174.445379 
L 284.327658 174.995887 
L 284.488248 173.894872 
L 284.815566 173.894872 
L 284.91251 173.344364 
L 285.296527 173.894872 
L 285.593533 172.793857 
L 286.26362 172.793857 
L 286.504838 171.692842 
L 286.846985 172.793857 
L 287.07943 172.793857 
L 287.16465 172.243349 
L 287.790026 172.243349 
L 288.082555 170.041319 
L 288.503256 172.243349 
L 288.568483 171.692842 
L 289.122423 172.243349 
L 289.174877 171.142334 
L 289.365399 171.142334 
L 289.749314 170.591827 
L 290.06088 171.142334 
L 290.29626 171.142334 
L 290.644576 170.041319 
L 291.023517 170.041319 
L 291.390996 170.591827 
L 291.665639 170.041319 
L 291.832515 170.591827 
L 291.998489 169.490812 
L 293.469178 169.490812 
L 293.921193 168.940304 
L 294.844097 168.940304 
L 295.171558 170.041319 
L 295.788731 170.041319 
L 296.097622 169.490812 
L 298.907679 169.490812 
L 299.286914 170.041319 
L 299.6424 168.940304 
L 303.954922 168.940304 
L 304.900972 168.389796 
L 305.462872 168.389796 
L 305.919213 167.839289 
L 306.279845 167.839289 
L 306.491763 166.738274 
L 306.827744 167.288781 
L 311.29203 167.288781 
L 311.681915 167.839289 
L 311.991024 167.288781 
L 312.296398 167.839289 
L 312.503788 170.041319 
L 314.40017 170.041319 
L 314.712921 168.940304 
L 315.151876 170.041319 
L 316.968835 170.041319 
L 317.241161 168.940304 
L 317.344079 170.041319 
L 317.81054 170.041319 
L 318.026158 168.940304 
L 318.297954 170.041319 
L 318.500877 168.940304 
L 318.644905 168.940304 
L 318.830668 170.041319 
L 318.993133 168.940304 
L 319.097247 170.041319 
L 319.13918 168.940304 
L 320.256547 168.940304 
L 320.622325 167.288781 
L 321.028915 167.288781 
L 321.06245 166.738274 
L 321.390291 166.738274 
L 321.560047 166.187766 
L 321.704781 166.738274 
L 321.88259 166.187766 
L 322.002835 166.738274 
L 322.284854 166.187766 
L 322.404124 166.738274 
L 322.42048 166.187766 
L 322.777959 166.187766 
L 323.001943 165.637259 
L 323.143212 165.637259 
L 323.354765 164.536244 
L 323.589502 163.985736 
L 323.751622 164.536244 
L 325.557335 164.536244 
L 325.81552 163.985736 
L 327.1994 163.985736 
L 327.420154 163.435229 
L 327.71195 163.435229 
L 327.928478 162.884721 
L 328.047821 163.435229 
L 328.620386 163.435229 
L 328.813609 162.334213 
L 329.339531 162.334213 
L 329.390036 161.783706 
L 329.463422 162.334213 
L 329.755237 162.334213 
L 329.780638 161.783706 
L 329.992759 161.233198 
L 330.052044 161.783706 
L 330.292494 159.581676 
L 331.266315 159.581676 
L 331.364215 159.031168 
L 331.577553 159.031168 
L 331.702525 157.930153 
L 331.849194 159.031168 
L 333.141979 159.031168 
L 333.216785 158.480661 
L 333.464753 159.031168 
L 333.583479 158.480661 
L 333.80299 159.031168 
L 334.088124 159.031168 
L 334.26298 157.930153 
L 334.581719 157.930153 
L 334.712463 158.480661 
L 334.824482 157.379646 
L 335.15531 159.031168 
L 335.501993 157.930153 
L 335.753133 159.031168 
L 336.34103 159.031168 
L 336.798562 157.379646 
L 336.940931 157.930153 
L 337.098596 157.379646 
L 337.524024 158.480661 
L 337.660249 157.379646 
L 338.669882 157.379646 
L 338.832623 156.829138 
L 339.116224 156.829138 
L 339.267406 157.379646 
L 339.458212 156.829138 
L 339.578862 157.379646 
L 339.946395 156.27863 
L 340.448182 156.27863 
L 340.802075 155.177615 
L 341.416875 156.27863 
L 341.548263 155.728123 
L 341.7099 156.27863 
L 341.812403 155.728123 
L 342.018052 155.728123 
L 342.10424 156.27863 
L 342.502446 155.177615 
L 342.707437 155.728123 
L 342.808862 155.177615 
L 343.017859 155.728123 
L 343.29543 155.728123 
L 343.474464 155.177615 
L 343.592182 155.728123 
L 343.708193 155.728123 
L 343.966955 156.27863 
L 344.082874 155.177615 
L 344.608315 155.177615 
L 344.643733 154.0766 
L 346.891014 154.0766 
L 347.112714 153.526093 
L 347.258231 154.0766 
L 347.381515 153.526093 
L 347.475159 154.0766 
L 347.587488 152.975585 
L 348.105034 152.975585 
L 348.34917 152.425078 
L 348.398648 152.975585 
L 348.44934 152.425078 
L 348.728126 152.975585 
L 348.800176 152.425078 
L 349.072811 151.87457 
L 349.179596 151.324063 
L 349.383453 151.324063 
L 349.430327 150.773555 
L 349.714163 149.122032 
L 349.841916 149.67254 
L 350.01434 149.67254 
L 350.045403 148.571525 
L 351.256829 148.571525 
L 351.407295 148.021017 
L 351.644621 148.571525 
L 352.34545 146.920002 
L 352.566502 146.920002 
L 352.698048 146.369495 
L 353.004446 146.369495 
L 353.011958 145.818987 
L 353.106408 146.369495 
L 353.196948 145.26848 
L 353.330767 145.26848 
L 353.516007 144.717972 
L 354.786727 144.717972 
L 354.820261 145.26848 
L 354.900258 144.167465 
L 355.235371 144.167465 
L 355.406515 144.717972 
L 355.538255 144.167465 
L 355.736599 144.717972 
L 355.885207 144.167465 
L 356.052171 144.167465 
L 356.19564 144.717972 
L 356.337894 143.066449 
L 358.040833 143.066449 
L 358.552942 141.965434 
L 358.822509 142.515942 
L 365.25546 142.515942 
L 365.36468 141.965434 
L 365.560029 142.515942 
L 365.616331 141.965434 
L 366.200049 141.965434 
L 366.361683 141.414927 
L 367.180933 141.414927 
L 367.290396 140.864419 
L 367.444691 141.414927 
L 368.699658 141.414927 
L 368.87373 140.864419 
L 369.092943 141.414927 
L 369.213982 141.414927 
L 369.406874 140.313912 
L 369.512985 140.864419 
L 369.983309 140.864419 
L 370.188237 140.313912 
L 371.152842 140.313912 
L 371.309974 141.414927 
L 371.628363 140.313912 
L 373.341467 140.313912 
L 373.517109 139.763404 
L 373.674023 139.763404 
L 373.843014 139.212897 
L 373.969326 139.212897 
L 374.125681 138.662389 
L 374.491507 138.662389 
L 374.556314 138.111882 
L 374.861284 138.111882 
L 375.053922 139.212897 
L 375.204344 138.662389 
L 375.434596 138.662389 
L 375.528483 138.111882 
L 375.880732 138.111882 
L 376.195785 137.561374 
L 376.539333 135.909851 
L 376.651813 136.460359 
L 376.756545 135.909851 
L 376.996936 135.359344 
L 377.110927 135.909851 
L 377.416901 135.359344 
L 377.619258 135.909851 
L 377.784527 135.909851 
L 378.108306 134.258329 
L 378.420354 134.808836 
L 378.743519 133.707821 
L 378.806976 134.258329 
L 379.017014 133.707821 
L 379.162454 134.258329 
L 379.282357 133.707821 
L 379.800146 133.707821 
L 379.992935 137.010866 
L 380.507825 135.909851 
L 380.847791 135.909851 
L 380.966704 135.359344 
L 381.151922 135.909851 
L 381.27081 135.909851 
L 381.411486 136.460359 
L 381.573238 135.909851 
L 381.795423 135.909851 
L 381.904746 136.460359 
L 382.043642 135.909851 
L 382.233075 136.460359 
L 382.307532 135.909851 
L 382.70128 135.359344 
L 382.852562 135.359344 
L 382.990615 135.909851 
L 383.252736 135.359344 
L 384.323004 135.359344 
L 384.417267 132.606806 
L 384.693584 134.808836 
L 384.983707 135.359344 
L 385.505564 135.359344 
L 385.905647 134.258329 
L 386.042876 135.909851 
L 386.27385 135.359344 
L 386.568291 135.909851 
L 386.702983 134.258329 
L 386.865602 135.359344 
L 387.01929 135.359344 
L 387.121642 134.808836 
L 387.211737 130.404776 
L 387.524623 132.606806 
L 387.55058 129.854268 
L 388.386906 129.854268 
L 388.782523 128.753253 
L 388.94572 129.303761 
L 389.531602 129.303761 
L 389.691234 129.854268 
L 389.861848 129.303761 
L 390.04899 129.303761 
L 390.158931 129.854268 
L 390.4934 129.303761 
L 390.68989 129.303761 
L 390.818706 128.753253 
L 390.976253 129.303761 
L 391.145509 129.303761 
L 391.304127 129.854268 
L 391.40238 129.303761 
L 392.285948 129.303761 
L 392.507 127.652238 
L 392.774264 128.202746 
L 392.995308 128.202746 
L 393.174262 128.753253 
L 393.255627 128.202746 
L 393.532823 128.753253 
L 393.636451 128.202746 
L 393.880649 128.202746 
L 393.976185 127.652238 
L 394.268015 128.202746 
L 394.869372 128.202746 
L 395.092322 127.652238 
L 395.463719 127.652238 
L 395.557363 127.101731 
L 395.715635 127.652238 
L 396.085622 126.551223 
L 396.19571 126.551223 
L 396.358985 126.000716 
L 396.509494 126.000716 
L 396.79269 125.450208 
L 399.096325 125.450208 
L 399.34174 124.899701 
L 399.57186 124.899701 
L 399.618712 126.000716 
L 399.676736 125.450208 
L 400.052175 125.450208 
L 400.13787 124.899701 
L 400.631872 124.899701 
L 400.867797 124.349193 
L 401.184664 124.349193 
L 401.195204 124.899701 
L 401.300539 124.349193 
L 401.39741 124.899701 
L 402.777184 124.899701 
L 403.035898 125.450208 
L 403.757593 124.899701 
L 405.254206 124.899701 
L 405.318965 124.349193 
L 406.889428 124.349193 
L 407.030891 123.798685 
L 408.483249 121.046148 
L 408.620898 121.046148 
L 408.764507 120.49564 
L 408.828461 121.046148 
L 409.137738 120.49564 
L 409.425077 119.945133 
L 409.768717 119.945133 
L 409.884117 119.394625 
L 410.318397 119.394625 
L 410.9474 119.945133 
L 410.979088 118.29361 
L 411.485318 118.29361 
L 411.642218 118.844118 
L 411.75618 118.29361 
L 412.604929 118.29361 
L 412.919206 118.844118 
L 414.436452 118.844118 
L 415.206614 118.29361 
L 416.762387 118.29361 
L 417.528476 117.743102 
L 417.630935 117.192595 
L 419.934926 117.192595 
L 420.151376 117.743102 
L 421.321017 117.743102 
L 422.175059 118.29361 
L 422.797411 118.29361 
L 423.106259 117.743102 
L 423.380457 116.642087 
L 423.543709 116.642087 
L 423.550081 117.192595 
L 425.381277 117.192595 
L 425.57781 116.642087 
L 430.203914 116.642087 
L 430.787213 116.09158 
L 431.012007 116.09158 
L 431.099754 114.990565 
L 431.38565 114.990565 
L 431.505715 115.541072 
L 431.691834 114.990565 
L 432.736841 114.990565 
L 433.20265 114.440057 
L 433.52622 113.339042 
L 436.360081 113.339042 
L 436.858866 113.88955 
L 437.003181 113.339042 
L 437.149169 113.88955 
L 437.313283 113.339042 
L 438.090518 113.339042 
L 438.448862 113.88955 
L 438.630703 113.339042 
L 439.132108 114.440057 
L 439.327527 113.339042 
L 440.540899 113.339042 
L 440.555253 112.788535 
L 442.478185 112.788535 
L 443.413136 112.238027 
L 443.693713 112.788535 
L 443.898046 112.238027 
L 444.030283 112.788535 
L 444.215008 112.788535 
L 444.341378 112.238027 
L 444.786797 113.339042 
L 445.080878 112.788535 
L 445.476233 113.339042 
L 445.769075 113.339042 
L 445.90207 112.788535 
L 446.709441 112.788535 
L 447.668735 113.339042 
L 447.813127 112.788535 
L 448.767675 112.788535 
L 449.077589 113.339042 
L 453.935913 112.788535 
L 454.299687 113.339042 
L 454.614074 112.788535 
L 454.895788 113.339042 
L 454.927307 112.788535 
L 455.172564 112.238027 
L 455.314602 112.238027 
L 455.444529 111.68752 
L 457.703332 111.68752 
L 457.751464 111.137012 
L 458.032235 111.137012 
L 458.781936 111.68752 
L 458.805785 111.137012 
L 459.093826 111.68752 
L 459.163835 110.586504 
L 459.349233 110.586504 
L 459.725363 110.035997 
L 460.355687 110.035997 
L 460.738424 110.586504 
L 461.16876 109.485489 
L 461.186411 108.934982 
L 461.604452 108.384474 
L 461.911916 108.934982 
L 462.34425 108.934982 
L 462.434124 108.384474 
L 463.418484 108.384474 
L 463.554091 108.934982 
L 463.720106 107.833967 
L 463.856938 107.833967 
L 464.116635 108.384474 
L 464.352817 107.833967 
L 464.879509 107.833967 
L 465.111468 106.182444 
L 466.765793 106.182444 
L 466.963574 105.631937 
L 467.08468 105.631937 
L 467.283958 106.182444 
L 467.335353 105.631937 
L 467.863221 105.631937 
L 467.969392 105.081429 
L 468.257753 104.530921 
L 468.340115 103.429906 
L 468.790017 103.429906 
L 468.959056 101.778384 
L 469.311029 101.778384 
L 469.516881 102.328891 
L 469.628091 101.778384 
L 469.777795 101.778384 
L 469.789228 100.126861 
L 470.589875 100.126861 
L 470.728664 99.576354 
L 471.073813 99.576354 
L 471.431469 100.126861 
L 471.468256 99.025846 
L 471.784931 99.025846 
L 471.843305 98.475338 
L 472.063956 97.924831 
L 472.646846 97.924831 
L 472.732519 96.823816 
L 472.982666 96.823816 
L 473.12932 96.273308 
L 473.270044 96.273308 
L 473.774693 95.722801 
L 473.972198 96.273308 
L 474.089817 102.328891 
L 474.217379 102.879399 
L 474.303772 100.677369 
L 474.926073 100.677369 
L 475.181852 101.227876 
L 475.368214 100.126861 
L 476.288561 100.126861 
L 476.474062 100.677369 
L 476.619304 100.126861 
L 477.599547 100.126861 
L 477.720245 99.576354 
L 478.167146 100.677369 
L 478.530544 100.126861 
L 478.738787 100.126861 
L 478.818769 99.576354 
L 479.002619 100.677369 
L 479.181333 99.576354 
L 479.922852 99.576354 
L 480.037785 100.126861 
L 480.301921 100.126861 
L 480.343472 99.576354 
L 480.642549 99.025846 
L 480.654221 99.576354 
L 480.895186 99.025846 
L 481.21667 99.025846 
L 481.50616 98.475338 
L 483.008408 98.475338 
L 483.12105 97.924831 
L 483.418968 98.475338 
L 483.428915 97.924831 
L 483.856701 97.374323 
L 484.119551 97.374323 
L 484.422026 96.823816 
L 484.573055 96.273308 
L 484.688525 96.273308 
L 485.051879 97.374323 
L 485.123658 96.273308 
L 485.367992 96.823816 
L 485.573649 96.273308 
L 486.491483 96.273308 
L 486.594321 95.722801 
L 486.72249 96.273308 
L 487.166643 95.722801 
L 487.38118 96.273308 
L 487.598605 95.722801 
L 487.729238 96.273308 
L 488.033473 95.172293 
L 488.243676 95.722801 
L 488.962649 95.722801 
L 489.248685 95.172293 
L 489.66634 95.172293 
L 489.998635 96.273308 
L 490.087203 95.722801 
L 490.442255 95.722801 
L 490.532361 94.621786 
L 490.980159 95.722801 
L 491.13654 95.172293 
L 491.497341 95.722801 
L 491.760709 95.722801 
L 491.895636 95.172293 
L 492.218146 95.172293 
L 492.640503 94.621786 
L 492.695219 95.722801 
L 492.846862 94.621786 
L 492.985887 95.172293 
L 493.06933 94.621786 
L 493.400356 95.172293 
L 493.79754 94.621786 
L 493.997609 94.621786 
L 494.272244 95.172293 
L 494.662619 95.172293 
L 495.06287 94.071278 
L 495.272529 94.621786 
L 495.696483 94.621786 
L 495.894738 95.172293 
L 495.923925 95.722801 
L 496.170904 94.621786 
L 496.301883 95.172293 
L 496.455947 94.621786 
L 496.684871 95.172293 
L 496.943972 95.172293 
L 497.110421 95.722801 
L 497.426089 95.722801 
L 497.754738 94.621786 
L 497.977744 95.172293 
L 498.249319 94.071278 
L 498.390749 94.071278 
L 498.479523 94.621786 
L 498.755726 94.621786 
L 498.778909 94.071278 
L 499.694533 94.071278 
L 499.844535 93.520771 
L 499.973016 93.520771 
L 500.171077 92.970263 
L 500.341907 93.520771 
L 500.472191 92.970263 
L 500.666426 92.970263 
L 500.775767 92.419756 
L 500.916892 92.970263 
L 500.962361 92.419756 
L 501.118591 91.31874 
L 501.309463 91.869248 
L 501.369532 92.419756 
L 501.57083 91.869248 
L 501.735333 92.419756 
L 502.050872 91.869248 
L 502.258537 91.869248 
L 502.349011 91.31874 
L 502.57348 91.869248 
L 503.162996 90.217725 
L 503.321577 90.217725 
L 503.485605 91.31874 
L 503.563152 90.768233 
L 503.79506 90.768233 
L 503.900572 91.31874 
L 504.0902 91.31874 
L 504.262845 90.768233 
L 504.484794 90.768233 
L 504.857423 89.11671 
L 505.05567 89.667218 
L 507.661674 89.667218 
L 507.782946 89.11671 
L 507.936733 89.11671 
L 508.060406 89.667218 
L 508.308541 89.11671 
L 508.926736 89.11671 
L 509.030151 88.015695 
L 509.684268 89.11671 
L 510.14222 89.11671 
L 510.768862 88.015695 
L 511.876641 88.566203 
L 512.157968 88.015695 
L 512.467897 88.566203 
L 512.689247 87.465188 
L 512.778025 88.566203 
L 513.069814 87.465188 
L 513.38773 88.566203 
L 513.492969 87.465188 
L 513.696835 87.465188 
L 513.808902 88.015695 
L 514.012031 87.465188 
L 514.133935 87.465188 
L 514.247485 88.015695 
L 514.385451 86.364173 
L 514.747278 87.465188 
L 515.085699 87.465188 
L 515.292485 86.91468 
L 515.682738 86.91468 
L 516.000109 87.465188 
L 516.185647 87.465188 
L 516.325907 86.364173 
L 516.500865 87.465188 
L 516.598545 86.91468 
L 516.8344 86.364173 
L 516.979017 86.364173 
L 517.231856 87.465188 
L 517.47363 85.813665 
L 517.777515 85.813665 
L 517.80058 84.71265 
L 517.821803 85.263157 
L 517.980733 85.813665 
L 518.1478 84.71265 
L 518.217485 85.813665 
L 518.469328 85.813665 
L 518.503643 85.263157 
L 518.787383 84.71265 
L 518.957198 84.71265 
L 519.036794 85.813665 
L 519.417574 84.71265 
L 519.47924 85.813665 
L 519.68664 84.71265 
L 519.846185 86.364173 
L 520.331182 85.263157 
L 520.696545 86.91468 
L 520.724797 86.364173 
L 520.956223 86.91468 
L 521.102532 86.91468 
L 521.254421 85.813665 
L 521.435809 86.91468 
L 521.784541 85.813665 
L 521.916848 86.91468 
L 522.060104 86.364173 
L 522.352029 86.364173 
L 522.544814 86.91468 
L 522.913856 86.91468 
L 522.92512 86.364173 
L 523.505947 87.465188 
L 523.813989 85.813665 
L 523.977477 85.813665 
L 524.168021 86.364173 
L 524.221881 85.263157 
L 524.492378 86.364173 
L 524.658938 85.263157 
L 524.826847 86.364173 
L 524.896238 85.813665 
L 525.240603 85.813665 
L 525.446974 85.263157 
L 525.541361 84.162142 
L 525.733514 85.263157 
L 526.049649 84.71265 
L 526.189494 84.162142 
L 526.362285 84.71265 
L 526.509815 82.51062 
L 526.741384 82.51062 
L 527.047623 81.960112 
L 527.084568 83.061127 
L 527.38597 81.960112 
L 527.815 83.061127 
L 527.930926 81.409605 
L 528.278805 80.859097 
L 528.657701 81.960112 
L 528.897846 82.51062 
L 529.565387 81.960112 
L 529.645343 81.409605 
L 530.583543 81.409605 
L 530.867754 80.859097 
L 531.155239 79.207574 
L 531.893334 79.758082 
L 532.460778 79.758082 
L 532.774175 79.207574 
L 532.854959 79.758082 
L 533.093066 78.657067 
L 533.146112 79.758082 
L 533.406714 79.207574 
L 533.879446 79.207574 
L 534.122037 78.106559 
L 534.3447 79.207574 
L 534.648813 78.106559 
L 534.767373 78.657067 
L 534.929795 78.106559 
L 535.353847 78.657067 
L 535.598939 78.106559 
L 536.315819 78.106559 
L 536.486929 78.657067 
L 536.902131 77.556052 
L 537.070898 78.657067 
L 537.216467 78.657067 
L 537.273071 78.106559 
L 537.479441 78.106559 
L 537.702016 77.556052 
L 537.854317 78.657067 
L 538.090786 77.556052 
L 538.194635 78.657067 
L 538.484604 77.556052 
L 538.662906 77.556052 
L 538.777968 78.106559 
L 538.966522 78.106559 
L 539.019804 78.657067 
L 539.030745 78.106559 
L 539.352637 78.106559 
L 539.461548 78.657067 
L 539.756824 77.556052 
L 540.028738 78.657067 
L 540.494731 78.106559 
L 541.490554 78.106559 
L 541.729367 78.657067 
L 541.983258 78.106559 
L 542.146687 78.657067 
L 542.247641 78.106559 
L 542.954886 78.106559 
L 543.170814 78.657067 
L 543.666597 77.556052 
L 543.787144 78.106559 
L 544.183702 77.556052 
L 544.616797 78.106559 
L 544.846821 77.556052 
L 545.387999 78.657067 
L 545.529996 79.207574 
L 545.765263 79.207574 
L 546.218392 77.556052 
L 546.341646 77.556052 
L 546.498119 78.657067 
L 546.865626 78.657067 
L 547.071758 78.106559 
L 547.228076 78.106559 
L 547.389699 78.657067 
L 547.694856 78.657067 
L 548.111533 78.106559 
L 548.342834 78.106559 
L 548.437523 77.556052 
L 548.659837 78.657067 
L 548.776966 77.556052 
L 548.922591 78.106559 
L 549.014561 77.556052 
L 549.598445 77.556052 
L 549.619579 76.455037 
L 549.713868 77.005544 
L 549.890271 77.005544 
L 549.995684 77.556052 
L 550.161493 77.005544 
L 550.344316 77.556052 
L 550.810534 77.005544 
L 551.206522 77.005544 
L 551.356925 75.904529 
L 551.41624 76.455037 
L 551.593457 75.904529 
L 551.831122 76.455037 
L 551.942383 77.005544 
L 552.108233 76.455037 
L 552.271787 77.005544 
L 552.468512 75.904529 
L 552.55186 77.005544 
L 552.72861 85.263157 
L 553.211198 85.263157 
L 553.344211 85.813665 
L 553.470637 83.611635 
L 554.175064 84.162142 
L 554.698455 84.162142 
L 554.800241 83.611635 
L 554.931136 83.611635 
L 555.341353 84.71265 
L 555.65165 84.71265 
L 555.664878 84.162142 
L 556.05334 83.611635 
L 556.328464 84.162142 
L 556.604844 85.263157 
L 556.640174 84.162142 
L 556.851323 85.263157 
L 556.933449 84.71265 
L 557.564229 84.71265 
L 557.59832 84.162142 
L 557.856611 84.162142 
L 558.032559 84.71265 
L 558.202116 84.71265 
L 558.256336 85.263157 
L 558.620916 84.162142 
L 558.945482 85.263157 
L 559.114429 85.263157 
L 559.633624 84.71265 
L 559.734537 85.263157 
L 559.817606 84.162142 
L 560.153914 83.061127 
L 560.380164 84.162142 
L 560.71545 83.061127 
L 561.048187 84.162142 
L 561.169293 83.061127 
L 561.356233 84.162142 
L 561.593927 84.162142 
L 561.644192 83.061127 
L 561.793444 83.611635 
L 561.967541 83.061127 
L 562.249409 83.061127 
L 562.283408 81.960112 
L 562.500659 82.51062 
L 562.624664 82.51062 
L 562.715531 83.061127 
L 562.970916 82.51062 
L 563.235568 81.409605 
L 563.24933 79.758082 
L 563.401727 80.859097 
L 563.406296 79.207574 
L 563.588526 79.207574 
L 563.715735 78.657067 
L 563.715735 78.657067 
" clip-path="url(#p7a3f0e772b)" style="fill: none; stroke-dasharray: 6,1.5; stroke-dashoffset: 0; stroke: #008000; stroke-width: 1.5"/>
   </g>
   <g id="line2d_20">
    <path d="M 38.539265 362.168452 
L 39.838649 363.269467 
L 41.133839 363.269467 
L 42.386651 362.718959 
L 44.200976 362.718959 
L 47.990217 362.168452 
L 48.097204 362.718959 
L 51.378529 362.718959 
L 51.687774 363.819974 
L 52.371953 363.819974 
L 52.656433 360.516929 
L 53.035562 363.819974 
L 54.881804 363.819974 
L 55.220357 360.516929 
L 57.766608 360.516929 
L 59.108804 361.067436 
L 59.291587 361.617944 
L 60.311876 361.617944 
L 60.598251 359.966421 
L 63.728459 359.966421 
L 64.099734 360.516929 
L 73.643216 360.516929 
L 73.943816 359.966421 
L 79.693933 359.966421 
L 79.980392 362.168452 
L 127.661837 362.168452 
L 127.983346 363.269467 
L 128.372084 366.572512 
L 128.649773 366.572512 
L 128.963649 367.123019 
L 130.848638 367.123019 
L 133.448105 368.774542 
L 133.713529 368.774542 
L 134.158576 369.32505 
L 147.298076 369.32505 
L 148.004137 370.426065 
L 177.815289 370.426065 
L 178.150623 370.976572 
L 178.498759 370.426065 
L 180.52565 370.426065 
L 180.823627 370.976572 
L 186.245529 370.976572 
L 187.435891 372.077587 
L 187.634415 370.976572 
L 188.016553 370.976572 
L 188.331536 372.077587 
L 195.669649 372.077587 
L 196.011501 371.52708 
L 196.210521 372.077587 
L 213.478782 372.077587 
L 213.780383 373.178602 
L 252.239637 373.178602 
L 252.604776 373.72911 
L 340.802075 373.72911 
L 341.154783 373.178602 
L 351.644621 373.178602 
L 352.055714 373.72911 
L 352.165585 374.830125 
L 379.800146 374.830125 
L 379.992935 374.279617 
L 382.70128 374.279617 
L 382.852562 374.830125 
L 492.083922 374.830125 
L 492.218146 374.279617 
L 500.472191 374.279617 
L 500.775767 374.830125 
L 532.13109 374.830125 
L 532.460778 374.279617 
L 563.715735 374.279617 
L 563.715735 374.279617 
" clip-path="url(#p7a3f0e772b)" style="fill: none; stroke-dasharray: 9,3; stroke-dashoffset: 0; stroke: #ffa500; stroke-width: 1.5"/>
   </g>
   <g id="line2d_21">
    <path d="M 38.539265 324.183431 
L 47.990217 324.183431 
L 48.097204 324.733939 
L 51.378529 324.733939 
L 51.687774 325.284446 
L 52.371953 325.284446 
L 52.656433 326.385461 
L 53.035562 325.284446 
L 54.881804 325.284446 
L 55.449222 326.935969 
L 56.784565 326.935969 
L 57.085411 327.486476 
L 57.267322 326.935969 
L 57.419487 327.486476 
L 71.424813 327.486476 
L 71.722948 328.587491 
L 71.840268 327.486476 
L 72.362987 328.587491 
L 89.094392 328.587491 
L 89.803425 329.137999 
L 89.964044 328.587491 
L 91.101352 328.587491 
L 91.410192 329.137999 
L 91.750934 328.587491 
L 92.561645 328.587491 
L 93.009444 329.137999 
L 93.341875 328.587491 
L 119.115722 328.587491 
L 119.393651 329.137999 
L 119.74879 329.137999 
L 120.063711 328.587491 
L 120.387715 328.587491 
L 120.61097 329.137999 
L 120.852936 328.587491 
L 121.255045 329.137999 
L 127.983346 329.137999 
L 128.372084 328.587491 
L 128.649773 328.587491 
L 128.963649 329.688506 
L 130.493609 329.688506 
L 130.848638 332.441044 
L 133.448105 330.239014 
L 133.713529 330.789522 
L 135.572091 330.789522 
L 135.934684 333.542059 
L 136.254428 334.092567 
L 150.658294 334.092567 
L 151.161836 333.542059 
L 151.560307 334.092567 
L 152.449073 333.542059 
L 154.613694 333.542059 
L 155.894283 334.092567 
L 161.240769 334.092567 
L 161.64503 334.643074 
L 195.409728 334.643074 
L 195.669649 335.193582 
L 196.011501 334.643074 
L 202.026304 334.643074 
L 202.407982 341.799672 
L 203.296387 341.799672 
L 203.658877 346.203733 
L 203.978462 347.855255 
L 223.333393 347.855255 
L 226.055636 348.405763 
L 254.780565 348.405763 
L 255.099908 350.607793 
L 261.756986 350.607793 
L 262.058495 347.304748 
L 277.447487 347.304748 
L 277.623636 347.855255 
L 306.279845 347.855255 
L 306.491763 348.405763 
L 306.827744 347.855255 
L 314.569371 347.855255 
L 314.712921 348.405763 
L 315.005814 347.855255 
L 316.968835 347.855255 
L 317.241161 348.405763 
L 317.344079 347.855255 
L 320.256547 347.855255 
L 320.459926 348.405763 
L 329.576954 348.405763 
L 329.755237 347.855255 
L 341.154783 347.855255 
L 341.416875 347.304748 
L 341.548263 347.855255 
L 341.7099 347.304748 
L 341.812403 347.855255 
L 342.018052 347.855255 
L 342.10424 347.304748 
L 342.33486 347.855255 
L 343.708193 347.855255 
L 343.966955 347.304748 
L 344.082874 347.855255 
L 352.055714 347.855255 
L 352.165585 347.304748 
L 379.800146 347.304748 
L 379.992935 347.855255 
L 384.323004 347.855255 
L 384.417267 350.607793 
L 384.693584 347.855255 
L 387.198026 347.855255 
L 387.211737 350.607793 
L 387.524623 347.855255 
L 387.55058 350.607793 
L 412.604929 350.607793 
L 412.919206 350.057286 
L 413.189192 350.607793 
L 443.693713 350.607793 
L 443.898046 351.158301 
L 444.030283 350.607793 
L 444.341378 350.607793 
L 444.786797 351.158301 
L 464.879509 351.158301 
L 465.111468 351.708808 
L 467.969392 351.708808 
L 468.257753 352.259316 
L 473.972198 352.259316 
L 474.089817 351.708808 
L 480.654221 351.708808 
L 480.895186 352.259316 
L 492.083922 352.259316 
L 492.218146 356.112869 
L 500.472191 356.112869 
L 500.775767 355.562361 
L 508.308541 355.562361 
L 509.030151 357.764391 
L 516.325907 357.764391 
L 516.598545 357.213884 
L 529.895081 357.213884 
L 530.355457 356.663376 
L 532.13109 356.663376 
L 532.460778 358.865406 
L 532.854959 359.415914 
L 534.929795 359.415914 
L 535.353847 359.966421 
L 552.55186 359.966421 
L 552.72861 356.663376 
L 563.715735 356.663376 
L 563.715735 356.663376 
" clip-path="url(#p7a3f0e772b)" style="fill: none; stroke-dasharray: 12,4.5; stroke-dashoffset: 0; stroke: #ee82ee; stroke-width: 1.5"/>
   </g>
   <g id="patch_3">
    <path d="M 33.2875 374.830125 
L 33.2875 22.318125 
" style="fill: none; stroke: #000000; stroke-width: 0.8; stroke-linejoin: miter; stroke-linecap: square"/>
   </g>
   <g id="patch_4">
    <path d="M 568.9675 374.830125 
L 568.9675 22.318125 
" style="fill: none; stroke: #000000; stroke-width: 0.8; stroke-linejoin: miter; stroke-linecap: square"/>
   </g>
   <g id="patch_5">
    <path d="M 33.2875 374.830125 
L 568.9675 374.830125 
" style="fill: none; stroke: #000000; stroke-width: 0.8; stroke-linejoin: miter; stroke-linecap: square"/>
   </g>
   <g id="patch_6">
    <path d="M 33.2875 22.318125 
L 568.9675 22.318125 
" style="fill: none; stroke: #000000; stroke-width: 0.8; stroke-linejoin: miter; stroke-linecap: square"/>
   </g>
   <g id="text_17">
    <!-- Rust/Coreutils running GNU's testsuite -->
    <g transform="translate(186.090625 16.318125) scale(0.12 -0.12)">
     <defs>
      <path id="DejaVuSans-52" d="M 2841 2188 
Q 3044 2119 3236 1894 
Q 3428 1669 3622 1275 
L 4263 0 
L 3584 0 
L 2988 1197 
Q 2756 1666 2539 1819 
Q 2322 1972 1947 1972 
L 1259 1972 
L 1259 0 
L 628 0 
L 628 4666 
L 2053 4666 
Q 2853 4666 3247 4331 
Q 3641 3997 3641 3322 
Q 3641 2881 3436 2590 
Q 3231 2300 2841 2188 
z
M 1259 4147 
L 1259 2491 
L 2053 2491 
Q 2509 2491 2742 2702 
Q 2975 2913 2975 3322 
Q 2975 3731 2742 3939 
Q 2509 4147 2053 4147 
L 1259 4147 
z
" transform="scale(0.015625)"/>
      <path id="DejaVuSans-75" d="M 544 1381 
L 544 3500 
L 1119 3500 
L 1119 1403 
Q 1119 906 1312 657 
Q 1506 409 1894 409 
Q 2359 409 2629 706 
Q 2900 1003 2900 1516 
L 2900 3500 
L 3475 3500 
L 3475 0 
L 2900 0 
L 2900 538 
Q 2691 219 2414 64 
Q 2138 -91 1772 -91 
Q 1169 -91 856 284 
Q 544 659 544 1381 
z
M 1991 3584 
L 1991 3584 
z
" transform="scale(0.015625)"/>
      <path id="DejaVuSans-73" d="M 2834 3397 
L 2834 2853 
Q 2591 2978 2328 3040 
Q 2066 3103 1784 3103 
Q 1356 3103 1142 2972 
Q 928 2841 928 2578 
Q 928 2378 1081 2264 
Q 1234 2150 1697 2047 
L 1894 2003 
Q 2506 1872 2764 1633 
Q 3022 1394 3022 966 
Q 3022 478 2636 193 
Q 2250 -91 1575 -91 
Q 1294 -91 989 -36 
Q 684 19 347 128 
L 347 722 
Q 666 556 975 473 
Q 1284 391 1588 391 
Q 1994 391 2212 530 
Q 2431 669 2431 922 
Q 2431 1156 2273 1281 
Q 2116 1406 1581 1522 
L 1381 1569 
Q 847 1681 609 1914 
Q 372 2147 372 2553 
Q 372 3047 722 3315 
Q 1072 3584 1716 3584 
Q 2034 3584 2315 3537 
Q 2597 3491 2834 3397 
z
" transform="scale(0.015625)"/>
      <path id="DejaVuSans-74" d="M 1172 4494 
L 1172 3500 
L 2356 3500 
L 2356 3053 
L 1172 3053 
L 1172 1153 
Q 1172 725 1289 603 
Q 1406 481 1766 481 
L 2356 481 
L 2356 0 
L 1766 0 
Q 1100 0 847 248 
Q 594 497 594 1153 
L 594 3053 
L 172 3053 
L 172 3500 
L 594 3500 
L 594 4494 
L 1172 4494 
z
" transform="scale(0.015625)"/>
      <path id="DejaVuSans-2f" d="M 1625 4666 
L 2156 4666 
L 531 -594 
L 0 -594 
L 1625 4666 
z
" transform="scale(0.015625)"/>
      <path id="DejaVuSans-43" d="M 4122 4306 
L 4122 3641 
Q 3803 3938 3442 4084 
Q 3081 4231 2675 4231 
Q 1875 4231 1450 3742 
Q 1025 3253 1025 2328 
Q 1025 1406 1450 917 
Q 1875 428 2675 428 
Q 3081 428 3442 575 
Q 3803 722 4122 1019 
L 4122 359 
Q 3791 134 3420 21 
Q 3050 -91 2638 -91 
Q 1578 -91 968 557 
Q 359 1206 359 2328 
Q 359 3453 968 4101 
Q 1578 4750 2638 4750 
Q 3056 4750 3426 4639 
Q 3797 4528 4122 4306 
z
" transform="scale(0.015625)"/>
      <path id="DejaVuSans-6f" d="M 1959 3097 
Q 1497 3097 1228 2736 
Q 959 2375 959 1747 
Q 959 1119 1226 758 
Q 1494 397 1959 397 
Q 2419 397 2687 759 
Q 2956 1122 2956 1747 
Q 2956 2369 2687 2733 
Q 2419 3097 1959 3097 
z
M 1959 3584 
Q 2709 3584 3137 3096 
Q 3566 2609 3566 1747 
Q 3566 888 3137 398 
Q 2709 -91 1959 -91 
Q 1206 -91 779 398 
Q 353 888 353 1747 
Q 353 2609 779 3096 
Q 1206 3584 1959 3584 
z
" transform="scale(0.015625)"/>
      <path id="DejaVuSans-72" d="M 2631 2963 
Q 2534 3019 2420 3045 
Q 2306 3072 2169 3072 
Q 1681 3072 1420 2755 
Q 1159 2438 1159 1844 
L 1159 0 
L 581 0 
L 581 3500 
L 1159 3500 
L 1159 2956 
Q 1341 3275 1631 3429 
Q 1922 3584 2338 3584 
Q 2397 3584 2469 3576 
Q 2541 3569 2628 3553 
L 2631 2963 
z
" transform="scale(0.015625)"/>
      <path id="DejaVuSans-65" d="M 3597 1894 
L 3597 1613 
L 953 1613 
Q 991 1019 1311 708 
Q 1631 397 2203 397 
Q 2534 397 2845 478 
Q 3156 559 3463 722 
L 3463 178 
Q 3153 47 2828 -22 
Q 2503 -91 2169 -91 
Q 1331 -91 842 396 
Q 353 884 353 1716 
Q 353 2575 817 3079 
Q 1281 3584 2069 3584 
Q 2775 3584 3186 3129 
Q 3597 2675 3597 1894 
z
M 3022 2063 
Q 3016 2534 2758 2815 
Q 2500 3097 2075 3097 
Q 1594 3097 1305 2825 
Q 1016 2553 972 2059 
L 3022 2063 
z
" transform="scale(0.015625)"/>
      <path id="DejaVuSans-69" d="M 603 3500 
L 1178 3500 
L 1178 0 
L 603 0 
L 603 3500 
z
M 603 4863 
L 1178 4863 
L 1178 4134 
L 603 4134 
L 603 4863 
z
" transform="scale(0.015625)"/>
      <path id="DejaVuSans-6c" d="M 603 4863 
L 1178 4863 
L 1178 0 
L 603 0 
L 603 4863 
z
" transform="scale(0.015625)"/>
      <path id="DejaVuSans-20" transform="scale(0.015625)"/>
      <path id="DejaVuSans-6e" d="M 3513 2113 
L 3513 0 
L 2938 0 
L 2938 2094 
Q 2938 2591 2744 2837 
Q 2550 3084 2163 3084 
Q 1697 3084 1428 2787 
Q 1159 2491 1159 1978 
L 1159 0 
L 581 0 
L 581 3500 
L 1159 3500 
L 1159 2956 
Q 1366 3272 1645 3428 
Q 1925 3584 2291 3584 
Q 2894 3584 3203 3211 
Q 3513 2838 3513 2113 
z
" transform="scale(0.015625)"/>
      <path id="DejaVuSans-67" d="M 2906 1791 
Q 2906 2416 2648 2759 
Q 2391 3103 1925 3103 
Q 1463 3103 1205 2759 
Q 947 2416 947 1791 
Q 947 1169 1205 825 
Q 1463 481 1925 481 
Q 2391 481 2648 825 
Q 2906 1169 2906 1791 
z
M 3481 434 
Q 3481 -459 3084 -895 
Q 2688 -1331 1869 -1331 
Q 1566 -1331 1297 -1286 
Q 1028 -1241 775 -1147 
L 775 -588 
Q 1028 -725 1275 -790 
Q 1522 -856 1778 -856 
Q 2344 -856 2625 -561 
Q 2906 -266 2906 331 
L 2906 616 
Q 2728 306 2450 153 
Q 2172 0 1784 0 
Q 1141 0 747 490 
Q 353 981 353 1791 
Q 353 2603 747 3093 
Q 1141 3584 1784 3584 
Q 2172 3584 2450 3431 
Q 2728 3278 2906 2969 
L 2906 3500 
L 3481 3500 
L 3481 434 
z
" transform="scale(0.015625)"/>
      <path id="DejaVuSans-47" d="M 3809 666 
L 3809 1919 
L 2778 1919 
L 2778 2438 
L 4434 2438 
L 4434 434 
Q 4069 175 3628 42 
Q 3188 -91 2688 -91 
Q 1594 -91 976 548 
Q 359 1188 359 2328 
Q 359 3472 976 4111 
Q 1594 4750 2688 4750 
Q 3144 4750 3555 4637 
Q 3966 4525 4313 4306 
L 4313 3634 
Q 3963 3931 3569 4081 
Q 3175 4231 2741 4231 
Q 1884 4231 1454 3753 
Q 1025 3275 1025 2328 
Q 1025 1384 1454 906 
Q 1884 428 2741 428 
Q 3075 428 3337 486 
Q 3600 544 3809 666 
z
" transform="scale(0.015625)"/>
      <path id="DejaVuSans-4e" d="M 628 4666 
L 1478 4666 
L 3547 763 
L 3547 4666 
L 4159 4666 
L 4159 0 
L 3309 0 
L 1241 3903 
L 1241 0 
L 628 0 
L 628 4666 
z
" transform="scale(0.015625)"/>
      <path id="DejaVuSans-55" d="M 556 4666 
L 1191 4666 
L 1191 1831 
Q 1191 1081 1462 751 
Q 1734 422 2344 422 
Q 2950 422 3222 751 
Q 3494 1081 3494 1831 
L 3494 4666 
L 4128 4666 
L 4128 1753 
Q 4128 841 3676 375 
Q 3225 -91 2344 -91 
Q 1459 -91 1007 375 
Q 556 841 556 1753 
L 556 4666 
z
" transform="scale(0.015625)"/>
      <path id="DejaVuSans-27" d="M 1147 4666 
L 1147 2931 
L 616 2931 
L 616 4666 
L 1147 4666 
z
" transform="scale(0.015625)"/>
     </defs>
     <use xlink:href="#DejaVuSans-52"/>
     <use xlink:href="#DejaVuSans-75" x="64.982422"/>
     <use xlink:href="#DejaVuSans-73" x="128.361328"/>
     <use xlink:href="#DejaVuSans-74" x="180.460938"/>
     <use xlink:href="#DejaVuSans-2f" x="219.669922"/>
     <use xlink:href="#DejaVuSans-43" x="253.361328"/>
     <use xlink:href="#DejaVuSans-6f" x="323.185547"/>
     <use xlink:href="#DejaVuSans-72" x="384.367188"/>
     <use xlink:href="#DejaVuSans-65" x="423.230469"/>
     <use xlink:href="#DejaVuSans-75" x="484.753906"/>
     <use xlink:href="#DejaVuSans-74" x="548.132812"/>
     <use xlink:href="#DejaVuSans-69" x="587.341797"/>
     <use xlink:href="#DejaVuSans-6c" x="615.125"/>
     <use xlink:href="#DejaVuSans-73" x="642.908203"/>
     <use xlink:href="#DejaVuSans-20" x="695.007812"/>
     <use xlink:href="#DejaVuSans-72" x="726.794922"/>
     <use xlink:href="#DejaVuSans-75" x="767.908203"/>
     <use xlink:href="#DejaVuSans-6e" x="831.287109"/>
     <use xlink:href="#DejaVuSans-6e" x="894.666016"/>
     <use xlink:href="#DejaVuSans-69" x="958.044922"/>
     <use xlink:href="#DejaVuSans-6e" x="985.828125"/>
     <use xlink:href="#DejaVuSans-67" x="1049.207031"/>
     <use xlink:href="#DejaVuSans-20" x="1112.683594"/>
     <use xlink:href="#DejaVuSans-47" x="1144.470703"/>
     <use xlink:href="#DejaVuSans-4e" x="1221.960938"/>
     <use xlink:href="#DejaVuSans-55" x="1296.765625"/>
     <use xlink:href="#DejaVuSans-27" x="1369.958984"/>
     <use xlink:href="#DejaVuSans-73" x="1397.449219"/>
     <use xlink:href="#DejaVuSans-20" x="1449.548828"/>
     <use xlink:href="#DejaVuSans-74" x="1481.335938"/>
     <use xlink:href="#DejaVuSans-65" x="1520.544922"/>
     <use xlink:href="#DejaVuSans-73" x="1582.068359"/>
     <use xlink:href="#DejaVuSans-74" x="1634.167969"/>
     <use xlink:href="#DejaVuSans-73" x="1673.376953"/>
     <use xlink:href="#DejaVuSans-75" x="1725.476562"/>
     <use xlink:href="#DejaVuSans-69" x="1788.855469"/>
     <use xlink:href="#DejaVuSans-74" x="1816.638672"/>
     <use xlink:href="#DejaVuSans-65" x="1855.847656"/>
    </g>
   </g>
   <g id="legend_1">
    <g id="patch_7">
     <path d="M 505.762812 236.769437 
L 561.9675 236.769437 
Q 563.9675 236.769437 563.9675 234.769437 
L 563.9675 162.378812 
Q 563.9675 160.378812 561.9675 160.378812 
L 505.762812 160.378812 
Q 503.762812 160.378812 503.762812 162.378812 
L 503.762812 234.769437 
Q 503.762812 236.769437 505.762812 236.769437 
z
" style="fill: #ffffff; opacity: 0.8; stroke: #cccccc; stroke-linejoin: miter"/>
    </g>
    <g id="line2d_22">
     <path d="M 507.762812 168.47725 
L 517.762812 168.47725 
L 527.762812 168.47725 
" style="fill: none; stroke: #0000ff; stroke-width: 1.5; stroke-linecap: square"/>
    </g>
    <g id="text_18">
     <!-- total -->
     <g transform="translate(535.762812 171.97725) scale(0.1 -0.1)">
      <defs>
       <path id="DejaVuSans-61" d="M 2194 1759 
Q 1497 1759 1228 1600 
Q 959 1441 959 1056 
Q 959 750 1161 570 
Q 1363 391 1709 391 
Q 2188 391 2477 730 
Q 2766 1069 2766 1631 
L 2766 1759 
L 2194 1759 
z
M 3341 1997 
L 3341 0 
L 2766 0 
L 2766 531 
Q 2569 213 2275 61 
Q 1981 -91 1556 -91 
Q 1019 -91 701 211 
Q 384 513 384 1019 
Q 384 1609 779 1909 
Q 1175 2209 1959 2209 
L 2766 2209 
L 2766 2266 
Q 2766 2663 2505 2880 
Q 2244 3097 1772 3097 
Q 1472 3097 1187 3025 
Q 903 2953 641 2809 
L 641 3341 
Q 956 3463 1253 3523 
Q 1550 3584 1831 3584 
Q 2591 3584 2966 3190 
Q 3341 2797 3341 1997 
z
" transform="scale(0.015625)"/>
      </defs>
      <use xlink:href="#DejaVuSans-74"/>
      <use xlink:href="#DejaVuSans-6f" x="39.208984"/>
      <use xlink:href="#DejaVuSans-74" x="100.390625"/>
      <use xlink:href="#DejaVuSans-61" x="139.599609"/>
      <use xlink:href="#DejaVuSans-6c" x="200.878906"/>
     </g>
    </g>
    <g id="line2d_23">
     <path d="M 507.762812 183.155375 
L 517.762812 183.155375 
L 527.762812 183.155375 
" style="fill: none; stroke-dasharray: 3,1.5; stroke-dashoffset: 0; stroke: #808080; stroke-width: 1.5"/>
    </g>
    <g id="text_19">
     <!-- fail -->
     <g transform="translate(535.762812 186.655375) scale(0.1 -0.1)">
      <defs>
       <path id="DejaVuSans-66" d="M 2375 4863 
L 2375 4384 
L 1825 4384 
Q 1516 4384 1395 4259 
Q 1275 4134 1275 3809 
L 1275 3500 
L 2222 3500 
L 2222 3053 
L 1275 3053 
L 1275 0 
L 697 0 
L 697 3053 
L 147 3053 
L 147 3500 
L 697 3500 
L 697 3744 
Q 697 4328 969 4595 
Q 1241 4863 1831 4863 
L 2375 4863 
z
" transform="scale(0.015625)"/>
      </defs>
      <use xlink:href="#DejaVuSans-66"/>
      <use xlink:href="#DejaVuSans-61" x="35.205078"/>
      <use xlink:href="#DejaVuSans-69" x="96.484375"/>
      <use xlink:href="#DejaVuSans-6c" x="124.267578"/>
     </g>
    </g>
    <g id="line2d_24">
     <path d="M 507.762812 197.8335 
L 517.762812 197.8335 
L 527.762812 197.8335 
" style="fill: none; stroke-dasharray: 6,1.5; stroke-dashoffset: 0; stroke: #008000; stroke-width: 1.5"/>
    </g>
    <g id="text_20">
     <!-- pass -->
     <g transform="translate(535.762812 201.3335) scale(0.1 -0.1)">
      <defs>
       <path id="DejaVuSans-70" d="M 1159 525 
L 1159 -1331 
L 581 -1331 
L 581 3500 
L 1159 3500 
L 1159 2969 
Q 1341 3281 1617 3432 
Q 1894 3584 2278 3584 
Q 2916 3584 3314 3078 
Q 3713 2572 3713 1747 
Q 3713 922 3314 415 
Q 2916 -91 2278 -91 
Q 1894 -91 1617 61 
Q 1341 213 1159 525 
z
M 3116 1747 
Q 3116 2381 2855 2742 
Q 2594 3103 2138 3103 
Q 1681 3103 1420 2742 
Q 1159 2381 1159 1747 
Q 1159 1113 1420 752 
Q 1681 391 2138 391 
Q 2594 391 2855 752 
Q 3116 1113 3116 1747 
z
" transform="scale(0.015625)"/>
      </defs>
      <use xlink:href="#DejaVuSans-70"/>
      <use xlink:href="#DejaVuSans-61" x="63.476562"/>
      <use xlink:href="#DejaVuSans-73" x="124.755859"/>
      <use xlink:href="#DejaVuSans-73" x="176.855469"/>
     </g>
    </g>
    <g id="line2d_25">
     <path d="M 507.762812 212.511625 
L 517.762812 212.511625 
L 527.762812 212.511625 
" style="fill: none; stroke-dasharray: 9,3; stroke-dashoffset: 0; stroke: #ffa500; stroke-width: 1.5"/>
    </g>
    <g id="text_21">
     <!-- error -->
     <g transform="translate(535.762812 216.011625) scale(0.1 -0.1)">
      <use xlink:href="#DejaVuSans-65"/>
      <use xlink:href="#DejaVuSans-72" x="61.523438"/>
      <use xlink:href="#DejaVuSans-72" x="100.886719"/>
      <use xlink:href="#DejaVuSans-6f" x="139.75"/>
      <use xlink:href="#DejaVuSans-72" x="200.931641"/>
     </g>
    </g>
    <g id="line2d_26">
     <path d="M 507.762812 227.18975 
L 517.762812 227.18975 
L 527.762812 227.18975 
" style="fill: none; stroke-dasharray: 12,4.5; stroke-dashoffset: 0; stroke: #ee82ee; stroke-width: 1.5"/>
    </g>
    <g id="text_22">
     <!-- skip -->
     <g transform="translate(535.762812 230.68975) scale(0.1 -0.1)">
      <defs>
       <path id="DejaVuSans-6b" d="M 581 4863 
L 1159 4863 
L 1159 1991 
L 2875 3500 
L 3609 3500 
L 1753 1863 
L 3688 0 
L 2938 0 
L 1159 1709 
L 1159 0 
L 581 0 
L 581 4863 
z
" transform="scale(0.015625)"/>
      </defs>
      <use xlink:href="#DejaVuSans-73"/>
      <use xlink:href="#DejaVuSans-6b" x="52.099609"/>
      <use xlink:href="#DejaVuSans-69" x="110.009766"/>
      <use xlink:href="#DejaVuSans-70" x="137.792969"/>
     </g>
    </g>
   </g>
  </g>
 </g>
 <defs>
  <clipPath id="p7a3f0e772b">
   <rect x="33.2875" y="22.318125" width="535.68" height="352.512"/>
  </clipPath>
 </defs>
</svg>
