<?xml version="1.0" encoding="utf-8" standalone="no"?>
<!DOCTYPE svg PUBLIC "-//W3C//DTD SVG 1.1//EN"
  "http://www.w3.org/Graphics/SVG/1.1/DTD/svg11.dtd">
<svg xmlns:xlink="http://www.w3.org/1999/xlink" width="595.255pt" height="418.303033pt" viewBox="0 0 595.255 418.303033" xmlns="http://www.w3.org/2000/svg" version="1.1">
 <metadata>
  <rdf:RDF xmlns:dc="http://purl.org/dc/elements/1.1/" xmlns:cc="http://creativecommons.org/ns#" xmlns:rdf="http://www.w3.org/1999/02/22-rdf-syntax-ns#">
   <cc:Work>
    <dc:type rdf:resource="http://purl.org/dc/dcmitype/StillImage"/>
    <dc:date>2025-05-05T07:25:17.308035</dc:date>
    <dc:format>image/svg+xml</dc:format>
    <dc:creator>
     <cc:Agent>
      <dc:title>Matplotlib v3.10.1, https://matplotlib.org/</dc:title>
     </cc:Agent>
    </dc:creator>
   </cc:Work>
  </rdf:RDF>
 </metadata>
 <defs>
  <style type="text/css">*{stroke-linejoin: round; stroke-linecap: butt}</style>
 </defs>
 <g id="figure_1">
  <g id="patch_1">
   <path d="M 0 418.303033 
L 595.255 418.303033 
L 595.255 0 
L 0 0 
z
" style="fill: #ffffff"/>
  </g>
  <g id="axes_1">
   <g id="patch_2">
    <path d="M 52.375 374.830125 
L 588.055 374.830125 
L 588.055 22.318125 
L 52.375 22.318125 
z
" style="fill: #ffffff"/>
   </g>
   <g id="matplotlib.axis_1">
    <g id="xtick_1">
     <g id="line2d_1">
      <defs>
       <path id="m6ccf5becb9" d="M 0 0 
L 0 3.5 
" style="stroke: #000000; stroke-width: 0.8"/>
      </defs>
      <g>
       <use xlink:href="#m6ccf5becb9" x="87.999297" y="374.830125" style="stroke: #000000; stroke-width: 0.8"/>
      </g>
     </g>
     <g id="text_1">
      <!-- 2021-07 -->
      <g transform="translate(50.774476 409.301971) rotate(-30) scale(0.1 -0.1)">
       <defs>
        <path id="DejaVuSans-32" d="M 1228 531 
L 3431 531 
L 3431 0 
L 469 0 
L 469 531 
Q 828 903 1448 1529 
Q 2069 2156 2228 2338 
Q 2531 2678 2651 2914 
Q 2772 3150 2772 3378 
Q 2772 3750 2511 3984 
Q 2250 4219 1831 4219 
Q 1534 4219 1204 4116 
Q 875 4013 500 3803 
L 500 4441 
Q 881 4594 1212 4672 
Q 1544 4750 1819 4750 
Q 2544 4750 2975 4387 
Q 3406 4025 3406 3419 
Q 3406 3131 3298 2873 
Q 3191 2616 2906 2266 
Q 2828 2175 2409 1742 
Q 1991 1309 1228 531 
z
" transform="scale(0.015625)"/>
        <path id="DejaVuSans-30" d="M 2034 4250 
Q 1547 4250 1301 3770 
Q 1056 3291 1056 2328 
Q 1056 1369 1301 889 
Q 1547 409 2034 409 
Q 2525 409 2770 889 
Q 3016 1369 3016 2328 
Q 3016 3291 2770 3770 
Q 2525 4250 2034 4250 
z
M 2034 4750 
Q 2819 4750 3233 4129 
Q 3647 3509 3647 2328 
Q 3647 1150 3233 529 
Q 2819 -91 2034 -91 
Q 1250 -91 836 529 
Q 422 1150 422 2328 
Q 422 3509 836 4129 
Q 1250 4750 2034 4750 
z
" transform="scale(0.015625)"/>
        <path id="DejaVuSans-31" d="M 794 531 
L 1825 531 
L 1825 4091 
L 703 3866 
L 703 4441 
L 1819 4666 
L 2450 4666 
L 2450 531 
L 3481 531 
L 3481 0 
L 794 0 
L 794 531 
z
" transform="scale(0.015625)"/>
        <path id="DejaVuSans-2d" d="M 313 2009 
L 1997 2009 
L 1997 1497 
L 313 1497 
L 313 2009 
z
" transform="scale(0.015625)"/>
        <path id="DejaVuSans-37" d="M 525 4666 
L 3525 4666 
L 3525 4397 
L 1831 0 
L 1172 0 
L 2766 4134 
L 525 4134 
L 525 4666 
z
" transform="scale(0.015625)"/>
       </defs>
       <use xlink:href="#DejaVuSans-32"/>
       <use xlink:href="#DejaVuSans-30" transform="translate(63.623047 0)"/>
       <use xlink:href="#DejaVuSans-32" transform="translate(127.246094 0)"/>
       <use xlink:href="#DejaVuSans-31" transform="translate(190.869141 0)"/>
       <use xlink:href="#DejaVuSans-2d" transform="translate(254.492188 0)"/>
       <use xlink:href="#DejaVuSans-30" transform="translate(290.576172 0)"/>
       <use xlink:href="#DejaVuSans-37" transform="translate(354.199219 0)"/>
      </g>
     </g>
    </g>
    <g id="xtick_2">
     <g id="line2d_2">
      <g>
       <use xlink:href="#m6ccf5becb9" x="153.200588" y="374.830125" style="stroke: #000000; stroke-width: 0.8"/>
      </g>
     </g>
     <g id="text_2">
      <!-- 2022-01 -->
      <g transform="translate(115.975767 409.301971) rotate(-30) scale(0.1 -0.1)">
       <use xlink:href="#DejaVuSans-32"/>
       <use xlink:href="#DejaVuSans-30" transform="translate(63.623047 0)"/>
       <use xlink:href="#DejaVuSans-32" transform="translate(127.246094 0)"/>
       <use xlink:href="#DejaVuSans-32" transform="translate(190.869141 0)"/>
       <use xlink:href="#DejaVuSans-2d" transform="translate(254.492188 0)"/>
       <use xlink:href="#DejaVuSans-30" transform="translate(290.576172 0)"/>
       <use xlink:href="#DejaVuSans-31" transform="translate(354.199219 0)"/>
      </g>
     </g>
    </g>
    <g id="xtick_3">
     <g id="line2d_3">
      <g>
       <use xlink:href="#m6ccf5becb9" x="217.338814" y="374.830125" style="stroke: #000000; stroke-width: 0.8"/>
      </g>
     </g>
     <g id="text_3">
      <!-- 2022-07 -->
      <g transform="translate(180.113993 409.301971) rotate(-30) scale(0.1 -0.1)">
       <use xlink:href="#DejaVuSans-32"/>
       <use xlink:href="#DejaVuSans-30" transform="translate(63.623047 0)"/>
       <use xlink:href="#DejaVuSans-32" transform="translate(127.246094 0)"/>
       <use xlink:href="#DejaVuSans-32" transform="translate(190.869141 0)"/>
       <use xlink:href="#DejaVuSans-2d" transform="translate(254.492188 0)"/>
       <use xlink:href="#DejaVuSans-30" transform="translate(290.576172 0)"/>
       <use xlink:href="#DejaVuSans-37" transform="translate(354.199219 0)"/>
      </g>
     </g>
    </g>
    <g id="xtick_4">
     <g id="line2d_4">
      <g>
       <use xlink:href="#m6ccf5becb9" x="282.540104" y="374.830125" style="stroke: #000000; stroke-width: 0.8"/>
      </g>
     </g>
     <g id="text_4">
      <!-- 2023-01 -->
      <g transform="translate(245.315283 409.301971) rotate(-30) scale(0.1 -0.1)">
       <defs>
        <path id="DejaVuSans-33" d="M 2597 2516 
Q 3050 2419 3304 2112 
Q 3559 1806 3559 1356 
Q 3559 666 3084 287 
Q 2609 -91 1734 -91 
Q 1441 -91 1130 -33 
Q 819 25 488 141 
L 488 750 
Q 750 597 1062 519 
Q 1375 441 1716 441 
Q 2309 441 2620 675 
Q 2931 909 2931 1356 
Q 2931 1769 2642 2001 
Q 2353 2234 1838 2234 
L 1294 2234 
L 1294 2753 
L 1863 2753 
Q 2328 2753 2575 2939 
Q 2822 3125 2822 3475 
Q 2822 3834 2567 4026 
Q 2313 4219 1838 4219 
Q 1578 4219 1281 4162 
Q 984 4106 628 3988 
L 628 4550 
Q 988 4650 1302 4700 
Q 1616 4750 1894 4750 
Q 2613 4750 3031 4423 
Q 3450 4097 3450 3541 
Q 3450 3153 3228 2886 
Q 3006 2619 2597 2516 
z
" transform="scale(0.015625)"/>
       </defs>
       <use xlink:href="#DejaVuSans-32"/>
       <use xlink:href="#DejaVuSans-30" transform="translate(63.623047 0)"/>
       <use xlink:href="#DejaVuSans-32" transform="translate(127.246094 0)"/>
       <use xlink:href="#DejaVuSans-33" transform="translate(190.869141 0)"/>
       <use xlink:href="#DejaVuSans-2d" transform="translate(254.492188 0)"/>
       <use xlink:href="#DejaVuSans-30" transform="translate(290.576172 0)"/>
       <use xlink:href="#DejaVuSans-31" transform="translate(354.199219 0)"/>
      </g>
     </g>
    </g>
    <g id="xtick_5">
     <g id="line2d_5">
      <g>
       <use xlink:href="#m6ccf5becb9" x="346.67833" y="374.830125" style="stroke: #000000; stroke-width: 0.8"/>
      </g>
     </g>
     <g id="text_5">
      <!-- 2023-07 -->
      <g transform="translate(309.453509 409.301971) rotate(-30) scale(0.1 -0.1)">
       <use xlink:href="#DejaVuSans-32"/>
       <use xlink:href="#DejaVuSans-30" transform="translate(63.623047 0)"/>
       <use xlink:href="#DejaVuSans-32" transform="translate(127.246094 0)"/>
       <use xlink:href="#DejaVuSans-33" transform="translate(190.869141 0)"/>
       <use xlink:href="#DejaVuSans-2d" transform="translate(254.492188 0)"/>
       <use xlink:href="#DejaVuSans-30" transform="translate(290.576172 0)"/>
       <use xlink:href="#DejaVuSans-37" transform="translate(354.199219 0)"/>
      </g>
     </g>
    </g>
    <g id="xtick_6">
     <g id="line2d_6">
      <g>
       <use xlink:href="#m6ccf5becb9" x="411.879621" y="374.830125" style="stroke: #000000; stroke-width: 0.8"/>
      </g>
     </g>
     <g id="text_6">
      <!-- 2024-01 -->
      <g transform="translate(374.6548 409.301971) rotate(-30) scale(0.1 -0.1)">
       <defs>
        <path id="DejaVuSans-34" d="M 2419 4116 
L 825 1625 
L 2419 1625 
L 2419 4116 
z
M 2253 4666 
L 3047 4666 
L 3047 1625 
L 3713 1625 
L 3713 1100 
L 3047 1100 
L 3047 0 
L 2419 0 
L 2419 1100 
L 313 1100 
L 313 1709 
L 2253 4666 
z
" transform="scale(0.015625)"/>
       </defs>
       <use xlink:href="#DejaVuSans-32"/>
       <use xlink:href="#DejaVuSans-30" transform="translate(63.623047 0)"/>
       <use xlink:href="#DejaVuSans-32" transform="translate(127.246094 0)"/>
       <use xlink:href="#DejaVuSans-34" transform="translate(190.869141 0)"/>
       <use xlink:href="#DejaVuSans-2d" transform="translate(254.492188 0)"/>
       <use xlink:href="#DejaVuSans-30" transform="translate(290.576172 0)"/>
       <use xlink:href="#DejaVuSans-31" transform="translate(354.199219 0)"/>
      </g>
     </g>
    </g>
    <g id="xtick_7">
     <g id="line2d_7">
      <g>
       <use xlink:href="#m6ccf5becb9" x="476.372201" y="374.830125" style="stroke: #000000; stroke-width: 0.8"/>
      </g>
     </g>
     <g id="text_7">
      <!-- 2024-07 -->
      <g transform="translate(439.147381 409.301971) rotate(-30) scale(0.1 -0.1)">
       <use xlink:href="#DejaVuSans-32"/>
       <use xlink:href="#DejaVuSans-30" transform="translate(63.623047 0)"/>
       <use xlink:href="#DejaVuSans-32" transform="translate(127.246094 0)"/>
       <use xlink:href="#DejaVuSans-34" transform="translate(190.869141 0)"/>
       <use xlink:href="#DejaVuSans-2d" transform="translate(254.492188 0)"/>
       <use xlink:href="#DejaVuSans-30" transform="translate(290.576172 0)"/>
       <use xlink:href="#DejaVuSans-37" transform="translate(354.199219 0)"/>
      </g>
     </g>
    </g>
    <g id="xtick_8">
     <g id="line2d_8">
      <g>
       <use xlink:href="#m6ccf5becb9" x="541.573492" y="374.830125" style="stroke: #000000; stroke-width: 0.8"/>
      </g>
     </g>
     <g id="text_8">
      <!-- 2025-01 -->
      <g transform="translate(504.348671 409.301971) rotate(-30) scale(0.1 -0.1)">
       <defs>
        <path id="DejaVuSans-35" d="M 691 4666 
L 3169 4666 
L 3169 4134 
L 1269 4134 
L 1269 2991 
Q 1406 3038 1543 3061 
Q 1681 3084 1819 3084 
Q 2600 3084 3056 2656 
Q 3513 2228 3513 1497 
Q 3513 744 3044 326 
Q 2575 -91 1722 -91 
Q 1428 -91 1123 -41 
Q 819 9 494 109 
L 494 744 
Q 775 591 1075 516 
Q 1375 441 1709 441 
Q 2250 441 2565 725 
Q 2881 1009 2881 1497 
Q 2881 1984 2565 2268 
Q 2250 2553 1709 2553 
Q 1456 2553 1204 2497 
Q 953 2441 691 2322 
L 691 4666 
z
" transform="scale(0.015625)"/>
       </defs>
       <use xlink:href="#DejaVuSans-32"/>
       <use xlink:href="#DejaVuSans-30" transform="translate(63.623047 0)"/>
       <use xlink:href="#DejaVuSans-32" transform="translate(127.246094 0)"/>
       <use xlink:href="#DejaVuSans-35" transform="translate(190.869141 0)"/>
       <use xlink:href="#DejaVuSans-2d" transform="translate(254.492188 0)"/>
       <use xlink:href="#DejaVuSans-30" transform="translate(290.576172 0)"/>
       <use xlink:href="#DejaVuSans-31" transform="translate(354.199219 0)"/>
      </g>
     </g>
    </g>
   </g>
   <g id="matplotlib.axis_2">
    <g id="ytick_1">
     <g id="line2d_9">
      <defs>
       <path id="m80d103aff0" d="M 0 0 
L -3.5 0 
" style="stroke: #000000; stroke-width: 0.8"/>
      </defs>
      <g>
       <use xlink:href="#m80d103aff0" x="52.375" y="333.77644" style="stroke: #000000; stroke-width: 0.8"/>
      </g>
     </g>
     <g id="text_9">
      <!-- 20000 -->
      <g transform="translate(13.5625 337.575659) scale(0.1 -0.1)">
       <use xlink:href="#DejaVuSans-32"/>
       <use xlink:href="#DejaVuSans-30" transform="translate(63.623047 0)"/>
       <use xlink:href="#DejaVuSans-30" transform="translate(127.246094 0)"/>
       <use xlink:href="#DejaVuSans-30" transform="translate(190.869141 0)"/>
       <use xlink:href="#DejaVuSans-30" transform="translate(254.492188 0)"/>
      </g>
     </g>
    </g>
    <g id="ytick_2">
     <g id="line2d_10">
      <g>
       <use xlink:href="#m80d103aff0" x="52.375" y="268.840887" style="stroke: #000000; stroke-width: 0.8"/>
      </g>
     </g>
     <g id="text_10">
      <!-- 40000 -->
      <g transform="translate(13.5625 272.640106) scale(0.1 -0.1)">
       <use xlink:href="#DejaVuSans-34"/>
       <use xlink:href="#DejaVuSans-30" transform="translate(63.623047 0)"/>
       <use xlink:href="#DejaVuSans-30" transform="translate(127.246094 0)"/>
       <use xlink:href="#DejaVuSans-30" transform="translate(190.869141 0)"/>
       <use xlink:href="#DejaVuSans-30" transform="translate(254.492188 0)"/>
      </g>
     </g>
    </g>
    <g id="ytick_3">
     <g id="line2d_11">
      <g>
       <use xlink:href="#m80d103aff0" x="52.375" y="203.905334" style="stroke: #000000; stroke-width: 0.8"/>
      </g>
     </g>
     <g id="text_11">
      <!-- 60000 -->
      <g transform="translate(13.5625 207.704553) scale(0.1 -0.1)">
       <defs>
        <path id="DejaVuSans-36" d="M 2113 2584 
Q 1688 2584 1439 2293 
Q 1191 2003 1191 1497 
Q 1191 994 1439 701 
Q 1688 409 2113 409 
Q 2538 409 2786 701 
Q 3034 994 3034 1497 
Q 3034 2003 2786 2293 
Q 2538 2584 2113 2584 
z
M 3366 4563 
L 3366 3988 
Q 3128 4100 2886 4159 
Q 2644 4219 2406 4219 
Q 1781 4219 1451 3797 
Q 1122 3375 1075 2522 
Q 1259 2794 1537 2939 
Q 1816 3084 2150 3084 
Q 2853 3084 3261 2657 
Q 3669 2231 3669 1497 
Q 3669 778 3244 343 
Q 2819 -91 2113 -91 
Q 1303 -91 875 529 
Q 447 1150 447 2328 
Q 447 3434 972 4092 
Q 1497 4750 2381 4750 
Q 2619 4750 2861 4703 
Q 3103 4656 3366 4563 
z
" transform="scale(0.015625)"/>
       </defs>
       <use xlink:href="#DejaVuSans-36"/>
       <use xlink:href="#DejaVuSans-30" transform="translate(63.623047 0)"/>
       <use xlink:href="#DejaVuSans-30" transform="translate(127.246094 0)"/>
       <use xlink:href="#DejaVuSans-30" transform="translate(190.869141 0)"/>
       <use xlink:href="#DejaVuSans-30" transform="translate(254.492188 0)"/>
      </g>
     </g>
    </g>
    <g id="ytick_4">
     <g id="line2d_12">
      <g>
       <use xlink:href="#m80d103aff0" x="52.375" y="138.969781" style="stroke: #000000; stroke-width: 0.8"/>
      </g>
     </g>
     <g id="text_12">
      <!-- 80000 -->
      <g transform="translate(13.5625 142.769) scale(0.1 -0.1)">
       <defs>
        <path id="DejaVuSans-38" d="M 2034 2216 
Q 1584 2216 1326 1975 
Q 1069 1734 1069 1313 
Q 1069 891 1326 650 
Q 1584 409 2034 409 
Q 2484 409 2743 651 
Q 3003 894 3003 1313 
Q 3003 1734 2745 1975 
Q 2488 2216 2034 2216 
z
M 1403 2484 
Q 997 2584 770 2862 
Q 544 3141 544 3541 
Q 544 4100 942 4425 
Q 1341 4750 2034 4750 
Q 2731 4750 3128 4425 
Q 3525 4100 3525 3541 
Q 3525 3141 3298 2862 
Q 3072 2584 2669 2484 
Q 3125 2378 3379 2068 
Q 3634 1759 3634 1313 
Q 3634 634 3220 271 
Q 2806 -91 2034 -91 
Q 1263 -91 848 271 
Q 434 634 434 1313 
Q 434 1759 690 2068 
Q 947 2378 1403 2484 
z
M 1172 3481 
Q 1172 3119 1398 2916 
Q 1625 2713 2034 2713 
Q 2441 2713 2670 2916 
Q 2900 3119 2900 3481 
Q 2900 3844 2670 4047 
Q 2441 4250 2034 4250 
Q 1625 4250 1398 4047 
Q 1172 3844 1172 3481 
z
" transform="scale(0.015625)"/>
       </defs>
       <use xlink:href="#DejaVuSans-38"/>
       <use xlink:href="#DejaVuSans-30" transform="translate(63.623047 0)"/>
       <use xlink:href="#DejaVuSans-30" transform="translate(127.246094 0)"/>
       <use xlink:href="#DejaVuSans-30" transform="translate(190.869141 0)"/>
       <use xlink:href="#DejaVuSans-30" transform="translate(254.492188 0)"/>
      </g>
     </g>
    </g>
    <g id="ytick_5">
     <g id="line2d_13">
      <g>
       <use xlink:href="#m80d103aff0" x="52.375" y="74.034228" style="stroke: #000000; stroke-width: 0.8"/>
      </g>
     </g>
     <g id="text_13">
      <!-- 100000 -->
      <g transform="translate(7.2 77.833447) scale(0.1 -0.1)">
       <use xlink:href="#DejaVuSans-31"/>
       <use xlink:href="#DejaVuSans-30" transform="translate(63.623047 0)"/>
       <use xlink:href="#DejaVuSans-30" transform="translate(127.246094 0)"/>
       <use xlink:href="#DejaVuSans-30" transform="translate(190.869141 0)"/>
       <use xlink:href="#DejaVuSans-30" transform="translate(254.492188 0)"/>
       <use xlink:href="#DejaVuSans-30" transform="translate(318.115234 0)"/>
      </g>
     </g>
    </g>
   </g>
   <g id="line2d_14">
    <path d="M 57.626765 125.904748 
L 76.081274 102.203271 
L 85.345065 96.242187 
L 91.831255 86.852506 
L 107.48424 86.164189 
L 114.135587 79.683621 
L 137.035535 76.086191 
L 148.916265 75.982295 
L 163.734343 33.774185 
L 163.932216 33.839121 
L 165.616025 33.852108 
L 168.776726 27.111797 
L 169.049079 26.644261 
L 169.293683 27.553359 
L 170.232522 27.540372 
L 170.585113 27.072836 
L 171.168814 27.059849 
L 171.592683 26.462442 
L 172.455742 26.566339 
L 172.85848 36.657324 
L 175.355533 36.631349 
L 175.867838 34.722244 
L 176.495227 34.800167 
L 180.468997 34.709257 
L 180.843993 34.722244 
L 181.182656 48.150917 
L 181.577922 48.150917 
L 181.939061 48.813259 
L 183.330318 48.839233 
L 183.976424 48.813259 
L 184.347406 45.254791 
L 186.074094 45.059984 
L 187.200799 44.969074 
L 187.358192 45.176868 
L 187.41906 81.80052 
L 189.589975 76.748534 
L 189.701679 76.748534 
L 190.029072 69.151074 
L 193.960704 69.060165 
L 194.334499 72.566684 
L 194.424167 72.514736 
L 195.579261 72.436813 
L 197.487273 72.371878 
L 197.632981 69.138087 
L 198.133388 72.358891 
L 199.600106 71.566677 
L 200.903057 71.488754 
L 201.269683 71.605638 
L 201.770345 68.436783 
L 202.236506 68.670551 
L 202.722722 60.060097 
L 203.199174 60.060097 
L 203.440512 59.917239 
L 207.39994 59.852303 
L 207.593313 58.501644 
L 208.276082 59.852303 
L 208.859841 59.878277 
L 212.148922 58.501644 
L 219.79795 59.034115 
L 220.117731 58.839309 
L 220.13147 58.683463 
L 221.022103 58.683463 
L 221.43742 58.488657 
L 224.972593 58.38476 
L 228.686076 58.215927 
L 229.0052 42.436588 
L 229.33715 42.436588 
L 229.695594 42.215807 
L 231.83214 42.163859 
L 232.461768 41.852168 
L 233.901318 41.865155 
L 234.35118 40.917096 
L 234.669013 41.03398 
L 242.443275 41.137877 
L 242.809438 39.618385 
L 243.513443 39.618385 
L 251.760474 37.930061 
L 253.330089 37.800189 
L 254.566115 37.735254 
L 254.769931 67.410802 
L 255.208293 67.410802 
L 255.59205 66.514691 
L 257.723462 66.423781 
L 258.008439 66.397807 
L 261.809645 66.358846 
L 266.529405 66.449755 
L 266.918986 68.086131 
L 267.539349 68.086131 
L 268.178279 68.579642 
L 271.006793 68.553667 
L 271.381269 68.553667 
L 273.304985 68.852371 
L 273.447097 68.852371 
L 274.345357 68.852371 
L 277.581097 65.644555 
L 280.626436 65.644555 
L 281.254383 65.371825 
L 282.000734 65.358838 
L 282.904848 65.21598 
L 283.599359 65.21598 
L 283.82375 65.332864 
L 291.319323 65.267928 
L 292.107209 63.852333 
L 301.346729 63.917269 
L 301.673629 63.618565 
L 301.899514 63.618565 
L 302.293943 98.839609 
L 302.644295 63.644539 
L 302.913867 111.657887 
L 303.705456 63.657527 
L 306.499975 63.631552 
L 306.795053 61.488679 
L 307.095476 61.488679 
L 307.656878 62.852326 
L 307.960446 62.8783 
L 312.641605 107.696819 
L 313.454221 107.709806 
L 313.814269 108.3202 
L 313.950515 108.294226 
L 314.192407 110.65788 
L 315.082383 108.281239 
L 321.138783 108.216303 
L 321.466902 104.177312 
L 322.138146 104.242247 
L 322.907756 104.22926 
L 323.030107 98.683764 
L 323.384548 98.683764 
L 323.660752 94.96945 
L 325.427195 94.956463 
L 325.746003 94.761656 
L 326.224481 94.917502 
L 326.304268 94.813605 
L 329.987307 94.722695 
L 330.796052 94.683734 
L 333.202277 94.527888 
L 334.963577 94.436979 
L 335.442755 94.488927 
L 335.650196 85.852499 
L 335.966959 86.151202 
L 336.030841 85.995357 
L 336.156551 85.98237 
L 337.261104 87.800565 
L 338.473674 87.579784 
L 338.875014 87.631733 
L 340.577324 87.64472 
L 340.832644 87.930436 
L 341.378211 87.64472 
L 342.316686 87.540823 
L 342.467282 87.15121 
L 342.556978 87.566797 
L 343.682687 87.527836 
L 344.390231 87.55381 
L 344.978329 87.657707 
L 345.81103 87.657707 
L 347.607113 87.397965 
L 348.443944 87.657707 
L 348.583041 81.475842 
L 349.851434 81.488829 
L 350.863117 81.436881 
L 351.171681 73.384872 
L 357.089033 73.30695 
L 357.768287 73.930331 
L 358.571697 73.293963 
L 359.654493 72.982272 
L 361.18882 73.008246 
L 361.589885 73.332924 
L 363.495584 73.319937 
L 364.303821 73.177079 
L 364.635848 72.839414 
L 365.972356 72.81344 
L 366.43901 55.358763 
L 367.21373 55.423698 
L 368.873907 55.37175 
L 369.305896 55.384737 
L 369.593543 55.319802 
L 369.970193 55.319802 
L 370.230438 54.099013 
L 370.762168 54.060052 
L 371.078962 54.073039 
L 374.591337 54.008103 
L 374.873861 53.891219 
L 375.10274 54.008103 
L 375.302044 54.047065 
L 375.508189 53.930181 
L 377.359525 53.930181 
L 379.14544 53.696413 
L 379.224243 53.52758 
L 379.840903 53.358748 
L 380.472483 53.332774 
L 380.813451 53.332774 
L 381.359014 62.462712 
L 382.569066 62.449725 
L 382.972071 61.904267 
L 384.896595 61.826344 
L 385.323703 61.761408 
L 386.206403 61.670499 
L 387.164363 61.683486 
L 390.413366 61.631537 
L 390.735632 61.540628 
L 391.216206 61.631537 
L 392.959939 61.670499 
L 393.264422 58.488657 
L 393.383824 61.592576 
L 395.74539 61.579589 
L 395.948151 63.761423 
L 396.280933 63.722462 
L 396.414923 63.501681 
L 396.647292 63.488694 
L 397.148261 63.735449 
L 397.702298 63.735449 
L 397.902069 64.099088 
L 397.980011 63.683501 
L 398.72996 63.683501 
L 399.294614 63.423759 
L 399.817456 63.397784 
L 400.075237 63.839346 
L 400.513189 63.839346 
L 400.799257 64.073114 
L 404.110932 63.969217 
L 404.285501 49.774305 
L 404.390946 63.982204 
L 405.771199 63.969217 
L 406.099909 64.125063 
L 407.01407 64.099088 
L 407.244106 64.060127 
L 407.822258 64.125063 
L 409.282474 64.112075 
L 409.531761 63.95623 
L 409.551239 64.04714 
L 409.729679 63.969217 
L 410.287329 63.904282 
L 410.649944 63.878307 
L 410.726397 58.436708 
L 410.805606 58.462682 
L 412.225227 58.410734 
L 412.347767 58.631515 
L 416.092691 58.488657 
L 425.463924 58.410734 
L 425.662933 63.151029 
L 431.357038 63.073107 
L 431.848545 63.151029 
L 440.376595 62.943236 
L 440.502518 73.384872 
L 441.806974 73.30695 
L 441.836463 73.267988 
L 444.326815 73.190066 
L 444.453451 73.099156 
L 444.957205 73.177079 
L 448.942122 73.151104 
L 449.36718 73.047208 
L 451.327861 73.047208 
L 451.425781 72.112136 
L 452.711236 72.125123 
L 452.730028 72.0472 
L 467.092226 76.475805 
L 469.871722 76.449831 
L 470.370862 78.644652 
L 470.586616 78.644652 
L 500.994543 63.267913 
L 508.465032 63.177004 
L 508.549581 62.566609 
L 509.789491 62.566609 
L 511.347783 62.047125 
L 514.768743 62.047125 
L 514.97515 59.566587 
L 518.986394 59.592561 
L 519.36956 55.800325 
L 520.395787 55.813312 
L 528.130106 55.826299 
L 529.650169 55.787338 
L 530.066089 58.722425 
L 531.810762 58.722425 
L 535.790966 52.553547 
L 541.430097 52.462637 
L 542.98092 52.384715 
L 544.534299 52.35874 
L 544.770572 45.865185 
L 544.919229 55.904222 
L 545.494888 55.930196 
L 546.026543 55.761363 
L 546.676878 55.761363 
L 546.768539 48.618453 
L 547.06365 49.553524 
L 547.211138 49.566512 
L 547.367899 49.462615 
L 547.930737 31.358583 
L 548.424557 31.241699 
L 548.534895 31.046892 
L 549.517861 31.020918 
L 549.870362 30.761175 
L 559.478394 30.852085 
L 559.970061 30.579356 
L 560.819225 30.579356 
L 561.085364 31.150789 
L 563.76934 31.228711 
L 564.102909 31.943003 
L 568.308482 31.813131 
L 568.368226 26.189713 
L 570.257544 26.085816 
L 570.661517 25.994906 
L 571.663004 25.903996 
L 571.890263 25.813086 
L 572.590097 25.839061 
L 573.216042 25.774125 
L 573.471469 35.228742 
L 574.294228 35.202767 
L 574.502933 32.072874 
L 574.663331 32.085861 
L 575.019191 31.891054 
L 576.67966 31.878067 
L 576.819556 31.618325 
L 577.911326 31.592351 
L 578.240736 31.592351 
L 578.421023 31.345595 
L 579.681287 31.397544 
L 579.78946 31.176763 
L 580.448576 31.228711 
L 581.509393 31.28066 
L 582.167615 30.994943 
L 582.803235 30.968969 
L 582.803235 30.968969 
" clip-path="url(#pc3f9098bf4)" style="fill: none; stroke-dasharray: 3,1.5; stroke-dashoffset: 0; stroke: #808080; stroke-width: 1.5"/>
   </g>
   <g id="line2d_15">
    <path d="M 57.626765 365.620835 
L 76.081274 364.439008 
L 85.345065 362.659774 
L 91.831255 358.335066 
L 107.48424 358.737666 
L 114.135587 358.257143 
L 148.916265 357.77662 
L 164.162325 355.932451 
L 164.888572 355.828554 
L 165.616025 355.828554 
L 168.776726 355.075301 
L 169.049079 355.205172 
L 169.469691 355.088288 
L 170.585113 355.03634 
L 172.455742 355.049327 
L 172.85848 357.257136 
L 180.843993 357.28311 
L 181.182656 358.54286 
L 183.729012 358.464937 
L 184.347406 358.412989 
L 185.254555 358.374027 
L 187.358192 358.36104 
L 187.41906 358.477924 
L 189.701679 357.438955 
L 190.628132 357.399994 
L 197.487273 357.322071 
L 197.632981 357.257136 
L 198.133388 357.309084 
L 199.940233 357.049342 
L 201.269683 357.023368 
L 202.236506 356.971419 
L 202.722722 354.893482 
L 205.658474 354.789585 
L 207.062929 354.789585 
L 207.39994 354.776598 
L 207.593313 353.633732 
L 208.276082 354.776598 
L 208.859841 354.763611 
L 212.148922 353.568796 
L 220.117731 353.399964 
L 220.13147 353.28308 
L 223.330622 353.19217 
L 223.950222 353.127235 
L 226.164554 353.088273 
L 228.686076 353.036325 
L 229.0052 352.29606 
L 229.33715 352.29606 
L 229.695594 352.140214 
L 233.901318 352.20515 
L 234.35118 352.010343 
L 254.566115 351.958395 
L 254.769931 350.880464 
L 255.208293 350.880464 
L 255.59205 351.114232 
L 257.153771 351.114232 
L 258.008439 351.062284 
L 261.809645 351.03631 
L 266.918986 350.633709 
L 273.304985 350.5428 
L 273.447097 350.5428 
L 274.345357 350.5428 
L 277.853581 349.919418 
L 280.626436 349.919418 
L 283.119868 349.880457 
L 285.346562 349.880457 
L 289.961484 349.906431 
L 291.319323 349.86747 
L 293.312282 349.828509 
L 301.899514 349.659676 
L 302.293943 359.075331 
L 302.644295 349.672663 
L 302.913867 371.374125 
L 303.705456 349.672663 
L 304.824537 349.646689 
L 305.10442 349.464869 
L 306.499975 349.464869 
L 306.795053 349.010321 
L 307.960446 348.984346 
L 312.641605 358.192208 
L 313.454221 358.231169 
L 313.814269 359.12728 
L 315.082383 359.101305 
L 322.907756 359.049357 
L 323.030107 358.750654 
L 331.683059 358.646757 
L 333.570851 358.581821 
L 334.786752 358.54286 
L 335.442755 358.555847 
L 335.650196 357.997401 
L 336.156551 357.984414 
L 337.829852 358.153246 
L 338.875014 358.088311 
L 348.443944 358.114285 
L 348.583041 357.438955 
L 350.863117 357.412981 
L 351.171681 356.010373 
L 361.18882 356.075309 
L 361.800501 355.854528 
L 365.972356 355.841541 
L 366.43901 354.425946 
L 375.508189 354.140229 
L 376.046771 354.205165 
L 379.14544 354.140229 
L 379.224243 354.010358 
L 379.973281 353.906461 
L 380.813451 353.906461 
L 381.608128 354.101268 
L 384.513908 353.997371 
L 385.323703 353.919448 
L 386.309663 353.919448 
L 390.036815 353.906461 
L 390.413366 353.893474 
L 392.959939 353.984384 
L 393.264422 355.646734 
L 393.383824 353.984384 
L 395.74539 353.984384 
L 395.948151 354.309062 
L 396.280933 354.296075 
L 396.414923 354.114255 
L 396.647292 354.075294 
L 397.148261 354.296075 
L 397.702298 354.296075 
L 397.902069 354.477894 
L 397.980011 354.296075 
L 398.72996 354.296075 
L 399.294614 354.075294 
L 399.817456 354.036332 
L 400.075237 354.322049 
L 400.513189 354.322049 
L 400.799257 354.555817 
L 410.649944 354.464907 
L 410.726397 353.893474 
L 410.805606 353.906461 
L 414.335927 353.815551 
L 414.883947 353.802564 
L 415.775416 353.698667 
L 416.672397 353.737629 
L 417.815277 353.737629 
L 422.362417 353.750616 
L 422.453286 353.698667 
L 423.094906 353.763603 
L 425.463924 353.724642 
L 425.662933 355.685695 
L 439.368509 355.685695 
L 439.796171 355.52985 
L 440.376595 355.52985 
L 440.502518 366.153307 
L 451.327861 366.088371 
L 451.425781 365.387067 
L 452.730028 365.387067 
L 467.092226 366.815649 
L 470.586616 366.854611 
L 507.732186 366.374087 
L 510.887757 366.283178 
L 510.993059 366.101358 
L 514.768743 366.114345 
L 514.97515 365.607848 
L 516.381877 365.659796 
L 516.708856 365.737719 
L 518.986394 365.659796 
L 519.36956 365.555899 
L 520.395787 365.568887 
L 529.650169 365.542912 
L 530.379423 365.555899 
L 531.810762 365.581874 
L 536.721 365.205247 
L 537.45043 365.205247 
L 538.271951 365.322131 
L 543.306742 365.231222 
L 543.855229 365.153299 
L 544.534299 365.166286 
L 544.770572 364.374072 
L 544.919229 364.490956 
L 546.676878 364.38706 
L 546.768539 357.335058 
L 547.06365 358.257143 
L 547.930737 358.231169 
L 548.424557 358.101298 
L 548.534895 358.010388 
L 563.76934 357.997401 
L 564.102909 357.854543 
L 566.419328 357.841556 
L 568.308482 357.789607 
L 568.368226 357.361033 
L 573.471469 357.28311 
L 573.94589 357.231162 
L 577.692959 357.127265 
L 578.240736 357.10129 
L 578.693958 357.166226 
L 581.509393 357.1922 
L 582.300749 357.270123 
L 582.803235 357.270123 
L 582.803235 357.270123 
" clip-path="url(#pc3f9098bf4)" style="fill: none; stroke-dasharray: 6,1.5; stroke-dashoffset: 0; stroke: #008000; stroke-width: 1.5"/>
   </g>
   <g id="patch_3">
    <path d="M 52.375 374.830125 
L 52.375 22.318125 
" style="fill: none; stroke: #000000; stroke-width: 0.8; stroke-linejoin: miter; stroke-linecap: square"/>
   </g>
   <g id="patch_4">
    <path d="M 588.055 374.830125 
L 588.055 22.318125 
" style="fill: none; stroke: #000000; stroke-width: 0.8; stroke-linejoin: miter; stroke-linecap: square"/>
   </g>
   <g id="patch_5">
    <path d="M 52.375 374.830125 
L 588.055 374.830125 
" style="fill: none; stroke: #000000; stroke-width: 0.8; stroke-linejoin: miter; stroke-linecap: square"/>
   </g>
   <g id="patch_6">
    <path d="M 52.375 22.318125 
L 588.055 22.318125 
" style="fill: none; stroke: #000000; stroke-width: 0.8; stroke-linejoin: miter; stroke-linecap: square"/>
   </g>
   <g id="text_14">
    <!-- Size evolution of Rust/Coreutils -->
    <g transform="translate(226.818437 16.318125) scale(0.12 -0.12)">
     <defs>
      <path id="DejaVuSans-53" d="M 3425 4513 
L 3425 3897 
Q 3066 4069 2747 4153 
Q 2428 4238 2131 4238 
Q 1616 4238 1336 4038 
Q 1056 3838 1056 3469 
Q 1056 3159 1242 3001 
Q 1428 2844 1947 2747 
L 2328 2669 
Q 3034 2534 3370 2195 
Q 3706 1856 3706 1288 
Q 3706 609 3251 259 
Q 2797 -91 1919 -91 
Q 1588 -91 1214 -16 
Q 841 59 441 206 
L 441 856 
Q 825 641 1194 531 
Q 1563 422 1919 422 
Q 2459 422 2753 634 
Q 3047 847 3047 1241 
Q 3047 1584 2836 1778 
Q 2625 1972 2144 2069 
L 1759 2144 
Q 1053 2284 737 2584 
Q 422 2884 422 3419 
Q 422 4038 858 4394 
Q 1294 4750 2059 4750 
Q 2388 4750 2728 4690 
Q 3069 4631 3425 4513 
z
" transform="scale(0.015625)"/>
      <path id="DejaVuSans-69" d="M 603 3500 
L 1178 3500 
L 1178 0 
L 603 0 
L 603 3500 
z
M 603 4863 
L 1178 4863 
L 1178 4134 
L 603 4134 
L 603 4863 
z
" transform="scale(0.015625)"/>
      <path id="DejaVuSans-7a" d="M 353 3500 
L 3084 3500 
L 3084 2975 
L 922 459 
L 3084 459 
L 3084 0 
L 275 0 
L 275 525 
L 2438 3041 
L 353 3041 
L 353 3500 
z
" transform="scale(0.015625)"/>
      <path id="DejaVuSans-65" d="M 3597 1894 
L 3597 1613 
L 953 1613 
Q 991 1019 1311 708 
Q 1631 397 2203 397 
Q 2534 397 2845 478 
Q 3156 559 3463 722 
L 3463 178 
Q 3153 47 2828 -22 
Q 2503 -91 2169 -91 
Q 1331 -91 842 396 
Q 353 884 353 1716 
Q 353 2575 817 3079 
Q 1281 3584 2069 3584 
Q 2775 3584 3186 3129 
Q 3597 2675 3597 1894 
z
M 3022 2063 
Q 3016 2534 2758 2815 
Q 2500 3097 2075 3097 
Q 1594 3097 1305 2825 
Q 1016 2553 972 2059 
L 3022 2063 
z
" transform="scale(0.015625)"/>
      <path id="DejaVuSans-20" transform="scale(0.015625)"/>
      <path id="DejaVuSans-76" d="M 191 3500 
L 800 3500 
L 1894 563 
L 2988 3500 
L 3597 3500 
L 2284 0 
L 1503 0 
L 191 3500 
z
" transform="scale(0.015625)"/>
      <path id="DejaVuSans-6f" d="M 1959 3097 
Q 1497 3097 1228 2736 
Q 959 2375 959 1747 
Q 959 1119 1226 758 
Q 1494 397 1959 397 
Q 2419 397 2687 759 
Q 2956 1122 2956 1747 
Q 2956 2369 2687 2733 
Q 2419 3097 1959 3097 
z
M 1959 3584 
Q 2709 3584 3137 3096 
Q 3566 2609 3566 1747 
Q 3566 888 3137 398 
Q 2709 -91 1959 -91 
Q 1206 -91 779 398 
Q 353 888 353 1747 
Q 353 2609 779 3096 
Q 1206 3584 1959 3584 
z
" transform="scale(0.015625)"/>
      <path id="DejaVuSans-6c" d="M 603 4863 
L 1178 4863 
L 1178 0 
L 603 0 
L 603 4863 
z
" transform="scale(0.015625)"/>
      <path id="DejaVuSans-75" d="M 544 1381 
L 544 3500 
L 1119 3500 
L 1119 1403 
Q 1119 906 1312 657 
Q 1506 409 1894 409 
Q 2359 409 2629 706 
Q 2900 1003 2900 1516 
L 2900 3500 
L 3475 3500 
L 3475 0 
L 2900 0 
L 2900 538 
Q 2691 219 2414 64 
Q 2138 -91 1772 -91 
Q 1169 -91 856 284 
Q 544 659 544 1381 
z
M 1991 3584 
L 1991 3584 
z
" transform="scale(0.015625)"/>
      <path id="DejaVuSans-74" d="M 1172 4494 
L 1172 3500 
L 2356 3500 
L 2356 3053 
L 1172 3053 
L 1172 1153 
Q 1172 725 1289 603 
Q 1406 481 1766 481 
L 2356 481 
L 2356 0 
L 1766 0 
Q 1100 0 847 248 
Q 594 497 594 1153 
L 594 3053 
L 172 3053 
L 172 3500 
L 594 3500 
L 594 4494 
L 1172 4494 
z
" transform="scale(0.015625)"/>
      <path id="DejaVuSans-6e" d="M 3513 2113 
L 3513 0 
L 2938 0 
L 2938 2094 
Q 2938 2591 2744 2837 
Q 2550 3084 2163 3084 
Q 1697 3084 1428 2787 
Q 1159 2491 1159 1978 
L 1159 0 
L 581 0 
L 581 3500 
L 1159 3500 
L 1159 2956 
Q 1366 3272 1645 3428 
Q 1925 3584 2291 3584 
Q 2894 3584 3203 3211 
Q 3513 2838 3513 2113 
z
" transform="scale(0.015625)"/>
      <path id="DejaVuSans-66" d="M 2375 4863 
L 2375 4384 
L 1825 4384 
Q 1516 4384 1395 4259 
Q 1275 4134 1275 3809 
L 1275 3500 
L 2222 3500 
L 2222 3053 
L 1275 3053 
L 1275 0 
L 697 0 
L 697 3053 
L 147 3053 
L 147 3500 
L 697 3500 
L 697 3744 
Q 697 4328 969 4595 
Q 1241 4863 1831 4863 
L 2375 4863 
z
" transform="scale(0.015625)"/>
      <path id="DejaVuSans-52" d="M 2841 2188 
Q 3044 2119 3236 1894 
Q 3428 1669 3622 1275 
L 4263 0 
L 3584 0 
L 2988 1197 
Q 2756 1666 2539 1819 
Q 2322 1972 1947 1972 
L 1259 1972 
L 1259 0 
L 628 0 
L 628 4666 
L 2053 4666 
Q 2853 4666 3247 4331 
Q 3641 3997 3641 3322 
Q 3641 2881 3436 2590 
Q 3231 2300 2841 2188 
z
M 1259 4147 
L 1259 2491 
L 2053 2491 
Q 2509 2491 2742 2702 
Q 2975 2913 2975 3322 
Q 2975 3731 2742 3939 
Q 2509 4147 2053 4147 
L 1259 4147 
z
" transform="scale(0.015625)"/>
      <path id="DejaVuSans-73" d="M 2834 3397 
L 2834 2853 
Q 2591 2978 2328 3040 
Q 2066 3103 1784 3103 
Q 1356 3103 1142 2972 
Q 928 2841 928 2578 
Q 928 2378 1081 2264 
Q 1234 2150 1697 2047 
L 1894 2003 
Q 2506 1872 2764 1633 
Q 3022 1394 3022 966 
Q 3022 478 2636 193 
Q 2250 -91 1575 -91 
Q 1294 -91 989 -36 
Q 684 19 347 128 
L 347 722 
Q 666 556 975 473 
Q 1284 391 1588 391 
Q 1994 391 2212 530 
Q 2431 669 2431 922 
Q 2431 1156 2273 1281 
Q 2116 1406 1581 1522 
L 1381 1569 
Q 847 1681 609 1914 
Q 372 2147 372 2553 
Q 372 3047 722 3315 
Q 1072 3584 1716 3584 
Q 2034 3584 2315 3537 
Q 2597 3491 2834 3397 
z
" transform="scale(0.015625)"/>
      <path id="DejaVuSans-2f" d="M 1625 4666 
L 2156 4666 
L 531 -594 
L 0 -594 
L 1625 4666 
z
" transform="scale(0.015625)"/>
      <path id="DejaVuSans-43" d="M 4122 4306 
L 4122 3641 
Q 3803 3938 3442 4084 
Q 3081 4231 2675 4231 
Q 1875 4231 1450 3742 
Q 1025 3253 1025 2328 
Q 1025 1406 1450 917 
Q 1875 428 2675 428 
Q 3081 428 3442 575 
Q 3803 722 4122 1019 
L 4122 359 
Q 3791 134 3420 21 
Q 3050 -91 2638 -91 
Q 1578 -91 968 557 
Q 359 1206 359 2328 
Q 359 3453 968 4101 
Q 1578 4750 2638 4750 
Q 3056 4750 3426 4639 
Q 3797 4528 4122 4306 
z
" transform="scale(0.015625)"/>
      <path id="DejaVuSans-72" d="M 2631 2963 
Q 2534 3019 2420 3045 
Q 2306 3072 2169 3072 
Q 1681 3072 1420 2755 
Q 1159 2438 1159 1844 
L 1159 0 
L 581 0 
L 581 3500 
L 1159 3500 
L 1159 2956 
Q 1341 3275 1631 3429 
Q 1922 3584 2338 3584 
Q 2397 3584 2469 3576 
Q 2541 3569 2628 3553 
L 2631 2963 
z
" transform="scale(0.015625)"/>
     </defs>
     <use xlink:href="#DejaVuSans-53"/>
     <use xlink:href="#DejaVuSans-69" transform="translate(63.476562 0)"/>
     <use xlink:href="#DejaVuSans-7a" transform="translate(91.259766 0)"/>
     <use xlink:href="#DejaVuSans-65" transform="translate(143.75 0)"/>
     <use xlink:href="#DejaVuSans-20" transform="translate(205.273438 0)"/>
     <use xlink:href="#DejaVuSans-65" transform="translate(237.060547 0)"/>
     <use xlink:href="#DejaVuSans-76" transform="translate(298.583984 0)"/>
     <use xlink:href="#DejaVuSans-6f" transform="translate(357.763672 0)"/>
     <use xlink:href="#DejaVuSans-6c" transform="translate(418.945312 0)"/>
     <use xlink:href="#DejaVuSans-75" transform="translate(446.728516 0)"/>
     <use xlink:href="#DejaVuSans-74" transform="translate(510.107422 0)"/>
     <use xlink:href="#DejaVuSans-69" transform="translate(549.316406 0)"/>
     <use xlink:href="#DejaVuSans-6f" transform="translate(577.099609 0)"/>
     <use xlink:href="#DejaVuSans-6e" transform="translate(638.28125 0)"/>
     <use xlink:href="#DejaVuSans-20" transform="translate(701.660156 0)"/>
     <use xlink:href="#DejaVuSans-6f" transform="translate(733.447266 0)"/>
     <use xlink:href="#DejaVuSans-66" transform="translate(794.628906 0)"/>
     <use xlink:href="#DejaVuSans-20" transform="translate(829.833984 0)"/>
     <use xlink:href="#DejaVuSans-52" transform="translate(861.621094 0)"/>
     <use xlink:href="#DejaVuSans-75" transform="translate(926.603516 0)"/>
     <use xlink:href="#DejaVuSans-73" transform="translate(989.982422 0)"/>
     <use xlink:href="#DejaVuSans-74" transform="translate(1042.082031 0)"/>
     <use xlink:href="#DejaVuSans-2f" transform="translate(1081.291016 0)"/>
     <use xlink:href="#DejaVuSans-43" transform="translate(1114.982422 0)"/>
     <use xlink:href="#DejaVuSans-6f" transform="translate(1184.806641 0)"/>
     <use xlink:href="#DejaVuSans-72" transform="translate(1245.988281 0)"/>
     <use xlink:href="#DejaVuSans-65" transform="translate(1284.851562 0)"/>
     <use xlink:href="#DejaVuSans-75" transform="translate(1346.375 0)"/>
     <use xlink:href="#DejaVuSans-74" transform="translate(1409.753906 0)"/>
     <use xlink:href="#DejaVuSans-69" transform="translate(1448.962891 0)"/>
     <use xlink:href="#DejaVuSans-6c" transform="translate(1476.746094 0)"/>
     <use xlink:href="#DejaVuSans-73" transform="translate(1504.529297 0)"/>
    </g>
   </g>
   <g id="legend_1">
    <g id="patch_7">
     <path d="M 404.801875 214.75225 
L 581.055 214.75225 
Q 583.055 214.75225 583.055 212.75225 
L 583.055 184.396 
Q 583.055 182.396 581.055 182.396 
L 404.801875 182.396 
Q 402.801875 182.396 402.801875 184.396 
L 402.801875 212.75225 
Q 402.801875 214.75225 404.801875 214.75225 
z
" style="fill: #ffffff; opacity: 0.8; stroke: #cccccc; stroke-linejoin: miter"/>
    </g>
    <g id="line2d_16">
     <path d="M 406.801875 190.494437 
L 416.801875 190.494437 
L 426.801875 190.494437 
" style="fill: none; stroke-dasharray: 3,1.5; stroke-dashoffset: 0; stroke: #808080; stroke-width: 1.5"/>
    </g>
    <g id="text_15">
     <!-- Size: multiple binaries (byte) -->
     <g transform="translate(434.801875 193.994437) scale(0.1 -0.1)">
      <defs>
       <path id="DejaVuSans-3a" d="M 750 794 
L 1409 794 
L 1409 0 
L 750 0 
L 750 794 
z
M 750 3309 
L 1409 3309 
L 1409 2516 
L 750 2516 
L 750 3309 
z
" transform="scale(0.015625)"/>
       <path id="DejaVuSans-6d" d="M 3328 2828 
Q 3544 3216 3844 3400 
Q 4144 3584 4550 3584 
Q 5097 3584 5394 3201 
Q 5691 2819 5691 2113 
L 5691 0 
L 5113 0 
L 5113 2094 
Q 5113 2597 4934 2840 
Q 4756 3084 4391 3084 
Q 3944 3084 3684 2787 
Q 3425 2491 3425 1978 
L 3425 0 
L 2847 0 
L 2847 2094 
Q 2847 2600 2669 2842 
Q 2491 3084 2119 3084 
Q 1678 3084 1418 2786 
Q 1159 2488 1159 1978 
L 1159 0 
L 581 0 
L 581 3500 
L 1159 3500 
L 1159 2956 
Q 1356 3278 1631 3431 
Q 1906 3584 2284 3584 
Q 2666 3584 2933 3390 
Q 3200 3197 3328 2828 
z
" transform="scale(0.015625)"/>
       <path id="DejaVuSans-70" d="M 1159 525 
L 1159 -1331 
L 581 -1331 
L 581 3500 
L 1159 3500 
L 1159 2969 
Q 1341 3281 1617 3432 
Q 1894 3584 2278 3584 
Q 2916 3584 3314 3078 
Q 3713 2572 3713 1747 
Q 3713 922 3314 415 
Q 2916 -91 2278 -91 
Q 1894 -91 1617 61 
Q 1341 213 1159 525 
z
M 3116 1747 
Q 3116 2381 2855 2742 
Q 2594 3103 2138 3103 
Q 1681 3103 1420 2742 
Q 1159 2381 1159 1747 
Q 1159 1113 1420 752 
Q 1681 391 2138 391 
Q 2594 391 2855 752 
Q 3116 1113 3116 1747 
z
" transform="scale(0.015625)"/>
       <path id="DejaVuSans-62" d="M 3116 1747 
Q 3116 2381 2855 2742 
Q 2594 3103 2138 3103 
Q 1681 3103 1420 2742 
Q 1159 2381 1159 1747 
Q 1159 1113 1420 752 
Q 1681 391 2138 391 
Q 2594 391 2855 752 
Q 3116 1113 3116 1747 
z
M 1159 2969 
Q 1341 3281 1617 3432 
Q 1894 3584 2278 3584 
Q 2916 3584 3314 3078 
Q 3713 2572 3713 1747 
Q 3713 922 3314 415 
Q 2916 -91 2278 -91 
Q 1894 -91 1617 61 
Q 1341 213 1159 525 
L 1159 0 
L 581 0 
L 581 4863 
L 1159 4863 
L 1159 2969 
z
" transform="scale(0.015625)"/>
       <path id="DejaVuSans-61" d="M 2194 1759 
Q 1497 1759 1228 1600 
Q 959 1441 959 1056 
Q 959 750 1161 570 
Q 1363 391 1709 391 
Q 2188 391 2477 730 
Q 2766 1069 2766 1631 
L 2766 1759 
L 2194 1759 
z
M 3341 1997 
L 3341 0 
L 2766 0 
L 2766 531 
Q 2569 213 2275 61 
Q 1981 -91 1556 -91 
Q 1019 -91 701 211 
Q 384 513 384 1019 
Q 384 1609 779 1909 
Q 1175 2209 1959 2209 
L 2766 2209 
L 2766 2266 
Q 2766 2663 2505 2880 
Q 2244 3097 1772 3097 
Q 1472 3097 1187 3025 
Q 903 2953 641 2809 
L 641 3341 
Q 956 3463 1253 3523 
Q 1550 3584 1831 3584 
Q 2591 3584 2966 3190 
Q 3341 2797 3341 1997 
z
" transform="scale(0.015625)"/>
       <path id="DejaVuSans-28" d="M 1984 4856 
Q 1566 4138 1362 3434 
Q 1159 2731 1159 2009 
Q 1159 1288 1364 580 
Q 1569 -128 1984 -844 
L 1484 -844 
Q 1016 -109 783 600 
Q 550 1309 550 2009 
Q 550 2706 781 3412 
Q 1013 4119 1484 4856 
L 1984 4856 
z
" transform="scale(0.015625)"/>
       <path id="DejaVuSans-79" d="M 2059 -325 
Q 1816 -950 1584 -1140 
Q 1353 -1331 966 -1331 
L 506 -1331 
L 506 -850 
L 844 -850 
Q 1081 -850 1212 -737 
Q 1344 -625 1503 -206 
L 1606 56 
L 191 3500 
L 800 3500 
L 1894 763 
L 2988 3500 
L 3597 3500 
L 2059 -325 
z
" transform="scale(0.015625)"/>
       <path id="DejaVuSans-29" d="M 513 4856 
L 1013 4856 
Q 1481 4119 1714 3412 
Q 1947 2706 1947 2009 
Q 1947 1309 1714 600 
Q 1481 -109 1013 -844 
L 513 -844 
Q 928 -128 1133 580 
Q 1338 1288 1338 2009 
Q 1338 2731 1133 3434 
Q 928 4138 513 4856 
z
" transform="scale(0.015625)"/>
      </defs>
      <use xlink:href="#DejaVuSans-53"/>
      <use xlink:href="#DejaVuSans-69" transform="translate(63.476562 0)"/>
      <use xlink:href="#DejaVuSans-7a" transform="translate(91.259766 0)"/>
      <use xlink:href="#DejaVuSans-65" transform="translate(143.75 0)"/>
      <use xlink:href="#DejaVuSans-3a" transform="translate(205.273438 0)"/>
      <use xlink:href="#DejaVuSans-20" transform="translate(238.964844 0)"/>
      <use xlink:href="#DejaVuSans-6d" transform="translate(270.751953 0)"/>
      <use xlink:href="#DejaVuSans-75" transform="translate(368.164062 0)"/>
      <use xlink:href="#DejaVuSans-6c" transform="translate(431.542969 0)"/>
      <use xlink:href="#DejaVuSans-74" transform="translate(459.326172 0)"/>
      <use xlink:href="#DejaVuSans-69" transform="translate(498.535156 0)"/>
      <use xlink:href="#DejaVuSans-70" transform="translate(526.318359 0)"/>
      <use xlink:href="#DejaVuSans-6c" transform="translate(589.794922 0)"/>
      <use xlink:href="#DejaVuSans-65" transform="translate(617.578125 0)"/>
      <use xlink:href="#DejaVuSans-20" transform="translate(679.101562 0)"/>
      <use xlink:href="#DejaVuSans-62" transform="translate(710.888672 0)"/>
      <use xlink:href="#DejaVuSans-69" transform="translate(774.365234 0)"/>
      <use xlink:href="#DejaVuSans-6e" transform="translate(802.148438 0)"/>
      <use xlink:href="#DejaVuSans-61" transform="translate(865.527344 0)"/>
      <use xlink:href="#DejaVuSans-72" transform="translate(926.806641 0)"/>
      <use xlink:href="#DejaVuSans-69" transform="translate(967.919922 0)"/>
      <use xlink:href="#DejaVuSans-65" transform="translate(995.703125 0)"/>
      <use xlink:href="#DejaVuSans-73" transform="translate(1057.226562 0)"/>
      <use xlink:href="#DejaVuSans-20" transform="translate(1109.326172 0)"/>
      <use xlink:href="#DejaVuSans-28" transform="translate(1141.113281 0)"/>
      <use xlink:href="#DejaVuSans-62" transform="translate(1180.126953 0)"/>
      <use xlink:href="#DejaVuSans-79" transform="translate(1243.603516 0)"/>
      <use xlink:href="#DejaVuSans-74" transform="translate(1302.783203 0)"/>
      <use xlink:href="#DejaVuSans-65" transform="translate(1341.992188 0)"/>
      <use xlink:href="#DejaVuSans-29" transform="translate(1403.515625 0)"/>
     </g>
    </g>
    <g id="line2d_17">
     <path d="M 406.801875 205.172562 
L 416.801875 205.172562 
L 426.801875 205.172562 
" style="fill: none; stroke-dasharray: 6,1.5; stroke-dashoffset: 0; stroke: #008000; stroke-width: 1.5"/>
    </g>
    <g id="text_16">
     <!-- Size: multicall binary (byte) -->
     <g transform="translate(434.801875 208.672562) scale(0.1 -0.1)">
      <defs>
       <path id="DejaVuSans-63" d="M 3122 3366 
L 3122 2828 
Q 2878 2963 2633 3030 
Q 2388 3097 2138 3097 
Q 1578 3097 1268 2742 
Q 959 2388 959 1747 
Q 959 1106 1268 751 
Q 1578 397 2138 397 
Q 2388 397 2633 464 
Q 2878 531 3122 666 
L 3122 134 
Q 2881 22 2623 -34 
Q 2366 -91 2075 -91 
Q 1284 -91 818 406 
Q 353 903 353 1747 
Q 353 2603 823 3093 
Q 1294 3584 2113 3584 
Q 2378 3584 2631 3529 
Q 2884 3475 3122 3366 
z
" transform="scale(0.015625)"/>
      </defs>
      <use xlink:href="#DejaVuSans-53"/>
      <use xlink:href="#DejaVuSans-69" transform="translate(63.476562 0)"/>
      <use xlink:href="#DejaVuSans-7a" transform="translate(91.259766 0)"/>
      <use xlink:href="#DejaVuSans-65" transform="translate(143.75 0)"/>
      <use xlink:href="#DejaVuSans-3a" transform="translate(205.273438 0)"/>
      <use xlink:href="#DejaVuSans-20" transform="translate(238.964844 0)"/>
      <use xlink:href="#DejaVuSans-6d" transform="translate(270.751953 0)"/>
      <use xlink:href="#DejaVuSans-75" transform="translate(368.164062 0)"/>
      <use xlink:href="#DejaVuSans-6c" transform="translate(431.542969 0)"/>
      <use xlink:href="#DejaVuSans-74" transform="translate(459.326172 0)"/>
      <use xlink:href="#DejaVuSans-69" transform="translate(498.535156 0)"/>
      <use xlink:href="#DejaVuSans-63" transform="translate(526.318359 0)"/>
      <use xlink:href="#DejaVuSans-61" transform="translate(581.298828 0)"/>
      <use xlink:href="#DejaVuSans-6c" transform="translate(642.578125 0)"/>
      <use xlink:href="#DejaVuSans-6c" transform="translate(670.361328 0)"/>
      <use xlink:href="#DejaVuSans-20" transform="translate(698.144531 0)"/>
      <use xlink:href="#DejaVuSans-62" transform="translate(729.931641 0)"/>
      <use xlink:href="#DejaVuSans-69" transform="translate(793.408203 0)"/>
      <use xlink:href="#DejaVuSans-6e" transform="translate(821.191406 0)"/>
      <use xlink:href="#DejaVuSans-61" transform="translate(884.570312 0)"/>
      <use xlink:href="#DejaVuSans-72" transform="translate(945.849609 0)"/>
      <use xlink:href="#DejaVuSans-79" transform="translate(986.962891 0)"/>
      <use xlink:href="#DejaVuSans-20" transform="translate(1046.142578 0)"/>
      <use xlink:href="#DejaVuSans-28" transform="translate(1077.929688 0)"/>
      <use xlink:href="#DejaVuSans-62" transform="translate(1116.943359 0)"/>
      <use xlink:href="#DejaVuSans-79" transform="translate(1180.419922 0)"/>
      <use xlink:href="#DejaVuSans-74" transform="translate(1239.599609 0)"/>
      <use xlink:href="#DejaVuSans-65" transform="translate(1278.808594 0)"/>
      <use xlink:href="#DejaVuSans-29" transform="translate(1340.332031 0)"/>
     </g>
    </g>
   </g>
  </g>
 </g>
 <defs>
  <clipPath id="pc3f9098bf4">
   <rect x="52.375" y="22.318125" width="535.68" height="352.512"/>
  </clipPath>
 </defs>
</svg>
