<?xml version="1.0" encoding="utf-8" standalone="no"?>
<!DOCTYPE svg PUBLIC "-//W3C//DTD SVG 1.1//EN"
  "http://www.w3.org/Graphics/SVG/1.1/DTD/svg11.dtd">
<svg xmlns:xlink="http://www.w3.org/1999/xlink" width="595.255pt" height="418.303033pt" viewBox="0 0 595.255 418.303033" xmlns="http://www.w3.org/2000/svg" version="1.1">
 <metadata>
  <rdf:RDF xmlns:dc="http://purl.org/dc/elements/1.1/" xmlns:cc="http://creativecommons.org/ns#" xmlns:rdf="http://www.w3.org/1999/02/22-rdf-syntax-ns#">
   <cc:Work>
    <dc:type rdf:resource="http://purl.org/dc/dcmitype/StillImage"/>
    <dc:date>2025-10-13T02:33:38.725703</dc:date>
    <dc:format>image/svg+xml</dc:format>
    <dc:creator>
     <cc:Agent>
      <dc:title>Matplotlib v3.6.3, https://matplotlib.org/</dc:title>
     </cc:Agent>
    </dc:creator>
   </cc:Work>
  </rdf:RDF>
 </metadata>
 <defs>
  <style type="text/css">*{stroke-linejoin: round; stroke-linecap: butt}</style>
 </defs>
 <g id="figure_1">
  <g id="patch_1">
   <path d="M 0 418.303033 
L 595.255 418.303033 
L 595.255 0 
L 0 0 
z
" style="fill: #ffffff"/>
  </g>
  <g id="axes_1">
   <g id="patch_2">
    <path d="M 52.375 374.830125 
L 588.055 374.830125 
L 588.055 22.318125 
L 52.375 22.318125 
z
" style="fill: #ffffff"/>
   </g>
   <g id="matplotlib.axis_1">
    <g id="xtick_1">
     <g id="line2d_1">
      <defs>
       <path id="ma64267122e" d="M 0 0 
L 0 3.5 
" style="stroke: #000000; stroke-width: 0.8"/>
      </defs>
      <g>
       <use xlink:href="#ma64267122e" x="84.897992" y="374.830125" style="stroke: #000000; stroke-width: 0.8"/>
      </g>
     </g>
     <g id="text_1">
      <!-- 2021-07 -->
      <g transform="translate(47.673171 409.301971) rotate(-30) scale(0.1 -0.1)">
       <defs>
        <path id="DejaVuSans-32" d="M 1228 531 
L 3431 531 
L 3431 0 
L 469 0 
L 469 531 
Q 828 903 1448 1529 
Q 2069 2156 2228 2338 
Q 2531 2678 2651 2914 
Q 2772 3150 2772 3378 
Q 2772 3750 2511 3984 
Q 2250 4219 1831 4219 
Q 1534 4219 1204 4116 
Q 875 4013 500 3803 
L 500 4441 
Q 881 4594 1212 4672 
Q 1544 4750 1819 4750 
Q 2544 4750 2975 4387 
Q 3406 4025 3406 3419 
Q 3406 3131 3298 2873 
Q 3191 2616 2906 2266 
Q 2828 2175 2409 1742 
Q 1991 1309 1228 531 
z
" transform="scale(0.015625)"/>
        <path id="DejaVuSans-30" d="M 2034 4250 
Q 1547 4250 1301 3770 
Q 1056 3291 1056 2328 
Q 1056 1369 1301 889 
Q 1547 409 2034 409 
Q 2525 409 2770 889 
Q 3016 1369 3016 2328 
Q 3016 3291 2770 3770 
Q 2525 4250 2034 4250 
z
M 2034 4750 
Q 2819 4750 3233 4129 
Q 3647 3509 3647 2328 
Q 3647 1150 3233 529 
Q 2819 -91 2034 -91 
Q 1250 -91 836 529 
Q 422 1150 422 2328 
Q 422 3509 836 4129 
Q 1250 4750 2034 4750 
z
" transform="scale(0.015625)"/>
        <path id="DejaVuSans-31" d="M 794 531 
L 1825 531 
L 1825 4091 
L 703 3866 
L 703 4441 
L 1819 4666 
L 2450 4666 
L 2450 531 
L 3481 531 
L 3481 0 
L 794 0 
L 794 531 
z
" transform="scale(0.015625)"/>
        <path id="DejaVuSans-2d" d="M 313 2009 
L 1997 2009 
L 1997 1497 
L 313 1497 
L 313 2009 
z
" transform="scale(0.015625)"/>
        <path id="DejaVuSans-37" d="M 525 4666 
L 3525 4666 
L 3525 4397 
L 1831 0 
L 1172 0 
L 2766 4134 
L 525 4134 
L 525 4666 
z
" transform="scale(0.015625)"/>
       </defs>
       <use xlink:href="#DejaVuSans-32"/>
       <use xlink:href="#DejaVuSans-30" x="63.623047"/>
       <use xlink:href="#DejaVuSans-32" x="127.246094"/>
       <use xlink:href="#DejaVuSans-31" x="190.869141"/>
       <use xlink:href="#DejaVuSans-2d" x="254.492188"/>
       <use xlink:href="#DejaVuSans-30" x="290.576172"/>
       <use xlink:href="#DejaVuSans-37" x="354.199219"/>
      </g>
     </g>
    </g>
    <g id="xtick_2">
     <g id="line2d_2">
      <g>
       <use xlink:href="#ma64267122e" x="143.441651" y="374.830125" style="stroke: #000000; stroke-width: 0.8"/>
      </g>
     </g>
     <g id="text_2">
      <!-- 2022-01 -->
      <g transform="translate(106.21683 409.301971) rotate(-30) scale(0.1 -0.1)">
       <use xlink:href="#DejaVuSans-32"/>
       <use xlink:href="#DejaVuSans-30" x="63.623047"/>
       <use xlink:href="#DejaVuSans-32" x="127.246094"/>
       <use xlink:href="#DejaVuSans-32" x="190.869141"/>
       <use xlink:href="#DejaVuSans-2d" x="254.492188"/>
       <use xlink:href="#DejaVuSans-30" x="290.576172"/>
       <use xlink:href="#DejaVuSans-31" x="354.199219"/>
      </g>
     </g>
    </g>
    <g id="xtick_3">
     <g id="line2d_3">
      <g>
       <use xlink:href="#ma64267122e" x="201.030794" y="374.830125" style="stroke: #000000; stroke-width: 0.8"/>
      </g>
     </g>
     <g id="text_3">
      <!-- 2022-07 -->
      <g transform="translate(163.805973 409.301971) rotate(-30) scale(0.1 -0.1)">
       <use xlink:href="#DejaVuSans-32"/>
       <use xlink:href="#DejaVuSans-30" x="63.623047"/>
       <use xlink:href="#DejaVuSans-32" x="127.246094"/>
       <use xlink:href="#DejaVuSans-32" x="190.869141"/>
       <use xlink:href="#DejaVuSans-2d" x="254.492188"/>
       <use xlink:href="#DejaVuSans-30" x="290.576172"/>
       <use xlink:href="#DejaVuSans-37" x="354.199219"/>
      </g>
     </g>
    </g>
    <g id="xtick_4">
     <g id="line2d_4">
      <g>
       <use xlink:href="#ma64267122e" x="259.574453" y="374.830125" style="stroke: #000000; stroke-width: 0.8"/>
      </g>
     </g>
     <g id="text_4">
      <!-- 2023-01 -->
      <g transform="translate(222.349632 409.301971) rotate(-30) scale(0.1 -0.1)">
       <defs>
        <path id="DejaVuSans-33" d="M 2597 2516 
Q 3050 2419 3304 2112 
Q 3559 1806 3559 1356 
Q 3559 666 3084 287 
Q 2609 -91 1734 -91 
Q 1441 -91 1130 -33 
Q 819 25 488 141 
L 488 750 
Q 750 597 1062 519 
Q 1375 441 1716 441 
Q 2309 441 2620 675 
Q 2931 909 2931 1356 
Q 2931 1769 2642 2001 
Q 2353 2234 1838 2234 
L 1294 2234 
L 1294 2753 
L 1863 2753 
Q 2328 2753 2575 2939 
Q 2822 3125 2822 3475 
Q 2822 3834 2567 4026 
Q 2313 4219 1838 4219 
Q 1578 4219 1281 4162 
Q 984 4106 628 3988 
L 628 4550 
Q 988 4650 1302 4700 
Q 1616 4750 1894 4750 
Q 2613 4750 3031 4423 
Q 3450 4097 3450 3541 
Q 3450 3153 3228 2886 
Q 3006 2619 2597 2516 
z
" transform="scale(0.015625)"/>
       </defs>
       <use xlink:href="#DejaVuSans-32"/>
       <use xlink:href="#DejaVuSans-30" x="63.623047"/>
       <use xlink:href="#DejaVuSans-32" x="127.246094"/>
       <use xlink:href="#DejaVuSans-33" x="190.869141"/>
       <use xlink:href="#DejaVuSans-2d" x="254.492188"/>
       <use xlink:href="#DejaVuSans-30" x="290.576172"/>
       <use xlink:href="#DejaVuSans-31" x="354.199219"/>
      </g>
     </g>
    </g>
    <g id="xtick_5">
     <g id="line2d_5">
      <g>
       <use xlink:href="#ma64267122e" x="317.163596" y="374.830125" style="stroke: #000000; stroke-width: 0.8"/>
      </g>
     </g>
     <g id="text_5">
      <!-- 2023-07 -->
      <g transform="translate(279.938775 409.301971) rotate(-30) scale(0.1 -0.1)">
       <use xlink:href="#DejaVuSans-32"/>
       <use xlink:href="#DejaVuSans-30" x="63.623047"/>
       <use xlink:href="#DejaVuSans-32" x="127.246094"/>
       <use xlink:href="#DejaVuSans-33" x="190.869141"/>
       <use xlink:href="#DejaVuSans-2d" x="254.492188"/>
       <use xlink:href="#DejaVuSans-30" x="290.576172"/>
       <use xlink:href="#DejaVuSans-37" x="354.199219"/>
      </g>
     </g>
    </g>
    <g id="xtick_6">
     <g id="line2d_6">
      <g>
       <use xlink:href="#ma64267122e" x="375.707255" y="374.830125" style="stroke: #000000; stroke-width: 0.8"/>
      </g>
     </g>
     <g id="text_6">
      <!-- 2024-01 -->
      <g transform="translate(338.482434 409.301971) rotate(-30) scale(0.1 -0.1)">
       <defs>
        <path id="DejaVuSans-34" d="M 2419 4116 
L 825 1625 
L 2419 1625 
L 2419 4116 
z
M 2253 4666 
L 3047 4666 
L 3047 1625 
L 3713 1625 
L 3713 1100 
L 3047 1100 
L 3047 0 
L 2419 0 
L 2419 1100 
L 313 1100 
L 313 1709 
L 2253 4666 
z
" transform="scale(0.015625)"/>
       </defs>
       <use xlink:href="#DejaVuSans-32"/>
       <use xlink:href="#DejaVuSans-30" x="63.623047"/>
       <use xlink:href="#DejaVuSans-32" x="127.246094"/>
       <use xlink:href="#DejaVuSans-34" x="190.869141"/>
       <use xlink:href="#DejaVuSans-2d" x="254.492188"/>
       <use xlink:href="#DejaVuSans-30" x="290.576172"/>
       <use xlink:href="#DejaVuSans-31" x="354.199219"/>
      </g>
     </g>
    </g>
    <g id="xtick_7">
     <g id="line2d_7">
      <g>
       <use xlink:href="#ma64267122e" x="433.61457" y="374.830125" style="stroke: #000000; stroke-width: 0.8"/>
      </g>
     </g>
     <g id="text_7">
      <!-- 2024-07 -->
      <g transform="translate(396.389749 409.301971) rotate(-30) scale(0.1 -0.1)">
       <use xlink:href="#DejaVuSans-32"/>
       <use xlink:href="#DejaVuSans-30" x="63.623047"/>
       <use xlink:href="#DejaVuSans-32" x="127.246094"/>
       <use xlink:href="#DejaVuSans-34" x="190.869141"/>
       <use xlink:href="#DejaVuSans-2d" x="254.492188"/>
       <use xlink:href="#DejaVuSans-30" x="290.576172"/>
       <use xlink:href="#DejaVuSans-37" x="354.199219"/>
      </g>
     </g>
    </g>
    <g id="xtick_8">
     <g id="line2d_8">
      <g>
       <use xlink:href="#ma64267122e" x="492.158229" y="374.830125" style="stroke: #000000; stroke-width: 0.8"/>
      </g>
     </g>
     <g id="text_8">
      <!-- 2025-01 -->
      <g transform="translate(454.933408 409.301971) rotate(-30) scale(0.1 -0.1)">
       <defs>
        <path id="DejaVuSans-35" d="M 691 4666 
L 3169 4666 
L 3169 4134 
L 1269 4134 
L 1269 2991 
Q 1406 3038 1543 3061 
Q 1681 3084 1819 3084 
Q 2600 3084 3056 2656 
Q 3513 2228 3513 1497 
Q 3513 744 3044 326 
Q 2575 -91 1722 -91 
Q 1428 -91 1123 -41 
Q 819 9 494 109 
L 494 744 
Q 775 591 1075 516 
Q 1375 441 1709 441 
Q 2250 441 2565 725 
Q 2881 1009 2881 1497 
Q 2881 1984 2565 2268 
Q 2250 2553 1709 2553 
Q 1456 2553 1204 2497 
Q 953 2441 691 2322 
L 691 4666 
z
" transform="scale(0.015625)"/>
       </defs>
       <use xlink:href="#DejaVuSans-32"/>
       <use xlink:href="#DejaVuSans-30" x="63.623047"/>
       <use xlink:href="#DejaVuSans-32" x="127.246094"/>
       <use xlink:href="#DejaVuSans-35" x="190.869141"/>
       <use xlink:href="#DejaVuSans-2d" x="254.492188"/>
       <use xlink:href="#DejaVuSans-30" x="290.576172"/>
       <use xlink:href="#DejaVuSans-31" x="354.199219"/>
      </g>
     </g>
    </g>
    <g id="xtick_9">
     <g id="line2d_9">
      <g>
       <use xlink:href="#ma64267122e" x="549.747371" y="374.830125" style="stroke: #000000; stroke-width: 0.8"/>
      </g>
     </g>
     <g id="text_9">
      <!-- 2025-07 -->
      <g transform="translate(512.522551 409.301971) rotate(-30) scale(0.1 -0.1)">
       <use xlink:href="#DejaVuSans-32"/>
       <use xlink:href="#DejaVuSans-30" x="63.623047"/>
       <use xlink:href="#DejaVuSans-32" x="127.246094"/>
       <use xlink:href="#DejaVuSans-35" x="190.869141"/>
       <use xlink:href="#DejaVuSans-2d" x="254.492188"/>
       <use xlink:href="#DejaVuSans-30" x="290.576172"/>
       <use xlink:href="#DejaVuSans-37" x="354.199219"/>
      </g>
     </g>
    </g>
   </g>
   <g id="matplotlib.axis_2">
    <g id="ytick_1">
     <g id="line2d_10">
      <defs>
       <path id="m111521f110" d="M 0 0 
L -3.5 0 
" style="stroke: #000000; stroke-width: 0.8"/>
      </defs>
      <g>
       <use xlink:href="#m111521f110" x="52.375" y="344.431564" style="stroke: #000000; stroke-width: 0.8"/>
      </g>
     </g>
     <g id="text_10">
      <!-- 20000 -->
      <g transform="translate(13.5625 348.230783) scale(0.1 -0.1)">
       <use xlink:href="#DejaVuSans-32"/>
       <use xlink:href="#DejaVuSans-30" x="63.623047"/>
       <use xlink:href="#DejaVuSans-30" x="127.246094"/>
       <use xlink:href="#DejaVuSans-30" x="190.869141"/>
       <use xlink:href="#DejaVuSans-30" x="254.492188"/>
      </g>
     </g>
    </g>
    <g id="ytick_2">
     <g id="line2d_11">
      <g>
       <use xlink:href="#m111521f110" x="52.375" y="297.898644" style="stroke: #000000; stroke-width: 0.8"/>
      </g>
     </g>
     <g id="text_11">
      <!-- 40000 -->
      <g transform="translate(13.5625 301.697862) scale(0.1 -0.1)">
       <use xlink:href="#DejaVuSans-34"/>
       <use xlink:href="#DejaVuSans-30" x="63.623047"/>
       <use xlink:href="#DejaVuSans-30" x="127.246094"/>
       <use xlink:href="#DejaVuSans-30" x="190.869141"/>
       <use xlink:href="#DejaVuSans-30" x="254.492188"/>
      </g>
     </g>
    </g>
    <g id="ytick_3">
     <g id="line2d_12">
      <g>
       <use xlink:href="#m111521f110" x="52.375" y="251.365723" style="stroke: #000000; stroke-width: 0.8"/>
      </g>
     </g>
     <g id="text_12">
      <!-- 60000 -->
      <g transform="translate(13.5625 255.164942) scale(0.1 -0.1)">
       <defs>
        <path id="DejaVuSans-36" d="M 2113 2584 
Q 1688 2584 1439 2293 
Q 1191 2003 1191 1497 
Q 1191 994 1439 701 
Q 1688 409 2113 409 
Q 2538 409 2786 701 
Q 3034 994 3034 1497 
Q 3034 2003 2786 2293 
Q 2538 2584 2113 2584 
z
M 3366 4563 
L 3366 3988 
Q 3128 4100 2886 4159 
Q 2644 4219 2406 4219 
Q 1781 4219 1451 3797 
Q 1122 3375 1075 2522 
Q 1259 2794 1537 2939 
Q 1816 3084 2150 3084 
Q 2853 3084 3261 2657 
Q 3669 2231 3669 1497 
Q 3669 778 3244 343 
Q 2819 -91 2113 -91 
Q 1303 -91 875 529 
Q 447 1150 447 2328 
Q 447 3434 972 4092 
Q 1497 4750 2381 4750 
Q 2619 4750 2861 4703 
Q 3103 4656 3366 4563 
z
" transform="scale(0.015625)"/>
       </defs>
       <use xlink:href="#DejaVuSans-36"/>
       <use xlink:href="#DejaVuSans-30" x="63.623047"/>
       <use xlink:href="#DejaVuSans-30" x="127.246094"/>
       <use xlink:href="#DejaVuSans-30" x="190.869141"/>
       <use xlink:href="#DejaVuSans-30" x="254.492188"/>
      </g>
     </g>
    </g>
    <g id="ytick_4">
     <g id="line2d_13">
      <g>
       <use xlink:href="#m111521f110" x="52.375" y="204.832803" style="stroke: #000000; stroke-width: 0.8"/>
      </g>
     </g>
     <g id="text_13">
      <!-- 80000 -->
      <g transform="translate(13.5625 208.632022) scale(0.1 -0.1)">
       <defs>
        <path id="DejaVuSans-38" d="M 2034 2216 
Q 1584 2216 1326 1975 
Q 1069 1734 1069 1313 
Q 1069 891 1326 650 
Q 1584 409 2034 409 
Q 2484 409 2743 651 
Q 3003 894 3003 1313 
Q 3003 1734 2745 1975 
Q 2488 2216 2034 2216 
z
M 1403 2484 
Q 997 2584 770 2862 
Q 544 3141 544 3541 
Q 544 4100 942 4425 
Q 1341 4750 2034 4750 
Q 2731 4750 3128 4425 
Q 3525 4100 3525 3541 
Q 3525 3141 3298 2862 
Q 3072 2584 2669 2484 
Q 3125 2378 3379 2068 
Q 3634 1759 3634 1313 
Q 3634 634 3220 271 
Q 2806 -91 2034 -91 
Q 1263 -91 848 271 
Q 434 634 434 1313 
Q 434 1759 690 2068 
Q 947 2378 1403 2484 
z
M 1172 3481 
Q 1172 3119 1398 2916 
Q 1625 2713 2034 2713 
Q 2441 2713 2670 2916 
Q 2900 3119 2900 3481 
Q 2900 3844 2670 4047 
Q 2441 4250 2034 4250 
Q 1625 4250 1398 4047 
Q 1172 3844 1172 3481 
z
" transform="scale(0.015625)"/>
       </defs>
       <use xlink:href="#DejaVuSans-38"/>
       <use xlink:href="#DejaVuSans-30" x="63.623047"/>
       <use xlink:href="#DejaVuSans-30" x="127.246094"/>
       <use xlink:href="#DejaVuSans-30" x="190.869141"/>
       <use xlink:href="#DejaVuSans-30" x="254.492188"/>
      </g>
     </g>
    </g>
    <g id="ytick_5">
     <g id="line2d_14">
      <g>
       <use xlink:href="#m111521f110" x="52.375" y="158.299882" style="stroke: #000000; stroke-width: 0.8"/>
      </g>
     </g>
     <g id="text_14">
      <!-- 100000 -->
      <g transform="translate(7.2 162.099101) scale(0.1 -0.1)">
       <use xlink:href="#DejaVuSans-31"/>
       <use xlink:href="#DejaVuSans-30" x="63.623047"/>
       <use xlink:href="#DejaVuSans-30" x="127.246094"/>
       <use xlink:href="#DejaVuSans-30" x="190.869141"/>
       <use xlink:href="#DejaVuSans-30" x="254.492188"/>
       <use xlink:href="#DejaVuSans-30" x="318.115234"/>
      </g>
     </g>
    </g>
    <g id="ytick_6">
     <g id="line2d_15">
      <g>
       <use xlink:href="#m111521f110" x="52.375" y="111.766962" style="stroke: #000000; stroke-width: 0.8"/>
      </g>
     </g>
     <g id="text_15">
      <!-- 120000 -->
      <g transform="translate(7.2 115.566181) scale(0.1 -0.1)">
       <use xlink:href="#DejaVuSans-31"/>
       <use xlink:href="#DejaVuSans-32" x="63.623047"/>
       <use xlink:href="#DejaVuSans-30" x="127.246094"/>
       <use xlink:href="#DejaVuSans-30" x="190.869141"/>
       <use xlink:href="#DejaVuSans-30" x="254.492188"/>
       <use xlink:href="#DejaVuSans-30" x="318.115234"/>
      </g>
     </g>
    </g>
    <g id="ytick_7">
     <g id="line2d_16">
      <g>
       <use xlink:href="#m111521f110" x="52.375" y="65.234042" style="stroke: #000000; stroke-width: 0.8"/>
      </g>
     </g>
     <g id="text_16">
      <!-- 140000 -->
      <g transform="translate(7.2 69.03326) scale(0.1 -0.1)">
       <use xlink:href="#DejaVuSans-31"/>
       <use xlink:href="#DejaVuSans-34" x="63.623047"/>
       <use xlink:href="#DejaVuSans-30" x="127.246094"/>
       <use xlink:href="#DejaVuSans-30" x="190.869141"/>
       <use xlink:href="#DejaVuSans-30" x="254.492188"/>
       <use xlink:href="#DejaVuSans-30" x="318.115234"/>
      </g>
     </g>
    </g>
   </g>
   <g id="line2d_17">
    <path d="M 57.626765 195.470379 
L 74.196904 178.485863 
L 82.51478 174.214141 
L 88.338673 167.485481 
L 102.393349 166.992232 
L 108.365534 162.348246 
L 128.927194 159.770323 
L 139.594796 159.69587 
L 152.899816 129.449472 
L 152.995938 129.505311 
L 154.214202 129.458778 
L 154.589361 129.505311 
L 157.427327 124.675194 
L 157.67187 124.340157 
L 157.891497 124.991618 
L 158.734473 124.982311 
L 159.051062 124.647274 
L 159.575162 124.637968 
L 159.955749 124.209865 
L 160.730682 124.284318 
L 161.092297 131.515533 
L 163.334379 131.49692 
L 163.794374 130.128852 
L 164.3577 130.184692 
L 168.262419 130.128852 
L 168.566501 139.75186 
L 168.921407 139.75186 
L 169.24567 140.226496 
L 171.075001 140.226496 
L 171.408102 137.676492 
L 172.95848 137.536893 
L 174.11146 137.620653 
L 174.166112 163.86522 
L 176.115358 160.244958 
L 176.215656 160.244958 
L 176.509619 154.800607 
L 180.039797 154.735461 
L 180.375424 157.248238 
L 180.455936 157.211012 
L 181.929897 157.155173 
L 183.206272 157.10864 
L 183.337102 154.7913 
L 183.786413 157.099333 
L 185.408763 156.503712 
L 186.602464 156.559551 
L 187.052004 154.288745 
L 187.470566 154.456263 
L 187.907135 148.285998 
L 189.458334 148.183625 
L 192.106767 148.137093 
L 192.280395 147.169208 
L 192.893447 148.137093 
L 193.417599 148.155706 
L 196.370836 147.169208 
L 203.23883 147.550778 
L 203.538295 147.2995 
L 204.525299 147.206434 
L 204.710895 147.159901 
L 208.598461 147.057529 
L 210.472244 146.964463 
L 211.219399 146.964463 
L 211.505938 135.656963 
L 211.803993 135.656963 
L 212.125836 135.498751 
L 214.044222 135.461525 
L 214.60956 135.238167 
L 215.902119 135.247474 
L 216.306046 134.568093 
L 216.931858 134.651852 
L 223.571866 134.726305 
L 223.90064 133.637435 
L 224.532761 133.637435 
L 231.937696 132.427579 
L 233.828264 132.334513 
L 234.456857 132.28798 
L 234.639861 153.553524 
L 235.033462 153.553524 
L 235.378035 152.91137 
L 237.547688 152.827611 
L 244.953935 152.846224 
L 245.198588 152.864837 
L 245.54839 154.037467 
L 246.105408 154.037467 
L 246.679097 154.391117 
L 249.555034 154.372504 
L 251.409922 154.586555 
L 252.216462 154.586555 
L 255.121804 152.287829 
L 257.856187 152.287829 
L 258.420015 152.092391 
L 259.474567 151.999325 
L 260.525548 151.980712 
L 260.727027 152.064471 
L 267.457235 152.017938 
L 268.164671 151.00352 
L 276.460753 151.050053 
L 276.754275 150.836002 
L 276.957095 150.836002 
L 277.311249 176.075458 
L 277.625827 150.854615 
L 277.867873 185.261056 
L 278.578634 150.863922 
L 281.087807 150.845309 
L 281.352756 149.309722 
L 281.622502 149.309722 
L 282.12658 150.286913 
L 282.399151 150.305527 
L 286.602322 182.422548 
L 287.331964 182.431855 
L 287.655247 182.869264 
L 287.777581 182.850651 
L 287.994774 184.544449 
L 288.793876 182.841345 
L 294.231864 182.794812 
L 294.526478 179.900464 
L 295.129182 179.946997 
L 295.820209 179.93769 
L 295.930066 175.963779 
L 296.248316 175.963779 
L 296.496317 173.302096 
L 298.08239 173.292789 
L 298.368645 173.153191 
L 298.798266 173.26487 
L 298.869906 173.190417 
L 302.176874 173.125271 
L 302.903039 173.097351 
L 307.075273 172.957752 
L 307.261532 166.768874 
L 307.54595 166.982925 
L 307.716183 166.86194 
L 308.707952 168.164862 
L 309.796708 168.00665 
L 311.040842 168.053182 
L 311.685556 168.053182 
L 311.914806 168.257927 
L 312.404666 168.053182 
L 313.247314 167.97873 
L 313.382533 167.699532 
L 313.46307 167.997343 
L 315.109132 167.988036 
L 315.63718 168.062489 
L 316.384855 168.062489 
L 317.997541 167.876357 
L 318.748925 168.062489 
L 318.873818 163.632555 
L 320.327029 163.641862 
L 320.921079 163.604635 
L 321.198135 157.834553 
L 326.511273 157.778714 
L 327.121169 158.22543 
L 327.842544 157.769407 
L 328.814776 157.546049 
L 330.192436 157.564662 
L 330.741658 157.797327 
L 332.263659 157.78802 
L 332.989367 157.685648 
L 333.287491 157.443677 
L 334.48753 157.425063 
L 334.906534 144.917014 
L 335.739802 144.954241 
L 338.077152 144.889095 
L 338.310824 144.014276 
L 339.072706 143.995663 
L 342.226436 143.94913 
L 342.571955 143.94913 
L 345.460677 143.86537 
L 346.386281 143.604786 
L 347.058836 143.465187 
L 347.813217 143.465187 
L 348.303073 150.007716 
L 349.389568 149.998409 
L 349.887341 149.607533 
L 351.862932 149.50516 
L 353.100717 149.421401 
L 353.719249 149.449321 
L 354.401765 149.412095 
L 358.719441 149.440014 
L 358.992833 147.159901 
L 359.100043 149.384175 
L 361.220472 149.374868 
L 361.40253 150.938374 
L 361.701332 150.910455 
L 361.82164 150.752243 
L 362.030282 150.742936 
L 362.480098 150.919761 
L 362.977562 150.919761 
L 363.156936 151.180346 
L 363.226919 150.882535 
L 363.900291 150.882535 
L 364.407289 150.696403 
L 364.876744 150.67779 
L 365.108203 150.994214 
L 365.501436 150.994214 
L 365.758294 151.161732 
L 368.731818 151.08728 
L 368.888562 140.915183 
L 368.98324 151.096586 
L 370.222557 151.08728 
L 370.801903 151.208265 
L 370.835168 151.180346 
L 373.3753 151.189652 
L 373.776841 151.08728 
L 374.441887 151.040747 
L 374.603139 151.022134 
L 374.671785 147.122675 
L 374.742906 147.141288 
L 376.017572 147.104062 
L 376.127599 147.262274 
L 381.620206 147.085449 
L 387.90448 147.104062 
L 388.083168 150.500965 
L 393.637174 150.500965 
L 401.294434 150.35206 
L 401.4075 157.834553 
L 404.278211 157.7601 
L 404.501992 157.694954 
L 406.22879 157.685648 
L 411.127479 157.592582 
L 411.2154 156.922508 
L 412.369599 156.931815 
L 412.386472 156.875975 
L 425.282163 160.04952 
L 427.777847 160.030907 
L 428.22602 161.60372 
L 428.419744 161.60372 
L 455.722751 150.584724 
L 462.430437 150.519578 
L 462.506353 150.082169 
L 463.619657 150.082169 
L 465.198343 149.709905 
L 468.090482 149.709905 
L 468.275814 147.932348 
L 471.877474 147.950961 
L 472.221516 145.233438 
L 473.142955 145.242745 
L 481.452383 145.224132 
L 481.825834 147.32742 
L 483.39236 147.32742 
L 486.96615 142.906792 
L 493.003778 142.80442 
L 494.816711 142.767194 
L 495.028859 138.113901 
L 495.162336 145.307891 
L 495.679215 145.326504 
L 496.615583 145.177599 
L 496.740514 145.205519 
L 496.822815 140.086897 
L 497.087793 140.756971 
L 497.360975 140.691825 
L 497.866342 127.718447 
L 498.309739 127.634688 
L 498.408811 127.495089 
L 499.291407 127.476476 
L 499.607914 127.290344 
L 508.234881 127.35549 
L 508.676345 127.160052 
L 509.438801 127.160052 
L 509.677765 127.569542 
L 512.087683 127.625381 
L 512.387192 128.137243 
L 516.163338 128.044178 
L 516.216982 124.014427 
L 517.913384 123.939974 
L 518.377934 123.874828 
L 519.175334 123.809682 
L 519.379388 123.744536 
L 520.285935 123.735229 
L 520.569793 123.716616 
L 520.799138 130.491809 
L 521.537887 130.473196 
L 521.725281 128.230309 
L 521.869301 128.239616 
L 522.188825 128.100017 
L 523.679744 128.09071 
L 523.805356 127.904579 
L 525.081421 127.885966 
L 525.243299 127.70914 
L 526.374879 127.746367 
L 526.472006 127.588155 
L 527.063821 127.625381 
L 528.588727 127.467169 
L 528.72687 127.43925 
L 529.178049 127.43925 
L 532.061995 128.314068 
L 534.896017 128.407134 
L 536.59524 128.816624 
L 536.906072 128.816624 
L 537.198669 128.686332 
L 537.517655 128.677025 
L 538.137847 128.760784 
L 538.515754 128.704945 
L 538.878271 126.750562 
L 539.031116 127.076293 
L 539.215968 127.076293 
L 539.423627 126.527204 
L 540.458158 126.527204 
L 540.688409 142.125039 
L 541.36377 142.125039 
L 541.699743 85.466555 
L 541.926606 85.382796 
L 542.351362 85.178051 
L 542.627889 85.140825 
L 543.017605 84.712722 
L 543.555434 84.414911 
L 543.613312 84.275313 
L 544.632866 84.22878 
L 545.238542 84.117101 
L 546.489396 84.061261 
L 546.803816 83.958889 
L 547.055669 83.912356 
L 547.829707 83.46564 
L 547.930226 83.530786 
L 547.952671 83.260895 
L 548.306634 83.195749 
L 548.798928 83.46564 
L 549.291999 83.372574 
L 549.380601 83.279508 
L 549.52851 84.098487 
L 549.587136 83.809983 
L 549.681126 83.81929 
L 552.423604 83.809983 
L 552.487444 80.720197 
L 552.706162 79.622021 
L 553.791872 79.584794 
L 554.041634 78.700669 
L 555.303639 78.654136 
L 556.183565 78.654136 
L 556.634261 78.682056 
L 557.005443 78.682056 
L 557.557232 79.063625 
L 558.162094 78.728588 
L 558.276876 78.402858 
L 558.501559 78.440084 
L 558.924853 78.682056 
L 559.087331 78.170193 
L 559.416786 78.1795 
L 559.510651 77.835156 
L 559.757359 85.354876 
L 560.418049 85.354876 
L 560.474819 35.443666 
L 561.061758 35.443666 
L 561.120748 35.32268 
L 561.376759 35.331987 
L 561.433036 35.201695 
L 561.639855 35.359907 
L 561.807536 33.88016 
L 563.182176 33.861547 
L 563.1927 33.358991 
L 563.514555 33.349684 
L 563.623485 33.200779 
L 564.562103 33.182166 
L 564.660298 33.666108 
L 565.655684 33.647495 
L 565.89646 33.172859 
L 566.745677 33.172859 
L 566.843968 33.368298 
L 567.954215 33.377604 
L 568.351371 32.893662 
L 569.316076 32.893662 
L 569.556889 32.605158 
L 570.267252 32.605158 
L 570.387701 32.865742 
L 570.667914 32.865742 
L 570.857075 26.230148 
L 572.174547 26.33252 
L 572.609223 26.369746 
L 573.191438 26.462812 
L 573.63587 26.109162 
L 573.886758 26.137082 
L 574.168307 25.774125 
L 574.986083 25.774125 
L 575.380841 27.319018 
L 576.459978 27.207339 
L 576.728027 27.412084 
L 580.452382 27.393471 
L 580.501441 27.775041 
L 581.421684 27.849493 
L 582.440387 27.8588 
L 582.675061 27.849493 
L 582.803235 28.082158 
L 582.803235 28.082158 
" clip-path="url(#p475472f867)" style="fill: none; stroke-dasharray: 3,1.5; stroke-dashoffset: 0; stroke: #808080; stroke-width: 1.5"/>
   </g>
   <g id="line2d_18">
    <path d="M 57.626765 367.251308 
L 74.196904 366.404409 
L 82.51478 365.129407 
L 88.338673 362.030315 
L 102.393349 362.318819 
L 108.365534 361.974475 
L 139.594796 361.630131 
L 154.589361 360.234144 
L 157.427327 359.694362 
L 157.67187 359.787428 
L 158.049534 359.703669 
L 159.308295 359.666442 
L 160.730682 359.675749 
L 161.092297 361.257868 
L 168.262419 361.276481 
L 168.566501 362.17922 
L 172.95848 362.048928 
L 174.166112 362.132687 
L 176.215656 361.38816 
L 177.491578 361.360241 
L 183.786413 361.295094 
L 185.862644 361.118269 
L 187.470566 361.053123 
L 187.907135 359.56407 
L 192.106767 359.480311 
L 192.280395 358.661331 
L 192.893447 359.480311 
L 193.417599 359.471004 
L 196.370836 358.614798 
L 203.525959 358.493813 
L 203.538295 358.410053 
L 206.620922 358.307681 
L 211.219399 358.233228 
L 211.505938 357.702753 
L 211.803993 357.702753 
L 212.245736 357.591074 
L 218.65272 357.498008 
L 219.92564 357.479395 
L 224.532761 357.451475 
L 234.456857 357.460782 
L 234.639861 356.688335 
L 235.033462 356.688335 
L 235.378035 356.855854 
L 237.547688 356.818627 
L 240.960757 356.800014 
L 246.105408 356.51151 
L 252.216462 356.446364 
L 255.711711 355.990342 
L 266.238044 355.990342 
L 268.164671 355.934502 
L 271.298187 355.906582 
L 272.148557 355.915889 
L 276.957095 355.813516 
L 277.311249 362.56079 
L 277.625827 355.822823 
L 277.867873 371.374125 
L 278.578634 355.822823 
L 279.583447 355.80421 
L 279.834751 355.673918 
L 281.087807 355.673918 
L 281.352756 355.348187 
L 282.399151 355.329574 
L 286.602322 361.927942 
L 287.331964 361.955862 
L 287.655247 362.598016 
L 288.954063 362.579403 
L 295.820209 362.542177 
L 295.930066 362.328125 
L 305.063567 362.225753 
L 307.075273 362.188527 
L 307.261532 361.788343 
L 307.716183 361.779037 
L 309.218626 361.900022 
L 310.157067 361.853489 
L 318.748925 361.872103 
L 318.873818 361.38816 
L 320.921079 361.369547 
L 321.198135 360.364436 
L 330.192436 360.410969 
L 330.741658 360.252757 
L 334.48753 360.24345 
L 334.906534 359.229033 
L 343.533258 359.070821 
L 346.315525 359.024288 
L 346.386281 358.931222 
L 347.288785 358.856769 
L 347.813217 358.856769 
L 348.647583 358.996368 
L 351.352693 358.893996 
L 353.100717 358.856769 
L 355.182211 358.856769 
L 356.432896 358.847463 
L 358.719441 358.912609 
L 358.992833 360.103852 
L 359.100043 358.912609 
L 361.220472 358.912609 
L 361.543932 359.15458 
L 361.701332 359.135967 
L 361.82164 359.005675 
L 362.030282 358.977755 
L 362.480098 359.135967 
L 362.977562 359.135967 
L 363.156936 359.266259 
L 363.226919 359.135967 
L 363.900291 359.135967 
L 364.407289 358.977755 
L 364.876744 358.949835 
L 365.108203 359.15458 
L 365.501436 359.15458 
L 365.758294 359.322099 
L 374.603139 359.256953 
L 374.742906 358.856769 
L 378.797979 358.77301 
L 378.816783 358.717171 
L 381.620206 358.726477 
L 387.90448 358.726477 
L 388.083168 360.131771 
L 400.750677 360.057319 
L 400.773277 360.020092 
L 401.294434 360.020092 
L 401.4075 367.632878 
L 411.127479 367.586345 
L 411.2154 367.08379 
L 412.386472 367.08379 
L 425.282163 368.107514 
L 428.419744 368.135434 
L 468.090482 367.604958 
L 468.275814 367.242002 
L 483.39236 367.223388 
L 488.195524 366.953498 
L 494.816711 366.925578 
L 495.028859 366.357876 
L 495.33135 366.432329 
L 496.740514 366.367183 
L 496.822815 361.313708 
L 497.087793 361.974475 
L 498.070764 361.946555 
L 498.408811 361.79765 
L 512.087683 361.788343 
L 512.665836 361.695278 
L 516.163338 361.639438 
L 516.329167 361.332321 
L 521.537887 361.239255 
L 522.504773 361.239255 
L 534.896017 361.239255 
L 537.198669 361.108963 
L 538.515754 361.03451 
L 539.215968 360.913524 
L 539.423627 360.457502 
L 540.458158 360.457502 
L 540.688409 364.291815 
L 542.627889 364.291815 
L 543.160436 364.133603 
L 546.489396 364.08707 
L 547.055669 364.049843 
L 548.798928 363.686887 
L 549.380601 363.640354 
L 549.52851 364.450026 
L 549.603196 364.375574 
L 550.650792 364.394187 
L 552.423604 364.375574 
L 552.487444 361.546372 
L 554.041634 361.509146 
L 558.501559 361.499839 
L 558.802055 360.662247 
L 559.416786 360.615714 
L 559.510651 360.559874 
L 559.757359 360.690166 
L 560.418049 360.690166 
L 560.474819 360.159691 
L 569.316076 360.066625 
L 570.267252 360.020092 
L 570.857075 359.964253 
L 572.284058 359.927027 
L 574.063115 359.852574 
L 574.333513 359.759508 
L 581.421684 359.675749 
L 582.803235 359.647829 
L 582.803235 359.647829 
" clip-path="url(#p475472f867)" style="fill: none; stroke-dasharray: 6,1.5; stroke-dashoffset: 0; stroke: #008000; stroke-width: 1.5"/>
   </g>
   <g id="patch_3">
    <path d="M 52.375 374.830125 
L 52.375 22.318125 
" style="fill: none; stroke: #000000; stroke-width: 0.8; stroke-linejoin: miter; stroke-linecap: square"/>
   </g>
   <g id="patch_4">
    <path d="M 588.055 374.830125 
L 588.055 22.318125 
" style="fill: none; stroke: #000000; stroke-width: 0.8; stroke-linejoin: miter; stroke-linecap: square"/>
   </g>
   <g id="patch_5">
    <path d="M 52.375 374.830125 
L 588.055 374.830125 
" style="fill: none; stroke: #000000; stroke-width: 0.8; stroke-linejoin: miter; stroke-linecap: square"/>
   </g>
   <g id="patch_6">
    <path d="M 52.375 22.318125 
L 588.055 22.318125 
" style="fill: none; stroke: #000000; stroke-width: 0.8; stroke-linejoin: miter; stroke-linecap: square"/>
   </g>
   <g id="text_17">
    <!-- Size evolution of Rust/Coreutils -->
    <g transform="translate(226.818437 16.318125) scale(0.12 -0.12)">
     <defs>
      <path id="DejaVuSans-53" d="M 3425 4513 
L 3425 3897 
Q 3066 4069 2747 4153 
Q 2428 4238 2131 4238 
Q 1616 4238 1336 4038 
Q 1056 3838 1056 3469 
Q 1056 3159 1242 3001 
Q 1428 2844 1947 2747 
L 2328 2669 
Q 3034 2534 3370 2195 
Q 3706 1856 3706 1288 
Q 3706 609 3251 259 
Q 2797 -91 1919 -91 
Q 1588 -91 1214 -16 
Q 841 59 441 206 
L 441 856 
Q 825 641 1194 531 
Q 1563 422 1919 422 
Q 2459 422 2753 634 
Q 3047 847 3047 1241 
Q 3047 1584 2836 1778 
Q 2625 1972 2144 2069 
L 1759 2144 
Q 1053 2284 737 2584 
Q 422 2884 422 3419 
Q 422 4038 858 4394 
Q 1294 4750 2059 4750 
Q 2388 4750 2728 4690 
Q 3069 4631 3425 4513 
z
" transform="scale(0.015625)"/>
      <path id="DejaVuSans-69" d="M 603 3500 
L 1178 3500 
L 1178 0 
L 603 0 
L 603 3500 
z
M 603 4863 
L 1178 4863 
L 1178 4134 
L 603 4134 
L 603 4863 
z
" transform="scale(0.015625)"/>
      <path id="DejaVuSans-7a" d="M 353 3500 
L 3084 3500 
L 3084 2975 
L 922 459 
L 3084 459 
L 3084 0 
L 275 0 
L 275 525 
L 2438 3041 
L 353 3041 
L 353 3500 
z
" transform="scale(0.015625)"/>
      <path id="DejaVuSans-65" d="M 3597 1894 
L 3597 1613 
L 953 1613 
Q 991 1019 1311 708 
Q 1631 397 2203 397 
Q 2534 397 2845 478 
Q 3156 559 3463 722 
L 3463 178 
Q 3153 47 2828 -22 
Q 2503 -91 2169 -91 
Q 1331 -91 842 396 
Q 353 884 353 1716 
Q 353 2575 817 3079 
Q 1281 3584 2069 3584 
Q 2775 3584 3186 3129 
Q 3597 2675 3597 1894 
z
M 3022 2063 
Q 3016 2534 2758 2815 
Q 2500 3097 2075 3097 
Q 1594 3097 1305 2825 
Q 1016 2553 972 2059 
L 3022 2063 
z
" transform="scale(0.015625)"/>
      <path id="DejaVuSans-20" transform="scale(0.015625)"/>
      <path id="DejaVuSans-76" d="M 191 3500 
L 800 3500 
L 1894 563 
L 2988 3500 
L 3597 3500 
L 2284 0 
L 1503 0 
L 191 3500 
z
" transform="scale(0.015625)"/>
      <path id="DejaVuSans-6f" d="M 1959 3097 
Q 1497 3097 1228 2736 
Q 959 2375 959 1747 
Q 959 1119 1226 758 
Q 1494 397 1959 397 
Q 2419 397 2687 759 
Q 2956 1122 2956 1747 
Q 2956 2369 2687 2733 
Q 2419 3097 1959 3097 
z
M 1959 3584 
Q 2709 3584 3137 3096 
Q 3566 2609 3566 1747 
Q 3566 888 3137 398 
Q 2709 -91 1959 -91 
Q 1206 -91 779 398 
Q 353 888 353 1747 
Q 353 2609 779 3096 
Q 1206 3584 1959 3584 
z
" transform="scale(0.015625)"/>
      <path id="DejaVuSans-6c" d="M 603 4863 
L 1178 4863 
L 1178 0 
L 603 0 
L 603 4863 
z
" transform="scale(0.015625)"/>
      <path id="DejaVuSans-75" d="M 544 1381 
L 544 3500 
L 1119 3500 
L 1119 1403 
Q 1119 906 1312 657 
Q 1506 409 1894 409 
Q 2359 409 2629 706 
Q 2900 1003 2900 1516 
L 2900 3500 
L 3475 3500 
L 3475 0 
L 2900 0 
L 2900 538 
Q 2691 219 2414 64 
Q 2138 -91 1772 -91 
Q 1169 -91 856 284 
Q 544 659 544 1381 
z
M 1991 3584 
L 1991 3584 
z
" transform="scale(0.015625)"/>
      <path id="DejaVuSans-74" d="M 1172 4494 
L 1172 3500 
L 2356 3500 
L 2356 3053 
L 1172 3053 
L 1172 1153 
Q 1172 725 1289 603 
Q 1406 481 1766 481 
L 2356 481 
L 2356 0 
L 1766 0 
Q 1100 0 847 248 
Q 594 497 594 1153 
L 594 3053 
L 172 3053 
L 172 3500 
L 594 3500 
L 594 4494 
L 1172 4494 
z
" transform="scale(0.015625)"/>
      <path id="DejaVuSans-6e" d="M 3513 2113 
L 3513 0 
L 2938 0 
L 2938 2094 
Q 2938 2591 2744 2837 
Q 2550 3084 2163 3084 
Q 1697 3084 1428 2787 
Q 1159 2491 1159 1978 
L 1159 0 
L 581 0 
L 581 3500 
L 1159 3500 
L 1159 2956 
Q 1366 3272 1645 3428 
Q 1925 3584 2291 3584 
Q 2894 3584 3203 3211 
Q 3513 2838 3513 2113 
z
" transform="scale(0.015625)"/>
      <path id="DejaVuSans-66" d="M 2375 4863 
L 2375 4384 
L 1825 4384 
Q 1516 4384 1395 4259 
Q 1275 4134 1275 3809 
L 1275 3500 
L 2222 3500 
L 2222 3053 
L 1275 3053 
L 1275 0 
L 697 0 
L 697 3053 
L 147 3053 
L 147 3500 
L 697 3500 
L 697 3744 
Q 697 4328 969 4595 
Q 1241 4863 1831 4863 
L 2375 4863 
z
" transform="scale(0.015625)"/>
      <path id="DejaVuSans-52" d="M 2841 2188 
Q 3044 2119 3236 1894 
Q 3428 1669 3622 1275 
L 4263 0 
L 3584 0 
L 2988 1197 
Q 2756 1666 2539 1819 
Q 2322 1972 1947 1972 
L 1259 1972 
L 1259 0 
L 628 0 
L 628 4666 
L 2053 4666 
Q 2853 4666 3247 4331 
Q 3641 3997 3641 3322 
Q 3641 2881 3436 2590 
Q 3231 2300 2841 2188 
z
M 1259 4147 
L 1259 2491 
L 2053 2491 
Q 2509 2491 2742 2702 
Q 2975 2913 2975 3322 
Q 2975 3731 2742 3939 
Q 2509 4147 2053 4147 
L 1259 4147 
z
" transform="scale(0.015625)"/>
      <path id="DejaVuSans-73" d="M 2834 3397 
L 2834 2853 
Q 2591 2978 2328 3040 
Q 2066 3103 1784 3103 
Q 1356 3103 1142 2972 
Q 928 2841 928 2578 
Q 928 2378 1081 2264 
Q 1234 2150 1697 2047 
L 1894 2003 
Q 2506 1872 2764 1633 
Q 3022 1394 3022 966 
Q 3022 478 2636 193 
Q 2250 -91 1575 -91 
Q 1294 -91 989 -36 
Q 684 19 347 128 
L 347 722 
Q 666 556 975 473 
Q 1284 391 1588 391 
Q 1994 391 2212 530 
Q 2431 669 2431 922 
Q 2431 1156 2273 1281 
Q 2116 1406 1581 1522 
L 1381 1569 
Q 847 1681 609 1914 
Q 372 2147 372 2553 
Q 372 3047 722 3315 
Q 1072 3584 1716 3584 
Q 2034 3584 2315 3537 
Q 2597 3491 2834 3397 
z
" transform="scale(0.015625)"/>
      <path id="DejaVuSans-2f" d="M 1625 4666 
L 2156 4666 
L 531 -594 
L 0 -594 
L 1625 4666 
z
" transform="scale(0.015625)"/>
      <path id="DejaVuSans-43" d="M 4122 4306 
L 4122 3641 
Q 3803 3938 3442 4084 
Q 3081 4231 2675 4231 
Q 1875 4231 1450 3742 
Q 1025 3253 1025 2328 
Q 1025 1406 1450 917 
Q 1875 428 2675 428 
Q 3081 428 3442 575 
Q 3803 722 4122 1019 
L 4122 359 
Q 3791 134 3420 21 
Q 3050 -91 2638 -91 
Q 1578 -91 968 557 
Q 359 1206 359 2328 
Q 359 3453 968 4101 
Q 1578 4750 2638 4750 
Q 3056 4750 3426 4639 
Q 3797 4528 4122 4306 
z
" transform="scale(0.015625)"/>
      <path id="DejaVuSans-72" d="M 2631 2963 
Q 2534 3019 2420 3045 
Q 2306 3072 2169 3072 
Q 1681 3072 1420 2755 
Q 1159 2438 1159 1844 
L 1159 0 
L 581 0 
L 581 3500 
L 1159 3500 
L 1159 2956 
Q 1341 3275 1631 3429 
Q 1922 3584 2338 3584 
Q 2397 3584 2469 3576 
Q 2541 3569 2628 3553 
L 2631 2963 
z
" transform="scale(0.015625)"/>
     </defs>
     <use xlink:href="#DejaVuSans-53"/>
     <use xlink:href="#DejaVuSans-69" x="63.476562"/>
     <use xlink:href="#DejaVuSans-7a" x="91.259766"/>
     <use xlink:href="#DejaVuSans-65" x="143.75"/>
     <use xlink:href="#DejaVuSans-20" x="205.273438"/>
     <use xlink:href="#DejaVuSans-65" x="237.060547"/>
     <use xlink:href="#DejaVuSans-76" x="298.583984"/>
     <use xlink:href="#DejaVuSans-6f" x="357.763672"/>
     <use xlink:href="#DejaVuSans-6c" x="418.945312"/>
     <use xlink:href="#DejaVuSans-75" x="446.728516"/>
     <use xlink:href="#DejaVuSans-74" x="510.107422"/>
     <use xlink:href="#DejaVuSans-69" x="549.316406"/>
     <use xlink:href="#DejaVuSans-6f" x="577.099609"/>
     <use xlink:href="#DejaVuSans-6e" x="638.28125"/>
     <use xlink:href="#DejaVuSans-20" x="701.660156"/>
     <use xlink:href="#DejaVuSans-6f" x="733.447266"/>
     <use xlink:href="#DejaVuSans-66" x="794.628906"/>
     <use xlink:href="#DejaVuSans-20" x="829.833984"/>
     <use xlink:href="#DejaVuSans-52" x="861.621094"/>
     <use xlink:href="#DejaVuSans-75" x="926.603516"/>
     <use xlink:href="#DejaVuSans-73" x="989.982422"/>
     <use xlink:href="#DejaVuSans-74" x="1042.082031"/>
     <use xlink:href="#DejaVuSans-2f" x="1081.291016"/>
     <use xlink:href="#DejaVuSans-43" x="1114.982422"/>
     <use xlink:href="#DejaVuSans-6f" x="1184.806641"/>
     <use xlink:href="#DejaVuSans-72" x="1245.988281"/>
     <use xlink:href="#DejaVuSans-65" x="1284.851562"/>
     <use xlink:href="#DejaVuSans-75" x="1346.375"/>
     <use xlink:href="#DejaVuSans-74" x="1409.753906"/>
     <use xlink:href="#DejaVuSans-69" x="1448.962891"/>
     <use xlink:href="#DejaVuSans-6c" x="1476.746094"/>
     <use xlink:href="#DejaVuSans-73" x="1504.529297"/>
    </g>
   </g>
   <g id="legend_1">
    <g id="patch_7">
     <path d="M 59.375 59.674375 
L 258.303125 59.674375 
Q 260.303125 59.674375 260.303125 57.674375 
L 260.303125 29.318125 
Q 260.303125 27.318125 258.303125 27.318125 
L 59.375 27.318125 
Q 57.375 27.318125 57.375 29.318125 
L 57.375 57.674375 
Q 57.375 59.674375 59.375 59.674375 
z
" style="fill: #ffffff; opacity: 0.8; stroke: #cccccc; stroke-linejoin: miter"/>
    </g>
    <g id="line2d_19">
     <path d="M 61.375 35.416562 
L 71.375 35.416562 
L 81.375 35.416562 
" style="fill: none; stroke-dasharray: 3,1.5; stroke-dashoffset: 0; stroke: #808080; stroke-width: 1.5"/>
    </g>
    <g id="text_18">
     <!-- Size: multiple binaries (kilobytes) -->
     <g transform="translate(89.375 38.916562) scale(0.1 -0.1)">
      <defs>
       <path id="DejaVuSans-3a" d="M 750 794 
L 1409 794 
L 1409 0 
L 750 0 
L 750 794 
z
M 750 3309 
L 1409 3309 
L 1409 2516 
L 750 2516 
L 750 3309 
z
" transform="scale(0.015625)"/>
       <path id="DejaVuSans-6d" d="M 3328 2828 
Q 3544 3216 3844 3400 
Q 4144 3584 4550 3584 
Q 5097 3584 5394 3201 
Q 5691 2819 5691 2113 
L 5691 0 
L 5113 0 
L 5113 2094 
Q 5113 2597 4934 2840 
Q 4756 3084 4391 3084 
Q 3944 3084 3684 2787 
Q 3425 2491 3425 1978 
L 3425 0 
L 2847 0 
L 2847 2094 
Q 2847 2600 2669 2842 
Q 2491 3084 2119 3084 
Q 1678 3084 1418 2786 
Q 1159 2488 1159 1978 
L 1159 0 
L 581 0 
L 581 3500 
L 1159 3500 
L 1159 2956 
Q 1356 3278 1631 3431 
Q 1906 3584 2284 3584 
Q 2666 3584 2933 3390 
Q 3200 3197 3328 2828 
z
" transform="scale(0.015625)"/>
       <path id="DejaVuSans-70" d="M 1159 525 
L 1159 -1331 
L 581 -1331 
L 581 3500 
L 1159 3500 
L 1159 2969 
Q 1341 3281 1617 3432 
Q 1894 3584 2278 3584 
Q 2916 3584 3314 3078 
Q 3713 2572 3713 1747 
Q 3713 922 3314 415 
Q 2916 -91 2278 -91 
Q 1894 -91 1617 61 
Q 1341 213 1159 525 
z
M 3116 1747 
Q 3116 2381 2855 2742 
Q 2594 3103 2138 3103 
Q 1681 3103 1420 2742 
Q 1159 2381 1159 1747 
Q 1159 1113 1420 752 
Q 1681 391 2138 391 
Q 2594 391 2855 752 
Q 3116 1113 3116 1747 
z
" transform="scale(0.015625)"/>
       <path id="DejaVuSans-62" d="M 3116 1747 
Q 3116 2381 2855 2742 
Q 2594 3103 2138 3103 
Q 1681 3103 1420 2742 
Q 1159 2381 1159 1747 
Q 1159 1113 1420 752 
Q 1681 391 2138 391 
Q 2594 391 2855 752 
Q 3116 1113 3116 1747 
z
M 1159 2969 
Q 1341 3281 1617 3432 
Q 1894 3584 2278 3584 
Q 2916 3584 3314 3078 
Q 3713 2572 3713 1747 
Q 3713 922 3314 415 
Q 2916 -91 2278 -91 
Q 1894 -91 1617 61 
Q 1341 213 1159 525 
L 1159 0 
L 581 0 
L 581 4863 
L 1159 4863 
L 1159 2969 
z
" transform="scale(0.015625)"/>
       <path id="DejaVuSans-61" d="M 2194 1759 
Q 1497 1759 1228 1600 
Q 959 1441 959 1056 
Q 959 750 1161 570 
Q 1363 391 1709 391 
Q 2188 391 2477 730 
Q 2766 1069 2766 1631 
L 2766 1759 
L 2194 1759 
z
M 3341 1997 
L 3341 0 
L 2766 0 
L 2766 531 
Q 2569 213 2275 61 
Q 1981 -91 1556 -91 
Q 1019 -91 701 211 
Q 384 513 384 1019 
Q 384 1609 779 1909 
Q 1175 2209 1959 2209 
L 2766 2209 
L 2766 2266 
Q 2766 2663 2505 2880 
Q 2244 3097 1772 3097 
Q 1472 3097 1187 3025 
Q 903 2953 641 2809 
L 641 3341 
Q 956 3463 1253 3523 
Q 1550 3584 1831 3584 
Q 2591 3584 2966 3190 
Q 3341 2797 3341 1997 
z
" transform="scale(0.015625)"/>
       <path id="DejaVuSans-28" d="M 1984 4856 
Q 1566 4138 1362 3434 
Q 1159 2731 1159 2009 
Q 1159 1288 1364 580 
Q 1569 -128 1984 -844 
L 1484 -844 
Q 1016 -109 783 600 
Q 550 1309 550 2009 
Q 550 2706 781 3412 
Q 1013 4119 1484 4856 
L 1984 4856 
z
" transform="scale(0.015625)"/>
       <path id="DejaVuSans-6b" d="M 581 4863 
L 1159 4863 
L 1159 1991 
L 2875 3500 
L 3609 3500 
L 1753 1863 
L 3688 0 
L 2938 0 
L 1159 1709 
L 1159 0 
L 581 0 
L 581 4863 
z
" transform="scale(0.015625)"/>
       <path id="DejaVuSans-79" d="M 2059 -325 
Q 1816 -950 1584 -1140 
Q 1353 -1331 966 -1331 
L 506 -1331 
L 506 -850 
L 844 -850 
Q 1081 -850 1212 -737 
Q 1344 -625 1503 -206 
L 1606 56 
L 191 3500 
L 800 3500 
L 1894 763 
L 2988 3500 
L 3597 3500 
L 2059 -325 
z
" transform="scale(0.015625)"/>
       <path id="DejaVuSans-29" d="M 513 4856 
L 1013 4856 
Q 1481 4119 1714 3412 
Q 1947 2706 1947 2009 
Q 1947 1309 1714 600 
Q 1481 -109 1013 -844 
L 513 -844 
Q 928 -128 1133 580 
Q 1338 1288 1338 2009 
Q 1338 2731 1133 3434 
Q 928 4138 513 4856 
z
" transform="scale(0.015625)"/>
      </defs>
      <use xlink:href="#DejaVuSans-53"/>
      <use xlink:href="#DejaVuSans-69" x="63.476562"/>
      <use xlink:href="#DejaVuSans-7a" x="91.259766"/>
      <use xlink:href="#DejaVuSans-65" x="143.75"/>
      <use xlink:href="#DejaVuSans-3a" x="205.273438"/>
      <use xlink:href="#DejaVuSans-20" x="238.964844"/>
      <use xlink:href="#DejaVuSans-6d" x="270.751953"/>
      <use xlink:href="#DejaVuSans-75" x="368.164062"/>
      <use xlink:href="#DejaVuSans-6c" x="431.542969"/>
      <use xlink:href="#DejaVuSans-74" x="459.326172"/>
      <use xlink:href="#DejaVuSans-69" x="498.535156"/>
      <use xlink:href="#DejaVuSans-70" x="526.318359"/>
      <use xlink:href="#DejaVuSans-6c" x="589.794922"/>
      <use xlink:href="#DejaVuSans-65" x="617.578125"/>
      <use xlink:href="#DejaVuSans-20" x="679.101562"/>
      <use xlink:href="#DejaVuSans-62" x="710.888672"/>
      <use xlink:href="#DejaVuSans-69" x="774.365234"/>
      <use xlink:href="#DejaVuSans-6e" x="802.148438"/>
      <use xlink:href="#DejaVuSans-61" x="865.527344"/>
      <use xlink:href="#DejaVuSans-72" x="926.806641"/>
      <use xlink:href="#DejaVuSans-69" x="967.919922"/>
      <use xlink:href="#DejaVuSans-65" x="995.703125"/>
      <use xlink:href="#DejaVuSans-73" x="1057.226562"/>
      <use xlink:href="#DejaVuSans-20" x="1109.326172"/>
      <use xlink:href="#DejaVuSans-28" x="1141.113281"/>
      <use xlink:href="#DejaVuSans-6b" x="1180.126953"/>
      <use xlink:href="#DejaVuSans-69" x="1238.037109"/>
      <use xlink:href="#DejaVuSans-6c" x="1265.820312"/>
      <use xlink:href="#DejaVuSans-6f" x="1293.603516"/>
      <use xlink:href="#DejaVuSans-62" x="1354.785156"/>
      <use xlink:href="#DejaVuSans-79" x="1418.261719"/>
      <use xlink:href="#DejaVuSans-74" x="1477.441406"/>
      <use xlink:href="#DejaVuSans-65" x="1516.650391"/>
      <use xlink:href="#DejaVuSans-73" x="1578.173828"/>
      <use xlink:href="#DejaVuSans-29" x="1630.273438"/>
     </g>
    </g>
    <g id="line2d_20">
     <path d="M 61.375 50.094687 
L 71.375 50.094687 
L 81.375 50.094687 
" style="fill: none; stroke-dasharray: 6,1.5; stroke-dashoffset: 0; stroke: #008000; stroke-width: 1.5"/>
    </g>
    <g id="text_19">
     <!-- Size: multicall binary (kilobytes) -->
     <g transform="translate(89.375 53.594687) scale(0.1 -0.1)">
      <defs>
       <path id="DejaVuSans-63" d="M 3122 3366 
L 3122 2828 
Q 2878 2963 2633 3030 
Q 2388 3097 2138 3097 
Q 1578 3097 1268 2742 
Q 959 2388 959 1747 
Q 959 1106 1268 751 
Q 1578 397 2138 397 
Q 2388 397 2633 464 
Q 2878 531 3122 666 
L 3122 134 
Q 2881 22 2623 -34 
Q 2366 -91 2075 -91 
Q 1284 -91 818 406 
Q 353 903 353 1747 
Q 353 2603 823 3093 
Q 1294 3584 2113 3584 
Q 2378 3584 2631 3529 
Q 2884 3475 3122 3366 
z
" transform="scale(0.015625)"/>
      </defs>
      <use xlink:href="#DejaVuSans-53"/>
      <use xlink:href="#DejaVuSans-69" x="63.476562"/>
      <use xlink:href="#DejaVuSans-7a" x="91.259766"/>
      <use xlink:href="#DejaVuSans-65" x="143.75"/>
      <use xlink:href="#DejaVuSans-3a" x="205.273438"/>
      <use xlink:href="#DejaVuSans-20" x="238.964844"/>
      <use xlink:href="#DejaVuSans-6d" x="270.751953"/>
      <use xlink:href="#DejaVuSans-75" x="368.164062"/>
      <use xlink:href="#DejaVuSans-6c" x="431.542969"/>
      <use xlink:href="#DejaVuSans-74" x="459.326172"/>
      <use xlink:href="#DejaVuSans-69" x="498.535156"/>
      <use xlink:href="#DejaVuSans-63" x="526.318359"/>
      <use xlink:href="#DejaVuSans-61" x="581.298828"/>
      <use xlink:href="#DejaVuSans-6c" x="642.578125"/>
      <use xlink:href="#DejaVuSans-6c" x="670.361328"/>
      <use xlink:href="#DejaVuSans-20" x="698.144531"/>
      <use xlink:href="#DejaVuSans-62" x="729.931641"/>
      <use xlink:href="#DejaVuSans-69" x="793.408203"/>
      <use xlink:href="#DejaVuSans-6e" x="821.191406"/>
      <use xlink:href="#DejaVuSans-61" x="884.570312"/>
      <use xlink:href="#DejaVuSans-72" x="945.849609"/>
      <use xlink:href="#DejaVuSans-79" x="986.962891"/>
      <use xlink:href="#DejaVuSans-20" x="1046.142578"/>
      <use xlink:href="#DejaVuSans-28" x="1077.929688"/>
      <use xlink:href="#DejaVuSans-6b" x="1116.943359"/>
      <use xlink:href="#DejaVuSans-69" x="1174.853516"/>
      <use xlink:href="#DejaVuSans-6c" x="1202.636719"/>
      <use xlink:href="#DejaVuSans-6f" x="1230.419922"/>
      <use xlink:href="#DejaVuSans-62" x="1291.601562"/>
      <use xlink:href="#DejaVuSans-79" x="1355.078125"/>
      <use xlink:href="#DejaVuSans-74" x="1414.257812"/>
      <use xlink:href="#DejaVuSans-65" x="1453.466797"/>
      <use xlink:href="#DejaVuSans-73" x="1514.990234"/>
      <use xlink:href="#DejaVuSans-29" x="1567.089844"/>
     </g>
    </g>
   </g>
  </g>
 </g>
 <defs>
  <clipPath id="p475472f867">
   <rect x="52.375" y="22.318125" width="535.68" height="352.512"/>
  </clipPath>
 </defs>
</svg>
