<?xml version="1.0" encoding="utf-8" standalone="no"?>
<!DOCTYPE svg PUBLIC "-//W3C//DTD SVG 1.1//EN"
  "http://www.w3.org/Graphics/SVG/1.1/DTD/svg11.dtd">
<svg xmlns:xlink="http://www.w3.org/1999/xlink" width="595.255pt" height="418.303033pt" viewBox="0 0 595.255 418.303033" xmlns="http://www.w3.org/2000/svg" version="1.1">
 <metadata>
  <rdf:RDF xmlns:dc="http://purl.org/dc/elements/1.1/" xmlns:cc="http://creativecommons.org/ns#" xmlns:rdf="http://www.w3.org/1999/02/22-rdf-syntax-ns#">
   <cc:Work>
    <dc:type rdf:resource="http://purl.org/dc/dcmitype/StillImage"/>
    <dc:date>2025-09-21T02:32:09.587306</dc:date>
    <dc:format>image/svg+xml</dc:format>
    <dc:creator>
     <cc:Agent>
      <dc:title>Matplotlib v3.6.3, https://matplotlib.org/</dc:title>
     </cc:Agent>
    </dc:creator>
   </cc:Work>
  </rdf:RDF>
 </metadata>
 <defs>
  <style type="text/css">*{stroke-linejoin: round; stroke-linecap: butt}</style>
 </defs>
 <g id="figure_1">
  <g id="patch_1">
   <path d="M 0 418.303033 
L 595.255 418.303033 
L 595.255 0 
L 0 0 
z
" style="fill: #ffffff"/>
  </g>
  <g id="axes_1">
   <g id="patch_2">
    <path d="M 52.375 374.830125 
L 588.055 374.830125 
L 588.055 22.318125 
L 52.375 22.318125 
z
" style="fill: #ffffff"/>
   </g>
   <g id="matplotlib.axis_1">
    <g id="xtick_1">
     <g id="line2d_1">
      <defs>
       <path id="m3f9774b446" d="M 0 0 
L 0 3.5 
" style="stroke: #000000; stroke-width: 0.8"/>
      </defs>
      <g>
       <use xlink:href="#m3f9774b446" x="85.268238" y="374.830125" style="stroke: #000000; stroke-width: 0.8"/>
      </g>
     </g>
     <g id="text_1">
      <!-- 2021-07 -->
      <g transform="translate(48.043417 409.301971) rotate(-30) scale(0.1 -0.1)">
       <defs>
        <path id="DejaVuSans-32" d="M 1228 531 
L 3431 531 
L 3431 0 
L 469 0 
L 469 531 
Q 828 903 1448 1529 
Q 2069 2156 2228 2338 
Q 2531 2678 2651 2914 
Q 2772 3150 2772 3378 
Q 2772 3750 2511 3984 
Q 2250 4219 1831 4219 
Q 1534 4219 1204 4116 
Q 875 4013 500 3803 
L 500 4441 
Q 881 4594 1212 4672 
Q 1544 4750 1819 4750 
Q 2544 4750 2975 4387 
Q 3406 4025 3406 3419 
Q 3406 3131 3298 2873 
Q 3191 2616 2906 2266 
Q 2828 2175 2409 1742 
Q 1991 1309 1228 531 
z
" transform="scale(0.015625)"/>
        <path id="DejaVuSans-30" d="M 2034 4250 
Q 1547 4250 1301 3770 
Q 1056 3291 1056 2328 
Q 1056 1369 1301 889 
Q 1547 409 2034 409 
Q 2525 409 2770 889 
Q 3016 1369 3016 2328 
Q 3016 3291 2770 3770 
Q 2525 4250 2034 4250 
z
M 2034 4750 
Q 2819 4750 3233 4129 
Q 3647 3509 3647 2328 
Q 3647 1150 3233 529 
Q 2819 -91 2034 -91 
Q 1250 -91 836 529 
Q 422 1150 422 2328 
Q 422 3509 836 4129 
Q 1250 4750 2034 4750 
z
" transform="scale(0.015625)"/>
        <path id="DejaVuSans-31" d="M 794 531 
L 1825 531 
L 1825 4091 
L 703 3866 
L 703 4441 
L 1819 4666 
L 2450 4666 
L 2450 531 
L 3481 531 
L 3481 0 
L 794 0 
L 794 531 
z
" transform="scale(0.015625)"/>
        <path id="DejaVuSans-2d" d="M 313 2009 
L 1997 2009 
L 1997 1497 
L 313 1497 
L 313 2009 
z
" transform="scale(0.015625)"/>
        <path id="DejaVuSans-37" d="M 525 4666 
L 3525 4666 
L 3525 4397 
L 1831 0 
L 1172 0 
L 2766 4134 
L 525 4134 
L 525 4666 
z
" transform="scale(0.015625)"/>
       </defs>
       <use xlink:href="#DejaVuSans-32"/>
       <use xlink:href="#DejaVuSans-30" x="63.623047"/>
       <use xlink:href="#DejaVuSans-32" x="127.246094"/>
       <use xlink:href="#DejaVuSans-31" x="190.869141"/>
       <use xlink:href="#DejaVuSans-2d" x="254.492188"/>
       <use xlink:href="#DejaVuSans-30" x="290.576172"/>
       <use xlink:href="#DejaVuSans-37" x="354.199219"/>
      </g>
     </g>
    </g>
    <g id="xtick_2">
     <g id="line2d_2">
      <g>
       <use xlink:href="#m3f9774b446" x="144.606712" y="374.830125" style="stroke: #000000; stroke-width: 0.8"/>
      </g>
     </g>
     <g id="text_2">
      <!-- 2022-01 -->
      <g transform="translate(107.381891 409.301971) rotate(-30) scale(0.1 -0.1)">
       <use xlink:href="#DejaVuSans-32"/>
       <use xlink:href="#DejaVuSans-30" x="63.623047"/>
       <use xlink:href="#DejaVuSans-32" x="127.246094"/>
       <use xlink:href="#DejaVuSans-32" x="190.869141"/>
       <use xlink:href="#DejaVuSans-2d" x="254.492188"/>
       <use xlink:href="#DejaVuSans-30" x="290.576172"/>
       <use xlink:href="#DejaVuSans-31" x="354.199219"/>
      </g>
     </g>
    </g>
    <g id="xtick_3">
     <g id="line2d_3">
      <g>
       <use xlink:href="#m3f9774b446" x="202.977711" y="374.830125" style="stroke: #000000; stroke-width: 0.8"/>
      </g>
     </g>
     <g id="text_3">
      <!-- 2022-07 -->
      <g transform="translate(165.75289 409.301971) rotate(-30) scale(0.1 -0.1)">
       <use xlink:href="#DejaVuSans-32"/>
       <use xlink:href="#DejaVuSans-30" x="63.623047"/>
       <use xlink:href="#DejaVuSans-32" x="127.246094"/>
       <use xlink:href="#DejaVuSans-32" x="190.869141"/>
       <use xlink:href="#DejaVuSans-2d" x="254.492188"/>
       <use xlink:href="#DejaVuSans-30" x="290.576172"/>
       <use xlink:href="#DejaVuSans-37" x="354.199219"/>
      </g>
     </g>
    </g>
    <g id="xtick_4">
     <g id="line2d_4">
      <g>
       <use xlink:href="#m3f9774b446" x="262.316185" y="374.830125" style="stroke: #000000; stroke-width: 0.8"/>
      </g>
     </g>
     <g id="text_4">
      <!-- 2023-01 -->
      <g transform="translate(225.091364 409.301971) rotate(-30) scale(0.1 -0.1)">
       <defs>
        <path id="DejaVuSans-33" d="M 2597 2516 
Q 3050 2419 3304 2112 
Q 3559 1806 3559 1356 
Q 3559 666 3084 287 
Q 2609 -91 1734 -91 
Q 1441 -91 1130 -33 
Q 819 25 488 141 
L 488 750 
Q 750 597 1062 519 
Q 1375 441 1716 441 
Q 2309 441 2620 675 
Q 2931 909 2931 1356 
Q 2931 1769 2642 2001 
Q 2353 2234 1838 2234 
L 1294 2234 
L 1294 2753 
L 1863 2753 
Q 2328 2753 2575 2939 
Q 2822 3125 2822 3475 
Q 2822 3834 2567 4026 
Q 2313 4219 1838 4219 
Q 1578 4219 1281 4162 
Q 984 4106 628 3988 
L 628 4550 
Q 988 4650 1302 4700 
Q 1616 4750 1894 4750 
Q 2613 4750 3031 4423 
Q 3450 4097 3450 3541 
Q 3450 3153 3228 2886 
Q 3006 2619 2597 2516 
z
" transform="scale(0.015625)"/>
       </defs>
       <use xlink:href="#DejaVuSans-32"/>
       <use xlink:href="#DejaVuSans-30" x="63.623047"/>
       <use xlink:href="#DejaVuSans-32" x="127.246094"/>
       <use xlink:href="#DejaVuSans-33" x="190.869141"/>
       <use xlink:href="#DejaVuSans-2d" x="254.492188"/>
       <use xlink:href="#DejaVuSans-30" x="290.576172"/>
       <use xlink:href="#DejaVuSans-31" x="354.199219"/>
      </g>
     </g>
    </g>
    <g id="xtick_5">
     <g id="line2d_5">
      <g>
       <use xlink:href="#m3f9774b446" x="320.687183" y="374.830125" style="stroke: #000000; stroke-width: 0.8"/>
      </g>
     </g>
     <g id="text_5">
      <!-- 2023-07 -->
      <g transform="translate(283.462363 409.301971) rotate(-30) scale(0.1 -0.1)">
       <use xlink:href="#DejaVuSans-32"/>
       <use xlink:href="#DejaVuSans-30" x="63.623047"/>
       <use xlink:href="#DejaVuSans-32" x="127.246094"/>
       <use xlink:href="#DejaVuSans-33" x="190.869141"/>
       <use xlink:href="#DejaVuSans-2d" x="254.492188"/>
       <use xlink:href="#DejaVuSans-30" x="290.576172"/>
       <use xlink:href="#DejaVuSans-37" x="354.199219"/>
      </g>
     </g>
    </g>
    <g id="xtick_6">
     <g id="line2d_6">
      <g>
       <use xlink:href="#m3f9774b446" x="380.025657" y="374.830125" style="stroke: #000000; stroke-width: 0.8"/>
      </g>
     </g>
     <g id="text_6">
      <!-- 2024-01 -->
      <g transform="translate(342.800837 409.301971) rotate(-30) scale(0.1 -0.1)">
       <defs>
        <path id="DejaVuSans-34" d="M 2419 4116 
L 825 1625 
L 2419 1625 
L 2419 4116 
z
M 2253 4666 
L 3047 4666 
L 3047 1625 
L 3713 1625 
L 3713 1100 
L 3047 1100 
L 3047 0 
L 2419 0 
L 2419 1100 
L 313 1100 
L 313 1709 
L 2253 4666 
z
" transform="scale(0.015625)"/>
       </defs>
       <use xlink:href="#DejaVuSans-32"/>
       <use xlink:href="#DejaVuSans-30" x="63.623047"/>
       <use xlink:href="#DejaVuSans-32" x="127.246094"/>
       <use xlink:href="#DejaVuSans-34" x="190.869141"/>
       <use xlink:href="#DejaVuSans-2d" x="254.492188"/>
       <use xlink:href="#DejaVuSans-30" x="290.576172"/>
       <use xlink:href="#DejaVuSans-31" x="354.199219"/>
      </g>
     </g>
    </g>
    <g id="xtick_7">
     <g id="line2d_7">
      <g>
       <use xlink:href="#m3f9774b446" x="438.719148" y="374.830125" style="stroke: #000000; stroke-width: 0.8"/>
      </g>
     </g>
     <g id="text_7">
      <!-- 2024-07 -->
      <g transform="translate(401.494327 409.301971) rotate(-30) scale(0.1 -0.1)">
       <use xlink:href="#DejaVuSans-32"/>
       <use xlink:href="#DejaVuSans-30" x="63.623047"/>
       <use xlink:href="#DejaVuSans-32" x="127.246094"/>
       <use xlink:href="#DejaVuSans-34" x="190.869141"/>
       <use xlink:href="#DejaVuSans-2d" x="254.492188"/>
       <use xlink:href="#DejaVuSans-30" x="290.576172"/>
       <use xlink:href="#DejaVuSans-37" x="354.199219"/>
      </g>
     </g>
    </g>
    <g id="xtick_8">
     <g id="line2d_8">
      <g>
       <use xlink:href="#m3f9774b446" x="498.057622" y="374.830125" style="stroke: #000000; stroke-width: 0.8"/>
      </g>
     </g>
     <g id="text_8">
      <!-- 2025-01 -->
      <g transform="translate(460.832801 409.301971) rotate(-30) scale(0.1 -0.1)">
       <defs>
        <path id="DejaVuSans-35" d="M 691 4666 
L 3169 4666 
L 3169 4134 
L 1269 4134 
L 1269 2991 
Q 1406 3038 1543 3061 
Q 1681 3084 1819 3084 
Q 2600 3084 3056 2656 
Q 3513 2228 3513 1497 
Q 3513 744 3044 326 
Q 2575 -91 1722 -91 
Q 1428 -91 1123 -41 
Q 819 9 494 109 
L 494 744 
Q 775 591 1075 516 
Q 1375 441 1709 441 
Q 2250 441 2565 725 
Q 2881 1009 2881 1497 
Q 2881 1984 2565 2268 
Q 2250 2553 1709 2553 
Q 1456 2553 1204 2497 
Q 953 2441 691 2322 
L 691 4666 
z
" transform="scale(0.015625)"/>
       </defs>
       <use xlink:href="#DejaVuSans-32"/>
       <use xlink:href="#DejaVuSans-30" x="63.623047"/>
       <use xlink:href="#DejaVuSans-32" x="127.246094"/>
       <use xlink:href="#DejaVuSans-35" x="190.869141"/>
       <use xlink:href="#DejaVuSans-2d" x="254.492188"/>
       <use xlink:href="#DejaVuSans-30" x="290.576172"/>
       <use xlink:href="#DejaVuSans-31" x="354.199219"/>
      </g>
     </g>
    </g>
    <g id="xtick_9">
     <g id="line2d_9">
      <g>
       <use xlink:href="#m3f9774b446" x="556.428621" y="374.830125" style="stroke: #000000; stroke-width: 0.8"/>
      </g>
     </g>
     <g id="text_9">
      <!-- 2025-07 -->
      <g transform="translate(519.2038 409.301971) rotate(-30) scale(0.1 -0.1)">
       <use xlink:href="#DejaVuSans-32"/>
       <use xlink:href="#DejaVuSans-30" x="63.623047"/>
       <use xlink:href="#DejaVuSans-32" x="127.246094"/>
       <use xlink:href="#DejaVuSans-35" x="190.869141"/>
       <use xlink:href="#DejaVuSans-2d" x="254.492188"/>
       <use xlink:href="#DejaVuSans-30" x="290.576172"/>
       <use xlink:href="#DejaVuSans-37" x="354.199219"/>
      </g>
     </g>
    </g>
   </g>
   <g id="matplotlib.axis_2">
    <g id="ytick_1">
     <g id="line2d_10">
      <defs>
       <path id="m59998adb69" d="M 0 0 
L -3.5 0 
" style="stroke: #000000; stroke-width: 0.8"/>
      </defs>
      <g>
       <use xlink:href="#m59998adb69" x="52.375" y="344.431564" style="stroke: #000000; stroke-width: 0.8"/>
      </g>
     </g>
     <g id="text_10">
      <!-- 20000 -->
      <g transform="translate(13.5625 348.230783) scale(0.1 -0.1)">
       <use xlink:href="#DejaVuSans-32"/>
       <use xlink:href="#DejaVuSans-30" x="63.623047"/>
       <use xlink:href="#DejaVuSans-30" x="127.246094"/>
       <use xlink:href="#DejaVuSans-30" x="190.869141"/>
       <use xlink:href="#DejaVuSans-30" x="254.492188"/>
      </g>
     </g>
    </g>
    <g id="ytick_2">
     <g id="line2d_11">
      <g>
       <use xlink:href="#m59998adb69" x="52.375" y="297.898644" style="stroke: #000000; stroke-width: 0.8"/>
      </g>
     </g>
     <g id="text_11">
      <!-- 40000 -->
      <g transform="translate(13.5625 301.697862) scale(0.1 -0.1)">
       <use xlink:href="#DejaVuSans-34"/>
       <use xlink:href="#DejaVuSans-30" x="63.623047"/>
       <use xlink:href="#DejaVuSans-30" x="127.246094"/>
       <use xlink:href="#DejaVuSans-30" x="190.869141"/>
       <use xlink:href="#DejaVuSans-30" x="254.492188"/>
      </g>
     </g>
    </g>
    <g id="ytick_3">
     <g id="line2d_12">
      <g>
       <use xlink:href="#m59998adb69" x="52.375" y="251.365723" style="stroke: #000000; stroke-width: 0.8"/>
      </g>
     </g>
     <g id="text_12">
      <!-- 60000 -->
      <g transform="translate(13.5625 255.164942) scale(0.1 -0.1)">
       <defs>
        <path id="DejaVuSans-36" d="M 2113 2584 
Q 1688 2584 1439 2293 
Q 1191 2003 1191 1497 
Q 1191 994 1439 701 
Q 1688 409 2113 409 
Q 2538 409 2786 701 
Q 3034 994 3034 1497 
Q 3034 2003 2786 2293 
Q 2538 2584 2113 2584 
z
M 3366 4563 
L 3366 3988 
Q 3128 4100 2886 4159 
Q 2644 4219 2406 4219 
Q 1781 4219 1451 3797 
Q 1122 3375 1075 2522 
Q 1259 2794 1537 2939 
Q 1816 3084 2150 3084 
Q 2853 3084 3261 2657 
Q 3669 2231 3669 1497 
Q 3669 778 3244 343 
Q 2819 -91 2113 -91 
Q 1303 -91 875 529 
Q 447 1150 447 2328 
Q 447 3434 972 4092 
Q 1497 4750 2381 4750 
Q 2619 4750 2861 4703 
Q 3103 4656 3366 4563 
z
" transform="scale(0.015625)"/>
       </defs>
       <use xlink:href="#DejaVuSans-36"/>
       <use xlink:href="#DejaVuSans-30" x="63.623047"/>
       <use xlink:href="#DejaVuSans-30" x="127.246094"/>
       <use xlink:href="#DejaVuSans-30" x="190.869141"/>
       <use xlink:href="#DejaVuSans-30" x="254.492188"/>
      </g>
     </g>
    </g>
    <g id="ytick_4">
     <g id="line2d_13">
      <g>
       <use xlink:href="#m59998adb69" x="52.375" y="204.832803" style="stroke: #000000; stroke-width: 0.8"/>
      </g>
     </g>
     <g id="text_13">
      <!-- 80000 -->
      <g transform="translate(13.5625 208.632022) scale(0.1 -0.1)">
       <defs>
        <path id="DejaVuSans-38" d="M 2034 2216 
Q 1584 2216 1326 1975 
Q 1069 1734 1069 1313 
Q 1069 891 1326 650 
Q 1584 409 2034 409 
Q 2484 409 2743 651 
Q 3003 894 3003 1313 
Q 3003 1734 2745 1975 
Q 2488 2216 2034 2216 
z
M 1403 2484 
Q 997 2584 770 2862 
Q 544 3141 544 3541 
Q 544 4100 942 4425 
Q 1341 4750 2034 4750 
Q 2731 4750 3128 4425 
Q 3525 4100 3525 3541 
Q 3525 3141 3298 2862 
Q 3072 2584 2669 2484 
Q 3125 2378 3379 2068 
Q 3634 1759 3634 1313 
Q 3634 634 3220 271 
Q 2806 -91 2034 -91 
Q 1263 -91 848 271 
Q 434 634 434 1313 
Q 434 1759 690 2068 
Q 947 2378 1403 2484 
z
M 1172 3481 
Q 1172 3119 1398 2916 
Q 1625 2713 2034 2713 
Q 2441 2713 2670 2916 
Q 2900 3119 2900 3481 
Q 2900 3844 2670 4047 
Q 2441 4250 2034 4250 
Q 1625 4250 1398 4047 
Q 1172 3844 1172 3481 
z
" transform="scale(0.015625)"/>
       </defs>
       <use xlink:href="#DejaVuSans-38"/>
       <use xlink:href="#DejaVuSans-30" x="63.623047"/>
       <use xlink:href="#DejaVuSans-30" x="127.246094"/>
       <use xlink:href="#DejaVuSans-30" x="190.869141"/>
       <use xlink:href="#DejaVuSans-30" x="254.492188"/>
      </g>
     </g>
    </g>
    <g id="ytick_5">
     <g id="line2d_14">
      <g>
       <use xlink:href="#m59998adb69" x="52.375" y="158.299882" style="stroke: #000000; stroke-width: 0.8"/>
      </g>
     </g>
     <g id="text_14">
      <!-- 100000 -->
      <g transform="translate(7.2 162.099101) scale(0.1 -0.1)">
       <use xlink:href="#DejaVuSans-31"/>
       <use xlink:href="#DejaVuSans-30" x="63.623047"/>
       <use xlink:href="#DejaVuSans-30" x="127.246094"/>
       <use xlink:href="#DejaVuSans-30" x="190.869141"/>
       <use xlink:href="#DejaVuSans-30" x="254.492188"/>
       <use xlink:href="#DejaVuSans-30" x="318.115234"/>
      </g>
     </g>
    </g>
    <g id="ytick_6">
     <g id="line2d_15">
      <g>
       <use xlink:href="#m59998adb69" x="52.375" y="111.766962" style="stroke: #000000; stroke-width: 0.8"/>
      </g>
     </g>
     <g id="text_15">
      <!-- 120000 -->
      <g transform="translate(7.2 115.566181) scale(0.1 -0.1)">
       <use xlink:href="#DejaVuSans-31"/>
       <use xlink:href="#DejaVuSans-32" x="63.623047"/>
       <use xlink:href="#DejaVuSans-30" x="127.246094"/>
       <use xlink:href="#DejaVuSans-30" x="190.869141"/>
       <use xlink:href="#DejaVuSans-30" x="254.492188"/>
       <use xlink:href="#DejaVuSans-30" x="318.115234"/>
      </g>
     </g>
    </g>
    <g id="ytick_7">
     <g id="line2d_16">
      <g>
       <use xlink:href="#m59998adb69" x="52.375" y="65.234042" style="stroke: #000000; stroke-width: 0.8"/>
      </g>
     </g>
     <g id="text_16">
      <!-- 140000 -->
      <g transform="translate(7.2 69.03326) scale(0.1 -0.1)">
       <use xlink:href="#DejaVuSans-31"/>
       <use xlink:href="#DejaVuSans-34" x="63.623047"/>
       <use xlink:href="#DejaVuSans-30" x="127.246094"/>
       <use xlink:href="#DejaVuSans-30" x="190.869141"/>
       <use xlink:href="#DejaVuSans-30" x="254.492188"/>
       <use xlink:href="#DejaVuSans-30" x="318.115234"/>
      </g>
     </g>
    </g>
   </g>
   <g id="line2d_17">
    <path d="M 57.626765 195.470379 
L 74.421868 178.485863 
L 82.852671 174.214141 
L 88.755631 167.485481 
L 103.00112 166.992232 
L 109.054386 162.348246 
L 129.8952 159.770323 
L 140.70763 159.69587 
L 154.193286 129.449472 
L 154.373366 129.496005 
L 155.905769 129.505311 
L 158.782264 124.675194 
L 159.030127 124.340157 
L 159.252736 124.991618 
L 160.107156 124.982311 
L 160.428043 124.647274 
L 160.959259 124.637968 
L 161.345013 124.209865 
L 162.130467 124.284318 
L 162.496992 131.515533 
L 164.769513 131.49692 
L 165.235752 130.128852 
L 165.806727 130.184692 
L 169.764458 130.128852 
L 170.072669 139.75186 
L 170.432393 139.75186 
L 170.761058 140.226496 
L 172.615225 140.226496 
L 172.952848 137.676492 
L 174.524275 137.536893 
L 175.692908 137.620653 
L 175.748303 163.86522 
L 177.724012 160.244958 
L 177.825672 160.244958 
L 178.123626 154.800607 
L 181.701731 154.735461 
L 182.041915 157.248238 
L 182.12352 157.211012 
L 183.617492 157.155173 
L 184.911195 157.10864 
L 185.043801 154.7913 
L 185.499213 157.099333 
L 187.143588 156.503712 
L 188.353496 156.559551 
L 188.809138 154.288745 
L 189.233383 154.456263 
L 189.67588 148.285998 
L 191.248139 148.183625 
L 193.932528 148.137093 
L 194.108513 147.169208 
L 194.729888 148.137093 
L 195.261156 148.155706 
L 198.254488 147.169208 
L 205.215725 147.550778 
L 205.519255 147.2995 
L 206.519659 147.206434 
L 206.707775 147.159901 
L 210.64812 147.057529 
L 212.547342 146.964463 
L 213.304642 146.964463 
L 213.595071 135.656963 
L 213.897172 135.656963 
L 214.223385 135.498751 
L 216.167816 135.461525 
L 216.740828 135.238167 
L 218.050936 135.247474 
L 218.460347 134.568093 
L 219.094656 134.651852 
L 225.824811 134.726305 
L 226.158049 133.637435 
L 226.798751 133.637435 
L 234.304219 132.427579 
L 236.220454 132.334513 
L 236.857581 132.28798 
L 237.04307 153.553524 
L 237.442015 153.553524 
L 237.791265 152.91137 
L 239.990375 152.827611 
L 247.497172 152.846224 
L 247.745147 152.864837 
L 248.099698 154.037467 
L 248.664278 154.037467 
L 249.245756 154.391117 
L 252.160738 154.372504 
L 254.040809 154.586555 
L 254.858299 154.586555 
L 257.803085 152.287829 
L 260.574591 152.287829 
L 261.146074 152.092391 
L 262.214943 151.999325 
L 263.280192 151.980712 
L 263.484407 152.064471 
L 270.305988 152.017938 
L 271.023028 151.00352 
L 279.431741 151.050053 
L 279.729248 150.836002 
L 279.934821 150.836002 
L 280.293783 176.075458 
L 280.612632 150.854615 
L 280.857965 185.261056 
L 281.578375 150.863922 
L 284.121614 150.845309 
L 284.39016 149.309722 
L 284.663568 149.309722 
L 285.17449 150.286913 
L 285.450762 150.305527 
L 289.710997 182.422548 
L 290.450544 182.431855 
L 290.778216 182.869264 
L 290.902212 182.850651 
L 291.122353 184.544449 
L 291.932304 182.841345 
L 297.44412 182.794812 
L 297.742735 179.900464 
L 298.353621 179.946997 
L 299.054029 179.93769 
L 299.165378 175.963779 
L 299.487949 175.963779 
L 299.739317 173.302096 
L 301.346923 173.292789 
L 301.637065 173.153191 
L 302.072518 173.26487 
L 302.145131 173.190417 
L 305.496995 173.125271 
L 306.233019 173.097351 
L 310.461897 172.957752 
L 310.650685 166.768874 
L 310.938965 166.982925 
L 311.111509 166.86194 
L 312.116742 168.164862 
L 313.22028 168.00665 
L 314.481305 168.053182 
L 315.134772 168.053182 
L 315.367134 168.257927 
L 315.863644 168.053182 
L 316.717732 167.97873 
L 316.854788 167.699532 
L 316.936418 167.997343 
L 318.604828 167.988036 
L 319.140044 168.062489 
L 319.89787 168.062489 
L 321.532451 167.876357 
L 322.294036 168.062489 
L 322.420625 163.632555 
L 323.893565 163.641862 
L 324.49568 163.604635 
L 324.776498 157.834553 
L 330.16177 157.778714 
L 330.779946 158.22543 
L 331.511114 157.769407 
L 332.496546 157.546049 
L 333.892909 157.564662 
L 334.449588 157.797327 
L 335.992252 157.78802 
L 336.727813 157.685648 
L 337.029984 157.443677 
L 338.246316 157.425063 
L 338.671008 144.917014 
L 339.515589 144.954241 
L 341.884672 144.889095 
L 342.121516 144.014276 
L 342.893742 143.995663 
L 346.090288 143.94913 
L 346.440498 143.94913 
L 349.368439 143.86537 
L 350.30661 143.604786 
L 350.988295 143.465187 
L 351.752918 143.465187 
L 352.249424 150.007716 
L 353.35067 149.998409 
L 353.855202 149.607533 
L 355.857614 149.50516 
L 357.112204 149.421401 
L 357.739133 149.449321 
L 358.430915 149.412095 
L 362.807209 149.440014 
L 363.084313 147.159901 
L 363.192979 149.384175 
L 365.342196 149.374868 
L 365.526725 150.938374 
L 365.829584 150.910455 
L 365.951526 150.752243 
L 366.163001 150.742936 
L 366.618923 150.919761 
L 367.123141 150.919761 
L 367.30495 151.180346 
L 367.375883 150.882535 
L 368.058397 150.882535 
L 368.572279 150.696403 
L 369.048107 150.67779 
L 369.282708 150.994214 
L 369.681281 150.994214 
L 369.941625 151.161732 
L 372.955519 151.08728 
L 373.114391 140.915183 
L 373.210355 151.096586 
L 374.466498 151.08728 
L 375.053709 151.208265 
L 375.087425 151.180346 
L 377.662043 151.189652 
L 378.069036 151.08728 
L 378.743111 151.040747 
L 378.906551 151.022134 
L 378.97613 147.122675 
L 379.048216 147.141288 
L 380.340188 147.104062 
L 380.451709 147.262274 
L 386.018886 147.085449 
L 392.388478 147.104062 
L 392.569592 150.500965 
L 398.199002 150.500965 
L 405.96022 150.35206 
L 406.07482 157.834553 
L 408.984506 157.7601 
L 409.211325 157.694954 
L 410.961566 157.685648 
L 415.926763 157.592582 
L 416.015877 156.922508 
L 417.185746 156.931815 
L 417.202848 156.875975 
L 430.273616 160.04952 
L 432.803183 160.030907 
L 433.257441 161.60372 
L 433.453795 161.60372 
L 461.12748 150.584724 
L 467.926233 150.519578 
L 468.003179 150.082169 
L 469.131598 150.082169 
L 470.731716 149.709905 
L 473.663121 149.709905 
L 473.850969 147.932348 
L 477.501526 147.950961 
L 477.850239 145.233438 
L 478.784189 145.242745 
L 487.206429 145.224132 
L 487.58495 147.32742 
L 489.172744 147.32742 
L 492.795054 142.906792 
L 498.914651 142.80442 
L 500.752197 142.767194 
L 500.967225 138.113901 
L 501.102515 145.307891 
L 501.626411 145.326504 
L 502.575492 145.177599 
L 502.702118 145.205519 
L 502.785537 140.086897 
L 503.054112 140.756971 
L 503.331003 140.691825 
L 503.843231 127.718447 
L 504.292648 127.634688 
L 504.393065 127.495089 
L 505.287643 127.476476 
L 505.608448 127.290344 
L 514.352538 127.35549 
L 514.799995 127.160052 
L 515.572803 127.160052 
L 515.815012 127.569542 
L 518.257648 127.625381 
L 518.561223 128.137243 
L 522.388636 128.044178 
L 522.443008 124.014427 
L 524.162441 123.939974 
L 524.633297 123.874828 
L 525.441524 123.809682 
L 525.648347 123.744536 
L 526.567203 123.735229 
L 526.854914 123.716616 
L 527.087373 130.491809 
L 527.836151 130.473196 
L 528.026089 128.230309 
L 528.172065 128.239616 
L 528.495927 128.100017 
L 530.007088 128.09071 
L 530.134405 127.904579 
L 531.427795 127.885966 
L 531.59187 127.70914 
L 532.738813 127.746367 
L 532.837259 127.588155 
L 533.437108 127.625381 
L 534.982717 127.467169 
L 535.122736 127.43925 
L 535.580039 127.43925 
L 538.503139 128.314068 
L 541.375637 128.407134 
L 543.09793 128.816624 
L 543.412982 128.816624 
L 543.709551 128.686332 
L 544.032868 128.677025 
L 544.661481 128.760784 
L 545.044518 128.704945 
L 545.411957 126.750562 
L 545.566876 127.076293 
L 545.754238 127.076293 
L 545.964717 126.527204 
L 547.013292 126.527204 
L 547.24667 142.125039 
L 547.931199 142.125039 
L 548.271734 85.466555 
L 548.501677 85.382796 
L 548.9322 85.178051 
L 549.212481 85.140825 
L 549.607488 84.712722 
L 550.152618 84.414911 
L 550.211283 84.275313 
L 551.244678 84.22878 
L 551.858577 84.117101 
L 553.126414 84.061261 
L 553.445102 83.958889 
L 553.700374 83.912356 
L 554.484921 83.46564 
L 554.586805 83.530786 
L 554.609555 83.260895 
L 554.968323 83.195749 
L 555.4673 83.46564 
L 555.967066 83.372574 
L 556.056871 83.279508 
L 556.206788 84.098487 
L 556.26621 83.809983 
L 556.361476 83.81929 
L 559.141186 83.809983 
L 559.205894 80.720197 
L 559.427581 79.622021 
L 560.528031 79.584794 
L 560.781184 78.700669 
L 562.060322 78.654136 
L 562.952195 78.654136 
L 563.40901 78.682056 
L 563.785231 78.682056 
L 564.344512 79.063625 
L 564.957586 78.728588 
L 565.073925 78.402858 
L 565.301659 78.440084 
L 565.7307 78.682056 
L 565.895383 78.170193 
L 566.229312 78.1795 
L 566.32445 77.835156 
L 566.574508 85.354876 
L 567.244168 85.354876 
L 567.301708 35.443666 
L 567.896616 35.443666 
L 567.956408 35.32268 
L 568.215894 35.331987 
L 568.272935 35.201695 
L 568.482562 35.359907 
L 568.652519 33.88016 
L 570.045822 33.861547 
L 570.056489 33.358991 
L 570.382714 33.349684 
L 570.493122 33.200779 
L 571.444484 33.182166 
L 571.544012 33.666108 
L 572.552911 33.647495 
L 572.796956 33.172859 
L 573.657703 33.172859 
L 573.757328 33.368298 
L 574.882649 33.377604 
L 575.285196 32.893662 
L 576.262999 32.893662 
L 576.507081 32.605158 
L 577.227089 32.605158 
L 577.349173 32.865742 
L 577.633189 32.865742 
L 577.824919 26.230148 
L 579.160277 26.33252 
L 579.600855 26.369746 
L 580.190974 26.462812 
L 580.64144 26.109162 
L 580.895734 26.137082 
L 581.181106 25.774125 
L 582.009984 25.774125 
L 582.410101 27.319018 
L 582.803235 27.291098 
L 582.803235 27.291098 
" clip-path="url(#pf6644d0d2c)" style="fill: none; stroke-dasharray: 3,1.5; stroke-dashoffset: 0; stroke: #808080; stroke-width: 1.5"/>
   </g>
   <g id="line2d_18">
    <path d="M 57.626765 367.251308 
L 74.421868 366.404409 
L 82.852671 365.129407 
L 88.755631 362.030315 
L 103.00112 362.318819 
L 109.054386 361.974475 
L 140.70763 361.630131 
L 155.905769 360.234144 
L 158.782264 359.694362 
L 159.030127 359.787428 
L 159.412918 359.703669 
L 160.688769 359.666442 
L 162.130467 359.675749 
L 162.496992 361.257868 
L 169.764458 361.276481 
L 170.072669 362.17922 
L 174.524275 362.048928 
L 175.748303 362.132687 
L 177.825672 361.38816 
L 179.118916 361.360241 
L 185.499213 361.295094 
L 187.603632 361.118269 
L 189.233383 361.053123 
L 189.67588 359.56407 
L 193.932528 359.480311 
L 194.108513 358.661331 
L 194.729888 359.480311 
L 195.261156 359.471004 
L 198.254488 358.614798 
L 205.506751 358.493813 
L 205.519255 358.410053 
L 208.643733 358.307681 
L 213.304642 358.233228 
L 213.595071 357.702753 
L 213.897172 357.702753 
L 214.344913 357.591074 
L 220.83888 357.498008 
L 222.129082 357.479395 
L 226.798751 357.451475 
L 236.857581 357.460782 
L 237.04307 356.688335 
L 237.442015 356.688335 
L 237.791265 356.855854 
L 239.990375 356.818627 
L 243.449782 356.800014 
L 248.664278 356.51151 
L 254.858299 356.446364 
L 258.401001 355.990342 
L 269.070243 355.990342 
L 271.023028 355.934502 
L 274.199086 355.906582 
L 275.061001 355.915889 
L 279.934821 355.813516 
L 280.293783 362.56079 
L 280.612632 355.822823 
L 280.857965 371.374125 
L 281.578375 355.822823 
L 282.59683 355.80421 
L 282.851546 355.673918 
L 284.121614 355.673918 
L 284.39016 355.348187 
L 285.450762 355.329574 
L 289.710997 361.927942 
L 290.450544 361.955862 
L 290.778216 362.598016 
L 292.094666 362.579403 
L 299.054029 362.542177 
L 299.165378 362.328125 
L 308.42288 362.225753 
L 310.461897 362.188527 
L 310.650685 361.788343 
L 311.111509 361.779037 
L 312.634349 361.900022 
L 313.585532 361.853489 
L 322.294036 361.872103 
L 322.420625 361.38816 
L 324.49568 361.369547 
L 324.776498 360.364436 
L 333.892909 360.410969 
L 334.449588 360.252757 
L 338.246316 360.24345 
L 338.671008 359.229033 
L 347.414852 359.070821 
L 350.234893 359.024288 
L 350.30661 358.931222 
L 351.221366 358.856769 
L 351.752918 358.856769 
L 352.598611 358.996368 
L 355.340448 358.893996 
L 357.112204 358.856769 
L 359.221956 358.856769 
L 360.489621 358.847463 
L 362.807209 358.912609 
L 363.084313 360.103852 
L 363.192979 358.912609 
L 365.342196 358.912609 
L 365.670047 359.15458 
L 365.829584 359.135967 
L 365.951526 359.005675 
L 366.163001 358.977755 
L 366.618923 359.135967 
L 367.123141 359.135967 
L 367.30495 359.266259 
L 367.375883 359.135967 
L 368.058397 359.135967 
L 368.572279 358.977755 
L 369.048107 358.949835 
L 369.282708 359.15458 
L 369.681281 359.15458 
L 369.941625 359.322099 
L 378.906551 359.256953 
L 379.048216 358.856769 
L 383.158343 358.77301 
L 383.177402 358.717171 
L 386.018886 358.726477 
L 392.388478 358.726477 
L 392.569592 360.131771 
L 405.40908 360.057319 
L 405.431987 360.020092 
L 405.96022 360.020092 
L 406.07482 367.632878 
L 415.926763 367.586345 
L 416.015877 367.08379 
L 417.202848 367.08379 
L 430.273616 368.107514 
L 433.453795 368.135434 
L 473.663121 367.604958 
L 473.850969 367.242002 
L 489.172744 367.223388 
L 494.041118 366.953498 
L 500.752197 366.925578 
L 500.967225 366.357876 
L 501.273823 366.432329 
L 502.702118 366.367183 
L 502.785537 361.313708 
L 503.054112 361.974475 
L 504.050428 361.946555 
L 504.393065 361.79765 
L 518.257648 361.788343 
L 518.843649 361.695278 
L 522.388636 361.639438 
L 522.443008 361.332321 
L 527.836151 361.239255 
L 528.816164 361.239255 
L 541.375637 361.239255 
L 543.709551 361.108963 
L 545.044518 361.03451 
L 545.754238 360.913524 
L 545.964717 360.457502 
L 547.013292 360.457502 
L 547.24667 364.291815 
L 549.212481 364.291815 
L 549.752258 364.133603 
L 553.126414 364.08707 
L 553.700374 364.049843 
L 555.4673 363.686887 
L 556.056871 363.640354 
L 556.206788 364.450026 
L 556.282488 364.375574 
L 557.344307 364.394187 
L 559.141186 364.375574 
L 559.205894 361.546372 
L 560.781184 361.509146 
L 565.301659 361.499839 
L 565.606234 360.662247 
L 566.229312 360.615714 
L 566.32445 360.559874 
L 566.574508 360.690166 
L 567.244168 360.690166 
L 567.301708 360.159691 
L 576.262999 360.066625 
L 577.227089 360.020092 
L 577.824919 359.964253 
L 579.271276 359.927027 
L 581.074486 359.852574 
L 581.348555 359.759508 
L 582.803235 359.778121 
L 582.803235 359.778121 
" clip-path="url(#pf6644d0d2c)" style="fill: none; stroke-dasharray: 6,1.5; stroke-dashoffset: 0; stroke: #008000; stroke-width: 1.5"/>
   </g>
   <g id="patch_3">
    <path d="M 52.375 374.830125 
L 52.375 22.318125 
" style="fill: none; stroke: #000000; stroke-width: 0.8; stroke-linejoin: miter; stroke-linecap: square"/>
   </g>
   <g id="patch_4">
    <path d="M 588.055 374.830125 
L 588.055 22.318125 
" style="fill: none; stroke: #000000; stroke-width: 0.8; stroke-linejoin: miter; stroke-linecap: square"/>
   </g>
   <g id="patch_5">
    <path d="M 52.375 374.830125 
L 588.055 374.830125 
" style="fill: none; stroke: #000000; stroke-width: 0.8; stroke-linejoin: miter; stroke-linecap: square"/>
   </g>
   <g id="patch_6">
    <path d="M 52.375 22.318125 
L 588.055 22.318125 
" style="fill: none; stroke: #000000; stroke-width: 0.8; stroke-linejoin: miter; stroke-linecap: square"/>
   </g>
   <g id="text_17">
    <!-- Size evolution of Rust/Coreutils -->
    <g transform="translate(226.818437 16.318125) scale(0.12 -0.12)">
     <defs>
      <path id="DejaVuSans-53" d="M 3425 4513 
L 3425 3897 
Q 3066 4069 2747 4153 
Q 2428 4238 2131 4238 
Q 1616 4238 1336 4038 
Q 1056 3838 1056 3469 
Q 1056 3159 1242 3001 
Q 1428 2844 1947 2747 
L 2328 2669 
Q 3034 2534 3370 2195 
Q 3706 1856 3706 1288 
Q 3706 609 3251 259 
Q 2797 -91 1919 -91 
Q 1588 -91 1214 -16 
Q 841 59 441 206 
L 441 856 
Q 825 641 1194 531 
Q 1563 422 1919 422 
Q 2459 422 2753 634 
Q 3047 847 3047 1241 
Q 3047 1584 2836 1778 
Q 2625 1972 2144 2069 
L 1759 2144 
Q 1053 2284 737 2584 
Q 422 2884 422 3419 
Q 422 4038 858 4394 
Q 1294 4750 2059 4750 
Q 2388 4750 2728 4690 
Q 3069 4631 3425 4513 
z
" transform="scale(0.015625)"/>
      <path id="DejaVuSans-69" d="M 603 3500 
L 1178 3500 
L 1178 0 
L 603 0 
L 603 3500 
z
M 603 4863 
L 1178 4863 
L 1178 4134 
L 603 4134 
L 603 4863 
z
" transform="scale(0.015625)"/>
      <path id="DejaVuSans-7a" d="M 353 3500 
L 3084 3500 
L 3084 2975 
L 922 459 
L 3084 459 
L 3084 0 
L 275 0 
L 275 525 
L 2438 3041 
L 353 3041 
L 353 3500 
z
" transform="scale(0.015625)"/>
      <path id="DejaVuSans-65" d="M 3597 1894 
L 3597 1613 
L 953 1613 
Q 991 1019 1311 708 
Q 1631 397 2203 397 
Q 2534 397 2845 478 
Q 3156 559 3463 722 
L 3463 178 
Q 3153 47 2828 -22 
Q 2503 -91 2169 -91 
Q 1331 -91 842 396 
Q 353 884 353 1716 
Q 353 2575 817 3079 
Q 1281 3584 2069 3584 
Q 2775 3584 3186 3129 
Q 3597 2675 3597 1894 
z
M 3022 2063 
Q 3016 2534 2758 2815 
Q 2500 3097 2075 3097 
Q 1594 3097 1305 2825 
Q 1016 2553 972 2059 
L 3022 2063 
z
" transform="scale(0.015625)"/>
      <path id="DejaVuSans-20" transform="scale(0.015625)"/>
      <path id="DejaVuSans-76" d="M 191 3500 
L 800 3500 
L 1894 563 
L 2988 3500 
L 3597 3500 
L 2284 0 
L 1503 0 
L 191 3500 
z
" transform="scale(0.015625)"/>
      <path id="DejaVuSans-6f" d="M 1959 3097 
Q 1497 3097 1228 2736 
Q 959 2375 959 1747 
Q 959 1119 1226 758 
Q 1494 397 1959 397 
Q 2419 397 2687 759 
Q 2956 1122 2956 1747 
Q 2956 2369 2687 2733 
Q 2419 3097 1959 3097 
z
M 1959 3584 
Q 2709 3584 3137 3096 
Q 3566 2609 3566 1747 
Q 3566 888 3137 398 
Q 2709 -91 1959 -91 
Q 1206 -91 779 398 
Q 353 888 353 1747 
Q 353 2609 779 3096 
Q 1206 3584 1959 3584 
z
" transform="scale(0.015625)"/>
      <path id="DejaVuSans-6c" d="M 603 4863 
L 1178 4863 
L 1178 0 
L 603 0 
L 603 4863 
z
" transform="scale(0.015625)"/>
      <path id="DejaVuSans-75" d="M 544 1381 
L 544 3500 
L 1119 3500 
L 1119 1403 
Q 1119 906 1312 657 
Q 1506 409 1894 409 
Q 2359 409 2629 706 
Q 2900 1003 2900 1516 
L 2900 3500 
L 3475 3500 
L 3475 0 
L 2900 0 
L 2900 538 
Q 2691 219 2414 64 
Q 2138 -91 1772 -91 
Q 1169 -91 856 284 
Q 544 659 544 1381 
z
M 1991 3584 
L 1991 3584 
z
" transform="scale(0.015625)"/>
      <path id="DejaVuSans-74" d="M 1172 4494 
L 1172 3500 
L 2356 3500 
L 2356 3053 
L 1172 3053 
L 1172 1153 
Q 1172 725 1289 603 
Q 1406 481 1766 481 
L 2356 481 
L 2356 0 
L 1766 0 
Q 1100 0 847 248 
Q 594 497 594 1153 
L 594 3053 
L 172 3053 
L 172 3500 
L 594 3500 
L 594 4494 
L 1172 4494 
z
" transform="scale(0.015625)"/>
      <path id="DejaVuSans-6e" d="M 3513 2113 
L 3513 0 
L 2938 0 
L 2938 2094 
Q 2938 2591 2744 2837 
Q 2550 3084 2163 3084 
Q 1697 3084 1428 2787 
Q 1159 2491 1159 1978 
L 1159 0 
L 581 0 
L 581 3500 
L 1159 3500 
L 1159 2956 
Q 1366 3272 1645 3428 
Q 1925 3584 2291 3584 
Q 2894 3584 3203 3211 
Q 3513 2838 3513 2113 
z
" transform="scale(0.015625)"/>
      <path id="DejaVuSans-66" d="M 2375 4863 
L 2375 4384 
L 1825 4384 
Q 1516 4384 1395 4259 
Q 1275 4134 1275 3809 
L 1275 3500 
L 2222 3500 
L 2222 3053 
L 1275 3053 
L 1275 0 
L 697 0 
L 697 3053 
L 147 3053 
L 147 3500 
L 697 3500 
L 697 3744 
Q 697 4328 969 4595 
Q 1241 4863 1831 4863 
L 2375 4863 
z
" transform="scale(0.015625)"/>
      <path id="DejaVuSans-52" d="M 2841 2188 
Q 3044 2119 3236 1894 
Q 3428 1669 3622 1275 
L 4263 0 
L 3584 0 
L 2988 1197 
Q 2756 1666 2539 1819 
Q 2322 1972 1947 1972 
L 1259 1972 
L 1259 0 
L 628 0 
L 628 4666 
L 2053 4666 
Q 2853 4666 3247 4331 
Q 3641 3997 3641 3322 
Q 3641 2881 3436 2590 
Q 3231 2300 2841 2188 
z
M 1259 4147 
L 1259 2491 
L 2053 2491 
Q 2509 2491 2742 2702 
Q 2975 2913 2975 3322 
Q 2975 3731 2742 3939 
Q 2509 4147 2053 4147 
L 1259 4147 
z
" transform="scale(0.015625)"/>
      <path id="DejaVuSans-73" d="M 2834 3397 
L 2834 2853 
Q 2591 2978 2328 3040 
Q 2066 3103 1784 3103 
Q 1356 3103 1142 2972 
Q 928 2841 928 2578 
Q 928 2378 1081 2264 
Q 1234 2150 1697 2047 
L 1894 2003 
Q 2506 1872 2764 1633 
Q 3022 1394 3022 966 
Q 3022 478 2636 193 
Q 2250 -91 1575 -91 
Q 1294 -91 989 -36 
Q 684 19 347 128 
L 347 722 
Q 666 556 975 473 
Q 1284 391 1588 391 
Q 1994 391 2212 530 
Q 2431 669 2431 922 
Q 2431 1156 2273 1281 
Q 2116 1406 1581 1522 
L 1381 1569 
Q 847 1681 609 1914 
Q 372 2147 372 2553 
Q 372 3047 722 3315 
Q 1072 3584 1716 3584 
Q 2034 3584 2315 3537 
Q 2597 3491 2834 3397 
z
" transform="scale(0.015625)"/>
      <path id="DejaVuSans-2f" d="M 1625 4666 
L 2156 4666 
L 531 -594 
L 0 -594 
L 1625 4666 
z
" transform="scale(0.015625)"/>
      <path id="DejaVuSans-43" d="M 4122 4306 
L 4122 3641 
Q 3803 3938 3442 4084 
Q 3081 4231 2675 4231 
Q 1875 4231 1450 3742 
Q 1025 3253 1025 2328 
Q 1025 1406 1450 917 
Q 1875 428 2675 428 
Q 3081 428 3442 575 
Q 3803 722 4122 1019 
L 4122 359 
Q 3791 134 3420 21 
Q 3050 -91 2638 -91 
Q 1578 -91 968 557 
Q 359 1206 359 2328 
Q 359 3453 968 4101 
Q 1578 4750 2638 4750 
Q 3056 4750 3426 4639 
Q 3797 4528 4122 4306 
z
" transform="scale(0.015625)"/>
      <path id="DejaVuSans-72" d="M 2631 2963 
Q 2534 3019 2420 3045 
Q 2306 3072 2169 3072 
Q 1681 3072 1420 2755 
Q 1159 2438 1159 1844 
L 1159 0 
L 581 0 
L 581 3500 
L 1159 3500 
L 1159 2956 
Q 1341 3275 1631 3429 
Q 1922 3584 2338 3584 
Q 2397 3584 2469 3576 
Q 2541 3569 2628 3553 
L 2631 2963 
z
" transform="scale(0.015625)"/>
     </defs>
     <use xlink:href="#DejaVuSans-53"/>
     <use xlink:href="#DejaVuSans-69" x="63.476562"/>
     <use xlink:href="#DejaVuSans-7a" x="91.259766"/>
     <use xlink:href="#DejaVuSans-65" x="143.75"/>
     <use xlink:href="#DejaVuSans-20" x="205.273438"/>
     <use xlink:href="#DejaVuSans-65" x="237.060547"/>
     <use xlink:href="#DejaVuSans-76" x="298.583984"/>
     <use xlink:href="#DejaVuSans-6f" x="357.763672"/>
     <use xlink:href="#DejaVuSans-6c" x="418.945312"/>
     <use xlink:href="#DejaVuSans-75" x="446.728516"/>
     <use xlink:href="#DejaVuSans-74" x="510.107422"/>
     <use xlink:href="#DejaVuSans-69" x="549.316406"/>
     <use xlink:href="#DejaVuSans-6f" x="577.099609"/>
     <use xlink:href="#DejaVuSans-6e" x="638.28125"/>
     <use xlink:href="#DejaVuSans-20" x="701.660156"/>
     <use xlink:href="#DejaVuSans-6f" x="733.447266"/>
     <use xlink:href="#DejaVuSans-66" x="794.628906"/>
     <use xlink:href="#DejaVuSans-20" x="829.833984"/>
     <use xlink:href="#DejaVuSans-52" x="861.621094"/>
     <use xlink:href="#DejaVuSans-75" x="926.603516"/>
     <use xlink:href="#DejaVuSans-73" x="989.982422"/>
     <use xlink:href="#DejaVuSans-74" x="1042.082031"/>
     <use xlink:href="#DejaVuSans-2f" x="1081.291016"/>
     <use xlink:href="#DejaVuSans-43" x="1114.982422"/>
     <use xlink:href="#DejaVuSans-6f" x="1184.806641"/>
     <use xlink:href="#DejaVuSans-72" x="1245.988281"/>
     <use xlink:href="#DejaVuSans-65" x="1284.851562"/>
     <use xlink:href="#DejaVuSans-75" x="1346.375"/>
     <use xlink:href="#DejaVuSans-74" x="1409.753906"/>
     <use xlink:href="#DejaVuSans-69" x="1448.962891"/>
     <use xlink:href="#DejaVuSans-6c" x="1476.746094"/>
     <use xlink:href="#DejaVuSans-73" x="1504.529297"/>
    </g>
   </g>
   <g id="legend_1">
    <g id="patch_7">
     <path d="M 59.375 59.674375 
L 258.303125 59.674375 
Q 260.303125 59.674375 260.303125 57.674375 
L 260.303125 29.318125 
Q 260.303125 27.318125 258.303125 27.318125 
L 59.375 27.318125 
Q 57.375 27.318125 57.375 29.318125 
L 57.375 57.674375 
Q 57.375 59.674375 59.375 59.674375 
z
" style="fill: #ffffff; opacity: 0.8; stroke: #cccccc; stroke-linejoin: miter"/>
    </g>
    <g id="line2d_19">
     <path d="M 61.375 35.416562 
L 71.375 35.416562 
L 81.375 35.416562 
" style="fill: none; stroke-dasharray: 3,1.5; stroke-dashoffset: 0; stroke: #808080; stroke-width: 1.5"/>
    </g>
    <g id="text_18">
     <!-- Size: multiple binaries (kilobytes) -->
     <g transform="translate(89.375 38.916562) scale(0.1 -0.1)">
      <defs>
       <path id="DejaVuSans-3a" d="M 750 794 
L 1409 794 
L 1409 0 
L 750 0 
L 750 794 
z
M 750 3309 
L 1409 3309 
L 1409 2516 
L 750 2516 
L 750 3309 
z
" transform="scale(0.015625)"/>
       <path id="DejaVuSans-6d" d="M 3328 2828 
Q 3544 3216 3844 3400 
Q 4144 3584 4550 3584 
Q 5097 3584 5394 3201 
Q 5691 2819 5691 2113 
L 5691 0 
L 5113 0 
L 5113 2094 
Q 5113 2597 4934 2840 
Q 4756 3084 4391 3084 
Q 3944 3084 3684 2787 
Q 3425 2491 3425 1978 
L 3425 0 
L 2847 0 
L 2847 2094 
Q 2847 2600 2669 2842 
Q 2491 3084 2119 3084 
Q 1678 3084 1418 2786 
Q 1159 2488 1159 1978 
L 1159 0 
L 581 0 
L 581 3500 
L 1159 3500 
L 1159 2956 
Q 1356 3278 1631 3431 
Q 1906 3584 2284 3584 
Q 2666 3584 2933 3390 
Q 3200 3197 3328 2828 
z
" transform="scale(0.015625)"/>
       <path id="DejaVuSans-70" d="M 1159 525 
L 1159 -1331 
L 581 -1331 
L 581 3500 
L 1159 3500 
L 1159 2969 
Q 1341 3281 1617 3432 
Q 1894 3584 2278 3584 
Q 2916 3584 3314 3078 
Q 3713 2572 3713 1747 
Q 3713 922 3314 415 
Q 2916 -91 2278 -91 
Q 1894 -91 1617 61 
Q 1341 213 1159 525 
z
M 3116 1747 
Q 3116 2381 2855 2742 
Q 2594 3103 2138 3103 
Q 1681 3103 1420 2742 
Q 1159 2381 1159 1747 
Q 1159 1113 1420 752 
Q 1681 391 2138 391 
Q 2594 391 2855 752 
Q 3116 1113 3116 1747 
z
" transform="scale(0.015625)"/>
       <path id="DejaVuSans-62" d="M 3116 1747 
Q 3116 2381 2855 2742 
Q 2594 3103 2138 3103 
Q 1681 3103 1420 2742 
Q 1159 2381 1159 1747 
Q 1159 1113 1420 752 
Q 1681 391 2138 391 
Q 2594 391 2855 752 
Q 3116 1113 3116 1747 
z
M 1159 2969 
Q 1341 3281 1617 3432 
Q 1894 3584 2278 3584 
Q 2916 3584 3314 3078 
Q 3713 2572 3713 1747 
Q 3713 922 3314 415 
Q 2916 -91 2278 -91 
Q 1894 -91 1617 61 
Q 1341 213 1159 525 
L 1159 0 
L 581 0 
L 581 4863 
L 1159 4863 
L 1159 2969 
z
" transform="scale(0.015625)"/>
       <path id="DejaVuSans-61" d="M 2194 1759 
Q 1497 1759 1228 1600 
Q 959 1441 959 1056 
Q 959 750 1161 570 
Q 1363 391 1709 391 
Q 2188 391 2477 730 
Q 2766 1069 2766 1631 
L 2766 1759 
L 2194 1759 
z
M 3341 1997 
L 3341 0 
L 2766 0 
L 2766 531 
Q 2569 213 2275 61 
Q 1981 -91 1556 -91 
Q 1019 -91 701 211 
Q 384 513 384 1019 
Q 384 1609 779 1909 
Q 1175 2209 1959 2209 
L 2766 2209 
L 2766 2266 
Q 2766 2663 2505 2880 
Q 2244 3097 1772 3097 
Q 1472 3097 1187 3025 
Q 903 2953 641 2809 
L 641 3341 
Q 956 3463 1253 3523 
Q 1550 3584 1831 3584 
Q 2591 3584 2966 3190 
Q 3341 2797 3341 1997 
z
" transform="scale(0.015625)"/>
       <path id="DejaVuSans-28" d="M 1984 4856 
Q 1566 4138 1362 3434 
Q 1159 2731 1159 2009 
Q 1159 1288 1364 580 
Q 1569 -128 1984 -844 
L 1484 -844 
Q 1016 -109 783 600 
Q 550 1309 550 2009 
Q 550 2706 781 3412 
Q 1013 4119 1484 4856 
L 1984 4856 
z
" transform="scale(0.015625)"/>
       <path id="DejaVuSans-6b" d="M 581 4863 
L 1159 4863 
L 1159 1991 
L 2875 3500 
L 3609 3500 
L 1753 1863 
L 3688 0 
L 2938 0 
L 1159 1709 
L 1159 0 
L 581 0 
L 581 4863 
z
" transform="scale(0.015625)"/>
       <path id="DejaVuSans-79" d="M 2059 -325 
Q 1816 -950 1584 -1140 
Q 1353 -1331 966 -1331 
L 506 -1331 
L 506 -850 
L 844 -850 
Q 1081 -850 1212 -737 
Q 1344 -625 1503 -206 
L 1606 56 
L 191 3500 
L 800 3500 
L 1894 763 
L 2988 3500 
L 3597 3500 
L 2059 -325 
z
" transform="scale(0.015625)"/>
       <path id="DejaVuSans-29" d="M 513 4856 
L 1013 4856 
Q 1481 4119 1714 3412 
Q 1947 2706 1947 2009 
Q 1947 1309 1714 600 
Q 1481 -109 1013 -844 
L 513 -844 
Q 928 -128 1133 580 
Q 1338 1288 1338 2009 
Q 1338 2731 1133 3434 
Q 928 4138 513 4856 
z
" transform="scale(0.015625)"/>
      </defs>
      <use xlink:href="#DejaVuSans-53"/>
      <use xlink:href="#DejaVuSans-69" x="63.476562"/>
      <use xlink:href="#DejaVuSans-7a" x="91.259766"/>
      <use xlink:href="#DejaVuSans-65" x="143.75"/>
      <use xlink:href="#DejaVuSans-3a" x="205.273438"/>
      <use xlink:href="#DejaVuSans-20" x="238.964844"/>
      <use xlink:href="#DejaVuSans-6d" x="270.751953"/>
      <use xlink:href="#DejaVuSans-75" x="368.164062"/>
      <use xlink:href="#DejaVuSans-6c" x="431.542969"/>
      <use xlink:href="#DejaVuSans-74" x="459.326172"/>
      <use xlink:href="#DejaVuSans-69" x="498.535156"/>
      <use xlink:href="#DejaVuSans-70" x="526.318359"/>
      <use xlink:href="#DejaVuSans-6c" x="589.794922"/>
      <use xlink:href="#DejaVuSans-65" x="617.578125"/>
      <use xlink:href="#DejaVuSans-20" x="679.101562"/>
      <use xlink:href="#DejaVuSans-62" x="710.888672"/>
      <use xlink:href="#DejaVuSans-69" x="774.365234"/>
      <use xlink:href="#DejaVuSans-6e" x="802.148438"/>
      <use xlink:href="#DejaVuSans-61" x="865.527344"/>
      <use xlink:href="#DejaVuSans-72" x="926.806641"/>
      <use xlink:href="#DejaVuSans-69" x="967.919922"/>
      <use xlink:href="#DejaVuSans-65" x="995.703125"/>
      <use xlink:href="#DejaVuSans-73" x="1057.226562"/>
      <use xlink:href="#DejaVuSans-20" x="1109.326172"/>
      <use xlink:href="#DejaVuSans-28" x="1141.113281"/>
      <use xlink:href="#DejaVuSans-6b" x="1180.126953"/>
      <use xlink:href="#DejaVuSans-69" x="1238.037109"/>
      <use xlink:href="#DejaVuSans-6c" x="1265.820312"/>
      <use xlink:href="#DejaVuSans-6f" x="1293.603516"/>
      <use xlink:href="#DejaVuSans-62" x="1354.785156"/>
      <use xlink:href="#DejaVuSans-79" x="1418.261719"/>
      <use xlink:href="#DejaVuSans-74" x="1477.441406"/>
      <use xlink:href="#DejaVuSans-65" x="1516.650391"/>
      <use xlink:href="#DejaVuSans-73" x="1578.173828"/>
      <use xlink:href="#DejaVuSans-29" x="1630.273438"/>
     </g>
    </g>
    <g id="line2d_20">
     <path d="M 61.375 50.094687 
L 71.375 50.094687 
L 81.375 50.094687 
" style="fill: none; stroke-dasharray: 6,1.5; stroke-dashoffset: 0; stroke: #008000; stroke-width: 1.5"/>
    </g>
    <g id="text_19">
     <!-- Size: multicall binary (kilobytes) -->
     <g transform="translate(89.375 53.594687) scale(0.1 -0.1)">
      <defs>
       <path id="DejaVuSans-63" d="M 3122 3366 
L 3122 2828 
Q 2878 2963 2633 3030 
Q 2388 3097 2138 3097 
Q 1578 3097 1268 2742 
Q 959 2388 959 1747 
Q 959 1106 1268 751 
Q 1578 397 2138 397 
Q 2388 397 2633 464 
Q 2878 531 3122 666 
L 3122 134 
Q 2881 22 2623 -34 
Q 2366 -91 2075 -91 
Q 1284 -91 818 406 
Q 353 903 353 1747 
Q 353 2603 823 3093 
Q 1294 3584 2113 3584 
Q 2378 3584 2631 3529 
Q 2884 3475 3122 3366 
z
" transform="scale(0.015625)"/>
      </defs>
      <use xlink:href="#DejaVuSans-53"/>
      <use xlink:href="#DejaVuSans-69" x="63.476562"/>
      <use xlink:href="#DejaVuSans-7a" x="91.259766"/>
      <use xlink:href="#DejaVuSans-65" x="143.75"/>
      <use xlink:href="#DejaVuSans-3a" x="205.273438"/>
      <use xlink:href="#DejaVuSans-20" x="238.964844"/>
      <use xlink:href="#DejaVuSans-6d" x="270.751953"/>
      <use xlink:href="#DejaVuSans-75" x="368.164062"/>
      <use xlink:href="#DejaVuSans-6c" x="431.542969"/>
      <use xlink:href="#DejaVuSans-74" x="459.326172"/>
      <use xlink:href="#DejaVuSans-69" x="498.535156"/>
      <use xlink:href="#DejaVuSans-63" x="526.318359"/>
      <use xlink:href="#DejaVuSans-61" x="581.298828"/>
      <use xlink:href="#DejaVuSans-6c" x="642.578125"/>
      <use xlink:href="#DejaVuSans-6c" x="670.361328"/>
      <use xlink:href="#DejaVuSans-20" x="698.144531"/>
      <use xlink:href="#DejaVuSans-62" x="729.931641"/>
      <use xlink:href="#DejaVuSans-69" x="793.408203"/>
      <use xlink:href="#DejaVuSans-6e" x="821.191406"/>
      <use xlink:href="#DejaVuSans-61" x="884.570312"/>
      <use xlink:href="#DejaVuSans-72" x="945.849609"/>
      <use xlink:href="#DejaVuSans-79" x="986.962891"/>
      <use xlink:href="#DejaVuSans-20" x="1046.142578"/>
      <use xlink:href="#DejaVuSans-28" x="1077.929688"/>
      <use xlink:href="#DejaVuSans-6b" x="1116.943359"/>
      <use xlink:href="#DejaVuSans-69" x="1174.853516"/>
      <use xlink:href="#DejaVuSans-6c" x="1202.636719"/>
      <use xlink:href="#DejaVuSans-6f" x="1230.419922"/>
      <use xlink:href="#DejaVuSans-62" x="1291.601562"/>
      <use xlink:href="#DejaVuSans-79" x="1355.078125"/>
      <use xlink:href="#DejaVuSans-74" x="1414.257812"/>
      <use xlink:href="#DejaVuSans-65" x="1453.466797"/>
      <use xlink:href="#DejaVuSans-73" x="1514.990234"/>
      <use xlink:href="#DejaVuSans-29" x="1567.089844"/>
     </g>
    </g>
   </g>
  </g>
 </g>
 <defs>
  <clipPath id="pf6644d0d2c">
   <rect x="52.375" y="22.318125" width="535.68" height="352.512"/>
  </clipPath>
 </defs>
</svg>
