<?xml version="1.0" encoding="utf-8" standalone="no"?>
<!DOCTYPE svg PUBLIC "-//W3C//DTD SVG 1.1//EN"
  "http://www.w3.org/Graphics/SVG/1.1/DTD/svg11.dtd">
<svg xmlns:xlink="http://www.w3.org/1999/xlink" width="595.255pt" height="418.303033pt" viewBox="0 0 595.255 418.303033" xmlns="http://www.w3.org/2000/svg" version="1.1">
 <metadata>
  <rdf:RDF xmlns:dc="http://purl.org/dc/elements/1.1/" xmlns:cc="http://creativecommons.org/ns#" xmlns:rdf="http://www.w3.org/1999/02/22-rdf-syntax-ns#">
   <cc:Work>
    <dc:type rdf:resource="http://purl.org/dc/dcmitype/StillImage"/>
    <dc:date>2025-11-11T14:03:58.292764</dc:date>
    <dc:format>image/svg+xml</dc:format>
    <dc:creator>
     <cc:Agent>
      <dc:title>Matplotlib v3.6.3, https://matplotlib.org/</dc:title>
     </cc:Agent>
    </dc:creator>
   </cc:Work>
  </rdf:RDF>
 </metadata>
 <defs>
  <style type="text/css">*{stroke-linejoin: round; stroke-linecap: butt}</style>
 </defs>
 <g id="figure_1">
  <g id="patch_1">
   <path d="M 0 418.303033 
L 595.255 418.303033 
L 595.255 0 
L 0 0 
z
" style="fill: #ffffff"/>
  </g>
  <g id="axes_1">
   <g id="patch_2">
    <path d="M 52.375 374.830125 
L 588.055 374.830125 
L 588.055 22.318125 
L 52.375 22.318125 
z
" style="fill: #ffffff"/>
   </g>
   <g id="matplotlib.axis_1">
    <g id="xtick_1">
     <g id="line2d_1">
      <defs>
       <path id="m52a3a55a87" d="M 0 0 
L 0 3.5 
" style="stroke: #000000; stroke-width: 0.8"/>
      </defs>
      <g>
       <use xlink:href="#m52a3a55a87" x="84.41692" y="374.830125" style="stroke: #000000; stroke-width: 0.8"/>
      </g>
     </g>
     <g id="text_1">
      <!-- 2021-07 -->
      <g transform="translate(47.1921 409.301971) rotate(-30) scale(0.1 -0.1)">
       <defs>
        <path id="DejaVuSans-32" d="M 1228 531 
L 3431 531 
L 3431 0 
L 469 0 
L 469 531 
Q 828 903 1448 1529 
Q 2069 2156 2228 2338 
Q 2531 2678 2651 2914 
Q 2772 3150 2772 3378 
Q 2772 3750 2511 3984 
Q 2250 4219 1831 4219 
Q 1534 4219 1204 4116 
Q 875 4013 500 3803 
L 500 4441 
Q 881 4594 1212 4672 
Q 1544 4750 1819 4750 
Q 2544 4750 2975 4387 
Q 3406 4025 3406 3419 
Q 3406 3131 3298 2873 
Q 3191 2616 2906 2266 
Q 2828 2175 2409 1742 
Q 1991 1309 1228 531 
z
" transform="scale(0.015625)"/>
        <path id="DejaVuSans-30" d="M 2034 4250 
Q 1547 4250 1301 3770 
Q 1056 3291 1056 2328 
Q 1056 1369 1301 889 
Q 1547 409 2034 409 
Q 2525 409 2770 889 
Q 3016 1369 3016 2328 
Q 3016 3291 2770 3770 
Q 2525 4250 2034 4250 
z
M 2034 4750 
Q 2819 4750 3233 4129 
Q 3647 3509 3647 2328 
Q 3647 1150 3233 529 
Q 2819 -91 2034 -91 
Q 1250 -91 836 529 
Q 422 1150 422 2328 
Q 422 3509 836 4129 
Q 1250 4750 2034 4750 
z
" transform="scale(0.015625)"/>
        <path id="DejaVuSans-31" d="M 794 531 
L 1825 531 
L 1825 4091 
L 703 3866 
L 703 4441 
L 1819 4666 
L 2450 4666 
L 2450 531 
L 3481 531 
L 3481 0 
L 794 0 
L 794 531 
z
" transform="scale(0.015625)"/>
        <path id="DejaVuSans-2d" d="M 313 2009 
L 1997 2009 
L 1997 1497 
L 313 1497 
L 313 2009 
z
" transform="scale(0.015625)"/>
        <path id="DejaVuSans-37" d="M 525 4666 
L 3525 4666 
L 3525 4397 
L 1831 0 
L 1172 0 
L 2766 4134 
L 525 4134 
L 525 4666 
z
" transform="scale(0.015625)"/>
       </defs>
       <use xlink:href="#DejaVuSans-32"/>
       <use xlink:href="#DejaVuSans-30" x="63.623047"/>
       <use xlink:href="#DejaVuSans-32" x="127.246094"/>
       <use xlink:href="#DejaVuSans-31" x="190.869141"/>
       <use xlink:href="#DejaVuSans-2d" x="254.492188"/>
       <use xlink:href="#DejaVuSans-30" x="290.576172"/>
       <use xlink:href="#DejaVuSans-37" x="354.199219"/>
      </g>
     </g>
    </g>
    <g id="xtick_2">
     <g id="line2d_2">
      <g>
       <use xlink:href="#m52a3a55a87" x="141.927855" y="374.830125" style="stroke: #000000; stroke-width: 0.8"/>
      </g>
     </g>
     <g id="text_2">
      <!-- 2022-01 -->
      <g transform="translate(104.703034 409.301971) rotate(-30) scale(0.1 -0.1)">
       <use xlink:href="#DejaVuSans-32"/>
       <use xlink:href="#DejaVuSans-30" x="63.623047"/>
       <use xlink:href="#DejaVuSans-32" x="127.246094"/>
       <use xlink:href="#DejaVuSans-32" x="190.869141"/>
       <use xlink:href="#DejaVuSans-2d" x="254.492188"/>
       <use xlink:href="#DejaVuSans-30" x="290.576172"/>
       <use xlink:href="#DejaVuSans-31" x="354.199219"/>
      </g>
     </g>
    </g>
    <g id="xtick_3">
     <g id="line2d_3">
      <g>
       <use xlink:href="#m52a3a55a87" x="198.501111" y="374.830125" style="stroke: #000000; stroke-width: 0.8"/>
      </g>
     </g>
     <g id="text_3">
      <!-- 2022-07 -->
      <g transform="translate(161.27629 409.301971) rotate(-30) scale(0.1 -0.1)">
       <use xlink:href="#DejaVuSans-32"/>
       <use xlink:href="#DejaVuSans-30" x="63.623047"/>
       <use xlink:href="#DejaVuSans-32" x="127.246094"/>
       <use xlink:href="#DejaVuSans-32" x="190.869141"/>
       <use xlink:href="#DejaVuSans-2d" x="254.492188"/>
       <use xlink:href="#DejaVuSans-30" x="290.576172"/>
       <use xlink:href="#DejaVuSans-37" x="354.199219"/>
      </g>
     </g>
    </g>
    <g id="xtick_4">
     <g id="line2d_4">
      <g>
       <use xlink:href="#m52a3a55a87" x="256.012045" y="374.830125" style="stroke: #000000; stroke-width: 0.8"/>
      </g>
     </g>
     <g id="text_4">
      <!-- 2023-01 -->
      <g transform="translate(218.787224 409.301971) rotate(-30) scale(0.1 -0.1)">
       <defs>
        <path id="DejaVuSans-33" d="M 2597 2516 
Q 3050 2419 3304 2112 
Q 3559 1806 3559 1356 
Q 3559 666 3084 287 
Q 2609 -91 1734 -91 
Q 1441 -91 1130 -33 
Q 819 25 488 141 
L 488 750 
Q 750 597 1062 519 
Q 1375 441 1716 441 
Q 2309 441 2620 675 
Q 2931 909 2931 1356 
Q 2931 1769 2642 2001 
Q 2353 2234 1838 2234 
L 1294 2234 
L 1294 2753 
L 1863 2753 
Q 2328 2753 2575 2939 
Q 2822 3125 2822 3475 
Q 2822 3834 2567 4026 
Q 2313 4219 1838 4219 
Q 1578 4219 1281 4162 
Q 984 4106 628 3988 
L 628 4550 
Q 988 4650 1302 4700 
Q 1616 4750 1894 4750 
Q 2613 4750 3031 4423 
Q 3450 4097 3450 3541 
Q 3450 3153 3228 2886 
Q 3006 2619 2597 2516 
z
" transform="scale(0.015625)"/>
       </defs>
       <use xlink:href="#DejaVuSans-32"/>
       <use xlink:href="#DejaVuSans-30" x="63.623047"/>
       <use xlink:href="#DejaVuSans-32" x="127.246094"/>
       <use xlink:href="#DejaVuSans-33" x="190.869141"/>
       <use xlink:href="#DejaVuSans-2d" x="254.492188"/>
       <use xlink:href="#DejaVuSans-30" x="290.576172"/>
       <use xlink:href="#DejaVuSans-31" x="354.199219"/>
      </g>
     </g>
    </g>
    <g id="xtick_5">
     <g id="line2d_5">
      <g>
       <use xlink:href="#m52a3a55a87" x="312.585301" y="374.830125" style="stroke: #000000; stroke-width: 0.8"/>
      </g>
     </g>
     <g id="text_5">
      <!-- 2023-07 -->
      <g transform="translate(275.360481 409.301971) rotate(-30) scale(0.1 -0.1)">
       <use xlink:href="#DejaVuSans-32"/>
       <use xlink:href="#DejaVuSans-30" x="63.623047"/>
       <use xlink:href="#DejaVuSans-32" x="127.246094"/>
       <use xlink:href="#DejaVuSans-33" x="190.869141"/>
       <use xlink:href="#DejaVuSans-2d" x="254.492188"/>
       <use xlink:href="#DejaVuSans-30" x="290.576172"/>
       <use xlink:href="#DejaVuSans-37" x="354.199219"/>
      </g>
     </g>
    </g>
    <g id="xtick_6">
     <g id="line2d_6">
      <g>
       <use xlink:href="#m52a3a55a87" x="370.096236" y="374.830125" style="stroke: #000000; stroke-width: 0.8"/>
      </g>
     </g>
     <g id="text_6">
      <!-- 2024-01 -->
      <g transform="translate(332.871415 409.301971) rotate(-30) scale(0.1 -0.1)">
       <defs>
        <path id="DejaVuSans-34" d="M 2419 4116 
L 825 1625 
L 2419 1625 
L 2419 4116 
z
M 2253 4666 
L 3047 4666 
L 3047 1625 
L 3713 1625 
L 3713 1100 
L 3047 1100 
L 3047 0 
L 2419 0 
L 2419 1100 
L 313 1100 
L 313 1709 
L 2253 4666 
z
" transform="scale(0.015625)"/>
       </defs>
       <use xlink:href="#DejaVuSans-32"/>
       <use xlink:href="#DejaVuSans-30" x="63.623047"/>
       <use xlink:href="#DejaVuSans-32" x="127.246094"/>
       <use xlink:href="#DejaVuSans-34" x="190.869141"/>
       <use xlink:href="#DejaVuSans-2d" x="254.492188"/>
       <use xlink:href="#DejaVuSans-30" x="290.576172"/>
       <use xlink:href="#DejaVuSans-31" x="354.199219"/>
      </g>
     </g>
    </g>
    <g id="xtick_7">
     <g id="line2d_7">
      <g>
       <use xlink:href="#m52a3a55a87" x="426.982051" y="374.830125" style="stroke: #000000; stroke-width: 0.8"/>
      </g>
     </g>
     <g id="text_7">
      <!-- 2024-07 -->
      <g transform="translate(389.757231 409.301971) rotate(-30) scale(0.1 -0.1)">
       <use xlink:href="#DejaVuSans-32"/>
       <use xlink:href="#DejaVuSans-30" x="63.623047"/>
       <use xlink:href="#DejaVuSans-32" x="127.246094"/>
       <use xlink:href="#DejaVuSans-34" x="190.869141"/>
       <use xlink:href="#DejaVuSans-2d" x="254.492188"/>
       <use xlink:href="#DejaVuSans-30" x="290.576172"/>
       <use xlink:href="#DejaVuSans-37" x="354.199219"/>
      </g>
     </g>
    </g>
    <g id="xtick_8">
     <g id="line2d_8">
      <g>
       <use xlink:href="#m52a3a55a87" x="484.492986" y="374.830125" style="stroke: #000000; stroke-width: 0.8"/>
      </g>
     </g>
     <g id="text_8">
      <!-- 2025-01 -->
      <g transform="translate(447.268165 409.301971) rotate(-30) scale(0.1 -0.1)">
       <defs>
        <path id="DejaVuSans-35" d="M 691 4666 
L 3169 4666 
L 3169 4134 
L 1269 4134 
L 1269 2991 
Q 1406 3038 1543 3061 
Q 1681 3084 1819 3084 
Q 2600 3084 3056 2656 
Q 3513 2228 3513 1497 
Q 3513 744 3044 326 
Q 2575 -91 1722 -91 
Q 1428 -91 1123 -41 
Q 819 9 494 109 
L 494 744 
Q 775 591 1075 516 
Q 1375 441 1709 441 
Q 2250 441 2565 725 
Q 2881 1009 2881 1497 
Q 2881 1984 2565 2268 
Q 2250 2553 1709 2553 
Q 1456 2553 1204 2497 
Q 953 2441 691 2322 
L 691 4666 
z
" transform="scale(0.015625)"/>
       </defs>
       <use xlink:href="#DejaVuSans-32"/>
       <use xlink:href="#DejaVuSans-30" x="63.623047"/>
       <use xlink:href="#DejaVuSans-32" x="127.246094"/>
       <use xlink:href="#DejaVuSans-35" x="190.869141"/>
       <use xlink:href="#DejaVuSans-2d" x="254.492188"/>
       <use xlink:href="#DejaVuSans-30" x="290.576172"/>
       <use xlink:href="#DejaVuSans-31" x="354.199219"/>
      </g>
     </g>
    </g>
    <g id="xtick_9">
     <g id="line2d_9">
      <g>
       <use xlink:href="#m52a3a55a87" x="541.066242" y="374.830125" style="stroke: #000000; stroke-width: 0.8"/>
      </g>
     </g>
     <g id="text_9">
      <!-- 2025-07 -->
      <g transform="translate(503.841421 409.301971) rotate(-30) scale(0.1 -0.1)">
       <use xlink:href="#DejaVuSans-32"/>
       <use xlink:href="#DejaVuSans-30" x="63.623047"/>
       <use xlink:href="#DejaVuSans-32" x="127.246094"/>
       <use xlink:href="#DejaVuSans-35" x="190.869141"/>
       <use xlink:href="#DejaVuSans-2d" x="254.492188"/>
       <use xlink:href="#DejaVuSans-30" x="290.576172"/>
       <use xlink:href="#DejaVuSans-37" x="354.199219"/>
      </g>
     </g>
    </g>
   </g>
   <g id="matplotlib.axis_2">
    <g id="ytick_1">
     <g id="line2d_10">
      <defs>
       <path id="me72ce187e9" d="M 0 0 
L -3.5 0 
" style="stroke: #000000; stroke-width: 0.8"/>
      </defs>
      <g>
       <use xlink:href="#me72ce187e9" x="52.375" y="344.573021" style="stroke: #000000; stroke-width: 0.8"/>
      </g>
     </g>
     <g id="text_10">
      <!-- 20000 -->
      <g transform="translate(13.5625 348.37224) scale(0.1 -0.1)">
       <use xlink:href="#DejaVuSans-32"/>
       <use xlink:href="#DejaVuSans-30" x="63.623047"/>
       <use xlink:href="#DejaVuSans-30" x="127.246094"/>
       <use xlink:href="#DejaVuSans-30" x="190.869141"/>
       <use xlink:href="#DejaVuSans-30" x="254.492188"/>
      </g>
     </g>
    </g>
    <g id="ytick_2">
     <g id="line2d_11">
      <g>
       <use xlink:href="#me72ce187e9" x="52.375" y="298.284414" style="stroke: #000000; stroke-width: 0.8"/>
      </g>
     </g>
     <g id="text_11">
      <!-- 40000 -->
      <g transform="translate(13.5625 302.083633) scale(0.1 -0.1)">
       <use xlink:href="#DejaVuSans-34"/>
       <use xlink:href="#DejaVuSans-30" x="63.623047"/>
       <use xlink:href="#DejaVuSans-30" x="127.246094"/>
       <use xlink:href="#DejaVuSans-30" x="190.869141"/>
       <use xlink:href="#DejaVuSans-30" x="254.492188"/>
      </g>
     </g>
    </g>
    <g id="ytick_3">
     <g id="line2d_12">
      <g>
       <use xlink:href="#me72ce187e9" x="52.375" y="251.995807" style="stroke: #000000; stroke-width: 0.8"/>
      </g>
     </g>
     <g id="text_12">
      <!-- 60000 -->
      <g transform="translate(13.5625 255.795025) scale(0.1 -0.1)">
       <defs>
        <path id="DejaVuSans-36" d="M 2113 2584 
Q 1688 2584 1439 2293 
Q 1191 2003 1191 1497 
Q 1191 994 1439 701 
Q 1688 409 2113 409 
Q 2538 409 2786 701 
Q 3034 994 3034 1497 
Q 3034 2003 2786 2293 
Q 2538 2584 2113 2584 
z
M 3366 4563 
L 3366 3988 
Q 3128 4100 2886 4159 
Q 2644 4219 2406 4219 
Q 1781 4219 1451 3797 
Q 1122 3375 1075 2522 
Q 1259 2794 1537 2939 
Q 1816 3084 2150 3084 
Q 2853 3084 3261 2657 
Q 3669 2231 3669 1497 
Q 3669 778 3244 343 
Q 2819 -91 2113 -91 
Q 1303 -91 875 529 
Q 447 1150 447 2328 
Q 447 3434 972 4092 
Q 1497 4750 2381 4750 
Q 2619 4750 2861 4703 
Q 3103 4656 3366 4563 
z
" transform="scale(0.015625)"/>
       </defs>
       <use xlink:href="#DejaVuSans-36"/>
       <use xlink:href="#DejaVuSans-30" x="63.623047"/>
       <use xlink:href="#DejaVuSans-30" x="127.246094"/>
       <use xlink:href="#DejaVuSans-30" x="190.869141"/>
       <use xlink:href="#DejaVuSans-30" x="254.492188"/>
      </g>
     </g>
    </g>
    <g id="ytick_4">
     <g id="line2d_13">
      <g>
       <use xlink:href="#me72ce187e9" x="52.375" y="205.707199" style="stroke: #000000; stroke-width: 0.8"/>
      </g>
     </g>
     <g id="text_13">
      <!-- 80000 -->
      <g transform="translate(13.5625 209.506418) scale(0.1 -0.1)">
       <defs>
        <path id="DejaVuSans-38" d="M 2034 2216 
Q 1584 2216 1326 1975 
Q 1069 1734 1069 1313 
Q 1069 891 1326 650 
Q 1584 409 2034 409 
Q 2484 409 2743 651 
Q 3003 894 3003 1313 
Q 3003 1734 2745 1975 
Q 2488 2216 2034 2216 
z
M 1403 2484 
Q 997 2584 770 2862 
Q 544 3141 544 3541 
Q 544 4100 942 4425 
Q 1341 4750 2034 4750 
Q 2731 4750 3128 4425 
Q 3525 4100 3525 3541 
Q 3525 3141 3298 2862 
Q 3072 2584 2669 2484 
Q 3125 2378 3379 2068 
Q 3634 1759 3634 1313 
Q 3634 634 3220 271 
Q 2806 -91 2034 -91 
Q 1263 -91 848 271 
Q 434 634 434 1313 
Q 434 1759 690 2068 
Q 947 2378 1403 2484 
z
M 1172 3481 
Q 1172 3119 1398 2916 
Q 1625 2713 2034 2713 
Q 2441 2713 2670 2916 
Q 2900 3119 2900 3481 
Q 2900 3844 2670 4047 
Q 2441 4250 2034 4250 
Q 1625 4250 1398 4047 
Q 1172 3844 1172 3481 
z
" transform="scale(0.015625)"/>
       </defs>
       <use xlink:href="#DejaVuSans-38"/>
       <use xlink:href="#DejaVuSans-30" x="63.623047"/>
       <use xlink:href="#DejaVuSans-30" x="127.246094"/>
       <use xlink:href="#DejaVuSans-30" x="190.869141"/>
       <use xlink:href="#DejaVuSans-30" x="254.492188"/>
      </g>
     </g>
    </g>
    <g id="ytick_5">
     <g id="line2d_14">
      <g>
       <use xlink:href="#me72ce187e9" x="52.375" y="159.418592" style="stroke: #000000; stroke-width: 0.8"/>
      </g>
     </g>
     <g id="text_14">
      <!-- 100000 -->
      <g transform="translate(7.2 163.217811) scale(0.1 -0.1)">
       <use xlink:href="#DejaVuSans-31"/>
       <use xlink:href="#DejaVuSans-30" x="63.623047"/>
       <use xlink:href="#DejaVuSans-30" x="127.246094"/>
       <use xlink:href="#DejaVuSans-30" x="190.869141"/>
       <use xlink:href="#DejaVuSans-30" x="254.492188"/>
       <use xlink:href="#DejaVuSans-30" x="318.115234"/>
      </g>
     </g>
    </g>
    <g id="ytick_6">
     <g id="line2d_15">
      <g>
       <use xlink:href="#me72ce187e9" x="52.375" y="113.129985" style="stroke: #000000; stroke-width: 0.8"/>
      </g>
     </g>
     <g id="text_15">
      <!-- 120000 -->
      <g transform="translate(7.2 116.929203) scale(0.1 -0.1)">
       <use xlink:href="#DejaVuSans-31"/>
       <use xlink:href="#DejaVuSans-32" x="63.623047"/>
       <use xlink:href="#DejaVuSans-30" x="127.246094"/>
       <use xlink:href="#DejaVuSans-30" x="190.869141"/>
       <use xlink:href="#DejaVuSans-30" x="254.492188"/>
       <use xlink:href="#DejaVuSans-30" x="318.115234"/>
      </g>
     </g>
    </g>
    <g id="ytick_7">
     <g id="line2d_16">
      <g>
       <use xlink:href="#me72ce187e9" x="52.375" y="66.841377" style="stroke: #000000; stroke-width: 0.8"/>
      </g>
     </g>
     <g id="text_16">
      <!-- 140000 -->
      <g transform="translate(7.2 70.640596) scale(0.1 -0.1)">
       <use xlink:href="#DejaVuSans-31"/>
       <use xlink:href="#DejaVuSans-34" x="63.623047"/>
       <use xlink:href="#DejaVuSans-30" x="127.246094"/>
       <use xlink:href="#DejaVuSans-30" x="190.869141"/>
       <use xlink:href="#DejaVuSans-30" x="254.492188"/>
       <use xlink:href="#DejaVuSans-30" x="318.115234"/>
      </g>
     </g>
    </g>
   </g>
   <g id="line2d_17">
    <path d="M 57.626765 196.393932 
L 73.904603 179.49859 
L 82.075749 175.249296 
L 87.796907 168.555963 
L 101.603655 168.065304 
L 107.47049 163.445701 
L 127.669436 160.881312 
L 138.148859 160.80725 
L 151.219176 130.719656 
L 151.313602 130.775202 
L 152.510375 130.728913 
L 152.878917 130.775202 
L 155.66682 125.970444 
L 155.90705 125.637166 
L 156.122803 126.285207 
L 156.950908 126.275949 
L 157.261912 125.942671 
L 157.776767 125.933414 
L 158.15064 125.507558 
L 158.911904 125.58162 
L 159.26714 132.77487 
L 161.469671 132.756354 
L 161.921551 131.395469 
L 162.47494 131.451016 
L 166.310778 131.395469 
L 166.609497 140.967953 
L 166.958142 140.967953 
L 167.276685 141.440097 
L 169.073746 141.440097 
L 169.400971 138.903481 
L 170.924 138.764615 
L 172.056641 138.847935 
L 172.110329 164.95471 
L 174.02519 161.353456 
L 174.123719 161.353456 
L 174.412496 155.937689 
L 177.880401 155.872885 
L 178.210108 158.37247 
L 178.289199 158.335439 
L 180.016415 158.252119 
L 180.991018 158.233604 
L 181.11954 155.928431 
L 181.560925 158.224346 
L 183.154657 157.631852 
L 184.327301 157.687398 
L 184.76891 155.428514 
L 185.180089 155.595153 
L 185.608957 149.457284 
L 188.198443 149.355449 
L 189.734506 149.30916 
L 189.905072 148.346357 
L 190.50731 149.30916 
L 191.022215 149.327676 
L 193.923356 148.346357 
L 200.670197 148.725924 
L 200.964379 148.475965 
L 201.933972 148.383388 
L 202.116295 148.337099 
L 205.935283 148.235265 
L 208.509987 148.142687 
L 208.791472 136.894556 
L 209.084268 136.894556 
L 209.400434 136.737174 
L 211.28498 136.700144 
L 211.840344 136.477958 
L 213.110102 136.487216 
L 213.506904 135.811402 
L 214.121677 135.894722 
L 220.644553 135.968784 
L 220.967528 134.88563 
L 221.588497 134.88563 
L 228.862808 133.682126 
L 230.720026 133.589549 
L 231.33753 133.543261 
L 231.517306 154.697154 
L 231.903964 154.697154 
L 232.242458 154.058371 
L 241.889775 154.012083 
L 242.233406 155.178556 
L 242.780598 155.178556 
L 243.344167 155.530349 
L 246.169372 155.511834 
L 247.991539 155.724761 
L 248.783852 155.724761 
L 251.637943 153.438104 
L 254.324091 153.438104 
L 254.877972 153.243692 
L 263.755774 153.16963 
L 264.45073 152.160538 
L 272.600468 152.206827 
L 272.888811 151.993899 
L 273.088053 151.993899 
L 273.43596 177.10084 
L 273.744989 152.012415 
L 273.982765 186.238211 
L 274.680988 152.021673 
L 277.145899 152.003157 
L 277.406174 150.475633 
L 277.671162 150.475633 
L 278.166348 151.447694 
L 278.434111 151.466209 
L 282.563137 183.414606 
L 283.279907 183.423864 
L 283.597488 183.858977 
L 283.717664 183.840461 
L 283.931025 185.525367 
L 284.716031 183.831204 
L 290.058091 183.784915 
L 290.347509 180.905764 
L 290.939581 180.952052 
L 291.618417 180.942794 
L 291.726337 176.989747 
L 292.038972 176.989747 
L 292.282599 174.342039 
L 293.840693 174.332781 
L 294.121899 174.193916 
L 294.543941 174.305008 
L 294.614317 174.230946 
L 299.358691 174.129111 
L 300.698721 174.027277 
L 302.674939 173.999503 
L 302.857913 167.843119 
L 303.137314 168.056046 
L 303.304544 167.935696 
L 304.278818 169.231777 
L 305.348368 169.074396 
L 306.570555 169.120684 
L 307.203896 169.120684 
L 307.429102 169.324354 
L 307.91032 169.120684 
L 308.738104 169.046622 
L 308.870938 168.768891 
L 308.950054 169.065138 
L 310.567079 169.05588 
L 311.085812 169.129942 
L 311.820298 169.129942 
L 313.404536 168.944787 
L 314.142665 169.129942 
L 314.265355 164.723266 
L 315.692931 164.732524 
L 316.276502 164.695493 
L 316.548671 158.955706 
L 321.768084 158.90016 
L 322.367221 159.34453 
L 323.07587 158.890902 
L 324.030953 158.668717 
L 325.38431 158.687232 
L 325.923844 158.918675 
L 328.131902 158.807582 
L 328.424768 158.566882 
L 329.603638 158.548366 
L 330.01525 146.105989 
L 330.833819 146.143019 
L 333.129937 146.078215 
L 333.359488 145.20799 
L 334.10793 145.189474 
L 337.206027 145.143186 
L 337.545451 145.143186 
L 340.553803 145.032093 
L 341.222984 144.921 
L 341.292492 144.80065 
L 341.953182 144.661784 
L 342.694256 144.661784 
L 343.175471 151.169962 
L 344.2428 151.160705 
L 344.731792 150.77188 
L 346.672533 150.670045 
L 347.888483 150.586726 
L 348.496104 150.614499 
L 349.16658 150.577468 
L 353.408091 150.605241 
L 353.676661 148.337099 
L 353.78198 150.549695 
L 355.865004 150.540437 
L 356.04385 152.095734 
L 356.337381 152.067961 
L 356.455567 151.91058 
L 356.660529 151.901322 
L 357.10241 152.077219 
L 357.591099 152.077219 
L 357.767308 152.336435 
L 357.836056 152.040188 
L 358.49755 152.040188 
L 358.995605 151.855034 
L 359.456778 151.836518 
L 359.684154 152.151281 
L 360.070451 152.151281 
L 360.322777 152.31792 
L 363.243848 152.243858 
L 363.397827 142.125168 
L 363.490835 152.253116 
L 364.70829 152.243858 
L 365.277416 152.364208 
L 365.310094 152.336435 
L 367.805418 152.345693 
L 368.199876 152.243858 
L 368.85319 152.197569 
L 369.011597 152.179054 
L 369.079032 148.300069 
L 369.148899 148.318584 
L 370.401079 148.281553 
L 370.509165 148.438934 
L 375.904881 148.263038 
L 382.078299 148.281553 
L 382.253835 151.660621 
L 387.709867 151.660621 
L 395.232051 151.512498 
L 395.343122 158.955706 
L 398.163193 158.881644 
L 398.383027 158.81684 
L 400.079363 158.807582 
L 404.891639 158.715005 
L 404.978009 158.048449 
L 406.111847 158.057707 
L 406.128423 158.002161 
L 418.79663 161.159044 
L 421.24829 161.140528 
L 421.688557 162.705083 
L 421.878864 162.705083 
L 448.700239 151.743941 
L 455.2896 151.679137 
L 455.364176 151.244024 
L 456.457841 151.244024 
L 458.008679 150.873715 
L 460.849801 150.873715 
L 461.031863 149.10549 
L 464.569988 149.124006 
L 464.907961 146.420751 
L 465.813147 146.430009 
L 473.975994 146.411493 
L 474.342857 148.503738 
L 475.881749 148.503738 
L 479.392497 144.106321 
L 485.32362 144.004486 
L 487.104572 143.967455 
L 487.312977 139.338594 
L 487.4441 146.494813 
L 487.951861 146.513328 
L 488.871712 146.365205 
L 488.994438 146.392978 
L 489.075288 141.301231 
L 489.335591 141.967787 
L 489.603955 141.902983 
L 490.100407 128.997719 
L 490.535982 128.9144 
L 490.633306 128.775534 
L 491.500333 128.757019 
L 491.811257 128.571864 
L 500.286042 128.636668 
L 500.719718 128.442256 
L 501.468725 128.442256 
L 501.703474 128.849596 
L 504.07088 128.905142 
L 504.365105 129.414317 
L 508.074639 129.32174 
L 508.237543 125.313146 
L 510.361446 125.17428 
L 510.856939 125.109476 
L 512.403363 125.016899 
L 512.628663 131.75652 
L 513.354379 131.738005 
L 513.538468 129.506894 
L 513.679948 129.516152 
L 513.993835 129.377286 
L 515.458454 129.368028 
L 515.58185 129.182874 
L 516.835405 129.164358 
L 516.994427 128.988462 
L 518.106046 129.025492 
L 518.20146 128.868111 
L 518.782835 128.905142 
L 520.280841 128.747761 
L 520.416548 128.719988 
L 520.859767 128.719988 
L 523.69284 129.590214 
L 526.476869 129.682791 
L 528.146117 130.09013 
L 528.451466 130.09013 
L 528.738902 129.960522 
L 529.052261 129.951265 
L 529.661513 130.034584 
L 530.032753 129.979038 
L 530.388875 128.034916 
L 530.539023 128.358937 
L 530.720615 128.358937 
L 530.924611 127.812731 
L 531.940892 127.812731 
L 532.167082 143.328672 
L 532.830529 143.328672 
L 533.160576 86.967664 
L 533.383437 86.884344 
L 534.072348 86.643644 
L 534.45519 86.217788 
L 534.983531 85.921541 
L 535.040389 85.782676 
L 536.246018 85.671583 
L 536.260373 85.634552 
L 537.12197 85.579006 
L 538.174611 85.467913 
L 538.422022 85.421624 
L 539.182406 84.977254 
L 539.281151 85.042058 
L 539.3032 84.773584 
L 539.650919 84.70878 
L 540.134529 84.977254 
L 540.618902 84.884677 
L 540.705941 84.792099 
L 540.851241 85.606779 
L 540.908833 85.319789 
L 541.001165 85.329047 
L 543.695265 85.319789 
L 543.757979 82.246226 
L 543.972838 81.153815 
L 545.039397 81.116784 
L 545.284752 80.2373 
L 546.524495 80.191012 
L 548.196279 80.218785 
L 548.738335 80.598352 
L 549.332527 80.265074 
L 549.445284 79.941053 
L 549.666003 79.978084 
L 550.08183 80.218785 
L 550.241442 79.70961 
L 550.565086 79.718868 
L 550.657294 79.376332 
L 550.899651 86.856571 
L 551.548685 86.856571 
L 551.604454 37.207411 
L 552.181039 37.207411 
L 552.23899 37.087061 
L 552.490484 37.096318 
L 552.545768 36.96671 
L 552.748939 37.124092 
L 552.913662 35.652114 
L 554.264053 35.633598 
L 554.274392 35.133681 
L 554.590569 35.124424 
L 554.697577 34.9763 
L 555.619638 34.957785 
L 555.716101 35.439186 
L 556.693927 35.420671 
L 556.930456 34.948527 
L 557.764693 34.948527 
L 557.86125 35.142939 
L 558.951912 35.152197 
L 559.342062 34.670795 
L 560.28975 34.670795 
L 560.526315 34.383806 
L 561.224147 34.383806 
L 561.463751 34.643022 
L 561.61774 34.643022 
L 561.803565 28.042267 
L 563.097796 28.144102 
L 563.524805 28.181133 
L 564.096749 28.27371 
L 564.533341 27.921916 
L 564.779803 27.94969 
L 565.056386 27.588638 
L 565.859736 27.588638 
L 566.24753 29.12542 
L 567.307631 29.014328 
L 567.570952 29.217997 
L 571.229608 29.199482 
L 571.277802 29.579049 
L 573.413078 29.65311 
L 573.538992 29.884553 
L 573.859601 29.782718 
L 574.025322 29.819749 
L 574.548172 29.801234 
L 575.269142 29.606822 
L 575.723706 29.606822 
L 575.926215 28.745854 
L 576.502743 28.727338 
L 576.65976 28.338514 
L 576.830742 28.421833 
L 577.140903 28.125586 
L 577.854226 28.125586 
L 577.929396 27.209072 
L 578.935642 27.144268 
L 580.148752 28.171875 
L 580.268378 28.255194 
L 580.413494 28.153359 
L 580.750219 28.227421 
L 581.330968 27.45903 
L 581.691059 27.366453 
L 581.956442 27.727504 
L 582.310227 27.718247 
L 582.588857 27.801566 
L 582.803235 25.774125 
L 582.803235 25.774125 
" clip-path="url(#pd128254d36)" style="fill: none; stroke-dasharray: 3,1.5; stroke-dashoffset: 0; stroke: #808080; stroke-width: 1.5"/>
   </g>
   <g id="line2d_18">
    <path d="M 57.626765 367.272954 
L 73.904603 366.430502 
L 82.075749 365.162194 
L 87.796907 362.079373 
L 101.603655 362.366362 
L 107.47049 362.023826 
L 138.148859 361.681291 
L 152.878917 360.292632 
L 155.66682 359.755685 
L 155.90705 359.848262 
L 156.278051 359.764942 
L 157.514607 359.727911 
L 158.911904 359.737169 
L 159.26714 361.310982 
L 166.310778 361.329497 
L 166.609497 362.227496 
L 170.924 362.097888 
L 172.110329 362.181208 
L 174.123719 361.44059 
L 175.377133 361.412817 
L 181.560925 361.348013 
L 183.600531 361.172116 
L 185.180089 361.107312 
L 185.608957 359.626076 
L 189.734506 359.542757 
L 189.905072 358.728077 
L 190.50731 359.542757 
L 191.022215 359.533499 
L 193.923356 358.681789 
L 200.952261 358.561438 
L 200.964379 358.478119 
L 205.234502 358.376284 
L 206.707315 358.339253 
L 208.509987 358.302222 
L 208.791472 357.774532 
L 209.542265 357.66344 
L 212.190085 357.718986 
L 213.110102 357.709728 
L 213.787249 357.570862 
L 231.33753 357.533831 
L 231.517306 356.765441 
L 231.903964 356.765441 
L 232.242458 356.93208 
L 234.373838 356.895049 
L 237.7267 356.876533 
L 242.780598 356.589544 
L 248.783852 356.52474 
L 252.217444 356.071111 
L 262.558089 356.071111 
L 264.45073 356.015565 
L 267.52897 355.987792 
L 268.36434 355.99705 
L 273.088053 355.895215 
L 273.43596 362.607063 
L 273.744989 355.904472 
L 273.982765 371.374125 
L 274.680988 355.904472 
L 275.668076 355.885957 
L 275.914947 355.756349 
L 277.145899 355.756349 
L 277.406174 355.432329 
L 278.434111 355.413813 
L 282.563137 361.977538 
L 283.279907 362.005311 
L 283.597488 362.644094 
L 284.873392 362.625578 
L 291.618417 362.588547 
L 291.726337 362.37562 
L 300.698721 362.273785 
L 302.674939 362.236754 
L 302.857913 361.838672 
L 314.142665 361.921991 
L 314.265355 361.44059 
L 316.276502 361.422074 
L 316.548671 360.422241 
L 326.550648 360.311148 
L 329.603638 360.30189 
L 330.01525 359.292798 
L 338.489796 359.135417 
L 341.222984 359.089129 
L 341.292492 358.996551 
L 342.179075 358.92249 
L 342.694256 358.92249 
L 343.513903 359.061355 
L 346.46064 358.950263 
L 347.888483 358.92249 
L 349.933259 358.92249 
L 351.161881 358.913232 
L 353.408091 358.978036 
L 353.676661 360.163024 
L 353.78198 358.978036 
L 355.865004 358.978036 
L 356.182758 359.218737 
L 356.337381 359.200221 
L 356.455567 359.070613 
L 356.660529 359.04284 
L 357.10241 359.200221 
L 357.591099 359.200221 
L 357.767308 359.329829 
L 357.836056 359.200221 
L 358.49755 359.200221 
L 358.995605 359.04284 
L 359.456778 359.015067 
L 359.684154 359.218737 
L 360.070451 359.218737 
L 360.322777 359.385376 
L 369.011597 359.320572 
L 369.148899 358.92249 
L 373.13244 358.83917 
L 373.150911 358.783624 
L 375.904881 358.792882 
L 382.078299 358.792882 
L 382.253835 360.190797 
L 394.697886 360.116736 
L 394.720087 360.079705 
L 395.232051 360.079705 
L 395.343122 367.652521 
L 404.891639 367.606232 
L 404.978009 367.106315 
L 406.128423 367.106315 
L 418.79663 368.124665 
L 421.878864 368.152438 
L 460.849801 367.624748 
L 461.031863 367.263697 
L 475.881749 367.245181 
L 480.600185 366.976707 
L 487.104572 366.948934 
L 487.312977 366.384213 
L 487.610133 366.458275 
L 488.994438 366.393471 
L 489.075288 361.366528 
L 489.335591 362.023826 
L 490.301223 361.996053 
L 490.633306 361.84793 
L 504.981972 361.736837 
L 505.60016 361.727579 
L 508.074639 361.690548 
L 508.237543 361.385044 
L 515.091562 361.273951 
L 517.596162 361.246178 
L 529.661513 361.162858 
L 529.896848 361.098054 
L 530.720615 360.968446 
L 530.924611 360.514818 
L 531.940892 360.514818 
L 532.167082 364.328999 
L 534.072348 364.328999 
L 534.595502 364.171618 
L 537.865738 364.125329 
L 538.422022 364.088298 
L 540.134529 363.727247 
L 540.705941 363.680958 
L 540.851241 364.48638 
L 540.92461 364.412318 
L 541.953726 364.430834 
L 543.695265 364.412318 
L 543.757979 361.597971 
L 545.284752 361.56094 
L 549.666003 361.551683 
L 549.961198 360.718488 
L 550.565086 360.672199 
L 550.657294 360.616653 
L 550.899651 360.746261 
L 551.548685 360.746261 
L 551.604454 360.218571 
L 560.28975 360.125993 
L 561.224147 360.079705 
L 561.803565 360.024158 
L 563.205376 359.987128 
L 564.95305 359.913066 
L 565.218678 359.820489 
L 572.548555 359.718654 
L 573.182544 359.718654 
L 576.502743 359.663107 
L 576.65976 360.079705 
L 577.566443 360.042674 
L 577.854226 360.014901 
L 577.929396 359.755685 
L 580.148752 359.857519 
L 580.413494 359.922324 
L 582.540718 359.848262 
L 582.588857 359.764942 
L 582.803235 358.755851 
L 582.803235 358.755851 
" clip-path="url(#pd128254d36)" style="fill: none; stroke-dasharray: 6,1.5; stroke-dashoffset: 0; stroke: #008000; stroke-width: 1.5"/>
   </g>
   <g id="patch_3">
    <path d="M 52.375 374.830125 
L 52.375 22.318125 
" style="fill: none; stroke: #000000; stroke-width: 0.8; stroke-linejoin: miter; stroke-linecap: square"/>
   </g>
   <g id="patch_4">
    <path d="M 588.055 374.830125 
L 588.055 22.318125 
" style="fill: none; stroke: #000000; stroke-width: 0.8; stroke-linejoin: miter; stroke-linecap: square"/>
   </g>
   <g id="patch_5">
    <path d="M 52.375 374.830125 
L 588.055 374.830125 
" style="fill: none; stroke: #000000; stroke-width: 0.8; stroke-linejoin: miter; stroke-linecap: square"/>
   </g>
   <g id="patch_6">
    <path d="M 52.375 22.318125 
L 588.055 22.318125 
" style="fill: none; stroke: #000000; stroke-width: 0.8; stroke-linejoin: miter; stroke-linecap: square"/>
   </g>
   <g id="text_17">
    <!-- Size evolution of Rust/Coreutils -->
    <g transform="translate(226.818437 16.318125) scale(0.12 -0.12)">
     <defs>
      <path id="DejaVuSans-53" d="M 3425 4513 
L 3425 3897 
Q 3066 4069 2747 4153 
Q 2428 4238 2131 4238 
Q 1616 4238 1336 4038 
Q 1056 3838 1056 3469 
Q 1056 3159 1242 3001 
Q 1428 2844 1947 2747 
L 2328 2669 
Q 3034 2534 3370 2195 
Q 3706 1856 3706 1288 
Q 3706 609 3251 259 
Q 2797 -91 1919 -91 
Q 1588 -91 1214 -16 
Q 841 59 441 206 
L 441 856 
Q 825 641 1194 531 
Q 1563 422 1919 422 
Q 2459 422 2753 634 
Q 3047 847 3047 1241 
Q 3047 1584 2836 1778 
Q 2625 1972 2144 2069 
L 1759 2144 
Q 1053 2284 737 2584 
Q 422 2884 422 3419 
Q 422 4038 858 4394 
Q 1294 4750 2059 4750 
Q 2388 4750 2728 4690 
Q 3069 4631 3425 4513 
z
" transform="scale(0.015625)"/>
      <path id="DejaVuSans-69" d="M 603 3500 
L 1178 3500 
L 1178 0 
L 603 0 
L 603 3500 
z
M 603 4863 
L 1178 4863 
L 1178 4134 
L 603 4134 
L 603 4863 
z
" transform="scale(0.015625)"/>
      <path id="DejaVuSans-7a" d="M 353 3500 
L 3084 3500 
L 3084 2975 
L 922 459 
L 3084 459 
L 3084 0 
L 275 0 
L 275 525 
L 2438 3041 
L 353 3041 
L 353 3500 
z
" transform="scale(0.015625)"/>
      <path id="DejaVuSans-65" d="M 3597 1894 
L 3597 1613 
L 953 1613 
Q 991 1019 1311 708 
Q 1631 397 2203 397 
Q 2534 397 2845 478 
Q 3156 559 3463 722 
L 3463 178 
Q 3153 47 2828 -22 
Q 2503 -91 2169 -91 
Q 1331 -91 842 396 
Q 353 884 353 1716 
Q 353 2575 817 3079 
Q 1281 3584 2069 3584 
Q 2775 3584 3186 3129 
Q 3597 2675 3597 1894 
z
M 3022 2063 
Q 3016 2534 2758 2815 
Q 2500 3097 2075 3097 
Q 1594 3097 1305 2825 
Q 1016 2553 972 2059 
L 3022 2063 
z
" transform="scale(0.015625)"/>
      <path id="DejaVuSans-20" transform="scale(0.015625)"/>
      <path id="DejaVuSans-76" d="M 191 3500 
L 800 3500 
L 1894 563 
L 2988 3500 
L 3597 3500 
L 2284 0 
L 1503 0 
L 191 3500 
z
" transform="scale(0.015625)"/>
      <path id="DejaVuSans-6f" d="M 1959 3097 
Q 1497 3097 1228 2736 
Q 959 2375 959 1747 
Q 959 1119 1226 758 
Q 1494 397 1959 397 
Q 2419 397 2687 759 
Q 2956 1122 2956 1747 
Q 2956 2369 2687 2733 
Q 2419 3097 1959 3097 
z
M 1959 3584 
Q 2709 3584 3137 3096 
Q 3566 2609 3566 1747 
Q 3566 888 3137 398 
Q 2709 -91 1959 -91 
Q 1206 -91 779 398 
Q 353 888 353 1747 
Q 353 2609 779 3096 
Q 1206 3584 1959 3584 
z
" transform="scale(0.015625)"/>
      <path id="DejaVuSans-6c" d="M 603 4863 
L 1178 4863 
L 1178 0 
L 603 0 
L 603 4863 
z
" transform="scale(0.015625)"/>
      <path id="DejaVuSans-75" d="M 544 1381 
L 544 3500 
L 1119 3500 
L 1119 1403 
Q 1119 906 1312 657 
Q 1506 409 1894 409 
Q 2359 409 2629 706 
Q 2900 1003 2900 1516 
L 2900 3500 
L 3475 3500 
L 3475 0 
L 2900 0 
L 2900 538 
Q 2691 219 2414 64 
Q 2138 -91 1772 -91 
Q 1169 -91 856 284 
Q 544 659 544 1381 
z
M 1991 3584 
L 1991 3584 
z
" transform="scale(0.015625)"/>
      <path id="DejaVuSans-74" d="M 1172 4494 
L 1172 3500 
L 2356 3500 
L 2356 3053 
L 1172 3053 
L 1172 1153 
Q 1172 725 1289 603 
Q 1406 481 1766 481 
L 2356 481 
L 2356 0 
L 1766 0 
Q 1100 0 847 248 
Q 594 497 594 1153 
L 594 3053 
L 172 3053 
L 172 3500 
L 594 3500 
L 594 4494 
L 1172 4494 
z
" transform="scale(0.015625)"/>
      <path id="DejaVuSans-6e" d="M 3513 2113 
L 3513 0 
L 2938 0 
L 2938 2094 
Q 2938 2591 2744 2837 
Q 2550 3084 2163 3084 
Q 1697 3084 1428 2787 
Q 1159 2491 1159 1978 
L 1159 0 
L 581 0 
L 581 3500 
L 1159 3500 
L 1159 2956 
Q 1366 3272 1645 3428 
Q 1925 3584 2291 3584 
Q 2894 3584 3203 3211 
Q 3513 2838 3513 2113 
z
" transform="scale(0.015625)"/>
      <path id="DejaVuSans-66" d="M 2375 4863 
L 2375 4384 
L 1825 4384 
Q 1516 4384 1395 4259 
Q 1275 4134 1275 3809 
L 1275 3500 
L 2222 3500 
L 2222 3053 
L 1275 3053 
L 1275 0 
L 697 0 
L 697 3053 
L 147 3053 
L 147 3500 
L 697 3500 
L 697 3744 
Q 697 4328 969 4595 
Q 1241 4863 1831 4863 
L 2375 4863 
z
" transform="scale(0.015625)"/>
      <path id="DejaVuSans-52" d="M 2841 2188 
Q 3044 2119 3236 1894 
Q 3428 1669 3622 1275 
L 4263 0 
L 3584 0 
L 2988 1197 
Q 2756 1666 2539 1819 
Q 2322 1972 1947 1972 
L 1259 1972 
L 1259 0 
L 628 0 
L 628 4666 
L 2053 4666 
Q 2853 4666 3247 4331 
Q 3641 3997 3641 3322 
Q 3641 2881 3436 2590 
Q 3231 2300 2841 2188 
z
M 1259 4147 
L 1259 2491 
L 2053 2491 
Q 2509 2491 2742 2702 
Q 2975 2913 2975 3322 
Q 2975 3731 2742 3939 
Q 2509 4147 2053 4147 
L 1259 4147 
z
" transform="scale(0.015625)"/>
      <path id="DejaVuSans-73" d="M 2834 3397 
L 2834 2853 
Q 2591 2978 2328 3040 
Q 2066 3103 1784 3103 
Q 1356 3103 1142 2972 
Q 928 2841 928 2578 
Q 928 2378 1081 2264 
Q 1234 2150 1697 2047 
L 1894 2003 
Q 2506 1872 2764 1633 
Q 3022 1394 3022 966 
Q 3022 478 2636 193 
Q 2250 -91 1575 -91 
Q 1294 -91 989 -36 
Q 684 19 347 128 
L 347 722 
Q 666 556 975 473 
Q 1284 391 1588 391 
Q 1994 391 2212 530 
Q 2431 669 2431 922 
Q 2431 1156 2273 1281 
Q 2116 1406 1581 1522 
L 1381 1569 
Q 847 1681 609 1914 
Q 372 2147 372 2553 
Q 372 3047 722 3315 
Q 1072 3584 1716 3584 
Q 2034 3584 2315 3537 
Q 2597 3491 2834 3397 
z
" transform="scale(0.015625)"/>
      <path id="DejaVuSans-2f" d="M 1625 4666 
L 2156 4666 
L 531 -594 
L 0 -594 
L 1625 4666 
z
" transform="scale(0.015625)"/>
      <path id="DejaVuSans-43" d="M 4122 4306 
L 4122 3641 
Q 3803 3938 3442 4084 
Q 3081 4231 2675 4231 
Q 1875 4231 1450 3742 
Q 1025 3253 1025 2328 
Q 1025 1406 1450 917 
Q 1875 428 2675 428 
Q 3081 428 3442 575 
Q 3803 722 4122 1019 
L 4122 359 
Q 3791 134 3420 21 
Q 3050 -91 2638 -91 
Q 1578 -91 968 557 
Q 359 1206 359 2328 
Q 359 3453 968 4101 
Q 1578 4750 2638 4750 
Q 3056 4750 3426 4639 
Q 3797 4528 4122 4306 
z
" transform="scale(0.015625)"/>
      <path id="DejaVuSans-72" d="M 2631 2963 
Q 2534 3019 2420 3045 
Q 2306 3072 2169 3072 
Q 1681 3072 1420 2755 
Q 1159 2438 1159 1844 
L 1159 0 
L 581 0 
L 581 3500 
L 1159 3500 
L 1159 2956 
Q 1341 3275 1631 3429 
Q 1922 3584 2338 3584 
Q 2397 3584 2469 3576 
Q 2541 3569 2628 3553 
L 2631 2963 
z
" transform="scale(0.015625)"/>
     </defs>
     <use xlink:href="#DejaVuSans-53"/>
     <use xlink:href="#DejaVuSans-69" x="63.476562"/>
     <use xlink:href="#DejaVuSans-7a" x="91.259766"/>
     <use xlink:href="#DejaVuSans-65" x="143.75"/>
     <use xlink:href="#DejaVuSans-20" x="205.273438"/>
     <use xlink:href="#DejaVuSans-65" x="237.060547"/>
     <use xlink:href="#DejaVuSans-76" x="298.583984"/>
     <use xlink:href="#DejaVuSans-6f" x="357.763672"/>
     <use xlink:href="#DejaVuSans-6c" x="418.945312"/>
     <use xlink:href="#DejaVuSans-75" x="446.728516"/>
     <use xlink:href="#DejaVuSans-74" x="510.107422"/>
     <use xlink:href="#DejaVuSans-69" x="549.316406"/>
     <use xlink:href="#DejaVuSans-6f" x="577.099609"/>
     <use xlink:href="#DejaVuSans-6e" x="638.28125"/>
     <use xlink:href="#DejaVuSans-20" x="701.660156"/>
     <use xlink:href="#DejaVuSans-6f" x="733.447266"/>
     <use xlink:href="#DejaVuSans-66" x="794.628906"/>
     <use xlink:href="#DejaVuSans-20" x="829.833984"/>
     <use xlink:href="#DejaVuSans-52" x="861.621094"/>
     <use xlink:href="#DejaVuSans-75" x="926.603516"/>
     <use xlink:href="#DejaVuSans-73" x="989.982422"/>
     <use xlink:href="#DejaVuSans-74" x="1042.082031"/>
     <use xlink:href="#DejaVuSans-2f" x="1081.291016"/>
     <use xlink:href="#DejaVuSans-43" x="1114.982422"/>
     <use xlink:href="#DejaVuSans-6f" x="1184.806641"/>
     <use xlink:href="#DejaVuSans-72" x="1245.988281"/>
     <use xlink:href="#DejaVuSans-65" x="1284.851562"/>
     <use xlink:href="#DejaVuSans-75" x="1346.375"/>
     <use xlink:href="#DejaVuSans-74" x="1409.753906"/>
     <use xlink:href="#DejaVuSans-69" x="1448.962891"/>
     <use xlink:href="#DejaVuSans-6c" x="1476.746094"/>
     <use xlink:href="#DejaVuSans-73" x="1504.529297"/>
    </g>
   </g>
   <g id="legend_1">
    <g id="patch_7">
     <path d="M 59.375 59.674375 
L 258.303125 59.674375 
Q 260.303125 59.674375 260.303125 57.674375 
L 260.303125 29.318125 
Q 260.303125 27.318125 258.303125 27.318125 
L 59.375 27.318125 
Q 57.375 27.318125 57.375 29.318125 
L 57.375 57.674375 
Q 57.375 59.674375 59.375 59.674375 
z
" style="fill: #ffffff; opacity: 0.8; stroke: #cccccc; stroke-linejoin: miter"/>
    </g>
    <g id="line2d_19">
     <path d="M 61.375 35.416562 
L 71.375 35.416562 
L 81.375 35.416562 
" style="fill: none; stroke-dasharray: 3,1.5; stroke-dashoffset: 0; stroke: #808080; stroke-width: 1.5"/>
    </g>
    <g id="text_18">
     <!-- Size: multiple binaries (kilobytes) -->
     <g transform="translate(89.375 38.916562) scale(0.1 -0.1)">
      <defs>
       <path id="DejaVuSans-3a" d="M 750 794 
L 1409 794 
L 1409 0 
L 750 0 
L 750 794 
z
M 750 3309 
L 1409 3309 
L 1409 2516 
L 750 2516 
L 750 3309 
z
" transform="scale(0.015625)"/>
       <path id="DejaVuSans-6d" d="M 3328 2828 
Q 3544 3216 3844 3400 
Q 4144 3584 4550 3584 
Q 5097 3584 5394 3201 
Q 5691 2819 5691 2113 
L 5691 0 
L 5113 0 
L 5113 2094 
Q 5113 2597 4934 2840 
Q 4756 3084 4391 3084 
Q 3944 3084 3684 2787 
Q 3425 2491 3425 1978 
L 3425 0 
L 2847 0 
L 2847 2094 
Q 2847 2600 2669 2842 
Q 2491 3084 2119 3084 
Q 1678 3084 1418 2786 
Q 1159 2488 1159 1978 
L 1159 0 
L 581 0 
L 581 3500 
L 1159 3500 
L 1159 2956 
Q 1356 3278 1631 3431 
Q 1906 3584 2284 3584 
Q 2666 3584 2933 3390 
Q 3200 3197 3328 2828 
z
" transform="scale(0.015625)"/>
       <path id="DejaVuSans-70" d="M 1159 525 
L 1159 -1331 
L 581 -1331 
L 581 3500 
L 1159 3500 
L 1159 2969 
Q 1341 3281 1617 3432 
Q 1894 3584 2278 3584 
Q 2916 3584 3314 3078 
Q 3713 2572 3713 1747 
Q 3713 922 3314 415 
Q 2916 -91 2278 -91 
Q 1894 -91 1617 61 
Q 1341 213 1159 525 
z
M 3116 1747 
Q 3116 2381 2855 2742 
Q 2594 3103 2138 3103 
Q 1681 3103 1420 2742 
Q 1159 2381 1159 1747 
Q 1159 1113 1420 752 
Q 1681 391 2138 391 
Q 2594 391 2855 752 
Q 3116 1113 3116 1747 
z
" transform="scale(0.015625)"/>
       <path id="DejaVuSans-62" d="M 3116 1747 
Q 3116 2381 2855 2742 
Q 2594 3103 2138 3103 
Q 1681 3103 1420 2742 
Q 1159 2381 1159 1747 
Q 1159 1113 1420 752 
Q 1681 391 2138 391 
Q 2594 391 2855 752 
Q 3116 1113 3116 1747 
z
M 1159 2969 
Q 1341 3281 1617 3432 
Q 1894 3584 2278 3584 
Q 2916 3584 3314 3078 
Q 3713 2572 3713 1747 
Q 3713 922 3314 415 
Q 2916 -91 2278 -91 
Q 1894 -91 1617 61 
Q 1341 213 1159 525 
L 1159 0 
L 581 0 
L 581 4863 
L 1159 4863 
L 1159 2969 
z
" transform="scale(0.015625)"/>
       <path id="DejaVuSans-61" d="M 2194 1759 
Q 1497 1759 1228 1600 
Q 959 1441 959 1056 
Q 959 750 1161 570 
Q 1363 391 1709 391 
Q 2188 391 2477 730 
Q 2766 1069 2766 1631 
L 2766 1759 
L 2194 1759 
z
M 3341 1997 
L 3341 0 
L 2766 0 
L 2766 531 
Q 2569 213 2275 61 
Q 1981 -91 1556 -91 
Q 1019 -91 701 211 
Q 384 513 384 1019 
Q 384 1609 779 1909 
Q 1175 2209 1959 2209 
L 2766 2209 
L 2766 2266 
Q 2766 2663 2505 2880 
Q 2244 3097 1772 3097 
Q 1472 3097 1187 3025 
Q 903 2953 641 2809 
L 641 3341 
Q 956 3463 1253 3523 
Q 1550 3584 1831 3584 
Q 2591 3584 2966 3190 
Q 3341 2797 3341 1997 
z
" transform="scale(0.015625)"/>
       <path id="DejaVuSans-28" d="M 1984 4856 
Q 1566 4138 1362 3434 
Q 1159 2731 1159 2009 
Q 1159 1288 1364 580 
Q 1569 -128 1984 -844 
L 1484 -844 
Q 1016 -109 783 600 
Q 550 1309 550 2009 
Q 550 2706 781 3412 
Q 1013 4119 1484 4856 
L 1984 4856 
z
" transform="scale(0.015625)"/>
       <path id="DejaVuSans-6b" d="M 581 4863 
L 1159 4863 
L 1159 1991 
L 2875 3500 
L 3609 3500 
L 1753 1863 
L 3688 0 
L 2938 0 
L 1159 1709 
L 1159 0 
L 581 0 
L 581 4863 
z
" transform="scale(0.015625)"/>
       <path id="DejaVuSans-79" d="M 2059 -325 
Q 1816 -950 1584 -1140 
Q 1353 -1331 966 -1331 
L 506 -1331 
L 506 -850 
L 844 -850 
Q 1081 -850 1212 -737 
Q 1344 -625 1503 -206 
L 1606 56 
L 191 3500 
L 800 3500 
L 1894 763 
L 2988 3500 
L 3597 3500 
L 2059 -325 
z
" transform="scale(0.015625)"/>
       <path id="DejaVuSans-29" d="M 513 4856 
L 1013 4856 
Q 1481 4119 1714 3412 
Q 1947 2706 1947 2009 
Q 1947 1309 1714 600 
Q 1481 -109 1013 -844 
L 513 -844 
Q 928 -128 1133 580 
Q 1338 1288 1338 2009 
Q 1338 2731 1133 3434 
Q 928 4138 513 4856 
z
" transform="scale(0.015625)"/>
      </defs>
      <use xlink:href="#DejaVuSans-53"/>
      <use xlink:href="#DejaVuSans-69" x="63.476562"/>
      <use xlink:href="#DejaVuSans-7a" x="91.259766"/>
      <use xlink:href="#DejaVuSans-65" x="143.75"/>
      <use xlink:href="#DejaVuSans-3a" x="205.273438"/>
      <use xlink:href="#DejaVuSans-20" x="238.964844"/>
      <use xlink:href="#DejaVuSans-6d" x="270.751953"/>
      <use xlink:href="#DejaVuSans-75" x="368.164062"/>
      <use xlink:href="#DejaVuSans-6c" x="431.542969"/>
      <use xlink:href="#DejaVuSans-74" x="459.326172"/>
      <use xlink:href="#DejaVuSans-69" x="498.535156"/>
      <use xlink:href="#DejaVuSans-70" x="526.318359"/>
      <use xlink:href="#DejaVuSans-6c" x="589.794922"/>
      <use xlink:href="#DejaVuSans-65" x="617.578125"/>
      <use xlink:href="#DejaVuSans-20" x="679.101562"/>
      <use xlink:href="#DejaVuSans-62" x="710.888672"/>
      <use xlink:href="#DejaVuSans-69" x="774.365234"/>
      <use xlink:href="#DejaVuSans-6e" x="802.148438"/>
      <use xlink:href="#DejaVuSans-61" x="865.527344"/>
      <use xlink:href="#DejaVuSans-72" x="926.806641"/>
      <use xlink:href="#DejaVuSans-69" x="967.919922"/>
      <use xlink:href="#DejaVuSans-65" x="995.703125"/>
      <use xlink:href="#DejaVuSans-73" x="1057.226562"/>
      <use xlink:href="#DejaVuSans-20" x="1109.326172"/>
      <use xlink:href="#DejaVuSans-28" x="1141.113281"/>
      <use xlink:href="#DejaVuSans-6b" x="1180.126953"/>
      <use xlink:href="#DejaVuSans-69" x="1238.037109"/>
      <use xlink:href="#DejaVuSans-6c" x="1265.820312"/>
      <use xlink:href="#DejaVuSans-6f" x="1293.603516"/>
      <use xlink:href="#DejaVuSans-62" x="1354.785156"/>
      <use xlink:href="#DejaVuSans-79" x="1418.261719"/>
      <use xlink:href="#DejaVuSans-74" x="1477.441406"/>
      <use xlink:href="#DejaVuSans-65" x="1516.650391"/>
      <use xlink:href="#DejaVuSans-73" x="1578.173828"/>
      <use xlink:href="#DejaVuSans-29" x="1630.273438"/>
     </g>
    </g>
    <g id="line2d_20">
     <path d="M 61.375 50.094687 
L 71.375 50.094687 
L 81.375 50.094687 
" style="fill: none; stroke-dasharray: 6,1.5; stroke-dashoffset: 0; stroke: #008000; stroke-width: 1.5"/>
    </g>
    <g id="text_19">
     <!-- Size: multicall binary (kilobytes) -->
     <g transform="translate(89.375 53.594687) scale(0.1 -0.1)">
      <defs>
       <path id="DejaVuSans-63" d="M 3122 3366 
L 3122 2828 
Q 2878 2963 2633 3030 
Q 2388 3097 2138 3097 
Q 1578 3097 1268 2742 
Q 959 2388 959 1747 
Q 959 1106 1268 751 
Q 1578 397 2138 397 
Q 2388 397 2633 464 
Q 2878 531 3122 666 
L 3122 134 
Q 2881 22 2623 -34 
Q 2366 -91 2075 -91 
Q 1284 -91 818 406 
Q 353 903 353 1747 
Q 353 2603 823 3093 
Q 1294 3584 2113 3584 
Q 2378 3584 2631 3529 
Q 2884 3475 3122 3366 
z
" transform="scale(0.015625)"/>
      </defs>
      <use xlink:href="#DejaVuSans-53"/>
      <use xlink:href="#DejaVuSans-69" x="63.476562"/>
      <use xlink:href="#DejaVuSans-7a" x="91.259766"/>
      <use xlink:href="#DejaVuSans-65" x="143.75"/>
      <use xlink:href="#DejaVuSans-3a" x="205.273438"/>
      <use xlink:href="#DejaVuSans-20" x="238.964844"/>
      <use xlink:href="#DejaVuSans-6d" x="270.751953"/>
      <use xlink:href="#DejaVuSans-75" x="368.164062"/>
      <use xlink:href="#DejaVuSans-6c" x="431.542969"/>
      <use xlink:href="#DejaVuSans-74" x="459.326172"/>
      <use xlink:href="#DejaVuSans-69" x="498.535156"/>
      <use xlink:href="#DejaVuSans-63" x="526.318359"/>
      <use xlink:href="#DejaVuSans-61" x="581.298828"/>
      <use xlink:href="#DejaVuSans-6c" x="642.578125"/>
      <use xlink:href="#DejaVuSans-6c" x="670.361328"/>
      <use xlink:href="#DejaVuSans-20" x="698.144531"/>
      <use xlink:href="#DejaVuSans-62" x="729.931641"/>
      <use xlink:href="#DejaVuSans-69" x="793.408203"/>
      <use xlink:href="#DejaVuSans-6e" x="821.191406"/>
      <use xlink:href="#DejaVuSans-61" x="884.570312"/>
      <use xlink:href="#DejaVuSans-72" x="945.849609"/>
      <use xlink:href="#DejaVuSans-79" x="986.962891"/>
      <use xlink:href="#DejaVuSans-20" x="1046.142578"/>
      <use xlink:href="#DejaVuSans-28" x="1077.929688"/>
      <use xlink:href="#DejaVuSans-6b" x="1116.943359"/>
      <use xlink:href="#DejaVuSans-69" x="1174.853516"/>
      <use xlink:href="#DejaVuSans-6c" x="1202.636719"/>
      <use xlink:href="#DejaVuSans-6f" x="1230.419922"/>
      <use xlink:href="#DejaVuSans-62" x="1291.601562"/>
      <use xlink:href="#DejaVuSans-79" x="1355.078125"/>
      <use xlink:href="#DejaVuSans-74" x="1414.257812"/>
      <use xlink:href="#DejaVuSans-65" x="1453.466797"/>
      <use xlink:href="#DejaVuSans-73" x="1514.990234"/>
      <use xlink:href="#DejaVuSans-29" x="1567.089844"/>
     </g>
    </g>
   </g>
  </g>
 </g>
 <defs>
  <clipPath id="pd128254d36">
   <rect x="52.375" y="22.318125" width="535.68" height="352.512"/>
  </clipPath>
 </defs>
</svg>
